# WaveFront *.obj file (generated by Autodesk ATF)

mtllib shaft_visual.mtl

g shaft

v -16.550000 -0.857446 0.354020
v -16.550000 -0.769674 0.482253
v -16.550000 -0.663357 0.595585
v -16.550000 -0.540986 0.691360
v -16.550000 -0.405428 0.767333
v -16.550000 -0.259863 0.821722
v -16.550000 -0.107700 0.853254
v -16.550000 0.047492 0.861189
v -16.550000 0.202077 0.845340
v -16.550000 0.352430 0.806080
v -16.550000 0.495029 0.744329
v -16.550000 0.626530 0.661534
v -16.550000 0.743852 0.559636
v -16.550000 0.844244 0.441022
v -16.550000 0.925353 0.308475
v -16.550000 0.985278 0.165099
v -16.550000 1.022614 0.014256
v -16.550000 1.036488 -0.140519
v -16.550000 1.026572 -0.295597
v -16.550000 0.993100 -0.447344
v -16.550000 0.936856 -0.592203
v -16.550000 0.859158 -0.726779
v -16.550000 0.761828 -0.847918
v -16.550000 0.647147 -0.952779
v -16.550000 0.517804 -1.038905
v -16.550000 0.376828 -1.104278
v -16.550000 0.227526 -1.147365
v -16.550000 0.073397 -1.167156
v -16.550000 -0.081948 -1.163188
v -16.550000 -0.234865 -1.135553
v -16.550000 -0.381773 -1.084898
v -16.550000 -0.519226 -1.012413
v -16.550000 -0.644003 -0.919794
v -16.550000 -0.753180 -0.809214
v -16.550000 -0.844198 -0.683264
v -16.550000 -0.914923 -0.544896
v -16.550000 -0.963697 -0.397354
v -16.550000 -0.989377 -0.244095
v -16.550000 -0.991361 -0.088713
v -16.550000 -0.969603 0.065151
v -16.550000 -0.924613 0.213891
v -10.309452 -0.720010 -0.846505
v -10.309452 0.250957 0.835260
v -10.261284 0.282871 0.827307
v -10.218556 0.324283 0.815327
v -10.185132 0.371977 0.799098
v -10.162721 0.421752 0.779287
v -10.150587 0.475174 0.754517
v -10.150492 0.528658 0.725747
v -10.161860 0.577527 0.695714
v -10.184581 0.622617 0.664405
v -10.218407 0.662678 0.633411
v -10.260389 0.694774 0.606138
v -10.308913 0.718891 0.584056
v -10.364986 0.735753 0.567748
v -10.424044 0.743757 0.559739
v -10.482081 0.743170 0.560336
v -10.541054 0.733936 0.569542
v -10.596346 0.715960 0.586822
v -10.596346 -0.272355 -1.124991
v -10.541054 -0.248402 -1.131918
v -10.482081 -0.235813 -1.135312
v -10.424044 -0.235002 -1.135522
v -10.364986 -0.245941 -1.132596
v -10.308913 -0.268495 -1.126146
v -10.260389 -0.299677 -1.116301
v -10.218407 -0.339344 -1.102142
v -10.184581 -0.386216 -1.082944
v -10.161860 -0.435875 -1.059551
v -10.150492 -0.486319 -1.032245
v -10.150587 -0.537977 -1.000311
v -10.162721 -0.586139 -0.966432
v -10.185132 -0.628183 -0.933230
v -10.218556 -0.666086 -0.900041
v -10.261284 -0.697166 -0.870167
v -10.244919 -0.194978 -0.028456
v -10.194556 -0.142203 -0.058926
v -10.161859 -0.079868 -0.094915
v -10.149099 -0.012300 -0.133926
v -10.157162 0.055809 -0.173248
v -10.185488 0.119728 -0.210152
v -10.232111 0.175021 -0.242075
v -10.293792 0.217847 -0.266801
v -10.366249 0.245233 -0.282612
v -10.444451 0.255277 -0.288411
v -10.522967 0.247282 -0.283795
v -10.377846 0.224135 0.841102
v -10.450000 0.215009 0.842916
v -10.499002 0.219227 0.842092
v -10.548240 0.232128 0.839439
v -10.593492 0.252577 0.834882
v -10.633464 0.278990 0.828333
v -10.670055 0.312194 0.819023
v -10.700779 0.350506 0.806722
v -10.724163 0.391287 0.791785
v -10.740025 0.433396 0.774198
v -10.748758 0.478127 0.753038
v -10.749037 0.522676 0.729172
v -10.741264 0.564309 0.704223
v -10.725901 0.602530 0.678786
v -10.702514 0.638511 0.652501
v -10.671917 0.669996 0.627390
v -10.636364 0.695699 0.605318
v -9.550000 -0.857446 0.354020
v -9.550000 -0.769674 0.482253
v -9.550000 -0.663357 0.595585
v -9.550000 -0.540986 0.691360
v -9.550000 -0.405428 0.767333
v -9.550000 -0.259863 0.821722
v -9.550000 -0.107700 0.853254
v -9.550000 0.047492 0.861189
v -9.550000 0.202077 0.845340
v -9.550000 0.352430 0.806080
v -9.550000 0.495029 0.744329
v -9.550000 0.626530 0.661534
v -9.550000 0.743852 0.559636
v -9.550000 0.844244 0.441022
v -9.550000 0.925353 0.308475
v -9.550000 0.985278 0.165099
v -9.550000 1.022614 0.014256
v -9.550000 1.036488 -0.140519
v -9.550000 1.026572 -0.295597
v -9.550000 0.993100 -0.447344
v -9.550000 0.936856 -0.592203
v -9.550000 0.859158 -0.726779
v -9.550000 0.761828 -0.847918
v -9.550000 0.647147 -0.952779
v -9.550000 0.517804 -1.038905
v -9.550000 0.376828 -1.104278
v -9.550000 0.227526 -1.147365
v -9.550000 0.073397 -1.167156
v -9.550000 -0.081948 -1.163188
v -9.550000 -0.234865 -1.135553
v -9.550000 -0.381773 -1.084898
v -9.550000 -0.519226 -1.012413
v -9.550000 -0.644003 -0.919794
v -9.550000 -0.753180 -0.809214
v -9.550000 -0.844198 -0.683264
v -9.550000 -0.914923 -0.544896
v -9.550000 -0.963697 -0.397354
v -9.550000 -0.989377 -0.244095
v -9.550000 -0.991361 -0.088713
v -9.550000 -0.969603 0.065151
v -9.550000 -0.924613 0.213891
v -10.643120 -0.303856 -1.114896
v -10.683847 -0.343665 -1.100487
v -10.716323 -0.390129 -1.081215
v -10.737962 -0.438939 -1.057999
v -10.748676 -0.488638 -1.030901
v -10.748255 -0.539381 -0.999381
v -10.736216 -0.586658 -0.966045
v -10.714258 -0.627998 -0.933385
v -10.681640 -0.665378 -0.900692
v -10.639935 -0.696230 -0.871105
v -10.592881 -0.719110 -0.847467
v -10.538705 -0.735252 -0.829827
v -10.480061 -0.743544 -0.820439
v -10.422668 -0.743728 -0.820227
v -10.363984 -0.735829 -0.829181
v -13.050000 -0.857446 0.354020
v -13.050000 -0.924613 0.213891
v -13.050000 -0.969603 0.065151
v -13.050000 -0.991361 -0.088713
v -13.050000 -0.989377 -0.244095
v -13.050000 -0.963697 -0.397354
v -13.050000 -0.914923 -0.544896
v -13.050000 -0.844198 -0.683264
v -13.050000 -0.753180 -0.809214
v -13.050000 -0.644003 -0.919794
v -13.050000 -0.519226 -1.012413
v -13.050000 -0.381773 -1.084898
v -13.050000 -0.235411 -1.135410
v -13.050000 -0.081948 -1.163188
v -13.050000 0.073397 -1.167156
v -13.050000 0.227526 -1.147365
v -13.050000 0.376828 -1.104278
v -13.050000 0.517804 -1.038905
v -13.050000 0.647147 -0.952779
v -13.050000 0.761828 -0.847918
v -13.050000 0.859158 -0.726779
v -13.050000 0.936856 -0.592203
v -13.050000 0.993100 -0.447344
v -13.050000 1.026572 -0.295597
v -13.050000 1.036488 -0.140519
v -13.050000 1.022614 0.014256
v -13.050000 0.985278 0.165099
v -13.050000 0.925353 0.308475
v -13.050000 0.844244 0.441022
v -13.050000 0.743456 0.560036
v -13.050000 0.626530 0.661534
v -13.050000 0.495029 0.744329
v -13.050000 0.352430 0.806080
v -13.050000 0.202077 0.845340
v -13.050000 0.047492 0.861189
v -13.050000 -0.107700 0.853254
v -13.050000 -0.259863 0.821722
v -13.050000 -0.405428 0.767333
v -13.050000 -0.540986 0.691360
v -13.050000 -0.663357 0.595585
v -13.050000 -0.769674 0.482253
v -10.473859 -0.263985 0.011373
v -10.389228 -0.259421 0.008738
v -10.556584 -0.247858 0.002062
v -10.630793 -0.212329 -0.018450
v -10.690560 -0.160237 -0.048526
v -10.731107 -0.095742 -0.085762
v -10.749197 -0.023998 -0.127183
v -10.743384 0.049263 -0.169481
v -10.714132 0.118190 -0.209276
v -10.663778 0.177275 -0.243388
vt -0.447337 0.552648 0.000000
vt -1.748778 1.870817 0.000000
vt -0.514504 0.412519 0.000000
vt -1.889753 1.805444 0.000000
vt -2.019097 1.719318 0.000000
vt -0.402347 0.701388 0.000000
vt -0.408253 1.163893 0.000000
vt -0.457027 1.311435 0.000000
vt -0.527752 1.449803 0.000000
vt -0.380589 0.855252 0.000000
vt -0.382573 1.010634 0.000000
vt -0.618769 1.575753 0.000000
vt -0.727946 1.686333 0.000000
vt -0.852724 1.778951 0.000000
vt -0.990177 1.851437 0.000000
vt -1.137084 1.902091 0.000000
vt -1.290002 1.929727 0.000000
vt -1.445347 1.933695 0.000000
vt -1.599476 1.913904 0.000000
vt -2.133778 1.614457 0.000000
vt -2.231108 1.493318 0.000000
vt -2.308806 1.358742 0.000000
vt -2.365050 1.213883 0.000000
vt -2.398522 1.062136 0.000000
vt -2.408437 0.907057 0.000000
vt -2.394564 0.752283 0.000000
vt -2.357228 0.601440 0.000000
vt -2.297303 0.458064 0.000000
vt -2.216194 0.325517 0.000000
vt -0.602276 0.284286 0.000000
vt -2.115802 0.206903 0.000000
vt -0.708593 0.170953 0.000000
vt -1.998480 0.105005 0.000000
vt -0.830964 0.075179 0.000000
vt -1.866979 0.022210 0.000000
vt -0.966522 -0.000794 0.000000
vt -1.724380 -0.039541 0.000000
vt -1.112087 -0.055183 0.000000
vt -1.574027 -0.078801 0.000000
vt -1.264250 -0.086715 0.000000
vt -1.419442 -0.094650 0.000000
vt 0.970967 0.326142 0.000000
vt -0.970967 0.326142 0.000000
vt 0.980037 0.268432 0.000000
vt 0.000000 0.246855 0.000000
vt 0.990369 0.208515 0.000000
vt 0.000000 0.167567 0.000000
vt 1.000160 0.148751 0.000000
vt 0.000000 0.088279 0.000000
vt 1.007892 0.091100 0.000000
vt 1.013151 0.031104 0.000000
vt 0.000000 0.008992 0.000000
vt 1.014977 -0.029711 0.000000
vt 0.000000 -0.070296 0.000000
vt 1.013403 -0.088264 0.000000
vt 0.000000 -0.149584 0.000000
vt 1.008832 -0.147600 0.000000
vt 1.002022 -0.208236 0.000000
vt 0.000000 -0.228871 0.000000
vt 0.994451 -0.267320 0.000000
vt 0.000000 -0.308159 0.000000
vt 0.987386 -0.325503 0.000000
vt 0.000000 -0.387446 0.000000
vt 0.981694 -0.386128 0.000000
vt 0.978759 -0.446295 0.000000
vt 0.000000 -0.466734 0.000000
vt 0.978983 -0.504437 0.000000
vt 0.000000 -0.546022 0.000000
vt 0.982338 -0.564849 0.000000
vt 0.988316 -0.625309 0.000000
vt -0.982338 -0.564849 0.000000
vt -0.988316 -0.625309 0.000000
vt -0.980037 0.268432 0.000000
vt -0.990369 0.208515 0.000000
vt -1.000160 0.148751 0.000000
vt -1.007892 0.091100 0.000000
vt -1.013151 0.031104 0.000000
vt -1.014977 -0.029711 0.000000
vt -1.013403 -0.088264 0.000000
vt -1.008832 -0.147600 0.000000
vt -1.002022 -0.208236 0.000000
vt -0.994451 -0.267320 0.000000
vt -0.987386 -0.325503 0.000000
vt -0.981694 -0.386128 0.000000
vt -0.978759 -0.446295 0.000000
vt -0.978983 -0.504437 0.000000
vt 5.000000 -3.033169 0.000000
vt 1.500000 -3.033169 0.000000
vt 5.000000 -3.188717 0.000000
vt 1.500000 -3.188717 0.000000
vt 5.000000 3.188717 0.000000
vt 1.500000 3.188717 0.000000
vt 5.000000 3.033169 0.000000
vt 1.500000 3.033169 0.000000
vt 5.000000 2.877622 0.000000
vt 1.500000 2.877622 0.000000
vt 5.000000 2.722075 0.000000
vt 1.500000 2.722075 0.000000
vt 5.000000 2.566528 0.000000
vt 1.500000 2.566528 0.000000
vt 5.000000 2.410981 0.000000
vt 1.500000 2.410981 0.000000
vt 5.000000 2.255434 0.000000
vt 1.500000 2.255434 0.000000
vt 5.000000 2.099887 0.000000
vt 1.500000 2.099887 0.000000
vt 5.000000 1.944339 0.000000
vt 1.500000 1.944339 0.000000
vt 5.000000 1.788792 0.000000
vt 1.500000 1.788792 0.000000
vt 5.000000 1.633245 0.000000
vt 1.500000 1.633245 0.000000
vt 5.000000 1.477698 0.000000
vt 1.500000 1.477698 0.000000
vt 1.500000 1.322714 0.000000
vt -0.913636 1.388537 0.000000
vt -0.953654 1.361102 0.000000
vt 1.500000 -2.877622 0.000000
vt 5.000000 -2.877622 0.000000
vt 1.500000 -2.722075 0.000000
vt 5.000000 -2.722075 0.000000
vt 1.500000 -2.566528 0.000000
vt 5.000000 -2.566528 0.000000
vt 1.500000 -2.410981 0.000000
vt 5.000000 -2.410981 0.000000
vt 1.500000 -2.255434 0.000000
vt 5.000000 -2.255434 0.000000
vt 1.500000 -2.099887 0.000000
vt 5.000000 -2.099887 0.000000
vt 1.500000 -1.944339 0.000000
vt 5.000000 -1.944339 0.000000
vt 1.500000 -1.788792 0.000000
vt 5.000000 -1.788792 0.000000
vt 1.500000 -1.633245 0.000000
vt 5.000000 -1.633245 0.000000
vt 1.500000 -1.477698 0.000000
vt 5.000000 -1.477698 0.000000
vt 1.500000 -1.322714 0.000000
vt 5.000000 -1.322151 0.000000
vt 1.500000 -1.166604 0.000000
vt 5.000000 -1.166604 0.000000
vt 1.500000 -1.011056 0.000000
vt 5.000000 -1.011056 0.000000
vt 1.500000 -0.855509 0.000000
vt 5.000000 -0.855509 0.000000
vt 1.500000 -0.699962 0.000000
vt 5.000000 -0.699962 0.000000
vt 1.500000 -0.544415 0.000000
vt 5.000000 -0.544415 0.000000
vt 1.500000 -0.388868 0.000000
vt 5.000000 -0.388868 0.000000
vt 1.500000 -0.233321 0.000000
vt 5.000000 -0.233321 0.000000
vt 1.500000 -0.077774 0.000000
vt 5.000000 -0.077774 0.000000
vt 1.500000 0.077774 0.000000
vt 5.000000 0.077774 0.000000
vt 1.500000 0.233321 0.000000
vt 5.000000 0.233321 0.000000
vt 1.500000 0.388868 0.000000
vt 5.000000 0.388868 0.000000
vt 1.500000 0.544415 0.000000
vt 5.000000 0.544415 0.000000
vt 1.500000 0.699962 0.000000
vt 5.000000 0.699962 0.000000
vt 1.500000 0.855509 0.000000
vt 5.000000 0.855509 0.000000
vt 1.500000 1.011056 0.000000
vt 5.000000 1.011056 0.000000
vt 1.500000 1.166604 0.000000
vt 5.000000 1.166604 0.000000
vt 5.000000 1.322151 0.000000
vt -1.008946 1.336167 0.000000
vt -1.067919 1.323128 0.000000
vt -1.125956 1.322291 0.000000
vt -1.185014 1.333614 0.000000
vt -2.000000 1.322151 0.000000
vt -1.241087 1.357073 0.000000
vt -1.289611 1.389774 0.000000
vt -2.000000 1.477698 0.000000
vt -1.331593 1.431895 0.000000
vt -1.365419 1.482552 0.000000
vt -1.388140 1.537453 0.000000
vt -2.000000 1.633245 0.000000
vt -1.399508 1.594821 0.000000
vt -1.399413 1.655562 0.000000
vt -1.387279 1.714456 0.000000
vt -2.000000 1.788792 0.000000
vt -1.364868 1.768035 0.000000
vt -1.331444 1.818421 0.000000
vt -1.288716 1.861534 0.000000
vt -2.000000 1.944339 0.000000
vt -1.240548 1.894426 0.000000
vt -1.172154 1.921877 0.000000
vt -1.100000 1.931181 0.000000
vt -2.000000 2.099887 0.000000
vt -2.000000 2.255434 0.000000
vt -2.000000 2.410981 0.000000
vt -2.000000 2.566528 0.000000
vt -2.000000 2.722075 0.000000
vt -2.000000 2.877622 0.000000
vt -2.000000 3.033169 0.000000
vt -2.000000 3.188717 0.000000
vt -2.000000 -3.188717 0.000000
vt -2.000000 -3.033169 0.000000
vt -2.000000 -2.877622 0.000000
vt -2.000000 -2.722075 0.000000
vt -2.000000 -2.566528 0.000000
vt -2.000000 -2.410981 0.000000
vt -2.000000 -2.255434 0.000000
vt -2.000000 -2.099887 0.000000
vt -2.000000 -1.944339 0.000000
vt -1.127332 -1.929826 0.000000
vt -1.069939 -1.929545 0.000000
vt -1.011295 -1.917019 0.000000
vt -0.957119 -1.893108 0.000000
vt -0.910065 -1.860209 0.000000
vt -0.868360 -1.817459 0.000000
vt -0.835742 -1.767794 0.000000
vt -0.813784 -1.715103 0.000000
vt -0.801745 -1.657247 0.000000
vt -0.801324 -1.597501 0.000000
vt -0.812038 -1.540887 0.000000
vt -0.833677 -1.486830 0.000000
vt -0.866153 -1.436523 0.000000
vt -0.906880 -1.394183 0.000000
vt -0.953654 -1.361102 0.000000
vt -1.008946 -1.336167 0.000000
vt -1.067919 -1.323128 0.000000
vt -1.125956 -1.322291 0.000000
vt -2.000000 -1.166604 0.000000
vt -2.000000 -1.011056 0.000000
vt -2.000000 -0.855509 0.000000
vt -2.000000 -0.699962 0.000000
vt -2.000000 -0.544415 0.000000
vt -2.000000 -0.388868 0.000000
vt -2.000000 -0.233321 0.000000
vt -2.000000 -0.077774 0.000000
vt -2.000000 0.077774 0.000000
vt -2.000000 0.233321 0.000000
vt -2.000000 0.388868 0.000000
vt -2.000000 0.544415 0.000000
vt -2.000000 0.699962 0.000000
vt -2.000000 0.855509 0.000000
vt -2.000000 1.011056 0.000000
vt -2.000000 1.166604 0.000000
vt -1.050998 1.926884 0.000000
vt -1.001760 1.913713 0.000000
vt -0.956508 1.892762 0.000000
vt -0.916536 1.865548 0.000000
vt -0.879945 1.831062 0.000000
vt -0.849221 1.790821 0.000000
vt -0.825837 1.747387 0.000000
vt -0.809975 1.701748 0.000000
vt -0.801242 1.652260 0.000000
vt -0.800963 1.601714 0.000000
vt -0.808736 1.553173 0.000000
vt -0.824099 1.507257 0.000000
vt -0.847486 1.462694 0.000000
vt -0.878083 1.422419 0.000000
vt -2.000000 -1.322151 0.000000
vt -1.185014 -1.333614 0.000000
vt -1.241087 -1.357073 0.000000
vt -1.289611 -1.389774 0.000000
vt -2.000000 -1.477698 0.000000
vt -1.331593 -1.431895 0.000000
vt -1.365419 -1.482552 0.000000
vt -1.388140 -1.537453 0.000000
vt -2.000000 -1.633245 0.000000
vt -1.399508 -1.594821 0.000000
vt -1.399413 -1.655562 0.000000
vt -1.387279 -1.714456 0.000000
vt -2.000000 -1.788792 0.000000
vt -1.364868 -1.768035 0.000000
vt -1.331444 -1.818421 0.000000
vt -1.288716 -1.861534 0.000000
vt -1.240548 -1.894426 0.000000
vt -1.186016 -1.917886 0.000000
vt -0.970967 -0.146275 0.000000
vt 0.970967 -0.146275 0.000000
vt -0.962616 -0.072870 0.000000
vt 0.000010 -0.061195 0.000000
vt -0.959624 -0.000000 0.000000
vt 0.000010 0.023884 0.000000
vt -0.961019 0.049229 0.000000
vt 0.000010 0.108964 0.000000
vt -0.965172 0.100094 0.000000
vt -0.971450 0.149623 0.000000
vt 0.000010 0.194043 0.000000
vt -0.978985 0.197443 0.000000
vt -0.987524 0.247053 0.000000
vt 0.000010 0.279123 0.000000
vt -0.996028 0.297024 0.000000
vt -1.003483 0.345842 0.000000
vt 0.000010 0.364203 0.000000
vt -1.009306 0.393858 0.000000
vt 0.000010 0.449282 0.000000
vt -1.013346 0.444006 0.000000
vt -1.014952 0.494586 0.000000
vt 0.000010 0.534362 0.000000
vt -1.014163 0.543794 0.000000
vt -1.011244 0.592178 0.000000
vt 0.000010 0.619442 0.000000
vt -1.006471 0.642338 0.000000
vt 0.000010 0.704521 0.000000
vt -1.000467 0.692620 0.000000
vt -0.994203 0.741389 0.000000
vt -0.988316 0.789601 0.000000
vt 0.995324 0.732655 0.000000
vt 0.988316 0.789601 0.000000
vt 0.963873 -0.087242 0.000000
vt 0.960069 -0.027373 0.000000
vt 0.960160 0.030116 0.000000
vt 0.964144 0.090053 0.000000
vt 0.971350 0.148927 0.000000
vt 0.980381 0.205717 0.000000
vt 0.990578 0.264661 0.000000
vt 1.000201 0.323389 0.000000
vt 1.007815 0.380048 0.000000
vt 1.013047 0.439003 0.000000
vt 1.014973 0.498815 0.000000
vt 1.013591 0.556505 0.000000
vt 1.009291 0.614662 0.000000
vt 1.002750 0.674284 0.000000
vt -1.003105 0.154939 0.000000
vt -1.015000 -0.000000 0.000000
vt 0.872463 -0.518684 0.000000
vt -1.003105 -0.154939 0.000000
vt -0.967697 -0.306246 0.000000
vt -0.909608 -0.450376 0.000000
vt -0.830198 -0.583948 0.000000
vt 0.783062 -0.645786 0.000000
vt -0.731329 -0.703834 0.000000
vt 0.675306 -0.757752 0.000000
vt -0.615319 -0.807222 0.000000
vt 0.551721 -0.851956 0.000000
vt -0.484886 -0.891690 0.000000
vt 0.415205 -0.926191 0.000000
vt -0.343087 -0.955257 0.000000
vt 0.268956 -0.978717 0.000000
vt -0.193247 -0.996434 0.000000
vt 0.116404 -1.008303 0.000000
vt -0.038877 -1.014255 0.000000
vt 0.941415 -0.379424 0.000000
vt 0.116404 1.008303 0.000000
vt -0.038877 1.014255 0.000000
vt -0.193247 0.996434 0.000000
vt 0.988301 -0.231271 0.000000
vt 0.941415 0.379424 0.000000
vt 0.872463 0.518684 0.000000
vt 0.783062 0.645786 0.000000
vt 0.988301 0.231271 0.000000
vt 1.012022 -0.077697 0.000000
vt 1.012022 0.077697 0.000000
vt 0.675306 0.757752 0.000000
vt 0.551721 0.851956 0.000000
vt 0.415205 0.926191 0.000000
vt 0.268956 0.978717 0.000000
vt -0.343087 0.955257 0.000000
vt -0.484886 0.891690 0.000000
vt -0.615319 0.807222 0.000000
vt -0.731329 0.703834 0.000000
vt -0.830198 0.583948 0.000000
vt -0.909608 0.450376 0.000000
vt -0.967697 0.306246 0.000000
vn -1.000000 -0.000000 0.000000
vn -1.000000 -0.000000 0.000000
vn -1.000000 -0.000000 0.000000
vn -1.000000 -0.000000 0.000000
vn -1.000000 -0.000000 0.000000
vn -1.000000 -0.000000 0.000000
vn -1.000000 -0.000000 0.000000
vn -1.000000 -0.000000 0.000000
vn -1.000000 -0.000000 0.000000
vn -1.000000 -0.000000 0.000000
vn -1.000000 -0.000000 0.000000
vn -1.000000 -0.000000 0.000000
vn -1.000000 -0.000000 0.000000
vn -1.000000 -0.000000 0.000000
vn -1.000000 -0.000000 0.000000
vn -1.000000 -0.000000 0.000000
vn -1.000000 -0.000000 0.000000
vn -1.000000 -0.000000 0.000000
vn -1.000000 -0.000000 0.000000
vn -1.000000 -0.000000 0.000000
vn -1.000000 -0.000000 0.000000
vn -1.000000 -0.000000 0.000000
vn -1.000000 -0.000000 0.000000
vn -1.000000 -0.000000 0.000000
vn -1.000000 -0.000000 0.000000
vn -1.000000 -0.000000 0.000000
vn -1.000000 -0.000000 0.000000
vn -1.000000 -0.000000 0.000000
vn -1.000000 -0.000000 0.000000
vn -1.000000 -0.000000 0.000000
vn -1.000000 -0.000000 0.000000
vn -1.000000 -0.000000 0.000000
vn -1.000000 -0.000000 0.000000
vn -1.000000 -0.000000 0.000000
vn -1.000000 -0.000000 0.000000
vn -1.000000 -0.000000 0.000000
vn -1.000000 -0.000000 0.000000
vn -1.000000 -0.000000 0.000000
vn -1.000000 -0.000000 0.000000
vn -1.000000 -0.000000 0.000000
vn -1.000000 -0.000000 0.000000
vn -0.465066 0.766671 -0.442638
vn -0.465066 0.766671 -0.442638
vn -0.625731 0.675534 -0.390020
vn -0.680166 0.634847 -0.366529
vn -0.768043 0.554601 -0.320199
vn -0.848036 0.458941 -0.264970
vn -0.879583 0.412008 -0.237873
vn -0.957020 0.251167 -0.145011
vn -0.954251 0.258947 -0.149503
vn -0.994631 0.089624 -0.051745
vn -0.999551 0.025952 -0.014983
vn -0.995100 -0.085624 0.049435
vn -0.972675 -0.201065 0.116085
vn -0.957034 -0.251125 0.144987
vn -0.878259 -0.414120 0.239092
vn -0.881401 -0.409083 0.236184
vn -0.768638 -0.553982 0.319842
vn -0.722859 -0.598420 0.345498
vn -0.628617 -0.673521 0.388858
vn -0.517265 -0.741167 0.427913
vn -0.466951 -0.765812 0.442142
vn -0.275753 -0.832448 0.480614
vn -0.279974 -0.831391 0.480004
vn -0.083124 -0.863028 0.498270
vn -0.015093 -0.865927 0.499943
vn 0.110352 -0.860736 0.496946
vn 0.246614 -0.839277 0.484557
vn 0.306903 -0.824232 0.475870
vn 0.491197 -0.754350 0.435524
vn 0.306903 -0.824232 0.475870
vn 0.491197 -0.754350 0.435524
vn -0.625731 0.675534 -0.390020
vn -0.768043 0.554601 -0.320199
vn -0.879583 0.412008 -0.237873
vn -0.954251 0.258947 -0.149503
vn -0.994631 0.089624 -0.051745
vn -0.995100 -0.085624 0.049435
vn -0.957034 -0.251125 0.144987
vn -0.881401 -0.409083 0.236184
vn -0.768638 -0.553982 0.319842
vn -0.628617 -0.673521 0.388858
vn -0.466951 -0.765812 0.442142
vn -0.279974 -0.831391 0.480004
vn -0.083124 -0.863028 0.498270
vn 0.110352 -0.860736 0.496946
vn 0.000000 -0.932201 0.361942
vn 0.000000 -0.932201 0.361942
vn 0.000000 -0.866025 0.500000
vn 0.000000 -0.866025 0.500000
vn 0.000000 -0.779551 0.626338
vn 0.000000 -0.779551 0.626338
vn 0.000000 -0.674805 0.737996
vn 0.000000 -0.674805 0.737996
vn 0.000000 -0.554242 0.832355
vn 0.000000 -0.554242 0.832355
vn 0.000000 -0.420688 0.907205
vn 0.000000 -0.420688 0.907205
vn 0.000000 -0.277274 0.960791
vn 0.000000 -0.277274 0.960791
vn 0.000000 -0.127360 0.991857
vn 0.000000 -0.127360 0.991857
vn 0.000000 0.025539 0.999674
vn 0.000000 0.025539 0.999674
vn 0.000000 0.177839 0.984060
vn 0.000000 0.177839 0.984060
vn 0.000000 0.325971 0.945380
vn 0.000000 0.325971 0.945380
vn -0.000000 0.466462 0.884541
vn -0.000000 0.466462 0.884541
vn -0.000000 0.596020 0.802970
vn -0.000000 0.596020 0.802970
vn -0.000000 0.711217 0.702972
vn -0.000000 0.664167 0.747585
vn -0.000000 0.684128 0.729362
vn 0.000000 -0.976526 0.215400
vn 0.000000 -0.976526 0.215400
vn 0.000000 -0.997962 0.063810
vn 0.000000 -0.997962 0.063810
vn 0.000000 -0.996007 -0.089276
vn 0.000000 -0.996007 -0.089276
vn 0.000000 -0.970706 -0.240269
vn 0.000000 -0.970706 -0.240269
vn 0.000000 -0.922653 -0.385631
vn 0.000000 -0.922653 -0.385631
vn 0.000000 -0.852974 -0.521954
vn 0.000000 -0.852974 -0.521954
vn 0.000000 -0.763301 -0.646043
vn 0.000000 -0.763301 -0.646043
vn 0.000000 -0.655738 -0.754989
vn 0.000000 -0.655738 -0.754989
vn 0.000000 -0.532804 -0.846239
vn 0.000000 -0.532804 -0.846239
vn -0.000000 -0.397382 -0.917653
vn -0.000000 -0.397382 -0.917653
vn -0.000000 -0.253183 -0.967418
vn -0.000000 -0.252646 -0.967559
vn -0.000000 -0.101988 -0.994786
vn -0.000000 -0.101988 -0.994786
vn -0.000000 0.051061 -0.998696
vn -0.000000 0.051061 -0.998696
vn -0.000000 0.202912 -0.979197
vn -0.000000 0.202912 -0.979197
vn -0.000000 0.350008 -0.936747
vn -0.000000 0.350008 -0.936747
vn -0.000000 0.488900 -0.872340
vn -0.000000 0.488900 -0.872340
vn -0.000000 0.616332 -0.787486
vn -0.000000 0.616332 -0.787486
vn -0.000000 0.729318 -0.684175
vn -0.000000 0.729318 -0.684175
vn -0.000000 0.825210 -0.564826
vn -0.000000 0.825210 -0.564826
vn -0.000000 0.901759 -0.432239
vn -0.000000 0.901759 -0.432239
vn -0.000000 0.957172 -0.289521
vn -0.000000 0.957172 -0.289521
vn -0.000000 0.990149 -0.140016
vn -0.000000 0.990149 -0.140016
vn -0.000000 0.999918 0.012770
vn -0.000000 0.999918 0.012770
vn -0.000000 0.986250 0.165258
vn -0.000000 0.986250 0.165258
vn -0.000000 0.949466 0.313871
vn -0.000000 0.949466 0.313871
vn -0.000000 0.890426 0.455128
vn -0.000000 0.890426 0.455128
vn -0.000000 0.810516 0.585717
vn -0.000000 0.810516 0.585717
vn -0.000000 0.711607 0.702577
vn -0.000000 0.701838 0.712337
vn -0.000000 0.710931 0.703262
vn -0.000000 0.711511 0.702675
vn -0.000000 0.703627 0.710569
vn -0.000000 0.711607 0.702577
vn -0.000000 0.687018 0.726640
vn -0.000000 0.663255 0.748393
vn -0.000000 0.596020 0.802970
vn -0.000000 0.631636 0.775265
vn -0.000000 0.592173 0.805811
vn -0.000000 0.547742 0.836647
vn -0.000000 0.466462 0.884541
vn -0.000000 0.499605 0.866253
vn -0.000000 0.446902 0.894583
vn 0.000000 0.394273 0.918994
vn 0.000000 0.325971 0.945380
vn 0.000000 0.345234 0.938517
vn 0.000000 0.298239 0.954491
vn 0.000000 0.257440 0.966294
vn 0.000000 0.177839 0.984060
vn 0.000000 0.225997 0.974128
vn 0.000000 0.199571 0.979883
vn 0.000000 0.190580 0.981672
vn 0.000000 0.025539 0.999674
vn 0.000000 -0.127360 0.991857
vn 0.000000 -0.277274 0.960791
vn 0.000000 -0.420688 0.907205
vn 0.000000 -0.554242 0.832355
vn 0.000000 -0.674805 0.737996
vn 0.000000 -0.779551 0.626338
vn 0.000000 -0.866025 0.500000
vn 0.000000 -0.932201 0.361942
vn 0.000000 -0.976526 0.215400
vn 0.000000 -0.997962 0.063810
vn 0.000000 -0.996007 -0.089276
vn 0.000000 -0.970706 -0.240269
vn 0.000000 -0.922653 -0.385631
vn 0.000000 -0.852974 -0.521954
vn 0.000000 -0.763301 -0.646043
vn 0.000000 -0.753986 -0.656891
vn 0.000000 -0.753804 -0.657099
vn 0.000000 -0.745638 -0.666352
vn 0.000000 -0.729735 -0.683731
vn 0.000000 -0.707193 -0.707020
vn 0.000000 -0.676797 -0.736170
vn 0.000000 -0.639979 -0.768392
vn 0.000000 -0.599246 -0.800565
vn 0.000000 -0.552664 -0.833404
vn 0.000000 -0.502679 -0.864473
vn 0.000000 -0.453704 -0.891152
vn -0.000000 -0.405623 -0.914041
vn -0.000000 -0.359839 -0.933014
vn -0.000000 -0.320618 -0.947209
vn -0.000000 -0.289582 -0.957153
vn -0.000000 -0.265983 -0.963978
vn -0.000000 -0.253577 -0.967315
vn -0.000000 -0.252780 -0.967524
vn -0.000000 -0.101988 -0.994786
vn -0.000000 0.051061 -0.998696
vn -0.000000 0.202912 -0.979197
vn -0.000000 0.350008 -0.936747
vn -0.000000 0.488900 -0.872340
vn -0.000000 0.616332 -0.787486
vn -0.000000 0.729318 -0.684175
vn -0.000000 0.825210 -0.564826
vn -0.000000 0.901759 -0.432239
vn -0.000000 0.957172 -0.289521
vn -0.000000 0.990149 -0.140016
vn -0.000000 0.999918 0.012770
vn -0.000000 0.986250 0.165258
vn -0.000000 0.949466 0.313871
vn -0.000000 0.890426 0.455128
vn -0.000000 0.810516 0.585717
vn 0.000000 0.194735 0.980856
vn 0.000000 0.207446 0.978246
vn 0.000000 0.227593 0.973756
vn 0.000000 0.253616 0.967305
vn 0.000000 0.286329 0.958132
vn 0.000000 0.324080 0.946030
vn 0.000000 0.364254 0.931300
vn 0.000000 0.405747 0.913985
vn -0.000000 0.449810 0.893124
vn -0.000000 0.493710 0.869626
vn -0.000000 0.534719 0.845030
vn -0.000000 0.572386 0.819984
vn -0.000000 0.607824 0.794072
vn -0.000000 0.638846 0.769335
vn -0.000000 -0.252646 -0.967559
vn -0.000000 -0.263557 -0.964644
vn -0.000000 -0.285780 -0.958295
vn -0.000000 -0.316500 -0.948593
vn -0.000000 -0.397382 -0.917653
vn -0.000000 -0.355582 -0.934645
vn -0.000000 -0.401766 -0.915742
vn 0.000000 -0.450687 -0.892682
vn 0.000000 -0.532804 -0.846239
vn 0.000000 -0.500395 -0.865797
vn 0.000000 -0.551280 -0.834320
vn 0.000000 -0.598735 -0.800947
vn 0.000000 -0.655738 -0.754989
vn 0.000000 -0.640162 -0.768240
vn 0.000000 -0.677494 -0.735528
vn 0.000000 -0.708116 -0.706096
vn 0.000000 -0.730621 -0.682783
vn 0.000000 -0.746206 -0.665715
vn -0.468493 0.765105 -0.441734
vn -0.468493 0.765105 -0.441734
vn -0.240518 0.840603 -0.485322
vn -0.202573 0.848070 -0.489634
vn -0.000000 0.866025 -0.500000
vn 0.079530 0.863282 -0.498416
vn 0.163360 0.854392 -0.493283
vn 0.355279 0.809526 -0.467380
vn 0.327491 0.818268 -0.472427
vn 0.478321 0.760531 -0.439092
vn 0.602645 0.691096 -0.399005
vn 0.611648 0.685138 -0.395565
vn 0.733537 0.588594 -0.339825
vn 0.801865 0.517455 -0.298753
vn 0.836070 0.475122 -0.274312
vn 0.913906 0.351541 -0.202963
vn 0.937024 0.302473 -0.174633
vn 0.966919 0.220910 -0.127543
vn 0.997323 0.063327 -0.036562
vn 0.995883 0.078506 -0.045326
vn 0.996973 -0.067329 0.038872
vn 0.977945 -0.180879 0.104431
vn 0.970896 -0.207413 0.119750
vn 0.919838 -0.339740 0.196149
vn 0.880439 -0.410634 0.237080
vn 0.841723 -0.467575 0.269955
vn 0.712594 -0.607583 0.350788
vn 0.739858 -0.582630 0.336381
vn 0.621219 -0.678650 0.391819
vn 0.487819 -0.755992 0.436472
vn 0.643765 -0.662702 0.382611
vn 0.487819 -0.755992 0.436472
vn -0.286724 0.829664 -0.479007
vn -0.091117 0.862423 -0.497920
vn 0.100217 0.861666 -0.497483
vn 0.295689 0.827300 -0.477642
vn 0.476284 0.761489 -0.439646
vn 0.633233 0.670270 -0.386981
vn 0.772140 0.550318 -0.317726
vn 0.880997 0.409736 -0.236561
vn 0.954156 0.259210 -0.149655
vn 0.994232 0.092879 -0.053624
vn 0.995778 -0.079494 0.045896
vn 0.959881 -0.242840 0.140204
vn 0.887882 -0.398434 0.230036
vn 0.779570 -0.542405 0.313158
vn 1.000000 0.000000 -0.000000
vn 1.000000 0.000000 -0.000000
vn 1.000000 0.000000 -0.000000
vn 1.000000 0.000000 -0.000000
vn 1.000000 0.000000 -0.000000
vn 1.000000 0.000000 -0.000000
vn 1.000000 0.000000 -0.000000
vn 1.000000 0.000000 -0.000000
vn 1.000000 0.000000 -0.000000
vn 1.000000 0.000000 -0.000000
vn 1.000000 0.000000 -0.000000
vn 1.000000 0.000000 -0.000000
vn 1.000000 0.000000 -0.000000
vn 1.000000 0.000000 -0.000000
vn 1.000000 0.000000 -0.000000
vn 1.000000 0.000000 -0.000000
vn 1.000000 0.000000 -0.000000
vn 1.000000 0.000000 -0.000000
vn 1.000000 0.000000 -0.000000
vn 1.000000 0.000000 -0.000000
vn 1.000000 0.000000 -0.000000
vn 1.000000 0.000000 -0.000000
vn 1.000000 0.000000 -0.000000
vn 1.000000 0.000000 -0.000000
vn 1.000000 0.000000 -0.000000
vn 1.000000 0.000000 -0.000000
vn 1.000000 0.000000 -0.000000
vn 1.000000 0.000000 -0.000000
vn 1.000000 0.000000 -0.000000
vn 1.000000 0.000000 -0.000000
vn 1.000000 0.000000 -0.000000
vn 1.000000 0.000000 -0.000000
vn 1.000000 0.000000 -0.000000
vn 1.000000 0.000000 -0.000000
vn 1.000000 0.000000 -0.000000
vn 1.000000 0.000000 -0.000000
vn 1.000000 0.000000 -0.000000
vn 1.000000 0.000000 -0.000000
vn 1.000000 0.000000 -0.000000
vn 1.000000 0.000000 -0.000000
vn 1.000000 0.000000 -0.000000
usemtl Opaque(64,64,64)
f 2/1/1 17/2/2 1/3/3
f 1/3/3 17/2/2 18/4/4
f 1/3/3 18/4/4 19/5/5
f 3/6/6 6/7/7 2/1/1
f 2/1/1 6/7/7 7/8/8
f 2/1/1 7/8/8 8/9/9
f 4/10/10 5/11/11 3/6/6
f 3/6/6 5/11/11 6/7/7
f 8/9/9 9/12/12 2/1/1
f 2/1/1 9/12/12 10/13/13
f 2/1/1 10/13/13 11/14/14
f 11/14/14 12/15/15 2/1/1
f 2/1/1 12/15/15 13/16/16
f 2/1/1 13/16/16 14/17/17
f 14/17/17 15/18/18 2/1/1
f 2/1/1 15/18/18 16/19/19
f 2/1/1 16/19/19 17/2/2
f 19/5/5 20/20/20 1/3/3
f 1/3/3 20/20/20 21/21/21
f 1/3/3 21/21/21 22/22/22
f 22/22/22 23/23/23 1/3/3
f 1/3/3 23/23/23 24/24/24
f 1/3/3 24/24/24 25/25/25
f 25/25/25 26/26/26 1/3/3
f 1/3/3 26/26/26 27/27/27
f 1/3/3 27/27/27 28/28/28
f 28/28/28 29/29/29 1/3/3
f 1/3/3 29/29/29 41/30/30
f 41/30/30 29/29/29 30/31/31
f 41/30/30 30/31/31 40/32/32
f 40/32/32 30/31/31 31/33/33
f 40/32/32 31/33/33 39/34/34
f 39/34/34 31/33/33 32/35/35
f 39/34/34 32/35/35 38/36/36
f 38/36/36 32/35/35 33/37/37
f 38/36/36 33/37/37 37/38/38
f 37/38/38 33/37/37 34/39/39
f 37/38/38 34/39/39 36/40/40
f 36/40/40 34/39/39 35/41/41
f 42/42/42 43/43/43 75/44/44
f 75/44/44 43/43/43 76/45/45
f 75/44/44 76/45/45 74/46/46
f 74/46/46 76/45/45 77/47/47
f 74/46/46 77/47/47 73/48/48
f 73/48/48 77/47/47 78/49/49
f 73/48/48 78/49/49 72/50/50
f 72/50/50 78/49/49 71/51/51
f 71/51/51 78/49/49 79/52/52
f 71/51/51 79/52/52 70/53/53
f 70/53/53 79/52/52 80/54/54
f 70/53/53 80/54/54 69/55/55
f 69/55/55 80/54/54 81/56/56
f 69/55/55 81/56/56 68/57/57
f 68/57/57 81/56/56 67/58/58
f 67/58/58 81/56/56 82/59/59
f 67/58/58 82/59/59 66/60/60
f 66/60/60 82/59/59 83/61/61
f 66/60/60 83/61/61 65/62/62
f 65/62/62 83/61/61 84/63/63
f 65/62/62 84/63/63 64/64/64
f 64/64/64 84/63/63 63/65/65
f 63/65/65 84/63/63 85/66/66
f 63/65/65 85/66/66 62/67/67
f 62/67/67 85/66/66 86/68/68
f 62/67/67 86/68/68 61/69/69
f 61/69/69 86/68/68 60/70/70
f 60/70/70 86/68/68 58/71/71
f 60/70/70 58/71/71 59/72/72
f 43/43/43 44/73/73 76/45/45
f 76/45/45 44/73/73 45/74/74
f 76/45/45 45/74/74 77/47/47
f 77/47/47 45/74/74 46/75/75
f 77/47/47 46/75/75 78/49/49
f 78/49/49 46/75/75 47/76/76
f 78/49/49 47/76/76 48/77/77
f 78/49/49 48/77/77 79/52/52
f 79/52/52 48/77/77 49/78/78
f 79/52/52 49/78/78 80/54/54
f 80/54/54 49/78/78 50/79/79
f 80/54/54 50/79/79 81/56/56
f 81/56/56 50/79/79 51/80/80
f 81/56/56 51/80/80 52/81/81
f 81/56/56 52/81/81 82/59/59
f 82/59/59 52/81/81 53/82/82
f 82/59/59 53/82/82 83/61/61
f 83/61/61 53/82/82 54/83/83
f 83/61/61 54/83/83 84/63/63
f 84/63/63 54/83/83 55/84/84
f 84/63/63 55/84/84 56/85/85
f 84/63/63 56/85/85 85/66/66
f 85/66/66 56/85/85 57/86/86
f 85/66/66 57/86/86 86/68/68
f 86/68/68 57/86/86 58/71/71
f 41/87/87 161/88/88 1/89/89
f 1/89/89 161/88/88 160/90/90
f 1/91/89 160/92/90 2/93/91
f 2/93/91 160/92/90 200/94/92
f 2/93/91 200/94/92 3/95/93
f 3/95/93 200/94/92 199/96/94
f 3/95/93 199/96/94 4/97/95
f 4/97/95 199/96/94 198/98/96
f 4/97/95 198/98/96 5/99/97
f 5/99/97 198/98/96 197/100/98
f 5/99/97 197/100/98 6/101/99
f 6/101/99 197/100/98 196/102/100
f 6/101/99 196/102/100 7/103/101
f 7/103/101 196/102/100 195/104/102
f 7/103/101 195/104/102 8/105/103
f 8/105/103 195/104/102 194/106/104
f 8/105/103 194/106/104 9/107/105
f 9/107/105 194/106/104 193/108/106
f 9/107/105 193/108/106 10/109/107
f 10/109/107 193/108/106 192/110/108
f 10/109/107 192/110/108 11/111/109
f 11/111/109 192/110/108 191/112/110
f 11/111/109 191/112/110 12/113/111
f 12/113/111 191/112/110 190/114/112
f 12/113/111 190/114/112 189/115/113
f 189/115/113 190/114/112 103/116/114
f 189/115/113 103/116/114 59/117/115
f 161/88/88 41/87/87 162/118/116
f 162/118/116 41/87/87 40/119/117
f 162/118/116 40/119/117 163/120/118
f 163/120/118 40/119/117 39/121/119
f 163/120/118 39/121/119 164/122/120
f 164/122/120 39/121/119 38/123/121
f 164/122/120 38/123/121 165/124/122
f 165/124/122 38/123/121 37/125/123
f 165/124/122 37/125/123 166/126/124
f 166/126/124 37/125/123 36/127/125
f 166/126/124 36/127/125 167/128/126
f 167/128/126 36/127/125 35/129/127
f 167/128/126 35/129/127 168/130/128
f 168/130/128 35/129/127 34/131/129
f 168/130/128 34/131/129 169/132/130
f 169/132/130 34/131/129 33/133/131
f 169/132/130 33/133/131 170/134/132
f 170/134/132 33/133/131 32/135/133
f 170/134/132 32/135/133 171/136/134
f 171/136/134 32/135/133 31/137/135
f 171/136/134 31/137/135 172/138/136
f 172/138/136 31/137/135 30/139/137
f 172/138/136 30/139/137 173/140/138
f 173/140/138 30/139/137 29/141/139
f 173/140/138 29/141/139 174/142/140
f 174/142/140 29/141/139 28/143/141
f 174/142/140 28/143/141 175/144/142
f 175/144/142 28/143/141 27/145/143
f 175/144/142 27/145/143 176/146/144
f 176/146/144 27/145/143 26/147/145
f 176/146/144 26/147/145 177/148/146
f 177/148/146 26/147/145 25/149/147
f 177/148/146 25/149/147 178/150/148
f 178/150/148 25/149/147 24/151/149
f 178/150/148 24/151/149 179/152/150
f 179/152/150 24/151/149 23/153/151
f 179/152/150 23/153/151 180/154/152
f 180/154/152 23/153/151 22/155/153
f 180/154/152 22/155/153 181/156/154
f 181/156/154 22/155/153 21/157/155
f 181/156/154 21/157/155 182/158/156
f 182/158/156 21/157/155 20/159/157
f 182/158/156 20/159/157 183/160/158
f 183/160/158 20/159/157 19/161/159
f 183/160/158 19/161/159 184/162/160
f 184/162/160 19/161/159 18/163/161
f 184/162/160 18/163/161 185/164/162
f 185/164/162 18/163/161 17/165/163
f 185/164/162 17/165/163 186/166/164
f 186/166/164 17/165/163 16/167/165
f 186/166/164 16/167/165 187/168/166
f 187/168/166 16/167/165 15/169/167
f 187/168/166 15/169/167 188/170/168
f 188/170/168 15/169/167 14/171/169
f 188/170/168 14/171/169 13/172/170
f 188/170/168 13/172/170 189/115/113
f 189/115/113 13/172/170 12/113/111
f 59/117/115 58/173/171 189/115/113
f 189/115/113 58/173/171 57/174/172
f 189/115/113 57/174/172 56/175/173
f 55/176/174 116/177/175 56/175/173
f 56/175/173 116/177/175 188/170/168
f 56/175/173 188/170/168 189/115/113
f 55/176/174 54/178/176 116/177/175
f 116/177/175 54/178/176 53/179/177
f 116/177/175 53/179/177 115/180/178
f 115/180/178 53/179/177 52/181/179
f 115/180/178 52/181/179 51/182/180
f 51/182/180 50/183/181 115/180/178
f 115/180/178 50/183/181 114/184/182
f 114/184/182 50/183/181 49/185/183
f 114/184/182 49/185/183 48/186/184
f 48/186/184 47/187/185 114/184/182
f 114/184/182 47/187/185 113/188/186
f 113/188/186 47/187/185 46/189/187
f 113/188/186 46/189/187 45/190/188
f 45/190/188 44/191/189 113/188/186
f 113/188/186 44/191/189 112/192/190
f 112/192/190 44/191/189 43/193/191
f 112/192/190 43/193/191 87/194/192
f 87/194/192 88/195/193 112/192/190
f 112/192/190 88/195/193 193/108/106
f 112/192/190 193/108/106 111/196/194
f 111/196/194 193/108/106 194/106/104
f 111/196/194 194/106/104 110/197/195
f 110/197/195 194/106/104 195/104/102
f 110/197/195 195/104/102 109/198/196
f 109/198/196 195/104/102 196/102/100
f 109/198/196 196/102/100 108/199/197
f 108/199/197 196/102/100 197/100/98
f 108/199/197 197/100/98 107/200/198
f 107/200/198 197/100/98 198/98/96
f 107/200/198 198/98/96 106/201/199
f 106/201/199 198/98/96 199/96/94
f 106/201/199 199/96/94 105/202/200
f 105/202/200 199/96/94 200/94/92
f 105/202/200 200/94/92 104/203/201
f 104/203/201 200/94/92 160/92/90
f 104/204/201 160/90/90 144/205/202
f 144/205/202 160/90/90 161/88/88
f 144/205/202 161/88/88 143/206/203
f 143/206/203 161/88/88 162/118/116
f 143/206/203 162/118/116 142/207/204
f 142/207/204 162/118/116 163/120/118
f 142/207/204 163/120/118 141/208/205
f 141/208/205 163/120/118 164/122/120
f 141/208/205 164/122/120 140/209/206
f 140/209/206 164/122/120 165/124/122
f 140/209/206 165/124/122 139/210/207
f 139/210/207 165/124/122 166/126/124
f 139/210/207 166/126/124 138/211/208
f 138/211/208 166/126/124 167/128/126
f 138/211/208 167/128/126 137/212/209
f 137/212/209 167/128/126 168/130/128
f 137/212/209 168/130/128 158/213/210
f 158/213/210 168/130/128 157/214/211
f 157/214/211 168/130/128 156/215/212
f 156/215/212 168/130/128 155/216/213
f 155/216/213 168/130/128 154/217/214
f 154/217/214 168/130/128 169/132/130
f 154/217/214 169/132/130 153/218/215
f 153/218/215 169/132/130 152/219/216
f 152/219/216 169/132/130 151/220/217
f 151/220/217 169/132/130 170/134/132
f 151/220/217 170/134/132 150/221/218
f 150/221/218 170/134/132 149/222/219
f 149/222/219 170/134/132 148/223/220
f 148/223/220 170/134/132 171/136/134
f 148/223/220 171/136/134 147/224/221
f 147/224/221 171/136/134 146/225/222
f 146/225/222 171/136/134 145/226/223
f 145/226/223 171/136/134 172/138/136
f 145/226/223 172/138/136 60/227/224
f 60/227/224 172/138/136 61/228/225
f 61/228/225 172/138/136 62/229/226
f 62/229/226 172/138/136 63/230/227
f 63/230/227 172/138/136 173/140/138
f 63/230/227 173/140/138 132/231/228
f 132/231/228 173/140/138 131/232/229
f 131/232/229 173/140/138 174/142/140
f 131/232/229 174/142/140 130/233/230
f 130/233/230 174/142/140 175/144/142
f 130/233/230 175/144/142 129/234/231
f 129/234/231 175/144/142 176/146/144
f 129/234/231 176/146/144 128/235/232
f 128/235/232 176/146/144 177/148/146
f 128/235/232 177/148/146 127/236/233
f 127/236/233 177/148/146 178/150/148
f 127/236/233 178/150/148 126/237/234
f 126/237/234 178/150/148 179/152/150
f 126/237/234 179/152/150 125/238/235
f 125/238/235 179/152/150 180/154/152
f 125/238/235 180/154/152 124/239/236
f 124/239/236 180/154/152 181/156/154
f 124/239/236 181/156/154 123/240/237
f 123/240/237 181/156/154 182/158/156
f 123/240/237 182/158/156 122/241/238
f 122/241/238 182/158/156 183/160/158
f 122/241/238 183/160/158 121/242/239
f 121/242/239 183/160/158 184/162/160
f 121/242/239 184/162/160 120/243/240
f 120/243/240 184/162/160 185/164/162
f 120/243/240 185/164/162 119/244/241
f 119/244/241 185/164/162 186/166/164
f 119/244/241 186/166/164 118/245/242
f 118/245/242 186/166/164 187/168/166
f 118/245/242 187/168/166 117/246/243
f 117/246/243 187/168/166 188/170/168
f 117/246/243 188/170/168 116/177/175
f 88/195/193 89/247/244 193/108/106
f 193/108/106 89/247/244 90/248/245
f 193/108/106 90/248/245 91/249/246
f 91/249/246 92/250/247 193/108/106
f 193/108/106 92/250/247 192/110/108
f 92/250/247 93/251/248 192/110/108
f 192/110/108 93/251/248 94/252/249
f 192/110/108 94/252/249 95/253/250
f 95/253/250 96/254/251 192/110/108
f 192/110/108 96/254/251 191/112/110
f 96/254/251 97/255/252 191/112/110
f 191/112/110 97/255/252 98/256/253
f 191/112/110 98/256/253 99/257/254
f 191/112/110 99/257/254 190/114/112
f 190/114/112 99/257/254 100/258/255
f 190/114/112 100/258/255 101/259/256
f 101/259/256 102/260/257 190/114/112
f 190/114/112 102/260/257 103/116/114
f 132/231/228 133/261/258 63/230/227
f 63/230/227 133/261/258 64/262/259
f 64/262/259 133/261/258 65/263/260
f 65/263/260 133/261/258 66/264/261
f 66/264/261 133/261/258 134/265/262
f 66/264/261 134/265/262 67/266/263
f 67/266/263 134/265/262 68/267/264
f 68/267/264 134/265/262 69/268/265
f 69/268/265 134/265/262 135/269/266
f 69/268/265 135/269/266 70/270/267
f 70/270/267 135/269/266 71/271/268
f 71/271/268 135/269/266 72/272/269
f 72/272/269 135/269/266 136/273/270
f 72/272/269 136/273/270 73/274/271
f 73/274/271 136/273/270 74/275/272
f 74/275/272 136/273/270 75/276/273
f 75/276/273 136/273/270 137/212/209
f 75/276/273 137/212/209 42/277/274
f 42/277/274 137/212/209 159/278/275
f 159/278/275 137/212/209 158/213/210
f 43/279/276 42/280/277 87/281/278
f 87/281/278 42/280/277 202/282/279
f 87/281/278 202/282/279 88/283/280
f 88/283/280 202/282/279 201/284/281
f 88/283/280 201/284/281 89/285/282
f 89/285/282 201/284/281 203/286/283
f 89/285/282 203/286/283 90/287/284
f 90/287/284 203/286/283 91/288/285
f 91/288/285 203/286/283 204/289/286
f 91/288/285 204/289/286 92/290/287
f 92/290/287 204/289/286 93/291/288
f 93/291/288 204/289/286 205/292/289
f 93/291/288 205/292/289 94/293/290
f 94/293/290 205/292/289 95/294/291
f 95/294/291 205/292/289 206/295/292
f 95/294/291 206/295/292 96/296/293
f 96/296/293 206/295/292 207/297/294
f 96/296/293 207/297/294 97/298/295
f 97/298/295 207/297/294 98/299/296
f 98/299/296 207/297/294 208/300/297
f 98/299/296 208/300/297 99/301/298
f 99/301/298 208/300/297 100/302/299
f 100/302/299 208/300/297 209/303/300
f 100/302/299 209/303/300 101/304/301
f 101/304/301 209/303/300 210/305/302
f 101/304/301 210/305/302 102/306/303
f 102/306/303 210/305/302 103/307/304
f 103/307/304 210/305/302 59/308/305
f 59/308/305 210/305/302 145/309/306
f 59/308/305 145/309/306 60/310/307
f 42/280/277 159/311/308 202/282/279
f 202/282/279 159/311/308 158/312/309
f 202/282/279 158/312/309 201/284/281
f 201/284/281 158/312/309 157/313/310
f 201/284/281 157/313/310 156/314/311
f 201/284/281 156/314/311 203/286/283
f 203/286/283 156/314/311 155/315/312
f 203/286/283 155/315/312 204/289/286
f 204/289/286 155/315/312 154/316/313
f 204/289/286 154/316/313 153/317/314
f 204/289/286 153/317/314 205/292/289
f 205/292/289 153/317/314 152/318/315
f 205/292/289 152/318/315 206/295/292
f 206/295/292 152/318/315 151/319/316
f 206/295/292 151/319/316 207/297/294
f 207/297/294 151/319/316 150/320/317
f 207/297/294 150/320/317 149/321/318
f 207/297/294 149/321/318 208/300/297
f 208/300/297 149/321/318 148/322/319
f 208/300/297 148/322/319 209/303/300
f 209/303/300 148/322/319 147/323/320
f 209/303/300 147/323/320 146/324/321
f 209/303/300 146/324/321 210/305/302
f 210/305/302 146/324/321 145/309/306
f 105/325/322 104/326/323 128/327/324
f 128/327/324 104/326/323 144/328/325
f 128/327/324 144/328/325 143/329/326
f 143/329/326 142/330/327 128/327/324
f 128/327/324 142/330/327 141/331/328
f 128/327/324 141/331/328 129/332/329
f 129/332/329 141/331/328 140/333/330
f 129/332/329 140/333/330 130/334/331
f 130/334/331 140/333/330 139/335/332
f 130/334/331 139/335/332 131/336/333
f 131/336/333 139/335/332 138/337/334
f 131/336/333 138/337/334 132/338/335
f 132/338/335 138/337/334 137/339/336
f 132/338/335 137/339/336 133/340/337
f 133/340/337 137/339/336 136/341/338
f 133/340/337 136/341/338 134/342/339
f 134/342/339 136/341/338 135/343/340
f 127/344/341 115/345/342 128/327/324
f 128/327/324 115/345/342 114/346/343
f 128/327/324 114/346/343 113/347/344
f 126/348/345 122/349/346 127/344/341
f 127/344/341 122/349/346 121/350/347
f 127/344/341 121/350/347 120/351/348
f 122/349/346 126/348/345 123/352/349
f 123/352/349 126/348/345 125/353/350
f 123/352/349 125/353/350 124/354/351
f 120/351/348 119/355/352 127/344/341
f 127/344/341 119/355/352 118/356/353
f 127/344/341 118/356/353 117/357/354
f 117/357/354 116/358/355 127/344/341
f 127/344/341 116/358/355 115/345/342
f 113/347/344 112/359/356 128/327/324
f 128/327/324 112/359/356 111/360/357
f 128/327/324 111/360/357 110/361/358
f 110/361/358 109/362/359 128/327/324
f 128/327/324 109/362/359 108/363/360
f 128/327/324 108/363/360 107/364/361
f 107/364/361 106/365/362 128/327/324
f 128/327/324 106/365/362 105/325/322
# 210 vertices
# 365 texture params
# 362 normals
# 420 facets

# 1 groups
