# WaveFront *.obj file (generated by Autodesk ATF)

mtllib body69_visual.mtl

g Body69

v -27.220000 1.323677 -0.088062
v -27.220000 1.329972 -0.085127
v -27.220000 1.334884 -0.080215
v -27.220000 1.337819 -0.073920
v -27.220000 1.338425 -0.067001
v -27.220000 1.336627 -0.060291
v -27.220000 1.332643 -0.054602
v -27.220000 1.326953 -0.050618
v -27.220000 1.320244 -0.048820
v -27.220000 1.313324 -0.049425
v -27.270000 1.313324 -0.049425
v -27.270000 1.320244 -0.048820
v -27.270000 1.326953 -0.050618
v -27.270000 1.332643 -0.054602
v -27.270000 1.336627 -0.060291
v -27.270000 1.338425 -0.067001
v -27.270000 1.337819 -0.073920
v -27.270000 1.334884 -0.080215
v -27.270000 1.329972 -0.085127
v -27.270000 1.323677 -0.088062
v -27.220000 1.315385 0.058796
v -27.220000 1.317973 0.054313
v -27.220000 1.322456 0.051725
v -27.220000 1.327632 0.051725
v -27.270000 1.327632 0.051725
v -27.270000 1.322456 0.051725
v -27.270000 1.317973 0.054313
v -27.270000 1.315385 0.058796
v -27.220000 1.675366 0.144899
v -27.220000 1.679849 0.147488
v -27.220000 1.682437 0.151970
v -27.220000 1.682437 0.157147
v -27.270000 1.682437 0.157147
v -27.270000 1.682437 0.151970
v -27.270000 1.679849 0.147488
v -27.270000 1.675366 0.144899
v -27.220000 1.738332 0.064455
v -27.220000 1.732037 0.061520
v -27.220000 1.727125 0.056608
v -27.220000 1.724190 0.050313
v -27.220000 1.723584 0.043394
v -27.220000 1.725382 0.036684
v -27.220000 1.729366 0.030994
v -27.220000 1.735056 0.027010
v -27.220000 1.741765 0.025213
v -27.220000 1.748684 0.025818
v -27.270000 1.748684 0.025818
v -27.270000 1.741765 0.025213
v -27.270000 1.735056 0.027010
v -27.270000 1.729366 0.030994
v -27.270000 1.725382 0.036684
v -27.270000 1.723584 0.043394
v -27.270000 1.724190 0.050313
v -27.270000 1.727125 0.056608
v -27.270000 1.732037 0.061520
v -27.270000 1.738332 0.064455
v -27.220000 1.672476 -0.346596
v -27.220000 1.680240 -0.375574
v -27.220000 1.873425 -0.323810
v -27.220000 1.777662 0.033583
v -27.220000 1.786628 0.077396
v -27.220000 1.757123 0.187512
v -27.220000 1.679849 0.166806
v -27.220000 1.312797 0.068455
v -27.220000 1.235523 0.047749
v -27.220000 1.265028 -0.062366
v -27.220000 1.294699 -0.095827
v -27.220000 1.390462 -0.453219
v -27.220000 1.583648 -0.401456
v -27.220000 1.575883 -0.372478
v -27.223000 1.583648 -0.401456
v -27.223000 1.575883 -0.372478
v -27.223000 1.672476 -0.346596
v -27.223000 1.680240 -0.375574
v -27.270000 1.390462 -0.453219
v -27.270000 1.873425 -0.323810
v -27.270000 1.777662 0.033583
v -27.270000 1.786628 0.077396
v -27.270000 1.757123 0.187512
v -27.270000 1.679849 0.166806
v -27.270000 1.312797 0.068455
v -27.270000 1.235523 0.047749
v -27.270000 1.265028 -0.062366
v -27.270000 1.294699 -0.095827
vt 0.050000 0.031416 0.000000
vt 0.000000 0.031416 0.000000
vt 0.050000 0.024435 0.000000
vt 0.000000 0.024435 0.000000
vt 0.050000 0.017453 0.000000
vt 0.000000 0.017453 0.000000
vt 0.050000 0.010472 0.000000
vt 0.000000 0.010472 0.000000
vt 0.050000 0.003491 0.000000
vt 0.000000 0.003491 0.000000
vt 0.050000 -0.003491 0.000000
vt 0.000000 -0.003491 0.000000
vt 0.050000 -0.010472 0.000000
vt 0.000000 -0.010472 0.000000
vt 0.050000 -0.017453 0.000000
vt -0.000000 -0.017453 0.000000
vt 0.050000 -0.024435 0.000000
vt -0.000000 -0.024435 0.000000
vt 0.050000 -0.031416 0.000000
vt -0.000000 -0.031416 0.000000
vt 0.050000 0.007854 0.000000
vt -0.000000 0.007854 0.000000
vt 0.050000 0.002618 0.000000
vt -0.000000 0.002618 0.000000
vt 0.050000 -0.002618 0.000000
vt 0.000000 -0.002618 0.000000
vt 0.050000 -0.007854 0.000000
vt -0.000000 -0.007854 0.000000
vt 0.050000 0.007854 0.000000
vt 0.000000 0.007854 0.000000
vt 0.050000 0.002618 0.000000
vt 0.000000 0.002618 0.000000
vt 0.050000 -0.002618 0.000000
vt 0.000000 -0.002618 0.000000
vt 0.050000 -0.007854 0.000000
vt 0.000000 -0.007854 0.000000
vt 0.050000 0.031416 0.000000
vt -0.000000 0.031416 0.000000
vt 0.050000 0.024435 0.000000
vt -0.000000 0.024435 0.000000
vt 0.050000 0.017453 0.000000
vt -0.000000 0.017453 0.000000
vt 0.050000 0.010472 0.000000
vt -0.000000 0.010472 0.000000
vt 0.050000 0.003491 0.000000
vt -0.000000 0.003491 0.000000
vt 0.050000 -0.003491 0.000000
vt -0.000000 -0.003491 0.000000
vt 0.050000 -0.010472 0.000000
vt -0.000000 -0.010472 0.000000
vt 0.050000 -0.017453 0.000000
vt 0.000000 -0.017453 0.000000
vt 0.050000 -0.024435 0.000000
vt 0.000000 -0.024435 0.000000
vt 0.050000 -0.031416 0.000000
vt 0.000000 -0.031416 0.000000
vt 0.380000 0.050000 0.000000
vt 0.380000 0.250000 0.000000
vt 0.350000 0.050000 0.000000
vt 0.008794 0.213160 0.000000
vt 0.005321 0.207144 0.000000
vt 0.010000 0.250000 0.000000
vt 0.010000 0.220000 0.000000
vt 0.000000 0.202679 0.000000
vt 0.350000 -0.050000 0.000000
vt -0.000000 -0.202679 0.000000
vt 0.005321 -0.207144 0.000000
vt -0.006527 -0.200304 0.000000
vt -0.006527 0.200304 0.000000
vt -0.013473 -0.200304 0.000000
vt -0.013473 0.200304 0.000000
vt -0.124000 -0.180000 0.000000
vt -0.124000 0.180000 0.000000
vt -0.020000 0.202679 0.000000
vt -0.025321 0.207144 0.000000
vt -0.028794 0.213160 0.000000
vt -0.125340 0.185000 0.000000
vt -0.030000 0.220000 0.000000
vt -0.129000 0.188660 0.000000
vt -0.144000 0.270000 0.000000
vt -0.134000 0.190000 0.000000
vt -0.144000 0.190000 0.000000
vt -0.030000 0.270000 0.000000
vt -0.125340 -0.185000 0.000000
vt -0.028794 -0.213160 0.000000
vt -0.025321 -0.207144 0.000000
vt -0.020000 -0.202679 0.000000
vt -0.030000 -0.220000 0.000000
vt -0.129000 -0.188660 0.000000
vt -0.144000 -0.270000 0.000000
vt -0.134000 -0.190000 0.000000
vt -0.144000 -0.190000 0.000000
vt -0.030000 -0.270000 0.000000
vt 0.008794 -0.213160 0.000000
vt 0.380000 -0.250000 0.000000
vt 0.380000 -0.050000 0.000000
vt 0.010000 -0.220000 0.000000
vt 0.010000 -0.250000 0.000000
vt -0.030000 -0.003000 0.000000
vt -0.000000 -0.003000 0.000000
vt -0.030000 -0.000000 0.000000
vt -0.000000 0.000000 0.000000
vt -0.030000 -0.003000 0.000000
vt -0.000000 -0.003000 0.000000
vt -0.030000 0.000000 0.000000
vt -0.000000 0.000000 0.000000
vt -0.100000 -0.003000 0.000000
vt -0.000000 -0.003000 0.000000
vt -0.100000 0.000000 0.000000
vt 0.000000 0.000000 0.000000
vt -0.015000 -0.050000 0.000000
vt 0.015000 -0.050000 0.000000
vt -0.015000 0.050000 0.000000
vt 0.015000 0.050000 0.000000
vt 0.000000 0.300000 0.000000
vt 0.003000 0.300000 0.000000
vt 0.000000 0.500000 0.000000
vt 0.050000 0.500000 0.000000
vt 0.050000 0.000000 0.000000
vt 0.003000 0.200000 0.000000
vt 0.000000 0.000000 0.000000
vt 0.000000 0.200000 0.000000
vt 0.000000 -0.050000 0.000000
vt 0.370000 -0.050000 0.000000
vt 0.000000 0.000000 0.000000
vt 0.370000 0.000000 0.000000
vt 0.000000 -0.050000 0.000000
vt 0.030000 -0.050000 0.000000
vt -0.000000 0.000000 0.000000
vt 0.030000 0.000000 0.000000
vt 0.120000 -0.050000 0.000000
vt 0.170000 -0.050000 0.000000
vt 0.120000 -0.000000 0.000000
vt 0.170000 -0.000000 0.000000
vt 0.000000 -0.050000 0.000000
vt 0.114000 -0.050000 0.000000
vt 0.000000 0.000000 0.000000
vt 0.114000 0.000000 0.000000
vt 0.000000 -0.050000 0.000000
vt 0.080000 -0.050000 0.000000
vt -0.000000 0.000000 0.000000
vt 0.080000 0.000000 0.000000
vt -0.050000 -0.010000 0.000000
vt -0.000000 -0.010000 0.000000
vt -0.050000 -0.000000 0.000000
vt 0.000000 0.000000 0.000000
vt 0.000000 -0.050000 0.000000
vt 0.360000 -0.050000 0.000000
vt -0.000000 0.000000 0.000000
vt 0.360000 0.000000 0.000000
vt -0.000000 -0.050000 0.000000
vt 0.010000 -0.050000 0.000000
vt 0.000000 0.000000 0.000000
vt 0.010000 0.000000 0.000000
vt 0.460000 -0.050000 0.000000
vt 0.540000 -0.050000 0.000000
vt 0.460000 -0.000000 0.000000
vt 0.540000 -0.000000 0.000000
vt -0.050000 -0.114000 0.000000
vt 0.000000 -0.114000 0.000000
vt -0.050000 -0.000000 0.000000
vt 0.000000 0.000000 0.000000
vt -0.370000 -0.050000 0.000000
vt -0.320000 -0.050000 0.000000
vt -0.370000 0.000000 0.000000
vt -0.320000 0.000000 0.000000
vt 0.470000 -0.050000 0.000000
vt 0.500000 -0.050000 0.000000
vt 0.470000 0.000000 0.000000
vt 0.500000 0.000000 0.000000
vt 0.000000 -0.050000 0.000000
vt 0.370000 -0.050000 0.000000
vt 0.000000 0.000000 0.000000
vt 0.370000 -0.000000 0.000000
vt -0.278355 -0.250000 0.000000
vt 0.096324 0.207144 0.000000
vt -0.278355 0.250000 0.000000
vt 0.092851 0.213160 0.000000
vt 0.091645 0.220000 0.000000
vt 0.091645 -0.250000 0.000000
vt 0.091645 -0.220000 0.000000
vt 0.092851 -0.213160 0.000000
vt 0.096324 -0.207144 0.000000
vt 0.101645 -0.202679 0.000000
vt 0.101645 0.202679 0.000000
vt 0.108172 -0.200304 0.000000
vt 0.108172 0.200304 0.000000
vt 0.115118 -0.200304 0.000000
vt 0.115118 0.200304 0.000000
vt 0.225645 -0.180000 0.000000
vt 0.225645 0.180000 0.000000
vt 0.121645 -0.202679 0.000000
vt 0.126966 -0.207144 0.000000
vt 0.130439 -0.213160 0.000000
vt 0.226985 -0.185000 0.000000
vt 0.131645 -0.220000 0.000000
vt 0.230645 -0.188660 0.000000
vt 0.245645 -0.270000 0.000000
vt 0.235645 -0.190000 0.000000
vt 0.245645 -0.190000 0.000000
vt 0.131645 -0.270000 0.000000
vt 0.226985 0.185000 0.000000
vt 0.130439 0.213160 0.000000
vt 0.126966 0.207144 0.000000
vt 0.121645 0.202679 0.000000
vt 0.131645 0.220000 0.000000
vt 0.230645 0.188660 0.000000
vt 0.245645 0.270000 0.000000
vt 0.235645 0.190000 0.000000
vt 0.245645 0.190000 0.000000
vt 0.131645 0.270000 0.000000
vt 0.091645 0.250000 0.000000
vn -0.000000 -0.258819 0.965926
vn -0.000000 -0.258819 0.965926
vn -0.000000 -0.573576 0.819152
vn -0.000000 -0.573576 0.819152
vn -0.000000 -0.819152 0.573576
vn -0.000000 -0.819152 0.573576
vn -0.000000 -0.965926 0.258819
vn -0.000000 -0.965926 0.258819
vn -0.000000 -0.996195 -0.087156
vn -0.000000 -0.996195 -0.087156
vn -0.000000 -0.906308 -0.422618
vn -0.000000 -0.906308 -0.422618
vn -0.000000 -0.707107 -0.707107
vn -0.000000 -0.707107 -0.707107
vn 0.000000 -0.422618 -0.906308
vn 0.000000 -0.422618 -0.906308
vn 0.000000 -0.087156 -0.996195
vn 0.000000 -0.087156 -0.996195
vn 0.000000 0.258819 -0.965926
vn 0.000000 0.258819 -0.965926
vn 0.000000 0.965926 0.258819
vn 0.000000 0.965926 0.258819
vn 0.000000 0.707107 0.707107
vn 0.000000 0.707107 0.707107
vn -0.000000 0.258819 0.965926
vn -0.000000 0.258819 0.965926
vn -0.000000 -0.258819 0.965926
vn -0.000000 -0.258819 0.965926
vn -0.000000 -0.258819 0.965926
vn -0.000000 -0.258819 0.965926
vn -0.000000 -0.707107 0.707107
vn -0.000000 -0.707107 0.707107
vn -0.000000 -0.965926 0.258819
vn -0.000000 -0.965926 0.258819
vn -0.000000 -0.965926 -0.258819
vn -0.000000 -0.965926 -0.258819
vn 0.000000 0.258819 -0.965926
vn 0.000000 0.258819 -0.965926
vn 0.000000 0.573576 -0.819152
vn 0.000000 0.573576 -0.819152
vn 0.000000 0.819152 -0.573576
vn 0.000000 0.819152 -0.573576
vn 0.000000 0.965926 -0.258819
vn 0.000000 0.965926 -0.258819
vn 0.000000 0.996195 0.087156
vn 0.000000 0.996195 0.087156
vn 0.000000 0.906308 0.422618
vn 0.000000 0.906308 0.422618
vn 0.000000 0.707107 0.707107
vn 0.000000 0.707107 0.707107
vn -0.000000 0.422618 0.906308
vn -0.000000 0.422618 0.906308
vn -0.000000 0.087156 0.996195
vn -0.000000 0.087156 0.996195
vn -0.000000 -0.258819 0.965926
vn -0.000000 -0.258819 0.965926
vn 1.000000 -0.000000 0.000000
vn 1.000000 -0.000000 0.000000
vn 1.000000 -0.000000 0.000000
vn 1.000000 -0.000000 0.000000
vn 1.000000 -0.000000 0.000000
vn 1.000000 -0.000000 0.000000
vn 1.000000 -0.000000 0.000000
vn 1.000000 -0.000000 0.000000
vn 1.000000 -0.000000 0.000000
vn 1.000000 -0.000000 0.000000
vn 1.000000 -0.000000 0.000000
vn 1.000000 -0.000000 0.000000
vn 1.000000 -0.000000 0.000000
vn 1.000000 -0.000000 0.000000
vn 1.000000 -0.000000 0.000000
vn 1.000000 -0.000000 0.000000
vn 1.000000 -0.000000 0.000000
vn 1.000000 -0.000000 0.000000
vn 1.000000 -0.000000 0.000000
vn 1.000000 -0.000000 0.000000
vn 1.000000 -0.000000 0.000000
vn 1.000000 -0.000000 0.000000
vn 1.000000 -0.000000 0.000000
vn 1.000000 -0.000000 0.000000
vn 1.000000 -0.000000 0.000000
vn 1.000000 -0.000000 0.000000
vn 1.000000 -0.000000 0.000000
vn 1.000000 -0.000000 0.000000
vn 1.000000 -0.000000 0.000000
vn 1.000000 -0.000000 0.000000
vn 1.000000 -0.000000 0.000000
vn 1.000000 -0.000000 0.000000
vn 1.000000 -0.000000 0.000000
vn 1.000000 -0.000000 0.000000
vn 1.000000 -0.000000 0.000000
vn 1.000000 -0.000000 0.000000
vn 1.000000 -0.000000 0.000000
vn 1.000000 -0.000000 0.000000
vn 1.000000 -0.000000 0.000000
vn 1.000000 -0.000000 0.000000
vn 1.000000 -0.000000 0.000000
vn 1.000000 -0.000000 0.000000
vn 0.000000 0.965926 0.258819
vn 0.000000 0.965926 0.258819
vn 0.000000 0.965926 0.258819
vn 0.000000 0.965926 0.258819
vn -0.000000 -0.965926 -0.258819
vn -0.000000 -0.965926 -0.258819
vn -0.000000 -0.965926 -0.258819
vn -0.000000 -0.965926 -0.258819
vn 0.000000 0.258819 -0.965926
vn 0.000000 0.258819 -0.965926
vn 0.000000 0.258819 -0.965926
vn 0.000000 0.258819 -0.965926
vn 1.000000 -0.000000 0.000000
vn 1.000000 -0.000000 0.000000
vn 1.000000 -0.000000 0.000000
vn 1.000000 -0.000000 0.000000
vn 0.000000 0.258819 -0.965926
vn 0.000000 0.258819 -0.965926
vn 0.000000 0.258819 -0.965926
vn 0.000000 0.258819 -0.965926
vn 0.000000 0.258819 -0.965926
vn 0.000000 0.258819 -0.965926
vn 0.000000 0.258819 -0.965926
vn 0.000000 0.258819 -0.965926
vn 0.000000 0.965926 0.258819
vn 0.000000 0.965926 0.258819
vn 0.000000 0.965926 0.258819
vn 0.000000 0.965926 0.258819
vn -0.000000 -0.258819 0.965926
vn -0.000000 -0.258819 0.965926
vn 0.000000 0.258819 -0.965926
vn 0.000000 0.258819 -0.965926
vn 0.000000 0.965926 0.258819
vn 0.000000 0.965926 0.258819
vn 0.000000 0.965926 0.258819
vn 0.000000 0.965926 0.258819
vn -0.000000 -0.258819 0.965926
vn -0.000000 -0.258819 0.965926
vn -0.000000 -0.258819 0.965926
vn -0.000000 -0.258819 0.965926
vn -0.000000 -0.965926 -0.258819
vn -0.000000 -0.965926 -0.258819
vn -0.000000 -0.965926 -0.258819
vn -0.000000 -0.965926 -0.258819
vn 0.000000 0.965926 0.258819
vn 0.000000 0.965926 0.258819
vn 0.000000 0.965926 0.258819
vn 0.000000 0.965926 0.258819
vn -0.000000 -0.258819 0.965926
vn -0.000000 -0.258819 0.965926
vn -0.000000 -0.258819 0.965926
vn -0.000000 -0.258819 0.965926
vn -0.000000 -0.965926 -0.258819
vn -0.000000 -0.965926 -0.258819
vn -0.000000 -0.965926 -0.258819
vn -0.000000 -0.965926 -0.258819
vn 0.000000 0.258819 -0.965926
vn 0.000000 0.258819 -0.965926
vn -0.000000 -0.258819 0.965926
vn -0.000000 -0.258819 0.965926
vn -0.000000 -0.965926 -0.258819
vn -0.000000 -0.965926 -0.258819
vn -0.000000 -0.965926 -0.258819
vn -0.000000 -0.965926 -0.258819
vn -1.000000 0.000000 -0.000000
vn -1.000000 0.000000 -0.000000
vn -1.000000 0.000000 -0.000000
vn -1.000000 0.000000 -0.000000
vn -1.000000 0.000000 -0.000000
vn -1.000000 0.000000 -0.000000
vn -1.000000 0.000000 -0.000000
vn -1.000000 0.000000 -0.000000
vn -1.000000 0.000000 -0.000000
vn -1.000000 0.000000 -0.000000
vn -1.000000 0.000000 -0.000000
vn -1.000000 0.000000 -0.000000
vn -1.000000 0.000000 -0.000000
vn -1.000000 0.000000 -0.000000
vn -1.000000 0.000000 -0.000000
vn -1.000000 0.000000 -0.000000
vn -1.000000 0.000000 -0.000000
vn -1.000000 0.000000 -0.000000
vn -1.000000 0.000000 -0.000000
vn -1.000000 0.000000 -0.000000
vn -1.000000 0.000000 -0.000000
vn -1.000000 0.000000 -0.000000
vn -1.000000 0.000000 -0.000000
vn -1.000000 0.000000 -0.000000
vn -1.000000 0.000000 -0.000000
vn -1.000000 0.000000 -0.000000
vn -1.000000 0.000000 -0.000000
vn -1.000000 0.000000 -0.000000
vn -1.000000 0.000000 -0.000000
vn -1.000000 0.000000 -0.000000
vn -1.000000 0.000000 -0.000000
vn -1.000000 0.000000 -0.000000
vn -1.000000 0.000000 -0.000000
vn -1.000000 0.000000 -0.000000
vn -1.000000 0.000000 -0.000000
vn -1.000000 0.000000 -0.000000
vn -1.000000 0.000000 -0.000000
vn -1.000000 0.000000 -0.000000
usemtl Opaque(202,209,238)
f 20/1/1 1/2/2 19/3/3
f 19/3/3 1/2/2 2/4/4
f 19/3/3 2/4/4 18/5/5
f 18/5/5 2/4/4 3/6/6
f 18/5/5 3/6/6 17/7/7
f 17/7/7 3/6/6 4/8/8
f 17/7/7 4/8/8 16/9/9
f 16/9/9 4/8/8 5/10/10
f 16/9/9 5/10/10 15/11/11
f 15/11/11 5/10/10 6/12/12
f 15/11/11 6/12/12 14/13/13
f 14/13/13 6/12/12 7/14/14
f 14/13/13 7/14/14 13/15/15
f 13/15/15 7/14/14 8/16/16
f 13/15/15 8/16/16 12/17/17
f 12/17/17 8/16/16 9/18/18
f 12/17/17 9/18/18 11/19/19
f 11/19/19 9/18/18 10/20/20
f 28/21/21 21/22/22 27/23/23
f 27/23/23 21/22/22 22/24/24
f 27/23/23 22/24/24 26/25/25
f 26/25/25 22/24/24 23/26/26
f 26/25/25 23/26/26 25/27/27
f 25/27/27 23/26/26 24/28/28
f 36/29/29 29/30/30 35/31/31
f 35/31/31 29/30/30 30/32/32
f 35/31/31 30/32/32 34/33/33
f 34/33/33 30/32/32 31/34/34
f 34/33/33 31/34/34 33/35/35
f 33/35/35 31/34/34 32/36/36
f 56/37/37 37/38/38 55/39/39
f 55/39/39 37/38/38 38/40/40
f 55/39/39 38/40/40 54/41/41
f 54/41/41 38/40/40 39/42/42
f 54/41/41 39/42/42 53/43/43
f 53/43/43 39/42/42 40/44/44
f 53/43/43 40/44/44 52/45/45
f 52/45/45 40/44/44 41/46/46
f 52/45/45 41/46/46 51/47/47
f 51/47/47 41/46/46 42/48/48
f 51/47/47 42/48/48 50/49/49
f 50/49/49 42/48/48 43/50/50
f 50/49/49 43/50/50 49/51/51
f 49/51/51 43/50/50 44/52/52
f 49/51/51 44/52/52 48/53/53
f 48/53/53 44/52/52 45/54/54
f 48/53/53 45/54/54 47/55/55
f 47/55/55 45/54/54 46/56/56
f 58/57/57 59/58/58 57/59/59
f 57/59/59 59/58/58 45/60/60
f 57/59/59 45/60/60 44/61/61
f 60/62/62 46/63/63 59/58/58
f 59/58/58 46/63/63 45/60/60
f 44/61/61 43/64/64 57/59/59
f 57/59/59 43/64/64 70/65/65
f 70/65/65 43/64/64 4/66/66
f 70/65/65 4/66/66 3/67/67
f 4/66/66 43/64/64 5/68/68
f 5/68/68 43/64/64 42/69/69
f 5/68/68 42/69/69 6/70/70
f 6/70/70 42/69/69 41/71/71
f 6/70/70 41/71/71 24/72/72
f 24/72/72 41/71/71 29/73/73
f 29/73/73 41/71/71 40/74/74
f 29/73/73 40/74/74 39/75/75
f 39/75/75 38/76/76 29/73/73
f 29/73/73 38/76/76 30/77/77
f 30/77/77 38/76/76 37/78/78
f 30/77/77 37/78/78 31/79/79
f 31/79/79 37/78/78 62/80/80
f 31/79/79 62/80/80 32/81/81
f 32/81/81 62/80/80 63/82/82
f 37/78/78 61/83/83 62/80/80
f 23/84/84 9/85/85 24/72/72
f 24/72/72 9/85/85 8/86/86
f 24/72/72 8/86/86 7/87/87
f 9/85/85 23/84/84 10/88/88
f 10/88/88 23/84/84 22/89/89
f 10/88/88 22/89/89 65/90/90
f 65/90/90 22/89/89 21/91/91
f 65/90/90 21/91/91 64/92/92
f 65/90/90 66/93/93 10/88/88
f 7/87/87 6/70/70 24/72/72
f 3/67/67 2/94/94 70/65/65
f 70/65/65 2/94/94 68/95/95
f 70/65/65 68/95/95 69/96/96
f 2/94/94 1/97/97 68/95/95
f 68/95/95 1/97/97 67/98/98
f 71/99/99 72/100/100 69/101/101
f 69/101/101 72/100/100 70/102/102
f 73/103/103 74/104/104 57/105/105
f 57/105/105 74/104/104 58/106/106
f 72/107/107 73/108/108 70/109/109
f 70/109/109 73/108/108 57/110/110
f 72/111/111 71/112/112 73/113/113
f 73/113/113 71/112/112 74/114/114
f 58/115/115 74/116/116 59/117/117
f 59/117/117 74/116/116 76/118/118
f 76/118/118 74/116/116 75/119/119
f 75/119/119 74/116/116 71/120/120
f 75/119/119 71/120/120 68/121/121
f 68/121/121 71/120/120 69/122/122
f 76/123/123 77/124/124 59/125/125
f 59/125/125 77/124/124 60/126/126
f 77/127/127 47/128/55 60/129/128
f 60/129/128 47/128/55 46/130/56
f 56/131/37 78/132/129 37/133/38
f 37/133/38 78/132/129 61/134/130
f 78/135/131 79/136/132 61/137/133
f 61/137/133 79/136/132 62/138/134
f 79/139/135 80/140/136 62/141/137
f 62/141/137 80/140/136 63/142/138
f 33/143/139 32/144/140 80/145/141
f 80/145/141 32/144/140 63/146/142
f 36/147/29 25/148/27 29/149/30
f 29/149/30 25/148/27 24/150/28
f 28/151/143 81/152/144 21/153/145
f 21/153/145 81/152/144 64/154/146
f 81/155/147 82/156/148 64/157/149
f 64/157/149 82/156/148 65/158/150
f 83/159/151 66/160/152 82/161/153
f 82/161/153 66/160/152 65/162/154
f 83/163/155 11/164/19 66/165/156
f 66/165/156 11/164/19 10/166/20
f 20/167/1 84/168/157 1/169/2
f 1/169/2 84/168/157 67/170/158
f 84/171/159 75/172/160 67/173/161
f 67/173/161 75/172/160 68/174/162
f 75/175/163 49/176/164 76/177/165
f 76/177/165 49/176/164 48/178/166
f 76/177/165 48/178/166 47/179/167
f 84/180/168 20/181/169 75/175/163
f 75/175/163 20/181/169 19/182/170
f 75/175/163 19/182/170 18/183/171
f 75/175/163 18/183/171 49/176/164
f 49/176/164 18/183/171 17/184/172
f 49/176/164 17/184/172 50/185/173
f 50/185/173 17/184/172 16/186/174
f 50/185/173 16/186/174 51/187/175
f 51/187/175 16/186/174 15/188/176
f 51/187/175 15/188/176 52/189/177
f 52/189/177 15/188/176 25/190/178
f 52/189/177 25/190/178 36/191/179
f 15/188/176 14/192/180 25/190/178
f 25/190/178 14/192/180 13/193/181
f 25/190/178 13/193/181 12/194/182
f 25/190/178 12/194/182 26/195/183
f 26/195/183 12/194/182 11/196/184
f 26/195/183 11/196/184 27/197/185
f 27/197/185 11/196/184 82/198/186
f 27/197/185 82/198/186 28/199/187
f 28/199/187 82/198/186 81/200/188
f 11/196/184 83/201/189 82/198/186
f 35/202/190 55/203/191 36/191/179
f 36/191/179 55/203/191 54/204/192
f 36/191/179 54/204/192 53/205/193
f 55/203/191 35/202/190 56/206/194
f 56/206/194 35/202/190 34/207/195
f 56/206/194 34/207/195 79/208/196
f 79/208/196 34/207/195 33/209/197
f 79/208/196 33/209/197 80/210/198
f 79/208/196 78/211/199 56/206/194
f 53/205/193 52/189/177 36/191/179
f 47/179/167 77/212/200 76/177/165
# 84 vertices
# 212 texture params
# 200 normals
# 164 facets

# 1 groups
