# WaveFront *.obj file (generated by Autodesk ATF)

mtllib body76_visual.mtl

g Body76

v -27.455700 0.346094 -4.531786
v -27.455700 0.572291 -4.471177
v -27.455700 0.573844 -4.476973
v -27.455700 0.347647 -4.537582
v -27.455700 0.571773 -4.469245
v -27.455700 0.345577 -4.529854
v -27.455700 0.344024 -4.524059
v -27.455700 0.570220 -4.463450
v -27.455700 0.569702 -4.461518
v -27.455700 0.343506 -4.522127
v -27.455700 0.341953 -4.516331
v -27.455700 0.568150 -4.455722
v -27.455700 0.348165 -4.539514
v -27.455700 0.574361 -4.478904
v -27.455700 0.673768 -4.849894
v -27.455700 0.447571 -4.910503
v -27.455700 0.445640 -4.579073
v -27.455700 0.546417 -4.537231
v -27.455700 0.542910 -4.524141
v -27.455700 0.403146 -4.582091
v -27.455700 0.403644 -4.583949
v -27.455700 0.538555 -4.611913
v -27.455700 0.435662 -4.703441
v -27.455700 0.436167 -4.705328
v -27.455700 0.586212 -4.685748
v -27.455700 0.582713 -4.672687
v -27.455700 0.474740 -4.686749
v -27.455700 0.564981 -4.606512
v -27.455700 0.564196 -4.603581
v -27.455700 0.481148 -4.813757
v -27.455700 0.463152 -4.746595
v -27.455700 0.448292 -4.750577
v -27.455700 0.472183 -4.839739
v -27.455700 0.600380 -4.723761
v -27.455700 0.591188 -4.714185
v -27.455700 0.567632 -4.453790
v -27.455700 0.341436 -4.514399
v -27.455700 0.340375 -4.510440
v -27.455700 0.566571 -4.449831
v -27.340700 0.493508 -4.919327
v -27.340700 0.492521 -4.915644
v -27.355638 0.492862 -4.916915
v -27.355303 0.494657 -4.923616
v -27.353135 0.496363 -4.929982
v -27.349239 0.497849 -4.935528
v -27.343914 0.499001 -4.939826
v -27.337572 0.499729 -4.942545
v -27.330700 0.499979 -4.943475
v -27.263700 0.499979 -4.943475
v -27.257230 0.499758 -4.942652
v -27.251200 0.499112 -4.940240
v -27.246023 0.498083 -4.936402
v -27.242050 0.496743 -4.931401
v -27.239552 0.495183 -4.925577
v -27.238700 0.493508 -4.919327
v -27.238700 0.468920 -4.827564
v -27.253700 0.468920 -4.827564
v -27.253700 0.493508 -4.919327
v -27.254462 0.494499 -4.923023
v -27.256629 0.495338 -4.926157
v -27.259874 0.495899 -4.928251
v -27.263700 0.496096 -4.928986
v -27.330700 0.496096 -4.928986
v -27.334527 0.495899 -4.928251
v -27.337772 0.495338 -4.926157
v -27.339939 0.494499 -4.923023
v -27.355638 0.637751 -4.878092
v -27.340700 0.637410 -4.876821
v -27.340700 0.638397 -4.880504
v -27.339939 0.639387 -4.884200
v -27.337772 0.640227 -4.887334
v -27.334527 0.640788 -4.889428
v -27.330700 0.640985 -4.890163
v -27.263700 0.640985 -4.890163
v -27.259874 0.640788 -4.889428
v -27.256629 0.640227 -4.887334
v -27.254462 0.639387 -4.884200
v -27.253700 0.638397 -4.880504
v -27.253700 0.613809 -4.788741
v -27.238700 0.613809 -4.788741
v -27.238700 0.638397 -4.880504
v -27.239552 0.640072 -4.886754
v -27.242050 0.641632 -4.892578
v -27.246023 0.642972 -4.897579
v -27.251200 0.644001 -4.901417
v -27.257230 0.644647 -4.903829
v -27.263700 0.644867 -4.904652
v -27.330700 0.644867 -4.904652
v -27.337572 0.644618 -4.903722
v -27.343914 0.643890 -4.901003
v -27.349239 0.642738 -4.896705
v -27.353135 0.641252 -4.891160
v -27.355303 0.639546 -4.884793
v -27.339939 0.566943 -4.903612
v -27.337772 0.567783 -4.906745
v -27.334527 0.568344 -4.908839
v -27.259874 0.568344 -4.908839
v -27.256629 0.567783 -4.906745
v -27.254462 0.566943 -4.903612
v -27.330700 0.514164 -4.416859
v -27.337572 0.514413 -4.417790
v -27.343914 0.515142 -4.420508
v -27.349239 0.516293 -4.424806
v -27.353135 0.517779 -4.430352
v -27.355303 0.519485 -4.436719
v -27.355638 0.521280 -4.443419
v -27.355638 0.376392 -4.482242
v -27.355303 0.374596 -4.475542
v -27.353135 0.372890 -4.469175
v -27.349239 0.371404 -4.463629
v -27.343914 0.370253 -4.459331
v -27.337572 0.369524 -4.456612
v -27.330700 0.369275 -4.455682
v -27.340700 0.375745 -4.479830
v -27.340700 0.376732 -4.483513
v -27.340700 0.521621 -4.444690
v -27.340700 0.520634 -4.441008
v -27.339939 0.374755 -4.476134
v -27.337772 0.373915 -4.473000
v -27.334527 0.373354 -4.470906
v -27.330700 0.373157 -4.470171
v -27.263700 0.373157 -4.470171
v -27.259874 0.373354 -4.470906
v -27.256629 0.373915 -4.473000
v -27.254462 0.374755 -4.476134
v -27.253700 0.375745 -4.479830
v -27.253700 0.400333 -4.571593
v -27.238700 0.400333 -4.571593
v -27.238700 0.375745 -4.479830
v -27.239552 0.374071 -4.473580
v -27.242050 0.372510 -4.467756
v -27.246023 0.371170 -4.462755
v -27.251200 0.370142 -4.458918
v -27.257230 0.369495 -4.456505
v -27.263700 0.369275 -4.455682
v -27.263700 0.514164 -4.416859
v -27.257230 0.514384 -4.417682
v -27.251200 0.515031 -4.420095
v -27.246023 0.516059 -4.423932
v -27.242050 0.517399 -4.428934
v -27.239552 0.518960 -4.434758
v -27.238700 0.520634 -4.441008
v -27.238700 0.545222 -4.532771
v -27.253700 0.545222 -4.532771
v -27.253700 0.520634 -4.441008
v -27.254462 0.519644 -4.437311
v -27.256629 0.518804 -4.434178
v -27.259874 0.518243 -4.432084
v -27.263700 0.518046 -4.431348
v -27.330700 0.518046 -4.431348
v -27.334527 0.518243 -4.432084
v -27.337772 0.518804 -4.434178
v -27.339939 0.519644 -4.437311
v -27.259874 0.445799 -4.451495
v -27.256629 0.446360 -4.453589
v -27.254462 0.447199 -4.456723
v -27.339939 0.447199 -4.456723
v -27.337772 0.446360 -4.453589
v -27.334527 0.445799 -4.451495
v -27.452700 0.339196 -4.533634
v -27.454327 0.341209 -4.533095
v -27.455351 0.343563 -4.532464
v -27.455351 0.345116 -4.538260
v -27.454327 0.342762 -4.538891
v -27.452700 0.340749 -4.539430
v -27.452700 0.341267 -4.541362
v -27.454327 0.343280 -4.540823
v -27.455351 0.345634 -4.540192
v -27.455021 0.445008 -4.914942
v -27.453073 0.442794 -4.918777
v -27.450123 0.441229 -4.921488
v -27.446572 0.440527 -4.922704
v -27.446572 0.328174 -4.503396
v -27.450123 0.329390 -4.504098
v -27.453073 0.332101 -4.505663
v -27.455021 0.335936 -4.507877
v -27.455351 0.338905 -4.515078
v -27.454327 0.336550 -4.515708
v -27.452700 0.334538 -4.516248
v -27.452700 0.335055 -4.518180
v -27.454327 0.337068 -4.517640
v -27.455351 0.339422 -4.517010
v -27.455351 0.340975 -4.522805
v -27.454327 0.338621 -4.523436
v -27.452700 0.336608 -4.523975
v -27.452700 0.337126 -4.525907
v -27.454327 0.339139 -4.525368
v -27.455351 0.341493 -4.524737
v -27.455351 0.343046 -4.530532
v -27.454327 0.340691 -4.531163
v -27.452700 0.338679 -4.531703
v -27.453073 0.349996 -4.572451
v -27.453073 0.368722 -4.642336
v -27.453073 0.387447 -4.712220
v -27.453073 0.406173 -4.782105
v -27.453073 0.424898 -4.851990
v -27.450123 0.422761 -4.852562
v -27.450123 0.404035 -4.782678
v -27.450123 0.385310 -4.712793
v -27.450123 0.366584 -4.642908
v -27.450123 0.347859 -4.573024
v -27.455021 0.353021 -4.571640
v -27.455021 0.371747 -4.641525
v -27.455021 0.390472 -4.711410
v -27.455021 0.409198 -4.781294
v -27.455021 0.427923 -4.851179
v -27.446572 0.573615 -4.437630
v -27.450123 0.572913 -4.438847
v -27.453073 0.571348 -4.441557
v -27.455021 0.569134 -4.445392
v -27.450123 0.512512 -4.455031
v -27.450123 0.451152 -4.471473
v -27.450123 0.389791 -4.487914
v -27.453073 0.513085 -4.457169
v -27.453073 0.451724 -4.473610
v -27.453073 0.390364 -4.490051
v -27.455021 0.513895 -4.460193
v -27.455021 0.452535 -4.476635
v -27.455021 0.391175 -4.493076
v -27.455021 0.678207 -4.852457
v -27.453073 0.682042 -4.854671
v -27.450123 0.684752 -4.856236
v -27.446572 0.685968 -4.856938
v -27.455021 0.622968 -4.867258
v -27.455021 0.561608 -4.883700
v -27.455021 0.500247 -4.900141
v -27.453073 0.623778 -4.870283
v -27.453073 0.562418 -4.886724
v -27.453073 0.501058 -4.903166
v -27.450123 0.624351 -4.872420
v -27.450123 0.562991 -4.888862
v -27.450123 0.501630 -4.905303
v -27.455351 0.574822 -4.470499
v -27.454327 0.577176 -4.469868
v -27.452700 0.579189 -4.469329
v -27.452700 0.578671 -4.467397
v -27.454327 0.576658 -4.467936
v -27.455351 0.574304 -4.468567
v -27.455351 0.572751 -4.462771
v -27.454327 0.575105 -4.462141
v -27.452700 0.577118 -4.461601
v -27.452700 0.576601 -4.459669
v -27.454327 0.574588 -4.460209
v -27.455351 0.572234 -4.460840
v -27.455351 0.570681 -4.455044
v -27.454327 0.573035 -4.454413
v -27.452700 0.575048 -4.453874
v -27.452700 0.574530 -4.451942
v -27.454327 0.572517 -4.452481
v -27.455351 0.570163 -4.453112
v -27.455351 0.576892 -4.478226
v -27.454327 0.579247 -4.477595
v -27.452700 0.581259 -4.477056
v -27.452700 0.580742 -4.475124
v -27.454327 0.578729 -4.475664
v -27.455351 0.576375 -4.476294
v -27.450123 0.591381 -4.507772
v -27.450123 0.610107 -4.577657
v -27.450123 0.628832 -4.647541
v -27.450123 0.647558 -4.717426
v -27.450123 0.666284 -4.787311
v -27.453073 0.664146 -4.787883
v -27.453073 0.645421 -4.717999
v -27.453073 0.626695 -4.648114
v -27.453073 0.607970 -4.578229
v -27.453073 0.589244 -4.508345
v -27.455021 0.661121 -4.788694
v -27.455021 0.642396 -4.718809
v -27.455021 0.623670 -4.648925
v -27.455021 0.604945 -4.579040
v -27.455021 0.586219 -4.509155
v -27.355700 0.318437 -4.497774
v -27.355700 0.434905 -4.932441
v -27.263700 0.440597 -4.922583
v -27.263700 0.411715 -4.814793
v -27.243700 0.412018 -4.809164
v -27.243700 0.360254 -4.615979
v -27.263700 0.357177 -4.611256
v -27.263700 0.328295 -4.503466
v -27.355700 0.579237 -4.427893
v -27.263700 0.602428 -4.545541
v -27.263700 0.573545 -4.437751
v -27.243700 0.602124 -4.551170
v -27.243700 0.653888 -4.744355
v -27.263700 0.656965 -4.749079
v -27.263700 0.685848 -4.856868
v -27.355700 0.695705 -4.862560
v -27.452700 0.546417 -4.537231
v -27.452700 0.542910 -4.524141
v -27.452700 0.403146 -4.582091
v -27.452700 0.403644 -4.583949
v -27.452700 0.538555 -4.611913
v -27.452700 0.435662 -4.703441
v -27.452700 0.436167 -4.705328
v -27.452700 0.586212 -4.685748
v -27.452700 0.582713 -4.672687
v -27.452700 0.474740 -4.686749
v -27.452700 0.564981 -4.606512
v -27.452700 0.564196 -4.603581
v -27.452700 0.445640 -4.579073
v -27.452700 0.463152 -4.746595
v -27.452700 0.448292 -4.750577
v -27.452700 0.472183 -4.839739
v -27.452700 0.600380 -4.723761
v -27.452700 0.591188 -4.714185
v -27.452700 0.481148 -4.813757
vt 0.031262 0.017912 0.000000
vt 0.037262 0.017912 0.000000
vt 0.031262 0.252088 0.000000
vt 0.037262 0.252088 0.000000
vt 0.029262 0.252088 0.000000
vt 0.023262 0.252088 0.000000
vt 0.029262 0.017912 0.000000
vt 0.023262 0.017912 0.000000
vt 0.021262 0.252088 0.000000
vt 0.015262 0.252088 0.000000
vt 0.021262 0.017912 0.000000
vt 0.015262 0.017912 0.000000
vt 0.039262 0.017912 0.000000
vt 0.074818 0.060000 0.000000
vt 0.039262 0.252088 0.000000
vt 0.094619 0.210000 0.000000
vt 0.096542 0.210000 0.000000
vt 0.423339 0.017912 0.000000
vt 0.282510 0.056154 0.000000
vt 0.228604 0.060000 0.000000
vt 0.160094 0.060000 0.000000
vt 0.214241 0.167933 0.000000
vt 0.361356 0.210000 0.000000
vt 0.423339 0.252088 0.000000
vt 0.269048 0.210000 0.000000
vt 0.222203 0.210000 0.000000
vt 0.269048 0.194615 0.000000
vt 0.242125 0.060000 0.000000
vt 0.270881 0.062554 0.000000
vt 0.220250 0.210000 0.000000
vt 0.158471 0.086923 0.000000
vt 0.102702 0.168173 0.000000
vt 0.088369 0.060000 0.000000
vt 0.157059 0.060000 0.000000
vt 0.338580 0.194615 0.000000
vt 0.013262 0.252088 0.000000
vt 0.009163 0.252088 0.000000
vt 0.013262 0.017912 0.000000
vt 0.009163 0.017912 0.000000
vt -0.003812 -0.010000 0.000000
vt -0.002497 -0.024938 0.000000
vt -0.000000 -0.010000 0.000000
vt 0.004440 -0.024603 0.000000
vt 0.003827 -0.009239 0.000000
vt 0.011032 -0.022434 0.000000
vt 0.016773 -0.018538 0.000000
vt 0.007071 -0.007071 0.000000
vt 0.021222 -0.013214 0.000000
vt 0.009239 -0.003827 0.000000
vt 0.024037 -0.006872 0.000000
vt 0.010000 -0.000000 0.000000
vt 0.025000 -0.000000 0.000000
vt 0.010000 0.067000 0.000000
vt 0.025000 0.067000 0.000000
vt 0.024148 0.073470 0.000000
vt 0.009239 0.070827 0.000000
vt 0.021651 0.079500 0.000000
vt 0.007071 0.074071 0.000000
vt 0.017678 0.084678 0.000000
vt 0.012500 0.088651 0.000000
vt 0.003827 0.076239 0.000000
vt 0.006470 0.091148 0.000000
vt 0.000000 0.077000 0.000000
vt 0.000000 0.092000 0.000000
vt -0.095000 0.077000 0.000000
vt -0.095000 0.092000 0.000000
vt 0.003812 -0.010000 0.000000
vt -0.000000 -0.010000 0.000000
vt 0.002497 -0.024938 0.000000
vt -0.004440 -0.024603 0.000000
vt -0.003827 -0.009239 0.000000
vt -0.011032 -0.022434 0.000000
vt -0.016773 -0.018538 0.000000
vt -0.007071 -0.007071 0.000000
vt -0.021222 -0.013214 0.000000
vt -0.009239 -0.003827 0.000000
vt -0.024037 -0.006872 0.000000
vt -0.010000 -0.000000 0.000000
vt -0.025000 -0.000000 0.000000
vt -0.025000 0.067000 0.000000
vt -0.010000 0.067000 0.000000
vt -0.024148 0.073470 0.000000
vt -0.009239 0.070827 0.000000
vt -0.021651 0.079500 0.000000
vt -0.007071 0.074071 0.000000
vt -0.017678 0.084678 0.000000
vt -0.012500 0.088651 0.000000
vt -0.003827 0.076239 0.000000
vt -0.006470 0.091148 0.000000
vt 0.000000 0.077000 0.000000
vt 0.000000 0.092000 0.000000
vt 0.095000 0.077000 0.000000
vt 0.095000 0.092000 0.000000
vt -0.000000 0.015708 0.000000
vt 0.150000 0.015708 0.000000
vt 0.075000 0.019635 0.000000
vt 0.150000 0.019635 0.000000
vt 0.075000 0.023562 0.000000
vt 0.150000 0.023562 0.000000
vt 0.075000 0.027489 0.000000
vt 0.150000 0.027489 0.000000
vt 0.150000 0.031416 0.000000
vt -0.000000 0.031416 0.000000
vt 0.000000 0.027489 0.000000
vt 0.000000 0.023562 0.000000
vt 0.000000 0.019635 0.000000
vt 0.067000 0.150000 0.000000
vt -0.000000 0.150000 0.000000
vt 0.067000 0.000000 0.000000
vt 0.000000 -0.000000 0.000000
vt 0.000000 -0.031416 0.000000
vt 0.150000 -0.031416 0.000000
vt 0.075000 -0.027489 0.000000
vt 0.150000 -0.027489 0.000000
vt 0.075000 -0.023562 0.000000
vt 0.150000 -0.023562 0.000000
vt 0.075000 -0.019635 0.000000
vt 0.150000 -0.019635 0.000000
vt 0.150000 -0.015708 0.000000
vt 0.000000 -0.015708 0.000000
vt 0.000000 -0.019635 0.000000
vt 0.000000 -0.023562 0.000000
vt 0.000000 -0.027489 0.000000
vt 0.095000 0.150000 0.000000
vt 0.000000 0.150000 0.000000
vt 0.095000 0.000000 0.000000
vt 0.000000 -0.000000 0.000000
vt 0.015000 0.150000 0.000000
vt -0.000000 0.150000 0.000000
vt 0.015000 -0.000000 0.000000
vt 0.000000 -0.000000 0.000000
vt 0.095000 0.150000 0.000000
vt -0.000000 0.150000 0.000000
vt 0.095000 0.000000 0.000000
vt 0.000000 -0.000000 0.000000
vt -0.000000 -0.039270 0.000000
vt -0.150000 -0.039270 0.000000
vt 0.000000 -0.045815 0.000000
vt -0.150000 -0.045815 0.000000
vt -0.000000 -0.052360 0.000000
vt -0.150000 -0.052360 0.000000
vt 0.000000 -0.058905 0.000000
vt -0.150000 -0.058905 0.000000
vt 0.000000 -0.065450 0.000000
vt -0.150000 -0.065450 0.000000
vt -0.000000 -0.071995 0.000000
vt -0.150000 -0.071995 0.000000
vt -0.000000 -0.078540 0.000000
vt -0.150000 -0.078540 0.000000
vt 0.067000 0.150000 0.000000
vt 0.000000 0.150000 0.000000
vt 0.067000 -0.000000 0.000000
vt 0.000000 -0.000000 0.000000
vt 0.000000 -0.078540 0.000000
vt -0.150000 -0.078540 0.000000
vt 0.000000 -0.085501 0.000000
vt -0.150000 -0.085501 0.000000
vt -0.000000 -0.092462 0.000000
vt -0.150000 -0.092462 0.000000
vt 0.000000 -0.099423 0.000000
vt -0.150000 -0.099423 0.000000
vt -0.000000 -0.106385 0.000000
vt -0.150000 -0.106385 0.000000
vt 0.000000 -0.113346 0.000000
vt -0.150000 -0.113346 0.000000
vt 0.000000 -0.120304 0.000000
vt -0.150000 -0.120304 0.000000
vt 0.000000 0.003812 0.000000
vt -0.150000 0.003812 0.000000
vt 0.000000 0.000000 0.000000
vt -0.150000 0.000000 0.000000
vt -0.000000 -0.078540 0.000000
vt -0.150000 -0.078540 0.000000
vt 0.000000 -0.085501 0.000000
vt -0.150000 -0.085501 0.000000
vt 0.000000 -0.092462 0.000000
vt -0.150000 -0.092462 0.000000
vt -0.000000 -0.099423 0.000000
vt -0.150000 -0.099423 0.000000
vt 0.000000 -0.106385 0.000000
vt -0.150000 -0.106385 0.000000
vt 0.000000 -0.113346 0.000000
vt -0.150000 -0.113346 0.000000
vt 0.000000 -0.120304 0.000000
vt -0.150000 -0.120304 0.000000
vt 0.000000 -0.000000 0.000000
vt -0.003812 0.000000 0.000000
vt 0.000000 -0.150000 0.000000
vt -0.003812 -0.150000 0.000000
vt 0.010000 0.003812 0.000000
vt 0.010000 -0.000000 0.000000
vt 0.024938 0.002497 0.000000
vt 0.024603 -0.004440 0.000000
vt 0.009239 -0.003827 0.000000
vt 0.022434 -0.011032 0.000000
vt 0.018538 -0.016773 0.000000
vt 0.007071 -0.007071 0.000000
vt 0.013214 -0.021222 0.000000
vt 0.003827 -0.009239 0.000000
vt 0.006872 -0.024037 0.000000
vt -0.000000 -0.010000 0.000000
vt -0.000000 -0.025000 0.000000
vt -0.067000 -0.010000 0.000000
vt -0.067000 -0.025000 0.000000
vt -0.073470 -0.024148 0.000000
vt -0.070827 -0.009239 0.000000
vt -0.079500 -0.021651 0.000000
vt -0.074071 -0.007071 0.000000
vt -0.084678 -0.017678 0.000000
vt -0.088651 -0.012500 0.000000
vt -0.076239 -0.003827 0.000000
vt -0.091148 -0.006470 0.000000
vt -0.077000 0.000000 0.000000
vt -0.092000 0.000000 0.000000
vt -0.092000 0.095000 0.000000
vt -0.077000 0.095000 0.000000
vt -0.010000 0.003812 0.000000
vt -0.024938 0.002497 0.000000
vt -0.010000 -0.000000 0.000000
vt -0.024603 -0.004440 0.000000
vt -0.009239 -0.003827 0.000000
vt -0.022434 -0.011032 0.000000
vt -0.018538 -0.016773 0.000000
vt -0.007071 -0.007071 0.000000
vt -0.013214 -0.021222 0.000000
vt -0.003827 -0.009239 0.000000
vt -0.006872 -0.024037 0.000000
vt 0.000000 -0.010000 0.000000
vt 0.000000 -0.025000 0.000000
vt 0.067000 -0.010000 0.000000
vt 0.067000 -0.025000 0.000000
vt 0.073470 -0.024148 0.000000
vt 0.070827 -0.009239 0.000000
vt 0.079500 -0.021651 0.000000
vt 0.074071 -0.007071 0.000000
vt 0.084678 -0.017678 0.000000
vt 0.088651 -0.012500 0.000000
vt 0.076239 -0.003827 0.000000
vt 0.091148 -0.006470 0.000000
vt 0.077000 0.000000 0.000000
vt 0.092000 0.000000 0.000000
vt 0.077000 0.095000 0.000000
vt 0.092000 0.095000 0.000000
vt -0.067000 -0.150000 0.000000
vt 0.000000 -0.150000 0.000000
vt -0.067000 -0.000000 0.000000
vt 0.000000 -0.000000 0.000000
vt 0.000000 -0.039270 0.000000
vt -0.150000 -0.039270 0.000000
vt 0.000000 -0.045815 0.000000
vt -0.150000 -0.045815 0.000000
vt -0.000000 -0.052360 0.000000
vt -0.150000 -0.052360 0.000000
vt 0.000000 -0.058905 0.000000
vt -0.150000 -0.058905 0.000000
vt 0.000000 -0.065450 0.000000
vt -0.150000 -0.065450 0.000000
vt -0.000000 -0.071995 0.000000
vt -0.150000 -0.071995 0.000000
vt -0.000000 -0.078540 0.000000
vt -0.150000 -0.078540 0.000000
vt 0.150000 0.000000 0.000000
vt 0.000000 0.000000 0.000000
vt 0.150000 -0.095000 0.000000
vt 0.000000 -0.095000 0.000000
vt -0.150000 0.000000 0.000000
vt -0.000000 0.000000 0.000000
vt -0.150000 0.015000 0.000000
vt -0.000000 0.015000 0.000000
vt -0.095000 -0.150000 0.000000
vt 0.000000 -0.150000 0.000000
vt -0.095000 0.000000 0.000000
vt 0.000000 -0.000000 0.000000
vt 0.000000 -0.031416 0.000000
vt 0.150000 -0.031416 0.000000
vt 0.075000 -0.027489 0.000000
vt 0.150000 -0.027489 0.000000
vt 0.075000 -0.023562 0.000000
vt 0.150000 -0.023562 0.000000
vt 0.075000 -0.019635 0.000000
vt 0.150000 -0.019635 0.000000
vt 0.150000 -0.015708 0.000000
vt -0.000000 -0.015708 0.000000
vt -0.000000 -0.019635 0.000000
vt 0.000000 -0.023562 0.000000
vt 0.000000 -0.027489 0.000000
vt -0.150000 0.000000 0.000000
vt -0.000000 0.000000 0.000000
vt -0.150000 0.067000 0.000000
vt 0.000000 0.067000 0.000000
vt 0.000000 0.015708 0.000000
vt 0.150000 0.015708 0.000000
vt 0.075000 0.019635 0.000000
vt 0.150000 0.019635 0.000000
vt 0.075000 0.023562 0.000000
vt 0.150000 0.023562 0.000000
vt 0.075000 0.027489 0.000000
vt 0.150000 0.027489 0.000000
vt 0.150000 0.031416 0.000000
vt -0.000000 0.031416 0.000000
vt 0.000000 0.027489 0.000000
vt 0.000000 0.023562 0.000000
vt 0.000000 0.019635 0.000000
vt -0.031262 0.010405 0.000000
vt -0.037262 0.007754 0.000000
vt -0.031262 0.007754 0.000000
vt -0.000195 0.004581 0.000000
vt -0.029262 0.007754 0.000000
vt -0.023262 0.007754 0.000000
vt -0.023262 0.010405 0.000000
vt -0.037262 0.010405 0.000000
vt -0.031262 0.013057 0.000000
vt -0.037262 0.013057 0.000000
vt -0.037262 0.015708 0.000000
vt -0.031262 0.015708 0.000000
vt -0.071551 0.004581 0.000000
vt -0.039262 0.007754 0.000000
vt -0.071551 0.008290 0.000000
vt -0.039262 0.010405 0.000000
vt -0.071551 0.011999 0.000000
vt -0.039262 0.013057 0.000000
vt -0.143901 0.011999 0.000000
vt -0.423339 0.015708 0.000000
vt -0.216251 0.011999 0.000000
vt -0.288601 0.011999 0.000000
vt -0.216251 0.008290 0.000000
vt -0.288601 0.008290 0.000000
vt -0.216251 0.004581 0.000000
vt -0.288601 0.004581 0.000000
vt -0.433301 0.000873 0.000000
vt -0.360951 0.004581 0.000000
vt -0.432308 0.004581 0.000000
vt -0.430095 0.008290 0.000000
vt -0.360951 0.008290 0.000000
vt -0.426963 0.011999 0.000000
vt -0.360951 0.011999 0.000000
vt -0.039262 0.015708 0.000000
vt 0.000799 0.000873 0.000000
vt -0.143901 0.004581 0.000000
vt -0.143901 0.008290 0.000000
vt -0.002407 0.008290 0.000000
vt -0.013262 0.007754 0.000000
vt -0.015262 0.007754 0.000000
vt -0.021262 0.007754 0.000000
vt -0.015262 0.010405 0.000000
vt -0.021262 0.010405 0.000000
vt -0.015262 0.013057 0.000000
vt -0.021262 0.013057 0.000000
vt -0.021262 0.015708 0.000000
vt -0.015262 0.015708 0.000000
vt -0.013262 0.010405 0.000000
vt -0.005539 0.011999 0.000000
vt -0.013262 0.013057 0.000000
vt -0.009163 0.015708 0.000000
vt -0.013262 0.015708 0.000000
vt -0.029262 0.010405 0.000000
vt -0.023262 0.013057 0.000000
vt -0.029262 0.013057 0.000000
vt -0.029262 0.015708 0.000000
vt -0.023262 0.015708 0.000000
vt -0.008943 0.004581 0.000000
vt -0.071475 0.004581 0.000000
vt -0.007950 0.000873 0.000000
vt -0.135000 0.004581 0.000000
vt -0.262050 0.000873 0.000000
vt -0.198525 0.004581 0.000000
vt -0.261057 0.004581 0.000000
vt -0.258844 0.008290 0.000000
vt -0.198525 0.008290 0.000000
vt -0.255712 0.011999 0.000000
vt -0.198525 0.011999 0.000000
vt -0.252088 0.015708 0.000000
vt -0.135000 0.011999 0.000000
vt -0.017912 0.015708 0.000000
vt -0.071475 0.011999 0.000000
vt -0.014288 0.011999 0.000000
vt -0.071475 0.008290 0.000000
vt -0.011156 0.008290 0.000000
vt -0.135000 0.008290 0.000000
vt -0.014288 0.019417 0.000000
vt -0.071475 0.019417 0.000000
vt -0.017912 0.015708 0.000000
vt -0.135000 0.019417 0.000000
vt -0.252088 0.015708 0.000000
vt -0.198525 0.019417 0.000000
vt -0.255712 0.019417 0.000000
vt -0.198525 0.023126 0.000000
vt -0.258844 0.023126 0.000000
vt -0.198525 0.026834 0.000000
vt -0.261057 0.026834 0.000000
vt -0.262050 0.030543 0.000000
vt -0.135000 0.026834 0.000000
vt -0.007950 0.030543 0.000000
vt -0.071475 0.026834 0.000000
vt -0.008943 0.026834 0.000000
vt -0.011156 0.023126 0.000000
vt -0.071475 0.023126 0.000000
vt -0.135000 0.023126 0.000000
vt 0.403989 0.015708 0.000000
vt 0.409989 0.015708 0.000000
vt 0.403989 0.018359 0.000000
vt 0.409989 0.018359 0.000000
vt 0.409989 0.021011 0.000000
vt 0.403989 0.021011 0.000000
vt 0.409989 0.023662 0.000000
vt 0.403989 0.023662 0.000000
vt 0.441057 0.026834 0.000000
vt 0.369700 0.026834 0.000000
vt 0.442050 0.030543 0.000000
vt 0.297350 0.026834 0.000000
vt 0.225000 0.026834 0.000000
vt 0.297350 0.023126 0.000000
vt 0.225000 0.023126 0.000000
vt 0.297350 0.019417 0.000000
vt 0.225000 0.019417 0.000000
vt 0.401989 0.015708 0.000000
vt 0.017912 0.015708 0.000000
vt 0.152650 0.019417 0.000000
vt 0.080300 0.019417 0.000000
vt 0.080300 0.023126 0.000000
vt 0.014288 0.019417 0.000000
vt 0.011156 0.023126 0.000000
vt 0.080300 0.026834 0.000000
vt 0.008943 0.026834 0.000000
vt 0.007950 0.030543 0.000000
vt 0.152650 0.026834 0.000000
vt 0.411989 0.023662 0.000000
vt 0.417989 0.023662 0.000000
vt 0.419989 0.023662 0.000000
vt 0.411989 0.021011 0.000000
vt 0.417989 0.021011 0.000000
vt 0.411989 0.018359 0.000000
vt 0.417989 0.018359 0.000000
vt 0.417989 0.015708 0.000000
vt 0.411989 0.015708 0.000000
vt 0.425989 0.023662 0.000000
vt 0.419989 0.021011 0.000000
vt 0.425989 0.021011 0.000000
vt 0.419989 0.018359 0.000000
vt 0.425989 0.018359 0.000000
vt 0.425989 0.015708 0.000000
vt 0.419989 0.015708 0.000000
vt 0.427989 0.023662 0.000000
vt 0.438844 0.023126 0.000000
vt 0.427989 0.021011 0.000000
vt 0.435712 0.019417 0.000000
vt 0.427989 0.018359 0.000000
vt 0.432088 0.015708 0.000000
vt 0.427989 0.015708 0.000000
vt 0.369700 0.019417 0.000000
vt 0.401989 0.018359 0.000000
vt 0.401989 0.021011 0.000000
vt 0.369700 0.023126 0.000000
vt 0.401989 0.023662 0.000000
vt 0.152650 0.023126 0.000000
vt 0.091219 -0.442050 0.000000
vt 0.091219 -0.007950 0.000000
vt -0.000000 -0.450000 0.000000
vt -0.000000 0.000000 0.000000
vt -0.441951 -0.020076 0.000000
vt -0.450000 -0.112428 0.000000
vt -0.330359 -0.020076 0.000000
vt -0.000000 -0.112428 0.000000
vt -0.119641 -0.020076 0.000000
vt -0.008049 -0.020076 0.000000
vt -0.125000 0.000000 0.000000
vt -0.325000 0.000000 0.000000
vt -0.000000 0.000000 0.000000
vt 0.007950 -0.091219 0.000000
vt 0.060000 0.000062 0.000000
vt 0.262050 -0.091219 0.000000
vt 0.210000 0.000062 0.000000
vt 0.270000 0.000000 0.000000
vt -0.261951 0.000000 0.000000
vt -0.008049 0.000000 0.000000
vt -0.261951 0.111592 0.000000
vt -0.008049 0.111592 0.000000
vt 0.020706 0.261951 0.000000
vt -0.000000 0.260201 0.000000
vt 0.020706 0.008049 0.000000
vt 0.000000 0.009799 0.000000
vt -0.260201 -0.000000 0.000000
vt -0.009799 0.000000 0.000000
vt -0.260201 0.200000 0.000000
vt -0.009799 0.200000 0.000000
vt -0.261951 0.000000 0.000000
vt -0.008049 0.000000 0.000000
vt -0.260201 0.020706 0.000000
vt -0.009799 0.020706 0.000000
vt -0.261951 -0.000000 0.000000
vt -0.008049 -0.000000 0.000000
vt -0.261951 0.111592 0.000000
vt -0.008049 0.111592 0.000000
vt -0.270000 0.100382 0.000000
vt -0.262050 0.009163 0.000000
vt -0.210000 0.100444 0.000000
vt -0.007950 0.009163 0.000000
vt -0.060000 0.100444 0.000000
vt -0.000000 0.100382 0.000000
vt 0.008049 0.092351 0.000000
vt -0.000000 0.000000 0.000000
vt 0.119641 0.092351 0.000000
vt 0.450000 -0.000000 0.000000
vt 0.330359 0.092351 0.000000
vt 0.441951 0.092351 0.000000
vt 0.325000 0.112428 0.000000
vt 0.125000 0.112428 0.000000
vt -0.007950 -0.009163 0.000000
vt -0.442050 -0.009163 0.000000
vt 0.000000 -0.100382 0.000000
vt -0.450000 -0.100382 0.000000
vt 0.077294 0.210000 0.000000
vt -0.000000 0.008049 0.000000
vt 0.077294 0.060000 0.000000
vt 0.092351 0.000000 0.000000
vt 0.092290 0.060000 0.000000
vt 0.092290 0.210000 0.000000
vt 0.092351 0.270000 0.000000
vt 0.000000 0.261951 0.000000
vt -0.060000 0.015057 0.000000
vt -0.261951 0.092351 0.000000
vt -0.210000 0.015057 0.000000
vt -0.270000 -0.000000 0.000000
vt -0.210000 0.000062 0.000000
vt -0.060000 0.000062 0.000000
vt 0.000000 0.000000 0.000000
vt -0.008049 0.092351 0.000000
vt 0.003000 -0.000000 0.000000
vt 0.000000 0.000000 0.000000
vt 0.003000 -0.013552 0.000000
vt -0.000000 -0.013552 0.000000
vt 0.151301 0.003000 0.000000
vt 0.000000 0.003000 0.000000
vt 0.151301 0.000000 0.000000
vt -0.000000 0.000000 0.000000
vt -0.003000 -0.000000 0.000000
vt 0.000000 0.000000 0.000000
vt -0.003000 0.001923 0.000000
vt -0.000000 0.001923 0.000000
vt 0.137779 0.003000 0.000000
vt -0.000000 0.003000 0.000000
vt 0.137779 -0.000000 0.000000
vt 0.000000 0.000000 0.000000
vt 0.137712 0.003000 0.000000
vt 0.000000 0.003000 0.000000
vt 0.137712 0.000000 0.000000
vt -0.000000 0.000000 0.000000
vt -0.003000 -0.000000 0.000000
vt 0.000000 0.000000 0.000000
vt -0.003000 0.001953 0.000000
vt -0.000000 0.001953 0.000000
vt 0.151317 0.003000 0.000000
vt -0.000000 0.003000 0.000000
vt 0.151317 -0.000000 0.000000
vt 0.000000 0.000000 0.000000
vt 0.003000 -0.000000 0.000000
vt 0.000000 0.000000 0.000000
vt 0.003000 -0.013522 0.000000
vt -0.000000 -0.013522 0.000000
vt 0.108884 0.003000 0.000000
vt 0.000000 0.003000 0.000000
vt 0.108884 -0.000000 0.000000
vt -0.000000 0.000000 0.000000
vt 0.120753 0.003000 0.000000
vt -0.000000 0.003000 0.000000
vt 0.120753 0.000000 0.000000
vt 0.000000 0.000000 0.000000
vt 0.003000 0.000000 0.000000
vt 0.000000 0.000000 0.000000
vt 0.003000 -0.003035 0.000000
vt -0.000000 -0.003035 0.000000
vt 0.121062 0.003000 0.000000
vt 0.000000 0.003000 0.000000
vt 0.121062 0.000000 0.000000
vt 0.000000 0.000000 0.000000
vt 0.109119 0.003000 0.000000
vt -0.000000 0.003000 0.000000
vt 0.109119 -0.000000 0.000000
vt 0.000000 0.000000 0.000000
vt 0.097118 0.035000 0.000000
vt 0.111451 0.143173 0.000000
vt 0.083566 0.035000 0.000000
vt 0.103368 0.185000 0.000000
vt 0.105291 0.185000 0.000000
vt 0.167220 0.061923 0.000000
vt 0.165808 0.035000 0.000000
vt 0.168843 0.035000 0.000000
vt 0.222990 0.142933 0.000000
vt 0.228999 0.185000 0.000000
vt 0.230952 0.185000 0.000000
vt 0.250874 0.035000 0.000000
vt 0.237353 0.035000 0.000000
vt 0.003000 -0.017912 0.000000
vt 0.002651 -0.015292 0.000000
vt 0.003000 -0.252088 0.000000
vt 0.002651 -0.254708 0.000000
vt 0.001627 -0.012855 0.000000
vt 0.001627 -0.257145 0.000000
vt -0.000000 -0.259229 0.000000
vt 0.000000 -0.010771 0.000000
vt -0.000000 -0.010771 0.000000
vt -0.001627 -0.012855 0.000000
vt 0.000000 -0.259229 0.000000
vt -0.001627 -0.257145 0.000000
vt -0.002651 -0.254708 0.000000
vt -0.002651 -0.015292 0.000000
vt -0.003000 -0.252088 0.000000
vt -0.003000 -0.017912 0.000000
vt 0.001000 -0.010771 0.000000
vt -0.001000 -0.010771 0.000000
vt 0.001000 -0.259229 0.000000
vt -0.001000 -0.259229 0.000000
vt -0.003000 -0.000000 0.000000
vt 0.000000 -0.000000 0.000000
vt -0.003000 0.015385 0.000000
vt 0.000000 0.015385 0.000000
vt -0.003000 -0.000000 0.000000
vt 0.000000 0.000000 0.000000
vt -0.003000 0.092308 0.000000
vt -0.000000 0.092308 0.000000
vt 0.172874 0.003000 0.000000
vt 0.000000 0.003000 0.000000
vt 0.172874 0.000000 0.000000
vt 0.000000 0.000000 0.000000
vt 0.013274 0.003000 0.000000
vt -0.000000 0.003000 0.000000
vt 0.013274 -0.000000 0.000000
vt 0.000000 0.000000 0.000000
vt 0.148402 0.003000 0.000000
vt 0.000000 0.003000 0.000000
vt 0.148402 -0.000000 0.000000
vt -0.000000 0.000000 0.000000
vt 0.003000 -0.000000 0.000000
vt 0.000000 0.000000 0.000000
vt 0.003000 -0.069531 0.000000
vt -0.000000 -0.069531 0.000000
vt 0.277797 0.169615 0.000000
vt 0.347328 0.169615 0.000000
vt 0.277797 0.185000 0.000000
vt 0.370105 0.185000 0.000000
vt 0.291259 0.031154 0.000000
vt 0.279630 0.037554 0.000000
vt 0.003000 -0.017912 0.000000
vt 0.002651 -0.015292 0.000000
vt 0.003000 -0.252088 0.000000
vt 0.002651 -0.254708 0.000000
vt 0.001627 -0.012855 0.000000
vt 0.001627 -0.257145 0.000000
vt -0.000000 -0.259229 0.000000
vt 0.000000 -0.010771 0.000000
vt -0.000000 -0.010771 0.000000
vt -0.001627 -0.012855 0.000000
vt 0.000000 -0.259229 0.000000
vt -0.001627 -0.257145 0.000000
vt -0.002651 -0.254708 0.000000
vt -0.002651 -0.015292 0.000000
vt -0.003000 -0.252088 0.000000
vt -0.003000 -0.017912 0.000000
vt 0.001000 -0.010771 0.000000
vt -0.001000 -0.010771 0.000000
vt 0.001000 -0.259229 0.000000
vt -0.001000 -0.259229 0.000000
vt 0.003000 -0.017912 0.000000
vt 0.002651 -0.015292 0.000000
vt 0.003000 -0.252088 0.000000
vt 0.002651 -0.254708 0.000000
vt 0.001627 -0.012855 0.000000
vt 0.001627 -0.257145 0.000000
vt -0.000000 -0.259229 0.000000
vt 0.000000 -0.010771 0.000000
vt -0.000000 -0.010771 0.000000
vt -0.001627 -0.012855 0.000000
vt 0.000000 -0.259229 0.000000
vt -0.001627 -0.257145 0.000000
vt -0.002651 -0.254708 0.000000
vt -0.002651 -0.015292 0.000000
vt -0.003000 -0.252088 0.000000
vt -0.003000 -0.017912 0.000000
vt 0.001000 -0.010771 0.000000
vt -0.001000 -0.010771 0.000000
vt 0.001000 -0.259229 0.000000
vt -0.001000 -0.259229 0.000000
vt 0.003000 -0.017912 0.000000
vt 0.002651 -0.015292 0.000000
vt 0.003000 -0.252088 0.000000
vt 0.002651 -0.254708 0.000000
vt 0.001627 -0.012855 0.000000
vt 0.001627 -0.257145 0.000000
vt -0.000000 -0.259229 0.000000
vt 0.000000 -0.010771 0.000000
vt -0.000000 -0.010771 0.000000
vt -0.001627 -0.012855 0.000000
vt 0.000000 -0.259229 0.000000
vt -0.001627 -0.257145 0.000000
vt -0.002651 -0.254708 0.000000
vt -0.002651 -0.015292 0.000000
vt -0.003000 -0.252088 0.000000
vt -0.003000 -0.017912 0.000000
vt 0.001000 -0.010771 0.000000
vt -0.001000 -0.010771 0.000000
vt 0.001000 -0.259229 0.000000
vt -0.001000 -0.259229 0.000000
vn -1.000000 0.000000 -0.000000
vn -1.000000 0.000000 -0.000000
vn -1.000000 0.000000 -0.000000
vn -1.000000 0.000000 -0.000000
vn -1.000000 0.000000 -0.000000
vn -1.000000 0.000000 -0.000000
vn -1.000000 0.000000 -0.000000
vn -1.000000 0.000000 -0.000000
vn -1.000000 0.000000 -0.000000
vn -1.000000 0.000000 -0.000000
vn -1.000000 0.000000 -0.000000
vn -1.000000 0.000000 -0.000000
vn -1.000000 0.000000 -0.000000
vn -1.000000 0.000000 -0.000000
vn -1.000000 0.000000 -0.000000
vn -1.000000 0.000000 -0.000000
vn -1.000000 0.000000 -0.000000
vn -1.000000 0.000000 -0.000000
vn -1.000000 0.000000 -0.000000
vn -1.000000 0.000000 -0.000000
vn -1.000000 0.000000 -0.000000
vn -1.000000 0.000000 -0.000000
vn -1.000000 0.000000 -0.000000
vn -1.000000 0.000000 -0.000000
vn -1.000000 0.000000 -0.000000
vn -1.000000 0.000000 -0.000000
vn -1.000000 0.000000 -0.000000
vn -1.000000 0.000000 -0.000000
vn -1.000000 0.000000 -0.000000
vn -1.000000 0.000000 -0.000000
vn -1.000000 0.000000 -0.000000
vn -1.000000 0.000000 -0.000000
vn -1.000000 0.000000 -0.000000
vn -1.000000 0.000000 -0.000000
vn -1.000000 0.000000 -0.000000
vn -1.000000 0.000000 -0.000000
vn -1.000000 0.000000 -0.000000
vn -1.000000 0.000000 -0.000000
vn -1.000000 0.000000 -0.000000
vn -0.000000 -0.965926 -0.258819
vn -0.000000 -0.965926 -0.258819
vn -0.000000 -0.965926 -0.258819
vn -0.000000 -0.965926 -0.258819
vn -0.000000 -0.965926 -0.258819
vn -0.000000 -0.965926 -0.258819
vn -0.000000 -0.965926 -0.258819
vn -0.000000 -0.965926 -0.258819
vn -0.000000 -0.965926 -0.258819
vn -0.000000 -0.965926 -0.258819
vn -0.000000 -0.965926 -0.258819
vn -0.000000 -0.965926 -0.258819
vn -0.000000 -0.965926 -0.258819
vn -0.000000 -0.965926 -0.258819
vn -0.000000 -0.965926 -0.258819
vn -0.000000 -0.965926 -0.258819
vn -0.000000 -0.965926 -0.258819
vn -0.000000 -0.965926 -0.258819
vn -0.000000 -0.965926 -0.258819
vn -0.000000 -0.965926 -0.258819
vn -0.000000 -0.965926 -0.258819
vn -0.000000 -0.965926 -0.258819
vn -0.000000 -0.965926 -0.258819
vn -0.000000 -0.965926 -0.258819
vn -0.000000 -0.965926 -0.258819
vn -0.000000 -0.965926 -0.258819
vn -0.000000 -0.965926 -0.258819
vn 0.000000 0.965926 0.258819
vn 0.000000 0.965926 0.258819
vn 0.000000 0.965926 0.258819
vn 0.000000 0.965926 0.258819
vn 0.000000 0.965926 0.258819
vn 0.000000 0.965926 0.258819
vn 0.000000 0.965926 0.258819
vn 0.000000 0.965926 0.258819
vn 0.000000 0.965926 0.258819
vn 0.000000 0.965926 0.258819
vn 0.000000 0.965926 0.258819
vn 0.000000 0.965926 0.258819
vn 0.000000 0.965926 0.258819
vn 0.000000 0.965926 0.258819
vn 0.000000 0.965926 0.258819
vn 0.000000 0.965926 0.258819
vn 0.000000 0.965926 0.258819
vn 0.000000 0.965926 0.258819
vn 0.000000 0.965926 0.258819
vn 0.000000 0.965926 0.258819
vn 0.000000 0.965926 0.258819
vn 0.000000 0.965926 0.258819
vn 0.000000 0.965926 0.258819
vn 0.000000 0.965926 0.258819
vn 0.000000 0.965926 0.258819
vn 0.000000 0.965926 0.258819
vn 0.000000 0.965926 0.258819
vn 1.000000 -0.000000 0.000000
vn 1.000000 0.000000 -0.000000
vn 0.923880 -0.099046 0.369644
vn 0.923880 -0.099046 0.369644
vn 0.707107 -0.183013 0.683013
vn 0.707107 -0.183013 0.683013
vn 0.382683 -0.239118 0.892399
vn 0.382683 -0.239118 0.892399
vn -0.000000 -0.258819 0.965926
vn -0.000000 -0.258819 0.965926
vn 0.382683 -0.239118 0.892399
vn 0.707107 -0.183013 0.683013
vn 0.923880 -0.099046 0.369644
vn -0.000000 -0.258819 0.965926
vn -0.000000 -0.258819 0.965926
vn -0.382683 -0.239118 0.892399
vn -0.382683 -0.239118 0.892399
vn -0.707107 -0.183013 0.683013
vn -0.707107 -0.183013 0.683013
vn -0.923880 -0.099046 0.369644
vn -0.923880 -0.099046 0.369644
vn -1.000000 -0.000000 0.000000
vn -1.000000 0.000000 -0.000000
vn -0.923880 -0.099046 0.369644
vn -0.707107 -0.183013 0.683013
vn -0.382683 -0.239118 0.892399
vn -1.000000 0.000000 -0.000000
vn -1.000000 0.000000 -0.000000
vn -0.000000 -0.258819 0.965926
vn -0.000000 -0.258819 0.965926
vn -0.000000 -0.258819 0.965926
vn -0.000000 -0.258819 0.965926
vn 1.000000 -0.000000 0.000000
vn 1.000000 -0.000000 0.000000
vn 1.000000 -0.000000 0.000000
vn 1.000000 -0.000000 0.000000
vn 0.965926 0.066987 -0.250000
vn 0.965926 0.066987 -0.250000
vn 0.866025 0.129410 -0.482963
vn 0.866025 0.129410 -0.482963
vn 0.707107 0.183013 -0.683013
vn 0.707107 0.183013 -0.683013
vn 0.500000 0.224144 -0.836516
vn 0.500000 0.224144 -0.836516
vn 0.258819 0.250000 -0.933013
vn 0.258819 0.250000 -0.933013
vn 0.000000 0.258819 -0.965926
vn 0.000000 0.258819 -0.965926
vn 0.000000 0.258819 -0.965926
vn 0.000000 0.258819 -0.965926
vn -0.274864 0.248850 -0.928721
vn -0.274864 0.248850 -0.928721
vn -0.528554 0.219711 -0.819974
vn -0.528554 0.219711 -0.819974
vn -0.741528 0.173647 -0.648061
vn -0.741528 0.173647 -0.648061
vn -0.897379 0.114207 -0.426226
vn -0.897379 0.114207 -0.426226
vn -0.984101 0.045968 -0.171557
vn -0.984101 0.045968 -0.171557
vn -0.995026 -0.025782 0.096220
vn -0.995026 -0.025782 0.096220
vn 1.000000 -0.000000 0.000000
vn 1.000000 -0.000000 0.000000
vn -0.000000 -0.258819 0.965926
vn -0.000000 -0.258819 0.965926
vn -0.274864 -0.248850 0.928721
vn -0.274864 -0.248850 0.928721
vn -0.528554 -0.219711 0.819974
vn -0.528554 -0.219711 0.819974
vn -0.741528 -0.173647 0.648061
vn -0.741528 -0.173647 0.648061
vn -0.897379 -0.114207 0.426226
vn -0.897379 -0.114207 0.426226
vn -0.984101 -0.045968 0.171557
vn -0.984101 -0.045968 0.171557
vn -0.995026 0.025782 -0.096220
vn -0.995026 0.025782 -0.096220
vn 1.000000 -0.000000 0.000000
vn 1.000000 -0.000000 0.000000
vn 1.000000 -0.000000 0.000000
vn 1.000000 -0.000000 0.000000
vn -0.000000 -0.965926 -0.258819
vn -0.000000 -0.965926 -0.258819
vn -0.000000 -0.965926 -0.258819
vn -0.000000 -0.965926 -0.258819
vn -0.000000 -0.965926 -0.258819
vn -0.000000 -0.965926 -0.258819
vn -0.000000 -0.965926 -0.258819
vn -0.000000 -0.965926 -0.258819
vn -0.000000 -0.965926 -0.258819
vn -0.000000 -0.965926 -0.258819
vn -0.000000 -0.965926 -0.258819
vn -0.000000 -0.965926 -0.258819
vn -0.000000 -0.965926 -0.258819
vn -0.000000 -0.965926 -0.258819
vn -0.000000 -0.965926 -0.258819
vn -0.000000 -0.965926 -0.258819
vn -0.000000 -0.965926 -0.258819
vn -0.000000 -0.965926 -0.258819
vn -0.000000 -0.965926 -0.258819
vn -0.000000 -0.965926 -0.258819
vn -0.000000 -0.965926 -0.258819
vn -0.000000 -0.965926 -0.258819
vn -0.000000 -0.965926 -0.258819
vn -0.000000 -0.965926 -0.258819
vn -0.000000 -0.965926 -0.258819
vn -0.000000 -0.965926 -0.258819
vn -0.000000 -0.965926 -0.258819
vn 0.000000 0.965926 0.258819
vn 0.000000 0.965926 0.258819
vn 0.000000 0.965926 0.258819
vn 0.000000 0.965926 0.258819
vn 0.000000 0.965926 0.258819
vn 0.000000 0.965926 0.258819
vn 0.000000 0.965926 0.258819
vn 0.000000 0.965926 0.258819
vn 0.000000 0.965926 0.258819
vn 0.000000 0.965926 0.258819
vn 0.000000 0.965926 0.258819
vn 0.000000 0.965926 0.258819
vn 0.000000 0.965926 0.258819
vn 0.000000 0.965926 0.258819
vn 0.000000 0.965926 0.258819
vn 0.000000 0.965926 0.258819
vn 0.000000 0.965926 0.258819
vn 0.000000 0.965926 0.258819
vn 0.000000 0.965926 0.258819
vn 0.000000 0.965926 0.258819
vn 0.000000 0.965926 0.258819
vn 0.000000 0.965926 0.258819
vn 0.000000 0.965926 0.258819
vn 0.000000 0.965926 0.258819
vn 0.000000 0.965926 0.258819
vn 0.000000 0.965926 0.258819
vn 0.000000 0.965926 0.258819
vn -0.000000 -0.258819 0.965926
vn -0.000000 -0.258819 0.965926
vn 1.000000 -0.000000 0.000000
vn 1.000000 -0.000000 0.000000
vn 0.965926 -0.066987 0.250000
vn 0.965926 -0.066987 0.250000
vn 0.866025 -0.129410 0.482963
vn 0.866025 -0.129410 0.482963
vn 0.707107 -0.183013 0.683013
vn 0.707107 -0.183013 0.683013
vn 0.500000 -0.224144 0.836516
vn 0.500000 -0.224144 0.836516
vn 0.258819 -0.250000 0.933013
vn 0.258819 -0.250000 0.933013
vn 1.000000 -0.000000 0.000000
vn 1.000000 -0.000000 0.000000
vn 0.000000 0.258819 -0.965926
vn 0.000000 0.258819 -0.965926
vn 0.000000 0.258819 -0.965926
vn 0.000000 0.258819 -0.965926
vn -1.000000 0.000000 -0.000000
vn -1.000000 0.000000 -0.000000
vn -1.000000 0.000000 -0.000000
vn -1.000000 0.000000 -0.000000
vn 0.000000 0.258819 -0.965926
vn 0.000000 0.258819 -0.965926
vn -0.382683 0.239118 -0.892399
vn -0.382683 0.239118 -0.892399
vn -0.707107 0.183013 -0.683013
vn -0.707107 0.183013 -0.683013
vn -0.923880 0.099046 -0.369644
vn -0.923880 0.099046 -0.369644
vn -0.923880 0.099046 -0.369644
vn -0.707107 0.183013 -0.683013
vn -0.382683 0.239118 -0.892399
vn 0.000000 0.258819 -0.965926
vn 0.000000 0.258819 -0.965926
vn 0.923880 0.099046 -0.369644
vn 0.923880 0.099046 -0.369644
vn 0.707107 0.183013 -0.683013
vn 0.707107 0.183013 -0.683013
vn 0.382683 0.239118 -0.892399
vn 0.382683 0.239118 -0.892399
vn 0.382683 0.239118 -0.892399
vn 0.707107 0.183013 -0.683013
vn 0.923880 0.099046 -0.369644
vn -0.862673 -0.488529 -0.130901
vn -0.700000 -0.689809 -0.184834
vn -0.700000 -0.689809 -0.184834
vn -0.442289 -0.866313 -0.232128
vn -0.700000 -0.689809 -0.184834
vn -0.700000 -0.689809 -0.184834
vn -0.862673 -0.488529 -0.130901
vn -0.862673 -0.488529 -0.130901
vn -0.965058 -0.253109 -0.067820
vn -0.965058 -0.253109 -0.067820
vn -0.442289 -0.866313 -0.232128
vn -0.700000 -0.689809 -0.184834
vn -0.737277 -0.652570 -0.174856
vn -0.862673 -0.488529 -0.130901
vn -0.932008 -0.350088 -0.093806
vn -0.965058 -0.253109 -0.067820
vn -0.932008 -0.350088 -0.093806
vn -0.932008 -0.350088 -0.093806
vn -0.932008 -0.350088 -0.093806
vn -0.737277 -0.652570 -0.174856
vn -0.737277 -0.652570 -0.174856
vn -0.442289 -0.866313 -0.232128
vn -0.442289 -0.866313 -0.232128
vn -0.087156 -0.962250 -0.257834
vn -0.442289 -0.866313 -0.232128
vn -0.442289 -0.866313 -0.232128
vn -0.737277 -0.652570 -0.174856
vn -0.737277 -0.652570 -0.174856
vn -0.932008 -0.350088 -0.093806
vn -0.932008 -0.350088 -0.093806
vn -0.087156 -0.962250 -0.257834
vn -0.442289 -0.866313 -0.232128
vn -0.737277 -0.652570 -0.174856
vn -0.737277 -0.652570 -0.174856
vn -0.700000 -0.689809 -0.184834
vn -0.700000 -0.689809 -0.184834
vn -0.700000 -0.689809 -0.184834
vn -0.862673 -0.488529 -0.130901
vn -0.862673 -0.488529 -0.130901
vn -0.965058 -0.253109 -0.067820
vn -0.965058 -0.253109 -0.067820
vn -0.862673 -0.488529 -0.130901
vn -0.932008 -0.350088 -0.093806
vn -0.965058 -0.253109 -0.067820
vn -0.862673 -0.488529 -0.130901
vn -0.965058 -0.253109 -0.067820
vn -0.965058 -0.253109 -0.067820
vn -0.442289 -0.232128 0.866313
vn -0.442289 -0.232128 0.866313
vn -0.087156 -0.257834 0.962250
vn -0.442289 -0.232128 0.866313
vn -0.087156 -0.257834 0.962250
vn -0.442289 -0.232128 0.866313
vn -0.442289 -0.232128 0.866313
vn -0.737277 -0.174856 0.652570
vn -0.737277 -0.174856 0.652570
vn -0.932008 -0.093806 0.350088
vn -0.932008 -0.093806 0.350088
vn -0.932008 -0.093806 0.350088
vn -0.932008 -0.093806 0.350088
vn -0.932008 -0.093806 0.350088
vn -0.737277 -0.174856 0.652570
vn -0.737277 -0.174856 0.652570
vn -0.737277 -0.174856 0.652570
vn -0.932008 0.093806 -0.350088
vn -0.932008 0.093806 -0.350088
vn -0.932008 0.093806 -0.350088
vn -0.932008 0.093806 -0.350088
vn -0.932008 0.093806 -0.350088
vn -0.737277 0.174856 -0.652570
vn -0.737277 0.174856 -0.652570
vn -0.442289 0.232128 -0.866313
vn -0.442289 0.232128 -0.866313
vn -0.087156 0.257834 -0.962250
vn -0.442289 0.232128 -0.866313
vn -0.087156 0.257834 -0.962250
vn -0.442289 0.232128 -0.866313
vn -0.442289 0.232128 -0.866313
vn -0.737277 0.174856 -0.652570
vn -0.737277 0.174856 -0.652570
vn -0.737277 0.174856 -0.652570
vn -0.965058 0.253109 0.067820
vn -0.965058 0.253109 0.067820
vn -0.862673 0.488529 0.130901
vn -0.862673 0.488529 0.130901
vn -0.700000 0.689809 0.184834
vn -0.700000 0.689809 0.184834
vn -0.442289 0.866313 0.232128
vn -0.442289 0.866313 0.232128
vn -0.087156 0.962250 0.257834
vn -0.442289 0.866313 0.232128
vn -0.442289 0.866313 0.232128
vn -0.737277 0.652570 0.174856
vn -0.737277 0.652570 0.174856
vn -0.932008 0.350088 0.093806
vn -0.932008 0.350088 0.093806
vn -0.932008 0.350088 0.093806
vn -0.932008 0.350088 0.093806
vn -0.737277 0.652570 0.174856
vn -0.932008 0.350088 0.093806
vn -0.737277 0.652570 0.174856
vn -0.442289 0.866313 0.232128
vn -0.442289 0.866313 0.232128
vn -0.087156 0.962250 0.257834
vn -0.442289 0.866313 0.232128
vn -0.700000 0.689809 0.184834
vn -0.700000 0.689809 0.184834
vn -0.700000 0.689809 0.184834
vn -0.862673 0.488529 0.130901
vn -0.862673 0.488529 0.130901
vn -0.965058 0.253109 0.067820
vn -0.965058 0.253109 0.067820
vn -0.700000 0.689809 0.184834
vn -0.862673 0.488529 0.130901
vn -0.862673 0.488529 0.130901
vn -0.965058 0.253109 0.067820
vn -0.965058 0.253109 0.067820
vn -0.700000 0.689809 0.184834
vn -0.737277 0.652570 0.174856
vn -0.862673 0.488529 0.130901
vn -0.932008 0.350088 0.093806
vn -0.965058 0.253109 0.067820
vn -0.932008 0.350088 0.093806
vn -0.965058 0.253109 0.067820
vn -0.862673 0.488529 0.130901
vn -0.737277 0.652570 0.174856
vn -0.700000 0.689809 0.184834
vn -0.737277 0.652570 0.174856
vn -0.087156 -0.962250 -0.257834
vn -0.087156 -0.962250 -0.257834
vn -0.087156 -0.962250 -0.257834
vn 0.087156 -0.962250 -0.257834
vn 0.087156 -0.962250 -0.257834
vn 0.087156 -0.962250 -0.257834
vn 0.087156 -0.962250 -0.257834
vn 0.087156 -0.962250 -0.257834
vn 0.087156 -0.962250 -0.257834
vn 0.087156 -0.962250 -0.257834
vn 0.087156 -0.962250 -0.257834
vn -0.087156 -0.257834 0.962250
vn -0.087156 -0.257834 0.962250
vn -0.087156 -0.257834 0.962250
vn -0.087156 -0.257834 0.962250
vn 1.000000 -0.000000 0.000000
vn 1.000000 -0.000000 0.000000
vn 1.000000 -0.000000 0.000000
vn 1.000000 -0.000000 0.000000
vn 0.258819 -0.250000 0.933013
vn 0.258819 -0.250000 0.933013
vn 0.258819 -0.250000 0.933013
vn 0.258819 -0.250000 0.933013
vn 1.000000 -0.000000 0.000000
vn 1.000000 -0.000000 0.000000
vn 1.000000 -0.000000 0.000000
vn 1.000000 -0.000000 0.000000
vn 0.258819 0.250000 -0.933013
vn 0.258819 0.250000 -0.933013
vn 0.258819 0.250000 -0.933013
vn 0.258819 0.250000 -0.933013
vn 1.000000 -0.000000 0.000000
vn 1.000000 -0.000000 0.000000
vn 1.000000 -0.000000 0.000000
vn 1.000000 -0.000000 0.000000
vn -0.087156 0.257834 -0.962250
vn -0.087156 0.257834 -0.962250
vn -0.087156 0.257834 -0.962250
vn -0.087156 0.257834 -0.962250
vn -0.087156 0.257834 -0.962250
vn 0.087156 0.962250 0.257834
vn 0.087156 0.962250 0.257834
vn 0.087156 0.962250 0.257834
vn 0.087156 0.962250 0.257834
vn 0.087156 0.962250 0.257834
vn 0.087156 0.962250 0.257834
vn 0.087156 0.962250 0.257834
vn 0.087156 0.962250 0.257834
vn -0.087156 0.962250 0.257834
vn -0.087156 0.962250 0.257834
vn -0.087156 0.962250 0.257834
vn -0.087156 0.962250 0.257834
vn 0.087156 -0.257834 0.962250
vn 0.087156 -0.257834 0.962250
vn 0.087156 -0.257834 0.962250
vn 0.087156 -0.257834 0.962250
vn 0.087156 -0.257834 0.962250
vn 0.087156 -0.257834 0.962250
vn 0.087156 -0.257834 0.962250
vn 0.087156 -0.257834 0.962250
vn 0.087156 0.257834 -0.962250
vn 0.087156 0.257834 -0.962250
vn 0.087156 0.257834 -0.962250
vn 0.087156 0.257834 -0.962250
vn 0.087156 0.257834 -0.962250
vn 0.087156 0.257834 -0.962250
vn 0.087156 0.257834 -0.962250
vn 0.087156 0.257834 -0.962250
vn -0.000000 -0.965926 -0.258819
vn -0.000000 -0.965926 -0.258819
vn -0.000000 -0.965926 -0.258819
vn -0.000000 -0.965926 -0.258819
vn 0.000000 0.383009 -0.923745
vn 0.000000 0.383009 -0.923745
vn 0.000000 0.383009 -0.923745
vn 0.000000 0.383009 -0.923745
vn 0.000000 0.965926 0.258819
vn 0.000000 0.965926 0.258819
vn 0.000000 0.965926 0.258819
vn 0.000000 0.965926 0.258819
vn -0.000000 0.202964 0.979186
vn -0.000000 0.202964 0.979186
vn -0.000000 0.202964 0.979186
vn -0.000000 0.202964 0.979186
vn 0.000000 0.664637 -0.747166
vn 0.000000 0.664637 -0.747166
vn 0.000000 0.664637 -0.747166
vn 0.000000 0.664637 -0.747166
vn 0.000000 0.965926 0.258819
vn 0.000000 0.965926 0.258819
vn 0.000000 0.965926 0.258819
vn 0.000000 0.965926 0.258819
vn -0.000000 -0.129396 0.991593
vn -0.000000 -0.129396 0.991593
vn -0.000000 -0.129396 0.991593
vn -0.000000 -0.129396 0.991593
vn -0.000000 -0.965926 -0.258819
vn -0.000000 -0.965926 -0.258819
vn -0.000000 -0.965926 -0.258819
vn -0.000000 -0.965926 -0.258819
vn 0.000000 0.129141 -0.991626
vn 0.000000 0.129141 -0.991626
vn 0.000000 0.129141 -0.991626
vn 0.000000 0.129141 -0.991626
vn -0.000000 -0.664469 0.747316
vn -0.000000 -0.664469 0.747316
vn -0.000000 -0.664469 0.747316
vn -0.000000 -0.664469 0.747316
vn -0.000000 -0.965926 -0.258819
vn -0.000000 -0.965926 -0.258819
vn -0.000000 -0.965926 -0.258819
vn -0.000000 -0.965926 -0.258819
vn 0.000000 -0.202437 -0.979295
vn 0.000000 -0.202437 -0.979295
vn 0.000000 -0.202437 -0.979295
vn 0.000000 -0.202437 -0.979295
vn -0.000000 -0.383453 0.923560
vn -0.000000 -0.383453 0.923560
vn -0.000000 -0.383453 0.923560
vn -0.000000 -0.383453 0.923560
vn -1.000000 0.000000 -0.000000
vn -1.000000 0.000000 -0.000000
vn -1.000000 0.000000 -0.000000
vn -1.000000 0.000000 -0.000000
vn -1.000000 0.000000 -0.000000
vn -1.000000 0.000000 -0.000000
vn -1.000000 0.000000 -0.000000
vn -1.000000 0.000000 -0.000000
vn -1.000000 0.000000 -0.000000
vn -1.000000 0.000000 -0.000000
vn -1.000000 0.000000 -0.000000
vn -1.000000 0.000000 -0.000000
vn -1.000000 0.000000 -0.000000
vn -0.000000 -0.258819 0.965926
vn -0.000000 -0.258819 0.965926
vn -0.000000 -0.258819 0.965926
vn -0.000000 -0.258819 0.965926
vn -0.000000 -0.258819 0.965926
vn -0.000000 -0.258819 0.965926
vn -0.000000 -0.258819 0.965926
vn -0.000000 -0.258819 0.965926
vn 0.000000 0.258819 -0.965926
vn 0.000000 0.258819 -0.965926
vn 0.000000 0.258819 -0.965926
vn 0.000000 0.258819 -0.965926
vn 0.000000 0.258819 -0.965926
vn 0.000000 0.258819 -0.965926
vn 0.000000 0.258819 -0.965926
vn 0.000000 0.258819 -0.965926
vn -1.000000 0.000000 -0.000000
vn -1.000000 0.000000 -0.000000
vn -1.000000 0.000000 -0.000000
vn -1.000000 0.000000 -0.000000
vn 0.000000 0.258819 -0.965926
vn 0.000000 0.258819 -0.965926
vn 0.000000 0.258819 -0.965926
vn 0.000000 0.258819 -0.965926
vn 0.000000 0.965926 0.258819
vn 0.000000 0.965926 0.258819
vn 0.000000 0.965926 0.258819
vn 0.000000 0.965926 0.258819
vn -0.000000 -0.670882 0.741565
vn -0.000000 -0.670882 0.741565
vn -0.000000 -0.670882 0.741565
vn -0.000000 -0.670882 0.741565
vn -0.000000 -0.721424 -0.692494
vn -0.000000 -0.721424 -0.692494
vn -0.000000 -0.721424 -0.692494
vn -0.000000 -0.721424 -0.692494
vn 0.000000 0.670957 -0.741497
vn 0.000000 0.670957 -0.741497
vn 0.000000 0.670957 -0.741497
vn 0.000000 0.670957 -0.741497
vn -0.000000 -0.965926 -0.258819
vn -0.000000 -0.965926 -0.258819
vn -0.000000 -0.965926 -0.258819
vn -0.000000 -0.965926 -0.258819
vn -1.000000 0.000000 -0.000000
vn -1.000000 0.000000 -0.000000
vn -1.000000 0.000000 -0.000000
vn -1.000000 0.000000 -0.000000
vn -1.000000 0.000000 -0.000000
vn -1.000000 0.000000 -0.000000
vn -0.000000 -0.258819 0.965926
vn -0.000000 -0.258819 0.965926
vn -0.000000 -0.258819 0.965926
vn -0.000000 -0.258819 0.965926
vn -0.000000 -0.258819 0.965926
vn -0.000000 -0.258819 0.965926
vn -0.000000 -0.258819 0.965926
vn -0.000000 -0.258819 0.965926
vn 0.000000 0.258819 -0.965926
vn 0.000000 0.258819 -0.965926
vn 0.000000 0.258819 -0.965926
vn 0.000000 0.258819 -0.965926
vn 0.000000 0.258819 -0.965926
vn 0.000000 0.258819 -0.965926
vn 0.000000 0.258819 -0.965926
vn 0.000000 0.258819 -0.965926
vn -1.000000 0.000000 -0.000000
vn -1.000000 0.000000 -0.000000
vn -1.000000 0.000000 -0.000000
vn -1.000000 0.000000 -0.000000
vn -0.000000 -0.258819 0.965926
vn -0.000000 -0.258819 0.965926
vn -0.000000 -0.258819 0.965926
vn -0.000000 -0.258819 0.965926
vn -0.000000 -0.258819 0.965926
vn -0.000000 -0.258819 0.965926
vn -0.000000 -0.258819 0.965926
vn -0.000000 -0.258819 0.965926
vn 0.000000 0.258819 -0.965926
vn 0.000000 0.258819 -0.965926
vn 0.000000 0.258819 -0.965926
vn 0.000000 0.258819 -0.965926
vn 0.000000 0.258819 -0.965926
vn 0.000000 0.258819 -0.965926
vn 0.000000 0.258819 -0.965926
vn 0.000000 0.258819 -0.965926
vn -1.000000 0.000000 -0.000000
vn -1.000000 0.000000 -0.000000
vn -1.000000 0.000000 -0.000000
vn -1.000000 0.000000 -0.000000
vn -0.000000 -0.258819 0.965926
vn -0.000000 -0.258819 0.965926
vn -0.000000 -0.258819 0.965926
vn -0.000000 -0.258819 0.965926
vn -0.000000 -0.258819 0.965926
vn -0.000000 -0.258819 0.965926
vn -0.000000 -0.258819 0.965926
vn -0.000000 -0.258819 0.965926
vn 0.000000 0.258819 -0.965926
vn 0.000000 0.258819 -0.965926
vn 0.000000 0.258819 -0.965926
vn 0.000000 0.258819 -0.965926
vn 0.000000 0.258819 -0.965926
vn 0.000000 0.258819 -0.965926
vn 0.000000 0.258819 -0.965926
vn 0.000000 0.258819 -0.965926
vn -1.000000 0.000000 -0.000000
vn -1.000000 0.000000 -0.000000
vn -1.000000 0.000000 -0.000000
vn -1.000000 0.000000 -0.000000
usemtl Opaque(202,209,238)
f 2/1/1 3/2/2 1/3/3
f 1/3/3 3/2/2 4/4/4
f 6/5/5 7/6/6 5/7/7
f 5/7/7 7/6/6 8/8/8
f 10/9/9 11/10/10 9/11/11
f 9/11/11 11/10/10 12/12/12
f 14/13/13 19/14/14 13/15/15
f 13/15/15 19/14/14 20/16/16
f 13/15/15 20/16/16 21/17/17
f 15/18/18 34/19/19 14/13/13
f 14/13/13 34/19/19 26/20/20
f 14/13/13 26/20/20 28/21/21
f 28/21/21 26/20/20 27/22/22
f 34/19/19 15/18/18 33/23/23
f 33/23/23 15/18/18 16/24/24
f 33/23/23 16/24/24 32/25/25
f 32/25/25 16/24/24 24/26/26
f 32/25/25 24/26/26 31/27/27
f 31/27/27 24/26/26 25/28/28
f 31/27/27 25/28/28 35/29/29
f 35/29/29 25/28/28 34/19/19
f 34/19/19 25/28/28 26/20/20
f 16/24/24 13/15/15 24/26/26
f 24/26/26 13/15/15 23/30/30
f 23/30/30 13/15/15 21/17/17
f 23/30/30 21/17/17 22/31/31
f 17/32/32 18/33/33 29/34/34
f 29/34/34 18/33/33 14/13/13
f 29/34/34 14/13/13 28/21/21
f 18/33/33 19/14/14 14/13/13
f 30/35/35 31/27/27 35/29/29
f 37/36/36 38/37/37 36/38/38
f 36/38/38 38/37/37 39/39/39
f 41/40/40 42/41/41 40/42/42
f 40/42/42 42/41/41 43/43/43
f 40/42/42 43/43/43 66/44/44
f 66/44/44 43/43/43 44/45/45
f 66/44/44 44/45/45 45/46/46
f 66/44/44 45/46/46 65/47/47
f 65/47/47 45/46/46 46/48/48
f 65/47/47 46/48/48 64/49/49
f 64/49/49 46/48/48 47/50/50
f 64/49/49 47/50/50 63/51/51
f 63/51/51 47/50/50 48/52/52
f 63/51/51 48/52/52 62/53/53
f 62/53/53 48/52/52 49/54/54
f 62/53/53 49/54/54 50/55/55
f 62/53/53 50/55/55 61/56/56
f 61/56/56 50/55/55 51/57/57
f 61/56/56 51/57/57 60/58/58
f 60/58/58 51/57/57 52/59/59
f 60/58/58 52/59/59 53/60/60
f 60/58/58 53/60/60 59/61/61
f 59/61/61 53/60/60 54/62/62
f 59/61/61 54/62/62 58/63/63
f 58/63/63 54/62/62 55/64/64
f 58/63/63 55/64/64 57/65/65
f 57/65/65 55/64/64 56/66/66
f 68/67/67 69/68/68 67/69/69
f 67/69/69 69/68/68 93/70/70
f 93/70/70 69/68/68 70/71/71
f 93/70/70 70/71/71 92/72/72
f 92/72/72 70/71/71 91/73/73
f 91/73/73 70/71/71 71/74/74
f 91/73/73 71/74/74 90/75/75
f 90/75/75 71/74/74 72/76/76
f 90/75/75 72/76/76 89/77/77
f 89/77/77 72/76/76 73/78/78
f 89/77/77 73/78/78 88/79/79
f 88/79/79 73/78/78 87/80/80
f 87/80/80 73/78/78 74/81/81
f 87/80/80 74/81/81 86/82/82
f 86/82/82 74/81/81 75/83/83
f 86/82/82 75/83/83 85/84/84
f 85/84/84 75/83/83 76/85/85
f 85/84/84 76/85/85 84/86/86
f 84/86/86 76/85/85 83/87/87
f 83/87/87 76/85/85 77/88/88
f 83/87/87 77/88/88 82/89/89
f 82/89/89 77/88/88 78/90/90
f 82/89/89 78/90/90 81/91/91
f 81/91/91 78/90/90 79/92/92
f 81/91/91 79/92/92 80/93/93
f 69/94/94 40/95/95 94/96/96
f 94/96/96 40/95/95 66/97/97
f 94/96/96 66/97/97 95/98/98
f 95/98/98 66/97/97 65/99/99
f 95/98/98 65/99/99 96/100/100
f 96/100/100 65/99/99 64/101/101
f 96/100/100 64/101/101 63/102/102
f 63/102/102 73/103/103 96/100/100
f 96/100/100 73/103/103 72/104/104
f 96/100/100 72/104/104 95/98/98
f 95/98/98 72/104/104 71/105/105
f 95/98/98 71/105/105 94/96/96
f 94/96/96 71/105/105 70/106/106
f 94/96/96 70/106/106 69/94/94
f 63/107/102 62/108/107 73/109/103
f 73/109/103 62/108/107 74/110/108
f 74/111/108 62/112/107 97/113/109
f 97/113/109 62/112/107 61/114/110
f 97/113/109 61/114/110 98/115/111
f 98/115/111 61/114/110 60/116/112
f 98/115/111 60/116/112 99/117/113
f 99/117/113 60/116/112 59/118/114
f 99/117/113 59/118/114 58/119/115
f 58/119/115 78/120/116 99/117/113
f 99/117/113 78/120/116 77/121/117
f 99/117/113 77/121/117 98/115/111
f 98/115/111 77/121/117 76/122/118
f 98/115/111 76/122/118 97/113/109
f 97/113/109 76/122/118 75/123/119
f 97/113/109 75/123/119 74/111/108
f 58/124/115 57/125/120 78/126/116
f 78/126/116 57/125/120 79/127/121
f 57/128/122 56/129/123 79/130/124
f 79/130/124 56/129/123 80/131/125
f 56/132/126 55/133/127 80/134/128
f 80/134/128 55/133/127 81/135/129
f 81/136/129 55/137/127 82/138/130
f 82/138/130 55/137/127 54/139/131
f 82/138/130 54/139/131 83/140/132
f 83/140/132 54/139/131 53/141/133
f 83/140/132 53/141/133 84/142/134
f 84/142/134 53/141/133 52/143/135
f 84/142/134 52/143/135 85/144/136
f 85/144/136 52/143/135 51/145/137
f 85/144/136 51/145/137 86/146/138
f 86/146/138 51/145/137 50/147/139
f 86/146/138 50/147/139 87/148/140
f 87/148/140 50/147/139 49/149/141
f 49/150/141 48/151/142 87/152/140
f 87/152/140 48/151/142 88/153/143
f 88/154/143 48/155/142 89/156/144
f 89/156/144 48/155/142 47/157/145
f 89/156/144 47/157/145 90/158/146
f 90/158/146 47/157/145 46/159/147
f 90/158/146 46/159/147 91/160/148
f 91/160/148 46/159/147 45/161/149
f 91/160/148 45/161/149 92/162/150
f 92/162/150 45/161/149 44/163/151
f 92/162/150 44/163/151 93/164/152
f 93/164/152 44/163/151 43/165/153
f 93/164/152 43/165/153 67/166/154
f 67/166/154 43/165/153 42/167/155
f 68/168/156 41/169/157 69/170/94
f 69/170/94 41/169/157 40/171/95
f 113/172/158 100/173/159 112/174/160
f 112/174/160 100/173/159 101/175/161
f 112/174/160 101/175/161 111/176/162
f 111/176/162 101/175/161 102/177/163
f 111/176/162 102/177/163 110/178/164
f 110/178/164 102/177/163 103/179/165
f 110/178/164 103/179/165 109/180/166
f 109/180/166 103/179/165 104/181/167
f 109/180/166 104/181/167 108/182/168
f 108/182/168 104/181/167 105/183/169
f 108/182/168 105/183/169 107/184/170
f 107/184/170 105/183/169 106/185/171
f 114/186/172 115/187/173 117/188/174
f 117/188/174 115/187/173 116/189/175
f 115/190/176 114/191/177 107/192/178
f 107/192/178 114/191/177 108/193/179
f 108/193/179 114/191/177 118/194/180
f 108/193/179 118/194/180 109/195/181
f 109/195/181 118/194/180 110/196/182
f 110/196/182 118/194/180 119/197/183
f 110/196/182 119/197/183 111/198/184
f 111/198/184 119/197/183 120/199/185
f 111/198/184 120/199/185 112/200/186
f 112/200/186 120/199/185 121/201/187
f 112/200/186 121/201/187 113/202/188
f 113/202/188 121/201/187 122/203/189
f 113/202/188 122/203/189 135/204/190
f 135/204/190 122/203/189 134/205/191
f 134/205/191 122/203/189 123/206/192
f 134/205/191 123/206/192 133/207/193
f 133/207/193 123/206/192 124/208/194
f 133/207/193 124/208/194 132/209/195
f 132/209/195 124/208/194 131/210/196
f 131/210/196 124/208/194 125/211/197
f 131/210/196 125/211/197 130/212/198
f 130/212/198 125/211/197 126/213/199
f 130/212/198 126/213/199 129/214/200
f 129/214/200 126/213/199 128/215/201
f 128/215/201 126/213/199 127/216/202
f 116/217/203 106/218/204 117/219/205
f 117/219/205 106/218/204 105/220/206
f 117/219/205 105/220/206 153/221/207
f 153/221/207 105/220/206 104/222/208
f 153/221/207 104/222/208 103/223/209
f 153/221/207 103/223/209 152/224/210
f 152/224/210 103/223/209 102/225/211
f 152/224/210 102/225/211 151/226/212
f 151/226/212 102/225/211 101/227/213
f 151/226/212 101/227/213 150/228/214
f 150/228/214 101/227/213 100/229/215
f 150/228/214 100/229/215 149/230/216
f 149/230/216 100/229/215 136/231/217
f 149/230/216 136/231/217 137/232/218
f 149/230/216 137/232/218 148/233/219
f 148/233/219 137/232/218 138/234/220
f 148/233/219 138/234/220 147/235/221
f 147/235/221 138/234/220 139/236/222
f 147/235/221 139/236/222 140/237/223
f 147/235/221 140/237/223 146/238/224
f 146/238/224 140/237/223 141/239/225
f 146/238/224 141/239/225 145/240/226
f 145/240/226 141/239/225 142/241/227
f 145/240/226 142/241/227 144/242/228
f 144/242/228 142/241/227 143/243/229
f 136/244/230 100/245/159 135/246/231
f 135/246/231 100/245/159 113/247/158
f 129/248/232 142/249/233 130/250/234
f 130/250/234 142/249/233 141/251/235
f 130/250/234 141/251/235 131/252/236
f 131/252/236 141/251/235 140/253/237
f 131/252/236 140/253/237 132/254/238
f 132/254/238 140/253/237 139/255/239
f 132/254/238 139/255/239 133/256/240
f 133/256/240 139/255/239 138/257/241
f 133/256/240 138/257/241 134/258/242
f 134/258/242 138/257/241 137/259/243
f 134/258/242 137/259/243 135/260/231
f 135/260/231 137/259/243 136/261/230
f 142/262/233 129/263/232 143/264/244
f 143/264/244 129/263/232 128/265/245
f 143/266/246 128/267/247 144/268/248
f 144/268/248 128/267/247 127/269/249
f 145/270/250 144/271/251 126/272/252
f 126/272/252 144/271/251 127/273/253
f 122/274/254 149/275/255 154/276/256
f 154/276/256 149/275/255 148/277/257
f 154/276/256 148/277/257 155/278/258
f 155/278/258 148/277/257 147/279/259
f 155/278/258 147/279/259 156/280/260
f 156/280/260 147/279/259 146/281/261
f 156/280/260 146/281/261 145/282/250
f 145/282/250 126/283/252 156/280/260
f 156/280/260 126/283/252 125/284/262
f 156/280/260 125/284/262 155/278/258
f 155/278/258 125/284/262 124/285/263
f 155/278/258 124/285/263 154/276/256
f 154/276/256 124/285/263 123/286/264
f 154/276/256 123/286/264 122/274/254
f 149/287/255 122/288/254 150/289/265
f 150/289/265 122/288/254 121/290/266
f 114/291/172 117/292/174 157/293/267
f 157/293/267 117/292/174 153/294/268
f 157/293/267 153/294/268 158/295/269
f 158/295/269 153/294/268 152/296/270
f 158/295/269 152/296/270 159/297/271
f 159/297/271 152/296/270 151/298/272
f 159/297/271 151/298/272 150/299/265
f 150/299/265 121/300/266 159/297/271
f 159/297/271 121/300/266 120/301/273
f 159/297/271 120/301/273 158/295/269
f 158/295/269 120/301/273 119/302/274
f 158/295/269 119/302/274 157/293/267
f 157/293/267 119/302/274 118/303/275
f 157/293/267 118/303/275 114/291/172
f 161/304/276 165/305/277 160/306/278
f 160/306/278 165/305/277 174/307/279
f 160/306/278 174/307/279 191/308/280
f 191/308/280 174/307/279 186/309/281
f 191/308/280 186/309/281 187/310/282
f 165/305/277 161/304/276 164/311/283
f 164/311/283 161/304/276 162/312/284
f 164/311/283 162/312/284 163/313/285
f 163/313/285 162/312/284 4/314/4
f 4/314/4 162/312/284 1/315/3
f 174/307/279 165/305/277 201/316/286
f 201/316/286 165/305/277 166/317/287
f 201/316/286 166/317/287 192/318/288
f 192/318/288 166/317/287 167/319/289
f 192/318/288 167/319/289 202/320/290
f 202/320/290 167/319/289 168/321/291
f 202/320/290 168/321/291 203/322/292
f 203/322/292 168/321/291 16/323/24
f 203/322/292 16/323/24 204/324/293
f 204/324/293 16/323/24 205/325/294
f 204/324/293 205/325/294 194/326/295
f 194/326/295 205/325/294 195/327/296
f 194/326/295 195/327/296 199/328/297
f 199/328/297 195/327/296 198/329/298
f 199/328/297 198/329/298 172/330/299
f 172/330/299 198/329/298 197/331/300
f 172/330/299 197/331/300 171/332/301
f 171/332/301 197/331/300 170/333/302
f 170/333/302 197/331/300 196/334/303
f 170/333/302 196/334/303 169/335/304
f 169/335/304 196/334/303 206/336/305
f 169/335/304 206/336/305 16/323/24
f 16/323/24 206/336/305 205/325/294
f 168/321/291 13/337/15 16/323/24
f 172/330/299 173/338/306 199/328/297
f 199/328/297 173/338/306 200/339/307
f 199/328/297 200/339/307 194/326/295
f 194/326/295 200/339/307 193/340/308
f 194/326/295 193/340/308 204/324/293
f 204/324/293 193/340/308 203/322/292
f 200/339/307 173/338/306 201/316/286
f 201/316/286 173/338/306 174/307/279
f 175/341/309 179/342/310 174/307/279
f 174/307/279 179/342/310 180/343/311
f 174/307/279 180/343/311 185/344/312
f 185/344/312 180/343/311 181/345/313
f 185/344/312 181/345/313 184/346/314
f 184/346/314 181/345/313 182/347/315
f 184/346/314 182/347/315 183/348/316
f 183/348/316 182/347/315 10/349/9
f 10/349/9 182/347/315 11/350/10
f 179/342/310 175/341/309 178/351/317
f 178/351/317 175/341/309 176/352/318
f 178/351/317 176/352/318 177/353/319
f 177/353/319 176/352/318 38/354/37
f 177/353/319 38/354/37 37/355/36
f 185/344/312 186/309/281 174/307/279
f 191/308/280 187/310/282 190/356/320
f 190/356/320 187/310/282 188/357/321
f 190/356/320 188/357/321 189/358/322
f 189/358/322 188/357/321 6/359/5
f 6/359/5 188/357/321 7/360/6
f 200/339/307 201/316/286 193/340/308
f 193/340/308 201/316/286 192/318/288
f 193/340/308 192/318/288 203/322/292
f 203/322/292 192/318/288 202/320/290
f 197/331/300 198/329/298 196/334/303
f 196/334/303 198/329/298 195/327/296
f 196/334/303 195/327/296 206/336/305
f 206/336/305 195/327/296 205/325/294
f 208/361/323 211/362/324 207/363/325
f 207/363/325 211/362/324 212/364/326
f 207/363/325 212/364/326 173/365/327
f 173/365/327 212/364/326 213/366/328
f 173/365/327 213/366/328 174/367/329
f 174/367/329 213/366/328 175/368/330
f 175/368/330 213/366/328 216/369/331
f 175/368/330 216/369/331 176/370/332
f 176/370/332 216/369/331 219/371/333
f 176/370/332 219/371/333 38/372/37
f 38/372/37 219/371/333 218/373/334
f 38/372/37 218/373/334 39/374/39
f 39/374/39 218/373/334 217/375/335
f 39/374/39 217/375/335 210/376/336
f 210/376/336 217/375/335 214/377/337
f 210/376/336 214/377/337 209/378/338
f 209/378/338 214/377/337 211/362/324
f 209/378/338 211/362/324 208/361/323
f 216/369/331 213/366/328 212/364/326
f 212/364/326 211/362/324 215/379/339
f 215/379/339 211/362/324 214/377/337
f 215/379/339 214/377/337 218/373/334
f 218/373/334 214/377/337 217/375/335
f 219/371/333 216/369/331 215/379/339
f 215/379/339 216/369/331 212/364/326
f 219/371/333 215/379/339 218/373/334
f 220/380/340 224/381/341 15/382/18
f 15/382/18 224/381/341 225/383/342
f 15/382/18 225/383/342 16/384/24
f 16/384/24 225/383/342 226/385/343
f 16/384/24 226/385/343 169/386/344
f 169/386/344 226/385/343 229/387/345
f 169/386/344 229/387/345 170/388/346
f 170/388/346 229/387/345 232/389/347
f 170/388/346 232/389/347 171/390/348
f 171/390/348 232/389/347 172/391/349
f 172/391/349 232/389/347 231/392/350
f 172/391/349 231/392/350 223/393/351
f 223/393/351 231/392/350 230/394/352
f 223/393/351 230/394/352 222/395/353
f 222/395/353 230/394/352 221/396/354
f 221/396/354 230/394/352 227/397/355
f 221/396/354 227/397/355 220/380/340
f 220/380/340 227/397/355 224/381/341
f 229/387/345 226/385/343 225/383/342
f 225/383/342 224/381/341 228/398/356
f 228/398/356 224/381/341 227/397/355
f 228/398/356 227/397/355 231/392/350
f 231/392/350 227/397/355 230/394/352
f 232/389/347 229/387/345 228/398/356
f 228/398/356 229/387/345 225/383/342
f 232/389/347 228/398/356 231/392/350
f 3/399/2 2/400/1 256/401/357
f 256/401/357 2/400/1 233/402/358
f 256/401/357 233/402/358 234/403/359
f 256/401/357 234/403/359 255/404/360
f 255/404/360 234/403/359 235/405/361
f 255/404/360 235/405/361 254/406/362
f 254/406/362 235/405/361 208/407/363
f 254/406/362 208/407/363 257/408/364
f 257/408/364 208/407/363 207/409/365
f 257/408/364 207/409/365 258/410/366
f 258/410/366 207/409/365 259/411/367
f 258/410/366 259/411/367 265/412/368
f 265/412/368 259/411/367 264/413/369
f 265/412/368 264/413/369 270/414/370
f 270/414/370 264/413/369 269/415/371
f 270/414/370 269/415/371 14/416/13
f 14/416/13 269/415/371 15/417/18
f 15/417/18 269/415/371 268/418/372
f 15/417/18 268/418/372 267/419/373
f 267/419/373 268/418/372 262/420/374
f 267/419/373 262/420/374 220/421/375
f 220/421/375 262/420/374 221/422/376
f 221/422/376 262/420/374 261/423/377
f 221/422/376 261/423/377 222/424/378
f 222/424/378 261/423/377 223/425/379
f 223/425/379 261/423/377 260/426/380
f 223/425/379 260/426/380 259/411/367
f 259/411/367 260/426/380 264/413/369
f 235/405/361 236/427/381 208/407/363
f 208/407/363 236/427/381 241/428/382
f 208/407/363 241/428/382 242/429/383
f 236/427/381 237/430/384 241/428/382
f 241/428/382 237/430/384 240/431/385
f 240/431/385 237/430/384 238/432/386
f 240/431/385 238/432/386 239/433/387
f 239/433/387 238/432/386 8/434/8
f 8/434/8 238/432/386 5/435/7
f 208/407/363 242/429/383 247/436/388
f 247/436/388 242/429/383 243/437/389
f 247/436/388 243/437/389 246/438/390
f 246/438/390 243/437/389 244/439/391
f 246/438/390 244/439/391 245/440/392
f 245/440/392 244/439/391 12/441/12
f 12/441/12 244/439/391 9/442/11
f 247/436/388 248/443/393 208/407/363
f 208/407/363 248/443/393 209/444/394
f 209/444/394 248/443/393 249/445/395
f 209/444/394 249/445/395 210/446/396
f 210/446/396 249/445/395 250/447/397
f 210/446/396 250/447/397 39/448/39
f 39/448/39 250/447/397 36/449/38
f 207/409/365 223/425/379 259/411/367
f 220/421/375 15/417/18 267/419/373
f 270/414/370 14/416/13 271/450/398
f 271/450/398 14/416/13 251/451/399
f 271/450/398 251/451/399 252/452/400
f 271/450/398 252/452/400 266/453/401
f 266/453/401 252/452/400 253/454/402
f 266/453/401 253/454/402 257/408/364
f 257/408/364 253/454/402 254/406/362
f 257/408/364 258/410/366 266/453/401
f 266/453/401 258/410/366 265/412/368
f 266/453/401 265/412/368 271/450/398
f 271/450/398 265/412/368 270/414/370
f 260/426/380 261/423/377 263/455/403
f 263/455/403 261/423/377 262/420/374
f 263/455/403 262/420/374 268/418/372
f 269/415/371 264/413/369 263/455/403
f 263/455/403 264/413/369 260/426/380
f 269/415/371 263/455/403 268/418/372
f 173/456/306 172/457/404 272/458/405
f 272/458/405 172/457/404 273/459/406
f 279/460/407 272/461/408 278/462/409
f 278/462/409 272/461/408 273/463/410
f 278/462/409 273/463/410 275/464/411
f 275/464/411 273/463/410 274/465/412
f 276/466/413 277/467/414 275/464/411
f 275/464/411 277/467/414 278/462/409
f 280/468/415 207/469/325 106/470/416
f 106/470/416 207/469/325 173/471/327
f 106/470/416 173/471/327 107/472/417
f 107/472/417 173/471/327 272/473/418
f 278/474/419 281/475/420 279/476/421
f 279/476/421 281/475/420 282/477/422
f 278/478/423 277/479/424 281/480/425
f 281/480/425 277/479/424 283/481/426
f 276/482/427 284/483/428 277/484/429
f 277/484/429 284/483/428 283/485/430
f 275/486/431 285/487/432 276/488/433
f 276/488/433 285/487/432 284/489/434
f 274/490/435 286/491/436 275/492/437
f 275/492/437 286/491/436 285/493/438
f 273/494/439 172/495/349 42/496/440
f 42/496/440 172/495/349 223/497/441
f 42/496/440 223/497/441 67/498/442
f 67/498/442 223/497/441 287/499/443
f 286/500/444 287/501/445 285/502/446
f 285/502/446 287/501/445 280/503/447
f 285/502/446 280/503/447 281/504/448
f 281/504/448 280/503/447 282/505/449
f 283/506/450 284/507/451 281/504/448
f 281/504/448 284/507/451 285/502/446
f 223/508/452 207/509/453 287/510/454
f 287/510/454 207/509/453 280/511/455
f 115/512/456 282/513/457 116/514/458
f 116/514/458 282/513/457 280/515/459
f 116/514/458 280/515/459 106/516/460
f 107/517/461 272/518/462 115/512/456
f 115/512/456 272/518/462 279/519/463
f 115/512/456 279/519/463 282/513/457
f 68/520/464 274/521/465 41/522/466
f 41/522/466 274/521/465 273/523/467
f 41/522/466 273/523/467 42/524/468
f 67/525/469 287/526/470 68/520/464
f 68/520/464 287/526/470 286/527/471
f 68/520/464 286/527/471 274/521/465
f 18/528/472 288/529/473 19/530/474
f 19/530/474 288/529/473 289/531/475
f 20/532/476 19/533/477 290/534/478
f 290/534/478 19/533/477 289/535/479
f 20/536/480 290/537/481 21/538/482
f 21/538/482 290/537/481 291/539/483
f 22/540/484 21/541/485 292/542/486
f 292/542/486 21/541/485 291/543/487
f 23/544/488 22/545/489 293/546/490
f 293/546/490 22/545/489 292/547/491
f 23/548/492 293/549/493 24/550/494
f 24/550/494 293/549/493 294/551/495
f 25/552/496 24/553/497 295/554/498
f 295/554/498 24/553/497 294/555/499
f 25/556/500 295/557/501 26/558/502
f 26/558/502 295/557/501 296/559/503
f 27/560/504 26/561/505 297/562/506
f 297/562/506 26/561/505 296/563/507
f 28/564/508 27/565/509 298/566/510
f 298/566/510 27/565/509 297/567/511
f 28/568/512 298/569/513 29/570/514
f 29/570/514 298/569/513 299/571/515
f 17/572/516 29/573/517 300/574/518
f 300/574/518 29/573/517 299/575/519
f 18/576/520 17/577/521 288/578/522
f 288/578/522 17/577/521 300/579/523
f 288/580/524 300/581/525 289/582/526
f 289/582/526 300/581/525 290/583/527
f 290/583/527 300/581/525 291/584/528
f 291/584/528 300/581/525 292/585/529
f 292/585/529 300/581/525 299/586/530
f 292/585/529 299/586/530 298/587/531
f 298/587/531 297/588/532 292/585/529
f 292/585/529 297/588/532 293/589/533
f 293/589/533 297/588/532 294/590/534
f 294/590/534 297/588/532 295/591/535
f 295/591/535 297/588/532 296/592/536
f 13/593/537 168/594/538 14/595/539
f 14/595/539 168/594/538 251/596/540
f 251/596/540 168/594/538 167/597/541
f 251/596/540 167/597/541 252/598/542
f 252/598/542 167/597/541 253/599/543
f 253/599/543 167/597/541 166/600/544
f 165/601/545 164/602/546 254/603/547
f 254/603/547 164/602/546 255/604/548
f 255/604/548 164/602/546 256/605/549
f 256/605/549 164/602/546 163/606/550
f 256/605/549 163/606/550 3/607/551
f 3/607/551 163/606/550 4/608/552
f 166/609/553 165/610/554 253/611/555
f 253/611/555 165/610/554 254/612/556
f 31/613/557 301/614/558 32/615/559
f 32/615/559 301/614/558 302/616/560
f 32/617/561 302/618/562 33/619/563
f 33/619/563 302/618/562 303/620/564
f 34/621/565 33/622/566 304/623/567
f 304/623/567 33/622/566 303/624/568
f 35/625/569 34/626/570 305/627/571
f 305/627/571 34/626/570 304/628/572
f 30/629/573 35/630/574 306/631/575
f 306/631/575 35/630/574 305/632/576
f 30/633/577 306/634/578 31/635/579
f 31/635/579 306/634/578 301/636/580
f 301/637/581 306/638/582 302/639/583
f 302/639/583 306/638/582 303/640/584
f 303/640/584 306/638/582 304/641/585
f 304/641/585 306/638/582 305/642/586
f 11/643/587 182/644/588 12/645/589
f 12/645/589 182/644/588 245/646/590
f 245/646/590 182/644/588 181/647/591
f 245/646/590 181/647/591 246/648/592
f 246/648/592 181/647/591 247/649/593
f 247/649/593 181/647/591 180/650/594
f 179/651/595 178/652/596 248/653/597
f 248/653/597 178/652/596 249/654/598
f 249/654/598 178/652/596 250/655/599
f 250/655/599 178/652/596 177/656/600
f 250/655/599 177/656/600 36/657/601
f 36/657/601 177/656/600 37/658/602
f 180/659/603 179/660/604 247/661/605
f 247/661/605 179/660/604 248/662/606
f 7/663/607 188/664/608 8/665/609
f 8/665/609 188/664/608 239/666/610
f 239/666/610 188/664/608 187/667/611
f 239/666/610 187/667/611 240/668/612
f 240/668/612 187/667/611 241/669/613
f 241/669/613 187/667/611 186/670/614
f 185/671/615 184/672/616 242/673/617
f 242/673/617 184/672/616 243/674/618
f 243/674/618 184/672/616 244/675/619
f 244/675/619 184/672/616 183/676/620
f 244/675/619 183/676/620 9/677/621
f 9/677/621 183/676/620 10/678/622
f 186/679/623 185/680/624 241/681/625
f 241/681/625 185/680/624 242/682/626
f 1/683/627 162/684/628 2/685/629
f 2/685/629 162/684/628 233/686/630
f 233/686/630 162/684/628 161/687/631
f 233/686/630 161/687/631 234/688/632
f 234/688/632 161/687/631 235/689/633
f 235/689/633 161/687/631 160/690/634
f 191/691/635 190/692/636 236/693/637
f 236/693/637 190/692/636 237/694/638
f 237/694/638 190/692/636 238/695/639
f 238/695/639 190/692/636 189/696/640
f 238/695/639 189/696/640 5/697/641
f 5/697/641 189/696/640 6/698/642
f 160/699/643 191/700/644 235/701/645
f 235/701/645 191/700/644 236/702/646
# 306 vertices
# 702 texture params
# 646 normals
# 608 facets

# 1 groups
