# WaveFront *.obj file (generated by Autodesk ATF)

mtllib body87_visual.mtl

g Body87

v -27.238363 1.904330 -1.391199
v -27.282363 1.904330 -1.391199
v -27.284588 1.904395 -1.391441
v -27.286702 1.904587 -1.392156
v -27.288598 1.904895 -1.393307
v -27.290182 1.905305 -1.394836
v -27.291373 1.905795 -1.396668
v -27.292113 1.906343 -1.398709
v -27.292363 1.906918 -1.400859
v -27.292363 1.932800 -1.497451
v -27.292113 1.933376 -1.499601
v -27.291373 1.933923 -1.501642
v -27.290182 1.934414 -1.503474
v -27.288598 1.934824 -1.505003
v -27.286702 1.935132 -1.506154
v -27.284588 1.935324 -1.506868
v -27.282363 1.935389 -1.507110
v -27.238363 1.935389 -1.507110
v -27.258653 1.921453 -1.455101
v -27.287017 1.921453 -1.455101
v -27.287017 1.918266 -1.443209
v -27.258653 1.918266 -1.443209
v -27.258653 1.916410 -1.456452
v -27.287017 1.916410 -1.456452
v -27.258653 1.926299 -1.493355
v -27.287017 1.926299 -1.493355
v -27.258653 1.845894 -1.514900
v -27.287017 1.845894 -1.514900
v -27.258653 1.841896 -1.499982
v -27.287017 1.841896 -1.499982
v -27.258653 1.874386 -1.491276
v -27.287017 1.874386 -1.491276
v -27.258653 1.856655 -1.425102
v -27.287017 1.856655 -1.425102
v -27.258653 1.904570 -1.412263
v -27.287017 1.904570 -1.412263
v -27.258653 1.913224 -1.444560
v -27.287017 1.913224 -1.444560
v -27.238363 1.934140 -1.383212
v -27.282363 1.934140 -1.383212
v -27.292363 1.962610 -1.489464
v -27.292363 1.936728 -1.392871
v -27.292113 1.936152 -1.390722
v -27.291373 1.935605 -1.388680
v -27.290182 1.935114 -1.386849
v -27.288598 1.934704 -1.385319
v -27.286702 1.934396 -1.384168
v -27.284588 1.934205 -1.383454
v -27.238363 1.965198 -1.499123
v -27.282363 1.965198 -1.499123
v -27.284588 1.965133 -1.498881
v -27.286702 1.964942 -1.498166
v -27.288598 1.964633 -1.497016
v -27.290182 1.964223 -1.495486
v -27.291373 1.963733 -1.493655
v -27.292113 1.963186 -1.491613
vt 0.120000 -0.010000 0.000000
vt 0.066156 -0.033711 0.000000
vt 0.120000 -0.054000 0.000000
vt 0.053844 -0.033711 0.000000
vt -0.000000 -0.054000 0.000000
vt -0.000000 -0.010000 0.000000
vt 0.053844 -0.005347 0.000000
vt 0.000251 -0.007775 0.000000
vt 0.010000 -0.000000 0.000000
vt 0.000990 -0.005661 0.000000
vt 0.002182 -0.003765 0.000000
vt 0.003765 -0.002182 0.000000
vt 0.005661 -0.000990 0.000000
vt 0.007775 -0.000251 0.000000
vt 0.066156 -0.005347 0.000000
vt 0.119749 -0.007775 0.000000
vt 0.110000 -0.000000 0.000000
vt 0.119010 -0.005661 0.000000
vt 0.117818 -0.003765 0.000000
vt 0.116235 -0.002182 0.000000
vt 0.114339 -0.000990 0.000000
vt 0.112225 -0.000251 0.000000
vt 0.005220 -0.005347 0.000000
vt -0.000000 -0.005347 0.000000
vt 0.005220 -0.033711 0.000000
vt -0.000000 -0.033711 0.000000
vt 0.038205 -0.005347 0.000000
vt 0.000000 -0.005347 0.000000
vt 0.038205 -0.033711 0.000000
vt -0.000000 -0.033711 0.000000
vt 0.083241 -0.005347 0.000000
vt -0.000000 -0.005347 0.000000
vt 0.083241 -0.033711 0.000000
vt 0.000000 -0.033711 0.000000
vt 0.015445 -0.005347 0.000000
vt 0.000000 -0.005347 0.000000
vt 0.015445 -0.033711 0.000000
vt 0.000000 -0.033711 0.000000
vt 0.033636 -0.005347 0.000000
vt 0.000000 -0.005347 0.000000
vt 0.033636 -0.033711 0.000000
vt 0.000000 -0.033711 0.000000
vt 0.068508 -0.005347 0.000000
vt -0.000000 -0.005347 0.000000
vt 0.068508 -0.033711 0.000000
vt -0.000000 -0.033711 0.000000
vt 0.049605 -0.005347 0.000000
vt 0.000000 -0.005347 0.000000
vt 0.049605 -0.033711 0.000000
vt -0.000000 -0.033711 0.000000
vt 0.033436 -0.005347 0.000000
vt 0.000000 -0.005347 0.000000
vt 0.033436 -0.033711 0.000000
vt 0.000000 -0.033711 0.000000
vt 0.005220 -0.005347 0.000000
vt 0.000000 -0.005347 0.000000
vt 0.005220 -0.033711 0.000000
vt -0.000000 -0.033711 0.000000
vt 0.000000 -0.010000 0.000000
vt -0.030861 -0.010000 0.000000
vt 0.000000 -0.054000 0.000000
vt -0.030861 -0.054000 0.000000
vt -0.110000 -0.000000 0.000000
vt 0.000000 -0.010000 0.000000
vt -0.010000 -0.000000 0.000000
vt -0.000251 -0.007775 0.000000
vt -0.000990 -0.005661 0.000000
vt -0.112225 -0.000251 0.000000
vt -0.114339 -0.000990 0.000000
vt -0.116235 -0.002182 0.000000
vt -0.117818 -0.003765 0.000000
vt -0.119010 -0.005661 0.000000
vt -0.119749 -0.007775 0.000000
vt -0.120000 -0.010000 0.000000
vt -0.120000 -0.054000 0.000000
vt 0.000000 -0.054000 0.000000
vt -0.002182 -0.003765 0.000000
vt -0.003765 -0.002182 0.000000
vt -0.005661 -0.000990 0.000000
vt -0.007775 -0.000251 0.000000
vt -0.000000 -0.010000 0.000000
vt -0.030861 -0.010000 0.000000
vt 0.000000 -0.054000 0.000000
vt -0.030861 -0.054000 0.000000
vt -0.050000 0.060000 0.000000
vt 0.050000 0.060000 0.000000
vt -0.050000 0.090861 0.000000
vt 0.050000 0.090861 0.000000
vt -0.060000 0.060000 0.000000
vt 0.060000 0.060000 0.000000
vt -0.060000 0.090861 0.000000
vt 0.060000 0.090861 0.000000
vt -0.053844 0.120000 0.000000
vt -0.066156 0.120000 0.000000
vt -0.053844 0.114780 0.000000
vt -0.066156 0.114780 0.000000
vt -0.031083 0.065175 0.000000
vt -0.099592 0.065175 0.000000
vt -0.099592 0.114780 0.000000
vt -0.031083 0.031538 0.000000
vt -0.015639 0.031538 0.000000
vt -0.015639 0.114780 0.000000
vt 0.015639 0.114780 0.000000
vt 0.031083 0.065175 0.000000
vt 0.053844 0.114780 0.000000
vt 0.066156 0.114780 0.000000
vt 0.053844 0.120000 0.000000
vt 0.066156 0.120000 0.000000
vt 0.015639 0.031538 0.000000
vt 0.031083 0.031538 0.000000
vt 0.099592 0.065175 0.000000
vt 0.099592 0.114780 0.000000
vt -0.090861 0.015708 0.000000
vt -0.060000 0.015708 0.000000
vt -0.090861 0.017952 0.000000
vt -0.060000 0.017952 0.000000
vt -0.090861 0.020196 0.000000
vt -0.060000 0.020196 0.000000
vt -0.090861 0.022440 0.000000
vt -0.060000 0.022440 0.000000
vt -0.090861 0.024684 0.000000
vt -0.060000 0.024684 0.000000
vt -0.090861 0.026928 0.000000
vt -0.060000 0.026928 0.000000
vt -0.090861 0.029172 0.000000
vt -0.060000 0.029172 0.000000
vt -0.090861 0.031416 0.000000
vt -0.060000 0.031416 0.000000
vt 0.060000 0.015708 0.000000
vt 0.090861 0.015708 0.000000
vt 0.060000 0.017952 0.000000
vt 0.090861 0.017952 0.000000
vt 0.060000 0.020196 0.000000
vt 0.090861 0.020196 0.000000
vt 0.060000 0.022440 0.000000
vt 0.090861 0.022440 0.000000
vt 0.060000 0.024684 0.000000
vt 0.090861 0.024684 0.000000
vt 0.060000 0.026928 0.000000
vt 0.090861 0.026928 0.000000
vt 0.060000 0.029172 0.000000
vt 0.090861 0.029172 0.000000
vt 0.060000 0.031416 0.000000
vt 0.090861 0.031416 0.000000
vn -0.000000 -0.965926 -0.258819
vn -0.000000 -0.965926 -0.258819
vn -0.000000 -0.965926 -0.258819
vn -0.000000 -0.965926 -0.258819
vn -0.000000 -0.965926 -0.258819
vn -0.000000 -0.965926 -0.258819
vn -0.000000 -0.965926 -0.258819
vn -0.000000 -0.965926 -0.258819
vn -0.000000 -0.965926 -0.258819
vn -0.000000 -0.965926 -0.258819
vn -0.000000 -0.965926 -0.258819
vn -0.000000 -0.965926 -0.258819
vn -0.000000 -0.965926 -0.258819
vn -0.000000 -0.965926 -0.258819
vn -0.000000 -0.965926 -0.258819
vn -0.000000 -0.965926 -0.258819
vn -0.000000 -0.965926 -0.258819
vn -0.000000 -0.965926 -0.258819
vn -0.000000 -0.965926 -0.258819
vn -0.000000 -0.965926 -0.258819
vn -0.000000 -0.965926 -0.258819
vn -0.000000 -0.965926 -0.258819
vn 0.000000 0.258819 -0.965926
vn 0.000000 0.258819 -0.965926
vn 0.000000 0.258819 -0.965926
vn 0.000000 0.258819 -0.965926
vn 0.000000 0.965926 0.258819
vn 0.000000 0.965926 0.258819
vn 0.000000 0.965926 0.258819
vn 0.000000 0.965926 0.258819
vn 0.000000 0.258819 -0.965926
vn 0.000000 0.258819 -0.965926
vn 0.000000 0.258819 -0.965926
vn 0.000000 0.258819 -0.965926
vn -0.000000 -0.965926 -0.258819
vn -0.000000 -0.965926 -0.258819
vn -0.000000 -0.965926 -0.258819
vn -0.000000 -0.965926 -0.258819
vn -0.000000 -0.258819 0.965926
vn -0.000000 -0.258819 0.965926
vn -0.000000 -0.258819 0.965926
vn -0.000000 -0.258819 0.965926
vn -0.000000 -0.965926 -0.258819
vn -0.000000 -0.965926 -0.258819
vn -0.000000 -0.965926 -0.258819
vn -0.000000 -0.965926 -0.258819
vn -0.000000 -0.258819 0.965926
vn -0.000000 -0.258819 0.965926
vn -0.000000 -0.258819 0.965926
vn -0.000000 -0.258819 0.965926
vn 0.000000 0.965926 0.258819
vn 0.000000 0.965926 0.258819
vn 0.000000 0.965926 0.258819
vn 0.000000 0.965926 0.258819
vn -0.000000 -0.258819 0.965926
vn -0.000000 -0.258819 0.965926
vn -0.000000 -0.258819 0.965926
vn -0.000000 -0.258819 0.965926
vn -0.000000 -0.258819 0.965926
vn -0.000000 -0.258819 0.965926
vn -0.000000 -0.258819 0.965926
vn -0.000000 -0.258819 0.965926
vn 0.000000 0.965926 0.258819
vn 0.000000 0.965926 0.258819
vn 0.000000 0.965926 0.258819
vn 0.000000 0.965926 0.258819
vn 0.000000 0.965926 0.258819
vn 0.000000 0.965926 0.258819
vn 0.000000 0.965926 0.258819
vn 0.000000 0.965926 0.258819
vn 0.000000 0.965926 0.258819
vn 0.000000 0.965926 0.258819
vn 0.000000 0.965926 0.258819
vn 0.000000 0.965926 0.258819
vn 0.000000 0.965926 0.258819
vn 0.000000 0.965926 0.258819
vn 0.000000 0.965926 0.258819
vn 0.000000 0.965926 0.258819
vn 0.000000 0.965926 0.258819
vn 0.000000 0.965926 0.258819
vn 0.000000 0.258819 -0.965926
vn 0.000000 0.258819 -0.965926
vn 0.000000 0.258819 -0.965926
vn 0.000000 0.258819 -0.965926
vn -1.000000 0.000000 -0.000000
vn -1.000000 0.000000 -0.000000
vn -1.000000 0.000000 -0.000000
vn -1.000000 0.000000 -0.000000
vn 1.000000 -0.000000 0.000000
vn 1.000000 -0.000000 0.000000
vn 1.000000 -0.000000 0.000000
vn 1.000000 -0.000000 0.000000
vn 1.000000 -0.000000 0.000000
vn 1.000000 -0.000000 0.000000
vn 1.000000 -0.000000 0.000000
vn 1.000000 -0.000000 0.000000
vn 1.000000 -0.000000 0.000000
vn 1.000000 -0.000000 0.000000
vn 1.000000 -0.000000 0.000000
vn 1.000000 -0.000000 0.000000
vn 1.000000 -0.000000 0.000000
vn 1.000000 -0.000000 0.000000
vn -1.000000 0.000000 -0.000000
vn -1.000000 0.000000 -0.000000
vn -1.000000 0.000000 -0.000000
vn -1.000000 0.000000 -0.000000
vn -1.000000 0.000000 -0.000000
vn -1.000000 0.000000 -0.000000
vn -1.000000 0.000000 -0.000000
vn -1.000000 0.000000 -0.000000
vn -1.000000 0.000000 -0.000000
vn -1.000000 0.000000 -0.000000
vn -0.974928 -0.057593 0.214939
vn -0.974928 -0.057593 0.214939
vn -0.900969 -0.112297 0.419100
vn -0.900969 -0.112297 0.419100
vn -0.781831 -0.161371 0.602245
vn -0.781831 -0.161371 0.602245
vn -0.623490 -0.202353 0.755191
vn -0.623490 -0.202353 0.755191
vn -0.433884 -0.233188 0.870269
vn -0.433884 -0.233188 0.870269
vn -0.222521 -0.252330 0.941708
vn -0.222521 -0.252330 0.941708
vn -0.974928 0.057593 -0.214939
vn -0.974928 0.057593 -0.214939
vn -0.900969 0.112297 -0.419100
vn -0.900969 0.112297 -0.419100
vn -0.781831 0.161371 -0.602245
vn -0.781831 0.161371 -0.602245
vn -0.623490 0.202353 -0.755191
vn -0.623490 0.202353 -0.755191
vn -0.433884 0.233188 -0.870269
vn -0.433884 0.233188 -0.870269
vn -0.222521 0.252330 -0.941708
vn -0.222521 0.252330 -0.941708
usemtl Opaque(202,209,238)
f 2/1/1 22/2/2 1/3/3
f 1/3/3 22/2/2 19/4/4
f 1/3/3 19/4/4 18/5/5
f 18/5/5 19/4/4 17/6/6
f 17/6/6 19/4/4 20/7/7
f 17/6/6 20/7/7 16/8/8
f 16/8/8 20/7/7 10/9/9
f 16/8/8 10/9/9 15/10/10
f 15/10/10 10/9/9 14/11/11
f 14/11/11 10/9/9 13/12/12
f 13/12/12 10/9/9 12/13/13
f 12/13/13 10/9/9 11/14/14
f 22/2/2 2/1/1 21/15/15
f 21/15/15 2/1/1 3/16/16
f 21/15/15 3/16/16 9/17/17
f 9/17/17 3/16/16 4/18/18
f 9/17/17 4/18/18 5/19/19
f 5/19/19 6/20/20 9/17/17
f 9/17/17 6/20/20 7/21/21
f 9/17/17 7/21/21 8/22/22
f 9/17/17 10/9/9 21/15/15
f 21/15/15 10/9/9 20/7/7
f 24/23/23 20/24/24 23/25/25
f 23/25/25 20/24/24 19/26/26
f 26/27/27 24/28/28 25/29/29
f 25/29/29 24/28/28 23/30/30
f 28/31/31 26/32/32 27/33/33
f 27/33/33 26/32/32 25/34/34
f 30/35/35 28/36/36 29/37/37
f 29/37/37 28/36/36 27/38/38
f 32/39/39 30/40/40 31/41/41
f 31/41/41 30/40/40 29/42/42
f 34/43/43 32/44/44 33/45/45
f 33/45/45 32/44/44 31/46/46
f 36/47/47 34/48/48 35/49/49
f 35/49/49 34/48/48 33/50/50
f 38/51/51 36/52/52 37/53/53
f 37/53/53 36/52/52 35/54/54
f 21/55/55 38/56/56 22/57/57
f 22/57/57 38/56/56 37/58/58
f 40/59/59 2/60/60 39/61/61
f 39/61/61 2/60/60 1/62/62
f 42/63/63 50/64/64 41/65/65
f 41/65/65 50/64/64 51/66/66
f 41/65/65 51/66/66 52/67/67
f 43/68/68 44/69/69 42/63/63
f 42/63/63 44/69/69 45/70/70
f 42/63/63 45/70/70 46/71/71
f 46/71/71 47/72/72 42/63/63
f 42/63/63 47/72/72 48/73/73
f 42/63/63 48/73/73 40/74/74
f 39/75/75 49/76/76 40/74/74
f 40/74/74 49/76/76 50/64/64
f 40/74/74 50/64/64 42/63/63
f 52/67/67 53/77/77 41/65/65
f 41/65/65 53/77/77 54/78/78
f 41/65/65 54/78/78 55/79/79
f 55/79/79 56/80/80 41/65/65
f 17/81/81 50/82/82 18/83/83
f 18/83/83 50/82/82 49/84/84
f 10/85/85 9/86/86 41/87/87
f 41/87/87 9/86/86 42/88/88
f 1/89/89 18/90/90 39/91/91
f 39/91/91 18/90/90 49/92/92
f 19/93/93 22/94/94 23/95/95
f 23/95/95 22/94/94 37/96/96
f 23/95/95 37/96/96 31/97/97
f 31/97/97 37/96/96 33/98/98
f 33/98/98 37/96/96 35/99/99
f 29/100/100 27/101/101 31/97/97
f 31/97/97 27/101/101 25/102/102
f 31/97/97 25/102/102 23/95/95
f 26/103/103 32/104/104 24/105/105
f 24/105/105 32/104/104 38/106/106
f 24/105/105 38/106/106 20/107/107
f 20/107/107 38/106/106 21/108/108
f 26/103/103 28/109/109 32/104/104
f 32/104/104 28/109/109 30/110/110
f 32/104/104 34/111/111 38/106/106
f 38/106/106 34/111/111 36/112/112
f 42/113/88 9/114/86 43/115/113
f 43/115/113 9/114/86 8/116/114
f 43/115/113 8/116/114 44/117/115
f 44/117/115 8/116/114 7/118/116
f 44/117/115 7/118/116 45/119/117
f 45/119/117 7/118/116 6/120/118
f 45/119/117 6/120/118 46/121/119
f 46/121/119 6/120/118 5/122/120
f 46/121/119 5/122/120 47/123/121
f 47/123/121 5/122/120 4/124/122
f 47/123/121 4/124/122 48/125/123
f 48/125/123 4/124/122 3/126/124
f 48/125/123 3/126/124 40/127/59
f 40/127/59 3/126/124 2/128/60
f 10/129/85 41/130/87 11/131/125
f 11/131/125 41/130/87 56/132/126
f 11/131/125 56/132/126 12/133/127
f 12/133/127 56/132/126 55/134/128
f 12/133/127 55/134/128 13/135/129
f 13/135/129 55/134/128 54/136/130
f 13/135/129 54/136/130 14/137/131
f 14/137/131 54/136/130 53/138/132
f 14/137/131 53/138/132 15/139/133
f 15/139/133 53/138/132 52/140/134
f 15/139/133 52/140/134 16/141/135
f 16/141/135 52/140/134 51/142/136
f 16/141/135 51/142/136 17/143/81
f 17/143/81 51/142/136 50/144/82
# 56 vertices
# 144 texture params
# 136 normals
# 108 facets

# 1 groups
