# WaveFront *.obj file (generated by Autodesk ATF)

mtllib body75_visual.mtl

g Body75

v -27.455700 -0.430639 -0.728193
v -27.455700 -0.656835 -0.788802
v -27.455700 -0.658388 -0.783007
v -27.455700 -0.432192 -0.722398
v -27.455700 -0.656318 -0.790734
v -27.455700 -0.430121 -0.730125
v -27.455700 -0.428568 -0.735921
v -27.455700 -0.654765 -0.796530
v -27.455700 -0.654247 -0.798461
v -27.455700 -0.428051 -0.737852
v -27.455700 -0.426498 -0.743648
v -27.455700 -0.652694 -0.804257
v -27.455700 -0.432709 -0.720466
v -27.455700 -0.658906 -0.781075
v -27.455700 -0.758312 -0.410085
v -27.455700 -0.532116 -0.349476
v -27.455700 -0.530184 -0.680906
v -27.455700 -0.630962 -0.722748
v -27.455700 -0.627454 -0.735838
v -27.455700 -0.487691 -0.677888
v -27.455700 -0.488188 -0.676030
v -27.455700 -0.623100 -0.648066
v -27.455700 -0.520206 -0.556538
v -27.455700 -0.520712 -0.554651
v -27.455700 -0.670757 -0.574231
v -27.455700 -0.667257 -0.587292
v -27.455700 -0.559285 -0.573230
v -27.455700 -0.649526 -0.653467
v -27.455700 -0.648740 -0.656399
v -27.455700 -0.565693 -0.446222
v -27.455700 -0.547697 -0.513384
v -27.455700 -0.532836 -0.509402
v -27.455700 -0.556727 -0.420240
v -27.455700 -0.684924 -0.536218
v -27.455700 -0.675732 -0.545794
v -27.455700 -0.652176 -0.806189
v -27.455700 -0.425980 -0.745580
v -27.455700 -0.424919 -0.749539
v -27.455700 -0.651116 -0.810148
v -27.340700 -0.578053 -0.340652
v -27.340700 -0.577066 -0.344335
v -27.355638 -0.577406 -0.343064
v -27.355303 -0.579202 -0.336364
v -27.353135 -0.580908 -0.329997
v -27.349239 -0.582394 -0.324451
v -27.343914 -0.583545 -0.320153
v -27.337572 -0.584274 -0.317434
v -27.330700 -0.584523 -0.316504
v -27.263700 -0.584523 -0.316504
v -27.257230 -0.584303 -0.317327
v -27.251200 -0.583656 -0.319740
v -27.246023 -0.582628 -0.323577
v -27.242050 -0.581288 -0.328578
v -27.239552 -0.579727 -0.334402
v -27.238700 -0.578053 -0.340652
v -27.238700 -0.553465 -0.432415
v -27.253700 -0.553465 -0.432415
v -27.253700 -0.578053 -0.340652
v -27.254462 -0.579043 -0.336956
v -27.256629 -0.579883 -0.333822
v -27.259874 -0.580444 -0.331729
v -27.263700 -0.580641 -0.330993
v -27.330700 -0.580641 -0.330993
v -27.334527 -0.580444 -0.331729
v -27.337772 -0.579883 -0.333822
v -27.339939 -0.579043 -0.336956
v -27.355638 -0.722295 -0.381887
v -27.340700 -0.721955 -0.383158
v -27.340700 -0.722941 -0.379475
v -27.339939 -0.723932 -0.375779
v -27.337772 -0.724772 -0.372645
v -27.334527 -0.725333 -0.370551
v -27.330700 -0.725530 -0.369816
v -27.263700 -0.725530 -0.369816
v -27.259874 -0.725333 -0.370551
v -27.256629 -0.724772 -0.372645
v -27.254462 -0.723932 -0.375779
v -27.253700 -0.722941 -0.379475
v -27.253700 -0.698354 -0.471238
v -27.238700 -0.698354 -0.471238
v -27.238700 -0.722941 -0.379475
v -27.239552 -0.724616 -0.373225
v -27.242050 -0.726177 -0.367401
v -27.246023 -0.727517 -0.362400
v -27.251200 -0.728545 -0.358562
v -27.257230 -0.729191 -0.356150
v -27.263700 -0.729412 -0.355327
v -27.330700 -0.729412 -0.355327
v -27.337572 -0.729163 -0.356257
v -27.343914 -0.728434 -0.358976
v -27.349239 -0.727283 -0.363274
v -27.353135 -0.725797 -0.368820
v -27.355303 -0.724091 -0.375186
v -27.339939 -0.651487 -0.356367
v -27.337772 -0.652327 -0.353234
v -27.334527 -0.652888 -0.351140
v -27.259874 -0.652888 -0.351140
v -27.256629 -0.652327 -0.353234
v -27.254462 -0.651487 -0.356367
v -27.330700 -0.598708 -0.843120
v -27.337572 -0.598958 -0.842190
v -27.343914 -0.599686 -0.839471
v -27.349239 -0.600838 -0.835173
v -27.353135 -0.602324 -0.829627
v -27.355303 -0.604030 -0.823261
v -27.355638 -0.605825 -0.816560
v -27.355638 -0.460936 -0.777737
v -27.355303 -0.459141 -0.784438
v -27.353135 -0.457435 -0.790804
v -27.349239 -0.455949 -0.796350
v -27.343914 -0.454797 -0.800648
v -27.337572 -0.454069 -0.803367
v -27.330700 -0.453819 -0.804297
v -27.340700 -0.460290 -0.780149
v -27.340700 -0.461277 -0.776466
v -27.340700 -0.606165 -0.815289
v -27.340700 -0.605179 -0.818972
v -27.339939 -0.459299 -0.783845
v -27.337772 -0.458460 -0.786979
v -27.334527 -0.457899 -0.789073
v -27.330700 -0.457702 -0.789808
v -27.263700 -0.457702 -0.789808
v -27.259874 -0.457899 -0.789073
v -27.256629 -0.458460 -0.786979
v -27.254462 -0.459299 -0.783845
v -27.253700 -0.460290 -0.780149
v -27.253700 -0.484878 -0.688386
v -27.238700 -0.484878 -0.688386
v -27.238700 -0.460290 -0.780149
v -27.239552 -0.458615 -0.786399
v -27.242050 -0.457055 -0.792223
v -27.246023 -0.455715 -0.797224
v -27.251200 -0.454686 -0.801062
v -27.257230 -0.454040 -0.803474
v -27.263700 -0.453819 -0.804297
v -27.263700 -0.598708 -0.843120
v -27.257230 -0.598929 -0.842297
v -27.251200 -0.599575 -0.839885
v -27.246023 -0.600603 -0.836047
v -27.242050 -0.601944 -0.831046
v -27.239552 -0.603504 -0.825222
v -27.238700 -0.605179 -0.818972
v -27.238700 -0.629767 -0.727209
v -27.253700 -0.629767 -0.727209
v -27.253700 -0.605179 -0.818972
v -27.254462 -0.604188 -0.822668
v -27.256629 -0.603349 -0.825802
v -27.259874 -0.602788 -0.827896
v -27.263700 -0.602591 -0.828631
v -27.330700 -0.602591 -0.828631
v -27.334527 -0.602788 -0.827896
v -27.337772 -0.603349 -0.825802
v -27.339939 -0.604188 -0.822668
v -27.259874 -0.530343 -0.808484
v -27.256629 -0.530904 -0.806390
v -27.254462 -0.531744 -0.803257
v -27.339939 -0.531744 -0.803257
v -27.337772 -0.530904 -0.806390
v -27.334527 -0.530343 -0.808484
v -27.452700 -0.423741 -0.726345
v -27.454327 -0.425754 -0.726884
v -27.455351 -0.428108 -0.727515
v -27.455351 -0.429661 -0.721719
v -27.454327 -0.427306 -0.721089
v -27.452700 -0.425294 -0.720549
v -27.452700 -0.425811 -0.718617
v -27.454327 -0.427824 -0.719157
v -27.455351 -0.430178 -0.719787
v -27.455021 -0.529553 -0.345037
v -27.453073 -0.527339 -0.341202
v -27.450123 -0.525774 -0.338492
v -27.446572 -0.525072 -0.337275
v -27.446572 -0.412718 -0.756583
v -27.450123 -0.413935 -0.755881
v -27.453073 -0.416645 -0.754316
v -27.455021 -0.420480 -0.752102
v -27.455351 -0.423449 -0.744902
v -27.454327 -0.421095 -0.744271
v -27.452700 -0.419082 -0.743731
v -27.452700 -0.419600 -0.741800
v -27.454327 -0.421612 -0.742339
v -27.455351 -0.423967 -0.742970
v -27.455351 -0.425520 -0.737174
v -27.454327 -0.423165 -0.736543
v -27.452700 -0.421153 -0.736004
v -27.452700 -0.421670 -0.734072
v -27.454327 -0.423683 -0.734612
v -27.455351 -0.426037 -0.735242
v -27.455351 -0.427590 -0.729447
v -27.454327 -0.425236 -0.728816
v -27.452700 -0.423223 -0.728277
v -27.453073 -0.434541 -0.687528
v -27.453073 -0.453266 -0.617644
v -27.453073 -0.471992 -0.547759
v -27.453073 -0.490717 -0.477874
v -27.453073 -0.509443 -0.407990
v -27.450123 -0.507305 -0.407417
v -27.450123 -0.488580 -0.477302
v -27.450123 -0.469854 -0.547186
v -27.450123 -0.451129 -0.617071
v -27.450123 -0.432403 -0.686956
v -27.455021 -0.437566 -0.688339
v -27.455021 -0.456291 -0.618454
v -27.455021 -0.475017 -0.548569
v -27.455021 -0.493742 -0.478685
v -27.455021 -0.512468 -0.408800
v -27.446572 -0.658160 -0.822349
v -27.450123 -0.657457 -0.821132
v -27.453073 -0.655893 -0.818422
v -27.455021 -0.653678 -0.814587
v -27.450123 -0.597056 -0.804948
v -27.450123 -0.535696 -0.788507
v -27.450123 -0.474336 -0.772065
v -27.453073 -0.597629 -0.802811
v -27.453073 -0.536269 -0.786369
v -27.453073 -0.474909 -0.769928
v -27.455021 -0.598440 -0.799786
v -27.455021 -0.537079 -0.783344
v -27.455021 -0.475719 -0.766903
v -27.455021 -0.762751 -0.407522
v -27.453073 -0.766586 -0.405308
v -27.450123 -0.769296 -0.403743
v -27.446572 -0.770513 -0.403041
v -27.455021 -0.707512 -0.392721
v -27.455021 -0.646152 -0.376280
v -27.455021 -0.584792 -0.359838
v -27.453073 -0.708323 -0.389696
v -27.453073 -0.646962 -0.373255
v -27.453073 -0.585602 -0.356813
v -27.450123 -0.708896 -0.387559
v -27.450123 -0.647535 -0.371117
v -27.450123 -0.586175 -0.354676
v -27.455351 -0.659366 -0.789480
v -27.454327 -0.661720 -0.790111
v -27.452700 -0.663733 -0.790651
v -27.452700 -0.663216 -0.792582
v -27.454327 -0.661203 -0.792043
v -27.455351 -0.658849 -0.791412
v -27.455351 -0.657296 -0.797208
v -27.454327 -0.659650 -0.797839
v -27.452700 -0.661663 -0.798378
v -27.452700 -0.661145 -0.800310
v -27.454327 -0.659132 -0.799770
v -27.455351 -0.656778 -0.799140
v -27.455351 -0.655225 -0.804935
v -27.454327 -0.657579 -0.805566
v -27.452700 -0.659592 -0.806105
v -27.452700 -0.659074 -0.808037
v -27.454327 -0.657062 -0.807498
v -27.455351 -0.654707 -0.806867
v -27.455351 -0.661437 -0.781753
v -27.454327 -0.663791 -0.782384
v -27.452700 -0.665804 -0.782923
v -27.452700 -0.665286 -0.784855
v -27.454327 -0.663273 -0.784316
v -27.455351 -0.660919 -0.783685
v -27.450123 -0.675926 -0.752207
v -27.450123 -0.694651 -0.682323
v -27.450123 -0.713377 -0.612438
v -27.450123 -0.732102 -0.542553
v -27.450123 -0.750828 -0.472669
v -27.453073 -0.748691 -0.472096
v -27.453073 -0.729965 -0.541981
v -27.453073 -0.711240 -0.611865
v -27.453073 -0.692514 -0.681750
v -27.453073 -0.673788 -0.751634
v -27.455021 -0.745666 -0.471285
v -27.455021 -0.726940 -0.541170
v -27.455021 -0.708215 -0.611055
v -27.455021 -0.689489 -0.680939
v -27.455021 -0.670764 -0.750824
v -27.355700 -0.402981 -0.762205
v -27.355700 -0.519450 -0.327538
v -27.263700 -0.525141 -0.337396
v -27.263700 -0.496259 -0.445186
v -27.243700 -0.496562 -0.450815
v -27.243700 -0.444799 -0.644000
v -27.263700 -0.441721 -0.648724
v -27.263700 -0.412839 -0.756513
v -27.355700 -0.663781 -0.832086
v -27.263700 -0.686972 -0.714438
v -27.263700 -0.658090 -0.822228
v -27.243700 -0.686669 -0.708809
v -27.243700 -0.738433 -0.515624
v -27.263700 -0.741510 -0.510900
v -27.263700 -0.770392 -0.403111
v -27.355700 -0.780250 -0.397419
v -27.452700 -0.630962 -0.722748
v -27.452700 -0.627454 -0.735838
v -27.452700 -0.487691 -0.677888
v -27.452700 -0.488188 -0.676030
v -27.452700 -0.623100 -0.648066
v -27.452700 -0.520206 -0.556538
v -27.452700 -0.520712 -0.554651
v -27.452700 -0.670757 -0.574231
v -27.452700 -0.667257 -0.587292
v -27.452700 -0.559285 -0.573230
v -27.452700 -0.649526 -0.653467
v -27.452700 -0.648740 -0.656399
v -27.452700 -0.530184 -0.680906
v -27.452700 -0.547697 -0.513384
v -27.452700 -0.532836 -0.509402
v -27.452700 -0.556727 -0.420240
v -27.452700 -0.684924 -0.536218
v -27.452700 -0.675732 -0.545794
v -27.452700 -0.565693 -0.446222
vt 0.031262 0.017912 0.000000
vt 0.037262 0.017912 0.000000
vt 0.031262 0.252088 0.000000
vt 0.037262 0.252088 0.000000
vt 0.029262 0.252088 0.000000
vt 0.023262 0.252088 0.000000
vt 0.029262 0.017912 0.000000
vt 0.023262 0.017912 0.000000
vt 0.021262 0.252088 0.000000
vt 0.015262 0.252088 0.000000
vt 0.021262 0.017912 0.000000
vt 0.015262 0.017912 0.000000
vt 0.039262 0.017912 0.000000
vt 0.074818 0.060000 0.000000
vt 0.039262 0.252088 0.000000
vt 0.094619 0.210000 0.000000
vt 0.096542 0.210000 0.000000
vt 0.423339 0.017912 0.000000
vt 0.282510 0.056154 0.000000
vt 0.228604 0.060000 0.000000
vt 0.160094 0.060000 0.000000
vt 0.214241 0.167933 0.000000
vt 0.361356 0.210000 0.000000
vt 0.423339 0.252088 0.000000
vt 0.269048 0.210000 0.000000
vt 0.222203 0.210000 0.000000
vt 0.269048 0.194615 0.000000
vt 0.242125 0.060000 0.000000
vt 0.270881 0.062554 0.000000
vt 0.220250 0.210000 0.000000
vt 0.158471 0.086923 0.000000
vt 0.102702 0.168173 0.000000
vt 0.088369 0.060000 0.000000
vt 0.157059 0.060000 0.000000
vt 0.338580 0.194615 0.000000
vt 0.013262 0.252088 0.000000
vt 0.009163 0.252088 0.000000
vt 0.013262 0.017912 0.000000
vt 0.009163 0.017912 0.000000
vt -0.003812 -0.010000 0.000000
vt -0.002497 -0.024938 0.000000
vt 0.000000 -0.010000 0.000000
vt 0.004440 -0.024603 0.000000
vt 0.003827 -0.009239 0.000000
vt 0.011032 -0.022434 0.000000
vt 0.016773 -0.018538 0.000000
vt 0.007071 -0.007071 0.000000
vt 0.021222 -0.013214 0.000000
vt 0.009239 -0.003827 0.000000
vt 0.024037 -0.006872 0.000000
vt 0.010000 0.000000 0.000000
vt 0.025000 0.000000 0.000000
vt 0.010000 0.067000 0.000000
vt 0.025000 0.067000 0.000000
vt 0.024148 0.073470 0.000000
vt 0.009239 0.070827 0.000000
vt 0.021651 0.079500 0.000000
vt 0.007071 0.074071 0.000000
vt 0.017678 0.084678 0.000000
vt 0.012500 0.088651 0.000000
vt 0.003827 0.076239 0.000000
vt 0.006470 0.091148 0.000000
vt -0.000000 0.077000 0.000000
vt 0.000000 0.092000 0.000000
vt -0.095000 0.077000 0.000000
vt -0.095000 0.092000 0.000000
vt 0.003812 -0.010000 0.000000
vt 0.000000 -0.010000 0.000000
vt 0.002497 -0.024938 0.000000
vt -0.004440 -0.024603 0.000000
vt -0.003827 -0.009239 0.000000
vt -0.011032 -0.022434 0.000000
vt -0.016773 -0.018538 0.000000
vt -0.007071 -0.007071 0.000000
vt -0.021222 -0.013214 0.000000
vt -0.009239 -0.003827 0.000000
vt -0.024037 -0.006872 0.000000
vt -0.010000 0.000000 0.000000
vt -0.025000 0.000000 0.000000
vt -0.025000 0.067000 0.000000
vt -0.010000 0.067000 0.000000
vt -0.024148 0.073470 0.000000
vt -0.009239 0.070827 0.000000
vt -0.021651 0.079500 0.000000
vt -0.007071 0.074071 0.000000
vt -0.017678 0.084678 0.000000
vt -0.012500 0.088651 0.000000
vt -0.003827 0.076239 0.000000
vt -0.006470 0.091148 0.000000
vt 0.000000 0.077000 0.000000
vt -0.000000 0.092000 0.000000
vt 0.095000 0.077000 0.000000
vt 0.095000 0.092000 0.000000
vt 0.000000 0.015708 0.000000
vt 0.150000 0.015708 0.000000
vt 0.075000 0.019635 0.000000
vt 0.150000 0.019635 0.000000
vt 0.075000 0.023562 0.000000
vt 0.150000 0.023562 0.000000
vt 0.075000 0.027489 0.000000
vt 0.150000 0.027489 0.000000
vt 0.150000 0.031416 0.000000
vt 0.000000 0.031416 0.000000
vt -0.000000 0.027489 0.000000
vt 0.000000 0.023562 0.000000
vt 0.000000 0.019635 0.000000
vt 0.067000 0.150000 0.000000
vt 0.000000 0.150000 0.000000
vt 0.067000 0.000000 0.000000
vt 0.000000 0.000000 0.000000
vt -0.000000 -0.031416 0.000000
vt 0.150000 -0.031416 0.000000
vt 0.075000 -0.027489 0.000000
vt 0.150000 -0.027489 0.000000
vt 0.075000 -0.023562 0.000000
vt 0.150000 -0.023562 0.000000
vt 0.075000 -0.019635 0.000000
vt 0.150000 -0.019635 0.000000
vt 0.150000 -0.015708 0.000000
vt 0.000000 -0.015708 0.000000
vt 0.000000 -0.019635 0.000000
vt 0.000000 -0.023562 0.000000
vt 0.000000 -0.027489 0.000000
vt 0.095000 0.150000 0.000000
vt -0.000000 0.150000 0.000000
vt 0.095000 0.000000 0.000000
vt 0.000000 0.000000 0.000000
vt 0.015000 0.150000 0.000000
vt 0.000000 0.150000 0.000000
vt 0.015000 -0.000000 0.000000
vt 0.000000 0.000000 0.000000
vt 0.095000 0.150000 0.000000
vt 0.000000 0.150000 0.000000
vt 0.095000 0.000000 0.000000
vt 0.000000 0.000000 0.000000
vt 0.000000 -0.039270 0.000000
vt -0.150000 -0.039270 0.000000
vt 0.000000 -0.045815 0.000000
vt -0.150000 -0.045815 0.000000
vt -0.000000 -0.052360 0.000000
vt -0.150000 -0.052360 0.000000
vt 0.000000 -0.058905 0.000000
vt -0.150000 -0.058905 0.000000
vt -0.000000 -0.065450 0.000000
vt -0.150000 -0.065450 0.000000
vt -0.000000 -0.071995 0.000000
vt -0.150000 -0.071995 0.000000
vt 0.000000 -0.078540 0.000000
vt -0.150000 -0.078540 0.000000
vt 0.067000 0.150000 0.000000
vt -0.000000 0.150000 0.000000
vt 0.067000 -0.000000 0.000000
vt 0.000000 0.000000 0.000000
vt -0.000000 -0.078540 0.000000
vt -0.150000 -0.078540 0.000000
vt 0.000000 -0.085501 0.000000
vt -0.150000 -0.085501 0.000000
vt 0.000000 -0.092462 0.000000
vt -0.150000 -0.092462 0.000000
vt -0.000000 -0.099423 0.000000
vt -0.150000 -0.099423 0.000000
vt -0.000000 -0.106385 0.000000
vt -0.150000 -0.106385 0.000000
vt 0.000000 -0.113346 0.000000
vt -0.150000 -0.113346 0.000000
vt -0.000000 -0.120304 0.000000
vt -0.150000 -0.120304 0.000000
vt 0.000000 0.003812 0.000000
vt -0.150000 0.003812 0.000000
vt -0.000000 0.000000 0.000000
vt -0.150000 0.000000 0.000000
vt -0.000000 -0.078540 0.000000
vt -0.150000 -0.078540 0.000000
vt -0.000000 -0.085501 0.000000
vt -0.150000 -0.085501 0.000000
vt -0.000000 -0.092462 0.000000
vt -0.150000 -0.092462 0.000000
vt -0.000000 -0.099423 0.000000
vt -0.150000 -0.099423 0.000000
vt 0.000000 -0.106385 0.000000
vt -0.150000 -0.106385 0.000000
vt 0.000000 -0.113346 0.000000
vt -0.150000 -0.113346 0.000000
vt -0.000000 -0.120304 0.000000
vt -0.150000 -0.120304 0.000000
vt 0.000000 0.000000 0.000000
vt -0.003812 -0.000000 0.000000
vt 0.000000 -0.150000 0.000000
vt -0.003812 -0.150000 0.000000
vt 0.010000 0.003812 0.000000
vt 0.010000 0.000000 0.000000
vt 0.024938 0.002497 0.000000
vt 0.024603 -0.004440 0.000000
vt 0.009239 -0.003827 0.000000
vt 0.022434 -0.011032 0.000000
vt 0.018538 -0.016773 0.000000
vt 0.007071 -0.007071 0.000000
vt 0.013214 -0.021222 0.000000
vt 0.003827 -0.009239 0.000000
vt 0.006872 -0.024037 0.000000
vt 0.000000 -0.010000 0.000000
vt 0.000000 -0.025000 0.000000
vt -0.067000 -0.010000 0.000000
vt -0.067000 -0.025000 0.000000
vt -0.073470 -0.024148 0.000000
vt -0.070827 -0.009239 0.000000
vt -0.079500 -0.021651 0.000000
vt -0.074071 -0.007071 0.000000
vt -0.084678 -0.017678 0.000000
vt -0.088651 -0.012500 0.000000
vt -0.076239 -0.003827 0.000000
vt -0.091148 -0.006470 0.000000
vt -0.077000 -0.000000 0.000000
vt -0.092000 0.000000 0.000000
vt -0.092000 0.095000 0.000000
vt -0.077000 0.095000 0.000000
vt -0.010000 0.003812 0.000000
vt -0.024938 0.002497 0.000000
vt -0.010000 0.000000 0.000000
vt -0.024603 -0.004440 0.000000
vt -0.009239 -0.003827 0.000000
vt -0.022434 -0.011032 0.000000
vt -0.018538 -0.016773 0.000000
vt -0.007071 -0.007071 0.000000
vt -0.013214 -0.021222 0.000000
vt -0.003827 -0.009239 0.000000
vt -0.006872 -0.024037 0.000000
vt -0.000000 -0.010000 0.000000
vt -0.000000 -0.025000 0.000000
vt 0.067000 -0.010000 0.000000
vt 0.067000 -0.025000 0.000000
vt 0.073470 -0.024148 0.000000
vt 0.070827 -0.009239 0.000000
vt 0.079500 -0.021651 0.000000
vt 0.074071 -0.007071 0.000000
vt 0.084678 -0.017678 0.000000
vt 0.088651 -0.012500 0.000000
vt 0.076239 -0.003827 0.000000
vt 0.091148 -0.006470 0.000000
vt 0.077000 0.000000 0.000000
vt 0.092000 0.000000 0.000000
vt 0.077000 0.095000 0.000000
vt 0.092000 0.095000 0.000000
vt -0.067000 -0.150000 0.000000
vt -0.000000 -0.150000 0.000000
vt -0.067000 0.000000 0.000000
vt 0.000000 0.000000 0.000000
vt 0.000000 -0.039270 0.000000
vt -0.150000 -0.039270 0.000000
vt 0.000000 -0.045815 0.000000
vt -0.150000 -0.045815 0.000000
vt -0.000000 -0.052360 0.000000
vt -0.150000 -0.052360 0.000000
vt 0.000000 -0.058905 0.000000
vt -0.150000 -0.058905 0.000000
vt -0.000000 -0.065450 0.000000
vt -0.150000 -0.065450 0.000000
vt 0.000000 -0.071995 0.000000
vt -0.150000 -0.071995 0.000000
vt 0.000000 -0.078540 0.000000
vt -0.150000 -0.078540 0.000000
vt 0.150000 0.000000 0.000000
vt -0.000000 0.000000 0.000000
vt 0.150000 -0.095000 0.000000
vt -0.000000 -0.095000 0.000000
vt -0.150000 -0.000000 0.000000
vt 0.000000 0.000000 0.000000
vt -0.150000 0.015000 0.000000
vt -0.000000 0.015000 0.000000
vt -0.095000 -0.150000 0.000000
vt -0.000000 -0.150000 0.000000
vt -0.095000 0.000000 0.000000
vt 0.000000 0.000000 0.000000
vt -0.000000 -0.031416 0.000000
vt 0.150000 -0.031416 0.000000
vt 0.075000 -0.027489 0.000000
vt 0.150000 -0.027489 0.000000
vt 0.075000 -0.023562 0.000000
vt 0.150000 -0.023562 0.000000
vt 0.075000 -0.019635 0.000000
vt 0.150000 -0.019635 0.000000
vt 0.150000 -0.015708 0.000000
vt 0.000000 -0.015708 0.000000
vt 0.000000 -0.019635 0.000000
vt -0.000000 -0.023562 0.000000
vt -0.000000 -0.027489 0.000000
vt -0.150000 -0.000000 0.000000
vt 0.000000 0.000000 0.000000
vt -0.150000 0.067000 0.000000
vt -0.000000 0.067000 0.000000
vt 0.000000 0.015708 0.000000
vt 0.150000 0.015708 0.000000
vt 0.075000 0.019635 0.000000
vt 0.150000 0.019635 0.000000
vt 0.075000 0.023562 0.000000
vt 0.150000 0.023562 0.000000
vt 0.075000 0.027489 0.000000
vt 0.150000 0.027489 0.000000
vt 0.150000 0.031416 0.000000
vt 0.000000 0.031416 0.000000
vt -0.000000 0.027489 0.000000
vt -0.000000 0.023562 0.000000
vt -0.000000 0.019635 0.000000
vt -0.031262 0.010405 0.000000
vt -0.037262 0.007754 0.000000
vt -0.031262 0.007754 0.000000
vt -0.000195 0.004581 0.000000
vt -0.029262 0.007754 0.000000
vt -0.023262 0.007754 0.000000
vt -0.023262 0.010405 0.000000
vt -0.037262 0.010405 0.000000
vt -0.031262 0.013057 0.000000
vt -0.037262 0.013057 0.000000
vt -0.037262 0.015708 0.000000
vt -0.031262 0.015708 0.000000
vt -0.071551 0.004581 0.000000
vt -0.039262 0.007754 0.000000
vt -0.071551 0.008290 0.000000
vt -0.039262 0.010405 0.000000
vt -0.071551 0.011999 0.000000
vt -0.039262 0.013057 0.000000
vt -0.143901 0.011999 0.000000
vt -0.423339 0.015708 0.000000
vt -0.216251 0.011999 0.000000
vt -0.288601 0.011999 0.000000
vt -0.216251 0.008290 0.000000
vt -0.288601 0.008290 0.000000
vt -0.216251 0.004581 0.000000
vt -0.288601 0.004581 0.000000
vt -0.433301 0.000873 0.000000
vt -0.360951 0.004581 0.000000
vt -0.432308 0.004581 0.000000
vt -0.430095 0.008290 0.000000
vt -0.360951 0.008290 0.000000
vt -0.426963 0.011999 0.000000
vt -0.360951 0.011999 0.000000
vt -0.039262 0.015708 0.000000
vt 0.000799 0.000873 0.000000
vt -0.143901 0.004581 0.000000
vt -0.143901 0.008290 0.000000
vt -0.002407 0.008290 0.000000
vt -0.013262 0.007754 0.000000
vt -0.015262 0.007754 0.000000
vt -0.021262 0.007754 0.000000
vt -0.015262 0.010405 0.000000
vt -0.021262 0.010405 0.000000
vt -0.015262 0.013057 0.000000
vt -0.021262 0.013057 0.000000
vt -0.021262 0.015708 0.000000
vt -0.015262 0.015708 0.000000
vt -0.013262 0.010405 0.000000
vt -0.005539 0.011999 0.000000
vt -0.013262 0.013057 0.000000
vt -0.009163 0.015708 0.000000
vt -0.013262 0.015708 0.000000
vt -0.029262 0.010405 0.000000
vt -0.023262 0.013057 0.000000
vt -0.029262 0.013057 0.000000
vt -0.029262 0.015708 0.000000
vt -0.023262 0.015708 0.000000
vt -0.008943 0.004581 0.000000
vt -0.071475 0.004581 0.000000
vt -0.007950 0.000873 0.000000
vt -0.135000 0.004581 0.000000
vt -0.262050 0.000873 0.000000
vt -0.198525 0.004581 0.000000
vt -0.261057 0.004581 0.000000
vt -0.258844 0.008290 0.000000
vt -0.198525 0.008290 0.000000
vt -0.255712 0.011999 0.000000
vt -0.198525 0.011999 0.000000
vt -0.252088 0.015708 0.000000
vt -0.135000 0.011999 0.000000
vt -0.017912 0.015708 0.000000
vt -0.071475 0.011999 0.000000
vt -0.014288 0.011999 0.000000
vt -0.071475 0.008290 0.000000
vt -0.011156 0.008290 0.000000
vt -0.135000 0.008290 0.000000
vt -0.014288 0.019417 0.000000
vt -0.071475 0.019417 0.000000
vt -0.017912 0.015708 0.000000
vt -0.135000 0.019417 0.000000
vt -0.252088 0.015708 0.000000
vt -0.198525 0.019417 0.000000
vt -0.255712 0.019417 0.000000
vt -0.198525 0.023126 0.000000
vt -0.258844 0.023126 0.000000
vt -0.198525 0.026834 0.000000
vt -0.261057 0.026834 0.000000
vt -0.262050 0.030543 0.000000
vt -0.135000 0.026834 0.000000
vt -0.007950 0.030543 0.000000
vt -0.071475 0.026834 0.000000
vt -0.008943 0.026834 0.000000
vt -0.011156 0.023126 0.000000
vt -0.071475 0.023126 0.000000
vt -0.135000 0.023126 0.000000
vt 0.403989 0.015708 0.000000
vt 0.409989 0.015708 0.000000
vt 0.403989 0.018359 0.000000
vt 0.409989 0.018359 0.000000
vt 0.409989 0.021011 0.000000
vt 0.403989 0.021011 0.000000
vt 0.409989 0.023662 0.000000
vt 0.403989 0.023662 0.000000
vt 0.441057 0.026834 0.000000
vt 0.369700 0.026834 0.000000
vt 0.442050 0.030543 0.000000
vt 0.297350 0.026834 0.000000
vt 0.225000 0.026834 0.000000
vt 0.297350 0.023126 0.000000
vt 0.225000 0.023126 0.000000
vt 0.297350 0.019417 0.000000
vt 0.225000 0.019417 0.000000
vt 0.401989 0.015708 0.000000
vt 0.017912 0.015708 0.000000
vt 0.152650 0.019417 0.000000
vt 0.080300 0.019417 0.000000
vt 0.080300 0.023126 0.000000
vt 0.014288 0.019417 0.000000
vt 0.011156 0.023126 0.000000
vt 0.080300 0.026834 0.000000
vt 0.008943 0.026834 0.000000
vt 0.007950 0.030543 0.000000
vt 0.152650 0.026834 0.000000
vt 0.411989 0.023662 0.000000
vt 0.417989 0.023662 0.000000
vt 0.419989 0.023662 0.000000
vt 0.411989 0.021011 0.000000
vt 0.417989 0.021011 0.000000
vt 0.411989 0.018359 0.000000
vt 0.417989 0.018359 0.000000
vt 0.417989 0.015708 0.000000
vt 0.411989 0.015708 0.000000
vt 0.425989 0.023662 0.000000
vt 0.419989 0.021011 0.000000
vt 0.425989 0.021011 0.000000
vt 0.419989 0.018359 0.000000
vt 0.425989 0.018359 0.000000
vt 0.425989 0.015708 0.000000
vt 0.419989 0.015708 0.000000
vt 0.427989 0.023662 0.000000
vt 0.438844 0.023126 0.000000
vt 0.427989 0.021011 0.000000
vt 0.435712 0.019417 0.000000
vt 0.427989 0.018359 0.000000
vt 0.432088 0.015708 0.000000
vt 0.427989 0.015708 0.000000
vt 0.369700 0.019417 0.000000
vt 0.401989 0.018359 0.000000
vt 0.401989 0.021011 0.000000
vt 0.369700 0.023126 0.000000
vt 0.401989 0.023662 0.000000
vt 0.152650 0.023126 0.000000
vt 0.091219 -0.442050 0.000000
vt 0.091219 -0.007950 0.000000
vt 0.000000 -0.450000 0.000000
vt -0.000000 0.000000 0.000000
vt -0.441951 -0.020076 0.000000
vt -0.450000 -0.112428 0.000000
vt -0.330359 -0.020076 0.000000
vt -0.000000 -0.112428 0.000000
vt -0.119641 -0.020076 0.000000
vt -0.008049 -0.020076 0.000000
vt -0.125000 -0.000000 0.000000
vt -0.325000 -0.000000 0.000000
vt 0.000000 0.000000 0.000000
vt 0.007950 -0.091219 0.000000
vt 0.060000 0.000062 0.000000
vt 0.262050 -0.091219 0.000000
vt 0.210000 0.000062 0.000000
vt 0.270000 -0.000000 0.000000
vt -0.261951 0.000000 0.000000
vt -0.008049 0.000000 0.000000
vt -0.261951 0.111592 0.000000
vt -0.008049 0.111592 0.000000
vt 0.020706 0.261951 0.000000
vt 0.000000 0.260201 0.000000
vt 0.020706 0.008049 0.000000
vt 0.000000 0.009799 0.000000
vt -0.260201 0.000000 0.000000
vt -0.009799 -0.000000 0.000000
vt -0.260201 0.200000 0.000000
vt -0.009799 0.200000 0.000000
vt -0.261951 0.000000 0.000000
vt -0.008049 -0.000000 0.000000
vt -0.260201 0.020706 0.000000
vt -0.009799 0.020706 0.000000
vt -0.261951 -0.000000 0.000000
vt -0.008049 -0.000000 0.000000
vt -0.261951 0.111592 0.000000
vt -0.008049 0.111592 0.000000
vt -0.270000 0.100382 0.000000
vt -0.262050 0.009163 0.000000
vt -0.210000 0.100444 0.000000
vt -0.007950 0.009163 0.000000
vt -0.060000 0.100444 0.000000
vt 0.000000 0.100382 0.000000
vt 0.008049 0.092351 0.000000
vt -0.000000 0.000000 0.000000
vt 0.119641 0.092351 0.000000
vt 0.450000 -0.000000 0.000000
vt 0.330359 0.092351 0.000000
vt 0.441951 0.092351 0.000000
vt 0.325000 0.112428 0.000000
vt 0.125000 0.112428 0.000000
vt -0.007950 -0.009163 0.000000
vt -0.442050 -0.009163 0.000000
vt -0.000000 -0.100382 0.000000
vt -0.450000 -0.100382 0.000000
vt 0.077294 0.210000 0.000000
vt 0.000000 0.008049 0.000000
vt 0.077294 0.060000 0.000000
vt 0.092351 -0.000000 0.000000
vt 0.092290 0.060000 0.000000
vt 0.092290 0.210000 0.000000
vt 0.092351 0.270000 0.000000
vt 0.000000 0.261951 0.000000
vt -0.060000 0.015057 0.000000
vt -0.261951 0.092351 0.000000
vt -0.210000 0.015057 0.000000
vt -0.270000 -0.000000 0.000000
vt -0.210000 0.000062 0.000000
vt -0.060000 0.000062 0.000000
vt -0.000000 0.000000 0.000000
vt -0.008049 0.092351 0.000000
vt 0.003000 0.000000 0.000000
vt 0.000000 0.000000 0.000000
vt 0.003000 -0.013552 0.000000
vt 0.000000 -0.013552 0.000000
vt 0.151301 0.003000 0.000000
vt -0.000000 0.003000 0.000000
vt 0.151301 -0.000000 0.000000
vt 0.000000 0.000000 0.000000
vt -0.003000 0.000000 0.000000
vt 0.000000 0.000000 0.000000
vt -0.003000 0.001923 0.000000
vt 0.000000 0.001923 0.000000
vt 0.137779 0.003000 0.000000
vt 0.000000 0.003000 0.000000
vt 0.137779 0.000000 0.000000
vt 0.000000 0.000000 0.000000
vt 0.137712 0.003000 0.000000
vt -0.000000 0.003000 0.000000
vt 0.137712 -0.000000 0.000000
vt 0.000000 0.000000 0.000000
vt -0.003000 -0.000000 0.000000
vt 0.000000 0.000000 0.000000
vt -0.003000 0.001953 0.000000
vt 0.000000 0.001953 0.000000
vt 0.151317 0.003000 0.000000
vt 0.000000 0.003000 0.000000
vt 0.151317 0.000000 0.000000
vt -0.000000 0.000000 0.000000
vt 0.003000 0.000000 0.000000
vt 0.000000 0.000000 0.000000
vt 0.003000 -0.013522 0.000000
vt 0.000000 -0.013522 0.000000
vt 0.108884 0.003000 0.000000
vt -0.000000 0.003000 0.000000
vt 0.108884 -0.000000 0.000000
vt 0.000000 0.000000 0.000000
vt 0.120753 0.003000 0.000000
vt 0.000000 0.003000 0.000000
vt 0.120753 0.000000 0.000000
vt -0.000000 0.000000 0.000000
vt 0.003000 0.000000 0.000000
vt 0.000000 0.000000 0.000000
vt 0.003000 -0.003035 0.000000
vt 0.000000 -0.003035 0.000000
vt 0.121062 0.003000 0.000000
vt -0.000000 0.003000 0.000000
vt 0.121062 -0.000000 0.000000
vt 0.000000 0.000000 0.000000
vt 0.109119 0.003000 0.000000
vt 0.000000 0.003000 0.000000
vt 0.109119 0.000000 0.000000
vt -0.000000 0.000000 0.000000
vt 0.097118 0.035000 0.000000
vt 0.111451 0.143173 0.000000
vt 0.083566 0.035000 0.000000
vt 0.103368 0.185000 0.000000
vt 0.105291 0.185000 0.000000
vt 0.167220 0.061923 0.000000
vt 0.165808 0.035000 0.000000
vt 0.168843 0.035000 0.000000
vt 0.222990 0.142933 0.000000
vt 0.228999 0.185000 0.000000
vt 0.230952 0.185000 0.000000
vt 0.250874 0.035000 0.000000
vt 0.237353 0.035000 0.000000
vt 0.003000 -0.017912 0.000000
vt 0.002651 -0.015292 0.000000
vt 0.003000 -0.252088 0.000000
vt 0.002651 -0.254708 0.000000
vt 0.001627 -0.012855 0.000000
vt 0.001627 -0.257145 0.000000
vt 0.000000 -0.259229 0.000000
vt -0.000000 -0.010771 0.000000
vt 0.000000 -0.010771 0.000000
vt -0.001627 -0.012855 0.000000
vt -0.000000 -0.259229 0.000000
vt -0.001627 -0.257145 0.000000
vt -0.002651 -0.254708 0.000000
vt -0.002651 -0.015292 0.000000
vt -0.003000 -0.252088 0.000000
vt -0.003000 -0.017912 0.000000
vt 0.001000 -0.010771 0.000000
vt -0.001000 -0.010771 0.000000
vt 0.001000 -0.259229 0.000000
vt -0.001000 -0.259229 0.000000
vt -0.003000 0.000000 0.000000
vt 0.000000 0.000000 0.000000
vt -0.003000 0.015385 0.000000
vt -0.000000 0.015385 0.000000
vt -0.003000 0.000000 0.000000
vt 0.000000 0.000000 0.000000
vt -0.003000 0.092308 0.000000
vt -0.000000 0.092308 0.000000
vt 0.172874 0.003000 0.000000
vt 0.000000 0.003000 0.000000
vt 0.172874 -0.000000 0.000000
vt -0.000000 0.000000 0.000000
vt 0.013274 0.003000 0.000000
vt -0.000000 0.003000 0.000000
vt 0.013274 0.000000 0.000000
vt 0.000000 0.000000 0.000000
vt 0.148402 0.003000 0.000000
vt -0.000000 0.003000 0.000000
vt 0.148402 0.000000 0.000000
vt 0.000000 0.000000 0.000000
vt 0.003000 0.000000 0.000000
vt 0.000000 0.000000 0.000000
vt 0.003000 -0.069531 0.000000
vt -0.000000 -0.069531 0.000000
vt 0.277797 0.169615 0.000000
vt 0.347328 0.169615 0.000000
vt 0.277797 0.185000 0.000000
vt 0.370105 0.185000 0.000000
vt 0.291259 0.031154 0.000000
vt 0.279630 0.037554 0.000000
vt 0.003000 -0.017912 0.000000
vt 0.002651 -0.015292 0.000000
vt 0.003000 -0.252088 0.000000
vt 0.002651 -0.254708 0.000000
vt 0.001627 -0.012855 0.000000
vt 0.001627 -0.257145 0.000000
vt 0.000000 -0.259229 0.000000
vt -0.000000 -0.010771 0.000000
vt 0.000000 -0.010771 0.000000
vt -0.001627 -0.012855 0.000000
vt -0.000000 -0.259229 0.000000
vt -0.001627 -0.257145 0.000000
vt -0.002651 -0.254708 0.000000
vt -0.002651 -0.015292 0.000000
vt -0.003000 -0.252088 0.000000
vt -0.003000 -0.017912 0.000000
vt 0.001000 -0.010771 0.000000
vt -0.001000 -0.010771 0.000000
vt 0.001000 -0.259229 0.000000
vt -0.001000 -0.259229 0.000000
vt 0.003000 -0.017912 0.000000
vt 0.002651 -0.015292 0.000000
vt 0.003000 -0.252088 0.000000
vt 0.002651 -0.254708 0.000000
vt 0.001627 -0.012855 0.000000
vt 0.001627 -0.257145 0.000000
vt 0.000000 -0.259229 0.000000
vt -0.000000 -0.010771 0.000000
vt 0.000000 -0.010771 0.000000
vt -0.001627 -0.012855 0.000000
vt -0.000000 -0.259229 0.000000
vt -0.001627 -0.257145 0.000000
vt -0.002651 -0.254708 0.000000
vt -0.002651 -0.015292 0.000000
vt -0.003000 -0.252088 0.000000
vt -0.003000 -0.017912 0.000000
vt 0.001000 -0.010771 0.000000
vt -0.001000 -0.010771 0.000000
vt 0.001000 -0.259229 0.000000
vt -0.001000 -0.259229 0.000000
vt 0.003000 -0.017912 0.000000
vt 0.002651 -0.015292 0.000000
vt 0.003000 -0.252088 0.000000
vt 0.002651 -0.254708 0.000000
vt 0.001627 -0.012855 0.000000
vt 0.001627 -0.257145 0.000000
vt 0.000000 -0.259229 0.000000
vt -0.000000 -0.010771 0.000000
vt 0.000000 -0.010771 0.000000
vt -0.001627 -0.012855 0.000000
vt -0.000000 -0.259229 0.000000
vt -0.001627 -0.257145 0.000000
vt -0.002651 -0.254708 0.000000
vt -0.002651 -0.015292 0.000000
vt -0.003000 -0.252088 0.000000
vt -0.003000 -0.017912 0.000000
vt 0.001000 -0.010771 0.000000
vt -0.001000 -0.010771 0.000000
vt 0.001000 -0.259229 0.000000
vt -0.001000 -0.259229 0.000000
vn -1.000000 0.000000 -0.000000
vn -1.000000 0.000000 -0.000000
vn -1.000000 0.000000 -0.000000
vn -1.000000 0.000000 -0.000000
vn -1.000000 0.000000 -0.000000
vn -1.000000 0.000000 -0.000000
vn -1.000000 0.000000 -0.000000
vn -1.000000 0.000000 -0.000000
vn -1.000000 0.000000 -0.000000
vn -1.000000 0.000000 -0.000000
vn -1.000000 0.000000 -0.000000
vn -1.000000 0.000000 -0.000000
vn -1.000000 0.000000 -0.000000
vn -1.000000 0.000000 -0.000000
vn -1.000000 0.000000 -0.000000
vn -1.000000 0.000000 -0.000000
vn -1.000000 0.000000 -0.000000
vn -1.000000 0.000000 -0.000000
vn -1.000000 0.000000 -0.000000
vn -1.000000 0.000000 -0.000000
vn -1.000000 0.000000 -0.000000
vn -1.000000 0.000000 -0.000000
vn -1.000000 0.000000 -0.000000
vn -1.000000 0.000000 -0.000000
vn -1.000000 0.000000 -0.000000
vn -1.000000 0.000000 -0.000000
vn -1.000000 0.000000 -0.000000
vn -1.000000 0.000000 -0.000000
vn -1.000000 0.000000 -0.000000
vn -1.000000 0.000000 -0.000000
vn -1.000000 0.000000 -0.000000
vn -1.000000 0.000000 -0.000000
vn -1.000000 0.000000 -0.000000
vn -1.000000 0.000000 -0.000000
vn -1.000000 0.000000 -0.000000
vn -1.000000 0.000000 -0.000000
vn -1.000000 0.000000 -0.000000
vn -1.000000 0.000000 -0.000000
vn -1.000000 0.000000 -0.000000
vn 0.000000 0.965926 0.258819
vn 0.000000 0.965926 0.258819
vn 0.000000 0.965926 0.258819
vn 0.000000 0.965926 0.258819
vn 0.000000 0.965926 0.258819
vn 0.000000 0.965926 0.258819
vn 0.000000 0.965926 0.258819
vn 0.000000 0.965926 0.258819
vn 0.000000 0.965926 0.258819
vn 0.000000 0.965926 0.258819
vn 0.000000 0.965926 0.258819
vn 0.000000 0.965926 0.258819
vn 0.000000 0.965926 0.258819
vn 0.000000 0.965926 0.258819
vn 0.000000 0.965926 0.258819
vn 0.000000 0.965926 0.258819
vn 0.000000 0.965926 0.258819
vn 0.000000 0.965926 0.258819
vn 0.000000 0.965926 0.258819
vn 0.000000 0.965926 0.258819
vn 0.000000 0.965926 0.258819
vn 0.000000 0.965926 0.258819
vn 0.000000 0.965926 0.258819
vn 0.000000 0.965926 0.258819
vn 0.000000 0.965926 0.258819
vn 0.000000 0.965926 0.258819
vn 0.000000 0.965926 0.258819
vn -0.000000 -0.965926 -0.258819
vn -0.000000 -0.965926 -0.258819
vn -0.000000 -0.965926 -0.258819
vn -0.000000 -0.965926 -0.258819
vn -0.000000 -0.965926 -0.258819
vn -0.000000 -0.965926 -0.258819
vn -0.000000 -0.965926 -0.258819
vn -0.000000 -0.965926 -0.258819
vn -0.000000 -0.965926 -0.258819
vn -0.000000 -0.965926 -0.258819
vn -0.000000 -0.965926 -0.258819
vn -0.000000 -0.965926 -0.258819
vn -0.000000 -0.965926 -0.258819
vn -0.000000 -0.965926 -0.258819
vn -0.000000 -0.965926 -0.258819
vn -0.000000 -0.965926 -0.258819
vn -0.000000 -0.965926 -0.258819
vn -0.000000 -0.965926 -0.258819
vn -0.000000 -0.965926 -0.258819
vn -0.000000 -0.965926 -0.258819
vn -0.000000 -0.965926 -0.258819
vn -0.000000 -0.965926 -0.258819
vn -0.000000 -0.965926 -0.258819
vn -0.000000 -0.965926 -0.258819
vn -0.000000 -0.965926 -0.258819
vn -0.000000 -0.965926 -0.258819
vn -0.000000 -0.965926 -0.258819
vn 1.000000 -0.000000 0.000000
vn 1.000000 -0.000000 0.000000
vn 0.923880 0.099046 -0.369644
vn 0.923880 0.099046 -0.369644
vn 0.707107 0.183013 -0.683013
vn 0.707107 0.183013 -0.683013
vn 0.382683 0.239118 -0.892399
vn 0.382683 0.239118 -0.892399
vn 0.000000 0.258819 -0.965926
vn 0.000000 0.258819 -0.965926
vn 0.382683 0.239118 -0.892399
vn 0.707107 0.183013 -0.683013
vn 0.923880 0.099046 -0.369644
vn 0.000000 0.258819 -0.965926
vn 0.000000 0.258819 -0.965926
vn -0.382683 0.239118 -0.892399
vn -0.382683 0.239118 -0.892399
vn -0.707107 0.183013 -0.683013
vn -0.707107 0.183013 -0.683013
vn -0.923880 0.099046 -0.369644
vn -0.923880 0.099046 -0.369644
vn -1.000000 0.000000 0.000000
vn -1.000000 0.000000 0.000000
vn -0.923880 0.099046 -0.369644
vn -0.707107 0.183013 -0.683013
vn -0.382683 0.239118 -0.892399
vn -1.000000 0.000000 -0.000000
vn -1.000000 0.000000 -0.000000
vn 0.000000 0.258819 -0.965926
vn 0.000000 0.258819 -0.965926
vn 0.000000 0.258819 -0.965926
vn 0.000000 0.258819 -0.965926
vn 1.000000 -0.000000 0.000000
vn 1.000000 -0.000000 0.000000
vn 1.000000 -0.000000 0.000000
vn 1.000000 -0.000000 0.000000
vn 0.965926 -0.066987 0.250000
vn 0.965926 -0.066987 0.250000
vn 0.866025 -0.129410 0.482963
vn 0.866025 -0.129410 0.482963
vn 0.707107 -0.183013 0.683013
vn 0.707107 -0.183013 0.683013
vn 0.500000 -0.224144 0.836516
vn 0.500000 -0.224144 0.836516
vn 0.258819 -0.250000 0.933013
vn 0.258819 -0.250000 0.933013
vn -0.000000 -0.258819 0.965926
vn -0.000000 -0.258819 0.965926
vn -0.000000 -0.258819 0.965926
vn -0.000000 -0.258819 0.965926
vn -0.274864 -0.248850 0.928721
vn -0.274864 -0.248850 0.928721
vn -0.528554 -0.219711 0.819974
vn -0.528554 -0.219711 0.819974
vn -0.741528 -0.173647 0.648061
vn -0.741528 -0.173647 0.648061
vn -0.897379 -0.114207 0.426226
vn -0.897379 -0.114207 0.426226
vn -0.984101 -0.045968 0.171557
vn -0.984101 -0.045968 0.171557
vn -0.995026 0.025782 -0.096220
vn -0.995026 0.025782 -0.096220
vn 1.000000 -0.000000 0.000000
vn 1.000000 -0.000000 0.000000
vn 0.000000 0.258819 -0.965926
vn 0.000000 0.258819 -0.965926
vn -0.274864 0.248850 -0.928721
vn -0.274864 0.248850 -0.928721
vn -0.528554 0.219711 -0.819974
vn -0.528554 0.219711 -0.819974
vn -0.741528 0.173647 -0.648061
vn -0.741528 0.173647 -0.648061
vn -0.897379 0.114207 -0.426226
vn -0.897379 0.114207 -0.426226
vn -0.984101 0.045968 -0.171557
vn -0.984101 0.045968 -0.171557
vn -0.995026 -0.025782 0.096220
vn -0.995026 -0.025782 0.096220
vn 1.000000 -0.000000 0.000000
vn 1.000000 -0.000000 0.000000
vn 1.000000 -0.000000 0.000000
vn 1.000000 -0.000000 0.000000
vn 0.000000 0.965926 0.258819
vn 0.000000 0.965926 0.258819
vn 0.000000 0.965926 0.258819
vn 0.000000 0.965926 0.258819
vn 0.000000 0.965926 0.258819
vn 0.000000 0.965926 0.258819
vn 0.000000 0.965926 0.258819
vn 0.000000 0.965926 0.258819
vn 0.000000 0.965926 0.258819
vn 0.000000 0.965926 0.258819
vn 0.000000 0.965926 0.258819
vn 0.000000 0.965926 0.258819
vn 0.000000 0.965926 0.258819
vn 0.000000 0.965926 0.258819
vn 0.000000 0.965926 0.258819
vn 0.000000 0.965926 0.258819
vn 0.000000 0.965926 0.258819
vn 0.000000 0.965926 0.258819
vn 0.000000 0.965926 0.258819
vn 0.000000 0.965926 0.258819
vn 0.000000 0.965926 0.258819
vn 0.000000 0.965926 0.258819
vn 0.000000 0.965926 0.258819
vn 0.000000 0.965926 0.258819
vn 0.000000 0.965926 0.258819
vn 0.000000 0.965926 0.258819
vn 0.000000 0.965926 0.258819
vn -0.000000 -0.965926 -0.258819
vn -0.000000 -0.965926 -0.258819
vn -0.000000 -0.965926 -0.258819
vn -0.000000 -0.965926 -0.258819
vn -0.000000 -0.965926 -0.258819
vn -0.000000 -0.965926 -0.258819
vn -0.000000 -0.965926 -0.258819
vn -0.000000 -0.965926 -0.258819
vn -0.000000 -0.965926 -0.258819
vn -0.000000 -0.965926 -0.258819
vn -0.000000 -0.965926 -0.258819
vn -0.000000 -0.965926 -0.258819
vn -0.000000 -0.965926 -0.258819
vn -0.000000 -0.965926 -0.258819
vn -0.000000 -0.965926 -0.258819
vn -0.000000 -0.965926 -0.258819
vn -0.000000 -0.965926 -0.258819
vn -0.000000 -0.965926 -0.258819
vn -0.000000 -0.965926 -0.258819
vn -0.000000 -0.965926 -0.258819
vn -0.000000 -0.965926 -0.258819
vn -0.000000 -0.965926 -0.258819
vn -0.000000 -0.965926 -0.258819
vn -0.000000 -0.965926 -0.258819
vn -0.000000 -0.965926 -0.258819
vn -0.000000 -0.965926 -0.258819
vn -0.000000 -0.965926 -0.258819
vn 0.000000 0.258819 -0.965926
vn 0.000000 0.258819 -0.965926
vn 1.000000 -0.000000 0.000000
vn 1.000000 -0.000000 0.000000
vn 0.965926 0.066987 -0.250000
vn 0.965926 0.066987 -0.250000
vn 0.866025 0.129410 -0.482963
vn 0.866025 0.129410 -0.482963
vn 0.707107 0.183013 -0.683013
vn 0.707107 0.183013 -0.683013
vn 0.500000 0.224144 -0.836516
vn 0.500000 0.224144 -0.836516
vn 0.258819 0.250000 -0.933013
vn 0.258819 0.250000 -0.933013
vn 1.000000 -0.000000 0.000000
vn 1.000000 -0.000000 0.000000
vn -0.000000 -0.258819 0.965926
vn -0.000000 -0.258819 0.965926
vn -0.000000 -0.258819 0.965926
vn -0.000000 -0.258819 0.965926
vn -1.000000 0.000000 -0.000000
vn -1.000000 0.000000 -0.000000
vn -1.000000 0.000000 -0.000000
vn -1.000000 0.000000 -0.000000
vn -0.000000 -0.258819 0.965926
vn -0.000000 -0.258819 0.965926
vn -0.382683 -0.239118 0.892399
vn -0.382683 -0.239118 0.892399
vn -0.707107 -0.183013 0.683013
vn -0.707107 -0.183013 0.683013
vn -0.923880 -0.099046 0.369644
vn -0.923880 -0.099046 0.369644
vn -0.923880 -0.099046 0.369644
vn -0.707107 -0.183013 0.683013
vn -0.382683 -0.239118 0.892399
vn -0.000000 -0.258819 0.965926
vn -0.000000 -0.258819 0.965926
vn 0.923880 -0.099046 0.369644
vn 0.923880 -0.099046 0.369644
vn 0.707107 -0.183013 0.683013
vn 0.707107 -0.183013 0.683013
vn 0.382683 -0.239118 0.892399
vn 0.382683 -0.239118 0.892399
vn 0.382683 -0.239118 0.892399
vn 0.707107 -0.183013 0.683013
vn 0.923880 -0.099046 0.369644
vn -0.862673 0.488529 0.130901
vn -0.700000 0.689809 0.184834
vn -0.700000 0.689809 0.184834
vn -0.442289 0.866313 0.232128
vn -0.700000 0.689809 0.184834
vn -0.700000 0.689809 0.184834
vn -0.862673 0.488529 0.130901
vn -0.862673 0.488529 0.130901
vn -0.965058 0.253109 0.067820
vn -0.965058 0.253109 0.067820
vn -0.442289 0.866313 0.232128
vn -0.700000 0.689809 0.184834
vn -0.737277 0.652570 0.174856
vn -0.862673 0.488529 0.130901
vn -0.932008 0.350088 0.093806
vn -0.965058 0.253109 0.067820
vn -0.932008 0.350088 0.093806
vn -0.932008 0.350088 0.093806
vn -0.932008 0.350088 0.093806
vn -0.737277 0.652570 0.174856
vn -0.737277 0.652570 0.174856
vn -0.442289 0.866313 0.232128
vn -0.442289 0.866313 0.232128
vn -0.087156 0.962250 0.257834
vn -0.442289 0.866313 0.232128
vn -0.442289 0.866313 0.232128
vn -0.737277 0.652570 0.174856
vn -0.737277 0.652570 0.174856
vn -0.932008 0.350088 0.093806
vn -0.932008 0.350088 0.093806
vn -0.087156 0.962250 0.257834
vn -0.442289 0.866313 0.232128
vn -0.737277 0.652570 0.174856
vn -0.737277 0.652570 0.174856
vn -0.700000 0.689809 0.184834
vn -0.700000 0.689809 0.184834
vn -0.700000 0.689809 0.184834
vn -0.862673 0.488529 0.130901
vn -0.862673 0.488529 0.130901
vn -0.965058 0.253109 0.067820
vn -0.965058 0.253109 0.067820
vn -0.862673 0.488529 0.130901
vn -0.932008 0.350088 0.093806
vn -0.965058 0.253109 0.067820
vn -0.862673 0.488529 0.130901
vn -0.965058 0.253109 0.067820
vn -0.965058 0.253109 0.067820
vn -0.442289 0.232128 -0.866313
vn -0.442289 0.232128 -0.866313
vn -0.087156 0.257834 -0.962250
vn -0.442289 0.232128 -0.866313
vn -0.087156 0.257834 -0.962250
vn -0.442289 0.232128 -0.866313
vn -0.442289 0.232128 -0.866313
vn -0.737277 0.174856 -0.652570
vn -0.737277 0.174856 -0.652570
vn -0.932008 0.093806 -0.350088
vn -0.932008 0.093806 -0.350088
vn -0.932008 0.093806 -0.350088
vn -0.932008 0.093806 -0.350088
vn -0.932008 0.093806 -0.350088
vn -0.737277 0.174856 -0.652570
vn -0.737277 0.174856 -0.652570
vn -0.737277 0.174856 -0.652570
vn -0.932008 -0.093806 0.350088
vn -0.932008 -0.093806 0.350088
vn -0.932008 -0.093806 0.350088
vn -0.932008 -0.093806 0.350088
vn -0.932008 -0.093806 0.350088
vn -0.737277 -0.174856 0.652570
vn -0.737277 -0.174856 0.652570
vn -0.442289 -0.232128 0.866313
vn -0.442289 -0.232128 0.866313
vn -0.087156 -0.257834 0.962250
vn -0.442289 -0.232128 0.866313
vn -0.087156 -0.257834 0.962250
vn -0.442289 -0.232128 0.866313
vn -0.442289 -0.232128 0.866313
vn -0.737277 -0.174856 0.652570
vn -0.737277 -0.174856 0.652570
vn -0.737277 -0.174856 0.652570
vn -0.965058 -0.253109 -0.067820
vn -0.965058 -0.253109 -0.067820
vn -0.862673 -0.488529 -0.130901
vn -0.862673 -0.488529 -0.130901
vn -0.700000 -0.689809 -0.184834
vn -0.700000 -0.689809 -0.184834
vn -0.442289 -0.866313 -0.232128
vn -0.442289 -0.866313 -0.232128
vn -0.087156 -0.962250 -0.257834
vn -0.442289 -0.866313 -0.232128
vn -0.442289 -0.866313 -0.232128
vn -0.737277 -0.652570 -0.174856
vn -0.737277 -0.652570 -0.174856
vn -0.932008 -0.350088 -0.093806
vn -0.932008 -0.350088 -0.093806
vn -0.932008 -0.350088 -0.093806
vn -0.932008 -0.350088 -0.093806
vn -0.737277 -0.652570 -0.174856
vn -0.932008 -0.350088 -0.093806
vn -0.737277 -0.652570 -0.174856
vn -0.442289 -0.866313 -0.232128
vn -0.442289 -0.866313 -0.232128
vn -0.087156 -0.962250 -0.257834
vn -0.442289 -0.866313 -0.232128
vn -0.700000 -0.689809 -0.184834
vn -0.700000 -0.689809 -0.184834
vn -0.700000 -0.689809 -0.184834
vn -0.862673 -0.488529 -0.130901
vn -0.862673 -0.488529 -0.130901
vn -0.965058 -0.253109 -0.067820
vn -0.965058 -0.253109 -0.067820
vn -0.700000 -0.689809 -0.184834
vn -0.862673 -0.488529 -0.130901
vn -0.862673 -0.488529 -0.130901
vn -0.965058 -0.253109 -0.067820
vn -0.965058 -0.253109 -0.067820
vn -0.700000 -0.689809 -0.184834
vn -0.737277 -0.652570 -0.174856
vn -0.862673 -0.488529 -0.130901
vn -0.932008 -0.350088 -0.093806
vn -0.965058 -0.253109 -0.067820
vn -0.932008 -0.350088 -0.093806
vn -0.965058 -0.253109 -0.067820
vn -0.862673 -0.488529 -0.130901
vn -0.737277 -0.652570 -0.174856
vn -0.700000 -0.689809 -0.184834
vn -0.737277 -0.652570 -0.174856
vn -0.087156 0.962250 0.257834
vn -0.087156 0.962250 0.257834
vn -0.087156 0.962250 0.257834
vn 0.087156 0.962250 0.257834
vn 0.087156 0.962250 0.257834
vn 0.087156 0.962250 0.257834
vn 0.087156 0.962250 0.257834
vn 0.087156 0.962250 0.257834
vn 0.087156 0.962250 0.257834
vn 0.087156 0.962250 0.257834
vn 0.087156 0.962250 0.257834
vn -0.087156 0.257834 -0.962250
vn -0.087156 0.257834 -0.962250
vn -0.087156 0.257834 -0.962250
vn -0.087156 0.257834 -0.962250
vn -0.087156 0.257834 -0.962250
vn 1.000000 -0.000000 0.000000
vn 1.000000 -0.000000 0.000000
vn 1.000000 -0.000000 0.000000
vn 1.000000 -0.000000 0.000000
vn 0.258819 0.250000 -0.933013
vn 0.258819 0.250000 -0.933013
vn 0.258819 0.250000 -0.933013
vn 0.258819 0.250000 -0.933013
vn 1.000000 -0.000000 0.000000
vn 1.000000 -0.000000 0.000000
vn 1.000000 -0.000000 0.000000
vn 1.000000 -0.000000 0.000000
vn 0.258819 -0.250000 0.933013
vn 0.258819 -0.250000 0.933013
vn 0.258819 -0.250000 0.933013
vn 0.258819 -0.250000 0.933013
vn 1.000000 -0.000000 0.000000
vn 1.000000 -0.000000 0.000000
vn 1.000000 -0.000000 0.000000
vn 1.000000 -0.000000 0.000000
vn -0.087156 -0.257834 0.962250
vn -0.087156 -0.257834 0.962250
vn -0.087156 -0.257834 0.962250
vn -0.087156 -0.257834 0.962250
vn 0.087156 -0.962250 -0.257834
vn 0.087156 -0.962250 -0.257834
vn 0.087156 -0.962250 -0.257834
vn 0.087156 -0.962250 -0.257834
vn 0.087156 -0.962250 -0.257834
vn 0.087156 -0.962250 -0.257834
vn 0.087156 -0.962250 -0.257834
vn 0.087156 -0.962250 -0.257834
vn -0.087156 -0.962250 -0.257834
vn -0.087156 -0.962250 -0.257834
vn 0.087156 0.257834 -0.962250
vn 0.087156 0.257834 -0.962250
vn 0.087156 0.257834 -0.962250
vn 0.087156 0.257834 -0.962250
vn 0.087156 0.257834 -0.962250
vn 0.087156 0.257834 -0.962250
vn 0.087156 0.257834 -0.962250
vn 0.087156 0.257834 -0.962250
vn 0.087156 -0.257834 0.962250
vn 0.087156 -0.257834 0.962250
vn 0.087156 -0.257834 0.962250
vn 0.087156 -0.257834 0.962250
vn 0.087156 -0.257834 0.962250
vn 0.087156 -0.257834 0.962250
vn 0.087156 -0.257834 0.962250
vn 0.087156 -0.257834 0.962250
vn 0.000000 0.965926 0.258819
vn 0.000000 0.965926 0.258819
vn 0.000000 0.965926 0.258819
vn 0.000000 0.965926 0.258819
vn -0.000000 -0.383009 0.923745
vn -0.000000 -0.383009 0.923745
vn -0.000000 -0.383009 0.923745
vn -0.000000 -0.383009 0.923745
vn -0.000000 -0.965926 -0.258819
vn -0.000000 -0.965926 -0.258819
vn -0.000000 -0.965926 -0.258819
vn -0.000000 -0.965926 -0.258819
vn 0.000000 -0.202964 -0.979186
vn 0.000000 -0.202964 -0.979186
vn 0.000000 -0.202964 -0.979186
vn 0.000000 -0.202964 -0.979186
vn -0.000000 -0.664637 0.747166
vn -0.000000 -0.664637 0.747166
vn -0.000000 -0.664637 0.747166
vn -0.000000 -0.664637 0.747166
vn -0.000000 -0.965926 -0.258819
vn -0.000000 -0.965926 -0.258819
vn -0.000000 -0.965926 -0.258819
vn -0.000000 -0.965926 -0.258819
vn 0.000000 0.129396 -0.991593
vn 0.000000 0.129396 -0.991593
vn 0.000000 0.129396 -0.991593
vn 0.000000 0.129396 -0.991593
vn 0.000000 0.965926 0.258819
vn 0.000000 0.965926 0.258819
vn 0.000000 0.965926 0.258819
vn 0.000000 0.965926 0.258819
vn -0.000000 -0.129141 0.991626
vn -0.000000 -0.129141 0.991626
vn -0.000000 -0.129141 0.991626
vn -0.000000 -0.129141 0.991626
vn 0.000000 0.664469 -0.747316
vn 0.000000 0.664469 -0.747316
vn 0.000000 0.664469 -0.747316
vn 0.000000 0.664469 -0.747316
vn 0.000000 0.965926 0.258819
vn 0.000000 0.965926 0.258819
vn 0.000000 0.965926 0.258819
vn 0.000000 0.965926 0.258819
vn -0.000000 0.202437 0.979295
vn -0.000000 0.202437 0.979295
vn -0.000000 0.202437 0.979295
vn -0.000000 0.202437 0.979295
vn 0.000000 0.383453 -0.923560
vn 0.000000 0.383453 -0.923560
vn 0.000000 0.383453 -0.923560
vn 0.000000 0.383453 -0.923560
vn -1.000000 0.000000 -0.000000
vn -1.000000 0.000000 -0.000000
vn -1.000000 0.000000 -0.000000
vn -1.000000 0.000000 -0.000000
vn -1.000000 0.000000 -0.000000
vn -1.000000 0.000000 -0.000000
vn -1.000000 0.000000 -0.000000
vn -1.000000 0.000000 -0.000000
vn -1.000000 0.000000 -0.000000
vn -1.000000 0.000000 -0.000000
vn -1.000000 0.000000 -0.000000
vn -1.000000 0.000000 -0.000000
vn -1.000000 0.000000 -0.000000
vn 0.000000 0.258819 -0.965926
vn 0.000000 0.258819 -0.965926
vn 0.000000 0.258819 -0.965926
vn 0.000000 0.258819 -0.965926
vn 0.000000 0.258819 -0.965926
vn 0.000000 0.258819 -0.965926
vn 0.000000 0.258819 -0.965926
vn 0.000000 0.258819 -0.965926
vn -0.000000 -0.258819 0.965926
vn -0.000000 -0.258819 0.965926
vn -0.000000 -0.258819 0.965926
vn -0.000000 -0.258819 0.965926
vn -0.000000 -0.258819 0.965926
vn -0.000000 -0.258819 0.965926
vn -0.000000 -0.258819 0.965926
vn -0.000000 -0.258819 0.965926
vn -1.000000 0.000000 -0.000000
vn -1.000000 0.000000 -0.000000
vn -1.000000 0.000000 -0.000000
vn -1.000000 0.000000 -0.000000
vn -0.000000 -0.258819 0.965926
vn -0.000000 -0.258819 0.965926
vn -0.000000 -0.258819 0.965926
vn -0.000000 -0.258819 0.965926
vn -0.000000 -0.965926 -0.258819
vn -0.000000 -0.965926 -0.258819
vn -0.000000 -0.965926 -0.258819
vn -0.000000 -0.965926 -0.258819
vn 0.000000 0.670882 -0.741565
vn 0.000000 0.670882 -0.741565
vn 0.000000 0.670882 -0.741565
vn 0.000000 0.670882 -0.741565
vn 0.000000 0.721424 0.692494
vn 0.000000 0.721424 0.692494
vn 0.000000 0.721424 0.692494
vn 0.000000 0.721424 0.692494
vn -0.000000 -0.670957 0.741497
vn -0.000000 -0.670957 0.741497
vn -0.000000 -0.670957 0.741497
vn -0.000000 -0.670957 0.741497
vn 0.000000 0.965926 0.258819
vn 0.000000 0.965926 0.258819
vn 0.000000 0.965926 0.258819
vn 0.000000 0.965926 0.258819
vn -1.000000 0.000000 -0.000000
vn -1.000000 0.000000 -0.000000
vn -1.000000 0.000000 -0.000000
vn -1.000000 0.000000 -0.000000
vn -1.000000 0.000000 -0.000000
vn -1.000000 0.000000 -0.000000
vn 0.000000 0.258819 -0.965926
vn 0.000000 0.258819 -0.965926
vn 0.000000 0.258819 -0.965926
vn 0.000000 0.258819 -0.965926
vn 0.000000 0.258819 -0.965926
vn 0.000000 0.258819 -0.965926
vn 0.000000 0.258819 -0.965926
vn 0.000000 0.258819 -0.965926
vn -0.000000 -0.258819 0.965926
vn -0.000000 -0.258819 0.965926
vn -0.000000 -0.258819 0.965926
vn -0.000000 -0.258819 0.965926
vn -0.000000 -0.258819 0.965926
vn -0.000000 -0.258819 0.965926
vn -0.000000 -0.258819 0.965926
vn -0.000000 -0.258819 0.965926
vn -1.000000 0.000000 -0.000000
vn -1.000000 0.000000 -0.000000
vn -1.000000 0.000000 -0.000000
vn -1.000000 0.000000 -0.000000
vn 0.000000 0.258819 -0.965926
vn 0.000000 0.258819 -0.965926
vn 0.000000 0.258819 -0.965926
vn 0.000000 0.258819 -0.965926
vn 0.000000 0.258819 -0.965926
vn 0.000000 0.258819 -0.965926
vn 0.000000 0.258819 -0.965926
vn 0.000000 0.258819 -0.965926
vn -0.000000 -0.258819 0.965926
vn -0.000000 -0.258819 0.965926
vn -0.000000 -0.258819 0.965926
vn -0.000000 -0.258819 0.965926
vn -0.000000 -0.258819 0.965926
vn -0.000000 -0.258819 0.965926
vn -0.000000 -0.258819 0.965926
vn -0.000000 -0.258819 0.965926
vn -1.000000 0.000000 -0.000000
vn -1.000000 0.000000 -0.000000
vn -1.000000 0.000000 -0.000000
vn -1.000000 0.000000 -0.000000
vn 0.000000 0.258819 -0.965926
vn 0.000000 0.258819 -0.965926
vn 0.000000 0.258819 -0.965926
vn 0.000000 0.258819 -0.965926
vn 0.000000 0.258819 -0.965926
vn 0.000000 0.258819 -0.965926
vn 0.000000 0.258819 -0.965926
vn 0.000000 0.258819 -0.965926
vn -0.000000 -0.258819 0.965926
vn -0.000000 -0.258819 0.965926
vn -0.000000 -0.258819 0.965926
vn -0.000000 -0.258819 0.965926
vn -0.000000 -0.258819 0.965926
vn -0.000000 -0.258819 0.965926
vn -0.000000 -0.258819 0.965926
vn -0.000000 -0.258819 0.965926
vn -1.000000 0.000000 -0.000000
vn -1.000000 0.000000 -0.000000
vn -1.000000 0.000000 -0.000000
vn -1.000000 0.000000 -0.000000
usemtl Opaque(202,209,238)
f 2/1/1 3/2/2 1/3/3
f 1/3/3 3/2/2 4/4/4
f 6/5/5 7/6/6 5/7/7
f 5/7/7 7/6/6 8/8/8
f 10/9/9 11/10/10 9/11/11
f 9/11/11 11/10/10 12/12/12
f 14/13/13 19/14/14 13/15/15
f 13/15/15 19/14/14 20/16/16
f 13/15/15 20/16/16 21/17/17
f 15/18/18 34/19/19 14/13/13
f 14/13/13 34/19/19 26/20/20
f 14/13/13 26/20/20 28/21/21
f 28/21/21 26/20/20 27/22/22
f 34/19/19 15/18/18 33/23/23
f 33/23/23 15/18/18 16/24/24
f 33/23/23 16/24/24 32/25/25
f 32/25/25 16/24/24 24/26/26
f 32/25/25 24/26/26 31/27/27
f 31/27/27 24/26/26 25/28/28
f 31/27/27 25/28/28 35/29/29
f 35/29/29 25/28/28 34/19/19
f 34/19/19 25/28/28 26/20/20
f 16/24/24 13/15/15 24/26/26
f 24/26/26 13/15/15 23/30/30
f 23/30/30 13/15/15 21/17/17
f 23/30/30 21/17/17 22/31/31
f 17/32/32 18/33/33 29/34/34
f 29/34/34 18/33/33 14/13/13
f 29/34/34 14/13/13 28/21/21
f 18/33/33 19/14/14 14/13/13
f 30/35/35 31/27/27 35/29/29
f 37/36/36 38/37/37 36/38/38
f 36/38/38 38/37/37 39/39/39
f 41/40/40 42/41/41 40/42/42
f 40/42/42 42/41/41 43/43/43
f 40/42/42 43/43/43 66/44/44
f 66/44/44 43/43/43 44/45/45
f 66/44/44 44/45/45 45/46/46
f 66/44/44 45/46/46 65/47/47
f 65/47/47 45/46/46 46/48/48
f 65/47/47 46/48/48 64/49/49
f 64/49/49 46/48/48 47/50/50
f 64/49/49 47/50/50 63/51/51
f 63/51/51 47/50/50 48/52/52
f 63/51/51 48/52/52 62/53/53
f 62/53/53 48/52/52 49/54/54
f 62/53/53 49/54/54 50/55/55
f 62/53/53 50/55/55 61/56/56
f 61/56/56 50/55/55 51/57/57
f 61/56/56 51/57/57 60/58/58
f 60/58/58 51/57/57 52/59/59
f 60/58/58 52/59/59 53/60/60
f 60/58/58 53/60/60 59/61/61
f 59/61/61 53/60/60 54/62/62
f 59/61/61 54/62/62 58/63/63
f 58/63/63 54/62/62 55/64/64
f 58/63/63 55/64/64 57/65/65
f 57/65/65 55/64/64 56/66/66
f 68/67/67 69/68/68 67/69/69
f 67/69/69 69/68/68 93/70/70
f 93/70/70 69/68/68 70/71/71
f 93/70/70 70/71/71 92/72/72
f 92/72/72 70/71/71 91/73/73
f 91/73/73 70/71/71 71/74/74
f 91/73/73 71/74/74 90/75/75
f 90/75/75 71/74/74 72/76/76
f 90/75/75 72/76/76 89/77/77
f 89/77/77 72/76/76 73/78/78
f 89/77/77 73/78/78 88/79/79
f 88/79/79 73/78/78 87/80/80
f 87/80/80 73/78/78 74/81/81
f 87/80/80 74/81/81 86/82/82
f 86/82/82 74/81/81 75/83/83
f 86/82/82 75/83/83 85/84/84
f 85/84/84 75/83/83 76/85/85
f 85/84/84 76/85/85 84/86/86
f 84/86/86 76/85/85 83/87/87
f 83/87/87 76/85/85 77/88/88
f 83/87/87 77/88/88 82/89/89
f 82/89/89 77/88/88 78/90/90
f 82/89/89 78/90/90 81/91/91
f 81/91/91 78/90/90 79/92/92
f 81/91/91 79/92/92 80/93/93
f 69/94/94 40/95/95 94/96/96
f 94/96/96 40/95/95 66/97/97
f 94/96/96 66/97/97 95/98/98
f 95/98/98 66/97/97 65/99/99
f 95/98/98 65/99/99 96/100/100
f 96/100/100 65/99/99 64/101/101
f 96/100/100 64/101/101 63/102/102
f 63/102/102 73/103/103 96/100/100
f 96/100/100 73/103/103 72/104/104
f 96/100/100 72/104/104 95/98/98
f 95/98/98 72/104/104 71/105/105
f 95/98/98 71/105/105 94/96/96
f 94/96/96 71/105/105 70/106/106
f 94/96/96 70/106/106 69/94/94
f 63/107/102 62/108/107 73/109/103
f 73/109/103 62/108/107 74/110/108
f 74/111/108 62/112/107 97/113/109
f 97/113/109 62/112/107 61/114/110
f 97/113/109 61/114/110 98/115/111
f 98/115/111 61/114/110 60/116/112
f 98/115/111 60/116/112 99/117/113
f 99/117/113 60/116/112 59/118/114
f 99/117/113 59/118/114 58/119/115
f 58/119/115 78/120/116 99/117/113
f 99/117/113 78/120/116 77/121/117
f 99/117/113 77/121/117 98/115/111
f 98/115/111 77/121/117 76/122/118
f 98/115/111 76/122/118 97/113/109
f 97/113/109 76/122/118 75/123/119
f 97/113/109 75/123/119 74/111/108
f 58/124/115 57/125/120 78/126/116
f 78/126/116 57/125/120 79/127/121
f 57/128/122 56/129/123 79/130/124
f 79/130/124 56/129/123 80/131/125
f 56/132/126 55/133/127 80/134/128
f 80/134/128 55/133/127 81/135/129
f 81/136/129 55/137/127 82/138/130
f 82/138/130 55/137/127 54/139/131
f 82/138/130 54/139/131 83/140/132
f 83/140/132 54/139/131 53/141/133
f 83/140/132 53/141/133 84/142/134
f 84/142/134 53/141/133 52/143/135
f 84/142/134 52/143/135 85/144/136
f 85/144/136 52/143/135 51/145/137
f 85/144/136 51/145/137 86/146/138
f 86/146/138 51/145/137 50/147/139
f 86/146/138 50/147/139 87/148/140
f 87/148/140 50/147/139 49/149/141
f 49/150/141 48/151/142 87/152/140
f 87/152/140 48/151/142 88/153/143
f 88/154/143 48/155/142 89/156/144
f 89/156/144 48/155/142 47/157/145
f 89/156/144 47/157/145 90/158/146
f 90/158/146 47/157/145 46/159/147
f 90/158/146 46/159/147 91/160/148
f 91/160/148 46/159/147 45/161/149
f 91/160/148 45/161/149 92/162/150
f 92/162/150 45/161/149 44/163/151
f 92/162/150 44/163/151 93/164/152
f 93/164/152 44/163/151 43/165/153
f 93/164/152 43/165/153 67/166/154
f 67/166/154 43/165/153 42/167/155
f 68/168/156 41/169/157 69/170/94
f 69/170/94 41/169/157 40/171/95
f 113/172/158 100/173/159 112/174/160
f 112/174/160 100/173/159 101/175/161
f 112/174/160 101/175/161 111/176/162
f 111/176/162 101/175/161 102/177/163
f 111/176/162 102/177/163 110/178/164
f 110/178/164 102/177/163 103/179/165
f 110/178/164 103/179/165 109/180/166
f 109/180/166 103/179/165 104/181/167
f 109/180/166 104/181/167 108/182/168
f 108/182/168 104/181/167 105/183/169
f 108/182/168 105/183/169 107/184/170
f 107/184/170 105/183/169 106/185/171
f 114/186/172 115/187/173 117/188/174
f 117/188/174 115/187/173 116/189/175
f 115/190/176 114/191/177 107/192/178
f 107/192/178 114/191/177 108/193/179
f 108/193/179 114/191/177 118/194/180
f 108/193/179 118/194/180 109/195/181
f 109/195/181 118/194/180 110/196/182
f 110/196/182 118/194/180 119/197/183
f 110/196/182 119/197/183 111/198/184
f 111/198/184 119/197/183 120/199/185
f 111/198/184 120/199/185 112/200/186
f 112/200/186 120/199/185 121/201/187
f 112/200/186 121/201/187 113/202/188
f 113/202/188 121/201/187 122/203/189
f 113/202/188 122/203/189 135/204/190
f 135/204/190 122/203/189 134/205/191
f 134/205/191 122/203/189 123/206/192
f 134/205/191 123/206/192 133/207/193
f 133/207/193 123/206/192 124/208/194
f 133/207/193 124/208/194 132/209/195
f 132/209/195 124/208/194 131/210/196
f 131/210/196 124/208/194 125/211/197
f 131/210/196 125/211/197 130/212/198
f 130/212/198 125/211/197 126/213/199
f 130/212/198 126/213/199 129/214/200
f 129/214/200 126/213/199 128/215/201
f 128/215/201 126/213/199 127/216/202
f 116/217/203 106/218/204 117/219/205
f 117/219/205 106/218/204 105/220/206
f 117/219/205 105/220/206 153/221/207
f 153/221/207 105/220/206 104/222/208
f 153/221/207 104/222/208 103/223/209
f 153/221/207 103/223/209 152/224/210
f 152/224/210 103/223/209 102/225/211
f 152/224/210 102/225/211 151/226/212
f 151/226/212 102/225/211 101/227/213
f 151/226/212 101/227/213 150/228/214
f 150/228/214 101/227/213 100/229/215
f 150/228/214 100/229/215 149/230/216
f 149/230/216 100/229/215 136/231/217
f 149/230/216 136/231/217 137/232/218
f 149/230/216 137/232/218 148/233/219
f 148/233/219 137/232/218 138/234/220
f 148/233/219 138/234/220 147/235/221
f 147/235/221 138/234/220 139/236/222
f 147/235/221 139/236/222 140/237/223
f 147/235/221 140/237/223 146/238/224
f 146/238/224 140/237/223 141/239/225
f 146/238/224 141/239/225 145/240/226
f 145/240/226 141/239/225 142/241/227
f 145/240/226 142/241/227 144/242/228
f 144/242/228 142/241/227 143/243/229
f 136/244/230 100/245/159 135/246/231
f 135/246/231 100/245/159 113/247/158
f 129/248/232 142/249/233 130/250/234
f 130/250/234 142/249/233 141/251/235
f 130/250/234 141/251/235 131/252/236
f 131/252/236 141/251/235 140/253/237
f 131/252/236 140/253/237 132/254/238
f 132/254/238 140/253/237 139/255/239
f 132/254/238 139/255/239 133/256/240
f 133/256/240 139/255/239 138/257/241
f 133/256/240 138/257/241 134/258/242
f 134/258/242 138/257/241 137/259/243
f 134/258/242 137/259/243 135/260/231
f 135/260/231 137/259/243 136/261/230
f 142/262/233 129/263/232 143/264/244
f 143/264/244 129/263/232 128/265/245
f 143/266/246 128/267/247 144/268/248
f 144/268/248 128/267/247 127/269/249
f 145/270/250 144/271/251 126/272/252
f 126/272/252 144/271/251 127/273/253
f 122/274/254 149/275/255 154/276/256
f 154/276/256 149/275/255 148/277/257
f 154/276/256 148/277/257 155/278/258
f 155/278/258 148/277/257 147/279/259
f 155/278/258 147/279/259 156/280/260
f 156/280/260 147/279/259 146/281/261
f 156/280/260 146/281/261 145/282/250
f 145/282/250 126/283/252 156/280/260
f 156/280/260 126/283/252 125/284/262
f 156/280/260 125/284/262 155/278/258
f 155/278/258 125/284/262 124/285/263
f 155/278/258 124/285/263 154/276/256
f 154/276/256 124/285/263 123/286/264
f 154/276/256 123/286/264 122/274/254
f 149/287/255 122/288/254 150/289/265
f 150/289/265 122/288/254 121/290/266
f 114/291/172 117/292/174 157/293/267
f 157/293/267 117/292/174 153/294/268
f 157/293/267 153/294/268 158/295/269
f 158/295/269 153/294/268 152/296/270
f 158/295/269 152/296/270 159/297/271
f 159/297/271 152/296/270 151/298/272
f 159/297/271 151/298/272 150/299/265
f 150/299/265 121/300/266 159/297/271
f 159/297/271 121/300/266 120/301/273
f 159/297/271 120/301/273 158/295/269
f 158/295/269 120/301/273 119/302/274
f 158/295/269 119/302/274 157/293/267
f 157/293/267 119/302/274 118/303/275
f 157/293/267 118/303/275 114/291/172
f 161/304/276 165/305/277 160/306/278
f 160/306/278 165/305/277 174/307/279
f 160/306/278 174/307/279 191/308/280
f 191/308/280 174/307/279 186/309/281
f 191/308/280 186/309/281 187/310/282
f 165/305/277 161/304/276 164/311/283
f 164/311/283 161/304/276 162/312/284
f 164/311/283 162/312/284 163/313/285
f 163/313/285 162/312/284 4/314/4
f 4/314/4 162/312/284 1/315/3
f 174/307/279 165/305/277 201/316/286
f 201/316/286 165/305/277 166/317/287
f 201/316/286 166/317/287 192/318/288
f 192/318/288 166/317/287 167/319/289
f 192/318/288 167/319/289 202/320/290
f 202/320/290 167/319/289 168/321/291
f 202/320/290 168/321/291 203/322/292
f 203/322/292 168/321/291 16/323/24
f 203/322/292 16/323/24 204/324/293
f 204/324/293 16/323/24 205/325/294
f 204/324/293 205/325/294 194/326/295
f 194/326/295 205/325/294 195/327/296
f 194/326/295 195/327/296 199/328/297
f 199/328/297 195/327/296 198/329/298
f 199/328/297 198/329/298 172/330/299
f 172/330/299 198/329/298 197/331/300
f 172/330/299 197/331/300 171/332/301
f 171/332/301 197/331/300 170/333/302
f 170/333/302 197/331/300 196/334/303
f 170/333/302 196/334/303 169/335/304
f 169/335/304 196/334/303 206/336/305
f 169/335/304 206/336/305 16/323/24
f 16/323/24 206/336/305 205/325/294
f 168/321/291 13/337/15 16/323/24
f 172/330/299 173/338/306 199/328/297
f 199/328/297 173/338/306 200/339/307
f 199/328/297 200/339/307 194/326/295
f 194/326/295 200/339/307 193/340/308
f 194/326/295 193/340/308 204/324/293
f 204/324/293 193/340/308 203/322/292
f 200/339/307 173/338/306 201/316/286
f 201/316/286 173/338/306 174/307/279
f 175/341/309 179/342/310 174/307/279
f 174/307/279 179/342/310 180/343/311
f 174/307/279 180/343/311 185/344/312
f 185/344/312 180/343/311 181/345/313
f 185/344/312 181/345/313 184/346/314
f 184/346/314 181/345/313 182/347/315
f 184/346/314 182/347/315 183/348/316
f 183/348/316 182/347/315 10/349/9
f 10/349/9 182/347/315 11/350/10
f 179/342/310 175/341/309 178/351/317
f 178/351/317 175/341/309 176/352/318
f 178/351/317 176/352/318 177/353/319
f 177/353/319 176/352/318 38/354/37
f 177/353/319 38/354/37 37/355/36
f 185/344/312 186/309/281 174/307/279
f 191/308/280 187/310/282 190/356/320
f 190/356/320 187/310/282 188/357/321
f 190/356/320 188/357/321 189/358/322
f 189/358/322 188/357/321 6/359/5
f 6/359/5 188/357/321 7/360/6
f 200/339/307 201/316/286 193/340/308
f 193/340/308 201/316/286 192/318/288
f 193/340/308 192/318/288 203/322/292
f 203/322/292 192/318/288 202/320/290
f 197/331/300 198/329/298 196/334/303
f 196/334/303 198/329/298 195/327/296
f 196/334/303 195/327/296 206/336/305
f 206/336/305 195/327/296 205/325/294
f 208/361/323 211/362/324 207/363/325
f 207/363/325 211/362/324 212/364/326
f 207/363/325 212/364/326 173/365/327
f 173/365/327 212/364/326 213/366/328
f 173/365/327 213/366/328 174/367/329
f 174/367/329 213/366/328 175/368/330
f 175/368/330 213/366/328 216/369/331
f 175/368/330 216/369/331 176/370/332
f 176/370/332 216/369/331 219/371/333
f 176/370/332 219/371/333 38/372/37
f 38/372/37 219/371/333 218/373/334
f 38/372/37 218/373/334 39/374/39
f 39/374/39 218/373/334 217/375/335
f 39/374/39 217/375/335 210/376/336
f 210/376/336 217/375/335 214/377/337
f 210/376/336 214/377/337 209/378/338
f 209/378/338 214/377/337 211/362/324
f 209/378/338 211/362/324 208/361/323
f 216/369/331 213/366/328 212/364/326
f 212/364/326 211/362/324 215/379/339
f 215/379/339 211/362/324 214/377/337
f 215/379/339 214/377/337 218/373/334
f 218/373/334 214/377/337 217/375/335
f 219/371/333 216/369/331 215/379/339
f 215/379/339 216/369/331 212/364/326
f 219/371/333 215/379/339 218/373/334
f 220/380/340 224/381/341 15/382/18
f 15/382/18 224/381/341 225/383/342
f 15/382/18 225/383/342 16/384/24
f 16/384/24 225/383/342 226/385/343
f 16/384/24 226/385/343 169/386/344
f 169/386/344 226/385/343 229/387/345
f 169/386/344 229/387/345 170/388/346
f 170/388/346 229/387/345 232/389/347
f 170/388/346 232/389/347 171/390/348
f 171/390/348 232/389/347 172/391/349
f 172/391/349 232/389/347 231/392/350
f 172/391/349 231/392/350 223/393/351
f 223/393/351 231/392/350 230/394/352
f 223/393/351 230/394/352 222/395/353
f 222/395/353 230/394/352 221/396/354
f 221/396/354 230/394/352 227/397/355
f 221/396/354 227/397/355 220/380/340
f 220/380/340 227/397/355 224/381/341
f 229/387/345 226/385/343 225/383/342
f 225/383/342 224/381/341 228/398/356
f 228/398/356 224/381/341 227/397/355
f 228/398/356 227/397/355 231/392/350
f 231/392/350 227/397/355 230/394/352
f 232/389/347 229/387/345 228/398/356
f 228/398/356 229/387/345 225/383/342
f 232/389/347 228/398/356 231/392/350
f 3/399/2 2/400/1 256/401/357
f 256/401/357 2/400/1 233/402/358
f 256/401/357 233/402/358 234/403/359
f 256/401/357 234/403/359 255/404/360
f 255/404/360 234/403/359 235/405/361
f 255/404/360 235/405/361 254/406/362
f 254/406/362 235/405/361 208/407/363
f 254/406/362 208/407/363 257/408/364
f 257/408/364 208/407/363 207/409/365
f 257/408/364 207/409/365 258/410/366
f 258/410/366 207/409/365 259/411/367
f 258/410/366 259/411/367 265/412/368
f 265/412/368 259/411/367 264/413/369
f 265/412/368 264/413/369 270/414/370
f 270/414/370 264/413/369 269/415/371
f 270/414/370 269/415/371 14/416/13
f 14/416/13 269/415/371 15/417/18
f 15/417/18 269/415/371 268/418/372
f 15/417/18 268/418/372 267/419/373
f 267/419/373 268/418/372 262/420/374
f 267/419/373 262/420/374 220/421/375
f 220/421/375 262/420/374 221/422/376
f 221/422/376 262/420/374 261/423/377
f 221/422/376 261/423/377 222/424/378
f 222/424/378 261/423/377 223/425/379
f 223/425/379 261/423/377 260/426/380
f 223/425/379 260/426/380 259/411/367
f 259/411/367 260/426/380 264/413/369
f 235/405/361 236/427/381 208/407/363
f 208/407/363 236/427/381 241/428/382
f 208/407/363 241/428/382 242/429/383
f 236/427/381 237/430/384 241/428/382
f 241/428/382 237/430/384 240/431/385
f 240/431/385 237/430/384 238/432/386
f 240/431/385 238/432/386 239/433/387
f 239/433/387 238/432/386 8/434/8
f 8/434/8 238/432/386 5/435/7
f 208/407/363 242/429/383 247/436/388
f 247/436/388 242/429/383 243/437/389
f 247/436/388 243/437/389 246/438/390
f 246/438/390 243/437/389 244/439/391
f 246/438/390 244/439/391 245/440/392
f 245/440/392 244/439/391 12/441/12
f 12/441/12 244/439/391 9/442/11
f 247/436/388 248/443/393 208/407/363
f 208/407/363 248/443/393 209/444/394
f 209/444/394 248/443/393 249/445/395
f 209/444/394 249/445/395 210/446/396
f 210/446/396 249/445/395 250/447/397
f 210/446/396 250/447/397 39/448/39
f 39/448/39 250/447/397 36/449/38
f 207/409/365 223/425/379 259/411/367
f 220/421/375 15/417/18 267/419/373
f 270/414/370 14/416/13 271/450/398
f 271/450/398 14/416/13 251/451/399
f 271/450/398 251/451/399 252/452/400
f 271/450/398 252/452/400 266/453/401
f 266/453/401 252/452/400 253/454/402
f 266/453/401 253/454/402 257/408/364
f 257/408/364 253/454/402 254/406/362
f 257/408/364 258/410/366 266/453/401
f 266/453/401 258/410/366 265/412/368
f 266/453/401 265/412/368 271/450/398
f 271/450/398 265/412/368 270/414/370
f 260/426/380 261/423/377 263/455/403
f 263/455/403 261/423/377 262/420/374
f 263/455/403 262/420/374 268/418/372
f 269/415/371 264/413/369 263/455/403
f 263/455/403 264/413/369 260/426/380
f 269/415/371 263/455/403 268/418/372
f 173/456/404 172/457/299 272/458/405
f 272/458/405 172/457/299 273/459/406
f 279/460/407 272/461/408 278/462/409
f 278/462/409 272/461/408 273/463/410
f 278/462/409 273/463/410 275/464/411
f 275/464/411 273/463/410 274/465/412
f 276/466/413 277/467/414 275/464/411
f 275/464/411 277/467/414 278/462/409
f 280/468/415 207/469/325 106/470/416
f 106/470/416 207/469/325 173/471/417
f 106/470/416 173/471/417 107/472/418
f 107/472/418 173/471/417 272/473/419
f 278/474/420 281/475/421 279/476/422
f 279/476/422 281/475/421 282/477/423
f 278/478/424 277/479/425 281/480/426
f 281/480/426 277/479/425 283/481/427
f 276/482/428 284/483/429 277/484/430
f 277/484/430 284/483/429 283/485/431
f 275/486/432 285/487/433 276/488/434
f 276/488/434 285/487/433 284/489/435
f 274/490/436 286/491/437 275/492/438
f 275/492/438 286/491/437 285/493/439
f 273/494/440 172/495/349 42/496/441
f 42/496/441 172/495/349 223/497/351
f 42/496/441 223/497/351 67/498/442
f 67/498/442 223/497/351 287/499/443
f 286/500/444 287/501/445 285/502/446
f 285/502/446 287/501/445 280/503/447
f 285/502/446 280/503/447 281/504/448
f 281/504/448 280/503/447 282/505/449
f 283/506/450 284/507/451 281/504/448
f 281/504/448 284/507/451 285/502/446
f 223/508/379 207/509/365 287/510/452
f 287/510/452 207/509/365 280/511/453
f 115/512/454 282/513/455 116/514/456
f 116/514/456 282/513/455 280/515/457
f 116/514/456 280/515/457 106/516/458
f 107/517/459 272/518/460 115/512/454
f 115/512/454 272/518/460 279/519/461
f 115/512/454 279/519/461 282/513/455
f 68/520/462 274/521/463 41/522/464
f 41/522/464 274/521/463 273/523/465
f 41/522/464 273/523/465 42/524/466
f 67/525/467 287/526/468 68/520/462
f 68/520/462 287/526/468 286/527/469
f 68/520/462 286/527/469 274/521/463
f 18/528/470 288/529/471 19/530/472
f 19/530/472 288/529/471 289/531/473
f 20/532/474 19/533/475 290/534/476
f 290/534/476 19/533/475 289/535/477
f 20/536/478 290/537/479 21/538/480
f 21/538/480 290/537/479 291/539/481
f 22/540/482 21/541/483 292/542/484
f 292/542/484 21/541/483 291/543/485
f 23/544/486 22/545/487 293/546/488
f 293/546/488 22/545/487 292/547/489
f 23/548/490 293/549/491 24/550/492
f 24/550/492 293/549/491 294/551/493
f 25/552/494 24/553/495 295/554/496
f 295/554/496 24/553/495 294/555/497
f 25/556/498 295/557/499 26/558/500
f 26/558/500 295/557/499 296/559/501
f 27/560/502 26/561/503 297/562/504
f 297/562/504 26/561/503 296/563/505
f 28/564/506 27/565/507 298/566/508
f 298/566/508 27/565/507 297/567/509
f 28/568/510 298/569/511 29/570/512
f 29/570/512 298/569/511 299/571/513
f 17/572/514 29/573/515 300/574/516
f 300/574/516 29/573/515 299/575/517
f 18/576/518 17/577/519 288/578/520
f 288/578/520 17/577/519 300/579/521
f 288/580/522 300/581/523 289/582/524
f 289/582/524 300/581/523 290/583/525
f 290/583/525 300/581/523 291/584/526
f 291/584/526 300/581/523 292/585/527
f 292/585/527 300/581/523 299/586/528
f 292/585/527 299/586/528 298/587/529
f 298/587/529 297/588/530 292/585/527
f 292/585/527 297/588/530 293/589/531
f 293/589/531 297/588/530 294/590/532
f 294/590/532 297/588/530 295/591/533
f 295/591/533 297/588/530 296/592/534
f 13/593/535 168/594/536 14/595/537
f 14/595/537 168/594/536 251/596/538
f 251/596/538 168/594/536 167/597/539
f 251/596/538 167/597/539 252/598/540
f 252/598/540 167/597/539 253/599/541
f 253/599/541 167/597/539 166/600/542
f 165/601/543 164/602/544 254/603/545
f 254/603/545 164/602/544 255/604/546
f 255/604/546 164/602/544 256/605/547
f 256/605/547 164/602/544 163/606/548
f 256/605/547 163/606/548 3/607/549
f 3/607/549 163/606/548 4/608/550
f 166/609/551 165/610/552 253/611/553
f 253/611/553 165/610/552 254/612/554
f 31/613/555 301/614/556 32/615/557
f 32/615/557 301/614/556 302/616/558
f 32/617/559 302/618/560 33/619/561
f 33/619/561 302/618/560 303/620/562
f 34/621/563 33/622/564 304/623/565
f 304/623/565 33/622/564 303/624/566
f 35/625/567 34/626/568 305/627/569
f 305/627/569 34/626/568 304/628/570
f 30/629/571 35/630/572 306/631/573
f 306/631/573 35/630/572 305/632/574
f 30/633/575 306/634/576 31/635/577
f 31/635/577 306/634/576 301/636/578
f 301/637/579 306/638/580 302/639/581
f 302/639/581 306/638/580 303/640/582
f 303/640/582 306/638/580 304/641/583
f 304/641/583 306/638/580 305/642/584
f 11/643/585 182/644/586 12/645/587
f 12/645/587 182/644/586 245/646/588
f 245/646/588 182/644/586 181/647/589
f 245/646/588 181/647/589 246/648/590
f 246/648/590 181/647/589 247/649/591
f 247/649/591 181/647/589 180/650/592
f 179/651/593 178/652/594 248/653/595
f 248/653/595 178/652/594 249/654/596
f 249/654/596 178/652/594 250/655/597
f 250/655/597 178/652/594 177/656/598
f 250/655/597 177/656/598 36/657/599
f 36/657/599 177/656/598 37/658/600
f 180/659/601 179/660/602 247/661/603
f 247/661/603 179/660/602 248/662/604
f 7/663/605 188/664/606 8/665/607
f 8/665/607 188/664/606 239/666/608
f 239/666/608 188/664/606 187/667/609
f 239/666/608 187/667/609 240/668/610
f 240/668/610 187/667/609 241/669/611
f 241/669/611 187/667/609 186/670/612
f 185/671/613 184/672/614 242/673/615
f 242/673/615 184/672/614 243/674/616
f 243/674/616 184/672/614 244/675/617
f 244/675/617 184/672/614 183/676/618
f 244/675/617 183/676/618 9/677/619
f 9/677/619 183/676/618 10/678/620
f 186/679/621 185/680/622 241/681/623
f 241/681/623 185/680/622 242/682/624
f 1/683/625 162/684/626 2/685/627
f 2/685/627 162/684/626 233/686/628
f 233/686/628 162/684/626 161/687/629
f 233/686/628 161/687/629 234/688/630
f 234/688/630 161/687/629 235/689/631
f 235/689/631 161/687/629 160/690/632
f 191/691/633 190/692/634 236/693/635
f 236/693/635 190/692/634 237/694/636
f 237/694/636 190/692/634 238/695/637
f 238/695/637 190/692/634 189/696/638
f 238/695/637 189/696/638 5/697/639
f 5/697/639 189/696/638 6/698/640
f 160/699/641 191/700/642 235/701/643
f 235/701/643 191/700/642 236/702/644
# 306 vertices
# 702 texture params
# 644 normals
# 608 facets

# 1 groups
