# WaveFront *.obj file (generated by Autodesk ATF)

mtllib body53_visual.mtl

g Body53

v -27.030000 3.005134 -1.713018
v -27.030000 2.989605 -1.655062
v -27.035000 2.983482 -1.651527
v -27.035000 3.001599 -1.719141
v -27.030000 3.047561 -1.639533
v -27.035000 3.051096 -1.633409
v -27.030000 3.063090 -1.697489
v -27.035000 3.069214 -1.701024
v -28.025000 3.001599 -1.719141
v -28.025000 3.069214 -1.701024
v -28.025000 2.983482 -1.651527
v -28.030000 2.989605 -1.655062
v -28.030000 3.005134 -1.713018
v -28.030000 3.063090 -1.697489
v -28.030000 3.047561 -1.639533
v -28.025000 3.051096 -1.633409
vt -0.012500 -0.003536 0.000000
vt 0.047500 -0.003536 0.000000
vt -0.017500 0.003536 0.000000
vt 0.052500 0.003536 0.000000
vt -0.003536 -0.047500 0.000000
vt 0.003536 -0.052500 0.000000
vt -0.003536 0.012500 0.000000
vt 0.003536 0.017500 0.000000
vt 0.012500 0.003536 0.000000
vt -0.047500 0.003536 0.000000
vt 0.017500 -0.003536 0.000000
vt -0.052500 -0.003536 0.000000
vt -0.003536 0.052500 0.000000
vt -0.003536 -0.017500 0.000000
vt 0.003536 0.047500 0.000000
vt 0.003536 -0.012500 0.000000
vt 0.000000 -0.195000 0.000000
vt 0.070000 -0.195000 0.000000
vt 0.000000 0.795000 0.000000
vt 0.070000 0.795000 0.000000
vt 0.000000 -0.195000 0.000000
vt 0.070000 -0.195000 0.000000
vt 0.000000 0.795000 0.000000
vt 0.070000 0.795000 0.000000
vt 0.030000 0.030000 0.000000
vt -0.030000 0.030000 0.000000
vt 0.030000 -0.030000 0.000000
vt -0.030000 -0.030000 0.000000
vt -0.047500 -0.003536 0.000000
vt 0.012500 -0.003536 0.000000
vt -0.052500 0.003536 0.000000
vt 0.017500 0.003536 0.000000
vt -0.003536 -0.012500 0.000000
vt 0.003536 -0.017500 0.000000
vt -0.003536 0.047500 0.000000
vt 0.003536 0.052500 0.000000
vt 0.047500 0.003536 0.000000
vt -0.012500 0.003536 0.000000
vt 0.052500 -0.003536 0.000000
vt -0.017500 -0.003536 0.000000
vt -0.003536 0.017500 0.000000
vt -0.003536 -0.052500 0.000000
vt 0.003536 0.012500 0.000000
vt 0.003536 -0.047500 0.000000
vt -0.000000 -0.195000 0.000000
vt 0.070000 -0.195000 0.000000
vt -0.000000 0.795000 0.000000
vt 0.070000 0.795000 0.000000
vt 0.030000 0.030000 0.000000
vt -0.030000 0.030000 0.000000
vt 0.030000 -0.030000 0.000000
vt -0.030000 -0.030000 0.000000
vt -0.000000 -0.195000 0.000000
vt 0.070000 -0.195000 0.000000
vt -0.000000 0.795000 0.000000
vt 0.070000 0.795000 0.000000
vn 0.707107 -0.683013 -0.183013
vn 0.707107 -0.683013 -0.183013
vn 0.707107 -0.683013 -0.183013
vn 0.707107 -0.683013 -0.183013
vn 0.707107 -0.183013 0.683013
vn 0.707107 -0.183013 0.683013
vn 0.707107 -0.183013 0.683013
vn 0.707107 -0.183013 0.683013
vn 0.707107 0.683013 0.183013
vn 0.707107 0.683013 0.183013
vn 0.707107 0.683013 0.183013
vn 0.707107 0.683013 0.183013
vn 0.707107 0.183013 -0.683013
vn 0.707107 0.183013 -0.683013
vn 0.707107 0.183013 -0.683013
vn 0.707107 0.183013 -0.683013
vn 0.000000 0.258819 -0.965926
vn 0.000000 0.258819 -0.965926
vn 0.000000 0.258819 -0.965926
vn 0.000000 0.258819 -0.965926
vn -0.000000 -0.965926 -0.258819
vn -0.000000 -0.965926 -0.258819
vn -0.000000 -0.965926 -0.258819
vn -0.000000 -0.965926 -0.258819
vn 1.000000 -0.000000 0.000000
vn 1.000000 -0.000000 0.000000
vn 1.000000 -0.000000 0.000000
vn 1.000000 -0.000000 0.000000
vn -0.707107 -0.683013 -0.183013
vn -0.707107 -0.683013 -0.183013
vn -0.707107 -0.683013 -0.183013
vn -0.707107 -0.683013 -0.183013
vn -0.707107 0.183013 -0.683013
vn -0.707107 0.183013 -0.683013
vn -0.707107 0.183013 -0.683013
vn -0.707107 0.183013 -0.683013
vn -0.707107 0.683013 0.183013
vn -0.707107 0.683013 0.183013
vn -0.707107 0.683013 0.183013
vn -0.707107 0.683013 0.183013
vn -0.707107 -0.183013 0.683013
vn -0.707107 -0.183013 0.683013
vn -0.707107 -0.183013 0.683013
vn -0.707107 -0.183013 0.683013
vn -0.000000 -0.258819 0.965926
vn -0.000000 -0.258819 0.965926
vn -0.000000 -0.258819 0.965926
vn -0.000000 -0.258819 0.965926
vn -1.000000 0.000000 -0.000000
vn -1.000000 0.000000 -0.000000
vn -1.000000 0.000000 -0.000000
vn -1.000000 0.000000 -0.000000
vn 0.000000 0.965926 0.258819
vn 0.000000 0.965926 0.258819
vn 0.000000 0.965926 0.258819
vn 0.000000 0.965926 0.258819
usemtl Polycarbonate_(Clear)
f 1/1/1 2/2/2 4/3/3
f 4/3/3 2/2/2 3/4/4
f 5/5/5 6/6/6 2/7/7
f 2/7/7 6/6/6 3/8/8
f 5/9/9 7/10/10 6/11/11
f 6/11/11 7/10/10 8/12/12
f 4/13/13 8/14/14 1/15/15
f 1/15/15 8/14/14 7/16/16
f 8/17/17 4/18/18 10/19/19
f 10/19/19 4/18/18 9/20/20
f 4/21/21 3/22/22 9/23/23
f 9/23/23 3/22/22 11/24/24
f 2/25/25 1/26/26 5/27/27
f 5/27/27 1/26/26 7/28/28
f 12/29/29 13/30/30 11/31/31
f 11/31/31 13/30/30 9/32/32
f 14/33/33 10/34/34 13/35/35
f 13/35/35 10/34/34 9/36/36
f 14/37/37 15/38/38 10/39/39
f 10/39/39 15/38/38 16/40/40
f 11/41/41 16/42/42 12/43/43
f 12/43/43 16/42/42 15/44/44
f 3/45/45 6/46/46 11/47/47
f 11/47/47 6/46/46 16/48/48
f 13/49/49 12/50/50 14/51/51
f 14/51/51 12/50/50 15/52/52
f 6/53/53 8/54/54 16/55/55
f 16/55/55 8/54/54 10/56/56
# 16 vertices
# 56 texture params
# 56 normals
# 28 facets

# 1 groups
