# WaveFront *.obj file (generated by Autodesk ATF)

mtllib body82_visual.mtl

g Body82

v -27.298363 2.257655 -1.376437
v -27.298363 2.253493 -1.372243
v -27.299363 2.253493 -1.372243
v -27.299363 2.257655 -1.376437
v -27.298363 2.260923 -1.370252
v -27.299363 2.260923 -1.370252
v -27.298363 2.249309 -1.326910
v -27.299363 2.249309 -1.326910
v -27.298363 2.253644 -1.325748
v -27.299363 2.253644 -1.325748
v -27.298363 2.266585 -1.374045
v -27.299363 2.266585 -1.374045
vt -0.005909 -0.001000 0.000000
vt -0.000000 -0.001000 0.000000
vt -0.005909 0.000000 0.000000
vt 0.000000 0.000000 0.000000
vt -0.007692 -0.001000 0.000000
vt -0.000000 -0.001000 0.000000
vt -0.007692 -0.000000 0.000000
vt 0.000000 0.000000 0.000000
vt -0.044872 -0.001000 0.000000
vt 0.000000 -0.001000 0.000000
vt -0.044872 -0.000000 0.000000
vt 0.000000 0.000000 0.000000
vt -0.004487 -0.001000 0.000000
vt 0.000000 -0.001000 0.000000
vt -0.004487 -0.000000 0.000000
vt 0.000000 0.000000 0.000000
vt -0.050000 -0.001000 0.000000
vt 0.000000 -0.001000 0.000000
vt -0.050000 -0.000000 0.000000
vt 0.000000 0.000000 0.000000
vt -0.009245 -0.001000 0.000000
vt -0.000000 -0.001000 0.000000
vt -0.009245 0.000000 0.000000
vt -0.000000 0.000000 0.000000
vt -0.020632 -0.048077 0.000000
vt -0.020632 -0.040385 0.000000
vt -0.025760 -0.045142 0.000000
vt -0.025760 -0.035897 0.000000
vt 0.024240 -0.035897 0.000000
vt 0.024240 -0.040385 0.000000
vt 0.020632 -0.048077 0.000000
vt 0.025760 -0.045142 0.000000
vt 0.020632 -0.040385 0.000000
vt 0.025760 -0.035897 0.000000
vt -0.024240 -0.035897 0.000000
vt -0.024240 -0.040385 0.000000
vn -0.000000 -0.709804 -0.704399
vn -0.000000 -0.709804 -0.704399
vn -0.000000 -0.709804 -0.704399
vn -0.000000 -0.709804 -0.704399
vn 0.000000 -0.258819 0.965926
vn 0.000000 -0.258819 0.965926
vn 0.000000 -0.258819 0.965926
vn 0.000000 -0.258819 0.965926
vn -0.000000 -0.965926 -0.258819
vn -0.000000 -0.965926 -0.258819
vn -0.000000 -0.965926 -0.258819
vn -0.000000 -0.965926 -0.258819
vn 0.000000 -0.258819 0.965926
vn 0.000000 -0.258819 0.965926
vn 0.000000 -0.258819 0.965926
vn 0.000000 -0.258819 0.965926
vn 0.000000 0.965926 0.258819
vn 0.000000 0.965926 0.258819
vn 0.000000 0.965926 0.258819
vn 0.000000 0.965926 0.258819
vn -0.000000 0.258819 -0.965926
vn -0.000000 0.258819 -0.965926
vn -0.000000 0.258819 -0.965926
vn -0.000000 0.258819 -0.965926
vn -1.000000 -0.000000 0.000000
vn -1.000000 -0.000000 0.000000
vn -1.000000 -0.000000 0.000000
vn -1.000000 -0.000000 0.000000
vn -1.000000 -0.000000 0.000000
vn -1.000000 -0.000000 0.000000
vn 1.000000 0.000000 -0.000000
vn 1.000000 0.000000 -0.000000
vn 1.000000 0.000000 -0.000000
vn 1.000000 0.000000 -0.000000
vn 1.000000 0.000000 -0.000000
vn 1.000000 0.000000 -0.000000
usemtl Opaque(202,209,238)
f 1/1/1 2/2/2 4/3/3
f 4/3/3 2/2/2 3/4/4
f 2/5/5 5/6/6 3/7/7
f 3/7/7 5/6/6 6/8/8
f 5/9/9 7/10/10 6/11/11
f 6/11/11 7/10/10 8/12/12
f 7/13/13 9/14/14 8/15/15
f 8/15/15 9/14/14 10/16/16
f 9/17/17 11/18/18 10/19/19
f 10/19/19 11/18/18 12/20/20
f 11/21/21 1/22/22 12/23/23
f 12/23/23 1/22/22 4/24/24
f 3/25/25 6/26/26 4/27/27
f 4/27/27 6/26/26 12/28/28
f 12/28/28 6/26/26 10/29/29
f 10/29/29 6/26/26 8/30/30
f 2/31/31 1/32/32 5/33/33
f 5/33/33 1/32/32 11/34/34
f 5/33/33 11/34/34 9/35/35
f 9/35/35 7/36/36 5/33/33
# 12 vertices
# 36 texture params
# 36 normals
# 20 facets

# 1 groups
