# WaveFront *.obj file (generated by Autodesk ATF)

mtllib body45_visual.mtl

g Body45

v -27.230000 2.966832 -4.219091
v -27.230000 2.899217 -4.237208
v -27.480000 2.899217 -4.237208
v -27.480000 2.966832 -4.219091
v -27.230000 2.984950 -4.286706
v -27.480000 2.984950 -4.286706
v -27.230000 2.917335 -4.304823
v -27.480000 2.917335 -4.304823
v -27.230000 2.892332 -4.404697
v -27.230000 2.843342 -4.376413
v -27.480000 2.843342 -4.376413
v -27.480000 2.892332 -4.404697
v -27.230000 3.056540 -4.360698
v -27.480000 3.056540 -4.360698
v -27.230000 3.084824 -4.311708
v -27.480000 3.084824 -4.311708
v -27.230000 3.040825 -4.147501
v -27.480000 3.040825 -4.147501
v -27.230000 2.991835 -4.119217
v -27.480000 2.991835 -4.119217
v -27.230000 2.827627 -4.163216
v -27.480000 2.827627 -4.163216
v -27.230000 2.799343 -4.212206
v -27.480000 2.799343 -4.212206
vt -0.000000 0.000000 0.000000
vt 0.070000 -0.000000 0.000000
vt 0.000000 0.250000 0.000000
vt 0.070000 0.250000 0.000000
vt 0.000000 0.000000 0.000000
vt 0.070000 -0.000000 0.000000
vt 0.000000 0.250000 0.000000
vt 0.070000 0.250000 0.000000
vt 0.000000 0.000000 0.000000
vt 0.070000 0.000000 0.000000
vt 0.000000 0.250000 0.000000
vt 0.070000 0.250000 0.000000
vt 0.000000 0.000000 0.000000
vt 0.070000 0.000000 0.000000
vt -0.000000 0.250000 0.000000
vt 0.070000 0.250000 0.000000
vt 0.000000 0.000000 0.000000
vt 0.056569 -0.000000 0.000000
vt -0.000000 0.250000 0.000000
vt 0.056569 0.250000 0.000000
vt -0.000000 0.000000 0.000000
vt 0.170000 0.000000 0.000000
vt -0.000000 0.250000 0.000000
vt 0.170000 0.250000 0.000000
vt 0.000000 0.000000 0.000000
vt 0.056569 0.000000 0.000000
vt -0.000000 0.250000 0.000000
vt 0.056569 0.250000 0.000000
vt 0.000000 0.000000 0.000000
vt 0.170000 -0.000000 0.000000
vt 0.000000 0.250000 0.000000
vt 0.170000 0.250000 0.000000
vt 0.000000 0.000000 0.000000
vt 0.056569 0.000000 0.000000
vt -0.000000 0.250000 0.000000
vt 0.056569 0.250000 0.000000
vt 0.000000 0.000000 0.000000
vt 0.170000 0.000000 0.000000
vt 0.000000 0.250000 0.000000
vt 0.170000 0.250000 0.000000
vt 0.000000 0.000000 0.000000
vt 0.056569 -0.000000 0.000000
vt -0.000000 0.250000 0.000000
vt 0.056569 0.250000 0.000000
vt 0.000000 0.000000 0.000000
vt 0.170000 -0.000000 0.000000
vt 0.000000 0.250000 0.000000
vt 0.170000 0.250000 0.000000
vt 0.035000 0.035000 0.000000
vt -0.085000 0.125000 0.000000
vt -0.035000 0.035000 0.000000
vt -0.125000 0.085000 0.000000
vt -0.125000 -0.085000 0.000000
vt 0.035000 -0.035000 0.000000
vt 0.125000 -0.085000 0.000000
vt 0.125000 0.085000 0.000000
vt 0.085000 0.125000 0.000000
vt 0.085000 -0.125000 0.000000
vt -0.035000 -0.035000 0.000000
vt -0.085000 -0.125000 0.000000
vt 0.035000 0.035000 0.000000
vt -0.085000 0.125000 0.000000
vt -0.035000 0.035000 0.000000
vt -0.125000 0.085000 0.000000
vt -0.125000 -0.085000 0.000000
vt 0.035000 -0.035000 0.000000
vt 0.125000 -0.085000 0.000000
vt 0.125000 0.085000 0.000000
vt 0.085000 0.125000 0.000000
vt 0.085000 -0.125000 0.000000
vt -0.035000 -0.035000 0.000000
vt -0.085000 -0.125000 0.000000
vn 0.000000 0.258819 -0.965926
vn 0.000000 0.258819 -0.965926
vn 0.000000 0.258819 -0.965926
vn 0.000000 0.258819 -0.965926
vn -0.000000 -0.965926 -0.258819
vn -0.000000 -0.965926 -0.258819
vn -0.000000 -0.965926 -0.258819
vn -0.000000 -0.965926 -0.258819
vn -0.000000 -0.258819 0.965926
vn -0.000000 -0.258819 0.965926
vn -0.000000 -0.258819 0.965926
vn -0.000000 -0.258819 0.965926
vn 0.000000 0.965926 0.258819
vn 0.000000 0.965926 0.258819
vn 0.000000 0.965926 0.258819
vn 0.000000 0.965926 0.258819
vn 0.000000 -0.500000 -0.866025
vn 0.000000 -0.500000 -0.866025
vn 0.000000 -0.500000 -0.866025
vn 0.000000 -0.500000 -0.866025
vn 0.000000 0.258819 -0.965926
vn 0.000000 0.258819 -0.965926
vn 0.000000 0.258819 -0.965926
vn 0.000000 0.258819 -0.965926
vn 0.000000 0.866025 -0.500000
vn 0.000000 0.866025 -0.500000
vn 0.000000 0.866025 -0.500000
vn 0.000000 0.866025 -0.500000
vn 0.000000 0.965926 0.258819
vn 0.000000 0.965926 0.258819
vn 0.000000 0.965926 0.258819
vn 0.000000 0.965926 0.258819
vn -0.000000 0.500000 0.866025
vn -0.000000 0.500000 0.866025
vn -0.000000 0.500000 0.866025
vn -0.000000 0.500000 0.866025
vn -0.000000 -0.258819 0.965926
vn -0.000000 -0.258819 0.965926
vn -0.000000 -0.258819 0.965926
vn -0.000000 -0.258819 0.965926
vn -0.000000 -0.866025 0.500000
vn -0.000000 -0.866025 0.500000
vn -0.000000 -0.866025 0.500000
vn -0.000000 -0.866025 0.500000
vn -0.000000 -0.965926 -0.258819
vn -0.000000 -0.965926 -0.258819
vn -0.000000 -0.965926 -0.258819
vn -0.000000 -0.965926 -0.258819
vn -1.000000 0.000000 -0.000000
vn -1.000000 0.000000 -0.000000
vn -1.000000 0.000000 -0.000000
vn -1.000000 0.000000 -0.000000
vn -1.000000 0.000000 -0.000000
vn -1.000000 0.000000 -0.000000
vn -1.000000 0.000000 -0.000000
vn -1.000000 0.000000 -0.000000
vn -1.000000 0.000000 -0.000000
vn -1.000000 0.000000 -0.000000
vn -1.000000 0.000000 -0.000000
vn -1.000000 0.000000 -0.000000
vn 1.000000 -0.000000 0.000000
vn 1.000000 -0.000000 0.000000
vn 1.000000 -0.000000 0.000000
vn 1.000000 -0.000000 0.000000
vn 1.000000 -0.000000 0.000000
vn 1.000000 -0.000000 0.000000
vn 1.000000 -0.000000 0.000000
vn 1.000000 -0.000000 0.000000
vn 1.000000 -0.000000 0.000000
vn 1.000000 -0.000000 0.000000
vn 1.000000 -0.000000 0.000000
vn 1.000000 -0.000000 0.000000
usemtl Polycarbonate_(Clear)
f 1/1/1 2/2/2 4/3/3
f 4/3/3 2/2/2 3/4/4
f 5/5/5 1/6/6 6/7/7
f 6/7/7 1/6/6 4/8/8
f 7/9/9 5/10/10 8/11/11
f 8/11/11 5/10/10 6/12/12
f 2/13/13 7/14/14 3/15/15
f 3/15/15 7/14/14 8/16/16
f 9/17/17 10/18/18 12/19/19
f 12/19/19 10/18/18 11/20/20
f 13/21/21 9/22/22 14/23/23
f 14/23/23 9/22/22 12/24/24
f 15/25/25 13/26/26 16/27/27
f 16/27/27 13/26/26 14/28/28
f 17/29/29 15/30/30 18/31/31
f 18/31/31 15/30/30 16/32/32
f 19/33/33 17/34/34 20/35/35
f 20/35/35 17/34/34 18/36/36
f 21/37/37 19/38/38 22/39/39
f 22/39/39 19/38/38 20/40/40
f 23/41/41 21/42/42 24/43/43
f 24/43/43 21/42/42 22/44/44
f 10/45/45 23/46/46 11/47/47
f 11/47/47 23/46/46 24/48/48
f 8/49/49 24/50/50 3/51/51
f 3/51/51 24/50/50 22/52/52
f 3/51/51 22/52/52 20/53/53
f 6/54/54 14/55/55 8/49/49
f 8/49/49 14/55/55 12/56/56
f 8/49/49 12/56/56 11/57/57
f 14/55/55 6/54/54 16/58/58
f 16/58/58 6/54/54 4/59/59
f 16/58/58 4/59/59 18/60/60
f 18/60/60 4/59/59 20/53/53
f 20/53/53 4/59/59 3/51/51
f 11/57/57 24/50/50 8/49/49
f 2/61/61 10/62/62 7/63/63
f 7/63/63 10/62/62 9/64/64
f 7/63/63 9/64/64 13/65/65
f 1/66/66 19/67/67 2/61/61
f 2/61/61 19/67/67 21/68/68
f 2/61/61 21/68/68 23/69/69
f 19/67/67 1/66/66 17/70/70
f 17/70/70 1/66/66 5/71/71
f 17/70/70 5/71/71 15/72/72
f 15/72/72 5/71/71 13/65/65
f 13/65/65 5/71/71 7/63/63
f 23/69/69 10/62/62 2/61/61
# 24 vertices
# 72 texture params
# 72 normals
# 48 facets

# 1 groups
