# WaveFront *.obj file (generated by Autodesk ATF)

mtllib body81_visual.mtl

g Body81

v -27.297463 2.351573 -1.262487
v -27.240363 2.351573 -1.262487
v -27.240363 2.351220 -1.261168
v -27.297463 2.351220 -1.261168
v -27.297463 2.237610 -1.417256
v -27.240363 2.237610 -1.417256
v -27.240363 2.237894 -1.418313
v -27.297463 2.237894 -1.418313
v -27.297463 2.206552 -1.301345
v -27.240363 2.206552 -1.301345
v -27.297773 2.351597 -1.262480
v -27.298076 2.351666 -1.262462
v -27.298363 2.351780 -1.262431
v -27.298363 2.206345 -1.301400
v -27.298076 2.206459 -1.301370
v -27.297773 2.206529 -1.301351
v -27.297463 2.382632 -1.378398
v -27.240363 2.382632 -1.378398
v -27.297773 2.237587 -1.417262
v -27.298076 2.237518 -1.417281
v -27.298363 2.237404 -1.417311
v -27.298363 2.382838 -1.378342
v -27.298076 2.382724 -1.378373
v -27.297773 2.382655 -1.378391
v -27.238363 2.235444 -1.416899
v -27.238363 2.235161 -1.415842
v -27.238363 2.384046 -1.375948
v -27.238363 2.384399 -1.377267
v -27.238363 2.415587 -1.368910
v -27.238363 2.384858 -1.254225
v -27.238363 2.353669 -1.262582
v -27.238363 2.354023 -1.263901
v -27.238363 2.205138 -1.303794
v -27.238363 2.204714 -1.302214
v -27.238363 2.173526 -1.310571
v -27.238363 2.204256 -1.425256
v -27.297463 2.206128 -1.299764
v -27.240363 2.206128 -1.299764
v -27.240363 2.204773 -1.427188
v -27.297463 2.204773 -1.427188
v -27.297463 2.173008 -1.308639
v -27.240363 2.173008 -1.308639
v -27.297463 2.202324 -1.425774
v -27.240363 2.202324 -1.425774
v -27.240363 2.171594 -1.311088
v -27.297463 2.171594 -1.311088
v -27.299463 2.235444 -1.416899
v -27.299463 2.204256 -1.425256
v -27.299463 2.173526 -1.310571
v -27.299463 2.204714 -1.302214
v -27.297463 2.382985 -1.379717
v -27.240363 2.382985 -1.379717
v -27.240363 2.384340 -1.252293
v -27.297463 2.384340 -1.252293
v -27.297463 2.416105 -1.370842
v -27.240363 2.416105 -1.370842
v -27.297463 2.386789 -1.253707
v -27.240363 2.386789 -1.253707
v -27.240363 2.417519 -1.368393
v -27.297463 2.417519 -1.368393
v -27.299463 2.384399 -1.377267
v -27.299463 2.353669 -1.262582
v -27.299463 2.384858 -1.254225
v -27.299463 2.415587 -1.368910
v -27.298463 2.384409 -1.252552
v -27.299195 2.384599 -1.253259
v -27.299311 2.352732 -1.262041
v -27.298877 2.351937 -1.261582
v -27.298229 2.351406 -1.261275
v -27.297853 2.351267 -1.261195
v -27.298463 2.367849 -1.256989
v -27.299195 2.368039 -1.257696
v -27.298463 2.386531 -1.253777
v -27.299195 2.385824 -1.253966
v -27.297463 2.385375 -1.252293
v -27.297463 2.386272 -1.252811
v -27.299195 2.385565 -1.253518
v -27.298463 2.386082 -1.253000
v -27.298463 2.385306 -1.252552
v -27.299195 2.385116 -1.253259
v -27.299311 2.383858 -1.378205
v -27.298877 2.383399 -1.378999
v -27.298229 2.383093 -1.379530
v -27.297853 2.383012 -1.379670
v -27.298463 2.356773 -1.280856
v -27.298463 2.362067 -1.300615
v -27.298463 2.367361 -1.320373
v -27.298463 2.372655 -1.340131
v -27.298463 2.377950 -1.359889
v -27.299195 2.357480 -1.280667
v -27.299195 2.362774 -1.300425
v -27.299195 2.368068 -1.320183
v -27.299195 2.373362 -1.339941
v -27.299195 2.378657 -1.359700
v -27.239973 2.351620 -1.262514
v -27.239598 2.351760 -1.262594
v -27.238949 2.352291 -1.262901
v -27.238515 2.353085 -1.263360
v -27.238515 2.352732 -1.262041
v -27.238949 2.351937 -1.261582
v -27.239598 2.351406 -1.261275
v -27.239973 2.351267 -1.261195
v -27.238631 2.384599 -1.253259
v -27.239363 2.384409 -1.252552
v -27.239363 2.367849 -1.256989
v -27.238631 2.368039 -1.257696
v -27.240363 2.385375 -1.252293
v -27.240363 2.386272 -1.252811
v -27.278430 2.386272 -1.252811
v -27.259397 2.386272 -1.252811
v -27.278430 2.385375 -1.252293
v -27.259397 2.385375 -1.252293
v -27.298463 2.417260 -1.368462
v -27.299195 2.416553 -1.368651
v -27.299195 2.390945 -1.273080
v -27.299195 2.396067 -1.292194
v -27.299195 2.401188 -1.311309
v -27.299195 2.406310 -1.330423
v -27.299195 2.411432 -1.349537
v -27.298463 2.391652 -1.272891
v -27.298463 2.396774 -1.292005
v -27.298463 2.401896 -1.311119
v -27.298463 2.407017 -1.330233
v -27.298463 2.412139 -1.349348
v -27.299195 2.415846 -1.369876
v -27.298463 2.416036 -1.370583
v -27.298463 2.399476 -1.375021
v -27.299195 2.399286 -1.374313
v -27.299195 2.173267 -1.309605
v -27.298463 2.173078 -1.308898
v -27.297853 2.206101 -1.299811
v -27.298229 2.206021 -1.299951
v -27.298877 2.205714 -1.300482
v -27.299311 2.205255 -1.301276
v -27.299195 2.189827 -1.305167
v -27.298463 2.189638 -1.304460
v -27.239973 2.206525 -1.301392
v -27.239598 2.206444 -1.301531
v -27.238949 2.206138 -1.302062
v -27.238515 2.205679 -1.302857
v -27.238631 2.332495 -1.268634
v -27.238631 2.311225 -1.274333
v -27.238631 2.289956 -1.280032
v -27.238631 2.268687 -1.285731
v -27.238631 2.247418 -1.291430
v -27.238631 2.226148 -1.297129
v -27.239363 2.332305 -1.267927
v -27.239363 2.311036 -1.273626
v -27.239363 2.289767 -1.279325
v -27.239363 2.268497 -1.285024
v -27.239363 2.247228 -1.290723
v -27.239363 2.225959 -1.296422
v -27.238631 2.385824 -1.253966
v -27.239363 2.386531 -1.253777
v -27.239497 2.385435 -1.252517
v -27.239863 2.386306 -1.252940
v -27.238863 2.385599 -1.253130
v -27.239497 2.386401 -1.253294
v -27.297463 2.417519 -1.369428
v -27.297463 2.417002 -1.370324
v -27.298329 2.416942 -1.370100
v -27.297963 2.417485 -1.369298
v -27.298963 2.416778 -1.369488
v -27.298329 2.417390 -1.368945
v -27.297853 2.237847 -1.418286
v -27.298229 2.237707 -1.418206
v -27.298877 2.237176 -1.417899
v -27.299311 2.236382 -1.417440
v -27.298463 2.232341 -1.398625
v -27.298463 2.227046 -1.378866
v -27.298463 2.221752 -1.359108
v -27.298463 2.216458 -1.339350
v -27.298463 2.211164 -1.319592
v -27.299195 2.231634 -1.398814
v -27.299195 2.226339 -1.379056
v -27.299195 2.221045 -1.359298
v -27.299195 2.215751 -1.339539
v -27.299195 2.210457 -1.319781
v -27.297463 2.171594 -1.310053
v -27.297463 2.172112 -1.309156
v -27.299195 2.172560 -1.310829
v -27.298463 2.171853 -1.311019
v -27.298329 2.172172 -1.309381
v -27.297963 2.171629 -1.310182
v -27.298963 2.172336 -1.309993
v -27.298329 2.171724 -1.310536
v -27.239973 2.206101 -1.299811
v -27.239598 2.206021 -1.299951
v -27.238949 2.205714 -1.300482
v -27.238515 2.205255 -1.301276
v -27.238631 2.416553 -1.368651
v -27.239363 2.417260 -1.368462
v -27.239363 2.391652 -1.272891
v -27.239363 2.396774 -1.292005
v -27.239363 2.401896 -1.311119
v -27.239363 2.407017 -1.330233
v -27.239363 2.412139 -1.349348
v -27.238631 2.390945 -1.273080
v -27.238631 2.396067 -1.292194
v -27.238631 2.401188 -1.311309
v -27.238631 2.406310 -1.330423
v -27.238631 2.411432 -1.349537
v -27.240363 2.417519 -1.369428
v -27.240363 2.417002 -1.370324
v -27.278430 2.417002 -1.370324
v -27.259397 2.417002 -1.370324
v -27.278430 2.417519 -1.369428
v -27.259397 2.417519 -1.369428
v -27.298463 2.204704 -1.426929
v -27.299195 2.204515 -1.426222
v -27.299195 2.221075 -1.421785
v -27.298463 2.221264 -1.422492
v -27.299195 2.203290 -1.425515
v -27.298463 2.202583 -1.425704
v -27.298463 2.176975 -1.330133
v -27.298463 2.182096 -1.349247
v -27.298463 2.187218 -1.368362
v -27.298463 2.192339 -1.387476
v -27.298463 2.197461 -1.406590
v -27.299195 2.177682 -1.329944
v -27.299195 2.182803 -1.349058
v -27.299195 2.187925 -1.368172
v -27.299195 2.193047 -1.387286
v -27.299195 2.198168 -1.406401
v -27.240363 2.171594 -1.310053
v -27.240363 2.172112 -1.309156
v -27.278430 2.172112 -1.309156
v -27.259397 2.172112 -1.309156
v -27.278430 2.171594 -1.310053
v -27.259397 2.171594 -1.310053
v -27.239363 2.173078 -1.308898
v -27.238631 2.173267 -1.309605
v -27.238631 2.189827 -1.305167
v -27.239363 2.189638 -1.304460
v -27.238631 2.415846 -1.369876
v -27.239363 2.416036 -1.370583
v -27.239497 2.417295 -1.369488
v -27.239863 2.416872 -1.370359
v -27.238863 2.416683 -1.369652
v -27.239497 2.416519 -1.370454
v -27.297463 2.203738 -1.427188
v -27.297463 2.202842 -1.426670
v -27.298963 2.203514 -1.426351
v -27.298329 2.202712 -1.426187
v -27.298329 2.203678 -1.426964
v -27.297963 2.202807 -1.426541
v -27.239363 2.171853 -1.311019
v -27.238631 2.172560 -1.310829
v -27.238863 2.172336 -1.309993
v -27.239497 2.171724 -1.310536
v -27.239497 2.172172 -1.309381
v -27.239863 2.171629 -1.310182
v -27.238515 2.383858 -1.378205
v -27.238949 2.383399 -1.378999
v -27.239598 2.383093 -1.379530
v -27.239973 2.383012 -1.379670
v -27.239363 2.399476 -1.375021
v -27.238631 2.399286 -1.374313
v -27.240363 2.203738 -1.427188
v -27.240363 2.202842 -1.426670
v -27.278430 2.202842 -1.426670
v -27.259397 2.202842 -1.426670
v -27.278430 2.203738 -1.427188
v -27.259397 2.203738 -1.427188
v -27.239363 2.202583 -1.425704
v -27.238631 2.203290 -1.425515
v -27.238631 2.177682 -1.329944
v -27.238631 2.182803 -1.349058
v -27.238631 2.187925 -1.368172
v -27.238631 2.193047 -1.387286
v -27.238631 2.198168 -1.406401
v -27.239363 2.176975 -1.330133
v -27.239363 2.182096 -1.349247
v -27.239363 2.187218 -1.368362
v -27.239363 2.192339 -1.387476
v -27.239363 2.197461 -1.406590
v -27.238515 2.383505 -1.376886
v -27.238949 2.383046 -1.377680
v -27.239598 2.382739 -1.378211
v -27.239973 2.382659 -1.378351
v -27.239363 2.204704 -1.426929
v -27.238631 2.204515 -1.426222
v -27.238863 2.203678 -1.426446
v -27.239497 2.204221 -1.427058
v -27.239497 2.203066 -1.426610
v -27.239863 2.203868 -1.427153
v -27.238515 2.236098 -1.416383
v -27.238949 2.236893 -1.416842
v -27.239598 2.237424 -1.417148
v -27.239973 2.237563 -1.417229
v -27.239363 2.363225 -1.383320
v -27.239363 2.341955 -1.389019
v -27.239363 2.320686 -1.394718
v -27.239363 2.299417 -1.400417
v -27.239363 2.278148 -1.406117
v -27.239363 2.256878 -1.411816
v -27.238631 2.363035 -1.382613
v -27.238631 2.341766 -1.388312
v -27.238631 2.320497 -1.394011
v -27.238631 2.299227 -1.399710
v -27.238631 2.277958 -1.405409
v -27.238631 2.256689 -1.411109
v -27.239973 2.237847 -1.418286
v -27.239598 2.237707 -1.418206
v -27.238949 2.237176 -1.417899
v -27.238515 2.236382 -1.417440
v -27.238631 2.221075 -1.421785
v -27.239363 2.221264 -1.422492
vt 0.121366 -0.188183 0.000000
vt 0.122731 -0.188183 0.000000
vt 0.121366 -0.131083 0.000000
vt 0.122731 -0.131083 0.000000
vt -0.001095 -0.188183 0.000000
vt 0.000000 -0.188183 0.000000
vt -0.001095 -0.131083 0.000000
vt -0.000000 -0.131083 0.000000
vt -0.185069 -0.058000 0.000000
vt -0.034931 -0.058000 0.000000
vt -0.185069 -0.000900 0.000000
vt -0.034931 -0.000900 0.000000
vt -0.185093 -0.000590 0.000000
vt -0.034907 -0.000590 0.000000
vt -0.185165 -0.000288 0.000000
vt -0.034835 -0.000288 0.000000
vt -0.185282 -0.000000 0.000000
vt -0.034718 -0.000000 0.000000
vt 0.034931 -0.058000 0.000000
vt 0.185069 -0.058000 0.000000
vt 0.034931 -0.000900 0.000000
vt 0.185069 -0.000900 0.000000
vt 0.034907 -0.000590 0.000000
vt 0.185093 -0.000590 0.000000
vt 0.034835 -0.000288 0.000000
vt 0.185165 -0.000288 0.000000
vt 0.034718 -0.000000 0.000000
vt 0.185282 0.000000 0.000000
vt 0.060000 0.075282 0.000000
vt -0.060000 0.075282 0.000000
vt 0.060000 -0.075282 0.000000
vt -0.060000 -0.075282 0.000000
vt 0.059095 -0.077069 0.000000
vt 0.058000 -0.077069 0.000000
vt 0.059095 -0.109357 0.000000
vt -0.058000 -0.077069 0.000000
vt -0.059636 -0.109357 0.000000
vt -0.059636 -0.077069 0.000000
vt -0.058000 0.077069 0.000000
vt 0.058000 0.077069 0.000000
vt -0.059366 0.109357 0.000000
vt 0.059366 0.109357 0.000000
vt 0.059366 0.077069 0.000000
vt -0.059366 0.077069 0.000000
vt -0.122731 -0.188183 0.000000
vt -0.121095 -0.188183 0.000000
vt -0.122731 -0.131083 0.000000
vt -0.121095 -0.131083 0.000000
vt -0.036289 -0.188183 0.000000
vt -0.002000 -0.188183 0.000000
vt -0.036289 -0.131083 0.000000
vt -0.002000 -0.131083 0.000000
vt 0.002000 -0.188183 0.000000
vt 0.036289 -0.188183 0.000000
vt 0.002000 -0.131083 0.000000
vt 0.036289 -0.131083 0.000000
vt 0.002000 -0.188183 0.000000
vt 0.120731 -0.188183 0.000000
vt 0.002000 -0.131083 0.000000
vt 0.120731 -0.131083 0.000000
vt -0.059095 -0.109357 0.000000
vt 0.059636 -0.109357 0.000000
vt -0.059095 -0.077069 0.000000
vt 0.059636 -0.077069 0.000000
vt 0.000000 -0.188183 0.000000
vt 0.001366 -0.188183 0.000000
vt 0.000000 -0.131083 0.000000
vt 0.001366 -0.131083 0.000000
vt -0.036289 -0.188183 0.000000
vt -0.002000 -0.188183 0.000000
vt -0.036289 -0.131083 0.000000
vt -0.002000 -0.131083 0.000000
vt 0.002000 -0.188183 0.000000
vt 0.036289 -0.188183 0.000000
vt 0.002000 -0.131083 0.000000
vt 0.036289 -0.131083 0.000000
vt -0.120731 -0.188183 0.000000
vt -0.002000 -0.188183 0.000000
vt -0.120731 -0.131083 0.000000
vt -0.002000 -0.131083 0.000000
vt -0.059366 0.077069 0.000000
vt 0.059366 0.077069 0.000000
vt -0.059366 0.109357 0.000000
vt 0.059366 0.109357 0.000000
vt -0.002000 0.001047 0.000000
vt -0.019144 0.001047 0.000000
vt -0.002000 0.000000 0.000000
vt -0.036250 0.000393 0.000000
vt -0.036289 0.000000 0.000000
vt -0.019144 0.002094 0.000000
vt -0.002000 0.002094 0.000000
vt -0.002000 0.003142 0.000000
vt -0.034289 0.003142 0.000000
vt -0.035054 0.002356 0.000000
vt -0.035703 0.001571 0.000000
vt -0.036136 0.000785 0.000000
vt -0.000000 -0.000000 0.000000
vt -0.001047 0.000000 0.000000
vt -0.000000 -0.000740 0.000000
vt -0.001047 -0.000740 0.000000
vt -0.000000 -0.001481 0.000000
vt -0.001047 -0.001481 0.000000
vt -0.000000 -0.002221 0.000000
vt -0.001047 -0.002221 0.000000
vt -0.002094 -0.001481 0.000000
vt -0.002094 -0.002221 0.000000
vt -0.003142 -0.001481 0.000000
vt -0.002094 -0.000000 0.000000
vt -0.002094 -0.000740 0.000000
vt -0.003142 -0.000000 0.000000
vt -0.003142 -0.000740 0.000000
vt 0.121366 0.000000 0.000000
vt 0.122731 0.000000 0.000000
vt 0.121366 0.000311 0.000000
vt 0.122693 0.000393 0.000000
vt 0.121366 0.000622 0.000000
vt 0.122579 0.000785 0.000000
vt 0.121366 0.000934 0.000000
vt 0.122145 0.001571 0.000000
vt 0.102276 0.001047 0.000000
vt 0.102276 0.002094 0.000000
vt 0.081821 0.002094 0.000000
vt 0.121496 0.002356 0.000000
vt 0.002000 0.003142 0.000000
vt 0.120731 0.003142 0.000000
vt 0.001235 0.002356 0.000000
vt 0.020455 0.002094 0.000000
vt 0.040910 0.002094 0.000000
vt 0.061366 0.002094 0.000000
vt 0.061366 0.001047 0.000000
vt 0.081821 0.001047 0.000000
vt 0.000586 0.001571 0.000000
vt 0.020455 0.001047 0.000000
vt 0.040910 0.001047 0.000000
vt 0.001366 0.000934 0.000000
vt 0.000152 0.000785 0.000000
vt 0.001366 0.000622 0.000000
vt 0.000038 0.000393 0.000000
vt 0.001366 0.000311 0.000000
vt 0.000000 -0.000000 0.000000
vt 0.001366 0.000000 0.000000
vt 0.122731 0.000000 0.000000
vt 0.121366 0.000000 0.000000
vt 0.122693 -0.000393 0.000000
vt 0.121327 -0.000393 0.000000
vt 0.122579 -0.000785 0.000000
vt 0.121213 -0.000785 0.000000
vt 0.122145 -0.001571 0.000000
vt 0.120780 -0.001571 0.000000
vt 0.121496 -0.002356 0.000000
vt 0.120131 -0.002356 0.000000
vt 0.120731 -0.003142 0.000000
vt 0.119366 -0.003142 0.000000
vt -0.002000 0.000000 0.000000
vt -0.036289 0.000000 0.000000
vt -0.019144 -0.001047 0.000000
vt -0.036250 -0.000393 0.000000
vt -0.036136 -0.000785 0.000000
vt -0.035703 -0.001571 0.000000
vt -0.019144 -0.002094 0.000000
vt -0.002000 -0.002094 0.000000
vt -0.002000 -0.003142 0.000000
vt -0.035054 -0.002356 0.000000
vt -0.034289 -0.003142 0.000000
vt -0.002000 -0.001047 0.000000
vt -0.131083 0.004189 0.000000
vt -0.150117 0.004189 0.000000
vt -0.131083 0.003142 0.000000
vt -0.169150 0.004189 0.000000
vt -0.188183 0.003142 0.000000
vt -0.188183 0.004189 0.000000
vt -0.188183 0.005236 0.000000
vt -0.169150 0.005236 0.000000
vt -0.188183 0.006283 0.000000
vt -0.150117 0.005236 0.000000
vt -0.131083 0.006283 0.000000
vt -0.131083 0.005236 0.000000
vt -0.120731 0.002094 0.000000
vt -0.100943 0.002094 0.000000
vt -0.120731 0.003142 0.000000
vt -0.081154 0.002094 0.000000
vt -0.061366 0.002094 0.000000
vt -0.061366 0.001047 0.000000
vt -0.041577 0.001047 0.000000
vt -0.002000 0.000000 0.000000
vt -0.021789 0.001047 0.000000
vt -0.002000 0.001047 0.000000
vt -0.021789 0.002094 0.000000
vt -0.002000 0.002094 0.000000
vt -0.002000 0.003142 0.000000
vt -0.100943 0.001047 0.000000
vt -0.120731 0.001047 0.000000
vt -0.120731 0.000000 0.000000
vt -0.081154 0.001047 0.000000
vt -0.041577 0.002094 0.000000
vt 0.002000 -0.000000 0.000000
vt 0.036289 -0.000000 0.000000
vt 0.019144 0.001047 0.000000
vt 0.036250 0.000393 0.000000
vt 0.036136 0.000785 0.000000
vt 0.035703 0.001571 0.000000
vt 0.019144 0.002094 0.000000
vt 0.002000 0.002094 0.000000
vt 0.002000 0.003142 0.000000
vt 0.035054 0.002356 0.000000
vt 0.034289 0.003142 0.000000
vt 0.002000 0.001047 0.000000
vt 0.002000 0.002094 0.000000
vt 0.019144 0.002094 0.000000
vt 0.002000 0.003142 0.000000
vt 0.035054 0.002356 0.000000
vt 0.034289 0.003142 0.000000
vt 0.019144 0.001047 0.000000
vt 0.002000 0.001047 0.000000
vt 0.002000 0.000000 0.000000
vt 0.036289 0.000000 0.000000
vt 0.036250 0.000393 0.000000
vt 0.036136 0.000785 0.000000
vt 0.035703 0.001571 0.000000
vt -0.033697 -0.002356 0.000000
vt -0.054951 -0.002094 0.000000
vt -0.032931 -0.003142 0.000000
vt -0.076971 -0.002094 0.000000
vt -0.098990 -0.002094 0.000000
vt -0.098990 -0.001047 0.000000
vt -0.121010 -0.001047 0.000000
vt -0.185069 -0.000000 0.000000
vt -0.143029 -0.001047 0.000000
vt -0.165049 -0.001047 0.000000
vt -0.143029 -0.002094 0.000000
vt -0.165049 -0.002094 0.000000
vt -0.186303 -0.002356 0.000000
vt -0.185654 -0.001571 0.000000
vt -0.185221 -0.000785 0.000000
vt -0.185107 -0.000393 0.000000
vt -0.034346 -0.001571 0.000000
vt -0.054951 -0.001047 0.000000
vt -0.076971 -0.001047 0.000000
vt -0.034893 -0.000393 0.000000
vt -0.034779 -0.000785 0.000000
vt -0.034931 0.000000 0.000000
vt -0.187069 -0.003142 0.000000
vt -0.121010 -0.002094 0.000000
vt -0.003142 -0.001481 0.000000
vt -0.002094 -0.002221 0.000000
vt -0.002094 -0.001481 0.000000
vt -0.001047 -0.002221 0.000000
vt -0.001047 -0.001481 0.000000
vt -0.000000 -0.002221 0.000000
vt -0.000000 -0.001481 0.000000
vt -0.001047 -0.000740 0.000000
vt 0.000000 -0.000740 0.000000
vt -0.001047 0.000000 0.000000
vt 0.000000 0.000000 0.000000
vt -0.002094 -0.000000 0.000000
vt -0.002094 -0.000740 0.000000
vt -0.003142 -0.000000 0.000000
vt -0.003142 -0.000740 0.000000
vt -0.001047 -0.004443 0.000000
vt 0.000000 -0.004443 0.000000
vt -0.001047 -0.003702 0.000000
vt 0.000000 -0.003702 0.000000
vt -0.001047 -0.002962 0.000000
vt -0.000000 -0.002962 0.000000
vt -0.001047 -0.002221 0.000000
vt -0.000000 -0.002221 0.000000
vt -0.002094 -0.002221 0.000000
vt -0.002094 -0.002962 0.000000
vt -0.002094 -0.003702 0.000000
vt -0.002094 -0.004443 0.000000
vt -0.003142 -0.003702 0.000000
vt -0.003142 -0.002221 0.000000
vt -0.003142 -0.002962 0.000000
vt -0.001095 0.000622 0.000000
vt -0.000152 0.000785 0.000000
vt -0.001095 0.000934 0.000000
vt -0.000586 0.001571 0.000000
vt -0.020455 0.001047 0.000000
vt -0.020455 0.002094 0.000000
vt -0.040910 0.002094 0.000000
vt -0.001235 0.002356 0.000000
vt -0.120731 0.003142 0.000000
vt -0.002000 0.003142 0.000000
vt -0.000038 0.000393 0.000000
vt -0.001095 0.000311 0.000000
vt 0.000000 0.000000 0.000000
vt -0.001095 0.000000 0.000000
vt -0.121496 0.002356 0.000000
vt -0.102276 0.002094 0.000000
vt -0.081821 0.002094 0.000000
vt -0.061366 0.002094 0.000000
vt -0.061366 0.001047 0.000000
vt -0.040910 0.001047 0.000000
vt -0.122145 0.001571 0.000000
vt -0.102276 0.001047 0.000000
vt -0.081821 0.001047 0.000000
vt -0.121095 0.000934 0.000000
vt -0.122579 0.000785 0.000000
vt -0.121095 0.000622 0.000000
vt -0.122693 0.000393 0.000000
vt -0.121095 0.000311 0.000000
vt -0.122731 0.000000 0.000000
vt -0.121095 0.000000 0.000000
vt 0.003142 -0.000740 0.000000
vt 0.002094 -0.000000 0.000000
vt 0.002094 -0.000740 0.000000
vt 0.001047 -0.000000 0.000000
vt 0.001047 -0.000740 0.000000
vt -0.000000 -0.000000 0.000000
vt -0.000000 -0.000740 0.000000
vt 0.001047 -0.001481 0.000000
vt -0.000000 -0.001481 0.000000
vt 0.001047 -0.002221 0.000000
vt -0.000000 -0.002221 0.000000
vt 0.002094 -0.002221 0.000000
vt 0.002094 -0.001481 0.000000
vt 0.003142 -0.002221 0.000000
vt 0.003142 -0.001481 0.000000
vt -0.119095 -0.003142 0.000000
vt -0.119860 -0.002356 0.000000
vt -0.120731 -0.003142 0.000000
vt -0.121496 -0.002356 0.000000
vt -0.120509 -0.001571 0.000000
vt -0.122145 -0.001571 0.000000
vt -0.120942 -0.000785 0.000000
vt -0.122579 -0.000785 0.000000
vt -0.121056 -0.000393 0.000000
vt -0.122693 -0.000393 0.000000
vt -0.121095 -0.000000 0.000000
vt -0.122731 -0.000000 0.000000
vt -0.120731 -0.001047 0.000000
vt -0.100943 -0.001047 0.000000
vt -0.120731 0.000000 0.000000
vt -0.081154 -0.001047 0.000000
vt -0.061366 -0.001047 0.000000
vt -0.061366 -0.002094 0.000000
vt -0.041577 -0.002094 0.000000
vt -0.002000 -0.003142 0.000000
vt -0.021789 -0.002094 0.000000
vt -0.002000 -0.002094 0.000000
vt -0.021789 -0.001047 0.000000
vt -0.002000 -0.001047 0.000000
vt -0.002000 0.000000 0.000000
vt -0.100943 -0.002094 0.000000
vt -0.120731 -0.002094 0.000000
vt -0.120731 -0.003142 0.000000
vt -0.081154 -0.002094 0.000000
vt -0.041577 -0.001047 0.000000
vt -0.131083 0.001047 0.000000
vt -0.150117 0.001047 0.000000
vt -0.131083 -0.000000 0.000000
vt -0.169150 0.001047 0.000000
vt -0.188183 0.000000 0.000000
vt -0.188183 0.001047 0.000000
vt -0.188183 0.002094 0.000000
vt -0.169150 0.002094 0.000000
vt -0.188183 0.003142 0.000000
vt -0.150117 0.002094 0.000000
vt -0.131083 0.003142 0.000000
vt -0.131083 0.002094 0.000000
vt -0.002000 0.003142 0.000000
vt -0.034289 0.003142 0.000000
vt -0.019144 0.002094 0.000000
vt -0.035054 0.002356 0.000000
vt -0.035703 0.001571 0.000000
vt -0.019144 0.001047 0.000000
vt -0.036136 0.000785 0.000000
vt -0.036250 0.000393 0.000000
vt -0.036289 -0.000000 0.000000
vt -0.002000 -0.000000 0.000000
vt -0.002000 0.001047 0.000000
vt -0.002000 0.002094 0.000000
vt 0.120731 0.001047 0.000000
vt 0.100943 0.001047 0.000000
vt 0.120731 0.000000 0.000000
vt 0.081154 0.001047 0.000000
vt 0.061366 0.001047 0.000000
vt 0.061366 0.002094 0.000000
vt 0.041577 0.002094 0.000000
vt 0.002000 0.003142 0.000000
vt 0.021789 0.002094 0.000000
vt 0.002000 0.002094 0.000000
vt 0.021789 0.001047 0.000000
vt 0.002000 0.001047 0.000000
vt 0.002000 0.000000 0.000000
vt 0.100943 0.002094 0.000000
vt 0.120731 0.002094 0.000000
vt 0.120731 0.003142 0.000000
vt 0.081154 0.002094 0.000000
vt 0.041577 0.001047 0.000000
vt -0.131083 -0.005236 0.000000
vt -0.150117 -0.005236 0.000000
vt -0.131083 -0.006283 0.000000
vt -0.169150 -0.005236 0.000000
vt -0.188183 -0.006283 0.000000
vt -0.188183 -0.005236 0.000000
vt -0.188183 -0.004189 0.000000
vt -0.169150 -0.004189 0.000000
vt -0.188183 -0.003142 0.000000
vt -0.150117 -0.004189 0.000000
vt -0.131083 -0.003142 0.000000
vt -0.131083 -0.004189 0.000000
vt 0.002000 -0.003142 0.000000
vt 0.034289 -0.003142 0.000000
vt 0.019144 -0.002094 0.000000
vt 0.035054 -0.002356 0.000000
vt 0.035703 -0.001571 0.000000
vt 0.019144 -0.001047 0.000000
vt 0.036136 -0.000785 0.000000
vt 0.036250 -0.000393 0.000000
vt 0.036289 0.000000 0.000000
vt 0.002000 0.000000 0.000000
vt 0.002000 -0.001047 0.000000
vt 0.002000 -0.002094 0.000000
vt 0.003142 -0.002962 0.000000
vt 0.002094 -0.002221 0.000000
vt 0.002094 -0.002962 0.000000
vt 0.001047 -0.002221 0.000000
vt 0.001047 -0.002962 0.000000
vt 0.000000 -0.002221 0.000000
vt -0.000000 -0.002962 0.000000
vt 0.001047 -0.003702 0.000000
vt 0.000000 -0.003702 0.000000
vt 0.001047 -0.004443 0.000000
vt 0.000000 -0.004443 0.000000
vt 0.002094 -0.004443 0.000000
vt 0.002094 -0.003702 0.000000
vt 0.003142 -0.004443 0.000000
vt 0.003142 -0.003702 0.000000
vt 0.003142 -0.002962 0.000000
vt 0.002094 -0.002221 0.000000
vt 0.002094 -0.002962 0.000000
vt 0.001047 -0.002221 0.000000
vt 0.001047 -0.002962 0.000000
vt -0.000000 -0.002221 0.000000
vt -0.000000 -0.002962 0.000000
vt 0.001047 -0.003702 0.000000
vt 0.000000 -0.003702 0.000000
vt 0.001047 -0.004443 0.000000
vt 0.000000 -0.004443 0.000000
vt 0.002094 -0.004443 0.000000
vt 0.002094 -0.003702 0.000000
vt 0.003142 -0.004443 0.000000
vt 0.003142 -0.003702 0.000000
vt 0.001047 0.000000 0.000000
vt 0.000000 0.000000 0.000000
vt 0.001047 -0.000740 0.000000
vt 0.000000 -0.000740 0.000000
vt 0.001047 -0.001481 0.000000
vt -0.000000 -0.001481 0.000000
vt 0.001047 -0.002221 0.000000
vt -0.000000 -0.002221 0.000000
vt 0.002094 -0.002221 0.000000
vt 0.002094 -0.001481 0.000000
vt 0.002094 -0.000740 0.000000
vt 0.002094 -0.000000 0.000000
vt 0.003142 -0.000740 0.000000
vt 0.003142 -0.002221 0.000000
vt 0.003142 -0.001481 0.000000
vt 0.002000 -0.001047 0.000000
vt 0.019144 -0.001047 0.000000
vt 0.002000 -0.000000 0.000000
vt 0.036250 -0.000393 0.000000
vt 0.036289 -0.000000 0.000000
vt 0.019144 -0.002094 0.000000
vt 0.002000 -0.002094 0.000000
vt 0.002000 -0.003142 0.000000
vt 0.034289 -0.003142 0.000000
vt 0.035054 -0.002356 0.000000
vt 0.035703 -0.001571 0.000000
vt 0.036136 -0.000785 0.000000
vt -0.131083 -0.002094 0.000000
vt -0.150117 -0.002094 0.000000
vt -0.131083 -0.003142 0.000000
vt -0.169150 -0.002094 0.000000
vt -0.188183 -0.003142 0.000000
vt -0.188183 -0.002094 0.000000
vt -0.188183 -0.001047 0.000000
vt -0.169150 -0.001047 0.000000
vt -0.188183 0.000000 0.000000
vt -0.150117 -0.001047 0.000000
vt -0.131083 -0.000000 0.000000
vt -0.131083 -0.001047 0.000000
vt 0.120731 -0.002094 0.000000
vt 0.100943 -0.002094 0.000000
vt 0.120731 -0.003142 0.000000
vt 0.081154 -0.002094 0.000000
vt 0.061366 -0.002094 0.000000
vt 0.061366 -0.001047 0.000000
vt 0.041577 -0.001047 0.000000
vt 0.002000 0.000000 0.000000
vt 0.021789 -0.001047 0.000000
vt 0.002000 -0.001047 0.000000
vt 0.021789 -0.002094 0.000000
vt 0.002000 -0.002094 0.000000
vt 0.002000 -0.003142 0.000000
vt 0.100943 -0.001047 0.000000
vt 0.120731 -0.001047 0.000000
vt 0.120731 -0.000000 0.000000
vt 0.081154 -0.001047 0.000000
vt 0.041577 -0.002094 0.000000
vt 0.000000 -0.000000 0.000000
vt 0.000038 -0.000393 0.000000
vt 0.001366 0.000000 0.000000
vt 0.001404 -0.000393 0.000000
vt 0.000152 -0.000785 0.000000
vt 0.001518 -0.000785 0.000000
vt 0.000586 -0.001571 0.000000
vt 0.001951 -0.001571 0.000000
vt 0.001235 -0.002356 0.000000
vt 0.002600 -0.002356 0.000000
vt 0.002000 -0.003142 0.000000
vt 0.003366 -0.003142 0.000000
vt 0.001047 -0.000000 0.000000
vt -0.000000 0.000000 0.000000
vt 0.001047 -0.000740 0.000000
vt 0.000000 -0.000740 0.000000
vt 0.001047 -0.001481 0.000000
vt -0.000000 -0.001481 0.000000
vt 0.001047 -0.002221 0.000000
vt -0.000000 -0.002221 0.000000
vt 0.002094 -0.002221 0.000000
vt 0.002094 -0.001481 0.000000
vt 0.002094 -0.000740 0.000000
vt 0.002094 -0.000000 0.000000
vt 0.003142 -0.000740 0.000000
vt 0.003142 -0.002221 0.000000
vt 0.003142 -0.001481 0.000000
vt 0.034893 -0.000393 0.000000
vt 0.054951 -0.001047 0.000000
vt 0.034931 -0.000000 0.000000
vt 0.076971 -0.001047 0.000000
vt 0.098990 -0.001047 0.000000
vt 0.098990 -0.002094 0.000000
vt 0.121010 -0.002094 0.000000
vt 0.187069 -0.003142 0.000000
vt 0.143029 -0.002094 0.000000
vt 0.165049 -0.002094 0.000000
vt 0.143029 -0.001047 0.000000
vt 0.165049 -0.001047 0.000000
vt 0.185107 -0.000393 0.000000
vt 0.185221 -0.000785 0.000000
vt 0.185654 -0.001571 0.000000
vt 0.186303 -0.002356 0.000000
vt 0.034779 -0.000785 0.000000
vt 0.034346 -0.001571 0.000000
vt 0.054951 -0.002094 0.000000
vt 0.033697 -0.002356 0.000000
vt 0.076971 -0.002094 0.000000
vt 0.032931 -0.003142 0.000000
vt 0.185069 -0.000000 0.000000
vt 0.121010 -0.001047 0.000000
vt -0.002000 -0.002094 0.000000
vt -0.019144 -0.002094 0.000000
vt -0.002000 -0.003142 0.000000
vt -0.035054 -0.002356 0.000000
vt -0.034289 -0.003142 0.000000
vt -0.019144 -0.001047 0.000000
vt -0.002000 -0.001047 0.000000
vt -0.002000 -0.000000 0.000000
vt -0.036289 -0.000000 0.000000
vt -0.036250 -0.000393 0.000000
vt -0.036136 -0.000785 0.000000
vt -0.035703 -0.001571 0.000000
vt 0.000000 0.000000 0.000000
vt -0.001095 -0.000000 0.000000
vt -0.000038 -0.000393 0.000000
vt -0.001133 -0.000393 0.000000
vt -0.000152 -0.000785 0.000000
vt -0.001247 -0.000785 0.000000
vt -0.000586 -0.001571 0.000000
vt -0.001680 -0.001571 0.000000
vt -0.001235 -0.002356 0.000000
vt -0.002329 -0.002356 0.000000
vt -0.002000 -0.003142 0.000000
vt -0.003095 -0.003142 0.000000
vn -0.000000 -0.965926 -0.258819
vn -0.000000 -0.965926 -0.258819
vn -0.000000 -0.965926 -0.258819
vn -0.000000 -0.965926 -0.258819
vn 0.000000 0.965926 0.258819
vn 0.000000 0.965926 0.258819
vn 0.000000 0.965926 0.258819
vn 0.000000 0.965926 0.258819
vn 0.000000 -0.258819 0.965926
vn 0.000000 -0.258819 0.965926
vn 0.000000 -0.258819 0.965926
vn 0.000000 -0.258819 0.965926
vn 0.000000 -0.258819 0.965926
vn 0.000000 -0.258819 0.965926
vn 0.000000 -0.258819 0.965926
vn 0.000000 -0.258819 0.965926
vn 0.000000 -0.258819 0.965926
vn 0.000000 -0.258819 0.965926
vn -0.000000 0.258819 -0.965926
vn -0.000000 0.258819 -0.965926
vn -0.000000 0.258819 -0.965926
vn -0.000000 0.258819 -0.965926
vn -0.000000 0.258819 -0.965926
vn -0.000000 0.258819 -0.965926
vn -0.000000 0.258819 -0.965926
vn -0.000000 0.258819 -0.965926
vn -0.000000 0.258819 -0.965926
vn -0.000000 0.258819 -0.965926
vn -1.000000 -0.000000 0.000000
vn -1.000000 -0.000000 0.000000
vn -1.000000 -0.000000 0.000000
vn -1.000000 -0.000000 0.000000
vn 1.000000 0.000000 -0.000000
vn 1.000000 0.000000 -0.000000
vn 1.000000 0.000000 -0.000000
vn 1.000000 0.000000 -0.000000
vn 1.000000 0.000000 -0.000000
vn 1.000000 0.000000 -0.000000
vn 1.000000 0.000000 -0.000000
vn 1.000000 0.000000 -0.000000
vn 1.000000 0.000000 -0.000000
vn 1.000000 0.000000 -0.000000
vn 1.000000 0.000000 -0.000000
vn 1.000000 0.000000 -0.000000
vn 0.000000 0.965926 0.258819
vn 0.000000 0.965926 0.258819
vn 0.000000 0.965926 0.258819
vn 0.000000 0.965926 0.258819
vn -0.000000 0.258819 -0.965926
vn -0.000000 0.258819 -0.965926
vn -0.000000 0.258819 -0.965926
vn -0.000000 0.258819 -0.965926
vn 0.000000 -0.258819 0.965926
vn 0.000000 -0.258819 0.965926
vn 0.000000 -0.258819 0.965926
vn 0.000000 -0.258819 0.965926
vn -0.000000 -0.965926 -0.258819
vn -0.000000 -0.965926 -0.258819
vn -0.000000 -0.965926 -0.258819
vn -0.000000 -0.965926 -0.258819
vn -1.000000 -0.000000 0.000000
vn -1.000000 -0.000000 0.000000
vn -1.000000 -0.000000 0.000000
vn -1.000000 -0.000000 0.000000
vn -0.000000 -0.965926 -0.258819
vn -0.000000 -0.965926 -0.258819
vn -0.000000 -0.965926 -0.258819
vn -0.000000 -0.965926 -0.258819
vn 0.000000 -0.258819 0.965926
vn 0.000000 -0.258819 0.965926
vn 0.000000 -0.258819 0.965926
vn 0.000000 -0.258819 0.965926
vn -0.000000 0.258819 -0.965926
vn -0.000000 0.258819 -0.965926
vn -0.000000 0.258819 -0.965926
vn -0.000000 0.258819 -0.965926
vn 0.000000 0.965926 0.258819
vn 0.000000 0.965926 0.258819
vn 0.000000 0.965926 0.258819
vn 0.000000 0.965926 0.258819
vn -1.000000 -0.000000 0.000000
vn -1.000000 -0.000000 0.000000
vn -1.000000 -0.000000 0.000000
vn -1.000000 -0.000000 0.000000
vn -0.500000 -0.224144 0.836516
vn -0.500000 -0.224144 0.836516
vn -0.195090 -0.253846 0.947366
vn -0.866025 -0.129410 0.482963
vn -0.866025 -0.129410 0.482963
vn -0.923880 -0.099046 0.369644
vn -0.707107 -0.183013 0.683013
vn -0.382683 -0.239118 0.892399
vn -0.500000 0.836516 0.224144
vn 0.000000 0.707107 0.707107
vn -0.500000 0.612372 0.612372
vn 0.000000 0.258819 0.965926
vn -0.500000 0.224144 0.836516
vn 0.000000 -0.258819 0.965926
vn -0.866025 0.129410 0.482963
vn -0.866025 -0.129410 0.482963
vn -0.866025 0.482963 0.129410
vn -0.866025 0.353553 0.353553
vn -0.000000 -0.965926 -0.258819
vn -0.000000 -0.965926 -0.258819
vn -0.154961 -0.954258 -0.255693
vn -0.195090 -0.947366 -0.253846
vn -0.306179 -0.919536 -0.246389
vn -0.382683 -0.892399 -0.239118
vn -0.450000 -0.862599 -0.231133
vn -0.707107 -0.683013 -0.183013
vn -0.500000 -0.836516 -0.224144
vn -0.866025 -0.482963 -0.129410
vn -0.866025 -0.482963 -0.129410
vn -0.923880 -0.369644 -0.099046
vn -0.923880 -0.369644 -0.099046
vn -0.866025 -0.482963 -0.129410
vn -0.866025 -0.482963 -0.129410
vn -0.866025 -0.482963 -0.129410
vn -0.500000 -0.836516 -0.224144
vn -0.500000 -0.836516 -0.224144
vn -0.707107 -0.683013 -0.183013
vn -0.500000 -0.836516 -0.224144
vn -0.500000 -0.836516 -0.224144
vn -0.450000 -0.862599 -0.231133
vn -0.382683 -0.892399 -0.239118
vn -0.306179 -0.919536 -0.246389
vn -0.195090 -0.947366 -0.253846
vn -0.154961 -0.954258 -0.255693
vn -0.000000 -0.965926 -0.258819
vn -0.000000 -0.965926 -0.258819
vn 0.195090 -0.947366 -0.253846
vn 0.195090 -0.947366 -0.253846
vn 0.382683 -0.892399 -0.239118
vn 0.382683 -0.892399 -0.239118
vn 0.707107 -0.683013 -0.183013
vn 0.707107 -0.683013 -0.183013
vn 0.923880 -0.369644 -0.099046
vn 0.923880 -0.369644 -0.099046
vn 0.500000 -0.224144 0.836516
vn 0.195090 -0.253846 0.947366
vn 0.382683 -0.239118 0.892399
vn 0.707107 -0.183013 0.683013
vn 0.866025 -0.129410 0.482963
vn 0.866025 -0.129410 0.482963
vn 0.923880 -0.099046 0.369644
vn 0.500000 -0.224144 0.836516
vn 0.000000 0.707107 0.707107
vn 0.000000 0.707107 0.707107
vn 0.000000 0.707107 0.707107
vn 0.000000 0.707107 0.707107
vn 0.000000 0.258819 0.965926
vn 0.000000 0.258819 0.965926
vn 0.000000 0.258819 0.965926
vn 0.000000 0.258819 0.965926
vn -0.866025 0.482963 0.129410
vn -0.866025 0.482963 0.129410
vn -0.866025 0.482963 0.129410
vn -0.500000 0.836516 0.224144
vn -0.500000 0.836516 0.224144
vn -0.500000 0.836516 0.224144
vn -0.500000 0.836516 0.224144
vn -0.866025 0.482963 0.129410
vn -0.866025 0.482963 0.129410
vn -0.500000 0.836516 0.224144
vn -0.500000 0.836516 0.224144
vn -0.000000 0.965926 0.258819
vn -0.500000 0.836516 0.224144
vn -0.866025 0.482963 0.129410
vn 0.000000 0.258819 -0.965926
vn -0.500000 0.224144 -0.836516
vn -0.195090 0.253846 -0.947366
vn -0.382683 0.239118 -0.892399
vn -0.707107 0.183013 -0.683013
vn -0.866025 0.129410 -0.482963
vn -0.866025 0.129410 -0.482963
vn -0.923880 0.099046 -0.369644
vn -0.500000 0.224144 -0.836516
vn -0.866025 -0.129410 0.482963
vn -0.866025 -0.129410 0.482963
vn -0.923880 -0.099046 0.369644
vn -0.500000 -0.224144 0.836516
vn -0.500000 -0.224144 0.836516
vn -0.000000 -0.258819 0.965926
vn -0.195090 -0.253846 0.947366
vn -0.382683 -0.239118 0.892399
vn -0.707107 -0.183013 0.683013
vn 0.923880 -0.099046 0.369644
vn 0.866025 -0.129410 0.482963
vn 0.866025 -0.129410 0.482963
vn 0.866025 -0.129410 0.482963
vn 0.500000 -0.224144 0.836516
vn 0.500000 -0.224144 0.836516
vn 0.000000 -0.258819 0.965926
vn 0.500000 -0.224144 0.836516
vn 0.500000 -0.224144 0.836516
vn 0.866025 -0.129410 0.482963
vn 0.866025 -0.129410 0.482963
vn 0.923880 -0.099046 0.369644
vn 0.707107 -0.183013 0.683013
vn 0.382683 -0.239118 0.892399
vn 0.195090 -0.253846 0.947366
vn 0.707107 -0.183013 0.683013
vn 0.500000 -0.224144 0.836516
vn 0.500000 -0.224144 0.836516
vn 0.195090 -0.253846 0.947366
vn 0.382683 -0.239118 0.892399
vn 0.866025 -0.129410 0.482963
vn 0.250000 0.724444 0.642402
vn 0.433013 0.288849 0.853854
vn 0.750000 0.370891 0.547668
vn 0.866025 0.482963 0.129410
vn 0.500000 0.836516 0.224144
vn 0.433013 0.771812 0.465625
vn 0.000000 0.707107 -0.707107
vn -0.433013 0.677077 -0.595035
vn -0.750000 0.595035 -0.288849
vn -0.433013 0.901221 -0.017338
vn -0.250000 0.948588 -0.194114
vn 0.000000 0.965926 -0.258819
vn -0.306179 0.919536 0.246389
vn -0.382683 0.892399 0.239118
vn -0.450000 0.862599 0.231133
vn -0.707107 0.683013 0.183013
vn -0.500000 0.836516 0.224144
vn -0.866025 0.482963 0.129410
vn -0.866025 0.482963 0.129410
vn -0.923880 0.369644 0.099046
vn -0.195090 0.947366 0.253846
vn -0.154961 0.954258 0.255693
vn -0.923880 0.369644 0.099046
vn -0.866025 0.482963 0.129410
vn -0.866025 0.482963 0.129410
vn -0.866025 0.482963 0.129410
vn -0.500000 0.836516 0.224144
vn -0.500000 0.836516 0.224144
vn -0.707107 0.683013 0.183013
vn -0.500000 0.836516 0.224144
vn -0.500000 0.836516 0.224144
vn -0.450000 0.862599 0.231133
vn -0.382683 0.892399 0.239118
vn -0.306179 0.919536 0.246389
vn -0.195090 0.947366 0.253846
vn -0.154961 0.954258 0.255693
vn -0.000000 0.965926 0.258819
vn -0.000000 0.965926 0.258819
vn 0.000000 -0.965926 0.258819
vn -0.250000 -0.948588 0.194114
vn 0.000000 -0.707107 0.707107
vn -0.433013 -0.677077 0.595035
vn -0.750000 -0.595035 0.288849
vn -0.866025 -0.129410 0.482963
vn -0.866025 -0.482963 -0.129410
vn -0.500000 -0.836516 -0.224144
vn -0.433013 -0.901221 0.017338
vn 0.923880 0.369644 0.099046
vn 0.923880 0.369644 0.099046
vn 0.707107 0.683013 0.183013
vn 0.707107 0.683013 0.183013
vn 0.382683 0.892399 0.239118
vn 0.382683 0.892399 0.239118
vn 0.195090 0.947366 0.253846
vn 0.195090 0.947366 0.253846
vn 0.000000 0.965926 0.258819
vn 0.000000 0.965926 0.258819
vn 0.500000 0.836516 0.224144
vn 0.500000 0.836516 0.224144
vn -0.000000 0.965926 0.258819
vn 0.500000 0.836516 0.224144
vn 0.500000 0.836516 0.224144
vn 0.866025 0.482963 0.129410
vn 0.866025 0.482963 0.129410
vn 0.866025 0.482963 0.129410
vn 0.866025 0.482963 0.129410
vn 0.500000 0.836516 0.224144
vn 0.500000 0.836516 0.224144
vn 0.866025 0.482963 0.129410
vn 0.866025 0.482963 0.129410
vn 1.000000 -0.000000 -0.000000
vn 0.866025 0.482963 0.129410
vn 0.500000 0.836516 0.224144
vn -0.000000 0.707107 -0.707107
vn -0.000000 0.707107 -0.707107
vn -0.000000 0.707107 -0.707107
vn -0.000000 0.965926 -0.258819
vn -0.000000 0.965926 -0.258819
vn -0.000000 0.965926 -0.258819
vn -0.866025 0.129410 -0.482963
vn -0.923880 0.099046 -0.369644
vn -0.707107 0.183013 -0.683013
vn -0.500000 0.224144 -0.836516
vn -0.382683 0.239118 -0.892399
vn -0.195090 0.253846 -0.947366
vn -0.500000 0.224144 -0.836516
vn -0.866025 0.129410 -0.482963
vn -0.500000 -0.836516 -0.224144
vn -0.500000 -0.836516 -0.224144
vn -0.000000 -0.965926 -0.258819
vn -0.500000 -0.836516 -0.224144
vn -0.500000 -0.836516 -0.224144
vn -0.866025 -0.482963 -0.129410
vn -0.866025 -0.482963 -0.129410
vn -0.866025 -0.482963 -0.129410
vn -0.866025 -0.482963 -0.129410
vn -0.500000 -0.836516 -0.224144
vn -0.500000 -0.836516 -0.224144
vn -0.866025 -0.482963 -0.129410
vn -0.866025 -0.482963 -0.129410
vn -0.866025 -0.482963 -0.129410
vn -0.500000 -0.836516 -0.224144
vn 0.000000 -0.707107 0.707107
vn 0.000000 -0.707107 0.707107
vn 0.000000 -0.707107 0.707107
vn 0.000000 -0.965926 0.258819
vn 0.000000 -0.965926 0.258819
vn 0.000000 -0.965926 0.258819
vn 0.866025 -0.129410 0.482963
vn 0.923880 -0.099046 0.369644
vn 0.707107 -0.183013 0.683013
vn 0.500000 -0.224144 0.836516
vn 0.382683 -0.239118 0.892399
vn 0.195090 -0.253846 0.947366
vn -0.000000 -0.258819 0.965926
vn 0.500000 -0.224144 0.836516
vn 0.866025 -0.129410 0.482963
vn 0.250000 0.642402 -0.724444
vn 0.433013 0.853854 -0.288849
vn 0.500000 0.836516 0.224144
vn 0.750000 0.547668 -0.370891
vn 0.866025 0.129410 -0.482963
vn 0.500000 0.224144 -0.836516
vn 0.433013 0.465625 -0.771812
vn -0.433013 -0.771812 -0.465625
vn -0.750000 -0.370891 -0.547668
vn -0.433013 -0.288849 -0.853854
vn 0.000000 -0.258819 -0.965926
vn 0.000000 -0.707107 -0.707107
vn -0.250000 -0.724444 -0.642402
vn 0.866025 -0.482963 -0.129410
vn 0.750000 -0.595035 0.288849
vn 0.433013 -0.677077 0.595035
vn 0.250000 -0.948588 0.194114
vn 0.433013 -0.901221 0.017338
vn 0.500000 -0.836516 -0.224144
vn 0.500000 0.224144 -0.836516
vn 0.195090 0.253846 -0.947366
vn 0.000000 0.258819 -0.965926
vn 0.866025 0.129410 -0.482963
vn 0.866025 0.129410 -0.482963
vn 0.923880 0.099046 -0.369644
vn 0.707107 0.183013 -0.683013
vn 0.382683 0.239118 -0.892399
vn -0.000000 -0.707107 -0.707107
vn -0.000000 -0.707107 -0.707107
vn -0.000000 -0.707107 -0.707107
vn -0.000000 -0.258819 -0.965926
vn -0.000000 -0.258819 -0.965926
vn -0.000000 -0.258819 -0.965926
vn 0.866025 -0.482963 -0.129410
vn 0.866025 -0.482963 -0.129410
vn 0.866025 -0.482963 -0.129410
vn 0.866025 -0.482963 -0.129410
vn 0.500000 -0.836516 -0.224144
vn 0.500000 -0.836516 -0.224144
vn 0.500000 -0.836516 -0.224144
vn 0.500000 -0.836516 -0.224144
vn 0.866025 -0.482963 -0.129410
vn 0.866025 -0.482963 -0.129410
vn 0.500000 -0.836516 -0.224144
vn 0.500000 -0.836516 -0.224144
vn 0.000000 -0.965926 -0.258819
vn 0.500000 -0.836516 -0.224144
vn 0.866025 -0.482963 -0.129410
vn 0.195090 -0.947366 -0.253846
vn 0.195090 -0.947366 -0.253846
vn 0.382683 -0.892399 -0.239118
vn 0.382683 -0.892399 -0.239118
vn 0.707107 -0.683013 -0.183013
vn 0.707107 -0.683013 -0.183013
vn 0.923880 -0.369644 -0.099046
vn 0.923880 -0.369644 -0.099046
vn 1.000000 -0.000000 -0.000000
vn 0.866025 0.129410 -0.482963
vn 1.000000 0.000000 0.000000
vn 0.750000 -0.288849 -0.595035
vn 0.866025 -0.482963 -0.129410
vn 0.433013 -0.595035 -0.677077
vn 0.500000 -0.836516 -0.224144
vn 0.000000 -0.258819 -0.965926
vn 0.250000 -0.194114 -0.948588
vn 0.433013 -0.017338 -0.901221
vn 0.500000 0.224144 -0.836516
vn 0.195090 0.253846 -0.947366
vn 0.500000 0.224144 -0.836516
vn 0.000000 0.258819 -0.965926
vn 0.500000 0.224144 -0.836516
vn 0.500000 0.224144 -0.836516
vn 0.866025 0.129410 -0.482963
vn 0.866025 0.129410 -0.482963
vn 0.866025 0.129410 -0.482963
vn 0.866025 0.129410 -0.482963
vn 0.500000 0.224144 -0.836516
vn 0.500000 0.224144 -0.836516
vn 0.195090 0.253846 -0.947366
vn 0.382683 0.239118 -0.892399
vn 0.707107 0.183013 -0.683013
vn 0.923880 0.099046 -0.369644
vn 0.382683 0.239118 -0.892399
vn 0.707107 0.183013 -0.683013
vn 0.866025 0.129410 -0.482963
vn 0.923880 0.099046 -0.369644
vn 0.866025 0.129410 -0.482963
vn 0.000000 0.258819 -0.965926
vn 0.500000 0.224144 -0.836516
vn 0.866025 0.129410 -0.482963
vn 0.923880 0.099046 -0.369644
vn 0.500000 0.224144 -0.836516
vn 0.500000 0.224144 -0.836516
vn 0.195090 0.253846 -0.947366
vn 0.382683 0.239118 -0.892399
vn 0.707107 0.183013 -0.683013
vn 0.000000 0.965926 0.258819
vn 0.195090 0.947366 0.253846
vn 0.195090 0.947366 0.253846
vn 0.382683 0.892399 0.239118
vn 0.382683 0.892399 0.239118
vn 0.707107 0.683013 0.183013
vn 0.707107 0.683013 0.183013
vn 0.923880 0.369644 0.099046
vn 0.923880 0.369644 0.099046
vn 1.000000 -0.000000 -0.000000
usemtl Opaque(202,209,238)
f 2/1/1 3/2/2 1/3/3
f 1/3/3 3/2/2 4/4/4
f 6/5/5 7/6/6 5/7/7
f 5/7/7 7/6/6 8/8/8
f 10/9/9 2/10/10 9/11/11
f 9/11/11 2/10/10 1/12/12
f 9/11/11 1/12/12 16/13/13
f 16/13/13 1/12/12 11/14/14
f 16/13/13 11/14/14 15/15/15
f 15/15/15 11/14/14 12/16/16
f 15/15/15 12/16/16 14/17/17
f 14/17/17 12/16/16 13/18/18
f 18/19/19 6/20/20 17/21/21
f 17/21/21 6/20/20 5/22/22
f 17/21/21 5/22/22 24/23/23
f 24/23/23 5/22/22 19/24/24
f 24/23/23 19/24/24 23/25/25
f 23/25/25 19/24/24 20/26/26
f 23/25/25 20/26/26 22/27/27
f 22/27/27 20/26/26 21/28/28
f 13/29/29 22/30/30 14/31/31
f 14/31/31 22/30/30 21/32/32
f 25/33/33 26/34/34 36/35/35
f 36/35/35 26/34/34 33/36/36
f 36/35/35 33/36/36 35/37/37
f 35/37/37 33/36/36 34/38/38
f 33/36/36 26/34/34 32/39/39
f 32/39/39 26/34/34 27/40/40
f 32/39/39 27/40/40 30/41/41
f 30/41/41 27/40/40 29/42/42
f 29/42/42 27/40/40 28/43/43
f 30/41/41 31/44/44 32/39/39
f 38/45/45 10/46/46 37/47/47
f 37/47/47 10/46/46 9/48/48
f 7/49/49 39/50/50 8/51/51
f 8/51/51 39/50/50 40/52/52
f 42/53/53 38/54/54 41/55/55
f 41/55/55 38/54/54 37/56/56
f 44/57/57 45/58/58 43/59/59
f 43/59/59 45/58/58 46/60/60
f 48/61/61 49/62/62 47/63/63
f 47/63/63 49/62/62 50/64/64
f 52/65/65 18/66/66 51/67/67
f 51/67/67 18/66/66 17/68/68
f 3/69/69 53/70/70 4/71/71
f 4/71/71 53/70/70 54/72/72
f 56/73/73 52/74/74 55/75/75
f 55/75/75 52/74/74 51/76/76
f 58/77/77 59/78/78 57/79/79
f 57/79/79 59/78/78 60/80/80
f 61/81/81 62/82/82 64/83/83
f 64/83/83 62/82/82 63/84/84
f 65/85/85 71/86/86 54/87/72
f 54/87/72 71/86/86 70/88/87
f 54/87/72 70/88/87 4/89/71
f 71/86/86 65/85/85 72/90/88
f 72/90/88 65/85/85 66/91/89
f 72/90/88 66/91/89 63/92/84
f 63/92/84 62/93/82 72/90/88
f 72/90/88 62/93/82 67/94/90
f 72/90/88 67/94/90 68/95/91
f 72/90/88 68/95/91 71/86/86
f 71/86/86 68/95/91 69/96/92
f 71/86/86 69/96/92 70/88/87
f 57/97/79 73/98/93 76/99/94
f 76/99/94 73/98/93 78/100/95
f 76/99/94 78/100/95 75/101/96
f 75/101/96 78/100/95 79/102/97
f 75/101/96 79/102/97 54/103/98
f 54/103/98 79/102/97 65/104/85
f 65/104/85 79/102/97 80/105/99
f 65/104/85 80/105/99 66/106/100
f 66/106/100 80/105/99 63/107/84
f 73/98/93 74/108/101 78/100/95
f 78/100/95 74/108/101 77/109/102
f 78/100/95 77/109/102 79/102/97
f 79/102/97 77/109/102 80/105/99
f 74/108/101 63/110/84 77/109/102
f 77/109/102 63/111/84 80/105/99
f 1/112/103 4/113/104 11/114/105
f 11/114/105 4/113/104 70/115/106
f 11/114/105 70/115/106 12/116/107
f 12/116/107 70/115/106 69/117/108
f 12/116/107 69/117/108 13/118/109
f 13/118/109 69/117/108 68/119/110
f 13/118/109 68/119/110 85/120/111
f 85/120/111 68/119/110 90/121/112
f 85/120/111 90/121/112 91/122/113
f 91/122/113 90/121/112 67/123/114
f 91/122/113 67/123/114 61/124/81
f 61/124/81 67/123/114 62/125/82
f 68/119/110 67/123/114 90/121/112
f 81/126/115 94/127/116 61/124/81
f 61/124/81 94/127/116 93/128/117
f 61/124/81 93/128/117 92/129/118
f 92/129/118 93/128/117 87/130/119
f 92/129/118 87/130/119 86/131/120
f 86/131/120 87/130/119 13/118/109
f 86/131/120 13/118/109 85/120/111
f 81/126/115 82/132/121 94/127/116
f 94/127/116 82/132/121 89/133/122
f 94/127/116 89/133/122 88/134/123
f 88/134/123 89/133/122 22/135/124
f 88/134/123 22/135/124 87/130/119
f 87/130/119 22/135/124 13/118/109
f 89/133/122 82/132/121 22/135/124
f 22/135/124 82/132/121 83/136/125
f 22/135/124 83/136/125 23/137/126
f 23/137/126 83/136/125 84/138/127
f 23/137/126 84/138/127 24/139/128
f 24/139/128 84/138/127 51/140/67
f 24/139/128 51/140/67 17/141/68
f 92/129/118 86/131/120 91/122/113
f 91/122/113 86/131/120 85/120/111
f 94/127/116 88/134/123 93/128/117
f 93/128/117 88/134/123 87/130/119
f 61/124/81 92/129/118 91/122/113
f 3/142/129 2/143/130 102/144/131
f 102/144/131 2/143/130 95/145/132
f 102/144/131 95/145/132 101/146/133
f 101/146/133 95/145/132 96/147/134
f 101/146/133 96/147/134 100/148/135
f 100/148/135 96/147/134 97/149/136
f 100/148/135 97/149/136 99/150/137
f 99/150/137 97/149/136 98/151/138
f 99/150/137 98/151/138 31/152/44
f 31/152/44 98/151/138 32/153/39
f 53/154/70 3/155/69 105/156/139
f 105/156/139 3/155/69 102/157/140
f 105/156/139 102/157/140 101/158/141
f 101/158/141 100/159/142 105/156/139
f 105/156/139 100/159/142 106/160/143
f 105/156/139 106/160/143 103/161/144
f 103/161/144 106/160/143 30/162/41
f 30/162/41 106/160/143 99/163/145
f 30/162/41 99/163/145 31/164/44
f 100/159/142 99/163/145 106/160/143
f 103/161/144 104/165/146 105/156/139
f 105/156/139 104/165/146 53/154/70
f 76/166/147 109/167/148 57/168/79
f 57/168/79 109/167/148 110/169/149
f 57/168/79 110/169/149 58/170/77
f 58/170/77 110/169/149 108/171/150
f 108/171/150 110/169/149 107/172/151
f 107/172/151 110/169/149 112/173/152
f 107/172/151 112/173/152 53/174/70
f 53/174/70 112/173/152 111/175/153
f 53/174/70 111/175/153 54/176/72
f 54/176/72 111/175/153 75/177/154
f 75/177/154 111/175/153 76/166/147
f 76/166/147 111/175/153 109/167/148
f 112/173/152 110/169/149 109/167/148
f 112/173/152 109/167/148 111/175/153
f 74/178/101 115/179/155 63/180/84
f 63/180/84 115/179/155 116/181/156
f 63/180/84 116/181/156 117/182/157
f 117/182/157 116/181/156 122/183/158
f 117/182/157 122/183/158 123/184/159
f 123/184/159 122/183/158 60/185/80
f 123/184/159 60/185/80 124/186/160
f 124/186/160 60/185/80 113/187/161
f 124/186/160 113/187/161 119/188/162
f 119/188/162 113/187/161 114/189/163
f 119/188/162 114/189/163 64/190/83
f 115/179/155 74/178/101 120/191/164
f 120/191/164 74/178/101 73/192/165
f 120/191/164 73/192/165 57/193/166
f 60/185/80 122/183/158 57/193/166
f 57/193/166 122/183/158 121/194/167
f 57/193/166 121/194/167 120/191/164
f 120/191/164 121/194/167 115/179/155
f 63/180/84 117/182/157 64/190/83
f 64/190/83 117/182/157 118/195/168
f 64/190/83 118/195/168 119/188/162
f 119/188/162 118/195/168 124/186/160
f 122/183/158 116/181/156 121/194/167
f 121/194/167 116/181/156 115/179/155
f 124/186/160 118/195/168 123/184/159
f 123/184/159 118/195/168 117/182/157
f 55/196/75 51/197/169 127/198/170
f 127/198/170 51/197/169 84/199/171
f 127/198/170 84/199/171 83/200/172
f 83/200/172 82/201/173 127/198/170
f 127/198/170 82/201/173 128/202/174
f 127/198/170 128/202/174 125/203/175
f 125/203/175 128/202/174 64/204/83
f 64/204/83 128/202/174 81/205/176
f 64/204/83 81/205/176 61/206/81
f 82/201/173 81/205/176 128/202/174
f 125/203/175 126/207/177 127/198/170
f 127/198/170 126/207/177 55/196/75
f 129/208/178 135/209/179 49/210/62
f 49/210/62 135/209/179 134/211/180
f 49/210/62 134/211/180 50/212/64
f 135/209/179 129/208/178 136/213/181
f 136/213/181 129/208/178 130/214/182
f 136/213/181 130/214/182 41/215/55
f 41/215/55 37/216/183 136/213/181
f 136/213/181 37/216/183 131/217/184
f 136/213/181 131/217/184 132/218/185
f 132/218/185 133/219/186 136/213/181
f 136/213/181 133/219/186 135/209/179
f 133/219/186 134/211/180 135/209/179
f 98/220/187 141/221/188 32/222/39
f 32/222/39 141/221/188 142/223/189
f 32/222/39 142/223/189 143/224/190
f 143/224/190 142/223/189 149/225/191
f 143/224/190 149/225/191 150/226/192
f 150/226/192 149/225/191 10/227/193
f 150/226/192 10/227/193 151/228/194
f 151/228/194 10/227/193 152/229/195
f 151/228/194 152/229/195 145/230/196
f 145/230/196 152/229/195 146/231/197
f 145/230/196 146/231/197 140/232/198
f 140/232/198 146/231/197 139/233/199
f 139/233/199 146/231/197 152/229/195
f 139/233/199 152/229/195 138/234/200
f 138/234/200 152/229/195 137/235/201
f 137/235/201 152/229/195 10/227/193
f 98/220/187 97/236/202 141/221/188
f 141/221/188 97/236/202 147/237/203
f 141/221/188 147/237/203 148/238/204
f 148/238/204 147/237/203 95/239/205
f 148/238/204 95/239/205 149/225/191
f 149/225/191 95/239/205 10/227/193
f 97/236/202 96/240/206 147/237/203
f 147/237/203 96/240/206 95/239/205
f 95/239/205 2/241/10 10/227/193
f 33/242/36 32/222/39 140/232/198
f 140/232/198 32/222/39 145/230/196
f 149/225/191 142/223/189 148/238/204
f 148/238/204 142/223/189 141/221/188
f 145/230/196 32/222/39 144/243/207
f 144/243/207 32/222/39 143/224/190
f 144/243/207 143/224/190 150/226/192
f 151/228/194 145/230/196 144/243/207
f 151/228/194 144/243/207 150/226/192
f 58/244/77 108/245/150 156/246/208
f 156/246/208 108/245/150 107/247/151
f 156/246/208 107/247/151 155/248/209
f 155/248/209 107/247/151 53/249/70
f 155/248/209 53/249/70 104/250/146
f 155/248/209 104/250/146 157/251/210
f 157/251/210 104/250/146 103/252/144
f 157/251/210 103/252/144 153/253/211
f 153/253/211 103/252/144 30/254/41
f 153/253/211 154/255/212 157/251/210
f 157/251/210 154/255/212 158/256/213
f 157/251/210 158/256/213 155/248/209
f 155/248/209 158/256/213 156/246/208
f 154/255/212 58/257/77 158/256/213
f 158/256/213 58/258/77 156/246/208
f 160/259/214 55/260/75 161/261/215
f 161/261/215 55/260/75 126/262/177
f 161/261/215 126/262/177 163/263/216
f 163/263/216 126/262/177 125/264/175
f 163/263/216 125/264/175 114/265/163
f 114/265/163 125/264/175 64/266/83
f 114/265/163 113/267/161 163/263/216
f 163/263/216 113/267/161 164/268/217
f 163/263/216 164/268/217 161/261/215
f 161/261/215 164/268/217 162/269/218
f 161/261/215 162/269/218 160/259/214
f 160/259/214 162/269/218 159/270/219
f 159/270/219 162/269/218 60/271/80
f 113/267/161 60/272/80 164/268/217
f 164/268/217 60/273/80 162/269/218
f 20/274/220 166/275/221 21/276/222
f 21/276/222 166/275/221 167/277/223
f 21/276/222 167/277/223 169/278/224
f 169/278/224 167/277/223 174/279/225
f 169/278/224 174/279/225 175/280/226
f 175/280/226 174/279/225 168/281/227
f 175/280/226 168/281/227 50/282/64
f 50/282/64 168/281/227 47/283/63
f 166/275/221 20/274/220 165/284/228
f 165/284/228 20/274/220 19/285/229
f 165/284/228 19/285/229 8/286/8
f 8/286/8 19/285/229 5/287/7
f 167/277/223 168/281/227 174/279/225
f 134/288/230 178/289/231 50/282/64
f 50/282/64 178/289/231 177/290/232
f 50/282/64 177/290/232 176/291/233
f 176/291/233 177/290/232 171/292/234
f 176/291/233 171/292/234 170/293/235
f 170/293/235 171/292/234 21/276/222
f 170/293/235 21/276/222 169/278/224
f 134/288/230 133/294/236 178/289/231
f 178/289/231 133/294/236 173/295/237
f 178/289/231 173/295/237 172/296/238
f 172/296/238 173/295/237 14/297/239
f 172/296/238 14/297/239 171/292/234
f 171/292/234 14/297/239 21/276/222
f 173/295/237 133/294/236 14/297/239
f 14/297/239 133/294/236 132/298/240
f 14/297/239 132/298/240 15/299/241
f 15/299/241 132/298/240 131/300/242
f 15/299/241 131/300/242 16/301/243
f 16/301/243 131/300/242 37/302/244
f 16/301/243 37/302/244 9/303/245
f 176/291/233 170/293/235 175/280/226
f 175/280/226 170/293/235 169/278/224
f 178/289/231 172/296/238 177/290/232
f 177/290/232 172/296/238 171/292/234
f 50/282/64 176/291/233 175/280/226
f 46/304/60 179/305/246 184/306/247
f 184/306/247 179/305/246 180/307/248
f 184/306/247 180/307/248 183/308/249
f 183/308/249 180/307/248 41/309/55
f 183/308/249 41/309/55 130/310/182
f 183/308/249 130/310/182 185/311/250
f 185/311/250 130/310/182 129/312/251
f 185/311/250 129/312/251 181/313/252
f 181/313/252 129/312/251 49/314/62
f 181/313/252 182/315/253 185/311/250
f 185/311/250 182/315/253 186/316/254
f 185/311/250 186/316/254 183/308/249
f 183/308/249 186/316/254 184/306/247
f 182/315/253 46/317/60 186/316/254
f 186/316/254 46/318/60 184/306/247
f 33/319/36 140/320/255 34/321/38
f 34/321/38 140/320/255 190/322/256
f 190/322/256 140/320/255 139/323/257
f 190/322/256 139/323/257 189/324/258
f 189/324/258 139/323/257 138/325/259
f 189/324/258 138/325/259 188/326/260
f 188/326/260 138/325/259 137/327/261
f 188/326/260 137/327/261 187/328/262
f 187/328/262 137/327/261 10/329/263
f 187/328/262 10/329/263 38/330/264
f 154/331/265 193/332/266 58/333/267
f 58/333/267 193/332/266 194/334/268
f 58/333/267 194/334/268 195/335/269
f 195/335/269 194/334/268 200/336/270
f 195/335/269 200/336/270 201/337/271
f 201/337/271 200/336/270 29/338/42
f 201/337/271 29/338/42 202/339/272
f 202/339/272 29/338/42 191/340/273
f 202/339/272 191/340/273 197/341/274
f 197/341/274 191/340/273 192/342/275
f 197/341/274 192/342/275 59/343/78
f 193/332/266 154/331/265 198/344/276
f 198/344/276 154/331/265 153/345/277
f 198/344/276 153/345/277 30/346/278
f 29/338/42 200/336/270 30/346/278
f 30/346/278 200/336/270 199/347/279
f 30/346/278 199/347/279 198/344/276
f 198/344/276 199/347/279 193/332/266
f 58/333/267 195/335/269 59/343/78
f 59/343/78 195/335/269 196/348/280
f 59/343/78 196/348/280 197/341/274
f 197/341/274 196/348/280 202/339/272
f 200/336/270 194/334/268 199/347/279
f 199/347/279 194/334/268 193/332/266
f 202/339/272 196/348/280 201/337/271
f 201/337/271 196/348/280 195/335/269
f 160/349/214 205/350/281 55/351/75
f 55/351/75 205/350/281 206/352/282
f 55/351/75 206/352/282 56/353/73
f 56/353/73 206/352/282 204/354/283
f 204/354/283 206/352/282 203/355/284
f 203/355/284 206/352/282 208/356/285
f 203/355/284 208/356/285 59/357/78
f 59/357/78 208/356/285 207/358/286
f 59/357/78 207/358/286 60/359/80
f 60/359/80 207/358/286 159/360/219
f 159/360/219 207/358/286 160/349/214
f 160/349/214 207/358/286 205/350/281
f 208/356/285 206/352/282 205/350/281
f 208/356/285 205/350/281 207/358/286
f 48/361/61 47/362/63 211/363/287
f 211/363/287 47/362/63 168/364/288
f 211/363/287 168/364/288 167/365/289
f 211/363/287 167/365/289 212/366/290
f 212/366/290 167/365/289 166/367/291
f 212/366/290 166/367/291 165/368/292
f 8/369/51 40/370/52 165/368/292
f 165/368/292 40/370/52 212/366/290
f 40/370/52 209/371/293 212/366/290
f 212/366/290 209/371/293 211/363/287
f 209/371/293 210/372/294 211/363/287
f 211/363/287 210/372/294 48/361/61
f 182/373/295 215/374/296 46/375/297
f 46/375/297 215/374/296 216/376/298
f 46/375/297 216/376/298 217/377/299
f 217/377/299 216/376/298 222/378/300
f 217/377/299 222/378/300 223/379/301
f 223/379/301 222/378/300 48/380/61
f 223/379/301 48/380/61 224/381/302
f 224/381/302 48/380/61 213/382/303
f 224/381/302 213/382/303 219/383/304
f 219/383/304 213/382/303 214/384/305
f 219/383/304 214/384/305 43/385/59
f 215/374/296 182/373/295 220/386/306
f 220/386/306 182/373/295 181/387/307
f 220/386/306 181/387/307 49/388/62
f 48/380/61 222/378/300 49/388/62
f 49/388/62 222/378/300 221/389/308
f 49/388/62 221/389/308 220/386/306
f 220/386/306 221/389/308 215/374/296
f 46/375/297 217/377/299 43/385/59
f 43/385/59 217/377/299 218/390/309
f 43/385/59 218/390/309 219/383/304
f 219/383/304 218/390/309 224/381/302
f 222/378/300 216/376/298 221/389/308
f 221/389/308 216/376/298 215/374/296
f 224/381/302 218/390/309 223/379/301
f 223/379/301 218/390/309 217/377/299
f 180/391/248 227/392/310 41/393/55
f 41/393/55 227/392/310 228/394/311
f 41/393/55 228/394/311 42/395/53
f 42/395/53 228/394/311 226/396/312
f 226/396/312 228/394/311 225/397/313
f 225/397/313 228/394/311 230/398/314
f 225/397/313 230/398/314 45/399/58
f 45/399/58 230/398/314 229/400/315
f 45/399/58 229/400/315 46/401/60
f 46/401/60 229/400/315 179/402/246
f 179/402/246 229/400/315 180/391/248
f 180/391/248 229/400/315 227/392/310
f 230/398/314 228/394/311 227/392/310
f 230/398/314 227/392/310 229/400/315
f 35/403/37 34/404/38 233/405/316
f 233/405/316 34/404/38 190/406/317
f 233/405/316 190/406/317 189/407/318
f 233/405/316 189/407/318 234/408/319
f 234/408/319 189/407/318 188/409/320
f 234/408/319 188/409/320 187/410/321
f 38/411/322 42/412/53 187/410/321
f 187/410/321 42/412/53 234/408/319
f 42/412/53 231/413/323 234/408/319
f 234/408/319 231/413/323 233/405/316
f 231/413/323 232/414/324 233/405/316
f 233/405/316 232/414/324 35/403/37
f 56/415/73 204/416/283 238/417/325
f 238/417/325 204/416/283 203/418/284
f 238/417/325 203/418/284 237/419/326
f 237/419/326 203/418/284 59/420/78
f 237/419/326 59/420/78 192/421/327
f 237/419/326 192/421/327 239/422/328
f 239/422/328 192/421/327 191/423/273
f 239/422/328 191/423/273 235/424/329
f 235/424/329 191/423/273 29/425/42
f 235/424/329 236/426/330 239/422/328
f 239/422/328 236/426/330 240/427/331
f 239/422/328 240/427/331 237/419/326
f 237/419/326 240/427/331 238/417/325
f 236/426/330 56/428/73 240/427/331
f 240/427/331 56/429/73 238/417/325
f 43/430/59 214/431/305 244/432/332
f 244/432/332 214/431/305 213/433/303
f 244/432/332 213/433/303 243/434/333
f 243/434/333 213/433/303 48/435/61
f 243/434/333 48/435/61 210/436/294
f 243/434/333 210/436/294 245/437/334
f 245/437/334 210/436/294 209/438/293
f 245/437/334 209/438/293 241/439/335
f 241/439/335 209/438/293 40/440/52
f 241/439/335 242/441/336 245/437/334
f 245/437/334 242/441/336 246/442/337
f 245/437/334 246/442/337 243/434/333
f 243/434/333 246/442/337 244/432/332
f 242/441/336 43/443/59 246/442/337
f 246/442/337 43/444/59 244/432/332
f 248/445/338 35/446/37 249/447/339
f 249/447/339 35/446/37 232/448/324
f 249/447/339 232/448/324 251/449/340
f 251/449/340 232/448/324 231/450/323
f 251/449/340 231/450/323 226/451/312
f 226/451/312 231/450/323 42/452/53
f 226/451/312 225/453/313 251/449/340
f 251/449/340 225/453/313 252/454/341
f 251/449/340 252/454/341 249/447/339
f 249/447/339 252/454/341 250/455/342
f 249/447/339 250/455/342 248/445/338
f 248/445/338 250/455/342 247/456/343
f 247/456/343 250/455/342 45/457/58
f 225/453/313 45/458/58 252/454/341
f 252/454/341 45/459/58 250/455/342
f 236/460/330 257/461/344 56/462/73
f 56/462/73 257/461/344 256/463/345
f 56/462/73 256/463/345 52/464/346
f 257/461/344 236/460/330 258/465/347
f 258/465/347 236/460/330 235/466/348
f 258/465/347 235/466/348 29/467/42
f 29/467/42 28/468/43 258/465/347
f 258/465/347 28/468/43 253/469/349
f 258/465/347 253/469/349 254/470/350
f 258/465/347 254/470/350 257/461/344
f 257/461/344 254/470/350 255/471/351
f 257/461/344 255/471/351 256/463/345
f 242/472/336 261/473/352 43/474/59
f 43/474/59 261/473/352 262/475/353
f 43/474/59 262/475/353 44/476/57
f 44/476/57 262/475/353 260/477/354
f 260/477/354 262/475/353 259/478/355
f 259/478/355 262/475/353 264/479/356
f 259/478/355 264/479/356 39/480/50
f 39/480/50 264/479/356 263/481/357
f 39/480/50 263/481/357 40/482/52
f 40/482/52 263/481/357 241/483/335
f 241/483/335 263/481/357 242/472/336
f 242/472/336 263/481/357 261/473/352
f 264/479/356 262/475/353 261/473/352
f 264/479/356 261/473/352 263/481/357
f 248/484/358 267/485/359 35/486/37
f 35/486/37 267/485/359 268/487/360
f 35/486/37 268/487/360 269/488/361
f 269/488/361 268/487/360 274/489/362
f 269/488/361 274/489/362 275/490/363
f 275/490/363 274/489/362 44/491/57
f 275/490/363 44/491/57 276/492/364
f 276/492/364 44/491/57 265/493/365
f 276/492/364 265/493/365 271/494/366
f 271/494/366 265/493/365 266/495/367
f 271/494/366 266/495/367 36/496/35
f 267/485/359 248/484/358 272/497/368
f 272/497/368 248/484/358 247/498/369
f 272/497/368 247/498/369 45/499/370
f 44/491/57 274/489/362 45/499/370
f 45/499/370 274/489/362 273/500/371
f 45/499/370 273/500/371 272/497/368
f 272/497/368 273/500/371 267/485/359
f 35/486/37 269/488/361 36/496/35
f 36/496/35 269/488/361 270/501/372
f 36/496/35 270/501/372 271/494/366
f 271/494/366 270/501/372 276/492/364
f 274/489/362 268/487/360 273/500/371
f 273/500/371 268/487/360 267/485/359
f 276/492/364 270/501/372 275/490/363
f 275/490/363 270/501/372 269/488/361
f 52/502/65 256/503/373 18/504/66
f 18/504/66 256/503/373 280/505/374
f 280/505/374 256/503/373 255/506/375
f 280/505/374 255/506/375 279/507/376
f 279/507/376 255/506/375 254/508/377
f 279/507/376 254/508/377 278/509/378
f 278/509/378 254/508/377 253/510/379
f 278/509/378 253/510/379 277/511/380
f 277/511/380 253/510/379 28/512/43
f 277/511/380 28/512/43 27/513/381
f 282/514/382 36/515/383 283/516/384
f 283/516/384 36/515/383 266/517/385
f 283/516/384 266/517/385 285/518/386
f 285/518/386 266/517/385 265/519/387
f 285/518/386 265/519/387 260/520/354
f 260/520/354 265/519/387 44/521/57
f 260/520/354 259/522/388 285/518/386
f 285/518/386 259/522/388 286/523/389
f 285/518/386 286/523/389 283/516/384
f 283/516/384 286/523/389 284/524/390
f 283/516/384 284/524/390 282/514/382
f 282/514/382 284/524/390 281/525/391
f 281/525/391 284/524/390 39/526/50
f 259/522/388 39/527/50 286/523/389
f 286/523/389 39/528/50 284/524/390
f 280/529/392 291/530/393 18/531/394
f 18/531/394 291/530/393 292/532/395
f 18/531/394 292/532/395 293/533/396
f 293/533/396 292/532/395 299/534/397
f 293/533/396 299/534/397 300/535/398
f 300/535/398 299/534/397 26/536/34
f 300/535/398 26/536/34 301/537/399
f 301/537/399 26/536/34 302/538/400
f 301/537/399 302/538/400 295/539/401
f 295/539/401 302/538/400 296/540/402
f 295/539/401 296/540/402 290/541/403
f 290/541/403 296/540/402 289/542/404
f 289/542/404 296/540/402 288/543/405
f 288/543/405 296/540/402 302/538/400
f 288/543/405 302/538/400 287/544/406
f 287/544/406 302/538/400 26/536/34
f 280/529/392 279/545/407 291/530/393
f 291/530/393 279/545/407 278/546/408
f 291/530/393 278/546/408 297/547/409
f 297/547/409 278/546/408 277/548/410
f 297/547/409 277/548/410 298/549/411
f 298/549/411 277/548/410 26/536/34
f 298/549/411 26/536/34 299/534/397
f 277/548/410 27/550/40 26/536/34
f 6/551/412 18/531/394 290/541/403
f 290/541/403 18/531/394 294/552/413
f 290/541/403 294/552/413 295/539/401
f 295/539/401 294/552/413 301/537/399
f 294/552/413 18/531/394 293/533/396
f 297/547/409 298/549/411 291/530/393
f 291/530/393 298/549/411 292/532/395
f 298/549/411 299/534/397 292/532/395
f 301/537/399 294/552/413 300/535/398
f 300/535/398 294/552/413 293/533/396
f 282/553/382 307/554/414 36/555/35
f 36/555/35 307/554/414 306/556/415
f 36/555/35 306/556/415 25/557/33
f 307/554/414 282/553/382 308/558/416
f 308/558/416 282/553/382 281/559/417
f 308/558/416 281/559/417 39/560/50
f 39/560/50 7/561/49 308/558/416
f 308/558/416 7/561/49 303/562/418
f 308/558/416 303/562/418 304/563/419
f 304/563/419 305/564/420 308/558/416
f 308/558/416 305/564/420 307/554/414
f 305/564/420 306/556/415 307/554/414
f 7/565/6 6/566/421 303/567/422
f 303/567/422 6/566/421 290/568/423
f 303/567/422 290/568/423 304/569/424
f 304/569/424 290/568/423 289/570/425
f 304/569/424 289/570/425 305/571/426
f 305/571/426 289/570/425 288/572/427
f 305/571/426 288/572/427 306/573/428
f 306/573/428 288/572/427 287/574/429
f 306/573/428 287/574/429 25/575/33
f 25/575/33 287/574/429 26/576/430
# 308 vertices
# 576 texture params
# 430 normals
# 612 facets

# 1 groups
