# WaveFront *.obj file (generated by Autodesk ATF)

mtllib body61_visual.mtl

g Body61

v -27.030000 3.136614 -2.203708
v -27.030000 3.121085 -2.145752
v -27.035000 3.114962 -2.142217
v -27.035000 3.133079 -2.209832
v -27.030000 3.179041 -2.130223
v -27.035000 3.182576 -2.124100
v -27.030000 3.194570 -2.188179
v -27.035000 3.200694 -2.191714
v -28.025000 3.133079 -2.209832
v -28.025000 3.200694 -2.191714
v -28.025000 3.114962 -2.142217
v -28.030000 3.136614 -2.203708
v -28.030000 3.194570 -2.188179
v -28.030000 3.179041 -2.130223
v -28.025000 3.182576 -2.124100
v -28.030000 3.121085 -2.145752
vt -0.012500 -0.003536 0.000000
vt 0.047500 -0.003536 0.000000
vt -0.017500 0.003536 0.000000
vt 0.052500 0.003536 0.000000
vt -0.003536 -0.047500 0.000000
vt 0.003536 -0.052500 0.000000
vt -0.003536 0.012500 0.000000
vt 0.003536 0.017500 0.000000
vt 0.012500 0.003536 0.000000
vt -0.047500 0.003536 0.000000
vt 0.017500 -0.003536 0.000000
vt -0.052500 -0.003536 0.000000
vt -0.003536 0.052500 0.000000
vt -0.003536 -0.017500 0.000000
vt 0.003536 0.047500 0.000000
vt 0.003536 -0.012500 0.000000
vt 0.000000 -0.195000 0.000000
vt 0.070000 -0.195000 0.000000
vt 0.000000 0.795000 0.000000
vt 0.070000 0.795000 0.000000
vt 0.000000 -0.195000 0.000000
vt 0.070000 -0.195000 0.000000
vt -0.000000 0.795000 0.000000
vt 0.070000 0.795000 0.000000
vt 0.030000 0.030000 0.000000
vt -0.030000 0.030000 0.000000
vt 0.030000 -0.030000 0.000000
vt -0.030000 -0.030000 0.000000
vt -0.003536 -0.012500 0.000000
vt 0.003536 -0.017500 0.000000
vt -0.003536 0.047500 0.000000
vt 0.003536 0.052500 0.000000
vt 0.047500 0.003536 0.000000
vt -0.012500 0.003536 0.000000
vt 0.052500 -0.003536 0.000000
vt -0.017500 -0.003536 0.000000
vt 0.003536 -0.047500 0.000000
vt 0.003536 0.012500 0.000000
vt -0.003536 -0.052500 0.000000
vt -0.003536 0.017500 0.000000
vt 0.017500 0.003536 0.000000
vt -0.052500 0.003536 0.000000
vt 0.012500 -0.003536 0.000000
vt -0.047500 -0.003536 0.000000
vt 0.030000 0.030000 0.000000
vt -0.030000 0.030000 0.000000
vt 0.030000 -0.030000 0.000000
vt -0.030000 -0.030000 0.000000
vt -0.000000 -0.195000 0.000000
vt 0.070000 -0.195000 0.000000
vt -0.000000 0.795000 0.000000
vt 0.070000 0.795000 0.000000
vt -0.000000 -0.195000 0.000000
vt 0.070000 -0.195000 0.000000
vt 0.000000 0.795000 0.000000
vt 0.070000 0.795000 0.000000
vn 0.707107 -0.683013 -0.183013
vn 0.707107 -0.683013 -0.183013
vn 0.707107 -0.683013 -0.183013
vn 0.707107 -0.683013 -0.183013
vn 0.707107 -0.183013 0.683013
vn 0.707107 -0.183013 0.683013
vn 0.707107 -0.183013 0.683013
vn 0.707107 -0.183013 0.683013
vn 0.707107 0.683013 0.183013
vn 0.707107 0.683013 0.183013
vn 0.707107 0.683013 0.183013
vn 0.707107 0.683013 0.183013
vn 0.707107 0.183013 -0.683013
vn 0.707107 0.183013 -0.683013
vn 0.707107 0.183013 -0.683013
vn 0.707107 0.183013 -0.683013
vn 0.000000 0.258819 -0.965926
vn 0.000000 0.258819 -0.965926
vn 0.000000 0.258819 -0.965926
vn 0.000000 0.258819 -0.965926
vn -0.000000 -0.965926 -0.258819
vn -0.000000 -0.965926 -0.258819
vn -0.000000 -0.965926 -0.258819
vn -0.000000 -0.965926 -0.258819
vn 1.000000 -0.000000 0.000000
vn 1.000000 -0.000000 0.000000
vn 1.000000 -0.000000 0.000000
vn 1.000000 -0.000000 0.000000
vn -0.707107 0.183013 -0.683013
vn -0.707107 0.183013 -0.683013
vn -0.707107 0.183013 -0.683013
vn -0.707107 0.183013 -0.683013
vn -0.707107 0.683013 0.183013
vn -0.707107 0.683013 0.183013
vn -0.707107 0.683013 0.183013
vn -0.707107 0.683013 0.183013
vn -0.707107 -0.183013 0.683013
vn -0.707107 -0.183013 0.683013
vn -0.707107 -0.183013 0.683013
vn -0.707107 -0.183013 0.683013
vn -0.707107 -0.683013 -0.183013
vn -0.707107 -0.683013 -0.183013
vn -0.707107 -0.683013 -0.183013
vn -0.707107 -0.683013 -0.183013
vn -1.000000 0.000000 -0.000000
vn -1.000000 0.000000 -0.000000
vn -1.000000 0.000000 -0.000000
vn -1.000000 0.000000 -0.000000
vn -0.000000 -0.258819 0.965926
vn -0.000000 -0.258819 0.965926
vn -0.000000 -0.258819 0.965926
vn -0.000000 -0.258819 0.965926
vn 0.000000 0.965926 0.258819
vn 0.000000 0.965926 0.258819
vn 0.000000 0.965926 0.258819
vn 0.000000 0.965926 0.258819
usemtl Polycarbonate_(Clear)
f 1/1/1 2/2/2 4/3/3
f 4/3/3 2/2/2 3/4/4
f 5/5/5 6/6/6 2/7/7
f 2/7/7 6/6/6 3/8/8
f 5/9/9 7/10/10 6/11/11
f 6/11/11 7/10/10 8/12/12
f 4/13/13 8/14/14 1/15/15
f 1/15/15 8/14/14 7/16/16
f 8/17/17 4/18/18 10/19/19
f 10/19/19 4/18/18 9/20/20
f 4/21/21 3/22/22 9/23/23
f 9/23/23 3/22/22 11/24/24
f 2/25/25 1/26/26 5/27/27
f 5/27/27 1/26/26 7/28/28
f 13/29/29 10/30/30 12/31/31
f 12/31/31 10/30/30 9/32/32
f 13/33/33 14/34/34 10/35/35
f 10/35/35 14/34/34 15/36/36
f 14/37/37 16/38/38 15/39/39
f 15/39/39 16/38/38 11/40/40
f 9/41/41 11/42/42 12/43/43
f 12/43/43 11/42/42 16/44/44
f 12/45/45 16/46/46 13/47/47
f 13/47/47 16/46/46 14/48/48
f 3/49/49 6/50/50 11/51/51
f 11/51/51 6/50/50 15/52/52
f 6/53/53 8/54/54 15/55/55
f 15/55/55 8/54/54 10/56/56
# 16 vertices
# 56 texture params
# 56 normals
# 28 facets

# 1 groups
