# WaveFront *.obj file (generated by Autodesk ATF)

mtllib body50_visual.mtl

g Body50

v -27.030000 2.103566 -4.192619
v -27.030000 2.161521 -4.177090
v -27.035000 2.165057 -4.170966
v -27.035000 2.097442 -4.189083
v -27.030000 2.177050 -4.235045
v -27.035000 2.183174 -4.238581
v -27.030000 2.119095 -4.250574
v -27.035000 2.115559 -4.256698
v -28.025000 2.097442 -4.189083
v -28.025000 2.115559 -4.256698
v -28.025000 2.165057 -4.170966
v -28.030000 2.119095 -4.250574
v -28.030000 2.177050 -4.235045
v -28.025000 2.183174 -4.238581
v -28.030000 2.161521 -4.177090
v -28.030000 2.103566 -4.192619
vt -0.003536 -0.047500 0.000000
vt 0.003536 -0.052500 0.000000
vt -0.003536 0.012500 0.000000
vt 0.003536 0.017500 0.000000
vt 0.012500 0.003536 0.000000
vt -0.047500 0.003536 0.000000
vt 0.017500 -0.003536 0.000000
vt -0.052500 -0.003536 0.000000
vt 0.003536 -0.012500 0.000000
vt 0.003536 0.047500 0.000000
vt -0.003536 -0.017500 0.000000
vt -0.003536 0.052500 0.000000
vt 0.052500 0.003536 0.000000
vt -0.017500 0.003536 0.000000
vt 0.047500 -0.003536 0.000000
vt -0.012500 -0.003536 0.000000
vt -0.000000 -0.195000 0.000000
vt 0.070000 -0.195000 0.000000
vt -0.000000 0.795000 0.000000
vt 0.070000 0.795000 0.000000
vt -0.000000 -0.195000 0.000000
vt 0.070000 -0.195000 0.000000
vt 0.000000 0.795000 0.000000
vt 0.070000 0.795000 0.000000
vt 0.030000 0.030000 0.000000
vt -0.030000 0.030000 0.000000
vt 0.030000 -0.030000 0.000000
vt -0.030000 -0.030000 0.000000
vt -0.003536 -0.012500 0.000000
vt 0.003536 -0.017500 0.000000
vt -0.003536 0.047500 0.000000
vt 0.003536 0.052500 0.000000
vt 0.047500 0.003536 0.000000
vt -0.012500 0.003536 0.000000
vt 0.052500 -0.003536 0.000000
vt -0.017500 -0.003536 0.000000
vt 0.003536 -0.047500 0.000000
vt 0.003536 0.012500 0.000000
vt -0.003536 -0.052500 0.000000
vt -0.003536 0.017500 0.000000
vt 0.017500 0.003536 0.000000
vt -0.052500 0.003536 0.000000
vt 0.012500 -0.003536 0.000000
vt -0.047500 -0.003536 0.000000
vt 0.000000 -0.195000 0.000000
vt 0.070000 -0.195000 0.000000
vt 0.000000 0.795000 0.000000
vt 0.070000 0.795000 0.000000
vt 0.030000 0.030000 0.000000
vt -0.030000 0.030000 0.000000
vt 0.030000 -0.030000 0.000000
vt -0.030000 -0.030000 0.000000
vt -0.000000 -0.195000 0.000000
vt 0.070000 -0.195000 0.000000
vt 0.000000 0.795000 0.000000
vt 0.070000 0.795000 0.000000
vn 0.707107 -0.183013 0.683013
vn 0.707107 -0.183013 0.683013
vn 0.707107 -0.183013 0.683013
vn 0.707107 -0.183013 0.683013
vn 0.707107 0.683013 0.183013
vn 0.707107 0.683013 0.183013
vn 0.707107 0.683013 0.183013
vn 0.707107 0.683013 0.183013
vn 0.707107 0.183013 -0.683013
vn 0.707107 0.183013 -0.683013
vn 0.707107 0.183013 -0.683013
vn 0.707107 0.183013 -0.683013
vn 0.707107 -0.683013 -0.183013
vn 0.707107 -0.683013 -0.183013
vn 0.707107 -0.683013 -0.183013
vn 0.707107 -0.683013 -0.183013
vn -0.000000 -0.965926 -0.258819
vn -0.000000 -0.965926 -0.258819
vn -0.000000 -0.965926 -0.258819
vn -0.000000 -0.965926 -0.258819
vn -0.000000 -0.258819 0.965926
vn -0.000000 -0.258819 0.965926
vn -0.000000 -0.258819 0.965926
vn -0.000000 -0.258819 0.965926
vn 1.000000 -0.000000 0.000000
vn 1.000000 -0.000000 0.000000
vn 1.000000 -0.000000 0.000000
vn 1.000000 -0.000000 0.000000
vn -0.707107 0.183013 -0.683013
vn -0.707107 0.183013 -0.683013
vn -0.707107 0.183013 -0.683013
vn -0.707107 0.183013 -0.683013
vn -0.707107 0.683013 0.183013
vn -0.707107 0.683013 0.183013
vn -0.707107 0.683013 0.183013
vn -0.707107 0.683013 0.183013
vn -0.707107 -0.183013 0.683013
vn -0.707107 -0.183013 0.683013
vn -0.707107 -0.183013 0.683013
vn -0.707107 -0.183013 0.683013
vn -0.707107 -0.683013 -0.183013
vn -0.707107 -0.683013 -0.183013
vn -0.707107 -0.683013 -0.183013
vn -0.707107 -0.683013 -0.183013
vn 0.000000 0.258819 -0.965926
vn 0.000000 0.258819 -0.965926
vn 0.000000 0.258819 -0.965926
vn 0.000000 0.258819 -0.965926
vn -1.000000 0.000000 -0.000000
vn -1.000000 0.000000 -0.000000
vn -1.000000 0.000000 -0.000000
vn -1.000000 0.000000 -0.000000
vn 0.000000 0.965926 0.258819
vn 0.000000 0.965926 0.258819
vn 0.000000 0.965926 0.258819
vn 0.000000 0.965926 0.258819
usemtl Polycarbonate_(Clear)
f 2/1/1 3/2/2 1/3/3
f 1/3/3 3/2/2 4/4/4
f 2/5/5 5/6/6 3/7/7
f 3/7/7 5/6/6 6/8/8
f 5/9/9 7/10/10 6/11/11
f 6/11/11 7/10/10 8/12/12
f 4/13/13 8/14/14 1/15/15
f 1/15/15 8/14/14 7/16/16
f 8/17/17 4/18/18 10/19/19
f 10/19/19 4/18/18 9/20/20
f 4/21/21 3/22/22 9/23/23
f 9/23/23 3/22/22 11/24/24
f 1/25/25 7/26/26 2/27/27
f 2/27/27 7/26/26 5/28/28
f 13/29/29 14/30/30 12/31/31
f 12/31/31 14/30/30 10/32/32
f 13/33/33 15/34/34 14/35/35
f 14/35/35 15/34/34 11/36/36
f 15/37/37 16/38/38 11/39/39
f 11/39/39 16/38/38 9/40/40
f 10/41/41 9/42/42 12/43/43
f 12/43/43 9/42/42 16/44/44
f 6/45/45 8/46/46 14/47/47
f 14/47/47 8/46/46 10/48/48
f 12/49/49 16/50/50 13/51/51
f 13/51/51 16/50/50 15/52/52
f 3/53/53 6/54/54 11/55/55
f 11/55/55 6/54/54 14/56/56
# 16 vertices
# 56 texture params
# 56 normals
# 28 facets

# 1 groups
