# WaveFront *.obj file (generated by Autodesk ATF)

mtllib body79_visual.mtl

g Body79

v -27.455700 -0.730076 -0.808427
v -27.455700 -0.956272 -0.869036
v -27.455700 -0.957825 -0.863241
v -27.455700 -0.731629 -0.802631
v -27.455700 -0.955755 -0.870968
v -27.455700 -0.729558 -0.810359
v -27.455700 -0.728005 -0.816154
v -27.455700 -0.954202 -0.876764
v -27.455700 -0.953684 -0.878695
v -27.455700 -0.727488 -0.818086
v -27.455700 -0.725935 -0.823882
v -27.455700 -0.952131 -0.884491
v -27.455700 -0.732146 -0.800700
v -27.455700 -0.958343 -0.861309
v -27.455700 -1.057749 -0.490319
v -27.455700 -0.831553 -0.429710
v -27.455700 -0.829621 -0.761140
v -27.455700 -0.930399 -0.802982
v -27.455700 -0.926891 -0.816072
v -27.455700 -0.787128 -0.758122
v -27.455700 -0.787625 -0.756264
v -27.455700 -0.922537 -0.728300
v -27.455700 -0.819643 -0.636772
v -27.455700 -0.820149 -0.634885
v -27.455700 -0.970194 -0.654465
v -27.455700 -0.966694 -0.667526
v -27.455700 -0.858722 -0.653464
v -27.455700 -0.948963 -0.733701
v -27.455700 -0.948177 -0.736632
v -27.455700 -0.865130 -0.526456
v -27.455700 -0.847134 -0.593618
v -27.455700 -0.832273 -0.589636
v -27.455700 -0.856164 -0.500474
v -27.455700 -0.984361 -0.616452
v -27.455700 -0.975169 -0.626028
v -27.455700 -0.951613 -0.886423
v -27.455700 -0.725417 -0.825814
v -27.455700 -0.724356 -0.829773
v -27.455700 -0.950553 -0.890382
v -27.340700 -0.877490 -0.420886
v -27.340700 -0.876503 -0.424569
v -27.355638 -0.876843 -0.423298
v -27.355303 -0.878639 -0.416597
v -27.353135 -0.880345 -0.410231
v -27.349239 -0.881831 -0.404685
v -27.343914 -0.882982 -0.400387
v -27.337572 -0.883711 -0.397668
v -27.330700 -0.883960 -0.396738
v -27.263700 -0.883960 -0.396738
v -27.257230 -0.883740 -0.397561
v -27.251200 -0.883093 -0.399973
v -27.246023 -0.882065 -0.403811
v -27.242050 -0.880725 -0.408812
v -27.239552 -0.879164 -0.414636
v -27.238700 -0.877490 -0.420886
v -27.238700 -0.852902 -0.512649
v -27.253700 -0.852902 -0.512649
v -27.253700 -0.877490 -0.420886
v -27.254462 -0.878480 -0.417190
v -27.256629 -0.879320 -0.414056
v -27.259874 -0.879881 -0.411962
v -27.263700 -0.880078 -0.411227
v -27.330700 -0.880078 -0.411227
v -27.334527 -0.879881 -0.411962
v -27.337772 -0.879320 -0.414056
v -27.339939 -0.878480 -0.417190
v -27.355638 -1.021732 -0.462121
v -27.340700 -1.021392 -0.463392
v -27.340700 -1.022378 -0.459709
v -27.339939 -1.023369 -0.456013
v -27.337772 -1.024209 -0.452879
v -27.334527 -1.024770 -0.450785
v -27.330700 -1.024967 -0.450050
v -27.263700 -1.024967 -0.450050
v -27.259874 -1.024770 -0.450785
v -27.256629 -1.024209 -0.452879
v -27.254462 -1.023369 -0.456013
v -27.253700 -1.022378 -0.459709
v -27.253700 -0.997791 -0.551472
v -27.238700 -0.997791 -0.551472
v -27.238700 -1.022378 -0.459709
v -27.239552 -1.024053 -0.453459
v -27.242050 -1.025614 -0.447635
v -27.246023 -1.026954 -0.442634
v -27.251200 -1.027982 -0.438796
v -27.257230 -1.028628 -0.436384
v -27.263700 -1.028849 -0.435561
v -27.330700 -1.028849 -0.435561
v -27.337572 -1.028600 -0.436491
v -27.343914 -1.027871 -0.439210
v -27.349239 -1.026720 -0.443508
v -27.353135 -1.025234 -0.449054
v -27.355303 -1.023528 -0.455420
v -27.339939 -0.950924 -0.436601
v -27.337772 -0.951764 -0.433468
v -27.334527 -0.952325 -0.431374
v -27.259874 -0.952325 -0.431374
v -27.256629 -0.951764 -0.433468
v -27.254462 -0.950924 -0.436601
v -27.330700 -0.898145 -0.923354
v -27.337572 -0.898395 -0.922424
v -27.343914 -0.899123 -0.919705
v -27.349239 -0.900275 -0.915407
v -27.353135 -0.901761 -0.909861
v -27.355303 -0.903467 -0.903494
v -27.355638 -0.905262 -0.896794
v -27.355638 -0.760373 -0.857971
v -27.355303 -0.758578 -0.864672
v -27.353135 -0.756872 -0.871038
v -27.349239 -0.755386 -0.876584
v -27.343914 -0.754234 -0.880882
v -27.337572 -0.753506 -0.883601
v -27.330700 -0.753256 -0.884531
v -27.340700 -0.759727 -0.860383
v -27.340700 -0.760714 -0.856700
v -27.340700 -0.905602 -0.895523
v -27.340700 -0.904616 -0.899206
v -27.339939 -0.758736 -0.864079
v -27.337772 -0.757897 -0.867213
v -27.334527 -0.757336 -0.869307
v -27.330700 -0.757139 -0.870042
v -27.263700 -0.757139 -0.870042
v -27.259874 -0.757336 -0.869307
v -27.256629 -0.757897 -0.867213
v -27.254462 -0.758736 -0.864079
v -27.253700 -0.759727 -0.860383
v -27.253700 -0.784315 -0.768620
v -27.238700 -0.784315 -0.768620
v -27.238700 -0.759727 -0.860383
v -27.239552 -0.758052 -0.866633
v -27.242050 -0.756492 -0.872457
v -27.246023 -0.755152 -0.877458
v -27.251200 -0.754123 -0.881296
v -27.257230 -0.753477 -0.883708
v -27.263700 -0.753256 -0.884531
v -27.263700 -0.898145 -0.923354
v -27.257230 -0.898366 -0.922531
v -27.251200 -0.899012 -0.920118
v -27.246023 -0.900040 -0.916281
v -27.242050 -0.901381 -0.911280
v -27.239552 -0.902941 -0.905456
v -27.238700 -0.904616 -0.899206
v -27.238700 -0.929204 -0.807443
v -27.253700 -0.929204 -0.807443
v -27.253700 -0.904616 -0.899206
v -27.254462 -0.903625 -0.902902
v -27.256629 -0.902786 -0.906036
v -27.259874 -0.902225 -0.908130
v -27.263700 -0.902028 -0.908865
v -27.330700 -0.902028 -0.908865
v -27.334527 -0.902225 -0.908130
v -27.337772 -0.902786 -0.906036
v -27.339939 -0.903625 -0.902902
v -27.259874 -0.829780 -0.888718
v -27.256629 -0.830341 -0.886624
v -27.254462 -0.831181 -0.883491
v -27.339939 -0.831181 -0.883491
v -27.337772 -0.830341 -0.886624
v -27.334527 -0.829780 -0.888718
v -27.452700 -0.723178 -0.806579
v -27.454327 -0.725191 -0.807118
v -27.455351 -0.727545 -0.807749
v -27.455351 -0.729098 -0.801953
v -27.454327 -0.726743 -0.801322
v -27.452700 -0.724731 -0.800783
v -27.452700 -0.725248 -0.798851
v -27.454327 -0.727261 -0.799391
v -27.455351 -0.729615 -0.800021
v -27.455021 -0.828990 -0.425271
v -27.453073 -0.826776 -0.421436
v -27.450123 -0.825211 -0.418726
v -27.446572 -0.824509 -0.417509
v -27.446572 -0.712155 -0.836817
v -27.450123 -0.713372 -0.836115
v -27.453073 -0.716082 -0.834550
v -27.455021 -0.719917 -0.832336
v -27.455351 -0.722886 -0.825135
v -27.454327 -0.720532 -0.824505
v -27.452700 -0.718519 -0.823965
v -27.452700 -0.719037 -0.822033
v -27.454327 -0.721049 -0.822573
v -27.455351 -0.723404 -0.823204
v -27.455351 -0.724957 -0.817408
v -27.454327 -0.722602 -0.816777
v -27.452700 -0.720590 -0.816238
v -27.452700 -0.721107 -0.814306
v -27.454327 -0.723120 -0.814845
v -27.455351 -0.725474 -0.815476
v -27.455351 -0.727027 -0.809681
v -27.454327 -0.724673 -0.809050
v -27.452700 -0.722660 -0.808511
v -27.453073 -0.733978 -0.767762
v -27.453073 -0.752703 -0.697878
v -27.453073 -0.771429 -0.627993
v -27.453073 -0.790154 -0.558108
v -27.453073 -0.808880 -0.488224
v -27.450123 -0.806742 -0.487651
v -27.450123 -0.788017 -0.557535
v -27.450123 -0.769291 -0.627420
v -27.450123 -0.750566 -0.697305
v -27.450123 -0.731840 -0.767189
v -27.455021 -0.737003 -0.768573
v -27.455021 -0.755728 -0.698688
v -27.455021 -0.774454 -0.628803
v -27.455021 -0.793179 -0.558919
v -27.455021 -0.811905 -0.489034
v -27.446572 -0.957597 -0.902583
v -27.450123 -0.956894 -0.901366
v -27.453073 -0.955330 -0.898656
v -27.455021 -0.953115 -0.894821
v -27.450123 -0.896493 -0.885182
v -27.450123 -0.835133 -0.868741
v -27.450123 -0.773773 -0.852299
v -27.453073 -0.897066 -0.883045
v -27.453073 -0.835706 -0.866603
v -27.453073 -0.774346 -0.850162
v -27.455021 -0.897877 -0.880020
v -27.455021 -0.836516 -0.863578
v -27.455021 -0.775156 -0.847137
v -27.455021 -1.062188 -0.487756
v -27.453073 -1.066023 -0.485542
v -27.450123 -1.068733 -0.483977
v -27.446572 -1.069950 -0.483275
v -27.455021 -1.006949 -0.472955
v -27.455021 -0.945589 -0.456514
v -27.455021 -0.884229 -0.440072
v -27.453073 -1.007760 -0.469930
v -27.453073 -0.946399 -0.453489
v -27.453073 -0.885039 -0.437047
v -27.450123 -1.008333 -0.467793
v -27.450123 -0.946972 -0.451351
v -27.450123 -0.885612 -0.434910
v -27.455351 -0.958803 -0.869714
v -27.454327 -0.961157 -0.870345
v -27.452700 -0.963170 -0.870884
v -27.452700 -0.962653 -0.872816
v -27.454327 -0.960640 -0.872277
v -27.455351 -0.958286 -0.871646
v -27.455351 -0.956733 -0.877442
v -27.454327 -0.959087 -0.878073
v -27.452700 -0.961100 -0.878612
v -27.452700 -0.960582 -0.880544
v -27.454327 -0.958569 -0.880004
v -27.455351 -0.956215 -0.879374
v -27.455351 -0.954662 -0.885169
v -27.454327 -0.957016 -0.885800
v -27.452700 -0.959029 -0.886339
v -27.452700 -0.958511 -0.888271
v -27.454327 -0.956499 -0.887732
v -27.455351 -0.954144 -0.887101
v -27.455351 -0.960874 -0.861987
v -27.454327 -0.963228 -0.862618
v -27.452700 -0.965241 -0.863157
v -27.452700 -0.964723 -0.865089
v -27.454327 -0.962710 -0.864550
v -27.455351 -0.960356 -0.863919
v -27.450123 -0.975363 -0.832441
v -27.450123 -0.994088 -0.762556
v -27.450123 -1.012814 -0.692672
v -27.450123 -1.031539 -0.622787
v -27.450123 -1.050265 -0.552902
v -27.453073 -1.048128 -0.552330
v -27.453073 -1.029402 -0.622214
v -27.453073 -1.010677 -0.692099
v -27.453073 -0.991951 -0.761984
v -27.453073 -0.973225 -0.831868
v -27.455021 -1.045103 -0.551519
v -27.455021 -1.026377 -0.621404
v -27.455021 -1.007652 -0.691289
v -27.455021 -0.988926 -0.761173
v -27.455021 -0.970201 -0.831058
v -27.355700 -0.702418 -0.842439
v -27.355700 -0.818887 -0.407772
v -27.263700 -0.824578 -0.417630
v -27.263700 -0.795696 -0.525420
v -27.243700 -0.795999 -0.531049
v -27.243700 -0.744236 -0.724234
v -27.263700 -0.741158 -0.728958
v -27.263700 -0.712276 -0.836747
v -27.355700 -0.963218 -0.912320
v -27.263700 -0.986409 -0.794672
v -27.263700 -0.957527 -0.902462
v -27.243700 -0.986106 -0.789043
v -27.243700 -1.037870 -0.595858
v -27.263700 -1.040947 -0.591134
v -27.263700 -1.069829 -0.483345
v -27.355700 -1.079687 -0.477653
v -27.452700 -0.930399 -0.802982
v -27.452700 -0.926891 -0.816072
v -27.452700 -0.787128 -0.758122
v -27.452700 -0.787625 -0.756264
v -27.452700 -0.922537 -0.728300
v -27.452700 -0.819643 -0.636772
v -27.452700 -0.820149 -0.634885
v -27.452700 -0.970194 -0.654465
v -27.452700 -0.966694 -0.667526
v -27.452700 -0.858722 -0.653464
v -27.452700 -0.948963 -0.733701
v -27.452700 -0.948177 -0.736632
v -27.452700 -0.829621 -0.761140
v -27.452700 -0.847134 -0.593618
v -27.452700 -0.832273 -0.589636
v -27.452700 -0.856164 -0.500474
v -27.452700 -0.984361 -0.616452
v -27.452700 -0.975169 -0.626028
v -27.452700 -0.865130 -0.526456
vt 0.031262 0.017912 0.000000
vt 0.037262 0.017912 0.000000
vt 0.031262 0.252088 0.000000
vt 0.037262 0.252088 0.000000
vt 0.029262 0.252088 0.000000
vt 0.023262 0.252088 0.000000
vt 0.029262 0.017912 0.000000
vt 0.023262 0.017912 0.000000
vt 0.021262 0.252088 0.000000
vt 0.015262 0.252088 0.000000
vt 0.021262 0.017912 0.000000
vt 0.015262 0.017912 0.000000
vt 0.039262 0.017912 0.000000
vt 0.074818 0.060000 0.000000
vt 0.039262 0.252088 0.000000
vt 0.094619 0.210000 0.000000
vt 0.096542 0.210000 0.000000
vt 0.423339 0.017912 0.000000
vt 0.282510 0.056154 0.000000
vt 0.228604 0.060000 0.000000
vt 0.160094 0.060000 0.000000
vt 0.214241 0.167933 0.000000
vt 0.361356 0.210000 0.000000
vt 0.423339 0.252088 0.000000
vt 0.269048 0.210000 0.000000
vt 0.222203 0.210000 0.000000
vt 0.269048 0.194615 0.000000
vt 0.242125 0.060000 0.000000
vt 0.270881 0.062554 0.000000
vt 0.220250 0.210000 0.000000
vt 0.158471 0.086923 0.000000
vt 0.102702 0.168173 0.000000
vt 0.088369 0.060000 0.000000
vt 0.157059 0.060000 0.000000
vt 0.338580 0.194615 0.000000
vt 0.013262 0.252088 0.000000
vt 0.009163 0.252088 0.000000
vt 0.013262 0.017912 0.000000
vt 0.009163 0.017912 0.000000
vt -0.003812 -0.010000 0.000000
vt -0.002497 -0.024938 0.000000
vt -0.000000 -0.010000 0.000000
vt 0.004440 -0.024603 0.000000
vt 0.003827 -0.009239 0.000000
vt 0.011032 -0.022434 0.000000
vt 0.016773 -0.018538 0.000000
vt 0.007071 -0.007071 0.000000
vt 0.021222 -0.013214 0.000000
vt 0.009239 -0.003827 0.000000
vt 0.024037 -0.006872 0.000000
vt 0.010000 0.000000 0.000000
vt 0.025000 0.000000 0.000000
vt 0.010000 0.067000 0.000000
vt 0.025000 0.067000 0.000000
vt 0.024148 0.073470 0.000000
vt 0.009239 0.070827 0.000000
vt 0.021651 0.079500 0.000000
vt 0.007071 0.074071 0.000000
vt 0.017678 0.084678 0.000000
vt 0.012500 0.088651 0.000000
vt 0.003827 0.076239 0.000000
vt 0.006470 0.091148 0.000000
vt -0.000000 0.077000 0.000000
vt 0.000000 0.092000 0.000000
vt -0.095000 0.077000 0.000000
vt -0.095000 0.092000 0.000000
vt 0.003812 -0.010000 0.000000
vt 0.000000 -0.010000 0.000000
vt 0.002497 -0.024938 0.000000
vt -0.004440 -0.024603 0.000000
vt -0.003827 -0.009239 0.000000
vt -0.011032 -0.022434 0.000000
vt -0.016773 -0.018538 0.000000
vt -0.007071 -0.007071 0.000000
vt -0.021222 -0.013214 0.000000
vt -0.009239 -0.003827 0.000000
vt -0.024037 -0.006872 0.000000
vt -0.010000 0.000000 0.000000
vt -0.025000 0.000000 0.000000
vt -0.025000 0.067000 0.000000
vt -0.010000 0.067000 0.000000
vt -0.024148 0.073470 0.000000
vt -0.009239 0.070827 0.000000
vt -0.021651 0.079500 0.000000
vt -0.007071 0.074071 0.000000
vt -0.017678 0.084678 0.000000
vt -0.012500 0.088651 0.000000
vt -0.003827 0.076239 0.000000
vt -0.006470 0.091148 0.000000
vt -0.000000 0.077000 0.000000
vt -0.000000 0.092000 0.000000
vt 0.095000 0.077000 0.000000
vt 0.095000 0.092000 0.000000
vt -0.000000 0.015708 0.000000
vt 0.150000 0.015708 0.000000
vt 0.075000 0.019635 0.000000
vt 0.150000 0.019635 0.000000
vt 0.075000 0.023562 0.000000
vt 0.150000 0.023562 0.000000
vt 0.075000 0.027489 0.000000
vt 0.150000 0.027489 0.000000
vt 0.150000 0.031416 0.000000
vt -0.000000 0.031416 0.000000
vt 0.000000 0.027489 0.000000
vt -0.000000 0.023562 0.000000
vt -0.000000 0.019635 0.000000
vt 0.067000 0.150000 0.000000
vt 0.000000 0.150000 0.000000
vt 0.067000 -0.000000 0.000000
vt 0.000000 0.000000 0.000000
vt 0.000000 -0.031416 0.000000
vt 0.150000 -0.031416 0.000000
vt 0.075000 -0.027489 0.000000
vt 0.150000 -0.027489 0.000000
vt 0.075000 -0.023562 0.000000
vt 0.150000 -0.023562 0.000000
vt 0.075000 -0.019635 0.000000
vt 0.150000 -0.019635 0.000000
vt 0.150000 -0.015708 0.000000
vt 0.000000 -0.015708 0.000000
vt -0.000000 -0.019635 0.000000
vt -0.000000 -0.023562 0.000000
vt 0.000000 -0.027489 0.000000
vt 0.095000 0.150000 0.000000
vt 0.000000 0.150000 0.000000
vt 0.095000 -0.000000 0.000000
vt 0.000000 0.000000 0.000000
vt 0.015000 0.150000 0.000000
vt 0.000000 0.150000 0.000000
vt 0.015000 -0.000000 0.000000
vt 0.000000 0.000000 0.000000
vt 0.095000 0.150000 0.000000
vt 0.000000 0.150000 0.000000
vt 0.095000 -0.000000 0.000000
vt 0.000000 0.000000 0.000000
vt -0.000000 -0.039270 0.000000
vt -0.150000 -0.039270 0.000000
vt -0.000000 -0.045815 0.000000
vt -0.150000 -0.045815 0.000000
vt -0.000000 -0.052360 0.000000
vt -0.150000 -0.052360 0.000000
vt 0.000000 -0.058905 0.000000
vt -0.150000 -0.058905 0.000000
vt -0.000000 -0.065450 0.000000
vt -0.150000 -0.065450 0.000000
vt 0.000000 -0.071995 0.000000
vt -0.150000 -0.071995 0.000000
vt -0.000000 -0.078540 0.000000
vt -0.150000 -0.078540 0.000000
vt 0.067000 0.150000 0.000000
vt -0.000000 0.150000 0.000000
vt 0.067000 0.000000 0.000000
vt 0.000000 0.000000 0.000000
vt 0.000000 -0.078540 0.000000
vt -0.150000 -0.078540 0.000000
vt -0.000000 -0.085501 0.000000
vt -0.150000 -0.085501 0.000000
vt 0.000000 -0.092462 0.000000
vt -0.150000 -0.092462 0.000000
vt -0.000000 -0.099423 0.000000
vt -0.150000 -0.099423 0.000000
vt 0.000000 -0.106385 0.000000
vt -0.150000 -0.106385 0.000000
vt 0.000000 -0.113346 0.000000
vt -0.150000 -0.113346 0.000000
vt 0.000000 -0.120304 0.000000
vt -0.150000 -0.120304 0.000000
vt 0.000000 0.003812 0.000000
vt -0.150000 0.003812 0.000000
vt -0.000000 0.000000 0.000000
vt -0.150000 0.000000 0.000000
vt 0.000000 -0.078540 0.000000
vt -0.150000 -0.078540 0.000000
vt -0.000000 -0.085501 0.000000
vt -0.150000 -0.085501 0.000000
vt -0.000000 -0.092462 0.000000
vt -0.150000 -0.092462 0.000000
vt -0.000000 -0.099423 0.000000
vt -0.150000 -0.099423 0.000000
vt -0.000000 -0.106385 0.000000
vt -0.150000 -0.106385 0.000000
vt 0.000000 -0.113346 0.000000
vt -0.150000 -0.113346 0.000000
vt 0.000000 -0.120304 0.000000
vt -0.150000 -0.120304 0.000000
vt 0.000000 0.000000 0.000000
vt -0.003812 0.000000 0.000000
vt -0.000000 -0.150000 0.000000
vt -0.003812 -0.150000 0.000000
vt 0.010000 0.003812 0.000000
vt 0.010000 -0.000000 0.000000
vt 0.024938 0.002497 0.000000
vt 0.024603 -0.004440 0.000000
vt 0.009239 -0.003827 0.000000
vt 0.022434 -0.011032 0.000000
vt 0.018538 -0.016773 0.000000
vt 0.007071 -0.007071 0.000000
vt 0.013214 -0.021222 0.000000
vt 0.003827 -0.009239 0.000000
vt 0.006872 -0.024037 0.000000
vt 0.000000 -0.010000 0.000000
vt 0.000000 -0.025000 0.000000
vt -0.067000 -0.010000 0.000000
vt -0.067000 -0.025000 0.000000
vt -0.073470 -0.024148 0.000000
vt -0.070827 -0.009239 0.000000
vt -0.079500 -0.021651 0.000000
vt -0.074071 -0.007071 0.000000
vt -0.084678 -0.017678 0.000000
vt -0.088651 -0.012500 0.000000
vt -0.076239 -0.003827 0.000000
vt -0.091148 -0.006470 0.000000
vt -0.077000 0.000000 0.000000
vt -0.092000 0.000000 0.000000
vt -0.092000 0.095000 0.000000
vt -0.077000 0.095000 0.000000
vt -0.010000 0.003812 0.000000
vt -0.024938 0.002497 0.000000
vt -0.010000 0.000000 0.000000
vt -0.024603 -0.004440 0.000000
vt -0.009239 -0.003827 0.000000
vt -0.022434 -0.011032 0.000000
vt -0.018538 -0.016773 0.000000
vt -0.007071 -0.007071 0.000000
vt -0.013214 -0.021222 0.000000
vt -0.003827 -0.009239 0.000000
vt -0.006872 -0.024037 0.000000
vt -0.000000 -0.010000 0.000000
vt -0.000000 -0.025000 0.000000
vt 0.067000 -0.010000 0.000000
vt 0.067000 -0.025000 0.000000
vt 0.073470 -0.024148 0.000000
vt 0.070827 -0.009239 0.000000
vt 0.079500 -0.021651 0.000000
vt 0.074071 -0.007071 0.000000
vt 0.084678 -0.017678 0.000000
vt 0.088651 -0.012500 0.000000
vt 0.076239 -0.003827 0.000000
vt 0.091148 -0.006470 0.000000
vt 0.077000 0.000000 0.000000
vt 0.092000 0.000000 0.000000
vt 0.077000 0.095000 0.000000
vt 0.092000 0.095000 0.000000
vt -0.067000 -0.150000 0.000000
vt -0.000000 -0.150000 0.000000
vt -0.067000 0.000000 0.000000
vt 0.000000 0.000000 0.000000
vt 0.000000 -0.039270 0.000000
vt -0.150000 -0.039270 0.000000
vt -0.000000 -0.045815 0.000000
vt -0.150000 -0.045815 0.000000
vt -0.000000 -0.052360 0.000000
vt -0.150000 -0.052360 0.000000
vt -0.000000 -0.058905 0.000000
vt -0.150000 -0.058905 0.000000
vt 0.000000 -0.065450 0.000000
vt -0.150000 -0.065450 0.000000
vt 0.000000 -0.071995 0.000000
vt -0.150000 -0.071995 0.000000
vt 0.000000 -0.078540 0.000000
vt -0.150000 -0.078540 0.000000
vt 0.150000 0.000000 0.000000
vt -0.000000 0.000000 0.000000
vt 0.150000 -0.095000 0.000000
vt 0.000000 -0.095000 0.000000
vt -0.150000 -0.000000 0.000000
vt 0.000000 0.000000 0.000000
vt -0.150000 0.015000 0.000000
vt -0.000000 0.015000 0.000000
vt -0.095000 -0.150000 0.000000
vt -0.000000 -0.150000 0.000000
vt -0.095000 0.000000 0.000000
vt 0.000000 0.000000 0.000000
vt 0.000000 -0.031416 0.000000
vt 0.150000 -0.031416 0.000000
vt 0.075000 -0.027489 0.000000
vt 0.150000 -0.027489 0.000000
vt 0.075000 -0.023562 0.000000
vt 0.150000 -0.023562 0.000000
vt 0.075000 -0.019635 0.000000
vt 0.150000 -0.019635 0.000000
vt 0.150000 -0.015708 0.000000
vt -0.000000 -0.015708 0.000000
vt 0.000000 -0.019635 0.000000
vt 0.000000 -0.023562 0.000000
vt -0.000000 -0.027489 0.000000
vt -0.150000 -0.000000 0.000000
vt 0.000000 0.000000 0.000000
vt -0.150000 0.067000 0.000000
vt -0.000000 0.067000 0.000000
vt -0.000000 0.015708 0.000000
vt 0.150000 0.015708 0.000000
vt 0.075000 0.019635 0.000000
vt 0.150000 0.019635 0.000000
vt 0.075000 0.023562 0.000000
vt 0.150000 0.023562 0.000000
vt 0.075000 0.027489 0.000000
vt 0.150000 0.027489 0.000000
vt 0.150000 0.031416 0.000000
vt 0.000000 0.031416 0.000000
vt -0.000000 0.027489 0.000000
vt 0.000000 0.023562 0.000000
vt 0.000000 0.019635 0.000000
vt -0.031262 0.010405 0.000000
vt -0.037262 0.007754 0.000000
vt -0.031262 0.007754 0.000000
vt -0.000195 0.004581 0.000000
vt -0.029262 0.007754 0.000000
vt -0.023262 0.007754 0.000000
vt -0.023262 0.010405 0.000000
vt -0.037262 0.010405 0.000000
vt -0.031262 0.013057 0.000000
vt -0.037262 0.013057 0.000000
vt -0.037262 0.015708 0.000000
vt -0.031262 0.015708 0.000000
vt -0.071551 0.004581 0.000000
vt -0.039262 0.007754 0.000000
vt -0.071551 0.008290 0.000000
vt -0.039262 0.010405 0.000000
vt -0.071551 0.011999 0.000000
vt -0.039262 0.013057 0.000000
vt -0.143901 0.011999 0.000000
vt -0.423339 0.015708 0.000000
vt -0.216251 0.011999 0.000000
vt -0.288601 0.011999 0.000000
vt -0.216251 0.008290 0.000000
vt -0.288601 0.008290 0.000000
vt -0.216251 0.004581 0.000000
vt -0.288601 0.004581 0.000000
vt -0.433301 0.000873 0.000000
vt -0.360951 0.004581 0.000000
vt -0.432308 0.004581 0.000000
vt -0.430095 0.008290 0.000000
vt -0.360951 0.008290 0.000000
vt -0.426963 0.011999 0.000000
vt -0.360951 0.011999 0.000000
vt -0.039262 0.015708 0.000000
vt 0.000799 0.000873 0.000000
vt -0.143901 0.004581 0.000000
vt -0.143901 0.008290 0.000000
vt -0.002407 0.008290 0.000000
vt -0.013262 0.007754 0.000000
vt -0.015262 0.007754 0.000000
vt -0.021262 0.007754 0.000000
vt -0.015262 0.010405 0.000000
vt -0.021262 0.010405 0.000000
vt -0.015262 0.013057 0.000000
vt -0.021262 0.013057 0.000000
vt -0.021262 0.015708 0.000000
vt -0.015262 0.015708 0.000000
vt -0.013262 0.010405 0.000000
vt -0.005539 0.011999 0.000000
vt -0.013262 0.013057 0.000000
vt -0.009163 0.015708 0.000000
vt -0.013262 0.015708 0.000000
vt -0.029262 0.010405 0.000000
vt -0.023262 0.013057 0.000000
vt -0.029262 0.013057 0.000000
vt -0.029262 0.015708 0.000000
vt -0.023262 0.015708 0.000000
vt -0.008943 0.004581 0.000000
vt -0.071475 0.004581 0.000000
vt -0.007950 0.000873 0.000000
vt -0.135000 0.004581 0.000000
vt -0.262050 0.000873 0.000000
vt -0.198525 0.004581 0.000000
vt -0.261057 0.004581 0.000000
vt -0.258844 0.008290 0.000000
vt -0.198525 0.008290 0.000000
vt -0.255712 0.011999 0.000000
vt -0.198525 0.011999 0.000000
vt -0.252088 0.015708 0.000000
vt -0.135000 0.011999 0.000000
vt -0.017912 0.015708 0.000000
vt -0.071475 0.011999 0.000000
vt -0.014288 0.011999 0.000000
vt -0.071475 0.008290 0.000000
vt -0.011156 0.008290 0.000000
vt -0.135000 0.008290 0.000000
vt -0.014288 0.019417 0.000000
vt -0.071475 0.019417 0.000000
vt -0.017912 0.015708 0.000000
vt -0.135000 0.019417 0.000000
vt -0.252088 0.015708 0.000000
vt -0.198525 0.019417 0.000000
vt -0.255712 0.019417 0.000000
vt -0.198525 0.023126 0.000000
vt -0.258844 0.023126 0.000000
vt -0.198525 0.026834 0.000000
vt -0.261057 0.026834 0.000000
vt -0.262050 0.030543 0.000000
vt -0.135000 0.026834 0.000000
vt -0.007950 0.030543 0.000000
vt -0.071475 0.026834 0.000000
vt -0.008943 0.026834 0.000000
vt -0.011156 0.023126 0.000000
vt -0.071475 0.023126 0.000000
vt -0.135000 0.023126 0.000000
vt 0.403989 0.015708 0.000000
vt 0.409989 0.015708 0.000000
vt 0.403989 0.018359 0.000000
vt 0.409989 0.018359 0.000000
vt 0.409989 0.021011 0.000000
vt 0.403989 0.021011 0.000000
vt 0.409989 0.023662 0.000000
vt 0.403989 0.023662 0.000000
vt 0.441057 0.026834 0.000000
vt 0.369700 0.026834 0.000000
vt 0.442050 0.030543 0.000000
vt 0.297350 0.026834 0.000000
vt 0.225000 0.026834 0.000000
vt 0.297350 0.023126 0.000000
vt 0.225000 0.023126 0.000000
vt 0.297350 0.019417 0.000000
vt 0.225000 0.019417 0.000000
vt 0.401989 0.015708 0.000000
vt 0.017912 0.015708 0.000000
vt 0.152650 0.019417 0.000000
vt 0.080300 0.019417 0.000000
vt 0.080300 0.023126 0.000000
vt 0.014288 0.019417 0.000000
vt 0.011156 0.023126 0.000000
vt 0.080300 0.026834 0.000000
vt 0.008943 0.026834 0.000000
vt 0.007950 0.030543 0.000000
vt 0.152650 0.026834 0.000000
vt 0.411989 0.023662 0.000000
vt 0.417989 0.023662 0.000000
vt 0.419989 0.023662 0.000000
vt 0.411989 0.021011 0.000000
vt 0.417989 0.021011 0.000000
vt 0.411989 0.018359 0.000000
vt 0.417989 0.018359 0.000000
vt 0.417989 0.015708 0.000000
vt 0.411989 0.015708 0.000000
vt 0.425989 0.023662 0.000000
vt 0.419989 0.021011 0.000000
vt 0.425989 0.021011 0.000000
vt 0.419989 0.018359 0.000000
vt 0.425989 0.018359 0.000000
vt 0.425989 0.015708 0.000000
vt 0.419989 0.015708 0.000000
vt 0.427989 0.023662 0.000000
vt 0.438844 0.023126 0.000000
vt 0.427989 0.021011 0.000000
vt 0.435712 0.019417 0.000000
vt 0.427989 0.018359 0.000000
vt 0.432088 0.015708 0.000000
vt 0.427989 0.015708 0.000000
vt 0.369700 0.019417 0.000000
vt 0.401989 0.018359 0.000000
vt 0.401989 0.021011 0.000000
vt 0.369700 0.023126 0.000000
vt 0.401989 0.023662 0.000000
vt 0.152650 0.023126 0.000000
vt 0.091219 -0.442050 0.000000
vt 0.091219 -0.007950 0.000000
vt 0.000000 -0.450000 0.000000
vt -0.000000 0.000000 0.000000
vt -0.441951 -0.020076 0.000000
vt -0.450000 -0.112428 0.000000
vt -0.330359 -0.020076 0.000000
vt 0.000000 -0.112428 0.000000
vt -0.119641 -0.020076 0.000000
vt -0.008049 -0.020076 0.000000
vt -0.125000 -0.000000 0.000000
vt -0.325000 -0.000000 0.000000
vt 0.000000 0.000000 0.000000
vt 0.007950 -0.091219 0.000000
vt 0.060000 0.000062 0.000000
vt 0.262050 -0.091219 0.000000
vt 0.210000 0.000062 0.000000
vt 0.270000 -0.000000 0.000000
vt -0.261951 0.000000 0.000000
vt -0.008049 0.000000 0.000000
vt -0.261951 0.111592 0.000000
vt -0.008049 0.111592 0.000000
vt 0.020706 0.261951 0.000000
vt 0.000000 0.260201 0.000000
vt 0.020706 0.008049 0.000000
vt 0.000000 0.009799 0.000000
vt -0.260201 0.000000 0.000000
vt -0.009799 -0.000000 0.000000
vt -0.260201 0.200000 0.000000
vt -0.009799 0.200000 0.000000
vt -0.261951 0.000000 0.000000
vt -0.008049 -0.000000 0.000000
vt -0.260201 0.020706 0.000000
vt -0.009799 0.020706 0.000000
vt -0.261951 -0.000000 0.000000
vt -0.008049 -0.000000 0.000000
vt -0.261951 0.111592 0.000000
vt -0.008049 0.111592 0.000000
vt -0.270000 0.100382 0.000000
vt -0.262050 0.009163 0.000000
vt -0.210000 0.100444 0.000000
vt -0.007950 0.009163 0.000000
vt -0.060000 0.100444 0.000000
vt -0.000000 0.100382 0.000000
vt 0.008049 0.092351 0.000000
vt -0.000000 0.000000 0.000000
vt 0.119641 0.092351 0.000000
vt 0.450000 -0.000000 0.000000
vt 0.330359 0.092351 0.000000
vt 0.441951 0.092351 0.000000
vt 0.325000 0.112428 0.000000
vt 0.125000 0.112428 0.000000
vt -0.007950 -0.009163 0.000000
vt -0.442050 -0.009163 0.000000
vt -0.000000 -0.100382 0.000000
vt -0.450000 -0.100382 0.000000
vt 0.077294 0.210000 0.000000
vt 0.000000 0.008049 0.000000
vt 0.077294 0.060000 0.000000
vt 0.092351 0.000000 0.000000
vt 0.092290 0.060000 0.000000
vt 0.092290 0.210000 0.000000
vt 0.092351 0.270000 0.000000
vt 0.000000 0.261951 0.000000
vt -0.060000 0.015057 0.000000
vt -0.261951 0.092351 0.000000
vt -0.210000 0.015057 0.000000
vt -0.270000 -0.000000 0.000000
vt -0.210000 0.000062 0.000000
vt -0.060000 0.000062 0.000000
vt -0.000000 0.000000 0.000000
vt -0.008049 0.092351 0.000000
vt 0.003000 0.000000 0.000000
vt 0.000000 0.000000 0.000000
vt 0.003000 -0.013552 0.000000
vt 0.000000 -0.013552 0.000000
vt 0.151301 0.003000 0.000000
vt -0.000000 0.003000 0.000000
vt 0.151301 -0.000000 0.000000
vt 0.000000 0.000000 0.000000
vt -0.003000 0.000000 0.000000
vt 0.000000 0.000000 0.000000
vt -0.003000 0.001923 0.000000
vt 0.000000 0.001923 0.000000
vt 0.137779 0.003000 0.000000
vt 0.000000 0.003000 0.000000
vt 0.137779 0.000000 0.000000
vt 0.000000 0.000000 0.000000
vt 0.137712 0.003000 0.000000
vt -0.000000 0.003000 0.000000
vt 0.137712 -0.000000 0.000000
vt 0.000000 0.000000 0.000000
vt -0.003000 -0.000000 0.000000
vt 0.000000 0.000000 0.000000
vt -0.003000 0.001953 0.000000
vt 0.000000 0.001953 0.000000
vt 0.151317 0.003000 0.000000
vt 0.000000 0.003000 0.000000
vt 0.151317 0.000000 0.000000
vt -0.000000 0.000000 0.000000
vt 0.003000 0.000000 0.000000
vt 0.000000 0.000000 0.000000
vt 0.003000 -0.013522 0.000000
vt 0.000000 -0.013522 0.000000
vt 0.108884 0.003000 0.000000
vt -0.000000 0.003000 0.000000
vt 0.108884 0.000000 0.000000
vt 0.000000 0.000000 0.000000
vt 0.120753 0.003000 0.000000
vt 0.000000 0.003000 0.000000
vt 0.120753 -0.000000 0.000000
vt -0.000000 0.000000 0.000000
vt 0.003000 0.000000 0.000000
vt 0.000000 0.000000 0.000000
vt 0.003000 -0.003035 0.000000
vt 0.000000 -0.003035 0.000000
vt 0.121062 0.003000 0.000000
vt -0.000000 0.003000 0.000000
vt 0.121062 -0.000000 0.000000
vt 0.000000 0.000000 0.000000
vt 0.109119 0.003000 0.000000
vt 0.000000 0.003000 0.000000
vt 0.109119 0.000000 0.000000
vt -0.000000 0.000000 0.000000
vt 0.097118 0.035000 0.000000
vt 0.111451 0.143173 0.000000
vt 0.083566 0.035000 0.000000
vt 0.103368 0.185000 0.000000
vt 0.105291 0.185000 0.000000
vt 0.167220 0.061923 0.000000
vt 0.165808 0.035000 0.000000
vt 0.168843 0.035000 0.000000
vt 0.222990 0.142933 0.000000
vt 0.228999 0.185000 0.000000
vt 0.230952 0.185000 0.000000
vt 0.250874 0.035000 0.000000
vt 0.237353 0.035000 0.000000
vt 0.003000 -0.017912 0.000000
vt 0.002651 -0.015292 0.000000
vt 0.003000 -0.252088 0.000000
vt 0.002651 -0.254708 0.000000
vt 0.001627 -0.012855 0.000000
vt 0.001627 -0.257145 0.000000
vt 0.000000 -0.259229 0.000000
vt -0.000000 -0.010771 0.000000
vt 0.000000 -0.010771 0.000000
vt -0.001627 -0.012855 0.000000
vt -0.000000 -0.259229 0.000000
vt -0.001627 -0.257145 0.000000
vt -0.002651 -0.254708 0.000000
vt -0.002651 -0.015292 0.000000
vt -0.003000 -0.252088 0.000000
vt -0.003000 -0.017912 0.000000
vt 0.001000 -0.010771 0.000000
vt -0.001000 -0.010771 0.000000
vt 0.001000 -0.259229 0.000000
vt -0.001000 -0.259229 0.000000
vt -0.003000 0.000000 0.000000
vt 0.000000 0.000000 0.000000
vt -0.003000 0.015385 0.000000
vt -0.000000 0.015385 0.000000
vt -0.003000 0.000000 0.000000
vt 0.000000 0.000000 0.000000
vt -0.003000 0.092308 0.000000
vt 0.000000 0.092308 0.000000
vt 0.172874 0.003000 0.000000
vt 0.000000 0.003000 0.000000
vt 0.172874 -0.000000 0.000000
vt -0.000000 0.000000 0.000000
vt 0.013274 0.003000 0.000000
vt -0.000000 0.003000 0.000000
vt 0.013274 0.000000 0.000000
vt 0.000000 0.000000 0.000000
vt 0.148402 0.003000 0.000000
vt 0.000000 0.003000 0.000000
vt 0.148402 0.000000 0.000000
vt 0.000000 0.000000 0.000000
vt 0.003000 0.000000 0.000000
vt 0.000000 0.000000 0.000000
vt 0.003000 -0.069531 0.000000
vt 0.000000 -0.069531 0.000000
vt 0.277797 0.169615 0.000000
vt 0.347328 0.169615 0.000000
vt 0.277797 0.185000 0.000000
vt 0.370105 0.185000 0.000000
vt 0.291259 0.031154 0.000000
vt 0.279630 0.037554 0.000000
vt 0.003000 -0.017912 0.000000
vt 0.002651 -0.015292 0.000000
vt 0.003000 -0.252088 0.000000
vt 0.002651 -0.254708 0.000000
vt 0.001627 -0.012855 0.000000
vt 0.001627 -0.257145 0.000000
vt 0.000000 -0.259229 0.000000
vt -0.000000 -0.010771 0.000000
vt 0.000000 -0.010771 0.000000
vt -0.001627 -0.012855 0.000000
vt -0.000000 -0.259229 0.000000
vt -0.001627 -0.257145 0.000000
vt -0.002651 -0.254708 0.000000
vt -0.002651 -0.015292 0.000000
vt -0.003000 -0.252088 0.000000
vt -0.003000 -0.017912 0.000000
vt 0.001000 -0.010771 0.000000
vt -0.001000 -0.010771 0.000000
vt 0.001000 -0.259229 0.000000
vt -0.001000 -0.259229 0.000000
vt 0.003000 -0.017912 0.000000
vt 0.002651 -0.015292 0.000000
vt 0.003000 -0.252088 0.000000
vt 0.002651 -0.254708 0.000000
vt 0.001627 -0.012855 0.000000
vt 0.001627 -0.257145 0.000000
vt 0.000000 -0.259229 0.000000
vt -0.000000 -0.010771 0.000000
vt 0.000000 -0.010771 0.000000
vt -0.001627 -0.012855 0.000000
vt -0.000000 -0.259229 0.000000
vt -0.001627 -0.257145 0.000000
vt -0.002651 -0.254708 0.000000
vt -0.002651 -0.015292 0.000000
vt -0.003000 -0.252088 0.000000
vt -0.003000 -0.017912 0.000000
vt 0.001000 -0.010771 0.000000
vt -0.001000 -0.010771 0.000000
vt 0.001000 -0.259229 0.000000
vt -0.001000 -0.259229 0.000000
vt 0.003000 -0.017912 0.000000
vt 0.002651 -0.015292 0.000000
vt 0.003000 -0.252088 0.000000
vt 0.002651 -0.254708 0.000000
vt 0.001627 -0.012855 0.000000
vt 0.001627 -0.257145 0.000000
vt 0.000000 -0.259229 0.000000
vt -0.000000 -0.010771 0.000000
vt 0.000000 -0.010771 0.000000
vt -0.001627 -0.012855 0.000000
vt -0.000000 -0.259229 0.000000
vt -0.001627 -0.257145 0.000000
vt -0.002651 -0.254708 0.000000
vt -0.002651 -0.015292 0.000000
vt -0.003000 -0.252088 0.000000
vt -0.003000 -0.017912 0.000000
vt 0.001000 -0.010771 0.000000
vt -0.001000 -0.010771 0.000000
vt 0.001000 -0.259229 0.000000
vt -0.001000 -0.259229 0.000000
vn -1.000000 0.000000 -0.000000
vn -1.000000 0.000000 -0.000000
vn -1.000000 0.000000 -0.000000
vn -1.000000 0.000000 -0.000000
vn -1.000000 0.000000 -0.000000
vn -1.000000 0.000000 -0.000000
vn -1.000000 0.000000 -0.000000
vn -1.000000 0.000000 -0.000000
vn -1.000000 0.000000 -0.000000
vn -1.000000 0.000000 -0.000000
vn -1.000000 0.000000 -0.000000
vn -1.000000 0.000000 -0.000000
vn -1.000000 0.000000 -0.000000
vn -1.000000 0.000000 -0.000000
vn -1.000000 0.000000 -0.000000
vn -1.000000 0.000000 -0.000000
vn -1.000000 0.000000 -0.000000
vn -1.000000 0.000000 -0.000000
vn -1.000000 0.000000 -0.000000
vn -1.000000 0.000000 -0.000000
vn -1.000000 0.000000 -0.000000
vn -1.000000 0.000000 -0.000000
vn -1.000000 0.000000 -0.000000
vn -1.000000 0.000000 -0.000000
vn -1.000000 0.000000 -0.000000
vn -1.000000 0.000000 -0.000000
vn -1.000000 0.000000 -0.000000
vn -1.000000 0.000000 -0.000000
vn -1.000000 0.000000 -0.000000
vn -1.000000 0.000000 -0.000000
vn -1.000000 0.000000 -0.000000
vn -1.000000 0.000000 -0.000000
vn -1.000000 0.000000 -0.000000
vn -1.000000 0.000000 -0.000000
vn -1.000000 0.000000 -0.000000
vn -1.000000 0.000000 -0.000000
vn -1.000000 0.000000 -0.000000
vn -1.000000 0.000000 -0.000000
vn -1.000000 0.000000 -0.000000
vn 0.000000 0.965926 0.258819
vn 0.000000 0.965926 0.258819
vn 0.000000 0.965926 0.258819
vn 0.000000 0.965926 0.258819
vn 0.000000 0.965926 0.258819
vn 0.000000 0.965926 0.258819
vn 0.000000 0.965926 0.258819
vn 0.000000 0.965926 0.258819
vn 0.000000 0.965926 0.258819
vn 0.000000 0.965926 0.258819
vn 0.000000 0.965926 0.258819
vn 0.000000 0.965926 0.258819
vn 0.000000 0.965926 0.258819
vn 0.000000 0.965926 0.258819
vn 0.000000 0.965926 0.258819
vn 0.000000 0.965926 0.258819
vn 0.000000 0.965926 0.258819
vn 0.000000 0.965926 0.258819
vn 0.000000 0.965926 0.258819
vn 0.000000 0.965926 0.258819
vn 0.000000 0.965926 0.258819
vn 0.000000 0.965926 0.258819
vn 0.000000 0.965926 0.258819
vn 0.000000 0.965926 0.258819
vn 0.000000 0.965926 0.258819
vn 0.000000 0.965926 0.258819
vn 0.000000 0.965926 0.258819
vn -0.000000 -0.965926 -0.258819
vn -0.000000 -0.965926 -0.258819
vn -0.000000 -0.965926 -0.258819
vn -0.000000 -0.965926 -0.258819
vn -0.000000 -0.965926 -0.258819
vn -0.000000 -0.965926 -0.258819
vn -0.000000 -0.965926 -0.258819
vn -0.000000 -0.965926 -0.258819
vn -0.000000 -0.965926 -0.258819
vn -0.000000 -0.965926 -0.258819
vn -0.000000 -0.965926 -0.258819
vn -0.000000 -0.965926 -0.258819
vn -0.000000 -0.965926 -0.258819
vn -0.000000 -0.965926 -0.258819
vn -0.000000 -0.965926 -0.258819
vn -0.000000 -0.965926 -0.258819
vn -0.000000 -0.965926 -0.258819
vn -0.000000 -0.965926 -0.258819
vn -0.000000 -0.965926 -0.258819
vn -0.000000 -0.965926 -0.258819
vn -0.000000 -0.965926 -0.258819
vn -0.000000 -0.965926 -0.258819
vn -0.000000 -0.965926 -0.258819
vn -0.000000 -0.965926 -0.258819
vn -0.000000 -0.965926 -0.258819
vn -0.000000 -0.965926 -0.258819
vn -0.000000 -0.965926 -0.258819
vn 1.000000 -0.000000 0.000000
vn 1.000000 -0.000000 0.000000
vn 0.923880 0.099046 -0.369644
vn 0.923880 0.099046 -0.369644
vn 0.707107 0.183013 -0.683013
vn 0.707107 0.183013 -0.683013
vn 0.382683 0.239118 -0.892399
vn 0.382683 0.239118 -0.892399
vn 0.000000 0.258819 -0.965926
vn 0.000000 0.258819 -0.965926
vn 0.382683 0.239118 -0.892399
vn 0.707107 0.183013 -0.683013
vn 0.923880 0.099046 -0.369644
vn 0.000000 0.258819 -0.965926
vn 0.000000 0.258819 -0.965926
vn -0.382683 0.239118 -0.892399
vn -0.382683 0.239118 -0.892399
vn -0.707107 0.183013 -0.683013
vn -0.707107 0.183013 -0.683013
vn -0.923880 0.099046 -0.369644
vn -0.923880 0.099046 -0.369644
vn -1.000000 0.000000 0.000000
vn -1.000000 0.000000 0.000000
vn -0.923880 0.099046 -0.369644
vn -0.707107 0.183013 -0.683013
vn -0.382683 0.239118 -0.892399
vn -1.000000 0.000000 -0.000000
vn -1.000000 0.000000 -0.000000
vn 0.000000 0.258819 -0.965926
vn 0.000000 0.258819 -0.965926
vn 0.000000 0.258819 -0.965926
vn 0.000000 0.258819 -0.965926
vn 1.000000 -0.000000 0.000000
vn 1.000000 -0.000000 0.000000
vn 1.000000 -0.000000 0.000000
vn 1.000000 -0.000000 0.000000
vn 0.965926 -0.066987 0.250000
vn 0.965926 -0.066987 0.250000
vn 0.866025 -0.129410 0.482963
vn 0.866025 -0.129410 0.482963
vn 0.707107 -0.183013 0.683013
vn 0.707107 -0.183013 0.683013
vn 0.500000 -0.224144 0.836516
vn 0.500000 -0.224144 0.836516
vn 0.258819 -0.250000 0.933013
vn 0.258819 -0.250000 0.933013
vn -0.000000 -0.258819 0.965926
vn -0.000000 -0.258819 0.965926
vn -0.000000 -0.258819 0.965926
vn -0.000000 -0.258819 0.965926
vn -0.274864 -0.248850 0.928721
vn -0.274864 -0.248850 0.928721
vn -0.528554 -0.219711 0.819974
vn -0.528554 -0.219711 0.819974
vn -0.741528 -0.173647 0.648061
vn -0.741528 -0.173647 0.648061
vn -0.897379 -0.114207 0.426226
vn -0.897379 -0.114207 0.426226
vn -0.984101 -0.045968 0.171557
vn -0.984101 -0.045968 0.171557
vn -0.995026 0.025782 -0.096220
vn -0.995026 0.025782 -0.096220
vn 1.000000 -0.000000 0.000000
vn 1.000000 -0.000000 0.000000
vn 0.000000 0.258819 -0.965926
vn 0.000000 0.258819 -0.965926
vn -0.274864 0.248850 -0.928721
vn -0.274864 0.248850 -0.928721
vn -0.528554 0.219711 -0.819974
vn -0.528554 0.219711 -0.819974
vn -0.741528 0.173647 -0.648061
vn -0.741528 0.173647 -0.648061
vn -0.897379 0.114207 -0.426226
vn -0.897379 0.114207 -0.426226
vn -0.984101 0.045968 -0.171557
vn -0.984101 0.045968 -0.171557
vn -0.995026 -0.025782 0.096220
vn -0.995026 -0.025782 0.096220
vn 1.000000 -0.000000 0.000000
vn 1.000000 -0.000000 0.000000
vn 1.000000 -0.000000 0.000000
vn 1.000000 -0.000000 0.000000
vn 0.000000 0.965926 0.258819
vn 0.000000 0.965926 0.258819
vn 0.000000 0.965926 0.258819
vn 0.000000 0.965926 0.258819
vn 0.000000 0.965926 0.258819
vn 0.000000 0.965926 0.258819
vn 0.000000 0.965926 0.258819
vn 0.000000 0.965926 0.258819
vn 0.000000 0.965926 0.258819
vn 0.000000 0.965926 0.258819
vn 0.000000 0.965926 0.258819
vn 0.000000 0.965926 0.258819
vn 0.000000 0.965926 0.258819
vn 0.000000 0.965926 0.258819
vn 0.000000 0.965926 0.258819
vn 0.000000 0.965926 0.258819
vn 0.000000 0.965926 0.258819
vn 0.000000 0.965926 0.258819
vn 0.000000 0.965926 0.258819
vn 0.000000 0.965926 0.258819
vn 0.000000 0.965926 0.258819
vn 0.000000 0.965926 0.258819
vn 0.000000 0.965926 0.258819
vn 0.000000 0.965926 0.258819
vn 0.000000 0.965926 0.258819
vn 0.000000 0.965926 0.258819
vn 0.000000 0.965926 0.258819
vn -0.000000 -0.965926 -0.258819
vn -0.000000 -0.965926 -0.258819
vn -0.000000 -0.965926 -0.258819
vn -0.000000 -0.965926 -0.258819
vn -0.000000 -0.965926 -0.258819
vn -0.000000 -0.965926 -0.258819
vn -0.000000 -0.965926 -0.258819
vn -0.000000 -0.965926 -0.258819
vn -0.000000 -0.965926 -0.258819
vn -0.000000 -0.965926 -0.258819
vn -0.000000 -0.965926 -0.258819
vn -0.000000 -0.965926 -0.258819
vn -0.000000 -0.965926 -0.258819
vn -0.000000 -0.965926 -0.258819
vn -0.000000 -0.965926 -0.258819
vn -0.000000 -0.965926 -0.258819
vn -0.000000 -0.965926 -0.258819
vn -0.000000 -0.965926 -0.258819
vn -0.000000 -0.965926 -0.258819
vn -0.000000 -0.965926 -0.258819
vn -0.000000 -0.965926 -0.258819
vn -0.000000 -0.965926 -0.258819
vn -0.000000 -0.965926 -0.258819
vn -0.000000 -0.965926 -0.258819
vn -0.000000 -0.965926 -0.258819
vn -0.000000 -0.965926 -0.258819
vn -0.000000 -0.965926 -0.258819
vn 0.000000 0.258819 -0.965926
vn 0.000000 0.258819 -0.965926
vn 1.000000 -0.000000 0.000000
vn 1.000000 -0.000000 0.000000
vn 0.965926 0.066987 -0.250000
vn 0.965926 0.066987 -0.250000
vn 0.866025 0.129410 -0.482963
vn 0.866025 0.129410 -0.482963
vn 0.707107 0.183013 -0.683013
vn 0.707107 0.183013 -0.683013
vn 0.500000 0.224144 -0.836516
vn 0.500000 0.224144 -0.836516
vn 0.258819 0.250000 -0.933013
vn 0.258819 0.250000 -0.933013
vn 1.000000 -0.000000 0.000000
vn 1.000000 -0.000000 0.000000
vn -0.000000 -0.258819 0.965926
vn -0.000000 -0.258819 0.965926
vn -0.000000 -0.258819 0.965926
vn -0.000000 -0.258819 0.965926
vn -1.000000 0.000000 -0.000000
vn -1.000000 0.000000 -0.000000
vn -1.000000 0.000000 -0.000000
vn -1.000000 0.000000 -0.000000
vn -0.000000 -0.258819 0.965926
vn -0.000000 -0.258819 0.965926
vn -0.382683 -0.239118 0.892399
vn -0.382683 -0.239118 0.892399
vn -0.707107 -0.183013 0.683013
vn -0.707107 -0.183013 0.683013
vn -0.923880 -0.099046 0.369644
vn -0.923880 -0.099046 0.369644
vn -0.923880 -0.099046 0.369644
vn -0.707107 -0.183013 0.683013
vn -0.382683 -0.239118 0.892399
vn -0.000000 -0.258819 0.965926
vn -0.000000 -0.258819 0.965926
vn 0.923880 -0.099046 0.369644
vn 0.923880 -0.099046 0.369644
vn 0.707107 -0.183013 0.683013
vn 0.707107 -0.183013 0.683013
vn 0.382683 -0.239118 0.892399
vn 0.382683 -0.239118 0.892399
vn 0.382683 -0.239118 0.892399
vn 0.707107 -0.183013 0.683013
vn 0.923880 -0.099046 0.369644
vn -0.862673 0.488529 0.130901
vn -0.700000 0.689809 0.184834
vn -0.700000 0.689809 0.184834
vn -0.442289 0.866313 0.232128
vn -0.700000 0.689809 0.184834
vn -0.700000 0.689809 0.184834
vn -0.862673 0.488529 0.130901
vn -0.862673 0.488529 0.130901
vn -0.965058 0.253109 0.067820
vn -0.965058 0.253109 0.067820
vn -0.442289 0.866313 0.232128
vn -0.700000 0.689809 0.184834
vn -0.737277 0.652570 0.174856
vn -0.862673 0.488529 0.130901
vn -0.932008 0.350088 0.093806
vn -0.965058 0.253109 0.067820
vn -0.932008 0.350088 0.093806
vn -0.932008 0.350088 0.093806
vn -0.932008 0.350088 0.093806
vn -0.737277 0.652570 0.174856
vn -0.737277 0.652570 0.174856
vn -0.442289 0.866313 0.232128
vn -0.442289 0.866313 0.232128
vn -0.087156 0.962250 0.257834
vn -0.442289 0.866313 0.232128
vn -0.442289 0.866313 0.232128
vn -0.737277 0.652570 0.174856
vn -0.737277 0.652570 0.174856
vn -0.932008 0.350088 0.093806
vn -0.932008 0.350088 0.093806
vn -0.087156 0.962250 0.257834
vn -0.442289 0.866313 0.232128
vn -0.737277 0.652570 0.174856
vn -0.737277 0.652570 0.174856
vn -0.700000 0.689809 0.184834
vn -0.700000 0.689809 0.184834
vn -0.700000 0.689809 0.184834
vn -0.862673 0.488529 0.130901
vn -0.862673 0.488529 0.130901
vn -0.965058 0.253109 0.067820
vn -0.965058 0.253109 0.067820
vn -0.862673 0.488529 0.130901
vn -0.932008 0.350088 0.093806
vn -0.965058 0.253109 0.067820
vn -0.862673 0.488529 0.130901
vn -0.965058 0.253109 0.067820
vn -0.965058 0.253109 0.067820
vn -0.442289 0.232128 -0.866313
vn -0.442289 0.232128 -0.866313
vn -0.087156 0.257834 -0.962250
vn -0.442289 0.232128 -0.866313
vn -0.087156 0.257834 -0.962250
vn -0.442289 0.232128 -0.866313
vn -0.442289 0.232128 -0.866313
vn -0.737277 0.174856 -0.652570
vn -0.737277 0.174856 -0.652570
vn -0.932008 0.093806 -0.350088
vn -0.932008 0.093806 -0.350088
vn -0.932008 0.093806 -0.350088
vn -0.932008 0.093806 -0.350088
vn -0.932008 0.093806 -0.350088
vn -0.737277 0.174856 -0.652570
vn -0.737277 0.174856 -0.652570
vn -0.737277 0.174856 -0.652570
vn -0.932008 -0.093806 0.350088
vn -0.932008 -0.093806 0.350088
vn -0.932008 -0.093806 0.350088
vn -0.932008 -0.093806 0.350088
vn -0.932008 -0.093806 0.350088
vn -0.737277 -0.174856 0.652570
vn -0.737277 -0.174856 0.652570
vn -0.442289 -0.232128 0.866313
vn -0.442289 -0.232128 0.866313
vn -0.087156 -0.257834 0.962250
vn -0.442289 -0.232128 0.866313
vn -0.087156 -0.257834 0.962250
vn -0.442289 -0.232128 0.866313
vn -0.442289 -0.232128 0.866313
vn -0.737277 -0.174856 0.652570
vn -0.737277 -0.174856 0.652570
vn -0.737277 -0.174856 0.652570
vn -0.965058 -0.253109 -0.067820
vn -0.965058 -0.253109 -0.067820
vn -0.862673 -0.488529 -0.130901
vn -0.862673 -0.488529 -0.130901
vn -0.700000 -0.689809 -0.184834
vn -0.700000 -0.689809 -0.184834
vn -0.442289 -0.866313 -0.232128
vn -0.442289 -0.866313 -0.232128
vn -0.087156 -0.962250 -0.257834
vn -0.442289 -0.866313 -0.232128
vn -0.442289 -0.866313 -0.232128
vn -0.737277 -0.652570 -0.174856
vn -0.737277 -0.652570 -0.174856
vn -0.932008 -0.350088 -0.093806
vn -0.932008 -0.350088 -0.093806
vn -0.932008 -0.350088 -0.093806
vn -0.932008 -0.350088 -0.093806
vn -0.737277 -0.652570 -0.174856
vn -0.932008 -0.350088 -0.093806
vn -0.737277 -0.652570 -0.174856
vn -0.442289 -0.866313 -0.232128
vn -0.442289 -0.866313 -0.232128
vn -0.087156 -0.962250 -0.257834
vn -0.442289 -0.866313 -0.232128
vn -0.700000 -0.689809 -0.184834
vn -0.700000 -0.689809 -0.184834
vn -0.700000 -0.689809 -0.184834
vn -0.862673 -0.488529 -0.130901
vn -0.862673 -0.488529 -0.130901
vn -0.965058 -0.253109 -0.067820
vn -0.965058 -0.253109 -0.067820
vn -0.700000 -0.689809 -0.184834
vn -0.862673 -0.488529 -0.130901
vn -0.862673 -0.488529 -0.130901
vn -0.965058 -0.253109 -0.067820
vn -0.965058 -0.253109 -0.067820
vn -0.700000 -0.689809 -0.184834
vn -0.737277 -0.652570 -0.174856
vn -0.862673 -0.488529 -0.130901
vn -0.932008 -0.350088 -0.093806
vn -0.965058 -0.253109 -0.067820
vn -0.932008 -0.350088 -0.093806
vn -0.965058 -0.253109 -0.067820
vn -0.862673 -0.488529 -0.130901
vn -0.737277 -0.652570 -0.174856
vn -0.700000 -0.689809 -0.184834
vn -0.737277 -0.652570 -0.174856
vn -0.087156 0.962250 0.257834
vn -0.087156 0.962250 0.257834
vn 0.087156 0.962250 0.257834
vn 0.087156 0.962250 0.257834
vn 0.087156 0.962250 0.257834
vn 0.087156 0.962250 0.257834
vn 0.087156 0.962250 0.257834
vn 0.087156 0.962250 0.257834
vn 0.087156 0.962250 0.257834
vn 0.087156 0.962250 0.257834
vn -0.087156 0.257834 -0.962250
vn -0.087156 0.257834 -0.962250
vn -0.087156 0.257834 -0.962250
vn -0.087156 0.257834 -0.962250
vn 1.000000 -0.000000 0.000000
vn 1.000000 -0.000000 0.000000
vn 1.000000 -0.000000 0.000000
vn 1.000000 -0.000000 0.000000
vn 0.258819 0.250000 -0.933013
vn 0.258819 0.250000 -0.933013
vn 0.258819 0.250000 -0.933013
vn 0.258819 0.250000 -0.933013
vn 1.000000 -0.000000 0.000000
vn 1.000000 -0.000000 0.000000
vn 1.000000 -0.000000 0.000000
vn 1.000000 -0.000000 0.000000
vn 0.258819 -0.250000 0.933013
vn 0.258819 -0.250000 0.933013
vn 0.258819 -0.250000 0.933013
vn 0.258819 -0.250000 0.933013
vn 1.000000 -0.000000 0.000000
vn 1.000000 -0.000000 0.000000
vn 1.000000 -0.000000 0.000000
vn 1.000000 -0.000000 0.000000
vn -0.087156 -0.257834 0.962250
vn -0.087156 -0.257834 0.962250
vn -0.087156 -0.257834 0.962250
vn -0.087156 -0.257834 0.962250
vn 0.087156 -0.962250 -0.257834
vn 0.087156 -0.962250 -0.257834
vn 0.087156 -0.962250 -0.257834
vn 0.087156 -0.962250 -0.257834
vn 0.087156 -0.962250 -0.257834
vn 0.087156 -0.962250 -0.257834
vn 0.087156 -0.962250 -0.257834
vn 0.087156 -0.962250 -0.257834
vn -0.087156 -0.962250 -0.257834
vn -0.087156 -0.962250 -0.257834
vn 0.087156 0.257834 -0.962250
vn 0.087156 0.257834 -0.962250
vn 0.087156 0.257834 -0.962250
vn 0.087156 0.257834 -0.962250
vn 0.087156 0.257834 -0.962250
vn 0.087156 0.257834 -0.962250
vn 0.087156 0.257834 -0.962250
vn 0.087156 0.257834 -0.962250
vn 0.087156 -0.257834 0.962250
vn 0.087156 -0.257834 0.962250
vn 0.087156 -0.257834 0.962250
vn 0.087156 -0.257834 0.962250
vn 0.087156 -0.257834 0.962250
vn 0.087156 -0.257834 0.962250
vn 0.087156 -0.257834 0.962250
vn 0.087156 -0.257834 0.962250
vn 0.000000 0.965926 0.258819
vn 0.000000 0.965926 0.258819
vn 0.000000 0.965926 0.258819
vn 0.000000 0.965926 0.258819
vn -0.000000 -0.383009 0.923745
vn -0.000000 -0.383009 0.923745
vn -0.000000 -0.383009 0.923745
vn -0.000000 -0.383009 0.923745
vn -0.000000 -0.965926 -0.258819
vn -0.000000 -0.965926 -0.258819
vn -0.000000 -0.965926 -0.258819
vn -0.000000 -0.965926 -0.258819
vn 0.000000 -0.202964 -0.979186
vn 0.000000 -0.202964 -0.979186
vn 0.000000 -0.202964 -0.979186
vn 0.000000 -0.202964 -0.979186
vn -0.000000 -0.664637 0.747166
vn -0.000000 -0.664637 0.747166
vn -0.000000 -0.664637 0.747166
vn -0.000000 -0.664637 0.747166
vn -0.000000 -0.965926 -0.258819
vn -0.000000 -0.965926 -0.258819
vn -0.000000 -0.965926 -0.258819
vn -0.000000 -0.965926 -0.258819
vn 0.000000 0.129396 -0.991593
vn 0.000000 0.129396 -0.991593
vn 0.000000 0.129396 -0.991593
vn 0.000000 0.129396 -0.991593
vn 0.000000 0.965926 0.258819
vn 0.000000 0.965926 0.258819
vn 0.000000 0.965926 0.258819
vn 0.000000 0.965926 0.258819
vn -0.000000 -0.129141 0.991626
vn -0.000000 -0.129141 0.991626
vn -0.000000 -0.129141 0.991626
vn -0.000000 -0.129141 0.991626
vn 0.000000 0.664469 -0.747316
vn 0.000000 0.664469 -0.747316
vn 0.000000 0.664469 -0.747316
vn 0.000000 0.664469 -0.747316
vn 0.000000 0.965926 0.258819
vn 0.000000 0.965926 0.258819
vn 0.000000 0.965926 0.258819
vn 0.000000 0.965926 0.258819
vn -0.000000 0.202437 0.979295
vn -0.000000 0.202437 0.979295
vn -0.000000 0.202437 0.979295
vn -0.000000 0.202437 0.979295
vn 0.000000 0.383453 -0.923560
vn 0.000000 0.383453 -0.923560
vn 0.000000 0.383453 -0.923560
vn 0.000000 0.383453 -0.923560
vn -1.000000 0.000000 -0.000000
vn -1.000000 0.000000 -0.000000
vn -1.000000 0.000000 -0.000000
vn -1.000000 0.000000 -0.000000
vn -1.000000 0.000000 -0.000000
vn -1.000000 0.000000 -0.000000
vn -1.000000 0.000000 -0.000000
vn -1.000000 0.000000 -0.000000
vn -1.000000 0.000000 -0.000000
vn -1.000000 0.000000 -0.000000
vn -1.000000 0.000000 -0.000000
vn -1.000000 0.000000 -0.000000
vn -1.000000 0.000000 -0.000000
vn 0.000000 0.258819 -0.965926
vn 0.000000 0.258819 -0.965926
vn 0.000000 0.258819 -0.965926
vn 0.000000 0.258819 -0.965926
vn 0.000000 0.258819 -0.965926
vn 0.000000 0.258819 -0.965926
vn 0.000000 0.258819 -0.965926
vn 0.000000 0.258819 -0.965926
vn -0.000000 -0.258819 0.965926
vn -0.000000 -0.258819 0.965926
vn -0.000000 -0.258819 0.965926
vn -0.000000 -0.258819 0.965926
vn -0.000000 -0.258819 0.965926
vn -0.000000 -0.258819 0.965926
vn -0.000000 -0.258819 0.965926
vn -0.000000 -0.258819 0.965926
vn -1.000000 0.000000 -0.000000
vn -1.000000 0.000000 -0.000000
vn -1.000000 0.000000 -0.000000
vn -1.000000 0.000000 -0.000000
vn -0.000000 -0.258819 0.965926
vn -0.000000 -0.258819 0.965926
vn -0.000000 -0.258819 0.965926
vn -0.000000 -0.258819 0.965926
vn -0.000000 -0.965926 -0.258819
vn -0.000000 -0.965926 -0.258819
vn -0.000000 -0.965926 -0.258819
vn -0.000000 -0.965926 -0.258819
vn 0.000000 0.670882 -0.741565
vn 0.000000 0.670882 -0.741565
vn 0.000000 0.670882 -0.741565
vn 0.000000 0.670882 -0.741565
vn 0.000000 0.721424 0.692494
vn 0.000000 0.721424 0.692494
vn 0.000000 0.721424 0.692494
vn 0.000000 0.721424 0.692494
vn -0.000000 -0.670957 0.741497
vn -0.000000 -0.670957 0.741497
vn -0.000000 -0.670957 0.741497
vn -0.000000 -0.670957 0.741497
vn 0.000000 0.965926 0.258819
vn 0.000000 0.965926 0.258819
vn 0.000000 0.965926 0.258819
vn 0.000000 0.965926 0.258819
vn -1.000000 0.000000 -0.000000
vn -1.000000 0.000000 -0.000000
vn -1.000000 0.000000 -0.000000
vn -1.000000 0.000000 -0.000000
vn -1.000000 0.000000 -0.000000
vn -1.000000 0.000000 -0.000000
vn 0.000000 0.258819 -0.965926
vn 0.000000 0.258819 -0.965926
vn 0.000000 0.258819 -0.965926
vn 0.000000 0.258819 -0.965926
vn 0.000000 0.258819 -0.965926
vn 0.000000 0.258819 -0.965926
vn 0.000000 0.258819 -0.965926
vn 0.000000 0.258819 -0.965926
vn -0.000000 -0.258819 0.965926
vn -0.000000 -0.258819 0.965926
vn -0.000000 -0.258819 0.965926
vn -0.000000 -0.258819 0.965926
vn -0.000000 -0.258819 0.965926
vn -0.000000 -0.258819 0.965926
vn -0.000000 -0.258819 0.965926
vn -0.000000 -0.258819 0.965926
vn -1.000000 0.000000 -0.000000
vn -1.000000 0.000000 -0.000000
vn -1.000000 0.000000 -0.000000
vn -1.000000 0.000000 -0.000000
vn 0.000000 0.258819 -0.965926
vn 0.000000 0.258819 -0.965926
vn 0.000000 0.258819 -0.965926
vn 0.000000 0.258819 -0.965926
vn 0.000000 0.258819 -0.965926
vn 0.000000 0.258819 -0.965926
vn 0.000000 0.258819 -0.965926
vn 0.000000 0.258819 -0.965926
vn -0.000000 -0.258819 0.965926
vn -0.000000 -0.258819 0.965926
vn -0.000000 -0.258819 0.965926
vn -0.000000 -0.258819 0.965926
vn -0.000000 -0.258819 0.965926
vn -0.000000 -0.258819 0.965926
vn -0.000000 -0.258819 0.965926
vn -0.000000 -0.258819 0.965926
vn -1.000000 0.000000 -0.000000
vn -1.000000 0.000000 -0.000000
vn -1.000000 0.000000 -0.000000
vn -1.000000 0.000000 -0.000000
vn 0.000000 0.258819 -0.965926
vn 0.000000 0.258819 -0.965926
vn 0.000000 0.258819 -0.965926
vn 0.000000 0.258819 -0.965926
vn 0.000000 0.258819 -0.965926
vn 0.000000 0.258819 -0.965926
vn 0.000000 0.258819 -0.965926
vn 0.000000 0.258819 -0.965926
vn -0.000000 -0.258819 0.965926
vn -0.000000 -0.258819 0.965926
vn -0.000000 -0.258819 0.965926
vn -0.000000 -0.258819 0.965926
vn -0.000000 -0.258819 0.965926
vn -0.000000 -0.258819 0.965926
vn -0.000000 -0.258819 0.965926
vn -0.000000 -0.258819 0.965926
vn -1.000000 0.000000 -0.000000
vn -1.000000 0.000000 -0.000000
vn -1.000000 0.000000 -0.000000
vn -1.000000 0.000000 -0.000000
usemtl Opaque(202,209,238)
f 2/1/1 3/2/2 1/3/3
f 1/3/3 3/2/2 4/4/4
f 6/5/5 7/6/6 5/7/7
f 5/7/7 7/6/6 8/8/8
f 10/9/9 11/10/10 9/11/11
f 9/11/11 11/10/10 12/12/12
f 14/13/13 19/14/14 13/15/15
f 13/15/15 19/14/14 20/16/16
f 13/15/15 20/16/16 21/17/17
f 15/18/18 34/19/19 14/13/13
f 14/13/13 34/19/19 26/20/20
f 14/13/13 26/20/20 28/21/21
f 28/21/21 26/20/20 27/22/22
f 34/19/19 15/18/18 33/23/23
f 33/23/23 15/18/18 16/24/24
f 33/23/23 16/24/24 32/25/25
f 32/25/25 16/24/24 24/26/26
f 32/25/25 24/26/26 31/27/27
f 31/27/27 24/26/26 25/28/28
f 31/27/27 25/28/28 35/29/29
f 35/29/29 25/28/28 34/19/19
f 34/19/19 25/28/28 26/20/20
f 16/24/24 13/15/15 24/26/26
f 24/26/26 13/15/15 23/30/30
f 23/30/30 13/15/15 21/17/17
f 23/30/30 21/17/17 22/31/31
f 17/32/32 18/33/33 29/34/34
f 29/34/34 18/33/33 14/13/13
f 29/34/34 14/13/13 28/21/21
f 18/33/33 19/14/14 14/13/13
f 30/35/35 31/27/27 35/29/29
f 37/36/36 38/37/37 36/38/38
f 36/38/38 38/37/37 39/39/39
f 41/40/40 42/41/41 40/42/42
f 40/42/42 42/41/41 43/43/43
f 40/42/42 43/43/43 66/44/44
f 66/44/44 43/43/43 44/45/45
f 66/44/44 44/45/45 45/46/46
f 66/44/44 45/46/46 65/47/47
f 65/47/47 45/46/46 46/48/48
f 65/47/47 46/48/48 64/49/49
f 64/49/49 46/48/48 47/50/50
f 64/49/49 47/50/50 63/51/51
f 63/51/51 47/50/50 48/52/52
f 63/51/51 48/52/52 62/53/53
f 62/53/53 48/52/52 49/54/54
f 62/53/53 49/54/54 50/55/55
f 62/53/53 50/55/55 61/56/56
f 61/56/56 50/55/55 51/57/57
f 61/56/56 51/57/57 60/58/58
f 60/58/58 51/57/57 52/59/59
f 60/58/58 52/59/59 53/60/60
f 60/58/58 53/60/60 59/61/61
f 59/61/61 53/60/60 54/62/62
f 59/61/61 54/62/62 58/63/63
f 58/63/63 54/62/62 55/64/64
f 58/63/63 55/64/64 57/65/65
f 57/65/65 55/64/64 56/66/66
f 68/67/67 69/68/68 67/69/69
f 67/69/69 69/68/68 93/70/70
f 93/70/70 69/68/68 70/71/71
f 93/70/70 70/71/71 92/72/72
f 92/72/72 70/71/71 91/73/73
f 91/73/73 70/71/71 71/74/74
f 91/73/73 71/74/74 90/75/75
f 90/75/75 71/74/74 72/76/76
f 90/75/75 72/76/76 89/77/77
f 89/77/77 72/76/76 73/78/78
f 89/77/77 73/78/78 88/79/79
f 88/79/79 73/78/78 87/80/80
f 87/80/80 73/78/78 74/81/81
f 87/80/80 74/81/81 86/82/82
f 86/82/82 74/81/81 75/83/83
f 86/82/82 75/83/83 85/84/84
f 85/84/84 75/83/83 76/85/85
f 85/84/84 76/85/85 84/86/86
f 84/86/86 76/85/85 83/87/87
f 83/87/87 76/85/85 77/88/88
f 83/87/87 77/88/88 82/89/89
f 82/89/89 77/88/88 78/90/90
f 82/89/89 78/90/90 81/91/91
f 81/91/91 78/90/90 79/92/92
f 81/91/91 79/92/92 80/93/93
f 69/94/94 40/95/95 94/96/96
f 94/96/96 40/95/95 66/97/97
f 94/96/96 66/97/97 95/98/98
f 95/98/98 66/97/97 65/99/99
f 95/98/98 65/99/99 96/100/100
f 96/100/100 65/99/99 64/101/101
f 96/100/100 64/101/101 63/102/102
f 63/102/102 73/103/103 96/100/100
f 96/100/100 73/103/103 72/104/104
f 96/100/100 72/104/104 95/98/98
f 95/98/98 72/104/104 71/105/105
f 95/98/98 71/105/105 94/96/96
f 94/96/96 71/105/105 70/106/106
f 94/96/96 70/106/106 69/94/94
f 63/107/102 62/108/107 73/109/103
f 73/109/103 62/108/107 74/110/108
f 74/111/108 62/112/107 97/113/109
f 97/113/109 62/112/107 61/114/110
f 97/113/109 61/114/110 98/115/111
f 98/115/111 61/114/110 60/116/112
f 98/115/111 60/116/112 99/117/113
f 99/117/113 60/116/112 59/118/114
f 99/117/113 59/118/114 58/119/115
f 58/119/115 78/120/116 99/117/113
f 99/117/113 78/120/116 77/121/117
f 99/117/113 77/121/117 98/115/111
f 98/115/111 77/121/117 76/122/118
f 98/115/111 76/122/118 97/113/109
f 97/113/109 76/122/118 75/123/119
f 97/113/109 75/123/119 74/111/108
f 58/124/115 57/125/120 78/126/116
f 78/126/116 57/125/120 79/127/121
f 57/128/122 56/129/123 79/130/124
f 79/130/124 56/129/123 80/131/125
f 56/132/126 55/133/127 80/134/128
f 80/134/128 55/133/127 81/135/129
f 81/136/129 55/137/127 82/138/130
f 82/138/130 55/137/127 54/139/131
f 82/138/130 54/139/131 83/140/132
f 83/140/132 54/139/131 53/141/133
f 83/140/132 53/141/133 84/142/134
f 84/142/134 53/141/133 52/143/135
f 84/142/134 52/143/135 85/144/136
f 85/144/136 52/143/135 51/145/137
f 85/144/136 51/145/137 86/146/138
f 86/146/138 51/145/137 50/147/139
f 86/146/138 50/147/139 87/148/140
f 87/148/140 50/147/139 49/149/141
f 49/150/141 48/151/142 87/152/140
f 87/152/140 48/151/142 88/153/143
f 88/154/143 48/155/142 89/156/144
f 89/156/144 48/155/142 47/157/145
f 89/156/144 47/157/145 90/158/146
f 90/158/146 47/157/145 46/159/147
f 90/158/146 46/159/147 91/160/148
f 91/160/148 46/159/147 45/161/149
f 91/160/148 45/161/149 92/162/150
f 92/162/150 45/161/149 44/163/151
f 92/162/150 44/163/151 93/164/152
f 93/164/152 44/163/151 43/165/153
f 93/164/152 43/165/153 67/166/154
f 67/166/154 43/165/153 42/167/155
f 68/168/156 41/169/157 69/170/94
f 69/170/94 41/169/157 40/171/95
f 113/172/158 100/173/159 112/174/160
f 112/174/160 100/173/159 101/175/161
f 112/174/160 101/175/161 111/176/162
f 111/176/162 101/175/161 102/177/163
f 111/176/162 102/177/163 110/178/164
f 110/178/164 102/177/163 103/179/165
f 110/178/164 103/179/165 109/180/166
f 109/180/166 103/179/165 104/181/167
f 109/180/166 104/181/167 108/182/168
f 108/182/168 104/181/167 105/183/169
f 108/182/168 105/183/169 107/184/170
f 107/184/170 105/183/169 106/185/171
f 114/186/172 115/187/173 117/188/174
f 117/188/174 115/187/173 116/189/175
f 115/190/176 114/191/177 107/192/178
f 107/192/178 114/191/177 108/193/179
f 108/193/179 114/191/177 118/194/180
f 108/193/179 118/194/180 109/195/181
f 109/195/181 118/194/180 110/196/182
f 110/196/182 118/194/180 119/197/183
f 110/196/182 119/197/183 111/198/184
f 111/198/184 119/197/183 120/199/185
f 111/198/184 120/199/185 112/200/186
f 112/200/186 120/199/185 121/201/187
f 112/200/186 121/201/187 113/202/188
f 113/202/188 121/201/187 122/203/189
f 113/202/188 122/203/189 135/204/190
f 135/204/190 122/203/189 134/205/191
f 134/205/191 122/203/189 123/206/192
f 134/205/191 123/206/192 133/207/193
f 133/207/193 123/206/192 124/208/194
f 133/207/193 124/208/194 132/209/195
f 132/209/195 124/208/194 131/210/196
f 131/210/196 124/208/194 125/211/197
f 131/210/196 125/211/197 130/212/198
f 130/212/198 125/211/197 126/213/199
f 130/212/198 126/213/199 129/214/200
f 129/214/200 126/213/199 128/215/201
f 128/215/201 126/213/199 127/216/202
f 116/217/203 106/218/204 117/219/205
f 117/219/205 106/218/204 105/220/206
f 117/219/205 105/220/206 153/221/207
f 153/221/207 105/220/206 104/222/208
f 153/221/207 104/222/208 103/223/209
f 153/221/207 103/223/209 152/224/210
f 152/224/210 103/223/209 102/225/211
f 152/224/210 102/225/211 151/226/212
f 151/226/212 102/225/211 101/227/213
f 151/226/212 101/227/213 150/228/214
f 150/228/214 101/227/213 100/229/215
f 150/228/214 100/229/215 149/230/216
f 149/230/216 100/229/215 136/231/217
f 149/230/216 136/231/217 137/232/218
f 149/230/216 137/232/218 148/233/219
f 148/233/219 137/232/218 138/234/220
f 148/233/219 138/234/220 147/235/221
f 147/235/221 138/234/220 139/236/222
f 147/235/221 139/236/222 140/237/223
f 147/235/221 140/237/223 146/238/224
f 146/238/224 140/237/223 141/239/225
f 146/238/224 141/239/225 145/240/226
f 145/240/226 141/239/225 142/241/227
f 145/240/226 142/241/227 144/242/228
f 144/242/228 142/241/227 143/243/229
f 136/244/230 100/245/159 135/246/231
f 135/246/231 100/245/159 113/247/158
f 129/248/232 142/249/233 130/250/234
f 130/250/234 142/249/233 141/251/235
f 130/250/234 141/251/235 131/252/236
f 131/252/236 141/251/235 140/253/237
f 131/252/236 140/253/237 132/254/238
f 132/254/238 140/253/237 139/255/239
f 132/254/238 139/255/239 133/256/240
f 133/256/240 139/255/239 138/257/241
f 133/256/240 138/257/241 134/258/242
f 134/258/242 138/257/241 137/259/243
f 134/258/242 137/259/243 135/260/231
f 135/260/231 137/259/243 136/261/230
f 142/262/233 129/263/232 143/264/244
f 143/264/244 129/263/232 128/265/245
f 143/266/246 128/267/247 144/268/248
f 144/268/248 128/267/247 127/269/249
f 145/270/250 144/271/251 126/272/252
f 126/272/252 144/271/251 127/273/253
f 122/274/254 149/275/255 154/276/256
f 154/276/256 149/275/255 148/277/257
f 154/276/256 148/277/257 155/278/258
f 155/278/258 148/277/257 147/279/259
f 155/278/258 147/279/259 156/280/260
f 156/280/260 147/279/259 146/281/261
f 156/280/260 146/281/261 145/282/250
f 145/282/250 126/283/252 156/280/260
f 156/280/260 126/283/252 125/284/262
f 156/280/260 125/284/262 155/278/258
f 155/278/258 125/284/262 124/285/263
f 155/278/258 124/285/263 154/276/256
f 154/276/256 124/285/263 123/286/264
f 154/276/256 123/286/264 122/274/254
f 149/287/255 122/288/254 150/289/265
f 150/289/265 122/288/254 121/290/266
f 114/291/172 117/292/174 157/293/267
f 157/293/267 117/292/174 153/294/268
f 157/293/267 153/294/268 158/295/269
f 158/295/269 153/294/268 152/296/270
f 158/295/269 152/296/270 159/297/271
f 159/297/271 152/296/270 151/298/272
f 159/297/271 151/298/272 150/299/265
f 150/299/265 121/300/266 159/297/271
f 159/297/271 121/300/266 120/301/273
f 159/297/271 120/301/273 158/295/269
f 158/295/269 120/301/273 119/302/274
f 158/295/269 119/302/274 157/293/267
f 157/293/267 119/302/274 118/303/275
f 157/293/267 118/303/275 114/291/172
f 161/304/276 165/305/277 160/306/278
f 160/306/278 165/305/277 174/307/279
f 160/306/278 174/307/279 191/308/280
f 191/308/280 174/307/279 186/309/281
f 191/308/280 186/309/281 187/310/282
f 165/305/277 161/304/276 164/311/283
f 164/311/283 161/304/276 162/312/284
f 164/311/283 162/312/284 163/313/285
f 163/313/285 162/312/284 4/314/4
f 4/314/4 162/312/284 1/315/3
f 174/307/279 165/305/277 201/316/286
f 201/316/286 165/305/277 166/317/287
f 201/316/286 166/317/287 192/318/288
f 192/318/288 166/317/287 167/319/289
f 192/318/288 167/319/289 202/320/290
f 202/320/290 167/319/289 168/321/291
f 202/320/290 168/321/291 203/322/292
f 203/322/292 168/321/291 16/323/24
f 203/322/292 16/323/24 204/324/293
f 204/324/293 16/323/24 205/325/294
f 204/324/293 205/325/294 194/326/295
f 194/326/295 205/325/294 195/327/296
f 194/326/295 195/327/296 199/328/297
f 199/328/297 195/327/296 198/329/298
f 199/328/297 198/329/298 172/330/299
f 172/330/299 198/329/298 197/331/300
f 172/330/299 197/331/300 171/332/301
f 171/332/301 197/331/300 170/333/302
f 170/333/302 197/331/300 196/334/303
f 170/333/302 196/334/303 169/335/304
f 169/335/304 196/334/303 206/336/305
f 169/335/304 206/336/305 16/323/24
f 16/323/24 206/336/305 205/325/294
f 168/321/291 13/337/15 16/323/24
f 172/330/299 173/338/306 199/328/297
f 199/328/297 173/338/306 200/339/307
f 199/328/297 200/339/307 194/326/295
f 194/326/295 200/339/307 193/340/308
f 194/326/295 193/340/308 204/324/293
f 204/324/293 193/340/308 203/322/292
f 200/339/307 173/338/306 201/316/286
f 201/316/286 173/338/306 174/307/279
f 175/341/309 179/342/310 174/307/279
f 174/307/279 179/342/310 180/343/311
f 174/307/279 180/343/311 185/344/312
f 185/344/312 180/343/311 181/345/313
f 185/344/312 181/345/313 184/346/314
f 184/346/314 181/345/313 182/347/315
f 184/346/314 182/347/315 183/348/316
f 183/348/316 182/347/315 10/349/9
f 10/349/9 182/347/315 11/350/10
f 179/342/310 175/341/309 178/351/317
f 178/351/317 175/341/309 176/352/318
f 178/351/317 176/352/318 177/353/319
f 177/353/319 176/352/318 38/354/37
f 177/353/319 38/354/37 37/355/36
f 185/344/312 186/309/281 174/307/279
f 191/308/280 187/310/282 190/356/320
f 190/356/320 187/310/282 188/357/321
f 190/356/320 188/357/321 189/358/322
f 189/358/322 188/357/321 6/359/5
f 6/359/5 188/357/321 7/360/6
f 200/339/307 201/316/286 193/340/308
f 193/340/308 201/316/286 192/318/288
f 193/340/308 192/318/288 203/322/292
f 203/322/292 192/318/288 202/320/290
f 197/331/300 198/329/298 196/334/303
f 196/334/303 198/329/298 195/327/296
f 196/334/303 195/327/296 206/336/305
f 206/336/305 195/327/296 205/325/294
f 208/361/323 211/362/324 207/363/325
f 207/363/325 211/362/324 212/364/326
f 207/363/325 212/364/326 173/365/327
f 173/365/327 212/364/326 213/366/328
f 173/365/327 213/366/328 174/367/329
f 174/367/329 213/366/328 175/368/330
f 175/368/330 213/366/328 216/369/331
f 175/368/330 216/369/331 176/370/332
f 176/370/332 216/369/331 219/371/333
f 176/370/332 219/371/333 38/372/37
f 38/372/37 219/371/333 218/373/334
f 38/372/37 218/373/334 39/374/39
f 39/374/39 218/373/334 217/375/335
f 39/374/39 217/375/335 210/376/336
f 210/376/336 217/375/335 214/377/337
f 210/376/336 214/377/337 209/378/338
f 209/378/338 214/377/337 211/362/324
f 209/378/338 211/362/324 208/361/323
f 216/369/331 213/366/328 212/364/326
f 212/364/326 211/362/324 215/379/339
f 215/379/339 211/362/324 214/377/337
f 215/379/339 214/377/337 218/373/334
f 218/373/334 214/377/337 217/375/335
f 219/371/333 216/369/331 215/379/339
f 215/379/339 216/369/331 212/364/326
f 219/371/333 215/379/339 218/373/334
f 220/380/340 224/381/341 15/382/18
f 15/382/18 224/381/341 225/383/342
f 15/382/18 225/383/342 16/384/24
f 16/384/24 225/383/342 226/385/343
f 16/384/24 226/385/343 169/386/344
f 169/386/344 226/385/343 229/387/345
f 169/386/344 229/387/345 170/388/346
f 170/388/346 229/387/345 232/389/347
f 170/388/346 232/389/347 171/390/348
f 171/390/348 232/389/347 172/391/349
f 172/391/349 232/389/347 231/392/350
f 172/391/349 231/392/350 223/393/351
f 223/393/351 231/392/350 230/394/352
f 223/393/351 230/394/352 222/395/353
f 222/395/353 230/394/352 221/396/354
f 221/396/354 230/394/352 227/397/355
f 221/396/354 227/397/355 220/380/340
f 220/380/340 227/397/355 224/381/341
f 229/387/345 226/385/343 225/383/342
f 225/383/342 224/381/341 228/398/356
f 228/398/356 224/381/341 227/397/355
f 228/398/356 227/397/355 231/392/350
f 231/392/350 227/397/355 230/394/352
f 232/389/347 229/387/345 228/398/356
f 228/398/356 229/387/345 225/383/342
f 232/389/347 228/398/356 231/392/350
f 3/399/2 2/400/1 256/401/357
f 256/401/357 2/400/1 233/402/358
f 256/401/357 233/402/358 234/403/359
f 256/401/357 234/403/359 255/404/360
f 255/404/360 234/403/359 235/405/361
f 255/404/360 235/405/361 254/406/362
f 254/406/362 235/405/361 208/407/363
f 254/406/362 208/407/363 257/408/364
f 257/408/364 208/407/363 207/409/365
f 257/408/364 207/409/365 258/410/366
f 258/410/366 207/409/365 259/411/367
f 258/410/366 259/411/367 265/412/368
f 265/412/368 259/411/367 264/413/369
f 265/412/368 264/413/369 270/414/370
f 270/414/370 264/413/369 269/415/371
f 270/414/370 269/415/371 14/416/13
f 14/416/13 269/415/371 15/417/18
f 15/417/18 269/415/371 268/418/372
f 15/417/18 268/418/372 267/419/373
f 267/419/373 268/418/372 262/420/374
f 267/419/373 262/420/374 220/421/375
f 220/421/375 262/420/374 221/422/376
f 221/422/376 262/420/374 261/423/377
f 221/422/376 261/423/377 222/424/378
f 222/424/378 261/423/377 223/425/379
f 223/425/379 261/423/377 260/426/380
f 223/425/379 260/426/380 259/411/367
f 259/411/367 260/426/380 264/413/369
f 235/405/361 236/427/381 208/407/363
f 208/407/363 236/427/381 241/428/382
f 208/407/363 241/428/382 242/429/383
f 236/427/381 237/430/384 241/428/382
f 241/428/382 237/430/384 240/431/385
f 240/431/385 237/430/384 238/432/386
f 240/431/385 238/432/386 239/433/387
f 239/433/387 238/432/386 8/434/8
f 8/434/8 238/432/386 5/435/7
f 208/407/363 242/429/383 247/436/388
f 247/436/388 242/429/383 243/437/389
f 247/436/388 243/437/389 246/438/390
f 246/438/390 243/437/389 244/439/391
f 246/438/390 244/439/391 245/440/392
f 245/440/392 244/439/391 12/441/12
f 12/441/12 244/439/391 9/442/11
f 247/436/388 248/443/393 208/407/363
f 208/407/363 248/443/393 209/444/394
f 209/444/394 248/443/393 249/445/395
f 209/444/394 249/445/395 210/446/396
f 210/446/396 249/445/395 250/447/397
f 210/446/396 250/447/397 39/448/39
f 39/448/39 250/447/397 36/449/38
f 207/409/365 223/425/379 259/411/367
f 220/421/375 15/417/18 267/419/373
f 270/414/370 14/416/13 271/450/398
f 271/450/398 14/416/13 251/451/399
f 271/450/398 251/451/399 252/452/400
f 271/450/398 252/452/400 266/453/401
f 266/453/401 252/452/400 253/454/402
f 266/453/401 253/454/402 257/408/364
f 257/408/364 253/454/402 254/406/362
f 257/408/364 258/410/366 266/453/401
f 266/453/401 258/410/366 265/412/368
f 266/453/401 265/412/368 271/450/398
f 271/450/398 265/412/368 270/414/370
f 260/426/380 261/423/377 263/455/403
f 263/455/403 261/423/377 262/420/374
f 263/455/403 262/420/374 268/418/372
f 269/415/371 264/413/369 263/455/403
f 263/455/403 264/413/369 260/426/380
f 269/415/371 263/455/403 268/418/372
f 173/456/306 172/457/299 272/458/404
f 272/458/404 172/457/299 273/459/405
f 279/460/406 272/461/407 278/462/408
f 278/462/408 272/461/407 273/463/409
f 278/462/408 273/463/409 275/464/410
f 275/464/410 273/463/409 274/465/411
f 276/466/412 277/467/413 275/464/410
f 275/464/410 277/467/413 278/462/408
f 280/468/414 207/469/325 106/470/415
f 106/470/415 207/469/325 173/471/327
f 106/470/415 173/471/327 107/472/416
f 107/472/416 173/471/327 272/473/417
f 278/474/418 281/475/419 279/476/420
f 279/476/420 281/475/419 282/477/421
f 278/478/422 277/479/423 281/480/424
f 281/480/424 277/479/423 283/481/425
f 276/482/426 284/483/427 277/484/428
f 277/484/428 284/483/427 283/485/429
f 275/486/430 285/487/431 276/488/432
f 276/488/432 285/487/431 284/489/433
f 274/490/434 286/491/435 275/492/436
f 275/492/436 286/491/435 285/493/437
f 273/494/438 172/495/349 42/496/439
f 42/496/439 172/495/349 223/497/351
f 42/496/439 223/497/351 67/498/440
f 67/498/440 223/497/351 287/499/441
f 286/500/442 287/501/443 285/502/444
f 285/502/444 287/501/443 280/503/445
f 285/502/444 280/503/445 281/504/446
f 281/504/446 280/503/445 282/505/447
f 283/506/448 284/507/449 281/504/446
f 281/504/446 284/507/449 285/502/444
f 223/508/379 207/509/365 287/510/450
f 287/510/450 207/509/365 280/511/451
f 115/512/452 282/513/453 116/514/454
f 116/514/454 282/513/453 280/515/455
f 116/514/454 280/515/455 106/516/456
f 107/517/457 272/518/458 115/512/452
f 115/512/452 272/518/458 279/519/459
f 115/512/452 279/519/459 282/513/453
f 68/520/460 274/521/461 41/522/462
f 41/522/462 274/521/461 273/523/463
f 41/522/462 273/523/463 42/524/464
f 67/525/465 287/526/466 68/520/460
f 68/520/460 287/526/466 286/527/467
f 68/520/460 286/527/467 274/521/461
f 18/528/468 288/529/469 19/530/470
f 19/530/470 288/529/469 289/531/471
f 20/532/472 19/533/473 290/534/474
f 290/534/474 19/533/473 289/535/475
f 20/536/476 290/537/477 21/538/478
f 21/538/478 290/537/477 291/539/479
f 22/540/480 21/541/481 292/542/482
f 292/542/482 21/541/481 291/543/483
f 23/544/484 22/545/485 293/546/486
f 293/546/486 22/545/485 292/547/487
f 23/548/488 293/549/489 24/550/490
f 24/550/490 293/549/489 294/551/491
f 25/552/492 24/553/493 295/554/494
f 295/554/494 24/553/493 294/555/495
f 25/556/496 295/557/497 26/558/498
f 26/558/498 295/557/497 296/559/499
f 27/560/500 26/561/501 297/562/502
f 297/562/502 26/561/501 296/563/503
f 28/564/504 27/565/505 298/566/506
f 298/566/506 27/565/505 297/567/507
f 28/568/508 298/569/509 29/570/510
f 29/570/510 298/569/509 299/571/511
f 17/572/512 29/573/513 300/574/514
f 300/574/514 29/573/513 299/575/515
f 18/576/516 17/577/517 288/578/518
f 288/578/518 17/577/517 300/579/519
f 288/580/520 300/581/521 289/582/522
f 289/582/522 300/581/521 290/583/523
f 290/583/523 300/581/521 291/584/524
f 291/584/524 300/581/521 292/585/525
f 292/585/525 300/581/521 299/586/526
f 292/585/525 299/586/526 298/587/527
f 298/587/527 297/588/528 292/585/525
f 292/585/525 297/588/528 293/589/529
f 293/589/529 297/588/528 294/590/530
f 294/590/530 297/588/528 295/591/531
f 295/591/531 297/588/528 296/592/532
f 13/593/533 168/594/534 14/595/535
f 14/595/535 168/594/534 251/596/536
f 251/596/536 168/594/534 167/597/537
f 251/596/536 167/597/537 252/598/538
f 252/598/538 167/597/537 253/599/539
f 253/599/539 167/597/537 166/600/540
f 165/601/541 164/602/542 254/603/543
f 254/603/543 164/602/542 255/604/544
f 255/604/544 164/602/542 256/605/545
f 256/605/545 164/602/542 163/606/546
f 256/605/545 163/606/546 3/607/547
f 3/607/547 163/606/546 4/608/548
f 166/609/549 165/610/550 253/611/551
f 253/611/551 165/610/550 254/612/552
f 31/613/553 301/614/554 32/615/555
f 32/615/555 301/614/554 302/616/556
f 32/617/557 302/618/558 33/619/559
f 33/619/559 302/618/558 303/620/560
f 34/621/561 33/622/562 304/623/563
f 304/623/563 33/622/562 303/624/564
f 35/625/565 34/626/566 305/627/567
f 305/627/567 34/626/566 304/628/568
f 30/629/569 35/630/570 306/631/571
f 306/631/571 35/630/570 305/632/572
f 30/633/573 306/634/574 31/635/575
f 31/635/575 306/634/574 301/636/576
f 301/637/577 306/638/578 302/639/579
f 302/639/579 306/638/578 303/640/580
f 303/640/580 306/638/578 304/641/581
f 304/641/581 306/638/578 305/642/582
f 11/643/583 182/644/584 12/645/585
f 12/645/585 182/644/584 245/646/586
f 245/646/586 182/644/584 181/647/587
f 245/646/586 181/647/587 246/648/588
f 246/648/588 181/647/587 247/649/589
f 247/649/589 181/647/587 180/650/590
f 179/651/591 178/652/592 248/653/593
f 248/653/593 178/652/592 249/654/594
f 249/654/594 178/652/592 250/655/595
f 250/655/595 178/652/592 177/656/596
f 250/655/595 177/656/596 36/657/597
f 36/657/597 177/656/596 37/658/598
f 180/659/599 179/660/600 247/661/601
f 247/661/601 179/660/600 248/662/602
f 7/663/603 188/664/604 8/665/605
f 8/665/605 188/664/604 239/666/606
f 239/666/606 188/664/604 187/667/607
f 239/666/606 187/667/607 240/668/608
f 240/668/608 187/667/607 241/669/609
f 241/669/609 187/667/607 186/670/610
f 185/671/611 184/672/612 242/673/613
f 242/673/613 184/672/612 243/674/614
f 243/674/614 184/672/612 244/675/615
f 244/675/615 184/672/612 183/676/616
f 244/675/615 183/676/616 9/677/617
f 9/677/617 183/676/616 10/678/618
f 186/679/619 185/680/620 241/681/621
f 241/681/621 185/680/620 242/682/622
f 1/683/623 162/684/624 2/685/625
f 2/685/625 162/684/624 233/686/626
f 233/686/626 162/684/624 161/687/627
f 233/686/626 161/687/627 234/688/628
f 234/688/628 161/687/627 235/689/629
f 235/689/629 161/687/627 160/690/630
f 191/691/631 190/692/632 236/693/633
f 236/693/633 190/692/632 237/694/634
f 237/694/634 190/692/632 238/695/635
f 238/695/635 190/692/632 189/696/636
f 238/695/635 189/696/636 5/697/637
f 5/697/637 189/696/636 6/698/638
f 160/699/639 191/700/640 235/701/641
f 235/701/641 191/700/640 236/702/642
# 306 vertices
# 702 texture params
# 642 normals
# 608 facets

# 1 groups
