# WaveFront *.obj file (generated by Autodesk ATF)

mtllib body95_visual.mtl

g Body95

v -27.297463 2.506865 -1.842042
v -27.240363 2.506865 -1.842042
v -27.240363 2.506511 -1.840723
v -27.297463 2.506511 -1.840723
v -27.297463 2.392902 -1.996811
v -27.240363 2.392902 -1.996811
v -27.240363 2.393185 -1.997869
v -27.297463 2.393185 -1.997869
v -27.297463 2.361843 -1.880900
v -27.240363 2.361843 -1.880900
v -27.297773 2.506888 -1.842036
v -27.298076 2.506957 -1.842017
v -27.298363 2.507071 -1.841987
v -27.298363 2.361637 -1.880956
v -27.298076 2.361751 -1.880925
v -27.297773 2.361820 -1.880907
v -27.297463 2.537923 -1.957953
v -27.240363 2.537923 -1.957953
v -27.297773 2.392878 -1.996818
v -27.298076 2.392809 -1.996836
v -27.298363 2.392695 -1.996867
v -27.298363 2.538130 -1.957898
v -27.298076 2.538016 -1.957928
v -27.297773 2.537946 -1.957947
v -27.238363 2.390736 -1.996455
v -27.238363 2.390452 -1.995397
v -27.238363 2.539337 -1.955504
v -27.238363 2.539691 -1.956823
v -27.238363 2.570879 -1.948466
v -27.238363 2.540149 -1.833780
v -27.238363 2.508961 -1.842137
v -27.238363 2.509314 -1.843456
v -27.238363 2.360429 -1.883350
v -27.238363 2.360006 -1.881769
v -27.238363 2.328817 -1.890126
v -27.238363 2.359547 -2.004812
v -27.297463 2.361420 -1.879320
v -27.240363 2.361420 -1.879320
v -27.240363 2.360065 -2.006743
v -27.297463 2.360065 -2.006743
v -27.297463 2.328300 -1.888194
v -27.240363 2.328300 -1.888194
v -27.297463 2.357615 -2.005329
v -27.240363 2.357615 -2.005329
v -27.240363 2.326886 -1.890644
v -27.297463 2.326886 -1.890644
v -27.299463 2.390736 -1.996455
v -27.299463 2.359547 -2.004812
v -27.299463 2.328817 -1.890126
v -27.299463 2.360006 -1.881769
v -27.297463 2.538276 -1.959272
v -27.240363 2.538276 -1.959272
v -27.240363 2.539631 -1.831848
v -27.297463 2.539631 -1.831848
v -27.297463 2.571397 -1.950398
v -27.240363 2.571397 -1.950398
v -27.297463 2.542081 -1.833263
v -27.240363 2.542081 -1.833263
v -27.240363 2.572811 -1.947948
v -27.297463 2.572811 -1.947948
v -27.299463 2.539691 -1.956823
v -27.299463 2.508961 -1.842137
v -27.299463 2.540149 -1.833780
v -27.299463 2.570879 -1.948466
v -27.298463 2.539701 -1.832107
v -27.299195 2.539890 -1.832814
v -27.299311 2.508023 -1.841596
v -27.298877 2.507229 -1.841137
v -27.298229 2.506698 -1.840831
v -27.297853 2.506558 -1.840750
v -27.298463 2.523141 -1.836545
v -27.299195 2.523330 -1.837252
v -27.298463 2.541822 -1.833332
v -27.299195 2.541115 -1.833522
v -27.297463 2.540667 -1.831848
v -27.297463 2.541563 -1.832366
v -27.299195 2.540856 -1.833073
v -27.298463 2.541374 -1.832556
v -27.298463 2.540597 -1.832107
v -27.299195 2.540408 -1.832814
v -27.299311 2.539149 -1.957760
v -27.298877 2.538691 -1.958555
v -27.298229 2.538384 -1.959086
v -27.297853 2.538304 -1.959225
v -27.298463 2.512064 -1.860412
v -27.298463 2.517358 -1.880170
v -27.298463 2.522653 -1.899928
v -27.298463 2.527947 -1.919686
v -27.298463 2.533241 -1.939445
v -27.299195 2.512771 -1.860222
v -27.299195 2.518066 -1.879981
v -27.299195 2.523360 -1.899739
v -27.299195 2.528654 -1.919497
v -27.299195 2.533948 -1.939255
v -27.239973 2.506912 -1.842069
v -27.239598 2.507051 -1.842150
v -27.238949 2.507582 -1.842456
v -27.238515 2.508377 -1.842915
v -27.238515 2.508023 -1.841596
v -27.238949 2.507229 -1.841137
v -27.239598 2.506698 -1.840831
v -27.239973 2.506558 -1.840750
v -27.238631 2.539890 -1.832814
v -27.239363 2.539701 -1.832107
v -27.239363 2.523141 -1.836545
v -27.238631 2.523330 -1.837252
v -27.240363 2.540667 -1.831848
v -27.240363 2.541563 -1.832366
v -27.278430 2.541563 -1.832366
v -27.259397 2.541563 -1.832366
v -27.278430 2.540667 -1.831848
v -27.259397 2.540667 -1.831848
v -27.298463 2.572552 -1.948017
v -27.299195 2.571845 -1.948207
v -27.299195 2.546237 -1.852636
v -27.299195 2.551358 -1.871750
v -27.299195 2.556480 -1.890864
v -27.299195 2.561602 -1.909978
v -27.299195 2.566723 -1.929093
v -27.298463 2.546944 -1.852446
v -27.298463 2.552065 -1.871561
v -27.298463 2.557187 -1.890675
v -27.298463 2.562309 -1.909789
v -27.298463 2.567430 -1.928903
v -27.299195 2.571138 -1.949432
v -27.298463 2.571327 -1.950139
v -27.298463 2.554767 -1.954576
v -27.299195 2.554578 -1.953869
v -27.299195 2.328559 -1.889160
v -27.298463 2.328369 -1.888453
v -27.297853 2.361393 -1.879367
v -27.298229 2.361312 -1.879506
v -27.298877 2.361006 -1.880037
v -27.299311 2.360547 -1.880832
v -27.299195 2.345119 -1.884723
v -27.298463 2.344929 -1.884016
v -27.239973 2.361816 -1.880947
v -27.239598 2.361736 -1.881087
v -27.238949 2.361429 -1.881618
v -27.238515 2.360970 -1.882412
v -27.238631 2.487786 -1.848189
v -27.238631 2.466517 -1.853888
v -27.238631 2.445247 -1.859588
v -27.238631 2.423978 -1.865287
v -27.238631 2.402709 -1.870986
v -27.238631 2.381440 -1.876685
v -27.239363 2.487597 -1.847482
v -27.239363 2.466327 -1.853181
v -27.239363 2.445058 -1.858880
v -27.239363 2.423789 -1.864580
v -27.239363 2.402519 -1.870279
v -27.239363 2.381250 -1.875978
v -27.238631 2.541115 -1.833522
v -27.239363 2.541822 -1.833332
v -27.239497 2.540727 -1.832073
v -27.239863 2.541598 -1.832496
v -27.238863 2.540891 -1.832685
v -27.239497 2.541693 -1.832849
v -27.297463 2.572811 -1.948983
v -27.297463 2.572293 -1.949880
v -27.298329 2.572233 -1.949656
v -27.297963 2.572776 -1.948854
v -27.298963 2.572069 -1.949043
v -27.298329 2.572681 -1.948500
v -27.297853 2.393138 -1.997842
v -27.298229 2.392999 -1.997761
v -27.298877 2.392468 -1.997455
v -27.299311 2.391673 -1.996996
v -27.298463 2.387632 -1.978180
v -27.298463 2.382338 -1.958422
v -27.298463 2.377044 -1.938664
v -27.298463 2.371749 -1.918905
v -27.298463 2.366455 -1.899147
v -27.299195 2.386925 -1.978369
v -27.299195 2.381631 -1.958611
v -27.299195 2.376337 -1.938853
v -27.299195 2.371042 -1.919095
v -27.299195 2.365748 -1.899337
v -27.297463 2.326886 -1.889608
v -27.297463 2.327403 -1.888712
v -27.299195 2.327851 -1.890385
v -27.298463 2.327144 -1.890574
v -27.298329 2.327463 -1.888936
v -27.297963 2.326920 -1.889738
v -27.298963 2.327627 -1.889548
v -27.298329 2.327015 -1.890091
v -27.239973 2.361393 -1.879367
v -27.239598 2.361312 -1.879506
v -27.238949 2.361006 -1.880037
v -27.238515 2.360547 -1.880832
v -27.238631 2.571845 -1.948207
v -27.239363 2.572552 -1.948017
v -27.239363 2.546944 -1.852446
v -27.239363 2.552065 -1.871561
v -27.239363 2.557187 -1.890675
v -27.239363 2.562309 -1.909789
v -27.239363 2.567430 -1.928903
v -27.238631 2.546237 -1.852636
v -27.238631 2.551358 -1.871750
v -27.238631 2.556480 -1.890864
v -27.238631 2.561602 -1.909978
v -27.238631 2.566723 -1.929093
v -27.240363 2.572811 -1.948983
v -27.240363 2.572293 -1.949880
v -27.278430 2.572293 -1.949880
v -27.259397 2.572293 -1.949880
v -27.278430 2.572811 -1.948983
v -27.259397 2.572811 -1.948983
v -27.298463 2.359996 -2.006485
v -27.299195 2.359806 -2.005777
v -27.299195 2.376366 -2.001340
v -27.298463 2.376556 -2.002047
v -27.299195 2.358581 -2.005070
v -27.298463 2.357874 -2.005260
v -27.298463 2.332266 -1.909689
v -27.298463 2.337388 -1.928803
v -27.298463 2.342509 -1.947917
v -27.298463 2.347631 -1.967031
v -27.298463 2.352753 -1.986146
v -27.299195 2.332973 -1.909499
v -27.299195 2.338095 -1.928613
v -27.299195 2.343216 -1.947728
v -27.299195 2.348338 -1.966842
v -27.299195 2.353460 -1.985956
v -27.240363 2.326886 -1.889608
v -27.240363 2.327403 -1.888712
v -27.278430 2.327403 -1.888712
v -27.259397 2.327403 -1.888712
v -27.278430 2.326886 -1.889608
v -27.259397 2.326886 -1.889608
v -27.239363 2.328369 -1.888453
v -27.238631 2.328559 -1.889160
v -27.238631 2.345119 -1.884723
v -27.239363 2.344929 -1.884016
v -27.238631 2.571138 -1.949432
v -27.239363 2.571327 -1.950139
v -27.239497 2.572587 -1.949043
v -27.239863 2.572164 -1.949915
v -27.238863 2.571974 -1.949208
v -27.239497 2.571810 -1.950009
v -27.297463 2.359030 -2.006743
v -27.297463 2.358133 -2.006226
v -27.298963 2.358805 -2.005907
v -27.298329 2.358004 -2.005743
v -27.298329 2.358970 -2.006519
v -27.297963 2.358098 -2.006096
v -27.239363 2.327144 -1.890574
v -27.238631 2.327851 -1.890385
v -27.238863 2.327627 -1.889548
v -27.239497 2.327015 -1.890091
v -27.239497 2.327463 -1.888936
v -27.239863 2.326920 -1.889738
v -27.238515 2.539149 -1.957760
v -27.238949 2.538691 -1.958555
v -27.239598 2.538384 -1.959086
v -27.239973 2.538304 -1.959225
v -27.239363 2.554767 -1.954576
v -27.238631 2.554578 -1.953869
v -27.240363 2.359030 -2.006743
v -27.240363 2.358133 -2.006226
v -27.278430 2.358133 -2.006226
v -27.259397 2.358133 -2.006226
v -27.278430 2.359030 -2.006743
v -27.259397 2.359030 -2.006743
v -27.239363 2.357874 -2.005260
v -27.238631 2.358581 -2.005070
v -27.238631 2.332973 -1.909499
v -27.238631 2.338095 -1.928613
v -27.238631 2.343216 -1.947728
v -27.238631 2.348338 -1.966842
v -27.238631 2.353460 -1.985956
v -27.239363 2.332266 -1.909689
v -27.239363 2.337388 -1.928803
v -27.239363 2.342509 -1.947917
v -27.239363 2.347631 -1.967031
v -27.239363 2.352753 -1.986146
v -27.238515 2.538796 -1.956441
v -27.238949 2.538337 -1.957236
v -27.239598 2.538031 -1.957767
v -27.239973 2.537950 -1.957906
v -27.239363 2.359996 -2.006485
v -27.238631 2.359806 -2.005777
v -27.238863 2.358970 -2.006002
v -27.239497 2.359513 -2.006614
v -27.239497 2.358357 -2.006166
v -27.239863 2.359159 -2.006709
v -27.238515 2.391390 -1.995938
v -27.238949 2.392184 -1.996397
v -27.239598 2.392715 -1.996704
v -27.239973 2.392855 -1.996784
v -27.239363 2.518516 -1.962876
v -27.239363 2.497247 -1.968575
v -27.239363 2.475978 -1.974274
v -27.239363 2.454708 -1.979973
v -27.239363 2.433439 -1.985672
v -27.239363 2.412170 -1.991371
v -27.238631 2.518327 -1.962169
v -27.238631 2.497057 -1.967868
v -27.238631 2.475788 -1.973567
v -27.238631 2.454519 -1.979266
v -27.238631 2.433250 -1.984965
v -27.238631 2.411980 -1.990664
v -27.239973 2.393138 -1.997842
v -27.239598 2.392999 -1.997761
v -27.238949 2.392468 -1.997455
v -27.238515 2.391673 -1.996996
v -27.238631 2.376366 -2.001340
v -27.239363 2.376556 -2.002047
vt 0.121366 -0.188183 0.000000
vt 0.122731 -0.188183 0.000000
vt 0.121366 -0.131083 0.000000
vt 0.122731 -0.131083 0.000000
vt -0.001095 -0.188183 0.000000
vt 0.000000 -0.188183 0.000000
vt -0.001095 -0.131083 0.000000
vt -0.000000 -0.131083 0.000000
vt -0.185069 -0.058000 0.000000
vt -0.034931 -0.058000 0.000000
vt -0.185069 -0.000900 0.000000
vt -0.034931 -0.000900 0.000000
vt -0.185093 -0.000590 0.000000
vt -0.034907 -0.000590 0.000000
vt -0.185165 -0.000288 0.000000
vt -0.034835 -0.000288 0.000000
vt -0.185282 -0.000000 0.000000
vt -0.034718 -0.000000 0.000000
vt 0.034931 -0.058000 0.000000
vt 0.185069 -0.058000 0.000000
vt 0.034931 -0.000900 0.000000
vt 0.185069 -0.000900 0.000000
vt 0.034907 -0.000590 0.000000
vt 0.185093 -0.000590 0.000000
vt 0.034835 -0.000288 0.000000
vt 0.185165 -0.000288 0.000000
vt 0.034718 -0.000000 0.000000
vt 0.185282 0.000000 0.000000
vt 0.060000 0.075282 0.000000
vt -0.060000 0.075282 0.000000
vt 0.060000 -0.075282 0.000000
vt -0.060000 -0.075282 0.000000
vt 0.059095 -0.077069 0.000000
vt 0.058000 -0.077069 0.000000
vt 0.059095 -0.109357 0.000000
vt -0.058000 -0.077069 0.000000
vt -0.059636 -0.109357 0.000000
vt -0.059636 -0.077069 0.000000
vt -0.058000 0.077069 0.000000
vt 0.058000 0.077069 0.000000
vt -0.059366 0.109357 0.000000
vt 0.059366 0.109357 0.000000
vt 0.059366 0.077069 0.000000
vt -0.059366 0.077069 0.000000
vt -0.122731 -0.188183 0.000000
vt -0.121095 -0.188183 0.000000
vt -0.122731 -0.131083 0.000000
vt -0.121095 -0.131083 0.000000
vt -0.036289 -0.188183 0.000000
vt -0.002000 -0.188183 0.000000
vt -0.036289 -0.131083 0.000000
vt -0.002000 -0.131083 0.000000
vt 0.002000 -0.188183 0.000000
vt 0.036289 -0.188183 0.000000
vt 0.002000 -0.131083 0.000000
vt 0.036289 -0.131083 0.000000
vt 0.002000 -0.188183 0.000000
vt 0.120731 -0.188183 0.000000
vt 0.002000 -0.131083 0.000000
vt 0.120731 -0.131083 0.000000
vt -0.059095 -0.109357 0.000000
vt 0.059636 -0.109357 0.000000
vt -0.059095 -0.077069 0.000000
vt 0.059636 -0.077069 0.000000
vt 0.000000 -0.188183 0.000000
vt 0.001366 -0.188183 0.000000
vt 0.000000 -0.131083 0.000000
vt 0.001366 -0.131083 0.000000
vt -0.036289 -0.188183 0.000000
vt -0.002000 -0.188183 0.000000
vt -0.036289 -0.131083 0.000000
vt -0.002000 -0.131083 0.000000
vt 0.002000 -0.188183 0.000000
vt 0.036289 -0.188183 0.000000
vt 0.002000 -0.131083 0.000000
vt 0.036289 -0.131083 0.000000
vt -0.120731 -0.188183 0.000000
vt -0.002000 -0.188183 0.000000
vt -0.120731 -0.131083 0.000000
vt -0.002000 -0.131083 0.000000
vt -0.059366 0.077069 0.000000
vt 0.059366 0.077069 0.000000
vt -0.059366 0.109357 0.000000
vt 0.059366 0.109357 0.000000
vt -0.002000 0.001047 0.000000
vt -0.019144 0.001047 0.000000
vt -0.002000 0.000000 0.000000
vt -0.036250 0.000393 0.000000
vt -0.036289 0.000000 0.000000
vt -0.019144 0.002094 0.000000
vt -0.002000 0.002094 0.000000
vt -0.002000 0.003142 0.000000
vt -0.034289 0.003142 0.000000
vt -0.035054 0.002356 0.000000
vt -0.035703 0.001571 0.000000
vt -0.036136 0.000785 0.000000
vt -0.000000 0.000000 0.000000
vt -0.001047 0.000000 0.000000
vt -0.000000 -0.000740 0.000000
vt -0.001047 -0.000740 0.000000
vt -0.000000 -0.001481 0.000000
vt -0.001047 -0.001481 0.000000
vt -0.000000 -0.002221 0.000000
vt -0.001047 -0.002221 0.000000
vt -0.002094 -0.001481 0.000000
vt -0.002094 -0.002221 0.000000
vt -0.003142 -0.001481 0.000000
vt -0.002094 -0.000000 0.000000
vt -0.002094 -0.000740 0.000000
vt -0.003142 -0.000000 0.000000
vt -0.003142 -0.000740 0.000000
vt 0.121366 0.000000 0.000000
vt 0.122731 0.000000 0.000000
vt 0.121366 0.000311 0.000000
vt 0.122693 0.000393 0.000000
vt 0.121366 0.000622 0.000000
vt 0.122579 0.000785 0.000000
vt 0.121366 0.000934 0.000000
vt 0.122145 0.001571 0.000000
vt 0.102276 0.001047 0.000000
vt 0.102276 0.002094 0.000000
vt 0.081821 0.002094 0.000000
vt 0.121496 0.002356 0.000000
vt 0.002000 0.003142 0.000000
vt 0.120731 0.003142 0.000000
vt 0.001235 0.002356 0.000000
vt 0.020455 0.002094 0.000000
vt 0.040910 0.002094 0.000000
vt 0.061366 0.002094 0.000000
vt 0.061366 0.001047 0.000000
vt 0.081821 0.001047 0.000000
vt 0.000586 0.001571 0.000000
vt 0.020455 0.001047 0.000000
vt 0.040910 0.001047 0.000000
vt 0.001366 0.000934 0.000000
vt 0.000152 0.000785 0.000000
vt 0.001366 0.000622 0.000000
vt 0.000038 0.000393 0.000000
vt 0.001366 0.000311 0.000000
vt 0.000000 -0.000000 0.000000
vt 0.001366 0.000000 0.000000
vt 0.122731 0.000000 0.000000
vt 0.121366 0.000000 0.000000
vt 0.122693 -0.000393 0.000000
vt 0.121327 -0.000393 0.000000
vt 0.122579 -0.000785 0.000000
vt 0.121213 -0.000785 0.000000
vt 0.122145 -0.001571 0.000000
vt 0.120780 -0.001571 0.000000
vt 0.121496 -0.002356 0.000000
vt 0.120131 -0.002356 0.000000
vt 0.120731 -0.003142 0.000000
vt 0.119366 -0.003142 0.000000
vt -0.002000 0.000000 0.000000
vt -0.036289 0.000000 0.000000
vt -0.019144 -0.001047 0.000000
vt -0.036250 -0.000393 0.000000
vt -0.036136 -0.000785 0.000000
vt -0.035703 -0.001571 0.000000
vt -0.019144 -0.002094 0.000000
vt -0.002000 -0.002094 0.000000
vt -0.002000 -0.003142 0.000000
vt -0.035054 -0.002356 0.000000
vt -0.034289 -0.003142 0.000000
vt -0.002000 -0.001047 0.000000
vt -0.131083 0.004189 0.000000
vt -0.150117 0.004189 0.000000
vt -0.131083 0.003142 0.000000
vt -0.169150 0.004189 0.000000
vt -0.188183 0.003142 0.000000
vt -0.188183 0.004189 0.000000
vt -0.188183 0.005236 0.000000
vt -0.169150 0.005236 0.000000
vt -0.188183 0.006283 0.000000
vt -0.150117 0.005236 0.000000
vt -0.131083 0.006283 0.000000
vt -0.131083 0.005236 0.000000
vt -0.120731 0.002094 0.000000
vt -0.100943 0.002094 0.000000
vt -0.120731 0.003142 0.000000
vt -0.081154 0.002094 0.000000
vt -0.061366 0.002094 0.000000
vt -0.061366 0.001047 0.000000
vt -0.041577 0.001047 0.000000
vt -0.002000 0.000000 0.000000
vt -0.021789 0.001047 0.000000
vt -0.002000 0.001047 0.000000
vt -0.021789 0.002094 0.000000
vt -0.002000 0.002094 0.000000
vt -0.002000 0.003142 0.000000
vt -0.100943 0.001047 0.000000
vt -0.120731 0.001047 0.000000
vt -0.120731 0.000000 0.000000
vt -0.081154 0.001047 0.000000
vt -0.041577 0.002094 0.000000
vt 0.002000 -0.000000 0.000000
vt 0.036289 -0.000000 0.000000
vt 0.019144 0.001047 0.000000
vt 0.036250 0.000393 0.000000
vt 0.036136 0.000785 0.000000
vt 0.035703 0.001571 0.000000
vt 0.019144 0.002094 0.000000
vt 0.002000 0.002094 0.000000
vt 0.002000 0.003142 0.000000
vt 0.035054 0.002356 0.000000
vt 0.034289 0.003142 0.000000
vt 0.002000 0.001047 0.000000
vt 0.002000 0.002094 0.000000
vt 0.019144 0.002094 0.000000
vt 0.002000 0.003142 0.000000
vt 0.035054 0.002356 0.000000
vt 0.034289 0.003142 0.000000
vt 0.019144 0.001047 0.000000
vt 0.002000 0.001047 0.000000
vt 0.002000 0.000000 0.000000
vt 0.036289 0.000000 0.000000
vt 0.036250 0.000393 0.000000
vt 0.036136 0.000785 0.000000
vt 0.035703 0.001571 0.000000
vt -0.033697 -0.002356 0.000000
vt -0.054951 -0.002094 0.000000
vt -0.032931 -0.003142 0.000000
vt -0.076971 -0.002094 0.000000
vt -0.098990 -0.002094 0.000000
vt -0.098990 -0.001047 0.000000
vt -0.121010 -0.001047 0.000000
vt -0.185069 -0.000000 0.000000
vt -0.143029 -0.001047 0.000000
vt -0.165049 -0.001047 0.000000
vt -0.143029 -0.002094 0.000000
vt -0.165049 -0.002094 0.000000
vt -0.186303 -0.002356 0.000000
vt -0.185654 -0.001571 0.000000
vt -0.185221 -0.000785 0.000000
vt -0.185107 -0.000393 0.000000
vt -0.034346 -0.001571 0.000000
vt -0.054951 -0.001047 0.000000
vt -0.076971 -0.001047 0.000000
vt -0.034893 -0.000393 0.000000
vt -0.034779 -0.000785 0.000000
vt -0.034931 0.000000 0.000000
vt -0.187069 -0.003142 0.000000
vt -0.121010 -0.002094 0.000000
vt -0.003142 -0.001481 0.000000
vt -0.002094 -0.002221 0.000000
vt -0.002094 -0.001481 0.000000
vt -0.001047 -0.002221 0.000000
vt -0.001047 -0.001481 0.000000
vt -0.000000 -0.002221 0.000000
vt -0.000000 -0.001481 0.000000
vt -0.001047 -0.000740 0.000000
vt 0.000000 -0.000740 0.000000
vt -0.001047 0.000000 0.000000
vt 0.000000 0.000000 0.000000
vt -0.002094 -0.000000 0.000000
vt -0.002094 -0.000740 0.000000
vt -0.003142 -0.000000 0.000000
vt -0.003142 -0.000740 0.000000
vt -0.001047 -0.004443 0.000000
vt 0.000000 -0.004443 0.000000
vt -0.001047 -0.003702 0.000000
vt 0.000000 -0.003702 0.000000
vt -0.001047 -0.002962 0.000000
vt -0.000000 -0.002962 0.000000
vt -0.001047 -0.002221 0.000000
vt -0.000000 -0.002221 0.000000
vt -0.002094 -0.002221 0.000000
vt -0.002094 -0.002962 0.000000
vt -0.002094 -0.003702 0.000000
vt -0.002094 -0.004443 0.000000
vt -0.003142 -0.003702 0.000000
vt -0.003142 -0.002221 0.000000
vt -0.003142 -0.002962 0.000000
vt -0.001095 0.000622 0.000000
vt -0.000152 0.000785 0.000000
vt -0.001095 0.000934 0.000000
vt -0.000586 0.001571 0.000000
vt -0.020455 0.001047 0.000000
vt -0.020455 0.002094 0.000000
vt -0.040910 0.002094 0.000000
vt -0.001235 0.002356 0.000000
vt -0.120731 0.003142 0.000000
vt -0.002000 0.003142 0.000000
vt -0.000038 0.000393 0.000000
vt -0.001095 0.000311 0.000000
vt 0.000000 0.000000 0.000000
vt -0.001095 0.000000 0.000000
vt -0.121496 0.002356 0.000000
vt -0.102276 0.002094 0.000000
vt -0.081821 0.002094 0.000000
vt -0.061366 0.002094 0.000000
vt -0.061366 0.001047 0.000000
vt -0.040910 0.001047 0.000000
vt -0.122145 0.001571 0.000000
vt -0.102276 0.001047 0.000000
vt -0.081821 0.001047 0.000000
vt -0.121095 0.000934 0.000000
vt -0.122579 0.000785 0.000000
vt -0.121095 0.000622 0.000000
vt -0.122693 0.000393 0.000000
vt -0.121095 0.000311 0.000000
vt -0.122731 0.000000 0.000000
vt -0.121095 0.000000 0.000000
vt 0.003142 -0.000740 0.000000
vt 0.002094 -0.000000 0.000000
vt 0.002094 -0.000740 0.000000
vt 0.001047 -0.000000 0.000000
vt 0.001047 -0.000740 0.000000
vt -0.000000 -0.000000 0.000000
vt -0.000000 -0.000740 0.000000
vt 0.001047 -0.001481 0.000000
vt -0.000000 -0.001481 0.000000
vt 0.001047 -0.002221 0.000000
vt -0.000000 -0.002221 0.000000
vt 0.002094 -0.002221 0.000000
vt 0.002094 -0.001481 0.000000
vt 0.003142 -0.002221 0.000000
vt 0.003142 -0.001481 0.000000
vt -0.119095 -0.003142 0.000000
vt -0.119860 -0.002356 0.000000
vt -0.120731 -0.003142 0.000000
vt -0.121496 -0.002356 0.000000
vt -0.120509 -0.001571 0.000000
vt -0.122145 -0.001571 0.000000
vt -0.120942 -0.000785 0.000000
vt -0.122579 -0.000785 0.000000
vt -0.121056 -0.000393 0.000000
vt -0.122693 -0.000393 0.000000
vt -0.121095 -0.000000 0.000000
vt -0.122731 -0.000000 0.000000
vt -0.120731 -0.001047 0.000000
vt -0.100943 -0.001047 0.000000
vt -0.120731 0.000000 0.000000
vt -0.081154 -0.001047 0.000000
vt -0.061366 -0.001047 0.000000
vt -0.061366 -0.002094 0.000000
vt -0.041577 -0.002094 0.000000
vt -0.002000 -0.003142 0.000000
vt -0.021789 -0.002094 0.000000
vt -0.002000 -0.002094 0.000000
vt -0.021789 -0.001047 0.000000
vt -0.002000 -0.001047 0.000000
vt -0.002000 0.000000 0.000000
vt -0.100943 -0.002094 0.000000
vt -0.120731 -0.002094 0.000000
vt -0.120731 -0.003142 0.000000
vt -0.081154 -0.002094 0.000000
vt -0.041577 -0.001047 0.000000
vt -0.131083 0.001047 0.000000
vt -0.150117 0.001047 0.000000
vt -0.131083 -0.000000 0.000000
vt -0.169150 0.001047 0.000000
vt -0.188183 0.000000 0.000000
vt -0.188183 0.001047 0.000000
vt -0.188183 0.002094 0.000000
vt -0.169150 0.002094 0.000000
vt -0.188183 0.003142 0.000000
vt -0.150117 0.002094 0.000000
vt -0.131083 0.003142 0.000000
vt -0.131083 0.002094 0.000000
vt -0.002000 0.003142 0.000000
vt -0.034289 0.003142 0.000000
vt -0.019144 0.002094 0.000000
vt -0.035054 0.002356 0.000000
vt -0.035703 0.001571 0.000000
vt -0.019144 0.001047 0.000000
vt -0.036136 0.000785 0.000000
vt -0.036250 0.000393 0.000000
vt -0.036289 -0.000000 0.000000
vt -0.002000 -0.000000 0.000000
vt -0.002000 0.001047 0.000000
vt -0.002000 0.002094 0.000000
vt 0.120731 0.001047 0.000000
vt 0.100943 0.001047 0.000000
vt 0.120731 0.000000 0.000000
vt 0.081154 0.001047 0.000000
vt 0.061366 0.001047 0.000000
vt 0.061366 0.002094 0.000000
vt 0.041577 0.002094 0.000000
vt 0.002000 0.003142 0.000000
vt 0.021789 0.002094 0.000000
vt 0.002000 0.002094 0.000000
vt 0.021789 0.001047 0.000000
vt 0.002000 0.001047 0.000000
vt 0.002000 0.000000 0.000000
vt 0.100943 0.002094 0.000000
vt 0.120731 0.002094 0.000000
vt 0.120731 0.003142 0.000000
vt 0.081154 0.002094 0.000000
vt 0.041577 0.001047 0.000000
vt -0.131083 -0.005236 0.000000
vt -0.150117 -0.005236 0.000000
vt -0.131083 -0.006283 0.000000
vt -0.169150 -0.005236 0.000000
vt -0.188183 -0.006283 0.000000
vt -0.188183 -0.005236 0.000000
vt -0.188183 -0.004189 0.000000
vt -0.169150 -0.004189 0.000000
vt -0.188183 -0.003142 0.000000
vt -0.150117 -0.004189 0.000000
vt -0.131083 -0.003142 0.000000
vt -0.131083 -0.004189 0.000000
vt 0.002000 -0.003142 0.000000
vt 0.034289 -0.003142 0.000000
vt 0.019144 -0.002094 0.000000
vt 0.035054 -0.002356 0.000000
vt 0.035703 -0.001571 0.000000
vt 0.019144 -0.001047 0.000000
vt 0.036136 -0.000785 0.000000
vt 0.036250 -0.000393 0.000000
vt 0.036289 0.000000 0.000000
vt 0.002000 0.000000 0.000000
vt 0.002000 -0.001047 0.000000
vt 0.002000 -0.002094 0.000000
vt 0.003142 -0.002962 0.000000
vt 0.002094 -0.002221 0.000000
vt 0.002094 -0.002962 0.000000
vt 0.001047 -0.002221 0.000000
vt 0.001047 -0.002962 0.000000
vt -0.000000 -0.002221 0.000000
vt -0.000000 -0.002962 0.000000
vt 0.001047 -0.003702 0.000000
vt 0.000000 -0.003702 0.000000
vt 0.001047 -0.004443 0.000000
vt -0.000000 -0.004443 0.000000
vt 0.002094 -0.004443 0.000000
vt 0.002094 -0.003702 0.000000
vt 0.003142 -0.004443 0.000000
vt 0.003142 -0.003702 0.000000
vt 0.003142 -0.002962 0.000000
vt 0.002094 -0.002221 0.000000
vt 0.002094 -0.002962 0.000000
vt 0.001047 -0.002221 0.000000
vt 0.001047 -0.002962 0.000000
vt 0.000000 -0.002221 0.000000
vt 0.000000 -0.002962 0.000000
vt 0.001047 -0.003702 0.000000
vt 0.000000 -0.003702 0.000000
vt 0.001047 -0.004443 0.000000
vt 0.000000 -0.004443 0.000000
vt 0.002094 -0.004443 0.000000
vt 0.002094 -0.003702 0.000000
vt 0.003142 -0.004443 0.000000
vt 0.003142 -0.003702 0.000000
vt 0.001047 0.000000 0.000000
vt 0.000000 0.000000 0.000000
vt 0.001047 -0.000740 0.000000
vt 0.000000 -0.000740 0.000000
vt 0.001047 -0.001481 0.000000
vt -0.000000 -0.001481 0.000000
vt 0.001047 -0.002221 0.000000
vt -0.000000 -0.002221 0.000000
vt 0.002094 -0.002221 0.000000
vt 0.002094 -0.001481 0.000000
vt 0.002094 -0.000740 0.000000
vt 0.002094 -0.000000 0.000000
vt 0.003142 -0.000740 0.000000
vt 0.003142 -0.002221 0.000000
vt 0.003142 -0.001481 0.000000
vt 0.002000 -0.001047 0.000000
vt 0.019144 -0.001047 0.000000
vt 0.002000 -0.000000 0.000000
vt 0.036250 -0.000393 0.000000
vt 0.036289 -0.000000 0.000000
vt 0.019144 -0.002094 0.000000
vt 0.002000 -0.002094 0.000000
vt 0.002000 -0.003142 0.000000
vt 0.034289 -0.003142 0.000000
vt 0.035054 -0.002356 0.000000
vt 0.035703 -0.001571 0.000000
vt 0.036136 -0.000785 0.000000
vt -0.131083 -0.002094 0.000000
vt -0.150117 -0.002094 0.000000
vt -0.131083 -0.003142 0.000000
vt -0.169150 -0.002094 0.000000
vt -0.188183 -0.003142 0.000000
vt -0.188183 -0.002094 0.000000
vt -0.188183 -0.001047 0.000000
vt -0.169150 -0.001047 0.000000
vt -0.188183 0.000000 0.000000
vt -0.150117 -0.001047 0.000000
vt -0.131083 -0.000000 0.000000
vt -0.131083 -0.001047 0.000000
vt 0.120731 -0.002094 0.000000
vt 0.100943 -0.002094 0.000000
vt 0.120731 -0.003142 0.000000
vt 0.081154 -0.002094 0.000000
vt 0.061366 -0.002094 0.000000
vt 0.061366 -0.001047 0.000000
vt 0.041577 -0.001047 0.000000
vt 0.002000 0.000000 0.000000
vt 0.021789 -0.001047 0.000000
vt 0.002000 -0.001047 0.000000
vt 0.021789 -0.002094 0.000000
vt 0.002000 -0.002094 0.000000
vt 0.002000 -0.003142 0.000000
vt 0.100943 -0.001047 0.000000
vt 0.120731 -0.001047 0.000000
vt 0.120731 -0.000000 0.000000
vt 0.081154 -0.001047 0.000000
vt 0.041577 -0.002094 0.000000
vt 0.000000 -0.000000 0.000000
vt 0.000038 -0.000393 0.000000
vt 0.001366 0.000000 0.000000
vt 0.001404 -0.000393 0.000000
vt 0.000152 -0.000785 0.000000
vt 0.001518 -0.000785 0.000000
vt 0.000586 -0.001571 0.000000
vt 0.001951 -0.001571 0.000000
vt 0.001235 -0.002356 0.000000
vt 0.002600 -0.002356 0.000000
vt 0.002000 -0.003142 0.000000
vt 0.003366 -0.003142 0.000000
vt 0.001047 -0.000000 0.000000
vt 0.000000 -0.000000 0.000000
vt 0.001047 -0.000740 0.000000
vt -0.000000 -0.000740 0.000000
vt 0.001047 -0.001481 0.000000
vt -0.000000 -0.001481 0.000000
vt 0.001047 -0.002221 0.000000
vt -0.000000 -0.002221 0.000000
vt 0.002094 -0.002221 0.000000
vt 0.002094 -0.001481 0.000000
vt 0.002094 -0.000740 0.000000
vt 0.002094 -0.000000 0.000000
vt 0.003142 -0.000740 0.000000
vt 0.003142 -0.002221 0.000000
vt 0.003142 -0.001481 0.000000
vt 0.034893 -0.000393 0.000000
vt 0.054951 -0.001047 0.000000
vt 0.034931 -0.000000 0.000000
vt 0.076971 -0.001047 0.000000
vt 0.098990 -0.001047 0.000000
vt 0.098990 -0.002094 0.000000
vt 0.121010 -0.002094 0.000000
vt 0.187069 -0.003142 0.000000
vt 0.143029 -0.002094 0.000000
vt 0.165049 -0.002094 0.000000
vt 0.143029 -0.001047 0.000000
vt 0.165049 -0.001047 0.000000
vt 0.185107 -0.000393 0.000000
vt 0.185221 -0.000785 0.000000
vt 0.185654 -0.001571 0.000000
vt 0.186303 -0.002356 0.000000
vt 0.034779 -0.000785 0.000000
vt 0.034346 -0.001571 0.000000
vt 0.054951 -0.002094 0.000000
vt 0.033697 -0.002356 0.000000
vt 0.076971 -0.002094 0.000000
vt 0.032931 -0.003142 0.000000
vt 0.185069 -0.000000 0.000000
vt 0.121010 -0.001047 0.000000
vt -0.002000 -0.002094 0.000000
vt -0.019144 -0.002094 0.000000
vt -0.002000 -0.003142 0.000000
vt -0.035054 -0.002356 0.000000
vt -0.034289 -0.003142 0.000000
vt -0.019144 -0.001047 0.000000
vt -0.002000 -0.001047 0.000000
vt -0.002000 -0.000000 0.000000
vt -0.036289 -0.000000 0.000000
vt -0.036250 -0.000393 0.000000
vt -0.036136 -0.000785 0.000000
vt -0.035703 -0.001571 0.000000
vt 0.000000 0.000000 0.000000
vt -0.001095 -0.000000 0.000000
vt -0.000038 -0.000393 0.000000
vt -0.001133 -0.000393 0.000000
vt -0.000152 -0.000785 0.000000
vt -0.001247 -0.000785 0.000000
vt -0.000586 -0.001571 0.000000
vt -0.001680 -0.001571 0.000000
vt -0.001235 -0.002356 0.000000
vt -0.002329 -0.002356 0.000000
vt -0.002000 -0.003142 0.000000
vt -0.003095 -0.003142 0.000000
vn -0.000000 -0.965926 -0.258819
vn -0.000000 -0.965926 -0.258819
vn -0.000000 -0.965926 -0.258819
vn -0.000000 -0.965926 -0.258819
vn 0.000000 0.965926 0.258819
vn 0.000000 0.965926 0.258819
vn 0.000000 0.965926 0.258819
vn 0.000000 0.965926 0.258819
vn 0.000000 -0.258819 0.965926
vn 0.000000 -0.258819 0.965926
vn 0.000000 -0.258819 0.965926
vn 0.000000 -0.258819 0.965926
vn 0.000000 -0.258819 0.965926
vn 0.000000 -0.258819 0.965926
vn 0.000000 -0.258819 0.965926
vn 0.000000 -0.258819 0.965926
vn 0.000000 -0.258819 0.965926
vn 0.000000 -0.258819 0.965926
vn -0.000000 0.258819 -0.965926
vn -0.000000 0.258819 -0.965926
vn -0.000000 0.258819 -0.965926
vn -0.000000 0.258819 -0.965926
vn -0.000000 0.258819 -0.965926
vn -0.000000 0.258819 -0.965926
vn -0.000000 0.258819 -0.965926
vn -0.000000 0.258819 -0.965926
vn -0.000000 0.258819 -0.965926
vn -0.000000 0.258819 -0.965926
vn -1.000000 -0.000000 0.000000
vn -1.000000 -0.000000 0.000000
vn -1.000000 -0.000000 0.000000
vn -1.000000 -0.000000 0.000000
vn 1.000000 0.000000 -0.000000
vn 1.000000 0.000000 -0.000000
vn 1.000000 0.000000 -0.000000
vn 1.000000 0.000000 -0.000000
vn 1.000000 0.000000 -0.000000
vn 1.000000 0.000000 -0.000000
vn 1.000000 0.000000 -0.000000
vn 1.000000 0.000000 -0.000000
vn 1.000000 0.000000 -0.000000
vn 1.000000 0.000000 -0.000000
vn 1.000000 0.000000 -0.000000
vn 1.000000 0.000000 -0.000000
vn 0.000000 0.965926 0.258819
vn 0.000000 0.965926 0.258819
vn 0.000000 0.965926 0.258819
vn 0.000000 0.965926 0.258819
vn -0.000000 0.258819 -0.965926
vn -0.000000 0.258819 -0.965926
vn -0.000000 0.258819 -0.965926
vn -0.000000 0.258819 -0.965926
vn 0.000000 -0.258819 0.965926
vn 0.000000 -0.258819 0.965926
vn 0.000000 -0.258819 0.965926
vn 0.000000 -0.258819 0.965926
vn -0.000000 -0.965926 -0.258819
vn -0.000000 -0.965926 -0.258819
vn -0.000000 -0.965926 -0.258819
vn -0.000000 -0.965926 -0.258819
vn -1.000000 -0.000000 0.000000
vn -1.000000 -0.000000 0.000000
vn -1.000000 -0.000000 0.000000
vn -1.000000 -0.000000 0.000000
vn -0.000000 -0.965926 -0.258819
vn -0.000000 -0.965926 -0.258819
vn -0.000000 -0.965926 -0.258819
vn -0.000000 -0.965926 -0.258819
vn 0.000000 -0.258819 0.965926
vn 0.000000 -0.258819 0.965926
vn 0.000000 -0.258819 0.965926
vn 0.000000 -0.258819 0.965926
vn -0.000000 0.258819 -0.965926
vn -0.000000 0.258819 -0.965926
vn -0.000000 0.258819 -0.965926
vn -0.000000 0.258819 -0.965926
vn 0.000000 0.965926 0.258819
vn 0.000000 0.965926 0.258819
vn 0.000000 0.965926 0.258819
vn 0.000000 0.965926 0.258819
vn -1.000000 -0.000000 0.000000
vn -1.000000 -0.000000 0.000000
vn -1.000000 -0.000000 0.000000
vn -1.000000 -0.000000 0.000000
vn -0.500000 -0.224144 0.836516
vn -0.500000 -0.224144 0.836516
vn -0.195090 -0.253846 0.947366
vn -0.866025 -0.129410 0.482963
vn -0.866025 -0.129410 0.482963
vn -0.923880 -0.099046 0.369644
vn -0.707107 -0.183013 0.683013
vn -0.382683 -0.239118 0.892399
vn -0.500000 0.836516 0.224144
vn 0.000000 0.707107 0.707107
vn -0.500000 0.612372 0.612372
vn 0.000000 0.258819 0.965926
vn -0.500000 0.224144 0.836516
vn 0.000000 -0.258819 0.965926
vn -0.500000 -0.224144 0.836516
vn -0.866025 0.129410 0.482963
vn -0.866025 0.482963 0.129410
vn -0.866025 0.353553 0.353553
vn -0.000000 -0.965926 -0.258819
vn -0.000000 -0.965926 -0.258819
vn -0.154961 -0.954258 -0.255693
vn -0.195090 -0.947366 -0.253846
vn -0.306179 -0.919536 -0.246389
vn -0.382683 -0.892399 -0.239118
vn -0.450000 -0.862599 -0.231133
vn -0.707107 -0.683013 -0.183013
vn -0.500000 -0.836516 -0.224144
vn -0.866025 -0.482963 -0.129410
vn -0.866025 -0.482963 -0.129410
vn -0.923880 -0.369644 -0.099046
vn -0.923880 -0.369644 -0.099046
vn -0.866025 -0.482963 -0.129410
vn -0.866025 -0.482963 -0.129410
vn -0.866025 -0.482963 -0.129410
vn -0.500000 -0.836516 -0.224144
vn -0.500000 -0.836516 -0.224144
vn -0.707107 -0.683013 -0.183013
vn -0.500000 -0.836516 -0.224144
vn -0.500000 -0.836516 -0.224144
vn -0.450000 -0.862599 -0.231133
vn -0.382683 -0.892399 -0.239118
vn -0.306179 -0.919536 -0.246389
vn -0.195090 -0.947366 -0.253846
vn -0.154961 -0.954258 -0.255693
vn -0.000000 -0.965926 -0.258819
vn -0.000000 -0.965926 -0.258819
vn 0.195090 -0.947366 -0.253846
vn 0.195090 -0.947366 -0.253846
vn 0.382683 -0.892399 -0.239118
vn 0.382683 -0.892399 -0.239118
vn 0.707107 -0.683013 -0.183013
vn 0.707107 -0.683013 -0.183013
vn 0.923880 -0.369644 -0.099046
vn 0.923880 -0.369644 -0.099046
vn 0.500000 -0.224144 0.836516
vn 0.195090 -0.253846 0.947366
vn 0.382683 -0.239118 0.892399
vn 0.707107 -0.183013 0.683013
vn 0.866025 -0.129410 0.482963
vn 0.866025 -0.129410 0.482963
vn 0.923880 -0.099046 0.369644
vn 0.500000 -0.224144 0.836516
vn 0.000000 0.707107 0.707107
vn 0.000000 0.707107 0.707107
vn 0.000000 0.707107 0.707107
vn 0.000000 0.258819 0.965926
vn 0.000000 0.258819 0.965926
vn 0.000000 0.258819 0.965926
vn 0.000000 0.258819 0.965926
vn -0.866025 0.482963 0.129410
vn -0.866025 0.482963 0.129410
vn -0.866025 0.482963 0.129410
vn -0.500000 0.836516 0.224144
vn -0.500000 0.836516 0.224144
vn -0.500000 0.836516 0.224144
vn -0.500000 0.836516 0.224144
vn -0.866025 0.482963 0.129410
vn -0.866025 0.482963 0.129410
vn -0.500000 0.836516 0.224144
vn -0.500000 0.836516 0.224144
vn -0.000000 0.965926 0.258819
vn -0.500000 0.836516 0.224144
vn -0.866025 0.482963 0.129410
vn 0.000000 0.258819 -0.965926
vn -0.500000 0.224144 -0.836516
vn -0.195090 0.253846 -0.947366
vn -0.382683 0.239118 -0.892399
vn -0.707107 0.183013 -0.683013
vn -0.866025 0.129410 -0.482963
vn -0.866025 0.129410 -0.482963
vn -0.923880 0.099046 -0.369644
vn -0.500000 0.224144 -0.836516
vn -0.866025 -0.129410 0.482963
vn -0.866025 -0.129410 0.482963
vn -0.923880 -0.099046 0.369644
vn -0.500000 -0.224144 0.836516
vn -0.500000 -0.224144 0.836516
vn -0.000000 -0.258819 0.965926
vn -0.195090 -0.253846 0.947366
vn -0.382683 -0.239118 0.892399
vn -0.707107 -0.183013 0.683013
vn 0.923880 -0.099046 0.369644
vn 0.866025 -0.129410 0.482963
vn 0.866025 -0.129410 0.482963
vn 0.866025 -0.129410 0.482963
vn 0.500000 -0.224144 0.836516
vn 0.500000 -0.224144 0.836516
vn 0.000000 -0.258819 0.965926
vn 0.500000 -0.224144 0.836516
vn 0.500000 -0.224144 0.836516
vn 0.866025 -0.129410 0.482963
vn 0.866025 -0.129410 0.482963
vn 0.923880 -0.099046 0.369644
vn 0.707107 -0.183013 0.683013
vn 0.382683 -0.239118 0.892399
vn 0.195090 -0.253846 0.947366
vn 0.707107 -0.183013 0.683013
vn 0.500000 -0.224144 0.836516
vn 0.500000 -0.224144 0.836516
vn 0.195090 -0.253846 0.947366
vn 0.382683 -0.239118 0.892399
vn 0.866025 -0.129410 0.482963
vn 0.250000 0.724444 0.642402
vn 0.433013 0.288849 0.853854
vn 0.750000 0.370891 0.547668
vn 0.866025 0.482963 0.129410
vn 0.500000 0.836516 0.224144
vn 0.433013 0.771812 0.465625
vn 0.000000 0.707107 -0.707107
vn -0.433013 0.677077 -0.595035
vn -0.750000 0.595035 -0.288849
vn -0.433013 0.901221 -0.017338
vn -0.250000 0.948588 -0.194114
vn 0.000000 0.965926 -0.258819
vn -0.306179 0.919536 0.246389
vn -0.382683 0.892399 0.239118
vn -0.450000 0.862599 0.231133
vn -0.707107 0.683013 0.183013
vn -0.500000 0.836516 0.224144
vn -0.866025 0.482963 0.129410
vn -0.866025 0.482963 0.129410
vn -0.923880 0.369644 0.099046
vn -0.195090 0.947366 0.253846
vn -0.154961 0.954258 0.255693
vn -0.923880 0.369644 0.099046
vn -0.866025 0.482963 0.129410
vn -0.866025 0.482963 0.129410
vn -0.866025 0.482963 0.129410
vn -0.500000 0.836516 0.224144
vn -0.500000 0.836516 0.224144
vn -0.707107 0.683013 0.183013
vn -0.500000 0.836516 0.224144
vn -0.500000 0.836516 0.224144
vn -0.450000 0.862599 0.231133
vn -0.382683 0.892399 0.239118
vn -0.306179 0.919536 0.246389
vn -0.195090 0.947366 0.253846
vn -0.154961 0.954258 0.255693
vn -0.000000 0.965926 0.258819
vn -0.000000 0.965926 0.258819
vn 0.000000 -0.965926 0.258819
vn -0.250000 -0.948588 0.194114
vn 0.000000 -0.707107 0.707107
vn -0.433013 -0.677077 0.595035
vn -0.750000 -0.595035 0.288849
vn -0.866025 -0.129410 0.482963
vn -0.866025 -0.482963 -0.129410
vn -0.500000 -0.836516 -0.224144
vn -0.433013 -0.901221 0.017338
vn 0.923880 0.369644 0.099046
vn 0.923880 0.369644 0.099046
vn 0.707107 0.683013 0.183013
vn 0.707107 0.683013 0.183013
vn 0.382683 0.892399 0.239118
vn 0.382683 0.892399 0.239118
vn 0.195090 0.947366 0.253846
vn 0.195090 0.947366 0.253846
vn 0.000000 0.965926 0.258819
vn 0.000000 0.965926 0.258819
vn 0.500000 0.836516 0.224144
vn 0.500000 0.836516 0.224144
vn -0.000000 0.965926 0.258819
vn 0.500000 0.836516 0.224144
vn 0.500000 0.836516 0.224144
vn 0.866025 0.482963 0.129410
vn 0.866025 0.482963 0.129410
vn 0.866025 0.482963 0.129410
vn 0.866025 0.482963 0.129410
vn 0.500000 0.836516 0.224144
vn 0.500000 0.836516 0.224144
vn 0.866025 0.482963 0.129410
vn 0.866025 0.482963 0.129410
vn 0.866025 0.482963 0.129410
vn 0.500000 0.836516 0.224144
vn -0.000000 0.707107 -0.707107
vn -0.000000 0.707107 -0.707107
vn -0.000000 0.707107 -0.707107
vn -0.000000 0.965926 -0.258819
vn -0.000000 0.965926 -0.258819
vn -0.000000 0.965926 -0.258819
vn -0.866025 0.129410 -0.482963
vn -0.923880 0.099046 -0.369644
vn -0.707107 0.183013 -0.683013
vn -0.500000 0.224144 -0.836516
vn -0.382683 0.239118 -0.892399
vn -0.195090 0.253846 -0.947366
vn -0.500000 0.224144 -0.836516
vn -0.866025 0.129410 -0.482963
vn -0.500000 -0.836516 -0.224144
vn -0.500000 -0.836516 -0.224144
vn -0.000000 -0.965926 -0.258819
vn -0.500000 -0.836516 -0.224144
vn -0.500000 -0.836516 -0.224144
vn -0.866025 -0.482963 -0.129410
vn -0.866025 -0.482963 -0.129410
vn -0.866025 -0.482963 -0.129410
vn -0.866025 -0.482963 -0.129410
vn -0.500000 -0.836516 -0.224144
vn -0.500000 -0.836516 -0.224144
vn -0.866025 -0.482963 -0.129410
vn -0.866025 -0.482963 -0.129410
vn -0.866025 -0.482963 -0.129410
vn -0.500000 -0.836516 -0.224144
vn 0.000000 -0.707107 0.707107
vn 0.000000 -0.707107 0.707107
vn 0.000000 -0.707107 0.707107
vn 0.000000 -0.965926 0.258819
vn 0.000000 -0.965926 0.258819
vn 0.000000 -0.965926 0.258819
vn 0.866025 -0.129410 0.482963
vn 0.923880 -0.099046 0.369644
vn 0.707107 -0.183013 0.683013
vn 0.500000 -0.224144 0.836516
vn 0.382683 -0.239118 0.892399
vn 0.195090 -0.253846 0.947366
vn -0.000000 -0.258819 0.965926
vn 0.500000 -0.224144 0.836516
vn 0.866025 -0.129410 0.482963
vn 0.250000 0.642402 -0.724444
vn 0.433013 0.853854 -0.288849
vn 0.500000 0.836516 0.224144
vn 0.750000 0.547668 -0.370891
vn 0.866025 0.129410 -0.482963
vn 0.500000 0.224144 -0.836516
vn 0.433013 0.465625 -0.771812
vn -0.433013 -0.771812 -0.465625
vn -0.750000 -0.370891 -0.547668
vn -0.433013 -0.288849 -0.853854
vn 0.000000 -0.258819 -0.965926
vn 0.000000 -0.707107 -0.707107
vn -0.250000 -0.724444 -0.642402
vn 0.866025 -0.482963 -0.129410
vn 0.750000 -0.595035 0.288849
vn 0.433013 -0.677077 0.595035
vn 0.250000 -0.948588 0.194114
vn 0.433013 -0.901221 0.017338
vn 0.500000 -0.836516 -0.224144
vn 0.500000 0.224144 -0.836516
vn 0.500000 0.224144 -0.836516
vn 0.195090 0.253846 -0.947366
vn 0.000000 0.258819 -0.965926
vn 0.866025 0.129410 -0.482963
vn 0.923880 0.099046 -0.369644
vn 0.707107 0.183013 -0.683013
vn 0.382683 0.239118 -0.892399
vn -0.000000 -0.707107 -0.707107
vn -0.000000 -0.707107 -0.707107
vn -0.000000 -0.965926 -0.258819
vn -0.000000 -0.707107 -0.707107
vn -0.000000 -0.258819 -0.965926
vn -0.000000 -0.258819 -0.965926
vn -0.000000 -0.258819 -0.965926
vn 0.866025 -0.482963 -0.129410
vn 0.866025 -0.482963 -0.129410
vn 1.000000 -0.000000 -0.000000
vn 0.866025 -0.482963 -0.129410
vn 0.866025 -0.482963 -0.129410
vn 0.500000 -0.836516 -0.224144
vn 0.500000 -0.836516 -0.224144
vn 0.500000 -0.836516 -0.224144
vn 0.500000 -0.836516 -0.224144
vn 0.866025 -0.482963 -0.129410
vn 0.866025 -0.482963 -0.129410
vn 1.000000 -0.000000 -0.000000
vn 0.500000 -0.836516 -0.224144
vn 0.500000 -0.836516 -0.224144
vn 0.000000 -0.965926 -0.258819
vn 0.500000 -0.836516 -0.224144
vn 0.866025 -0.482963 -0.129410
vn 0.195090 -0.947366 -0.253846
vn 0.195090 -0.947366 -0.253846
vn 0.382683 -0.892399 -0.239118
vn 0.382683 -0.892399 -0.239118
vn 0.707107 -0.683013 -0.183013
vn 0.707107 -0.683013 -0.183013
vn 0.923880 -0.369644 -0.099046
vn 0.923880 -0.369644 -0.099046
vn 1.000000 -0.000000 -0.000000
vn 0.866025 0.129410 -0.482963
vn 1.000000 0.000000 -0.000000
vn 0.750000 -0.288849 -0.595035
vn 0.866025 -0.482963 -0.129410
vn 0.433013 -0.595035 -0.677077
vn 0.500000 -0.836516 -0.224144
vn 0.000000 -0.707107 -0.707107
vn 0.000000 -0.258819 -0.965926
vn 0.250000 -0.194114 -0.948588
vn 0.433013 -0.017338 -0.901221
vn 0.500000 0.224144 -0.836516
vn 0.195090 0.253846 -0.947366
vn 0.500000 0.224144 -0.836516
vn 0.000000 0.258819 -0.965926
vn 0.500000 0.224144 -0.836516
vn 0.500000 0.224144 -0.836516
vn 0.866025 0.129410 -0.482963
vn 0.866025 0.129410 -0.482963
vn 0.866025 0.129410 -0.482963
vn 0.866025 0.129410 -0.482963
vn 0.500000 0.224144 -0.836516
vn 0.500000 0.224144 -0.836516
vn 0.195090 0.253846 -0.947366
vn 0.382683 0.239118 -0.892399
vn 0.707107 0.183013 -0.683013
vn 0.923880 0.099046 -0.369644
vn 0.382683 0.239118 -0.892399
vn 0.707107 0.183013 -0.683013
vn 0.866025 0.129410 -0.482963
vn 0.923880 0.099046 -0.369644
vn 0.866025 0.129410 -0.482963
vn 0.000000 0.258819 -0.965926
vn 0.500000 0.224144 -0.836516
vn 0.866025 0.129410 -0.482963
vn 0.923880 0.099046 -0.369644
vn 0.500000 0.224144 -0.836516
vn 0.500000 0.224144 -0.836516
vn 0.195090 0.253846 -0.947366
vn 0.382683 0.239118 -0.892399
vn 0.707107 0.183013 -0.683013
vn 0.000000 0.965926 0.258819
vn 0.195090 0.947366 0.253846
vn 0.195090 0.947366 0.253846
vn 0.382683 0.892399 0.239118
vn 0.382683 0.892399 0.239118
vn 0.707107 0.683013 0.183013
vn 0.707107 0.683013 0.183013
vn 0.923880 0.369644 0.099046
vn 0.923880 0.369644 0.099046
vn 1.000000 -0.000000 -0.000000
usemtl Opaque(202,209,238)
f 2/1/1 3/2/2 1/3/3
f 1/3/3 3/2/2 4/4/4
f 6/5/5 7/6/6 5/7/7
f 5/7/7 7/6/6 8/8/8
f 10/9/9 2/10/10 9/11/11
f 9/11/11 2/10/10 1/12/12
f 9/11/11 1/12/12 16/13/13
f 16/13/13 1/12/12 11/14/14
f 16/13/13 11/14/14 15/15/15
f 15/15/15 11/14/14 12/16/16
f 15/15/15 12/16/16 14/17/17
f 14/17/17 12/16/16 13/18/18
f 18/19/19 6/20/20 17/21/21
f 17/21/21 6/20/20 5/22/22
f 17/21/21 5/22/22 24/23/23
f 24/23/23 5/22/22 19/24/24
f 24/23/23 19/24/24 23/25/25
f 23/25/25 19/24/24 20/26/26
f 23/25/25 20/26/26 22/27/27
f 22/27/27 20/26/26 21/28/28
f 13/29/29 22/30/30 14/31/31
f 14/31/31 22/30/30 21/32/32
f 25/33/33 26/34/34 36/35/35
f 36/35/35 26/34/34 33/36/36
f 36/35/35 33/36/36 35/37/37
f 35/37/37 33/36/36 34/38/38
f 33/36/36 26/34/34 32/39/39
f 32/39/39 26/34/34 27/40/40
f 32/39/39 27/40/40 30/41/41
f 30/41/41 27/40/40 29/42/42
f 29/42/42 27/40/40 28/43/43
f 30/41/41 31/44/44 32/39/39
f 38/45/45 10/46/46 37/47/47
f 37/47/47 10/46/46 9/48/48
f 7/49/49 39/50/50 8/51/51
f 8/51/51 39/50/50 40/52/52
f 42/53/53 38/54/54 41/55/55
f 41/55/55 38/54/54 37/56/56
f 44/57/57 45/58/58 43/59/59
f 43/59/59 45/58/58 46/60/60
f 48/61/61 49/62/62 47/63/63
f 47/63/63 49/62/62 50/64/64
f 52/65/65 18/66/66 51/67/67
f 51/67/67 18/66/66 17/68/68
f 3/69/69 53/70/70 4/71/71
f 4/71/71 53/70/70 54/72/72
f 56/73/73 52/74/74 55/75/75
f 55/75/75 52/74/74 51/76/76
f 58/77/77 59/78/78 57/79/79
f 57/79/79 59/78/78 60/80/80
f 61/81/81 62/82/82 64/83/83
f 64/83/83 62/82/82 63/84/84
f 65/85/85 71/86/86 54/87/72
f 54/87/72 71/86/86 70/88/87
f 54/87/72 70/88/87 4/89/71
f 71/86/86 65/85/85 72/90/88
f 72/90/88 65/85/85 66/91/89
f 72/90/88 66/91/89 63/92/84
f 63/92/84 62/93/82 72/90/88
f 72/90/88 62/93/82 67/94/90
f 72/90/88 67/94/90 68/95/91
f 72/90/88 68/95/91 71/86/86
f 71/86/86 68/95/91 69/96/92
f 71/86/86 69/96/92 70/88/87
f 57/97/79 73/98/93 76/99/94
f 76/99/94 73/98/93 78/100/95
f 76/99/94 78/100/95 75/101/96
f 75/101/96 78/100/95 79/102/97
f 75/101/96 79/102/97 54/103/98
f 54/103/98 79/102/97 65/104/99
f 65/104/99 79/102/97 80/105/100
f 65/104/99 80/105/100 66/106/89
f 66/106/89 80/105/100 63/107/84
f 73/98/93 74/108/101 78/100/95
f 78/100/95 74/108/101 77/109/102
f 78/100/95 77/109/102 79/102/97
f 79/102/97 77/109/102 80/105/100
f 74/108/101 63/110/84 77/109/102
f 77/109/102 63/111/84 80/105/100
f 1/112/103 4/113/104 11/114/105
f 11/114/105 4/113/104 70/115/106
f 11/114/105 70/115/106 12/116/107
f 12/116/107 70/115/106 69/117/108
f 12/116/107 69/117/108 13/118/109
f 13/118/109 69/117/108 68/119/110
f 13/118/109 68/119/110 85/120/111
f 85/120/111 68/119/110 90/121/112
f 85/120/111 90/121/112 91/122/113
f 91/122/113 90/121/112 67/123/114
f 91/122/113 67/123/114 61/124/81
f 61/124/81 67/123/114 62/125/82
f 68/119/110 67/123/114 90/121/112
f 81/126/115 94/127/116 61/124/81
f 61/124/81 94/127/116 93/128/117
f 61/124/81 93/128/117 92/129/118
f 92/129/118 93/128/117 87/130/119
f 92/129/118 87/130/119 86/131/120
f 86/131/120 87/130/119 13/118/109
f 86/131/120 13/118/109 85/120/111
f 81/126/115 82/132/121 94/127/116
f 94/127/116 82/132/121 89/133/122
f 94/127/116 89/133/122 88/134/123
f 88/134/123 89/133/122 22/135/124
f 88/134/123 22/135/124 87/130/119
f 87/130/119 22/135/124 13/118/109
f 89/133/122 82/132/121 22/135/124
f 22/135/124 82/132/121 83/136/125
f 22/135/124 83/136/125 23/137/126
f 23/137/126 83/136/125 84/138/127
f 23/137/126 84/138/127 24/139/128
f 24/139/128 84/138/127 51/140/67
f 24/139/128 51/140/67 17/141/68
f 92/129/118 86/131/120 91/122/113
f 91/122/113 86/131/120 85/120/111
f 94/127/116 88/134/123 93/128/117
f 93/128/117 88/134/123 87/130/119
f 61/124/81 92/129/118 91/122/113
f 3/142/129 2/143/130 102/144/131
f 102/144/131 2/143/130 95/145/132
f 102/144/131 95/145/132 101/146/133
f 101/146/133 95/145/132 96/147/134
f 101/146/133 96/147/134 100/148/135
f 100/148/135 96/147/134 97/149/136
f 100/148/135 97/149/136 99/150/137
f 99/150/137 97/149/136 98/151/138
f 99/150/137 98/151/138 31/152/44
f 31/152/44 98/151/138 32/153/39
f 53/154/70 3/155/69 105/156/139
f 105/156/139 3/155/69 102/157/140
f 105/156/139 102/157/140 101/158/141
f 101/158/141 100/159/142 105/156/139
f 105/156/139 100/159/142 106/160/143
f 105/156/139 106/160/143 103/161/144
f 103/161/144 106/160/143 30/162/41
f 30/162/41 106/160/143 99/163/145
f 30/162/41 99/163/145 31/164/44
f 100/159/142 99/163/145 106/160/143
f 103/161/144 104/165/146 105/156/139
f 105/156/139 104/165/146 53/154/70
f 76/166/94 109/167/147 57/168/79
f 57/168/79 109/167/147 110/169/148
f 57/168/79 110/169/148 58/170/77
f 58/170/77 110/169/148 108/171/149
f 108/171/149 110/169/148 107/172/150
f 107/172/150 110/169/148 112/173/151
f 107/172/150 112/173/151 53/174/70
f 53/174/70 112/173/151 111/175/152
f 53/174/70 111/175/152 54/176/72
f 54/176/72 111/175/152 75/177/153
f 75/177/153 111/175/152 76/166/94
f 76/166/94 111/175/152 109/167/147
f 112/173/151 110/169/148 109/167/147
f 112/173/151 109/167/147 111/175/152
f 74/178/101 115/179/154 63/180/84
f 63/180/84 115/179/154 116/181/155
f 63/180/84 116/181/155 117/182/156
f 117/182/156 116/181/155 122/183/157
f 117/182/156 122/183/157 123/184/158
f 123/184/158 122/183/157 60/185/80
f 123/184/158 60/185/80 124/186/159
f 124/186/159 60/185/80 113/187/160
f 124/186/159 113/187/160 119/188/161
f 119/188/161 113/187/160 114/189/162
f 119/188/161 114/189/162 64/190/83
f 115/179/154 74/178/101 120/191/163
f 120/191/163 74/178/101 73/192/164
f 120/191/163 73/192/164 57/193/165
f 60/185/80 122/183/157 57/193/165
f 57/193/165 122/183/157 121/194/166
f 57/193/165 121/194/166 120/191/163
f 120/191/163 121/194/166 115/179/154
f 63/180/84 117/182/156 64/190/83
f 64/190/83 117/182/156 118/195/167
f 64/190/83 118/195/167 119/188/161
f 119/188/161 118/195/167 124/186/159
f 122/183/157 116/181/155 121/194/166
f 121/194/166 116/181/155 115/179/154
f 124/186/159 118/195/167 123/184/158
f 123/184/158 118/195/167 117/182/156
f 55/196/75 51/197/168 127/198/169
f 127/198/169 51/197/168 84/199/170
f 127/198/169 84/199/170 83/200/171
f 83/200/171 82/201/172 127/198/169
f 127/198/169 82/201/172 128/202/173
f 127/198/169 128/202/173 125/203/174
f 125/203/174 128/202/173 64/204/83
f 64/204/83 128/202/173 81/205/175
f 64/204/83 81/205/175 61/206/81
f 82/201/172 81/205/175 128/202/173
f 125/203/174 126/207/176 127/198/169
f 127/198/169 126/207/176 55/196/75
f 129/208/177 135/209/178 49/210/62
f 49/210/62 135/209/178 134/211/179
f 49/210/62 134/211/179 50/212/64
f 135/209/178 129/208/177 136/213/180
f 136/213/180 129/208/177 130/214/181
f 136/213/180 130/214/181 41/215/55
f 41/215/55 37/216/182 136/213/180
f 136/213/180 37/216/182 131/217/183
f 136/213/180 131/217/183 132/218/184
f 132/218/184 133/219/185 136/213/180
f 136/213/180 133/219/185 135/209/178
f 133/219/185 134/211/179 135/209/178
f 98/220/186 141/221/187 32/222/39
f 32/222/39 141/221/187 142/223/188
f 32/222/39 142/223/188 143/224/189
f 143/224/189 142/223/188 149/225/190
f 143/224/189 149/225/190 150/226/191
f 150/226/191 149/225/190 10/227/192
f 150/226/191 10/227/192 151/228/193
f 151/228/193 10/227/192 152/229/194
f 151/228/193 152/229/194 145/230/195
f 145/230/195 152/229/194 146/231/196
f 145/230/195 146/231/196 140/232/197
f 140/232/197 146/231/196 139/233/198
f 139/233/198 146/231/196 152/229/194
f 139/233/198 152/229/194 138/234/199
f 138/234/199 152/229/194 137/235/200
f 137/235/200 152/229/194 10/227/192
f 98/220/186 97/236/201 141/221/187
f 141/221/187 97/236/201 147/237/202
f 141/221/187 147/237/202 148/238/203
f 148/238/203 147/237/202 95/239/204
f 148/238/203 95/239/204 149/225/190
f 149/225/190 95/239/204 10/227/192
f 97/236/201 96/240/205 147/237/202
f 147/237/202 96/240/205 95/239/204
f 95/239/204 2/241/10 10/227/192
f 33/242/36 32/222/39 140/232/197
f 140/232/197 32/222/39 145/230/195
f 149/225/190 142/223/188 148/238/203
f 148/238/203 142/223/188 141/221/187
f 145/230/195 32/222/39 144/243/206
f 144/243/206 32/222/39 143/224/189
f 144/243/206 143/224/189 150/226/191
f 151/228/193 145/230/195 144/243/206
f 151/228/193 144/243/206 150/226/191
f 58/244/77 108/245/149 156/246/207
f 156/246/207 108/245/149 107/247/150
f 156/246/207 107/247/150 155/248/208
f 155/248/208 107/247/150 53/249/70
f 155/248/208 53/249/70 104/250/146
f 155/248/208 104/250/146 157/251/209
f 157/251/209 104/250/146 103/252/144
f 157/251/209 103/252/144 153/253/210
f 153/253/210 103/252/144 30/254/41
f 153/253/210 154/255/211 157/251/209
f 157/251/209 154/255/211 158/256/212
f 157/251/209 158/256/212 155/248/208
f 155/248/208 158/256/212 156/246/207
f 154/255/211 58/257/77 158/256/212
f 158/256/212 58/258/77 156/246/207
f 160/259/213 55/260/75 161/261/214
f 161/261/214 55/260/75 126/262/176
f 161/261/214 126/262/176 163/263/215
f 163/263/215 126/262/176 125/264/174
f 163/263/215 125/264/174 114/265/162
f 114/265/162 125/264/174 64/266/83
f 114/265/162 113/267/160 163/263/215
f 163/263/215 113/267/160 164/268/216
f 163/263/215 164/268/216 161/261/214
f 161/261/214 164/268/216 162/269/217
f 161/261/214 162/269/217 160/259/213
f 160/259/213 162/269/217 159/270/218
f 159/270/218 162/269/217 60/271/80
f 113/267/160 60/272/80 164/268/216
f 164/268/216 60/273/80 162/269/217
f 20/274/219 166/275/220 21/276/221
f 21/276/221 166/275/220 167/277/222
f 21/276/221 167/277/222 169/278/223
f 169/278/223 167/277/222 174/279/224
f 169/278/223 174/279/224 175/280/225
f 175/280/225 174/279/224 168/281/226
f 175/280/225 168/281/226 50/282/64
f 50/282/64 168/281/226 47/283/63
f 166/275/220 20/274/219 165/284/227
f 165/284/227 20/274/219 19/285/228
f 165/284/227 19/285/228 8/286/8
f 8/286/8 19/285/228 5/287/7
f 167/277/222 168/281/226 174/279/224
f 134/288/229 178/289/230 50/282/64
f 50/282/64 178/289/230 177/290/231
f 50/282/64 177/290/231 176/291/232
f 176/291/232 177/290/231 171/292/233
f 176/291/232 171/292/233 170/293/234
f 170/293/234 171/292/233 21/276/221
f 170/293/234 21/276/221 169/278/223
f 134/288/229 133/294/235 178/289/230
f 178/289/230 133/294/235 173/295/236
f 178/289/230 173/295/236 172/296/237
f 172/296/237 173/295/236 14/297/238
f 172/296/237 14/297/238 171/292/233
f 171/292/233 14/297/238 21/276/221
f 173/295/236 133/294/235 14/297/238
f 14/297/238 133/294/235 132/298/239
f 14/297/238 132/298/239 15/299/240
f 15/299/240 132/298/239 131/300/241
f 15/299/240 131/300/241 16/301/242
f 16/301/242 131/300/241 37/302/243
f 16/301/242 37/302/243 9/303/244
f 176/291/232 170/293/234 175/280/225
f 175/280/225 170/293/234 169/278/223
f 178/289/230 172/296/237 177/290/231
f 177/290/231 172/296/237 171/292/233
f 50/282/64 176/291/232 175/280/225
f 46/304/60 179/305/245 184/306/246
f 184/306/246 179/305/245 180/307/247
f 184/306/246 180/307/247 183/308/248
f 183/308/248 180/307/247 41/309/55
f 183/308/248 41/309/55 130/310/181
f 183/308/248 130/310/181 185/311/249
f 185/311/249 130/310/181 129/312/250
f 185/311/249 129/312/250 181/313/251
f 181/313/251 129/312/250 49/314/62
f 181/313/251 182/315/252 185/311/249
f 185/311/249 182/315/252 186/316/253
f 185/311/249 186/316/253 183/308/248
f 183/308/248 186/316/253 184/306/246
f 182/315/252 46/317/60 186/316/253
f 186/316/253 46/318/60 184/306/246
f 33/319/36 140/320/254 34/321/38
f 34/321/38 140/320/254 190/322/255
f 190/322/255 140/320/254 139/323/256
f 190/322/255 139/323/256 189/324/257
f 189/324/257 139/323/256 138/325/258
f 189/324/257 138/325/258 188/326/259
f 188/326/259 138/325/258 137/327/260
f 188/326/259 137/327/260 187/328/261
f 187/328/261 137/327/260 10/329/262
f 187/328/261 10/329/262 38/330/263
f 154/331/264 193/332/265 58/333/266
f 58/333/266 193/332/265 194/334/267
f 58/333/266 194/334/267 195/335/268
f 195/335/268 194/334/267 200/336/269
f 195/335/268 200/336/269 201/337/270
f 201/337/270 200/336/269 29/338/42
f 201/337/270 29/338/42 202/339/271
f 202/339/271 29/338/42 191/340/272
f 202/339/271 191/340/272 197/341/273
f 197/341/273 191/340/272 192/342/274
f 197/341/273 192/342/274 59/343/78
f 193/332/265 154/331/264 198/344/275
f 198/344/275 154/331/264 153/345/276
f 198/344/275 153/345/276 30/346/41
f 29/338/42 200/336/269 30/346/41
f 30/346/41 200/336/269 199/347/277
f 30/346/41 199/347/277 198/344/275
f 198/344/275 199/347/277 193/332/265
f 58/333/266 195/335/268 59/343/78
f 59/343/78 195/335/268 196/348/278
f 59/343/78 196/348/278 197/341/273
f 197/341/273 196/348/278 202/339/271
f 200/336/269 194/334/267 199/347/277
f 199/347/277 194/334/267 193/332/265
f 202/339/271 196/348/278 201/337/270
f 201/337/270 196/348/278 195/335/268
f 160/349/213 205/350/279 55/351/75
f 55/351/75 205/350/279 206/352/280
f 55/351/75 206/352/280 56/353/73
f 56/353/73 206/352/280 204/354/281
f 204/354/281 206/352/280 203/355/282
f 203/355/282 206/352/280 208/356/283
f 203/355/282 208/356/283 59/357/78
f 59/357/78 208/356/283 207/358/284
f 59/357/78 207/358/284 60/359/80
f 60/359/80 207/358/284 159/360/218
f 159/360/218 207/358/284 160/349/213
f 160/349/213 207/358/284 205/350/279
f 208/356/283 206/352/280 205/350/279
f 208/356/283 205/350/279 207/358/284
f 48/361/61 47/362/63 211/363/285
f 211/363/285 47/362/63 168/364/286
f 211/363/285 168/364/286 167/365/287
f 211/363/285 167/365/287 212/366/288
f 212/366/288 167/365/287 166/367/289
f 212/366/288 166/367/289 165/368/290
f 8/369/51 40/370/52 165/368/290
f 165/368/290 40/370/52 212/366/288
f 40/370/52 209/371/291 212/366/288
f 212/366/288 209/371/291 211/363/285
f 209/371/291 210/372/292 211/363/285
f 211/363/285 210/372/292 48/361/61
f 182/373/293 215/374/294 46/375/295
f 46/375/295 215/374/294 216/376/296
f 46/375/295 216/376/296 217/377/297
f 217/377/297 216/376/296 222/378/298
f 217/377/297 222/378/298 223/379/299
f 223/379/299 222/378/298 48/380/61
f 223/379/299 48/380/61 224/381/300
f 224/381/300 48/380/61 213/382/301
f 224/381/300 213/382/301 219/383/302
f 219/383/302 213/382/301 214/384/303
f 219/383/302 214/384/303 43/385/59
f 215/374/294 182/373/293 220/386/304
f 220/386/304 182/373/293 181/387/305
f 220/386/304 181/387/305 49/388/62
f 48/380/61 222/378/298 49/388/62
f 49/388/62 222/378/298 221/389/306
f 49/388/62 221/389/306 220/386/304
f 220/386/304 221/389/306 215/374/294
f 46/375/295 217/377/297 43/385/59
f 43/385/59 217/377/297 218/390/307
f 43/385/59 218/390/307 219/383/302
f 219/383/302 218/390/307 224/381/300
f 222/378/298 216/376/296 221/389/306
f 221/389/306 216/376/296 215/374/294
f 224/381/300 218/390/307 223/379/299
f 223/379/299 218/390/307 217/377/297
f 180/391/247 227/392/308 41/393/55
f 41/393/55 227/392/308 228/394/309
f 41/393/55 228/394/309 42/395/53
f 42/395/53 228/394/309 226/396/310
f 226/396/310 228/394/309 225/397/311
f 225/397/311 228/394/309 230/398/312
f 225/397/311 230/398/312 45/399/58
f 45/399/58 230/398/312 229/400/313
f 45/399/58 229/400/313 46/401/60
f 46/401/60 229/400/313 179/402/245
f 179/402/245 229/400/313 180/391/247
f 180/391/247 229/400/313 227/392/308
f 230/398/312 228/394/309 227/392/308
f 230/398/312 227/392/308 229/400/313
f 35/403/37 34/404/38 233/405/314
f 233/405/314 34/404/38 190/406/315
f 233/405/314 190/406/315 189/407/316
f 233/405/314 189/407/316 234/408/317
f 234/408/317 189/407/316 188/409/318
f 234/408/317 188/409/318 187/410/319
f 38/411/320 42/412/53 187/410/319
f 187/410/319 42/412/53 234/408/317
f 42/412/53 231/413/321 234/408/317
f 234/408/317 231/413/321 233/405/314
f 231/413/321 232/414/322 233/405/314
f 233/405/314 232/414/322 35/403/37
f 56/415/73 204/416/281 238/417/323
f 238/417/323 204/416/281 203/418/282
f 238/417/323 203/418/282 237/419/324
f 237/419/324 203/418/282 59/420/78
f 237/419/324 59/420/78 192/421/325
f 237/419/324 192/421/325 239/422/326
f 239/422/326 192/421/325 191/423/272
f 239/422/326 191/423/272 235/424/327
f 235/424/327 191/423/272 29/425/42
f 235/424/327 236/426/328 239/422/326
f 239/422/326 236/426/328 240/427/329
f 239/422/326 240/427/329 237/419/324
f 237/419/324 240/427/329 238/417/323
f 236/426/328 56/428/73 240/427/329
f 240/427/329 56/429/73 238/417/323
f 43/430/59 214/431/303 244/432/330
f 244/432/330 214/431/303 213/433/301
f 244/432/330 213/433/301 243/434/331
f 243/434/331 213/433/301 48/435/61
f 243/434/331 48/435/61 210/436/292
f 243/434/331 210/436/292 245/437/332
f 245/437/332 210/436/292 209/438/291
f 245/437/332 209/438/291 241/439/333
f 241/439/333 209/438/291 40/440/52
f 241/439/333 242/441/334 245/437/332
f 245/437/332 242/441/334 246/442/335
f 245/437/332 246/442/335 243/434/331
f 243/434/331 246/442/335 244/432/330
f 242/441/334 43/443/59 246/442/335
f 246/442/335 43/444/59 244/432/330
f 248/445/336 35/446/37 249/447/337
f 249/447/337 35/446/37 232/448/322
f 249/447/337 232/448/322 251/449/338
f 251/449/338 232/448/322 231/450/321
f 251/449/338 231/450/321 226/451/310
f 226/451/310 231/450/321 42/452/53
f 226/451/310 225/453/311 251/449/338
f 251/449/338 225/453/311 252/454/339
f 251/449/338 252/454/339 249/447/337
f 249/447/337 252/454/339 250/455/340
f 249/447/337 250/455/340 248/445/336
f 248/445/336 250/455/340 247/456/341
f 247/456/341 250/455/340 45/457/58
f 225/453/311 45/458/58 252/454/339
f 252/454/339 45/459/58 250/455/340
f 236/460/342 257/461/343 56/462/73
f 56/462/73 257/461/343 256/463/344
f 56/462/73 256/463/344 52/464/345
f 257/461/343 236/460/342 258/465/346
f 258/465/346 236/460/342 235/466/327
f 258/465/346 235/466/327 29/467/42
f 29/467/42 28/468/43 258/465/346
f 258/465/346 28/468/43 253/469/347
f 258/465/346 253/469/347 254/470/348
f 258/465/346 254/470/348 257/461/343
f 257/461/343 254/470/348 255/471/349
f 257/461/343 255/471/349 256/463/344
f 242/472/334 261/473/350 43/474/59
f 43/474/59 261/473/350 262/475/351
f 43/474/59 262/475/351 44/476/352
f 44/476/352 262/475/351 260/477/353
f 260/477/353 262/475/351 259/478/354
f 259/478/354 262/475/351 264/479/355
f 259/478/354 264/479/355 39/480/50
f 39/480/50 264/479/355 263/481/356
f 39/480/50 263/481/356 40/482/52
f 40/482/52 263/481/356 241/483/333
f 241/483/333 263/481/356 242/472/334
f 242/472/334 263/481/356 261/473/350
f 264/479/355 262/475/351 261/473/350
f 264/479/355 261/473/350 263/481/356
f 248/484/357 267/485/358 35/486/359
f 35/486/359 267/485/358 268/487/360
f 35/486/359 268/487/360 269/488/361
f 269/488/361 268/487/360 274/489/362
f 269/488/361 274/489/362 275/490/363
f 275/490/363 274/489/362 44/491/57
f 275/490/363 44/491/57 276/492/364
f 276/492/364 44/491/57 265/493/365
f 276/492/364 265/493/365 271/494/366
f 271/494/366 265/493/365 266/495/367
f 271/494/366 266/495/367 36/496/368
f 267/485/358 248/484/357 272/497/369
f 272/497/369 248/484/357 247/498/370
f 272/497/369 247/498/370 45/499/371
f 44/491/57 274/489/362 45/499/371
f 45/499/371 274/489/362 273/500/372
f 45/499/371 273/500/372 272/497/369
f 272/497/369 273/500/372 267/485/358
f 35/486/359 269/488/361 36/496/368
f 36/496/368 269/488/361 270/501/373
f 36/496/368 270/501/373 271/494/366
f 271/494/366 270/501/373 276/492/364
f 274/489/362 268/487/360 273/500/372
f 273/500/372 268/487/360 267/485/358
f 276/492/364 270/501/373 275/490/363
f 275/490/363 270/501/373 269/488/361
f 52/502/65 256/503/374 18/504/66
f 18/504/66 256/503/374 280/505/375
f 280/505/375 256/503/374 255/506/376
f 280/505/375 255/506/376 279/507/377
f 279/507/377 255/506/376 254/508/378
f 279/507/377 254/508/378 278/509/379
f 278/509/379 254/508/378 253/510/380
f 278/509/379 253/510/380 277/511/381
f 277/511/381 253/510/380 28/512/43
f 277/511/381 28/512/43 27/513/382
f 282/514/383 36/515/384 283/516/385
f 283/516/385 36/515/384 266/517/386
f 283/516/385 266/517/386 285/518/387
f 285/518/387 266/517/386 265/519/388
f 285/518/387 265/519/388 260/520/389
f 260/520/389 265/519/388 44/521/57
f 260/520/389 259/522/390 285/518/387
f 285/518/387 259/522/390 286/523/391
f 285/518/387 286/523/391 283/516/385
f 283/516/385 286/523/391 284/524/392
f 283/516/385 284/524/392 282/514/383
f 282/514/383 284/524/392 281/525/393
f 281/525/393 284/524/392 39/526/50
f 259/522/390 39/527/50 286/523/391
f 286/523/391 39/528/50 284/524/392
f 280/529/394 291/530/395 18/531/396
f 18/531/396 291/530/395 292/532/397
f 18/531/396 292/532/397 293/533/398
f 293/533/398 292/532/397 299/534/399
f 293/533/398 299/534/399 300/535/400
f 300/535/400 299/534/399 26/536/34
f 300/535/400 26/536/34 301/537/401
f 301/537/401 26/536/34 302/538/402
f 301/537/401 302/538/402 295/539/403
f 295/539/403 302/538/402 296/540/404
f 295/539/403 296/540/404 290/541/405
f 290/541/405 296/540/404 289/542/406
f 289/542/406 296/540/404 288/543/407
f 288/543/407 296/540/404 302/538/402
f 288/543/407 302/538/402 287/544/408
f 287/544/408 302/538/402 26/536/34
f 280/529/394 279/545/409 291/530/395
f 291/530/395 279/545/409 278/546/410
f 291/530/395 278/546/410 297/547/411
f 297/547/411 278/546/410 277/548/412
f 297/547/411 277/548/412 298/549/413
f 298/549/413 277/548/412 26/536/34
f 298/549/413 26/536/34 299/534/399
f 277/548/412 27/550/40 26/536/34
f 6/551/414 18/531/396 290/541/405
f 290/541/405 18/531/396 294/552/415
f 290/541/405 294/552/415 295/539/403
f 295/539/403 294/552/415 301/537/401
f 294/552/415 18/531/396 293/533/398
f 297/547/411 298/549/413 291/530/395
f 291/530/395 298/549/413 292/532/397
f 298/549/413 299/534/399 292/532/397
f 301/537/401 294/552/415 300/535/400
f 300/535/400 294/552/415 293/533/398
f 282/553/383 307/554/416 36/555/384
f 36/555/384 307/554/416 306/556/417
f 36/555/384 306/556/417 25/557/33
f 307/554/416 282/553/383 308/558/418
f 308/558/418 282/553/383 281/559/419
f 308/558/418 281/559/419 39/560/50
f 39/560/50 7/561/49 308/558/418
f 308/558/418 7/561/49 303/562/420
f 308/558/418 303/562/420 304/563/421
f 304/563/421 305/564/422 308/558/418
f 308/558/418 305/564/422 307/554/416
f 305/564/422 306/556/417 307/554/416
f 7/565/6 6/566/423 303/567/424
f 303/567/424 6/566/423 290/568/425
f 303/567/424 290/568/425 304/569/426
f 304/569/426 290/568/425 289/570/427
f 304/569/426 289/570/427 305/571/428
f 305/571/428 289/570/427 288/572/429
f 305/571/428 288/572/429 306/573/430
f 306/573/430 288/572/429 287/574/431
f 306/573/430 287/574/431 25/575/33
f 25/575/33 287/574/431 26/576/432
# 308 vertices
# 576 texture params
# 432 normals
# 612 facets

# 1 groups
