# WaveFront *.obj file (generated by Autodesk ATF)

mtllib body133_visual.mtl

g Body133

v -27.234769 1.121093 -0.833724
v -27.234769 1.159916 -0.978613
v -27.234769 1.198553 -0.968260
v -27.234769 1.159730 -0.823371
v -27.234769 0.937753 -1.038141
v -27.234769 0.898930 -0.893252
v -27.234769 0.860293 -0.903605
v -27.234769 0.899116 -1.048494
v -27.235439 1.159083 -0.820956
v -27.237269 1.158610 -0.819189
v -27.239769 1.158436 -0.818542
v -27.239769 1.119799 -0.828894
v -27.239769 0.897636 -0.888423
v -27.239769 0.858999 -0.898775
v -27.237269 0.859173 -0.899422
v -27.235439 0.859646 -0.901190
v -27.235439 1.109177 -0.834329
v -27.235439 1.059271 -0.847701
v -27.235439 1.009365 -0.861073
v -27.235439 0.959459 -0.874446
v -27.235439 0.909552 -0.887818
v -27.237269 1.108703 -0.832561
v -27.237269 1.058797 -0.845933
v -27.237269 1.008891 -0.859306
v -27.237269 0.958985 -0.872678
v -27.237269 0.909079 -0.886050
v -27.334769 1.119799 -0.828894
v -27.334769 1.158436 -0.818542
v -27.334769 0.897636 -0.888423
v -27.334769 0.858999 -0.898775
v -27.337269 1.158610 -0.819189
v -27.339099 1.159083 -0.820956
v -27.339769 1.159730 -0.823371
v -27.339769 1.121093 -0.833724
v -27.339769 0.898930 -0.893252
v -27.339769 0.860293 -0.903605
v -27.339099 0.859646 -0.901190
v -27.337269 0.859173 -0.899422
v -27.337269 1.108703 -0.832561
v -27.337269 1.058797 -0.845933
v -27.337269 1.008891 -0.859306
v -27.337269 0.958985 -0.872678
v -27.337269 0.909079 -0.886050
v -27.339099 1.109177 -0.834329
v -27.339099 1.059271 -0.847701
v -27.339099 1.009365 -0.861073
v -27.339099 0.959459 -0.874446
v -27.339099 0.909552 -0.887818
v -27.339769 1.198553 -0.968260
v -27.339769 1.159916 -0.978613
v -27.339769 0.937753 -1.038141
v -27.339769 0.899116 -1.048494
v -27.239769 0.900410 -1.053324
v -27.239769 0.939047 -1.042971
v -27.239769 1.161210 -0.983442
v -27.239769 1.199847 -0.973090
v -27.237269 1.199674 -0.972443
v -27.235439 1.199200 -0.970675
v -27.235439 0.899763 -1.050909
v -27.237269 0.900237 -1.052677
v -27.237269 1.149768 -0.985815
v -27.237269 1.099862 -0.999187
v -27.237269 1.049955 -1.012560
v -27.237269 1.000049 -1.025932
v -27.237269 0.950143 -1.039304
v -27.235439 1.149294 -0.984047
v -27.235439 1.099388 -0.997419
v -27.235439 1.049482 -1.010792
v -27.235439 0.999576 -1.024164
v -27.235439 0.949669 -1.037536
v -27.339099 1.199200 -0.970675
v -27.337269 1.199674 -0.972443
v -27.334769 1.199847 -0.973090
v -27.334769 1.161210 -0.983442
v -27.334769 0.939047 -1.042971
v -27.334769 0.900410 -1.053324
v -27.337269 0.900237 -1.052677
v -27.339099 0.899763 -1.050909
v -27.339099 1.149294 -0.984047
v -27.339099 1.099388 -0.997419
v -27.339099 1.049482 -1.010792
v -27.339099 0.999576 -1.024164
v -27.339099 0.949669 -1.037536
v -27.337269 1.149768 -0.985815
v -27.337269 1.099862 -0.999187
v -27.337269 1.049955 -1.012560
v -27.337269 1.000049 -1.025932
v -27.337269 0.950143 -1.039304
v -27.334769 0.894287 -1.049788
v -27.239769 0.894287 -1.049788
v -27.239769 0.855464 -0.904899
v -27.334769 0.855464 -0.904899
v -27.334769 1.164560 -0.822077
v -27.239769 1.164560 -0.822077
v -27.239769 1.203383 -0.966966
v -27.334769 1.203383 -0.966966
v -27.239769 1.161024 -0.818542
v -27.239769 1.163266 -0.819836
v -27.334769 1.163266 -0.819836
v -27.334769 1.161024 -0.818542
v -27.287269 1.161024 -0.818542
v -27.287269 1.163266 -0.819836
v -27.235439 1.162145 -0.822724
v -27.237269 1.163913 -0.822250
v -27.237269 1.162792 -0.820309
v -27.235439 1.161498 -0.821603
v -27.237269 1.160851 -0.819189
v -27.235439 1.160377 -0.820956
v -27.337269 1.163913 -0.822250
v -27.339099 1.162145 -0.822724
v -27.337269 1.160851 -0.819189
v -27.339099 1.160377 -0.820956
v -27.337269 1.162792 -0.820309
v -27.339099 1.161498 -0.821603
v -27.235439 1.200968 -0.967613
v -27.237269 1.202736 -0.967139
v -27.237269 1.176854 -0.870547
v -27.237269 1.189795 -0.918843
v -27.235439 1.175086 -0.871020
v -27.235439 1.188027 -0.919317
v -27.334769 1.202089 -0.971796
v -27.334769 1.203383 -0.969554
v -27.239769 1.203383 -0.969554
v -27.239769 1.202089 -0.971796
v -27.287269 1.202089 -0.971796
v -27.287269 1.203383 -0.969554
v -27.337269 1.202736 -0.967139
v -27.339099 1.200968 -0.967613
v -27.339099 1.175086 -0.871020
v -27.339099 1.188027 -0.919317
v -27.337269 1.176854 -0.870547
v -27.337269 1.189795 -0.918843
v -27.239769 0.855464 -0.902311
v -27.239769 0.856758 -0.900070
v -27.334769 0.856758 -0.900070
v -27.334769 0.855464 -0.902311
v -27.287269 0.855464 -0.902311
v -27.287269 0.856758 -0.900070
v -27.237269 0.856111 -0.904726
v -27.235439 0.857878 -0.904252
v -27.237269 0.857231 -0.900543
v -27.235439 0.858526 -0.901837
v -27.237269 0.856111 -0.902484
v -27.235439 0.857878 -0.902958
v -27.237269 1.201615 -0.971322
v -27.235439 1.200321 -0.970028
v -27.237269 1.202736 -0.969381
v -27.235439 1.200968 -0.968907
v -27.337269 1.202736 -0.969381
v -27.339099 1.200968 -0.968907
v -27.337269 1.201615 -0.971322
v -27.339099 1.200321 -0.970028
v -27.339099 0.857878 -0.904252
v -27.337269 0.856111 -0.904726
v -27.337269 0.856111 -0.902484
v -27.339099 0.857878 -0.902958
v -27.337269 0.857231 -0.900543
v -27.339099 0.858526 -0.901837
v -27.237269 0.894934 -1.049615
v -27.235439 0.896701 -1.049141
v -27.235439 0.870819 -0.952548
v -27.235439 0.883760 -1.000845
v -27.237269 0.869052 -0.953022
v -27.237269 0.881993 -1.001318
v -27.339099 0.896701 -1.049141
v -27.337269 0.894934 -1.049615
v -27.337269 0.869052 -0.953022
v -27.337269 0.881993 -1.001318
v -27.339099 0.870819 -0.952548
v -27.339099 0.883760 -1.000845
v -27.239769 0.895581 -1.052029
v -27.239769 0.897822 -1.053324
v -27.235439 0.898469 -1.050909
v -27.237269 0.897995 -1.052677
v -27.237269 0.896054 -1.051556
v -27.235439 0.897348 -1.050262
v -27.334769 0.897822 -1.053324
v -27.334769 0.895581 -1.052029
v -27.339099 0.897348 -1.050262
v -27.337269 0.896054 -1.051556
v -27.337269 0.897995 -1.052677
v -27.339099 0.898469 -1.050909
v -27.287269 0.897822 -1.053324
v -27.287269 0.895581 -1.052029
vt 0.155000 -0.275000 0.000000
vt 0.005000 -0.275000 0.000000
vt 0.155000 -0.315000 0.000000
vt 0.005000 -0.315000 0.000000
vt 0.005000 -0.045000 0.000000
vt 0.155000 -0.045000 0.000000
vt 0.005000 -0.005000 0.000000
vt 0.155000 -0.005000 0.000000
vt 0.005000 0.007854 0.000000
vt 0.045000 0.007854 0.000000
vt 0.005000 0.010472 0.000000
vt 0.056667 0.010472 0.000000
vt 0.005000 0.013090 0.000000
vt 0.056667 0.013090 0.000000
vt 0.045000 0.015708 0.000000
vt 0.108333 0.013090 0.000000
vt 0.160000 0.013090 0.000000
vt 0.160000 0.010472 0.000000
vt 0.211667 0.010472 0.000000
vt 0.275000 0.007854 0.000000
vt 0.263333 0.010472 0.000000
vt 0.315000 0.010472 0.000000
vt 0.263333 0.013090 0.000000
vt 0.315000 0.013090 0.000000
vt 0.275000 0.015708 0.000000
vt 0.315000 0.015708 0.000000
vt 0.108333 0.010472 0.000000
vt 0.315000 0.007854 0.000000
vt 0.211667 0.013090 0.000000
vt 0.005000 0.015708 0.000000
vt 0.045000 -0.005000 0.000000
vt 0.005000 -0.005000 0.000000
vt 0.045000 -0.100000 0.000000
vt 0.005000 -0.100000 0.000000
vt 0.275000 -0.100000 0.000000
vt 0.315000 -0.100000 0.000000
vt 0.275000 -0.005000 0.000000
vt 0.315000 -0.005000 0.000000
vt 0.315000 -0.000000 0.000000
vt 0.275000 -0.000000 0.000000
vt 0.315000 -0.002618 0.000000
vt 0.263333 -0.002618 0.000000
vt 0.315000 -0.005236 0.000000
vt 0.263333 -0.005236 0.000000
vt 0.275000 -0.007854 0.000000
vt 0.211667 -0.005236 0.000000
vt 0.160000 -0.005236 0.000000
vt 0.160000 -0.002618 0.000000
vt 0.108333 -0.002618 0.000000
vt 0.045000 -0.000000 0.000000
vt 0.056667 -0.002618 0.000000
vt 0.005000 -0.002618 0.000000
vt 0.056667 -0.005236 0.000000
vt 0.005000 -0.005236 0.000000
vt 0.045000 -0.007854 0.000000
vt 0.005000 -0.007854 0.000000
vt 0.211667 -0.002618 0.000000
vt 0.005000 -0.000000 0.000000
vt 0.108333 -0.005236 0.000000
vt 0.315000 -0.007854 0.000000
vt -0.005000 -0.275000 0.000000
vt -0.155000 -0.275000 0.000000
vt -0.005000 -0.315000 0.000000
vt -0.155000 -0.315000 0.000000
vt -0.155000 -0.045000 0.000000
vt -0.005000 -0.045000 0.000000
vt -0.155000 -0.005000 0.000000
vt -0.005000 -0.005000 0.000000
vt -0.005000 -0.015708 0.000000
vt -0.045000 -0.015708 0.000000
vt -0.005000 -0.018326 0.000000
vt -0.056667 -0.018326 0.000000
vt -0.005000 -0.020944 0.000000
vt -0.056667 -0.020944 0.000000
vt -0.045000 -0.023562 0.000000
vt -0.108333 -0.020944 0.000000
vt -0.160000 -0.020944 0.000000
vt -0.160000 -0.018326 0.000000
vt -0.211667 -0.018326 0.000000
vt -0.275000 -0.015708 0.000000
vt -0.263333 -0.018326 0.000000
vt -0.315000 -0.018326 0.000000
vt -0.263333 -0.020944 0.000000
vt -0.315000 -0.020944 0.000000
vt -0.275000 -0.023562 0.000000
vt -0.315000 -0.023562 0.000000
vt -0.108333 -0.018326 0.000000
vt -0.315000 -0.015708 0.000000
vt -0.211667 -0.020944 0.000000
vt -0.005000 -0.023562 0.000000
vt -0.315000 -0.007854 0.000000
vt -0.275000 -0.007854 0.000000
vt -0.315000 -0.005236 0.000000
vt -0.263333 -0.005236 0.000000
vt -0.315000 -0.002618 0.000000
vt -0.263333 -0.002618 0.000000
vt -0.275000 0.000000 0.000000
vt -0.211667 -0.002618 0.000000
vt -0.160000 -0.002618 0.000000
vt -0.160000 -0.005236 0.000000
vt -0.108333 -0.005236 0.000000
vt -0.045000 -0.007854 0.000000
vt -0.056667 -0.005236 0.000000
vt -0.005000 -0.005236 0.000000
vt -0.056667 -0.002618 0.000000
vt -0.005000 -0.002618 0.000000
vt -0.045000 0.000000 0.000000
vt -0.005000 0.000000 0.000000
vt -0.211667 -0.005236 0.000000
vt -0.005000 -0.007854 0.000000
vt -0.108333 -0.002618 0.000000
vt -0.315000 0.000000 0.000000
vt -0.045000 -0.100000 0.000000
vt -0.005000 -0.100000 0.000000
vt -0.045000 -0.005000 0.000000
vt -0.005000 -0.005000 0.000000
vt -0.275000 -0.005000 0.000000
vt -0.315000 -0.005000 0.000000
vt -0.275000 -0.100000 0.000000
vt -0.315000 -0.100000 0.000000
vt 0.155000 -0.005000 0.000000
vt 0.005000 -0.005000 0.000000
vt 0.155000 -0.100000 0.000000
vt 0.005000 -0.100000 0.000000
vt -0.275000 -0.100000 0.000000
vt -0.045000 -0.100000 0.000000
vt -0.275000 -0.005000 0.000000
vt -0.045000 -0.005000 0.000000
vt -0.005000 -0.005000 0.000000
vt -0.155000 -0.005000 0.000000
vt -0.005000 -0.100000 0.000000
vt -0.155000 -0.100000 0.000000
vt 0.275000 -0.005000 0.000000
vt 0.045000 -0.005000 0.000000
vt 0.275000 -0.100000 0.000000
vt 0.045000 -0.100000 0.000000
vt 0.005000 -0.275000 0.000000
vt 0.155000 -0.275000 0.000000
vt 0.005000 -0.045000 0.000000
vt 0.155000 -0.045000 0.000000
vt -0.155000 -0.275000 0.000000
vt -0.005000 -0.275000 0.000000
vt -0.155000 -0.045000 0.000000
vt -0.005000 -0.045000 0.000000
vt -0.100000 -0.015708 0.000000
vt -0.005000 -0.015708 0.000000
vt -0.052500 -0.013090 0.000000
vt -0.005000 -0.013090 0.000000
vt -0.052500 -0.010472 0.000000
vt -0.005000 -0.010472 0.000000
vt -0.005000 -0.007854 0.000000
vt -0.100000 -0.007854 0.000000
vt -0.100000 -0.010472 0.000000
vt -0.100000 -0.013090 0.000000
vt -0.007854 -0.009256 0.000000
vt -0.005236 -0.011107 0.000000
vt -0.005236 -0.009256 0.000000
vt -0.002618 -0.011107 0.000000
vt -0.002618 -0.009256 0.000000
vt -0.000000 -0.011107 0.000000
vt -0.000000 -0.009256 0.000000
vt -0.002618 -0.007405 0.000000
vt -0.000000 -0.007405 0.000000
vt -0.002618 -0.005554 0.000000
vt -0.000000 -0.005554 0.000000
vt -0.005236 -0.005554 0.000000
vt -0.005236 -0.007405 0.000000
vt -0.007854 -0.005554 0.000000
vt -0.007854 -0.007405 0.000000
vt 0.007854 -0.007405 0.000000
vt 0.005236 -0.005554 0.000000
vt 0.005236 -0.007405 0.000000
vt 0.002618 -0.005554 0.000000
vt 0.002618 -0.007405 0.000000
vt 0.000000 -0.005554 0.000000
vt -0.000000 -0.007405 0.000000
vt 0.002618 -0.009256 0.000000
vt -0.000000 -0.009256 0.000000
vt 0.002618 -0.011107 0.000000
vt -0.000000 -0.011107 0.000000
vt 0.005236 -0.011107 0.000000
vt 0.005236 -0.009256 0.000000
vt 0.007854 -0.011107 0.000000
vt 0.007854 -0.009256 0.000000
vt -0.155000 -0.018326 0.000000
vt -0.105000 -0.018326 0.000000
vt -0.155000 -0.015708 0.000000
vt -0.055000 -0.018326 0.000000
vt -0.005000 -0.015708 0.000000
vt -0.005000 -0.018326 0.000000
vt -0.005000 -0.020944 0.000000
vt -0.055000 -0.020944 0.000000
vt -0.005000 -0.023562 0.000000
vt -0.105000 -0.020944 0.000000
vt -0.155000 -0.023562 0.000000
vt -0.155000 -0.020944 0.000000
vt -0.005000 0.000000 0.000000
vt -0.100000 0.000000 0.000000
vt -0.052500 -0.002618 0.000000
vt -0.100000 -0.002618 0.000000
vt -0.052500 -0.005236 0.000000
vt -0.100000 -0.005236 0.000000
vt -0.100000 -0.007854 0.000000
vt -0.005000 -0.007854 0.000000
vt -0.005000 -0.005236 0.000000
vt -0.005000 -0.002618 0.000000
vt -0.005000 -0.005236 0.000000
vt -0.055000 -0.005236 0.000000
vt -0.005000 -0.007854 0.000000
vt -0.105000 -0.005236 0.000000
vt -0.155000 -0.007854 0.000000
vt -0.155000 -0.005236 0.000000
vt -0.155000 -0.002618 0.000000
vt -0.105000 -0.002618 0.000000
vt -0.155000 0.000000 0.000000
vt -0.055000 -0.002618 0.000000
vt -0.005000 0.000000 0.000000
vt -0.005000 -0.002618 0.000000
vt -0.100000 0.007854 0.000000
vt -0.005000 0.007854 0.000000
vt -0.052500 0.010472 0.000000
vt -0.005000 0.010472 0.000000
vt -0.052500 0.013090 0.000000
vt -0.005000 0.013090 0.000000
vt -0.005000 0.015708 0.000000
vt -0.100000 0.015708 0.000000
vt -0.100000 0.013090 0.000000
vt -0.100000 0.010472 0.000000
vt -0.007854 -0.003702 0.000000
vt -0.005236 -0.005554 0.000000
vt -0.005236 -0.003702 0.000000
vt -0.002618 -0.005554 0.000000
vt -0.002618 -0.003702 0.000000
vt -0.000000 -0.005554 0.000000
vt -0.000000 -0.003702 0.000000
vt -0.002618 -0.001851 0.000000
vt 0.000000 -0.001851 0.000000
vt -0.002618 -0.000000 0.000000
vt -0.000000 -0.000000 0.000000
vt -0.005236 0.000000 0.000000
vt -0.005236 -0.001851 0.000000
vt -0.007854 0.000000 0.000000
vt -0.007854 -0.001851 0.000000
vt -0.002618 0.005554 0.000000
vt 0.000000 0.005554 0.000000
vt -0.002618 0.007405 0.000000
vt 0.000000 0.007405 0.000000
vt -0.002618 0.009256 0.000000
vt -0.000000 0.009256 0.000000
vt -0.002618 0.011107 0.000000
vt 0.000000 0.011107 0.000000
vt -0.005236 0.011107 0.000000
vt -0.005236 0.009256 0.000000
vt -0.005236 0.007405 0.000000
vt -0.005236 0.005554 0.000000
vt -0.007854 0.007405 0.000000
vt -0.007854 0.011107 0.000000
vt -0.007854 0.009256 0.000000
vt 0.007854 0.009256 0.000000
vt 0.005236 0.011107 0.000000
vt 0.005236 0.009256 0.000000
vt 0.002618 0.011107 0.000000
vt 0.002618 0.009256 0.000000
vt -0.000000 0.011107 0.000000
vt -0.000000 0.009256 0.000000
vt 0.002618 0.007405 0.000000
vt 0.000000 0.007405 0.000000
vt 0.002618 0.005554 0.000000
vt -0.000000 0.005554 0.000000
vt 0.005236 0.005554 0.000000
vt 0.005236 0.007405 0.000000
vt 0.007854 0.005554 0.000000
vt 0.007854 0.007405 0.000000
vt 0.002618 0.000000 0.000000
vt 0.000000 -0.000000 0.000000
vt 0.002618 -0.001851 0.000000
vt 0.000000 -0.001851 0.000000
vt 0.002618 -0.003702 0.000000
vt -0.000000 -0.003702 0.000000
vt 0.002618 -0.005554 0.000000
vt -0.000000 -0.005554 0.000000
vt 0.005236 -0.005554 0.000000
vt 0.005236 -0.003702 0.000000
vt 0.005236 -0.001851 0.000000
vt 0.005236 0.000000 0.000000
vt 0.007854 -0.001851 0.000000
vt 0.007854 -0.005554 0.000000
vt 0.007854 -0.003702 0.000000
vt 0.155000 0.010472 0.000000
vt 0.105000 0.010472 0.000000
vt 0.155000 0.007854 0.000000
vt 0.055000 0.010472 0.000000
vt 0.005000 0.007854 0.000000
vt 0.005000 0.010472 0.000000
vt 0.005000 0.013090 0.000000
vt 0.055000 0.013090 0.000000
vt 0.005000 0.015708 0.000000
vt 0.105000 0.013090 0.000000
vt 0.155000 0.015708 0.000000
vt 0.155000 0.013090 0.000000
vt 0.005000 -0.002618 0.000000
vt 0.055000 -0.002618 0.000000
vt 0.005000 -0.000000 0.000000
vt 0.105000 -0.002618 0.000000
vt 0.155000 -0.000000 0.000000
vt 0.155000 -0.002618 0.000000
vt 0.155000 -0.005236 0.000000
vt 0.105000 -0.005236 0.000000
vt 0.155000 -0.007854 0.000000
vt 0.055000 -0.005236 0.000000
vt 0.005000 -0.007854 0.000000
vt 0.005000 -0.005236 0.000000
vt 0.000000 0.005554 0.000000
vt -0.002618 0.005554 0.000000
vt 0.000000 0.003702 0.000000
vt -0.002618 0.003702 0.000000
vt 0.000000 0.001851 0.000000
vt -0.002618 0.001851 0.000000
vt 0.000000 0.000000 0.000000
vt -0.002618 -0.000000 0.000000
vt -0.005236 0.001851 0.000000
vt -0.005236 -0.000000 0.000000
vt -0.007854 0.001851 0.000000
vt -0.005236 0.005554 0.000000
vt -0.005236 0.003702 0.000000
vt -0.007854 0.005554 0.000000
vt -0.007854 0.003702 0.000000
vt 0.000000 0.000000 0.000000
vt 0.002618 0.000000 0.000000
vt 0.000000 0.001851 0.000000
vt 0.002618 0.001851 0.000000
vt 0.000000 0.003702 0.000000
vt 0.002618 0.003702 0.000000
vt 0.000000 0.005554 0.000000
vt 0.002618 0.005554 0.000000
vt 0.005236 0.003702 0.000000
vt 0.005236 0.005554 0.000000
vt 0.007854 0.003702 0.000000
vt 0.005236 0.000000 0.000000
vt 0.005236 0.001851 0.000000
vt 0.007854 0.000000 0.000000
vt 0.007854 0.001851 0.000000
vt -0.100000 -0.000000 0.000000
vt -0.005000 0.000000 0.000000
vt -0.052500 0.002618 0.000000
vt -0.005000 0.002618 0.000000
vt -0.052500 0.005236 0.000000
vt -0.005000 0.005236 0.000000
vt -0.005000 0.007854 0.000000
vt -0.100000 0.007854 0.000000
vt -0.100000 0.005236 0.000000
vt -0.100000 0.002618 0.000000
vn 1.000000 0.000000 0.000000
vn 1.000000 0.000000 0.000000
vn 1.000000 0.000000 0.000000
vn 1.000000 0.000000 0.000000
vn 1.000000 0.000000 0.000000
vn 1.000000 0.000000 0.000000
vn 1.000000 0.000000 0.000000
vn 1.000000 0.000000 0.000000
vn 0.866025 -0.129410 0.482963
vn 0.866025 -0.129410 0.482963
vn 0.500000 -0.224144 0.836516
vn 0.500000 -0.224144 0.836516
vn -0.000000 -0.258819 0.965926
vn 0.500000 -0.224144 0.836516
vn 0.500000 -0.224144 0.836516
vn 0.866025 -0.129410 0.482963
vn 0.866025 -0.129410 0.482963
vn 0.866025 -0.129410 0.482963
vn 0.866025 -0.129410 0.482963
vn 0.500000 -0.224144 0.836516
vn 0.500000 -0.224144 0.836516
vn -0.000000 -0.258819 0.965926
vn -0.000000 -0.258819 0.965926
vn 0.866025 -0.129410 0.482963
vn 0.500000 -0.224144 0.836516
vn -0.000000 -0.258819 0.965926
vn -0.000000 -0.258819 0.965926
vn -0.000000 -0.258819 0.965926
vn -0.000000 -0.258819 0.965926
vn -0.000000 -0.258819 0.965926
vn -0.000000 -0.258819 0.965926
vn -0.000000 -0.258819 0.965926
vn -0.000000 -0.258819 0.965926
vn -0.000000 -0.258819 0.965926
vn -0.500000 -0.224144 0.836516
vn -0.500000 -0.224144 0.836516
vn -0.866025 -0.129410 0.482963
vn -0.866025 -0.129410 0.482963
vn -1.000000 -0.000000 -0.000000
vn -0.866025 -0.129410 0.482963
vn -0.866025 -0.129410 0.482963
vn -0.500000 -0.224144 0.836516
vn -0.500000 -0.224144 0.836516
vn -0.000000 -0.258819 0.965926
vn -0.500000 -0.224144 0.836516
vn -0.500000 -0.224144 0.836516
vn -0.866025 -0.129410 0.482963
vn -0.866025 -0.129410 0.482963
vn -1.000000 -0.000000 -0.000000
vn -1.000000 -0.000000 -0.000000
vn -0.500000 -0.224144 0.836516
vn -0.000000 -0.258819 0.965926
vn -0.866025 -0.129410 0.482963
vn -1.000000 -0.000000 -0.000000
vn -1.000000 -0.000000 -0.000000
vn -1.000000 -0.000000 -0.000000
vn -1.000000 -0.000000 -0.000000
vn -1.000000 -0.000000 -0.000000
vn 0.000000 0.258819 -0.965926
vn 0.000000 0.258819 -0.965926
vn 0.500000 0.224144 -0.836516
vn 0.500000 0.224144 -0.836516
vn 0.866025 0.129410 -0.482963
vn 0.866025 0.129410 -0.482963
vn 0.866025 0.129410 -0.482963
vn 0.866025 0.129410 -0.482963
vn 0.500000 0.224144 -0.836516
vn 0.500000 0.224144 -0.836516
vn 0.000000 0.258819 -0.965926
vn 0.500000 0.224144 -0.836516
vn 0.500000 0.224144 -0.836516
vn 0.866025 0.129410 -0.482963
vn 0.866025 0.129410 -0.482963
vn 0.500000 0.224144 -0.836516
vn 0.000000 0.258819 -0.965926
vn 0.866025 0.129410 -0.482963
vn -0.866025 0.129410 -0.482963
vn -0.866025 0.129410 -0.482963
vn -0.500000 0.224144 -0.836516
vn -0.500000 0.224144 -0.836516
vn 0.000000 0.258819 -0.965926
vn -0.500000 0.224144 -0.836516
vn -0.500000 0.224144 -0.836516
vn -0.866025 0.129410 -0.482963
vn -0.866025 0.129410 -0.482963
vn -0.866025 0.129410 -0.482963
vn -0.866025 0.129410 -0.482963
vn -0.500000 0.224144 -0.836516
vn -0.500000 0.224144 -0.836516
vn 0.000000 0.258819 -0.965926
vn 0.000000 0.258819 -0.965926
vn -0.866025 0.129410 -0.482963
vn -0.500000 0.224144 -0.836516
vn 0.000000 0.258819 -0.965926
vn 0.000000 0.258819 -0.965926
vn 0.000000 0.258819 -0.965926
vn 0.000000 -0.965926 -0.258819
vn 0.000000 -0.965926 -0.258819
vn 0.000000 -0.965926 -0.258819
vn 0.000000 -0.965926 -0.258819
vn -0.000000 0.965926 0.258819
vn -0.000000 0.965926 0.258819
vn -0.000000 0.965926 0.258819
vn -0.000000 0.965926 0.258819
vn -0.000000 0.258819 0.965926
vn -0.000000 0.258819 0.965926
vn -0.000000 0.707107 0.707107
vn -0.000000 0.707107 0.707107
vn -0.000000 0.707107 0.707107
vn -0.000000 0.258819 0.965926
vn 0.866025 0.482963 0.129410
vn 0.866025 0.353553 0.353553
vn 0.500000 0.836516 0.224144
vn 0.500000 0.612372 0.612372
vn 0.000000 0.965926 0.258819
vn 0.000000 0.707107 0.707107
vn 0.500000 0.224144 0.836516
vn 0.000000 0.258819 0.965926
vn 0.500000 -0.224144 0.836516
vn 0.000000 -0.258819 0.965926
vn 0.866025 0.129410 0.482963
vn -0.866025 -0.129410 0.482963
vn -0.866025 0.129410 0.482963
vn -0.500000 -0.224144 0.836516
vn -0.500000 0.224144 0.836516
vn -0.000000 -0.258819 0.965926
vn 0.000000 0.258819 0.965926
vn -0.500000 0.612372 0.612372
vn 0.000000 0.707107 0.707107
vn -0.500000 0.836516 0.224144
vn 0.000000 0.965926 0.258819
vn -0.866025 0.482963 0.129410
vn -0.866025 0.353553 0.353553
vn 0.500000 0.836516 0.224144
vn 0.500000 0.836516 0.224144
vn 0.500000 0.836516 0.224144
vn -0.000000 0.965926 0.258819
vn 0.500000 0.836516 0.224144
vn 0.866025 0.482963 0.129410
vn 0.866025 0.482963 0.129410
vn 0.866025 0.482963 0.129410
vn 0.000000 0.707107 -0.707107
vn 0.000000 0.707107 -0.707107
vn -0.000000 0.965926 -0.258819
vn -0.000000 0.965926 -0.258819
vn -0.000000 0.965926 -0.258819
vn 0.000000 0.707107 -0.707107
vn -0.866025 0.482963 0.129410
vn -0.866025 0.482963 0.129410
vn -0.866025 0.482963 0.129410
vn -0.500000 0.836516 0.224144
vn -0.500000 0.836516 0.224144
vn 0.000000 0.965926 0.258819
vn -0.500000 0.836516 0.224144
vn 0.000000 0.965926 0.258819
vn -0.500000 0.836516 0.224144
vn 0.000000 -0.965926 0.258819
vn 0.000000 -0.965926 0.258819
vn -0.000000 -0.707107 0.707107
vn -0.000000 -0.707107 0.707107
vn -0.000000 -0.707107 0.707107
vn 0.000000 -0.965926 0.258819
vn 0.866025 -0.129410 0.482963
vn 0.866025 -0.353553 0.353553
vn 0.500000 -0.224144 0.836516
vn 0.500000 -0.612372 0.612372
vn 0.000000 -0.258819 0.965926
vn 0.000000 -0.707107 0.707107
vn 0.500000 -0.836516 0.224144
vn 0.500000 -0.836516 -0.224144
vn 0.000000 -0.965926 -0.258819
vn 0.866025 -0.482963 -0.129410
vn 0.866025 -0.482963 0.129410
vn 0.500000 0.224144 -0.836516
vn 0.000000 0.258819 -0.965926
vn 0.500000 0.612372 -0.612372
vn 0.000000 0.707107 -0.707107
vn 0.500000 0.836516 -0.224144
vn -0.000000 0.965926 0.258819
vn 0.866025 0.482963 0.129410
vn 0.866025 0.482963 -0.129410
vn 0.866025 0.353553 -0.353553
vn 0.866025 0.129410 -0.482963
vn -0.866025 0.482963 0.129410
vn -0.866025 0.482963 -0.129410
vn -0.500000 0.836516 -0.224144
vn -0.500000 0.612372 -0.612372
vn 0.000000 0.707107 -0.707107
vn -0.500000 0.224144 -0.836516
vn 0.000000 0.258819 -0.965926
vn -0.866025 0.129410 -0.482963
vn -0.866025 0.353553 -0.353553
vn -0.500000 -0.836516 -0.224144
vn 0.000000 -0.965926 -0.258819
vn -0.500000 -0.836516 0.224144
vn -0.500000 -0.612372 0.612372
vn 0.000000 -0.707107 0.707107
vn -0.500000 -0.224144 0.836516
vn 0.000000 -0.258819 0.965926
vn -0.866025 -0.129410 0.482963
vn -0.866025 -0.353553 0.353553
vn -0.866025 -0.482963 0.129410
vn -0.866025 -0.482963 -0.129410
vn 0.866025 -0.482963 -0.129410
vn 0.866025 -0.482963 -0.129410
vn 0.866025 -0.482963 -0.129410
vn 0.866025 -0.482963 -0.129410
vn 0.500000 -0.836516 -0.224144
vn 0.500000 -0.836516 -0.224144
vn 0.500000 -0.836516 -0.224144
vn -0.500000 -0.836516 -0.224144
vn -0.500000 -0.836516 -0.224144
vn -0.000000 -0.965926 -0.258819
vn -0.500000 -0.836516 -0.224144
vn 0.000000 -0.965926 -0.258819
vn -0.500000 -0.836516 -0.224144
vn -0.866025 -0.482963 -0.129410
vn -0.866025 -0.482963 -0.129410
vn -0.866025 -0.482963 -0.129410
vn -0.866025 -0.482963 -0.129410
vn 0.000000 0.258819 -0.965926
vn 0.500000 0.224144 -0.836516
vn 0.000000 -0.258819 -0.965926
vn 0.500000 -0.224144 -0.836516
vn 0.000000 -0.707107 -0.707107
vn 0.500000 -0.612372 -0.612372
vn 0.000000 -0.965926 -0.258819
vn 0.500000 -0.836516 -0.224144
vn 0.866025 -0.353553 -0.353553
vn 0.866025 -0.482963 -0.129410
vn 0.866025 0.129410 -0.482963
vn 0.866025 -0.129410 -0.482963
vn 0.000000 -0.707107 -0.707107
vn -0.500000 -0.612372 -0.612372
vn 0.000000 -0.258819 -0.965926
vn -0.500000 -0.224144 -0.836516
vn 0.000000 0.258819 -0.965926
vn -0.500000 0.224144 -0.836516
vn -0.866025 -0.129410 -0.482963
vn -0.866025 -0.353553 -0.353553
vn 0.000000 -0.258819 -0.965926
vn 0.000000 -0.258819 -0.965926
vn 0.000000 -0.707107 -0.707107
vn 0.000000 -0.707107 -0.707107
vn 0.000000 -0.707107 -0.707107
vn 0.000000 -0.258819 -0.965926
usemtl Opaque(202,209,238)
f 1/1/1 2/2/2 4/3/3
f 4/3/3 2/2/2 3/4/4
f 5/5/5 6/6/6 8/7/7
f 8/7/7 6/6/6 7/8/8
f 7/9/8 6/10/6 16/11/9
f 16/11/9 6/10/6 21/12/10
f 16/11/9 21/12/10 15/13/11
f 15/13/11 21/12/10 26/14/12
f 15/13/11 26/14/12 13/15/13
f 13/15/13 26/14/12 25/16/14
f 13/15/13 25/16/14 24/17/15
f 24/17/15 25/16/14 19/18/16
f 24/17/15 19/18/16 18/19/17
f 18/19/17 19/18/16 1/20/1
f 18/19/17 1/20/1 17/21/18
f 17/21/18 1/20/1 9/22/19
f 17/21/18 9/22/19 22/23/20
f 22/23/20 9/22/19 10/24/21
f 22/23/20 10/24/21 12/25/22
f 12/25/22 10/24/21 11/26/23
f 1/20/1 19/18/16 6/10/6
f 6/10/6 19/18/16 20/27/24
f 6/10/6 20/27/24 21/12/10
f 21/12/10 20/27/24 26/14/12
f 1/20/1 4/28/3 9/22/19
f 13/15/13 24/17/15 12/25/22
f 12/25/22 24/17/15 23/29/25
f 12/25/22 23/29/25 22/23/20
f 22/23/20 23/29/25 17/21/18
f 13/15/13 14/30/26 15/13/11
f 24/17/15 18/19/17 23/29/25
f 23/29/25 18/19/17 17/21/18
f 26/14/12 20/27/24 25/16/14
f 25/16/14 20/27/24 19/18/16
f 12/31/22 11/32/23 27/33/27
f 27/33/27 11/32/23 28/34/28
f 29/35/29 30/36/30 13/37/31
f 13/37/31 30/36/30 14/38/32
f 30/39/33 29/40/34 38/41/35
f 38/41/35 29/40/34 43/42/36
f 38/41/35 43/42/36 37/43/37
f 37/43/37 43/42/36 48/44/38
f 37/43/37 48/44/38 35/45/39
f 35/45/39 48/44/38 47/46/40
f 35/45/39 47/46/40 46/47/41
f 46/47/41 47/46/40 41/48/42
f 46/47/41 41/48/42 40/49/43
f 40/49/43 41/48/42 27/50/44
f 40/49/43 27/50/44 39/51/45
f 39/51/45 27/50/44 31/52/46
f 39/51/45 31/52/46 44/53/47
f 44/53/47 31/52/46 32/54/48
f 44/53/47 32/54/48 34/55/49
f 34/55/49 32/54/48 33/56/50
f 27/50/44 41/48/42 29/40/34
f 29/40/34 41/48/42 42/57/51
f 29/40/34 42/57/51 43/42/36
f 43/42/36 42/57/51 48/44/38
f 27/50/44 28/58/52 31/52/46
f 35/45/39 46/47/41 34/55/49
f 34/55/49 46/47/41 45/59/53
f 34/55/49 45/59/53 44/53/47
f 44/53/47 45/59/53 39/51/45
f 35/45/39 36/60/54 37/43/37
f 46/47/41 40/49/43 45/59/53
f 45/59/53 40/49/43 39/51/45
f 48/44/38 42/57/51 47/46/40
f 47/46/40 42/57/51 41/48/42
f 50/61/55 34/62/49 49/63/56
f 49/63/56 34/62/49 33/64/50
f 35/65/39 51/66/57 36/67/54
f 36/67/54 51/66/57 52/68/58
f 53/69/59 54/70/60 60/71/61
f 60/71/61 54/70/60 65/72/62
f 60/71/61 65/72/62 59/73/63
f 59/73/63 65/72/62 70/74/64
f 59/73/63 70/74/64 5/75/5
f 5/75/5 70/74/64 69/76/65
f 5/75/5 69/76/65 68/77/66
f 68/77/66 69/76/65 63/78/67
f 68/77/66 63/78/67 62/79/68
f 62/79/68 63/78/67 55/80/69
f 62/79/68 55/80/69 61/81/70
f 61/81/70 55/80/69 57/82/71
f 61/81/70 57/82/71 66/83/72
f 66/83/72 57/82/71 58/84/73
f 66/83/72 58/84/73 2/85/2
f 2/85/2 58/84/73 3/86/4
f 55/80/69 63/78/67 54/70/60
f 54/70/60 63/78/67 64/87/74
f 54/70/60 64/87/74 65/72/62
f 65/72/62 64/87/74 70/74/64
f 55/80/69 56/88/75 57/82/71
f 5/75/5 68/77/66 2/85/2
f 2/85/2 68/77/66 67/89/76
f 2/85/2 67/89/76 66/83/72
f 66/83/72 67/89/76 61/81/70
f 5/75/5 8/90/7 59/73/63
f 68/77/66 62/79/68 67/89/76
f 67/89/76 62/79/68 61/81/70
f 70/74/64 64/87/74 69/76/65
f 69/76/65 64/87/74 63/78/67
f 52/91/58 51/92/57 78/93/77
f 78/93/77 51/92/57 83/94/78
f 78/93/77 83/94/78 77/95/79
f 77/95/79 83/94/78 88/96/80
f 77/95/79 88/96/80 75/97/81
f 75/97/81 88/96/80 87/98/82
f 75/97/81 87/98/82 86/99/83
f 86/99/83 87/98/82 81/100/84
f 86/99/83 81/100/84 80/101/85
f 80/101/85 81/100/84 50/102/55
f 80/101/85 50/102/55 79/103/86
f 79/103/86 50/102/55 71/104/87
f 79/103/86 71/104/87 84/105/88
f 84/105/88 71/104/87 72/106/89
f 84/105/88 72/106/89 74/107/90
f 74/107/90 72/106/89 73/108/91
f 50/102/55 81/100/84 51/92/57
f 51/92/57 81/100/84 82/109/92
f 51/92/57 82/109/92 83/94/78
f 83/94/78 82/109/92 88/96/80
f 50/102/55 49/110/56 71/104/87
f 75/97/81 86/99/83 74/107/90
f 74/107/90 86/99/83 85/111/93
f 74/107/90 85/111/93 84/105/88
f 84/105/88 85/111/93 79/103/86
f 75/97/81 76/112/94 77/95/79
f 86/99/83 80/101/85 85/111/93
f 85/111/93 80/101/85 79/103/86
f 88/96/80 82/109/92 87/98/82
f 87/98/82 82/109/92 81/100/84
f 74/113/95 73/114/96 55/115/69
f 55/115/69 73/114/96 56/116/75
f 54/117/60 53/118/59 75/119/81
f 75/119/81 53/118/59 76/120/94
f 90/121/97 91/122/98 89/123/99
f 89/123/99 91/122/98 92/124/100
f 75/125/81 74/126/95 54/127/60
f 54/127/60 74/126/95 55/128/69
f 94/129/101 95/130/102 93/131/103
f 93/131/103 95/130/102 96/132/104
f 13/133/31 12/134/22 29/135/29
f 29/135/29 12/134/22 27/136/27
f 2/137/2 1/138/1 5/139/5
f 5/139/5 1/138/1 6/140/6
f 34/141/49 50/142/55 35/143/39
f 35/143/39 50/142/55 51/144/57
f 28/145/28 11/146/23 101/147/105
f 101/147/105 11/146/23 97/148/106
f 101/147/105 97/148/106 102/149/107
f 102/149/107 97/148/106 98/150/108
f 102/149/107 98/150/108 94/151/101
f 94/151/101 93/152/103 102/149/107
f 102/149/107 93/152/103 99/153/109
f 102/149/107 99/153/109 101/147/105
f 101/147/105 99/153/109 100/154/110
f 101/147/105 100/154/110 28/145/28
f 4/155/3 103/156/111 106/157/112
f 106/157/112 103/156/111 104/158/113
f 106/157/112 104/158/113 105/159/114
f 105/159/114 104/158/113 94/160/115
f 105/159/114 94/160/115 98/161/116
f 105/159/114 98/161/116 107/162/117
f 107/162/117 98/161/116 97/163/118
f 107/162/117 97/163/118 10/164/119
f 10/164/119 97/163/118 11/165/120
f 10/164/119 9/166/19 107/162/117
f 107/162/117 9/166/19 108/167/121
f 107/162/117 108/167/121 105/159/114
f 105/159/114 108/167/121 106/157/112
f 9/166/19 4/168/3 108/167/121
f 108/167/121 4/169/3 106/157/112
f 33/170/50 32/171/122 112/172/123
f 112/172/123 32/171/122 31/173/124
f 112/172/123 31/173/124 111/174/125
f 111/174/125 31/173/124 28/175/126
f 111/174/125 28/175/126 100/176/127
f 111/174/125 100/176/127 113/177/128
f 113/177/128 100/176/127 99/178/129
f 113/177/128 99/178/129 109/179/130
f 109/179/130 99/178/129 93/180/131
f 109/179/130 110/181/132 113/177/128
f 113/177/128 110/181/132 114/182/133
f 113/177/128 114/182/133 111/174/125
f 111/174/125 114/182/133 112/172/123
f 110/181/132 33/183/50 114/182/133
f 114/182/133 33/184/50 112/172/123
f 104/185/134 117/186/135 94/187/101
f 94/187/101 117/186/135 118/188/136
f 94/187/101 118/188/136 95/189/137
f 95/189/137 118/188/136 116/190/138
f 116/190/138 118/188/136 115/191/139
f 115/191/139 118/188/136 120/192/140
f 115/191/139 120/192/140 3/193/4
f 3/193/4 120/192/140 119/194/141
f 3/193/4 119/194/141 4/195/3
f 4/195/3 119/194/141 103/196/111
f 103/196/111 119/194/141 104/185/134
f 104/185/134 119/194/141 117/186/135
f 120/192/140 118/188/136 117/186/135
f 120/192/140 117/186/135 119/194/141
f 56/197/75 73/198/96 125/199/142
f 125/199/142 73/198/96 121/200/143
f 125/199/142 121/200/143 126/201/144
f 126/201/144 121/200/143 122/202/145
f 126/201/144 122/202/145 96/203/104
f 96/203/104 95/204/102 126/201/144
f 126/201/144 95/204/102 123/205/146
f 126/201/144 123/205/146 125/199/142
f 125/199/142 123/205/146 124/206/147
f 125/199/142 124/206/147 56/197/75
f 110/207/132 129/208/148 33/209/50
f 33/209/50 129/208/148 130/210/149
f 33/209/50 130/210/149 49/211/56
f 49/211/56 130/210/149 128/212/150
f 128/212/150 130/210/149 127/213/151
f 127/213/151 130/210/149 132/214/152
f 127/213/151 132/214/152 96/215/153
f 96/215/153 132/214/152 131/216/154
f 96/215/153 131/216/154 93/217/155
f 93/217/155 131/216/154 109/218/156
f 109/218/156 131/216/154 110/207/132
f 110/207/132 131/216/154 129/208/148
f 132/214/152 130/210/149 129/208/148
f 132/214/152 129/208/148 131/216/154
f 92/219/100 91/220/98 137/221/157
f 137/221/157 91/220/98 133/222/158
f 137/221/157 133/222/158 138/223/159
f 138/223/159 133/222/158 134/224/160
f 138/223/159 134/224/160 14/225/32
f 14/225/32 30/226/30 138/223/159
f 138/223/159 30/226/30 135/227/161
f 138/223/159 135/227/161 137/221/157
f 137/221/157 135/227/161 136/228/162
f 137/221/157 136/228/162 92/219/100
f 7/229/8 16/230/163 142/231/164
f 142/231/164 16/230/163 15/232/165
f 142/231/164 15/232/165 141/233/166
f 141/233/166 15/232/165 14/234/167
f 141/233/166 14/234/167 134/235/168
f 141/233/166 134/235/168 143/236/169
f 143/236/169 134/235/168 133/237/158
f 143/236/169 133/237/158 139/238/170
f 139/238/170 133/237/158 91/239/171
f 139/238/170 140/240/172 143/236/169
f 143/236/169 140/240/172 144/241/173
f 143/236/169 144/241/173 141/233/166
f 141/233/166 144/241/173 142/231/164
f 140/240/172 7/242/8 144/241/173
f 144/241/173 7/243/8 142/231/164
f 57/244/174 56/245/175 145/246/176
f 145/246/176 56/245/175 124/247/177
f 145/246/176 124/247/177 147/248/178
f 147/248/178 124/247/177 123/249/146
f 147/248/178 123/249/146 116/250/138
f 116/250/138 123/249/146 95/251/179
f 116/250/138 115/252/180 147/248/178
f 147/248/178 115/252/180 148/253/181
f 147/248/178 148/253/181 145/246/176
f 145/246/176 148/253/181 146/254/182
f 145/246/176 146/254/182 57/244/174
f 57/244/174 146/254/182 58/255/183
f 58/255/183 146/254/182 3/256/4
f 115/252/180 3/257/4 148/253/181
f 148/253/181 3/258/4 146/254/182
f 49/259/56 128/260/184 150/261/185
f 150/261/185 128/260/184 127/262/151
f 150/261/185 127/262/151 149/263/186
f 149/263/186 127/262/151 96/264/153
f 149/263/186 96/264/153 122/265/145
f 149/263/186 122/265/145 151/266/187
f 151/266/187 122/265/145 121/267/188
f 151/266/187 121/267/188 72/268/189
f 72/268/189 121/267/188 73/269/190
f 72/268/189 71/270/191 151/266/187
f 151/266/187 71/270/191 152/271/192
f 151/266/187 152/271/192 149/263/186
f 149/263/186 152/271/192 150/261/185
f 71/270/191 49/272/56 152/271/192
f 152/271/192 49/273/56 150/261/185
f 154/274/193 92/275/194 155/276/195
f 155/276/195 92/275/194 136/277/162
f 155/276/195 136/277/162 157/278/196
f 157/278/196 136/277/162 135/279/197
f 157/278/196 135/279/197 38/280/198
f 38/280/198 135/279/197 30/281/199
f 38/280/198 37/282/200 157/278/196
f 157/278/196 37/282/200 158/283/201
f 157/278/196 158/283/201 155/276/195
f 155/276/195 158/283/201 156/284/202
f 155/276/195 156/284/202 154/274/193
f 154/274/193 156/284/202 153/285/203
f 153/285/203 156/284/202 36/286/54
f 37/282/200 36/287/54 158/283/201
f 158/283/201 36/288/54 156/284/202
f 140/289/204 161/290/205 7/291/8
f 7/291/8 161/290/205 162/292/206
f 7/291/8 162/292/206 8/293/7
f 8/293/7 162/292/206 160/294/207
f 160/294/207 162/292/206 159/295/208
f 159/295/208 162/292/206 164/296/209
f 159/295/208 164/296/209 90/297/97
f 90/297/97 164/296/209 163/298/210
f 90/297/97 163/298/210 91/299/98
f 91/299/98 163/298/210 139/300/170
f 139/300/170 163/298/210 140/289/204
f 140/289/204 163/298/210 161/290/205
f 164/296/209 162/292/206 161/290/205
f 164/296/209 161/290/205 163/298/210
f 154/301/211 167/302/212 92/303/213
f 92/303/213 167/302/212 168/304/214
f 92/303/213 168/304/214 89/305/215
f 89/305/215 168/304/214 166/306/216
f 166/306/216 168/304/214 165/307/217
f 165/307/217 168/304/214 170/308/218
f 165/307/217 170/308/218 52/309/58
f 52/309/58 170/308/218 169/310/219
f 52/309/58 169/310/219 36/311/54
f 36/311/54 169/310/219 153/312/220
f 153/312/220 169/310/219 154/301/211
f 154/301/211 169/310/219 167/302/212
f 170/308/218 168/304/214 167/302/212
f 170/308/218 167/302/212 169/310/219
f 53/313/221 60/314/222 172/315/223
f 172/315/223 60/314/222 174/316/224
f 172/315/223 174/316/224 171/317/225
f 171/317/225 174/316/224 175/318/226
f 171/317/225 175/318/226 90/319/227
f 90/319/227 175/318/226 159/320/228
f 159/320/228 175/318/226 176/321/229
f 159/320/228 176/321/229 160/322/230
f 160/322/230 176/321/229 8/323/7
f 60/314/222 59/324/231 174/316/224
f 174/316/224 59/324/231 173/325/232
f 174/316/224 173/325/232 175/318/226
f 175/318/226 173/325/232 176/321/229
f 59/324/231 8/326/7 173/325/232
f 173/325/232 8/327/7 176/321/229
f 89/328/215 166/329/216 178/330/233
f 178/330/233 166/329/216 180/331/234
f 178/330/233 180/331/234 177/332/235
f 177/332/235 180/331/234 181/333/236
f 177/332/235 181/333/236 76/334/237
f 76/334/237 181/333/236 77/335/238
f 77/335/238 181/333/236 182/336/239
f 77/335/238 182/336/239 78/337/77
f 78/337/77 182/336/239 52/338/58
f 166/329/216 165/339/217 180/331/234
f 180/331/234 165/339/217 179/340/240
f 180/331/234 179/340/240 181/333/236
f 181/333/236 179/340/240 182/336/239
f 165/339/217 52/341/58 179/340/240
f 179/340/240 52/342/58 182/336/239
f 76/343/94 53/344/59 183/345/241
f 183/345/241 53/344/59 172/346/242
f 183/345/241 172/346/242 184/347/243
f 184/347/243 172/346/242 171/348/244
f 184/347/243 171/348/244 90/349/97
f 90/349/97 89/350/99 184/347/243
f 184/347/243 89/350/99 178/351/245
f 184/347/243 178/351/245 183/345/241
f 183/345/241 178/351/245 177/352/246
f 183/345/241 177/352/246 76/343/94
# 184 vertices
# 352 texture params
# 246 normals
# 364 facets

# 1 groups
