# WaveFront *.obj file (generated by Autodesk ATF)

mtllib body19_visual.mtl

g Body19

v -29.388821 0.136574 -1.567497
v -28.931812 0.136574 -1.567497
v -28.931812 0.643859 -3.460712
v -29.388821 0.643859 -3.460712
v -29.611812 0.593390 -3.272356
v -29.611812 0.187044 -1.755853
v -29.334312 0.438745 -2.695216
v -29.298827 0.437868 -2.691943
v -29.264625 0.435269 -2.682242
v -29.232942 0.431041 -2.666465
v -29.204922 0.425338 -2.645181
v -29.181579 0.418366 -2.619159
v -29.163756 0.410376 -2.589341
v -29.152097 0.401658 -2.556803
v -29.147024 0.392526 -2.522722
v -29.148721 0.383310 -2.488330
v -29.157124 0.374344 -2.454869
v -29.171932 0.365952 -2.423549
v -29.192609 0.358437 -2.395502
v -29.218407 0.352071 -2.371742
v -29.248395 0.347083 -2.353127
v -29.281487 0.343654 -2.340330
v -29.316489 0.341908 -2.333814
v -29.352135 0.341908 -2.333814
v -29.387137 0.343654 -2.340330
v -29.420230 0.347083 -2.353127
v -29.450217 0.352071 -2.371742
v -29.476015 0.358437 -2.395502
v -29.496692 0.365952 -2.423549
v -29.511500 0.374344 -2.454869
v -29.519904 0.383310 -2.488330
v -29.521600 0.392526 -2.522722
v -29.516527 0.401658 -2.556803
v -29.504868 0.410376 -2.589341
v -29.487045 0.418366 -2.619159
v -29.463702 0.425338 -2.645181
v -29.435682 0.431041 -2.666465
v -29.403999 0.435269 -2.682242
v -29.369797 0.437868 -2.691943
v -29.334312 0.284197 -2.736627
v -29.298827 0.283320 -2.733354
v -29.264625 0.280721 -2.723653
v -29.232942 0.276493 -2.707876
v -29.204922 0.270790 -2.686592
v -29.181579 0.263818 -2.660570
v -29.163756 0.255828 -2.630752
v -29.152097 0.247110 -2.598214
v -29.147024 0.237978 -2.564133
v -29.148721 0.228762 -2.529741
v -29.157124 0.219796 -2.496280
v -29.171932 0.211404 -2.464960
v -29.192609 0.203889 -2.436913
v -29.218407 0.197522 -2.413153
v -29.248395 0.192535 -2.394538
v -29.281487 0.189106 -2.381741
v -29.316489 0.187360 -2.375225
v -29.352135 0.187360 -2.375225
v -29.387137 0.189106 -2.381741
v -29.420230 0.192535 -2.394538
v -29.450217 0.197522 -2.413153
v -29.476015 0.203889 -2.436913
v -29.496692 0.211404 -2.464960
v -29.511500 0.219796 -2.496280
v -29.519904 0.228762 -2.529741
v -29.521600 0.237978 -2.564133
v -29.516527 0.247110 -2.598214
v -29.504868 0.255828 -2.630752
v -29.487045 0.263818 -2.660570
v -29.463702 0.270790 -2.686592
v -29.435682 0.276493 -2.707876
v -29.403999 0.280721 -2.723653
v -29.369797 0.283320 -2.733354
v -29.388821 0.489311 -3.502123
v -29.611812 0.438841 -3.313767
v -29.611812 0.032496 -1.797264
v -29.388821 -0.017974 -1.608908
v -28.931812 -0.017974 -1.608908
v -28.931812 0.489311 -3.502123
vt 0.030000 1.070000 0.000000
vt 0.862615 1.356595 0.000000
vt 0.030000 1.527009 0.000000
vt 0.843343 1.386583 0.000000
vt 0.830095 1.419675 0.000000
vt 1.990000 1.070000 0.000000
vt 1.018922 1.285212 0.000000
vt 0.983316 1.286908 0.000000
vt 0.948675 1.295312 0.000000
vt 1.990000 1.527009 0.000000
vt 1.167735 1.371130 0.000000
vt 1.145700 1.343110 0.000000
vt 1.118761 1.319767 0.000000
vt 1.795000 1.750000 0.000000
vt 1.167735 1.573870 0.000000
vt 1.184069 1.542187 0.000000
vt 1.194112 1.507985 0.000000
vt 0.225000 1.750000 0.000000
vt 1.018922 1.659788 0.000000
vt 1.054205 1.654715 0.000000
vt 1.087890 1.643056 0.000000
vt 0.862615 1.588405 0.000000
vt 0.887214 1.614203 0.000000
vt 0.916250 1.634880 0.000000
vt 1.197500 1.472500 0.000000
vt 1.194112 1.437015 0.000000
vt 1.184069 1.402813 0.000000
vt 1.087890 1.301944 0.000000
vt 1.054205 1.290285 0.000000
vt 0.916250 1.310120 0.000000
vt 0.887214 1.330797 0.000000
vt 0.823349 1.454677 0.000000
vt 0.823349 1.490323 0.000000
vt 0.830095 1.525325 0.000000
vt 0.843343 1.558417 0.000000
vt 0.948675 1.649688 0.000000
vt 0.983316 1.658092 0.000000
vt 1.118761 1.625233 0.000000
vt 1.145700 1.601890 0.000000
vt 0.160000 0.035700 0.000000
vt 0.000000 0.000000 0.000000
vt 0.160000 0.000000 0.000000
vt -0.000000 -0.035700 0.000000
vt 0.160000 -0.035700 0.000000
vt -0.000000 -0.071400 0.000000
vt 0.160000 -0.071400 0.000000
vt -0.000000 -0.107100 0.000000
vt 0.160000 -0.107100 0.000000
vt 0.000000 -0.142800 0.000000
vt 0.160000 -0.142800 0.000000
vt 0.000000 -0.178500 0.000000
vt 0.160000 -0.178500 0.000000
vt 0.000000 -0.214199 0.000000
vt 0.160000 -0.214199 0.000000
vt 0.000000 -0.249899 0.000000
vt 0.160000 -0.249899 0.000000
vt -0.000000 -0.285599 0.000000
vt 0.160000 -0.285599 0.000000
vt 0.000000 -0.321299 0.000000
vt 0.160000 -0.321299 0.000000
vt 0.000000 -0.356999 0.000000
vt 0.160000 -0.356999 0.000000
vt -0.000000 -0.392699 0.000000
vt 0.160000 -0.392699 0.000000
vt 0.000000 -0.428399 0.000000
vt 0.160000 -0.428399 0.000000
vt 0.000000 -0.464099 0.000000
vt 0.160000 -0.464099 0.000000
vt -0.000000 -0.499799 0.000000
vt 0.160000 -0.499799 0.000000
vt -0.000000 -0.535499 0.000000
vt 0.160000 -0.535499 0.000000
vt -0.000000 -0.571199 0.000000
vt 0.160000 -0.571199 0.000000
vt 0.160000 0.606899 0.000000
vt -0.000000 0.606899 0.000000
vt -0.000000 0.571199 0.000000
vt 0.160000 0.571199 0.000000
vt 0.000000 0.535499 0.000000
vt 0.160000 0.535499 0.000000
vt 0.000000 0.499799 0.000000
vt 0.160000 0.499799 0.000000
vt -0.000000 0.464099 0.000000
vt 0.160000 0.464099 0.000000
vt -0.000000 0.428399 0.000000
vt 0.160000 0.428399 0.000000
vt 0.000000 0.392699 0.000000
vt 0.160000 0.392699 0.000000
vt -0.000000 0.356999 0.000000
vt 0.160000 0.356999 0.000000
vt 0.000000 0.321299 0.000000
vt 0.160000 0.321299 0.000000
vt -0.000000 0.285599 0.000000
vt 0.160000 0.285599 0.000000
vt -0.000000 0.249899 0.000000
vt 0.160000 0.249899 0.000000
vt -0.000000 0.214199 0.000000
vt 0.160000 0.214199 0.000000
vt -0.000000 0.178500 0.000000
vt 0.160000 0.178500 0.000000
vt -0.000000 0.142800 0.000000
vt 0.160000 0.142800 0.000000
vt 0.000000 0.107100 0.000000
vt 0.160000 0.107100 0.000000
vt 0.000000 0.071400 0.000000
vt 0.160000 0.071400 0.000000
vt 0.000000 0.035700 0.000000
vt 0.160488 0.000000 0.000000
vt -0.135738 0.000000 0.000000
vt 0.160488 -0.160000 0.000000
vt -0.135738 -0.160000 0.000000
vt 0.160000 1.795000 0.000000
vt -0.000000 1.795000 0.000000
vt 0.160000 0.225000 0.000000
vt -0.000000 0.225000 0.000000
vt 0.160000 1.465465 0.000000
vt 0.000000 1.465465 0.000000
vt 0.160000 1.169239 0.000000
vt -0.000000 1.169239 0.000000
vt 1.527009 -0.000000 0.000000
vt 1.070000 -0.000000 0.000000
vt 1.527009 -0.160000 0.000000
vt 1.070000 -0.160000 0.000000
vt 0.000000 1.990000 0.000000
vt -0.160000 1.990000 0.000000
vt -0.000000 0.030000 0.000000
vt -0.160000 0.030000 0.000000
vt -0.160000 1.070000 0.000000
vt 0.000000 1.070000 0.000000
vt -0.160000 1.527009 0.000000
vt -0.000000 1.527009 0.000000
vt -0.030000 1.070000 0.000000
vt -1.018922 1.285212 0.000000
vt -1.990000 1.070000 0.000000
vt -1.054205 1.290285 0.000000
vt -1.087890 1.301944 0.000000
vt -0.030000 1.527009 0.000000
vt -0.862615 1.356595 0.000000
vt -0.887214 1.330797 0.000000
vt -0.916250 1.310120 0.000000
vt -0.225000 1.750000 0.000000
vt -0.862615 1.588405 0.000000
vt -0.843343 1.558417 0.000000
vt -0.830095 1.525325 0.000000
vt -1.795000 1.750000 0.000000
vt -1.018922 1.659788 0.000000
vt -0.983316 1.658092 0.000000
vt -0.948675 1.649688 0.000000
vt -1.990000 1.527009 0.000000
vt -1.167735 1.573870 0.000000
vt -1.145700 1.601890 0.000000
vt -1.118761 1.625233 0.000000
vt -1.167735 1.371130 0.000000
vt -1.184069 1.402813 0.000000
vt -1.194112 1.437015 0.000000
vt -1.197500 1.472500 0.000000
vt -1.194112 1.507985 0.000000
vt -1.184069 1.542187 0.000000
vt -1.087890 1.643056 0.000000
vt -1.054205 1.654715 0.000000
vt -0.916250 1.634880 0.000000
vt -0.887214 1.614203 0.000000
vt -0.823349 1.490323 0.000000
vt -0.823349 1.454677 0.000000
vt -0.830095 1.419675 0.000000
vt -0.843343 1.386583 0.000000
vt -0.948675 1.295312 0.000000
vt -0.983316 1.286908 0.000000
vt -1.118761 1.319767 0.000000
vt -1.145700 1.343110 0.000000
vn 0.000000 0.965926 0.258819
vn 0.000000 0.965926 0.258819
vn 0.000000 0.965926 0.258819
vn 0.000000 0.965926 0.258819
vn 0.000000 0.965926 0.258819
vn 0.000000 0.965926 0.258819
vn 0.000000 0.965926 0.258819
vn 0.000000 0.965926 0.258819
vn 0.000000 0.965926 0.258819
vn 0.000000 0.965926 0.258819
vn 0.000000 0.965926 0.258819
vn 0.000000 0.965926 0.258819
vn 0.000000 0.965926 0.258819
vn 0.000000 0.965926 0.258819
vn 0.000000 0.965926 0.258819
vn 0.000000 0.965926 0.258819
vn 0.000000 0.965926 0.258819
vn 0.000000 0.965926 0.258819
vn 0.000000 0.965926 0.258819
vn 0.000000 0.965926 0.258819
vn 0.000000 0.965926 0.258819
vn 0.000000 0.965926 0.258819
vn 0.000000 0.965926 0.258819
vn 0.000000 0.965926 0.258819
vn 0.000000 0.965926 0.258819
vn 0.000000 0.965926 0.258819
vn 0.000000 0.965926 0.258819
vn 0.000000 0.965926 0.258819
vn 0.000000 0.965926 0.258819
vn 0.000000 0.965926 0.258819
vn 0.000000 0.965926 0.258819
vn 0.000000 0.965926 0.258819
vn 0.000000 0.965926 0.258819
vn 0.000000 0.965926 0.258819
vn 0.000000 0.965926 0.258819
vn 0.000000 0.965926 0.258819
vn 0.000000 0.965926 0.258819
vn 0.000000 0.965926 0.258819
vn 0.000000 0.965926 0.258819
vn 0.189251 -0.254142 0.948470
vn 0.000000 -0.258819 0.965926
vn 0.000000 -0.258819 0.965926
vn -0.189251 -0.254142 0.948470
vn -0.189251 -0.254142 0.948470
vn -0.371662 -0.240279 0.896735
vn -0.371662 -0.240279 0.896735
vn -0.540641 -0.217732 0.812589
vn -0.540641 -0.217732 0.812589
vn -0.690079 -0.187316 0.699073
vn -0.690079 -0.187316 0.699073
vn -0.814576 -0.150130 0.560292
vn -0.814576 -0.150130 0.560292
vn -0.909632 -0.107517 0.401260
vn -0.909632 -0.107517 0.401260
vn -0.971812 -0.061019 0.227726
vn -0.971812 -0.061019 0.227726
vn -0.998867 -0.012315 0.045961
vn -0.998867 -0.012315 0.045961
vn -0.989821 0.036834 -0.137466
vn -0.989821 0.036834 -0.137466
vn -0.945001 0.084651 -0.315923
vn -0.945001 0.084651 -0.315923
vn -0.866025 0.129410 -0.482963
vn -0.866025 0.129410 -0.482963
vn -0.755750 0.169490 -0.632547
vn -0.755750 0.169490 -0.632547
vn -0.618159 0.203446 -0.759269
vn -0.618159 0.203446 -0.759269
vn -0.458227 0.230048 -0.858549
vn -0.458227 0.230048 -0.858549
vn -0.281733 0.248335 -0.926799
vn -0.281733 0.248335 -0.926799
vn -0.095056 0.257647 -0.961552
vn -0.095056 0.257647 -0.961552
vn 0.095056 0.257647 -0.961552
vn 0.095056 0.257647 -0.961552
vn 0.281733 0.248335 -0.926799
vn 0.281733 0.248335 -0.926799
vn 0.458227 0.230048 -0.858549
vn 0.458227 0.230048 -0.858549
vn 0.618159 0.203446 -0.759269
vn 0.618159 0.203446 -0.759269
vn 0.755750 0.169490 -0.632547
vn 0.755750 0.169490 -0.632547
vn 0.866025 0.129410 -0.482963
vn 0.866025 0.129410 -0.482963
vn 0.945001 0.084651 -0.315923
vn 0.945001 0.084651 -0.315923
vn 0.989821 0.036834 -0.137466
vn 0.989821 0.036834 -0.137466
vn 0.998867 -0.012315 0.045961
vn 0.998867 -0.012315 0.045961
vn 0.971812 -0.061019 0.227726
vn 0.971812 -0.061019 0.227726
vn 0.909632 -0.107517 0.401260
vn 0.909632 -0.107517 0.401260
vn 0.814576 -0.150130 0.560292
vn 0.814576 -0.150130 0.560292
vn 0.690079 -0.187316 0.699073
vn 0.690079 -0.187316 0.699073
vn 0.540641 -0.217732 0.812589
vn 0.540641 -0.217732 0.812589
vn 0.371662 -0.240279 0.896735
vn 0.371662 -0.240279 0.896735
vn 0.189251 -0.254142 0.948470
vn -0.658281 0.194832 -0.727123
vn -0.658281 0.194832 -0.727123
vn -0.658281 0.194832 -0.727123
vn -0.658281 0.194832 -0.727123
vn -1.000000 0.000000 -0.000000
vn -1.000000 0.000000 -0.000000
vn -1.000000 0.000000 -0.000000
vn -1.000000 0.000000 -0.000000
vn -0.658281 -0.194832 0.727123
vn -0.658281 -0.194832 0.727123
vn -0.658281 -0.194832 0.727123
vn -0.658281 -0.194832 0.727123
vn -0.000000 -0.258819 0.965926
vn -0.000000 -0.258819 0.965926
vn -0.000000 -0.258819 0.965926
vn -0.000000 -0.258819 0.965926
vn 1.000000 -0.000000 0.000000
vn 1.000000 -0.000000 0.000000
vn 1.000000 -0.000000 0.000000
vn 1.000000 -0.000000 0.000000
vn 0.000000 0.258819 -0.965926
vn 0.000000 0.258819 -0.965926
vn 0.000000 0.258819 -0.965926
vn 0.000000 0.258819 -0.965926
vn -0.000000 -0.965926 -0.258819
vn -0.000000 -0.965926 -0.258819
vn -0.000000 -0.965926 -0.258819
vn -0.000000 -0.965926 -0.258819
vn -0.000000 -0.965926 -0.258819
vn -0.000000 -0.965926 -0.258819
vn -0.000000 -0.965926 -0.258819
vn -0.000000 -0.965926 -0.258819
vn -0.000000 -0.965926 -0.258819
vn -0.000000 -0.965926 -0.258819
vn -0.000000 -0.965926 -0.258819
vn -0.000000 -0.965926 -0.258819
vn -0.000000 -0.965926 -0.258819
vn -0.000000 -0.965926 -0.258819
vn -0.000000 -0.965926 -0.258819
vn -0.000000 -0.965926 -0.258819
vn -0.000000 -0.965926 -0.258819
vn -0.000000 -0.965926 -0.258819
vn -0.000000 -0.965926 -0.258819
vn -0.000000 -0.965926 -0.258819
vn -0.000000 -0.965926 -0.258819
vn -0.000000 -0.965926 -0.258819
vn -0.000000 -0.965926 -0.258819
vn -0.000000 -0.965926 -0.258819
vn -0.000000 -0.965926 -0.258819
vn -0.000000 -0.965926 -0.258819
vn -0.000000 -0.965926 -0.258819
vn -0.000000 -0.965926 -0.258819
vn -0.000000 -0.965926 -0.258819
vn -0.000000 -0.965926 -0.258819
vn -0.000000 -0.965926 -0.258819
vn -0.000000 -0.965926 -0.258819
vn -0.000000 -0.965926 -0.258819
vn -0.000000 -0.965926 -0.258819
vn -0.000000 -0.965926 -0.258819
vn -0.000000 -0.965926 -0.258819
vn -0.000000 -0.965926 -0.258819
vn -0.000000 -0.965926 -0.258819
vn -0.000000 -0.965926 -0.258819
usemtl Polycarbonate_(Clear)
f 2/1/1 20/2/2 1/3/3
f 1/3/3 20/2/2 21/4/4
f 1/3/3 21/4/4 22/5/5
f 3/6/6 15/7/7 2/1/1
f 2/1/1 15/7/7 16/8/8
f 2/1/1 16/8/8 17/9/9
f 4/10/10 10/11/11 3/6/6
f 3/6/6 10/11/11 11/12/12
f 3/6/6 11/12/12 12/13/13
f 5/14/14 37/15/15 4/10/10
f 4/10/10 37/15/15 38/16/16
f 4/10/10 38/16/16 39/17/17
f 6/18/18 32/19/19 5/14/14
f 5/14/14 32/19/19 33/20/20
f 5/14/14 33/20/20 34/21/21
f 1/3/3 27/22/22 6/18/18
f 6/18/18 27/22/22 28/23/23
f 6/18/18 28/23/23 29/24/24
f 39/17/17 7/25/25 4/10/10
f 4/10/10 7/25/25 8/26/26
f 4/10/10 8/26/26 9/27/27
f 9/27/27 10/11/11 4/10/10
f 12/13/13 13/28/28 3/6/6
f 3/6/6 13/28/28 14/29/29
f 3/6/6 14/29/29 15/7/7
f 17/9/9 18/30/30 2/1/1
f 2/1/1 18/30/30 19/31/31
f 2/1/1 19/31/31 20/2/2
f 22/5/5 23/32/32 1/3/3
f 1/3/3 23/32/32 24/33/33
f 1/3/3 24/33/33 25/34/34
f 25/34/34 26/35/35 1/3/3
f 1/3/3 26/35/35 27/22/22
f 29/24/24 30/36/36 6/18/18
f 6/18/18 30/36/36 31/37/37
f 6/18/18 31/37/37 32/19/19
f 34/21/21 35/38/38 5/14/14
f 5/14/14 35/38/38 36/39/39
f 5/14/14 36/39/39 37/15/15
f 39/40/40 40/41/41 7/42/42
f 7/42/42 40/41/41 41/43/43
f 7/42/42 41/43/43 8/44/44
f 8/44/44 41/43/43 42/45/45
f 8/44/44 42/45/45 9/46/46
f 9/46/46 42/45/45 43/47/47
f 9/46/46 43/47/47 10/48/48
f 10/48/48 43/47/47 44/49/49
f 10/48/48 44/49/49 11/50/50
f 11/50/50 44/49/49 45/51/51
f 11/50/50 45/51/51 12/52/52
f 12/52/52 45/51/51 46/53/53
f 12/52/52 46/53/53 13/54/54
f 13/54/54 46/53/53 47/55/55
f 13/54/54 47/55/55 14/56/56
f 14/56/56 47/55/55 48/57/57
f 14/56/56 48/57/57 15/58/58
f 15/58/58 48/57/57 49/59/59
f 15/58/58 49/59/59 16/60/60
f 16/60/60 49/59/59 50/61/61
f 16/60/60 50/61/61 17/62/62
f 17/62/62 50/61/61 51/63/63
f 17/62/62 51/63/63 18/64/64
f 18/64/64 51/63/63 52/65/65
f 18/64/64 52/65/65 19/66/66
f 19/66/66 52/65/65 53/67/67
f 19/66/66 53/67/67 20/68/68
f 20/68/68 53/67/67 54/69/69
f 20/68/68 54/69/69 21/70/70
f 21/70/70 54/69/69 55/71/71
f 21/70/70 55/71/71 22/72/72
f 22/72/72 55/71/71 56/73/73
f 22/72/72 56/73/73 23/74/74
f 23/75/74 56/76/73 57/77/75
f 23/75/74 57/77/75 24/78/76
f 24/78/76 57/77/75 58/79/77
f 24/78/76 58/79/77 25/80/78
f 25/80/78 58/79/77 59/81/79
f 25/80/78 59/81/79 26/82/80
f 26/82/80 59/81/79 60/83/81
f 26/82/80 60/83/81 27/84/82
f 27/84/82 60/83/81 61/85/83
f 27/84/82 61/85/83 28/86/84
f 28/86/84 61/85/83 62/87/85
f 28/86/84 62/87/85 29/88/86
f 29/88/86 62/87/85 63/89/87
f 29/88/86 63/89/87 30/90/88
f 30/90/88 63/89/87 64/91/89
f 30/90/88 64/91/89 31/92/90
f 31/92/90 64/91/89 65/93/91
f 31/92/90 65/93/91 32/94/92
f 32/94/92 65/93/91 66/95/93
f 32/94/92 66/95/93 33/96/94
f 33/96/94 66/95/93 67/97/95
f 33/96/94 67/97/95 34/98/96
f 34/98/96 67/97/95 68/99/97
f 34/98/96 68/99/97 35/100/98
f 35/100/98 68/99/97 69/101/99
f 35/100/98 69/101/99 36/102/100
f 36/102/100 69/101/99 70/103/101
f 36/102/100 70/103/101 37/104/102
f 37/104/102 70/103/101 71/105/103
f 37/104/102 71/105/103 38/106/104
f 38/106/104 71/105/103 72/107/105
f 38/106/104 72/107/105 39/40/40
f 39/40/40 72/107/105 40/41/41
f 73/108/106 74/109/107 4/110/108
f 4/110/108 74/109/107 5/111/109
f 5/112/110 74/113/111 6/114/112
f 6/114/112 74/113/111 75/115/113
f 6/116/114 75/117/115 1/118/116
f 1/118/116 75/117/115 76/119/117
f 76/120/118 77/121/119 1/122/120
f 1/122/120 77/121/119 2/123/121
f 78/124/122 3/125/123 77/126/124
f 77/126/124 3/125/123 2/127/125
f 3/128/126 78/129/127 4/130/128
f 4/130/128 78/129/127 73/131/129
f 77/132/130 48/133/131 78/134/132
f 78/134/132 48/133/131 47/135/133
f 78/134/132 47/135/133 46/136/134
f 76/137/135 53/138/136 77/132/130
f 77/132/130 53/138/136 52/139/137
f 77/132/130 52/139/137 51/140/138
f 75/141/139 60/142/140 76/137/135
f 76/137/135 60/142/140 59/143/141
f 76/137/135 59/143/141 58/144/142
f 74/145/143 65/146/144 75/141/139
f 75/141/139 65/146/144 64/147/145
f 75/141/139 64/147/145 63/148/146
f 73/149/147 70/150/148 74/145/143
f 74/145/143 70/150/148 69/151/149
f 74/145/143 69/151/149 68/152/150
f 78/134/132 43/153/151 73/149/147
f 73/149/147 43/153/151 42/154/152
f 73/149/147 42/154/152 41/155/153
f 41/155/153 40/156/154 73/149/147
f 73/149/147 40/156/154 72/157/155
f 73/149/147 72/157/155 71/158/156
f 71/158/156 70/150/148 73/149/147
f 68/152/150 67/159/157 74/145/143
f 74/145/143 67/159/157 66/160/158
f 74/145/143 66/160/158 65/146/144
f 63/148/146 62/161/159 75/141/139
f 75/141/139 62/161/159 61/162/160
f 75/141/139 61/162/160 60/142/140
f 58/144/142 57/163/161 76/137/135
f 76/137/135 57/163/161 56/164/162
f 76/137/135 56/164/162 55/165/163
f 55/165/163 54/166/164 76/137/135
f 76/137/135 54/166/164 53/138/136
f 51/140/138 50/167/165 77/132/130
f 77/132/130 50/167/165 49/168/166
f 77/132/130 49/168/166 48/133/131
f 46/136/134 45/169/167 78/134/132
f 78/134/132 45/169/167 44/170/168
f 78/134/132 44/170/168 43/153/151
# 78 vertices
# 170 texture params
# 168 normals
# 156 facets

# 1 groups
