# WaveFront *.obj file (generated by Autodesk ATF)

mtllib body26_visual.mtl

g Body26

v -29.334312 0.196846 -2.410627
v -29.292052 0.198418 -2.416496
v -29.253216 0.203009 -2.433627
v -29.220950 0.210245 -2.460634
v -29.197867 0.219541 -2.495327
v -29.185839 0.230143 -2.534896
v -29.185839 0.241194 -2.576135
v -29.197867 0.251796 -2.615705
v -29.220950 0.261092 -2.650398
v -29.253216 0.268328 -2.677404
v -29.292052 0.272919 -2.694535
v -29.334312 0.274491 -2.700404
v -29.376572 0.272919 -2.694535
v -29.415408 0.268328 -2.677404
v -29.447675 0.261092 -2.650398
v -29.470757 0.251796 -2.615705
v -29.482785 0.241194 -2.576135
v -29.482785 0.230143 -2.534896
v -29.470757 0.219541 -2.495327
v -29.447675 0.210245 -2.460634
v -29.415408 0.203009 -2.433627
v -29.376572 0.198418 -2.416496
v -29.334312 -0.005999 -2.464979
v -29.376572 -0.004426 -2.470848
v -29.415408 0.000164 -2.487979
v -29.447675 0.007401 -2.514986
v -29.470757 0.016696 -2.549679
v -29.482785 0.027299 -2.589248
v -29.482785 0.038349 -2.630487
v -29.470757 0.048952 -2.670057
v -29.447675 0.058248 -2.704750
v -29.415408 0.065484 -2.731756
v -29.376572 0.070074 -2.748887
v -29.334312 0.071647 -2.754756
v -29.292052 0.070074 -2.748887
v -29.253216 0.065484 -2.731756
v -29.220950 0.058248 -2.704750
v -29.197867 0.048952 -2.670057
v -29.185839 0.038349 -2.630487
v -29.185839 0.027299 -2.589248
v -29.197867 0.016696 -2.549679
v -29.220950 0.007401 -2.514986
v -29.253216 0.000164 -2.487979
v -29.292052 -0.004426 -2.470848
v -27.444312 -0.130164 -1.789085
v -27.444312 -0.104588 -1.775567
v -27.444312 -0.087411 -1.752292
v -27.444312 -0.082033 -1.723869
v -27.444312 -0.089520 -1.695927
v -27.444312 -0.108389 -1.674000
v -27.444312 -0.134903 -1.662433
v -27.444312 -0.163810 -1.663514
v -29.944312 -0.163810 -1.663514
v -29.944312 -0.134903 -1.662433
v -29.944312 -0.108389 -1.674000
v -29.944312 -0.089520 -1.695927
v -29.944312 -0.082033 -1.723869
v -29.944312 -0.087411 -1.752292
v -29.944312 -0.104588 -1.775567
v -29.944312 -0.130164 -1.789085
v -28.069312 -0.104588 -1.775567
v -28.694312 -0.104588 -1.775567
v -29.319312 -0.104588 -1.775567
v -28.069312 -0.087411 -1.752292
v -28.694312 -0.087411 -1.752292
v -29.319312 -0.087411 -1.752292
v -28.069312 -0.082033 -1.723869
v -28.694312 -0.082033 -1.723869
v -29.319312 -0.082033 -1.723869
v -28.069312 -0.089520 -1.695927
v -28.694312 -0.089520 -1.695927
v -29.319312 -0.089520 -1.695927
v -28.069312 -0.108389 -1.674000
v -28.694312 -0.108389 -1.674000
v -29.319312 -0.108389 -1.674000
v -28.069312 -0.134903 -1.662433
v -28.694312 -0.134903 -1.662433
v -29.319312 -0.134903 -1.662433
v -27.444312 0.335710 -3.527751
v -27.444312 0.361286 -3.514234
v -27.444312 0.378464 -3.490959
v -27.444312 0.383842 -3.462535
v -27.444312 0.376355 -3.434593
v -27.444312 0.357485 -3.412667
v -27.444312 0.330971 -3.401099
v -27.444312 0.302064 -3.402181
v -29.944312 0.302064 -3.402181
v -29.944312 0.330971 -3.401099
v -29.944312 0.357485 -3.412667
v -29.944312 0.376355 -3.434593
v -29.944312 0.383842 -3.462535
v -29.944312 0.378464 -3.490959
v -29.944312 0.361286 -3.514234
v -29.944312 0.335710 -3.527751
v -28.069312 0.361286 -3.514234
v -28.694312 0.361286 -3.514234
v -29.319312 0.361286 -3.514234
v -28.069312 0.378464 -3.490959
v -28.694312 0.378464 -3.490959
v -29.319312 0.378464 -3.490959
v -28.069312 0.383842 -3.462535
v -28.694312 0.383842 -3.462535
v -29.319312 0.383842 -3.462535
v -28.069312 0.376355 -3.434593
v -28.694312 0.376355 -3.434593
v -29.319312 0.376355 -3.434593
v -28.069312 0.357485 -3.412667
v -28.694312 0.357485 -3.412667
v -29.319312 0.357485 -3.412667
v -28.069312 0.330971 -3.401099
v -28.694312 0.330971 -3.401099
v -29.319312 0.330971 -3.401099
v -27.444312 0.643152 -1.255763
v -27.444312 0.661270 -1.323378
v -29.944312 0.661270 -1.323378
v -29.944312 0.643152 -1.255763
v -29.944312 -0.854033 -1.656933
v -29.944312 -0.835915 -1.724547
v -27.444312 -0.835915 -1.724547
v -27.444312 -0.854033 -1.656933
v -27.444312 -0.258749 -3.878562
v -27.444312 -0.276866 -3.810947
v -29.944312 -0.276866 -3.810947
v -29.944312 -0.258749 -3.878562
v -27.444312 -0.726072 -2.134486
v -27.444312 -0.742740 -2.072281
v -29.944312 -0.742740 -2.072281
v -29.944312 -0.726072 -2.134486
v -29.944312 -0.505921 -2.956103
v -29.944312 -0.489253 -3.018309
v -27.444312 -0.489253 -3.018309
v -27.444312 -0.505921 -2.956103
v -27.444312 -0.606860 -2.579392
v -27.444312 -0.623528 -2.517186
v -29.944312 -0.623528 -2.517186
v -29.944312 -0.606860 -2.579392
v -29.944312 1.238436 -3.477392
v -29.944312 1.220319 -3.409778
v -27.444312 1.220319 -3.409778
v -27.444312 1.238436 -3.477392
v -29.944312 -0.386709 -3.401008
v -29.944312 -0.370041 -3.463214
v -27.444312 -0.370041 -3.463214
v -27.444312 -0.386709 -3.401008
v -29.944312 -0.043856 -1.512316
v -29.944312 0.515193 -3.598716
v -29.944312 0.312349 -3.653068
v -29.944312 0.282584 -3.541986
v -29.944312 0.248938 -3.416416
v -29.944312 0.219174 -3.305334
v -29.944312 0.318417 -3.212070
v -29.944312 0.215873 -2.829371
v -29.944312 0.083294 -2.798223
v -29.944312 -0.017646 -2.421512
v -29.944312 0.081597 -2.328248
v -29.944312 -0.020947 -1.945549
v -29.944312 -0.153526 -1.914401
v -29.944312 -0.183290 -1.803320
v -29.944312 -0.216936 -1.677749
v -29.944312 -0.246700 -1.566668
v -27.444312 -0.043856 -1.512316
v -27.444312 -0.246700 -1.566668
v -27.444312 -0.216936 -1.677749
v -27.444312 -0.183290 -1.803320
v -27.444312 -0.153526 -1.914401
v -27.444312 -0.020947 -1.945549
v -27.444312 0.081597 -2.328248
v -27.444312 -0.017646 -2.421512
v -27.444312 0.083294 -2.798223
v -27.444312 0.215873 -2.829371
v -27.444312 0.318417 -3.212070
v -27.444312 0.219174 -3.305334
v -27.444312 0.248938 -3.416416
v -27.444312 0.282584 -3.541986
v -27.444312 0.312349 -3.653068
v -27.444312 0.515193 -3.598716
vt 0.730000 -0.042840 0.000000
vt 0.940000 0.000000 0.000000
vt 0.730000 0.000000 0.000000
vt 0.940000 0.042840 0.000000
vt 0.730000 0.042840 0.000000
vt 0.940000 0.085680 0.000000
vt 0.730000 0.085680 0.000000
vt 0.940000 0.128520 0.000000
vt 0.730000 0.128520 0.000000
vt 0.940000 0.171360 0.000000
vt 0.730000 0.171360 0.000000
vt 0.940000 0.214199 0.000000
vt 0.730000 0.214199 0.000000
vt 0.940000 0.257039 0.000000
vt 0.730000 0.257039 0.000000
vt 0.940000 0.299879 0.000000
vt 0.730000 0.299879 0.000000
vt 0.940000 0.342719 0.000000
vt 0.730000 0.342719 0.000000
vt 0.940000 0.385559 0.000000
vt 0.730000 0.385559 0.000000
vt 0.940000 0.428399 0.000000
vt 0.730000 0.428399 0.000000
vt 0.730000 0.471239 0.000000
vt 0.940000 0.471239 0.000000
vt 0.730000 -0.471239 0.000000
vt 0.940000 -0.471239 0.000000
vt 0.730000 -0.428399 0.000000
vt 0.940000 -0.428399 0.000000
vt 0.940000 -0.385559 0.000000
vt 0.940000 -0.042840 0.000000
vt 0.730000 -0.085680 0.000000
vt 0.940000 -0.085680 0.000000
vt 0.730000 -0.128520 0.000000
vt 0.940000 -0.128520 0.000000
vt 0.730000 -0.171360 0.000000
vt 0.940000 -0.171360 0.000000
vt 0.730000 -0.214199 0.000000
vt 0.940000 -0.214199 0.000000
vt 0.730000 -0.257039 0.000000
vt 0.940000 -0.257039 0.000000
vt 0.730000 -0.299879 0.000000
vt 0.940000 -0.299879 0.000000
vt 0.730000 -0.342719 0.000000
vt 0.940000 -0.342719 0.000000
vt 0.730000 -0.385559 0.000000
vt 0.000000 0.072930 0.000000
vt 0.625000 0.072930 0.000000
vt 0.000000 0.102102 0.000000
vt 1.250000 0.072930 0.000000
vt 2.500000 0.102102 0.000000
vt 1.875000 0.072930 0.000000
vt 2.500000 0.072930 0.000000
vt 2.500000 0.043758 0.000000
vt 1.875000 0.043758 0.000000
vt 2.500000 0.014586 0.000000
vt 1.875000 0.014586 0.000000
vt 2.500000 -0.014586 0.000000
vt 1.875000 -0.014586 0.000000
vt 2.500000 -0.043758 0.000000
vt 1.875000 -0.043758 0.000000
vt 2.500000 -0.072930 0.000000
vt 1.875000 -0.072930 0.000000
vt 2.500000 -0.102102 0.000000
vt 1.250000 -0.072930 0.000000
vt -0.000000 -0.102102 0.000000
vt 0.625000 -0.072930 0.000000
vt -0.000000 -0.072930 0.000000
vt 0.000000 -0.043758 0.000000
vt 0.625000 -0.043758 0.000000
vt 0.000000 -0.014586 0.000000
vt 0.625000 -0.014586 0.000000
vt 0.000000 0.014586 0.000000
vt 0.625000 0.014586 0.000000
vt 0.000000 0.043758 0.000000
vt 0.625000 0.043758 0.000000
vt 1.250000 0.043758 0.000000
vt 1.250000 0.014586 0.000000
vt 1.250000 -0.014586 0.000000
vt 1.250000 -0.043758 0.000000
vt 0.000000 0.072930 0.000000
vt 0.625000 0.072930 0.000000
vt 0.000000 0.102102 0.000000
vt 1.250000 0.072930 0.000000
vt 2.500000 0.102102 0.000000
vt 1.875000 0.072930 0.000000
vt 2.500000 0.072930 0.000000
vt 2.500000 0.043758 0.000000
vt 1.875000 0.043758 0.000000
vt 2.500000 0.014586 0.000000
vt 1.875000 0.014586 0.000000
vt 2.500000 -0.014586 0.000000
vt 1.875000 -0.014586 0.000000
vt 2.500000 -0.043758 0.000000
vt 1.875000 -0.043758 0.000000
vt 2.500000 -0.072930 0.000000
vt 1.875000 -0.072930 0.000000
vt 2.500000 -0.102102 0.000000
vt 1.250000 -0.072930 0.000000
vt -0.000000 -0.102102 0.000000
vt 0.625000 -0.072930 0.000000
vt -0.000000 -0.072930 0.000000
vt 0.000000 -0.043758 0.000000
vt 0.625000 -0.043758 0.000000
vt 0.000000 -0.014586 0.000000
vt 0.625000 -0.014586 0.000000
vt 0.000000 0.014586 0.000000
vt 0.625000 0.014586 0.000000
vt 0.000000 0.043758 0.000000
vt 0.625000 0.043758 0.000000
vt 1.250000 0.043758 0.000000
vt 1.250000 0.014586 0.000000
vt 1.250000 -0.014586 0.000000
vt 1.250000 -0.043758 0.000000
vt -2.300000 -2.500000 0.000000
vt -2.230000 -2.500000 0.000000
vt -2.300000 -0.000000 0.000000
vt -2.230000 -0.000000 0.000000
vt 2.300000 -0.000000 0.000000
vt 2.230000 -0.000000 0.000000
vt 2.300000 -2.500000 0.000000
vt 2.230000 -2.500000 0.000000
vt 0.000000 -2.500000 0.000000
vt 0.070000 -2.500000 0.000000
vt -0.000000 0.000000 0.000000
vt 0.070000 -0.000000 0.000000
vt 1.805600 -2.500000 0.000000
vt 1.870000 -2.500000 0.000000
vt 1.805600 -0.000000 0.000000
vt 1.870000 -0.000000 0.000000
vt 0.955000 -0.000000 0.000000
vt 0.890600 -0.000000 0.000000
vt 0.955000 -2.500000 0.000000
vt 0.890600 -2.500000 0.000000
vt 1.345000 -2.500000 0.000000
vt 1.409400 -2.500000 0.000000
vt 1.345000 -0.000000 0.000000
vt 1.409400 -0.000000 0.000000
vt 0.000000 -2.500000 0.000000
vt 1.550000 -2.500000 0.000000
vt 0.000000 0.000000 0.000000
vt 1.550000 0.000000 0.000000
vt -0.000000 0.000000 0.000000
vt -0.070000 -0.000000 0.000000
vt 0.000000 -2.500000 0.000000
vt -0.070000 -2.500000 0.000000
vt -1.550000 -2.500000 0.000000
vt -0.000000 -2.500000 0.000000
vt -1.550000 0.000000 0.000000
vt -0.000000 0.000000 0.000000
vt 0.494400 -0.000000 0.000000
vt 0.430000 -0.000000 0.000000
vt 0.494400 -2.500000 0.000000
vt 0.430000 -2.500000 0.000000
vt 0.775000 -1.080000 0.000000
vt 0.045000 -1.080000 0.000000
vt 0.775000 -1.150000 0.000000
vt -0.775000 -1.150000 0.000000
vt -0.165000 -1.080000 0.000000
vt -0.775000 -1.080000 0.000000
vt 0.045000 1.080000 0.000000
vt -0.045000 0.259400 0.000000
vt -0.045000 -0.259400 0.000000
vt -0.045000 -0.655600 0.000000
vt 0.775000 1.080000 0.000000
vt 0.775000 1.150000 0.000000
vt -0.775000 1.150000 0.000000
vt -0.165000 1.080000 0.000000
vt -0.775000 1.080000 0.000000
vt -0.165000 0.965000 0.000000
vt -0.110000 0.965000 0.000000
vt -0.081798 0.958563 0.000000
vt -0.059181 0.940527 0.000000
vt -0.046630 0.914464 0.000000
vt -0.046630 0.885536 0.000000
vt -0.045000 0.655600 0.000000
vt -0.059181 0.859473 0.000000
vt -0.081798 0.841437 0.000000
vt -0.110000 0.835000 0.000000
vt -0.165000 0.835000 0.000000
vt -0.165000 0.720000 0.000000
vt -0.775000 0.720000 0.000000
vt -0.775000 0.655600 0.000000
vt -0.165000 0.195000 0.000000
vt -0.775000 0.259400 0.000000
vt -0.775000 0.195000 0.000000
vt -0.165000 -0.195000 0.000000
vt -0.775000 -0.259400 0.000000
vt -0.775000 -0.195000 0.000000
vt -0.775000 -0.655600 0.000000
vt -0.165000 -0.720000 0.000000
vt -0.110000 -0.835000 0.000000
vt -0.081798 -0.841437 0.000000
vt -0.775000 -0.720000 0.000000
vt -0.165000 -0.835000 0.000000
vt -0.059181 -0.859473 0.000000
vt -0.046630 -0.885536 0.000000
vt -0.046630 -0.914464 0.000000
vt -0.059181 -0.940527 0.000000
vt -0.081798 -0.958563 0.000000
vt -0.110000 -0.965000 0.000000
vt -0.165000 -0.965000 0.000000
vt -0.775000 -1.080000 0.000000
vt -0.775000 -1.150000 0.000000
vt -0.045000 -1.080000 0.000000
vt 0.775000 -1.150000 0.000000
vt 0.165000 -1.080000 0.000000
vt 0.775000 -1.080000 0.000000
vt 0.165000 -0.965000 0.000000
vt 0.110000 -0.965000 0.000000
vt 0.081798 -0.958563 0.000000
vt 0.059181 -0.940527 0.000000
vt 0.046630 -0.914464 0.000000
vt 0.046630 -0.885536 0.000000
vt 0.045000 -0.655600 0.000000
vt 0.045000 -0.259400 0.000000
vt 0.059181 -0.859473 0.000000
vt 0.081798 -0.841437 0.000000
vt 0.110000 -0.835000 0.000000
vt 0.165000 -0.835000 0.000000
vt 0.165000 -0.720000 0.000000
vt 0.775000 -0.720000 0.000000
vt 0.775000 -0.655600 0.000000
vt 0.775000 -0.259400 0.000000
vt 0.165000 -0.195000 0.000000
vt 0.165000 0.195000 0.000000
vt 0.045000 0.259400 0.000000
vt 0.775000 0.259400 0.000000
vt 0.775000 0.195000 0.000000
vt 0.775000 -0.195000 0.000000
vt 0.045000 0.655600 0.000000
vt -0.045000 1.080000 0.000000
vt 0.775000 0.655600 0.000000
vt 0.165000 0.720000 0.000000
vt 0.110000 0.835000 0.000000
vt 0.081798 0.841437 0.000000
vt 0.775000 0.720000 0.000000
vt 0.165000 0.835000 0.000000
vt 0.059181 0.859473 0.000000
vt 0.046630 0.885536 0.000000
vt 0.046630 0.914464 0.000000
vt 0.059181 0.940527 0.000000
vt 0.081798 0.958563 0.000000
vt 0.165000 1.080000 0.000000
vt 0.775000 1.150000 0.000000
vt 0.775000 1.080000 0.000000
vt 0.110000 0.965000 0.000000
vt 0.165000 0.965000 0.000000
vt -0.775000 1.150000 0.000000
vt -0.775000 1.080000 0.000000
vt 0.000000 2.500000 0.000000
vt -0.610000 2.500000 0.000000
vt -0.000000 0.000000 0.000000
vt -0.610000 -0.000000 0.000000
vt 0.610000 2.500000 0.000000
vt -0.000000 2.500000 0.000000
vt 0.610000 0.000000 0.000000
vt 0.000000 0.000000 0.000000
vt -0.390000 2.500000 0.000000
vt -0.173653 2.038473 0.000000
vt 0.000000 2.500000 0.000000
vt -0.132688 2.026445 0.000000
vt -0.096771 2.003362 0.000000
vt -0.390000 0.000000 0.000000
vt -0.345000 1.890000 0.000000
vt -0.338924 1.932260 0.000000
vt -0.321188 1.971096 0.000000
vt -0.000000 0.000000 0.000000
vt -0.216347 1.741527 0.000000
vt -0.257312 1.753555 0.000000
vt -0.293229 1.776638 0.000000
vt -0.045000 1.890000 0.000000
vt -0.051076 1.847740 0.000000
vt -0.068812 1.808904 0.000000
vt -0.096771 1.776638 0.000000
vt -0.132688 1.753555 0.000000
vt -0.173653 1.741527 0.000000
vt -0.321188 1.808904 0.000000
vt -0.338924 1.847740 0.000000
vt -0.293229 2.003362 0.000000
vt -0.257312 2.026445 0.000000
vt -0.216347 2.038473 0.000000
vt -0.068812 1.971096 0.000000
vt -0.051076 1.932260 0.000000
vt -0.000000 2.500000 0.000000
vt -0.730000 2.500000 0.000000
vt -0.000000 0.000000 0.000000
vt -0.730000 0.000000 0.000000
vt 0.730000 2.500000 0.000000
vt 0.000000 2.500000 0.000000
vt 0.730000 -0.000000 0.000000
vt 0.000000 0.000000 0.000000
vt 0.000000 2.500000 0.000000
vt -0.396200 2.500000 0.000000
vt -0.000000 0.000000 0.000000
vt -0.396200 -0.000000 0.000000
vt 0.000000 2.500000 0.000000
vt -0.730000 2.500000 0.000000
vt -0.000000 0.000000 0.000000
vt -0.730000 0.000000 0.000000
vt 0.730000 2.500000 0.000000
vt -0.000000 2.500000 0.000000
vt 0.730000 -0.000000 0.000000
vt 0.000000 0.000000 0.000000
vt -0.000000 2.500000 0.000000
vt -0.396200 2.500000 0.000000
vt -0.000000 0.000000 0.000000
vt -0.396200 -0.000000 0.000000
vt 0.610000 2.500000 0.000000
vt -0.000000 2.500000 0.000000
vt 0.610000 -0.000000 0.000000
vt 0.000000 0.000000 0.000000
vt 0.115000 2.500000 0.000000
vt 0.000000 2.500000 0.000000
vt 0.115000 -0.000000 0.000000
vt -0.000000 0.000000 0.000000
vt -0.000000 2.500000 0.000000
vt -0.055000 2.500000 0.000000
vt 0.000000 0.000000 0.000000
vt -0.055000 -0.000000 0.000000
vt 0.055000 2.500000 0.000000
vt 0.000000 2.500000 0.000000
vt 0.055000 -0.000000 0.000000
vt -0.000000 0.000000 0.000000
vt 0.115000 2.500000 0.000000
vt 0.000000 2.500000 0.000000
vt 0.115000 0.000000 0.000000
vt -0.000000 0.000000 0.000000
vt 0.000000 2.500000 0.000000
vt -0.610000 2.500000 0.000000
vt -0.000000 0.000000 0.000000
vt -0.610000 0.000000 0.000000
vt 0.000000 2.500000 0.000000
vt -0.610000 2.500000 0.000000
vt -0.000000 0.000000 0.000000
vt -0.610000 0.000000 0.000000
vt 0.610000 2.500000 0.000000
vt -0.000000 2.500000 0.000000
vt 0.610000 0.000000 0.000000
vt 0.000000 0.000000 0.000000
vt -0.000000 2.500000 0.000000
vt -0.115000 2.500000 0.000000
vt -0.000000 0.000000 0.000000
vt -0.115000 0.000000 0.000000
vt 0.000000 2.500000 0.000000
vt -0.055000 2.500000 0.000000
vt 0.000000 0.000000 0.000000
vt -0.055000 -0.000000 0.000000
vt 0.055000 2.500000 0.000000
vt -0.000000 2.500000 0.000000
vt 0.055000 -0.000000 0.000000
vt -0.000000 0.000000 0.000000
vt -0.000000 2.500000 0.000000
vt -0.115000 2.500000 0.000000
vt -0.000000 0.000000 0.000000
vt -0.115000 0.000000 0.000000
vt 0.730000 2.500000 0.000000
vt -0.000000 2.500000 0.000000
vt 0.730000 0.000000 0.000000
vt -0.000000 0.000000 0.000000
vt 0.000000 2.500000 0.000000
vt 1.101347 2.038473 0.000000
vt 2.160000 2.500000 0.000000
vt 1.142312 2.026445 0.000000
vt 1.178229 2.003362 0.000000
vt -0.000000 0.000000 0.000000
vt 0.936076 1.847740 0.000000
vt 0.930000 1.890000 0.000000
vt 0.936076 1.932260 0.000000
vt 2.160000 -0.000000 0.000000
vt 1.058653 1.741527 0.000000
vt 1.017688 1.753555 0.000000
vt 0.981771 1.776638 0.000000
vt 1.223924 1.847740 0.000000
vt 1.206188 1.808904 0.000000
vt 1.178229 1.776638 0.000000
vt 0.953812 1.971096 0.000000
vt 0.981771 2.003362 0.000000
vt 1.017688 2.026445 0.000000
vt 1.058653 2.038473 0.000000
vt 1.206188 1.971096 0.000000
vt 1.223924 1.932260 0.000000
vt 1.230000 1.890000 0.000000
vt 1.142312 1.753555 0.000000
vt 1.101347 1.741527 0.000000
vt 0.953812 1.808904 0.000000
vt -0.000000 2.500000 0.000000
vt -0.730000 2.500000 0.000000
vt 0.000000 0.000000 0.000000
vt -0.730000 -0.000000 0.000000
vn -0.281733 0.248335 -0.926799
vn 0.000000 0.258819 -0.965926
vn 0.000000 0.258819 -0.965926
vn 0.281733 0.248335 -0.926799
vn 0.281733 0.248335 -0.926799
vn 0.540641 0.217732 -0.812589
vn 0.540641 0.217732 -0.812589
vn 0.755750 0.169490 -0.632547
vn 0.755750 0.169490 -0.632547
vn 0.909632 0.107517 -0.401260
vn 0.909632 0.107517 -0.401260
vn 0.989821 0.036834 -0.137466
vn 0.989821 0.036834 -0.137466
vn 0.989821 -0.036834 0.137466
vn 0.989821 -0.036834 0.137466
vn 0.909632 -0.107517 0.401260
vn 0.909632 -0.107517 0.401260
vn 0.755750 -0.169490 0.632547
vn 0.755750 -0.169490 0.632547
vn 0.540641 -0.217732 0.812589
vn 0.540641 -0.217732 0.812589
vn 0.281733 -0.248335 0.926799
vn 0.281733 -0.248335 0.926799
vn -0.000000 -0.258819 0.965926
vn -0.000000 -0.258819 0.965926
vn -0.281733 -0.248335 0.926799
vn -0.281733 -0.248335 0.926799
vn -0.540641 -0.217732 0.812589
vn -0.281733 0.248335 -0.926799
vn -0.540641 0.217732 -0.812589
vn -0.540641 0.217732 -0.812589
vn -0.755750 0.169490 -0.632547
vn -0.755750 0.169490 -0.632547
vn -0.909632 0.107517 -0.401260
vn -0.909632 0.107517 -0.401260
vn -0.989821 0.036834 -0.137466
vn -0.989821 0.036834 -0.137466
vn -0.989821 -0.036834 0.137466
vn -0.989821 -0.036834 0.137466
vn -0.909632 -0.107517 0.401260
vn -0.909632 -0.107517 0.401260
vn -0.755750 -0.169490 0.632547
vn -0.755750 -0.169490 0.632547
vn -0.540641 -0.217732 0.812589
vn -0.000000 -0.652287 0.757972
vn -0.000000 -0.652287 0.757972
vn -0.000000 -0.258819 0.965926
vn -0.000000 -0.652287 0.757972
vn -0.000000 -0.258819 0.965926
vn -0.000000 -0.652287 0.757972
vn -0.000000 -0.652287 0.757972
vn -0.000000 -0.916562 0.399892
vn -0.000000 -0.916562 0.399892
vn -0.000000 -0.999301 -0.037391
vn -0.000000 -0.999301 -0.037391
vn -0.000000 -0.884115 -0.467269
vn -0.000000 -0.884115 -0.467269
vn -0.000000 -0.593820 -0.804598
vn -0.000000 -0.593820 -0.804598
vn 0.000000 -0.185912 -0.982566
vn 0.000000 -0.185912 -0.982566
vn 0.000000 0.258819 -0.965926
vn 0.000000 -0.185912 -0.982566
vn 0.000000 0.258819 -0.965926
vn 0.000000 -0.185912 -0.982566
vn 0.000000 -0.185912 -0.982566
vn -0.000000 -0.593820 -0.804598
vn -0.000000 -0.593820 -0.804598
vn -0.000000 -0.884115 -0.467269
vn -0.000000 -0.884115 -0.467269
vn -0.000000 -0.999301 -0.037391
vn -0.000000 -0.999301 -0.037391
vn -0.000000 -0.916562 0.399892
vn -0.000000 -0.916562 0.399892
vn -0.000000 -0.916562 0.399892
vn -0.000000 -0.999301 -0.037391
vn -0.000000 -0.884115 -0.467269
vn -0.000000 -0.593820 -0.804598
vn -0.000000 -0.652287 0.757972
vn -0.000000 -0.652287 0.757972
vn -0.000000 -0.258819 0.965926
vn -0.000000 -0.652287 0.757972
vn -0.000000 -0.258819 0.965926
vn -0.000000 -0.652287 0.757972
vn -0.000000 -0.652287 0.757972
vn -0.000000 -0.916562 0.399892
vn -0.000000 -0.916562 0.399892
vn -0.000000 -0.999301 -0.037391
vn -0.000000 -0.999301 -0.037391
vn -0.000000 -0.884115 -0.467269
vn -0.000000 -0.884115 -0.467269
vn -0.000000 -0.593820 -0.804598
vn -0.000000 -0.593820 -0.804598
vn 0.000000 -0.185912 -0.982566
vn 0.000000 -0.185912 -0.982566
vn 0.000000 0.258819 -0.965926
vn 0.000000 -0.185912 -0.982566
vn 0.000000 0.258819 -0.965926
vn 0.000000 -0.185912 -0.982566
vn 0.000000 -0.185912 -0.982566
vn -0.000000 -0.593820 -0.804598
vn -0.000000 -0.593820 -0.804598
vn -0.000000 -0.884115 -0.467269
vn -0.000000 -0.884115 -0.467269
vn -0.000000 -0.999301 -0.037391
vn -0.000000 -0.999301 -0.037391
vn -0.000000 -0.916562 0.399892
vn -0.000000 -0.916562 0.399892
vn -0.000000 -0.916562 0.399892
vn -0.000000 -0.999301 -0.037391
vn -0.000000 -0.884115 -0.467269
vn -0.000000 -0.593820 -0.804598
vn 0.000000 0.965926 0.258819
vn 0.000000 0.965926 0.258819
vn 0.000000 0.965926 0.258819
vn 0.000000 0.965926 0.258819
vn -0.000000 -0.965926 -0.258819
vn -0.000000 -0.965926 -0.258819
vn -0.000000 -0.965926 -0.258819
vn -0.000000 -0.965926 -0.258819
vn -0.000000 -0.965926 -0.258819
vn -0.000000 -0.965926 -0.258819
vn -0.000000 -0.965926 -0.258819
vn -0.000000 -0.965926 -0.258819
vn -0.000000 -0.965926 -0.258819
vn -0.000000 -0.965926 -0.258819
vn -0.000000 -0.965926 -0.258819
vn -0.000000 -0.965926 -0.258819
vn -0.000000 -0.965926 -0.258819
vn -0.000000 -0.965926 -0.258819
vn -0.000000 -0.965926 -0.258819
vn -0.000000 -0.965926 -0.258819
vn -0.000000 -0.965926 -0.258819
vn -0.000000 -0.965926 -0.258819
vn -0.000000 -0.965926 -0.258819
vn -0.000000 -0.965926 -0.258819
vn -0.000000 -0.258819 0.965926
vn -0.000000 -0.258819 0.965926
vn -0.000000 -0.258819 0.965926
vn -0.000000 -0.258819 0.965926
vn 0.000000 0.965926 0.258819
vn 0.000000 0.965926 0.258819
vn 0.000000 0.965926 0.258819
vn 0.000000 0.965926 0.258819
vn 0.000000 0.258819 -0.965926
vn 0.000000 0.258819 -0.965926
vn 0.000000 0.258819 -0.965926
vn 0.000000 0.258819 -0.965926
vn -0.000000 -0.965926 -0.258819
vn -0.000000 -0.965926 -0.258819
vn -0.000000 -0.965926 -0.258819
vn -0.000000 -0.965926 -0.258819
vn -1.000000 0.000000 -0.000000
vn -1.000000 0.000000 -0.000000
vn -1.000000 0.000000 -0.000000
vn -1.000000 0.000000 -0.000000
vn -1.000000 0.000000 -0.000000
vn -1.000000 0.000000 -0.000000
vn -1.000000 0.000000 -0.000000
vn -1.000000 0.000000 -0.000000
vn -1.000000 0.000000 -0.000000
vn -1.000000 0.000000 -0.000000
vn -1.000000 0.000000 -0.000000
vn -1.000000 0.000000 -0.000000
vn -1.000000 0.000000 -0.000000
vn -1.000000 0.000000 -0.000000
vn -1.000000 0.000000 -0.000000
vn -1.000000 0.000000 -0.000000
vn -1.000000 0.000000 -0.000000
vn -1.000000 0.000000 -0.000000
vn -1.000000 0.000000 -0.000000
vn -1.000000 0.000000 -0.000000
vn -1.000000 0.000000 -0.000000
vn -1.000000 0.000000 -0.000000
vn -1.000000 0.000000 -0.000000
vn -1.000000 0.000000 -0.000000
vn -1.000000 0.000000 -0.000000
vn -1.000000 0.000000 -0.000000
vn -1.000000 0.000000 -0.000000
vn -1.000000 0.000000 -0.000000
vn -1.000000 0.000000 -0.000000
vn -1.000000 0.000000 -0.000000
vn -1.000000 0.000000 -0.000000
vn -1.000000 0.000000 -0.000000
vn -1.000000 0.000000 -0.000000
vn -1.000000 0.000000 -0.000000
vn -1.000000 0.000000 -0.000000
vn -1.000000 0.000000 -0.000000
vn -1.000000 0.000000 -0.000000
vn -1.000000 0.000000 -0.000000
vn -1.000000 0.000000 -0.000000
vn -1.000000 0.000000 -0.000000
vn -1.000000 0.000000 -0.000000
vn -1.000000 0.000000 -0.000000
vn -1.000000 0.000000 -0.000000
vn -1.000000 0.000000 -0.000000
vn -1.000000 0.000000 -0.000000
vn -1.000000 0.000000 -0.000000
vn -1.000000 0.000000 -0.000000
vn -1.000000 0.000000 -0.000000
vn 1.000000 -0.000000 0.000000
vn 1.000000 -0.000000 0.000000
vn 1.000000 -0.000000 0.000000
vn 1.000000 -0.000000 0.000000
vn 1.000000 -0.000000 0.000000
vn 1.000000 -0.000000 0.000000
vn 1.000000 -0.000000 0.000000
vn 1.000000 -0.000000 0.000000
vn 1.000000 -0.000000 0.000000
vn 1.000000 -0.000000 0.000000
vn 1.000000 -0.000000 0.000000
vn 1.000000 -0.000000 0.000000
vn 1.000000 -0.000000 0.000000
vn 1.000000 -0.000000 0.000000
vn 1.000000 -0.000000 0.000000
vn 1.000000 -0.000000 0.000000
vn 1.000000 -0.000000 0.000000
vn 1.000000 -0.000000 0.000000
vn 1.000000 -0.000000 0.000000
vn 1.000000 -0.000000 0.000000
vn 1.000000 -0.000000 0.000000
vn 1.000000 -0.000000 0.000000
vn 1.000000 -0.000000 0.000000
vn 1.000000 -0.000000 0.000000
vn 1.000000 -0.000000 0.000000
vn 1.000000 -0.000000 0.000000
vn 1.000000 -0.000000 0.000000
vn 1.000000 -0.000000 0.000000
vn 1.000000 -0.000000 0.000000
vn 1.000000 -0.000000 0.000000
vn 1.000000 -0.000000 0.000000
vn 1.000000 -0.000000 0.000000
vn 1.000000 -0.000000 0.000000
vn 1.000000 -0.000000 0.000000
vn 1.000000 -0.000000 0.000000
vn 1.000000 -0.000000 0.000000
vn 1.000000 -0.000000 0.000000
vn 1.000000 -0.000000 0.000000
vn 1.000000 -0.000000 0.000000
vn 1.000000 -0.000000 0.000000
vn 1.000000 -0.000000 0.000000
vn 1.000000 -0.000000 0.000000
vn 1.000000 -0.000000 0.000000
vn 1.000000 -0.000000 0.000000
vn 1.000000 -0.000000 0.000000
vn 1.000000 -0.000000 0.000000
vn 1.000000 -0.000000 0.000000
vn 1.000000 -0.000000 0.000000
vn 0.000000 0.258819 -0.965926
vn 0.000000 0.258819 -0.965926
vn 0.000000 0.258819 -0.965926
vn 0.000000 0.258819 -0.965926
vn -0.000000 -0.258819 0.965926
vn -0.000000 -0.258819 0.965926
vn -0.000000 -0.258819 0.965926
vn -0.000000 -0.258819 0.965926
vn -0.000000 -0.965926 -0.258819
vn -0.000000 -0.965926 -0.258819
vn -0.000000 -0.965926 -0.258819
vn -0.000000 -0.965926 -0.258819
vn -0.000000 -0.965926 -0.258819
vn -0.000000 -0.965926 -0.258819
vn -0.000000 -0.965926 -0.258819
vn -0.000000 -0.965926 -0.258819
vn -0.000000 -0.965926 -0.258819
vn -0.000000 -0.965926 -0.258819
vn -0.000000 -0.965926 -0.258819
vn -0.000000 -0.965926 -0.258819
vn -0.000000 -0.965926 -0.258819
vn -0.000000 -0.965926 -0.258819
vn -0.000000 -0.965926 -0.258819
vn -0.000000 -0.965926 -0.258819
vn -0.000000 -0.965926 -0.258819
vn -0.000000 -0.965926 -0.258819
vn -0.000000 -0.965926 -0.258819
vn -0.000000 -0.965926 -0.258819
vn -0.000000 -0.965926 -0.258819
vn -0.000000 -0.965926 -0.258819
vn -0.000000 -0.965926 -0.258819
vn -0.000000 -0.965926 -0.258819
vn -0.000000 -0.965926 -0.258819
vn -0.000000 -0.965926 -0.258819
vn 0.000000 0.258819 -0.965926
vn 0.000000 0.258819 -0.965926
vn 0.000000 0.258819 -0.965926
vn 0.000000 0.258819 -0.965926
vn -0.000000 -0.258819 0.965926
vn -0.000000 -0.258819 0.965926
vn -0.000000 -0.258819 0.965926
vn -0.000000 -0.258819 0.965926
vn -0.000000 -0.965926 -0.258819
vn -0.000000 -0.965926 -0.258819
vn -0.000000 -0.965926 -0.258819
vn -0.000000 -0.965926 -0.258819
vn 0.000000 0.258819 -0.965926
vn 0.000000 0.258819 -0.965926
vn 0.000000 0.258819 -0.965926
vn 0.000000 0.258819 -0.965926
vn -0.000000 -0.258819 0.965926
vn -0.000000 -0.258819 0.965926
vn -0.000000 -0.258819 0.965926
vn -0.000000 -0.258819 0.965926
vn -0.000000 -0.965926 -0.258819
vn -0.000000 -0.965926 -0.258819
vn -0.000000 -0.965926 -0.258819
vn -0.000000 -0.965926 -0.258819
vn -0.000000 -0.258819 0.965926
vn -0.000000 -0.258819 0.965926
vn -0.000000 -0.258819 0.965926
vn -0.000000 -0.258819 0.965926
vn -0.000000 -0.965926 -0.258819
vn -0.000000 -0.965926 -0.258819
vn -0.000000 -0.965926 -0.258819
vn -0.000000 -0.965926 -0.258819
vn -0.000000 -0.258819 0.965926
vn -0.000000 -0.258819 0.965926
vn 0.000000 0.258819 -0.965926
vn 0.000000 0.258819 -0.965926
vn -0.000000 -0.965926 -0.258819
vn -0.000000 -0.965926 -0.258819
vn -0.000000 -0.965926 -0.258819
vn -0.000000 -0.965926 -0.258819
vn 0.000000 0.258819 -0.965926
vn 0.000000 0.258819 -0.965926
vn 0.000000 0.258819 -0.965926
vn 0.000000 0.258819 -0.965926
vn 0.000000 0.258819 -0.965926
vn 0.000000 0.258819 -0.965926
vn 0.000000 0.258819 -0.965926
vn 0.000000 0.258819 -0.965926
vn -0.000000 -0.258819 0.965926
vn -0.000000 -0.258819 0.965926
vn -0.000000 -0.258819 0.965926
vn -0.000000 -0.258819 0.965926
vn -0.000000 -0.965926 -0.258819
vn -0.000000 -0.965926 -0.258819
vn -0.000000 -0.965926 -0.258819
vn -0.000000 -0.965926 -0.258819
vn -0.000000 -0.258819 0.965926
vn -0.000000 -0.258819 0.965926
vn 0.000000 0.258819 -0.965926
vn 0.000000 0.258819 -0.965926
vn -0.000000 -0.965926 -0.258819
vn -0.000000 -0.965926 -0.258819
vn -0.000000 -0.965926 -0.258819
vn -0.000000 -0.965926 -0.258819
vn 0.000000 0.258819 -0.965926
vn 0.000000 0.258819 -0.965926
vn 0.000000 0.258819 -0.965926
vn 0.000000 0.258819 -0.965926
vn 0.000000 0.965926 0.258819
vn 0.000000 0.965926 0.258819
vn 0.000000 0.965926 0.258819
vn 0.000000 0.965926 0.258819
vn 0.000000 0.965926 0.258819
vn 0.000000 0.965926 0.258819
vn 0.000000 0.965926 0.258819
vn 0.000000 0.965926 0.258819
vn 0.000000 0.965926 0.258819
vn 0.000000 0.965926 0.258819
vn 0.000000 0.965926 0.258819
vn 0.000000 0.965926 0.258819
vn 0.000000 0.965926 0.258819
vn 0.000000 0.965926 0.258819
vn 0.000000 0.965926 0.258819
vn 0.000000 0.965926 0.258819
vn 0.000000 0.965926 0.258819
vn 0.000000 0.965926 0.258819
vn 0.000000 0.965926 0.258819
vn 0.000000 0.965926 0.258819
vn 0.000000 0.965926 0.258819
vn 0.000000 0.965926 0.258819
vn 0.000000 0.965926 0.258819
vn 0.000000 0.965926 0.258819
vn 0.000000 0.965926 0.258819
vn 0.000000 0.965926 0.258819
vn -0.000000 -0.258819 0.965926
vn -0.000000 -0.258819 0.965926
vn -0.000000 -0.258819 0.965926
vn -0.000000 -0.258819 0.965926
usemtl Paint_-_Enamel_Glossy_(Dark_Grey)
f 2/1/1 23/2/2 1/3/3
f 1/3/3 23/2/2 24/4/4
f 1/3/3 24/4/4 22/5/5
f 22/5/5 24/4/4 25/6/6
f 22/5/5 25/6/6 21/7/7
f 21/7/7 25/6/6 26/8/8
f 21/7/7 26/8/8 20/9/9
f 20/9/9 26/8/8 27/10/10
f 20/9/9 27/10/10 19/11/11
f 19/11/11 27/10/10 28/12/12
f 19/11/11 28/12/12 18/13/13
f 18/13/13 28/12/12 29/14/14
f 18/13/13 29/14/14 17/15/15
f 17/15/15 29/14/14 30/16/16
f 17/15/15 30/16/16 16/17/17
f 16/17/17 30/16/16 31/18/18
f 16/17/17 31/18/18 15/19/19
f 15/19/19 31/18/18 32/20/20
f 15/19/19 32/20/20 14/21/21
f 14/21/21 32/20/20 33/22/22
f 14/21/21 33/22/22 13/23/23
f 13/23/23 33/22/22 12/24/24
f 12/24/24 33/22/22 34/25/25
f 12/26/24 34/27/25 11/28/26
f 11/28/26 34/27/25 35/29/27
f 11/28/26 35/29/27 36/30/28
f 23/2/2 2/1/1 44/31/29
f 44/31/29 2/1/1 3/32/30
f 44/31/29 3/32/30 43/33/31
f 43/33/31 3/32/30 4/34/32
f 43/33/31 4/34/32 42/35/33
f 42/35/33 4/34/32 5/36/34
f 42/35/33 5/36/34 41/37/35
f 41/37/35 5/36/34 6/38/36
f 41/37/35 6/38/36 40/39/37
f 40/39/37 6/38/36 7/40/38
f 40/39/37 7/40/38 39/41/39
f 39/41/39 7/40/38 8/42/40
f 39/41/39 8/42/40 38/43/41
f 38/43/41 8/42/40 9/44/42
f 38/43/41 9/44/42 37/45/43
f 37/45/43 9/44/42 10/46/44
f 37/45/43 10/46/44 36/30/28
f 36/30/28 10/46/44 11/28/26
f 46/47/45 61/48/46 45/49/47
f 45/49/47 61/48/46 62/50/48
f 45/49/47 62/50/48 60/51/49
f 60/51/49 62/50/48 63/52/50
f 60/51/49 63/52/50 59/53/51
f 59/53/51 63/52/50 58/54/52
f 58/54/52 63/52/50 66/55/53
f 58/54/52 66/55/53 57/56/54
f 57/56/54 66/55/53 69/57/55
f 57/56/54 69/57/55 56/58/56
f 56/58/56 69/57/55 72/59/57
f 56/58/56 72/59/57 55/60/58
f 55/60/58 72/59/57 75/61/59
f 55/60/58 75/61/59 54/62/60
f 54/62/60 75/61/59 78/63/61
f 54/62/60 78/63/61 53/64/62
f 53/64/62 78/63/61 77/65/63
f 53/64/62 77/65/63 52/66/64
f 52/66/64 77/65/63 76/67/65
f 52/66/64 76/67/65 51/68/66
f 51/68/66 76/67/65 50/69/67
f 50/69/67 76/67/65 73/70/68
f 50/69/67 73/70/68 49/71/69
f 49/71/69 73/70/68 70/72/70
f 49/71/69 70/72/70 48/73/71
f 48/73/71 70/72/70 67/74/72
f 48/73/71 67/74/72 47/75/73
f 47/75/73 67/74/72 64/76/74
f 47/75/73 64/76/74 46/47/45
f 46/47/45 64/76/74 61/48/46
f 66/55/53 63/52/50 62/50/48
f 62/50/48 61/48/46 65/77/75
f 65/77/75 61/48/46 64/76/74
f 65/77/75 64/76/74 68/78/76
f 68/78/76 64/76/74 67/74/72
f 68/78/76 67/74/72 71/79/77
f 71/79/77 67/74/72 70/72/70
f 71/79/77 70/72/70 74/80/78
f 74/80/78 70/72/70 73/70/68
f 74/80/78 73/70/68 77/65/63
f 77/65/63 73/70/68 76/67/65
f 69/57/55 66/55/53 65/77/75
f 65/77/75 66/55/53 62/50/48
f 69/57/55 65/77/75 68/78/76
f 72/59/57 69/57/55 68/78/76
f 72/59/57 68/78/76 71/79/77
f 75/61/59 72/59/57 71/79/77
f 75/61/59 71/79/77 74/80/78
f 78/63/61 75/61/59 74/80/78
f 78/63/61 74/80/78 77/65/63
f 80/81/79 95/82/80 79/83/81
f 79/83/81 95/82/80 96/84/82
f 79/83/81 96/84/82 94/85/83
f 94/85/83 96/84/82 97/86/84
f 94/85/83 97/86/84 93/87/85
f 93/87/85 97/86/84 92/88/86
f 92/88/86 97/86/84 100/89/87
f 92/88/86 100/89/87 91/90/88
f 91/90/88 100/89/87 103/91/89
f 91/90/88 103/91/89 90/92/90
f 90/92/90 103/91/89 106/93/91
f 90/92/90 106/93/91 89/94/92
f 89/94/92 106/93/91 109/95/93
f 89/94/92 109/95/93 88/96/94
f 88/96/94 109/95/93 112/97/95
f 88/96/94 112/97/95 87/98/96
f 87/98/96 112/97/95 111/99/97
f 87/98/96 111/99/97 86/100/98
f 86/100/98 111/99/97 110/101/99
f 86/100/98 110/101/99 85/102/100
f 85/102/100 110/101/99 84/103/101
f 84/103/101 110/101/99 107/104/102
f 84/103/101 107/104/102 83/105/103
f 83/105/103 107/104/102 104/106/104
f 83/105/103 104/106/104 82/107/105
f 82/107/105 104/106/104 101/108/106
f 82/107/105 101/108/106 81/109/107
f 81/109/107 101/108/106 98/110/108
f 81/109/107 98/110/108 80/81/79
f 80/81/79 98/110/108 95/82/80
f 100/89/87 97/86/84 96/84/82
f 96/84/82 95/82/80 99/111/109
f 99/111/109 95/82/80 98/110/108
f 99/111/109 98/110/108 102/112/110
f 102/112/110 98/110/108 101/108/106
f 102/112/110 101/108/106 105/113/111
f 105/113/111 101/108/106 104/106/104
f 105/113/111 104/106/104 108/114/112
f 108/114/112 104/106/104 107/104/102
f 108/114/112 107/104/102 111/99/97
f 111/99/97 107/104/102 110/101/99
f 103/91/89 100/89/87 99/111/109
f 99/111/109 100/89/87 96/84/82
f 103/91/89 99/111/109 102/112/110
f 106/93/91 103/91/89 102/112/110
f 106/93/91 102/112/110 105/113/111
f 109/95/93 106/93/91 105/113/111
f 109/95/93 105/113/111 108/114/112
f 112/97/95 109/95/93 108/114/112
f 112/97/95 108/114/112 111/99/97
f 113/115/113 114/116/114 116/117/115
f 116/117/115 114/116/114 115/118/116
f 117/119/117 118/120/118 120/121/119
f 120/121/119 118/120/118 119/122/120
f 121/123/121 122/124/122 124/125/123
f 124/125/123 122/124/122 123/126/124
f 125/127/125 126/128/126 128/129/127
f 128/129/127 126/128/126 127/130/128
f 129/131/129 130/132/130 132/133/131
f 132/133/131 130/132/130 131/134/132
f 133/135/133 134/136/134 136/137/135
f 136/137/135 134/136/134 135/138/136
f 120/139/137 113/140/138 117/141/139
f 117/141/139 113/140/138 116/142/140
f 137/143/141 138/144/142 140/145/143
f 140/145/143 138/144/142 139/146/144
f 140/147/145 121/148/146 137/149/147
f 137/149/147 121/148/146 124/150/148
f 141/151/149 142/152/150 144/153/151
f 144/153/151 142/152/150 143/154/152
f 115/155/153 145/156/154 116/157/155
f 116/157/155 145/156/154 117/158/156
f 117/158/156 145/156/154 160/159/157
f 117/158/156 160/159/157 118/160/158
f 146/161/159 152/162/160 145/156/154
f 145/156/154 152/162/160 155/163/161
f 145/156/154 155/163/161 156/164/162
f 138/165/163 137/166/164 146/161/159
f 146/161/159 137/166/164 124/167/165
f 146/161/159 124/167/165 147/168/166
f 147/168/166 124/167/165 123/169/167
f 148/170/168 94/171/169 147/168/166
f 147/168/166 94/171/169 93/172/170
f 147/168/166 93/172/170 146/161/159
f 146/161/159 93/172/170 92/173/171
f 146/161/159 92/173/171 91/174/172
f 91/174/172 90/175/173 146/161/159
f 146/161/159 90/175/173 151/176/174
f 146/161/159 151/176/174 152/162/160
f 90/175/173 89/177/175 151/176/174
f 151/176/174 89/177/175 88/178/176
f 151/176/174 88/178/176 87/179/177
f 149/180/178 150/181/179 87/179/177
f 87/179/177 150/181/179 151/176/174
f 142/182/180 141/183/181 150/181/179
f 150/181/179 141/183/181 151/176/174
f 155/163/161 152/162/160 153/184/182
f 153/184/182 152/162/160 130/185/183
f 153/184/182 130/185/183 129/186/184
f 153/184/182 154/187/185 155/163/161
f 155/163/161 154/187/185 135/188/186
f 135/188/186 154/187/185 136/189/187
f 128/190/188 157/191/189 156/164/162
f 156/164/162 157/191/189 60/192/190
f 156/164/162 60/192/190 59/193/191
f 128/190/188 127/194/192 157/191/189
f 157/191/189 158/195/193 60/192/190
f 59/193/191 58/196/194 156/164/162
f 156/164/162 58/196/194 57/197/195
f 156/164/162 57/197/195 145/156/154
f 145/156/154 57/197/195 56/198/196
f 145/156/154 56/198/196 55/199/197
f 55/199/197 54/200/198 145/156/154
f 145/156/154 54/200/198 160/159/157
f 54/200/198 53/201/199 160/159/157
f 160/159/157 53/201/199 159/202/200
f 114/203/201 113/204/202 161/205/203
f 161/205/203 113/204/202 120/206/204
f 161/205/203 120/206/204 162/207/205
f 162/207/205 120/206/204 119/208/206
f 163/209/207 52/210/208 162/207/205
f 162/207/205 52/210/208 51/211/209
f 162/207/205 51/211/209 161/205/203
f 161/205/203 51/211/209 50/212/210
f 161/205/203 50/212/210 49/213/211
f 49/213/211 48/214/212 161/205/203
f 161/205/203 48/214/212 166/215/213
f 161/205/203 166/215/213 167/216/214
f 48/214/212 47/217/215 166/215/213
f 166/215/213 47/217/215 46/218/216
f 166/215/213 46/218/216 45/219/217
f 164/220/218 165/221/219 45/219/217
f 45/219/217 165/221/219 166/215/213
f 126/222/220 125/223/221 165/221/219
f 165/221/219 125/223/221 166/215/213
f 134/224/222 168/225/223 167/216/214
f 167/216/214 168/225/223 169/226/224
f 167/216/214 169/226/224 170/227/225
f 170/227/225 169/226/224 131/228/226
f 131/228/226 169/226/224 132/229/227
f 134/224/222 133/230/228 168/225/223
f 171/231/229 176/232/230 170/227/225
f 170/227/225 176/232/230 161/205/203
f 170/227/225 161/205/203 167/216/214
f 144/233/231 172/234/232 171/231/229
f 171/231/229 172/234/232 86/235/233
f 171/231/229 86/235/233 85/236/234
f 144/233/231 143/237/235 172/234/232
f 172/234/232 173/238/236 86/235/233
f 85/236/234 84/239/237 171/231/229
f 171/231/229 84/239/237 83/240/238
f 171/231/229 83/240/238 176/232/230
f 176/232/230 83/240/238 82/241/239
f 176/232/230 82/241/239 81/242/240
f 81/242/240 80/243/241 176/232/230
f 176/232/230 80/243/241 175/244/242
f 176/232/230 175/244/242 121/245/243
f 121/245/243 175/244/242 122/246/244
f 80/243/241 79/247/245 175/244/242
f 175/244/242 79/247/245 174/248/246
f 121/245/243 140/249/247 176/232/230
f 176/232/230 140/249/247 139/250/248
f 136/251/249 154/252/250 133/253/251
f 133/253/251 154/252/250 168/254/252
f 153/255/253 129/256/254 169/257/255
f 169/257/255 129/256/254 132/258/256
f 153/259/257 28/260/258 154/261/259
f 154/261/259 28/260/258 27/262/260
f 154/261/259 27/262/260 26/263/261
f 169/264/262 34/265/263 153/259/257
f 153/259/257 34/265/263 33/266/264
f 153/259/257 33/266/264 32/267/265
f 168/268/266 39/269/267 169/264/262
f 169/264/262 39/269/267 38/270/268
f 169/264/262 38/270/268 37/271/269
f 154/261/259 23/272/270 168/268/266
f 168/268/266 23/272/270 44/273/271
f 168/268/266 44/273/271 43/274/272
f 43/274/272 42/275/273 168/268/266
f 168/268/266 42/275/273 41/276/274
f 168/268/266 41/276/274 40/277/275
f 40/277/275 39/269/267 168/268/266
f 37/271/269 36/278/276 169/264/262
f 169/264/262 36/278/276 35/279/277
f 169/264/262 35/279/277 34/265/263
f 32/267/265 31/280/278 153/259/257
f 153/259/257 31/280/278 30/281/279
f 153/259/257 30/281/279 29/282/280
f 29/282/280 28/260/258 153/259/257
f 26/263/261 25/283/281 154/261/259
f 154/261/259 25/283/281 24/284/282
f 154/261/259 24/284/282 23/272/270
f 130/285/283 152/286/284 131/287/285
f 131/287/285 152/286/284 170/288/286
f 151/289/287 141/290/288 171/291/289
f 171/291/289 141/290/288 144/292/290
f 152/293/291 151/294/292 170/295/293
f 170/295/293 151/294/292 171/296/294
f 128/297/295 156/298/296 125/299/297
f 125/299/297 156/298/296 166/300/298
f 155/301/299 135/302/300 167/303/301
f 167/303/301 135/302/300 134/304/302
f 156/305/303 155/306/304 166/307/305
f 166/307/305 155/306/304 167/308/306
f 147/309/307 123/310/308 175/311/309
f 175/311/309 123/310/308 122/312/310
f 148/313/311 147/314/312 174/315/313
f 174/315/313 147/314/312 175/316/314
f 94/317/83 148/318/315 79/319/81
f 79/319/81 148/318/315 174/320/316
f 149/321/317 87/322/96 173/323/318
f 173/323/318 87/322/96 86/324/98
f 150/325/319 149/326/320 172/327/321
f 172/327/321 149/326/320 173/328/322
f 142/329/323 150/330/324 143/331/325
f 143/331/325 150/330/324 172/332/326
f 118/333/327 160/334/328 119/335/329
f 119/335/329 160/334/328 162/336/330
f 157/337/331 127/338/332 165/339/333
f 165/339/333 127/338/332 126/340/334
f 158/341/335 157/342/336 164/343/337
f 164/343/337 157/342/336 165/344/338
f 60/345/49 158/346/339 45/347/47
f 45/347/47 158/346/339 164/348/340
f 159/349/341 53/350/62 163/351/342
f 163/351/342 53/350/62 52/352/64
f 160/353/343 159/354/344 162/355/345
f 162/355/345 159/354/344 163/356/346
f 145/357/347 115/358/348 161/359/349
f 161/359/349 115/358/348 114/360/350
f 145/361/351 17/362/352 146/363/353
f 146/363/353 17/362/352 16/364/354
f 146/363/353 16/364/354 15/365/355
f 161/366/356 2/367/357 145/361/351
f 145/361/351 2/367/357 1/368/358
f 145/361/351 1/368/358 22/369/359
f 176/370/360 6/371/361 161/366/356
f 161/366/356 6/371/361 5/372/362
f 161/366/356 5/372/362 4/373/363
f 146/363/353 11/374/364 176/370/360
f 176/370/360 11/374/364 10/375/365
f 176/370/360 10/375/365 9/376/366
f 22/369/359 21/377/367 145/361/351
f 145/361/351 21/377/367 20/378/368
f 145/361/351 20/378/368 19/379/369
f 19/379/369 18/380/370 145/361/351
f 145/361/351 18/380/370 17/362/352
f 15/365/355 14/381/371 146/363/353
f 146/363/353 14/381/371 13/382/372
f 146/363/353 13/382/372 12/383/373
f 12/383/373 11/374/364 146/363/353
f 9/376/366 8/384/374 176/370/360
f 176/370/360 8/384/374 7/385/375
f 176/370/360 7/385/375 6/371/361
f 4/373/363 3/386/376 161/366/356
f 161/366/356 3/386/376 2/367/357
f 138/387/377 146/388/378 139/389/379
f 139/389/379 146/388/378 176/390/380
# 176 vertices
# 390 texture params
# 380 normals
# 352 facets

# 1 groups
