# WaveFront *.obj file (generated by Autodesk ATF)

mtllib body24_visual.mtl

g Body24

v -27.004312 -0.209772 -1.743123
v -27.004312 -0.203922 -1.757659
v -27.004312 -0.194763 -1.770373
v -27.004312 -0.182827 -1.780526
v -27.004312 -0.168808 -1.787527
v -27.004312 -0.153521 -1.790970
v -27.004312 -0.137854 -1.790655
v -27.004312 -0.122719 -1.786599
v -27.004312 -0.108993 -1.779039
v -27.004312 -0.097476 -1.768414
v -27.004312 -0.088836 -1.755341
v -27.004312 -0.083575 -1.740581
v -27.004312 -0.082000 -1.724990
v -27.004312 -0.084202 -1.709476
v -27.004312 -0.090052 -1.694939
v -27.004312 -0.099212 -1.682225
v -27.004312 -0.111148 -1.672073
v -27.004312 -0.125166 -1.665071
v -27.004312 -0.140453 -1.661629
v -27.004312 -0.156120 -1.661944
v -27.004312 -0.171256 -1.666000
v -27.004312 -0.184981 -1.673560
v -27.004312 -0.196498 -1.684185
v -27.004312 -0.205138 -1.697257
v -27.004312 -0.210399 -1.712018
v -27.004312 -0.211974 -1.727608
v -26.994312 -0.200113 -1.740534
v -26.994312 -0.201987 -1.726299
v -26.994312 -0.200113 -1.712064
v -26.994312 -0.194619 -1.698799
v -26.994312 -0.185878 -1.687408
v -26.994312 -0.174487 -1.678668
v -26.994312 -0.161222 -1.673173
v -26.994312 -0.146987 -1.671299
v -26.994312 -0.132752 -1.673173
v -26.994312 -0.119487 -1.678668
v -26.994312 -0.108096 -1.687408
v -26.994312 -0.099356 -1.698799
v -26.994312 -0.093861 -1.712064
v -26.994312 -0.091987 -1.726299
v -26.994312 -0.093861 -1.740534
v -26.994312 -0.099356 -1.753799
v -26.994312 -0.108096 -1.765190
v -26.994312 -0.119487 -1.773931
v -26.994312 -0.132752 -1.779425
v -26.994312 -0.146987 -1.781299
v -26.994312 -0.161222 -1.779425
v -26.994312 -0.174487 -1.773931
v -26.994312 -0.185878 -1.765190
v -26.994312 -0.194619 -1.753799
v -26.999312 -0.085496 -1.709823
v -26.995652 -0.089032 -1.710770
v -26.999312 -0.202748 -1.757013
v -26.995652 -0.199542 -1.755247
v -26.995652 -0.204943 -1.741828
v -26.999312 -0.208478 -1.742776
v -26.999312 -0.193778 -1.769465
v -26.995652 -0.191087 -1.766983
v -26.999312 -0.182088 -1.779408
v -26.995652 -0.180070 -1.776355
v -26.999312 -0.168358 -1.786265
v -26.995652 -0.167129 -1.782817
v -26.999312 -0.153386 -1.789637
v -26.995652 -0.153018 -1.785995
v -26.999312 -0.138043 -1.789328
v -26.995652 -0.138557 -1.785704
v -26.999312 -0.123219 -1.785356
v -26.995652 -0.124585 -1.781960
v -26.999312 -0.109776 -1.777952
v -26.995652 -0.111916 -1.774982
v -26.999312 -0.098496 -1.767546
v -26.995652 -0.101284 -1.765174
v -26.999312 -0.090034 -1.754743
v -26.995652 -0.093309 -1.753107
v -26.999312 -0.084882 -1.740286
v -26.995652 -0.088453 -1.739482
v -26.999312 -0.083340 -1.725017
v -26.995652 -0.086999 -1.725091
v -26.999312 -0.091226 -1.695586
v -26.995652 -0.094432 -1.697352
v -26.999312 -0.100196 -1.683134
v -26.995652 -0.102887 -1.685616
v -26.999312 -0.111886 -1.673190
v -26.995652 -0.113905 -1.676244
v -26.999312 -0.125616 -1.666333
v -26.995652 -0.126845 -1.669781
v -26.999312 -0.140588 -1.662962
v -26.995652 -0.140956 -1.666603
v -26.999312 -0.155932 -1.663271
v -26.995652 -0.155417 -1.666895
v -26.999312 -0.170755 -1.667243
v -26.995652 -0.169389 -1.670638
v -26.999312 -0.184198 -1.674647
v -26.995652 -0.182058 -1.677617
v -26.999312 -0.195478 -1.685053
v -26.995652 -0.192690 -1.687424
v -26.999312 -0.203940 -1.697856
v -26.995652 -0.200665 -1.699491
v -26.999312 -0.209092 -1.712312
v -26.995652 -0.205521 -1.713116
v -26.999312 -0.210634 -1.727581
v -26.995652 -0.206975 -1.727508
v -28.174312 -0.200113 -1.740534
v -28.174312 -0.194619 -1.753799
v -28.174312 -0.185878 -1.765190
v -28.174312 -0.174487 -1.773931
v -28.174312 -0.161222 -1.779425
v -28.174312 -0.146987 -1.781299
v -28.174312 -0.132752 -1.779425
v -28.174312 -0.119487 -1.773931
v -28.174312 -0.108096 -1.765190
v -28.174312 -0.099356 -1.753799
v -28.174312 -0.093861 -1.740534
v -28.174312 -0.091987 -1.726299
v -28.174312 -0.093861 -1.712064
v -28.174312 -0.099356 -1.698799
v -28.174312 -0.108096 -1.687408
v -28.174312 -0.119487 -1.678668
v -28.174312 -0.132752 -1.673173
v -28.174312 -0.146987 -1.671299
v -28.174312 -0.161222 -1.673173
v -28.174312 -0.174487 -1.678668
v -28.174312 -0.185878 -1.687408
v -28.174312 -0.194619 -1.698799
v -28.174312 -0.200113 -1.712064
v -28.174312 -0.201987 -1.726299
v -28.164312 -0.209772 -1.743123
v -28.164312 -0.211974 -1.727608
v -28.164312 -0.210399 -1.712018
v -28.164312 -0.205138 -1.697257
v -28.164312 -0.196498 -1.684185
v -28.164312 -0.184981 -1.673560
v -28.164312 -0.171256 -1.666000
v -28.164312 -0.156120 -1.661944
v -28.164312 -0.140453 -1.661629
v -28.164312 -0.125166 -1.665071
v -28.164312 -0.111148 -1.672073
v -28.164312 -0.099212 -1.682225
v -28.164312 -0.090052 -1.694939
v -28.164312 -0.084202 -1.709476
v -28.164312 -0.082000 -1.724990
v -28.164312 -0.083575 -1.740581
v -28.164312 -0.088836 -1.755341
v -28.164312 -0.097476 -1.768414
v -28.164312 -0.108993 -1.779039
v -28.164312 -0.122719 -1.786599
v -28.164312 -0.137854 -1.790655
v -28.164312 -0.153521 -1.790970
v -28.164312 -0.168808 -1.787527
v -28.164312 -0.182827 -1.780526
v -28.164312 -0.194763 -1.770373
v -28.164312 -0.203922 -1.757659
v -28.172972 -0.089032 -1.710770
v -28.169312 -0.085496 -1.709823
v -28.172972 -0.199542 -1.755247
v -28.169312 -0.202748 -1.757013
v -28.169312 -0.208478 -1.742776
v -28.172972 -0.204943 -1.741828
v -28.172972 -0.191087 -1.766983
v -28.169312 -0.193778 -1.769465
v -28.172972 -0.180070 -1.776355
v -28.169312 -0.182088 -1.779408
v -28.172972 -0.167129 -1.782817
v -28.169312 -0.168358 -1.786265
v -28.172972 -0.153018 -1.785995
v -28.169312 -0.153386 -1.789637
v -28.172972 -0.138557 -1.785704
v -28.169312 -0.138043 -1.789328
v -28.172972 -0.124585 -1.781960
v -28.169312 -0.123219 -1.785356
v -28.172972 -0.111916 -1.774982
v -28.169312 -0.109776 -1.777952
v -28.172972 -0.101284 -1.765174
v -28.169312 -0.098496 -1.767546
v -28.172972 -0.093309 -1.753107
v -28.169312 -0.090034 -1.754743
v -28.172972 -0.088453 -1.739482
v -28.169312 -0.084882 -1.740286
v -28.172972 -0.086999 -1.725091
v -28.169312 -0.083340 -1.725017
v -28.172972 -0.094432 -1.697352
v -28.169312 -0.091226 -1.695586
v -28.172972 -0.102887 -1.685616
v -28.169312 -0.100196 -1.683134
v -28.172972 -0.113905 -1.676244
v -28.169312 -0.111886 -1.673190
v -28.172972 -0.126845 -1.669781
v -28.169312 -0.125616 -1.666333
v -28.172972 -0.140956 -1.666603
v -28.169312 -0.140588 -1.662962
v -28.172972 -0.155417 -1.666895
v -28.169312 -0.155932 -1.663271
v -28.172972 -0.169389 -1.670638
v -28.169312 -0.170755 -1.667243
v -28.172972 -0.182058 -1.677617
v -28.169312 -0.184198 -1.674647
v -28.172972 -0.192690 -1.687424
v -28.169312 -0.195478 -1.685053
v -28.172972 -0.200665 -1.699491
v -28.169312 -0.203940 -1.697856
v -28.172972 -0.205521 -1.713116
v -28.169312 -0.209092 -1.712312
v -28.172972 -0.206975 -1.727508
v -28.169312 -0.210634 -1.727581
v -27.874312 -0.084202 -1.709476
v -27.584312 -0.084202 -1.709476
v -27.294312 -0.084202 -1.709476
v -27.874312 -0.203922 -1.757659
v -27.584312 -0.203922 -1.757659
v -27.294312 -0.203922 -1.757659
v -27.294312 -0.209772 -1.743123
v -27.584312 -0.209772 -1.743123
v -27.874312 -0.209772 -1.743123
v -27.874312 -0.194763 -1.770373
v -27.584312 -0.194763 -1.770373
v -27.294312 -0.194763 -1.770373
v -27.874312 -0.182827 -1.780526
v -27.584312 -0.182827 -1.780526
v -27.294312 -0.182827 -1.780526
v -27.874312 -0.168808 -1.787527
v -27.584312 -0.168808 -1.787527
v -27.294312 -0.168808 -1.787527
v -27.874312 -0.153521 -1.790970
v -27.584312 -0.153521 -1.790970
v -27.294312 -0.153521 -1.790970
v -27.874312 -0.137854 -1.790655
v -27.584312 -0.137854 -1.790655
v -27.294312 -0.137854 -1.790655
v -27.874312 -0.122719 -1.786599
v -27.584312 -0.122719 -1.786599
v -27.294312 -0.122719 -1.786599
v -27.874312 -0.108993 -1.779039
v -27.584312 -0.108993 -1.779039
v -27.294312 -0.108993 -1.779039
v -27.874312 -0.097476 -1.768414
v -27.584312 -0.097476 -1.768414
v -27.294312 -0.097476 -1.768414
v -27.874312 -0.088836 -1.755341
v -27.584312 -0.088836 -1.755341
v -27.294312 -0.088836 -1.755341
v -27.874312 -0.083575 -1.740581
v -27.584312 -0.083575 -1.740581
v -27.294312 -0.083575 -1.740581
v -27.874312 -0.082000 -1.724990
v -27.584312 -0.082000 -1.724990
v -27.294312 -0.082000 -1.724990
v -27.874312 -0.090052 -1.694939
v -27.584312 -0.090052 -1.694939
v -27.294312 -0.090052 -1.694939
v -27.874312 -0.099212 -1.682225
v -27.584312 -0.099212 -1.682225
v -27.294312 -0.099212 -1.682225
v -27.874312 -0.111148 -1.672073
v -27.584312 -0.111148 -1.672073
v -27.294312 -0.111148 -1.672073
v -27.874312 -0.125166 -1.665071
v -27.584312 -0.125166 -1.665071
v -27.294312 -0.125166 -1.665071
v -27.874312 -0.140453 -1.661629
v -27.584312 -0.140453 -1.661629
v -27.294312 -0.140453 -1.661629
v -27.874312 -0.156120 -1.661944
v -27.584312 -0.156120 -1.661944
v -27.294312 -0.156120 -1.661944
v -27.874312 -0.171256 -1.666000
v -27.584312 -0.171256 -1.666000
v -27.294312 -0.171256 -1.666000
v -27.874312 -0.184981 -1.673560
v -27.584312 -0.184981 -1.673560
v -27.294312 -0.184981 -1.673560
v -27.874312 -0.196498 -1.684185
v -27.584312 -0.196498 -1.684185
v -27.294312 -0.196498 -1.684185
v -27.874312 -0.205138 -1.697257
v -27.584312 -0.205138 -1.697257
v -27.294312 -0.205138 -1.697257
v -27.874312 -0.210399 -1.712018
v -27.584312 -0.210399 -1.712018
v -27.294312 -0.210399 -1.712018
v -27.874312 -0.211974 -1.727608
v -27.584312 -0.211974 -1.727608
v -27.294312 -0.211974 -1.727608
vt -0.000000 0.015000 0.000000
vt -0.005236 0.015000 0.000000
vt -0.000000 0.000000 0.000000
vt -0.005236 0.000000 0.000000
vt -0.000000 -0.015000 0.000000
vt -0.005236 -0.015000 0.000000
vt -0.000000 -0.030000 0.000000
vt -0.005236 -0.030000 0.000000
vt -0.000000 -0.045000 0.000000
vt -0.005236 -0.045000 0.000000
vt -0.000000 -0.060001 0.000000
vt -0.005236 -0.060001 0.000000
vt -0.000000 -0.075001 0.000000
vt -0.005236 -0.075001 0.000000
vt -0.000000 -0.090001 0.000000
vt -0.005236 -0.090001 0.000000
vt -0.000000 -0.105001 0.000000
vt -0.005236 -0.105001 0.000000
vt -0.000000 -0.120001 0.000000
vt -0.005236 -0.120001 0.000000
vt -0.000000 -0.135001 0.000000
vt -0.005236 -0.135001 0.000000
vt -0.000000 -0.150002 0.000000
vt -0.005236 -0.150002 0.000000
vt 0.000000 -0.165002 0.000000
vt -0.005236 -0.165002 0.000000
vt 0.000000 -0.180002 0.000000
vt -0.005236 -0.180002 0.000000
vt 0.000000 -0.195002 0.000000
vt -0.005236 -0.195002 0.000000
vt 0.000000 0.195002 0.000000
vt -0.005236 0.195002 0.000000
vt 0.000000 0.180002 0.000000
vt -0.005236 0.180002 0.000000
vt 0.000000 0.165002 0.000000
vt -0.005236 0.165002 0.000000
vt 0.000000 0.150002 0.000000
vt -0.005236 0.150002 0.000000
vt 0.000000 0.135001 0.000000
vt -0.005236 0.135001 0.000000
vt 0.000000 0.120001 0.000000
vt -0.005236 0.120001 0.000000
vt 0.000000 0.105001 0.000000
vt -0.005236 0.105001 0.000000
vt 0.000000 0.090001 0.000000
vt -0.005236 0.090001 0.000000
vt 0.000000 0.075001 0.000000
vt -0.005236 0.075001 0.000000
vt 0.000000 0.060001 0.000000
vt -0.005236 0.060001 0.000000
vt 0.000000 0.045000 0.000000
vt -0.005236 0.045000 0.000000
vt -0.000000 0.030000 0.000000
vt -0.005236 0.030000 0.000000
vt -0.015708 -0.016250 0.000000
vt -0.010472 -0.015000 0.000000
vt -0.015708 0.000000 0.000000
vt -0.010472 0.000000 0.000000
vt -0.010472 0.015000 0.000000
vt -0.010472 -0.030000 0.000000
vt -0.015708 -0.032500 0.000000
vt -0.010472 -0.045000 0.000000
vt -0.015708 -0.048751 0.000000
vt -0.010472 -0.060001 0.000000
vt -0.015708 -0.065001 0.000000
vt -0.010472 -0.075001 0.000000
vt -0.015708 -0.081251 0.000000
vt -0.010472 -0.090001 0.000000
vt -0.015708 -0.097501 0.000000
vt -0.010472 -0.105001 0.000000
vt -0.015708 -0.113751 0.000000
vt -0.010472 -0.120001 0.000000
vt -0.015708 -0.130001 0.000000
vt -0.010472 -0.135001 0.000000
vt -0.015708 -0.146252 0.000000
vt -0.010472 -0.150002 0.000000
vt -0.015708 -0.162502 0.000000
vt -0.010472 -0.165002 0.000000
vt -0.015708 -0.178752 0.000000
vt -0.010472 -0.180002 0.000000
vt -0.015708 -0.195002 0.000000
vt -0.010472 -0.195002 0.000000
vt -0.010472 0.195002 0.000000
vt -0.015708 0.195002 0.000000
vt -0.010472 0.180002 0.000000
vt -0.015708 0.178752 0.000000
vt -0.010472 0.165002 0.000000
vt -0.015708 0.162502 0.000000
vt -0.010472 0.150002 0.000000
vt -0.015708 0.146252 0.000000
vt -0.010472 0.135001 0.000000
vt -0.015708 0.130001 0.000000
vt -0.010472 0.120001 0.000000
vt -0.015708 0.113751 0.000000
vt -0.010472 0.105001 0.000000
vt -0.015708 0.097501 0.000000
vt -0.010472 0.090001 0.000000
vt -0.015708 0.081251 0.000000
vt -0.010472 0.075001 0.000000
vt -0.015708 0.065001 0.000000
vt -0.010472 0.060001 0.000000
vt -0.015708 0.048751 0.000000
vt -0.010472 0.045000 0.000000
vt -0.015708 0.032500 0.000000
vt -0.010472 0.030000 0.000000
vt -0.015708 0.016250 0.000000
vt 0.015708 0.016250 0.000000
vt 0.010472 0.015000 0.000000
vt 0.015708 0.000000 0.000000
vt 0.010472 0.000000 0.000000
vt 0.010472 -0.015000 0.000000
vt 0.005236 -0.000000 0.000000
vt 0.005236 -0.015000 0.000000
vt -0.000000 -0.000000 0.000000
vt -0.000000 -0.015000 0.000000
vt 0.010472 0.030000 0.000000
vt 0.015708 0.032500 0.000000
vt 0.010472 0.045000 0.000000
vt 0.015708 0.048751 0.000000
vt 0.010472 0.060001 0.000000
vt 0.015708 0.065001 0.000000
vt 0.010472 0.075001 0.000000
vt 0.015708 0.081251 0.000000
vt 0.010472 0.090001 0.000000
vt 0.015708 0.097501 0.000000
vt 0.010472 0.105001 0.000000
vt 0.015708 0.113751 0.000000
vt 0.010472 0.120001 0.000000
vt 0.015708 0.130001 0.000000
vt 0.010472 0.135001 0.000000
vt 0.015708 0.146252 0.000000
vt 0.010472 0.150002 0.000000
vt 0.015708 0.162502 0.000000
vt 0.010472 0.165002 0.000000
vt 0.015708 0.178752 0.000000
vt 0.010472 0.180002 0.000000
vt 0.015708 0.195002 0.000000
vt 0.010472 0.195002 0.000000
vt 0.010472 -0.195002 0.000000
vt 0.015708 -0.195002 0.000000
vt 0.010472 -0.180002 0.000000
vt 0.005236 -0.180002 0.000000
vt 0.005236 -0.165002 0.000000
vt 0.000000 -0.165002 0.000000
vt -0.000000 -0.150002 0.000000
vt 0.005236 -0.150002 0.000000
vt -0.000000 -0.135001 0.000000
vt 0.005236 -0.135001 0.000000
vt -0.000000 -0.120001 0.000000
vt 0.005236 -0.120001 0.000000
vt -0.000000 -0.105001 0.000000
vt 0.005236 -0.105001 0.000000
vt -0.000000 -0.090001 0.000000
vt 0.005236 -0.090001 0.000000
vt -0.000000 -0.075001 0.000000
vt 0.005236 -0.075001 0.000000
vt -0.000000 -0.060001 0.000000
vt 0.005236 -0.060001 0.000000
vt -0.000000 -0.045000 0.000000
vt 0.005236 -0.045000 0.000000
vt -0.000000 -0.030000 0.000000
vt 0.005236 -0.030000 0.000000
vt 0.015708 -0.178752 0.000000
vt 0.010472 -0.165002 0.000000
vt 0.015708 -0.162502 0.000000
vt 0.010472 -0.150002 0.000000
vt 0.015708 -0.146252 0.000000
vt 0.010472 -0.135001 0.000000
vt 0.015708 -0.130001 0.000000
vt 0.010472 -0.120001 0.000000
vt 0.015708 -0.113751 0.000000
vt 0.010472 -0.105001 0.000000
vt 0.015708 -0.097501 0.000000
vt 0.010472 -0.090001 0.000000
vt 0.015708 -0.081251 0.000000
vt 0.010472 -0.075001 0.000000
vt 0.015708 -0.065001 0.000000
vt 0.010472 -0.060001 0.000000
vt 0.015708 -0.048751 0.000000
vt 0.010472 -0.045000 0.000000
vt 0.015708 -0.032500 0.000000
vt 0.010472 -0.030000 0.000000
vt 0.015708 -0.016250 0.000000
vt 0.000000 -0.180002 0.000000
vt 0.005236 -0.195002 0.000000
vt 0.005236 0.195002 0.000000
vt 0.000000 -0.195002 0.000000
vt 0.000000 0.195002 0.000000
vt 0.005236 0.180002 0.000000
vt 0.000000 0.180002 0.000000
vt 0.005236 0.165002 0.000000
vt 0.000000 0.165002 0.000000
vt 0.005236 0.150002 0.000000
vt 0.000000 0.150002 0.000000
vt 0.005236 0.135001 0.000000
vt 0.000000 0.135001 0.000000
vt 0.005236 0.120001 0.000000
vt 0.000000 0.120001 0.000000
vt 0.005236 0.105001 0.000000
vt 0.000000 0.105001 0.000000
vt 0.005236 0.090001 0.000000
vt 0.000000 0.090001 0.000000
vt 0.005236 0.075001 0.000000
vt 0.000000 0.075001 0.000000
vt 0.005236 0.060001 0.000000
vt 0.000000 0.060001 0.000000
vt 0.005236 0.045000 0.000000
vt 0.000000 0.045000 0.000000
vt 0.005236 0.030000 0.000000
vt -0.000000 0.030000 0.000000
vt 0.005236 0.015000 0.000000
vt -0.000000 0.015000 0.000000
vt -0.010000 0.015708 0.000000
vt -0.300000 0.015708 0.000000
vt -0.010000 -0.000000 0.000000
vt -0.300000 -0.000000 0.000000
vt -0.010000 -0.015708 0.000000
vt -0.300000 -0.015708 0.000000
vt -0.010000 -0.031416 0.000000
vt -0.300000 -0.031416 0.000000
vt -0.010000 -0.047124 0.000000
vt -0.300000 -0.047124 0.000000
vt -0.010000 -0.062832 0.000000
vt -0.300000 -0.062832 0.000000
vt -0.010000 -0.078540 0.000000
vt -0.300000 -0.078540 0.000000
vt -0.010000 -0.094248 0.000000
vt -0.300000 -0.094248 0.000000
vt -0.010000 -0.109956 0.000000
vt -0.300000 -0.109956 0.000000
vt -0.010000 -0.125664 0.000000
vt -0.300000 -0.125664 0.000000
vt -0.010000 -0.141372 0.000000
vt -0.300000 -0.141372 0.000000
vt -0.010000 -0.157080 0.000000
vt -0.300000 -0.157080 0.000000
vt -0.010000 -0.172788 0.000000
vt -0.300000 -0.172788 0.000000
vt -0.010000 -0.188496 0.000000
vt -0.300000 -0.188496 0.000000
vt -0.010000 -0.204204 0.000000
vt -0.300000 -0.204204 0.000000
vt -0.010000 0.204204 0.000000
vt -0.300000 0.204204 0.000000
vt -0.010000 0.188496 0.000000
vt -0.300000 0.188496 0.000000
vt -0.010000 0.172788 0.000000
vt -0.300000 0.172788 0.000000
vt -0.010000 0.157080 0.000000
vt -0.300000 0.157080 0.000000
vt -0.010000 0.141372 0.000000
vt -0.300000 0.141372 0.000000
vt -0.010000 0.125664 0.000000
vt -0.300000 0.125664 0.000000
vt -0.010000 0.109956 0.000000
vt -0.300000 0.109956 0.000000
vt -0.010000 0.094248 0.000000
vt -0.300000 0.094248 0.000000
vt -0.010000 0.078540 0.000000
vt -0.300000 0.078540 0.000000
vt -0.010000 0.062832 0.000000
vt -0.300000 0.062832 0.000000
vt -0.010000 0.047124 0.000000
vt -0.300000 0.047124 0.000000
vt -0.010000 0.031416 0.000000
vt -0.300000 0.031416 0.000000
vt -1.170000 -0.015708 0.000000
vt -0.880000 -0.015708 0.000000
vt -1.170000 -0.000000 0.000000
vt -0.880000 -0.000000 0.000000
vt -1.170000 0.015708 0.000000
vt -0.880000 0.015708 0.000000
vt -1.170000 0.031416 0.000000
vt -0.880000 0.031416 0.000000
vt -1.170000 0.047124 0.000000
vt -0.880000 0.047124 0.000000
vt -1.170000 0.062832 0.000000
vt -0.880000 0.062832 0.000000
vt -1.170000 0.078540 0.000000
vt -0.880000 0.078540 0.000000
vt -1.170000 0.094248 0.000000
vt -0.880000 0.094248 0.000000
vt -1.170000 0.109956 0.000000
vt -0.880000 0.109956 0.000000
vt -1.170000 0.125664 0.000000
vt -0.880000 0.125664 0.000000
vt -1.170000 0.141372 0.000000
vt -0.880000 0.141372 0.000000
vt -1.170000 0.157080 0.000000
vt -0.880000 0.157080 0.000000
vt -1.170000 0.172788 0.000000
vt -0.880000 0.172788 0.000000
vt -1.170000 0.188496 0.000000
vt -0.880000 0.188496 0.000000
vt -1.170000 0.204204 0.000000
vt -0.880000 0.204204 0.000000
vt -1.170000 -0.204204 0.000000
vt -0.880000 -0.204204 0.000000
vt -1.170000 -0.188496 0.000000
vt -0.880000 -0.188496 0.000000
vt -1.170000 -0.172788 0.000000
vt -0.880000 -0.172788 0.000000
vt -1.170000 -0.157080 0.000000
vt -0.880000 -0.157080 0.000000
vt -1.170000 -0.141372 0.000000
vt -0.880000 -0.141372 0.000000
vt -1.170000 -0.125664 0.000000
vt -0.880000 -0.125664 0.000000
vt -1.170000 -0.109956 0.000000
vt -0.880000 -0.109956 0.000000
vt -1.170000 -0.094248 0.000000
vt -0.880000 -0.094248 0.000000
vt -1.170000 -0.078540 0.000000
vt -0.880000 -0.078540 0.000000
vt -1.170000 -0.062832 0.000000
vt -0.880000 -0.062832 0.000000
vt -1.170000 -0.047124 0.000000
vt -0.880000 -0.047124 0.000000
vt -1.170000 -0.031416 0.000000
vt -0.880000 -0.031416 0.000000
vt -0.590000 0.204204 0.000000
vt -0.590000 0.188496 0.000000
vt -0.590000 0.172788 0.000000
vt -0.590000 0.157080 0.000000
vt -0.590000 0.141372 0.000000
vt -0.590000 0.125664 0.000000
vt -0.590000 0.109956 0.000000
vt -0.590000 0.094248 0.000000
vt -0.590000 0.078540 0.000000
vt -0.590000 0.062832 0.000000
vt -0.590000 0.047124 0.000000
vt -0.590000 0.031416 0.000000
vt -0.590000 0.015708 0.000000
vt -0.590000 -0.000000 0.000000
vt -0.590000 -0.015708 0.000000
vt -0.590000 -0.031416 0.000000
vt -0.590000 -0.047124 0.000000
vt -0.590000 -0.062832 0.000000
vt -0.590000 -0.078540 0.000000
vt -0.590000 -0.094248 0.000000
vt -0.590000 -0.109956 0.000000
vt -0.590000 -0.125664 0.000000
vt -0.590000 -0.141372 0.000000
vt -0.590000 -0.157080 0.000000
vt -0.590000 -0.172788 0.000000
vt -0.590000 -0.188496 0.000000
vt -0.590000 -0.204204 0.000000
vt -0.053126 -0.014235 0.000000
vt 0.053126 -0.014235 0.000000
vt -0.055000 0.000000 0.000000
vt 0.055000 0.000000 0.000000
vt -0.053126 0.014235 0.000000
vt 0.053126 0.014235 0.000000
vt -0.047631 0.027500 0.000000
vt 0.047631 0.027500 0.000000
vt -0.038891 0.038891 0.000000
vt 0.038891 0.038891 0.000000
vt -0.027500 0.047631 0.000000
vt 0.027500 0.047631 0.000000
vt -0.014235 0.053126 0.000000
vt 0.014235 0.053126 0.000000
vt -0.000000 0.055000 0.000000
vt 0.047631 -0.027500 0.000000
vt -0.047631 -0.027500 0.000000
vt 0.038891 -0.038891 0.000000
vt -0.038891 -0.038891 0.000000
vt 0.027500 -0.047631 0.000000
vt -0.027500 -0.047631 0.000000
vt 0.014235 -0.053126 0.000000
vt -0.014235 -0.053126 0.000000
vt 0.000000 -0.055000 0.000000
vt 0.053126 0.014235 0.000000
vt -0.053126 0.014235 0.000000
vt 0.055000 0.000000 0.000000
vt -0.055000 0.000000 0.000000
vt 0.053126 -0.014235 0.000000
vt -0.053126 -0.014235 0.000000
vt 0.047631 -0.027500 0.000000
vt -0.047631 -0.027500 0.000000
vt 0.038891 -0.038891 0.000000
vt -0.038891 -0.038891 0.000000
vt 0.027500 -0.047631 0.000000
vt -0.027500 -0.047631 0.000000
vt 0.014235 -0.053126 0.000000
vt -0.014235 -0.053126 0.000000
vt -0.000000 -0.055000 0.000000
vt -0.047631 0.027500 0.000000
vt 0.047631 0.027500 0.000000
vt -0.038891 0.038891 0.000000
vt 0.038891 0.038891 0.000000
vt -0.027500 0.047631 0.000000
vt 0.027500 0.047631 0.000000
vt -0.014235 0.053126 0.000000
vt 0.014235 0.053126 0.000000
vt 0.000000 0.055000 0.000000
vn 0.000000 -0.875918 -0.482459
vn 0.500000 -0.758568 -0.417822
vn 0.000000 -0.965926 -0.258819
vn 0.500000 -0.836516 -0.224144
vn 0.000000 -0.999797 -0.020137
vn 0.500000 -0.865850 -0.017439
vn 0.000000 -0.975564 0.219715
vn 0.500000 -0.844863 0.190279
vn 0.000000 -0.894635 0.446798
vn 0.500000 -0.774776 0.386939
vn 0.000000 -0.761712 0.647915
vn 0.500000 -0.659662 0.561111
vn 0.000000 -0.584522 0.811378
vn 0.500000 -0.506211 0.702674
vn 0.000000 -0.373361 0.927686
vn 0.500000 -0.323341 0.803400
vn 0.000000 -0.140502 0.990080
vn 0.500000 -0.121679 0.857435
vn 0.000000 0.100522 0.994935
vn 0.500000 0.087055 0.861639
vn 0.000000 0.335705 0.941967
vn 0.500000 0.290729 0.815768
vn 0.000000 0.551377 0.834256
vn 0.500000 0.477507 0.722487
vn -0.000000 0.735006 0.678061
vn 0.500000 0.636534 0.587218
vn -0.000000 0.875918 0.482459
vn 0.500000 0.758568 0.417822
vn -0.000000 0.965926 0.258819
vn 0.500000 0.836516 0.224144
vn -0.000000 0.999797 0.020137
vn 0.500000 0.865850 0.017439
vn -0.000000 0.975564 -0.219715
vn 0.500000 0.844863 -0.190279
vn -0.000000 0.894635 -0.446798
vn 0.500000 0.774776 -0.386939
vn -0.000000 0.761712 -0.647915
vn 0.500000 0.659662 -0.561111
vn -0.000000 0.584522 -0.811378
vn 0.500000 0.506211 -0.702674
vn -0.000000 0.373361 -0.927686
vn 0.500000 0.323341 -0.803400
vn -0.000000 0.140502 -0.990080
vn 0.500000 0.121679 -0.857435
vn -0.000000 -0.100522 -0.994935
vn 0.500000 -0.087055 -0.861639
vn -0.000000 -0.335705 -0.941967
vn 0.500000 -0.290729 -0.815768
vn -0.000000 -0.551377 -0.834256
vn 0.500000 -0.477507 -0.722487
vn 0.000000 -0.735006 -0.678061
vn 0.500000 -0.636534 -0.587218
vn 1.000000 -0.000000 0.000000
vn 0.866025 -0.499899 -0.010069
vn 1.000000 -0.000000 0.000000
vn 0.866025 -0.482963 -0.129410
vn 0.866025 -0.437959 -0.241230
vn 0.866025 -0.487782 0.109858
vn 1.000000 -0.000000 0.000000
vn 0.866025 -0.447317 0.223399
vn 1.000000 -0.000000 0.000000
vn 0.866025 -0.380856 0.323958
vn 1.000000 0.000000 -0.000000
vn 0.866025 -0.292261 0.405689
vn 1.000000 0.000000 -0.000000
vn 0.866025 -0.186681 0.463843
vn 1.000000 -0.000000 0.000000
vn 0.866025 -0.070251 0.495040
vn 1.000000 -0.000000 0.000000
vn 0.866025 0.050261 0.497467
vn 1.000000 -0.000000 0.000000
vn 0.866025 0.167852 0.470984
vn 1.000000 -0.000000 0.000000
vn 0.866025 0.275689 0.417128
vn 1.000000 0.000000 0.000000
vn 0.866025 0.367503 0.339030
vn 1.000000 -0.000000 -0.000000
vn 0.866025 0.437959 0.241230
vn 1.000000 -0.000000 0.000000
vn 0.866025 0.482963 0.129410
vn 0.866025 0.499899 0.010069
vn 1.000000 -0.000000 0.000000
vn 0.866025 0.487782 -0.109858
vn 1.000000 -0.000000 0.000000
vn 0.866025 0.447317 -0.223399
vn 1.000000 -0.000000 0.000000
vn 0.866025 0.380856 -0.323958
vn 1.000000 -0.000000 0.000000
vn 0.866025 0.292261 -0.405689
vn 1.000000 -0.000000 0.000000
vn 0.866025 0.186681 -0.463843
vn 1.000000 -0.000000 -0.000000
vn 0.866025 0.070251 -0.495040
vn 1.000000 -0.000000 -0.000000
vn 0.866025 -0.050261 -0.497467
vn 1.000000 -0.000000 -0.000000
vn 0.866025 -0.167852 -0.470984
vn 1.000000 -0.000000 -0.000000
vn 0.866025 -0.275689 -0.417128
vn 1.000000 -0.000000 -0.000000
vn 0.866025 -0.367503 -0.339030
vn 1.000000 -0.000000 0.000000
vn -1.000000 0.000000 0.000000
vn -0.866025 -0.437959 -0.241230
vn -1.000000 -0.000000 -0.000000
vn -0.866025 -0.482963 -0.129410
vn -0.866025 -0.499899 -0.010069
vn -0.500000 -0.836516 -0.224144
vn -0.500000 -0.865850 -0.017439
vn 0.000000 -0.965926 -0.258819
vn 0.000000 -0.999797 -0.020137
vn -0.866025 -0.367503 -0.339030
vn -1.000000 0.000000 -0.000000
vn -0.866025 -0.275689 -0.417128
vn -1.000000 0.000000 -0.000000
vn -0.866025 -0.167852 -0.470984
vn -1.000000 0.000000 -0.000000
vn -0.866025 -0.050261 -0.497467
vn -1.000000 0.000000 -0.000000
vn -0.866025 0.070251 -0.495040
vn -1.000000 0.000000 -0.000000
vn -0.866025 0.186681 -0.463843
vn -1.000000 -0.000000 0.000000
vn -0.866025 0.292261 -0.405689
vn -1.000000 0.000000 0.000000
vn -0.866025 0.380856 -0.323958
vn -1.000000 0.000000 -0.000000
vn -0.866025 0.447317 -0.223399
vn -1.000000 0.000000 -0.000000
vn -0.866025 0.487782 -0.109858
vn -1.000000 0.000000 -0.000000
vn -0.866025 0.499899 0.010069
vn -1.000000 0.000000 -0.000000
vn -0.866025 0.482963 0.129410
vn -0.866025 0.437959 0.241230
vn -0.500000 0.758568 0.417822
vn -0.500000 0.636534 0.587218
vn -0.000000 0.735006 0.678061
vn 0.000000 0.551377 0.834256
vn -0.500000 0.477507 0.722487
vn 0.000000 0.335705 0.941967
vn -0.500000 0.290729 0.815768
vn 0.000000 0.100522 0.994935
vn -0.500000 0.087055 0.861639
vn 0.000000 -0.140502 0.990080
vn -0.500000 -0.121679 0.857435
vn 0.000000 -0.373361 0.927686
vn -0.500000 -0.323341 0.803400
vn 0.000000 -0.584522 0.811378
vn -0.500000 -0.506211 0.702674
vn 0.000000 -0.761712 0.647915
vn -0.500000 -0.659662 0.561111
vn 0.000000 -0.894635 0.446798
vn -0.500000 -0.774776 0.386939
vn 0.000000 -0.975564 0.219715
vn -0.500000 -0.844863 0.190279
vn -1.000000 0.000000 -0.000000
vn -0.866025 0.367503 0.339030
vn -1.000000 0.000000 0.000000
vn -0.866025 0.275689 0.417128
vn -1.000000 0.000000 0.000000
vn -0.866025 0.167852 0.470984
vn -1.000000 0.000000 0.000000
vn -0.866025 0.050261 0.497467
vn -1.000000 0.000000 0.000000
vn -0.866025 -0.070251 0.495040
vn -1.000000 0.000000 0.000000
vn -0.866025 -0.186681 0.463843
vn -1.000000 0.000000 -0.000000
vn -0.866025 -0.292261 0.405689
vn -1.000000 0.000000 -0.000000
vn -0.866025 -0.380856 0.323958
vn -1.000000 0.000000 -0.000000
vn -0.866025 -0.447317 0.223399
vn -1.000000 0.000000 -0.000000
vn -0.866025 -0.487782 0.109858
vn -1.000000 0.000000 -0.000000
vn -0.000000 0.875918 0.482459
vn -0.500000 0.836516 0.224144
vn -0.000000 0.965926 0.258819
vn -0.500000 0.865850 0.017439
vn -0.000000 0.999797 0.020137
vn -0.500000 0.844863 -0.190279
vn -0.000000 0.975564 -0.219715
vn -0.500000 0.774776 -0.386939
vn -0.000000 0.894635 -0.446798
vn -0.500000 0.659662 -0.561111
vn -0.000000 0.761712 -0.647915
vn -0.500000 0.506211 -0.702674
vn -0.000000 0.584522 -0.811378
vn -0.500000 0.323341 -0.803400
vn -0.000000 0.373361 -0.927686
vn -0.500000 0.121679 -0.857435
vn -0.000000 0.140502 -0.990080
vn -0.500000 -0.087055 -0.861639
vn -0.000000 -0.100522 -0.994935
vn -0.500000 -0.290729 -0.815768
vn -0.000000 -0.335705 -0.941967
vn -0.500000 -0.477507 -0.722487
vn -0.000000 -0.551377 -0.834256
vn -0.500000 -0.636534 -0.587218
vn 0.000000 -0.735006 -0.678061
vn -0.500000 -0.758568 -0.417822
vn 0.000000 -0.875918 -0.482459
vn -0.000000 -0.875918 -0.482459
vn -0.000000 -0.965926 -0.258819
vn -0.000000 -0.999797 -0.020137
vn -0.000000 -0.975564 0.219715
vn -0.000000 -0.894635 0.446798
vn -0.000000 -0.761712 0.647915
vn -0.000000 -0.584522 0.811378
vn -0.000000 -0.373361 0.927686
vn -0.000000 -0.140502 0.990080
vn -0.000000 0.100522 0.994935
vn -0.000000 0.335705 0.941967
vn -0.000000 0.551377 0.834256
vn 0.000000 0.735006 0.678061
vn 0.000000 0.875918 0.482459
vn 0.000000 0.965926 0.258819
vn 0.000000 0.999797 0.020137
vn 0.000000 0.975564 -0.219715
vn 0.000000 0.894635 -0.446798
vn 0.000000 0.761712 -0.647915
vn 0.000000 0.584522 -0.811378
vn 0.000000 0.373361 -0.927686
vn 0.000000 0.140502 -0.990080
vn 0.000000 -0.100522 -0.994935
vn 0.000000 -0.335705 -0.941967
vn 0.000000 -0.551377 -0.834256
vn -0.000000 -0.735006 -0.678061
vn -0.000000 -0.999797 -0.020137
vn -0.000000 -0.965926 -0.258819
vn -0.000000 -0.875918 -0.482459
vn -0.000000 -0.735006 -0.678061
vn 0.000000 -0.551377 -0.834256
vn 0.000000 -0.335705 -0.941967
vn 0.000000 -0.100522 -0.994935
vn 0.000000 0.140502 -0.990080
vn 0.000000 0.373361 -0.927686
vn 0.000000 0.584522 -0.811378
vn 0.000000 0.761712 -0.647915
vn 0.000000 0.894635 -0.446798
vn 0.000000 0.975564 -0.219715
vn 0.000000 0.999797 0.020137
vn 0.000000 0.965926 0.258819
vn 0.000000 0.875918 0.482459
vn 0.000000 0.735006 0.678061
vn -0.000000 0.551377 0.834256
vn -0.000000 0.335705 0.941967
vn -0.000000 0.100522 0.994935
vn -0.000000 -0.140502 0.990080
vn -0.000000 -0.373361 0.927686
vn -0.000000 -0.584522 0.811378
vn -0.000000 -0.761712 0.647915
vn -0.000000 -0.894635 0.446798
vn -0.000000 -0.975564 0.219715
vn 0.000000 0.965926 0.258819
vn 0.000000 0.999797 0.020137
vn 0.000000 0.975564 -0.219715
vn 0.000000 0.894635 -0.446798
vn 0.000000 0.761712 -0.647915
vn 0.000000 0.584522 -0.811378
vn 0.000000 0.373361 -0.927686
vn 0.000000 0.140502 -0.990080
vn 0.000000 -0.100522 -0.994935
vn 0.000000 -0.335705 -0.941967
vn 0.000000 -0.551377 -0.834256
vn -0.000000 -0.735006 -0.678061
vn -0.000000 -0.875918 -0.482459
vn -0.000000 -0.965926 -0.258819
vn -0.000000 -0.999797 -0.020137
vn -0.000000 -0.975564 0.219715
vn -0.000000 -0.894635 0.446798
vn -0.000000 -0.761712 0.647915
vn -0.000000 -0.584522 0.811378
vn -0.000000 -0.373361 0.927686
vn -0.000000 -0.140502 0.990080
vn -0.000000 0.100522 0.994935
vn -0.000000 0.335705 0.941967
vn -0.000000 0.551377 0.834256
vn 0.000000 0.735006 0.678061
vn 0.000000 0.875918 0.482459
usemtl Opaque(202,209,238)
f 2/1/1 53/2/2 1/3/3
f 1/3/3 53/2/2 56/4/4
f 1/3/3 56/4/4 26/5/5
f 26/5/5 56/4/4 101/6/6
f 26/5/5 101/6/6 25/7/7
f 25/7/7 101/6/6 99/8/8
f 25/7/7 99/8/8 24/9/9
f 24/9/9 99/8/8 97/10/10
f 24/9/9 97/10/10 23/11/11
f 23/11/11 97/10/10 95/12/12
f 23/11/11 95/12/12 22/13/13
f 22/13/13 95/12/12 93/14/14
f 22/13/13 93/14/14 21/15/15
f 21/15/15 93/14/14 91/16/16
f 21/15/15 91/16/16 20/17/17
f 20/17/17 91/16/16 89/18/18
f 20/17/17 89/18/18 19/19/19
f 19/19/19 89/18/18 87/20/20
f 19/19/19 87/20/20 18/21/21
f 18/21/21 87/20/20 85/22/22
f 18/21/21 85/22/22 17/23/23
f 17/23/23 85/22/22 83/24/24
f 17/23/23 83/24/24 16/25/25
f 16/25/25 83/24/24 81/26/26
f 16/25/25 81/26/26 15/27/27
f 15/27/27 81/26/26 79/28/28
f 15/27/27 79/28/28 14/29/29
f 14/29/29 79/28/28 51/30/30
f 14/31/29 51/32/30 13/33/31
f 13/33/31 51/32/30 77/34/32
f 13/33/31 77/34/32 12/35/33
f 12/35/33 77/34/32 75/36/34
f 12/35/33 75/36/34 11/37/35
f 11/37/35 75/36/34 73/38/36
f 11/37/35 73/38/36 10/39/37
f 10/39/37 73/38/36 71/40/38
f 10/39/37 71/40/38 9/41/39
f 9/41/39 71/40/38 69/42/40
f 9/41/39 69/42/40 8/43/41
f 8/43/41 69/42/40 67/44/42
f 8/43/41 67/44/42 7/45/43
f 7/45/43 67/44/42 65/46/44
f 7/45/43 65/46/44 6/47/45
f 6/47/45 65/46/44 63/48/46
f 6/47/45 63/48/46 5/49/47
f 5/49/47 63/48/46 61/50/48
f 5/49/47 61/50/48 4/51/49
f 4/51/49 61/50/48 59/52/50
f 4/51/49 59/52/50 3/53/51
f 3/53/51 59/52/50 57/54/52
f 3/53/51 57/54/52 2/1/1
f 2/1/1 57/54/52 53/2/2
f 28/55/53 102/56/54 27/57/55
f 27/57/55 102/56/54 55/58/56
f 27/57/55 55/58/56 54/59/57
f 54/59/57 55/58/56 56/4/4
f 54/59/57 56/4/4 53/2/2
f 102/56/54 28/55/53 100/60/58
f 100/60/58 28/55/53 29/61/59
f 100/60/58 29/61/59 98/62/60
f 98/62/60 29/61/59 30/63/61
f 98/62/60 30/63/61 96/64/62
f 96/64/62 30/63/61 31/65/63
f 96/64/62 31/65/63 94/66/64
f 94/66/64 31/65/63 32/67/65
f 94/66/64 32/67/65 92/68/66
f 92/68/66 32/67/65 33/69/67
f 92/68/66 33/69/67 90/70/68
f 90/70/68 33/69/67 34/71/69
f 90/70/68 34/71/69 88/72/70
f 88/72/70 34/71/69 35/73/71
f 88/72/70 35/73/71 86/74/72
f 86/74/72 35/73/71 36/75/73
f 86/74/72 36/75/73 84/76/74
f 84/76/74 36/75/73 37/77/75
f 84/76/74 37/77/75 82/78/76
f 82/78/76 37/77/75 38/79/77
f 82/78/76 38/79/77 80/80/78
f 80/80/78 38/79/77 39/81/79
f 80/80/78 39/81/79 52/82/80
f 52/83/80 39/84/79 78/85/81
f 52/83/80 78/85/81 77/34/32
f 77/34/32 78/85/81 75/36/34
f 39/84/79 40/86/82 78/85/81
f 78/85/81 40/86/82 76/87/83
f 78/85/81 76/87/83 75/36/34
f 75/36/34 76/87/83 73/38/36
f 40/86/82 41/88/84 76/87/83
f 76/87/83 41/88/84 74/89/85
f 76/87/83 74/89/85 73/38/36
f 73/38/36 74/89/85 71/40/38
f 41/88/84 42/90/86 74/89/85
f 74/89/85 42/90/86 72/91/87
f 74/89/85 72/91/87 71/40/38
f 71/40/38 72/91/87 69/42/40
f 42/90/86 43/92/88 72/91/87
f 72/91/87 43/92/88 70/93/89
f 72/91/87 70/93/89 69/42/40
f 69/42/40 70/93/89 67/44/42
f 43/92/88 44/94/90 70/93/89
f 70/93/89 44/94/90 68/95/91
f 70/93/89 68/95/91 67/44/42
f 67/44/42 68/95/91 65/46/44
f 44/94/90 45/96/92 68/95/91
f 68/95/91 45/96/92 66/97/93
f 68/95/91 66/97/93 65/46/44
f 65/46/44 66/97/93 63/48/46
f 45/96/92 46/98/94 66/97/93
f 66/97/93 46/98/94 64/99/95
f 66/97/93 64/99/95 63/48/46
f 63/48/46 64/99/95 61/50/48
f 46/98/94 47/100/96 64/99/95
f 64/99/95 47/100/96 62/101/97
f 64/99/95 62/101/97 61/50/48
f 61/50/48 62/101/97 59/52/50
f 47/100/96 48/102/98 62/101/97
f 62/101/97 48/102/98 60/103/99
f 62/101/97 60/103/99 59/52/50
f 59/52/50 60/103/99 57/54/52
f 48/102/98 49/104/100 60/103/99
f 60/103/99 49/104/100 58/105/101
f 60/103/99 58/105/101 57/54/52
f 57/54/52 58/105/101 53/2/2
f 49/104/100 50/106/102 58/105/101
f 58/105/101 50/106/102 54/59/57
f 58/105/101 54/59/57 53/2/2
f 50/106/102 27/57/55 54/59/57
f 80/80/78 52/82/80 51/30/30
f 51/32/30 52/83/80 77/34/32
f 80/80/78 51/30/30 79/28/28
f 101/6/6 56/4/4 55/58/56
f 101/6/6 55/58/56 102/56/54
f 82/78/76 80/80/78 79/28/28
f 82/78/76 79/28/28 81/26/26
f 84/76/74 82/78/76 81/26/26
f 84/76/74 81/26/26 83/24/24
f 86/74/72 84/76/74 83/24/24
f 86/74/72 83/24/24 85/22/22
f 88/72/70 86/74/72 85/22/22
f 88/72/70 85/22/22 87/20/20
f 90/70/68 88/72/70 87/20/20
f 90/70/68 87/20/20 89/18/18
f 92/68/66 90/70/68 89/18/18
f 92/68/66 89/18/18 91/16/16
f 94/66/64 92/68/66 91/16/16
f 94/66/64 91/16/16 93/14/14
f 96/64/62 94/66/64 93/14/14
f 96/64/62 93/14/14 95/12/12
f 98/62/60 96/64/62 95/12/12
f 98/62/60 95/12/12 97/10/10
f 100/60/58 98/62/60 97/10/10
f 100/60/58 97/10/10 99/8/8
f 102/56/54 100/60/58 99/8/8
f 102/56/54 99/8/8 101/6/6
f 104/107/103 155/108/104 103/109/105
f 103/109/105 155/108/104 158/110/106
f 103/109/105 158/110/106 203/111/107
f 203/111/107 158/110/106 157/112/108
f 203/111/107 157/112/108 204/113/109
f 204/113/109 157/112/108 127/114/110
f 204/113/109 127/114/110 128/115/111
f 155/108/104 104/107/103 159/116/112
f 159/116/112 104/107/103 105/117/113
f 159/116/112 105/117/113 161/118/114
f 161/118/114 105/117/113 106/119/115
f 161/118/114 106/119/115 163/120/116
f 163/120/116 106/119/115 107/121/117
f 163/120/116 107/121/117 165/122/118
f 165/122/118 107/121/117 108/123/119
f 165/122/118 108/123/119 167/124/120
f 167/124/120 108/123/119 109/125/121
f 167/124/120 109/125/121 169/126/122
f 169/126/122 109/125/121 110/127/123
f 169/126/122 110/127/123 171/128/124
f 171/128/124 110/127/123 111/129/125
f 171/128/124 111/129/125 173/130/126
f 173/130/126 111/129/125 112/131/127
f 173/130/126 112/131/127 175/132/128
f 175/132/128 112/131/127 113/133/129
f 175/132/128 113/133/129 177/134/130
f 177/134/130 113/133/129 114/135/131
f 177/134/130 114/135/131 179/136/132
f 179/136/132 114/135/131 115/137/133
f 179/136/132 115/137/133 153/138/134
f 153/139/134 115/140/133 181/141/135
f 153/139/134 181/141/135 182/142/136
f 182/142/136 181/141/135 184/143/137
f 182/142/136 184/143/137 138/144/138
f 138/144/138 184/143/137 137/145/139
f 137/145/139 184/143/137 186/146/140
f 137/145/139 186/146/140 136/147/141
f 136/147/141 186/146/140 188/148/142
f 136/147/141 188/148/142 135/149/143
f 135/149/143 188/148/142 190/150/144
f 135/149/143 190/150/144 134/151/145
f 134/151/145 190/150/144 192/152/146
f 134/151/145 192/152/146 133/153/147
f 133/153/147 192/152/146 194/154/148
f 133/153/147 194/154/148 132/155/149
f 132/155/149 194/154/148 196/156/150
f 132/155/149 196/156/150 131/157/151
f 131/157/151 196/156/150 198/158/152
f 131/157/151 198/158/152 130/159/153
f 130/159/153 198/158/152 200/160/154
f 130/159/153 200/160/154 129/161/155
f 129/161/155 200/160/154 202/162/156
f 129/161/155 202/162/156 128/115/111
f 128/115/111 202/162/156 204/113/109
f 115/140/133 116/163/157 181/141/135
f 181/141/135 116/163/157 183/164/158
f 181/141/135 183/164/158 184/143/137
f 184/143/137 183/164/158 186/146/140
f 116/163/157 117/165/159 183/164/158
f 183/164/158 117/165/159 185/166/160
f 183/164/158 185/166/160 186/146/140
f 186/146/140 185/166/160 188/148/142
f 117/165/159 118/167/161 185/166/160
f 185/166/160 118/167/161 187/168/162
f 185/166/160 187/168/162 188/148/142
f 188/148/142 187/168/162 190/150/144
f 118/167/161 119/169/163 187/168/162
f 187/168/162 119/169/163 189/170/164
f 187/168/162 189/170/164 190/150/144
f 190/150/144 189/170/164 192/152/146
f 119/169/163 120/171/165 189/170/164
f 189/170/164 120/171/165 191/172/166
f 189/170/164 191/172/166 192/152/146
f 192/152/146 191/172/166 194/154/148
f 120/171/165 121/173/167 191/172/166
f 191/172/166 121/173/167 193/174/168
f 191/172/166 193/174/168 194/154/148
f 194/154/148 193/174/168 196/156/150
f 121/173/167 122/175/169 193/174/168
f 193/174/168 122/175/169 195/176/170
f 193/174/168 195/176/170 196/156/150
f 196/156/150 195/176/170 198/158/152
f 122/175/169 123/177/171 195/176/170
f 195/176/170 123/177/171 197/178/172
f 195/176/170 197/178/172 198/158/152
f 198/158/152 197/178/172 200/160/154
f 123/177/171 124/179/173 197/178/172
f 197/178/172 124/179/173 199/180/174
f 197/178/172 199/180/174 200/160/154
f 200/160/154 199/180/174 202/162/156
f 124/179/173 125/181/175 199/180/174
f 199/180/174 125/181/175 201/182/176
f 199/180/174 201/182/176 202/162/156
f 202/162/156 201/182/176 204/113/109
f 125/181/175 126/183/177 201/182/176
f 201/182/176 126/183/177 203/111/107
f 201/182/176 203/111/107 204/113/109
f 126/183/177 103/109/105 203/111/107
f 138/144/138 139/184/178 182/142/136
f 182/142/136 139/184/178 154/185/179
f 182/142/136 154/185/179 153/139/134
f 153/138/134 154/186/179 179/136/132
f 139/184/178 140/187/180 154/185/179
f 154/186/179 140/188/180 180/189/181
f 154/186/179 180/189/181 179/136/132
f 179/136/132 180/189/181 177/134/130
f 140/188/180 141/190/182 180/189/181
f 180/189/181 141/190/182 178/191/183
f 180/189/181 178/191/183 177/134/130
f 177/134/130 178/191/183 175/132/128
f 141/190/182 142/192/184 178/191/183
f 178/191/183 142/192/184 176/193/185
f 178/191/183 176/193/185 175/132/128
f 175/132/128 176/193/185 173/130/126
f 142/192/184 143/194/186 176/193/185
f 176/193/185 143/194/186 174/195/187
f 176/193/185 174/195/187 173/130/126
f 173/130/126 174/195/187 171/128/124
f 143/194/186 144/196/188 174/195/187
f 174/195/187 144/196/188 172/197/189
f 174/195/187 172/197/189 171/128/124
f 171/128/124 172/197/189 169/126/122
f 144/196/188 145/198/190 172/197/189
f 172/197/189 145/198/190 170/199/191
f 172/197/189 170/199/191 169/126/122
f 169/126/122 170/199/191 167/124/120
f 145/198/190 146/200/192 170/199/191
f 170/199/191 146/200/192 168/201/193
f 170/199/191 168/201/193 167/124/120
f 167/124/120 168/201/193 165/122/118
f 146/200/192 147/202/194 168/201/193
f 168/201/193 147/202/194 166/203/195
f 168/201/193 166/203/195 165/122/118
f 165/122/118 166/203/195 163/120/116
f 147/202/194 148/204/196 166/203/195
f 166/203/195 148/204/196 164/205/197
f 166/203/195 164/205/197 163/120/116
f 163/120/116 164/205/197 161/118/114
f 148/204/196 149/206/198 164/205/197
f 164/205/197 149/206/198 162/207/199
f 164/205/197 162/207/199 161/118/114
f 161/118/114 162/207/199 159/116/112
f 149/206/198 150/208/200 162/207/199
f 162/207/199 150/208/200 160/209/201
f 162/207/199 160/209/201 159/116/112
f 159/116/112 160/209/201 155/108/104
f 150/208/200 151/210/202 160/209/201
f 160/209/201 151/210/202 156/211/203
f 160/209/201 156/211/203 155/108/104
f 155/108/104 156/211/203 158/110/106
f 151/210/202 152/212/204 156/211/203
f 156/211/203 152/212/204 157/112/108
f 156/211/203 157/112/108 158/110/106
f 152/212/204 127/114/110 157/112/108
f 152/213/204 208/214/205 127/215/110
f 127/215/110 208/214/205 213/216/206
f 127/215/110 213/216/206 128/217/111
f 128/217/111 213/216/206 280/218/207
f 128/217/111 280/218/207 129/219/155
f 129/219/155 280/218/207 277/220/208
f 129/219/155 277/220/208 130/221/153
f 130/221/153 277/220/208 274/222/209
f 130/221/153 274/222/209 131/223/151
f 131/223/151 274/222/209 271/224/210
f 131/223/151 271/224/210 132/225/149
f 132/225/149 271/224/210 268/226/211
f 132/225/149 268/226/211 133/227/147
f 133/227/147 268/226/211 265/228/212
f 133/227/147 265/228/212 134/229/145
f 134/229/145 265/228/212 262/230/213
f 134/229/145 262/230/213 135/231/143
f 135/231/143 262/230/213 259/232/214
f 135/231/143 259/232/214 136/233/141
f 136/233/141 259/232/214 256/234/215
f 136/233/141 256/234/215 137/235/139
f 137/235/139 256/234/215 253/236/216
f 137/235/139 253/236/216 138/237/138
f 138/237/138 253/236/216 250/238/217
f 138/237/138 250/238/217 139/239/178
f 139/239/178 250/238/217 247/240/218
f 139/239/178 247/240/218 140/241/180
f 140/241/180 247/240/218 205/242/219
f 140/243/180 205/244/219 141/245/182
f 141/245/182 205/244/219 244/246/220
f 141/245/182 244/246/220 142/247/184
f 142/247/184 244/246/220 241/248/221
f 142/247/184 241/248/221 143/249/186
f 143/249/186 241/248/221 238/250/222
f 143/249/186 238/250/222 144/251/188
f 144/251/188 238/250/222 235/252/223
f 144/251/188 235/252/223 145/253/190
f 145/253/190 235/252/223 232/254/224
f 145/253/190 232/254/224 146/255/192
f 146/255/192 232/254/224 229/256/225
f 146/255/192 229/256/225 147/257/194
f 147/257/194 229/256/225 226/258/226
f 147/257/194 226/258/226 148/259/196
f 148/259/196 226/258/226 223/260/227
f 148/259/196 223/260/227 149/261/198
f 149/261/198 223/260/227 220/262/228
f 149/261/198 220/262/228 150/263/200
f 150/263/200 220/262/228 217/264/229
f 150/263/200 217/264/229 151/265/202
f 151/265/202 217/264/229 214/266/230
f 151/265/202 214/266/230 152/213/204
f 152/213/204 214/266/230 208/214/205
f 26/267/5 282/268/231 1/269/3
f 1/269/3 282/268/231 211/270/232
f 1/269/3 211/270/232 2/271/1
f 2/271/1 211/270/232 210/272/233
f 2/271/1 210/272/233 3/273/51
f 3/273/51 210/272/233 216/274/234
f 3/273/51 216/274/234 4/275/49
f 4/275/49 216/274/234 219/276/235
f 4/275/49 219/276/235 5/277/47
f 5/277/47 219/276/235 222/278/236
f 5/277/47 222/278/236 6/279/45
f 6/279/45 222/278/236 225/280/237
f 6/279/45 225/280/237 7/281/43
f 7/281/43 225/280/237 228/282/238
f 7/281/43 228/282/238 8/283/41
f 8/283/41 228/282/238 231/284/239
f 8/283/41 231/284/239 9/285/39
f 9/285/39 231/284/239 234/286/240
f 9/285/39 234/286/240 10/287/37
f 10/287/37 234/286/240 237/288/241
f 10/287/37 237/288/241 11/289/35
f 11/289/35 237/288/241 240/290/242
f 11/289/35 240/290/242 12/291/33
f 12/291/33 240/290/242 243/292/243
f 12/291/33 243/292/243 13/293/31
f 13/293/31 243/292/243 246/294/244
f 13/293/31 246/294/244 14/295/29
f 14/295/29 246/294/244 207/296/245
f 14/297/29 207/298/245 15/299/27
f 15/299/27 207/298/245 249/300/246
f 15/299/27 249/300/246 16/301/25
f 16/301/25 249/300/246 252/302/247
f 16/301/25 252/302/247 17/303/23
f 17/303/23 252/302/247 255/304/248
f 17/303/23 255/304/248 18/305/21
f 18/305/21 255/304/248 258/306/249
f 18/305/21 258/306/249 19/307/19
f 19/307/19 258/306/249 261/308/250
f 19/307/19 261/308/250 20/309/17
f 20/309/17 261/308/250 264/310/251
f 20/309/17 264/310/251 21/311/15
f 21/311/15 264/310/251 267/312/252
f 21/311/15 267/312/252 22/313/13
f 22/313/13 267/312/252 270/314/253
f 22/313/13 270/314/253 23/315/11
f 23/315/11 270/314/253 273/316/254
f 23/315/11 273/316/254 24/317/9
f 24/317/9 273/316/254 276/318/255
f 24/317/9 276/318/255 25/319/7
f 25/319/7 276/318/255 279/320/256
f 25/319/7 279/320/256 26/267/5
f 26/267/5 279/320/256 282/268/231
f 205/244/219 206/321/257 244/246/220
f 244/246/220 206/321/257 245/322/258
f 244/246/220 245/322/258 241/248/221
f 241/248/221 245/322/258 242/323/259
f 241/248/221 242/323/259 238/250/222
f 238/250/222 242/323/259 239/324/260
f 238/250/222 239/324/260 235/252/223
f 235/252/223 239/324/260 236/325/261
f 235/252/223 236/325/261 232/254/224
f 232/254/224 236/325/261 233/326/262
f 232/254/224 233/326/262 229/256/225
f 229/256/225 233/326/262 230/327/263
f 229/256/225 230/327/263 226/258/226
f 226/258/226 230/327/263 227/328/264
f 226/258/226 227/328/264 223/260/227
f 223/260/227 227/328/264 224/329/265
f 223/260/227 224/329/265 220/262/228
f 220/262/228 224/329/265 221/330/266
f 220/262/228 221/330/266 217/264/229
f 217/264/229 221/330/266 218/331/267
f 217/264/229 218/331/267 214/266/230
f 214/266/230 218/331/267 215/332/268
f 214/266/230 215/332/268 208/214/205
f 208/214/205 215/332/268 209/333/269
f 208/214/205 209/333/269 213/216/206
f 213/216/206 209/333/269 212/334/270
f 213/216/206 212/334/270 280/218/207
f 280/218/207 212/334/270 281/335/271
f 280/218/207 281/335/271 277/220/208
f 277/220/208 281/335/271 278/336/272
f 277/220/208 278/336/272 274/222/209
f 274/222/209 278/336/272 275/337/273
f 274/222/209 275/337/273 271/224/210
f 271/224/210 275/337/273 272/338/274
f 271/224/210 272/338/274 268/226/211
f 268/226/211 272/338/274 269/339/275
f 268/226/211 269/339/275 265/228/212
f 265/228/212 269/339/275 266/340/276
f 265/228/212 266/340/276 262/230/213
f 262/230/213 266/340/276 263/341/277
f 262/230/213 263/341/277 259/232/214
f 259/232/214 263/341/277 260/342/278
f 259/232/214 260/342/278 256/234/215
f 256/234/215 260/342/278 257/343/279
f 256/234/215 257/343/279 253/236/216
f 253/236/216 257/343/279 254/344/280
f 253/236/216 254/344/280 250/238/217
f 250/238/217 254/344/280 251/345/281
f 250/238/217 251/345/281 247/240/218
f 247/240/218 251/345/281 248/346/282
f 247/240/218 248/346/282 205/242/219
f 205/242/219 248/346/282 206/347/257
f 206/321/257 207/296/245 245/322/258
f 245/322/258 207/296/245 246/294/244
f 245/322/258 246/294/244 242/323/259
f 242/323/259 246/294/244 243/292/243
f 242/323/259 243/292/243 239/324/260
f 239/324/260 243/292/243 240/290/242
f 239/324/260 240/290/242 236/325/261
f 236/325/261 240/290/242 237/288/241
f 236/325/261 237/288/241 233/326/262
f 233/326/262 237/288/241 234/286/240
f 233/326/262 234/286/240 230/327/263
f 230/327/263 234/286/240 231/284/239
f 230/327/263 231/284/239 227/328/264
f 227/328/264 231/284/239 228/282/238
f 227/328/264 228/282/238 224/329/265
f 224/329/265 228/282/238 225/280/237
f 224/329/265 225/280/237 221/330/266
f 221/330/266 225/280/237 222/278/236
f 221/330/266 222/278/236 218/331/267
f 218/331/267 222/278/236 219/276/235
f 218/331/267 219/276/235 215/332/268
f 215/332/268 219/276/235 216/274/234
f 215/332/268 216/274/234 209/333/269
f 209/333/269 216/274/234 210/272/233
f 209/333/269 210/272/233 212/334/270
f 212/334/270 210/272/233 211/270/232
f 212/334/270 211/270/232 281/335/271
f 281/335/271 211/270/232 282/268/231
f 281/335/271 282/268/231 278/336/272
f 278/336/272 282/268/231 279/320/256
f 278/336/272 279/320/256 275/337/273
f 275/337/273 279/320/256 276/318/255
f 275/337/273 276/318/255 272/338/274
f 272/338/274 276/318/255 273/316/254
f 272/338/274 273/316/254 269/339/275
f 269/339/275 273/316/254 270/314/253
f 269/339/275 270/314/253 266/340/276
f 266/340/276 270/314/253 267/312/252
f 266/340/276 267/312/252 263/341/277
f 263/341/277 267/312/252 264/310/251
f 263/341/277 264/310/251 260/342/278
f 260/342/278 264/310/251 261/308/250
f 260/342/278 261/308/250 257/343/279
f 257/343/279 261/308/250 258/306/249
f 257/343/279 258/306/249 254/344/280
f 254/344/280 258/306/249 255/304/248
f 254/344/280 255/304/248 251/345/281
f 251/345/281 255/304/248 252/302/247
f 251/345/281 252/302/247 248/346/282
f 248/346/282 252/302/247 249/300/246
f 248/346/282 249/300/246 206/347/257
f 206/347/257 249/300/246 207/298/245
f 126/348/177 116/349/157 103/350/105
f 103/350/105 116/349/157 115/351/133
f 103/350/105 115/351/133 104/352/103
f 104/352/103 115/351/133 114/353/131
f 104/352/103 114/353/131 105/354/113
f 105/354/113 114/353/131 113/355/129
f 105/354/113 113/355/129 106/356/115
f 106/356/115 113/355/129 112/357/127
f 106/356/115 112/357/127 107/358/117
f 107/358/117 112/357/127 111/359/125
f 107/358/117 111/359/125 108/360/119
f 108/360/119 111/359/125 110/361/123
f 108/360/119 110/361/123 109/362/121
f 116/349/157 126/348/177 117/363/159
f 117/363/159 126/348/177 125/364/175
f 117/363/159 125/364/175 118/365/161
f 118/365/161 125/364/175 124/366/173
f 118/365/161 124/366/173 119/367/163
f 119/367/163 124/366/173 123/368/171
f 119/367/163 123/368/171 120/369/165
f 120/369/165 123/368/171 122/370/169
f 120/369/165 122/370/169 121/371/167
f 50/372/102 40/373/82 27/374/55
f 27/374/55 40/373/82 39/375/79
f 27/374/55 39/375/79 28/376/53
f 28/376/53 39/375/79 38/377/77
f 28/376/53 38/377/77 29/378/59
f 29/378/59 38/377/77 37/379/75
f 29/378/59 37/379/75 30/380/61
f 30/380/61 37/379/75 36/381/73
f 30/380/61 36/381/73 31/382/63
f 31/382/63 36/381/73 35/383/71
f 31/382/63 35/383/71 32/384/65
f 32/384/65 35/383/71 34/385/69
f 32/384/65 34/385/69 33/386/67
f 40/373/82 50/372/102 41/387/84
f 41/387/84 50/372/102 49/388/100
f 41/387/84 49/388/100 42/389/86
f 42/389/86 49/388/100 48/390/98
f 42/389/86 48/390/98 43/391/88
f 43/391/88 48/390/98 47/392/96
f 43/391/88 47/392/96 44/393/90
f 44/393/90 47/392/96 46/394/94
f 44/393/90 46/394/94 45/395/92
# 282 vertices
# 395 texture params
# 282 normals
# 560 facets

# 1 groups
