# WaveFront *.obj file (generated by Autodesk ATF)

mtllib body134_visual.mtl

g Body134

v -27.280000 -1.046299 -4.438788
v -27.280000 -1.032168 -4.437099
v -27.280000 -1.018134 -4.439459
v -27.280000 -1.005333 -4.445677
v -27.280000 -0.994802 -4.455250
v -27.280000 -0.987395 -4.467402
v -27.280000 -0.983712 -4.481149
v -27.280000 -0.984051 -4.495376
v -27.280000 -0.988384 -4.508932
v -27.280000 -0.996361 -4.520718
v -27.280000 -1.007335 -4.529779
v -27.280000 -1.020417 -4.535381
v -27.230000 -1.020417 -4.535381
v -27.230000 -1.007335 -4.529779
v -27.230000 -0.996361 -4.520718
v -27.230000 -0.988384 -4.508932
v -27.230000 -0.984051 -4.495376
v -27.230000 -0.983712 -4.481149
v -27.230000 -0.987395 -4.467402
v -27.230000 -0.994802 -4.455250
v -27.230000 -1.005333 -4.445677
v -27.230000 -1.018134 -4.439459
v -27.230000 -1.032168 -4.437099
v -27.230000 -1.046299 -4.438788
v -27.880000 -1.216884 -4.536260
v -27.880000 -1.207227 -4.563699
v -27.880000 -1.193494 -4.589342
v -27.880000 -1.176008 -4.612588
v -27.880000 -1.155178 -4.632893
v -27.880000 -1.131493 -4.649780
v -27.880000 -1.105507 -4.662853
v -27.880000 -1.077831 -4.671807
v -27.880000 -1.049112 -4.676431
v -27.880000 -1.020024 -4.676616
v -27.880000 -0.991248 -4.672360
v -27.880000 -0.963460 -4.663760
v -27.880000 -0.937310 -4.651020
v -27.880000 -0.913411 -4.634437
v -27.880000 -0.892323 -4.614400
v -27.880000 -0.874542 -4.591379
v -27.880000 -0.860482 -4.565913
v -27.880000 -0.850475 -4.538600
v -27.880000 -0.844755 -4.510079
v -27.880000 -0.843455 -4.481020
v -27.880000 -0.846607 -4.452102
v -27.880000 -0.854135 -4.424005
v -27.880000 -0.865865 -4.397386
v -27.880000 -0.881520 -4.372869
v -27.880000 -0.900735 -4.351030
v -27.880000 -0.923058 -4.332379
v -27.880000 -0.947966 -4.317355
v -27.880000 -0.974876 -4.306309
v -27.880000 -1.003157 -4.299500
v -27.880000 -1.032145 -4.297089
v -27.880000 -1.061162 -4.299130
v -27.880000 -1.089527 -4.305577
v -27.880000 -1.116576 -4.316278
v -27.880000 -1.141674 -4.330983
v -27.880000 -1.164234 -4.349347
v -27.880000 -1.183725 -4.370939
v -27.880000 -1.199693 -4.395254
v -27.880000 -1.211761 -4.421721
v -27.880000 -1.219648 -4.449720
v -27.880000 -1.223169 -4.478595
v -27.880000 -1.222240 -4.507669
v -28.230000 -1.216884 -4.536260
v -28.230000 -1.222240 -4.507669
v -28.230000 -1.223169 -4.478595
v -28.230000 -1.219648 -4.449720
v -28.230000 -1.211761 -4.421721
v -28.230000 -1.199693 -4.395254
v -28.230000 -1.183725 -4.370939
v -28.230000 -1.164234 -4.349347
v -28.230000 -1.141674 -4.330983
v -28.230000 -1.116576 -4.316278
v -28.230000 -1.089527 -4.305577
v -28.230000 -1.061162 -4.299130
v -28.230000 -1.032145 -4.297089
v -28.230000 -1.003157 -4.299500
v -28.230000 -0.974876 -4.306309
v -28.230000 -0.947966 -4.317355
v -28.230000 -0.923058 -4.332379
v -28.230000 -0.900735 -4.351030
v -28.230000 -0.881520 -4.372869
v -28.230000 -0.865865 -4.397386
v -28.230000 -0.854135 -4.424005
v -28.230000 -0.846607 -4.452102
v -28.230000 -0.843455 -4.481020
v -28.230000 -0.844755 -4.510079
v -28.230000 -0.850475 -4.538600
v -28.230000 -0.860482 -4.565913
v -28.230000 -0.874542 -4.591379
v -28.230000 -0.892323 -4.614400
v -28.230000 -0.913411 -4.634437
v -28.230000 -0.937310 -4.651020
v -28.230000 -0.963460 -4.663760
v -28.230000 -0.991248 -4.672360
v -28.230000 -1.020024 -4.676616
v -28.230000 -1.049112 -4.676431
v -28.230000 -1.077831 -4.671807
v -28.230000 -1.105507 -4.662853
v -28.230000 -1.131493 -4.649780
v -28.230000 -1.155178 -4.632893
v -28.230000 -1.176008 -4.612588
v -28.230000 -1.193494 -4.589342
v -28.230000 -1.207227 -4.563699
v -27.280000 -1.305180 -4.766974
v -27.930000 -1.305180 -4.766974
v -27.930000 -1.292239 -4.815271
v -27.230000 -1.292239 -4.815271
v -27.230000 -1.344003 -4.622085
v -27.280000 -1.344003 -4.622085
v -27.280000 -0.780856 -4.212372
v -27.280000 -0.767915 -4.260668
v -27.280000 -1.347470 -4.415959
v -27.280000 -1.334529 -4.464256
v -27.280000 -0.754974 -4.308964
v -27.280000 -0.703210 -4.502149
v -27.280000 -1.282765 -4.657441
v -27.280000 -1.269824 -4.705737
v -27.280000 -0.690269 -4.550446
v -27.280000 -0.677328 -4.598742
v -27.280000 -1.369884 -4.525493
v -27.280000 -1.408707 -4.380604
v -27.305000 -0.767915 -4.260668
v -27.880000 -0.780856 -4.212372
v -27.880000 -0.677328 -4.598742
v -27.305000 -0.690269 -4.550446
v -27.305000 -0.703210 -4.502149
v -27.305000 -0.754974 -4.308964
v -28.230000 -1.210135 -4.793271
v -28.230000 -0.727172 -4.663861
v -27.930000 -0.616091 -4.634097
v -27.230000 -0.616091 -4.634097
v -27.930000 -1.421648 -4.332308
v -27.930000 -1.408707 -4.380604
v -27.230000 -1.369884 -4.525493
v -27.230000 -1.421648 -4.332308
v -28.230000 -0.856582 -4.180899
v -28.230000 -1.339545 -4.310308
v -27.230000 -0.745500 -4.151134
v -27.930000 -0.745500 -4.151134
v -27.880000 -1.360411 -4.367663
v -27.880000 -1.256883 -4.754033
v -27.305000 -1.245676 -4.699267
v -27.305000 -1.258617 -4.650970
v -27.305000 -1.323322 -4.409489
v -27.305000 -1.310381 -4.457785
vt 1.000100 0.078540 0.000000
vt 0.950100 0.078540 0.000000
vt 1.000100 0.064260 0.000000
vt 0.950100 0.064260 0.000000
vt 1.000100 0.049980 0.000000
vt 0.950100 0.049980 0.000000
vt 1.000100 0.035700 0.000000
vt 0.950100 0.035700 0.000000
vt 1.000100 0.021420 0.000000
vt 0.950100 0.021420 0.000000
vt 1.000100 0.007140 0.000000
vt 0.950100 0.007140 0.000000
vt 1.000100 -0.007140 0.000000
vt 0.950100 -0.007140 0.000000
vt 1.000100 -0.021420 0.000000
vt 0.950100 -0.021420 0.000000
vt 1.000100 -0.035700 0.000000
vt 0.950100 -0.035700 0.000000
vt 1.000100 -0.049980 0.000000
vt 0.950100 -0.049980 0.000000
vt 1.000100 -0.064260 0.000000
vt 0.950100 -0.064260 0.000000
vt 1.000100 -0.078540 0.000000
vt 0.950100 -0.078540 0.000000
vt 0.650100 -0.029117 0.000000
vt 1.000100 -0.000000 0.000000
vt 0.650100 -0.000000 0.000000
vt 1.000100 0.029117 0.000000
vt 0.650100 0.029117 0.000000
vt 1.000100 0.058234 0.000000
vt 0.650100 0.058234 0.000000
vt 1.000100 0.087352 0.000000
vt 0.650100 0.087352 0.000000
vt 1.000100 0.116469 0.000000
vt 0.650100 0.116469 0.000000
vt 1.000100 0.145586 0.000000
vt 0.650100 0.145586 0.000000
vt 1.000100 0.174703 0.000000
vt 0.650100 0.174703 0.000000
vt 1.000100 0.203820 0.000000
vt 0.650100 0.203820 0.000000
vt 1.000100 0.232938 0.000000
vt 0.650100 0.232938 0.000000
vt 1.000100 0.262055 0.000000
vt 0.650100 0.262055 0.000000
vt 1.000100 0.291172 0.000000
vt 0.650100 0.291172 0.000000
vt 1.000100 0.320289 0.000000
vt 0.650100 0.320289 0.000000
vt 1.000100 0.349406 0.000000
vt 0.650100 0.349406 0.000000
vt 1.000100 0.378524 0.000000
vt 0.650100 0.378524 0.000000
vt 1.000100 0.407641 0.000000
vt 0.650100 0.407641 0.000000
vt 1.000100 0.436758 0.000000
vt 0.650100 0.436758 0.000000
vt 1.000100 0.465875 0.000000
vt 0.650100 0.465875 0.000000
vt 1.000100 0.494992 0.000000
vt 0.650100 0.494992 0.000000
vt 1.000100 0.524110 0.000000
vt 0.650100 0.524110 0.000000
vt 1.000100 0.553227 0.000000
vt 0.650100 0.553227 0.000000
vt 1.000100 0.582344 0.000000
vt 0.650100 0.582344 0.000000
vt 0.650100 -0.611461 0.000000
vt 1.000100 -0.611461 0.000000
vt 1.000100 -0.582344 0.000000
vt 0.650100 -0.582344 0.000000
vt 1.000100 -0.553227 0.000000
vt 0.650100 -0.553227 0.000000
vt 1.000100 -0.524110 0.000000
vt 0.650100 -0.524110 0.000000
vt 1.000100 -0.494992 0.000000
vt 0.650100 -0.494992 0.000000
vt 1.000100 -0.465875 0.000000
vt 0.650100 -0.465875 0.000000
vt 1.000100 -0.436758 0.000000
vt 0.650100 -0.436758 0.000000
vt 1.000100 -0.407641 0.000000
vt 0.650100 -0.407641 0.000000
vt 1.000100 -0.378524 0.000000
vt 0.650100 -0.378524 0.000000
vt 1.000100 -0.349406 0.000000
vt 0.650100 -0.349406 0.000000
vt 1.000100 -0.320289 0.000000
vt 0.650100 -0.320289 0.000000
vt 1.000100 -0.291172 0.000000
vt 0.650100 -0.291172 0.000000
vt 1.000100 -0.262055 0.000000
vt 0.650100 -0.262055 0.000000
vt 1.000100 -0.232938 0.000000
vt 0.650100 -0.232938 0.000000
vt 1.000100 -0.203820 0.000000
vt 0.650100 -0.203820 0.000000
vt 1.000100 -0.174703 0.000000
vt 0.650100 -0.174703 0.000000
vt 1.000100 -0.145586 0.000000
vt 0.650100 -0.145586 0.000000
vt 1.000100 -0.116469 0.000000
vt 0.650100 -0.116469 0.000000
vt 1.000100 -0.087352 0.000000
vt 0.650100 -0.087352 0.000000
vt 1.000100 -0.058234 0.000000
vt 0.650100 -0.058234 0.000000
vt 1.000100 -0.029117 0.000000
vt -0.450000 -0.300000 0.000000
vt -0.500000 -0.300000 0.000000
vt -0.450000 -0.950000 0.000000
vt -0.500000 -1.000000 0.000000
vt -0.300000 -1.000000 0.000000
vt -0.300000 -0.950000 0.000000
vt 0.771110 0.350000 0.000000
vt 1.371110 0.350000 0.000000
vt 0.771110 0.400000 0.000000
vt 1.421110 0.400000 0.000000
vt 1.421110 0.250000 0.000000
vt 1.371110 0.300000 0.000000
vt 1.086110 0.250000 0.000000
vt 0.771110 0.300000 0.000000
vt 1.072024 0.247975 0.000000
vt 1.059078 0.242063 0.000000
vt 1.048323 0.232743 0.000000
vt 1.040629 0.220771 0.000000
vt 1.036619 0.207116 0.000000
vt 0.771110 0.100000 0.000000
vt 1.036619 0.192884 0.000000
vt 1.040629 0.179229 0.000000
vt 1.048323 0.167257 0.000000
vt 1.059078 0.157937 0.000000
vt 1.072024 0.152025 0.000000
vt 1.086110 0.150000 0.000000
vt 1.371110 0.100000 0.000000
vt 1.421110 0.150000 0.000000
vt 1.421110 0.000000 0.000000
vt 1.371110 0.050000 0.000000
vt 0.771110 -0.000000 0.000000
vt 0.771110 0.050000 0.000000
vt -0.100000 -0.950000 0.000000
vt -0.050000 -0.950000 0.000000
vt -0.100000 -0.925000 0.000000
vt -0.050000 -0.350000 0.000000
vt -0.150000 -0.925000 0.000000
vt -0.450000 -0.350000 0.000000
vt -0.350000 -0.925000 0.000000
vt -0.400000 -0.925000 0.000000
vt -0.450000 -0.950000 0.000000
vt -0.400000 -0.950000 0.000000
vt -0.350000 -0.950000 0.000000
vt -0.150000 -0.950000 0.000000
vt 0.000000 -1.000000 0.000000
vt 0.700000 -1.000000 0.000000
vt 0.000000 -0.300000 0.000000
vt 0.700000 -0.300000 0.000000
vt 0.115000 -0.000000 0.000000
vt 0.615000 -0.000000 0.000000
vt -0.050000 -0.300000 0.000000
vt -0.050000 -0.950000 0.000000
vt -0.000000 -0.300000 0.000000
vt -0.000000 -1.000000 0.000000
vt -0.200000 -1.000000 0.000000
vt -0.200000 -0.950000 0.000000
vt -0.615000 -0.000000 0.000000
vt -0.700000 -0.300000 0.000000
vt -0.115000 -0.000000 0.000000
vt -0.000000 -0.300000 0.000000
vt -0.000000 -1.000000 0.000000
vt -0.700000 -1.000000 0.000000
vt 0.500000 -0.300000 0.000000
vt 0.000000 -0.300000 0.000000
vt 0.500000 -1.000000 0.000000
vt 0.000000 -1.000000 0.000000
vt 0.265000 -0.250000 0.000000
vt 0.022278 -0.189861 0.000000
vt -0.235000 -0.250000 0.000000
vt -0.006790 -0.188746 0.000000
vt -0.035346 -0.183208 0.000000
vt 0.265000 0.250000 0.000000
vt 0.205000 -0.000000 0.000000
vt 0.202773 -0.029003 0.000000
vt 0.196145 -0.057327 0.000000
vt -0.235000 0.250000 0.000000
vt 0.022278 0.189861 0.000000
vt 0.051174 0.186525 0.000000
vt 0.079223 0.178817 0.000000
vt -0.174443 0.014544 0.000000
vt -0.170002 0.043292 0.000000
vt -0.161225 0.071025 0.000000
vt 0.185271 -0.084307 0.000000
vt 0.170407 -0.109311 0.000000
vt 0.151899 -0.131752 0.000000
vt 0.130183 -0.151106 0.000000
vt 0.105767 -0.166917 0.000000
vt 0.079223 -0.178817 0.000000
vt 0.051174 -0.186525 0.000000
vt -0.062723 -0.173376 0.000000
vt -0.088278 -0.159479 0.000000
vt -0.111412 -0.141845 0.000000
vt -0.131583 -0.120886 0.000000
vt -0.148318 -0.097094 0.000000
vt -0.161225 -0.071025 0.000000
vt -0.170002 -0.043292 0.000000
vt -0.174443 -0.014544 0.000000
vt -0.148318 0.097094 0.000000
vt -0.131583 0.120886 0.000000
vt -0.111412 0.141845 0.000000
vt -0.088278 0.159479 0.000000
vt -0.062723 0.173376 0.000000
vt -0.035346 0.183208 0.000000
vt -0.006790 0.188746 0.000000
vt 0.105767 0.166917 0.000000
vt 0.130183 0.151106 0.000000
vt 0.151899 0.131752 0.000000
vt 0.170407 0.109311 0.000000
vt 0.185271 0.084307 0.000000
vt 0.196145 0.057327 0.000000
vt 0.202773 0.029003 0.000000
vt -0.350000 0.050000 0.000000
vt -0.015000 0.050000 0.000000
vt -0.350000 0.250000 0.000000
vt 0.350000 0.250000 0.000000
vt -0.000913 0.047975 0.000000
vt 0.012032 0.042063 0.000000
vt 0.022787 0.032743 0.000000
vt 0.030482 0.020771 0.000000
vt 0.034491 0.007116 0.000000
vt 0.350000 -0.250000 0.000000
vt 0.034491 -0.007116 0.000000
vt 0.030482 -0.020771 0.000000
vt 0.022787 -0.032743 0.000000
vt 0.012032 -0.042063 0.000000
vt -0.000913 -0.047975 0.000000
vt -0.015000 -0.050000 0.000000
vt -0.350000 -0.250000 0.000000
vt -0.350000 -0.050000 0.000000
vt 0.321286 0.500000 0.000000
vt -0.000000 0.500000 0.000000
vt 0.321286 0.000000 0.000000
vt -0.000000 0.000000 0.000000
vt -0.000000 0.500000 0.000000
vt -0.311809 0.500000 0.000000
vt -0.000000 0.450000 0.000000
vt -0.311809 -0.000000 0.000000
vt 0.000000 0.050000 0.000000
vt -0.000000 0.000000 0.000000
vt 0.771110 -0.000000 0.000000
vt 0.771110 -0.600000 0.000000
vt 1.371110 0.000000 0.000000
vt 1.421110 -0.600000 0.000000
vt 1.421110 0.050000 0.000000
vt -0.771110 -0.000000 0.000000
vt -1.371110 -0.000000 0.000000
vt -0.771110 -0.600000 0.000000
vt -1.421110 -0.600000 0.000000
vt -1.421110 0.050000 0.000000
vt -1.371110 0.400000 0.000000
vt -1.093388 0.389861 0.000000
vt -0.771110 0.400000 0.000000
vt -1.064320 0.388746 0.000000
vt -1.035764 0.383208 0.000000
vt -1.371110 -0.000000 0.000000
vt -1.276110 0.200000 0.000000
vt -1.273884 0.229003 0.000000
vt -1.267256 0.257327 0.000000
vt -0.771110 -0.000000 0.000000
vt -1.093388 0.010139 0.000000
vt -1.122285 0.013475 0.000000
vt -1.150333 0.021183 0.000000
vt -0.896668 0.214544 0.000000
vt -0.896668 0.185456 0.000000
vt -0.901108 0.156708 0.000000
vt -1.256382 0.284307 0.000000
vt -1.241517 0.309311 0.000000
vt -1.223009 0.331752 0.000000
vt -1.201293 0.351106 0.000000
vt -1.176877 0.366917 0.000000
vt -1.150333 0.378817 0.000000
vt -1.122285 0.386525 0.000000
vt -1.008387 0.373376 0.000000
vt -0.982832 0.359479 0.000000
vt -0.959698 0.341845 0.000000
vt -0.939527 0.320886 0.000000
vt -0.922792 0.297094 0.000000
vt -0.909885 0.271025 0.000000
vt -0.901108 0.243292 0.000000
vt -0.909885 0.128975 0.000000
vt -0.922792 0.102906 0.000000
vt -0.939527 0.079114 0.000000
vt -0.959698 0.058155 0.000000
vt -0.982832 0.040521 0.000000
vt -1.008387 0.026624 0.000000
vt -1.035764 0.016792 0.000000
vt -1.064320 0.011254 0.000000
vt -1.176877 0.033083 0.000000
vt -1.201293 0.048894 0.000000
vt -1.223009 0.068248 0.000000
vt -1.241517 0.090689 0.000000
vt -1.256382 0.115693 0.000000
vt -1.267256 0.142673 0.000000
vt -1.273884 0.170997 0.000000
vt 0.335000 -0.950100 0.000000
vt 0.000000 -0.950100 0.000000
vt 0.335000 -1.000100 0.000000
vt 0.000000 -1.000100 0.000000
vt 0.335000 -0.950100 0.000000
vt 0.000000 -0.950100 0.000000
vt 0.335000 -1.000100 0.000000
vt 0.000000 -1.000100 0.000000
vt 0.300000 -0.025000 0.000000
vt 0.275000 -0.000000 0.000000
vt -0.300000 -0.025000 0.000000
vt -0.300000 0.000000 0.000000
vt 0.300000 0.000000 0.000000
vt -0.275000 -0.000000 0.000000
vt 0.300000 -0.025000 0.000000
vt -0.300000 -0.025000 0.000000
vt -0.300000 -0.150000 0.000000
vt 0.275000 -0.150000 0.000000
vt -0.300000 -0.100000 0.000000
vt 0.275000 -0.100000 0.000000
vt 0.300000 0.000000 0.000000
vt -0.275000 -0.000000 0.000000
vt 0.300000 -0.025000 0.000000
vt -0.300000 -0.025000 0.000000
vt 0.300000 -0.025000 0.000000
vt 0.275000 -0.000000 0.000000
vt -0.300000 -0.025000 0.000000
vt -0.300000 0.000000 0.000000
vt -0.300000 0.100000 0.000000
vt 0.275000 0.100000 0.000000
vt -0.300000 0.150000 0.000000
vt 0.275000 0.150000 0.000000
vt -0.100000 0.035355 0.000000
vt -0.150000 0.035355 0.000000
vt -0.100000 0.000000 0.000000
vt -0.150000 0.000000 0.000000
vt 0.150000 0.035355 0.000000
vt 0.100000 0.035355 0.000000
vt 0.150000 -0.000000 0.000000
vt 0.100000 -0.000000 0.000000
vt 0.400000 0.070711 0.000000
vt -0.000000 0.070711 0.000000
vt 0.400000 0.000000 0.000000
vt -0.000000 0.000000 0.000000
vn 0.000000 0.258819 -0.965926
vn 0.000000 0.258819 -0.965926
vn 0.000000 -0.023798 -0.999717
vn 0.000000 -0.023798 -0.999717
vn 0.000000 -0.304486 -0.952517
vn 0.000000 -0.304486 -0.952517
vn 0.000000 -0.560508 -0.828149
vn 0.000000 -0.560508 -0.828149
vn -0.000000 -0.771120 -0.636690
vn -0.000000 -0.771120 -0.636690
vn -0.000000 -0.919260 -0.393650
vn -0.000000 -0.919260 -0.393650
vn -0.000000 -0.992928 -0.118719
vn -0.000000 -0.992928 -0.118719
vn -0.000000 -0.986154 0.165830
vn -0.000000 -0.986154 0.165830
vn -0.000000 -0.899488 0.436945
vn -0.000000 -0.899488 0.436945
vn -0.000000 -0.739951 0.672660
vn -0.000000 -0.739951 0.672660
vn -0.000000 -0.520468 0.853881
vn -0.000000 -0.520468 0.853881
vn -0.000000 -0.258819 0.965926
vn -0.000000 -0.258819 0.965926
vn 0.000000 0.915097 0.403234
vn 0.000000 0.965926 0.258819
vn 0.000000 0.965926 0.258819
vn 0.000000 0.994114 0.108338
vn 0.000000 0.994114 0.108338
vn 0.000000 0.999001 -0.044683
vn 0.000000 0.999001 -0.044683
vn 0.000000 0.980473 -0.196656
vn 0.000000 0.980473 -0.196656
vn 0.000000 0.938963 -0.344019
vn 0.000000 0.938963 -0.344019
vn 0.000000 0.875444 -0.483320
vn 0.000000 0.875444 -0.483320
vn 0.000000 0.791406 -0.611291
vn 0.000000 0.791406 -0.611291
vn 0.000000 0.688818 -0.724935
vn 0.000000 0.688818 -0.724935
vn 0.000000 0.570084 -0.821586
vn 0.000000 0.570084 -0.821586
vn 0.000000 0.437988 -0.898981
vn 0.000000 0.437988 -0.898981
vn 0.000000 0.295627 -0.955304
vn 0.000000 0.295627 -0.955304
vn 0.000000 0.146336 -0.989235
vn 0.000000 0.146336 -0.989235
vn 0.000000 -0.006385 -0.999980
vn 0.000000 -0.006385 -0.999980
vn 0.000000 -0.158957 -0.987286
vn 0.000000 -0.158957 -0.987286
vn 0.000000 -0.307802 -0.951450
vn 0.000000 -0.307802 -0.951450
vn 0.000000 -0.449433 -0.893314
vn 0.000000 -0.449433 -0.893314
vn -0.000000 -0.580530 -0.814239
vn -0.000000 -0.580530 -0.814239
vn -0.000000 -0.698019 -0.716079
vn -0.000000 -0.698019 -0.716079
vn -0.000000 -0.799148 -0.601135
vn -0.000000 -0.799148 -0.601135
vn -0.000000 -0.881545 -0.472101
vn -0.000000 -0.881545 -0.472101
vn -0.000000 -0.943279 -0.332001
vn -0.000000 -0.943279 -0.332001
vn -0.000000 -0.982904 -0.184119
vn -0.000000 -0.982904 -0.184119
vn -0.000000 -0.999490 -0.031921
vn -0.000000 -0.999490 -0.031921
vn -0.000000 -0.992650 0.121024
vn -0.000000 -0.992650 0.121024
vn -0.000000 -0.962542 0.271133
vn -0.000000 -0.962542 0.271133
vn -0.000000 -0.909873 0.414887
vn -0.000000 -0.909873 0.414887
vn -0.000000 -0.835877 0.548916
vn -0.000000 -0.835877 0.548916
vn -0.000000 -0.742290 0.670079
vn -0.000000 -0.742290 0.670079
vn -0.000000 -0.631303 0.775536
vn -0.000000 -0.631303 0.775536
vn -0.000000 -0.505520 0.862815
vn -0.000000 -0.505520 0.862815
vn -0.000000 -0.367887 0.929870
vn -0.000000 -0.367887 0.929870
vn -0.000000 -0.221632 0.975130
vn -0.000000 -0.221632 0.975130
vn -0.000000 -0.070181 0.997534
vn -0.000000 -0.070181 0.997534
vn -0.000000 0.082914 0.996557
vn -0.000000 0.082914 0.996557
vn -0.000000 0.234066 0.972221
vn -0.000000 0.234066 0.972221
vn -0.000000 0.379732 0.925097
vn -0.000000 0.379732 0.925097
vn -0.000000 0.516497 0.856289
vn -0.000000 0.516497 0.856289
vn 0.000000 0.641156 0.767411
vn 0.000000 0.641156 0.767411
vn 0.000000 0.750786 0.660545
vn 0.000000 0.750786 0.660545
vn 0.000000 0.842819 0.538197
vn 0.000000 0.842819 0.538197
vn 0.000000 0.915097 0.403234
vn -0.000000 -0.965926 -0.258819
vn -0.000000 -0.965926 -0.258819
vn -0.000000 -0.965926 -0.258819
vn -0.000000 -0.965926 -0.258819
vn -0.000000 -0.965926 -0.258819
vn -0.000000 -0.965926 -0.258819
vn -1.000000 0.000000 -0.000000
vn -1.000000 0.000000 -0.000000
vn -1.000000 0.000000 -0.000000
vn -1.000000 0.000000 -0.000000
vn -1.000000 0.000000 -0.000000
vn -1.000000 0.000000 -0.000000
vn -1.000000 0.000000 -0.000000
vn -1.000000 0.000000 -0.000000
vn -1.000000 0.000000 -0.000000
vn -1.000000 0.000000 -0.000000
vn -1.000000 0.000000 -0.000000
vn -1.000000 0.000000 -0.000000
vn -1.000000 0.000000 -0.000000
vn -1.000000 0.000000 -0.000000
vn -1.000000 0.000000 -0.000000
vn -1.000000 0.000000 -0.000000
vn -1.000000 0.000000 -0.000000
vn -1.000000 0.000000 -0.000000
vn -1.000000 0.000000 -0.000000
vn -1.000000 0.000000 -0.000000
vn -1.000000 0.000000 -0.000000
vn -1.000000 0.000000 -0.000000
vn -1.000000 0.000000 -0.000000
vn -1.000000 0.000000 -0.000000
vn -1.000000 0.000000 -0.000000
vn -1.000000 0.000000 -0.000000
vn -0.000000 -0.965926 -0.258819
vn -0.000000 -0.965926 -0.258819
vn -0.000000 -0.965926 -0.258819
vn -0.000000 -0.965926 -0.258819
vn -0.000000 -0.965926 -0.258819
vn -0.000000 -0.965926 -0.258819
vn -0.000000 -0.965926 -0.258819
vn -0.000000 -0.965926 -0.258819
vn -0.000000 -0.965926 -0.258819
vn -0.000000 -0.965926 -0.258819
vn -0.000000 -0.965926 -0.258819
vn -0.000000 -0.965926 -0.258819
vn 0.000000 0.258819 -0.965926
vn 0.000000 0.258819 -0.965926
vn 0.000000 0.258819 -0.965926
vn 0.000000 0.258819 -0.965926
vn 0.000000 0.258819 -0.965926
vn 0.000000 0.258819 -0.965926
vn -0.000000 -0.965926 -0.258819
vn -0.000000 -0.965926 -0.258819
vn -0.000000 -0.965926 -0.258819
vn -0.000000 -0.965926 -0.258819
vn -0.000000 -0.965926 -0.258819
vn -0.000000 -0.965926 -0.258819
vn -0.000000 -0.258819 0.965926
vn -0.000000 -0.258819 0.965926
vn -0.000000 -0.258819 0.965926
vn -0.000000 -0.258819 0.965926
vn -0.000000 -0.258819 0.965926
vn -0.000000 -0.258819 0.965926
vn 0.000000 0.965926 0.258819
vn 0.000000 0.965926 0.258819
vn 0.000000 0.965926 0.258819
vn 0.000000 0.965926 0.258819
vn -1.000000 0.000000 -0.000000
vn -1.000000 0.000000 -0.000000
vn -1.000000 0.000000 -0.000000
vn -1.000000 0.000000 -0.000000
vn -1.000000 0.000000 -0.000000
vn -1.000000 0.000000 -0.000000
vn -1.000000 0.000000 -0.000000
vn -1.000000 0.000000 -0.000000
vn -1.000000 0.000000 -0.000000
vn -1.000000 0.000000 -0.000000
vn -1.000000 0.000000 -0.000000
vn -1.000000 0.000000 -0.000000
vn -1.000000 0.000000 -0.000000
vn -1.000000 0.000000 -0.000000
vn -1.000000 0.000000 -0.000000
vn -1.000000 0.000000 -0.000000
vn -1.000000 0.000000 -0.000000
vn -1.000000 0.000000 -0.000000
vn -1.000000 0.000000 -0.000000
vn -1.000000 0.000000 -0.000000
vn -1.000000 0.000000 -0.000000
vn -1.000000 0.000000 -0.000000
vn -1.000000 0.000000 -0.000000
vn -1.000000 0.000000 -0.000000
vn -1.000000 0.000000 -0.000000
vn -1.000000 0.000000 -0.000000
vn -1.000000 0.000000 -0.000000
vn -1.000000 0.000000 -0.000000
vn -1.000000 0.000000 -0.000000
vn -1.000000 0.000000 -0.000000
vn -1.000000 0.000000 -0.000000
vn -1.000000 0.000000 -0.000000
vn -1.000000 0.000000 -0.000000
vn -1.000000 0.000000 -0.000000
vn -1.000000 0.000000 -0.000000
vn -1.000000 0.000000 -0.000000
vn -1.000000 0.000000 -0.000000
vn -1.000000 0.000000 -0.000000
vn -1.000000 0.000000 -0.000000
vn -1.000000 0.000000 -0.000000
vn -1.000000 0.000000 -0.000000
vn -1.000000 0.000000 -0.000000
vn -1.000000 0.000000 -0.000000
vn -1.000000 0.000000 -0.000000
vn -1.000000 0.000000 -0.000000
vn 1.000000 -0.000000 0.000000
vn 1.000000 -0.000000 0.000000
vn 1.000000 -0.000000 0.000000
vn 1.000000 -0.000000 0.000000
vn 1.000000 -0.000000 0.000000
vn 1.000000 -0.000000 0.000000
vn 1.000000 -0.000000 0.000000
vn 1.000000 -0.000000 0.000000
vn 1.000000 -0.000000 0.000000
vn 1.000000 -0.000000 0.000000
vn 1.000000 -0.000000 0.000000
vn 1.000000 -0.000000 0.000000
vn 1.000000 -0.000000 0.000000
vn 1.000000 -0.000000 0.000000
vn 1.000000 -0.000000 0.000000
vn 1.000000 -0.000000 0.000000
vn 1.000000 -0.000000 0.000000
vn 1.000000 -0.000000 0.000000
vn -0.357936 0.901929 0.241671
vn -0.357936 0.901929 0.241671
vn -0.357936 0.901929 0.241671
vn -0.357936 0.901929 0.241671
vn -0.272603 -0.929343 -0.249017
vn -0.272603 -0.929343 -0.249017
vn -0.272603 -0.929343 -0.249017
vn -0.272603 -0.929343 -0.249017
vn -0.272603 -0.929343 -0.249017
vn -0.272603 -0.929343 -0.249017
vn 0.000000 0.258819 -0.965926
vn 0.000000 0.258819 -0.965926
vn 0.000000 0.258819 -0.965926
vn 0.000000 0.258819 -0.965926
vn 0.000000 0.258819 -0.965926
vn -0.000000 -0.258819 0.965926
vn -0.000000 -0.258819 0.965926
vn -0.000000 -0.258819 0.965926
vn -0.000000 -0.258819 0.965926
vn -0.000000 -0.258819 0.965926
vn 1.000000 -0.000000 0.000000
vn 1.000000 -0.000000 0.000000
vn 1.000000 -0.000000 0.000000
vn 1.000000 -0.000000 0.000000
vn 1.000000 -0.000000 0.000000
vn 1.000000 -0.000000 0.000000
vn 1.000000 -0.000000 0.000000
vn 1.000000 -0.000000 0.000000
vn 1.000000 -0.000000 0.000000
vn 1.000000 -0.000000 0.000000
vn 1.000000 -0.000000 0.000000
vn 1.000000 -0.000000 0.000000
vn 1.000000 -0.000000 0.000000
vn 1.000000 -0.000000 0.000000
vn 1.000000 -0.000000 0.000000
vn 1.000000 -0.000000 0.000000
vn 1.000000 -0.000000 0.000000
vn 1.000000 -0.000000 0.000000
vn 1.000000 -0.000000 0.000000
vn 1.000000 -0.000000 0.000000
vn 1.000000 -0.000000 0.000000
vn 1.000000 -0.000000 0.000000
vn 1.000000 -0.000000 0.000000
vn 1.000000 -0.000000 0.000000
vn 1.000000 -0.000000 0.000000
vn 1.000000 -0.000000 0.000000
vn 1.000000 -0.000000 0.000000
vn 1.000000 -0.000000 0.000000
vn 1.000000 -0.000000 0.000000
vn 1.000000 -0.000000 0.000000
vn 1.000000 -0.000000 0.000000
vn 1.000000 -0.000000 0.000000
vn 1.000000 -0.000000 0.000000
vn 1.000000 -0.000000 0.000000
vn 1.000000 -0.000000 0.000000
vn 1.000000 -0.000000 0.000000
vn 1.000000 -0.000000 0.000000
vn 1.000000 -0.000000 0.000000
vn 1.000000 -0.000000 0.000000
vn 1.000000 -0.000000 0.000000
vn 1.000000 -0.000000 0.000000
vn 1.000000 -0.000000 0.000000
vn 1.000000 -0.000000 0.000000
vn 1.000000 -0.000000 0.000000
vn 1.000000 -0.000000 0.000000
vn 0.000000 0.258819 -0.965926
vn 0.000000 0.258819 -0.965926
vn -0.000000 -0.258819 0.965926
vn -0.000000 -0.258819 0.965926
vn 0.000000 0.258819 -0.965926
vn 0.000000 0.258819 -0.965926
vn 0.000000 0.258819 -0.965926
vn 0.000000 0.258819 -0.965926
vn -0.000000 -0.258819 0.965926
vn -0.000000 -0.258819 0.965926
vn -0.000000 -0.258819 0.965926
vn -0.000000 -0.258819 0.965926
vn -1.000000 0.000000 -0.000000
vn -1.000000 0.000000 -0.000000
vn -1.000000 0.000000 -0.000000
vn -1.000000 0.000000 -0.000000
vn -0.000000 -0.258819 0.965926
vn -0.000000 -0.258819 0.965926
vn -0.000000 -0.258819 0.965926
vn -0.000000 -0.258819 0.965926
vn 0.000000 0.258819 -0.965926
vn 0.000000 0.258819 -0.965926
vn 0.000000 0.258819 -0.965926
vn 0.000000 0.258819 -0.965926
vn -1.000000 0.000000 -0.000000
vn -1.000000 0.000000 -0.000000
vn -1.000000 0.000000 -0.000000
vn -1.000000 0.000000 -0.000000
vn -0.707107 -0.683013 -0.183013
vn -0.707107 -0.683013 -0.183013
vn -0.707107 -0.683013 -0.183013
vn -0.707107 -0.683013 -0.183013
vn -0.707107 -0.683013 -0.183013
vn -0.707107 -0.683013 -0.183013
vn -0.707107 -0.683013 -0.183013
vn -0.707107 -0.683013 -0.183013
vn 0.707107 -0.683013 -0.183013
vn 0.707107 -0.683013 -0.183013
vn 0.707107 -0.683013 -0.183013
vn 0.707107 -0.683013 -0.183013
usemtl Paint_-_Enamel_Glossy_(Green)
f 24/1/1 1/2/2 23/3/3
f 23/3/3 1/2/2 2/4/4
f 23/3/3 2/4/4 22/5/5
f 22/5/5 2/4/4 3/6/6
f 22/5/5 3/6/6 21/7/7
f 21/7/7 3/6/6 4/8/8
f 21/7/7 4/8/8 20/9/9
f 20/9/9 4/8/8 5/10/10
f 20/9/9 5/10/10 19/11/11
f 19/11/11 5/10/10 6/12/12
f 19/11/11 6/12/12 18/13/13
f 18/13/13 6/12/12 7/14/14
f 18/13/13 7/14/14 17/15/15
f 17/15/15 7/14/14 8/16/16
f 17/15/15 8/16/16 16/17/17
f 16/17/17 8/16/16 9/18/18
f 16/17/17 9/18/18 15/19/19
f 15/19/19 9/18/18 10/20/20
f 15/19/19 10/20/20 14/21/21
f 14/21/21 10/20/20 11/22/22
f 14/21/21 11/22/22 13/23/23
f 13/23/23 11/22/22 12/24/24
f 26/25/25 66/26/26 25/27/27
f 25/27/27 66/26/26 67/28/28
f 25/27/27 67/28/28 65/29/29
f 65/29/29 67/28/28 68/30/30
f 65/29/29 68/30/30 64/31/31
f 64/31/31 68/30/30 69/32/32
f 64/31/31 69/32/32 63/33/33
f 63/33/33 69/32/32 70/34/34
f 63/33/33 70/34/34 62/35/35
f 62/35/35 70/34/34 71/36/36
f 62/35/35 71/36/36 61/37/37
f 61/37/37 71/36/36 72/38/38
f 61/37/37 72/38/38 60/39/39
f 60/39/39 72/38/38 73/40/40
f 60/39/39 73/40/40 59/41/41
f 59/41/41 73/40/40 74/42/42
f 59/41/41 74/42/42 58/43/43
f 58/43/43 74/42/42 75/44/44
f 58/43/43 75/44/44 57/45/45
f 57/45/45 75/44/44 76/46/46
f 57/45/45 76/46/46 56/47/47
f 56/47/47 76/46/46 77/48/48
f 56/47/47 77/48/48 55/49/49
f 55/49/49 77/48/48 78/50/50
f 55/49/49 78/50/50 54/51/51
f 54/51/51 78/50/50 79/52/52
f 54/51/51 79/52/52 53/53/53
f 53/53/53 79/52/52 80/54/54
f 53/53/53 80/54/54 52/55/55
f 52/55/55 80/54/54 81/56/56
f 52/55/55 81/56/56 51/57/57
f 51/57/57 81/56/56 82/58/58
f 51/57/57 82/58/58 50/59/59
f 50/59/59 82/58/58 83/60/60
f 50/59/59 83/60/60 49/61/61
f 49/61/61 83/60/60 84/62/62
f 49/61/61 84/62/62 48/63/63
f 48/63/63 84/62/62 85/64/64
f 48/63/63 85/64/64 47/65/65
f 47/65/65 85/64/64 86/66/66
f 47/65/65 86/66/66 46/67/67
f 46/68/67 86/69/66 87/70/68
f 46/68/67 87/70/68 45/71/69
f 45/71/69 87/70/68 88/72/70
f 45/71/69 88/72/70 44/73/71
f 44/73/71 88/72/70 89/74/72
f 44/73/71 89/74/72 43/75/73
f 43/75/73 89/74/72 90/76/74
f 43/75/73 90/76/74 42/77/75
f 42/77/75 90/76/74 91/78/76
f 42/77/75 91/78/76 41/79/77
f 41/79/77 91/78/76 92/80/78
f 41/79/77 92/80/78 40/81/79
f 40/81/79 92/80/78 93/82/80
f 40/81/79 93/82/80 39/83/81
f 39/83/81 93/82/80 94/84/82
f 39/83/81 94/84/82 38/85/83
f 38/85/83 94/84/82 95/86/84
f 38/85/83 95/86/84 37/87/85
f 37/87/85 95/86/84 96/88/86
f 37/87/85 96/88/86 36/89/87
f 36/89/87 96/88/86 97/90/88
f 36/89/87 97/90/88 35/91/89
f 35/91/89 97/90/88 98/92/90
f 35/91/89 98/92/90 34/93/91
f 34/93/91 98/92/90 99/94/92
f 34/93/91 99/94/92 33/95/93
f 33/95/93 99/94/92 100/96/94
f 33/95/93 100/96/94 32/97/95
f 32/97/95 100/96/94 101/98/96
f 32/97/95 101/98/96 31/99/97
f 31/99/97 101/98/96 102/100/98
f 31/99/97 102/100/98 30/101/99
f 30/101/99 102/100/98 103/102/100
f 30/101/99 103/102/100 29/103/101
f 29/103/101 103/102/100 104/104/102
f 29/103/101 104/104/102 28/105/103
f 28/105/103 104/104/102 105/106/104
f 28/105/103 105/106/104 27/107/105
f 27/107/105 105/106/104 106/108/106
f 27/107/105 106/108/106 26/25/25
f 26/25/25 106/108/106 66/26/26
f 108/109/107 109/110/108 107/111/109
f 107/111/109 109/110/108 110/112/110
f 107/111/109 110/112/110 111/113/111
f 111/113/111 112/114/112 107/111/109
f 114/115/113 115/116/114 113/117/115
f 113/117/115 115/116/114 124/118/116
f 124/118/116 115/116/114 123/119/117
f 123/119/117 115/116/114 116/120/118
f 123/119/117 116/120/118 1/121/119
f 1/121/119 116/120/118 117/122/120
f 1/121/119 117/122/120 2/123/121
f 2/123/121 117/122/120 3/124/122
f 3/124/122 117/122/120 4/125/123
f 4/125/123 117/122/120 5/126/124
f 5/126/124 117/122/120 6/127/125
f 6/127/125 117/122/120 118/128/126
f 6/127/125 118/128/126 7/129/127
f 7/129/127 118/128/126 8/130/128
f 8/130/128 118/128/126 9/131/129
f 9/131/129 118/128/126 10/132/130
f 10/132/130 118/128/126 11/133/131
f 11/133/131 118/128/126 12/134/132
f 12/134/132 118/128/126 119/135/133
f 12/134/132 119/135/133 112/136/134
f 112/136/134 119/135/133 107/137/135
f 107/137/135 119/135/133 120/138/136
f 107/137/135 120/138/136 122/139/137
f 122/139/137 120/138/136 121/140/138
f 114/141/139 113/142/140 125/143/141
f 125/143/141 113/142/140 126/144/142
f 125/143/141 126/144/142 130/145/143
f 130/145/143 126/144/142 127/146/144
f 130/145/143 127/146/144 129/147/145
f 129/147/145 127/146/144 128/148/146
f 128/148/146 127/146/144 122/149/147
f 128/148/146 122/149/147 121/150/148
f 118/151/149 117/152/150 129/147/145
f 129/147/145 117/152/150 130/145/143
f 134/153/151 110/154/152 133/155/153
f 133/155/153 110/154/152 109/156/154
f 133/155/153 109/156/154 132/157/155
f 132/157/155 109/156/154 131/158/156
f 136/159/157 124/160/158 135/161/159
f 135/161/159 124/160/158 138/162/160
f 138/162/160 124/160/158 137/163/161
f 137/163/161 124/160/158 123/164/162
f 140/165/163 135/166/164 139/167/165
f 139/167/165 135/166/164 142/168/166
f 142/168/166 135/166/164 141/169/167
f 141/169/167 135/166/164 138/170/168
f 133/171/169 142/172/170 134/173/171
f 134/173/171 142/172/170 141/174/172
f 131/175/173 97/176/174 132/177/175
f 132/177/175 97/176/174 96/178/176
f 132/177/175 96/178/176 95/179/177
f 140/180/178 66/181/179 131/175/173
f 131/175/173 66/181/179 106/182/180
f 131/175/173 106/182/180 105/183/181
f 139/184/182 76/185/183 140/180/178
f 140/180/178 76/185/183 75/186/184
f 140/180/178 75/186/184 74/187/185
f 132/177/175 86/188/186 139/184/182
f 139/184/182 86/188/186 85/189/187
f 139/184/182 85/189/187 84/190/188
f 105/183/181 104/191/189 131/175/173
f 131/175/173 104/191/189 103/192/190
f 131/175/173 103/192/190 102/193/191
f 102/193/191 101/194/192 131/175/173
f 131/175/173 101/194/192 100/195/193
f 131/175/173 100/195/193 99/196/194
f 99/196/194 98/197/195 131/175/173
f 131/175/173 98/197/195 97/176/174
f 95/179/177 94/198/196 132/177/175
f 132/177/175 94/198/196 93/199/197
f 132/177/175 93/199/197 92/200/198
f 92/200/198 91/201/199 132/177/175
f 132/177/175 91/201/199 90/202/200
f 132/177/175 90/202/200 89/203/201
f 89/203/201 88/204/202 132/177/175
f 132/177/175 88/204/202 87/205/203
f 132/177/175 87/205/203 86/188/186
f 84/190/188 83/206/204 139/184/182
f 139/184/182 83/206/204 82/207/205
f 139/184/182 82/207/205 81/208/206
f 81/208/206 80/209/207 139/184/182
f 139/184/182 80/209/207 79/210/208
f 139/184/182 79/210/208 78/211/209
f 78/211/209 77/212/210 139/184/182
f 139/184/182 77/212/210 76/185/183
f 74/187/185 73/213/211 140/180/178
f 140/180/178 73/213/211 72/214/212
f 140/180/178 72/214/212 71/215/213
f 71/215/213 70/216/214 140/180/178
f 140/180/178 70/216/214 69/217/215
f 140/180/178 69/217/215 68/218/216
f 68/218/216 67/219/217 140/180/178
f 140/180/178 67/219/217 66/181/179
f 137/220/218 24/221/219 138/222/220
f 138/222/220 24/221/219 141/223/221
f 141/223/221 24/221/219 23/224/222
f 141/223/221 23/224/222 22/225/223
f 22/225/223 21/226/224 141/223/221
f 141/223/221 21/226/224 20/227/225
f 141/223/221 20/227/225 19/228/226
f 141/223/221 19/228/226 134/229/227
f 134/229/227 19/228/226 18/230/228
f 134/229/227 18/230/228 17/231/229
f 17/231/229 16/232/230 134/229/227
f 134/229/227 16/232/230 15/233/231
f 134/229/227 15/233/231 14/234/232
f 14/234/232 13/235/233 134/229/227
f 134/229/227 13/235/233 110/236/234
f 110/236/234 13/235/233 111/237/235
f 139/238/236 142/239/237 132/240/238
f 132/240/238 142/239/237 133/241/239
f 135/242/240 140/243/241 136/244/242
f 136/244/242 140/243/241 131/245/243
f 136/244/242 131/245/243 108/246/244
f 108/246/244 131/245/243 109/247/245
f 126/248/246 113/249/247 143/250/248
f 143/250/248 113/249/247 124/251/249
f 143/250/248 124/251/249 136/252/250
f 127/253/251 144/254/252 122/255/253
f 122/255/253 144/254/252 107/256/254
f 107/256/254 144/254/252 108/257/255
f 143/258/256 56/259/257 126/260/258
f 126/260/258 56/259/257 55/261/259
f 126/260/258 55/261/259 54/262/260
f 144/263/261 25/264/262 143/258/256
f 143/258/256 25/264/262 65/265/263
f 143/258/256 65/265/263 64/266/264
f 127/267/265 35/268/266 144/263/261
f 144/263/261 35/268/266 34/269/267
f 144/263/261 34/269/267 33/270/268
f 126/260/258 46/271/269 127/267/265
f 127/267/265 46/271/269 45/272/270
f 127/267/265 45/272/270 44/273/271
f 64/266/264 63/274/272 143/258/256
f 143/258/256 63/274/272 62/275/273
f 143/258/256 62/275/273 61/276/274
f 61/276/274 60/277/275 143/258/256
f 143/258/256 60/277/275 59/278/276
f 143/258/256 59/278/276 58/279/277
f 58/279/277 57/280/278 143/258/256
f 143/258/256 57/280/278 56/259/257
f 54/262/260 53/281/279 126/260/258
f 126/260/258 53/281/279 52/282/280
f 126/260/258 52/282/280 51/283/281
f 51/283/281 50/284/282 126/260/258
f 126/260/258 50/284/282 49/285/283
f 126/260/258 49/285/283 48/286/284
f 48/286/284 47/287/285 126/260/258
f 126/260/258 47/287/285 46/271/269
f 44/273/271 43/288/286 127/267/265
f 127/267/265 43/288/286 42/289/287
f 127/267/265 42/289/287 41/290/288
f 41/290/288 40/291/289 127/267/265
f 127/267/265 40/291/289 39/292/290
f 127/267/265 39/292/290 38/293/291
f 38/293/291 37/294/292 127/267/265
f 127/267/265 37/294/292 36/295/293
f 127/267/265 36/295/293 35/268/266
f 33/270/268 32/296/294 144/263/261
f 144/263/261 32/296/294 31/297/295
f 144/263/261 31/297/295 30/298/296
f 30/298/296 29/299/297 144/263/261
f 144/263/261 29/299/297 28/300/298
f 144/263/261 28/300/298 27/301/299
f 27/301/299 26/302/300 144/263/261
f 144/263/261 26/302/300 25/264/262
f 123/303/301 1/304/2 137/305/302
f 137/305/302 1/304/2 24/306/1
f 12/307/24 112/308/303 13/309/23
f 13/309/23 112/308/303 111/310/304
f 120/311/305 145/312/306 121/313/307
f 121/313/307 145/312/306 128/314/308
f 129/315/309 146/316/310 118/317/311
f 118/317/311 146/316/310 119/318/312
f 128/319/313 145/320/314 129/321/315
f 129/321/315 145/320/314 146/322/316
f 125/323/317 147/324/318 114/325/319
f 114/325/319 147/324/318 115/326/320
f 116/327/321 148/328/322 117/329/323
f 117/329/323 148/328/322 130/330/324
f 130/331/325 148/332/326 125/333/327
f 125/333/327 148/332/326 147/334/328
f 116/335/329 115/336/330 148/337/331
f 148/337/331 115/336/330 147/338/332
f 120/339/333 119/340/334 145/341/335
f 145/341/335 119/340/334 146/342/336
f 136/343/337 108/344/338 143/345/339
f 143/345/339 108/344/338 144/346/340
# 148 vertices
# 346 texture params
# 340 normals
# 296 facets

# 1 groups
