# WaveFront *.obj file (generated by Autodesk ATF)

mtllib body37_visual.mtl

g Body37

v -27.230000 2.294254 -0.595161
v -27.230000 2.276137 -0.527546
v -27.480000 2.276137 -0.527546
v -27.480000 2.294254 -0.595161
v -27.230000 2.226640 -0.613278
v -27.480000 2.226640 -0.613278
v -27.230000 2.208522 -0.545663
v -27.480000 2.208522 -0.545663
v -27.230000 2.152647 -0.684868
v -27.230000 2.108648 -0.520661
v -27.480000 2.108648 -0.520661
v -27.480000 2.152647 -0.684868
v -27.230000 2.201637 -0.713152
v -27.480000 2.201637 -0.713152
v -27.230000 2.365844 -0.669153
v -27.480000 2.365844 -0.669153
v -27.230000 2.394129 -0.620163
v -27.480000 2.394129 -0.620163
v -27.230000 2.350129 -0.455956
v -27.480000 2.350129 -0.455956
v -27.230000 2.301140 -0.427672
v -27.480000 2.301140 -0.427672
v -27.230000 2.136932 -0.471671
v -27.480000 2.136932 -0.471671
vt 0.000000 0.000000 0.000000
vt 0.070000 -0.000000 0.000000
vt 0.000000 0.250000 0.000000
vt 0.070000 0.250000 0.000000
vt 0.000000 0.000000 0.000000
vt 0.070000 0.000000 0.000000
vt 0.000000 0.250000 0.000000
vt 0.070000 0.250000 0.000000
vt 0.000000 0.000000 0.000000
vt 0.070000 -0.000000 0.000000
vt -0.000000 0.250000 0.000000
vt 0.070000 0.250000 0.000000
vt -0.000000 0.000000 0.000000
vt 0.070000 0.000000 0.000000
vt -0.000000 0.250000 0.000000
vt 0.070000 0.250000 0.000000
vt 0.000000 0.000000 0.000000
vt 0.170000 0.000000 0.000000
vt 0.000000 0.250000 0.000000
vt 0.170000 0.250000 0.000000
vt 0.000000 0.000000 0.000000
vt 0.056569 -0.000000 0.000000
vt 0.000000 0.250000 0.000000
vt 0.056569 0.250000 0.000000
vt -0.000000 0.000000 0.000000
vt 0.170000 -0.000000 0.000000
vt -0.000000 0.250000 0.000000
vt 0.170000 0.250000 0.000000
vt 0.000000 0.000000 0.000000
vt 0.056569 0.000000 0.000000
vt -0.000000 0.250000 0.000000
vt 0.056569 0.250000 0.000000
vt 0.000000 0.000000 0.000000
vt 0.170000 0.000000 0.000000
vt -0.000000 0.250000 0.000000
vt 0.170000 0.250000 0.000000
vt 0.000000 0.000000 0.000000
vt 0.056569 0.000000 0.000000
vt -0.000000 0.250000 0.000000
vt 0.056569 0.250000 0.000000
vt 0.000000 0.000000 0.000000
vt 0.170000 -0.000000 0.000000
vt 0.000000 0.250000 0.000000
vt 0.170000 0.250000 0.000000
vt 0.000000 0.000000 0.000000
vt 0.056569 -0.000000 0.000000
vt 0.000000 0.250000 0.000000
vt 0.056569 0.250000 0.000000
vt -0.035000 0.035000 0.000000
vt -0.125000 -0.085000 0.000000
vt -0.035000 -0.035000 0.000000
vt -0.085000 -0.125000 0.000000
vt 0.085000 -0.125000 0.000000
vt 0.035000 0.035000 0.000000
vt -0.085000 0.125000 0.000000
vt -0.125000 0.085000 0.000000
vt 0.035000 -0.035000 0.000000
vt 0.125000 -0.085000 0.000000
vt 0.125000 0.085000 0.000000
vt 0.085000 0.125000 0.000000
vt 0.035000 -0.035000 0.000000
vt 0.125000 -0.085000 0.000000
vt 0.035000 0.035000 0.000000
vt 0.125000 0.085000 0.000000
vt 0.085000 0.125000 0.000000
vt 0.085000 -0.125000 0.000000
vt -0.035000 -0.035000 0.000000
vt -0.085000 -0.125000 0.000000
vt -0.125000 -0.085000 0.000000
vt -0.035000 0.035000 0.000000
vt -0.125000 0.085000 0.000000
vt -0.085000 0.125000 0.000000
vn -0.000000 -0.965926 -0.258819
vn -0.000000 -0.965926 -0.258819
vn -0.000000 -0.965926 -0.258819
vn -0.000000 -0.965926 -0.258819
vn -0.000000 -0.258819 0.965926
vn -0.000000 -0.258819 0.965926
vn -0.000000 -0.258819 0.965926
vn -0.000000 -0.258819 0.965926
vn 0.000000 0.965926 0.258819
vn 0.000000 0.965926 0.258819
vn 0.000000 0.965926 0.258819
vn 0.000000 0.965926 0.258819
vn 0.000000 0.258819 -0.965926
vn 0.000000 0.258819 -0.965926
vn 0.000000 0.258819 -0.965926
vn 0.000000 0.258819 -0.965926
vn -0.000000 -0.965926 -0.258819
vn -0.000000 -0.965926 -0.258819
vn -0.000000 -0.965926 -0.258819
vn -0.000000 -0.965926 -0.258819
vn 0.000000 -0.500000 -0.866025
vn 0.000000 -0.500000 -0.866025
vn 0.000000 -0.500000 -0.866025
vn 0.000000 -0.500000 -0.866025
vn 0.000000 0.258819 -0.965926
vn 0.000000 0.258819 -0.965926
vn 0.000000 0.258819 -0.965926
vn 0.000000 0.258819 -0.965926
vn 0.000000 0.866025 -0.500000
vn 0.000000 0.866025 -0.500000
vn 0.000000 0.866025 -0.500000
vn 0.000000 0.866025 -0.500000
vn 0.000000 0.965926 0.258819
vn 0.000000 0.965926 0.258819
vn 0.000000 0.965926 0.258819
vn 0.000000 0.965926 0.258819
vn -0.000000 0.500000 0.866025
vn -0.000000 0.500000 0.866025
vn -0.000000 0.500000 0.866025
vn -0.000000 0.500000 0.866025
vn -0.000000 -0.258819 0.965926
vn -0.000000 -0.258819 0.965926
vn -0.000000 -0.258819 0.965926
vn -0.000000 -0.258819 0.965926
vn -0.000000 -0.866025 0.500000
vn -0.000000 -0.866025 0.500000
vn -0.000000 -0.866025 0.500000
vn -0.000000 -0.866025 0.500000
vn -1.000000 0.000000 -0.000000
vn -1.000000 0.000000 -0.000000
vn -1.000000 0.000000 -0.000000
vn -1.000000 0.000000 -0.000000
vn -1.000000 0.000000 -0.000000
vn -1.000000 0.000000 -0.000000
vn -1.000000 0.000000 -0.000000
vn -1.000000 0.000000 -0.000000
vn -1.000000 0.000000 -0.000000
vn -1.000000 0.000000 -0.000000
vn -1.000000 0.000000 -0.000000
vn -1.000000 0.000000 -0.000000
vn 1.000000 -0.000000 0.000000
vn 1.000000 -0.000000 0.000000
vn 1.000000 -0.000000 0.000000
vn 1.000000 -0.000000 0.000000
vn 1.000000 -0.000000 0.000000
vn 1.000000 -0.000000 0.000000
vn 1.000000 -0.000000 0.000000
vn 1.000000 -0.000000 0.000000
vn 1.000000 -0.000000 0.000000
vn 1.000000 -0.000000 0.000000
vn 1.000000 -0.000000 0.000000
vn 1.000000 -0.000000 0.000000
usemtl Polycarbonate_(Clear)
f 1/1/1 2/2/2 4/3/3
f 4/3/3 2/2/2 3/4/4
f 5/5/5 1/6/6 6/7/7
f 6/7/7 1/6/6 4/8/8
f 7/9/9 5/10/10 8/11/11
f 8/11/11 5/10/10 6/12/12
f 2/13/13 7/14/14 3/15/15
f 3/15/15 7/14/14 8/16/16
f 9/17/17 10/18/18 12/19/19
f 12/19/19 10/18/18 11/20/20
f 13/21/21 9/22/22 14/23/23
f 14/23/23 9/22/22 12/24/24
f 15/25/25 13/26/26 16/27/27
f 16/27/27 13/26/26 14/28/28
f 17/29/29 15/30/30 18/31/31
f 18/31/31 15/30/30 16/32/32
f 19/33/33 17/34/34 20/35/35
f 20/35/35 17/34/34 18/36/36
f 21/37/37 19/38/38 22/39/39
f 22/39/39 19/38/38 20/40/40
f 23/41/41 21/42/42 24/43/43
f 24/43/43 21/42/42 22/44/44
f 10/45/45 23/46/46 11/47/47
f 11/47/47 23/46/46 24/48/48
f 8/49/49 22/50/50 3/51/51
f 3/51/51 22/50/50 20/52/52
f 3/51/51 20/52/52 18/53/53
f 6/54/54 11/55/55 8/49/49
f 8/49/49 11/55/55 24/56/56
f 8/49/49 24/56/56 22/50/50
f 4/57/57 16/58/58 6/54/54
f 6/54/54 16/58/58 14/59/59
f 6/54/54 14/59/59 12/60/60
f 16/58/58 4/57/57 18/53/53
f 18/53/53 4/57/57 3/51/51
f 12/60/60 11/55/55 6/54/54
f 2/61/61 21/62/62 7/63/63
f 7/63/63 21/62/62 23/64/64
f 7/63/63 23/64/64 10/65/65
f 21/62/62 2/61/61 19/66/66
f 19/66/66 2/61/61 1/67/67
f 19/66/66 1/67/67 17/68/68
f 17/68/68 1/67/67 15/69/69
f 15/69/69 1/67/67 5/70/70
f 15/69/69 5/70/70 13/71/71
f 13/71/71 5/70/70 9/72/72
f 9/72/72 5/70/70 7/63/63
f 9/72/72 7/63/63 10/65/65
# 24 vertices
# 72 texture params
# 72 normals
# 48 facets

# 1 groups
