# WaveFront *.obj file (generated by Autodesk ATF)

mtllib body127_visual.mtl

g Body127

v -27.298363 2.273203 -3.708431
v -27.298363 2.271110 -3.709319
v -27.298363 2.270113 -3.709868
v -27.298363 2.269163 -3.710493
v -27.298363 2.268277 -3.711206
v -27.298363 2.267462 -3.712000
v -27.298363 2.266729 -3.712870
v -27.298363 2.266098 -3.713817
v -27.298363 2.265573 -3.714827
v -27.298363 2.265150 -3.715882
v -27.298363 2.264844 -3.716978
v -27.298363 2.264665 -3.718101
v -27.298363 2.264602 -3.719237
v -27.298363 2.264650 -3.720374
v -27.298363 2.264809 -3.721500
v -27.298363 2.265057 -3.722611
v -27.299363 2.265057 -3.722611
v -27.299363 2.264809 -3.721500
v -27.299363 2.264650 -3.720374
v -27.299363 2.264602 -3.719237
v -27.299363 2.264665 -3.718101
v -27.299363 2.264844 -3.716978
v -27.299363 2.265150 -3.715882
v -27.299363 2.265573 -3.714827
v -27.299363 2.266098 -3.713817
v -27.299363 2.266729 -3.712870
v -27.299363 2.267462 -3.712000
v -27.299363 2.268277 -3.711206
v -27.299363 2.269163 -3.710493
v -27.299363 2.270113 -3.709868
v -27.299363 2.271110 -3.709319
v -27.299363 2.273203 -3.708431
v -27.298363 2.265366 -3.723595
v -27.298363 2.265750 -3.724553
v -27.298363 2.266218 -3.725472
v -27.298363 2.266772 -3.726342
v -27.298363 2.267410 -3.727153
v -27.298363 2.268125 -3.727897
v -27.298363 2.268912 -3.728564
v -27.298363 2.269756 -3.729157
v -27.298363 2.270648 -3.729675
v -27.298363 2.271587 -3.730104
v -27.298363 2.272561 -3.730444
v -27.298363 2.273565 -3.730681
v -27.298363 2.274590 -3.730797
v -27.298363 2.275621 -3.730793
v -27.298363 2.276647 -3.730682
v -27.298363 2.277656 -3.730465
v -27.299363 2.277656 -3.730465
v -27.299363 2.276647 -3.730682
v -27.299363 2.275621 -3.730793
v -27.299363 2.274590 -3.730797
v -27.299363 2.273565 -3.730681
v -27.299363 2.272561 -3.730444
v -27.299363 2.271587 -3.730104
v -27.299363 2.270648 -3.729675
v -27.299363 2.269756 -3.729157
v -27.299363 2.268912 -3.728564
v -27.299363 2.268125 -3.727897
v -27.299363 2.267410 -3.727153
v -27.299363 2.266772 -3.726342
v -27.299363 2.266218 -3.725472
v -27.299363 2.265750 -3.724553
v -27.299363 2.265366 -3.723595
v -27.298363 2.278754 -3.730107
v -27.298363 2.279817 -3.729657
v -27.298363 2.280825 -3.729091
v -27.298363 2.281772 -3.728429
v -27.298363 2.282655 -3.727684
v -27.298363 2.283468 -3.726864
v -27.298363 2.284938 -3.725083
v -27.298363 2.286289 -3.723210
v -27.298363 2.287569 -3.721287
v -27.298363 2.290011 -3.717366
v -27.299363 2.290011 -3.717366
v -27.299363 2.287569 -3.721287
v -27.299363 2.286289 -3.723210
v -27.299363 2.284938 -3.725083
v -27.299363 2.283468 -3.726864
v -27.299363 2.282655 -3.727684
v -27.299363 2.281772 -3.728429
v -27.299363 2.280825 -3.729091
v -27.299363 2.279817 -3.729657
v -27.299363 2.278754 -3.730107
v -27.298363 2.304980 -3.693280
v -27.299363 2.304980 -3.693280
v -27.298363 2.313773 -3.726096
v -27.299363 2.313773 -3.726096
v -27.298363 2.308820 -3.727424
v -27.299363 2.308820 -3.727424
v -27.298363 2.302798 -3.704949
v -27.299363 2.302798 -3.704949
v -27.298363 2.293139 -3.720489
v -27.299363 2.293139 -3.720489
v -27.298363 2.290271 -3.724930
v -27.298363 2.288737 -3.727083
v -27.298363 2.287101 -3.729159
v -27.298363 2.285297 -3.731090
v -27.298363 2.284299 -3.731957
v -27.298363 2.283231 -3.732736
v -27.298363 2.282101 -3.733425
v -27.298363 2.280921 -3.734021
v -27.298363 2.279691 -3.734502
v -27.298363 2.278430 -3.734903
v -27.299363 2.278430 -3.734903
v -27.299363 2.279691 -3.734502
v -27.299363 2.280921 -3.734021
v -27.299363 2.282101 -3.733425
v -27.299363 2.283231 -3.732736
v -27.299363 2.284299 -3.731957
v -27.299363 2.285297 -3.731090
v -27.299363 2.287101 -3.729159
v -27.299363 2.288737 -3.727083
v -27.299363 2.290271 -3.724930
v -27.298363 2.276985 -3.735218
v -27.298363 2.275518 -3.735406
v -27.298363 2.274039 -3.735440
v -27.298363 2.272564 -3.735330
v -27.298363 2.271112 -3.735053
v -27.298363 2.269692 -3.734638
v -27.298363 2.268317 -3.734093
v -27.298363 2.266999 -3.733422
v -27.298363 2.265749 -3.732631
v -27.298363 2.264599 -3.731701
v -27.298363 2.263547 -3.730662
v -27.298363 2.262615 -3.729513
v -27.298363 2.261821 -3.728265
v -27.298363 2.261152 -3.726946
v -27.298363 2.260602 -3.725573
v -27.298363 2.260163 -3.724160
v -27.299363 2.260163 -3.724160
v -27.299363 2.260602 -3.725573
v -27.299363 2.261152 -3.726946
v -27.299363 2.261821 -3.728265
v -27.299363 2.262615 -3.729513
v -27.299363 2.263547 -3.730662
v -27.299363 2.264599 -3.731701
v -27.299363 2.265749 -3.732631
v -27.299363 2.266999 -3.733422
v -27.299363 2.268317 -3.734093
v -27.299363 2.269692 -3.734638
v -27.299363 2.271112 -3.735053
v -27.299363 2.272564 -3.735330
v -27.299363 2.274039 -3.735440
v -27.299363 2.275518 -3.735406
v -27.299363 2.276985 -3.735218
v -27.298363 2.259807 -3.722576
v -27.298363 2.259600 -3.720966
v -27.298363 2.259558 -3.719343
v -27.298363 2.259679 -3.717725
v -27.298363 2.259983 -3.716130
v -27.298363 2.260449 -3.714575
v -27.298363 2.261076 -3.713077
v -27.298363 2.261853 -3.711652
v -27.298363 2.262756 -3.710303
v -27.298363 2.263791 -3.709051
v -27.298363 2.264950 -3.707915
v -27.298363 2.266215 -3.706898
v -27.298363 2.267573 -3.706008
v -27.298363 2.269010 -3.705252
v -27.298363 2.270504 -3.704616
v -27.298363 2.272042 -3.704096
v -27.299363 2.272042 -3.704096
v -27.299363 2.270504 -3.704616
v -27.299363 2.269010 -3.705252
v -27.299363 2.267573 -3.706008
v -27.299363 2.266215 -3.706898
v -27.299363 2.264950 -3.707915
v -27.299363 2.263791 -3.709051
v -27.299363 2.262756 -3.710303
v -27.299363 2.261853 -3.711652
v -27.299363 2.261076 -3.713077
v -27.299363 2.260449 -3.714575
v -27.299363 2.259983 -3.716130
v -27.299363 2.259679 -3.717725
v -27.299363 2.259558 -3.719343
v -27.299363 2.259600 -3.720966
v -27.299363 2.259807 -3.722576
vt 0.018213 0.001000 0.000000
vt 0.015936 0.001000 0.000000
vt 0.018213 0.000000 0.000000
vt 0.015936 0.000000 0.000000
vt 0.014798 0.001000 0.000000
vt 0.014798 0.000000 0.000000
vt 0.013659 0.001000 0.000000
vt 0.013659 0.000000 0.000000
vt 0.012521 0.001000 0.000000
vt 0.012521 0.000000 0.000000
vt 0.011383 0.001000 0.000000
vt 0.011383 0.000000 0.000000
vt 0.010245 0.001000 0.000000
vt 0.010245 0.000000 0.000000
vt 0.009106 0.001000 0.000000
vt 0.009106 0.000000 0.000000
vt 0.007968 0.001000 0.000000
vt 0.007968 0.000000 0.000000
vt 0.006830 0.001000 0.000000
vt 0.006830 0.000000 0.000000
vt 0.005691 0.001000 0.000000
vt 0.005691 0.000000 0.000000
vt 0.004553 0.001000 0.000000
vt 0.004553 0.000000 0.000000
vt 0.003415 0.001000 0.000000
vt 0.003415 0.000000 0.000000
vt 0.002277 0.001000 0.000000
vt 0.002277 0.000000 0.000000
vt 0.001138 0.001000 0.000000
vt 0.001138 0.000000 0.000000
vt 0.000000 0.001000 0.000000
vt 0.000000 0.000000 0.000000
vt 0.016512 0.001000 0.000000
vt 0.015480 0.001000 0.000000
vt 0.016512 0.000000 0.000000
vt 0.015480 0.000000 0.000000
vt 0.014448 0.001000 0.000000
vt 0.014448 0.000000 0.000000
vt 0.013416 0.001000 0.000000
vt 0.013416 0.000000 0.000000
vt 0.012384 0.001000 0.000000
vt 0.012384 0.000000 0.000000
vt 0.011352 0.001000 0.000000
vt 0.011352 0.000000 0.000000
vt 0.010320 0.001000 0.000000
vt 0.010320 0.000000 0.000000
vt 0.009288 0.001000 0.000000
vt 0.009288 0.000000 0.000000
vt 0.008256 0.001000 0.000000
vt 0.008256 0.000000 0.000000
vt 0.007224 0.001000 0.000000
vt 0.007224 0.000000 0.000000
vt 0.006192 0.001000 0.000000
vt 0.006192 0.000000 0.000000
vt 0.005160 0.001000 0.000000
vt 0.005160 0.000000 0.000000
vt 0.004128 0.001000 0.000000
vt 0.004128 0.000000 0.000000
vt 0.003096 0.001000 0.000000
vt 0.003096 0.000000 0.000000
vt 0.002064 0.001000 0.000000
vt 0.002064 0.000000 0.000000
vt 0.001032 0.001000 0.000000
vt 0.001032 0.000000 0.000000
vt 0.000000 0.001000 0.000000
vt 0.000000 0.000000 0.000000
vt 0.018480 0.001000 0.000000
vt 0.017325 0.001000 0.000000
vt 0.018480 0.000000 0.000000
vt 0.017325 0.000000 0.000000
vt 0.016170 0.001000 0.000000
vt 0.016170 0.000000 0.000000
vt 0.015015 0.001000 0.000000
vt 0.015015 0.000000 0.000000
vt 0.013860 0.001000 0.000000
vt 0.013860 0.000000 0.000000
vt 0.012705 0.001000 0.000000
vt 0.012705 0.000000 0.000000
vt 0.011550 0.001000 0.000000
vt 0.011550 0.000000 0.000000
vt 0.009240 0.001000 0.000000
vt 0.009240 0.000000 0.000000
vt 0.006930 0.001000 0.000000
vt 0.006930 0.000000 0.000000
vt 0.004620 0.001000 0.000000
vt 0.004620 0.000000 0.000000
vt 0.000000 0.001000 0.000000
vt 0.000000 0.000000 0.000000
vt -0.028359 -0.001000 0.000000
vt 0.000000 -0.001000 0.000000
vt -0.028359 0.000000 0.000000
vt 0.000000 0.000000 0.000000
vt -0.033974 -0.001000 0.000000
vt -0.000000 -0.001000 0.000000
vt -0.033974 -0.000000 0.000000
vt 0.000000 0.000000 0.000000
vt -0.005128 -0.001000 0.000000
vt 0.000000 -0.001000 0.000000
vt -0.005128 0.000000 0.000000
vt -0.000000 0.000000 0.000000
vt -0.023267 -0.001000 0.000000
vt 0.000000 -0.001000 0.000000
vt -0.023267 -0.000000 0.000000
vt 0.000000 0.000000 0.000000
vt -0.018296 -0.001000 0.000000
vt -0.000000 -0.001000 0.000000
vt -0.018296 0.000000 0.000000
vt -0.000000 0.000000 0.000000
vt 0.021150 0.001000 0.000000
vt 0.015863 0.001000 0.000000
vt 0.021150 0.000000 0.000000
vt 0.015863 0.000000 0.000000
vt 0.013219 0.001000 0.000000
vt 0.013219 0.000000 0.000000
vt 0.010575 0.001000 0.000000
vt 0.010575 0.000000 0.000000
vt 0.007931 0.001000 0.000000
vt 0.007931 0.000000 0.000000
vt 0.006609 0.001000 0.000000
vt 0.006609 0.000000 0.000000
vt 0.005288 0.001000 0.000000
vt 0.005288 0.000000 0.000000
vt 0.003966 0.001000 0.000000
vt 0.003966 0.000000 0.000000
vt 0.002644 0.001000 0.000000
vt 0.002644 0.000000 0.000000
vt 0.001322 0.001000 0.000000
vt 0.001322 0.000000 0.000000
vt 0.000000 0.001000 0.000000
vt 0.000000 0.000000 0.000000
vt 0.023685 0.001000 0.000000
vt 0.022205 0.001000 0.000000
vt 0.023685 0.000000 0.000000
vt 0.022205 0.000000 0.000000
vt 0.020724 0.001000 0.000000
vt 0.020724 0.000000 0.000000
vt 0.019244 0.001000 0.000000
vt 0.019244 0.000000 0.000000
vt 0.017764 0.001000 0.000000
vt 0.017764 0.000000 0.000000
vt 0.016283 0.001000 0.000000
vt 0.016283 0.000000 0.000000
vt 0.014803 0.001000 0.000000
vt 0.014803 0.000000 0.000000
vt 0.013323 0.001000 0.000000
vt 0.013323 0.000000 0.000000
vt 0.011842 0.001000 0.000000
vt 0.011842 0.000000 0.000000
vt 0.010362 0.001000 0.000000
vt 0.010362 0.000000 0.000000
vt 0.008882 0.001000 0.000000
vt 0.008882 0.000000 0.000000
vt 0.007402 0.001000 0.000000
vt 0.007402 0.000000 0.000000
vt 0.005921 0.001000 0.000000
vt 0.005921 0.000000 0.000000
vt 0.004441 0.001000 0.000000
vt 0.004441 0.000000 0.000000
vt 0.002961 0.001000 0.000000
vt 0.002961 0.000000 0.000000
vt 0.001480 0.001000 0.000000
vt 0.001480 0.000000 0.000000
vt 0.000000 0.001000 0.000000
vt 0.000000 0.000000 0.000000
vt 0.025988 0.001000 0.000000
vt 0.024364 0.001000 0.000000
vt 0.025988 0.000000 0.000000
vt 0.024364 0.000000 0.000000
vt 0.022740 0.001000 0.000000
vt 0.022740 0.000000 0.000000
vt 0.021115 0.001000 0.000000
vt 0.021115 0.000000 0.000000
vt 0.019491 0.001000 0.000000
vt 0.019491 0.000000 0.000000
vt 0.017867 0.001000 0.000000
vt 0.017867 0.000000 0.000000
vt 0.016243 0.001000 0.000000
vt 0.016243 0.000000 0.000000
vt 0.014618 0.001000 0.000000
vt 0.014618 0.000000 0.000000
vt 0.012994 0.001000 0.000000
vt 0.012994 0.000000 0.000000
vt 0.011370 0.001000 0.000000
vt 0.011370 0.000000 0.000000
vt 0.009746 0.001000 0.000000
vt 0.009746 0.000000 0.000000
vt 0.008121 0.001000 0.000000
vt 0.008121 0.000000 0.000000
vt 0.006497 0.001000 0.000000
vt 0.006497 0.000000 0.000000
vt 0.004873 0.001000 0.000000
vt 0.004873 0.000000 0.000000
vt 0.003249 0.001000 0.000000
vt 0.003249 0.000000 0.000000
vt 0.001624 0.001000 0.000000
vt 0.001624 0.000000 0.000000
vt 0.000000 0.001000 0.000000
vt 0.000000 0.000000 0.000000
vt -0.004487 -0.001000 0.000000
vt -0.000000 -0.001000 0.000000
vt -0.004487 -0.000000 0.000000
vt 0.000000 0.000000 0.000000
vt 0.006005 -0.003048 0.000000
vt 0.005029 -0.007520 0.000000
vt 0.008257 -0.003364 0.000000
vt 0.006637 -0.007748 0.000000
vt 0.008257 -0.007852 0.000000
vt 0.003446 -0.007162 0.000000
vt 0.004900 -0.002776 0.000000
vt 0.001904 -0.006653 0.000000
vt 0.000418 -0.005998 0.000000
vt 0.003820 -0.002418 0.000000
vt -0.000996 -0.005201 0.000000
vt 0.002780 -0.001958 0.000000
vt -0.002319 -0.004260 0.000000
vt 0.001787 -0.001402 0.000000
vt -0.003540 -0.003191 0.000000
vt 0.000854 -0.000752 0.000000
vt -0.004660 -0.002015 0.000000
vt 0.000000 -0.000000 0.000000
vt -0.005653 -0.000731 0.000000
vt -0.000769 0.000839 0.000000
vt -0.001451 0.001749 0.000000
vt -0.006505 0.000651 0.000000
vt -0.002030 0.002728 0.000000
vt -0.007212 0.002112 0.000000
vt -0.002494 0.003767 0.000000
vt -0.007748 0.003645 0.000000
vt -0.002848 0.004848 0.000000
vt -0.008128 0.005223 0.000000
vt -0.003096 0.005958 0.000000
vt -0.008344 0.006832 0.000000
vt -0.003234 0.007087 0.000000
vt -0.003282 0.008224 0.000000
vt -0.008410 0.008455 0.000000
vt -0.003238 0.009255 0.000000
vt -0.008352 0.009933 0.000000
vt -0.003115 0.010279 0.000000
vt -0.008176 0.011401 0.000000
vt -0.002901 0.011289 0.000000
vt -0.007871 0.012848 0.000000
vt -0.002591 0.012272 0.000000
vt -0.007427 0.014259 0.000000
vt -0.002185 0.013221 0.000000
vt -0.001687 0.014124 0.000000
vt -0.006824 0.015610 0.000000
vt -0.001099 0.014972 0.000000
vt -0.006077 0.016886 0.000000
vt -0.000438 0.015764 0.000000
vt -0.005207 0.018082 0.000000
vt 0.000291 0.016495 0.000000
vt -0.004204 0.019169 0.000000
vt 0.001086 0.017152 0.000000
vt -0.003105 0.020159 0.000000
vt 0.001939 0.017733 0.000000
vt -0.001918 0.021041 0.000000
vt 0.002847 0.018222 0.000000
vt -0.000654 0.021810 0.000000
vt 0.003807 0.018598 0.000000
vt 0.000678 0.022453 0.000000
vt 0.002074 0.022941 0.000000
vt 0.004805 0.018861 0.000000
vt 0.003511 0.023291 0.000000
vt 0.005824 0.019021 0.000000
vt 0.004977 0.023489 0.000000
vt 0.006454 0.023559 0.000000
vt 0.006855 0.019071 0.000000
vt 0.007775 0.023498 0.000000
vt 0.008009 0.019010 0.000000
vt 0.009088 0.023351 0.000000
vt 0.010383 0.023081 0.000000
vt 0.009152 0.018851 0.000000
vt 0.011652 0.022708 0.000000
vt 0.012885 0.022232 0.000000
vt 0.010272 0.018564 0.000000
vt 0.014074 0.021653 0.000000
vt 0.011358 0.018170 0.000000
vt 0.016316 0.020254 0.000000
vt 0.012403 0.017679 0.000000
vt 0.013401 0.017098 0.000000
vt 0.018434 0.018672 0.000000
vt 0.015282 0.015758 0.000000
vt 0.020473 0.016990 0.000000
vt 0.017072 0.014298 0.000000
vt 0.018806 0.012772 0.000000
vt 0.024393 0.013442 0.000000
vt 0.022179 0.009616 0.000000
vt 0.037744 0.000932 0.000000
vt 0.042872 -0.009775 0.000000
vt 0.042872 0.024200 0.000000
vt 0.037744 0.024200 0.000000
vt 0.003234 0.007087 0.000000
vt 0.008344 0.006832 0.000000
vt 0.003282 0.008224 0.000000
vt 0.008410 0.008455 0.000000
vt 0.003238 0.009255 0.000000
vt 0.008352 0.009933 0.000000
vt 0.003115 0.010279 0.000000
vt 0.008176 0.011401 0.000000
vt 0.002901 0.011289 0.000000
vt 0.007871 0.012848 0.000000
vt 0.002591 0.012272 0.000000
vt 0.007427 0.014259 0.000000
vt 0.002185 0.013221 0.000000
vt 0.001687 0.014124 0.000000
vt 0.006824 0.015610 0.000000
vt 0.001099 0.014972 0.000000
vt 0.006077 0.016886 0.000000
vt 0.000438 0.015764 0.000000
vt 0.005207 0.018082 0.000000
vt -0.000291 0.016495 0.000000
vt 0.004204 0.019169 0.000000
vt -0.001086 0.017152 0.000000
vt 0.003105 0.020159 0.000000
vt -0.001939 0.017733 0.000000
vt 0.001918 0.021041 0.000000
vt -0.002847 0.018222 0.000000
vt 0.000654 0.021810 0.000000
vt -0.003807 0.018598 0.000000
vt -0.000678 0.022453 0.000000
vt -0.002074 0.022941 0.000000
vt 0.003096 0.005958 0.000000
vt 0.008128 0.005223 0.000000
vt 0.002848 0.004848 0.000000
vt 0.007748 0.003645 0.000000
vt 0.002494 0.003767 0.000000
vt 0.007212 0.002112 0.000000
vt 0.002030 0.002728 0.000000
vt 0.006505 0.000651 0.000000
vt 0.001451 0.001749 0.000000
vt 0.005653 -0.000731 0.000000
vt 0.000769 0.000839 0.000000
vt -0.000000 -0.000000 0.000000
vt 0.004660 -0.002015 0.000000
vt -0.000854 -0.000752 0.000000
vt 0.003540 -0.003191 0.000000
vt -0.001787 -0.001402 0.000000
vt 0.002319 -0.004260 0.000000
vt -0.002780 -0.001958 0.000000
vt 0.000996 -0.005201 0.000000
vt -0.003820 -0.002418 0.000000
vt -0.000418 -0.005998 0.000000
vt -0.004900 -0.002776 0.000000
vt -0.001904 -0.006653 0.000000
vt -0.003446 -0.007162 0.000000
vt -0.006005 -0.003048 0.000000
vt -0.005029 -0.007520 0.000000
vt -0.008257 -0.003364 0.000000
vt -0.006637 -0.007748 0.000000
vt -0.008257 -0.007852 0.000000
vt -0.004805 0.018861 0.000000
vt -0.003511 0.023291 0.000000
vt -0.005824 0.019021 0.000000
vt -0.004977 0.023489 0.000000
vt -0.006454 0.023559 0.000000
vt -0.006855 0.019071 0.000000
vt -0.007775 0.023498 0.000000
vt -0.008009 0.019010 0.000000
vt -0.009088 0.023351 0.000000
vt -0.010383 0.023081 0.000000
vt -0.009152 0.018851 0.000000
vt -0.011652 0.022708 0.000000
vt -0.012885 0.022232 0.000000
vt -0.010272 0.018564 0.000000
vt -0.014074 0.021653 0.000000
vt -0.011358 0.018170 0.000000
vt -0.016316 0.020254 0.000000
vt -0.012403 0.017679 0.000000
vt -0.013401 0.017098 0.000000
vt -0.018434 0.018672 0.000000
vt -0.015282 0.015758 0.000000
vt -0.020473 0.016990 0.000000
vt -0.017072 0.014298 0.000000
vt -0.018806 0.012772 0.000000
vt -0.024393 0.013442 0.000000
vt -0.022179 0.009616 0.000000
vt -0.037744 0.000932 0.000000
vt -0.042872 -0.009775 0.000000
vt -0.042872 0.024200 0.000000
vt -0.037744 0.024200 0.000000
vn 0.000000 0.349529 -0.936926
vn 0.000000 0.453663 -0.891173
vn 0.000000 0.349529 -0.936926
vn 0.000000 0.453663 -0.891173
vn 0.000000 0.512164 -0.858888
vn 0.000000 0.512164 -0.858888
vn 0.000000 0.587980 -0.808876
vn 0.000000 0.587980 -0.808876
vn 0.000000 0.664386 -0.747390
vn 0.000000 0.664386 -0.747390
vn 0.000000 0.730538 -0.682872
vn 0.000000 0.730538 -0.682872
vn 0.000000 0.798545 -0.601935
vn 0.000000 0.798545 -0.601935
vn 0.000000 0.862691 -0.505731
vn 0.000000 0.862691 -0.505731
vn 0.000000 0.908537 -0.417804
vn 0.000000 0.908537 -0.417804
vn 0.000000 0.946228 -0.323499
vn 0.000000 0.946228 -0.323499
vn 0.000000 0.977096 -0.212799
vn 0.000000 0.977096 -0.212799
vn 0.000000 0.994571 -0.104060
vn 0.000000 0.994571 -0.104060
vn 0.000000 0.999980 -0.006376
vn 0.000000 0.999980 -0.006376
vn -0.000000 0.995866 0.090835
vn -0.000000 0.995866 0.090835
vn -0.000000 0.982223 0.187720
vn -0.000000 0.982223 0.187720
vn -0.000000 0.972355 0.233506
vn -0.000000 0.972355 0.233506
vn -0.000000 0.958724 0.284338
vn -0.000000 0.944683 0.327984
vn -0.000000 0.958724 0.284338
vn -0.000000 0.944683 0.327984
vn -0.000000 0.910315 0.413915
vn -0.000000 0.910315 0.413915
vn -0.000000 0.869246 0.494380
vn -0.000000 0.869246 0.494380
vn -0.000000 0.815331 0.578995
vn -0.000000 0.815331 0.578995
vn -0.000000 0.755117 0.655590
vn -0.000000 0.755117 0.655590
vn -0.000000 0.684292 0.729208
vn -0.000000 0.684292 0.729208
vn -0.000000 0.609375 0.792882
vn -0.000000 0.609375 0.792882
vn -0.000000 0.539884 0.841740
vn -0.000000 0.539884 0.841740
vn -0.000000 0.460494 0.887663
vn -0.000000 0.460494 0.887663
vn -0.000000 0.372042 0.928216
vn -0.000000 0.372042 0.928216
vn -0.000000 0.283713 0.958909
vn -0.000000 0.283713 0.958909
vn -0.000000 0.172448 0.985019
vn -0.000000 0.172448 0.985019
vn -0.000000 0.051578 0.998669
vn -0.000000 0.051578 0.998669
vn 0.000000 -0.054661 0.998505
vn 0.000000 -0.054661 0.998505
vn 0.000000 -0.166082 0.986112
vn 0.000000 -0.166082 0.986112
vn 0.000000 -0.233023 0.972471
vn 0.000000 -0.233023 0.972471
vn 0.000000 -0.295763 0.955261
vn 0.000000 -0.337887 0.941187
vn 0.000000 -0.295763 0.955261
vn 0.000000 -0.337887 0.941187
vn 0.000000 -0.442969 0.896537
vn 0.000000 -0.442969 0.896537
vn 0.000000 -0.533348 0.845896
vn 0.000000 -0.533348 0.845896
vn 0.000000 -0.610117 0.792312
vn 0.000000 -0.610117 0.792312
vn 0.000000 -0.678319 0.734767
vn 0.000000 -0.678319 0.734767
vn 0.000000 -0.738432 0.674328
vn 0.000000 -0.738432 0.674328
vn 0.000000 -0.802241 0.597000
vn 0.000000 -0.802241 0.597000
vn 0.000000 -0.822529 0.568723
vn 0.000000 -0.822529 0.568723
vn 0.000000 -0.838938 0.544228
vn 0.000000 -0.838938 0.544228
vn 0.000000 -0.855092 0.518477
vn 0.000000 -0.855092 0.518477
vn 0.000000 -0.849336 0.527853
vn 0.000000 -0.849336 0.527853
vn 0.000000 -0.849336 0.527853
vn 0.000000 -0.849336 0.527853
vn 0.000000 0.965926 0.258819
vn 0.000000 0.965926 0.258819
vn 0.000000 0.965926 0.258819
vn 0.000000 0.965926 0.258819
vn -0.000000 0.258819 -0.965926
vn -0.000000 0.258819 -0.965926
vn -0.000000 0.258819 -0.965926
vn -0.000000 0.258819 -0.965926
vn -0.000000 -0.965926 -0.258819
vn -0.000000 -0.965926 -0.258819
vn -0.000000 -0.965926 -0.258819
vn -0.000000 -0.965926 -0.258819
vn -0.000000 0.849310 -0.527895
vn -0.000000 0.849310 -0.527895
vn -0.000000 0.849310 -0.527895
vn -0.000000 0.849310 -0.527895
vn 0.000000 0.848171 -0.529723
vn 0.000000 0.824037 -0.566536
vn 0.000000 0.848171 -0.529723
vn 0.000000 0.824037 -0.566536
vn 0.000000 0.804216 -0.594338
vn 0.000000 0.804216 -0.594338
vn 0.000000 0.762257 -0.647274
vn 0.000000 0.762257 -0.647274
vn 0.000000 0.686235 -0.727380
vn 0.000000 0.686235 -0.727380
vn 0.000000 0.623776 -0.781604
vn 0.000000 0.623776 -0.781604
vn 0.000000 0.554175 -0.832400
vn 0.000000 0.554175 -0.832400
vn 0.000000 0.487458 -0.873146
vn 0.000000 0.487458 -0.873146
vn 0.000000 0.409873 -0.912142
vn 0.000000 0.409873 -0.912142
vn 0.000000 0.323898 -0.946092
vn 0.000000 0.323898 -0.946092
vn 0.000000 0.292194 -0.956359
vn 0.000000 0.292194 -0.956359
vn 0.000000 0.229706 -0.973260
vn 0.000000 0.179414 -0.983774
vn 0.000000 0.229706 -0.973260
vn 0.000000 0.179414 -0.983774
vn 0.000000 0.073205 -0.997317
vn 0.000000 0.073205 -0.997317
vn 0.000000 -0.023315 -0.999728
vn 0.000000 -0.023315 -0.999728
vn 0.000000 -0.131967 -0.991254
vn 0.000000 -0.131967 -0.991254
vn 0.000000 -0.236572 -0.971614
vn 0.000000 -0.236572 -0.971614
vn 0.000000 -0.323318 -0.946290
vn 0.000000 -0.323318 -0.946290
vn 0.000000 -0.414359 -0.910114
vn 0.000000 -0.414359 -0.910114
vn 0.000000 -0.489694 -0.871894
vn 0.000000 -0.489694 -0.871894
vn 0.000000 -0.584411 -0.811458
vn 0.000000 -0.584411 -0.811458
vn 0.000000 -0.666850 -0.745192
vn 0.000000 -0.666850 -0.745192
vn 0.000000 -0.738751 -0.673979
vn 0.000000 -0.738751 -0.673979
vn 0.000000 -0.812974 -0.582300
vn 0.000000 -0.812974 -0.582300
vn 0.000000 -0.870330 -0.492469
vn 0.000000 -0.870330 -0.492469
vn 0.000000 -0.910157 -0.414263
vn 0.000000 -0.910157 -0.414263
vn 0.000000 -0.945402 -0.325908
vn 0.000000 -0.945402 -0.325908
vn 0.000000 -0.959604 -0.281355
vn 0.000000 -0.959604 -0.281355
vn 0.000000 -0.971401 -0.237444
vn 0.000000 -0.983163 -0.182732
vn 0.000000 -0.971401 -0.237444
vn 0.000000 -0.983163 -0.182732
vn 0.000000 -0.997168 -0.075210
vn 0.000000 -0.997168 -0.075210
vn 0.000000 -0.999749 0.022393
vn 0.000000 -0.999749 0.022393
vn 0.000000 -0.991308 0.131561
vn 0.000000 -0.991308 0.131561
vn 0.000000 -0.971104 0.238657
vn 0.000000 -0.971104 0.238657
vn 0.000000 -0.941897 0.335903
vn 0.000000 -0.941897 0.335903
vn 0.000000 -0.900280 0.435311
vn 0.000000 -0.900280 0.435311
vn 0.000000 -0.855590 0.517654
vn 0.000000 -0.855590 0.517654
vn 0.000000 -0.802882 0.596139
vn 0.000000 -0.802882 0.596139
vn 0.000000 -0.735821 0.677176
vn 0.000000 -0.735821 0.677176
vn 0.000000 -0.663161 0.748477
vn 0.000000 -0.663161 0.748477
vn 0.000000 -0.589176 0.808005
vn 0.000000 -0.589176 0.808005
vn 0.000000 -0.504671 0.863312
vn 0.000000 -0.504671 0.863312
vn 0.000000 -0.430174 0.902746
vn 0.000000 -0.430174 0.902746
vn 0.000000 -0.348576 0.937281
vn 0.000000 -0.348576 0.937281
vn 0.000000 -0.305903 0.952063
vn 0.000000 -0.305903 0.952063
vn 0.000000 0.965926 0.258819
vn 0.000000 0.965926 0.258819
vn 0.000000 0.965926 0.258819
vn 0.000000 0.965926 0.258819
vn -1.000000 -0.000000 0.000000
vn -1.000000 -0.000000 0.000000
vn -1.000000 -0.000000 0.000000
vn -1.000000 -0.000000 0.000000
vn -1.000000 -0.000000 0.000000
vn -1.000000 -0.000000 0.000000
vn -1.000000 -0.000000 0.000000
vn -1.000000 -0.000000 0.000000
vn -1.000000 -0.000000 0.000000
vn -1.000000 -0.000000 0.000000
vn -1.000000 -0.000000 0.000000
vn -1.000000 -0.000000 0.000000
vn -1.000000 -0.000000 0.000000
vn -1.000000 -0.000000 0.000000
vn -1.000000 -0.000000 0.000000
vn -1.000000 -0.000000 0.000000
vn -1.000000 -0.000000 0.000000
vn -1.000000 -0.000000 0.000000
vn -1.000000 -0.000000 0.000000
vn -1.000000 -0.000000 0.000000
vn -1.000000 -0.000000 0.000000
vn -1.000000 -0.000000 0.000000
vn -1.000000 -0.000000 0.000000
vn -1.000000 -0.000000 0.000000
vn -1.000000 -0.000000 0.000000
vn -1.000000 -0.000000 0.000000
vn -1.000000 -0.000000 0.000000
vn -1.000000 -0.000000 0.000000
vn -1.000000 -0.000000 0.000000
vn -1.000000 -0.000000 0.000000
vn -1.000000 -0.000000 0.000000
vn -1.000000 -0.000000 0.000000
vn -1.000000 -0.000000 0.000000
vn -1.000000 -0.000000 0.000000
vn -1.000000 -0.000000 0.000000
vn -1.000000 -0.000000 0.000000
vn -1.000000 -0.000000 0.000000
vn -1.000000 -0.000000 0.000000
vn -1.000000 -0.000000 0.000000
vn -1.000000 -0.000000 0.000000
vn -1.000000 -0.000000 0.000000
vn -1.000000 -0.000000 0.000000
vn -1.000000 -0.000000 0.000000
vn -1.000000 -0.000000 0.000000
vn -1.000000 -0.000000 0.000000
vn -1.000000 -0.000000 0.000000
vn -1.000000 -0.000000 0.000000
vn -1.000000 -0.000000 0.000000
vn -1.000000 -0.000000 0.000000
vn -1.000000 -0.000000 0.000000
vn -1.000000 -0.000000 0.000000
vn -1.000000 -0.000000 0.000000
vn -1.000000 -0.000000 0.000000
vn -1.000000 -0.000000 0.000000
vn -1.000000 -0.000000 0.000000
vn -1.000000 -0.000000 0.000000
vn -1.000000 -0.000000 0.000000
vn -1.000000 -0.000000 0.000000
vn -1.000000 -0.000000 0.000000
vn -1.000000 -0.000000 0.000000
vn -1.000000 -0.000000 0.000000
vn -1.000000 -0.000000 0.000000
vn -1.000000 -0.000000 0.000000
vn -1.000000 -0.000000 0.000000
vn -1.000000 -0.000000 0.000000
vn -1.000000 -0.000000 0.000000
vn -1.000000 -0.000000 0.000000
vn -1.000000 -0.000000 0.000000
vn -1.000000 -0.000000 0.000000
vn -1.000000 -0.000000 0.000000
vn -1.000000 -0.000000 0.000000
vn -1.000000 -0.000000 0.000000
vn -1.000000 -0.000000 0.000000
vn -1.000000 -0.000000 0.000000
vn -1.000000 -0.000000 0.000000
vn -1.000000 -0.000000 0.000000
vn -1.000000 -0.000000 0.000000
vn -1.000000 -0.000000 0.000000
vn -1.000000 -0.000000 0.000000
vn -1.000000 -0.000000 0.000000
vn -1.000000 -0.000000 0.000000
vn -1.000000 -0.000000 0.000000
vn -1.000000 -0.000000 0.000000
vn -1.000000 -0.000000 0.000000
vn -1.000000 -0.000000 0.000000
vn -1.000000 -0.000000 0.000000
vn -1.000000 -0.000000 0.000000
vn -1.000000 -0.000000 0.000000
vn -1.000000 -0.000000 0.000000
vn 1.000000 0.000000 -0.000000
vn 1.000000 0.000000 -0.000000
vn 1.000000 0.000000 -0.000000
vn 1.000000 0.000000 -0.000000
vn 1.000000 0.000000 -0.000000
vn 1.000000 0.000000 -0.000000
vn 1.000000 0.000000 -0.000000
vn 1.000000 0.000000 -0.000000
vn 1.000000 0.000000 -0.000000
vn 1.000000 0.000000 -0.000000
vn 1.000000 0.000000 -0.000000
vn 1.000000 0.000000 -0.000000
vn 1.000000 0.000000 -0.000000
vn 1.000000 0.000000 -0.000000
vn 1.000000 0.000000 -0.000000
vn 1.000000 0.000000 -0.000000
vn 1.000000 0.000000 -0.000000
vn 1.000000 0.000000 -0.000000
vn 1.000000 0.000000 -0.000000
vn 1.000000 0.000000 -0.000000
vn 1.000000 0.000000 -0.000000
vn 1.000000 0.000000 -0.000000
vn 1.000000 0.000000 -0.000000
vn 1.000000 0.000000 -0.000000
vn 1.000000 0.000000 -0.000000
vn 1.000000 0.000000 -0.000000
vn 1.000000 0.000000 -0.000000
vn 1.000000 0.000000 -0.000000
vn 1.000000 0.000000 -0.000000
vn 1.000000 0.000000 -0.000000
vn 1.000000 0.000000 -0.000000
vn 1.000000 0.000000 -0.000000
vn 1.000000 0.000000 -0.000000
vn 1.000000 0.000000 -0.000000
vn 1.000000 0.000000 -0.000000
vn 1.000000 0.000000 -0.000000
vn 1.000000 0.000000 -0.000000
vn 1.000000 0.000000 -0.000000
vn 1.000000 0.000000 -0.000000
vn 1.000000 0.000000 -0.000000
vn 1.000000 0.000000 -0.000000
vn 1.000000 0.000000 -0.000000
vn 1.000000 0.000000 -0.000000
vn 1.000000 0.000000 -0.000000
vn 1.000000 0.000000 -0.000000
vn 1.000000 0.000000 -0.000000
vn 1.000000 0.000000 -0.000000
vn 1.000000 0.000000 -0.000000
vn 1.000000 0.000000 -0.000000
vn 1.000000 0.000000 -0.000000
vn 1.000000 0.000000 -0.000000
vn 1.000000 0.000000 -0.000000
vn 1.000000 0.000000 -0.000000
vn 1.000000 0.000000 -0.000000
vn 1.000000 0.000000 -0.000000
vn 1.000000 0.000000 -0.000000
vn 1.000000 0.000000 -0.000000
vn 1.000000 0.000000 -0.000000
vn 1.000000 0.000000 -0.000000
vn 1.000000 0.000000 -0.000000
vn 1.000000 0.000000 -0.000000
vn 1.000000 0.000000 -0.000000
vn 1.000000 0.000000 -0.000000
vn 1.000000 0.000000 -0.000000
vn 1.000000 0.000000 -0.000000
vn 1.000000 0.000000 -0.000000
vn 1.000000 0.000000 -0.000000
vn 1.000000 0.000000 -0.000000
vn 1.000000 0.000000 -0.000000
vn 1.000000 0.000000 -0.000000
vn 1.000000 0.000000 -0.000000
vn 1.000000 0.000000 -0.000000
vn 1.000000 0.000000 -0.000000
vn 1.000000 0.000000 -0.000000
vn 1.000000 0.000000 -0.000000
vn 1.000000 0.000000 -0.000000
vn 1.000000 0.000000 -0.000000
vn 1.000000 0.000000 -0.000000
vn 1.000000 0.000000 -0.000000
vn 1.000000 0.000000 -0.000000
vn 1.000000 0.000000 -0.000000
vn 1.000000 0.000000 -0.000000
vn 1.000000 0.000000 -0.000000
vn 1.000000 0.000000 -0.000000
vn 1.000000 0.000000 -0.000000
vn 1.000000 0.000000 -0.000000
vn 1.000000 0.000000 -0.000000
vn 1.000000 0.000000 -0.000000
vn 1.000000 0.000000 -0.000000
usemtl Opaque(202,209,238)
f 1/1/1 2/2/2 32/3/3
f 32/3/3 2/2/2 31/4/4
f 31/4/4 2/2/2 3/5/5
f 31/4/4 3/5/5 30/6/6
f 30/6/6 3/5/5 4/7/7
f 30/6/6 4/7/7 29/8/8
f 29/8/8 4/7/7 5/9/9
f 29/8/8 5/9/9 28/10/10
f 28/10/10 5/9/9 6/11/11
f 28/10/10 6/11/11 27/12/12
f 27/12/12 6/11/11 7/13/13
f 27/12/12 7/13/13 26/14/14
f 26/14/14 7/13/13 8/15/15
f 26/14/14 8/15/15 25/16/16
f 25/16/16 8/15/15 9/17/17
f 25/16/16 9/17/17 24/18/18
f 24/18/18 9/17/17 10/19/19
f 24/18/18 10/19/19 23/20/20
f 23/20/20 10/19/19 11/21/21
f 23/20/20 11/21/21 22/22/22
f 22/22/22 11/21/21 12/23/23
f 22/22/22 12/23/23 21/24/24
f 21/24/24 12/23/23 13/25/25
f 21/24/24 13/25/25 20/26/26
f 20/26/26 13/25/25 14/27/27
f 20/26/26 14/27/27 19/28/28
f 19/28/28 14/27/27 15/29/29
f 19/28/28 15/29/29 18/30/30
f 18/30/30 15/29/29 16/31/31
f 18/30/30 16/31/31 17/32/32
f 16/33/33 33/34/34 17/35/35
f 17/35/35 33/34/34 64/36/36
f 64/36/36 33/34/34 34/37/37
f 64/36/36 34/37/37 63/38/38
f 63/38/38 34/37/37 35/39/39
f 63/38/38 35/39/39 62/40/40
f 62/40/40 35/39/39 36/41/41
f 62/40/40 36/41/41 61/42/42
f 61/42/42 36/41/41 37/43/43
f 61/42/42 37/43/43 60/44/44
f 60/44/44 37/43/43 38/45/45
f 60/44/44 38/45/45 59/46/46
f 59/46/46 38/45/45 39/47/47
f 59/46/46 39/47/47 58/48/48
f 58/48/48 39/47/47 40/49/49
f 58/48/48 40/49/49 57/50/50
f 57/50/50 40/49/49 41/51/51
f 57/50/50 41/51/51 56/52/52
f 56/52/52 41/51/51 42/53/53
f 56/52/52 42/53/53 55/54/54
f 55/54/54 42/53/53 43/55/55
f 55/54/54 43/55/55 54/56/56
f 54/56/56 43/55/55 44/57/57
f 54/56/56 44/57/57 53/58/58
f 53/58/58 44/57/57 45/59/59
f 53/58/58 45/59/59 52/60/60
f 52/60/60 45/59/59 46/61/61
f 52/60/60 46/61/61 51/62/62
f 51/62/62 46/61/61 47/63/63
f 51/62/62 47/63/63 50/64/64
f 50/64/64 47/63/63 48/65/65
f 50/64/64 48/65/65 49/66/66
f 48/67/67 65/68/68 49/69/69
f 49/69/69 65/68/68 84/70/70
f 84/70/70 65/68/68 66/71/71
f 84/70/70 66/71/71 83/72/72
f 83/72/72 66/71/71 67/73/73
f 83/72/72 67/73/73 82/74/74
f 82/74/74 67/73/73 68/75/75
f 82/74/74 68/75/75 81/76/76
f 81/76/76 68/75/75 69/77/77
f 81/76/76 69/77/77 80/78/78
f 80/78/78 69/77/77 70/79/79
f 80/78/78 70/79/79 79/80/80
f 79/80/80 70/79/79 71/81/81
f 79/80/80 71/81/81 78/82/82
f 78/82/82 71/81/81 72/83/83
f 78/82/82 72/83/83 77/84/84
f 77/84/84 72/83/83 73/85/85
f 77/84/84 73/85/85 76/86/86
f 76/86/86 73/85/85 74/87/87
f 76/86/86 74/87/87 75/88/88
f 74/89/89 85/90/90 75/91/91
f 75/91/91 85/90/90 86/92/92
f 85/93/93 87/94/94 86/95/95
f 86/95/95 87/94/94 88/96/96
f 87/97/97 89/98/98 88/99/99
f 88/99/99 89/98/98 90/100/100
f 89/101/101 91/102/102 90/103/103
f 90/103/103 91/102/102 92/104/104
f 91/105/105 93/106/106 92/107/107
f 92/107/107 93/106/106 94/108/108
f 93/109/109 95/110/110 94/111/111
f 94/111/111 95/110/110 114/112/112
f 114/112/112 95/110/110 96/113/113
f 114/112/112 96/113/113 113/114/114
f 113/114/114 96/113/113 97/115/115
f 113/114/114 97/115/115 112/116/116
f 112/116/116 97/115/115 98/117/117
f 112/116/116 98/117/117 111/118/118
f 111/118/118 98/117/117 99/119/119
f 111/118/118 99/119/119 110/120/120
f 110/120/120 99/119/119 100/121/121
f 110/120/120 100/121/121 109/122/122
f 109/122/122 100/121/121 101/123/123
f 109/122/122 101/123/123 108/124/124
f 108/124/124 101/123/123 102/125/125
f 108/124/124 102/125/125 107/126/126
f 107/126/126 102/125/125 103/127/127
f 107/126/126 103/127/127 106/128/128
f 106/128/128 103/127/127 104/129/129
f 106/128/128 104/129/129 105/130/130
f 104/131/131 115/132/132 105/133/133
f 105/133/133 115/132/132 146/134/134
f 146/134/134 115/132/132 116/135/135
f 146/134/134 116/135/135 145/136/136
f 145/136/136 116/135/135 117/137/137
f 145/136/136 117/137/137 144/138/138
f 144/138/138 117/137/137 118/139/139
f 144/138/138 118/139/139 143/140/140
f 143/140/140 118/139/139 119/141/141
f 143/140/140 119/141/141 142/142/142
f 142/142/142 119/141/141 120/143/143
f 142/142/142 120/143/143 141/144/144
f 141/144/144 120/143/143 121/145/145
f 141/144/144 121/145/145 140/146/146
f 140/146/146 121/145/145 122/147/147
f 140/146/146 122/147/147 139/148/148
f 139/148/148 122/147/147 123/149/149
f 139/148/148 123/149/149 138/150/150
f 138/150/150 123/149/149 124/151/151
f 138/150/150 124/151/151 137/152/152
f 137/152/152 124/151/151 125/153/153
f 137/152/152 125/153/153 136/154/154
f 136/154/154 125/153/153 126/155/155
f 136/154/154 126/155/155 135/156/156
f 135/156/156 126/155/155 127/157/157
f 135/156/156 127/157/157 134/158/158
f 134/158/158 127/157/157 128/159/159
f 134/158/158 128/159/159 133/160/160
f 133/160/160 128/159/159 129/161/161
f 133/160/160 129/161/161 132/162/162
f 132/162/162 129/161/161 130/163/163
f 132/162/162 130/163/163 131/164/164
f 130/165/165 147/166/166 131/167/167
f 131/167/167 147/166/166 178/168/168
f 178/168/168 147/166/166 148/169/169
f 178/168/168 148/169/169 177/170/170
f 177/170/170 148/169/169 149/171/171
f 177/170/170 149/171/171 176/172/172
f 176/172/172 149/171/171 150/173/173
f 176/172/172 150/173/173 175/174/174
f 175/174/174 150/173/173 151/175/175
f 175/174/174 151/175/175 174/176/176
f 174/176/176 151/175/175 152/177/177
f 174/176/176 152/177/177 173/178/178
f 173/178/178 152/177/177 153/179/179
f 173/178/178 153/179/179 172/180/180
f 172/180/180 153/179/179 154/181/181
f 172/180/180 154/181/181 171/182/182
f 171/182/182 154/181/181 155/183/183
f 171/182/182 155/183/183 170/184/184
f 170/184/184 155/183/183 156/185/185
f 170/184/184 156/185/185 169/186/186
f 169/186/186 156/185/185 157/187/187
f 169/186/186 157/187/187 168/188/188
f 168/188/188 157/187/187 158/189/189
f 168/188/188 158/189/189 167/190/190
f 167/190/190 158/189/189 159/191/191
f 167/190/190 159/191/191 166/192/192
f 166/192/192 159/191/191 160/193/193
f 166/192/192 160/193/193 165/194/194
f 165/194/194 160/193/193 161/195/195
f 165/194/194 161/195/195 164/196/196
f 164/196/196 161/195/195 162/197/197
f 164/196/196 162/197/197 163/198/198
f 162/199/199 1/200/200 163/201/201
f 163/201/201 1/200/200 32/202/202
f 31/203/203 165/204/204 32/205/205
f 32/205/205 165/204/204 164/206/206
f 32/205/205 164/206/206 163/207/207
f 165/204/204 31/203/203 166/208/208
f 166/208/208 31/203/203 30/209/209
f 166/208/208 30/209/209 167/210/210
f 167/210/210 30/209/209 168/211/211
f 168/211/211 30/209/209 29/212/212
f 168/211/211 29/212/212 169/213/213
f 169/213/213 29/212/212 28/214/214
f 169/213/213 28/214/214 170/215/215
f 170/215/215 28/214/214 27/216/216
f 170/215/215 27/216/216 171/217/217
f 171/217/217 27/216/216 26/218/218
f 171/217/217 26/218/218 172/219/219
f 172/219/219 26/218/218 25/220/220
f 172/219/219 25/220/220 173/221/221
f 173/221/221 25/220/220 24/222/222
f 173/221/221 24/222/222 23/223/223
f 173/221/221 23/223/223 174/224/224
f 174/224/224 23/223/223 22/225/225
f 174/224/224 22/225/225 175/226/226
f 175/226/226 22/225/225 21/227/227
f 175/226/226 21/227/227 176/228/228
f 176/228/228 21/227/227 20/229/229
f 176/228/228 20/229/229 177/230/230
f 177/230/230 20/229/229 19/231/231
f 177/230/230 19/231/231 178/232/232
f 178/232/232 19/231/231 18/233/233
f 178/232/232 18/233/233 17/234/234
f 178/232/232 17/234/234 131/235/235
f 131/235/235 17/234/234 64/236/236
f 131/235/235 64/236/236 132/237/237
f 132/237/237 64/236/236 63/238/238
f 132/237/237 63/238/238 133/239/239
f 133/239/239 63/238/238 62/240/240
f 133/239/239 62/240/240 134/241/241
f 134/241/241 62/240/240 61/242/242
f 134/241/241 61/242/242 135/243/243
f 135/243/243 61/242/242 60/244/244
f 135/243/243 60/244/244 59/245/245
f 135/243/243 59/245/245 136/246/246
f 136/246/246 59/245/245 58/247/247
f 136/246/246 58/247/247 137/248/248
f 137/248/248 58/247/247 57/249/249
f 137/248/248 57/249/249 138/250/250
f 138/250/250 57/249/249 56/251/251
f 138/250/250 56/251/251 139/252/252
f 139/252/252 56/251/251 55/253/253
f 139/252/252 55/253/253 140/254/254
f 140/254/254 55/253/253 54/255/255
f 140/254/254 54/255/255 141/256/256
f 141/256/256 54/255/255 53/257/257
f 141/256/256 53/257/257 142/258/258
f 142/258/258 53/257/257 52/259/259
f 142/258/258 52/259/259 143/260/260
f 143/260/260 52/259/259 144/261/261
f 144/261/261 52/259/259 51/262/262
f 144/261/261 51/262/262 145/263/263
f 145/263/263 51/262/262 50/264/264
f 145/263/263 50/264/264 146/265/265
f 146/265/265 50/264/264 105/266/266
f 105/266/266 50/264/264 49/267/267
f 105/266/266 49/267/267 106/268/268
f 106/268/268 49/267/267 84/269/269
f 106/268/268 84/269/269 107/270/270
f 107/270/270 84/269/269 108/271/271
f 108/271/271 84/269/269 83/272/272
f 108/271/271 83/272/272 109/273/273
f 109/273/273 83/272/272 110/274/274
f 110/274/274 83/272/272 82/275/275
f 110/274/274 82/275/275 111/276/276
f 111/276/276 82/275/275 81/277/277
f 111/276/276 81/277/277 112/278/278
f 112/278/278 81/277/277 80/279/279
f 112/278/278 80/279/279 79/280/280
f 112/278/278 79/280/280 113/281/281
f 113/281/281 79/280/280 78/282/282
f 113/281/281 78/282/282 114/283/283
f 114/283/283 78/282/282 77/284/284
f 114/283/283 77/284/284 76/285/285
f 114/283/283 76/285/285 94/286/286
f 94/286/286 76/285/285 75/287/287
f 94/286/286 75/287/287 92/288/288
f 92/288/288 75/287/287 86/289/289
f 92/288/288 86/289/289 88/290/290
f 88/290/290 90/291/291 92/288/288
f 15/292/292 147/293/293 16/294/294
f 16/294/294 147/293/293 130/295/295
f 16/294/294 130/295/295 33/296/296
f 33/296/296 130/295/295 129/297/297
f 33/296/296 129/297/297 34/298/298
f 34/298/298 129/297/297 128/299/299
f 34/298/298 128/299/299 35/300/300
f 35/300/300 128/299/299 127/301/301
f 35/300/300 127/301/301 36/302/302
f 36/302/302 127/301/301 126/303/303
f 36/302/302 126/303/303 37/304/304
f 37/304/304 126/303/303 38/305/305
f 38/305/305 126/303/303 125/306/306
f 38/305/305 125/306/306 39/307/307
f 39/307/307 125/306/306 124/308/308
f 39/307/307 124/308/308 40/309/309
f 40/309/309 124/308/308 123/310/310
f 40/309/309 123/310/310 41/311/311
f 41/311/311 123/310/310 122/312/312
f 41/311/311 122/312/312 42/313/313
f 42/313/313 122/312/312 121/314/314
f 42/313/313 121/314/314 43/315/315
f 43/315/315 121/314/314 120/316/316
f 43/315/315 120/316/316 44/317/317
f 44/317/317 120/316/316 119/318/318
f 44/317/317 119/318/318 45/319/319
f 45/319/319 119/318/318 118/320/320
f 45/319/319 118/320/320 117/321/321
f 15/292/292 14/322/322 147/293/293
f 147/293/293 14/322/322 148/323/323
f 148/323/323 14/322/322 13/324/324
f 148/323/323 13/324/324 149/325/325
f 149/325/325 13/324/324 12/326/326
f 149/325/325 12/326/326 150/327/327
f 150/327/327 12/326/326 11/328/328
f 150/327/327 11/328/328 151/329/329
f 151/329/329 11/328/328 10/330/330
f 151/329/329 10/330/330 152/331/331
f 152/331/331 10/330/330 9/332/332
f 152/331/331 9/332/332 8/333/333
f 152/331/331 8/333/333 153/334/334
f 153/334/334 8/333/333 7/335/335
f 153/334/334 7/335/335 154/336/336
f 154/336/336 7/335/335 6/337/337
f 154/336/336 6/337/337 155/338/338
f 155/338/338 6/337/337 5/339/339
f 155/338/338 5/339/339 156/340/340
f 156/340/340 5/339/339 4/341/341
f 156/340/340 4/341/341 157/342/342
f 157/342/342 4/341/341 3/343/343
f 157/342/342 3/343/343 158/344/344
f 158/344/344 3/343/343 159/345/345
f 159/345/345 3/343/343 2/346/346
f 159/345/345 2/346/346 160/347/347
f 160/347/347 2/346/346 1/348/348
f 160/347/347 1/348/348 161/349/349
f 161/349/349 1/348/348 162/350/350
f 45/319/319 117/321/321 46/351/351
f 46/351/351 117/321/321 116/352/352
f 46/351/351 116/352/352 47/353/353
f 47/353/353 116/352/352 115/354/354
f 47/353/353 115/354/354 104/355/355
f 47/353/353 104/355/355 48/356/356
f 48/356/356 104/355/355 103/357/357
f 48/356/356 103/357/357 65/358/358
f 65/358/358 103/357/357 102/359/359
f 65/358/358 102/359/359 101/360/360
f 65/358/358 101/360/360 66/361/361
f 66/361/361 101/360/360 100/362/362
f 66/361/361 100/362/362 99/363/363
f 66/361/361 99/363/363 67/364/364
f 67/364/364 99/363/363 98/365/365
f 67/364/364 98/365/365 68/366/366
f 68/366/366 98/365/365 97/367/367
f 68/366/366 97/367/367 69/368/368
f 69/368/368 97/367/367 70/369/369
f 70/369/369 97/367/367 96/370/370
f 70/369/369 96/370/370 71/371/371
f 71/371/371 96/370/370 95/372/372
f 71/371/371 95/372/372 72/373/373
f 72/373/373 95/372/372 73/374/374
f 73/374/374 95/372/372 93/375/375
f 73/374/374 93/375/375 74/376/376
f 74/376/376 93/375/375 91/377/377
f 74/376/376 91/377/377 85/378/378
f 85/378/378 91/377/377 87/379/379
f 87/379/379 91/377/377 89/380/380
# 178 vertices
# 380 texture params
# 380 normals
# 352 facets

# 1 groups
