# WaveFront *.obj file (generated by Autodesk ATF)

mtllib body132_visual.mtl

g Body132

v -27.234769 2.067030 -1.014040
v -27.234769 2.105853 -1.158928
v -27.234769 2.144490 -1.148576
v -27.234769 2.105667 -1.003687
v -27.234769 1.883690 -1.218457
v -27.234769 1.844867 -1.073568
v -27.234769 1.806230 -1.083921
v -27.234769 1.845053 -1.228810
v -27.235439 2.105020 -1.001272
v -27.237269 2.104546 -0.999504
v -27.239769 2.104373 -0.998857
v -27.239769 2.065736 -1.009210
v -27.239769 1.843573 -1.068738
v -27.239769 1.804936 -1.079091
v -27.237269 1.805109 -1.079738
v -27.235439 1.805583 -1.081506
v -27.235439 2.055113 -1.014644
v -27.235439 2.005207 -1.028017
v -27.235439 1.955301 -1.041389
v -27.235439 1.905395 -1.054761
v -27.235439 1.855489 -1.068134
v -27.237269 2.054640 -1.012877
v -27.237269 2.004734 -1.026249
v -27.237269 1.954827 -1.039621
v -27.237269 1.904921 -1.052993
v -27.237269 1.855015 -1.066366
v -27.334769 2.065736 -1.009210
v -27.334769 2.104373 -0.998857
v -27.334769 1.843573 -1.068738
v -27.334769 1.804936 -1.079091
v -27.337269 2.104546 -0.999504
v -27.339099 2.105020 -1.001272
v -27.339769 2.105667 -1.003687
v -27.339769 2.067030 -1.014040
v -27.339769 1.844867 -1.073568
v -27.339769 1.806230 -1.083921
v -27.339099 1.805583 -1.081506
v -27.337269 1.805109 -1.079738
v -27.337269 2.054640 -1.012877
v -27.337269 2.004734 -1.026249
v -27.337269 1.954827 -1.039621
v -27.337269 1.904921 -1.052993
v -27.337269 1.855015 -1.066366
v -27.339099 2.055113 -1.014644
v -27.339099 2.005207 -1.028017
v -27.339099 1.955301 -1.041389
v -27.339099 1.905395 -1.054761
v -27.339099 1.855489 -1.068134
v -27.339769 2.144490 -1.148576
v -27.339769 2.105853 -1.158928
v -27.339769 1.883690 -1.218457
v -27.339769 1.845053 -1.228810
v -27.239769 1.846347 -1.233639
v -27.239769 1.884984 -1.223286
v -27.239769 2.107147 -1.163758
v -27.239769 2.145784 -1.153405
v -27.237269 2.145610 -1.152758
v -27.235439 2.145137 -1.150990
v -27.235439 1.845700 -1.231224
v -27.237269 1.846173 -1.232992
v -27.237269 2.095704 -1.166131
v -27.237269 2.045798 -1.179503
v -27.237269 1.995892 -1.192875
v -27.237269 1.945986 -1.206248
v -27.237269 1.896079 -1.219620
v -27.235439 2.095230 -1.164363
v -27.235439 2.045324 -1.177735
v -27.235439 1.995418 -1.191107
v -27.235439 1.945512 -1.204480
v -27.235439 1.895606 -1.217852
v -27.339099 2.145137 -1.150990
v -27.337269 2.145610 -1.152758
v -27.334769 2.145784 -1.153405
v -27.334769 2.107147 -1.163758
v -27.334769 1.884984 -1.223286
v -27.334769 1.846347 -1.233639
v -27.337269 1.846173 -1.232992
v -27.339099 1.845700 -1.231224
v -27.339099 2.095230 -1.164363
v -27.339099 2.045324 -1.177735
v -27.339099 1.995418 -1.191107
v -27.339099 1.945512 -1.204480
v -27.339099 1.895606 -1.217852
v -27.337269 2.095704 -1.166131
v -27.337269 2.045798 -1.179503
v -27.337269 1.995892 -1.192875
v -27.337269 1.945986 -1.206248
v -27.337269 1.896079 -1.219620
v -27.334769 1.840223 -1.230104
v -27.239769 1.840223 -1.230104
v -27.239769 1.801400 -1.085215
v -27.334769 1.801400 -1.085215
v -27.334769 2.110496 -1.002393
v -27.239769 2.110496 -1.002393
v -27.239769 2.149319 -1.147282
v -27.334769 2.149319 -1.147282
v -27.239769 2.106961 -0.998857
v -27.239769 2.109202 -1.000151
v -27.334769 2.109202 -1.000151
v -27.334769 2.106961 -0.998857
v -27.287269 2.106961 -0.998857
v -27.287269 2.109202 -1.000151
v -27.235439 2.108082 -1.003040
v -27.237269 2.109849 -1.002566
v -27.237269 2.108729 -1.000625
v -27.235439 2.107434 -1.001919
v -27.237269 2.106787 -0.999504
v -27.235439 2.106314 -1.001272
v -27.337269 2.109849 -1.002566
v -27.339099 2.108082 -1.003040
v -27.337269 2.106787 -0.999504
v -27.339099 2.106314 -1.001272
v -27.337269 2.108729 -1.000625
v -27.339099 2.107434 -1.001919
v -27.235439 2.146904 -1.147929
v -27.237269 2.148672 -1.147455
v -27.237269 2.122790 -1.050862
v -27.237269 2.135731 -1.099159
v -27.235439 2.121022 -1.051336
v -27.235439 2.133963 -1.099632
v -27.334769 2.148025 -1.152111
v -27.334769 2.149319 -1.149870
v -27.239769 2.149319 -1.149870
v -27.239769 2.148025 -1.152111
v -27.287269 2.148025 -1.152111
v -27.287269 2.149319 -1.149870
v -27.337269 2.148672 -1.147455
v -27.339099 2.146904 -1.147929
v -27.339099 2.121022 -1.051336
v -27.339099 2.133963 -1.099632
v -27.337269 2.122790 -1.050862
v -27.337269 2.135731 -1.099159
v -27.239769 1.801400 -1.082627
v -27.239769 1.802694 -1.080385
v -27.334769 1.802694 -1.080385
v -27.334769 1.801400 -1.082627
v -27.287269 1.801400 -1.082627
v -27.287269 1.802694 -1.080385
v -27.237269 1.802047 -1.085041
v -27.235439 1.803815 -1.084568
v -27.237269 1.803168 -1.080859
v -27.235439 1.804462 -1.082153
v -27.237269 1.802047 -1.082800
v -27.235439 1.803815 -1.083274
v -27.237269 2.147551 -1.151638
v -27.235439 2.146257 -1.150343
v -27.237269 2.148672 -1.149696
v -27.235439 2.146904 -1.149223
v -27.337269 2.148672 -1.149696
v -27.339099 2.146904 -1.149223
v -27.337269 2.147551 -1.151638
v -27.339099 2.146257 -1.150343
v -27.339099 1.803815 -1.084568
v -27.337269 1.802047 -1.085041
v -27.337269 1.802047 -1.082800
v -27.339099 1.803815 -1.083274
v -27.337269 1.803168 -1.080859
v -27.339099 1.804462 -1.082153
v -27.237269 1.840870 -1.229930
v -27.235439 1.842638 -1.229457
v -27.235439 1.816756 -1.132864
v -27.235439 1.829697 -1.181160
v -27.237269 1.814988 -1.133338
v -27.237269 1.827929 -1.181634
v -27.339099 1.842638 -1.229457
v -27.337269 1.840870 -1.229930
v -27.337269 1.814988 -1.133338
v -27.337269 1.827929 -1.181634
v -27.339099 1.816756 -1.132864
v -27.339099 1.829697 -1.181160
v -27.239769 1.841517 -1.232345
v -27.239769 1.843758 -1.233639
v -27.235439 1.844405 -1.231224
v -27.237269 1.843932 -1.232992
v -27.237269 1.841991 -1.231871
v -27.235439 1.843285 -1.230577
v -27.334769 1.843758 -1.233639
v -27.334769 1.841517 -1.232345
v -27.339099 1.843285 -1.230577
v -27.337269 1.841991 -1.231871
v -27.337269 1.843932 -1.232992
v -27.339099 1.844405 -1.231224
v -27.287269 1.843758 -1.233639
v -27.287269 1.841517 -1.232345
vt 0.155000 -0.275000 0.000000
vt 0.005000 -0.275000 0.000000
vt 0.155000 -0.315000 0.000000
vt 0.005000 -0.315000 0.000000
vt 0.005000 -0.045000 0.000000
vt 0.155000 -0.045000 0.000000
vt 0.005000 -0.005000 0.000000
vt 0.155000 -0.005000 0.000000
vt 0.005000 0.007854 0.000000
vt 0.045000 0.007854 0.000000
vt 0.005000 0.010472 0.000000
vt 0.056667 0.010472 0.000000
vt 0.005000 0.013090 0.000000
vt 0.056667 0.013090 0.000000
vt 0.045000 0.015708 0.000000
vt 0.108333 0.013090 0.000000
vt 0.160000 0.013090 0.000000
vt 0.160000 0.010472 0.000000
vt 0.211667 0.010472 0.000000
vt 0.275000 0.007854 0.000000
vt 0.263333 0.010472 0.000000
vt 0.315000 0.010472 0.000000
vt 0.263333 0.013090 0.000000
vt 0.315000 0.013090 0.000000
vt 0.275000 0.015708 0.000000
vt 0.315000 0.015708 0.000000
vt 0.108333 0.010472 0.000000
vt 0.315000 0.007854 0.000000
vt 0.211667 0.013090 0.000000
vt 0.005000 0.015708 0.000000
vt 0.045000 -0.005000 0.000000
vt 0.005000 -0.005000 0.000000
vt 0.045000 -0.100000 0.000000
vt 0.005000 -0.100000 0.000000
vt 0.275000 -0.100000 0.000000
vt 0.315000 -0.100000 0.000000
vt 0.275000 -0.005000 0.000000
vt 0.315000 -0.005000 0.000000
vt 0.315000 -0.000000 0.000000
vt 0.275000 -0.000000 0.000000
vt 0.315000 -0.002618 0.000000
vt 0.263333 -0.002618 0.000000
vt 0.315000 -0.005236 0.000000
vt 0.263333 -0.005236 0.000000
vt 0.275000 -0.007854 0.000000
vt 0.211667 -0.005236 0.000000
vt 0.160000 -0.005236 0.000000
vt 0.160000 -0.002618 0.000000
vt 0.108333 -0.002618 0.000000
vt 0.045000 -0.000000 0.000000
vt 0.056667 -0.002618 0.000000
vt 0.005000 -0.002618 0.000000
vt 0.056667 -0.005236 0.000000
vt 0.005000 -0.005236 0.000000
vt 0.045000 -0.007854 0.000000
vt 0.005000 -0.007854 0.000000
vt 0.211667 -0.002618 0.000000
vt 0.005000 -0.000000 0.000000
vt 0.108333 -0.005236 0.000000
vt 0.315000 -0.007854 0.000000
vt -0.005000 -0.275000 0.000000
vt -0.155000 -0.275000 0.000000
vt -0.005000 -0.315000 0.000000
vt -0.155000 -0.315000 0.000000
vt -0.155000 -0.045000 0.000000
vt -0.005000 -0.045000 0.000000
vt -0.155000 -0.005000 0.000000
vt -0.005000 -0.005000 0.000000
vt -0.005000 -0.015708 0.000000
vt -0.045000 -0.015708 0.000000
vt -0.005000 -0.018326 0.000000
vt -0.056667 -0.018326 0.000000
vt -0.005000 -0.020944 0.000000
vt -0.056667 -0.020944 0.000000
vt -0.045000 -0.023562 0.000000
vt -0.108333 -0.020944 0.000000
vt -0.160000 -0.020944 0.000000
vt -0.160000 -0.018326 0.000000
vt -0.211667 -0.018326 0.000000
vt -0.275000 -0.015708 0.000000
vt -0.263333 -0.018326 0.000000
vt -0.315000 -0.018326 0.000000
vt -0.263333 -0.020944 0.000000
vt -0.315000 -0.020944 0.000000
vt -0.275000 -0.023562 0.000000
vt -0.315000 -0.023562 0.000000
vt -0.108333 -0.018326 0.000000
vt -0.315000 -0.015708 0.000000
vt -0.211667 -0.020944 0.000000
vt -0.005000 -0.023562 0.000000
vt -0.315000 -0.007854 0.000000
vt -0.275000 -0.007854 0.000000
vt -0.315000 -0.005236 0.000000
vt -0.263333 -0.005236 0.000000
vt -0.315000 -0.002618 0.000000
vt -0.263333 -0.002618 0.000000
vt -0.275000 0.000000 0.000000
vt -0.211667 -0.002618 0.000000
vt -0.160000 -0.002618 0.000000
vt -0.160000 -0.005236 0.000000
vt -0.108333 -0.005236 0.000000
vt -0.045000 -0.007854 0.000000
vt -0.056667 -0.005236 0.000000
vt -0.005000 -0.005236 0.000000
vt -0.056667 -0.002618 0.000000
vt -0.005000 -0.002618 0.000000
vt -0.045000 0.000000 0.000000
vt -0.005000 0.000000 0.000000
vt -0.211667 -0.005236 0.000000
vt -0.005000 -0.007854 0.000000
vt -0.108333 -0.002618 0.000000
vt -0.315000 0.000000 0.000000
vt -0.045000 -0.100000 0.000000
vt -0.005000 -0.100000 0.000000
vt -0.045000 -0.005000 0.000000
vt -0.005000 -0.005000 0.000000
vt -0.275000 -0.005000 0.000000
vt -0.315000 -0.005000 0.000000
vt -0.275000 -0.100000 0.000000
vt -0.315000 -0.100000 0.000000
vt 0.155000 -0.005000 0.000000
vt 0.005000 -0.005000 0.000000
vt 0.155000 -0.100000 0.000000
vt 0.005000 -0.100000 0.000000
vt -0.275000 -0.100000 0.000000
vt -0.045000 -0.100000 0.000000
vt -0.275000 -0.005000 0.000000
vt -0.045000 -0.005000 0.000000
vt -0.005000 -0.005000 0.000000
vt -0.155000 -0.005000 0.000000
vt -0.005000 -0.100000 0.000000
vt -0.155000 -0.100000 0.000000
vt 0.275000 -0.005000 0.000000
vt 0.045000 -0.005000 0.000000
vt 0.275000 -0.100000 0.000000
vt 0.045000 -0.100000 0.000000
vt 0.005000 -0.275000 0.000000
vt 0.155000 -0.275000 0.000000
vt 0.005000 -0.045000 0.000000
vt 0.155000 -0.045000 0.000000
vt -0.155000 -0.275000 0.000000
vt -0.005000 -0.275000 0.000000
vt -0.155000 -0.045000 0.000000
vt -0.005000 -0.045000 0.000000
vt -0.100000 -0.015708 0.000000
vt -0.005000 -0.015708 0.000000
vt -0.052500 -0.013090 0.000000
vt -0.005000 -0.013090 0.000000
vt -0.052500 -0.010472 0.000000
vt -0.005000 -0.010472 0.000000
vt -0.005000 -0.007854 0.000000
vt -0.100000 -0.007854 0.000000
vt -0.100000 -0.010472 0.000000
vt -0.100000 -0.013090 0.000000
vt -0.007854 -0.009256 0.000000
vt -0.005236 -0.011107 0.000000
vt -0.005236 -0.009256 0.000000
vt -0.002618 -0.011107 0.000000
vt -0.002618 -0.009256 0.000000
vt -0.000000 -0.011107 0.000000
vt -0.000000 -0.009256 0.000000
vt -0.002618 -0.007405 0.000000
vt -0.000000 -0.007405 0.000000
vt -0.002618 -0.005554 0.000000
vt -0.000000 -0.005554 0.000000
vt -0.005236 -0.005554 0.000000
vt -0.005236 -0.007405 0.000000
vt -0.007854 -0.005554 0.000000
vt -0.007854 -0.007405 0.000000
vt 0.007854 -0.007405 0.000000
vt 0.005236 -0.005554 0.000000
vt 0.005236 -0.007405 0.000000
vt 0.002618 -0.005554 0.000000
vt 0.002618 -0.007405 0.000000
vt 0.000000 -0.005554 0.000000
vt -0.000000 -0.007405 0.000000
vt 0.002618 -0.009256 0.000000
vt -0.000000 -0.009256 0.000000
vt 0.002618 -0.011107 0.000000
vt -0.000000 -0.011107 0.000000
vt 0.005236 -0.011107 0.000000
vt 0.005236 -0.009256 0.000000
vt 0.007854 -0.011107 0.000000
vt 0.007854 -0.009256 0.000000
vt -0.155000 -0.018326 0.000000
vt -0.105000 -0.018326 0.000000
vt -0.155000 -0.015708 0.000000
vt -0.055000 -0.018326 0.000000
vt -0.005000 -0.015708 0.000000
vt -0.005000 -0.018326 0.000000
vt -0.005000 -0.020944 0.000000
vt -0.055000 -0.020944 0.000000
vt -0.005000 -0.023562 0.000000
vt -0.105000 -0.020944 0.000000
vt -0.155000 -0.023562 0.000000
vt -0.155000 -0.020944 0.000000
vt -0.005000 0.000000 0.000000
vt -0.100000 0.000000 0.000000
vt -0.052500 -0.002618 0.000000
vt -0.100000 -0.002618 0.000000
vt -0.052500 -0.005236 0.000000
vt -0.100000 -0.005236 0.000000
vt -0.100000 -0.007854 0.000000
vt -0.005000 -0.007854 0.000000
vt -0.005000 -0.005236 0.000000
vt -0.005000 -0.002618 0.000000
vt -0.005000 -0.005236 0.000000
vt -0.055000 -0.005236 0.000000
vt -0.005000 -0.007854 0.000000
vt -0.105000 -0.005236 0.000000
vt -0.155000 -0.007854 0.000000
vt -0.155000 -0.005236 0.000000
vt -0.155000 -0.002618 0.000000
vt -0.105000 -0.002618 0.000000
vt -0.155000 0.000000 0.000000
vt -0.055000 -0.002618 0.000000
vt -0.005000 0.000000 0.000000
vt -0.005000 -0.002618 0.000000
vt -0.100000 0.007854 0.000000
vt -0.005000 0.007854 0.000000
vt -0.052500 0.010472 0.000000
vt -0.005000 0.010472 0.000000
vt -0.052500 0.013090 0.000000
vt -0.005000 0.013090 0.000000
vt -0.005000 0.015708 0.000000
vt -0.100000 0.015708 0.000000
vt -0.100000 0.013090 0.000000
vt -0.100000 0.010472 0.000000
vt -0.007854 -0.003702 0.000000
vt -0.005236 -0.005554 0.000000
vt -0.005236 -0.003702 0.000000
vt -0.002618 -0.005554 0.000000
vt -0.002618 -0.003702 0.000000
vt -0.000000 -0.005554 0.000000
vt -0.000000 -0.003702 0.000000
vt -0.002618 -0.001851 0.000000
vt 0.000000 -0.001851 0.000000
vt -0.002618 -0.000000 0.000000
vt -0.000000 0.000000 0.000000
vt -0.005236 -0.000000 0.000000
vt -0.005236 -0.001851 0.000000
vt -0.007854 -0.000000 0.000000
vt -0.007854 -0.001851 0.000000
vt -0.002618 0.005554 0.000000
vt 0.000000 0.005554 0.000000
vt -0.002618 0.007405 0.000000
vt 0.000000 0.007405 0.000000
vt -0.002618 0.009256 0.000000
vt -0.000000 0.009256 0.000000
vt -0.002618 0.011107 0.000000
vt 0.000000 0.011107 0.000000
vt -0.005236 0.011107 0.000000
vt -0.005236 0.009256 0.000000
vt -0.005236 0.007405 0.000000
vt -0.005236 0.005554 0.000000
vt -0.007854 0.007405 0.000000
vt -0.007854 0.011107 0.000000
vt -0.007854 0.009256 0.000000
vt 0.007854 0.009256 0.000000
vt 0.005236 0.011107 0.000000
vt 0.005236 0.009256 0.000000
vt 0.002618 0.011107 0.000000
vt 0.002618 0.009256 0.000000
vt -0.000000 0.011107 0.000000
vt -0.000000 0.009256 0.000000
vt 0.002618 0.007405 0.000000
vt 0.000000 0.007405 0.000000
vt 0.002618 0.005554 0.000000
vt -0.000000 0.005554 0.000000
vt 0.005236 0.005554 0.000000
vt 0.005236 0.007405 0.000000
vt 0.007854 0.005554 0.000000
vt 0.007854 0.007405 0.000000
vt 0.002618 0.000000 0.000000
vt 0.000000 -0.000000 0.000000
vt 0.002618 -0.001851 0.000000
vt 0.000000 -0.001851 0.000000
vt 0.002618 -0.003702 0.000000
vt -0.000000 -0.003702 0.000000
vt 0.002618 -0.005554 0.000000
vt -0.000000 -0.005554 0.000000
vt 0.005236 -0.005554 0.000000
vt 0.005236 -0.003702 0.000000
vt 0.005236 -0.001851 0.000000
vt 0.005236 0.000000 0.000000
vt 0.007854 -0.001851 0.000000
vt 0.007854 -0.005554 0.000000
vt 0.007854 -0.003702 0.000000
vt 0.155000 0.010472 0.000000
vt 0.105000 0.010472 0.000000
vt 0.155000 0.007854 0.000000
vt 0.055000 0.010472 0.000000
vt 0.005000 0.007854 0.000000
vt 0.005000 0.010472 0.000000
vt 0.005000 0.013090 0.000000
vt 0.055000 0.013090 0.000000
vt 0.005000 0.015708 0.000000
vt 0.105000 0.013090 0.000000
vt 0.155000 0.015708 0.000000
vt 0.155000 0.013090 0.000000
vt 0.005000 -0.002618 0.000000
vt 0.055000 -0.002618 0.000000
vt 0.005000 -0.000000 0.000000
vt 0.105000 -0.002618 0.000000
vt 0.155000 -0.000000 0.000000
vt 0.155000 -0.002618 0.000000
vt 0.155000 -0.005236 0.000000
vt 0.105000 -0.005236 0.000000
vt 0.155000 -0.007854 0.000000
vt 0.055000 -0.005236 0.000000
vt 0.005000 -0.007854 0.000000
vt 0.005000 -0.005236 0.000000
vt 0.000000 0.005554 0.000000
vt -0.002618 0.005554 0.000000
vt 0.000000 0.003702 0.000000
vt -0.002618 0.003702 0.000000
vt 0.000000 0.001851 0.000000
vt -0.002618 0.001851 0.000000
vt 0.000000 -0.000000 0.000000
vt -0.002618 -0.000000 0.000000
vt -0.005236 0.001851 0.000000
vt -0.005236 -0.000000 0.000000
vt -0.007854 0.001851 0.000000
vt -0.005236 0.005554 0.000000
vt -0.005236 0.003702 0.000000
vt -0.007854 0.005554 0.000000
vt -0.007854 0.003702 0.000000
vt 0.000000 0.000000 0.000000
vt 0.002618 0.000000 0.000000
vt 0.000000 0.001851 0.000000
vt 0.002618 0.001851 0.000000
vt 0.000000 0.003702 0.000000
vt 0.002618 0.003702 0.000000
vt 0.000000 0.005554 0.000000
vt 0.002618 0.005554 0.000000
vt 0.005236 0.003702 0.000000
vt 0.005236 0.005554 0.000000
vt 0.007854 0.003702 0.000000
vt 0.005236 0.000000 0.000000
vt 0.005236 0.001851 0.000000
vt 0.007854 0.000000 0.000000
vt 0.007854 0.001851 0.000000
vt -0.100000 0.000000 0.000000
vt -0.005000 0.000000 0.000000
vt -0.052500 0.002618 0.000000
vt -0.005000 0.002618 0.000000
vt -0.052500 0.005236 0.000000
vt -0.005000 0.005236 0.000000
vt -0.005000 0.007854 0.000000
vt -0.100000 0.007854 0.000000
vt -0.100000 0.005236 0.000000
vt -0.100000 0.002618 0.000000
vn 1.000000 0.000000 0.000000
vn 1.000000 0.000000 0.000000
vn 1.000000 0.000000 0.000000
vn 1.000000 0.000000 0.000000
vn 1.000000 0.000000 0.000000
vn 1.000000 0.000000 0.000000
vn 1.000000 0.000000 0.000000
vn 1.000000 0.000000 0.000000
vn 0.866025 -0.129410 0.482963
vn 0.866025 -0.129410 0.482963
vn 0.500000 -0.224144 0.836516
vn 0.500000 -0.224144 0.836516
vn -0.000000 -0.258819 0.965926
vn 0.500000 -0.224144 0.836516
vn 0.500000 -0.224144 0.836516
vn 0.866025 -0.129410 0.482963
vn 0.866025 -0.129410 0.482963
vn 0.866025 -0.129410 0.482963
vn 0.866025 -0.129410 0.482963
vn 0.500000 -0.224144 0.836516
vn 0.500000 -0.224144 0.836516
vn -0.000000 -0.258819 0.965926
vn -0.000000 -0.258819 0.965926
vn 0.866025 -0.129410 0.482963
vn 0.500000 -0.224144 0.836516
vn -0.000000 -0.258819 0.965926
vn -0.000000 -0.258819 0.965926
vn -0.000000 -0.258819 0.965926
vn -0.000000 -0.258819 0.965926
vn -0.000000 -0.258819 0.965926
vn -0.000000 -0.258819 0.965926
vn -0.000000 -0.258819 0.965926
vn -0.000000 -0.258819 0.965926
vn -0.000000 -0.258819 0.965926
vn -0.500000 -0.224144 0.836516
vn -0.500000 -0.224144 0.836516
vn -0.866025 -0.129410 0.482963
vn -0.866025 -0.129410 0.482963
vn -1.000000 -0.000000 -0.000000
vn -0.866025 -0.129410 0.482963
vn -0.866025 -0.129410 0.482963
vn -0.500000 -0.224144 0.836516
vn -0.500000 -0.224144 0.836516
vn -0.000000 -0.258819 0.965926
vn -0.500000 -0.224144 0.836516
vn -0.500000 -0.224144 0.836516
vn -0.866025 -0.129410 0.482963
vn -0.866025 -0.129410 0.482963
vn -1.000000 -0.000000 -0.000000
vn -1.000000 -0.000000 -0.000000
vn -0.500000 -0.224144 0.836516
vn -0.000000 -0.258819 0.965926
vn -0.866025 -0.129410 0.482963
vn -1.000000 -0.000000 -0.000000
vn -1.000000 -0.000000 -0.000000
vn -1.000000 -0.000000 -0.000000
vn -1.000000 -0.000000 -0.000000
vn -1.000000 -0.000000 -0.000000
vn 0.000000 0.258819 -0.965926
vn 0.000000 0.258819 -0.965926
vn 0.500000 0.224144 -0.836516
vn 0.500000 0.224144 -0.836516
vn 0.866025 0.129410 -0.482963
vn 0.866025 0.129410 -0.482963
vn 0.866025 0.129410 -0.482963
vn 0.866025 0.129410 -0.482963
vn 0.500000 0.224144 -0.836516
vn 0.500000 0.224144 -0.836516
vn 0.000000 0.258819 -0.965926
vn 0.500000 0.224144 -0.836516
vn 0.500000 0.224144 -0.836516
vn 0.866025 0.129410 -0.482963
vn 0.866025 0.129410 -0.482963
vn 0.500000 0.224144 -0.836516
vn 0.000000 0.258819 -0.965926
vn 0.866025 0.129410 -0.482963
vn -0.866025 0.129410 -0.482963
vn -0.866025 0.129410 -0.482963
vn -0.500000 0.224144 -0.836516
vn -0.500000 0.224144 -0.836516
vn 0.000000 0.258819 -0.965926
vn -0.500000 0.224144 -0.836516
vn -0.500000 0.224144 -0.836516
vn -0.866025 0.129410 -0.482963
vn -0.866025 0.129410 -0.482963
vn -0.866025 0.129410 -0.482963
vn -0.866025 0.129410 -0.482963
vn -0.500000 0.224144 -0.836516
vn -0.500000 0.224144 -0.836516
vn 0.000000 0.258819 -0.965926
vn 0.000000 0.258819 -0.965926
vn -0.866025 0.129410 -0.482963
vn -0.500000 0.224144 -0.836516
vn 0.000000 0.258819 -0.965926
vn 0.000000 0.258819 -0.965926
vn 0.000000 0.258819 -0.965926
vn 0.000000 -0.965926 -0.258819
vn 0.000000 -0.965926 -0.258819
vn 0.000000 -0.965926 -0.258819
vn 0.000000 -0.965926 -0.258819
vn -0.000000 0.965926 0.258819
vn -0.000000 0.965926 0.258819
vn -0.000000 0.965926 0.258819
vn -0.000000 0.965926 0.258819
vn -0.000000 0.258819 0.965926
vn -0.000000 0.258819 0.965926
vn -0.000000 0.707107 0.707107
vn -0.000000 0.707107 0.707107
vn -0.000000 0.707107 0.707107
vn -0.000000 0.258819 0.965926
vn 0.866025 0.482963 0.129410
vn 0.866025 0.353553 0.353553
vn 0.500000 0.836516 0.224144
vn 0.500000 0.612372 0.612372
vn 0.000000 0.965926 0.258819
vn 0.000000 0.707107 0.707107
vn 0.500000 0.224144 0.836516
vn 0.000000 0.258819 0.965926
vn 0.500000 -0.224144 0.836516
vn 0.000000 -0.258819 0.965926
vn 0.866025 0.129410 0.482963
vn -0.866025 -0.129410 0.482963
vn -0.866025 0.129410 0.482963
vn -0.500000 -0.224144 0.836516
vn -0.500000 0.224144 0.836516
vn -0.000000 -0.258819 0.965926
vn 0.000000 0.258819 0.965926
vn -0.500000 0.612372 0.612372
vn 0.000000 0.707107 0.707107
vn -0.500000 0.836516 0.224144
vn 0.000000 0.965926 0.258819
vn -0.866025 0.482963 0.129410
vn -0.866025 0.353553 0.353553
vn 0.500000 0.836516 0.224144
vn 0.500000 0.836516 0.224144
vn -0.000000 0.965926 0.258819
vn 0.500000 0.836516 0.224144
vn 0.866025 0.482963 0.129410
vn 0.866025 0.482963 0.129410
vn 0.866025 0.482963 0.129410
vn 0.000000 0.707107 -0.707107
vn 0.000000 0.707107 -0.707107
vn -0.000000 0.965926 -0.258819
vn -0.000000 0.965926 -0.258819
vn -0.000000 0.965926 -0.258819
vn 0.000000 0.707107 -0.707107
vn -0.866025 0.482963 0.129410
vn -0.866025 0.482963 0.129410
vn -0.866025 0.482963 0.129410
vn -0.500000 0.836516 0.224144
vn -0.500000 0.836516 0.224144
vn 0.000000 0.965926 0.258819
vn -0.500000 0.836516 0.224144
vn 0.000000 0.965926 0.258819
vn -0.500000 0.836516 0.224144
vn 0.000000 -0.965926 0.258819
vn 0.000000 -0.965926 0.258819
vn -0.000000 -0.707107 0.707107
vn -0.000000 -0.707107 0.707107
vn -0.000000 -0.707107 0.707107
vn 0.000000 -0.965926 0.258819
vn 0.866025 -0.129410 0.482963
vn 0.866025 -0.353553 0.353553
vn 0.500000 -0.224144 0.836516
vn 0.500000 -0.612372 0.612372
vn 0.000000 -0.258819 0.965926
vn 0.000000 -0.707107 0.707107
vn 0.500000 -0.836516 0.224144
vn 0.500000 -0.836516 -0.224144
vn 0.000000 -0.965926 -0.258819
vn 0.866025 -0.482963 -0.129410
vn 0.866025 -0.482963 0.129410
vn 0.500000 0.224144 -0.836516
vn 0.000000 0.258819 -0.965926
vn 0.500000 0.612372 -0.612372
vn 0.000000 0.707107 -0.707107
vn 0.500000 0.836516 -0.224144
vn 0.500000 0.836516 0.224144
vn -0.000000 0.965926 0.258819
vn 0.866025 0.482963 0.129410
vn 0.866025 0.482963 -0.129410
vn 0.866025 0.353553 -0.353553
vn 0.866025 0.129410 -0.482963
vn -0.866025 0.482963 -0.129410
vn -0.500000 0.836516 -0.224144
vn -0.500000 0.612372 -0.612372
vn 0.000000 0.707107 -0.707107
vn -0.500000 0.224144 -0.836516
vn 0.000000 0.258819 -0.965926
vn -0.866025 0.129410 -0.482963
vn -0.866025 0.353553 -0.353553
vn -0.500000 -0.836516 -0.224144
vn 0.000000 -0.965926 -0.258819
vn -0.500000 -0.836516 0.224144
vn -0.500000 -0.612372 0.612372
vn 0.000000 -0.707107 0.707107
vn -0.500000 -0.224144 0.836516
vn 0.000000 -0.258819 0.965926
vn -0.866025 -0.129410 0.482963
vn -0.866025 -0.353553 0.353553
vn -0.866025 -0.482963 0.129410
vn -0.866025 -0.482963 -0.129410
vn 0.866025 -0.482963 -0.129410
vn 0.866025 -0.482963 -0.129410
vn 0.866025 -0.482963 -0.129410
vn 0.866025 -0.482963 -0.129410
vn 0.500000 -0.836516 -0.224144
vn 0.500000 -0.836516 -0.224144
vn 0.500000 -0.836516 -0.224144
vn -0.500000 -0.836516 -0.224144
vn -0.500000 -0.836516 -0.224144
vn -0.000000 -0.965926 -0.258819
vn -0.500000 -0.836516 -0.224144
vn 0.000000 -0.965926 -0.258819
vn -0.500000 -0.836516 -0.224144
vn -0.866025 -0.482963 -0.129410
vn -0.866025 -0.482963 -0.129410
vn -0.866025 -0.482963 -0.129410
vn -0.866025 -0.482963 -0.129410
vn 0.000000 0.258819 -0.965926
vn 0.500000 0.224144 -0.836516
vn 0.000000 -0.258819 -0.965926
vn 0.500000 -0.224144 -0.836516
vn 0.000000 -0.707107 -0.707107
vn 0.500000 -0.612372 -0.612372
vn 0.000000 -0.965926 -0.258819
vn 0.500000 -0.836516 -0.224144
vn 0.866025 -0.353553 -0.353553
vn 0.866025 -0.482963 -0.129410
vn 0.866025 0.129410 -0.482963
vn 0.866025 -0.129410 -0.482963
vn 0.000000 -0.707107 -0.707107
vn -0.500000 -0.612372 -0.612372
vn 0.000000 -0.258819 -0.965926
vn -0.500000 -0.224144 -0.836516
vn 0.000000 0.258819 -0.965926
vn -0.500000 0.224144 -0.836516
vn -0.866025 -0.129410 -0.482963
vn -0.866025 -0.353553 -0.353553
vn 0.000000 -0.258819 -0.965926
vn 0.000000 -0.258819 -0.965926
vn 0.000000 -0.707107 -0.707107
vn 0.000000 -0.707107 -0.707107
vn 0.000000 -0.707107 -0.707107
vn 0.000000 -0.258819 -0.965926
usemtl Opaque(202,209,238)
f 1/1/1 2/2/2 4/3/3
f 4/3/3 2/2/2 3/4/4
f 5/5/5 6/6/6 8/7/7
f 8/7/7 6/6/6 7/8/8
f 7/9/8 6/10/6 16/11/9
f 16/11/9 6/10/6 21/12/10
f 16/11/9 21/12/10 15/13/11
f 15/13/11 21/12/10 26/14/12
f 15/13/11 26/14/12 13/15/13
f 13/15/13 26/14/12 25/16/14
f 13/15/13 25/16/14 24/17/15
f 24/17/15 25/16/14 19/18/16
f 24/17/15 19/18/16 18/19/17
f 18/19/17 19/18/16 1/20/1
f 18/19/17 1/20/1 17/21/18
f 17/21/18 1/20/1 9/22/19
f 17/21/18 9/22/19 22/23/20
f 22/23/20 9/22/19 10/24/21
f 22/23/20 10/24/21 12/25/22
f 12/25/22 10/24/21 11/26/23
f 1/20/1 19/18/16 6/10/6
f 6/10/6 19/18/16 20/27/24
f 6/10/6 20/27/24 21/12/10
f 21/12/10 20/27/24 26/14/12
f 1/20/1 4/28/3 9/22/19
f 13/15/13 24/17/15 12/25/22
f 12/25/22 24/17/15 23/29/25
f 12/25/22 23/29/25 22/23/20
f 22/23/20 23/29/25 17/21/18
f 13/15/13 14/30/26 15/13/11
f 24/17/15 18/19/17 23/29/25
f 23/29/25 18/19/17 17/21/18
f 26/14/12 20/27/24 25/16/14
f 25/16/14 20/27/24 19/18/16
f 12/31/22 11/32/23 27/33/27
f 27/33/27 11/32/23 28/34/28
f 29/35/29 30/36/30 13/37/31
f 13/37/31 30/36/30 14/38/32
f 30/39/33 29/40/34 38/41/35
f 38/41/35 29/40/34 43/42/36
f 38/41/35 43/42/36 37/43/37
f 37/43/37 43/42/36 48/44/38
f 37/43/37 48/44/38 35/45/39
f 35/45/39 48/44/38 47/46/40
f 35/45/39 47/46/40 46/47/41
f 46/47/41 47/46/40 41/48/42
f 46/47/41 41/48/42 40/49/43
f 40/49/43 41/48/42 27/50/44
f 40/49/43 27/50/44 39/51/45
f 39/51/45 27/50/44 31/52/46
f 39/51/45 31/52/46 44/53/47
f 44/53/47 31/52/46 32/54/48
f 44/53/47 32/54/48 34/55/49
f 34/55/49 32/54/48 33/56/50
f 27/50/44 41/48/42 29/40/34
f 29/40/34 41/48/42 42/57/51
f 29/40/34 42/57/51 43/42/36
f 43/42/36 42/57/51 48/44/38
f 27/50/44 28/58/52 31/52/46
f 35/45/39 46/47/41 34/55/49
f 34/55/49 46/47/41 45/59/53
f 34/55/49 45/59/53 44/53/47
f 44/53/47 45/59/53 39/51/45
f 35/45/39 36/60/54 37/43/37
f 46/47/41 40/49/43 45/59/53
f 45/59/53 40/49/43 39/51/45
f 48/44/38 42/57/51 47/46/40
f 47/46/40 42/57/51 41/48/42
f 50/61/55 34/62/49 49/63/56
f 49/63/56 34/62/49 33/64/50
f 35/65/39 51/66/57 36/67/54
f 36/67/54 51/66/57 52/68/58
f 53/69/59 54/70/60 60/71/61
f 60/71/61 54/70/60 65/72/62
f 60/71/61 65/72/62 59/73/63
f 59/73/63 65/72/62 70/74/64
f 59/73/63 70/74/64 5/75/5
f 5/75/5 70/74/64 69/76/65
f 5/75/5 69/76/65 68/77/66
f 68/77/66 69/76/65 63/78/67
f 68/77/66 63/78/67 62/79/68
f 62/79/68 63/78/67 55/80/69
f 62/79/68 55/80/69 61/81/70
f 61/81/70 55/80/69 57/82/71
f 61/81/70 57/82/71 66/83/72
f 66/83/72 57/82/71 58/84/73
f 66/83/72 58/84/73 2/85/2
f 2/85/2 58/84/73 3/86/4
f 55/80/69 63/78/67 54/70/60
f 54/70/60 63/78/67 64/87/74
f 54/70/60 64/87/74 65/72/62
f 65/72/62 64/87/74 70/74/64
f 55/80/69 56/88/75 57/82/71
f 5/75/5 68/77/66 2/85/2
f 2/85/2 68/77/66 67/89/76
f 2/85/2 67/89/76 66/83/72
f 66/83/72 67/89/76 61/81/70
f 5/75/5 8/90/7 59/73/63
f 68/77/66 62/79/68 67/89/76
f 67/89/76 62/79/68 61/81/70
f 70/74/64 64/87/74 69/76/65
f 69/76/65 64/87/74 63/78/67
f 52/91/58 51/92/57 78/93/77
f 78/93/77 51/92/57 83/94/78
f 78/93/77 83/94/78 77/95/79
f 77/95/79 83/94/78 88/96/80
f 77/95/79 88/96/80 75/97/81
f 75/97/81 88/96/80 87/98/82
f 75/97/81 87/98/82 86/99/83
f 86/99/83 87/98/82 81/100/84
f 86/99/83 81/100/84 80/101/85
f 80/101/85 81/100/84 50/102/55
f 80/101/85 50/102/55 79/103/86
f 79/103/86 50/102/55 71/104/87
f 79/103/86 71/104/87 84/105/88
f 84/105/88 71/104/87 72/106/89
f 84/105/88 72/106/89 74/107/90
f 74/107/90 72/106/89 73/108/91
f 50/102/55 81/100/84 51/92/57
f 51/92/57 81/100/84 82/109/92
f 51/92/57 82/109/92 83/94/78
f 83/94/78 82/109/92 88/96/80
f 50/102/55 49/110/56 71/104/87
f 75/97/81 86/99/83 74/107/90
f 74/107/90 86/99/83 85/111/93
f 74/107/90 85/111/93 84/105/88
f 84/105/88 85/111/93 79/103/86
f 75/97/81 76/112/94 77/95/79
f 86/99/83 80/101/85 85/111/93
f 85/111/93 80/101/85 79/103/86
f 88/96/80 82/109/92 87/98/82
f 87/98/82 82/109/92 81/100/84
f 74/113/95 73/114/96 55/115/69
f 55/115/69 73/114/96 56/116/75
f 54/117/60 53/118/59 75/119/81
f 75/119/81 53/118/59 76/120/94
f 90/121/97 91/122/98 89/123/99
f 89/123/99 91/122/98 92/124/100
f 75/125/81 74/126/95 54/127/60
f 54/127/60 74/126/95 55/128/69
f 94/129/101 95/130/102 93/131/103
f 93/131/103 95/130/102 96/132/104
f 13/133/31 12/134/22 29/135/29
f 29/135/29 12/134/22 27/136/27
f 2/137/2 1/138/1 5/139/5
f 5/139/5 1/138/1 6/140/6
f 34/141/49 50/142/55 35/143/39
f 35/143/39 50/142/55 51/144/57
f 28/145/28 11/146/23 101/147/105
f 101/147/105 11/146/23 97/148/106
f 101/147/105 97/148/106 102/149/107
f 102/149/107 97/148/106 98/150/108
f 102/149/107 98/150/108 94/151/101
f 94/151/101 93/152/103 102/149/107
f 102/149/107 93/152/103 99/153/109
f 102/149/107 99/153/109 101/147/105
f 101/147/105 99/153/109 100/154/110
f 101/147/105 100/154/110 28/145/28
f 4/155/3 103/156/111 106/157/112
f 106/157/112 103/156/111 104/158/113
f 106/157/112 104/158/113 105/159/114
f 105/159/114 104/158/113 94/160/115
f 105/159/114 94/160/115 98/161/116
f 105/159/114 98/161/116 107/162/117
f 107/162/117 98/161/116 97/163/118
f 107/162/117 97/163/118 10/164/119
f 10/164/119 97/163/118 11/165/120
f 10/164/119 9/166/19 107/162/117
f 107/162/117 9/166/19 108/167/121
f 107/162/117 108/167/121 105/159/114
f 105/159/114 108/167/121 106/157/112
f 9/166/19 4/168/3 108/167/121
f 108/167/121 4/169/3 106/157/112
f 33/170/50 32/171/122 112/172/123
f 112/172/123 32/171/122 31/173/124
f 112/172/123 31/173/124 111/174/125
f 111/174/125 31/173/124 28/175/126
f 111/174/125 28/175/126 100/176/127
f 111/174/125 100/176/127 113/177/128
f 113/177/128 100/176/127 99/178/129
f 113/177/128 99/178/129 109/179/130
f 109/179/130 99/178/129 93/180/131
f 109/179/130 110/181/132 113/177/128
f 113/177/128 110/181/132 114/182/133
f 113/177/128 114/182/133 111/174/125
f 111/174/125 114/182/133 112/172/123
f 110/181/132 33/183/50 114/182/133
f 114/182/133 33/184/50 112/172/123
f 104/185/113 117/186/134 94/187/101
f 94/187/101 117/186/134 118/188/135
f 94/187/101 118/188/135 95/189/136
f 95/189/136 118/188/135 116/190/137
f 116/190/137 118/188/135 115/191/138
f 115/191/138 118/188/135 120/192/139
f 115/191/138 120/192/139 3/193/4
f 3/193/4 120/192/139 119/194/140
f 3/193/4 119/194/140 4/195/3
f 4/195/3 119/194/140 103/196/111
f 103/196/111 119/194/140 104/185/113
f 104/185/113 119/194/140 117/186/134
f 120/192/139 118/188/135 117/186/134
f 120/192/139 117/186/134 119/194/140
f 56/197/75 73/198/96 125/199/141
f 125/199/141 73/198/96 121/200/142
f 125/199/141 121/200/142 126/201/143
f 126/201/143 121/200/142 122/202/144
f 126/201/143 122/202/144 96/203/104
f 96/203/104 95/204/102 126/201/143
f 126/201/143 95/204/102 123/205/145
f 126/201/143 123/205/145 125/199/141
f 125/199/141 123/205/145 124/206/146
f 125/199/141 124/206/146 56/197/75
f 110/207/132 129/208/147 33/209/50
f 33/209/50 129/208/147 130/210/148
f 33/209/50 130/210/148 49/211/56
f 49/211/56 130/210/148 128/212/149
f 128/212/149 130/210/148 127/213/150
f 127/213/150 130/210/148 132/214/151
f 127/213/150 132/214/151 96/215/152
f 96/215/152 132/214/151 131/216/153
f 96/215/152 131/216/153 93/217/154
f 93/217/154 131/216/153 109/218/155
f 109/218/155 131/216/153 110/207/132
f 110/207/132 131/216/153 129/208/147
f 132/214/151 130/210/148 129/208/147
f 132/214/151 129/208/147 131/216/153
f 92/219/100 91/220/98 137/221/156
f 137/221/156 91/220/98 133/222/157
f 137/221/156 133/222/157 138/223/158
f 138/223/158 133/222/157 134/224/159
f 138/223/158 134/224/159 14/225/32
f 14/225/32 30/226/30 138/223/158
f 138/223/158 30/226/30 135/227/160
f 138/223/158 135/227/160 137/221/156
f 137/221/156 135/227/160 136/228/161
f 137/221/156 136/228/161 92/219/100
f 7/229/8 16/230/162 142/231/163
f 142/231/163 16/230/162 15/232/164
f 142/231/163 15/232/164 141/233/165
f 141/233/165 15/232/164 14/234/166
f 141/233/165 14/234/166 134/235/167
f 141/233/165 134/235/167 143/236/168
f 143/236/168 134/235/167 133/237/157
f 143/236/168 133/237/157 139/238/169
f 139/238/169 133/237/157 91/239/170
f 139/238/169 140/240/171 143/236/168
f 143/236/168 140/240/171 144/241/172
f 143/236/168 144/241/172 141/233/165
f 141/233/165 144/241/172 142/231/163
f 140/240/171 7/242/8 144/241/172
f 144/241/172 7/243/8 142/231/163
f 57/244/173 56/245/174 145/246/175
f 145/246/175 56/245/174 124/247/176
f 145/246/175 124/247/176 147/248/177
f 147/248/177 124/247/176 123/249/145
f 147/248/177 123/249/145 116/250/178
f 116/250/178 123/249/145 95/251/179
f 116/250/178 115/252/180 147/248/177
f 147/248/177 115/252/180 148/253/181
f 147/248/177 148/253/181 145/246/175
f 145/246/175 148/253/181 146/254/182
f 145/246/175 146/254/182 57/244/173
f 57/244/173 146/254/182 58/255/183
f 58/255/183 146/254/182 3/256/4
f 115/252/180 3/257/4 148/253/181
f 148/253/181 3/258/4 146/254/182
f 49/259/56 128/260/149 150/261/184
f 150/261/184 128/260/149 127/262/150
f 150/261/184 127/262/150 149/263/185
f 149/263/185 127/262/150 96/264/152
f 149/263/185 96/264/152 122/265/144
f 149/263/185 122/265/144 151/266/186
f 151/266/186 122/265/144 121/267/187
f 151/266/186 121/267/187 72/268/188
f 72/268/188 121/267/187 73/269/189
f 72/268/188 71/270/190 151/266/186
f 151/266/186 71/270/190 152/271/191
f 151/266/186 152/271/191 149/263/185
f 149/263/185 152/271/191 150/261/184
f 71/270/190 49/272/56 152/271/191
f 152/271/191 49/273/56 150/261/184
f 154/274/192 92/275/193 155/276/194
f 155/276/194 92/275/193 136/277/161
f 155/276/194 136/277/161 157/278/195
f 157/278/195 136/277/161 135/279/196
f 157/278/195 135/279/196 38/280/197
f 38/280/197 135/279/196 30/281/198
f 38/280/197 37/282/199 157/278/195
f 157/278/195 37/282/199 158/283/200
f 157/278/195 158/283/200 155/276/194
f 155/276/194 158/283/200 156/284/201
f 155/276/194 156/284/201 154/274/192
f 154/274/192 156/284/201 153/285/202
f 153/285/202 156/284/201 36/286/54
f 37/282/199 36/287/54 158/283/200
f 158/283/200 36/288/54 156/284/201
f 140/289/203 161/290/204 7/291/8
f 7/291/8 161/290/204 162/292/205
f 7/291/8 162/292/205 8/293/7
f 8/293/7 162/292/205 160/294/206
f 160/294/206 162/292/205 159/295/207
f 159/295/207 162/292/205 164/296/208
f 159/295/207 164/296/208 90/297/97
f 90/297/97 164/296/208 163/298/209
f 90/297/97 163/298/209 91/299/98
f 91/299/98 163/298/209 139/300/169
f 139/300/169 163/298/209 140/289/203
f 140/289/203 163/298/209 161/290/204
f 164/296/208 162/292/205 161/290/204
f 164/296/208 161/290/204 163/298/209
f 154/301/210 167/302/211 92/303/212
f 92/303/212 167/302/211 168/304/213
f 92/303/212 168/304/213 89/305/214
f 89/305/214 168/304/213 166/306/215
f 166/306/215 168/304/213 165/307/216
f 165/307/216 168/304/213 170/308/217
f 165/307/216 170/308/217 52/309/58
f 52/309/58 170/308/217 169/310/218
f 52/309/58 169/310/218 36/311/54
f 36/311/54 169/310/218 153/312/219
f 153/312/219 169/310/218 154/301/210
f 154/301/210 169/310/218 167/302/211
f 170/308/217 168/304/213 167/302/211
f 170/308/217 167/302/211 169/310/218
f 53/313/220 60/314/221 172/315/222
f 172/315/222 60/314/221 174/316/223
f 172/315/222 174/316/223 171/317/224
f 171/317/224 174/316/223 175/318/225
f 171/317/224 175/318/225 90/319/226
f 90/319/226 175/318/225 159/320/227
f 159/320/227 175/318/225 176/321/228
f 159/320/227 176/321/228 160/322/229
f 160/322/229 176/321/228 8/323/7
f 60/314/221 59/324/230 174/316/223
f 174/316/223 59/324/230 173/325/231
f 174/316/223 173/325/231 175/318/225
f 175/318/225 173/325/231 176/321/228
f 59/324/230 8/326/7 173/325/231
f 173/325/231 8/327/7 176/321/228
f 89/328/214 166/329/215 178/330/232
f 178/330/232 166/329/215 180/331/233
f 178/330/232 180/331/233 177/332/234
f 177/332/234 180/331/233 181/333/235
f 177/332/234 181/333/235 76/334/236
f 76/334/236 181/333/235 77/335/237
f 77/335/237 181/333/235 182/336/238
f 77/335/237 182/336/238 78/337/77
f 78/337/77 182/336/238 52/338/58
f 166/329/215 165/339/216 180/331/233
f 180/331/233 165/339/216 179/340/239
f 180/331/233 179/340/239 181/333/235
f 181/333/235 179/340/239 182/336/238
f 165/339/216 52/341/58 179/340/239
f 179/340/239 52/342/58 182/336/238
f 76/343/94 53/344/59 183/345/240
f 183/345/240 53/344/59 172/346/241
f 183/345/240 172/346/241 184/347/242
f 184/347/242 172/346/241 171/348/243
f 184/347/242 171/348/243 90/349/97
f 90/349/97 89/350/99 184/347/242
f 184/347/242 89/350/99 178/351/244
f 184/347/242 178/351/244 183/345/240
f 183/345/240 178/351/244 177/352/245
f 183/345/240 177/352/245 76/343/94
# 184 vertices
# 352 texture params
# 245 normals
# 364 facets

# 1 groups
