# WaveFront *.obj file (generated by Autodesk ATF)

mtllib body187_visual.mtl

g Body187

v -27.480000 -0.373669 0.651263
v -27.480000 -0.322594 0.615500
v -27.280000 -0.322594 0.615500
v -27.280000 -0.373669 0.651263
v -27.480000 -0.158539 0.659458
v -27.280000 -0.158539 0.659458
v -27.480000 -0.400020 0.594753
v -27.480000 -0.563101 0.551056
v -27.480000 -0.615462 0.587719
v -27.480000 -0.654021 0.731626
v -27.480000 -0.625857 0.792024
v -27.480000 -0.467130 0.834555
v -27.480000 -0.412540 0.796331
v -27.480000 -0.384376 0.856729
v -27.480000 -0.225649 0.899260
v -27.480000 -0.171058 0.861036
v -27.480000 -0.142894 0.921434
v -27.480000 0.015833 0.963965
v -27.480000 0.070423 0.925740
v -27.480000 0.098587 0.986139
v -27.480000 0.257314 1.028670
v -27.480000 0.311904 0.990445
v -27.480000 0.312215 0.989285
v -27.480000 0.342158 1.051403
v -27.480000 0.498796 1.093374
v -27.480000 0.553386 1.055150
v -27.480000 0.592257 0.910082
v -27.480000 0.565906 0.853573
v -27.480000 0.402825 0.809875
v -27.480000 0.350464 0.846538
v -27.480000 0.350775 0.845378
v -27.480000 0.324424 0.788868
v -27.480000 0.161343 0.745170
v -27.480000 0.108983 0.781833
v -27.480000 0.109294 0.780673
v -27.480000 0.082943 0.724163
v -27.480000 -0.080138 0.680466
v -27.480000 -0.132499 0.717129
v -27.480000 -0.132188 0.715968
v -27.280000 -0.412540 0.796331
v -27.280000 -0.384376 0.856729
v -27.280000 -0.171058 0.861036
v -27.280000 -0.142894 0.921434
v -27.280000 -0.654021 0.731626
v -27.280000 -0.625857 0.792024
v -27.280000 0.070423 0.925740
v -27.280000 0.098587 0.986139
v -27.280000 -0.225649 0.899260
v -27.280000 0.015833 0.963965
v -27.280000 -0.467130 0.834555
v -27.280000 -0.615462 0.587719
v -27.280000 0.257314 1.028670
v -27.280000 0.402825 0.809875
v -27.280000 0.350464 0.846538
v -27.280000 0.350775 0.845378
v -27.280000 0.324424 0.788868
v -27.280000 0.311904 0.990445
v -27.280000 0.312215 0.989285
v -27.280000 0.342158 1.051403
v -27.280000 -0.400020 0.594753
v -27.280000 0.161343 0.745170
v -27.280000 0.108983 0.781833
v -27.280000 0.109294 0.780673
v -27.280000 0.082943 0.724163
v -27.280000 0.592257 0.910082
v -27.280000 0.565906 0.853573
v -27.280000 0.498796 1.093374
v -27.280000 0.553386 1.055150
v -27.280000 -0.080138 0.680466
v -27.280000 -0.132499 0.717129
v -27.280000 -0.132188 0.715968
v -27.280000 -0.563101 0.551056
vt -0.062352 -0.000000 0.000000
vt -0.000000 0.000000 0.000000
vt -0.062352 0.200000 0.000000
vt 0.000000 0.200000 0.000000
vt -0.000000 0.959921 0.000000
vt -0.200000 0.959921 0.000000
vt -0.000000 0.790079 0.000000
vt -0.200000 0.790079 0.000000
vt 0.165079 -0.124000 0.000000
vt 0.334921 -0.124000 0.000000
vt 0.125000 -0.076236 0.000000
vt 0.375000 -0.076236 0.000000
vt 0.125000 -0.075034 0.000000
vt 0.375000 0.073949 0.000000
vt 0.125000 0.073949 0.000000
vt 0.167837 0.125000 0.000000
vt 0.332163 0.125000 0.000000
vt 0.415079 -0.124000 0.000000
vt 0.583913 -0.124000 0.000000
vt 0.625000 -0.075034 0.000000
vt 0.625000 0.073949 0.000000
vt 0.417837 0.125000 0.000000
vt 0.582163 0.125000 0.000000
vt 0.082163 0.125000 0.000000
vt -0.082163 0.125000 0.000000
vt -0.125000 0.073949 0.000000
vt -0.125000 -0.075034 0.000000
vt -0.125000 -0.076236 0.000000
vt -0.167837 0.125000 0.000000
vt -0.332163 0.125000 0.000000
vt -0.375000 0.073949 0.000000
vt -0.375000 0.072748 0.000000
vt -0.420000 0.125000 0.000000
vt -0.625000 0.073949 0.000000
vt -0.625000 -0.076236 0.000000
vt -0.375000 -0.075034 0.000000
vt -0.416087 -0.124000 0.000000
vt -0.584921 -0.124000 0.000000
vt -0.582163 0.125000 0.000000
vt -0.375000 -0.076236 0.000000
vt -0.166087 -0.124000 0.000000
vt -0.334921 -0.124000 0.000000
vt -0.084921 -0.124000 0.000000
vt 0.083913 -0.124000 0.000000
vt -0.066642 -0.000000 0.000000
vt -0.000000 0.000000 0.000000
vt -0.066642 0.200000 0.000000
vt -0.000000 0.200000 0.000000
vt -0.066642 -0.000000 0.000000
vt -0.000000 0.000000 0.000000
vt -0.066642 0.200000 0.000000
vt -0.000000 0.200000 0.000000
vt -0.066642 -0.000000 0.000000
vt -0.000000 0.000000 0.000000
vt -0.066642 0.200000 0.000000
vt -0.000000 0.200000 0.000000
vt -0.066642 -0.000000 0.000000
vt -0.000000 0.000000 0.000000
vt -0.066642 0.200000 0.000000
vt -0.000000 0.200000 0.000000
vt 0.292837 -0.000000 0.000000
vt 0.457163 -0.000000 0.000000
vt 0.292837 0.200000 0.000000
vt 0.457163 0.200000 0.000000
vt 0.542837 -0.000000 0.000000
vt 0.707163 -0.000000 0.000000
vt 0.542837 0.200000 0.000000
vt 0.707163 0.200000 0.000000
vt 0.042837 -0.000000 0.000000
vt 0.207163 -0.000000 0.000000
vt 0.042837 0.200000 0.000000
vt 0.207163 0.200000 0.000000
vt 0.198949 0.200000 0.000000
vt 0.049966 0.200000 0.000000
vt 0.198949 0.000000 0.000000
vt 0.049966 0.000000 0.000000
vt 0.792837 -0.000000 0.000000
vt 0.957163 -0.000000 0.000000
vt 0.792837 0.200000 0.000000
vt 0.957163 0.200000 0.000000
vt -0.066642 0.000000 0.000000
vt -0.000000 0.000000 0.000000
vt -0.066642 0.200000 0.000000
vt 0.000000 0.200000 0.000000
vt -0.066642 0.000000 0.000000
vt -0.000000 0.000000 0.000000
vt -0.066642 0.200000 0.000000
vt 0.000000 0.200000 0.000000
vt -0.063920 -0.000000 0.000000
vt -0.000000 0.000000 0.000000
vt -0.063920 0.200000 0.000000
vt -0.000000 0.200000 0.000000
vt -0.062352 0.000000 0.000000
vt 0.000000 0.000000 0.000000
vt -0.062352 0.200000 0.000000
vt 0.000000 0.200000 0.000000
vt -0.001201 0.000000 0.000000
vt -0.000000 0.000000 0.000000
vt -0.001201 0.200000 0.000000
vt 0.000000 0.200000 0.000000
vt -0.066642 0.000000 0.000000
vt -0.000000 0.000000 0.000000
vt -0.066642 0.200000 0.000000
vt 0.000000 0.200000 0.000000
vt -0.068959 -0.000000 0.000000
vt -0.000000 0.000000 0.000000
vt -0.068959 0.200000 0.000000
vt -0.000000 0.200000 0.000000
vt -0.001201 0.000000 0.000000
vt -0.000000 0.000000 0.000000
vt -0.001201 0.200000 0.000000
vt 0.000000 0.200000 0.000000
vt -0.066642 0.000000 0.000000
vt -0.000000 0.000000 0.000000
vt -0.066642 0.200000 0.000000
vt 0.000000 0.200000 0.000000
vt -0.062352 0.000000 0.000000
vt 0.000000 0.000000 0.000000
vt -0.062352 0.200000 0.000000
vt 0.000000 0.200000 0.000000
vt -0.063920 -0.000000 0.000000
vt -0.000000 0.000000 0.000000
vt -0.063920 0.200000 0.000000
vt -0.000000 0.200000 0.000000
vt -0.062352 0.000000 0.000000
vt 0.000000 0.000000 0.000000
vt -0.062352 0.200000 0.000000
vt 0.000000 0.200000 0.000000
vt -0.001201 0.000000 0.000000
vt -0.000000 0.000000 0.000000
vt -0.001201 0.200000 0.000000
vt 0.000000 0.200000 0.000000
vt -0.062352 0.000000 0.000000
vt 0.000000 0.000000 0.000000
vt -0.062352 0.200000 0.000000
vt 0.000000 0.200000 0.000000
vt -0.066642 0.000000 0.000000
vt -0.000000 0.000000 0.000000
vt -0.066642 0.200000 0.000000
vt 0.000000 0.200000 0.000000
vt -0.063920 -0.000000 0.000000
vt -0.000000 0.000000 0.000000
vt -0.063920 0.200000 0.000000
vt -0.000000 0.200000 0.000000
vt -0.062352 0.000000 0.000000
vt 0.000000 0.000000 0.000000
vt -0.062352 0.200000 0.000000
vt 0.000000 0.200000 0.000000
vt -0.001201 0.000000 0.000000
vt -0.000000 0.000000 0.000000
vt -0.001201 0.200000 0.000000
vt 0.000000 0.200000 0.000000
vt -0.063920 -0.000000 0.000000
vt -0.000000 0.000000 0.000000
vt -0.063920 0.200000 0.000000
vt -0.000000 0.200000 0.000000
vt 1.045000 -0.000000 0.000000
vt 1.207163 -0.000000 0.000000
vt 1.045000 0.200000 0.000000
vt 1.207163 0.200000 0.000000
vt 0.334921 0.124000 0.000000
vt 0.165079 0.124000 0.000000
vt 0.375000 0.076236 0.000000
vt 0.125000 0.076236 0.000000
vt 0.125000 0.075034 0.000000
vt 0.083913 0.124000 0.000000
vt -0.125000 0.076236 0.000000
vt -0.125000 0.075034 0.000000
vt 0.125000 -0.073949 0.000000
vt -0.125000 -0.073949 0.000000
vt 0.082163 -0.125000 0.000000
vt -0.082163 -0.125000 0.000000
vt -0.084921 0.124000 0.000000
vt -0.166087 0.124000 0.000000
vt -0.375000 0.076236 0.000000
vt -0.375000 0.075034 0.000000
vt -0.375000 -0.072748 0.000000
vt -0.625000 -0.073949 0.000000
vt -0.420000 -0.125000 0.000000
vt -0.582163 -0.125000 0.000000
vt -0.334921 0.124000 0.000000
vt -0.625000 0.076236 0.000000
vt -0.416087 0.124000 0.000000
vt -0.584921 0.124000 0.000000
vt -0.375000 -0.073949 0.000000
vt -0.167837 -0.125000 0.000000
vt -0.332163 -0.125000 0.000000
vt 0.167837 -0.125000 0.000000
vt 0.332163 -0.125000 0.000000
vt 0.375000 -0.073949 0.000000
vt 0.417837 -0.125000 0.000000
vt 0.582163 -0.125000 0.000000
vt 0.625000 -0.073949 0.000000
vt 0.625000 0.075034 0.000000
vt 0.583913 0.124000 0.000000
vt 0.415079 0.124000 0.000000
vt -0.200000 0.540079 0.000000
vt -0.000000 0.540079 0.000000
vt -0.200000 0.708913 0.000000
vt -0.000000 0.708913 0.000000
vt -0.200000 1.040079 0.000000
vt -0.000000 1.040079 0.000000
vt -0.200000 1.208913 0.000000
vt -0.000000 1.208913 0.000000
vt -0.000000 0.208913 0.000000
vt -0.200000 0.208913 0.000000
vt -0.000000 0.040079 0.000000
vt -0.200000 0.040079 0.000000
vt -0.200000 0.290079 0.000000
vt -0.000000 0.290079 0.000000
vt -0.200000 0.458913 0.000000
vt -0.000000 0.458913 0.000000
vt 0.201236 0.200000 0.000000
vt 0.051051 0.200000 0.000000
vt 0.201236 -0.000000 0.000000
vt 0.051051 -0.000000 0.000000
vn 0.000000 -0.573576 -0.819152
vn 0.000000 -0.573576 -0.819152
vn 0.000000 -0.573576 -0.819152
vn 0.000000 -0.573576 -0.819152
vn -0.000000 0.258819 -0.965926
vn -0.000000 0.258819 -0.965926
vn -0.000000 0.258819 -0.965926
vn -0.000000 0.258819 -0.965926
vn -1.000000 -0.000000 0.000000
vn -1.000000 -0.000000 0.000000
vn -1.000000 -0.000000 0.000000
vn -1.000000 -0.000000 0.000000
vn -1.000000 -0.000000 0.000000
vn -1.000000 -0.000000 0.000000
vn -1.000000 -0.000000 0.000000
vn -1.000000 -0.000000 0.000000
vn -1.000000 -0.000000 0.000000
vn -1.000000 -0.000000 0.000000
vn -1.000000 -0.000000 0.000000
vn -1.000000 -0.000000 0.000000
vn -1.000000 -0.000000 0.000000
vn -1.000000 -0.000000 0.000000
vn -1.000000 -0.000000 0.000000
vn -1.000000 -0.000000 0.000000
vn -1.000000 -0.000000 0.000000
vn -1.000000 -0.000000 0.000000
vn -1.000000 -0.000000 0.000000
vn -1.000000 -0.000000 0.000000
vn -1.000000 -0.000000 0.000000
vn -1.000000 -0.000000 0.000000
vn -1.000000 -0.000000 0.000000
vn -1.000000 -0.000000 0.000000
vn -1.000000 -0.000000 0.000000
vn -1.000000 -0.000000 0.000000
vn -1.000000 -0.000000 0.000000
vn -1.000000 -0.000000 0.000000
vn -1.000000 -0.000000 0.000000
vn -1.000000 -0.000000 0.000000
vn -1.000000 -0.000000 0.000000
vn -1.000000 -0.000000 0.000000
vn -1.000000 -0.000000 0.000000
vn -1.000000 -0.000000 0.000000
vn -1.000000 -0.000000 0.000000
vn -1.000000 -0.000000 0.000000
vn 0.000000 -0.906308 0.422618
vn 0.000000 -0.906308 0.422618
vn 0.000000 -0.906308 0.422618
vn 0.000000 -0.906308 0.422618
vn 0.000000 -0.906308 0.422618
vn 0.000000 -0.906308 0.422618
vn 0.000000 -0.906308 0.422618
vn 0.000000 -0.906308 0.422618
vn 0.000000 -0.906308 0.422618
vn 0.000000 -0.906308 0.422618
vn 0.000000 -0.906308 0.422618
vn 0.000000 -0.906308 0.422618
vn 0.000000 -0.906308 0.422618
vn 0.000000 -0.906308 0.422618
vn 0.000000 -0.906308 0.422618
vn 0.000000 -0.906308 0.422618
vn 0.000000 -0.258819 0.965926
vn 0.000000 -0.258819 0.965926
vn 0.000000 -0.258819 0.965926
vn 0.000000 -0.258819 0.965926
vn 0.000000 -0.258819 0.965926
vn 0.000000 -0.258819 0.965926
vn 0.000000 -0.258819 0.965926
vn 0.000000 -0.258819 0.965926
vn 0.000000 -0.258819 0.965926
vn 0.000000 -0.258819 0.965926
vn 0.000000 -0.258819 0.965926
vn 0.000000 -0.258819 0.965926
vn 0.000000 -0.965926 -0.258819
vn 0.000000 -0.965926 -0.258819
vn 0.000000 -0.965926 -0.258819
vn 0.000000 -0.965926 -0.258819
vn 0.000000 -0.258819 0.965926
vn 0.000000 -0.258819 0.965926
vn 0.000000 -0.258819 0.965926
vn 0.000000 -0.258819 0.965926
vn -0.000000 0.573576 0.819152
vn -0.000000 0.573576 0.819152
vn -0.000000 0.573576 0.819152
vn -0.000000 0.573576 0.819152
vn -0.000000 0.573576 0.819152
vn -0.000000 0.573576 0.819152
vn -0.000000 0.573576 0.819152
vn -0.000000 0.573576 0.819152
vn 0.000000 -0.573576 -0.819152
vn 0.000000 -0.573576 -0.819152
vn 0.000000 -0.573576 -0.819152
vn 0.000000 -0.573576 -0.819152
vn -0.000000 0.906308 -0.422618
vn -0.000000 0.906308 -0.422618
vn -0.000000 0.906308 -0.422618
vn -0.000000 0.906308 -0.422618
vn -0.000000 0.965926 0.258819
vn -0.000000 0.965926 0.258819
vn -0.000000 0.965926 0.258819
vn -0.000000 0.965926 0.258819
vn -0.000000 0.573576 0.819152
vn -0.000000 0.573576 0.819152
vn -0.000000 0.573576 0.819152
vn -0.000000 0.573576 0.819152
vn 0.000000 -0.900811 0.434212
vn 0.000000 -0.900811 0.434212
vn 0.000000 -0.900811 0.434212
vn 0.000000 -0.900811 0.434212
vn -0.000000 0.965926 0.258819
vn -0.000000 0.965926 0.258819
vn -0.000000 0.965926 0.258819
vn -0.000000 0.965926 0.258819
vn -0.000000 0.573576 0.819152
vn -0.000000 0.573576 0.819152
vn -0.000000 0.573576 0.819152
vn -0.000000 0.573576 0.819152
vn -0.000000 0.906308 -0.422618
vn -0.000000 0.906308 -0.422618
vn -0.000000 0.906308 -0.422618
vn -0.000000 0.906308 -0.422618
vn 0.000000 -0.573576 -0.819152
vn 0.000000 -0.573576 -0.819152
vn 0.000000 -0.573576 -0.819152
vn 0.000000 -0.573576 -0.819152
vn -0.000000 0.906308 -0.422618
vn -0.000000 0.906308 -0.422618
vn -0.000000 0.906308 -0.422618
vn -0.000000 0.906308 -0.422618
vn -0.000000 0.965926 0.258819
vn -0.000000 0.965926 0.258819
vn -0.000000 0.965926 0.258819
vn -0.000000 0.965926 0.258819
vn -0.000000 0.906308 -0.422618
vn -0.000000 0.906308 -0.422618
vn -0.000000 0.906308 -0.422618
vn -0.000000 0.906308 -0.422618
vn -0.000000 0.573576 0.819152
vn -0.000000 0.573576 0.819152
vn -0.000000 0.573576 0.819152
vn -0.000000 0.573576 0.819152
vn 0.000000 -0.573576 -0.819152
vn 0.000000 -0.573576 -0.819152
vn 0.000000 -0.573576 -0.819152
vn 0.000000 -0.573576 -0.819152
vn -0.000000 0.906308 -0.422618
vn -0.000000 0.906308 -0.422618
vn -0.000000 0.906308 -0.422618
vn -0.000000 0.906308 -0.422618
vn -0.000000 0.965926 0.258819
vn -0.000000 0.965926 0.258819
vn -0.000000 0.965926 0.258819
vn -0.000000 0.965926 0.258819
vn 0.000000 -0.573576 -0.819152
vn 0.000000 -0.573576 -0.819152
vn 0.000000 -0.573576 -0.819152
vn 0.000000 -0.573576 -0.819152
vn 0.000000 -0.258819 0.965926
vn 0.000000 -0.258819 0.965926
vn 0.000000 -0.258819 0.965926
vn 0.000000 -0.258819 0.965926
vn 1.000000 0.000000 -0.000000
vn 1.000000 0.000000 -0.000000
vn 1.000000 0.000000 -0.000000
vn 1.000000 0.000000 -0.000000
vn 1.000000 0.000000 -0.000000
vn 1.000000 0.000000 -0.000000
vn 1.000000 0.000000 -0.000000
vn 1.000000 0.000000 -0.000000
vn 1.000000 0.000000 -0.000000
vn 1.000000 0.000000 -0.000000
vn 1.000000 0.000000 -0.000000
vn 1.000000 0.000000 -0.000000
vn 1.000000 0.000000 -0.000000
vn 1.000000 0.000000 -0.000000
vn 1.000000 0.000000 -0.000000
vn 1.000000 0.000000 -0.000000
vn 1.000000 0.000000 -0.000000
vn 1.000000 0.000000 -0.000000
vn 1.000000 0.000000 -0.000000
vn 1.000000 0.000000 -0.000000
vn 1.000000 0.000000 -0.000000
vn 1.000000 0.000000 -0.000000
vn 1.000000 0.000000 -0.000000
vn 1.000000 0.000000 -0.000000
vn 1.000000 0.000000 -0.000000
vn 1.000000 0.000000 -0.000000
vn 1.000000 0.000000 -0.000000
vn 1.000000 0.000000 -0.000000
vn 1.000000 0.000000 -0.000000
vn 1.000000 0.000000 -0.000000
vn 1.000000 0.000000 -0.000000
vn 1.000000 0.000000 -0.000000
vn 1.000000 0.000000 -0.000000
vn 1.000000 0.000000 -0.000000
vn 1.000000 0.000000 -0.000000
vn 1.000000 0.000000 -0.000000
vn -0.000000 0.258819 -0.965926
vn -0.000000 0.258819 -0.965926
vn -0.000000 0.258819 -0.965926
vn -0.000000 0.258819 -0.965926
vn -0.000000 0.258819 -0.965926
vn -0.000000 0.258819 -0.965926
vn -0.000000 0.258819 -0.965926
vn -0.000000 0.258819 -0.965926
vn -0.000000 0.258819 -0.965926
vn -0.000000 0.258819 -0.965926
vn -0.000000 0.258819 -0.965926
vn -0.000000 0.258819 -0.965926
vn -0.000000 0.258819 -0.965926
vn -0.000000 0.258819 -0.965926
vn -0.000000 0.258819 -0.965926
vn -0.000000 0.258819 -0.965926
vn -0.000000 0.965926 0.258819
vn -0.000000 0.965926 0.258819
vn -0.000000 0.965926 0.258819
vn -0.000000 0.965926 0.258819
usemtl Opaque(232,173,35)
f 1/1/1 2/2/2 4/3/3
f 4/3/3 2/2/2 3/4/4
f 3/5/5 2/6/6 6/7/7
f 6/7/7 2/6/6 5/8/8
f 5/9/9 2/10/10 39/11/11
f 39/11/11 2/10/10 1/12/12
f 39/11/11 1/12/12 38/13/13
f 38/13/13 1/12/12 13/14/14
f 38/13/13 13/14/14 16/15/15
f 16/15/15 13/14/14 15/16/16
f 15/16/16 13/14/14 14/17/17
f 7/18/18 8/19/19 1/12/12
f 1/12/12 8/19/19 9/20/20
f 1/12/12 9/20/20 13/14/14
f 13/14/14 9/20/20 10/21/21
f 13/14/14 10/21/21 12/22/22
f 12/22/22 10/21/21 11/23/23
f 17/24/24 18/25/25 16/15/15
f 16/15/15 18/25/25 19/26/26
f 16/15/15 19/26/26 38/13/13
f 38/13/13 19/26/26 34/27/27
f 38/13/13 34/27/27 35/28/28
f 20/29/29 21/30/30 19/26/26
f 19/26/26 21/30/30 22/31/31
f 19/26/26 22/31/31 23/32/32
f 24/33/33 26/34/34 23/32/32
f 23/32/32 26/34/34 27/35/35
f 23/32/32 27/35/35 30/36/36
f 30/36/36 27/35/35 29/37/37
f 29/37/37 27/35/35 28/38/38
f 24/33/33 25/39/39 26/34/34
f 23/32/32 30/36/36 34/27/27
f 34/27/27 30/36/36 31/40/40
f 34/27/27 31/40/40 33/41/41
f 33/41/41 31/40/40 32/42/42
f 36/43/43 37/44/44 35/28/28
f 35/28/28 37/44/44 38/13/13
f 19/26/26 23/32/32 34/27/27
f 14/45/45 13/46/46 41/47/47
f 41/47/47 13/46/46 40/48/48
f 17/49/49 16/50/50 43/51/51
f 43/51/51 16/50/50 42/52/52
f 11/53/53 10/54/54 45/55/55
f 45/55/55 10/54/54 44/56/56
f 20/57/57 19/58/58 47/59/59
f 47/59/59 19/58/58 46/60/60
f 41/61/61 48/62/62 14/63/63
f 14/63/63 48/62/62 15/64/64
f 43/65/65 49/66/66 17/67/67
f 17/67/67 49/66/66 18/68/68
f 45/69/69 50/70/70 11/71/71
f 11/71/71 50/70/70 12/72/72
f 10/73/73 9/74/74 44/75/75
f 44/75/75 9/74/74 51/76/76
f 47/77/77 52/78/78 20/79/79
f 20/79/79 52/78/78 21/80/80
f 13/81/81 12/82/82 40/83/83
f 40/83/83 12/82/82 50/84/84
f 19/85/85 18/86/86 46/87/87
f 46/87/87 18/86/86 49/88/88
f 30/89/89 29/90/90 54/91/91
f 54/91/91 29/90/90 53/92/92
f 32/93/93 31/94/94 56/95/95
f 56/95/95 31/94/94 55/96/96
f 31/97/97 30/98/98 55/99/99
f 55/99/99 30/98/98 54/100/100
f 22/101/101 21/102/102 57/103/103
f 57/103/103 21/102/102 52/104/104
f 24/105/105 23/106/106 59/107/107
f 59/107/107 23/106/106 58/108/108
f 23/109/109 22/110/110 58/111/111
f 58/111/111 22/110/110 57/112/112
f 16/113/113 15/114/114 42/115/115
f 42/115/115 15/114/114 48/116/116
f 7/117/117 1/118/118 60/119/119
f 60/119/119 1/118/118 4/120/120
f 34/121/121 33/122/122 62/123/123
f 62/123/123 33/122/122 61/124/124
f 36/125/125 35/126/126 64/127/127
f 64/127/127 35/126/126 63/128/128
f 35/129/129 34/130/130 63/131/131
f 63/131/131 34/130/130 62/132/132
f 28/133/133 27/134/134 66/135/135
f 66/135/135 27/134/134 65/136/136
f 26/137/137 25/138/138 68/139/139
f 68/139/139 25/138/138 67/140/140
f 38/141/141 37/142/142 70/143/143
f 70/143/143 37/142/142 69/144/144
f 5/145/145 39/146/146 6/147/147
f 6/147/147 39/146/146 71/148/148
f 39/149/149 38/150/150 71/151/151
f 71/151/151 38/150/150 70/152/152
f 9/153/153 8/154/154 51/155/155
f 51/155/155 8/154/154 72/156/156
f 59/157/157 67/158/158 24/159/159
f 24/159/159 67/158/158 25/160/160
f 3/161/161 6/162/162 4/163/163
f 4/163/163 6/162/162 71/164/164
f 4/163/163 71/164/164 70/165/165
f 69/166/166 63/167/167 70/165/165
f 70/165/165 63/167/167 62/168/168
f 70/165/165 62/168/168 42/169/169
f 42/169/169 62/168/168 46/170/170
f 42/169/169 46/170/170 43/171/171
f 43/171/171 46/170/170 49/172/172
f 69/166/166 64/173/173 63/167/167
f 61/174/174 55/175/175 62/168/168
f 62/168/168 55/175/175 54/176/176
f 62/168/168 54/176/176 58/177/177
f 58/177/177 54/176/176 68/178/178
f 58/177/177 68/178/178 59/179/179
f 59/179/179 68/178/178 67/180/180
f 61/174/174 56/181/181 55/175/175
f 68/178/178 54/176/176 65/182/182
f 65/182/182 54/176/176 53/183/183
f 65/182/182 53/183/183 66/184/184
f 62/168/168 58/177/177 46/170/170
f 46/170/170 58/177/177 57/185/185
f 46/170/170 57/185/185 47/186/186
f 47/186/186 57/185/185 52/187/187
f 48/188/188 41/189/189 42/169/169
f 42/169/169 41/189/189 40/190/190
f 42/169/169 40/190/190 70/165/165
f 70/165/165 40/190/190 4/163/163
f 50/191/191 45/192/192 40/190/190
f 40/190/190 45/192/192 44/193/193
f 40/190/190 44/193/193 51/194/194
f 40/190/190 51/194/194 4/163/163
f 4/163/163 51/194/194 72/195/195
f 4/163/163 72/195/195 60/196/196
f 36/197/197 64/198/198 37/199/199
f 37/199/199 64/198/198 69/200/200
f 7/201/201 60/202/202 8/203/203
f 8/203/203 60/202/202 72/204/204
f 53/205/205 29/206/206 66/207/207
f 66/207/207 29/206/206 28/208/208
f 32/209/209 56/210/210 33/211/211
f 33/211/211 56/210/210 61/212/212
f 27/213/213 26/214/214 65/215/215
f 65/215/215 26/214/214 68/216/216
# 72 vertices
# 216 texture params
# 216 normals
# 140 facets

# 1 groups
