# WaveFront *.obj file (generated by Autodesk ATF)

mtllib body128_visual.mtl

g Body128

v -27.297463 2.108131 -3.801842
v -27.240363 2.108131 -3.801842
v -27.240363 2.109450 -3.801488
v -27.297463 2.109450 -3.801488
v -27.297463 1.953361 -3.687879
v -27.240363 1.953361 -3.687879
v -27.240363 1.952304 -3.688162
v -27.297463 1.952304 -3.688162
v -27.297463 2.069272 -3.656821
v -27.240363 2.069272 -3.656821
v -27.297773 2.108137 -3.801865
v -27.298076 2.108156 -3.801935
v -27.298363 2.108186 -3.802048
v -27.298363 2.069217 -3.656614
v -27.298076 2.069248 -3.656728
v -27.297773 2.069266 -3.656797
v -27.297463 1.992220 -3.832900
v -27.240363 1.992220 -3.832900
v -27.297773 1.953355 -3.687856
v -27.298076 1.953336 -3.687786
v -27.298363 1.953306 -3.687672
v -27.298363 1.992275 -3.833107
v -27.298076 1.992244 -3.832993
v -27.297773 1.992226 -3.832923
v -27.238363 1.953718 -3.685713
v -27.238363 1.954776 -3.685429
v -27.238363 1.994669 -3.834314
v -27.238363 1.993350 -3.834668
v -27.238363 2.001707 -3.865856
v -27.238363 2.116392 -3.835126
v -27.238363 2.108035 -3.803938
v -27.238363 2.106716 -3.804291
v -27.238363 2.066823 -3.655406
v -27.238363 2.068403 -3.654983
v -27.238363 2.060047 -3.623795
v -27.238363 1.945361 -3.654524
v -27.297463 2.070853 -3.656397
v -27.240363 2.070853 -3.656397
v -27.240363 1.943429 -3.655042
v -27.297463 1.943429 -3.655042
v -27.297463 2.061978 -3.623277
v -27.240363 2.061978 -3.623277
v -27.297463 1.944844 -3.652593
v -27.240363 1.944844 -3.652593
v -27.240363 2.059529 -3.621863
v -27.297463 2.059529 -3.621863
v -27.299463 1.953718 -3.685713
v -27.299463 1.945361 -3.654524
v -27.299463 2.060047 -3.623795
v -27.299463 2.068403 -3.654983
v -27.297463 1.990901 -3.833254
v -27.240363 1.990901 -3.833254
v -27.240363 2.118324 -3.834609
v -27.297463 2.118324 -3.834609
v -27.297463 1.999775 -3.866374
v -27.240363 1.999775 -3.866374
v -27.297463 2.116910 -3.837058
v -27.240363 2.116910 -3.837058
v -27.240363 2.002225 -3.867788
v -27.297463 2.002225 -3.867788
v -27.299463 1.993350 -3.834668
v -27.299463 2.108035 -3.803938
v -27.299463 2.116392 -3.835126
v -27.299463 2.001707 -3.865856
v -27.298463 2.118065 -3.834678
v -27.299195 2.117358 -3.834867
v -27.299311 2.108577 -3.803001
v -27.298877 2.109035 -3.802206
v -27.298229 2.109342 -3.801675
v -27.297853 2.109423 -3.801535
v -27.298463 2.113628 -3.818118
v -27.299195 2.112921 -3.818307
v -27.298463 2.116841 -3.836799
v -27.299195 2.116651 -3.836092
v -27.297463 2.118324 -3.835644
v -27.297463 2.117807 -3.836540
v -27.299195 2.117099 -3.835833
v -27.298463 2.117617 -3.836351
v -27.298463 2.118065 -3.835575
v -27.299195 2.117358 -3.835385
v -27.299311 1.992413 -3.834127
v -27.298877 1.991618 -3.833668
v -27.298229 1.991087 -3.833361
v -27.297853 1.990948 -3.833281
v -27.298463 2.089761 -3.807041
v -27.298463 2.070003 -3.812336
v -27.298463 2.050245 -3.817630
v -27.298463 2.030486 -3.822924
v -27.298463 2.010728 -3.828218
v -27.299195 2.089950 -3.807749
v -27.299195 2.070192 -3.813043
v -27.299195 2.050434 -3.818337
v -27.299195 2.030676 -3.823631
v -27.299195 2.010918 -3.828925
v -27.239973 2.108104 -3.801889
v -27.239598 2.108023 -3.802028
v -27.238949 2.107716 -3.802559
v -27.238515 2.107258 -3.803354
v -27.238515 2.108577 -3.803001
v -27.238949 2.109035 -3.802206
v -27.239598 2.109342 -3.801675
v -27.239973 2.109423 -3.801535
v -27.238631 2.117358 -3.834867
v -27.239363 2.118065 -3.834678
v -27.239363 2.113628 -3.818118
v -27.238631 2.112921 -3.818307
v -27.240363 2.118324 -3.835644
v -27.240363 2.117807 -3.836540
v -27.278430 2.117807 -3.836540
v -27.259397 2.117807 -3.836540
v -27.278430 2.118324 -3.835644
v -27.259397 2.118324 -3.835644
v -27.298463 2.002155 -3.867529
v -27.299195 2.001966 -3.866822
v -27.299195 2.097537 -3.841214
v -27.299195 2.078423 -3.846335
v -27.299195 2.059309 -3.851457
v -27.299195 2.040194 -3.856579
v -27.299195 2.021080 -3.861700
v -27.298463 2.097726 -3.841921
v -27.298463 2.078612 -3.847043
v -27.298463 2.059498 -3.852164
v -27.298463 2.040384 -3.857286
v -27.298463 2.021270 -3.862407
v -27.299195 2.000741 -3.866115
v -27.298463 2.000034 -3.866304
v -27.298463 1.995597 -3.849744
v -27.299195 1.996304 -3.849555
v -27.299195 2.061013 -3.623536
v -27.298463 2.061720 -3.623346
v -27.297853 2.070806 -3.656370
v -27.298229 2.070667 -3.656289
v -27.298877 2.070136 -3.655983
v -27.299311 2.069341 -3.655524
v -27.299195 2.065450 -3.640096
v -27.298463 2.066157 -3.639906
v -27.239973 2.069225 -3.656793
v -27.239598 2.069086 -3.656713
v -27.238949 2.068555 -3.656406
v -27.238515 2.067760 -3.655948
v -27.238631 2.101983 -3.782763
v -27.238631 2.096284 -3.761494
v -27.238631 2.090585 -3.740225
v -27.238631 2.084886 -3.718955
v -27.238631 2.079187 -3.697686
v -27.238631 2.073488 -3.676417
v -27.239363 2.102690 -3.782574
v -27.239363 2.096991 -3.761304
v -27.239363 2.091292 -3.740035
v -27.239363 2.085593 -3.718766
v -27.239363 2.079894 -3.697497
v -27.239363 2.074195 -3.676227
v -27.238631 2.116651 -3.836092
v -27.239363 2.116841 -3.836799
v -27.239497 2.118100 -3.835704
v -27.239863 2.117677 -3.836575
v -27.238863 2.117488 -3.835868
v -27.239497 2.117324 -3.836670
v -27.297463 2.001189 -3.867788
v -27.297463 2.000293 -3.867270
v -27.298329 2.000517 -3.867210
v -27.297963 2.001319 -3.867753
v -27.298963 2.001129 -3.867046
v -27.298329 2.001672 -3.867659
v -27.297853 1.952331 -3.688115
v -27.298229 1.952412 -3.687976
v -27.298877 1.952718 -3.687445
v -27.299311 1.953177 -3.686650
v -27.298463 1.971993 -3.682609
v -27.298463 1.991751 -3.677315
v -27.298463 2.011509 -3.672021
v -27.298463 2.031267 -3.666727
v -27.298463 2.051025 -3.661432
v -27.299195 1.971803 -3.681902
v -27.299195 1.991561 -3.676608
v -27.299195 2.011320 -3.671314
v -27.299195 2.031078 -3.666020
v -27.299195 2.050836 -3.660725
v -27.297463 2.060564 -3.621863
v -27.297463 2.061461 -3.622380
v -27.299195 2.059788 -3.622829
v -27.298463 2.059598 -3.622122
v -27.298329 2.061237 -3.622440
v -27.297963 2.060435 -3.621897
v -27.298963 2.060624 -3.622605
v -27.298329 2.060081 -3.621992
v -27.239973 2.070806 -3.656370
v -27.239598 2.070667 -3.656289
v -27.238949 2.070136 -3.655983
v -27.238515 2.069341 -3.655524
v -27.238631 2.001966 -3.866822
v -27.239363 2.002155 -3.867529
v -27.239363 2.097726 -3.841921
v -27.239363 2.078612 -3.847043
v -27.239363 2.059498 -3.852164
v -27.239363 2.040384 -3.857286
v -27.239363 2.021270 -3.862407
v -27.238631 2.097537 -3.841214
v -27.238631 2.078423 -3.846335
v -27.238631 2.059309 -3.851457
v -27.238631 2.040194 -3.856579
v -27.238631 2.021080 -3.861700
v -27.240363 2.001189 -3.867788
v -27.240363 2.000293 -3.867270
v -27.278430 2.000293 -3.867270
v -27.259397 2.000293 -3.867270
v -27.278430 2.001189 -3.867788
v -27.259397 2.001189 -3.867788
v -27.298463 1.943688 -3.654973
v -27.299195 1.944395 -3.654783
v -27.299195 1.948833 -3.671343
v -27.298463 1.948125 -3.671533
v -27.299195 1.945102 -3.653559
v -27.298463 1.944913 -3.652851
v -27.298463 2.040484 -3.627243
v -27.298463 2.021370 -3.632365
v -27.298463 2.002256 -3.637486
v -27.298463 1.983141 -3.642608
v -27.298463 1.964027 -3.647730
v -27.299195 2.040674 -3.627950
v -27.299195 2.021559 -3.633072
v -27.299195 2.002445 -3.638194
v -27.299195 1.983331 -3.643315
v -27.299195 1.964217 -3.648437
v -27.240363 2.060564 -3.621863
v -27.240363 2.061461 -3.622380
v -27.278430 2.061461 -3.622380
v -27.259397 2.061461 -3.622380
v -27.278430 2.060564 -3.621863
v -27.259397 2.060564 -3.621863
v -27.239363 2.061720 -3.623346
v -27.238631 2.061013 -3.623536
v -27.238631 2.065450 -3.640096
v -27.239363 2.066157 -3.639906
v -27.238631 2.000741 -3.866115
v -27.239363 2.000034 -3.866304
v -27.239497 2.001129 -3.867564
v -27.239863 2.000258 -3.867141
v -27.238863 2.000965 -3.866951
v -27.239497 2.000163 -3.866787
v -27.297463 1.943429 -3.654007
v -27.297463 1.943947 -3.653110
v -27.298963 1.944266 -3.653783
v -27.298329 1.944430 -3.652981
v -27.298329 1.943654 -3.653947
v -27.297963 1.944076 -3.653076
v -27.239363 2.059598 -3.622122
v -27.238631 2.059788 -3.622829
v -27.238863 2.060624 -3.622605
v -27.239497 2.060081 -3.621992
v -27.239497 2.061237 -3.622440
v -27.239863 2.060435 -3.621897
v -27.238515 1.992413 -3.834127
v -27.238949 1.991618 -3.833668
v -27.239598 1.991087 -3.833361
v -27.239973 1.990948 -3.833281
v -27.239363 1.995597 -3.849744
v -27.238631 1.996304 -3.849555
v -27.240363 1.943429 -3.654007
v -27.240363 1.943947 -3.653110
v -27.278430 1.943947 -3.653110
v -27.259397 1.943947 -3.653110
v -27.278430 1.943429 -3.654007
v -27.259397 1.943429 -3.654007
v -27.239363 1.944913 -3.652851
v -27.238631 1.945102 -3.653559
v -27.238631 2.040674 -3.627950
v -27.238631 2.021559 -3.633072
v -27.238631 2.002445 -3.638194
v -27.238631 1.983331 -3.643315
v -27.238631 1.964217 -3.648437
v -27.239363 2.040484 -3.627243
v -27.239363 2.021370 -3.632365
v -27.239363 2.002256 -3.637486
v -27.239363 1.983141 -3.642608
v -27.239363 1.964027 -3.647730
v -27.238515 1.993732 -3.833773
v -27.238949 1.992937 -3.833314
v -27.239598 1.992406 -3.833008
v -27.239973 1.992267 -3.832927
v -27.239363 1.943688 -3.654973
v -27.238631 1.944395 -3.654783
v -27.238863 1.944171 -3.653947
v -27.239497 1.943559 -3.654490
v -27.239497 1.944007 -3.653334
v -27.239863 1.943464 -3.654136
v -27.238515 1.954234 -3.686367
v -27.238949 1.953776 -3.687161
v -27.239598 1.953469 -3.687692
v -27.239973 1.953388 -3.687832
v -27.239363 1.987297 -3.813493
v -27.239363 1.981598 -3.792224
v -27.239363 1.975899 -3.770955
v -27.239363 1.970200 -3.749686
v -27.239363 1.964501 -3.728416
v -27.239363 1.958802 -3.707147
v -27.238631 1.988004 -3.813304
v -27.238631 1.982305 -3.792035
v -27.238631 1.976606 -3.770765
v -27.238631 1.970907 -3.749496
v -27.238631 1.965208 -3.728227
v -27.238631 1.959509 -3.706958
v -27.239973 1.952331 -3.688115
v -27.239598 1.952412 -3.687976
v -27.238949 1.952718 -3.687445
v -27.238515 1.953177 -3.686650
v -27.238631 1.948833 -3.671343
v -27.239363 1.948125 -3.671533
vt 0.121366 -0.188183 0.000000
vt 0.122731 -0.188183 0.000000
vt 0.121366 -0.131083 0.000000
vt 0.122731 -0.131083 0.000000
vt -0.001095 -0.188183 0.000000
vt 0.000000 -0.188183 0.000000
vt -0.001095 -0.131083 0.000000
vt -0.000000 -0.131083 0.000000
vt -0.185069 -0.058000 0.000000
vt -0.034931 -0.058000 0.000000
vt -0.185069 -0.000900 0.000000
vt -0.034931 -0.000900 0.000000
vt -0.185093 -0.000590 0.000000
vt -0.034907 -0.000590 0.000000
vt -0.185165 -0.000288 0.000000
vt -0.034835 -0.000288 0.000000
vt -0.185282 0.000000 0.000000
vt -0.034718 0.000000 0.000000
vt 0.034931 -0.058000 0.000000
vt 0.185069 -0.058000 0.000000
vt 0.034931 -0.000900 0.000000
vt 0.185069 -0.000900 0.000000
vt 0.034907 -0.000590 0.000000
vt 0.185093 -0.000590 0.000000
vt 0.034835 -0.000288 0.000000
vt 0.185165 -0.000288 0.000000
vt 0.034718 0.000000 0.000000
vt 0.185282 0.000000 0.000000
vt 0.060000 0.075282 0.000000
vt -0.060000 0.075282 0.000000
vt 0.060000 -0.075282 0.000000
vt -0.060000 -0.075282 0.000000
vt 0.059095 -0.077069 0.000000
vt 0.058000 -0.077069 0.000000
vt 0.059095 -0.109357 0.000000
vt -0.058000 -0.077069 0.000000
vt -0.059636 -0.109357 0.000000
vt -0.059636 -0.077069 0.000000
vt -0.058000 0.077069 0.000000
vt 0.058000 0.077069 0.000000
vt -0.059366 0.109357 0.000000
vt 0.059366 0.109357 0.000000
vt 0.059366 0.077069 0.000000
vt -0.059366 0.077069 0.000000
vt -0.122731 -0.188183 0.000000
vt -0.121095 -0.188183 0.000000
vt -0.122731 -0.131083 0.000000
vt -0.121095 -0.131083 0.000000
vt -0.036289 -0.188183 0.000000
vt -0.002000 -0.188183 0.000000
vt -0.036289 -0.131083 0.000000
vt -0.002000 -0.131083 0.000000
vt 0.002000 -0.188183 0.000000
vt 0.036289 -0.188183 0.000000
vt 0.002000 -0.131083 0.000000
vt 0.036289 -0.131083 0.000000
vt 0.002000 -0.188183 0.000000
vt 0.120731 -0.188183 0.000000
vt 0.002000 -0.131083 0.000000
vt 0.120731 -0.131083 0.000000
vt -0.059095 -0.109357 0.000000
vt 0.059636 -0.109357 0.000000
vt -0.059095 -0.077069 0.000000
vt 0.059636 -0.077069 0.000000
vt -0.000000 -0.188183 0.000000
vt 0.001366 -0.188183 0.000000
vt 0.000000 -0.131083 0.000000
vt 0.001366 -0.131083 0.000000
vt -0.036289 -0.188183 0.000000
vt -0.002000 -0.188183 0.000000
vt -0.036289 -0.131083 0.000000
vt -0.002000 -0.131083 0.000000
vt 0.002000 -0.188183 0.000000
vt 0.036289 -0.188183 0.000000
vt 0.002000 -0.131083 0.000000
vt 0.036289 -0.131083 0.000000
vt -0.120731 -0.188183 0.000000
vt -0.002000 -0.188183 0.000000
vt -0.120731 -0.131083 0.000000
vt -0.002000 -0.131083 0.000000
vt -0.059366 0.077069 0.000000
vt 0.059366 0.077069 0.000000
vt -0.059366 0.109357 0.000000
vt 0.059366 0.109357 0.000000
vt -0.002000 0.001047 0.000000
vt -0.019144 0.001047 0.000000
vt -0.002000 0.000000 0.000000
vt -0.036250 0.000393 0.000000
vt -0.036289 -0.000000 0.000000
vt -0.019144 0.002094 0.000000
vt -0.002000 0.002094 0.000000
vt -0.002000 0.003142 0.000000
vt -0.034289 0.003142 0.000000
vt -0.035054 0.002356 0.000000
vt -0.035703 0.001571 0.000000
vt -0.036136 0.000785 0.000000
vt 0.000000 0.000000 0.000000
vt -0.001047 0.000000 0.000000
vt 0.000000 -0.000740 0.000000
vt -0.001047 -0.000740 0.000000
vt 0.000000 -0.001481 0.000000
vt -0.001047 -0.001481 0.000000
vt -0.000000 -0.002221 0.000000
vt -0.001047 -0.002221 0.000000
vt -0.002094 -0.001481 0.000000
vt -0.002094 -0.002221 0.000000
vt -0.003142 -0.001481 0.000000
vt -0.002094 -0.000000 0.000000
vt -0.002094 -0.000740 0.000000
vt -0.003142 -0.000000 0.000000
vt -0.003142 -0.000740 0.000000
vt 0.121366 0.000000 0.000000
vt 0.122731 0.000000 0.000000
vt 0.121366 0.000311 0.000000
vt 0.122693 0.000393 0.000000
vt 0.121366 0.000622 0.000000
vt 0.122579 0.000785 0.000000
vt 0.121366 0.000934 0.000000
vt 0.122145 0.001571 0.000000
vt 0.102276 0.001047 0.000000
vt 0.102276 0.002094 0.000000
vt 0.081821 0.002094 0.000000
vt 0.121496 0.002356 0.000000
vt 0.002000 0.003142 0.000000
vt 0.120731 0.003142 0.000000
vt 0.001235 0.002356 0.000000
vt 0.020455 0.002094 0.000000
vt 0.040910 0.002094 0.000000
vt 0.061366 0.002094 0.000000
vt 0.061366 0.001047 0.000000
vt 0.081821 0.001047 0.000000
vt 0.000586 0.001571 0.000000
vt 0.020455 0.001047 0.000000
vt 0.040910 0.001047 0.000000
vt 0.001366 0.000934 0.000000
vt 0.000152 0.000785 0.000000
vt 0.001366 0.000622 0.000000
vt 0.000038 0.000393 0.000000
vt 0.001366 0.000311 0.000000
vt -0.000000 0.000000 0.000000
vt 0.001366 0.000000 0.000000
vt 0.122731 0.000000 0.000000
vt 0.121366 0.000000 0.000000
vt 0.122693 -0.000393 0.000000
vt 0.121327 -0.000393 0.000000
vt 0.122579 -0.000785 0.000000
vt 0.121213 -0.000785 0.000000
vt 0.122145 -0.001571 0.000000
vt 0.120780 -0.001571 0.000000
vt 0.121496 -0.002356 0.000000
vt 0.120131 -0.002356 0.000000
vt 0.120731 -0.003142 0.000000
vt 0.119366 -0.003142 0.000000
vt -0.002000 0.000000 0.000000
vt -0.036289 0.000000 0.000000
vt -0.019144 -0.001047 0.000000
vt -0.036250 -0.000393 0.000000
vt -0.036136 -0.000785 0.000000
vt -0.035703 -0.001571 0.000000
vt -0.019144 -0.002094 0.000000
vt -0.002000 -0.002094 0.000000
vt -0.002000 -0.003142 0.000000
vt -0.035054 -0.002356 0.000000
vt -0.034289 -0.003142 0.000000
vt -0.002000 -0.001047 0.000000
vt -0.131083 0.004189 0.000000
vt -0.150117 0.004189 0.000000
vt -0.131083 0.003142 0.000000
vt -0.169150 0.004189 0.000000
vt -0.188183 0.003142 0.000000
vt -0.188183 0.004189 0.000000
vt -0.188183 0.005236 0.000000
vt -0.169150 0.005236 0.000000
vt -0.188183 0.006283 0.000000
vt -0.150117 0.005236 0.000000
vt -0.131083 0.006283 0.000000
vt -0.131083 0.005236 0.000000
vt -0.120731 0.002094 0.000000
vt -0.100943 0.002094 0.000000
vt -0.120731 0.003142 0.000000
vt -0.081154 0.002094 0.000000
vt -0.061366 0.002094 0.000000
vt -0.061366 0.001047 0.000000
vt -0.041577 0.001047 0.000000
vt -0.002000 -0.000000 0.000000
vt -0.021789 0.001047 0.000000
vt -0.002000 0.001047 0.000000
vt -0.021789 0.002094 0.000000
vt -0.002000 0.002094 0.000000
vt -0.002000 0.003142 0.000000
vt -0.100943 0.001047 0.000000
vt -0.120731 0.001047 0.000000
vt -0.120731 0.000000 0.000000
vt -0.081154 0.001047 0.000000
vt -0.041577 0.002094 0.000000
vt 0.002000 0.000000 0.000000
vt 0.036289 -0.000000 0.000000
vt 0.019144 0.001047 0.000000
vt 0.036250 0.000393 0.000000
vt 0.036136 0.000785 0.000000
vt 0.035703 0.001571 0.000000
vt 0.019144 0.002094 0.000000
vt 0.002000 0.002094 0.000000
vt 0.002000 0.003142 0.000000
vt 0.035054 0.002356 0.000000
vt 0.034289 0.003142 0.000000
vt 0.002000 0.001047 0.000000
vt 0.002000 0.002094 0.000000
vt 0.019144 0.002094 0.000000
vt 0.002000 0.003142 0.000000
vt 0.035054 0.002356 0.000000
vt 0.034289 0.003142 0.000000
vt 0.019144 0.001047 0.000000
vt 0.002000 0.001047 0.000000
vt 0.002000 -0.000000 0.000000
vt 0.036289 -0.000000 0.000000
vt 0.036250 0.000393 0.000000
vt 0.036136 0.000785 0.000000
vt 0.035703 0.001571 0.000000
vt -0.033697 -0.002356 0.000000
vt -0.054951 -0.002094 0.000000
vt -0.032931 -0.003142 0.000000
vt -0.076971 -0.002094 0.000000
vt -0.098990 -0.002094 0.000000
vt -0.098990 -0.001047 0.000000
vt -0.121010 -0.001047 0.000000
vt -0.185069 0.000000 0.000000
vt -0.143029 -0.001047 0.000000
vt -0.165049 -0.001047 0.000000
vt -0.143029 -0.002094 0.000000
vt -0.165049 -0.002094 0.000000
vt -0.186303 -0.002356 0.000000
vt -0.185654 -0.001571 0.000000
vt -0.185221 -0.000785 0.000000
vt -0.185107 -0.000393 0.000000
vt -0.034346 -0.001571 0.000000
vt -0.054951 -0.001047 0.000000
vt -0.076971 -0.001047 0.000000
vt -0.034893 -0.000393 0.000000
vt -0.034779 -0.000785 0.000000
vt -0.034931 0.000000 0.000000
vt -0.187069 -0.003142 0.000000
vt -0.121010 -0.002094 0.000000
vt -0.003142 -0.001481 0.000000
vt -0.002094 -0.002221 0.000000
vt -0.002094 -0.001481 0.000000
vt -0.001047 -0.002221 0.000000
vt -0.001047 -0.001481 0.000000
vt -0.000000 -0.002221 0.000000
vt -0.000000 -0.001481 0.000000
vt -0.001047 -0.000740 0.000000
vt 0.000000 -0.000740 0.000000
vt -0.001047 0.000000 0.000000
vt 0.000000 -0.000000 0.000000
vt -0.002094 0.000000 0.000000
vt -0.002094 -0.000740 0.000000
vt -0.003142 0.000000 0.000000
vt -0.003142 -0.000740 0.000000
vt -0.001047 -0.004443 0.000000
vt 0.000000 -0.004443 0.000000
vt -0.001047 -0.003702 0.000000
vt 0.000000 -0.003702 0.000000
vt -0.001047 -0.002962 0.000000
vt -0.000000 -0.002962 0.000000
vt -0.001047 -0.002221 0.000000
vt -0.000000 -0.002221 0.000000
vt -0.002094 -0.002221 0.000000
vt -0.002094 -0.002962 0.000000
vt -0.002094 -0.003702 0.000000
vt -0.002094 -0.004443 0.000000
vt -0.003142 -0.003702 0.000000
vt -0.003142 -0.002221 0.000000
vt -0.003142 -0.002962 0.000000
vt -0.001095 0.000622 0.000000
vt -0.000152 0.000785 0.000000
vt -0.001095 0.000934 0.000000
vt -0.000586 0.001571 0.000000
vt -0.020455 0.001047 0.000000
vt -0.020455 0.002094 0.000000
vt -0.040910 0.002094 0.000000
vt -0.001235 0.002356 0.000000
vt -0.120731 0.003142 0.000000
vt -0.002000 0.003142 0.000000
vt -0.000038 0.000393 0.000000
vt -0.001095 0.000311 0.000000
vt -0.000000 -0.000000 0.000000
vt -0.001095 -0.000000 0.000000
vt -0.121496 0.002356 0.000000
vt -0.102276 0.002094 0.000000
vt -0.081821 0.002094 0.000000
vt -0.061366 0.002094 0.000000
vt -0.061366 0.001047 0.000000
vt -0.040910 0.001047 0.000000
vt -0.122145 0.001571 0.000000
vt -0.102276 0.001047 0.000000
vt -0.081821 0.001047 0.000000
vt -0.121095 0.000934 0.000000
vt -0.122579 0.000785 0.000000
vt -0.121095 0.000622 0.000000
vt -0.122693 0.000393 0.000000
vt -0.121095 0.000311 0.000000
vt -0.122731 0.000000 0.000000
vt -0.121095 0.000000 0.000000
vt 0.003142 -0.000740 0.000000
vt 0.002094 -0.000000 0.000000
vt 0.002094 -0.000740 0.000000
vt 0.001047 -0.000000 0.000000
vt 0.001047 -0.000740 0.000000
vt -0.000000 -0.000000 0.000000
vt -0.000000 -0.000740 0.000000
vt 0.001047 -0.001481 0.000000
vt -0.000000 -0.001481 0.000000
vt 0.001047 -0.002221 0.000000
vt -0.000000 -0.002221 0.000000
vt 0.002094 -0.002221 0.000000
vt 0.002094 -0.001481 0.000000
vt 0.003142 -0.002221 0.000000
vt 0.003142 -0.001481 0.000000
vt -0.119095 -0.003142 0.000000
vt -0.119860 -0.002356 0.000000
vt -0.120731 -0.003142 0.000000
vt -0.121496 -0.002356 0.000000
vt -0.120509 -0.001571 0.000000
vt -0.122145 -0.001571 0.000000
vt -0.120942 -0.000785 0.000000
vt -0.122579 -0.000785 0.000000
vt -0.121056 -0.000393 0.000000
vt -0.122693 -0.000393 0.000000
vt -0.121095 0.000000 0.000000
vt -0.122731 0.000000 0.000000
vt -0.120731 -0.001047 0.000000
vt -0.100943 -0.001047 0.000000
vt -0.120731 0.000000 0.000000
vt -0.081154 -0.001047 0.000000
vt -0.061366 -0.001047 0.000000
vt -0.061366 -0.002094 0.000000
vt -0.041577 -0.002094 0.000000
vt -0.002000 -0.003142 0.000000
vt -0.021789 -0.002094 0.000000
vt -0.002000 -0.002094 0.000000
vt -0.021789 -0.001047 0.000000
vt -0.002000 -0.001047 0.000000
vt -0.002000 -0.000000 0.000000
vt -0.100943 -0.002094 0.000000
vt -0.120731 -0.002094 0.000000
vt -0.120731 -0.003142 0.000000
vt -0.081154 -0.002094 0.000000
vt -0.041577 -0.001047 0.000000
vt -0.131083 0.001047 0.000000
vt -0.150117 0.001047 0.000000
vt -0.131083 -0.000000 0.000000
vt -0.169150 0.001047 0.000000
vt -0.188183 0.000000 0.000000
vt -0.188183 0.001047 0.000000
vt -0.188183 0.002094 0.000000
vt -0.169150 0.002094 0.000000
vt -0.188183 0.003142 0.000000
vt -0.150117 0.002094 0.000000
vt -0.131083 0.003142 0.000000
vt -0.131083 0.002094 0.000000
vt -0.002000 0.003142 0.000000
vt -0.034289 0.003142 0.000000
vt -0.019144 0.002094 0.000000
vt -0.035054 0.002356 0.000000
vt -0.035703 0.001571 0.000000
vt -0.019144 0.001047 0.000000
vt -0.036136 0.000785 0.000000
vt -0.036250 0.000393 0.000000
vt -0.036289 -0.000000 0.000000
vt -0.002000 -0.000000 0.000000
vt -0.002000 0.001047 0.000000
vt -0.002000 0.002094 0.000000
vt 0.120731 0.001047 0.000000
vt 0.100943 0.001047 0.000000
vt 0.120731 0.000000 0.000000
vt 0.081154 0.001047 0.000000
vt 0.061366 0.001047 0.000000
vt 0.061366 0.002094 0.000000
vt 0.041577 0.002094 0.000000
vt 0.002000 0.003142 0.000000
vt 0.021789 0.002094 0.000000
vt 0.002000 0.002094 0.000000
vt 0.021789 0.001047 0.000000
vt 0.002000 0.001047 0.000000
vt 0.002000 0.000000 0.000000
vt 0.100943 0.002094 0.000000
vt 0.120731 0.002094 0.000000
vt 0.120731 0.003142 0.000000
vt 0.081154 0.002094 0.000000
vt 0.041577 0.001047 0.000000
vt -0.131083 -0.005236 0.000000
vt -0.150117 -0.005236 0.000000
vt -0.131083 -0.006283 0.000000
vt -0.169150 -0.005236 0.000000
vt -0.188183 -0.006283 0.000000
vt -0.188183 -0.005236 0.000000
vt -0.188183 -0.004189 0.000000
vt -0.169150 -0.004189 0.000000
vt -0.188183 -0.003142 0.000000
vt -0.150117 -0.004189 0.000000
vt -0.131083 -0.003142 0.000000
vt -0.131083 -0.004189 0.000000
vt 0.002000 -0.003142 0.000000
vt 0.034289 -0.003142 0.000000
vt 0.019144 -0.002094 0.000000
vt 0.035054 -0.002356 0.000000
vt 0.035703 -0.001571 0.000000
vt 0.019144 -0.001047 0.000000
vt 0.036136 -0.000785 0.000000
vt 0.036250 -0.000393 0.000000
vt 0.036289 0.000000 0.000000
vt 0.002000 -0.000000 0.000000
vt 0.002000 -0.001047 0.000000
vt 0.002000 -0.002094 0.000000
vt 0.003142 -0.002962 0.000000
vt 0.002094 -0.002221 0.000000
vt 0.002094 -0.002962 0.000000
vt 0.001047 -0.002221 0.000000
vt 0.001047 -0.002962 0.000000
vt 0.000000 -0.002221 0.000000
vt 0.000000 -0.002962 0.000000
vt 0.001047 -0.003702 0.000000
vt 0.000000 -0.003702 0.000000
vt 0.001047 -0.004443 0.000000
vt -0.000000 -0.004443 0.000000
vt 0.002094 -0.004443 0.000000
vt 0.002094 -0.003702 0.000000
vt 0.003142 -0.004443 0.000000
vt 0.003142 -0.003702 0.000000
vt 0.003142 -0.002962 0.000000
vt 0.002094 -0.002221 0.000000
vt 0.002094 -0.002962 0.000000
vt 0.001047 -0.002221 0.000000
vt 0.001047 -0.002962 0.000000
vt -0.000000 -0.002221 0.000000
vt -0.000000 -0.002962 0.000000
vt 0.001047 -0.003702 0.000000
vt 0.000000 -0.003702 0.000000
vt 0.001047 -0.004443 0.000000
vt 0.000000 -0.004443 0.000000
vt 0.002094 -0.004443 0.000000
vt 0.002094 -0.003702 0.000000
vt 0.003142 -0.004443 0.000000
vt 0.003142 -0.003702 0.000000
vt 0.001047 0.000000 0.000000
vt 0.000000 -0.000000 0.000000
vt 0.001047 -0.000740 0.000000
vt 0.000000 -0.000740 0.000000
vt 0.001047 -0.001481 0.000000
vt -0.000000 -0.001481 0.000000
vt 0.001047 -0.002221 0.000000
vt -0.000000 -0.002221 0.000000
vt 0.002094 -0.002221 0.000000
vt 0.002094 -0.001481 0.000000
vt 0.002094 -0.000740 0.000000
vt 0.002094 -0.000000 0.000000
vt 0.003142 -0.000740 0.000000
vt 0.003142 -0.002221 0.000000
vt 0.003142 -0.001481 0.000000
vt 0.002000 -0.001047 0.000000
vt 0.019144 -0.001047 0.000000
vt 0.002000 0.000000 0.000000
vt 0.036250 -0.000393 0.000000
vt 0.036289 0.000000 0.000000
vt 0.019144 -0.002094 0.000000
vt 0.002000 -0.002094 0.000000
vt 0.002000 -0.003142 0.000000
vt 0.034289 -0.003142 0.000000
vt 0.035054 -0.002356 0.000000
vt 0.035703 -0.001571 0.000000
vt 0.036136 -0.000785 0.000000
vt -0.131083 -0.002094 0.000000
vt -0.150117 -0.002094 0.000000
vt -0.131083 -0.003142 0.000000
vt -0.169150 -0.002094 0.000000
vt -0.188183 -0.003142 0.000000
vt -0.188183 -0.002094 0.000000
vt -0.188183 -0.001047 0.000000
vt -0.169150 -0.001047 0.000000
vt -0.188183 0.000000 0.000000
vt -0.150117 -0.001047 0.000000
vt -0.131083 -0.000000 0.000000
vt -0.131083 -0.001047 0.000000
vt 0.120731 -0.002094 0.000000
vt 0.100943 -0.002094 0.000000
vt 0.120731 -0.003142 0.000000
vt 0.081154 -0.002094 0.000000
vt 0.061366 -0.002094 0.000000
vt 0.061366 -0.001047 0.000000
vt 0.041577 -0.001047 0.000000
vt 0.002000 0.000000 0.000000
vt 0.021789 -0.001047 0.000000
vt 0.002000 -0.001047 0.000000
vt 0.021789 -0.002094 0.000000
vt 0.002000 -0.002094 0.000000
vt 0.002000 -0.003142 0.000000
vt 0.100943 -0.001047 0.000000
vt 0.120731 -0.001047 0.000000
vt 0.120731 0.000000 0.000000
vt 0.081154 -0.001047 0.000000
vt 0.041577 -0.002094 0.000000
vt 0.000000 0.000000 0.000000
vt 0.000038 -0.000393 0.000000
vt 0.001366 0.000000 0.000000
vt 0.001404 -0.000393 0.000000
vt 0.000152 -0.000785 0.000000
vt 0.001518 -0.000785 0.000000
vt 0.000586 -0.001571 0.000000
vt 0.001951 -0.001571 0.000000
vt 0.001235 -0.002356 0.000000
vt 0.002600 -0.002356 0.000000
vt 0.002000 -0.003142 0.000000
vt 0.003366 -0.003142 0.000000
vt 0.001047 -0.000000 0.000000
vt 0.000000 0.000000 0.000000
vt 0.001047 -0.000740 0.000000
vt -0.000000 -0.000740 0.000000
vt 0.001047 -0.001481 0.000000
vt 0.000000 -0.001481 0.000000
vt 0.001047 -0.002221 0.000000
vt -0.000000 -0.002221 0.000000
vt 0.002094 -0.002221 0.000000
vt 0.002094 -0.001481 0.000000
vt 0.002094 -0.000740 0.000000
vt 0.002094 -0.000000 0.000000
vt 0.003142 -0.000740 0.000000
vt 0.003142 -0.002221 0.000000
vt 0.003142 -0.001481 0.000000
vt 0.034893 -0.000393 0.000000
vt 0.054951 -0.001047 0.000000
vt 0.034931 0.000000 0.000000
vt 0.076971 -0.001047 0.000000
vt 0.098990 -0.001047 0.000000
vt 0.098990 -0.002094 0.000000
vt 0.121010 -0.002094 0.000000
vt 0.187069 -0.003142 0.000000
vt 0.143029 -0.002094 0.000000
vt 0.165049 -0.002094 0.000000
vt 0.143029 -0.001047 0.000000
vt 0.165049 -0.001047 0.000000
vt 0.185107 -0.000393 0.000000
vt 0.185221 -0.000785 0.000000
vt 0.185654 -0.001571 0.000000
vt 0.186303 -0.002356 0.000000
vt 0.034779 -0.000785 0.000000
vt 0.034346 -0.001571 0.000000
vt 0.054951 -0.002094 0.000000
vt 0.033697 -0.002356 0.000000
vt 0.076971 -0.002094 0.000000
vt 0.032931 -0.003142 0.000000
vt 0.185069 0.000000 0.000000
vt 0.121010 -0.001047 0.000000
vt -0.002000 -0.002094 0.000000
vt -0.019144 -0.002094 0.000000
vt -0.002000 -0.003142 0.000000
vt -0.035054 -0.002356 0.000000
vt -0.034289 -0.003142 0.000000
vt -0.019144 -0.001047 0.000000
vt -0.002000 -0.001047 0.000000
vt -0.002000 -0.000000 0.000000
vt -0.036289 0.000000 0.000000
vt -0.036250 -0.000393 0.000000
vt -0.036136 -0.000785 0.000000
vt -0.035703 -0.001571 0.000000
vt 0.000000 -0.000000 0.000000
vt -0.001095 -0.000000 0.000000
vt -0.000038 -0.000393 0.000000
vt -0.001133 -0.000393 0.000000
vt -0.000152 -0.000785 0.000000
vt -0.001247 -0.000785 0.000000
vt -0.000586 -0.001571 0.000000
vt -0.001680 -0.001571 0.000000
vt -0.001235 -0.002356 0.000000
vt -0.002329 -0.002356 0.000000
vt -0.002000 -0.003142 0.000000
vt -0.003095 -0.003142 0.000000
vn 0.000000 -0.258819 0.965926
vn 0.000000 -0.258819 0.965926
vn 0.000000 -0.258819 0.965926
vn 0.000000 -0.258819 0.965926
vn -0.000000 0.258819 -0.965926
vn -0.000000 0.258819 -0.965926
vn -0.000000 0.258819 -0.965926
vn -0.000000 0.258819 -0.965926
vn 0.000000 0.965926 0.258819
vn 0.000000 0.965926 0.258819
vn 0.000000 0.965926 0.258819
vn 0.000000 0.965926 0.258819
vn 0.000000 0.965926 0.258819
vn 0.000000 0.965926 0.258819
vn 0.000000 0.965926 0.258819
vn 0.000000 0.965926 0.258819
vn 0.000000 0.965926 0.258819
vn 0.000000 0.965926 0.258819
vn -0.000000 -0.965926 -0.258819
vn -0.000000 -0.965926 -0.258819
vn -0.000000 -0.965926 -0.258819
vn -0.000000 -0.965926 -0.258819
vn -0.000000 -0.965926 -0.258819
vn -0.000000 -0.965926 -0.258819
vn -0.000000 -0.965926 -0.258819
vn -0.000000 -0.965926 -0.258819
vn -0.000000 -0.965926 -0.258819
vn -0.000000 -0.965926 -0.258819
vn -1.000000 -0.000000 0.000000
vn -1.000000 -0.000000 0.000000
vn -1.000000 -0.000000 0.000000
vn -1.000000 -0.000000 0.000000
vn 1.000000 0.000000 -0.000000
vn 1.000000 0.000000 -0.000000
vn 1.000000 0.000000 -0.000000
vn 1.000000 0.000000 -0.000000
vn 1.000000 0.000000 -0.000000
vn 1.000000 0.000000 -0.000000
vn 1.000000 0.000000 -0.000000
vn 1.000000 0.000000 -0.000000
vn 1.000000 0.000000 -0.000000
vn 1.000000 0.000000 -0.000000
vn 1.000000 0.000000 -0.000000
vn 1.000000 0.000000 -0.000000
vn -0.000000 0.258819 -0.965926
vn -0.000000 0.258819 -0.965926
vn -0.000000 0.258819 -0.965926
vn -0.000000 0.258819 -0.965926
vn -0.000000 -0.965926 -0.258819
vn -0.000000 -0.965926 -0.258819
vn -0.000000 -0.965926 -0.258819
vn -0.000000 -0.965926 -0.258819
vn 0.000000 0.965926 0.258819
vn 0.000000 0.965926 0.258819
vn 0.000000 0.965926 0.258819
vn 0.000000 0.965926 0.258819
vn 0.000000 -0.258819 0.965926
vn 0.000000 -0.258819 0.965926
vn 0.000000 -0.258819 0.965926
vn 0.000000 -0.258819 0.965926
vn -1.000000 -0.000000 0.000000
vn -1.000000 -0.000000 0.000000
vn -1.000000 -0.000000 0.000000
vn -1.000000 -0.000000 0.000000
vn 0.000000 -0.258819 0.965926
vn 0.000000 -0.258819 0.965926
vn 0.000000 -0.258819 0.965926
vn 0.000000 -0.258819 0.965926
vn 0.000000 0.965926 0.258819
vn 0.000000 0.965926 0.258819
vn 0.000000 0.965926 0.258819
vn 0.000000 0.965926 0.258819
vn -0.000000 -0.965926 -0.258819
vn -0.000000 -0.965926 -0.258819
vn -0.000000 -0.965926 -0.258819
vn -0.000000 -0.965926 -0.258819
vn -0.000000 0.258819 -0.965926
vn -0.000000 0.258819 -0.965926
vn -0.000000 0.258819 -0.965926
vn -0.000000 0.258819 -0.965926
vn -1.000000 -0.000000 0.000000
vn -1.000000 -0.000000 0.000000
vn -1.000000 -0.000000 0.000000
vn -1.000000 -0.000000 0.000000
vn -0.500000 0.836516 0.224144
vn -0.500000 0.836516 0.224144
vn -0.195090 0.947366 0.253846
vn 0.000000 0.965926 0.258819
vn -0.866025 0.482963 0.129410
vn -0.866025 0.482963 0.129410
vn -0.923880 0.369644 0.099046
vn -0.707107 0.683013 0.183013
vn -0.382683 0.892399 0.239118
vn -0.500000 0.224144 -0.836516
vn 0.000000 0.707107 -0.707107
vn -0.500000 0.612372 -0.612372
vn 0.000000 0.965926 -0.258819
vn -0.500000 0.836516 -0.224144
vn 0.000000 0.965926 0.258819
vn -0.866025 0.482963 -0.129410
vn -0.866025 0.482963 0.129410
vn -0.866025 0.129410 -0.482963
vn -0.866025 0.353553 -0.353553
vn -0.000000 -0.258819 0.965926
vn -0.000000 -0.258819 0.965926
vn -0.154961 -0.255693 0.954258
vn -0.195090 -0.253846 0.947366
vn -0.306179 -0.246389 0.919536
vn -0.382683 -0.239118 0.892399
vn -0.450000 -0.231133 0.862599
vn -0.707107 -0.183013 0.683013
vn -0.500000 -0.224144 0.836516
vn -0.866025 -0.129410 0.482963
vn -0.866025 -0.129410 0.482963
vn -0.923880 -0.099046 0.369644
vn -0.923880 -0.099046 0.369644
vn -0.866025 -0.129410 0.482963
vn -0.866025 -0.129410 0.482963
vn -0.866025 -0.129410 0.482963
vn -0.500000 -0.224144 0.836516
vn -0.500000 -0.224144 0.836516
vn -0.707107 -0.183013 0.683013
vn -0.500000 -0.224144 0.836516
vn -0.500000 -0.224144 0.836516
vn -0.450000 -0.231133 0.862599
vn -0.382683 -0.239118 0.892399
vn -0.306179 -0.246389 0.919536
vn -0.195090 -0.253846 0.947366
vn -0.154961 -0.255693 0.954258
vn -0.000000 -0.258819 0.965926
vn -0.000000 -0.258819 0.965926
vn 0.195090 -0.253846 0.947366
vn 0.195090 -0.253846 0.947366
vn 0.382683 -0.239118 0.892399
vn 0.382683 -0.239118 0.892399
vn 0.707107 -0.183013 0.683013
vn 0.707107 -0.183013 0.683013
vn 0.923880 -0.099046 0.369644
vn 0.923880 -0.099046 0.369644
vn 1.000000 -0.000000 0.000000
vn -0.000000 0.965926 0.258819
vn 0.500000 0.836516 0.224144
vn 0.195090 0.947366 0.253846
vn 0.382683 0.892399 0.239118
vn 0.707107 0.683013 0.183013
vn 0.866025 0.482963 0.129410
vn 0.866025 0.482963 0.129410
vn 0.923880 0.369644 0.099046
vn 1.000000 -0.000000 -0.000000
vn 0.500000 0.836516 0.224144
vn -0.000000 0.707107 -0.707107
vn -0.000000 0.707107 -0.707107
vn -0.000000 0.707107 -0.707107
vn -0.000000 0.965926 -0.258819
vn -0.000000 0.965926 -0.258819
vn -0.000000 0.965926 -0.258819
vn -0.000000 0.965926 -0.258819
vn -0.866025 0.129410 -0.482963
vn -0.866025 0.129410 -0.482963
vn -0.866025 0.129410 -0.482963
vn -0.500000 0.224144 -0.836516
vn -0.500000 0.224144 -0.836516
vn -0.500000 0.224144 -0.836516
vn -0.500000 0.224144 -0.836516
vn -0.866025 0.129410 -0.482963
vn -0.866025 0.129410 -0.482963
vn -1.000000 0.000000 -0.000000
vn -0.500000 0.224144 -0.836516
vn -0.500000 0.224144 -0.836516
vn -0.866025 0.129410 -0.482963
vn 0.000000 -0.965926 -0.258819
vn -0.500000 -0.836516 -0.224144
vn -0.195090 -0.947366 -0.253846
vn -0.382683 -0.892399 -0.239118
vn -0.707107 -0.683013 -0.183013
vn -0.866025 -0.482963 -0.129410
vn -0.866025 -0.482963 -0.129410
vn -0.923880 -0.369644 -0.099046
vn -1.000000 -0.000000 0.000000
vn -0.500000 -0.836516 -0.224144
vn -0.866025 0.482963 0.129410
vn -0.866025 0.482963 0.129410
vn -0.923880 0.369644 0.099046
vn -1.000000 -0.000000 0.000000
vn -0.500000 0.836516 0.224144
vn -0.500000 0.836516 0.224144
vn 0.000000 0.965926 0.258819
vn -0.195090 0.947366 0.253846
vn -0.382683 0.892399 0.239118
vn -0.707107 0.683013 0.183013
vn 0.923880 0.369644 0.099046
vn 0.866025 0.482963 0.129410
vn 0.866025 0.482963 0.129410
vn 0.866025 0.482963 0.129410
vn 0.500000 0.836516 0.224144
vn 0.500000 0.836516 0.224144
vn -0.000000 0.965926 0.258819
vn 0.500000 0.836516 0.224144
vn 0.500000 0.836516 0.224144
vn 0.866025 0.482963 0.129410
vn 0.866025 0.482963 0.129410
vn 0.923880 0.369644 0.099046
vn 0.707107 0.683013 0.183013
vn 0.382683 0.892399 0.239118
vn 0.195090 0.947366 0.253846
vn 0.707107 0.683013 0.183013
vn 0.500000 0.836516 0.224144
vn 0.500000 0.836516 0.224144
vn 0.195090 0.947366 0.253846
vn 0.382683 0.892399 0.239118
vn -0.000000 0.965926 0.258819
vn 1.000000 0.000000 -0.000000
vn 0.866025 0.482963 0.129410
vn 0.250000 0.642402 -0.724444
vn 0.433013 0.853854 -0.288849
vn 0.500000 0.836516 0.224144
vn 0.750000 0.547668 -0.370891
vn 0.866025 0.129410 -0.482963
vn 0.500000 0.224144 -0.836516
vn 0.433013 0.465625 -0.771812
vn 0.000000 -0.707107 -0.707107
vn -0.433013 -0.595035 -0.677077
vn -0.750000 -0.288849 -0.595035
vn -0.866025 0.129410 -0.482963
vn -0.500000 0.224144 -0.836516
vn -0.433013 -0.017338 -0.901221
vn -0.250000 -0.194114 -0.948588
vn 0.000000 -0.258819 -0.965926
vn -0.306179 0.246389 -0.919536
vn -0.382683 0.239118 -0.892399
vn -0.450000 0.231133 -0.862599
vn -0.707107 0.183013 -0.683013
vn -0.500000 0.224144 -0.836516
vn -0.866025 0.129410 -0.482963
vn -0.866025 0.129410 -0.482963
vn -0.923880 0.099046 -0.369644
vn -0.195090 0.253846 -0.947366
vn -0.154961 0.255693 -0.954258
vn -0.923880 0.099046 -0.369644
vn -0.866025 0.129410 -0.482963
vn -0.866025 0.129410 -0.482963
vn -0.866025 0.129410 -0.482963
vn -0.500000 0.224144 -0.836516
vn -0.500000 0.224144 -0.836516
vn -0.707107 0.183013 -0.683013
vn -0.500000 0.224144 -0.836516
vn -0.500000 0.224144 -0.836516
vn -0.450000 0.231133 -0.862599
vn -0.382683 0.239118 -0.892399
vn -0.306179 0.246389 -0.919536
vn -0.195090 0.253846 -0.947366
vn -0.154961 0.255693 -0.954258
vn 0.000000 0.258819 0.965926
vn -0.250000 0.194114 0.948588
vn 0.000000 0.707107 0.707107
vn -0.433013 0.595035 0.677077
vn -0.500000 0.836516 0.224144
vn -0.750000 0.288849 0.595035
vn -0.866025 -0.129410 0.482963
vn -0.500000 -0.224144 0.836516
vn -0.433013 0.017338 0.901221
vn 0.923880 0.099046 -0.369644
vn 0.923880 0.099046 -0.369644
vn 0.707107 0.183013 -0.683013
vn 0.707107 0.183013 -0.683013
vn 0.382683 0.239118 -0.892399
vn 0.382683 0.239118 -0.892399
vn 0.195090 0.253846 -0.947366
vn 0.195090 0.253846 -0.947366
vn 0.500000 0.224144 -0.836516
vn 0.500000 0.224144 -0.836516
vn 0.500000 0.224144 -0.836516
vn 0.500000 0.224144 -0.836516
vn 0.866025 0.129410 -0.482963
vn 0.866025 0.129410 -0.482963
vn 0.866025 0.129410 -0.482963
vn 0.866025 0.129410 -0.482963
vn 0.500000 0.224144 -0.836516
vn 0.500000 0.224144 -0.836516
vn 0.866025 0.129410 -0.482963
vn 0.866025 0.129410 -0.482963
vn 0.500000 0.224144 -0.836516
vn -0.000000 -0.707107 -0.707107
vn -0.000000 -0.707107 -0.707107
vn -0.000000 -0.965926 -0.258819
vn -0.000000 -0.707107 -0.707107
vn -0.000000 -0.258819 -0.965926
vn -0.000000 -0.258819 -0.965926
vn -0.000000 -0.258819 -0.965926
vn -0.000000 -0.258819 -0.965926
vn -0.866025 -0.482963 -0.129410
vn -0.923880 -0.369644 -0.099046
vn -0.707107 -0.683013 -0.183013
vn -0.500000 -0.836516 -0.224144
vn -0.382683 -0.892399 -0.239118
vn -0.195090 -0.947366 -0.253846
vn 0.000000 -0.965926 -0.258819
vn -0.500000 -0.836516 -0.224144
vn -0.866025 -0.482963 -0.129410
vn -0.500000 -0.224144 0.836516
vn -0.000000 -0.258819 0.965926
vn -0.500000 -0.224144 0.836516
vn -0.500000 -0.224144 0.836516
vn -0.866025 -0.129410 0.482963
vn -0.866025 -0.129410 0.482963
vn -0.866025 -0.129410 0.482963
vn -0.866025 -0.129410 0.482963
vn -0.500000 -0.224144 0.836516
vn -0.500000 -0.224144 0.836516
vn -0.866025 -0.129410 0.482963
vn -0.866025 -0.129410 0.482963
vn -0.500000 -0.224144 0.836516
vn 0.000000 0.707107 0.707107
vn 0.000000 0.707107 0.707107
vn 0.000000 0.707107 0.707107
vn 0.000000 0.258819 0.965926
vn 0.000000 0.258819 0.965926
vn 0.000000 -0.258819 0.965926
vn 0.000000 0.258819 0.965926
vn 0.000000 -0.258819 0.965926
vn 0.000000 0.258819 0.965926
vn 1.000000 -0.000000 -0.000000
vn 0.866025 0.482963 0.129410
vn 0.923880 0.369644 0.099046
vn 0.707107 0.683013 0.183013
vn 0.500000 0.836516 0.224144
vn 0.382683 0.892399 0.239118
vn 0.195090 0.947366 0.253846
vn -0.000000 0.965926 0.258819
vn 0.500000 0.836516 0.224144
vn 0.866025 0.482963 0.129410
vn 0.000000 -0.707107 -0.707107
vn 0.250000 -0.724444 -0.642402
vn 0.000000 -0.258819 -0.965926
vn 0.433013 -0.288849 -0.853854
vn 0.500000 0.224144 -0.836516
vn 0.750000 -0.370891 -0.547668
vn 0.866025 -0.482963 -0.129410
vn 0.500000 -0.836516 -0.224144
vn 0.433013 -0.771812 -0.465625
vn -0.433013 -0.465625 0.771812
vn -0.750000 -0.547668 0.370891
vn -0.433013 -0.853854 0.288849
vn -0.500000 -0.836516 -0.224144
vn 0.000000 -0.965926 0.258819
vn 0.000000 -0.707107 0.707107
vn -0.250000 -0.642402 0.724444
vn 0.866025 -0.129410 0.482963
vn 0.750000 0.288849 0.595035
vn 0.433013 0.595035 0.677077
vn 0.000000 0.707107 0.707107
vn 0.000000 0.258819 0.965926
vn 0.250000 0.194114 0.948588
vn 0.433013 0.017338 0.901221
vn 0.500000 -0.224144 0.836516
vn 0.500000 -0.836516 -0.224144
vn 0.500000 -0.836516 -0.224144
vn 0.195090 -0.947366 -0.253846
vn -0.000000 -0.965926 -0.258819
vn 0.866025 -0.482963 -0.129410
vn 0.923880 -0.369644 -0.099046
vn 0.707107 -0.683013 -0.183013
vn 0.382683 -0.892399 -0.239118
vn 0.000000 -0.707107 0.707107
vn 0.000000 -0.707107 0.707107
vn 0.000000 -0.707107 0.707107
vn 0.000000 -0.965926 0.258819
vn 0.000000 -0.965926 0.258819
vn -0.000000 -0.965926 -0.258819
vn 0.000000 -0.965926 0.258819
vn 0.866025 -0.129410 0.482963
vn 0.866025 -0.129410 0.482963
vn 0.866025 -0.129410 0.482963
vn 0.866025 -0.129410 0.482963
vn 0.500000 -0.224144 0.836516
vn 0.500000 -0.224144 0.836516
vn 0.500000 -0.224144 0.836516
vn 0.500000 -0.224144 0.836516
vn 0.866025 -0.129410 0.482963
vn 0.866025 -0.129410 0.482963
vn 0.500000 -0.224144 0.836516
vn 0.500000 -0.224144 0.836516
vn -0.000000 -0.258819 0.965926
vn 0.500000 -0.224144 0.836516
vn 0.866025 -0.129410 0.482963
vn 0.195090 -0.253846 0.947366
vn 0.195090 -0.253846 0.947366
vn 0.382683 -0.239118 0.892399
vn 0.382683 -0.239118 0.892399
vn 0.707107 -0.183013 0.683013
vn 0.707107 -0.183013 0.683013
vn 0.923880 -0.099046 0.369644
vn 0.923880 -0.099046 0.369644
vn 0.866025 -0.482963 -0.129410
vn 1.000000 0.000000 -0.000000
vn 0.750000 -0.595035 0.288849
vn 0.866025 -0.129410 0.482963
vn 0.433013 -0.677077 0.595035
vn 0.500000 -0.224144 0.836516
vn 0.250000 -0.948588 0.194114
vn 0.433013 -0.901221 0.017338
vn 0.500000 -0.836516 -0.224144
vn 0.195090 -0.947366 -0.253846
vn 0.500000 -0.836516 -0.224144
vn -0.000000 -0.965926 -0.258819
vn 0.500000 -0.836516 -0.224144
vn 0.500000 -0.836516 -0.224144
vn 0.866025 -0.482963 -0.129410
vn 0.866025 -0.482963 -0.129410
vn 0.866025 -0.482963 -0.129410
vn 0.866025 -0.482963 -0.129410
vn 0.500000 -0.836516 -0.224144
vn 0.500000 -0.836516 -0.224144
vn 0.195090 -0.947366 -0.253846
vn 0.382683 -0.892399 -0.239118
vn 0.707107 -0.683013 -0.183013
vn 0.923880 -0.369644 -0.099046
vn 0.382683 -0.892399 -0.239118
vn 0.707107 -0.683013 -0.183013
vn 0.866025 -0.482963 -0.129410
vn 0.923880 -0.369644 -0.099046
vn 0.866025 -0.482963 -0.129410
vn -0.000000 -0.965926 -0.258819
vn 0.500000 -0.836516 -0.224144
vn 0.866025 -0.482963 -0.129410
vn 0.866025 -0.482963 -0.129410
vn 0.923880 -0.369644 -0.099046
vn 0.500000 -0.836516 -0.224144
vn -0.000000 -0.965926 -0.258819
vn 0.195090 -0.947366 -0.253846
vn 0.382683 -0.892399 -0.239118
vn 0.707107 -0.683013 -0.183013
vn 0.195090 0.253846 -0.947366
vn 0.195090 0.253846 -0.947366
vn 0.382683 0.239118 -0.892399
vn 0.382683 0.239118 -0.892399
vn 0.707107 0.183013 -0.683013
vn 0.707107 0.183013 -0.683013
vn 0.923880 0.099046 -0.369644
vn 0.923880 0.099046 -0.369644
usemtl Opaque(202,209,238)
f 2/1/1 3/2/2 1/3/3
f 1/3/3 3/2/2 4/4/4
f 6/5/5 7/6/6 5/7/7
f 5/7/7 7/6/6 8/8/8
f 10/9/9 2/10/10 9/11/11
f 9/11/11 2/10/10 1/12/12
f 9/11/11 1/12/12 16/13/13
f 16/13/13 1/12/12 11/14/14
f 16/13/13 11/14/14 15/15/15
f 15/15/15 11/14/14 12/16/16
f 15/15/15 12/16/16 14/17/17
f 14/17/17 12/16/16 13/18/18
f 18/19/19 6/20/20 17/21/21
f 17/21/21 6/20/20 5/22/22
f 17/21/21 5/22/22 24/23/23
f 24/23/23 5/22/22 19/24/24
f 24/23/23 19/24/24 23/25/25
f 23/25/25 19/24/24 20/26/26
f 23/25/25 20/26/26 22/27/27
f 22/27/27 20/26/26 21/28/28
f 13/29/29 22/30/30 14/31/31
f 14/31/31 22/30/30 21/32/32
f 25/33/33 26/34/34 36/35/35
f 36/35/35 26/34/34 33/36/36
f 36/35/35 33/36/36 35/37/37
f 35/37/37 33/36/36 34/38/38
f 33/36/36 26/34/34 32/39/39
f 32/39/39 26/34/34 27/40/40
f 32/39/39 27/40/40 30/41/41
f 30/41/41 27/40/40 29/42/42
f 29/42/42 27/40/40 28/43/43
f 30/41/41 31/44/44 32/39/39
f 38/45/45 10/46/46 37/47/47
f 37/47/47 10/46/46 9/48/48
f 7/49/49 39/50/50 8/51/51
f 8/51/51 39/50/50 40/52/52
f 42/53/53 38/54/54 41/55/55
f 41/55/55 38/54/54 37/56/56
f 44/57/57 45/58/58 43/59/59
f 43/59/59 45/58/58 46/60/60
f 48/61/61 49/62/62 47/63/63
f 47/63/63 49/62/62 50/64/64
f 52/65/65 18/66/66 51/67/67
f 51/67/67 18/66/66 17/68/68
f 3/69/69 53/70/70 4/71/71
f 4/71/71 53/70/70 54/72/72
f 56/73/73 52/74/74 55/75/75
f 55/75/75 52/74/74 51/76/76
f 58/77/77 59/78/78 57/79/79
f 57/79/79 59/78/78 60/80/80
f 61/81/81 62/82/82 64/83/83
f 64/83/83 62/82/82 63/84/84
f 65/85/85 71/86/86 54/87/72
f 54/87/72 71/86/86 70/88/87
f 54/87/72 70/88/87 4/89/88
f 71/86/86 65/85/85 72/90/89
f 72/90/89 65/85/85 66/91/90
f 72/90/89 66/91/90 63/92/84
f 63/92/84 62/93/82 72/90/89
f 72/90/89 62/93/82 67/94/91
f 72/90/89 67/94/91 68/95/92
f 72/90/89 68/95/92 71/86/86
f 71/86/86 68/95/92 69/96/93
f 71/86/86 69/96/93 70/88/87
f 57/97/79 73/98/94 76/99/95
f 76/99/95 73/98/94 78/100/96
f 76/99/95 78/100/96 75/101/97
f 75/101/97 78/100/96 79/102/98
f 75/101/97 79/102/98 54/103/99
f 54/103/99 79/102/98 65/104/85
f 65/104/85 79/102/98 80/105/100
f 65/104/85 80/105/100 66/106/101
f 66/106/101 80/105/100 63/107/84
f 73/98/94 74/108/102 78/100/96
f 78/100/96 74/108/102 77/109/103
f 78/100/96 77/109/103 79/102/98
f 79/102/98 77/109/103 80/105/100
f 74/108/102 63/110/84 77/109/103
f 77/109/103 63/111/84 80/105/100
f 1/112/104 4/113/105 11/114/106
f 11/114/106 4/113/105 70/115/107
f 11/114/106 70/115/107 12/116/108
f 12/116/108 70/115/107 69/117/109
f 12/116/108 69/117/109 13/118/110
f 13/118/110 69/117/109 68/119/111
f 13/118/110 68/119/111 85/120/112
f 85/120/112 68/119/111 90/121/113
f 85/120/112 90/121/113 91/122/114
f 91/122/114 90/121/113 67/123/115
f 91/122/114 67/123/115 61/124/81
f 61/124/81 67/123/115 62/125/82
f 68/119/111 67/123/115 90/121/113
f 81/126/116 94/127/117 61/124/81
f 61/124/81 94/127/117 93/128/118
f 61/124/81 93/128/118 92/129/119
f 92/129/119 93/128/118 87/130/120
f 92/129/119 87/130/120 86/131/121
f 86/131/121 87/130/120 13/118/110
f 86/131/121 13/118/110 85/120/112
f 81/126/116 82/132/122 94/127/117
f 94/127/117 82/132/122 89/133/123
f 94/127/117 89/133/123 88/134/124
f 88/134/124 89/133/123 22/135/125
f 88/134/124 22/135/125 87/130/120
f 87/130/120 22/135/125 13/118/110
f 89/133/123 82/132/122 22/135/125
f 22/135/125 82/132/122 83/136/126
f 22/135/125 83/136/126 23/137/127
f 23/137/127 83/136/126 84/138/128
f 23/137/127 84/138/128 24/139/129
f 24/139/129 84/138/128 51/140/67
f 24/139/129 51/140/67 17/141/68
f 92/129/119 86/131/121 91/122/114
f 91/122/114 86/131/121 85/120/112
f 94/127/117 88/134/124 93/128/118
f 93/128/118 88/134/124 87/130/120
f 61/124/81 92/129/119 91/122/114
f 3/142/130 2/143/131 102/144/132
f 102/144/132 2/143/131 95/145/133
f 102/144/132 95/145/133 101/146/134
f 101/146/134 95/145/133 96/147/135
f 101/146/134 96/147/135 100/148/136
f 100/148/136 96/147/135 97/149/137
f 100/148/136 97/149/137 99/150/138
f 99/150/138 97/149/137 98/151/139
f 99/150/138 98/151/139 31/152/44
f 31/152/44 98/151/139 32/153/140
f 53/154/70 3/155/141 105/156/142
f 105/156/142 3/155/141 102/157/143
f 105/156/142 102/157/143 101/158/144
f 101/158/144 100/159/145 105/156/142
f 105/156/142 100/159/145 106/160/146
f 105/156/142 106/160/146 103/161/147
f 103/161/147 106/160/146 30/162/41
f 30/162/41 106/160/146 99/163/148
f 30/162/41 99/163/148 31/164/149
f 100/159/145 99/163/148 106/160/146
f 103/161/147 104/165/150 105/156/142
f 105/156/142 104/165/150 53/154/70
f 76/166/95 109/167/151 57/168/79
f 57/168/79 109/167/151 110/169/152
f 57/168/79 110/169/152 58/170/77
f 58/170/77 110/169/152 108/171/153
f 108/171/153 110/169/152 107/172/154
f 107/172/154 110/169/152 112/173/155
f 107/172/154 112/173/155 53/174/70
f 53/174/70 112/173/155 111/175/156
f 53/174/70 111/175/156 54/176/72
f 54/176/72 111/175/156 75/177/157
f 75/177/157 111/175/156 76/166/95
f 76/166/95 111/175/156 109/167/151
f 112/173/155 110/169/152 109/167/151
f 112/173/155 109/167/151 111/175/156
f 74/178/102 115/179/158 63/180/84
f 63/180/84 115/179/158 116/181/159
f 63/180/84 116/181/159 117/182/160
f 117/182/160 116/181/159 122/183/161
f 117/182/160 122/183/161 123/184/162
f 123/184/162 122/183/161 60/185/80
f 123/184/162 60/185/80 124/186/163
f 124/186/163 60/185/80 113/187/164
f 124/186/163 113/187/164 119/188/165
f 119/188/165 113/187/164 114/189/166
f 119/188/165 114/189/166 64/190/167
f 115/179/158 74/178/102 120/191/168
f 120/191/168 74/178/102 73/192/94
f 120/191/168 73/192/94 57/193/79
f 60/185/80 122/183/161 57/193/79
f 57/193/79 122/183/161 121/194/169
f 57/193/79 121/194/169 120/191/168
f 120/191/168 121/194/169 115/179/158
f 63/180/84 117/182/160 64/190/167
f 64/190/167 117/182/160 118/195/170
f 64/190/167 118/195/170 119/188/165
f 119/188/165 118/195/170 124/186/163
f 122/183/161 116/181/159 121/194/169
f 121/194/169 116/181/159 115/179/158
f 124/186/163 118/195/170 123/184/162
f 123/184/162 118/195/170 117/182/160
f 55/196/75 51/197/171 127/198/172
f 127/198/172 51/197/171 84/199/173
f 127/198/172 84/199/173 83/200/174
f 83/200/174 82/201/175 127/198/172
f 127/198/172 82/201/175 128/202/176
f 127/198/172 128/202/176 125/203/177
f 125/203/177 128/202/176 64/204/83
f 64/204/83 128/202/176 81/205/178
f 64/204/83 81/205/178 61/206/179
f 82/201/175 81/205/178 128/202/176
f 125/203/177 126/207/180 127/198/172
f 127/198/172 126/207/180 55/196/75
f 129/208/181 135/209/182 49/210/62
f 49/210/62 135/209/182 134/211/183
f 49/210/62 134/211/183 50/212/184
f 135/209/182 129/208/181 136/213/185
f 136/213/185 129/208/181 130/214/186
f 136/213/185 130/214/186 41/215/55
f 41/215/55 37/216/187 136/213/185
f 136/213/185 37/216/187 131/217/188
f 136/213/185 131/217/188 132/218/189
f 132/218/189 133/219/190 136/213/185
f 136/213/185 133/219/190 135/209/182
f 133/219/190 134/211/183 135/209/182
f 98/220/191 141/221/192 32/222/39
f 32/222/39 141/221/192 142/223/193
f 32/222/39 142/223/193 143/224/194
f 143/224/194 142/223/193 149/225/195
f 143/224/194 149/225/195 150/226/196
f 150/226/196 149/225/195 10/227/197
f 150/226/196 10/227/197 151/228/198
f 151/228/198 10/227/197 152/229/199
f 151/228/198 152/229/199 145/230/200
f 145/230/200 152/229/199 146/231/201
f 145/230/200 146/231/201 140/232/202
f 140/232/202 146/231/201 139/233/203
f 139/233/203 146/231/201 152/229/199
f 139/233/203 152/229/199 138/234/204
f 138/234/204 152/229/199 137/235/205
f 137/235/205 152/229/199 10/227/197
f 98/220/191 97/236/206 141/221/192
f 141/221/192 97/236/206 147/237/207
f 141/221/192 147/237/207 148/238/208
f 148/238/208 147/237/207 95/239/209
f 148/238/208 95/239/209 149/225/195
f 149/225/195 95/239/209 10/227/197
f 97/236/206 96/240/210 147/237/207
f 147/237/207 96/240/210 95/239/209
f 95/239/209 2/241/211 10/227/197
f 33/242/212 32/222/39 140/232/202
f 140/232/202 32/222/39 145/230/200
f 149/225/195 142/223/193 148/238/208
f 148/238/208 142/223/193 141/221/192
f 145/230/200 32/222/39 144/243/213
f 144/243/213 32/222/39 143/224/194
f 144/243/213 143/224/194 150/226/196
f 151/228/198 145/230/200 144/243/213
f 151/228/198 144/243/213 150/226/196
f 58/244/77 108/245/153 156/246/214
f 156/246/214 108/245/153 107/247/154
f 156/246/214 107/247/154 155/248/215
f 155/248/215 107/247/154 53/249/70
f 155/248/215 53/249/70 104/250/216
f 155/248/215 104/250/216 157/251/217
f 157/251/217 104/250/216 103/252/147
f 157/251/217 103/252/147 153/253/218
f 153/253/218 103/252/147 30/254/41
f 153/253/218 154/255/219 157/251/217
f 157/251/217 154/255/219 158/256/220
f 157/251/217 158/256/220 155/248/215
f 155/248/215 158/256/220 156/246/214
f 154/255/219 58/257/77 158/256/220
f 158/256/220 58/258/77 156/246/214
f 160/259/221 55/260/75 161/261/222
f 161/261/222 55/260/75 126/262/180
f 161/261/222 126/262/180 163/263/223
f 163/263/223 126/262/180 125/264/177
f 163/263/223 125/264/177 114/265/224
f 114/265/224 125/264/177 64/266/83
f 114/265/224 113/267/225 163/263/223
f 163/263/223 113/267/225 164/268/226
f 163/263/223 164/268/226 161/261/222
f 161/261/222 164/268/226 162/269/227
f 161/261/222 162/269/227 160/259/221
f 160/259/221 162/269/227 159/270/228
f 159/270/228 162/269/227 60/271/80
f 113/267/225 60/272/80 164/268/226
f 164/268/226 60/273/80 162/269/227
f 20/274/229 166/275/230 21/276/231
f 21/276/231 166/275/230 167/277/232
f 21/276/231 167/277/232 169/278/233
f 169/278/233 167/277/232 174/279/234
f 169/278/233 174/279/234 175/280/235
f 175/280/235 174/279/234 168/281/236
f 175/280/235 168/281/236 50/282/64
f 50/282/64 168/281/236 47/283/63
f 166/275/230 20/274/229 165/284/237
f 165/284/237 20/274/229 19/285/238
f 165/284/237 19/285/238 8/286/8
f 8/286/8 19/285/238 5/287/7
f 167/277/232 168/281/236 174/279/234
f 134/288/239 178/289/240 50/282/64
f 50/282/64 178/289/240 177/290/241
f 50/282/64 177/290/241 176/291/242
f 176/291/242 177/290/241 171/292/243
f 176/291/242 171/292/243 170/293/244
f 170/293/244 171/292/243 21/276/231
f 170/293/244 21/276/231 169/278/233
f 134/288/239 133/294/245 178/289/240
f 178/289/240 133/294/245 173/295/246
f 178/289/240 173/295/246 172/296/247
f 172/296/247 173/295/246 14/297/248
f 172/296/247 14/297/248 171/292/243
f 171/292/243 14/297/248 21/276/231
f 173/295/246 133/294/245 14/297/248
f 14/297/248 133/294/245 132/298/249
f 14/297/248 132/298/249 15/299/250
f 15/299/250 132/298/249 131/300/251
f 15/299/250 131/300/251 16/301/252
f 16/301/252 131/300/251 37/302/47
f 16/301/252 37/302/47 9/303/48
f 176/291/242 170/293/244 175/280/235
f 175/280/235 170/293/244 169/278/233
f 178/289/240 172/296/247 177/290/241
f 177/290/241 172/296/247 171/292/243
f 50/282/64 176/291/242 175/280/235
f 46/304/60 179/305/253 184/306/254
f 184/306/254 179/305/253 180/307/255
f 184/306/254 180/307/255 183/308/256
f 183/308/256 180/307/255 41/309/55
f 183/308/256 41/309/55 130/310/257
f 183/308/256 130/310/257 185/311/258
f 185/311/258 130/310/257 129/312/181
f 185/311/258 129/312/181 181/313/259
f 181/313/259 129/312/181 49/314/62
f 181/313/259 182/315/260 185/311/258
f 185/311/258 182/315/260 186/316/261
f 185/311/258 186/316/261 183/308/256
f 183/308/256 186/316/261 184/306/254
f 182/315/260 46/317/60 186/316/261
f 186/316/261 46/318/60 184/306/254
f 33/319/36 140/320/262 34/321/38
f 34/321/38 140/320/262 190/322/263
f 190/322/263 140/320/262 139/323/264
f 190/322/263 139/323/264 189/324/265
f 189/324/265 139/323/264 138/325/266
f 189/324/265 138/325/266 188/326/267
f 188/326/267 138/325/266 137/327/268
f 188/326/267 137/327/268 187/328/269
f 187/328/269 137/327/268 10/329/46
f 187/328/269 10/329/46 38/330/45
f 154/331/270 193/332/271 58/333/77
f 58/333/77 193/332/271 194/334/272
f 58/333/77 194/334/272 195/335/273
f 195/335/273 194/334/272 200/336/274
f 195/335/273 200/336/274 201/337/275
f 201/337/275 200/336/274 29/338/42
f 201/337/275 29/338/42 202/339/276
f 202/339/276 29/338/42 191/340/277
f 202/339/276 191/340/277 197/341/278
f 197/341/278 191/340/277 192/342/279
f 197/341/278 192/342/279 59/343/78
f 193/332/271 154/331/270 198/344/280
f 198/344/280 154/331/270 153/345/218
f 198/344/280 153/345/218 30/346/41
f 29/338/42 200/336/274 30/346/41
f 30/346/41 200/336/274 199/347/281
f 30/346/41 199/347/281 198/344/280
f 198/344/280 199/347/281 193/332/271
f 58/333/77 195/335/273 59/343/78
f 59/343/78 195/335/273 196/348/282
f 59/343/78 196/348/282 197/341/278
f 197/341/278 196/348/282 202/339/276
f 200/336/274 194/334/272 199/347/281
f 199/347/281 194/334/272 193/332/271
f 202/339/276 196/348/282 201/337/275
f 201/337/275 196/348/282 195/335/273
f 160/349/221 205/350/283 55/351/75
f 55/351/75 205/350/283 206/352/284
f 55/351/75 206/352/284 56/353/285
f 56/353/285 206/352/284 204/354/286
f 204/354/286 206/352/284 203/355/287
f 203/355/287 206/352/284 208/356/288
f 203/355/287 208/356/288 59/357/78
f 59/357/78 208/356/288 207/358/289
f 59/357/78 207/358/289 60/359/80
f 60/359/80 207/358/289 159/360/290
f 159/360/290 207/358/289 160/349/221
f 160/349/221 207/358/289 205/350/283
f 208/356/288 206/352/284 205/350/283
f 208/356/288 205/350/283 207/358/289
f 48/361/61 47/362/63 211/363/291
f 211/363/291 47/362/63 168/364/292
f 211/363/291 168/364/292 167/365/293
f 211/363/291 167/365/293 212/366/294
f 212/366/294 167/365/293 166/367/295
f 212/366/294 166/367/295 165/368/296
f 8/369/297 40/370/52 165/368/296
f 165/368/296 40/370/52 212/366/294
f 40/370/52 209/371/298 212/366/294
f 212/366/294 209/371/298 211/363/291
f 209/371/298 210/372/299 211/363/291
f 211/363/291 210/372/299 48/361/61
f 182/373/260 215/374/300 46/375/301
f 46/375/301 215/374/300 216/376/302
f 46/375/301 216/376/302 217/377/303
f 217/377/303 216/376/302 222/378/304
f 217/377/303 222/378/304 223/379/305
f 223/379/305 222/378/304 48/380/61
f 223/379/305 48/380/61 224/381/306
f 224/381/306 48/380/61 213/382/307
f 224/381/306 213/382/307 219/383/308
f 219/383/308 213/382/307 214/384/309
f 219/383/308 214/384/309 43/385/59
f 215/374/300 182/373/260 220/386/310
f 220/386/310 182/373/260 181/387/259
f 220/386/310 181/387/259 49/388/62
f 48/380/61 222/378/304 49/388/62
f 49/388/62 222/378/304 221/389/311
f 49/388/62 221/389/311 220/386/310
f 220/386/310 221/389/311 215/374/300
f 46/375/301 217/377/303 43/385/59
f 43/385/59 217/377/303 218/390/312
f 43/385/59 218/390/312 219/383/308
f 219/383/308 218/390/312 224/381/306
f 222/378/304 216/376/302 221/389/311
f 221/389/311 216/376/302 215/374/300
f 224/381/306 218/390/312 223/379/305
f 223/379/305 218/390/312 217/377/303
f 180/391/255 227/392/313 41/393/55
f 41/393/55 227/392/313 228/394/314
f 41/393/55 228/394/314 42/395/53
f 42/395/53 228/394/314 226/396/315
f 226/396/315 228/394/314 225/397/316
f 225/397/316 228/394/314 230/398/317
f 225/397/316 230/398/317 45/399/318
f 45/399/318 230/398/317 229/400/319
f 45/399/318 229/400/319 46/401/320
f 46/401/320 229/400/319 179/402/321
f 179/402/321 229/400/319 180/391/255
f 180/391/255 229/400/319 227/392/313
f 230/398/317 228/394/314 227/392/313
f 230/398/317 227/392/313 229/400/319
f 35/403/37 34/404/322 233/405/323
f 233/405/323 34/404/322 190/406/324
f 233/405/323 190/406/324 189/407/325
f 233/405/323 189/407/325 234/408/326
f 234/408/326 189/407/325 188/409/327
f 234/408/326 188/409/327 187/410/328
f 38/411/329 42/412/53 187/410/328
f 187/410/328 42/412/53 234/408/326
f 42/412/53 231/413/330 234/408/326
f 234/408/326 231/413/330 233/405/323
f 231/413/330 232/414/331 233/405/323
f 233/405/323 232/414/331 35/403/37
f 56/415/73 204/416/332 238/417/333
f 238/417/333 204/416/332 203/418/334
f 238/417/333 203/418/334 237/419/335
f 237/419/335 203/418/334 59/420/78
f 237/419/335 59/420/78 192/421/336
f 237/419/335 192/421/336 239/422/337
f 239/422/337 192/421/336 191/423/277
f 239/422/337 191/423/277 235/424/338
f 235/424/338 191/423/277 29/425/42
f 235/424/338 236/426/339 239/422/337
f 239/422/337 236/426/339 240/427/340
f 239/422/337 240/427/340 237/419/335
f 237/419/335 240/427/340 238/417/333
f 236/426/339 56/428/73 240/427/340
f 240/427/340 56/429/73 238/417/333
f 43/430/59 214/431/309 244/432/341
f 244/432/341 214/431/309 213/433/307
f 244/432/341 213/433/307 243/434/342
f 243/434/342 213/433/307 48/435/61
f 243/434/342 48/435/61 210/436/299
f 243/434/342 210/436/299 245/437/343
f 245/437/343 210/436/299 209/438/344
f 245/437/343 209/438/344 241/439/345
f 241/439/345 209/438/344 40/440/52
f 241/439/345 242/441/346 245/437/343
f 245/437/343 242/441/346 246/442/347
f 245/437/343 246/442/347 243/434/342
f 243/434/342 246/442/347 244/432/341
f 242/441/346 43/443/59 246/442/347
f 246/442/347 43/444/59 244/432/341
f 248/445/348 35/446/37 249/447/349
f 249/447/349 35/446/37 232/448/331
f 249/447/349 232/448/331 251/449/350
f 251/449/350 232/448/331 231/450/330
f 251/449/350 231/450/330 226/451/351
f 226/451/351 231/450/330 42/452/53
f 226/451/351 225/453/352 251/449/350
f 251/449/350 225/453/352 252/454/353
f 251/449/350 252/454/353 249/447/349
f 249/447/349 252/454/353 250/455/354
f 249/447/349 250/455/354 248/445/348
f 248/445/348 250/455/354 247/456/355
f 247/456/355 250/455/354 45/457/58
f 225/453/352 45/458/58 252/454/353
f 252/454/353 45/459/58 250/455/354
f 236/460/356 257/461/357 56/462/73
f 56/462/73 257/461/357 256/463/358
f 56/462/73 256/463/358 52/464/359
f 257/461/357 236/460/356 258/465/360
f 258/465/360 236/460/356 235/466/338
f 258/465/360 235/466/338 29/467/42
f 29/467/42 28/468/43 258/465/360
f 258/465/360 28/468/43 253/469/361
f 258/465/360 253/469/361 254/470/362
f 258/465/360 254/470/362 257/461/357
f 257/461/357 254/470/362 255/471/363
f 257/461/357 255/471/363 256/463/358
f 242/472/346 261/473/364 43/474/59
f 43/474/59 261/473/364 262/475/365
f 43/474/59 262/475/365 44/476/57
f 44/476/57 262/475/365 260/477/366
f 260/477/366 262/475/365 259/478/367
f 259/478/367 262/475/365 264/479/368
f 259/478/367 264/479/368 39/480/369
f 39/480/369 264/479/368 263/481/370
f 39/480/369 263/481/370 40/482/52
f 40/482/52 263/481/370 241/483/345
f 241/483/345 263/481/370 242/472/346
f 242/472/346 263/481/370 261/473/364
f 264/479/368 262/475/365 261/473/364
f 264/479/368 261/473/364 263/481/370
f 248/484/371 267/485/372 35/486/37
f 35/486/37 267/485/372 268/487/373
f 35/486/37 268/487/373 269/488/374
f 269/488/374 268/487/373 274/489/375
f 269/488/374 274/489/375 275/490/376
f 275/490/376 274/489/375 44/491/57
f 275/490/376 44/491/57 276/492/377
f 276/492/377 44/491/57 265/493/378
f 276/492/377 265/493/378 271/494/379
f 271/494/379 265/493/378 266/495/380
f 271/494/379 266/495/380 36/496/35
f 267/485/372 248/484/371 272/497/381
f 272/497/381 248/484/371 247/498/382
f 272/497/381 247/498/382 45/499/383
f 44/491/57 274/489/375 45/499/383
f 45/499/383 274/489/375 273/500/384
f 45/499/383 273/500/384 272/497/381
f 272/497/381 273/500/384 267/485/372
f 35/486/37 269/488/374 36/496/35
f 36/496/35 269/488/374 270/501/385
f 36/496/35 270/501/385 271/494/379
f 271/494/379 270/501/385 276/492/377
f 274/489/375 268/487/373 273/500/384
f 273/500/384 268/487/373 267/485/372
f 276/492/377 270/501/385 275/490/376
f 275/490/376 270/501/385 269/488/374
f 52/502/65 256/503/386 18/504/66
f 18/504/66 256/503/386 280/505/387
f 280/505/387 256/503/386 255/506/388
f 280/505/387 255/506/388 279/507/389
f 279/507/389 255/506/388 254/508/390
f 279/507/389 254/508/390 278/509/391
f 278/509/391 254/508/390 253/510/392
f 278/509/391 253/510/392 277/511/393
f 277/511/393 253/510/392 28/512/43
f 277/511/393 28/512/43 27/513/40
f 282/514/394 36/515/395 283/516/396
f 283/516/396 36/515/395 266/517/397
f 283/516/396 266/517/397 285/518/398
f 285/518/398 266/517/397 265/519/399
f 285/518/398 265/519/399 260/520/366
f 260/520/366 265/519/399 44/521/57
f 260/520/366 259/522/367 285/518/398
f 285/518/398 259/522/367 286/523/400
f 285/518/398 286/523/400 283/516/396
f 283/516/396 286/523/400 284/524/401
f 283/516/396 284/524/401 282/514/394
f 282/514/394 284/524/401 281/525/402
f 281/525/402 284/524/401 39/526/50
f 259/522/367 39/527/50 286/523/400
f 286/523/400 39/528/50 284/524/401
f 280/529/403 291/530/404 18/531/405
f 18/531/405 291/530/404 292/532/406
f 18/531/405 292/532/406 293/533/407
f 293/533/407 292/532/406 299/534/408
f 293/533/407 299/534/408 300/535/409
f 300/535/409 299/534/408 26/536/34
f 300/535/409 26/536/34 301/537/410
f 301/537/410 26/536/34 302/538/411
f 301/537/410 302/538/411 295/539/412
f 295/539/412 302/538/411 296/540/413
f 295/539/412 296/540/413 290/541/414
f 290/541/414 296/540/413 289/542/415
f 289/542/415 296/540/413 288/543/416
f 288/543/416 296/540/413 302/538/411
f 288/543/416 302/538/411 287/544/417
f 287/544/417 302/538/411 26/536/34
f 280/529/403 279/545/418 291/530/404
f 291/530/404 279/545/418 278/546/419
f 291/530/404 278/546/419 297/547/420
f 297/547/420 278/546/419 277/548/421
f 297/547/420 277/548/421 298/549/422
f 298/549/422 277/548/421 26/536/34
f 298/549/422 26/536/34 299/534/408
f 277/548/421 27/550/40 26/536/34
f 6/551/423 18/531/405 290/541/414
f 290/541/414 18/531/405 294/552/424
f 290/541/414 294/552/424 295/539/412
f 295/539/412 294/552/424 301/537/410
f 294/552/424 18/531/405 293/533/407
f 297/547/420 298/549/422 291/530/404
f 291/530/404 298/549/422 292/532/406
f 298/549/422 299/534/408 292/532/406
f 301/537/410 294/552/424 300/535/409
f 300/535/409 294/552/424 293/533/407
f 282/553/425 307/554/426 36/555/35
f 36/555/35 307/554/426 306/556/427
f 36/555/35 306/556/427 25/557/33
f 307/554/426 282/553/425 308/558/428
f 308/558/428 282/553/425 281/559/402
f 308/558/428 281/559/402 39/560/50
f 39/560/50 7/561/429 308/558/428
f 308/558/428 7/561/429 303/562/430
f 308/558/428 303/562/430 304/563/431
f 304/563/431 305/564/432 308/558/428
f 308/558/428 305/564/432 307/554/426
f 305/564/432 306/556/427 307/554/426
f 7/565/6 6/566/5 303/567/433
f 303/567/433 6/566/5 290/568/434
f 303/567/433 290/568/434 304/569/435
f 304/569/435 290/568/434 289/570/436
f 304/569/435 289/570/436 305/571/437
f 305/571/437 289/570/436 288/572/438
f 305/571/437 288/572/438 306/573/439
f 306/573/439 288/572/438 287/574/440
f 306/573/439 287/574/440 25/575/33
f 25/575/33 287/574/440 26/576/34
# 308 vertices
# 576 texture params
# 440 normals
# 612 facets

# 1 groups
