# WaveFront *.obj file (generated by Autodesk ATF)

mtllib body126_visual.mtl

g Body126

v -27.299363 2.270897 -3.662594
v -27.299363 2.275150 -3.661573
v -27.299363 2.277300 -3.661168
v -27.299363 2.279465 -3.660857
v -27.299363 2.281643 -3.660645
v -27.299363 2.283829 -3.660569
v -27.299363 2.286013 -3.660684
v -27.299363 2.288176 -3.661003
v -27.299363 2.290298 -3.661535
v -27.299363 2.292346 -3.662301
v -27.299363 2.293332 -3.662775
v -27.299363 2.294277 -3.663326
v -27.299363 2.295178 -3.663946
v -27.299363 2.296031 -3.664630
v -27.299363 2.297578 -3.666176
v -27.299363 2.298262 -3.667029
v -27.299363 2.298870 -3.667938
v -27.299363 2.299412 -3.668888
v -27.299363 2.299882 -3.669876
v -27.299363 2.300274 -3.670897
v -27.299363 2.300590 -3.671944
v -27.299363 2.300843 -3.673017
v -27.299363 2.301010 -3.674106
v -27.299363 2.301101 -3.675204
v -27.299363 2.301111 -3.676306
v -27.299363 2.300877 -3.678496
v -27.299363 2.300638 -3.679571
v -27.299363 2.300322 -3.680627
v -27.299363 2.299936 -3.681659
v -27.299363 2.299473 -3.682659
v -27.299363 2.298348 -3.684552
v -27.299363 2.296979 -3.686278
v -27.299363 2.295424 -3.687839
v -27.299363 2.293732 -3.689250
v -27.299363 2.291919 -3.690501
v -27.299363 2.290000 -3.691585
v -27.299363 2.288018 -3.692547
v -27.299363 2.285980 -3.693386
v -27.299363 2.283909 -3.694139
v -27.299363 2.279690 -3.695411
v -27.299363 2.275396 -3.696421
v -27.299363 2.273224 -3.696806
v -27.299363 2.271036 -3.697092
v -27.299363 2.268836 -3.697258
v -27.299363 2.266631 -3.697266
v -27.299363 2.264432 -3.697093
v -27.299363 2.262258 -3.696721
v -27.299363 2.260129 -3.696146
v -27.299363 2.258077 -3.695339
v -27.299363 2.256145 -3.694276
v -27.299363 2.254387 -3.692945
v -27.299363 2.253584 -3.692190
v -27.299363 2.252839 -3.691376
v -27.299363 2.252157 -3.690509
v -27.299363 2.251545 -3.689592
v -27.299363 2.250999 -3.688633
v -27.299363 2.250528 -3.687636
v -27.299363 2.249817 -3.685549
v -27.299363 2.249567 -3.684482
v -27.299363 2.249396 -3.683401
v -27.299363 2.249309 -3.682309
v -27.299363 2.249310 -3.681214
v -27.299363 2.249388 -3.680121
v -27.299363 2.249553 -3.679038
v -27.299363 2.250123 -3.676924
v -27.299363 2.250987 -3.674913
v -27.299363 2.251528 -3.673961
v -27.299363 2.252141 -3.673053
v -27.299363 2.253530 -3.671361
v -27.299363 2.255098 -3.669833
v -27.299363 2.256819 -3.668478
v -27.299363 2.258662 -3.667295
v -27.299363 2.260593 -3.666260
v -27.299363 2.262591 -3.665363
v -27.299363 2.264629 -3.664561
v -27.299363 2.266696 -3.663836
v -27.299363 2.295676 -3.673416
v -27.299363 2.295088 -3.671804
v -27.299363 2.294230 -3.670317
v -27.299363 2.293145 -3.668988
v -27.299363 2.291874 -3.667834
v -27.299363 2.290452 -3.666875
v -27.299363 2.288902 -3.666140
v -27.299363 2.287268 -3.665618
v -27.299363 2.285583 -3.665292
v -27.299363 2.283875 -3.665128
v -27.299363 2.282159 -3.665133
v -27.299363 2.280448 -3.665265
v -27.299363 2.278745 -3.665481
v -27.299363 2.275373 -3.666118
v -27.299363 2.272039 -3.666933
v -27.299363 2.268743 -3.667894
v -27.299363 2.265506 -3.669036
v -27.299363 2.263918 -3.669690
v -27.299363 2.262375 -3.670440
v -27.299363 2.260885 -3.671292
v -27.299363 2.259486 -3.672287
v -27.299363 2.258192 -3.673414
v -27.299363 2.257037 -3.674683
v -27.299363 2.256054 -3.676089
v -27.299363 2.255302 -3.677631
v -27.299363 2.254783 -3.679267
v -27.299363 2.254496 -3.680960
v -27.299363 2.254463 -3.681818
v -27.299363 2.254511 -3.682676
v -27.299363 2.254810 -3.684366
v -27.299363 2.255399 -3.685978
v -27.299363 2.255790 -3.686742
v -27.299363 2.256253 -3.687466
v -27.299363 2.257356 -3.688781
v -27.299363 2.258627 -3.689933
v -27.299363 2.260059 -3.690874
v -27.299363 2.261617 -3.691590
v -27.299363 2.263258 -3.692091
v -27.299363 2.264942 -3.692421
v -27.299363 2.266647 -3.692602
v -27.299363 2.268363 -3.692657
v -27.299363 2.270077 -3.692589
v -27.299363 2.271785 -3.692428
v -27.299363 2.275172 -3.691878
v -27.299363 2.278509 -3.691082
v -27.299363 2.281567 -3.690163
v -27.299363 2.284557 -3.689040
v -27.299363 2.287439 -3.687668
v -27.299363 2.288823 -3.686870
v -27.299363 2.290161 -3.686000
v -27.299363 2.291626 -3.684892
v -27.299363 2.292956 -3.683626
v -27.299363 2.294099 -3.682189
v -27.299363 2.294587 -3.681412
v -27.299363 2.295002 -3.680593
v -27.299363 2.295630 -3.678867
v -27.299363 2.295965 -3.677062
v -27.299363 2.296022 -3.676143
v -27.299363 2.295995 -3.675224
v -27.298363 2.300590 -3.671944
v -27.298363 2.300274 -3.670897
v -27.298363 2.299882 -3.669876
v -27.298363 2.299412 -3.668888
v -27.298363 2.298870 -3.667938
v -27.298363 2.298262 -3.667029
v -27.298363 2.297578 -3.666176
v -27.298363 2.296031 -3.664630
v -27.298363 2.295178 -3.663946
v -27.298363 2.294277 -3.663326
v -27.298363 2.293332 -3.662775
v -27.298363 2.292346 -3.662301
v -27.298363 2.290298 -3.661535
v -27.298363 2.288176 -3.661003
v -27.298363 2.286013 -3.660684
v -27.298363 2.283829 -3.660569
v -27.298363 2.281643 -3.660645
v -27.298363 2.279465 -3.660857
v -27.298363 2.277300 -3.661168
v -27.298363 2.275150 -3.661573
v -27.298363 2.270897 -3.662594
v -27.298363 2.266696 -3.663836
v -27.298363 2.264629 -3.664561
v -27.298363 2.262591 -3.665363
v -27.298363 2.260593 -3.666260
v -27.298363 2.258662 -3.667295
v -27.298363 2.256819 -3.668478
v -27.298363 2.255098 -3.669833
v -27.298363 2.253530 -3.671361
v -27.298363 2.252141 -3.673053
v -27.298363 2.251528 -3.673961
v -27.298363 2.250987 -3.674913
v -27.298363 2.250123 -3.676924
v -27.298363 2.249553 -3.679038
v -27.298363 2.249388 -3.680121
v -27.298363 2.249310 -3.681214
v -27.298363 2.249309 -3.682309
v -27.298363 2.249396 -3.683401
v -27.298363 2.249567 -3.684482
v -27.298363 2.249817 -3.685549
v -27.298363 2.250528 -3.687636
v -27.298363 2.250999 -3.688633
v -27.298363 2.251545 -3.689592
v -27.298363 2.252157 -3.690509
v -27.298363 2.252839 -3.691376
v -27.298363 2.253584 -3.692190
v -27.298363 2.254387 -3.692945
v -27.298363 2.256145 -3.694276
v -27.298363 2.258077 -3.695339
v -27.298363 2.260129 -3.696146
v -27.298363 2.262258 -3.696721
v -27.298363 2.264432 -3.697093
v -27.298363 2.266631 -3.697266
v -27.298363 2.268836 -3.697258
v -27.298363 2.271036 -3.697092
v -27.298363 2.273224 -3.696806
v -27.298363 2.275396 -3.696421
v -27.298363 2.279690 -3.695411
v -27.298363 2.283909 -3.694139
v -27.298363 2.285980 -3.693386
v -27.298363 2.288018 -3.692547
v -27.298363 2.290000 -3.691585
v -27.298363 2.291919 -3.690501
v -27.298363 2.293732 -3.689250
v -27.298363 2.295424 -3.687839
v -27.298363 2.296979 -3.686278
v -27.298363 2.298348 -3.684552
v -27.298363 2.299473 -3.682659
v -27.298363 2.299936 -3.681659
v -27.298363 2.300322 -3.680627
v -27.298363 2.300638 -3.679571
v -27.298363 2.300877 -3.678496
v -27.298363 2.301111 -3.676306
v -27.298363 2.301101 -3.675204
v -27.298363 2.301010 -3.674106
v -27.298363 2.300843 -3.673017
v -27.298363 2.254810 -3.684366
v -27.298363 2.254511 -3.682676
v -27.298363 2.254463 -3.681818
v -27.298363 2.254496 -3.680960
v -27.298363 2.254783 -3.679267
v -27.298363 2.255302 -3.677631
v -27.298363 2.256054 -3.676089
v -27.298363 2.257037 -3.674683
v -27.298363 2.258192 -3.673414
v -27.298363 2.259486 -3.672287
v -27.298363 2.260885 -3.671292
v -27.298363 2.262375 -3.670440
v -27.298363 2.263918 -3.669690
v -27.298363 2.265506 -3.669036
v -27.298363 2.268743 -3.667894
v -27.298363 2.272039 -3.666933
v -27.298363 2.275373 -3.666118
v -27.298363 2.278745 -3.665481
v -27.298363 2.280448 -3.665265
v -27.298363 2.282159 -3.665133
v -27.298363 2.283875 -3.665128
v -27.298363 2.285583 -3.665292
v -27.298363 2.287268 -3.665618
v -27.298363 2.288902 -3.666140
v -27.298363 2.290452 -3.666875
v -27.298363 2.291874 -3.667834
v -27.298363 2.293145 -3.668988
v -27.298363 2.294230 -3.670317
v -27.298363 2.295088 -3.671804
v -27.298363 2.295676 -3.673416
v -27.298363 2.295995 -3.675224
v -27.298363 2.296022 -3.676143
v -27.298363 2.295965 -3.677062
v -27.298363 2.295630 -3.678867
v -27.298363 2.295002 -3.680593
v -27.298363 2.294587 -3.681412
v -27.298363 2.294099 -3.682189
v -27.298363 2.292956 -3.683626
v -27.298363 2.291626 -3.684892
v -27.298363 2.290161 -3.686000
v -27.298363 2.288823 -3.686870
v -27.298363 2.287439 -3.687668
v -27.298363 2.284557 -3.689040
v -27.298363 2.281567 -3.690163
v -27.298363 2.278509 -3.691082
v -27.298363 2.275172 -3.691878
v -27.298363 2.271785 -3.692428
v -27.298363 2.270077 -3.692589
v -27.298363 2.268363 -3.692657
v -27.298363 2.266647 -3.692602
v -27.298363 2.264942 -3.692421
v -27.298363 2.263258 -3.692091
v -27.298363 2.261617 -3.691590
v -27.298363 2.260059 -3.690874
v -27.298363 2.258627 -3.689933
v -27.298363 2.257356 -3.688781
v -27.298363 2.256253 -3.687466
v -27.298363 2.255790 -3.686742
v -27.298363 2.255399 -3.685978
vt -0.012730 -0.002822 0.000000
vt -0.013691 0.001627 0.000000
vt -0.017103 -0.002936 0.000000
vt -0.017123 0.001551 0.000000
vt -0.020555 0.001626 0.000000
vt -0.010548 -0.002656 0.000000
vt -0.010268 0.001884 0.000000
vt -0.008376 -0.002396 0.000000
vt -0.008568 0.002116 0.000000
vt -0.006218 -0.002037 0.000000
vt -0.006881 0.002431 0.000000
vt -0.004087 -0.001545 0.000000
vt -0.005222 0.002871 0.000000
vt -0.002007 -0.000868 0.000000
vt 0.000000 0.000000 0.000000
vt -0.003615 0.003471 0.000000
vt 0.001911 0.001063 0.000000
vt -0.002072 0.004222 0.000000
vt 0.003692 0.002332 0.000000
vt -0.000629 0.005150 0.000000
vt 0.004521 0.003046 0.000000
vt 0.005292 0.003822 0.000000
vt 0.000679 0.006260 0.000000
vt 0.006002 0.004654 0.000000
vt 0.006648 0.005536 0.000000
vt 0.001803 0.007555 0.000000
vt 0.007743 0.007429 0.000000
vt 0.002732 0.008999 0.000000
vt 0.008182 0.008430 0.000000
vt 0.003437 0.010563 0.000000
vt 0.008534 0.009466 0.000000
vt 0.008812 0.010524 0.000000
vt 0.003880 0.012222 0.000000
vt 0.009011 0.011600 0.000000
vt 0.009125 0.012687 0.000000
vt 0.004031 0.013931 0.000000
vt 0.009159 0.013781 0.000000
vt 0.009125 0.014882 0.000000
vt 0.003871 0.015760 0.000000
vt 0.009005 0.015977 0.000000
vt 0.008809 0.017062 0.000000
vt 0.003660 0.016654 0.000000
vt 0.008533 0.018128 0.000000
vt 0.003367 0.017527 0.000000
vt 0.007741 0.020184 0.000000
vt 0.002576 0.019184 0.000000
vt 0.007232 0.021160 0.000000
vt 0.001523 0.020688 0.000000
vt 0.006652 0.022098 0.000000
vt 0.006013 0.022995 0.000000
vt 0.000910 0.021372 0.000000
vt 0.005307 0.023841 0.000000
vt 0.000237 0.021997 0.000000
vt 0.003730 0.025379 0.000000
vt -0.001239 0.023089 0.000000
vt 0.001961 0.026692 0.000000
vt -0.002851 0.023967 0.000000
vt 0.000055 0.027797 0.000000
vt -0.004553 0.024658 0.000000
vt -0.001944 0.028722 0.000000
vt -0.006071 0.025153 0.000000
vt -0.004020 0.029461 0.000000
vt -0.007613 0.025565 0.000000
vt -0.006153 0.030012 0.000000
vt -0.010753 0.026145 0.000000
vt -0.008317 0.030428 0.000000
vt -0.010503 0.030711 0.000000
vt -0.013931 0.026455 0.000000
vt -0.012698 0.030902 0.000000
vt -0.017103 0.031038 0.000000
vt -0.021512 0.030903 0.000000
vt -0.020553 0.026457 0.000000
vt -0.017123 0.026551 0.000000
vt -0.023710 0.030713 0.000000
vt -0.023966 0.026112 0.000000
vt -0.025897 0.030422 0.000000
vt -0.025658 0.025825 0.000000
vt -0.028064 0.030013 0.000000
vt -0.027331 0.025446 0.000000
vt -0.030197 0.029451 0.000000
vt -0.028974 0.024950 0.000000
vt -0.032276 0.028714 0.000000
vt -0.034280 0.027792 0.000000
vt -0.030574 0.024333 0.000000
vt -0.036188 0.026686 0.000000
vt -0.032115 0.023579 0.000000
vt -0.037960 0.025375 0.000000
vt -0.033570 0.022671 0.000000
vt -0.039551 0.023848 0.000000
vt -0.034890 0.021576 0.000000
vt -0.040905 0.022108 0.000000
vt -0.036030 0.020296 0.000000
vt -0.041486 0.021171 0.000000
vt -0.036960 0.018854 0.000000
vt -0.041994 0.020191 0.000000
vt -0.042428 0.019178 0.000000
vt -0.037684 0.017298 0.000000
vt -0.042783 0.018133 0.000000
vt -0.043062 0.017066 0.000000
vt -0.037945 0.016480 0.000000
vt -0.043259 0.015981 0.000000
vt -0.038124 0.015640 0.000000
vt -0.038276 0.013931 0.000000
vt -0.043405 0.013781 0.000000
vt -0.043370 0.012686 0.000000
vt -0.038127 0.012221 0.000000
vt -0.043256 0.011597 0.000000
vt -0.037952 0.011380 0.000000
vt -0.043057 0.010520 0.000000
vt -0.037698 0.010559 0.000000
vt -0.042773 0.009462 0.000000
vt -0.042415 0.008427 0.000000
vt -0.036982 0.008999 0.000000
vt -0.041975 0.007424 0.000000
vt -0.036057 0.007552 0.000000
vt -0.040877 0.005530 0.000000
vt -0.034932 0.006258 0.000000
vt -0.039522 0.003810 0.000000
vt -0.033619 0.005154 0.000000
vt -0.038753 0.003031 0.000000
vt -0.037927 0.002312 0.000000
vt -0.032175 0.004227 0.000000
vt -0.036146 0.001038 0.000000
vt -0.030633 0.003474 0.000000
vt -0.034236 -0.000033 0.000000
vt -0.029025 0.002875 0.000000
vt -0.032223 -0.000896 0.000000
vt -0.030137 -0.001562 0.000000
vt -0.027365 0.002437 0.000000
vt -0.028005 -0.002062 0.000000
vt -0.025680 0.002112 0.000000
vt -0.025842 -0.002411 0.000000
vt -0.023977 0.001891 0.000000
vt -0.023666 -0.002658 0.000000
vt -0.021482 -0.002823 0.000000
vt -0.009125 0.014882 0.000000
vt -0.009159 0.013781 0.000000
vt -0.004031 0.013931 0.000000
vt -0.009125 0.012687 0.000000
vt -0.003880 0.012222 0.000000
vt -0.009011 0.011600 0.000000
vt -0.008812 0.010524 0.000000
vt -0.003437 0.010563 0.000000
vt -0.008534 0.009466 0.000000
vt -0.008182 0.008430 0.000000
vt -0.002732 0.008999 0.000000
vt -0.007743 0.007429 0.000000
vt -0.001803 0.007555 0.000000
vt -0.006648 0.005536 0.000000
vt -0.000679 0.006260 0.000000
vt -0.006002 0.004654 0.000000
vt -0.005292 0.003822 0.000000
vt 0.000629 0.005150 0.000000
vt -0.004521 0.003046 0.000000
vt -0.003692 0.002332 0.000000
vt 0.002072 0.004222 0.000000
vt -0.001911 0.001063 0.000000
vt 0.003615 0.003471 0.000000
vt -0.000000 0.000000 0.000000
vt 0.005222 0.002871 0.000000
vt 0.002007 -0.000868 0.000000
vt 0.004087 -0.001545 0.000000
vt 0.006881 0.002431 0.000000
vt 0.006218 -0.002037 0.000000
vt 0.008568 0.002116 0.000000
vt 0.008376 -0.002396 0.000000
vt 0.010268 0.001884 0.000000
vt 0.010548 -0.002656 0.000000
vt 0.013691 0.001627 0.000000
vt 0.012730 -0.002822 0.000000
vt 0.017103 -0.002936 0.000000
vt 0.021482 -0.002823 0.000000
vt 0.020555 0.001626 0.000000
vt 0.017123 0.001551 0.000000
vt 0.023666 -0.002658 0.000000
vt 0.023977 0.001891 0.000000
vt 0.025842 -0.002411 0.000000
vt 0.025680 0.002112 0.000000
vt 0.028005 -0.002062 0.000000
vt 0.027365 0.002437 0.000000
vt 0.030137 -0.001562 0.000000
vt 0.029025 0.002875 0.000000
vt 0.032223 -0.000896 0.000000
vt 0.034236 -0.000033 0.000000
vt 0.030633 0.003474 0.000000
vt 0.036146 0.001038 0.000000
vt 0.032175 0.004227 0.000000
vt 0.037927 0.002312 0.000000
vt 0.033619 0.005154 0.000000
vt 0.038753 0.003031 0.000000
vt 0.039522 0.003810 0.000000
vt 0.034932 0.006258 0.000000
vt 0.040877 0.005530 0.000000
vt 0.036057 0.007552 0.000000
vt 0.041975 0.007424 0.000000
vt 0.036982 0.008999 0.000000
vt 0.042415 0.008427 0.000000
vt 0.037698 0.010559 0.000000
vt 0.042773 0.009462 0.000000
vt 0.043057 0.010520 0.000000
vt 0.037952 0.011380 0.000000
vt 0.043256 0.011597 0.000000
vt 0.038127 0.012221 0.000000
vt 0.043370 0.012686 0.000000
vt 0.038276 0.013931 0.000000
vt 0.043405 0.013781 0.000000
vt 0.043259 0.015981 0.000000
vt 0.043062 0.017066 0.000000
vt 0.037945 0.016480 0.000000
vt 0.038124 0.015640 0.000000
vt 0.037684 0.017298 0.000000
vt 0.042783 0.018133 0.000000
vt 0.042428 0.019178 0.000000
vt 0.036960 0.018854 0.000000
vt 0.041994 0.020191 0.000000
vt 0.041486 0.021171 0.000000
vt 0.036030 0.020296 0.000000
vt 0.040905 0.022108 0.000000
vt 0.034890 0.021576 0.000000
vt 0.039551 0.023848 0.000000
vt 0.033570 0.022671 0.000000
vt 0.037960 0.025375 0.000000
vt 0.032115 0.023579 0.000000
vt 0.036188 0.026686 0.000000
vt 0.030574 0.024333 0.000000
vt 0.034280 0.027792 0.000000
vt 0.028974 0.024950 0.000000
vt 0.032276 0.028714 0.000000
vt 0.030197 0.029451 0.000000
vt 0.027331 0.025446 0.000000
vt 0.028064 0.030013 0.000000
vt 0.025658 0.025825 0.000000
vt 0.025897 0.030422 0.000000
vt 0.023966 0.026112 0.000000
vt 0.023710 0.030713 0.000000
vt 0.020553 0.026457 0.000000
vt 0.021512 0.030903 0.000000
vt 0.017103 0.031038 0.000000
vt 0.012698 0.030902 0.000000
vt 0.013931 0.026455 0.000000
vt 0.017123 0.026551 0.000000
vt 0.010503 0.030711 0.000000
vt 0.010753 0.026145 0.000000
vt 0.008317 0.030428 0.000000
vt 0.006153 0.030012 0.000000
vt 0.007613 0.025565 0.000000
vt 0.004020 0.029461 0.000000
vt 0.006071 0.025153 0.000000
vt 0.001944 0.028722 0.000000
vt 0.004553 0.024658 0.000000
vt -0.000055 0.027797 0.000000
vt 0.002851 0.023967 0.000000
vt -0.001961 0.026692 0.000000
vt 0.001239 0.023089 0.000000
vt -0.003730 0.025379 0.000000
vt -0.000237 0.021997 0.000000
vt -0.005307 0.023841 0.000000
vt -0.000910 0.021372 0.000000
vt -0.006013 0.022995 0.000000
vt -0.001523 0.020688 0.000000
vt -0.006652 0.022098 0.000000
vt -0.007232 0.021160 0.000000
vt -0.002576 0.019184 0.000000
vt -0.007741 0.020184 0.000000
vt -0.003367 0.017527 0.000000
vt -0.008533 0.018128 0.000000
vt -0.003660 0.016654 0.000000
vt -0.008809 0.017062 0.000000
vt -0.003871 0.015760 0.000000
vt -0.009005 0.015977 0.000000
vt 0.035005 0.001000 0.000000
vt 0.030630 0.001000 0.000000
vt 0.035005 0.000000 0.000000
vt 0.030630 0.000000 0.000000
vt 0.028442 0.001000 0.000000
vt 0.028442 0.000000 0.000000
vt 0.026254 0.001000 0.000000
vt 0.026254 0.000000 0.000000
vt 0.024066 0.001000 0.000000
vt 0.024066 0.000000 0.000000
vt 0.021878 0.001000 0.000000
vt 0.021878 0.000000 0.000000
vt 0.019691 0.001000 0.000000
vt 0.019691 0.000000 0.000000
vt 0.017503 0.001000 0.000000
vt 0.017503 0.000000 0.000000
vt 0.015315 0.001000 0.000000
vt 0.015315 0.000000 0.000000
vt 0.013127 0.001000 0.000000
vt 0.013127 0.000000 0.000000
vt 0.012033 0.001000 0.000000
vt 0.012033 0.000000 0.000000
vt 0.010939 0.001000 0.000000
vt 0.010939 0.000000 0.000000
vt 0.009845 0.001000 0.000000
vt 0.009845 0.000000 0.000000
vt 0.008751 0.001000 0.000000
vt 0.008751 0.000000 0.000000
vt 0.006564 0.001000 0.000000
vt 0.006564 0.000000 0.000000
vt 0.005470 0.001000 0.000000
vt 0.005470 0.000000 0.000000
vt 0.004376 0.001000 0.000000
vt 0.004376 0.000000 0.000000
vt 0.003282 0.001000 0.000000
vt 0.003282 0.000000 0.000000
vt 0.002188 0.001000 0.000000
vt 0.002188 0.000000 0.000000
vt 0.001094 0.001000 0.000000
vt 0.001094 0.000000 0.000000
vt 0.000000 0.001000 0.000000
vt 0.000000 0.000000 0.000000
vt 0.035264 0.001000 0.000000
vt 0.034162 0.001000 0.000000
vt 0.035264 0.000000 0.000000
vt 0.034162 0.000000 0.000000
vt 0.033060 0.001000 0.000000
vt 0.033060 0.000000 0.000000
vt 0.031958 0.001000 0.000000
vt 0.031958 0.000000 0.000000
vt 0.030856 0.001000 0.000000
vt 0.030856 0.000000 0.000000
vt 0.028652 0.001000 0.000000
vt 0.028652 0.000000 0.000000
vt 0.027550 0.001000 0.000000
vt 0.027550 0.000000 0.000000
vt 0.026448 0.001000 0.000000
vt 0.026448 0.000000 0.000000
vt 0.025346 0.001000 0.000000
vt 0.025346 0.000000 0.000000
vt 0.024244 0.001000 0.000000
vt 0.024244 0.000000 0.000000
vt 0.022040 0.001000 0.000000
vt 0.022040 0.000000 0.000000
vt 0.019836 0.001000 0.000000
vt 0.019836 0.000000 0.000000
vt 0.017632 0.001000 0.000000
vt 0.017632 0.000000 0.000000
vt 0.015428 0.001000 0.000000
vt 0.015428 0.000000 0.000000
vt 0.013224 0.001000 0.000000
vt 0.013224 0.000000 0.000000
vt 0.011020 0.001000 0.000000
vt 0.011020 0.000000 0.000000
vt 0.008816 0.001000 0.000000
vt 0.008816 0.000000 0.000000
vt 0.006612 0.001000 0.000000
vt 0.006612 0.000000 0.000000
vt 0.004408 0.001000 0.000000
vt 0.004408 0.000000 0.000000
vt 0.000000 0.001000 0.000000
vt 0.000000 0.000000 0.000000
vt 0.035299 0.001000 0.000000
vt 0.030886 0.001000 0.000000
vt 0.035299 0.000000 0.000000
vt 0.030886 0.000000 0.000000
vt 0.028680 0.001000 0.000000
vt 0.028680 0.000000 0.000000
vt 0.026474 0.001000 0.000000
vt 0.026474 0.000000 0.000000
vt 0.024268 0.001000 0.000000
vt 0.024268 0.000000 0.000000
vt 0.022062 0.001000 0.000000
vt 0.022062 0.000000 0.000000
vt 0.019856 0.001000 0.000000
vt 0.019856 0.000000 0.000000
vt 0.017649 0.001000 0.000000
vt 0.017649 0.000000 0.000000
vt 0.015443 0.001000 0.000000
vt 0.015443 0.000000 0.000000
vt 0.013237 0.001000 0.000000
vt 0.013237 0.000000 0.000000
vt 0.011031 0.001000 0.000000
vt 0.011031 0.000000 0.000000
vt 0.008825 0.001000 0.000000
vt 0.008825 0.000000 0.000000
vt 0.007722 0.001000 0.000000
vt 0.007722 0.000000 0.000000
vt 0.006619 0.001000 0.000000
vt 0.006619 0.000000 0.000000
vt 0.005515 0.001000 0.000000
vt 0.005515 0.000000 0.000000
vt 0.004412 0.001000 0.000000
vt 0.004412 0.000000 0.000000
vt 0.003309 0.001000 0.000000
vt 0.003309 0.000000 0.000000
vt 0.002206 0.001000 0.000000
vt 0.002206 0.000000 0.000000
vt 0.000000 0.001000 0.000000
vt 0.000000 0.000000 0.000000
vt 0.035056 0.001000 0.000000
vt 0.033961 0.001000 0.000000
vt 0.035056 0.000000 0.000000
vt 0.033961 0.000000 0.000000
vt 0.032865 0.001000 0.000000
vt 0.032865 0.000000 0.000000
vt 0.031770 0.001000 0.000000
vt 0.031770 0.000000 0.000000
vt 0.030674 0.001000 0.000000
vt 0.030674 0.000000 0.000000
vt 0.029579 0.001000 0.000000
vt 0.029579 0.000000 0.000000
vt 0.028483 0.001000 0.000000
vt 0.028483 0.000000 0.000000
vt 0.026292 0.001000 0.000000
vt 0.026292 0.000000 0.000000
vt 0.024101 0.001000 0.000000
vt 0.024101 0.000000 0.000000
vt 0.023006 0.001000 0.000000
vt 0.023006 0.000000 0.000000
vt 0.021910 0.001000 0.000000
vt 0.021910 0.000000 0.000000
vt 0.019719 0.001000 0.000000
vt 0.019719 0.000000 0.000000
vt 0.017528 0.001000 0.000000
vt 0.017528 0.000000 0.000000
vt 0.015337 0.001000 0.000000
vt 0.015337 0.000000 0.000000
vt 0.013146 0.001000 0.000000
vt 0.013146 0.000000 0.000000
vt 0.010955 0.001000 0.000000
vt 0.010955 0.000000 0.000000
vt 0.008764 0.001000 0.000000
vt 0.008764 0.000000 0.000000
vt 0.006573 0.001000 0.000000
vt 0.006573 0.000000 0.000000
vt 0.004382 0.001000 0.000000
vt 0.004382 0.000000 0.000000
vt 0.000000 0.001000 0.000000
vt 0.000000 0.000000 0.000000
vt 0.027472 0.001000 0.000000
vt 0.024038 0.001000 0.000000
vt 0.027472 0.000000 0.000000
vt 0.024038 0.000000 0.000000
vt 0.020604 0.001000 0.000000
vt 0.020604 0.000000 0.000000
vt 0.018887 0.001000 0.000000
vt 0.018887 0.000000 0.000000
vt 0.017170 0.001000 0.000000
vt 0.017170 0.000000 0.000000
vt 0.015453 0.001000 0.000000
vt 0.015453 0.000000 0.000000
vt 0.013736 0.001000 0.000000
vt 0.013736 0.000000 0.000000
vt 0.012019 0.001000 0.000000
vt 0.012019 0.000000 0.000000
vt 0.010302 0.001000 0.000000
vt 0.010302 0.000000 0.000000
vt 0.008585 0.001000 0.000000
vt 0.008585 0.000000 0.000000
vt 0.006868 0.001000 0.000000
vt 0.006868 0.000000 0.000000
vt 0.005151 0.001000 0.000000
vt 0.005151 0.000000 0.000000
vt 0.003434 0.001000 0.000000
vt 0.003434 0.000000 0.000000
vt 0.002575 0.001000 0.000000
vt 0.002575 0.000000 0.000000
vt 0.001717 0.001000 0.000000
vt 0.001717 0.000000 0.000000
vt 0.000000 0.001000 0.000000
vt 0.000000 0.000000 0.000000
vt 0.027465 0.001000 0.000000
vt 0.025749 0.001000 0.000000
vt 0.027465 0.000000 0.000000
vt 0.025749 0.000000 0.000000
vt 0.024032 0.001000 0.000000
vt 0.024032 0.000000 0.000000
vt 0.022315 0.001000 0.000000
vt 0.022315 0.000000 0.000000
vt 0.020599 0.001000 0.000000
vt 0.020599 0.000000 0.000000
vt 0.018882 0.001000 0.000000
vt 0.018882 0.000000 0.000000
vt 0.017166 0.001000 0.000000
vt 0.017166 0.000000 0.000000
vt 0.015449 0.001000 0.000000
vt 0.015449 0.000000 0.000000
vt 0.013733 0.001000 0.000000
vt 0.013733 0.000000 0.000000
vt 0.012016 0.001000 0.000000
vt 0.012016 0.000000 0.000000
vt 0.010299 0.001000 0.000000
vt 0.010299 0.000000 0.000000
vt 0.008583 0.001000 0.000000
vt 0.008583 0.000000 0.000000
vt 0.006866 0.001000 0.000000
vt 0.006866 0.000000 0.000000
vt 0.003433 0.001000 0.000000
vt 0.003433 0.000000 0.000000
vt 0.000000 0.001000 0.000000
vt 0.000000 0.000000 0.000000
vt 0.014696 0.001000 0.000000
vt 0.012859 0.001000 0.000000
vt 0.014696 0.000000 0.000000
vt 0.012859 0.000000 0.000000
vt 0.011022 0.001000 0.000000
vt 0.011022 0.000000 0.000000
vt 0.009185 0.001000 0.000000
vt 0.009185 0.000000 0.000000
vt 0.008266 0.001000 0.000000
vt 0.008266 0.000000 0.000000
vt 0.007348 0.001000 0.000000
vt 0.007348 0.000000 0.000000
vt 0.005511 0.001000 0.000000
vt 0.005511 0.000000 0.000000
vt 0.003674 0.001000 0.000000
vt 0.003674 0.000000 0.000000
vt 0.002755 0.001000 0.000000
vt 0.002755 0.000000 0.000000
vt 0.001837 0.001000 0.000000
vt 0.001837 0.000000 0.000000
vt 0.000000 0.001000 0.000000
vt 0.000000 0.000000 0.000000
vt 0.012774 0.001000 0.000000
vt 0.009580 0.001000 0.000000
vt 0.012774 0.000000 0.000000
vt 0.009580 0.000000 0.000000
vt 0.006387 0.001000 0.000000
vt 0.006387 0.000000 0.000000
vt 0.003193 0.001000 0.000000
vt 0.003193 0.000000 0.000000
vt 0.001597 0.001000 0.000000
vt 0.001597 0.000000 0.000000
vt 0.000000 0.001000 0.000000
vt 0.000000 0.000000 0.000000
vt 0.027456 0.001000 0.000000
vt 0.025740 0.001000 0.000000
vt 0.027456 0.000000 0.000000
vt 0.025740 0.000000 0.000000
vt 0.024882 0.001000 0.000000
vt 0.024882 0.000000 0.000000
vt 0.024024 0.001000 0.000000
vt 0.024024 0.000000 0.000000
vt 0.022308 0.001000 0.000000
vt 0.022308 0.000000 0.000000
vt 0.020592 0.001000 0.000000
vt 0.020592 0.000000 0.000000
vt 0.018876 0.001000 0.000000
vt 0.018876 0.000000 0.000000
vt 0.017160 0.001000 0.000000
vt 0.017160 0.000000 0.000000
vt 0.015444 0.001000 0.000000
vt 0.015444 0.000000 0.000000
vt 0.013728 0.001000 0.000000
vt 0.013728 0.000000 0.000000
vt 0.012012 0.001000 0.000000
vt 0.012012 0.000000 0.000000
vt 0.010296 0.001000 0.000000
vt 0.010296 0.000000 0.000000
vt 0.008580 0.001000 0.000000
vt 0.008580 0.000000 0.000000
vt 0.006864 0.001000 0.000000
vt 0.006864 0.000000 0.000000
vt 0.003432 0.001000 0.000000
vt 0.003432 0.000000 0.000000
vt 0.000000 0.001000 0.000000
vt 0.000000 0.000000 0.000000
vn -1.000000 0.000000 0.000000
vn -1.000000 0.000000 0.000000
vn -1.000000 0.000000 0.000000
vn -1.000000 0.000000 0.000000
vn -1.000000 0.000000 0.000000
vn -1.000000 0.000000 0.000000
vn -1.000000 0.000000 0.000000
vn -1.000000 0.000000 0.000000
vn -1.000000 0.000000 0.000000
vn -1.000000 0.000000 0.000000
vn -1.000000 0.000000 0.000000
vn -1.000000 0.000000 0.000000
vn -1.000000 0.000000 0.000000
vn -1.000000 0.000000 0.000000
vn -1.000000 0.000000 0.000000
vn -1.000000 0.000000 0.000000
vn -1.000000 0.000000 0.000000
vn -1.000000 0.000000 0.000000
vn -1.000000 0.000000 0.000000
vn -1.000000 0.000000 0.000000
vn -1.000000 0.000000 0.000000
vn -1.000000 0.000000 0.000000
vn -1.000000 0.000000 0.000000
vn -1.000000 0.000000 0.000000
vn -1.000000 0.000000 0.000000
vn -1.000000 0.000000 0.000000
vn -1.000000 0.000000 0.000000
vn -1.000000 0.000000 0.000000
vn -1.000000 0.000000 0.000000
vn -1.000000 0.000000 0.000000
vn -1.000000 0.000000 0.000000
vn -1.000000 0.000000 0.000000
vn -1.000000 0.000000 0.000000
vn -1.000000 0.000000 0.000000
vn -1.000000 0.000000 0.000000
vn -1.000000 0.000000 0.000000
vn -1.000000 0.000000 0.000000
vn -1.000000 0.000000 0.000000
vn -1.000000 0.000000 0.000000
vn -1.000000 0.000000 0.000000
vn -1.000000 0.000000 0.000000
vn -1.000000 0.000000 0.000000
vn -1.000000 0.000000 0.000000
vn -1.000000 0.000000 0.000000
vn -1.000000 0.000000 0.000000
vn -1.000000 0.000000 0.000000
vn -1.000000 0.000000 0.000000
vn -1.000000 0.000000 0.000000
vn -1.000000 0.000000 0.000000
vn -1.000000 0.000000 0.000000
vn -1.000000 0.000000 0.000000
vn -1.000000 0.000000 0.000000
vn -1.000000 0.000000 0.000000
vn -1.000000 0.000000 0.000000
vn -1.000000 0.000000 0.000000
vn -1.000000 0.000000 0.000000
vn -1.000000 0.000000 0.000000
vn -1.000000 0.000000 0.000000
vn -1.000000 0.000000 0.000000
vn -1.000000 0.000000 0.000000
vn -1.000000 0.000000 0.000000
vn -1.000000 0.000000 0.000000
vn -1.000000 0.000000 0.000000
vn -1.000000 0.000000 0.000000
vn -1.000000 0.000000 0.000000
vn -1.000000 0.000000 0.000000
vn -1.000000 0.000000 0.000000
vn -1.000000 0.000000 0.000000
vn -1.000000 0.000000 0.000000
vn -1.000000 0.000000 0.000000
vn -1.000000 0.000000 0.000000
vn -1.000000 0.000000 0.000000
vn -1.000000 0.000000 0.000000
vn -1.000000 0.000000 0.000000
vn -1.000000 0.000000 0.000000
vn -1.000000 0.000000 0.000000
vn -1.000000 0.000000 0.000000
vn -1.000000 0.000000 0.000000
vn -1.000000 0.000000 0.000000
vn -1.000000 0.000000 0.000000
vn -1.000000 0.000000 0.000000
vn -1.000000 0.000000 0.000000
vn -1.000000 0.000000 0.000000
vn -1.000000 0.000000 0.000000
vn -1.000000 0.000000 0.000000
vn -1.000000 0.000000 0.000000
vn -1.000000 0.000000 0.000000
vn -1.000000 0.000000 0.000000
vn -1.000000 0.000000 0.000000
vn -1.000000 0.000000 0.000000
vn -1.000000 0.000000 0.000000
vn -1.000000 0.000000 0.000000
vn -1.000000 0.000000 0.000000
vn -1.000000 0.000000 0.000000
vn -1.000000 0.000000 0.000000
vn -1.000000 0.000000 0.000000
vn -1.000000 0.000000 0.000000
vn -1.000000 0.000000 0.000000
vn -1.000000 0.000000 0.000000
vn -1.000000 0.000000 0.000000
vn -1.000000 0.000000 0.000000
vn -1.000000 0.000000 0.000000
vn -1.000000 0.000000 0.000000
vn -1.000000 0.000000 0.000000
vn -1.000000 0.000000 0.000000
vn -1.000000 0.000000 0.000000
vn -1.000000 0.000000 0.000000
vn -1.000000 0.000000 0.000000
vn -1.000000 0.000000 0.000000
vn -1.000000 0.000000 0.000000
vn -1.000000 0.000000 0.000000
vn -1.000000 0.000000 0.000000
vn -1.000000 0.000000 0.000000
vn -1.000000 0.000000 0.000000
vn -1.000000 0.000000 0.000000
vn -1.000000 0.000000 0.000000
vn -1.000000 0.000000 0.000000
vn -1.000000 0.000000 0.000000
vn -1.000000 0.000000 0.000000
vn -1.000000 0.000000 0.000000
vn -1.000000 0.000000 0.000000
vn -1.000000 0.000000 0.000000
vn -1.000000 0.000000 0.000000
vn -1.000000 0.000000 0.000000
vn -1.000000 0.000000 0.000000
vn -1.000000 0.000000 0.000000
vn -1.000000 0.000000 0.000000
vn -1.000000 0.000000 0.000000
vn -1.000000 0.000000 0.000000
vn -1.000000 0.000000 0.000000
vn -1.000000 0.000000 0.000000
vn -1.000000 0.000000 0.000000
vn -1.000000 0.000000 0.000000
vn -1.000000 0.000000 0.000000
vn -1.000000 0.000000 0.000000
vn 1.000000 -0.000000 -0.000000
vn 1.000000 -0.000000 -0.000000
vn 1.000000 -0.000000 -0.000000
vn 1.000000 -0.000000 -0.000000
vn 1.000000 -0.000000 -0.000000
vn 1.000000 -0.000000 -0.000000
vn 1.000000 -0.000000 -0.000000
vn 1.000000 -0.000000 -0.000000
vn 1.000000 -0.000000 -0.000000
vn 1.000000 -0.000000 -0.000000
vn 1.000000 -0.000000 -0.000000
vn 1.000000 -0.000000 -0.000000
vn 1.000000 -0.000000 -0.000000
vn 1.000000 -0.000000 -0.000000
vn 1.000000 -0.000000 -0.000000
vn 1.000000 -0.000000 -0.000000
vn 1.000000 -0.000000 -0.000000
vn 1.000000 -0.000000 -0.000000
vn 1.000000 -0.000000 -0.000000
vn 1.000000 -0.000000 -0.000000
vn 1.000000 -0.000000 -0.000000
vn 1.000000 -0.000000 -0.000000
vn 1.000000 -0.000000 -0.000000
vn 1.000000 -0.000000 -0.000000
vn 1.000000 -0.000000 -0.000000
vn 1.000000 -0.000000 -0.000000
vn 1.000000 -0.000000 -0.000000
vn 1.000000 -0.000000 -0.000000
vn 1.000000 -0.000000 -0.000000
vn 1.000000 -0.000000 -0.000000
vn 1.000000 -0.000000 -0.000000
vn 1.000000 -0.000000 -0.000000
vn 1.000000 -0.000000 -0.000000
vn 1.000000 -0.000000 -0.000000
vn 1.000000 -0.000000 -0.000000
vn 1.000000 -0.000000 -0.000000
vn 1.000000 -0.000000 -0.000000
vn 1.000000 -0.000000 -0.000000
vn 1.000000 -0.000000 -0.000000
vn 1.000000 -0.000000 -0.000000
vn 1.000000 -0.000000 -0.000000
vn 1.000000 -0.000000 -0.000000
vn 1.000000 -0.000000 -0.000000
vn 1.000000 -0.000000 -0.000000
vn 1.000000 -0.000000 -0.000000
vn 1.000000 -0.000000 -0.000000
vn 1.000000 -0.000000 -0.000000
vn 1.000000 -0.000000 -0.000000
vn 1.000000 -0.000000 -0.000000
vn 1.000000 -0.000000 -0.000000
vn 1.000000 -0.000000 -0.000000
vn 1.000000 -0.000000 -0.000000
vn 1.000000 -0.000000 -0.000000
vn 1.000000 -0.000000 -0.000000
vn 1.000000 -0.000000 -0.000000
vn 1.000000 -0.000000 -0.000000
vn 1.000000 -0.000000 -0.000000
vn 1.000000 -0.000000 -0.000000
vn 1.000000 -0.000000 -0.000000
vn 1.000000 -0.000000 -0.000000
vn 1.000000 -0.000000 -0.000000
vn 1.000000 -0.000000 -0.000000
vn 1.000000 -0.000000 -0.000000
vn 1.000000 -0.000000 -0.000000
vn 1.000000 -0.000000 -0.000000
vn 1.000000 -0.000000 -0.000000
vn 1.000000 -0.000000 -0.000000
vn 1.000000 -0.000000 -0.000000
vn 1.000000 -0.000000 -0.000000
vn 1.000000 -0.000000 -0.000000
vn 1.000000 -0.000000 -0.000000
vn 1.000000 -0.000000 -0.000000
vn 1.000000 -0.000000 -0.000000
vn 1.000000 -0.000000 -0.000000
vn 1.000000 -0.000000 -0.000000
vn 1.000000 -0.000000 -0.000000
vn 1.000000 -0.000000 -0.000000
vn 1.000000 -0.000000 -0.000000
vn 1.000000 -0.000000 -0.000000
vn 1.000000 -0.000000 -0.000000
vn 1.000000 -0.000000 -0.000000
vn 1.000000 -0.000000 -0.000000
vn 1.000000 -0.000000 -0.000000
vn 1.000000 -0.000000 -0.000000
vn 1.000000 -0.000000 -0.000000
vn 1.000000 -0.000000 -0.000000
vn 1.000000 -0.000000 -0.000000
vn 1.000000 -0.000000 -0.000000
vn 1.000000 -0.000000 -0.000000
vn 1.000000 -0.000000 -0.000000
vn 1.000000 -0.000000 -0.000000
vn 1.000000 -0.000000 -0.000000
vn 1.000000 -0.000000 -0.000000
vn 1.000000 -0.000000 -0.000000
vn 1.000000 -0.000000 -0.000000
vn 1.000000 -0.000000 -0.000000
vn 1.000000 -0.000000 -0.000000
vn 1.000000 -0.000000 -0.000000
vn 1.000000 -0.000000 -0.000000
vn 1.000000 -0.000000 -0.000000
vn 1.000000 -0.000000 -0.000000
vn 1.000000 -0.000000 -0.000000
vn 1.000000 -0.000000 -0.000000
vn 1.000000 -0.000000 -0.000000
vn 1.000000 -0.000000 -0.000000
vn 1.000000 -0.000000 -0.000000
vn 1.000000 -0.000000 -0.000000
vn 1.000000 -0.000000 -0.000000
vn 1.000000 -0.000000 -0.000000
vn 1.000000 -0.000000 -0.000000
vn 1.000000 -0.000000 -0.000000
vn 1.000000 -0.000000 -0.000000
vn 1.000000 -0.000000 -0.000000
vn 1.000000 -0.000000 -0.000000
vn 1.000000 -0.000000 -0.000000
vn 1.000000 -0.000000 -0.000000
vn 1.000000 -0.000000 -0.000000
vn 1.000000 -0.000000 -0.000000
vn 1.000000 -0.000000 -0.000000
vn 1.000000 -0.000000 -0.000000
vn 1.000000 -0.000000 -0.000000
vn 1.000000 -0.000000 -0.000000
vn 1.000000 -0.000000 -0.000000
vn 1.000000 -0.000000 -0.000000
vn 1.000000 -0.000000 -0.000000
vn 1.000000 -0.000000 -0.000000
vn 1.000000 -0.000000 -0.000000
vn 1.000000 -0.000000 -0.000000
vn 1.000000 -0.000000 -0.000000
vn 1.000000 -0.000000 -0.000000
vn 1.000000 -0.000000 -0.000000
vn 1.000000 -0.000000 -0.000000
vn 1.000000 -0.000000 -0.000000
vn 1.000000 -0.000000 -0.000000
vn 1.000000 -0.000000 -0.000000
vn 0.000000 -0.253149 0.967427
vn 0.000000 -0.202405 0.979302
vn 0.000000 -0.253149 0.967427
vn 0.000000 -0.202405 0.979302
vn 0.000000 -0.165024 0.986290
vn 0.000000 -0.165024 0.986290
vn 0.000000 -0.119777 0.992801
vn 0.000000 -0.119777 0.992801
vn 0.000000 -0.072327 0.997381
vn 0.000000 -0.072327 0.997381
vn -0.000000 0.009103 0.999959
vn -0.000000 0.009103 0.999959
vn -0.000000 0.097447 0.995241
vn -0.000000 0.097447 0.995241
vn -0.000000 0.193576 0.981085
vn -0.000000 0.193576 0.981085
vn -0.000000 0.296594 0.955004
vn -0.000000 0.296594 0.955004
vn -0.000000 0.402487 0.915426
vn -0.000000 0.402487 0.915426
vn -0.000000 0.467193 0.884155
vn -0.000000 0.467193 0.884155
vn -0.000000 0.537376 0.843343
vn -0.000000 0.537376 0.843343
vn -0.000000 0.595343 0.803472
vn -0.000000 0.595343 0.803472
vn -0.000000 0.656142 0.754637
vn -0.000000 0.656142 0.754637
vn -0.000000 0.752623 0.658452
vn -0.000000 0.752623 0.658452
vn -0.000000 0.808753 0.588148
vn -0.000000 0.808753 0.588148
vn -0.000000 0.850243 0.526391
vn -0.000000 0.850243 0.526391
vn -0.000000 0.886185 0.463331
vn -0.000000 0.886185 0.463331
vn -0.000000 0.918161 0.396207
vn -0.000000 0.918161 0.396207
vn -0.000000 0.948502 0.316772
vn -0.000000 0.948502 0.316772
vn -0.000000 0.961416 0.275099
vn -0.000000 0.961416 0.275099
vn -0.000000 0.969591 0.244732
vn -0.000000 0.980376 0.197136
vn -0.000000 0.969591 0.244732
vn -0.000000 0.980376 0.197136
vn -0.000000 0.993569 0.113229
vn -0.000000 0.993569 0.113229
vn -0.000000 0.998784 0.049304
vn -0.000000 0.998784 0.049304
vn 0.000000 0.999467 -0.032638
vn 0.000000 0.999467 -0.032638
vn 0.000000 0.984752 -0.173962
vn 0.000000 0.984752 -0.173962
vn 0.000000 0.966311 -0.257376
vn 0.000000 0.966311 -0.257376
vn 0.000000 0.948637 -0.316366
vn 0.000000 0.948637 -0.316366
vn 0.000000 0.922859 -0.385138
vn 0.000000 0.922859 -0.385138
vn 0.000000 0.891156 -0.453696
vn 0.000000 0.891156 -0.453696
vn 0.000000 0.822258 -0.569115
vn 0.000000 0.822258 -0.569115
vn 0.000000 0.745788 -0.666183
vn 0.000000 0.745788 -0.666183
vn 0.000000 0.673809 -0.738905
vn 0.000000 0.673809 -0.738905
vn 0.000000 0.606460 -0.795114
vn 0.000000 0.606460 -0.795114
vn 0.000000 0.523637 -0.851942
vn 0.000000 0.523637 -0.851942
vn 0.000000 0.465376 -0.885113
vn 0.000000 0.465376 -0.885113
vn 0.000000 0.406931 -0.913459
vn 0.000000 0.406931 -0.913459
vn 0.000000 0.359328 -0.933211
vn 0.000000 0.359328 -0.933211
vn 0.000000 0.321614 -0.946871
vn 0.000000 0.321614 -0.946871
vn 0.000000 0.270558 -0.962704
vn 0.000000 0.270558 -0.962704
vn 0.000000 0.247214 -0.968961
vn 0.000000 0.196279 -0.980548
vn 0.000000 0.247214 -0.968961
vn 0.000000 0.196279 -0.980548
vn 0.000000 0.152922 -0.988238
vn 0.000000 0.152922 -0.988238
vn 0.000000 0.103669 -0.994612
vn 0.000000 0.103669 -0.994612
vn 0.000000 0.044794 -0.998996
vn 0.000000 0.044794 -0.998996
vn 0.000000 -0.038142 -0.999272
vn 0.000000 -0.038142 -0.999272
vn 0.000000 -0.126727 -0.991938
vn 0.000000 -0.126727 -0.991938
vn 0.000000 -0.206399 -0.978468
vn 0.000000 -0.206399 -0.978468
vn 0.000000 -0.309221 -0.950990
vn 0.000000 -0.309221 -0.950990
vn 0.000000 -0.425501 -0.904958
vn 0.000000 -0.425501 -0.904958
vn 0.000000 -0.542745 -0.839898
vn 0.000000 -0.542745 -0.839898
vn 0.000000 -0.656275 -0.754522
vn 0.000000 -0.656275 -0.754522
vn 0.000000 -0.713334 -0.700824
vn 0.000000 -0.713334 -0.700824
vn 0.000000 -0.761268 -0.648437
vn 0.000000 -0.761268 -0.648437
vn 0.000000 -0.810506 -0.585731
vn 0.000000 -0.810506 -0.585731
vn 0.000000 -0.850081 -0.526651
vn 0.000000 -0.850081 -0.526651
vn 0.000000 -0.887338 -0.461120
vn 0.000000 -0.887338 -0.461120
vn 0.000000 -0.919767 -0.392464
vn 0.000000 -0.919767 -0.392464
vn 0.000000 -0.961242 -0.275705
vn 0.000000 -0.961242 -0.275705
vn 0.000000 -0.970134 -0.242571
vn 0.000000 -0.979870 -0.199636
vn 0.000000 -0.970134 -0.242571
vn 0.000000 -0.979870 -0.199636
vn 0.000000 -0.993223 -0.116225
vn 0.000000 -0.993223 -0.116225
vn 0.000000 -0.999194 -0.040138
vn 0.000000 -0.999194 -0.040138
vn 0.000000 -0.999280 0.037939
vn 0.000000 -0.999280 0.037939
vn 0.000000 -0.994183 0.107700
vn 0.000000 -0.994183 0.107700
vn 0.000000 -0.981340 0.192279
vn 0.000000 -0.981340 0.192279
vn 0.000000 -0.945675 0.325114
vn 0.000000 -0.945675 0.325114
vn 0.000000 -0.888854 0.458190
vn 0.000000 -0.888854 0.458190
vn 0.000000 -0.847980 0.530028
vn 0.000000 -0.847980 0.530028
vn 0.000000 -0.811574 0.584250
vn 0.000000 -0.811574 0.584250
vn 0.000000 -0.734845 0.678236
vn 0.000000 -0.734845 0.678236
vn 0.000000 -0.655566 0.755137
vn 0.000000 -0.655566 0.755137
vn 0.000000 -0.579587 0.814910
vn 0.000000 -0.579587 0.814910
vn 0.000000 -0.502912 0.864338
vn 0.000000 -0.502912 0.864338
vn 0.000000 -0.440812 0.897599
vn 0.000000 -0.440812 0.897599
vn 0.000000 -0.384476 0.923135
vn 0.000000 -0.384476 0.923135
vn 0.000000 -0.347978 0.937503
vn 0.000000 -0.347978 0.937503
vn 0.000000 -0.314112 0.949386
vn 0.000000 -0.314112 0.949386
vn 0.000000 -0.264463 0.964396
vn 0.000000 -0.264463 0.964396
vn 0.000000 0.261132 -0.965303
vn 0.000000 0.306905 -0.951740
vn 0.000000 0.261132 -0.965303
vn 0.000000 0.306905 -0.951740
vn 0.000000 0.364927 -0.931036
vn 0.000000 0.364927 -0.931036
vn 0.000000 0.404694 -0.914452
vn 0.000000 0.404694 -0.914452
vn 0.000000 0.463585 -0.886052
vn 0.000000 0.463585 -0.886052
vn 0.000000 0.537109 -0.843513
vn 0.000000 0.537109 -0.843513
vn 0.000000 0.618217 -0.786007
vn 0.000000 0.618217 -0.786007
vn 0.000000 0.698368 -0.715738
vn 0.000000 0.698368 -0.715738
vn 0.000000 0.777458 -0.628935
vn 0.000000 0.777458 -0.628935
vn 0.000000 0.859073 -0.511853
vn 0.000000 0.859073 -0.511853
vn 0.000000 0.931513 -0.363709
vn 0.000000 0.931513 -0.363709
vn 0.000000 0.970991 -0.239115
vn 0.000000 0.970991 -0.239115
vn 0.000000 0.996316 -0.085763
vn 0.000000 0.996316 -0.085763
vn -0.000000 0.999966 0.008199
vn -0.000000 0.999966 0.008199
vn -0.000000 0.994408 0.105609
vn -0.000000 0.994408 0.105609
vn -0.000000 0.978162 0.207843
vn -0.000000 0.978162 0.207843
vn 0.000000 -0.951771 -0.306808
vn 0.000000 -0.910582 -0.413328
vn 0.000000 -0.951771 -0.306808
vn 0.000000 -0.910582 -0.413328
vn 0.000000 -0.820351 -0.571860
vn 0.000000 -0.820351 -0.571860
vn 0.000000 -0.724835 -0.688922
vn 0.000000 -0.724835 -0.688922
vn 0.000000 -0.616268 -0.787537
vn 0.000000 -0.616268 -0.787537
vn 0.000000 -0.494986 -0.868901
vn 0.000000 -0.494986 -0.868901
vn 0.000000 -0.369381 -0.929278
vn 0.000000 -0.369381 -0.929278
vn 0.000000 -0.238824 -0.971063
vn 0.000000 -0.238824 -0.971063
vn 0.000000 -0.144588 -0.989492
vn 0.000000 -0.144588 -0.989492
vn 0.000000 -0.044514 -0.999009
vn 0.000000 -0.044514 -0.999009
vn 0.000000 0.045876 -0.998947
vn 0.000000 0.045876 -0.998947
vn 0.000000 0.101007 -0.994886
vn 0.000000 0.101007 -0.994886
vn 0.000000 0.153089 -0.988212
vn 0.000000 0.153089 -0.988212
vn 0.000000 0.209305 -0.977850
vn 0.000000 0.209305 -0.977850
vn 0.000000 0.256350 -0.966584
vn 0.000000 0.256350 -0.966584
vn 0.000000 -0.578436 0.815728
vn 0.000000 -0.643986 0.765037
vn 0.000000 -0.578436 0.815728
vn 0.000000 -0.643986 0.765037
vn 0.000000 -0.735718 0.677288
vn 0.000000 -0.735718 0.677288
vn 0.000000 -0.823214 0.567731
vn 0.000000 -0.823214 0.567731
vn 0.000000 -0.870650 0.491902
vn 0.000000 -0.870650 0.491902
vn 0.000000 -0.910580 0.413334
vn 0.000000 -0.910580 0.413334
vn 0.000000 -0.963836 0.266497
vn 0.000000 -0.963836 0.266497
vn 0.000000 -0.994957 0.100307
vn 0.000000 -0.994957 0.100307
vn 0.000000 -0.999786 0.020682
vn 0.000000 -0.999786 0.020682
vn 0.000000 -0.996463 -0.084027
vn 0.000000 -0.996463 -0.084027
vn 0.000000 -0.975767 -0.218813
vn 0.000000 -0.975767 -0.218813
vn 0.000000 -0.267962 0.963429
vn 0.000000 -0.319927 0.947442
vn 0.000000 -0.267962 0.963429
vn 0.000000 -0.319927 0.947442
vn 0.000000 -0.385002 0.922916
vn 0.000000 -0.385002 0.922916
vn 0.000000 -0.470170 0.882576
vn 0.000000 -0.470170 0.882576
vn 0.000000 -0.527062 0.849827
vn 0.000000 -0.527062 0.849827
vn 0.000000 -0.554392 0.832256
vn 0.000000 -0.554392 0.832256
vn -0.000000 0.950861 0.309619
vn -0.000000 0.912175 0.409801
vn -0.000000 0.950861 0.309619
vn -0.000000 0.912175 0.409801
vn -0.000000 0.866890 0.498499
vn -0.000000 0.866890 0.498499
vn -0.000000 0.815570 0.578658
vn -0.000000 0.815570 0.578658
vn -0.000000 0.719656 0.694331
vn -0.000000 0.719656 0.694331
vn -0.000000 0.617103 0.786882
vn -0.000000 0.617103 0.786882
vn -0.000000 0.481754 0.876306
vn -0.000000 0.481754 0.876306
vn -0.000000 0.347779 0.937577
vn -0.000000 0.347779 0.937577
vn -0.000000 0.237429 0.971405
vn -0.000000 0.237429 0.971405
vn -0.000000 0.149509 0.988760
vn -0.000000 0.149509 0.988760
vn -0.000000 0.062727 0.998031
vn -0.000000 0.062727 0.998031
vn -0.000000 0.002590 0.999997
vn -0.000000 0.002590 0.999997
vn 0.000000 -0.074991 0.997184
vn 0.000000 -0.074991 0.997184
vn 0.000000 -0.117890 0.993027
vn 0.000000 -0.117890 0.993027
vn 0.000000 -0.199641 0.979869
vn 0.000000 -0.199641 0.979869
vn 0.000000 -0.246165 0.969228
vn 0.000000 -0.246165 0.969228
usemtl Opaque(202,209,238)
f 2/1/1 90/2/2 1/3/3
f 1/3/3 90/2/2 91/4/4
f 1/3/3 91/4/4 92/5/5
f 2/1/1 3/6/6 90/2/2
f 90/2/2 3/6/6 89/7/7
f 89/7/7 3/6/6 4/8/8
f 89/7/7 4/8/8 88/9/9
f 88/9/9 4/8/8 5/10/10
f 88/9/9 5/10/10 87/11/11
f 87/11/11 5/10/10 6/12/12
f 87/11/11 6/12/12 86/13/13
f 86/13/13 6/12/12 7/14/14
f 86/13/13 7/14/14 8/15/15
f 86/13/13 8/15/15 85/16/16
f 85/16/16 8/15/15 9/17/17
f 85/16/16 9/17/17 84/18/18
f 84/18/18 9/17/17 10/19/19
f 84/18/18 10/19/19 83/20/20
f 83/20/20 10/19/19 11/21/21
f 83/20/20 11/21/21 12/22/22
f 83/20/20 12/22/22 82/23/23
f 82/23/23 12/22/22 13/24/24
f 82/23/23 13/24/24 14/25/25
f 82/23/23 14/25/25 81/26/26
f 81/26/26 14/25/25 15/27/27
f 81/26/26 15/27/27 80/28/28
f 80/28/28 15/27/27 16/29/29
f 80/28/28 16/29/29 79/30/30
f 79/30/30 16/29/29 17/31/31
f 79/30/30 17/31/31 18/32/32
f 79/30/30 18/32/32 78/33/33
f 78/33/33 18/32/32 19/34/34
f 78/33/33 19/34/34 20/35/35
f 78/33/33 20/35/35 77/36/36
f 77/36/36 20/35/35 21/37/37
f 77/36/36 21/37/37 22/38/38
f 77/36/36 22/38/38 135/39/39
f 135/39/39 22/38/38 23/40/40
f 135/39/39 23/40/40 24/41/41
f 135/39/39 24/41/41 134/42/42
f 134/42/42 24/41/41 25/43/43
f 134/42/42 25/43/43 133/44/44
f 133/44/44 25/43/43 26/45/45
f 133/44/44 26/45/45 132/46/46
f 132/46/46 26/45/45 27/47/47
f 132/46/46 27/47/47 131/48/48
f 131/48/48 27/47/47 28/49/49
f 131/48/48 28/49/49 29/50/50
f 131/48/48 29/50/50 130/51/51
f 130/51/51 29/50/50 30/52/52
f 130/51/51 30/52/52 129/53/53
f 129/53/53 30/52/52 31/54/54
f 129/53/53 31/54/54 128/55/55
f 128/55/55 31/54/54 32/56/56
f 128/55/55 32/56/56 127/57/57
f 127/57/57 32/56/56 33/58/58
f 127/57/57 33/58/58 126/59/59
f 126/59/59 33/58/58 34/60/60
f 126/59/59 34/60/60 125/61/61
f 125/61/61 34/60/60 35/62/62
f 125/61/61 35/62/62 124/63/63
f 124/63/63 35/62/62 36/64/64
f 124/63/63 36/64/64 123/65/65
f 123/65/65 36/64/64 37/66/66
f 123/65/65 37/66/66 38/67/67
f 123/65/65 38/67/67 122/68/68
f 122/68/68 38/67/67 39/69/69
f 122/68/68 39/69/69 40/70/70
f 41/71/71 120/72/72 40/70/70
f 40/70/70 120/72/72 121/73/73
f 40/70/70 121/73/73 122/68/68
f 41/71/71 42/74/74 120/72/72
f 120/72/72 42/74/74 119/75/75
f 119/75/75 42/74/74 43/76/76
f 119/75/75 43/76/76 118/77/77
f 118/77/77 43/76/76 44/78/78
f 118/77/77 44/78/78 117/79/79
f 117/79/79 44/78/78 45/80/80
f 117/79/79 45/80/80 116/81/81
f 116/81/81 45/80/80 46/82/82
f 116/81/81 46/82/82 47/83/83
f 116/81/81 47/83/83 115/84/84
f 115/84/84 47/83/83 48/85/85
f 115/84/84 48/85/85 114/86/86
f 114/86/86 48/85/85 49/87/87
f 114/86/86 49/87/87 113/88/88
f 113/88/88 49/87/87 50/89/89
f 113/88/88 50/89/89 112/90/90
f 112/90/90 50/89/89 51/91/91
f 112/90/90 51/91/91 111/92/92
f 111/92/92 51/91/91 52/93/93
f 111/92/92 52/93/93 110/94/94
f 110/94/94 52/93/93 53/95/95
f 110/94/94 53/95/95 54/96/96
f 110/94/94 54/96/96 109/97/97
f 109/97/97 54/96/96 55/98/98
f 109/97/97 55/98/98 56/99/99
f 109/97/97 56/99/99 108/100/100
f 108/100/100 56/99/99 57/101/101
f 108/100/100 57/101/101 107/102/102
f 107/102/102 57/101/101 106/103/103
f 106/103/103 57/101/101 58/104/104
f 106/103/103 58/104/104 59/105/105
f 106/103/103 59/105/105 105/106/106
f 105/106/106 59/105/105 60/107/107
f 105/106/106 60/107/107 104/108/108
f 104/108/108 60/107/107 61/109/109
f 104/108/108 61/109/109 103/110/110
f 103/110/110 61/109/109 62/111/111
f 103/110/110 62/111/111 63/112/112
f 103/110/110 63/112/112 102/113/113
f 102/113/113 63/112/112 64/114/114
f 102/113/113 64/114/114 101/115/115
f 101/115/115 64/114/114 65/116/116
f 101/115/115 65/116/116 100/117/117
f 100/117/117 65/116/116 66/118/118
f 100/117/117 66/118/118 99/119/119
f 99/119/119 66/118/118 67/120/120
f 99/119/119 67/120/120 68/121/121
f 99/119/119 68/121/121 98/122/122
f 98/122/122 68/121/121 69/123/123
f 98/122/122 69/123/123 97/124/124
f 97/124/124 69/123/123 70/125/125
f 97/124/124 70/125/125 96/126/126
f 96/126/126 70/125/125 71/127/127
f 96/126/126 71/127/127 72/128/128
f 96/126/126 72/128/128 95/129/129
f 95/129/129 72/128/128 73/130/130
f 95/129/129 73/130/130 94/131/131
f 94/131/131 73/130/130 74/132/132
f 94/131/131 74/132/132 93/133/133
f 93/133/133 74/132/132 75/134/134
f 93/133/133 75/134/134 92/5/5
f 92/5/5 75/134/134 76/135/135
f 92/5/5 76/135/135 1/3/3
f 211/136/136 136/137/137 241/138/138
f 241/138/138 136/137/137 137/139/139
f 241/138/138 137/139/139 240/140/140
f 240/140/140 137/139/139 138/141/141
f 240/140/140 138/141/141 139/142/142
f 240/140/140 139/142/142 239/143/143
f 239/143/143 139/142/142 140/144/144
f 239/143/143 140/144/144 141/145/145
f 239/143/143 141/145/145 238/146/146
f 238/146/146 141/145/145 142/147/147
f 238/146/146 142/147/147 237/148/148
f 237/148/148 142/147/147 143/149/149
f 237/148/148 143/149/149 236/150/150
f 236/150/150 143/149/149 144/151/151
f 236/150/150 144/151/151 145/152/152
f 236/150/150 145/152/152 235/153/153
f 235/153/153 145/152/152 146/154/154
f 235/153/153 146/154/154 147/155/155
f 235/153/153 147/155/155 234/156/156
f 234/156/156 147/155/155 148/157/157
f 234/156/156 148/157/157 233/158/158
f 233/158/158 148/157/157 149/159/159
f 233/158/158 149/159/159 232/160/160
f 232/160/160 149/159/159 150/161/161
f 232/160/160 150/161/161 151/162/162
f 232/160/160 151/162/162 231/163/163
f 231/163/163 151/162/162 152/164/164
f 231/163/163 152/164/164 230/165/165
f 230/165/165 152/164/164 153/166/166
f 230/165/165 153/166/166 229/167/167
f 229/167/167 153/166/166 154/168/168
f 229/167/167 154/168/168 228/169/169
f 228/169/169 154/168/168 155/170/170
f 228/169/169 155/170/170 156/171/171
f 157/172/172 226/173/173 156/171/171
f 156/171/171 226/173/173 227/174/174
f 156/171/171 227/174/174 228/169/169
f 157/172/172 158/175/175 226/173/173
f 226/173/173 158/175/175 225/176/176
f 225/176/176 158/175/175 159/177/177
f 225/176/176 159/177/177 224/178/178
f 224/178/178 159/177/177 160/179/179
f 224/178/178 160/179/179 223/180/180
f 223/180/180 160/179/179 161/181/181
f 223/180/180 161/181/181 222/182/182
f 222/182/182 161/181/181 162/183/183
f 222/182/182 162/183/183 163/184/184
f 222/182/182 163/184/184 221/185/185
f 221/185/185 163/184/184 164/186/186
f 221/185/185 164/186/186 220/187/187
f 220/187/187 164/186/186 165/188/188
f 220/187/187 165/188/188 219/189/189
f 219/189/189 165/188/188 166/190/190
f 219/189/189 166/190/190 167/191/191
f 219/189/189 167/191/191 218/192/192
f 218/192/192 167/191/191 168/193/193
f 218/192/192 168/193/193 217/194/194
f 217/194/194 168/193/193 169/195/195
f 217/194/194 169/195/195 216/196/196
f 216/196/196 169/195/195 170/197/197
f 216/196/196 170/197/197 215/198/198
f 215/198/198 170/197/197 171/199/199
f 215/198/198 171/199/199 172/200/200
f 215/198/198 172/200/200 214/201/201
f 214/201/201 172/200/200 173/202/202
f 214/201/201 173/202/202 213/203/203
f 213/203/203 173/202/202 174/204/204
f 213/203/203 174/204/204 212/205/205
f 212/205/205 174/204/204 175/206/206
f 212/205/205 175/206/206 176/207/207
f 177/208/208 269/209/209 176/207/207
f 176/207/207 269/209/209 270/210/210
f 176/207/207 270/210/210 212/205/205
f 269/209/209 177/208/208 268/211/211
f 268/211/211 177/208/208 178/212/212
f 268/211/211 178/212/212 179/213/213
f 268/211/211 179/213/213 267/214/214
f 267/214/214 179/213/213 180/215/215
f 267/214/214 180/215/215 181/216/216
f 267/214/214 181/216/216 266/217/217
f 266/217/217 181/216/216 182/218/218
f 266/217/217 182/218/218 265/219/219
f 265/219/219 182/218/218 183/220/220
f 265/219/219 183/220/220 264/221/221
f 264/221/221 183/220/220 184/222/222
f 264/221/221 184/222/222 263/223/223
f 263/223/223 184/222/222 185/224/224
f 263/223/223 185/224/224 262/225/225
f 262/225/225 185/224/224 186/226/226
f 262/225/225 186/226/226 261/227/227
f 261/227/227 186/226/226 187/228/228
f 261/227/227 187/228/228 188/229/229
f 261/227/227 188/229/229 260/230/230
f 260/230/230 188/229/229 189/231/231
f 260/230/230 189/231/231 259/232/232
f 259/232/232 189/231/231 190/233/233
f 259/232/232 190/233/233 258/234/234
f 258/234/234 190/233/233 191/235/235
f 258/234/234 191/235/235 257/236/236
f 257/236/236 191/235/235 192/237/237
f 257/236/236 192/237/237 193/238/238
f 194/239/239 255/240/240 193/238/238
f 193/238/238 255/240/240 256/241/241
f 193/238/238 256/241/241 257/236/236
f 194/239/239 195/242/242 255/240/240
f 255/240/240 195/242/242 254/243/243
f 254/243/243 195/242/242 196/244/244
f 254/243/243 196/244/244 197/245/245
f 254/243/243 197/245/245 253/246/246
f 253/246/246 197/245/245 198/247/247
f 253/246/246 198/247/247 252/248/248
f 252/248/248 198/247/247 199/249/249
f 252/248/248 199/249/249 251/250/250
f 251/250/250 199/249/249 200/251/251
f 251/250/250 200/251/251 250/252/252
f 250/252/252 200/251/251 201/253/253
f 250/252/252 201/253/253 249/254/254
f 249/254/254 201/253/253 202/255/255
f 249/254/254 202/255/255 248/256/256
f 248/256/256 202/255/255 203/257/257
f 248/256/256 203/257/257 247/258/258
f 247/258/258 203/257/257 204/259/259
f 247/258/258 204/259/259 246/260/260
f 246/260/260 204/259/259 205/261/261
f 246/260/260 205/261/261 206/262/262
f 246/260/260 206/262/262 245/263/263
f 245/263/263 206/262/262 207/264/264
f 245/263/263 207/264/264 244/265/265
f 244/265/265 207/264/264 208/266/266
f 244/265/265 208/266/266 243/267/267
f 243/267/267 208/266/266 209/268/268
f 243/267/267 209/268/268 242/269/269
f 242/269/269 209/268/268 210/270/270
f 242/269/269 210/270/270 211/136/136
f 242/269/269 211/136/136 241/138/138
f 156/271/271 155/272/272 1/273/273
f 1/273/273 155/272/272 2/274/274
f 2/274/274 155/272/272 154/275/275
f 2/274/274 154/275/275 3/276/276
f 3/276/276 154/275/275 153/277/277
f 3/276/276 153/277/277 4/278/278
f 4/278/278 153/277/277 152/279/279
f 4/278/278 152/279/279 5/280/280
f 5/280/280 152/279/279 151/281/281
f 5/280/280 151/281/281 6/282/282
f 6/282/282 151/281/281 150/283/283
f 6/282/282 150/283/283 7/284/284
f 7/284/284 150/283/283 149/285/285
f 7/284/284 149/285/285 8/286/286
f 8/286/286 149/285/285 148/287/287
f 8/286/286 148/287/287 9/288/288
f 9/288/288 148/287/287 147/289/289
f 9/288/288 147/289/289 10/290/290
f 10/290/290 147/289/289 146/291/291
f 10/290/290 146/291/291 11/292/292
f 11/292/292 146/291/291 145/293/293
f 11/292/292 145/293/293 12/294/294
f 12/294/294 145/293/293 144/295/295
f 12/294/294 144/295/295 13/296/296
f 13/296/296 144/295/295 143/297/297
f 13/296/296 143/297/297 14/298/298
f 14/298/298 143/297/297 142/299/299
f 14/298/298 142/299/299 15/300/300
f 15/300/300 142/299/299 141/301/301
f 15/300/300 141/301/301 16/302/302
f 16/302/302 141/301/301 140/303/303
f 16/302/302 140/303/303 17/304/304
f 17/304/304 140/303/303 139/305/305
f 17/304/304 139/305/305 18/306/306
f 18/306/306 139/305/305 138/307/307
f 18/306/306 138/307/307 19/308/308
f 19/308/308 138/307/307 137/309/309
f 19/308/308 137/309/309 20/310/310
f 20/310/310 137/309/309 136/311/311
f 20/310/310 136/311/311 21/312/312
f 136/313/313 211/314/314 21/315/315
f 21/315/315 211/314/314 22/316/316
f 22/316/316 211/314/314 210/317/317
f 22/316/316 210/317/317 23/318/318
f 23/318/318 210/317/317 209/319/319
f 23/318/318 209/319/319 24/320/320
f 24/320/320 209/319/319 208/321/321
f 24/320/320 208/321/321 25/322/322
f 25/322/322 208/321/321 207/323/323
f 25/322/322 207/323/323 26/324/324
f 26/324/324 207/323/323 206/325/325
f 26/324/324 206/325/325 27/326/326
f 27/326/326 206/325/325 205/327/327
f 27/326/326 205/327/327 28/328/328
f 28/328/328 205/327/327 204/329/329
f 28/328/328 204/329/329 29/330/330
f 29/330/330 204/329/329 203/331/331
f 29/330/330 203/331/331 30/332/332
f 30/332/332 203/331/331 202/333/333
f 30/332/332 202/333/333 31/334/334
f 31/334/334 202/333/333 201/335/335
f 31/334/334 201/335/335 32/336/336
f 32/336/336 201/335/335 200/337/337
f 32/336/336 200/337/337 33/338/338
f 33/338/338 200/337/337 199/339/339
f 33/338/338 199/339/339 34/340/340
f 34/340/340 199/339/339 198/341/341
f 34/340/340 198/341/341 35/342/342
f 35/342/342 198/341/341 197/343/343
f 35/342/342 197/343/343 36/344/344
f 36/344/344 197/343/343 196/345/345
f 36/344/344 196/345/345 37/346/346
f 37/346/346 196/345/345 195/347/347
f 37/346/346 195/347/347 38/348/348
f 38/348/348 195/347/347 194/349/349
f 38/348/348 194/349/349 39/350/350
f 39/350/350 194/349/349 193/351/351
f 39/350/350 193/351/351 40/352/352
f 193/353/353 192/354/354 40/355/355
f 40/355/355 192/354/354 41/356/356
f 41/356/356 192/354/354 191/357/357
f 41/356/356 191/357/357 42/358/358
f 42/358/358 191/357/357 190/359/359
f 42/358/358 190/359/359 43/360/360
f 43/360/360 190/359/359 189/361/361
f 43/360/360 189/361/361 44/362/362
f 44/362/362 189/361/361 188/363/363
f 44/362/362 188/363/363 45/364/364
f 45/364/364 188/363/363 187/365/365
f 45/364/364 187/365/365 46/366/366
f 46/366/366 187/365/365 186/367/367
f 46/366/366 186/367/367 47/368/368
f 47/368/368 186/367/367 185/369/369
f 47/368/368 185/369/369 48/370/370
f 48/370/370 185/369/369 184/371/371
f 48/370/370 184/371/371 49/372/372
f 49/372/372 184/371/371 183/373/373
f 49/372/372 183/373/373 50/374/374
f 50/374/374 183/373/373 182/375/375
f 50/374/374 182/375/375 51/376/376
f 51/376/376 182/375/375 181/377/377
f 51/376/376 181/377/377 52/378/378
f 52/378/378 181/377/377 180/379/379
f 52/378/378 180/379/379 53/380/380
f 53/380/380 180/379/379 179/381/381
f 53/380/380 179/381/381 54/382/382
f 54/382/382 179/381/381 178/383/383
f 54/382/382 178/383/383 55/384/384
f 55/384/384 178/383/383 177/385/385
f 55/384/384 177/385/385 56/386/386
f 56/386/386 177/385/385 176/387/387
f 56/386/386 176/387/387 57/388/388
f 57/388/388 176/387/387 175/389/389
f 57/388/388 175/389/389 58/390/390
f 175/391/391 174/392/392 58/393/393
f 58/393/393 174/392/392 59/394/394
f 59/394/394 174/392/392 173/395/395
f 59/394/394 173/395/395 60/396/396
f 60/396/396 173/395/395 172/397/397
f 60/396/396 172/397/397 61/398/398
f 61/398/398 172/397/397 171/399/399
f 61/398/398 171/399/399 62/400/400
f 62/400/400 171/399/399 170/401/401
f 62/400/400 170/401/401 63/402/402
f 63/402/402 170/401/401 169/403/403
f 63/402/402 169/403/403 64/404/404
f 64/404/404 169/403/403 168/405/405
f 64/404/404 168/405/405 65/406/406
f 65/406/406 168/405/405 167/407/407
f 65/406/406 167/407/407 66/408/408
f 66/408/408 167/407/407 166/409/409
f 66/408/408 166/409/409 67/410/410
f 67/410/410 166/409/409 165/411/411
f 67/410/410 165/411/411 68/412/412
f 68/412/412 165/411/411 164/413/413
f 68/412/412 164/413/413 69/414/414
f 69/414/414 164/413/413 163/415/415
f 69/414/414 163/415/415 70/416/416
f 70/416/416 163/415/415 162/417/417
f 70/416/416 162/417/417 71/418/418
f 71/418/418 162/417/417 161/419/419
f 71/418/418 161/419/419 72/420/420
f 72/420/420 161/419/419 160/421/421
f 72/420/420 160/421/421 73/422/422
f 73/422/422 160/421/421 159/423/423
f 73/422/422 159/423/423 74/424/424
f 74/424/424 159/423/423 158/425/425
f 74/424/424 158/425/425 75/426/426
f 75/426/426 158/425/425 157/427/427
f 75/426/426 157/427/427 76/428/428
f 76/428/428 157/427/427 156/429/429
f 76/428/428 156/429/429 1/430/430
f 227/431/431 226/432/432 91/433/433
f 91/433/433 226/432/432 92/434/434
f 92/434/434 226/432/432 225/435/435
f 92/434/434 225/435/435 93/436/436
f 93/436/436 225/435/435 224/437/437
f 93/436/436 224/437/437 94/438/438
f 94/438/438 224/437/437 223/439/439
f 94/438/438 223/439/439 95/440/440
f 95/440/440 223/439/439 222/441/441
f 95/440/440 222/441/441 96/442/442
f 96/442/442 222/441/441 221/443/443
f 96/442/442 221/443/443 97/444/444
f 97/444/444 221/443/443 220/445/445
f 97/444/444 220/445/445 98/446/446
f 98/446/446 220/445/445 219/447/447
f 98/446/446 219/447/447 99/448/448
f 99/448/448 219/447/447 218/449/449
f 99/448/448 218/449/449 100/450/450
f 100/450/450 218/449/449 217/451/451
f 100/450/450 217/451/451 101/452/452
f 101/452/452 217/451/451 216/453/453
f 101/452/452 216/453/453 102/454/454
f 102/454/454 216/453/453 215/455/455
f 102/454/454 215/455/455 103/456/456
f 103/456/456 215/455/455 214/457/457
f 103/456/456 214/457/457 104/458/458
f 104/458/458 214/457/457 213/459/459
f 104/458/458 213/459/459 105/460/460
f 105/460/460 213/459/459 212/461/461
f 105/460/460 212/461/461 106/462/462
f 241/463/463 240/464/464 77/465/465
f 77/465/465 240/464/464 78/466/466
f 78/466/466 240/464/464 239/467/467
f 78/466/466 239/467/467 79/468/468
f 79/468/468 239/467/467 238/469/469
f 79/468/468 238/469/469 80/470/470
f 80/470/470 238/469/469 237/471/471
f 80/470/470 237/471/471 81/472/472
f 81/472/472 237/471/471 236/473/473
f 81/472/472 236/473/473 82/474/474
f 82/474/474 236/473/473 235/475/475
f 82/474/474 235/475/475 83/476/476
f 83/476/476 235/475/475 234/477/477
f 83/476/476 234/477/477 84/478/478
f 84/478/478 234/477/477 233/479/479
f 84/478/478 233/479/479 85/480/480
f 85/480/480 233/479/479 232/481/481
f 85/480/480 232/481/481 86/482/482
f 86/482/482 232/481/481 231/483/483
f 86/482/482 231/483/483 87/484/484
f 87/484/484 231/483/483 230/485/485
f 87/484/484 230/485/485 88/486/486
f 88/486/486 230/485/485 229/487/487
f 88/486/486 229/487/487 89/488/488
f 89/488/488 229/487/487 228/489/489
f 89/488/488 228/489/489 90/490/490
f 90/490/490 228/489/489 227/491/491
f 90/490/490 227/491/491 91/492/492
f 251/493/493 250/494/494 126/495/495
f 126/495/495 250/494/494 127/496/496
f 127/496/496 250/494/494 249/497/497
f 127/496/496 249/497/497 128/498/498
f 128/498/498 249/497/497 248/499/499
f 128/498/498 248/499/499 129/500/500
f 129/500/500 248/499/499 247/501/501
f 129/500/500 247/501/501 130/502/502
f 130/502/502 247/501/501 246/503/503
f 130/502/502 246/503/503 131/504/504
f 131/504/504 246/503/503 245/505/505
f 131/504/504 245/505/505 132/506/506
f 132/506/506 245/505/505 244/507/507
f 132/506/506 244/507/507 133/508/508
f 133/508/508 244/507/507 243/509/509
f 133/508/508 243/509/509 134/510/510
f 134/510/510 243/509/509 242/511/511
f 134/510/510 242/511/511 135/512/512
f 135/512/512 242/511/511 241/513/513
f 135/512/512 241/513/513 77/514/514
f 256/515/515 255/516/516 121/517/517
f 121/517/517 255/516/516 122/518/518
f 122/518/518 255/516/516 254/519/519
f 122/518/518 254/519/519 123/520/520
f 123/520/520 254/519/519 253/521/521
f 123/520/520 253/521/521 124/522/522
f 124/522/522 253/521/521 252/523/523
f 124/522/522 252/523/523 125/524/524
f 125/524/524 252/523/523 251/525/525
f 125/524/524 251/525/525 126/526/526
f 212/527/527 270/528/528 106/529/529
f 106/529/529 270/528/528 107/530/530
f 107/530/530 270/528/528 269/531/531
f 107/530/530 269/531/531 108/532/532
f 108/532/532 269/531/531 268/533/533
f 108/532/532 268/533/533 109/534/534
f 109/534/534 268/533/533 267/535/535
f 109/534/534 267/535/535 110/536/536
f 110/536/536 267/535/535 266/537/537
f 110/536/536 266/537/537 111/538/538
f 111/538/538 266/537/537 265/539/539
f 111/538/538 265/539/539 112/540/540
f 112/540/540 265/539/539 264/541/541
f 112/540/540 264/541/541 113/542/542
f 113/542/542 264/541/541 263/543/543
f 113/542/542 263/543/543 114/544/544
f 114/544/544 263/543/543 262/545/545
f 114/544/544 262/545/545 115/546/546
f 115/546/546 262/545/545 261/547/547
f 115/546/546 261/547/547 116/548/548
f 116/548/548 261/547/547 260/549/549
f 116/548/548 260/549/549 117/550/550
f 117/550/550 260/549/549 259/551/551
f 117/550/550 259/551/551 118/552/552
f 118/552/552 259/551/551 258/553/553
f 118/552/552 258/553/553 119/554/554
f 119/554/554 258/553/553 257/555/555
f 119/554/554 257/555/555 120/556/556
f 120/556/556 257/555/555 256/557/557
f 120/556/556 256/557/557 121/558/558
# 270 vertices
# 558 texture params
# 558 normals
# 540 facets

# 1 groups
