# WaveFront *.obj file (generated by Autodesk ATF)

mtllib body80_visual.mtl

g Body80

v -27.455700 -1.029513 -0.888661
v -27.455700 -1.255709 -0.949270
v -27.455700 -1.257262 -0.943474
v -27.455700 -1.031066 -0.882865
v -27.455700 -1.255192 -0.951202
v -27.455700 -1.028995 -0.890593
v -27.455700 -1.027442 -0.896388
v -27.455700 -1.253639 -0.956997
v -27.455700 -1.253121 -0.958929
v -27.455700 -1.026925 -0.898320
v -27.455700 -1.025372 -0.904116
v -27.455700 -1.251568 -0.964725
v -27.455700 -1.031583 -0.880934
v -27.455700 -1.257780 -0.941543
v -27.455700 -1.357186 -0.570553
v -27.455700 -1.130990 -0.509944
v -27.455700 -1.129058 -0.841374
v -27.455700 -1.229836 -0.883216
v -27.455700 -1.226328 -0.896306
v -27.455700 -1.086565 -0.838356
v -27.455700 -1.087062 -0.836498
v -27.455700 -1.221974 -0.808534
v -27.455700 -1.119080 -0.717006
v -27.455700 -1.119586 -0.715119
v -27.455700 -1.269631 -0.734699
v -27.455700 -1.266131 -0.747760
v -27.455700 -1.158159 -0.733698
v -27.455700 -1.248400 -0.813935
v -27.455700 -1.247614 -0.816866
v -27.455700 -1.164567 -0.606690
v -27.455700 -1.146571 -0.673852
v -27.455700 -1.131710 -0.669870
v -27.455700 -1.155601 -0.580708
v -27.455700 -1.283798 -0.696686
v -27.455700 -1.274606 -0.706262
v -27.455700 -1.251050 -0.966657
v -27.455700 -1.024854 -0.906048
v -27.455700 -1.023793 -0.910007
v -27.455700 -1.249990 -0.970616
v -27.340700 -1.176927 -0.501120
v -27.340700 -1.175940 -0.504803
v -27.355638 -1.176280 -0.503532
v -27.355303 -1.178076 -0.496831
v -27.353135 -1.179782 -0.490465
v -27.349239 -1.181268 -0.484919
v -27.343914 -1.182419 -0.480621
v -27.337572 -1.183148 -0.477902
v -27.330700 -1.183397 -0.476972
v -27.263700 -1.183397 -0.476972
v -27.257230 -1.183177 -0.477795
v -27.251200 -1.182530 -0.480207
v -27.246023 -1.181502 -0.484045
v -27.242050 -1.180162 -0.489046
v -27.239552 -1.178601 -0.494870
v -27.238700 -1.176927 -0.501120
v -27.238700 -1.152339 -0.592883
v -27.253700 -1.152339 -0.592883
v -27.253700 -1.176927 -0.501120
v -27.254462 -1.177917 -0.497424
v -27.256629 -1.178757 -0.494290
v -27.259874 -1.179318 -0.492196
v -27.263700 -1.179515 -0.491461
v -27.330700 -1.179515 -0.491461
v -27.334527 -1.179318 -0.492196
v -27.337772 -1.178757 -0.494290
v -27.339939 -1.177917 -0.497424
v -27.355638 -1.321169 -0.542355
v -27.340700 -1.320829 -0.543626
v -27.340700 -1.321815 -0.539943
v -27.339939 -1.322806 -0.536247
v -27.337772 -1.323646 -0.533113
v -27.334527 -1.324207 -0.531019
v -27.330700 -1.324404 -0.530284
v -27.263700 -1.324404 -0.530284
v -27.259874 -1.324207 -0.531019
v -27.256629 -1.323646 -0.533113
v -27.254462 -1.322806 -0.536247
v -27.253700 -1.321815 -0.539943
v -27.253700 -1.297228 -0.631706
v -27.238700 -1.297228 -0.631706
v -27.238700 -1.321815 -0.539943
v -27.239552 -1.323490 -0.533693
v -27.242050 -1.325051 -0.527869
v -27.246023 -1.326391 -0.522868
v -27.251200 -1.327419 -0.519030
v -27.257230 -1.328065 -0.516618
v -27.263700 -1.328286 -0.515795
v -27.330700 -1.328286 -0.515795
v -27.337572 -1.328037 -0.516725
v -27.343914 -1.327308 -0.519444
v -27.349239 -1.326157 -0.523742
v -27.353135 -1.324671 -0.529288
v -27.355303 -1.322965 -0.535654
v -27.339939 -1.250361 -0.516835
v -27.337772 -1.251201 -0.513702
v -27.334527 -1.251762 -0.511608
v -27.259874 -1.251762 -0.511608
v -27.256629 -1.251201 -0.513702
v -27.254462 -1.250361 -0.516835
v -27.330700 -1.197582 -1.003588
v -27.337572 -1.197832 -1.002657
v -27.343914 -1.198560 -0.999939
v -27.349239 -1.199712 -0.995641
v -27.353135 -1.201198 -0.990095
v -27.355303 -1.202904 -0.983728
v -27.355638 -1.204699 -0.977028
v -27.355638 -1.059810 -0.938205
v -27.355303 -1.058015 -0.944905
v -27.353135 -1.056309 -0.951272
v -27.349239 -1.054823 -0.956818
v -27.343914 -1.053671 -0.961116
v -27.337572 -1.052943 -0.963835
v -27.330700 -1.052693 -0.964765
v -27.340700 -1.059164 -0.940617
v -27.340700 -1.060151 -0.936934
v -27.340700 -1.205039 -0.975757
v -27.340700 -1.204053 -0.979439
v -27.339939 -1.058173 -0.944313
v -27.337772 -1.057334 -0.947447
v -27.334527 -1.056773 -0.949541
v -27.330700 -1.056576 -0.950276
v -27.263700 -1.056576 -0.950276
v -27.259874 -1.056773 -0.949541
v -27.256629 -1.057334 -0.947447
v -27.254462 -1.058173 -0.944313
v -27.253700 -1.059164 -0.940617
v -27.253700 -1.083752 -0.848854
v -27.238700 -1.083752 -0.848854
v -27.238700 -1.059164 -0.940617
v -27.239552 -1.057489 -0.946867
v -27.242050 -1.055929 -0.952691
v -27.246023 -1.054589 -0.957692
v -27.251200 -1.053560 -0.961529
v -27.257230 -1.052914 -0.963942
v -27.263700 -1.052693 -0.964765
v -27.263700 -1.197582 -1.003588
v -27.257230 -1.197803 -1.002765
v -27.251200 -1.198449 -1.000352
v -27.246023 -1.199477 -0.996515
v -27.242050 -1.200818 -0.991513
v -27.239552 -1.202378 -0.985689
v -27.238700 -1.204053 -0.979439
v -27.238700 -1.228641 -0.887676
v -27.253700 -1.228641 -0.887676
v -27.253700 -1.204053 -0.979439
v -27.254462 -1.203062 -0.983136
v -27.256629 -1.202223 -0.986270
v -27.259874 -1.201662 -0.988363
v -27.263700 -1.201465 -0.989099
v -27.330700 -1.201465 -0.989099
v -27.334527 -1.201662 -0.988363
v -27.337772 -1.202223 -0.986270
v -27.339939 -1.203062 -0.983136
v -27.259874 -1.129217 -0.968952
v -27.256629 -1.129778 -0.966858
v -27.254462 -1.130618 -0.963724
v -27.339939 -1.130618 -0.963724
v -27.337772 -1.129778 -0.966858
v -27.334527 -1.129217 -0.968952
v -27.452700 -1.022615 -0.886813
v -27.454327 -1.024628 -0.887352
v -27.455351 -1.026982 -0.887983
v -27.455351 -1.028535 -0.882187
v -27.454327 -1.026180 -0.881556
v -27.452700 -1.024168 -0.881017
v -27.452700 -1.024685 -0.879085
v -27.454327 -1.026698 -0.879624
v -27.455351 -1.029052 -0.880255
v -27.455021 -1.128427 -0.505505
v -27.453073 -1.126213 -0.501670
v -27.450123 -1.124648 -0.498959
v -27.446572 -1.123946 -0.497743
v -27.446572 -1.011592 -0.917051
v -27.450123 -1.012809 -0.916349
v -27.453073 -1.015519 -0.914784
v -27.455021 -1.019354 -0.912570
v -27.455351 -1.022323 -0.905369
v -27.454327 -1.019969 -0.904739
v -27.452700 -1.017956 -0.904199
v -27.452700 -1.018474 -0.902267
v -27.454327 -1.020486 -0.902807
v -27.455351 -1.022841 -0.903438
v -27.455351 -1.024394 -0.897642
v -27.454327 -1.022039 -0.897011
v -27.452700 -1.020027 -0.896472
v -27.452700 -1.020544 -0.894540
v -27.454327 -1.022557 -0.895079
v -27.455351 -1.024911 -0.895710
v -27.455351 -1.026464 -0.889915
v -27.454327 -1.024110 -0.889284
v -27.452700 -1.022097 -0.888744
v -27.453073 -1.033415 -0.847996
v -27.453073 -1.052140 -0.778111
v -27.453073 -1.070866 -0.708227
v -27.453073 -1.089591 -0.638342
v -27.453073 -1.108317 -0.568457
v -27.450123 -1.106179 -0.567885
v -27.450123 -1.087454 -0.637769
v -27.450123 -1.068728 -0.707654
v -27.450123 -1.050003 -0.777539
v -27.450123 -1.031277 -0.847423
v -27.455021 -1.036440 -0.848807
v -27.455021 -1.055165 -0.778922
v -27.455021 -1.073891 -0.709037
v -27.455021 -1.092616 -0.639153
v -27.455021 -1.111342 -0.569268
v -27.446572 -1.257034 -0.982817
v -27.450123 -1.256331 -0.981600
v -27.453073 -1.254767 -0.978890
v -27.455021 -1.252552 -0.975055
v -27.450123 -1.195930 -0.965416
v -27.450123 -1.134570 -0.948974
v -27.450123 -1.073210 -0.932533
v -27.453073 -1.196503 -0.963278
v -27.453073 -1.135143 -0.946837
v -27.453073 -1.073783 -0.930396
v -27.455021 -1.197314 -0.960254
v -27.455021 -1.135953 -0.943812
v -27.455021 -1.074593 -0.927371
v -27.455021 -1.361625 -0.567990
v -27.453073 -1.365460 -0.565776
v -27.450123 -1.368170 -0.564211
v -27.446572 -1.369387 -0.563509
v -27.455021 -1.306386 -0.553189
v -27.455021 -1.245026 -0.536748
v -27.455021 -1.183666 -0.520306
v -27.453073 -1.307197 -0.550164
v -27.453073 -1.245837 -0.533723
v -27.453073 -1.184476 -0.517281
v -27.450123 -1.307770 -0.548027
v -27.450123 -1.246409 -0.531585
v -27.450123 -1.185049 -0.515144
v -27.455351 -1.258240 -0.949948
v -27.454327 -1.260594 -0.950579
v -27.452700 -1.262607 -0.951118
v -27.452700 -1.262090 -0.953050
v -27.454327 -1.260077 -0.952511
v -27.455351 -1.257723 -0.951880
v -27.455351 -1.256170 -0.957676
v -27.454327 -1.258524 -0.958306
v -27.452700 -1.260537 -0.958846
v -27.452700 -1.260019 -0.960778
v -27.454327 -1.258006 -0.960238
v -27.455351 -1.255652 -0.959607
v -27.455351 -1.254099 -0.965403
v -27.454327 -1.256453 -0.966034
v -27.452700 -1.258466 -0.966573
v -27.452700 -1.257949 -0.968505
v -27.454327 -1.255936 -0.967966
v -27.455351 -1.253582 -0.967335
v -27.455351 -1.260311 -0.942221
v -27.454327 -1.262665 -0.942852
v -27.452700 -1.264678 -0.943391
v -27.452700 -1.264160 -0.945323
v -27.454327 -1.262147 -0.944783
v -27.455351 -1.259793 -0.944153
v -27.450123 -1.274800 -0.912675
v -27.450123 -1.293525 -0.842790
v -27.450123 -1.312251 -0.772906
v -27.450123 -1.330976 -0.703021
v -27.450123 -1.349702 -0.633136
v -27.453073 -1.347565 -0.632564
v -27.453073 -1.328839 -0.702448
v -27.453073 -1.310114 -0.772333
v -27.453073 -1.291388 -0.842218
v -27.453073 -1.272662 -0.912102
v -27.455021 -1.344540 -0.631753
v -27.455021 -1.325814 -0.701638
v -27.455021 -1.307089 -0.771522
v -27.455021 -1.288363 -0.841407
v -27.455021 -1.269638 -0.911292
v -27.355700 -1.001855 -0.922673
v -27.355700 -1.118324 -0.488006
v -27.263700 -1.124015 -0.497864
v -27.263700 -1.095133 -0.605654
v -27.243700 -1.095436 -0.611283
v -27.243700 -1.043673 -0.804468
v -27.263700 -1.040595 -0.809191
v -27.263700 -1.011713 -0.916981
v -27.355700 -1.262655 -0.992554
v -27.263700 -1.285846 -0.874906
v -27.263700 -1.256964 -0.982696
v -27.243700 -1.285543 -0.869277
v -27.243700 -1.337307 -0.676092
v -27.263700 -1.340384 -0.671368
v -27.263700 -1.369266 -0.563579
v -27.355700 -1.379124 -0.557887
v -27.452700 -1.229836 -0.883216
v -27.452700 -1.226328 -0.896306
v -27.452700 -1.086565 -0.838356
v -27.452700 -1.087062 -0.836498
v -27.452700 -1.221974 -0.808534
v -27.452700 -1.119080 -0.717006
v -27.452700 -1.119586 -0.715119
v -27.452700 -1.269631 -0.734699
v -27.452700 -1.266131 -0.747760
v -27.452700 -1.158159 -0.733698
v -27.452700 -1.248400 -0.813935
v -27.452700 -1.247614 -0.816866
v -27.452700 -1.129058 -0.841374
v -27.452700 -1.146571 -0.673852
v -27.452700 -1.131710 -0.669870
v -27.452700 -1.155601 -0.580708
v -27.452700 -1.283798 -0.696686
v -27.452700 -1.274606 -0.706262
v -27.452700 -1.164567 -0.606690
vt 0.031262 0.017912 0.000000
vt 0.037262 0.017912 0.000000
vt 0.031262 0.252088 0.000000
vt 0.037262 0.252088 0.000000
vt 0.029262 0.252088 0.000000
vt 0.023262 0.252088 0.000000
vt 0.029262 0.017912 0.000000
vt 0.023262 0.017912 0.000000
vt 0.021262 0.252088 0.000000
vt 0.015262 0.252088 0.000000
vt 0.021262 0.017912 0.000000
vt 0.015262 0.017912 0.000000
vt 0.039262 0.017912 0.000000
vt 0.074818 0.060000 0.000000
vt 0.039262 0.252088 0.000000
vt 0.094619 0.210000 0.000000
vt 0.096542 0.210000 0.000000
vt 0.423339 0.017912 0.000000
vt 0.282510 0.056154 0.000000
vt 0.228604 0.060000 0.000000
vt 0.160094 0.060000 0.000000
vt 0.214241 0.167933 0.000000
vt 0.361356 0.210000 0.000000
vt 0.423339 0.252088 0.000000
vt 0.269048 0.210000 0.000000
vt 0.222203 0.210000 0.000000
vt 0.269048 0.194615 0.000000
vt 0.242125 0.060000 0.000000
vt 0.270881 0.062554 0.000000
vt 0.220250 0.210000 0.000000
vt 0.158471 0.086923 0.000000
vt 0.102702 0.168173 0.000000
vt 0.088369 0.060000 0.000000
vt 0.157059 0.060000 0.000000
vt 0.338580 0.194615 0.000000
vt 0.013262 0.252088 0.000000
vt 0.009163 0.252088 0.000000
vt 0.013262 0.017912 0.000000
vt 0.009163 0.017912 0.000000
vt -0.003812 -0.010000 0.000000
vt -0.002497 -0.024938 0.000000
vt -0.000000 -0.010000 0.000000
vt 0.004440 -0.024603 0.000000
vt 0.003827 -0.009239 0.000000
vt 0.011032 -0.022434 0.000000
vt 0.016773 -0.018538 0.000000
vt 0.007071 -0.007071 0.000000
vt 0.021222 -0.013214 0.000000
vt 0.009239 -0.003827 0.000000
vt 0.024037 -0.006872 0.000000
vt 0.010000 0.000000 0.000000
vt 0.025000 0.000000 0.000000
vt 0.010000 0.067000 0.000000
vt 0.025000 0.067000 0.000000
vt 0.024148 0.073470 0.000000
vt 0.009239 0.070827 0.000000
vt 0.021651 0.079500 0.000000
vt 0.007071 0.074071 0.000000
vt 0.017678 0.084678 0.000000
vt 0.012500 0.088651 0.000000
vt 0.003827 0.076239 0.000000
vt 0.006470 0.091148 0.000000
vt 0.000000 0.077000 0.000000
vt 0.000000 0.092000 0.000000
vt -0.095000 0.077000 0.000000
vt -0.095000 0.092000 0.000000
vt 0.003812 -0.010000 0.000000
vt 0.000000 -0.010000 0.000000
vt 0.002497 -0.024938 0.000000
vt -0.004440 -0.024603 0.000000
vt -0.003827 -0.009239 0.000000
vt -0.011032 -0.022434 0.000000
vt -0.016773 -0.018538 0.000000
vt -0.007071 -0.007071 0.000000
vt -0.021222 -0.013214 0.000000
vt -0.009239 -0.003827 0.000000
vt -0.024037 -0.006872 0.000000
vt -0.010000 0.000000 0.000000
vt -0.025000 0.000000 0.000000
vt -0.025000 0.067000 0.000000
vt -0.010000 0.067000 0.000000
vt -0.024148 0.073470 0.000000
vt -0.009239 0.070827 0.000000
vt -0.021651 0.079500 0.000000
vt -0.007071 0.074071 0.000000
vt -0.017678 0.084678 0.000000
vt -0.012500 0.088651 0.000000
vt -0.003827 0.076239 0.000000
vt -0.006470 0.091148 0.000000
vt -0.000000 0.077000 0.000000
vt -0.000000 0.092000 0.000000
vt 0.095000 0.077000 0.000000
vt 0.095000 0.092000 0.000000
vt 0.000000 0.015708 0.000000
vt 0.150000 0.015708 0.000000
vt 0.075000 0.019635 0.000000
vt 0.150000 0.019635 0.000000
vt 0.075000 0.023562 0.000000
vt 0.150000 0.023562 0.000000
vt 0.075000 0.027489 0.000000
vt 0.150000 0.027489 0.000000
vt 0.150000 0.031416 0.000000
vt 0.000000 0.031416 0.000000
vt 0.000000 0.027489 0.000000
vt -0.000000 0.023562 0.000000
vt -0.000000 0.019635 0.000000
vt 0.067000 0.150000 0.000000
vt 0.000000 0.150000 0.000000
vt 0.067000 -0.000000 0.000000
vt 0.000000 0.000000 0.000000
vt -0.000000 -0.031416 0.000000
vt 0.150000 -0.031416 0.000000
vt 0.075000 -0.027489 0.000000
vt 0.150000 -0.027489 0.000000
vt 0.075000 -0.023562 0.000000
vt 0.150000 -0.023562 0.000000
vt 0.075000 -0.019635 0.000000
vt 0.150000 -0.019635 0.000000
vt 0.150000 -0.015708 0.000000
vt 0.000000 -0.015708 0.000000
vt -0.000000 -0.019635 0.000000
vt -0.000000 -0.023562 0.000000
vt 0.000000 -0.027489 0.000000
vt 0.095000 0.150000 0.000000
vt -0.000000 0.150000 0.000000
vt 0.095000 0.000000 0.000000
vt 0.000000 0.000000 0.000000
vt 0.015000 0.150000 0.000000
vt 0.000000 0.150000 0.000000
vt 0.015000 -0.000000 0.000000
vt 0.000000 0.000000 0.000000
vt 0.095000 0.150000 0.000000
vt 0.000000 0.150000 0.000000
vt 0.095000 -0.000000 0.000000
vt 0.000000 0.000000 0.000000
vt -0.000000 -0.039270 0.000000
vt -0.150000 -0.039270 0.000000
vt -0.000000 -0.045815 0.000000
vt -0.150000 -0.045815 0.000000
vt -0.000000 -0.052360 0.000000
vt -0.150000 -0.052360 0.000000
vt -0.000000 -0.058905 0.000000
vt -0.150000 -0.058905 0.000000
vt -0.000000 -0.065450 0.000000
vt -0.150000 -0.065450 0.000000
vt 0.000000 -0.071995 0.000000
vt -0.150000 -0.071995 0.000000
vt -0.000000 -0.078540 0.000000
vt -0.150000 -0.078540 0.000000
vt 0.067000 0.150000 0.000000
vt -0.000000 0.150000 0.000000
vt 0.067000 0.000000 0.000000
vt 0.000000 0.000000 0.000000
vt -0.000000 -0.078540 0.000000
vt -0.150000 -0.078540 0.000000
vt 0.000000 -0.085501 0.000000
vt -0.150000 -0.085501 0.000000
vt 0.000000 -0.092462 0.000000
vt -0.150000 -0.092462 0.000000
vt -0.000000 -0.099423 0.000000
vt -0.150000 -0.099423 0.000000
vt 0.000000 -0.106385 0.000000
vt -0.150000 -0.106385 0.000000
vt -0.000000 -0.113346 0.000000
vt -0.150000 -0.113346 0.000000
vt -0.000000 -0.120304 0.000000
vt -0.150000 -0.120304 0.000000
vt 0.000000 0.003812 0.000000
vt -0.150000 0.003812 0.000000
vt -0.000000 0.000000 0.000000
vt -0.150000 0.000000 0.000000
vt -0.000000 -0.078540 0.000000
vt -0.150000 -0.078540 0.000000
vt -0.000000 -0.085501 0.000000
vt -0.150000 -0.085501 0.000000
vt -0.000000 -0.092462 0.000000
vt -0.150000 -0.092462 0.000000
vt -0.000000 -0.099423 0.000000
vt -0.150000 -0.099423 0.000000
vt -0.000000 -0.106385 0.000000
vt -0.150000 -0.106385 0.000000
vt 0.000000 -0.113346 0.000000
vt -0.150000 -0.113346 0.000000
vt -0.000000 -0.120304 0.000000
vt -0.150000 -0.120304 0.000000
vt 0.000000 0.000000 0.000000
vt -0.003812 -0.000000 0.000000
vt -0.000000 -0.150000 0.000000
vt -0.003812 -0.150000 0.000000
vt 0.010000 0.003812 0.000000
vt 0.010000 0.000000 0.000000
vt 0.024938 0.002497 0.000000
vt 0.024603 -0.004440 0.000000
vt 0.009239 -0.003827 0.000000
vt 0.022434 -0.011032 0.000000
vt 0.018538 -0.016773 0.000000
vt 0.007071 -0.007071 0.000000
vt 0.013214 -0.021222 0.000000
vt 0.003827 -0.009239 0.000000
vt 0.006872 -0.024037 0.000000
vt 0.000000 -0.010000 0.000000
vt 0.000000 -0.025000 0.000000
vt -0.067000 -0.010000 0.000000
vt -0.067000 -0.025000 0.000000
vt -0.073470 -0.024148 0.000000
vt -0.070827 -0.009239 0.000000
vt -0.079500 -0.021651 0.000000
vt -0.074071 -0.007071 0.000000
vt -0.084678 -0.017678 0.000000
vt -0.088651 -0.012500 0.000000
vt -0.076239 -0.003827 0.000000
vt -0.091148 -0.006470 0.000000
vt -0.077000 0.000000 0.000000
vt -0.092000 0.000000 0.000000
vt -0.092000 0.095000 0.000000
vt -0.077000 0.095000 0.000000
vt -0.010000 0.003812 0.000000
vt -0.024938 0.002497 0.000000
vt -0.010000 0.000000 0.000000
vt -0.024603 -0.004440 0.000000
vt -0.009239 -0.003827 0.000000
vt -0.022434 -0.011032 0.000000
vt -0.018538 -0.016773 0.000000
vt -0.007071 -0.007071 0.000000
vt -0.013214 -0.021222 0.000000
vt -0.003827 -0.009239 0.000000
vt -0.006872 -0.024037 0.000000
vt -0.000000 -0.010000 0.000000
vt -0.000000 -0.025000 0.000000
vt 0.067000 -0.010000 0.000000
vt 0.067000 -0.025000 0.000000
vt 0.073470 -0.024148 0.000000
vt 0.070827 -0.009239 0.000000
vt 0.079500 -0.021651 0.000000
vt 0.074071 -0.007071 0.000000
vt 0.084678 -0.017678 0.000000
vt 0.088651 -0.012500 0.000000
vt 0.076239 -0.003827 0.000000
vt 0.091148 -0.006470 0.000000
vt 0.077000 0.000000 0.000000
vt 0.092000 0.000000 0.000000
vt 0.077000 0.095000 0.000000
vt 0.092000 0.095000 0.000000
vt -0.067000 -0.150000 0.000000
vt -0.000000 -0.150000 0.000000
vt -0.067000 0.000000 0.000000
vt 0.000000 0.000000 0.000000
vt 0.000000 -0.039270 0.000000
vt -0.150000 -0.039270 0.000000
vt 0.000000 -0.045815 0.000000
vt -0.150000 -0.045815 0.000000
vt 0.000000 -0.052360 0.000000
vt -0.150000 -0.052360 0.000000
vt 0.000000 -0.058905 0.000000
vt -0.150000 -0.058905 0.000000
vt 0.000000 -0.065450 0.000000
vt -0.150000 -0.065450 0.000000
vt 0.000000 -0.071995 0.000000
vt -0.150000 -0.071995 0.000000
vt 0.000000 -0.078540 0.000000
vt -0.150000 -0.078540 0.000000
vt 0.150000 -0.000000 0.000000
vt -0.000000 0.000000 0.000000
vt 0.150000 -0.095000 0.000000
vt 0.000000 -0.095000 0.000000
vt -0.150000 -0.000000 0.000000
vt 0.000000 0.000000 0.000000
vt -0.150000 0.015000 0.000000
vt -0.000000 0.015000 0.000000
vt -0.095000 -0.150000 0.000000
vt 0.000000 -0.150000 0.000000
vt -0.095000 0.000000 0.000000
vt 0.000000 0.000000 0.000000
vt 0.000000 -0.031416 0.000000
vt 0.150000 -0.031416 0.000000
vt 0.075000 -0.027489 0.000000
vt 0.150000 -0.027489 0.000000
vt 0.075000 -0.023562 0.000000
vt 0.150000 -0.023562 0.000000
vt 0.075000 -0.019635 0.000000
vt 0.150000 -0.019635 0.000000
vt 0.150000 -0.015708 0.000000
vt -0.000000 -0.015708 0.000000
vt -0.000000 -0.019635 0.000000
vt -0.000000 -0.023562 0.000000
vt 0.000000 -0.027489 0.000000
vt -0.150000 -0.000000 0.000000
vt 0.000000 0.000000 0.000000
vt -0.150000 0.067000 0.000000
vt 0.000000 0.067000 0.000000
vt 0.000000 0.015708 0.000000
vt 0.150000 0.015708 0.000000
vt 0.075000 0.019635 0.000000
vt 0.150000 0.019635 0.000000
vt 0.075000 0.023562 0.000000
vt 0.150000 0.023562 0.000000
vt 0.075000 0.027489 0.000000
vt 0.150000 0.027489 0.000000
vt 0.150000 0.031416 0.000000
vt 0.000000 0.031416 0.000000
vt 0.000000 0.027489 0.000000
vt -0.000000 0.023562 0.000000
vt -0.000000 0.019635 0.000000
vt -0.031262 0.010405 0.000000
vt -0.037262 0.007754 0.000000
vt -0.031262 0.007754 0.000000
vt -0.000195 0.004581 0.000000
vt -0.029262 0.007754 0.000000
vt -0.023262 0.007754 0.000000
vt -0.023262 0.010405 0.000000
vt -0.037262 0.010405 0.000000
vt -0.031262 0.013057 0.000000
vt -0.037262 0.013057 0.000000
vt -0.037262 0.015708 0.000000
vt -0.031262 0.015708 0.000000
vt -0.071551 0.004581 0.000000
vt -0.039262 0.007754 0.000000
vt -0.071551 0.008290 0.000000
vt -0.039262 0.010405 0.000000
vt -0.071551 0.011999 0.000000
vt -0.039262 0.013057 0.000000
vt -0.143901 0.011999 0.000000
vt -0.423339 0.015708 0.000000
vt -0.216251 0.011999 0.000000
vt -0.288601 0.011999 0.000000
vt -0.216251 0.008290 0.000000
vt -0.288601 0.008290 0.000000
vt -0.216251 0.004581 0.000000
vt -0.288601 0.004581 0.000000
vt -0.433301 0.000873 0.000000
vt -0.360951 0.004581 0.000000
vt -0.432308 0.004581 0.000000
vt -0.430095 0.008290 0.000000
vt -0.360951 0.008290 0.000000
vt -0.426963 0.011999 0.000000
vt -0.360951 0.011999 0.000000
vt -0.039262 0.015708 0.000000
vt 0.000799 0.000873 0.000000
vt -0.143901 0.004581 0.000000
vt -0.143901 0.008290 0.000000
vt -0.002407 0.008290 0.000000
vt -0.013262 0.007754 0.000000
vt -0.015262 0.007754 0.000000
vt -0.021262 0.007754 0.000000
vt -0.015262 0.010405 0.000000
vt -0.021262 0.010405 0.000000
vt -0.015262 0.013057 0.000000
vt -0.021262 0.013057 0.000000
vt -0.021262 0.015708 0.000000
vt -0.015262 0.015708 0.000000
vt -0.013262 0.010405 0.000000
vt -0.005539 0.011999 0.000000
vt -0.013262 0.013057 0.000000
vt -0.009163 0.015708 0.000000
vt -0.013262 0.015708 0.000000
vt -0.029262 0.010405 0.000000
vt -0.023262 0.013057 0.000000
vt -0.029262 0.013057 0.000000
vt -0.029262 0.015708 0.000000
vt -0.023262 0.015708 0.000000
vt -0.008943 0.004581 0.000000
vt -0.071475 0.004581 0.000000
vt -0.007950 0.000873 0.000000
vt -0.135000 0.004581 0.000000
vt -0.262050 0.000873 0.000000
vt -0.198525 0.004581 0.000000
vt -0.261057 0.004581 0.000000
vt -0.258844 0.008290 0.000000
vt -0.198525 0.008290 0.000000
vt -0.255712 0.011999 0.000000
vt -0.198525 0.011999 0.000000
vt -0.252088 0.015708 0.000000
vt -0.135000 0.011999 0.000000
vt -0.017912 0.015708 0.000000
vt -0.071475 0.011999 0.000000
vt -0.014288 0.011999 0.000000
vt -0.071475 0.008290 0.000000
vt -0.011156 0.008290 0.000000
vt -0.135000 0.008290 0.000000
vt -0.014288 0.019417 0.000000
vt -0.071475 0.019417 0.000000
vt -0.017912 0.015708 0.000000
vt -0.135000 0.019417 0.000000
vt -0.252088 0.015708 0.000000
vt -0.198525 0.019417 0.000000
vt -0.255712 0.019417 0.000000
vt -0.198525 0.023126 0.000000
vt -0.258844 0.023126 0.000000
vt -0.198525 0.026834 0.000000
vt -0.261057 0.026834 0.000000
vt -0.262050 0.030543 0.000000
vt -0.135000 0.026834 0.000000
vt -0.007950 0.030543 0.000000
vt -0.071475 0.026834 0.000000
vt -0.008943 0.026834 0.000000
vt -0.011156 0.023126 0.000000
vt -0.071475 0.023126 0.000000
vt -0.135000 0.023126 0.000000
vt 0.403989 0.015708 0.000000
vt 0.409989 0.015708 0.000000
vt 0.403989 0.018359 0.000000
vt 0.409989 0.018359 0.000000
vt 0.409989 0.021011 0.000000
vt 0.403989 0.021011 0.000000
vt 0.409989 0.023662 0.000000
vt 0.403989 0.023662 0.000000
vt 0.441057 0.026834 0.000000
vt 0.369700 0.026834 0.000000
vt 0.442050 0.030543 0.000000
vt 0.297350 0.026834 0.000000
vt 0.225000 0.026834 0.000000
vt 0.297350 0.023126 0.000000
vt 0.225000 0.023126 0.000000
vt 0.297350 0.019417 0.000000
vt 0.225000 0.019417 0.000000
vt 0.401989 0.015708 0.000000
vt 0.017912 0.015708 0.000000
vt 0.152650 0.019417 0.000000
vt 0.080300 0.019417 0.000000
vt 0.080300 0.023126 0.000000
vt 0.014288 0.019417 0.000000
vt 0.011156 0.023126 0.000000
vt 0.080300 0.026834 0.000000
vt 0.008943 0.026834 0.000000
vt 0.007950 0.030543 0.000000
vt 0.152650 0.026834 0.000000
vt 0.411989 0.023662 0.000000
vt 0.417989 0.023662 0.000000
vt 0.419989 0.023662 0.000000
vt 0.411989 0.021011 0.000000
vt 0.417989 0.021011 0.000000
vt 0.411989 0.018359 0.000000
vt 0.417989 0.018359 0.000000
vt 0.417989 0.015708 0.000000
vt 0.411989 0.015708 0.000000
vt 0.425989 0.023662 0.000000
vt 0.419989 0.021011 0.000000
vt 0.425989 0.021011 0.000000
vt 0.419989 0.018359 0.000000
vt 0.425989 0.018359 0.000000
vt 0.425989 0.015708 0.000000
vt 0.419989 0.015708 0.000000
vt 0.427989 0.023662 0.000000
vt 0.438844 0.023126 0.000000
vt 0.427989 0.021011 0.000000
vt 0.435712 0.019417 0.000000
vt 0.427989 0.018359 0.000000
vt 0.432088 0.015708 0.000000
vt 0.427989 0.015708 0.000000
vt 0.369700 0.019417 0.000000
vt 0.401989 0.018359 0.000000
vt 0.401989 0.021011 0.000000
vt 0.369700 0.023126 0.000000
vt 0.401989 0.023662 0.000000
vt 0.152650 0.023126 0.000000
vt 0.091219 -0.442050 0.000000
vt 0.091219 -0.007950 0.000000
vt 0.000000 -0.450000 0.000000
vt -0.000000 0.000000 0.000000
vt -0.441951 -0.020076 0.000000
vt -0.450000 -0.112428 0.000000
vt -0.330359 -0.020076 0.000000
vt -0.000000 -0.112428 0.000000
vt -0.119641 -0.020076 0.000000
vt -0.008049 -0.020076 0.000000
vt -0.125000 -0.000000 0.000000
vt -0.325000 -0.000000 0.000000
vt 0.000000 0.000000 0.000000
vt 0.007950 -0.091219 0.000000
vt 0.060000 0.000062 0.000000
vt 0.262050 -0.091219 0.000000
vt 0.210000 0.000062 0.000000
vt 0.270000 -0.000000 0.000000
vt -0.261951 0.000000 0.000000
vt -0.008049 0.000000 0.000000
vt -0.261951 0.111592 0.000000
vt -0.008049 0.111592 0.000000
vt 0.020706 0.261951 0.000000
vt 0.000000 0.260201 0.000000
vt 0.020706 0.008049 0.000000
vt 0.000000 0.009799 0.000000
vt -0.260201 0.000000 0.000000
vt -0.009799 -0.000000 0.000000
vt -0.260201 0.200000 0.000000
vt -0.009799 0.200000 0.000000
vt -0.261951 0.000000 0.000000
vt -0.008049 -0.000000 0.000000
vt -0.260201 0.020706 0.000000
vt -0.009799 0.020706 0.000000
vt -0.261951 0.000000 0.000000
vt -0.008049 -0.000000 0.000000
vt -0.261951 0.111592 0.000000
vt -0.008049 0.111592 0.000000
vt -0.270000 0.100382 0.000000
vt -0.262050 0.009163 0.000000
vt -0.210000 0.100444 0.000000
vt -0.007950 0.009163 0.000000
vt -0.060000 0.100444 0.000000
vt 0.000000 0.100382 0.000000
vt 0.008049 0.092351 0.000000
vt -0.000000 0.000000 0.000000
vt 0.119641 0.092351 0.000000
vt 0.450000 -0.000000 0.000000
vt 0.330359 0.092351 0.000000
vt 0.441951 0.092351 0.000000
vt 0.325000 0.112428 0.000000
vt 0.125000 0.112428 0.000000
vt -0.007950 -0.009163 0.000000
vt -0.442050 -0.009163 0.000000
vt 0.000000 -0.100382 0.000000
vt -0.450000 -0.100382 0.000000
vt 0.077294 0.210000 0.000000
vt 0.000000 0.008049 0.000000
vt 0.077294 0.060000 0.000000
vt 0.092351 -0.000000 0.000000
vt 0.092290 0.060000 0.000000
vt 0.092290 0.210000 0.000000
vt 0.092351 0.270000 0.000000
vt 0.000000 0.261951 0.000000
vt -0.060000 0.015057 0.000000
vt -0.261951 0.092351 0.000000
vt -0.210000 0.015057 0.000000
vt -0.270000 -0.000000 0.000000
vt -0.210000 0.000062 0.000000
vt -0.060000 0.000062 0.000000
vt -0.000000 0.000000 0.000000
vt -0.008049 0.092351 0.000000
vt 0.003000 0.000000 0.000000
vt 0.000000 0.000000 0.000000
vt 0.003000 -0.013552 0.000000
vt 0.000000 -0.013552 0.000000
vt 0.151301 0.003000 0.000000
vt -0.000000 0.003000 0.000000
vt 0.151301 -0.000000 0.000000
vt 0.000000 0.000000 0.000000
vt -0.003000 0.000000 0.000000
vt 0.000000 0.000000 0.000000
vt -0.003000 0.001923 0.000000
vt 0.000000 0.001923 0.000000
vt 0.137779 0.003000 0.000000
vt 0.000000 0.003000 0.000000
vt 0.137779 0.000000 0.000000
vt 0.000000 0.000000 0.000000
vt 0.137712 0.003000 0.000000
vt -0.000000 0.003000 0.000000
vt 0.137712 -0.000000 0.000000
vt 0.000000 0.000000 0.000000
vt -0.003000 0.000000 0.000000
vt 0.000000 0.000000 0.000000
vt -0.003000 0.001953 0.000000
vt 0.000000 0.001953 0.000000
vt 0.151317 0.003000 0.000000
vt 0.000000 0.003000 0.000000
vt 0.151317 0.000000 0.000000
vt -0.000000 0.000000 0.000000
vt 0.003000 0.000000 0.000000
vt 0.000000 0.000000 0.000000
vt 0.003000 -0.013522 0.000000
vt 0.000000 -0.013522 0.000000
vt 0.108884 0.003000 0.000000
vt -0.000000 0.003000 0.000000
vt 0.108884 -0.000000 0.000000
vt 0.000000 0.000000 0.000000
vt 0.120753 0.003000 0.000000
vt 0.000000 0.003000 0.000000
vt 0.120753 0.000000 0.000000
vt -0.000000 0.000000 0.000000
vt 0.003000 0.000000 0.000000
vt 0.000000 0.000000 0.000000
vt 0.003000 -0.003035 0.000000
vt 0.000000 -0.003035 0.000000
vt 0.121062 0.003000 0.000000
vt 0.000000 0.003000 0.000000
vt 0.121062 -0.000000 0.000000
vt 0.000000 0.000000 0.000000
vt 0.109119 0.003000 0.000000
vt 0.000000 0.003000 0.000000
vt 0.109119 0.000000 0.000000
vt -0.000000 0.000000 0.000000
vt 0.097118 0.035000 0.000000
vt 0.111451 0.143173 0.000000
vt 0.083566 0.035000 0.000000
vt 0.103368 0.185000 0.000000
vt 0.105291 0.185000 0.000000
vt 0.167220 0.061923 0.000000
vt 0.165808 0.035000 0.000000
vt 0.168843 0.035000 0.000000
vt 0.222990 0.142933 0.000000
vt 0.228999 0.185000 0.000000
vt 0.230952 0.185000 0.000000
vt 0.250874 0.035000 0.000000
vt 0.237353 0.035000 0.000000
vt 0.003000 -0.017912 0.000000
vt 0.002651 -0.015292 0.000000
vt 0.003000 -0.252088 0.000000
vt 0.002651 -0.254708 0.000000
vt 0.001627 -0.012855 0.000000
vt 0.001627 -0.257145 0.000000
vt 0.000000 -0.259229 0.000000
vt -0.000000 -0.010771 0.000000
vt 0.000000 -0.010771 0.000000
vt -0.001627 -0.012855 0.000000
vt -0.000000 -0.259229 0.000000
vt -0.001627 -0.257145 0.000000
vt -0.002651 -0.254708 0.000000
vt -0.002651 -0.015292 0.000000
vt -0.003000 -0.252088 0.000000
vt -0.003000 -0.017912 0.000000
vt 0.001000 -0.010771 0.000000
vt -0.001000 -0.010771 0.000000
vt 0.001000 -0.259229 0.000000
vt -0.001000 -0.259229 0.000000
vt -0.003000 -0.000000 0.000000
vt 0.000000 0.000000 0.000000
vt -0.003000 0.015385 0.000000
vt -0.000000 0.015385 0.000000
vt -0.003000 0.000000 0.000000
vt 0.000000 0.000000 0.000000
vt -0.003000 0.092308 0.000000
vt -0.000000 0.092308 0.000000
vt 0.172874 0.003000 0.000000
vt 0.000000 0.003000 0.000000
vt 0.172874 -0.000000 0.000000
vt -0.000000 0.000000 0.000000
vt 0.013274 0.003000 0.000000
vt -0.000000 0.003000 0.000000
vt 0.013274 0.000000 0.000000
vt 0.000000 0.000000 0.000000
vt 0.148402 0.003000 0.000000
vt -0.000000 0.003000 0.000000
vt 0.148402 0.000000 0.000000
vt 0.000000 0.000000 0.000000
vt 0.003000 0.000000 0.000000
vt 0.000000 0.000000 0.000000
vt 0.003000 -0.069531 0.000000
vt -0.000000 -0.069531 0.000000
vt 0.277797 0.169615 0.000000
vt 0.347328 0.169615 0.000000
vt 0.277797 0.185000 0.000000
vt 0.370105 0.185000 0.000000
vt 0.291259 0.031154 0.000000
vt 0.279630 0.037554 0.000000
vt 0.003000 -0.017912 0.000000
vt 0.002651 -0.015292 0.000000
vt 0.003000 -0.252088 0.000000
vt 0.002651 -0.254708 0.000000
vt 0.001627 -0.012855 0.000000
vt 0.001627 -0.257145 0.000000
vt 0.000000 -0.259229 0.000000
vt -0.000000 -0.010771 0.000000
vt 0.000000 -0.010771 0.000000
vt -0.001627 -0.012855 0.000000
vt -0.000000 -0.259229 0.000000
vt -0.001627 -0.257145 0.000000
vt -0.002651 -0.254708 0.000000
vt -0.002651 -0.015292 0.000000
vt -0.003000 -0.252088 0.000000
vt -0.003000 -0.017912 0.000000
vt 0.001000 -0.010771 0.000000
vt -0.001000 -0.010771 0.000000
vt 0.001000 -0.259229 0.000000
vt -0.001000 -0.259229 0.000000
vt 0.003000 -0.017912 0.000000
vt 0.002651 -0.015292 0.000000
vt 0.003000 -0.252088 0.000000
vt 0.002651 -0.254708 0.000000
vt 0.001627 -0.012855 0.000000
vt 0.001627 -0.257145 0.000000
vt 0.000000 -0.259229 0.000000
vt -0.000000 -0.010771 0.000000
vt 0.000000 -0.010771 0.000000
vt -0.001627 -0.012855 0.000000
vt -0.000000 -0.259229 0.000000
vt -0.001627 -0.257145 0.000000
vt -0.002651 -0.254708 0.000000
vt -0.002651 -0.015292 0.000000
vt -0.003000 -0.252088 0.000000
vt -0.003000 -0.017912 0.000000
vt 0.001000 -0.010771 0.000000
vt -0.001000 -0.010771 0.000000
vt 0.001000 -0.259229 0.000000
vt -0.001000 -0.259229 0.000000
vt 0.003000 -0.017912 0.000000
vt 0.002651 -0.015292 0.000000
vt 0.003000 -0.252088 0.000000
vt 0.002651 -0.254708 0.000000
vt 0.001627 -0.012855 0.000000
vt 0.001627 -0.257145 0.000000
vt 0.000000 -0.259229 0.000000
vt -0.000000 -0.010771 0.000000
vt 0.000000 -0.010771 0.000000
vt -0.001627 -0.012855 0.000000
vt -0.000000 -0.259229 0.000000
vt -0.001627 -0.257145 0.000000
vt -0.002651 -0.254708 0.000000
vt -0.002651 -0.015292 0.000000
vt -0.003000 -0.252088 0.000000
vt -0.003000 -0.017912 0.000000
vt 0.001000 -0.010771 0.000000
vt -0.001000 -0.010771 0.000000
vt 0.001000 -0.259229 0.000000
vt -0.001000 -0.259229 0.000000
vn -1.000000 0.000000 -0.000000
vn -1.000000 0.000000 -0.000000
vn -1.000000 0.000000 -0.000000
vn -1.000000 0.000000 -0.000000
vn -1.000000 0.000000 -0.000000
vn -1.000000 0.000000 -0.000000
vn -1.000000 0.000000 -0.000000
vn -1.000000 0.000000 -0.000000
vn -1.000000 0.000000 -0.000000
vn -1.000000 0.000000 -0.000000
vn -1.000000 0.000000 -0.000000
vn -1.000000 0.000000 -0.000000
vn -1.000000 0.000000 -0.000000
vn -1.000000 0.000000 -0.000000
vn -1.000000 0.000000 -0.000000
vn -1.000000 0.000000 -0.000000
vn -1.000000 0.000000 -0.000000
vn -1.000000 0.000000 -0.000000
vn -1.000000 0.000000 -0.000000
vn -1.000000 0.000000 -0.000000
vn -1.000000 0.000000 -0.000000
vn -1.000000 0.000000 -0.000000
vn -1.000000 0.000000 -0.000000
vn -1.000000 0.000000 -0.000000
vn -1.000000 0.000000 -0.000000
vn -1.000000 0.000000 -0.000000
vn -1.000000 0.000000 -0.000000
vn -1.000000 0.000000 -0.000000
vn -1.000000 0.000000 -0.000000
vn -1.000000 0.000000 -0.000000
vn -1.000000 0.000000 -0.000000
vn -1.000000 0.000000 -0.000000
vn -1.000000 0.000000 -0.000000
vn -1.000000 0.000000 -0.000000
vn -1.000000 0.000000 -0.000000
vn -1.000000 0.000000 -0.000000
vn -1.000000 0.000000 -0.000000
vn -1.000000 0.000000 -0.000000
vn -1.000000 0.000000 -0.000000
vn 0.000000 0.965926 0.258819
vn 0.000000 0.965926 0.258819
vn 0.000000 0.965926 0.258819
vn 0.000000 0.965926 0.258819
vn 0.000000 0.965926 0.258819
vn 0.000000 0.965926 0.258819
vn 0.000000 0.965926 0.258819
vn 0.000000 0.965926 0.258819
vn 0.000000 0.965926 0.258819
vn 0.000000 0.965926 0.258819
vn 0.000000 0.965926 0.258819
vn 0.000000 0.965926 0.258819
vn 0.000000 0.965926 0.258819
vn 0.000000 0.965926 0.258819
vn 0.000000 0.965926 0.258819
vn 0.000000 0.965926 0.258819
vn 0.000000 0.965926 0.258819
vn 0.000000 0.965926 0.258819
vn 0.000000 0.965926 0.258819
vn 0.000000 0.965926 0.258819
vn 0.000000 0.965926 0.258819
vn 0.000000 0.965926 0.258819
vn 0.000000 0.965926 0.258819
vn 0.000000 0.965926 0.258819
vn 0.000000 0.965926 0.258819
vn 0.000000 0.965926 0.258819
vn 0.000000 0.965926 0.258819
vn -0.000000 -0.965926 -0.258819
vn -0.000000 -0.965926 -0.258819
vn -0.000000 -0.965926 -0.258819
vn -0.000000 -0.965926 -0.258819
vn -0.000000 -0.965926 -0.258819
vn -0.000000 -0.965926 -0.258819
vn -0.000000 -0.965926 -0.258819
vn -0.000000 -0.965926 -0.258819
vn -0.000000 -0.965926 -0.258819
vn -0.000000 -0.965926 -0.258819
vn -0.000000 -0.965926 -0.258819
vn -0.000000 -0.965926 -0.258819
vn -0.000000 -0.965926 -0.258819
vn -0.000000 -0.965926 -0.258819
vn -0.000000 -0.965926 -0.258819
vn -0.000000 -0.965926 -0.258819
vn -0.000000 -0.965926 -0.258819
vn -0.000000 -0.965926 -0.258819
vn -0.000000 -0.965926 -0.258819
vn -0.000000 -0.965926 -0.258819
vn -0.000000 -0.965926 -0.258819
vn -0.000000 -0.965926 -0.258819
vn -0.000000 -0.965926 -0.258819
vn -0.000000 -0.965926 -0.258819
vn -0.000000 -0.965926 -0.258819
vn -0.000000 -0.965926 -0.258819
vn -0.000000 -0.965926 -0.258819
vn 1.000000 -0.000000 0.000000
vn 1.000000 -0.000000 0.000000
vn 0.923880 0.099046 -0.369644
vn 0.923880 0.099046 -0.369644
vn 0.707107 0.183013 -0.683013
vn 0.707107 0.183013 -0.683013
vn 0.382683 0.239118 -0.892399
vn 0.382683 0.239118 -0.892399
vn 0.000000 0.258819 -0.965926
vn 0.000000 0.258819 -0.965926
vn 0.382683 0.239118 -0.892399
vn 0.707107 0.183013 -0.683013
vn 0.923880 0.099046 -0.369644
vn 0.000000 0.258819 -0.965926
vn 0.000000 0.258819 -0.965926
vn -0.382683 0.239118 -0.892399
vn -0.382683 0.239118 -0.892399
vn -0.707107 0.183013 -0.683013
vn -0.707107 0.183013 -0.683013
vn -0.923880 0.099046 -0.369644
vn -0.923880 0.099046 -0.369644
vn -1.000000 0.000000 0.000000
vn -1.000000 0.000000 0.000000
vn -0.923880 0.099046 -0.369644
vn -0.707107 0.183013 -0.683013
vn -0.382683 0.239118 -0.892399
vn -1.000000 0.000000 -0.000000
vn -1.000000 0.000000 -0.000000
vn 0.000000 0.258819 -0.965926
vn 0.000000 0.258819 -0.965926
vn 0.000000 0.258819 -0.965926
vn 0.000000 0.258819 -0.965926
vn 1.000000 -0.000000 0.000000
vn 1.000000 -0.000000 0.000000
vn 1.000000 -0.000000 0.000000
vn 1.000000 -0.000000 0.000000
vn 0.965926 -0.066987 0.250000
vn 0.965926 -0.066987 0.250000
vn 0.866025 -0.129410 0.482963
vn 0.866025 -0.129410 0.482963
vn 0.707107 -0.183013 0.683013
vn 0.707107 -0.183013 0.683013
vn 0.500000 -0.224144 0.836516
vn 0.500000 -0.224144 0.836516
vn 0.258819 -0.250000 0.933013
vn 0.258819 -0.250000 0.933013
vn 0.000000 -0.258819 0.965926
vn -0.000000 -0.258819 0.965926
vn -0.000000 -0.258819 0.965926
vn -0.000000 -0.258819 0.965926
vn -0.274864 -0.248850 0.928721
vn -0.274864 -0.248850 0.928721
vn -0.528554 -0.219711 0.819974
vn -0.528554 -0.219711 0.819974
vn -0.741528 -0.173647 0.648061
vn -0.741528 -0.173647 0.648061
vn -0.897379 -0.114207 0.426226
vn -0.897379 -0.114207 0.426226
vn -0.984101 -0.045968 0.171557
vn -0.984101 -0.045968 0.171557
vn -0.995026 0.025782 -0.096220
vn -0.995026 0.025782 -0.096220
vn 1.000000 -0.000000 0.000000
vn 1.000000 -0.000000 0.000000
vn 0.000000 0.258819 -0.965926
vn 0.000000 0.258819 -0.965926
vn -0.274864 0.248850 -0.928721
vn -0.274864 0.248850 -0.928721
vn -0.528554 0.219711 -0.819974
vn -0.528554 0.219711 -0.819974
vn -0.741528 0.173647 -0.648061
vn -0.741528 0.173647 -0.648061
vn -0.897379 0.114207 -0.426226
vn -0.897379 0.114207 -0.426226
vn -0.984101 0.045968 -0.171557
vn -0.984101 0.045968 -0.171557
vn -0.995026 -0.025782 0.096220
vn -0.995026 -0.025782 0.096220
vn 1.000000 -0.000000 0.000000
vn 1.000000 -0.000000 0.000000
vn 1.000000 -0.000000 0.000000
vn 1.000000 -0.000000 0.000000
vn 0.000000 0.965926 0.258819
vn 0.000000 0.965926 0.258819
vn 0.000000 0.965926 0.258819
vn 0.000000 0.965926 0.258819
vn 0.000000 0.965926 0.258819
vn 0.000000 0.965926 0.258819
vn 0.000000 0.965926 0.258819
vn 0.000000 0.965926 0.258819
vn 0.000000 0.965926 0.258819
vn 0.000000 0.965926 0.258819
vn 0.000000 0.965926 0.258819
vn 0.000000 0.965926 0.258819
vn 0.000000 0.965926 0.258819
vn 0.000000 0.965926 0.258819
vn 0.000000 0.965926 0.258819
vn 0.000000 0.965926 0.258819
vn 0.000000 0.965926 0.258819
vn 0.000000 0.965926 0.258819
vn 0.000000 0.965926 0.258819
vn 0.000000 0.965926 0.258819
vn 0.000000 0.965926 0.258819
vn 0.000000 0.965926 0.258819
vn 0.000000 0.965926 0.258819
vn 0.000000 0.965926 0.258819
vn 0.000000 0.965926 0.258819
vn 0.000000 0.965926 0.258819
vn 0.000000 0.965926 0.258819
vn -0.000000 -0.965926 -0.258819
vn -0.000000 -0.965926 -0.258819
vn -0.000000 -0.965926 -0.258819
vn -0.000000 -0.965926 -0.258819
vn -0.000000 -0.965926 -0.258819
vn -0.000000 -0.965926 -0.258819
vn -0.000000 -0.965926 -0.258819
vn -0.000000 -0.965926 -0.258819
vn -0.000000 -0.965926 -0.258819
vn -0.000000 -0.965926 -0.258819
vn -0.000000 -0.965926 -0.258819
vn -0.000000 -0.965926 -0.258819
vn -0.000000 -0.965926 -0.258819
vn -0.000000 -0.965926 -0.258819
vn -0.000000 -0.965926 -0.258819
vn -0.000000 -0.965926 -0.258819
vn -0.000000 -0.965926 -0.258819
vn -0.000000 -0.965926 -0.258819
vn -0.000000 -0.965926 -0.258819
vn -0.000000 -0.965926 -0.258819
vn -0.000000 -0.965926 -0.258819
vn -0.000000 -0.965926 -0.258819
vn -0.000000 -0.965926 -0.258819
vn -0.000000 -0.965926 -0.258819
vn -0.000000 -0.965926 -0.258819
vn -0.000000 -0.965926 -0.258819
vn -0.000000 -0.965926 -0.258819
vn 0.000000 0.258819 -0.965926
vn 0.000000 0.258819 -0.965926
vn 1.000000 -0.000000 -0.000000
vn 1.000000 -0.000000 -0.000000
vn 0.965926 0.066987 -0.250000
vn 0.965926 0.066987 -0.250000
vn 0.866025 0.129410 -0.482963
vn 0.866025 0.129410 -0.482963
vn 0.707107 0.183013 -0.683013
vn 0.707107 0.183013 -0.683013
vn 0.500000 0.224144 -0.836516
vn 0.500000 0.224144 -0.836516
vn 0.258819 0.250000 -0.933013
vn 0.258819 0.250000 -0.933013
vn 1.000000 -0.000000 0.000000
vn 1.000000 -0.000000 0.000000
vn -0.000000 -0.258819 0.965926
vn -0.000000 -0.258819 0.965926
vn -0.000000 -0.258819 0.965926
vn -0.000000 -0.258819 0.965926
vn -1.000000 0.000000 -0.000000
vn -1.000000 0.000000 -0.000000
vn -1.000000 0.000000 -0.000000
vn -1.000000 0.000000 -0.000000
vn -0.000000 -0.258819 0.965926
vn -0.000000 -0.258819 0.965926
vn -0.382683 -0.239118 0.892399
vn -0.382683 -0.239118 0.892399
vn -0.707107 -0.183013 0.683013
vn -0.707107 -0.183013 0.683013
vn -0.923880 -0.099046 0.369644
vn -0.923880 -0.099046 0.369644
vn -0.923880 -0.099046 0.369644
vn -0.707107 -0.183013 0.683013
vn -0.382683 -0.239118 0.892399
vn -0.000000 -0.258819 0.965926
vn -0.000000 -0.258819 0.965926
vn 0.923880 -0.099046 0.369644
vn 0.923880 -0.099046 0.369644
vn 0.707107 -0.183013 0.683013
vn 0.707107 -0.183013 0.683013
vn 0.382683 -0.239118 0.892399
vn 0.382683 -0.239118 0.892399
vn 0.382683 -0.239118 0.892399
vn 0.707107 -0.183013 0.683013
vn 0.923880 -0.099046 0.369644
vn -0.862673 0.488529 0.130901
vn -0.700000 0.689809 0.184834
vn -0.700000 0.689809 0.184834
vn -0.442289 0.866313 0.232128
vn -0.700000 0.689809 0.184834
vn -0.700000 0.689809 0.184834
vn -0.862673 0.488529 0.130901
vn -0.862673 0.488529 0.130901
vn -0.965058 0.253109 0.067820
vn -0.965058 0.253109 0.067820
vn -0.442289 0.866313 0.232128
vn -0.700000 0.689809 0.184834
vn -0.737277 0.652570 0.174856
vn -0.862673 0.488529 0.130901
vn -0.932008 0.350088 0.093806
vn -0.965058 0.253109 0.067820
vn -0.932008 0.350088 0.093806
vn -0.932008 0.350088 0.093806
vn -0.932008 0.350088 0.093806
vn -0.737277 0.652570 0.174856
vn -0.737277 0.652570 0.174856
vn -0.442289 0.866313 0.232128
vn -0.442289 0.866313 0.232128
vn -0.087156 0.962250 0.257834
vn -0.442289 0.866313 0.232128
vn -0.442289 0.866313 0.232128
vn -0.737277 0.652570 0.174856
vn -0.737277 0.652570 0.174856
vn -0.932008 0.350088 0.093806
vn -0.932008 0.350088 0.093806
vn -0.087156 0.962250 0.257834
vn -0.442289 0.866313 0.232128
vn -0.737277 0.652570 0.174856
vn -0.737277 0.652570 0.174856
vn -0.700000 0.689809 0.184834
vn -0.700000 0.689809 0.184834
vn -0.700000 0.689809 0.184834
vn -0.862673 0.488529 0.130901
vn -0.862673 0.488529 0.130901
vn -0.965058 0.253109 0.067820
vn -0.965058 0.253109 0.067820
vn -0.862673 0.488529 0.130901
vn -0.932008 0.350088 0.093806
vn -0.965058 0.253109 0.067820
vn -0.862673 0.488529 0.130901
vn -0.965058 0.253109 0.067820
vn -0.965058 0.253109 0.067820
vn -0.442289 0.232128 -0.866313
vn -0.442289 0.232128 -0.866313
vn -0.087156 0.257834 -0.962250
vn -0.442289 0.232128 -0.866313
vn -0.087156 0.257834 -0.962250
vn -0.442289 0.232128 -0.866313
vn -0.442289 0.232128 -0.866313
vn -0.737277 0.174856 -0.652570
vn -0.737277 0.174856 -0.652570
vn -0.932008 0.093806 -0.350088
vn -0.932008 0.093806 -0.350088
vn -0.932008 0.093806 -0.350088
vn -0.932008 0.093806 -0.350088
vn -0.932008 0.093806 -0.350088
vn -0.737277 0.174856 -0.652570
vn -0.737277 0.174856 -0.652570
vn -0.737277 0.174856 -0.652570
vn -0.932008 -0.093806 0.350088
vn -0.932008 -0.093806 0.350088
vn -0.932008 -0.093806 0.350088
vn -0.932008 -0.093806 0.350088
vn -0.932008 -0.093806 0.350088
vn -0.737277 -0.174856 0.652570
vn -0.737277 -0.174856 0.652570
vn -0.442289 -0.232128 0.866313
vn -0.442289 -0.232128 0.866313
vn -0.087156 -0.257834 0.962250
vn -0.442289 -0.232128 0.866313
vn -0.087156 -0.257834 0.962250
vn -0.442289 -0.232128 0.866313
vn -0.442289 -0.232128 0.866313
vn -0.737277 -0.174856 0.652570
vn -0.737277 -0.174856 0.652570
vn -0.737277 -0.174856 0.652570
vn -0.965058 -0.253109 -0.067820
vn -0.965058 -0.253109 -0.067820
vn -0.862673 -0.488529 -0.130901
vn -0.862673 -0.488529 -0.130901
vn -0.700000 -0.689809 -0.184834
vn -0.700000 -0.689809 -0.184834
vn -0.442289 -0.866313 -0.232128
vn -0.442289 -0.866313 -0.232128
vn -0.087156 -0.962250 -0.257834
vn -0.442289 -0.866313 -0.232128
vn -0.442289 -0.866313 -0.232128
vn -0.737277 -0.652570 -0.174856
vn -0.737277 -0.652570 -0.174856
vn -0.932008 -0.350088 -0.093806
vn -0.932008 -0.350088 -0.093806
vn -0.932008 -0.350088 -0.093806
vn -0.932008 -0.350088 -0.093806
vn -0.737277 -0.652570 -0.174856
vn -0.932008 -0.350088 -0.093806
vn -0.737277 -0.652570 -0.174856
vn -0.442289 -0.866313 -0.232128
vn -0.442289 -0.866313 -0.232128
vn -0.087156 -0.962250 -0.257834
vn -0.442289 -0.866313 -0.232128
vn -0.700000 -0.689809 -0.184834
vn -0.700000 -0.689809 -0.184834
vn -0.700000 -0.689809 -0.184834
vn -0.862673 -0.488529 -0.130901
vn -0.862673 -0.488529 -0.130901
vn -0.965058 -0.253109 -0.067820
vn -0.965058 -0.253109 -0.067820
vn -0.700000 -0.689809 -0.184834
vn -0.862673 -0.488529 -0.130901
vn -0.862673 -0.488529 -0.130901
vn -0.965058 -0.253109 -0.067820
vn -0.965058 -0.253109 -0.067820
vn -0.700000 -0.689809 -0.184834
vn -0.737277 -0.652570 -0.174856
vn -0.862673 -0.488529 -0.130901
vn -0.932008 -0.350088 -0.093806
vn -0.965058 -0.253109 -0.067820
vn -0.932008 -0.350088 -0.093806
vn -0.965058 -0.253109 -0.067820
vn -0.862673 -0.488529 -0.130901
vn -0.737277 -0.652570 -0.174856
vn -0.700000 -0.689809 -0.184834
vn -0.737277 -0.652570 -0.174856
vn -0.087156 0.962250 0.257834
vn -0.087156 0.962250 0.257834
vn -0.087156 0.962250 0.257834
vn 0.087156 0.962250 0.257834
vn 0.087156 0.962250 0.257834
vn 0.087156 0.962250 0.257834
vn 0.087156 0.962250 0.257834
vn 0.087156 0.962250 0.257834
vn 0.087156 0.962250 0.257834
vn 0.087156 0.962250 0.257834
vn 0.087156 0.962250 0.257834
vn -0.087156 0.257834 -0.962250
vn -0.087156 0.257834 -0.962250
vn -0.087156 0.257834 -0.962250
vn -0.087156 0.257834 -0.962250
vn -0.087156 0.257834 -0.962250
vn 1.000000 -0.000000 0.000000
vn 1.000000 -0.000000 0.000000
vn 1.000000 -0.000000 0.000000
vn 1.000000 -0.000000 0.000000
vn 0.258819 0.250000 -0.933013
vn 0.258819 0.250000 -0.933013
vn 0.258819 0.250000 -0.933013
vn 0.258819 0.250000 -0.933013
vn 1.000000 -0.000000 0.000000
vn 1.000000 -0.000000 0.000000
vn 1.000000 -0.000000 0.000000
vn 1.000000 -0.000000 0.000000
vn 0.258819 -0.250000 0.933013
vn 0.258819 -0.250000 0.933013
vn 0.258819 -0.250000 0.933013
vn 0.258819 -0.250000 0.933013
vn 1.000000 -0.000000 0.000000
vn 1.000000 -0.000000 0.000000
vn 1.000000 -0.000000 0.000000
vn 1.000000 -0.000000 0.000000
vn -0.087156 -0.257834 0.962250
vn -0.087156 -0.257834 0.962250
vn -0.087156 -0.257834 0.962250
vn -0.087156 -0.257834 0.962250
vn -0.087156 -0.257834 0.962250
vn 0.087156 -0.962250 -0.257834
vn 0.087156 -0.962250 -0.257834
vn 0.087156 -0.962250 -0.257834
vn 0.087156 -0.962250 -0.257834
vn 0.087156 -0.962250 -0.257834
vn 0.087156 -0.962250 -0.257834
vn 0.087156 -0.962250 -0.257834
vn 0.087156 -0.962250 -0.257834
vn -0.087156 -0.962250 -0.257834
vn -0.087156 -0.962250 -0.257834
vn 0.087156 0.257834 -0.962250
vn 0.087156 0.257834 -0.962250
vn 0.087156 0.257834 -0.962250
vn 0.087156 0.257834 -0.962250
vn 0.087156 0.257834 -0.962250
vn 0.087156 0.257834 -0.962250
vn 0.087156 0.257834 -0.962250
vn 0.087156 0.257834 -0.962250
vn 0.087156 -0.257834 0.962250
vn 0.087156 -0.257834 0.962250
vn 0.087156 -0.257834 0.962250
vn 0.087156 -0.257834 0.962250
vn 0.087156 -0.257834 0.962250
vn 0.087156 -0.257834 0.962250
vn 0.087156 -0.257834 0.962250
vn 0.087156 -0.257834 0.962250
vn 0.000000 0.965926 0.258819
vn 0.000000 0.965926 0.258819
vn 0.000000 0.965926 0.258819
vn 0.000000 0.965926 0.258819
vn -0.000000 -0.383009 0.923745
vn -0.000000 -0.383009 0.923745
vn -0.000000 -0.383009 0.923745
vn -0.000000 -0.383009 0.923745
vn -0.000000 -0.965926 -0.258819
vn -0.000000 -0.965926 -0.258819
vn -0.000000 -0.965926 -0.258819
vn -0.000000 -0.965926 -0.258819
vn 0.000000 -0.202964 -0.979186
vn 0.000000 -0.202964 -0.979186
vn 0.000000 -0.202964 -0.979186
vn 0.000000 -0.202964 -0.979186
vn -0.000000 -0.664637 0.747166
vn -0.000000 -0.664637 0.747166
vn -0.000000 -0.664637 0.747166
vn -0.000000 -0.664637 0.747166
vn -0.000000 -0.965926 -0.258819
vn -0.000000 -0.965926 -0.258819
vn -0.000000 -0.965926 -0.258819
vn -0.000000 -0.965926 -0.258819
vn 0.000000 0.129396 -0.991593
vn 0.000000 0.129396 -0.991593
vn 0.000000 0.129396 -0.991593
vn 0.000000 0.129396 -0.991593
vn 0.000000 0.965926 0.258819
vn 0.000000 0.965926 0.258819
vn 0.000000 0.965926 0.258819
vn 0.000000 0.965926 0.258819
vn -0.000000 -0.129141 0.991626
vn -0.000000 -0.129141 0.991626
vn -0.000000 -0.129141 0.991626
vn -0.000000 -0.129141 0.991626
vn 0.000000 0.664469 -0.747316
vn 0.000000 0.664469 -0.747316
vn 0.000000 0.664469 -0.747316
vn 0.000000 0.664469 -0.747316
vn 0.000000 0.965926 0.258819
vn 0.000000 0.965926 0.258819
vn 0.000000 0.965926 0.258819
vn 0.000000 0.965926 0.258819
vn -0.000000 0.202437 0.979295
vn -0.000000 0.202437 0.979295
vn -0.000000 0.202437 0.979295
vn -0.000000 0.202437 0.979295
vn 0.000000 0.383453 -0.923560
vn 0.000000 0.383453 -0.923560
vn 0.000000 0.383453 -0.923560
vn 0.000000 0.383453 -0.923560
vn -1.000000 0.000000 -0.000000
vn -1.000000 0.000000 -0.000000
vn -1.000000 0.000000 -0.000000
vn -1.000000 0.000000 -0.000000
vn -1.000000 0.000000 -0.000000
vn -1.000000 0.000000 -0.000000
vn -1.000000 0.000000 -0.000000
vn -1.000000 0.000000 -0.000000
vn -1.000000 0.000000 -0.000000
vn -1.000000 0.000000 -0.000000
vn -1.000000 0.000000 -0.000000
vn -1.000000 0.000000 -0.000000
vn -1.000000 0.000000 -0.000000
vn 0.000000 0.258819 -0.965926
vn 0.000000 0.258819 -0.965926
vn 0.000000 0.258819 -0.965926
vn 0.000000 0.258819 -0.965926
vn 0.000000 0.258819 -0.965926
vn 0.000000 0.258819 -0.965926
vn 0.000000 0.258819 -0.965926
vn 0.000000 0.258819 -0.965926
vn -0.000000 -0.258819 0.965926
vn -0.000000 -0.258819 0.965926
vn -0.000000 -0.258819 0.965926
vn -0.000000 -0.258819 0.965926
vn -0.000000 -0.258819 0.965926
vn -0.000000 -0.258819 0.965926
vn -0.000000 -0.258819 0.965926
vn -0.000000 -0.258819 0.965926
vn -1.000000 0.000000 -0.000000
vn -1.000000 0.000000 -0.000000
vn -1.000000 0.000000 -0.000000
vn -1.000000 0.000000 -0.000000
vn -0.000000 -0.258819 0.965926
vn -0.000000 -0.258819 0.965926
vn -0.000000 -0.258819 0.965926
vn -0.000000 -0.258819 0.965926
vn -0.000000 -0.965926 -0.258819
vn -0.000000 -0.965926 -0.258819
vn -0.000000 -0.965926 -0.258819
vn -0.000000 -0.965926 -0.258819
vn 0.000000 0.670882 -0.741565
vn 0.000000 0.670882 -0.741565
vn 0.000000 0.670882 -0.741565
vn 0.000000 0.670882 -0.741565
vn 0.000000 0.721424 0.692494
vn 0.000000 0.721424 0.692494
vn 0.000000 0.721424 0.692494
vn 0.000000 0.721424 0.692494
vn -0.000000 -0.670957 0.741497
vn -0.000000 -0.670957 0.741497
vn -0.000000 -0.670957 0.741497
vn -0.000000 -0.670957 0.741497
vn 0.000000 0.965926 0.258819
vn 0.000000 0.965926 0.258819
vn 0.000000 0.965926 0.258819
vn 0.000000 0.965926 0.258819
vn -1.000000 0.000000 -0.000000
vn -1.000000 0.000000 -0.000000
vn -1.000000 0.000000 -0.000000
vn -1.000000 0.000000 -0.000000
vn -1.000000 0.000000 -0.000000
vn -1.000000 0.000000 -0.000000
vn 0.000000 0.258819 -0.965926
vn 0.000000 0.258819 -0.965926
vn 0.000000 0.258819 -0.965926
vn 0.000000 0.258819 -0.965926
vn 0.000000 0.258819 -0.965926
vn 0.000000 0.258819 -0.965926
vn 0.000000 0.258819 -0.965926
vn 0.000000 0.258819 -0.965926
vn -0.000000 -0.258819 0.965926
vn -0.000000 -0.258819 0.965926
vn -0.000000 -0.258819 0.965926
vn -0.000000 -0.258819 0.965926
vn -0.000000 -0.258819 0.965926
vn -0.000000 -0.258819 0.965926
vn -0.000000 -0.258819 0.965926
vn -0.000000 -0.258819 0.965926
vn -1.000000 0.000000 -0.000000
vn -1.000000 0.000000 -0.000000
vn -1.000000 0.000000 -0.000000
vn -1.000000 0.000000 -0.000000
vn 0.000000 0.258819 -0.965926
vn 0.000000 0.258819 -0.965926
vn 0.000000 0.258819 -0.965926
vn 0.000000 0.258819 -0.965926
vn 0.000000 0.258819 -0.965926
vn 0.000000 0.258819 -0.965926
vn 0.000000 0.258819 -0.965926
vn 0.000000 0.258819 -0.965926
vn -0.000000 -0.258819 0.965926
vn -0.000000 -0.258819 0.965926
vn -0.000000 -0.258819 0.965926
vn -0.000000 -0.258819 0.965926
vn -0.000000 -0.258819 0.965926
vn -0.000000 -0.258819 0.965926
vn -0.000000 -0.258819 0.965926
vn -0.000000 -0.258819 0.965926
vn -1.000000 0.000000 -0.000000
vn -1.000000 0.000000 -0.000000
vn -1.000000 0.000000 -0.000000
vn -1.000000 0.000000 -0.000000
vn 0.000000 0.258819 -0.965926
vn 0.000000 0.258819 -0.965926
vn 0.000000 0.258819 -0.965926
vn 0.000000 0.258819 -0.965926
vn 0.000000 0.258819 -0.965926
vn 0.000000 0.258819 -0.965926
vn 0.000000 0.258819 -0.965926
vn 0.000000 0.258819 -0.965926
vn -0.000000 -0.258819 0.965926
vn -0.000000 -0.258819 0.965926
vn -0.000000 -0.258819 0.965926
vn -0.000000 -0.258819 0.965926
vn -0.000000 -0.258819 0.965926
vn -0.000000 -0.258819 0.965926
vn -0.000000 -0.258819 0.965926
vn -0.000000 -0.258819 0.965926
vn -1.000000 0.000000 -0.000000
vn -1.000000 0.000000 -0.000000
vn -1.000000 0.000000 -0.000000
vn -1.000000 0.000000 -0.000000
usemtl Opaque(202,209,238)
f 2/1/1 3/2/2 1/3/3
f 1/3/3 3/2/2 4/4/4
f 6/5/5 7/6/6 5/7/7
f 5/7/7 7/6/6 8/8/8
f 10/9/9 11/10/10 9/11/11
f 9/11/11 11/10/10 12/12/12
f 14/13/13 19/14/14 13/15/15
f 13/15/15 19/14/14 20/16/16
f 13/15/15 20/16/16 21/17/17
f 15/18/18 34/19/19 14/13/13
f 14/13/13 34/19/19 26/20/20
f 14/13/13 26/20/20 28/21/21
f 28/21/21 26/20/20 27/22/22
f 34/19/19 15/18/18 33/23/23
f 33/23/23 15/18/18 16/24/24
f 33/23/23 16/24/24 32/25/25
f 32/25/25 16/24/24 24/26/26
f 32/25/25 24/26/26 31/27/27
f 31/27/27 24/26/26 25/28/28
f 31/27/27 25/28/28 35/29/29
f 35/29/29 25/28/28 34/19/19
f 34/19/19 25/28/28 26/20/20
f 16/24/24 13/15/15 24/26/26
f 24/26/26 13/15/15 23/30/30
f 23/30/30 13/15/15 21/17/17
f 23/30/30 21/17/17 22/31/31
f 17/32/32 18/33/33 29/34/34
f 29/34/34 18/33/33 14/13/13
f 29/34/34 14/13/13 28/21/21
f 18/33/33 19/14/14 14/13/13
f 30/35/35 31/27/27 35/29/29
f 37/36/36 38/37/37 36/38/38
f 36/38/38 38/37/37 39/39/39
f 41/40/40 42/41/41 40/42/42
f 40/42/42 42/41/41 43/43/43
f 40/42/42 43/43/43 66/44/44
f 66/44/44 43/43/43 44/45/45
f 66/44/44 44/45/45 45/46/46
f 66/44/44 45/46/46 65/47/47
f 65/47/47 45/46/46 46/48/48
f 65/47/47 46/48/48 64/49/49
f 64/49/49 46/48/48 47/50/50
f 64/49/49 47/50/50 63/51/51
f 63/51/51 47/50/50 48/52/52
f 63/51/51 48/52/52 62/53/53
f 62/53/53 48/52/52 49/54/54
f 62/53/53 49/54/54 50/55/55
f 62/53/53 50/55/55 61/56/56
f 61/56/56 50/55/55 51/57/57
f 61/56/56 51/57/57 60/58/58
f 60/58/58 51/57/57 52/59/59
f 60/58/58 52/59/59 53/60/60
f 60/58/58 53/60/60 59/61/61
f 59/61/61 53/60/60 54/62/62
f 59/61/61 54/62/62 58/63/63
f 58/63/63 54/62/62 55/64/64
f 58/63/63 55/64/64 57/65/65
f 57/65/65 55/64/64 56/66/66
f 68/67/67 69/68/68 67/69/69
f 67/69/69 69/68/68 93/70/70
f 93/70/70 69/68/68 70/71/71
f 93/70/70 70/71/71 92/72/72
f 92/72/72 70/71/71 91/73/73
f 91/73/73 70/71/71 71/74/74
f 91/73/73 71/74/74 90/75/75
f 90/75/75 71/74/74 72/76/76
f 90/75/75 72/76/76 89/77/77
f 89/77/77 72/76/76 73/78/78
f 89/77/77 73/78/78 88/79/79
f 88/79/79 73/78/78 87/80/80
f 87/80/80 73/78/78 74/81/81
f 87/80/80 74/81/81 86/82/82
f 86/82/82 74/81/81 75/83/83
f 86/82/82 75/83/83 85/84/84
f 85/84/84 75/83/83 76/85/85
f 85/84/84 76/85/85 84/86/86
f 84/86/86 76/85/85 83/87/87
f 83/87/87 76/85/85 77/88/88
f 83/87/87 77/88/88 82/89/89
f 82/89/89 77/88/88 78/90/90
f 82/89/89 78/90/90 81/91/91
f 81/91/91 78/90/90 79/92/92
f 81/91/91 79/92/92 80/93/93
f 69/94/94 40/95/95 94/96/96
f 94/96/96 40/95/95 66/97/97
f 94/96/96 66/97/97 95/98/98
f 95/98/98 66/97/97 65/99/99
f 95/98/98 65/99/99 96/100/100
f 96/100/100 65/99/99 64/101/101
f 96/100/100 64/101/101 63/102/102
f 63/102/102 73/103/103 96/100/100
f 96/100/100 73/103/103 72/104/104
f 96/100/100 72/104/104 95/98/98
f 95/98/98 72/104/104 71/105/105
f 95/98/98 71/105/105 94/96/96
f 94/96/96 71/105/105 70/106/106
f 94/96/96 70/106/106 69/94/94
f 63/107/102 62/108/107 73/109/103
f 73/109/103 62/108/107 74/110/108
f 74/111/108 62/112/107 97/113/109
f 97/113/109 62/112/107 61/114/110
f 97/113/109 61/114/110 98/115/111
f 98/115/111 61/114/110 60/116/112
f 98/115/111 60/116/112 99/117/113
f 99/117/113 60/116/112 59/118/114
f 99/117/113 59/118/114 58/119/115
f 58/119/115 78/120/116 99/117/113
f 99/117/113 78/120/116 77/121/117
f 99/117/113 77/121/117 98/115/111
f 98/115/111 77/121/117 76/122/118
f 98/115/111 76/122/118 97/113/109
f 97/113/109 76/122/118 75/123/119
f 97/113/109 75/123/119 74/111/108
f 58/124/115 57/125/120 78/126/116
f 78/126/116 57/125/120 79/127/121
f 57/128/122 56/129/123 79/130/124
f 79/130/124 56/129/123 80/131/125
f 56/132/126 55/133/127 80/134/128
f 80/134/128 55/133/127 81/135/129
f 81/136/129 55/137/127 82/138/130
f 82/138/130 55/137/127 54/139/131
f 82/138/130 54/139/131 83/140/132
f 83/140/132 54/139/131 53/141/133
f 83/140/132 53/141/133 84/142/134
f 84/142/134 53/141/133 52/143/135
f 84/142/134 52/143/135 85/144/136
f 85/144/136 52/143/135 51/145/137
f 85/144/136 51/145/137 86/146/138
f 86/146/138 51/145/137 50/147/139
f 86/146/138 50/147/139 87/148/140
f 87/148/140 50/147/139 49/149/141
f 49/150/141 48/151/142 87/152/140
f 87/152/140 48/151/142 88/153/143
f 88/154/143 48/155/142 89/156/144
f 89/156/144 48/155/142 47/157/145
f 89/156/144 47/157/145 90/158/146
f 90/158/146 47/157/145 46/159/147
f 90/158/146 46/159/147 91/160/148
f 91/160/148 46/159/147 45/161/149
f 91/160/148 45/161/149 92/162/150
f 92/162/150 45/161/149 44/163/151
f 92/162/150 44/163/151 93/164/152
f 93/164/152 44/163/151 43/165/153
f 93/164/152 43/165/153 67/166/154
f 67/166/154 43/165/153 42/167/155
f 68/168/156 41/169/157 69/170/94
f 69/170/94 41/169/157 40/171/95
f 113/172/158 100/173/159 112/174/160
f 112/174/160 100/173/159 101/175/161
f 112/174/160 101/175/161 111/176/162
f 111/176/162 101/175/161 102/177/163
f 111/176/162 102/177/163 110/178/164
f 110/178/164 102/177/163 103/179/165
f 110/178/164 103/179/165 109/180/166
f 109/180/166 103/179/165 104/181/167
f 109/180/166 104/181/167 108/182/168
f 108/182/168 104/181/167 105/183/169
f 108/182/168 105/183/169 107/184/170
f 107/184/170 105/183/169 106/185/171
f 114/186/172 115/187/173 117/188/174
f 117/188/174 115/187/173 116/189/175
f 115/190/176 114/191/177 107/192/178
f 107/192/178 114/191/177 108/193/179
f 108/193/179 114/191/177 118/194/180
f 108/193/179 118/194/180 109/195/181
f 109/195/181 118/194/180 110/196/182
f 110/196/182 118/194/180 119/197/183
f 110/196/182 119/197/183 111/198/184
f 111/198/184 119/197/183 120/199/185
f 111/198/184 120/199/185 112/200/186
f 112/200/186 120/199/185 121/201/187
f 112/200/186 121/201/187 113/202/188
f 113/202/188 121/201/187 122/203/189
f 113/202/188 122/203/189 135/204/190
f 135/204/190 122/203/189 134/205/191
f 134/205/191 122/203/189 123/206/192
f 134/205/191 123/206/192 133/207/193
f 133/207/193 123/206/192 124/208/194
f 133/207/193 124/208/194 132/209/195
f 132/209/195 124/208/194 131/210/196
f 131/210/196 124/208/194 125/211/197
f 131/210/196 125/211/197 130/212/198
f 130/212/198 125/211/197 126/213/199
f 130/212/198 126/213/199 129/214/200
f 129/214/200 126/213/199 128/215/201
f 128/215/201 126/213/199 127/216/202
f 116/217/203 106/218/204 117/219/205
f 117/219/205 106/218/204 105/220/206
f 117/219/205 105/220/206 153/221/207
f 153/221/207 105/220/206 104/222/208
f 153/221/207 104/222/208 103/223/209
f 153/221/207 103/223/209 152/224/210
f 152/224/210 103/223/209 102/225/211
f 152/224/210 102/225/211 151/226/212
f 151/226/212 102/225/211 101/227/213
f 151/226/212 101/227/213 150/228/214
f 150/228/214 101/227/213 100/229/215
f 150/228/214 100/229/215 149/230/216
f 149/230/216 100/229/215 136/231/217
f 149/230/216 136/231/217 137/232/218
f 149/230/216 137/232/218 148/233/219
f 148/233/219 137/232/218 138/234/220
f 148/233/219 138/234/220 147/235/221
f 147/235/221 138/234/220 139/236/222
f 147/235/221 139/236/222 140/237/223
f 147/235/221 140/237/223 146/238/224
f 146/238/224 140/237/223 141/239/225
f 146/238/224 141/239/225 145/240/226
f 145/240/226 141/239/225 142/241/227
f 145/240/226 142/241/227 144/242/228
f 144/242/228 142/241/227 143/243/229
f 136/244/230 100/245/159 135/246/231
f 135/246/231 100/245/159 113/247/158
f 129/248/232 142/249/233 130/250/234
f 130/250/234 142/249/233 141/251/235
f 130/250/234 141/251/235 131/252/236
f 131/252/236 141/251/235 140/253/237
f 131/252/236 140/253/237 132/254/238
f 132/254/238 140/253/237 139/255/239
f 132/254/238 139/255/239 133/256/240
f 133/256/240 139/255/239 138/257/241
f 133/256/240 138/257/241 134/258/242
f 134/258/242 138/257/241 137/259/243
f 134/258/242 137/259/243 135/260/231
f 135/260/231 137/259/243 136/261/230
f 142/262/233 129/263/232 143/264/244
f 143/264/244 129/263/232 128/265/245
f 143/266/246 128/267/247 144/268/248
f 144/268/248 128/267/247 127/269/249
f 145/270/250 144/271/251 126/272/252
f 126/272/252 144/271/251 127/273/253
f 122/274/254 149/275/255 154/276/256
f 154/276/256 149/275/255 148/277/257
f 154/276/256 148/277/257 155/278/258
f 155/278/258 148/277/257 147/279/259
f 155/278/258 147/279/259 156/280/260
f 156/280/260 147/279/259 146/281/261
f 156/280/260 146/281/261 145/282/250
f 145/282/250 126/283/252 156/280/260
f 156/280/260 126/283/252 125/284/262
f 156/280/260 125/284/262 155/278/258
f 155/278/258 125/284/262 124/285/263
f 155/278/258 124/285/263 154/276/256
f 154/276/256 124/285/263 123/286/264
f 154/276/256 123/286/264 122/274/254
f 149/287/255 122/288/254 150/289/265
f 150/289/265 122/288/254 121/290/266
f 114/291/172 117/292/174 157/293/267
f 157/293/267 117/292/174 153/294/268
f 157/293/267 153/294/268 158/295/269
f 158/295/269 153/294/268 152/296/270
f 158/295/269 152/296/270 159/297/271
f 159/297/271 152/296/270 151/298/272
f 159/297/271 151/298/272 150/299/265
f 150/299/265 121/300/266 159/297/271
f 159/297/271 121/300/266 120/301/273
f 159/297/271 120/301/273 158/295/269
f 158/295/269 120/301/273 119/302/274
f 158/295/269 119/302/274 157/293/267
f 157/293/267 119/302/274 118/303/275
f 157/293/267 118/303/275 114/291/172
f 161/304/276 165/305/277 160/306/278
f 160/306/278 165/305/277 174/307/279
f 160/306/278 174/307/279 191/308/280
f 191/308/280 174/307/279 186/309/281
f 191/308/280 186/309/281 187/310/282
f 165/305/277 161/304/276 164/311/283
f 164/311/283 161/304/276 162/312/284
f 164/311/283 162/312/284 163/313/285
f 163/313/285 162/312/284 4/314/4
f 4/314/4 162/312/284 1/315/3
f 174/307/279 165/305/277 201/316/286
f 201/316/286 165/305/277 166/317/287
f 201/316/286 166/317/287 192/318/288
f 192/318/288 166/317/287 167/319/289
f 192/318/288 167/319/289 202/320/290
f 202/320/290 167/319/289 168/321/291
f 202/320/290 168/321/291 203/322/292
f 203/322/292 168/321/291 16/323/24
f 203/322/292 16/323/24 204/324/293
f 204/324/293 16/323/24 205/325/294
f 204/324/293 205/325/294 194/326/295
f 194/326/295 205/325/294 195/327/296
f 194/326/295 195/327/296 199/328/297
f 199/328/297 195/327/296 198/329/298
f 199/328/297 198/329/298 172/330/299
f 172/330/299 198/329/298 197/331/300
f 172/330/299 197/331/300 171/332/301
f 171/332/301 197/331/300 170/333/302
f 170/333/302 197/331/300 196/334/303
f 170/333/302 196/334/303 169/335/304
f 169/335/304 196/334/303 206/336/305
f 169/335/304 206/336/305 16/323/24
f 16/323/24 206/336/305 205/325/294
f 168/321/291 13/337/15 16/323/24
f 172/330/299 173/338/306 199/328/297
f 199/328/297 173/338/306 200/339/307
f 199/328/297 200/339/307 194/326/295
f 194/326/295 200/339/307 193/340/308
f 194/326/295 193/340/308 204/324/293
f 204/324/293 193/340/308 203/322/292
f 200/339/307 173/338/306 201/316/286
f 201/316/286 173/338/306 174/307/279
f 175/341/309 179/342/310 174/307/279
f 174/307/279 179/342/310 180/343/311
f 174/307/279 180/343/311 185/344/312
f 185/344/312 180/343/311 181/345/313
f 185/344/312 181/345/313 184/346/314
f 184/346/314 181/345/313 182/347/315
f 184/346/314 182/347/315 183/348/316
f 183/348/316 182/347/315 10/349/9
f 10/349/9 182/347/315 11/350/10
f 179/342/310 175/341/309 178/351/317
f 178/351/317 175/341/309 176/352/318
f 178/351/317 176/352/318 177/353/319
f 177/353/319 176/352/318 38/354/37
f 177/353/319 38/354/37 37/355/36
f 185/344/312 186/309/281 174/307/279
f 191/308/280 187/310/282 190/356/320
f 190/356/320 187/310/282 188/357/321
f 190/356/320 188/357/321 189/358/322
f 189/358/322 188/357/321 6/359/5
f 6/359/5 188/357/321 7/360/6
f 200/339/307 201/316/286 193/340/308
f 193/340/308 201/316/286 192/318/288
f 193/340/308 192/318/288 203/322/292
f 203/322/292 192/318/288 202/320/290
f 197/331/300 198/329/298 196/334/303
f 196/334/303 198/329/298 195/327/296
f 196/334/303 195/327/296 206/336/305
f 206/336/305 195/327/296 205/325/294
f 208/361/323 211/362/324 207/363/325
f 207/363/325 211/362/324 212/364/326
f 207/363/325 212/364/326 173/365/327
f 173/365/327 212/364/326 213/366/328
f 173/365/327 213/366/328 174/367/329
f 174/367/329 213/366/328 175/368/330
f 175/368/330 213/366/328 216/369/331
f 175/368/330 216/369/331 176/370/332
f 176/370/332 216/369/331 219/371/333
f 176/370/332 219/371/333 38/372/37
f 38/372/37 219/371/333 218/373/334
f 38/372/37 218/373/334 39/374/39
f 39/374/39 218/373/334 217/375/335
f 39/374/39 217/375/335 210/376/336
f 210/376/336 217/375/335 214/377/337
f 210/376/336 214/377/337 209/378/338
f 209/378/338 214/377/337 211/362/324
f 209/378/338 211/362/324 208/361/323
f 216/369/331 213/366/328 212/364/326
f 212/364/326 211/362/324 215/379/339
f 215/379/339 211/362/324 214/377/337
f 215/379/339 214/377/337 218/373/334
f 218/373/334 214/377/337 217/375/335
f 219/371/333 216/369/331 215/379/339
f 215/379/339 216/369/331 212/364/326
f 219/371/333 215/379/339 218/373/334
f 220/380/340 224/381/341 15/382/18
f 15/382/18 224/381/341 225/383/342
f 15/382/18 225/383/342 16/384/24
f 16/384/24 225/383/342 226/385/343
f 16/384/24 226/385/343 169/386/344
f 169/386/344 226/385/343 229/387/345
f 169/386/344 229/387/345 170/388/346
f 170/388/346 229/387/345 232/389/347
f 170/388/346 232/389/347 171/390/348
f 171/390/348 232/389/347 172/391/349
f 172/391/349 232/389/347 231/392/350
f 172/391/349 231/392/350 223/393/351
f 223/393/351 231/392/350 230/394/352
f 223/393/351 230/394/352 222/395/353
f 222/395/353 230/394/352 221/396/354
f 221/396/354 230/394/352 227/397/355
f 221/396/354 227/397/355 220/380/340
f 220/380/340 227/397/355 224/381/341
f 229/387/345 226/385/343 225/383/342
f 225/383/342 224/381/341 228/398/356
f 228/398/356 224/381/341 227/397/355
f 228/398/356 227/397/355 231/392/350
f 231/392/350 227/397/355 230/394/352
f 232/389/347 229/387/345 228/398/356
f 228/398/356 229/387/345 225/383/342
f 232/389/347 228/398/356 231/392/350
f 3/399/2 2/400/1 256/401/357
f 256/401/357 2/400/1 233/402/358
f 256/401/357 233/402/358 234/403/359
f 256/401/357 234/403/359 255/404/360
f 255/404/360 234/403/359 235/405/361
f 255/404/360 235/405/361 254/406/362
f 254/406/362 235/405/361 208/407/363
f 254/406/362 208/407/363 257/408/364
f 257/408/364 208/407/363 207/409/365
f 257/408/364 207/409/365 258/410/366
f 258/410/366 207/409/365 259/411/367
f 258/410/366 259/411/367 265/412/368
f 265/412/368 259/411/367 264/413/369
f 265/412/368 264/413/369 270/414/370
f 270/414/370 264/413/369 269/415/371
f 270/414/370 269/415/371 14/416/13
f 14/416/13 269/415/371 15/417/18
f 15/417/18 269/415/371 268/418/372
f 15/417/18 268/418/372 267/419/373
f 267/419/373 268/418/372 262/420/374
f 267/419/373 262/420/374 220/421/375
f 220/421/375 262/420/374 221/422/376
f 221/422/376 262/420/374 261/423/377
f 221/422/376 261/423/377 222/424/378
f 222/424/378 261/423/377 223/425/379
f 223/425/379 261/423/377 260/426/380
f 223/425/379 260/426/380 259/411/367
f 259/411/367 260/426/380 264/413/369
f 235/405/361 236/427/381 208/407/363
f 208/407/363 236/427/381 241/428/382
f 208/407/363 241/428/382 242/429/383
f 236/427/381 237/430/384 241/428/382
f 241/428/382 237/430/384 240/431/385
f 240/431/385 237/430/384 238/432/386
f 240/431/385 238/432/386 239/433/387
f 239/433/387 238/432/386 8/434/8
f 8/434/8 238/432/386 5/435/7
f 208/407/363 242/429/383 247/436/388
f 247/436/388 242/429/383 243/437/389
f 247/436/388 243/437/389 246/438/390
f 246/438/390 243/437/389 244/439/391
f 246/438/390 244/439/391 245/440/392
f 245/440/392 244/439/391 12/441/12
f 12/441/12 244/439/391 9/442/11
f 247/436/388 248/443/393 208/407/363
f 208/407/363 248/443/393 209/444/394
f 209/444/394 248/443/393 249/445/395
f 209/444/394 249/445/395 210/446/396
f 210/446/396 249/445/395 250/447/397
f 210/446/396 250/447/397 39/448/39
f 39/448/39 250/447/397 36/449/38
f 207/409/365 223/425/379 259/411/367
f 220/421/375 15/417/18 267/419/373
f 270/414/370 14/416/13 271/450/398
f 271/450/398 14/416/13 251/451/399
f 271/450/398 251/451/399 252/452/400
f 271/450/398 252/452/400 266/453/401
f 266/453/401 252/452/400 253/454/402
f 266/453/401 253/454/402 257/408/364
f 257/408/364 253/454/402 254/406/362
f 257/408/364 258/410/366 266/453/401
f 266/453/401 258/410/366 265/412/368
f 266/453/401 265/412/368 271/450/398
f 271/450/398 265/412/368 270/414/370
f 260/426/380 261/423/377 263/455/403
f 263/455/403 261/423/377 262/420/374
f 263/455/403 262/420/374 268/418/372
f 269/415/371 264/413/369 263/455/403
f 263/455/403 264/413/369 260/426/380
f 269/415/371 263/455/403 268/418/372
f 173/456/404 172/457/299 272/458/405
f 272/458/405 172/457/299 273/459/406
f 279/460/407 272/461/408 278/462/409
f 278/462/409 272/461/408 273/463/410
f 278/462/409 273/463/410 275/464/411
f 275/464/411 273/463/410 274/465/412
f 276/466/413 277/467/414 275/464/411
f 275/464/411 277/467/414 278/462/409
f 280/468/415 207/469/325 106/470/416
f 106/470/416 207/469/325 173/471/417
f 106/470/416 173/471/417 107/472/418
f 107/472/418 173/471/417 272/473/419
f 278/474/420 281/475/421 279/476/422
f 279/476/422 281/475/421 282/477/423
f 278/478/424 277/479/425 281/480/426
f 281/480/426 277/479/425 283/481/427
f 276/482/428 284/483/429 277/484/430
f 277/484/430 284/483/429 283/485/431
f 275/486/432 285/487/433 276/488/434
f 276/488/434 285/487/433 284/489/435
f 274/490/436 286/491/437 275/492/438
f 275/492/438 286/491/437 285/493/439
f 273/494/440 172/495/441 42/496/442
f 42/496/442 172/495/441 223/497/351
f 42/496/442 223/497/351 67/498/443
f 67/498/443 223/497/351 287/499/444
f 286/500/445 287/501/446 285/502/447
f 285/502/447 287/501/446 280/503/448
f 285/502/447 280/503/448 281/504/449
f 281/504/449 280/503/448 282/505/450
f 283/506/451 284/507/452 281/504/449
f 281/504/449 284/507/452 285/502/447
f 223/508/379 207/509/365 287/510/453
f 287/510/453 207/509/365 280/511/454
f 115/512/455 282/513/456 116/514/457
f 116/514/457 282/513/456 280/515/458
f 116/514/457 280/515/458 106/516/459
f 107/517/460 272/518/461 115/512/455
f 115/512/455 272/518/461 279/519/462
f 115/512/455 279/519/462 282/513/456
f 68/520/463 274/521/464 41/522/465
f 41/522/465 274/521/464 273/523/466
f 41/522/465 273/523/466 42/524/467
f 67/525/468 287/526/469 68/520/463
f 68/520/463 287/526/469 286/527/470
f 68/520/463 286/527/470 274/521/464
f 18/528/471 288/529/472 19/530/473
f 19/530/473 288/529/472 289/531/474
f 20/532/475 19/533/476 290/534/477
f 290/534/477 19/533/476 289/535/478
f 20/536/479 290/537/480 21/538/481
f 21/538/481 290/537/480 291/539/482
f 22/540/483 21/541/484 292/542/485
f 292/542/485 21/541/484 291/543/486
f 23/544/487 22/545/488 293/546/489
f 293/546/489 22/545/488 292/547/490
f 23/548/491 293/549/492 24/550/493
f 24/550/493 293/549/492 294/551/494
f 25/552/495 24/553/496 295/554/497
f 295/554/497 24/553/496 294/555/498
f 25/556/499 295/557/500 26/558/501
f 26/558/501 295/557/500 296/559/502
f 27/560/503 26/561/504 297/562/505
f 297/562/505 26/561/504 296/563/506
f 28/564/507 27/565/508 298/566/509
f 298/566/509 27/565/508 297/567/510
f 28/568/511 298/569/512 29/570/513
f 29/570/513 298/569/512 299/571/514
f 17/572/515 29/573/516 300/574/517
f 300/574/517 29/573/516 299/575/518
f 18/576/519 17/577/520 288/578/521
f 288/578/521 17/577/520 300/579/522
f 288/580/523 300/581/524 289/582/525
f 289/582/525 300/581/524 290/583/526
f 290/583/526 300/581/524 291/584/527
f 291/584/527 300/581/524 292/585/528
f 292/585/528 300/581/524 299/586/529
f 292/585/528 299/586/529 298/587/530
f 298/587/530 297/588/531 292/585/528
f 292/585/528 297/588/531 293/589/532
f 293/589/532 297/588/531 294/590/533
f 294/590/533 297/588/531 295/591/534
f 295/591/534 297/588/531 296/592/535
f 13/593/536 168/594/537 14/595/538
f 14/595/538 168/594/537 251/596/539
f 251/596/539 168/594/537 167/597/540
f 251/596/539 167/597/540 252/598/541
f 252/598/541 167/597/540 253/599/542
f 253/599/542 167/597/540 166/600/543
f 165/601/544 164/602/545 254/603/546
f 254/603/546 164/602/545 255/604/547
f 255/604/547 164/602/545 256/605/548
f 256/605/548 164/602/545 163/606/549
f 256/605/548 163/606/549 3/607/550
f 3/607/550 163/606/549 4/608/551
f 166/609/552 165/610/553 253/611/554
f 253/611/554 165/610/553 254/612/555
f 31/613/556 301/614/557 32/615/558
f 32/615/558 301/614/557 302/616/559
f 32/617/560 302/618/561 33/619/562
f 33/619/562 302/618/561 303/620/563
f 34/621/564 33/622/565 304/623/566
f 304/623/566 33/622/565 303/624/567
f 35/625/568 34/626/569 305/627/570
f 305/627/570 34/626/569 304/628/571
f 30/629/572 35/630/573 306/631/574
f 306/631/574 35/630/573 305/632/575
f 30/633/576 306/634/577 31/635/578
f 31/635/578 306/634/577 301/636/579
f 301/637/580 306/638/581 302/639/582
f 302/639/582 306/638/581 303/640/583
f 303/640/583 306/638/581 304/641/584
f 304/641/584 306/638/581 305/642/585
f 11/643/586 182/644/587 12/645/588
f 12/645/588 182/644/587 245/646/589
f 245/646/589 182/644/587 181/647/590
f 245/646/589 181/647/590 246/648/591
f 246/648/591 181/647/590 247/649/592
f 247/649/592 181/647/590 180/650/593
f 179/651/594 178/652/595 248/653/596
f 248/653/596 178/652/595 249/654/597
f 249/654/597 178/652/595 250/655/598
f 250/655/598 178/652/595 177/656/599
f 250/655/598 177/656/599 36/657/600
f 36/657/600 177/656/599 37/658/601
f 180/659/602 179/660/603 247/661/604
f 247/661/604 179/660/603 248/662/605
f 7/663/606 188/664/607 8/665/608
f 8/665/608 188/664/607 239/666/609
f 239/666/609 188/664/607 187/667/610
f 239/666/609 187/667/610 240/668/611
f 240/668/611 187/667/610 241/669/612
f 241/669/612 187/667/610 186/670/613
f 185/671/614 184/672/615 242/673/616
f 242/673/616 184/672/615 243/674/617
f 243/674/617 184/672/615 244/675/618
f 244/675/618 184/672/615 183/676/619
f 244/675/618 183/676/619 9/677/620
f 9/677/620 183/676/619 10/678/621
f 186/679/622 185/680/623 241/681/624
f 241/681/624 185/680/623 242/682/625
f 1/683/626 162/684/627 2/685/628
f 2/685/628 162/684/627 233/686/629
f 233/686/629 162/684/627 161/687/630
f 233/686/629 161/687/630 234/688/631
f 234/688/631 161/687/630 235/689/632
f 235/689/632 161/687/630 160/690/633
f 191/691/634 190/692/635 236/693/636
f 236/693/636 190/692/635 237/694/637
f 237/694/637 190/692/635 238/695/638
f 238/695/638 190/692/635 189/696/639
f 238/695/638 189/696/639 5/697/640
f 5/697/640 189/696/639 6/698/641
f 160/699/642 191/700/643 235/701/644
f 235/701/644 191/700/643 236/702/645
# 306 vertices
# 702 texture params
# 645 normals
# 608 facets

# 1 groups
