# WaveFront *.obj file (generated by Autodesk ATF)

mtllib body169_visual.mtl

g Body169

v -26.930402 -2.624371 3.718054
v -26.930402 -2.607243 3.654136
v -26.830524 -2.572130 3.663544
v -26.830524 -2.589257 3.727463
v -27.265616 -2.506584 3.681107
v -26.930402 -2.506584 3.681107
v -26.830524 -2.541698 3.671698
v -27.265616 -2.607243 3.654136
v -27.265616 -2.624371 3.718054
v -27.282722 -2.623934 3.716427
v -27.299170 -2.622643 3.711608
v -27.314328 -2.620546 3.703781
v -27.327615 -2.617724 3.693249
v -27.338519 -2.614285 3.680415
v -27.346622 -2.610362 3.665772
v -27.351611 -2.606104 3.649885
v -27.353296 -2.601677 3.633362
v -27.353296 -2.539164 3.400058
v -27.354933 -2.537034 3.392108
v -27.359595 -2.535228 3.385369
v -27.366572 -2.534021 3.380866
v -27.374803 -2.533597 3.379284
v -27.644460 -2.533597 3.379284
v -27.652690 -2.534021 3.380866
v -27.659668 -2.535228 3.385369
v -27.664330 -2.537034 3.392108
v -27.665967 -2.539164 3.400058
v -27.665967 -2.692022 3.970534
v -27.732140 -2.692022 3.970534
v -27.732140 -2.539164 3.400058
v -27.730456 -2.534736 3.383535
v -27.725466 -2.530479 3.367648
v -27.717364 -2.526556 3.353005
v -27.706460 -2.523117 3.340171
v -27.693173 -2.520295 3.329639
v -27.678014 -2.518198 3.321812
v -27.661566 -2.516906 3.316993
v -27.644460 -2.516470 3.315366
v -27.374803 -2.516470 3.315366
v -27.357697 -2.516906 3.316993
v -27.341249 -2.518198 3.321812
v -27.326090 -2.520295 3.329639
v -27.312803 -2.523117 3.340171
v -27.301899 -2.526556 3.353005
v -27.293797 -2.530479 3.367648
v -27.288807 -2.534736 3.383535
v -27.287122 -2.539164 3.400058
v -27.287122 -2.601677 3.633362
v -27.285485 -2.603807 3.641312
v -27.280823 -2.605613 3.648051
v -27.273846 -2.606820 3.652554
v -27.374803 -2.432938 3.406256
v -27.644460 -2.432938 3.406256
v -27.353296 -2.438504 3.427030
v -27.354933 -2.436374 3.419080
v -27.359595 -2.434568 3.412341
v -27.366572 -2.433361 3.407837
v -27.353296 -2.501018 3.660334
v -27.265616 -2.523711 3.745026
v -27.282722 -2.523275 3.743399
v -27.299170 -2.521983 3.738579
v -27.314328 -2.519886 3.730753
v -27.327615 -2.517064 3.720220
v -27.338519 -2.513625 3.707386
v -27.346622 -2.509702 3.692744
v -27.351611 -2.505445 3.676856
v -26.930402 -2.523711 3.745026
v -27.273846 -2.506160 3.679526
v -27.280823 -2.504954 3.675023
v -27.285485 -2.503148 3.668283
v -27.287122 -2.501018 3.660334
v -27.287122 -2.438504 3.427030
v -27.288807 -2.434077 3.410507
v -27.293797 -2.429820 3.394619
v -27.301899 -2.425896 3.379977
v -27.312803 -2.422457 3.367143
v -27.326090 -2.419635 3.356610
v -27.341249 -2.417538 3.348784
v -27.357697 -2.416247 3.343965
v -27.374803 -2.415811 3.342337
v -27.644460 -2.415811 3.342337
v -27.661566 -2.416247 3.343965
v -27.678014 -2.417538 3.348784
v -27.693173 -2.419635 3.356610
v -27.706460 -2.422457 3.367143
v -27.717364 -2.425896 3.379977
v -27.725466 -2.429820 3.394619
v -27.730456 -2.434077 3.410507
v -27.732140 -2.438504 3.427030
v -27.732140 -2.591363 3.997506
v -27.665967 -2.591363 3.997506
v -27.665967 -2.438504 3.427030
v -27.664330 -2.436374 3.419080
v -27.659668 -2.434568 3.412341
v -27.652690 -2.433361 3.407837
v -26.830524 -2.558825 3.735617
vt -0.329214 0.016948 0.000000
vt -0.263040 0.016948 0.000000
vt -0.329214 0.123236 0.000000
vt -0.263040 0.123236 0.000000
vt -0.000000 0.110007 0.000000
vt -0.335214 0.110007 0.000000
vt -0.000000 0.005797 0.000000
vt -0.435092 0.073655 0.000000
vt -0.435092 0.042149 0.000000
vt -0.335214 0.005797 0.000000
vt 0.263040 -0.714059 0.000000
vt 0.329214 -0.714059 0.000000
vt 0.263040 -0.378844 0.000000
vt 0.329214 -0.378844 0.000000
vt 0.327529 -0.361739 0.000000
vt 0.322540 -0.345291 0.000000
vt 0.261403 -0.370614 0.000000
vt 0.314437 -0.330132 0.000000
vt 0.303533 -0.316845 0.000000
vt 0.256741 -0.363637 0.000000
vt 0.290246 -0.305941 0.000000
vt 0.275088 -0.297838 0.000000
vt 0.249764 -0.358975 0.000000
vt 0.258639 -0.292849 0.000000
vt 0.241534 -0.357338 0.000000
vt 0.241534 -0.291164 0.000000
vt 0.000000 -0.291164 0.000000
vt -0.008230 -0.289527 0.000000
vt -0.017106 -0.355653 0.000000
vt 0.000000 -0.357338 0.000000
vt -0.033554 -0.350664 0.000000
vt -0.015207 -0.284865 0.000000
vt -0.048712 -0.342561 0.000000
vt -0.061999 -0.331657 0.000000
vt -0.019869 -0.277888 0.000000
vt -0.072903 -0.318370 0.000000
vt -0.081006 -0.303211 0.000000
vt -0.021506 -0.269658 0.000000
vt -0.085995 -0.286763 0.000000
vt -0.087680 -0.269658 0.000000
vt -0.087680 -0.000000 0.000000
vt -0.021506 -0.000000 0.000000
vt -0.085995 0.017106 0.000000
vt -0.081006 0.033554 0.000000
vt -0.019869 0.008230 0.000000
vt -0.072903 0.048712 0.000000
vt -0.061999 0.061999 0.000000
vt -0.015207 0.015207 0.000000
vt -0.048712 0.072903 0.000000
vt -0.033554 0.081006 0.000000
vt -0.008230 0.019869 0.000000
vt -0.017106 0.085995 0.000000
vt -0.000000 0.021506 0.000000
vt -0.000000 0.087680 0.000000
vt 0.590600 0.021506 0.000000
vt 0.590600 0.087680 0.000000
vt 0.000000 0.005797 0.000000
vt 0.269658 0.005797 0.000000
vt 0.000000 0.110007 0.000000
vt 0.269658 0.110007 0.000000
vt 0.110007 -0.000000 0.000000
vt 0.005797 -0.000000 0.000000
vt 0.110007 -0.008446 0.000000
vt 0.005797 -0.008446 0.000000
vt 0.110007 -0.016891 0.000000
vt 0.005797 -0.016891 0.000000
vt 0.110007 -0.025337 0.000000
vt 0.005797 -0.025337 0.000000
vt 0.110007 -0.033782 0.000000
vt 0.005797 -0.033782 0.000000
vt 0.000000 0.005797 0.000000
vt 0.241534 0.005797 0.000000
vt -0.000000 0.110007 0.000000
vt 0.241534 0.110007 0.000000
vt -0.110007 0.137728 0.000000
vt -0.005797 0.137728 0.000000
vt -0.110007 0.154944 0.000000
vt -0.005797 0.154944 0.000000
vt -0.110007 0.172160 0.000000
vt -0.005797 0.172160 0.000000
vt -0.110007 0.189375 0.000000
vt -0.005797 0.189375 0.000000
vt -0.110007 0.206591 0.000000
vt -0.005797 0.206591 0.000000
vt -0.110007 0.223807 0.000000
vt -0.005797 0.223807 0.000000
vt -0.110007 0.241023 0.000000
vt -0.005797 0.241023 0.000000
vt -0.110007 0.258239 0.000000
vt -0.005797 0.258239 0.000000
vt -0.110007 0.275455 0.000000
vt -0.005797 0.275455 0.000000
vt -0.329214 -0.714059 0.000000
vt -0.263040 -0.714059 0.000000
vt -0.329214 -0.378844 0.000000
vt -0.263040 -0.378844 0.000000
vt -0.327529 -0.361739 0.000000
vt -0.322540 -0.345291 0.000000
vt -0.261403 -0.370614 0.000000
vt -0.314437 -0.330132 0.000000
vt -0.303533 -0.316845 0.000000
vt -0.256741 -0.363637 0.000000
vt -0.290246 -0.305941 0.000000
vt -0.275088 -0.297838 0.000000
vt -0.249764 -0.358975 0.000000
vt -0.258639 -0.292849 0.000000
vt -0.241534 -0.357338 0.000000
vt -0.241534 -0.291164 0.000000
vt -0.000000 -0.291164 0.000000
vt -0.000000 -0.357338 0.000000
vt 0.017106 -0.355653 0.000000
vt 0.008230 -0.289527 0.000000
vt 0.033554 -0.350664 0.000000
vt 0.015207 -0.284865 0.000000
vt 0.048712 -0.342561 0.000000
vt 0.061999 -0.331657 0.000000
vt 0.019869 -0.277888 0.000000
vt 0.072903 -0.318370 0.000000
vt 0.081006 -0.303211 0.000000
vt 0.021506 -0.269658 0.000000
vt 0.085995 -0.286763 0.000000
vt 0.087680 -0.269658 0.000000
vt 0.021506 -0.000000 0.000000
vt 0.087680 -0.000000 0.000000
vt 0.085995 0.017106 0.000000
vt 0.081006 0.033554 0.000000
vt 0.019869 0.008230 0.000000
vt 0.072903 0.048712 0.000000
vt 0.061999 0.061999 0.000000
vt 0.015207 0.015207 0.000000
vt 0.048712 0.072903 0.000000
vt 0.033554 0.081006 0.000000
vt 0.008230 0.019869 0.000000
vt 0.017106 0.085995 0.000000
vt 0.000000 0.021506 0.000000
vt 0.000000 0.087680 0.000000
vt -0.590600 0.021506 0.000000
vt -0.590600 0.087680 0.000000
vt -0.005797 -0.000000 0.000000
vt -0.110007 -0.000000 0.000000
vt -0.005797 -0.269658 0.000000
vt -0.110007 -0.269658 0.000000
vt -0.110007 -0.137728 0.000000
vt -0.005797 -0.137728 0.000000
vt -0.110007 -0.120512 0.000000
vt -0.005797 -0.120512 0.000000
vt -0.110007 -0.103296 0.000000
vt -0.005797 -0.103296 0.000000
vt -0.110007 -0.086080 0.000000
vt -0.005797 -0.086080 0.000000
vt -0.110007 -0.068864 0.000000
vt -0.005797 -0.068864 0.000000
vt -0.110007 -0.051648 0.000000
vt -0.005797 -0.051648 0.000000
vt -0.110007 -0.034432 0.000000
vt -0.005797 -0.034432 0.000000
vt -0.110007 -0.017216 0.000000
vt -0.005797 -0.017216 0.000000
vt -0.110007 -0.000000 0.000000
vt -0.005797 -0.000000 0.000000
vt -0.241534 0.005797 0.000000
vt -0.000000 0.005797 0.000000
vt -0.241534 0.110007 0.000000
vt 0.000000 0.110007 0.000000
vt 0.110007 -0.067564 0.000000
vt 0.005797 -0.067564 0.000000
vt 0.110007 -0.076010 0.000000
vt 0.005797 -0.076010 0.000000
vt 0.110007 -0.084456 0.000000
vt 0.005797 -0.084456 0.000000
vt 0.110007 -0.092901 0.000000
vt 0.005797 -0.092901 0.000000
vt 0.110007 -0.101347 0.000000
vt 0.005797 -0.101347 0.000000
vt 0.005797 -0.066174 0.000000
vt 0.110007 -0.066174 0.000000
vt 0.005797 -0.000000 0.000000
vt 0.110007 -0.000000 0.000000
vt -0.590600 0.005797 0.000000
vt -0.000000 0.005797 0.000000
vt -0.590600 0.110007 0.000000
vt 0.000000 0.110007 0.000000
vt -0.110007 -0.000000 0.000000
vt -0.005797 -0.000000 0.000000
vt -0.110007 0.017216 0.000000
vt -0.005797 0.017216 0.000000
vt -0.110007 0.034432 0.000000
vt -0.005797 0.034432 0.000000
vt -0.110007 0.051648 0.000000
vt -0.005797 0.051648 0.000000
vt -0.110007 0.068864 0.000000
vt -0.005797 0.068864 0.000000
vt -0.110007 0.086080 0.000000
vt -0.005797 0.086080 0.000000
vt -0.110007 0.103296 0.000000
vt -0.005797 0.103296 0.000000
vt -0.110007 0.120512 0.000000
vt -0.005797 0.120512 0.000000
vt -0.110007 0.137728 0.000000
vt -0.005797 0.137728 0.000000
vt 0.000000 0.073655 0.000000
vt -0.066174 0.073655 0.000000
vt -0.000000 0.042149 0.000000
vt -0.066174 0.042149 0.000000
vt 0.110007 0.033782 0.000000
vt 0.005797 0.033782 0.000000
vt 0.110007 0.025337 0.000000
vt 0.005797 0.025337 0.000000
vt 0.110007 0.016891 0.000000
vt 0.005797 0.016891 0.000000
vt 0.110007 0.008446 0.000000
vt 0.005797 0.008446 0.000000
vt 0.110007 -0.000000 0.000000
vt 0.005797 -0.000000 0.000000
vt 0.000000 0.005797 0.000000
vt 0.590600 0.005797 0.000000
vt -0.000000 0.110007 0.000000
vt 0.590600 0.110007 0.000000
vt 0.000000 0.106288 0.000000
vt -0.066174 0.106288 0.000000
vt -0.000000 0.000000 0.000000
vt -0.066174 0.000000 0.000000
vt 0.000000 0.110007 0.000000
vt 0.000000 0.005797 0.000000
vt 0.335214 0.110007 0.000000
vt 0.435092 0.073655 0.000000
vt 0.435092 0.042149 0.000000
vt 0.335214 0.005797 0.000000
vn 0.342020 -0.907673 -0.243210
vn 0.342020 -0.907673 -0.243210
vn 0.342020 -0.907673 -0.243210
vn 0.342020 -0.907673 -0.243210
vn -0.000000 0.258819 -0.965926
vn -0.000000 0.258819 -0.965926
vn -0.000000 0.258819 -0.965926
vn -0.000000 0.258819 -0.965926
vn -0.000000 0.258819 -0.965926
vn -0.000000 0.258819 -0.965926
vn 0.000000 -0.965926 -0.258819
vn 0.000000 -0.965926 -0.258819
vn 0.000000 -0.965926 -0.258819
vn 0.000000 -0.965926 -0.258819
vn 0.000000 -0.965926 -0.258819
vn 0.000000 -0.965926 -0.258819
vn 0.000000 -0.965926 -0.258819
vn 0.000000 -0.965926 -0.258819
vn 0.000000 -0.965926 -0.258819
vn 0.000000 -0.965926 -0.258819
vn 0.000000 -0.965926 -0.258819
vn 0.000000 -0.965926 -0.258819
vn 0.000000 -0.965926 -0.258819
vn 0.000000 -0.965926 -0.258819
vn 0.000000 -0.965926 -0.258819
vn 0.000000 -0.965926 -0.258819
vn 0.000000 -0.965926 -0.258819
vn 0.000000 -0.965926 -0.258819
vn 0.000000 -0.965926 -0.258819
vn 0.000000 -0.965926 -0.258819
vn 0.000000 -0.965926 -0.258819
vn 0.000000 -0.965926 -0.258819
vn 0.000000 -0.965926 -0.258819
vn 0.000000 -0.965926 -0.258819
vn 0.000000 -0.965926 -0.258819
vn 0.000000 -0.965926 -0.258819
vn 0.000000 -0.965926 -0.258819
vn 0.000000 -0.965926 -0.258819
vn 0.000000 -0.965926 -0.258819
vn 0.000000 -0.965926 -0.258819
vn 0.000000 -0.965926 -0.258819
vn 0.000000 -0.965926 -0.258819
vn 0.000000 -0.965926 -0.258819
vn 0.000000 -0.965926 -0.258819
vn 0.000000 -0.965926 -0.258819
vn 0.000000 -0.965926 -0.258819
vn 0.000000 -0.965926 -0.258819
vn 0.000000 -0.965926 -0.258819
vn 0.000000 -0.965926 -0.258819
vn 0.000000 -0.965926 -0.258819
vn 0.000000 -0.965926 -0.258819
vn 0.000000 -0.965926 -0.258819
vn 0.000000 -0.965926 -0.258819
vn 0.000000 -0.965926 -0.258819
vn 0.000000 -0.965926 -0.258819
vn 0.000000 -0.965926 -0.258819
vn 0.000000 -0.258819 0.965926
vn 0.000000 -0.258819 0.965926
vn 0.000000 -0.258819 0.965926
vn 0.000000 -0.258819 0.965926
vn -0.382683 -0.239118 0.892399
vn -0.382683 -0.239118 0.892399
vn -0.707107 -0.183013 0.683013
vn -0.707107 -0.183013 0.683013
vn -0.923880 -0.099046 0.369644
vn -0.923880 -0.099046 0.369644
vn -1.000000 -0.000000 0.000000
vn -1.000000 0.000000 -0.000000
vn -1.000000 -0.000000 0.000000
vn -1.000000 -0.000000 0.000000
vn -0.980785 -0.050493 0.188443
vn -0.980785 -0.050493 0.188443
vn -0.923880 -0.099046 0.369644
vn -0.923880 -0.099046 0.369644
vn -0.831470 -0.143792 0.536640
vn -0.831470 -0.143792 0.536640
vn -0.707107 -0.183013 0.683013
vn -0.707107 -0.183013 0.683013
vn -0.555570 -0.215200 0.803138
vn -0.555570 -0.215200 0.803138
vn -0.382683 -0.239118 0.892399
vn -0.382683 -0.239118 0.892399
vn -0.195090 -0.253846 0.947366
vn -0.195090 -0.253846 0.947366
vn 0.000000 -0.258819 0.965926
vn 0.000000 -0.258819 0.965926
vn -0.000000 0.965926 0.258819
vn -0.000000 0.965926 0.258819
vn -0.000000 0.965926 0.258819
vn -0.000000 0.965926 0.258819
vn -0.000000 0.965926 0.258819
vn -0.000000 0.965926 0.258819
vn -0.000000 0.965926 0.258819
vn -0.000000 0.965926 0.258819
vn -0.000000 0.965926 0.258819
vn -0.000000 0.965926 0.258819
vn -0.000000 0.965926 0.258819
vn -0.000000 0.965926 0.258819
vn -0.000000 0.965926 0.258819
vn -0.000000 0.965926 0.258819
vn -0.000000 0.965926 0.258819
vn -0.000000 0.965926 0.258819
vn -0.000000 0.965926 0.258819
vn -0.000000 0.965926 0.258819
vn -0.000000 0.965926 0.258819
vn -0.000000 0.965926 0.258819
vn -0.000000 0.965926 0.258819
vn -0.000000 0.965926 0.258819
vn -0.000000 0.965926 0.258819
vn -0.000000 0.965926 0.258819
vn -0.000000 0.965926 0.258819
vn -0.000000 0.965926 0.258819
vn -0.000000 0.965926 0.258819
vn -0.000000 0.965926 0.258819
vn -0.000000 0.965926 0.258819
vn -0.000000 0.965926 0.258819
vn -0.000000 0.965926 0.258819
vn -0.000000 0.965926 0.258819
vn -0.000000 0.965926 0.258819
vn -0.000000 0.965926 0.258819
vn -0.000000 0.965926 0.258819
vn -0.000000 0.965926 0.258819
vn -0.000000 0.965926 0.258819
vn -0.000000 0.965926 0.258819
vn -0.000000 0.965926 0.258819
vn -0.000000 0.965926 0.258819
vn -0.000000 0.965926 0.258819
vn -0.000000 0.965926 0.258819
vn -0.000000 0.965926 0.258819
vn -0.000000 0.965926 0.258819
vn -0.000000 0.965926 0.258819
vn -0.000000 0.965926 0.258819
vn -0.000000 0.258819 -0.965926
vn -0.000000 0.258819 -0.965926
vn -0.000000 0.258819 -0.965926
vn -0.000000 0.258819 -0.965926
vn 1.000000 0.000000 -0.000000
vn 1.000000 -0.000000 0.000000
vn 0.980785 0.050493 -0.188443
vn 0.980785 0.050493 -0.188443
vn 0.923880 0.099046 -0.369644
vn 0.923880 0.099046 -0.369644
vn 0.831470 0.143792 -0.536640
vn 0.831470 0.143792 -0.536640
vn 0.707107 0.183013 -0.683013
vn 0.707107 0.183013 -0.683013
vn 0.555570 0.215200 -0.803138
vn 0.555570 0.215200 -0.803138
vn 0.382683 0.239118 -0.892399
vn 0.382683 0.239118 -0.892399
vn 0.195090 0.253846 -0.947366
vn 0.195090 0.253846 -0.947366
vn 1.000000 0.000000 -0.000000
vn 1.000000 0.000000 -0.000000
vn 0.382683 0.239118 -0.892399
vn 0.382683 0.239118 -0.892399
vn 0.707107 0.183013 -0.683013
vn 0.707107 0.183013 -0.683013
vn 0.923880 0.099046 -0.369644
vn 0.923880 0.099046 -0.369644
vn 0.000000 -0.258819 0.965926
vn 0.000000 -0.258819 0.965926
vn 0.000000 -0.258819 0.965926
vn 0.000000 -0.258819 0.965926
vn -1.000000 -0.000000 0.000000
vn -1.000000 -0.000000 0.000000
vn -1.000000 -0.000000 0.000000
vn -1.000000 -0.000000 0.000000
vn -0.195090 0.253846 -0.947366
vn -0.195090 0.253846 -0.947366
vn -0.382683 0.239118 -0.892399
vn -0.382683 0.239118 -0.892399
vn -0.555570 0.215200 -0.803138
vn -0.555570 0.215200 -0.803138
vn -0.707107 0.183013 -0.683013
vn -0.707107 0.183013 -0.683013
vn -0.831470 0.143792 -0.536640
vn -0.831470 0.143792 -0.536640
vn -0.923880 0.099046 -0.369644
vn -0.923880 0.099046 -0.369644
vn -0.980785 0.050493 -0.188443
vn -0.980785 0.050493 -0.188443
vn 1.000000 0.000000 -0.000000
vn 1.000000 0.000000 -0.000000
vn 1.000000 0.000000 -0.000000
vn 1.000000 0.000000 -0.000000
vn 1.000000 -0.000000 0.000000
vn 1.000000 0.000000 -0.000000
vn 0.923880 -0.099046 0.369644
vn 0.923880 -0.099046 0.369644
vn 0.707107 -0.183013 0.683013
vn 0.707107 -0.183013 0.683013
vn 0.382683 -0.239118 0.892399
vn 0.382683 -0.239118 0.892399
vn 1.000000 0.000000 -0.000000
vn 1.000000 0.000000 -0.000000
vn 0.342020 0.907673 0.243210
vn 0.342020 0.907673 0.243210
vn 0.342020 0.907673 0.243210
vn 0.342020 0.907673 0.243210
vn 0.000000 -0.258819 0.965926
vn 0.000000 -0.258819 0.965926
vn 0.000000 -0.258819 0.965926
vn 0.000000 -0.258819 0.965926
usemtl Opaque(202,209,238)
f 1/1/1 2/2/2 4/3/3
f 4/3/3 2/2/2 3/4/4
f 5/5/5 6/6/6 8/7/7
f 8/7/7 6/6/6 7/8/8
f 8/7/7 7/8/8 3/9/9
f 3/9/9 2/10/10 8/7/7
f 2/11/11 1/12/12 8/13/13
f 8/13/13 1/12/12 9/14/14
f 8/13/13 9/14/14 10/15/15
f 10/15/15 11/16/16 8/13/13
f 8/13/13 11/16/16 51/17/17
f 51/17/17 11/16/16 12/18/18
f 51/17/17 12/18/18 13/19/19
f 51/17/17 13/19/19 50/20/20
f 50/20/20 13/19/19 14/21/21
f 50/20/20 14/21/21 15/22/22
f 50/20/20 15/22/22 49/23/23
f 49/23/23 15/22/22 16/24/24
f 49/23/23 16/24/24 48/25/25
f 48/25/25 16/24/24 17/26/26
f 48/25/25 17/26/26 18/27/27
f 19/28/28 46/29/29 18/27/27
f 18/27/27 46/29/29 47/30/30
f 18/27/27 47/30/30 48/25/25
f 46/29/29 19/28/28 45/31/31
f 45/31/31 19/28/28 20/32/32
f 45/31/31 20/32/32 44/33/33
f 44/33/33 20/32/32 43/34/34
f 43/34/34 20/32/32 21/35/35
f 43/34/34 21/35/35 42/36/36
f 42/36/36 21/35/35 41/37/37
f 41/37/37 21/35/35 22/38/38
f 41/37/37 22/38/38 40/39/39
f 40/39/39 22/38/38 39/40/40
f 39/40/40 22/38/38 38/41/41
f 38/41/41 22/38/38 23/42/42
f 38/41/41 23/42/42 37/43/43
f 37/43/43 23/42/42 36/44/44
f 36/44/44 23/42/42 24/45/45
f 36/44/44 24/45/45 35/46/46
f 35/46/46 24/45/45 34/47/47
f 34/47/47 24/45/45 25/48/48
f 34/47/47 25/48/48 33/49/49
f 33/49/49 25/48/48 32/50/50
f 32/50/50 25/48/48 26/51/51
f 32/50/50 26/51/51 31/52/52
f 31/52/52 26/51/51 27/53/53
f 31/52/52 27/53/53 30/54/54
f 30/54/54 27/53/53 28/55/55
f 30/54/54 28/55/55 29/56/56
f 23/57/57 22/58/58 53/59/59
f 53/59/59 22/58/58 52/60/60
f 52/61/60 22/62/58 57/63/61
f 57/63/61 22/62/58 21/64/62
f 57/63/61 21/64/62 56/65/63
f 56/65/63 21/64/62 20/66/64
f 56/65/63 20/66/64 55/67/65
f 55/67/65 20/66/64 19/68/66
f 55/67/65 19/68/66 54/69/67
f 54/69/67 19/68/66 18/70/68
f 18/71/68 17/72/69 54/73/67
f 54/73/67 17/72/69 58/74/70
f 58/75/70 17/76/69 66/77/71
f 66/77/71 17/76/69 16/78/72
f 66/77/71 16/78/72 65/79/73
f 65/79/73 16/78/72 15/80/74
f 65/79/73 15/80/74 64/81/75
f 64/81/75 15/80/74 14/82/76
f 64/81/75 14/82/76 63/83/77
f 63/83/77 14/82/76 13/84/78
f 63/83/77 13/84/78 62/85/79
f 62/85/79 13/84/78 12/86/80
f 62/85/79 12/86/80 61/87/81
f 61/87/81 12/86/80 11/88/82
f 61/87/81 11/88/82 60/89/83
f 60/89/83 11/88/82 10/90/84
f 60/89/83 10/90/84 59/91/85
f 59/91/85 10/90/84 9/92/86
f 67/93/87 6/94/88 59/95/89
f 59/95/89 6/94/88 5/96/90
f 59/95/89 5/96/90 60/97/91
f 60/97/91 5/96/90 61/98/92
f 61/98/92 5/96/90 68/99/93
f 61/98/92 68/99/93 62/100/94
f 62/100/94 68/99/93 63/101/95
f 63/101/95 68/99/93 69/102/96
f 63/101/95 69/102/96 64/103/97
f 64/103/97 69/102/96 65/104/98
f 65/104/98 69/102/96 70/105/99
f 65/104/98 70/105/99 66/106/100
f 66/106/100 70/105/99 71/107/101
f 66/106/100 71/107/101 58/108/102
f 58/108/102 71/107/101 54/109/103
f 54/109/103 71/107/101 72/110/104
f 54/109/103 72/110/104 73/111/105
f 54/109/103 73/111/105 55/112/106
f 55/112/106 73/111/105 74/113/107
f 55/112/106 74/113/107 56/114/108
f 56/114/108 74/113/107 75/115/109
f 56/114/108 75/115/109 76/116/110
f 56/114/108 76/116/110 57/117/111
f 57/117/111 76/116/110 77/118/112
f 57/117/111 77/118/112 78/119/113
f 57/117/111 78/119/113 52/120/114
f 52/120/114 78/119/113 79/121/115
f 52/120/114 79/121/115 80/122/116
f 52/120/114 80/122/116 53/123/117
f 53/123/117 80/122/116 81/124/118
f 53/123/117 81/124/118 82/125/119
f 82/125/119 83/126/120 53/123/117
f 53/123/117 83/126/120 95/127/121
f 95/127/121 83/126/120 84/128/122
f 95/127/121 84/128/122 85/129/123
f 95/127/121 85/129/123 94/130/124
f 94/130/124 85/129/123 86/131/125
f 94/130/124 86/131/125 87/132/126
f 94/130/124 87/132/126 93/133/127
f 93/133/127 87/132/126 88/134/128
f 93/133/127 88/134/128 92/135/129
f 92/135/129 88/134/128 89/136/130
f 92/135/129 89/136/130 91/137/131
f 91/137/131 89/136/130 90/138/132
f 38/139/133 81/140/134 39/141/135
f 39/141/135 81/140/134 80/142/136
f 72/143/137 47/144/138 73/145/139
f 73/145/139 47/144/138 46/146/140
f 73/145/139 46/146/140 74/147/141
f 74/147/141 46/146/140 45/148/142
f 74/147/141 45/148/142 75/149/143
f 75/149/143 45/148/142 44/150/144
f 75/149/143 44/150/144 76/151/145
f 76/151/145 44/150/144 43/152/146
f 76/151/145 43/152/146 77/153/147
f 77/153/147 43/152/146 42/154/148
f 77/153/147 42/154/148 78/155/149
f 78/155/149 42/154/148 41/156/150
f 78/155/149 41/156/150 79/157/151
f 79/157/151 41/156/150 40/158/152
f 79/157/151 40/158/152 80/159/136
f 80/159/136 40/158/152 39/160/135
f 48/161/153 47/162/138 71/163/154
f 71/163/154 47/162/138 72/164/137
f 5/165/5 8/166/7 68/167/155
f 68/167/155 8/166/7 51/168/156
f 68/167/155 51/168/156 69/169/157
f 69/169/157 51/168/156 50/170/158
f 69/169/157 50/170/158 70/171/159
f 70/171/159 50/170/158 49/172/160
f 70/171/159 49/172/160 71/173/154
f 71/173/154 49/172/160 48/174/153
f 28/175/161 91/176/162 29/177/163
f 29/177/163 91/176/162 90/178/164
f 30/179/165 29/180/166 89/181/167
f 89/181/167 29/180/166 90/182/168
f 81/183/134 38/184/133 82/185/169
f 82/185/169 38/184/133 37/186/170
f 82/185/169 37/186/170 83/187/171
f 83/187/171 37/186/170 36/188/172
f 83/187/171 36/188/172 84/189/173
f 84/189/173 36/188/172 35/190/174
f 84/189/173 35/190/174 85/191/175
f 85/191/175 35/190/174 34/192/176
f 85/191/175 34/192/176 86/193/177
f 86/193/177 34/192/176 33/194/178
f 86/193/177 33/194/178 87/195/179
f 87/195/179 33/194/178 32/196/180
f 87/195/179 32/196/180 88/197/181
f 88/197/181 32/196/180 31/198/182
f 88/197/181 31/198/182 89/199/167
f 89/199/167 31/198/182 30/200/165
f 7/201/183 96/202/184 3/203/185
f 3/203/185 96/202/184 4/204/186
f 92/205/187 27/206/188 93/207/189
f 93/207/189 27/206/188 26/208/190
f 93/207/189 26/208/190 94/209/191
f 94/209/191 26/208/190 25/210/192
f 94/209/191 25/210/192 95/211/193
f 95/211/193 25/210/192 24/212/194
f 95/211/193 24/212/194 53/213/59
f 53/213/59 24/212/194 23/214/57
f 28/215/195 27/216/188 91/217/196
f 91/217/196 27/216/188 92/218/187
f 6/219/197 67/220/198 7/221/199
f 7/221/199 67/220/198 96/222/200
f 59/223/85 9/224/86 67/225/201
f 67/225/201 9/224/86 96/226/202
f 96/226/202 9/224/86 4/227/203
f 4/227/203 9/224/86 1/228/204
# 96 vertices
# 228 texture params
# 204 normals
# 188 facets

# 1 groups
