# WaveFront *.obj file (generated by Autodesk ATF)

mtllib body11_visual.mtl

g Body11

v -28.331812 0.256859 -2.016408
v -28.361576 0.255845 -2.012623
v -28.389312 0.252871 -2.001525
v -28.413129 0.248141 -1.983873
v -28.431405 0.241977 -1.960867
v -28.442894 0.234798 -1.934076
v -28.446812 0.227095 -1.905326
v -28.442894 0.219391 -1.876576
v -28.431405 0.212213 -1.849785
v -28.413129 0.206048 -1.826780
v -28.389312 0.201318 -1.809127
v -28.361576 0.198345 -1.798030
v -28.331812 0.197331 -1.794245
v -28.302048 0.198345 -1.798030
v -28.274312 0.201318 -1.809127
v -28.250495 0.206048 -1.826780
v -28.232219 0.212213 -1.849785
v -28.220731 0.219391 -1.876576
v -28.216812 0.227095 -1.905326
v -28.220731 0.234798 -1.934076
v -28.232219 0.241977 -1.960867
v -28.250495 0.248141 -1.983873
v -28.274312 0.252871 -2.001525
v -28.302048 0.255845 -2.012623
v -28.331812 0.583103 -3.233965
v -28.361576 0.582088 -3.230180
v -28.389312 0.579115 -3.219082
v -28.413129 0.574385 -3.201430
v -28.431405 0.568220 -3.178424
v -28.442894 0.561042 -3.151633
v -28.446812 0.553338 -3.122883
v -28.442894 0.545635 -3.094133
v -28.431405 0.538456 -3.067342
v -28.413129 0.532292 -3.044337
v -28.389312 0.527562 -3.026684
v -28.361576 0.524588 -3.015587
v -28.331812 0.523574 -3.011802
v -28.302048 0.524588 -3.015587
v -28.274312 0.527562 -3.026684
v -28.250495 0.532292 -3.044337
v -28.232219 0.538456 -3.067342
v -28.220731 0.545635 -3.094133
v -28.216812 0.553338 -3.122883
v -28.220731 0.561042 -3.151633
v -28.232219 0.568220 -3.178424
v -28.250495 0.574385 -3.201430
v -28.274312 0.579115 -3.219082
v -28.302048 0.582088 -3.230180
v -28.331812 0.585274 -1.928409
v -28.361576 0.584260 -1.924624
v -28.389312 0.581286 -1.913527
v -28.413129 0.576556 -1.895874
v -28.431405 0.570392 -1.872868
v -28.442894 0.563213 -1.846078
v -28.446812 0.555510 -1.817328
v -28.442894 0.547806 -1.788578
v -28.431405 0.540628 -1.761787
v -28.413129 0.534463 -1.738781
v -28.389312 0.529733 -1.721128
v -28.361576 0.526760 -1.710031
v -28.331812 0.525746 -1.706246
v -28.302048 0.526760 -1.710031
v -28.274312 0.529733 -1.721128
v -28.250495 0.534463 -1.738781
v -28.232219 0.540628 -1.761787
v -28.220731 0.547806 -1.788578
v -28.216812 0.555510 -1.817328
v -28.220731 0.563213 -1.846078
v -28.232219 0.570392 -1.872868
v -28.250495 0.576556 -1.895874
v -28.274312 0.581286 -1.913527
v -28.302048 0.584260 -1.924624
v -28.331812 0.911517 -3.145966
v -28.361576 0.910503 -3.142181
v -28.389312 0.907530 -3.131084
v -28.413129 0.902800 -3.113431
v -28.431405 0.896635 -3.090425
v -28.442894 0.889457 -3.063635
v -28.446812 0.881753 -3.034885
v -28.442894 0.874050 -3.006135
v -28.431405 0.866871 -2.979344
v -28.413129 0.860707 -2.956338
v -28.389312 0.855977 -2.938685
v -28.361576 0.853003 -2.927588
v -28.331812 0.851989 -2.923803
v -28.302048 0.853003 -2.927588
v -28.274312 0.855977 -2.938685
v -28.250495 0.860707 -2.956338
v -28.232219 0.866871 -2.979344
v -28.220731 0.874050 -3.006135
v -28.216812 0.881753 -3.034885
v -28.220731 0.889457 -3.063635
v -28.232219 0.896635 -3.090425
v -28.250495 0.902800 -3.113431
v -28.274312 0.907530 -3.131084
v -28.302048 0.910503 -3.142181
v -28.491242 0.128809 -1.538519
v -28.493894 0.137975 -1.572726
v -28.488775 0.147070 -1.606670
v -28.476130 0.155659 -1.638724
v -28.456566 0.163330 -1.667351
v -28.431020 0.169714 -1.691179
v -28.400717 0.174507 -1.709065
v -28.367111 0.177478 -1.720152
v -28.331812 0.178484 -1.723907
v -28.296513 0.177478 -1.720152
v -28.262907 0.174507 -1.709065
v -28.232604 0.169714 -1.691179
v -28.207058 0.163330 -1.667351
v -28.187494 0.155659 -1.638724
v -28.174849 0.147070 -1.606670
v -28.169730 0.137975 -1.572726
v -28.172382 0.128809 -1.538519
v -28.166930 0.208972 -1.524385
v -28.161680 0.291780 -1.509783
v -28.156638 0.377132 -1.494733
v -28.151812 0.464923 -1.479254
v -28.155746 0.474609 -1.515402
v -28.167374 0.483872 -1.549972
v -28.186189 0.492306 -1.581450
v -28.211369 0.499544 -1.608462
v -28.241812 0.505269 -1.629827
v -28.276189 0.509230 -1.644611
v -28.312997 0.511255 -1.652168
v -28.350627 0.511255 -1.652168
v -28.387435 0.509230 -1.644611
v -28.421812 0.505269 -1.629827
v -28.452256 0.499544 -1.608462
v -28.477435 0.492306 -1.581450
v -28.496250 0.483872 -1.549972
v -28.507879 0.474609 -1.515402
v -28.511812 0.464923 -1.479254
v -28.506986 0.377132 -1.494733
v -28.501944 0.291780 -1.509783
v -28.496694 0.208972 -1.524385
v -27.898209 0.464923 -1.479254
v -27.861812 0.366066 -1.496685
v -27.861812 0.878012 -3.407291
v -27.898209 0.972340 -3.372959
v -28.151812 0.972340 -3.372959
v -28.155746 0.962654 -3.336810
v -28.167374 0.953391 -3.302241
v -28.186189 0.944956 -3.270762
v -28.211369 0.937719 -3.243751
v -28.241812 0.931994 -3.222386
v -28.276189 0.928033 -3.207602
v -28.312997 0.926008 -3.200044
v -28.350627 0.926008 -3.200044
v -28.387435 0.928033 -3.207602
v -28.421812 0.931994 -3.222386
v -28.452256 0.937719 -3.243751
v -28.477435 0.944956 -3.270762
v -28.496250 0.953391 -3.302241
v -28.507879 0.962654 -3.336810
v -28.511812 0.972340 -3.372959
v -28.902066 0.972340 -3.372959
v -28.902066 0.464923 -1.479254
v -28.156638 0.888571 -3.403448
v -28.161680 0.807129 -3.433090
v -28.166930 0.728114 -3.461849
v -28.172382 0.651624 -3.489690
v -28.169730 0.642458 -3.455483
v -28.174849 0.633363 -3.421539
v -28.187494 0.624774 -3.389485
v -28.207058 0.617103 -3.360858
v -28.232604 0.610719 -3.337030
v -28.262907 0.605926 -3.319144
v -28.296513 0.602956 -3.308057
v -28.331812 0.601949 -3.304302
v -28.367111 0.602956 -3.308057
v -28.400717 0.605926 -3.319144
v -28.431020 0.610719 -3.337030
v -28.456566 0.617103 -3.360858
v -28.476130 0.624774 -3.389485
v -28.488775 0.633363 -3.421539
v -28.493894 0.642458 -3.455483
v -28.491242 0.651624 -3.489690
v -28.496694 0.728114 -3.461849
v -28.501944 0.807129 -3.433090
v -28.506986 0.888571 -3.403448
v -28.931812 0.128809 -1.538519
v -28.931812 0.651624 -3.489690
v -27.861812 0.128809 -1.538519
v -27.861812 0.651624 -3.489690
v -28.931812 0.497076 -3.531101
v -28.931812 -0.025739 -1.579931
v -27.920047 -0.025739 -1.579931
v -27.920047 0.497076 -3.531101
vt 0.490828 0.499764 0.000000
vt 0.268665 0.499764 0.000000
vt 0.494746 0.470000 0.000000
vt 0.264746 0.470000 0.000000
vt 0.490828 0.440236 0.000000
vt 0.268665 0.440236 0.000000
vt 0.479339 0.412500 0.000000
vt 0.280153 0.412500 0.000000
vt 0.461063 0.388683 0.000000
vt 0.298429 0.388683 0.000000
vt 0.437246 0.370407 0.000000
vt 0.322246 0.370407 0.000000
vt 0.409510 0.358919 0.000000
vt 0.349982 0.358919 0.000000
vt 0.379746 0.355000 0.000000
vt 0.280153 0.527500 0.000000
vt 0.479339 0.527500 0.000000
vt 0.298429 0.551317 0.000000
vt 0.461063 0.551317 0.000000
vt 0.322246 0.569593 0.000000
vt 0.437246 0.569593 0.000000
vt 0.349982 0.581081 0.000000
vt 0.409510 0.581081 0.000000
vt 0.379746 0.585000 0.000000
vt 1.751335 0.499764 0.000000
vt 1.529172 0.499764 0.000000
vt 1.755254 0.470000 0.000000
vt 1.525254 0.470000 0.000000
vt 1.751335 0.440236 0.000000
vt 1.529172 0.440236 0.000000
vt 1.739847 0.412500 0.000000
vt 1.540661 0.412500 0.000000
vt 1.721571 0.388683 0.000000
vt 1.558937 0.388683 0.000000
vt 1.697754 0.370407 0.000000
vt 1.582754 0.370407 0.000000
vt 1.670018 0.358919 0.000000
vt 1.610490 0.358919 0.000000
vt 1.640254 0.355000 0.000000
vt 1.540661 0.527500 0.000000
vt 1.739847 0.527500 0.000000
vt 1.558937 0.551317 0.000000
vt 1.721571 0.551317 0.000000
vt 1.582754 0.569593 0.000000
vt 1.697754 0.569593 0.000000
vt 1.610490 0.581081 0.000000
vt 1.670018 0.581081 0.000000
vt 1.640254 0.585000 0.000000
vt 0.340000 0.030107 0.000000
vt 0.000000 0.030107 0.000000
vt 0.340000 0.000000 0.000000
vt -0.000000 0.000000 0.000000
vt 0.340000 -0.030107 0.000000
vt -0.000000 -0.030107 0.000000
vt 0.340000 -0.060214 0.000000
vt -0.000000 -0.060214 0.000000
vt 0.340000 -0.090321 0.000000
vt 0.000000 -0.090321 0.000000
vt 0.340000 -0.120428 0.000000
vt 0.000000 -0.120428 0.000000
vt 0.340000 -0.150535 0.000000
vt -0.000000 -0.150535 0.000000
vt 0.340000 -0.180642 0.000000
vt -0.000000 -0.180642 0.000000
vt 0.340000 -0.210749 0.000000
vt -0.000000 -0.210749 0.000000
vt 0.340000 -0.240855 0.000000
vt 0.000000 -0.240855 0.000000
vt 0.340000 -0.270962 0.000000
vt 0.000000 -0.270962 0.000000
vt 0.340000 -0.301069 0.000000
vt 0.000000 -0.301069 0.000000
vt 0.340000 -0.331176 0.000000
vt 0.000000 -0.331176 0.000000
vt 0.340000 -0.361283 0.000000
vt -0.000000 -0.361283 0.000000
vt 0.340000 0.361283 0.000000
vt -0.000000 0.361283 0.000000
vt 0.340000 0.331176 0.000000
vt 0.000000 0.331176 0.000000
vt 0.340000 0.301069 0.000000
vt 0.000000 0.301069 0.000000
vt 0.340000 0.270962 0.000000
vt -0.000000 0.270962 0.000000
vt 0.340000 0.240855 0.000000
vt 0.000000 0.240855 0.000000
vt 0.340000 0.210749 0.000000
vt 0.000000 0.210749 0.000000
vt 0.340000 0.180642 0.000000
vt 0.000000 0.180642 0.000000
vt 0.340000 0.150535 0.000000
vt -0.000000 0.150535 0.000000
vt 0.340000 0.120428 0.000000
vt -0.000000 0.120428 0.000000
vt 0.340000 0.090321 0.000000
vt -0.000000 0.090321 0.000000
vt 0.340000 0.060214 0.000000
vt -0.000000 0.060214 0.000000
vt 0.340000 0.030107 0.000000
vt -0.000000 0.030107 0.000000
vt 0.340000 0.000000 0.000000
vt 0.000000 0.000000 0.000000
vt 0.340000 -0.030107 0.000000
vt -0.000000 -0.030107 0.000000
vt 0.340000 -0.060214 0.000000
vt -0.000000 -0.060214 0.000000
vt 0.340000 -0.090321 0.000000
vt -0.000000 -0.090321 0.000000
vt 0.340000 -0.120428 0.000000
vt -0.000000 -0.120428 0.000000
vt 0.340000 -0.150535 0.000000
vt 0.000000 -0.150535 0.000000
vt 0.340000 -0.180642 0.000000
vt 0.000000 -0.180642 0.000000
vt 0.340000 -0.210749 0.000000
vt 0.000000 -0.210749 0.000000
vt 0.340000 -0.240855 0.000000
vt -0.000000 -0.240855 0.000000
vt 0.340000 -0.270962 0.000000
vt 0.000000 -0.270962 0.000000
vt 0.340000 -0.301069 0.000000
vt 0.000000 -0.301069 0.000000
vt 0.340000 -0.331176 0.000000
vt 0.000000 -0.331176 0.000000
vt 0.340000 -0.361283 0.000000
vt -0.000000 -0.361283 0.000000
vt 0.340000 0.361283 0.000000
vt -0.000000 0.361283 0.000000
vt 0.340000 0.331176 0.000000
vt 0.000000 0.331176 0.000000
vt 0.340000 0.301069 0.000000
vt 0.000000 0.301069 0.000000
vt 0.340000 0.270962 0.000000
vt 0.000000 0.270962 0.000000
vt 0.340000 0.240855 0.000000
vt 0.000000 0.240855 0.000000
vt 0.340000 0.210749 0.000000
vt -0.000000 0.210749 0.000000
vt 0.340000 0.180642 0.000000
vt -0.000000 0.180642 0.000000
vt 0.340000 0.150535 0.000000
vt -0.000000 0.150535 0.000000
vt 0.340000 0.120428 0.000000
vt 0.000000 0.120428 0.000000
vt 0.340000 0.090321 0.000000
vt -0.000000 0.090321 0.000000
vt 0.340000 0.060214 0.000000
vt -0.000000 0.060214 0.000000
vt -0.340467 0.300307 0.000000
vt -0.340467 0.262769 0.000000
vt -0.259266 0.292107 0.000000
vt -0.175385 0.284117 0.000000
vt -0.088928 0.276332 0.000000
vt 0.000000 0.268749 0.000000
vt -0.000000 0.232915 0.000000
vt -0.340467 0.225231 0.000000
vt 0.000000 0.197082 0.000000
vt -0.340467 0.187692 0.000000
vt 0.000000 0.161249 0.000000
vt -0.340467 0.150154 0.000000
vt 0.000000 0.125416 0.000000
vt -0.340467 0.112615 0.000000
vt -0.000000 0.089583 0.000000
vt -0.340467 0.075077 0.000000
vt 0.000000 0.053750 0.000000
vt -0.340467 0.037538 0.000000
vt 0.000000 0.017917 0.000000
vt -0.340467 -0.000000 0.000000
vt -0.000000 -0.017917 0.000000
vt -0.340467 -0.037538 0.000000
vt 0.000000 -0.053750 0.000000
vt -0.340467 -0.075077 0.000000
vt 0.000000 -0.089583 0.000000
vt -0.340467 -0.112615 0.000000
vt -0.000000 -0.125416 0.000000
vt -0.340467 -0.150154 0.000000
vt -0.000000 -0.161249 0.000000
vt -0.340467 -0.187692 0.000000
vt 0.000000 -0.197082 0.000000
vt -0.340467 -0.225231 0.000000
vt -0.000000 -0.232915 0.000000
vt -0.340467 -0.262769 0.000000
vt 0.000000 -0.268749 0.000000
vt -0.088928 -0.276332 0.000000
vt -0.175385 -0.284117 0.000000
vt -0.259266 -0.292107 0.000000
vt -0.340467 -0.300307 0.000000
vt 0.020997 -0.106418 0.000000
vt 1.999003 -0.106418 0.000000
vt 0.029746 0.000000 0.000000
vt 1.990254 -0.000000 0.000000
vt 1.990254 0.036397 0.000000
vt 0.409510 0.358919 0.000000
vt 0.029746 0.036397 0.000000
vt 0.379746 0.355000 0.000000
vt 0.102959 0.305562 0.000000
vt 0.135547 0.324377 0.000000
vt 0.349982 0.358919 0.000000
vt 0.163512 0.349556 0.000000
vt 0.322246 0.370407 0.000000
vt 0.185631 0.380000 0.000000
vt 0.298429 0.388683 0.000000
vt 0.280153 0.412500 0.000000
vt 1.990254 0.290000 0.000000
vt 1.952830 0.293933 0.000000
vt 1.917041 0.305562 0.000000
vt 1.640254 0.355000 0.000000
vt 1.884453 0.324377 0.000000
vt 1.670018 0.358919 0.000000
vt 1.856488 0.349556 0.000000
vt 1.697754 0.370407 0.000000
vt 1.834369 0.380000 0.000000
vt 1.721571 0.388683 0.000000
vt 1.739847 0.412500 0.000000
vt 1.819064 0.414377 0.000000
vt 1.751335 0.440236 0.000000
vt 1.811240 0.451185 0.000000
vt 1.755254 0.470000 0.000000
vt 1.811240 0.488815 0.000000
vt 1.751335 0.499764 0.000000
vt 1.819064 0.525623 0.000000
vt 1.739847 0.527500 0.000000
vt 1.834369 0.560000 0.000000
vt 1.721571 0.551317 0.000000
vt 1.697754 0.569593 0.000000
vt 1.856488 0.590444 0.000000
vt 1.670018 0.581081 0.000000
vt 1.884453 0.615623 0.000000
vt 1.640254 0.585000 0.000000
vt 1.917041 0.634438 0.000000
vt 1.990254 1.040254 0.000000
vt 1.952830 0.646067 0.000000
vt 1.990254 0.650000 0.000000
vt 1.610490 0.581081 0.000000
vt 0.029746 1.040254 0.000000
vt 0.409510 0.581081 0.000000
vt 0.379746 0.585000 0.000000
vt 0.102959 0.634438 0.000000
vt 0.135547 0.615623 0.000000
vt 0.029746 0.650000 0.000000
vt 0.067170 0.646067 0.000000
vt 0.349982 0.581081 0.000000
vt 0.163512 0.590444 0.000000
vt 0.322246 0.569593 0.000000
vt 0.185631 0.560000 0.000000
vt 0.298429 0.551317 0.000000
vt 0.280153 0.527500 0.000000
vt 0.200936 0.525623 0.000000
vt 0.268665 0.499764 0.000000
vt 0.208760 0.488815 0.000000
vt 0.264746 0.470000 0.000000
vt 0.208760 0.451185 0.000000
vt 0.268665 0.440236 0.000000
vt 0.200936 0.414377 0.000000
vt 0.067170 0.293933 0.000000
vt 0.029746 0.290000 0.000000
vt 0.490828 0.440236 0.000000
vt 1.529172 0.440236 0.000000
vt 0.494746 0.470000 0.000000
vt 1.525254 0.470000 0.000000
vt 0.490828 0.499764 0.000000
vt 1.529172 0.499764 0.000000
vt 0.479339 0.527500 0.000000
vt 1.540661 0.527500 0.000000
vt 0.461063 0.551317 0.000000
vt 1.558937 0.551317 0.000000
vt 0.437246 0.569593 0.000000
vt 1.582754 0.569593 0.000000
vt 1.540661 0.412500 0.000000
vt 0.479339 0.412500 0.000000
vt 1.558937 0.388683 0.000000
vt 0.461063 0.388683 0.000000
vt 1.582754 0.370407 0.000000
vt 0.437246 0.370407 0.000000
vt 1.610490 0.358919 0.000000
vt -0.088928 0.261165 0.000000
vt 0.000000 0.268749 0.000000
vt -0.340467 0.274728 0.000000
vt 0.000000 0.304582 0.000000
vt -0.340467 0.312267 0.000000
vt 0.000000 0.340415 0.000000
vt -0.340467 0.349805 0.000000
vt 0.000000 0.376248 0.000000
vt -0.340467 0.387343 0.000000
vt 0.000000 0.412081 0.000000
vt -0.340467 0.424882 0.000000
vt 0.000000 0.447914 0.000000
vt -0.340467 0.462420 0.000000
vt 0.000000 0.483747 0.000000
vt -0.340467 0.499959 0.000000
vt 0.000000 0.519581 0.000000
vt -0.340467 0.537497 0.000000
vt 0.000000 0.555414 0.000000
vt -0.340467 0.575036 0.000000
vt 0.000000 0.591247 0.000000
vt -0.340467 0.612574 0.000000
vt 0.000000 0.627080 0.000000
vt -0.340467 0.650113 0.000000
vt 0.000000 0.662913 0.000000
vt -0.340467 0.687651 0.000000
vt 0.000000 0.698746 0.000000
vt -0.340467 0.725189 0.000000
vt 0.000000 0.734580 0.000000
vt -0.340467 0.762728 0.000000
vt 0.000000 0.770413 0.000000
vt -0.340467 0.800266 0.000000
vt 0.000000 0.806246 0.000000
vt -0.088928 0.813829 0.000000
vt -0.175385 0.821614 0.000000
vt -0.259266 0.829604 0.000000
vt -0.340467 0.837805 0.000000
vt -0.340467 0.237190 0.000000
vt -0.259266 0.245390 0.000000
vt -0.175385 0.253381 0.000000
vt 0.029746 -0.341299 0.000000
vt 1.990254 -0.341299 0.000000
vt 0.000000 -0.000000 0.000000
vt 2.020000 -0.000000 0.000000
vt 0.650000 -0.341299 0.000000
vt 1.040254 -0.341299 0.000000
vt 0.645174 -0.252154 0.000000
vt 0.640132 -0.165485 0.000000
vt 1.070000 -0.000000 0.000000
vt 0.634882 -0.081399 0.000000
vt 0.629430 -0.000000 0.000000
vt 0.000000 0.629430 0.000000
vt -0.000000 0.310570 0.000000
vt 0.035413 0.632082 0.000000
vt 0.035413 0.307918 0.000000
vt 0.070555 0.313037 0.000000
vt 0.070555 0.626963 0.000000
vt 0.103739 0.325682 0.000000
vt 0.103739 0.614318 0.000000
vt 0.133377 0.345246 0.000000
vt 0.133377 0.594754 0.000000
vt 0.158045 0.370792 0.000000
vt 0.158045 0.569208 0.000000
vt 0.176562 0.401095 0.000000
vt 0.176562 0.538905 0.000000
vt 0.188039 0.434701 0.000000
vt 0.188039 0.505299 0.000000
vt 0.191928 0.470000 0.000000
vt 0.000000 -0.240917 0.000000
vt 0.299868 -0.165485 0.000000
vt 0.000000 -0.000000 0.000000
vt 0.305118 -0.081399 0.000000
vt 0.310570 -0.000000 0.000000
vt 0.294826 -0.252154 0.000000
vt 0.036397 -0.341299 0.000000
vt 0.290000 -0.341299 0.000000
vt -0.160000 2.020000 0.000000
vt -0.400000 1.999003 0.000000
vt -0.160000 0.000000 0.000000
vt -0.400000 0.020997 0.000000
vt 0.000000 0.650000 0.000000
vt 0.089145 0.645174 0.000000
vt -0.000000 1.040254 0.000000
vt 0.175814 0.640132 0.000000
vt 0.341299 1.070000 0.000000
vt 0.259899 0.634882 0.000000
vt 0.341299 0.629430 0.000000
vt 2.020000 0.629430 0.000000
vt 1.984587 0.632082 0.000000
vt 2.020000 0.310570 0.000000
vt 1.984587 0.307918 0.000000
vt 1.949445 0.313037 0.000000
vt 1.949445 0.626963 0.000000
vt 1.916261 0.325682 0.000000
vt 1.916261 0.614318 0.000000
vt 1.886623 0.345246 0.000000
vt 1.886623 0.594754 0.000000
vt 1.861955 0.370792 0.000000
vt 1.861955 0.569208 0.000000
vt 1.843438 0.401095 0.000000
vt 1.843438 0.538905 0.000000
vt 1.831961 0.434701 0.000000
vt 1.831961 0.505299 0.000000
vt 1.828072 0.470000 0.000000
vt 0.341299 0.310570 0.000000
vt 0.259899 0.305118 0.000000
vt 0.341299 0.000000 0.000000
vt 0.175814 0.299868 0.000000
vt 0.100382 -0.000000 0.000000
vt 0.089145 0.294826 0.000000
vt -0.000000 0.036397 0.000000
vt 0.000000 0.290000 0.000000
vt 0.160000 2.020000 0.000000
vt -0.000000 2.020000 0.000000
vt 0.160000 -0.000000 0.000000
vt 0.000000 0.000000 0.000000
vt -0.000000 0.160000 0.000000
vt -0.310570 0.160000 0.000000
vt -0.058235 -0.000000 0.000000
vt -0.629430 0.160000 0.000000
vt -1.070000 -0.000000 0.000000
vt -1.070000 0.160000 0.000000
vt 0.170268 2.020000 0.000000
vt 0.000000 2.020000 0.000000
vt 0.170268 -0.000000 0.000000
vt 0.000000 -0.000000 0.000000
vt 0.000000 0.160000 0.000000
vt 0.058235 0.000000 0.000000
vt 0.310570 0.160000 0.000000
vt 0.629430 0.160000 0.000000
vt 1.070000 -0.000000 0.000000
vt 1.070000 0.160000 0.000000
vt -2.020000 0.058235 0.000000
vt -0.000000 0.058235 0.000000
vt -2.020000 1.070000 0.000000
vt -0.000000 1.070000 0.000000
vn 0.000000 0.965926 0.258819
vn 0.000000 0.965926 0.258819
vn 0.000000 0.965926 0.258819
vn 0.000000 0.965926 0.258819
vn 0.000000 0.965926 0.258819
vn 0.000000 0.965926 0.258819
vn 0.000000 0.965926 0.258819
vn 0.000000 0.965926 0.258819
vn 0.000000 0.965926 0.258819
vn 0.000000 0.965926 0.258819
vn 0.000000 0.965926 0.258819
vn 0.000000 0.965926 0.258819
vn 0.000000 0.965926 0.258819
vn 0.000000 0.965926 0.258819
vn 0.000000 0.965926 0.258819
vn 0.000000 0.965926 0.258819
vn 0.000000 0.965926 0.258819
vn 0.000000 0.965926 0.258819
vn 0.000000 0.965926 0.258819
vn 0.000000 0.965926 0.258819
vn 0.000000 0.965926 0.258819
vn 0.000000 0.965926 0.258819
vn 0.000000 0.965926 0.258819
vn 0.000000 0.965926 0.258819
vn 0.000000 0.965926 0.258819
vn 0.000000 0.965926 0.258819
vn 0.000000 0.965926 0.258819
vn 0.000000 0.965926 0.258819
vn 0.000000 0.965926 0.258819
vn 0.000000 0.965926 0.258819
vn 0.000000 0.965926 0.258819
vn 0.000000 0.965926 0.258819
vn 0.000000 0.965926 0.258819
vn 0.000000 0.965926 0.258819
vn 0.000000 0.965926 0.258819
vn 0.000000 0.965926 0.258819
vn 0.000000 0.965926 0.258819
vn 0.000000 0.965926 0.258819
vn 0.000000 0.965926 0.258819
vn 0.000000 0.965926 0.258819
vn 0.000000 0.965926 0.258819
vn 0.000000 0.965926 0.258819
vn 0.000000 0.965926 0.258819
vn 0.000000 0.965926 0.258819
vn 0.000000 0.965926 0.258819
vn 0.000000 0.965926 0.258819
vn 0.000000 0.965926 0.258819
vn 0.000000 0.965926 0.258819
vn 0.258819 -0.250000 0.933013
vn 0.258819 -0.250000 0.933013
vn 0.000000 -0.258819 0.965926
vn -0.000000 -0.258819 0.965926
vn -0.258819 -0.250000 0.933013
vn -0.258819 -0.250000 0.933013
vn -0.500000 -0.224144 0.836516
vn -0.500000 -0.224144 0.836516
vn -0.707107 -0.183013 0.683013
vn -0.707107 -0.183013 0.683013
vn -0.866025 -0.129410 0.482963
vn -0.866025 -0.129410 0.482963
vn -0.965926 -0.066987 0.250000
vn -0.965926 -0.066987 0.250000
vn -1.000000 0.000000 -0.000000
vn -1.000000 0.000000 -0.000000
vn -0.965926 0.066987 -0.250000
vn -0.965926 0.066987 -0.250000
vn -0.866025 0.129410 -0.482963
vn -0.866025 0.129410 -0.482963
vn -0.707107 0.183013 -0.683013
vn -0.707107 0.183013 -0.683013
vn -0.500000 0.224144 -0.836516
vn -0.500000 0.224144 -0.836516
vn -0.258819 0.250000 -0.933013
vn -0.258819 0.250000 -0.933013
vn 0.000000 0.258819 -0.965926
vn 0.000000 0.258819 -0.965926
vn 0.258819 0.250000 -0.933013
vn 0.258819 0.250000 -0.933013
vn 0.500000 0.224144 -0.836516
vn 0.500000 0.224144 -0.836516
vn 0.707107 0.183013 -0.683013
vn 0.707107 0.183013 -0.683013
vn 0.866025 0.129410 -0.482963
vn 0.866025 0.129410 -0.482963
vn 0.965926 0.066987 -0.250000
vn 0.965926 0.066987 -0.250000
vn 1.000000 -0.000000 0.000000
vn 1.000000 -0.000000 0.000000
vn 0.965926 -0.066987 0.250000
vn 0.965926 -0.066987 0.250000
vn 0.866025 -0.129410 0.482963
vn 0.866025 -0.129410 0.482963
vn 0.707107 -0.183013 0.683013
vn 0.707107 -0.183013 0.683013
vn 0.500000 -0.224144 0.836516
vn 0.500000 -0.224144 0.836516
vn 0.258819 -0.250000 0.933013
vn 0.258819 -0.250000 0.933013
vn 0.000000 -0.258819 0.965926
vn 0.000000 -0.258819 0.965926
vn -0.258819 -0.250000 0.933013
vn -0.258819 -0.250000 0.933013
vn -0.500000 -0.224144 0.836516
vn -0.500000 -0.224144 0.836516
vn -0.707107 -0.183013 0.683013
vn -0.707107 -0.183013 0.683013
vn -0.866025 -0.129410 0.482963
vn -0.866025 -0.129410 0.482963
vn -0.965926 -0.066987 0.250000
vn -0.965926 -0.066987 0.250000
vn -1.000000 0.000000 -0.000000
vn -1.000000 0.000000 -0.000000
vn -0.965926 0.066987 -0.250000
vn -0.965926 0.066987 -0.250000
vn -0.866025 0.129410 -0.482963
vn -0.866025 0.129410 -0.482963
vn -0.707107 0.183013 -0.683013
vn -0.707107 0.183013 -0.683013
vn -0.500000 0.224144 -0.836516
vn -0.500000 0.224144 -0.836516
vn -0.258819 0.250000 -0.933013
vn -0.258819 0.250000 -0.933013
vn 0.000000 0.258819 -0.965926
vn 0.000000 0.258819 -0.965926
vn 0.258819 0.250000 -0.933013
vn 0.258819 0.250000 -0.933013
vn 0.500000 0.224144 -0.836516
vn 0.500000 0.224144 -0.836516
vn 0.707107 0.183013 -0.683013
vn 0.707107 0.183013 -0.683013
vn 0.866025 0.129410 -0.482963
vn 0.866025 0.129410 -0.482963
vn 0.965926 0.066987 -0.250000
vn 0.965926 0.066987 -0.250000
vn 1.000000 -0.000000 0.000000
vn 1.000000 -0.000000 0.000000
vn 0.965926 -0.066987 0.250000
vn 0.965926 -0.066987 0.250000
vn 0.866025 -0.129410 0.482963
vn 0.866025 -0.129410 0.482963
vn 0.707107 -0.183013 0.683013
vn 0.707107 -0.183013 0.683013
vn 0.500000 -0.224144 0.836516
vn 0.500000 -0.224144 0.836516
vn 0.981689 0.097958 -0.163375
vn 0.998020 0.041521 0.047251
vn 0.989337 0.085730 -0.117739
vn 0.994604 0.073738 -0.072982
vn 0.997649 0.062005 -0.029196
vn 0.998630 0.050553 0.013546
vn 0.976807 -0.003185 0.214098
vn 0.966499 -0.014483 0.256261
vn 0.912293 -0.054574 0.405885
vn 0.888638 -0.067369 0.453634
vn 0.807908 -0.101369 0.580524
vn 0.768170 -0.114601 0.629906
vn 0.668214 -0.141524 0.730385
vn 0.610871 -0.153914 0.776625
vn 0.499315 -0.173284 0.848915
vn 0.424283 -0.183424 0.886758
vn 0.308593 -0.195262 0.930937
vn 0.217352 -0.201715 0.955023
vn 0.104385 -0.206496 0.972863
vn -0.000000 -0.207912 0.978148
vn -0.104385 -0.206496 0.972863
vn -0.217352 -0.201715 0.955023
vn -0.308593 -0.195262 0.930937
vn -0.424283 -0.183424 0.886758
vn -0.499315 -0.173284 0.848915
vn -0.610871 -0.153914 0.776625
vn -0.668214 -0.141524 0.730385
vn -0.768170 -0.114601 0.629906
vn -0.807908 -0.101369 0.580524
vn -0.888638 -0.067369 0.453634
vn -0.912293 -0.054574 0.405885
vn -0.966499 -0.014483 0.256261
vn -0.976807 -0.003185 0.214098
vn -0.998020 0.041521 0.047251
vn -0.998630 0.050553 0.013546
vn -0.997649 0.062005 -0.029196
vn -0.994604 0.073738 -0.072982
vn -0.989337 0.085730 -0.117739
vn -0.981689 0.097958 -0.163375
vn 0.939693 0.330366 0.088521
vn 0.939693 0.330366 0.088521
vn 0.939693 0.330366 0.088521
vn 0.939693 0.330366 0.088521
vn 0.000000 0.965926 0.258819
vn 0.000000 0.965926 0.258819
vn 0.000000 0.965926 0.258819
vn 0.000000 0.965926 0.258819
vn 0.000000 0.965926 0.258819
vn 0.000000 0.965926 0.258819
vn 0.000000 0.965926 0.258819
vn 0.000000 0.965926 0.258819
vn 0.000000 0.965926 0.258819
vn 0.000000 0.965926 0.258819
vn 0.000000 0.965926 0.258819
vn 0.000000 0.965926 0.258819
vn 0.000000 0.965926 0.258819
vn 0.000000 0.965926 0.258819
vn 0.000000 0.965926 0.258819
vn 0.000000 0.965926 0.258819
vn 0.000000 0.965926 0.258819
vn 0.000000 0.965926 0.258819
vn 0.000000 0.965926 0.258819
vn 0.000000 0.965926 0.258819
vn 0.000000 0.965926 0.258819
vn 0.000000 0.965926 0.258819
vn 0.000000 0.965926 0.258819
vn 0.000000 0.965926 0.258819
vn 0.000000 0.965926 0.258819
vn 0.000000 0.965926 0.258819
vn 0.000000 0.965926 0.258819
vn 0.000000 0.965926 0.258819
vn 0.000000 0.965926 0.258819
vn 0.000000 0.965926 0.258819
vn 0.000000 0.965926 0.258819
vn 0.000000 0.965926 0.258819
vn 0.000000 0.965926 0.258819
vn 0.000000 0.965926 0.258819
vn 0.000000 0.965926 0.258819
vn 0.000000 0.965926 0.258819
vn 0.000000 0.965926 0.258819
vn 0.000000 0.965926 0.258819
vn 0.000000 0.965926 0.258819
vn 0.000000 0.965926 0.258819
vn 0.000000 0.965926 0.258819
vn 0.000000 0.965926 0.258819
vn 0.000000 0.965926 0.258819
vn 0.000000 0.965926 0.258819
vn 0.000000 0.965926 0.258819
vn 0.000000 0.965926 0.258819
vn 0.000000 0.965926 0.258819
vn 0.000000 0.965926 0.258819
vn 0.000000 0.965926 0.258819
vn 0.000000 0.965926 0.258819
vn 0.000000 0.965926 0.258819
vn 0.000000 0.965926 0.258819
vn 0.000000 0.965926 0.258819
vn 0.000000 0.965926 0.258819
vn 0.000000 0.965926 0.258819
vn 0.000000 0.965926 0.258819
vn 0.000000 0.965926 0.258819
vn 0.000000 0.965926 0.258819
vn 0.000000 0.965926 0.258819
vn 0.000000 0.965926 0.258819
vn 0.000000 0.965926 0.258819
vn 0.000000 0.965926 0.258819
vn 0.000000 0.965926 0.258819
vn 0.000000 0.965926 0.258819
vn 0.000000 0.965926 0.258819
vn 0.000000 0.965926 0.258819
vn 0.000000 0.965926 0.258819
vn 0.000000 0.965926 0.258819
vn 0.000000 0.965926 0.258819
vn 0.000000 0.965926 0.258819
vn 0.000000 0.965926 0.258819
vn 0.000000 0.965926 0.258819
vn 0.000000 0.965926 0.258819
vn 0.000000 0.965926 0.258819
vn 0.000000 0.965926 0.258819
vn 0.000000 0.965926 0.258819
vn 0.000000 0.965926 0.258819
vn 0.000000 0.965926 0.258819
vn 0.000000 0.965926 0.258819
vn 0.000000 0.965926 0.258819
vn 0.000000 0.965926 0.258819
vn 0.000000 0.965926 0.258819
vn 0.000000 0.965926 0.258819
vn 0.000000 0.965926 0.258819
vn 0.997649 0.039100 0.056287
vn 0.998630 0.050553 0.013546
vn 0.998020 0.059584 -0.020160
vn 0.976807 0.104290 -0.187007
vn 0.966499 0.115588 -0.229170
vn 0.912293 0.155680 -0.378793
vn 0.888638 0.168474 -0.426543
vn 0.807908 0.202474 -0.553433
vn 0.768170 0.215706 -0.602814
vn 0.668214 0.242629 -0.703293
vn 0.610871 0.255019 -0.749534
vn 0.499315 0.274389 -0.821824
vn 0.424283 0.284529 -0.859667
vn 0.308593 0.296367 -0.903846
vn 0.217352 0.302821 -0.927932
vn 0.104385 0.307601 -0.945772
vn 0.000000 0.309017 -0.951057
vn -0.104385 0.307601 -0.945772
vn -0.217352 0.302821 -0.927932
vn -0.308593 0.296367 -0.903846
vn -0.424283 0.284529 -0.859667
vn -0.499315 0.274389 -0.821824
vn -0.610871 0.255019 -0.749534
vn -0.668214 0.242629 -0.703293
vn -0.768170 0.215706 -0.602814
vn -0.807908 0.202474 -0.553433
vn -0.888638 0.168474 -0.426543
vn -0.912293 0.155680 -0.378793
vn -0.966499 0.115588 -0.229170
vn -0.976807 0.104290 -0.187007
vn -0.998020 0.059584 -0.020160
vn -0.998630 0.050553 0.013546
vn -0.997649 0.039100 0.056287
vn -0.994604 0.027368 0.100073
vn -0.989337 0.015375 0.144830
vn -0.981689 0.003147 0.190466
vn 0.981689 0.003147 0.190466
vn 0.989337 0.015375 0.144830
vn 0.994604 0.027368 0.100073
vn -0.996195 0.084186 0.022558
vn -0.996195 0.084186 0.022558
vn -0.996195 0.084186 0.022558
vn -0.996195 0.084186 0.022558
vn -0.000000 -0.173648 0.984808
vn -0.000000 -0.173648 0.984808
vn -0.000000 -0.173648 0.984808
vn -0.000000 -0.173648 0.984808
vn -0.000000 -0.173648 0.984808
vn -0.000000 -0.173648 0.984808
vn -0.000000 -0.173648 0.984808
vn 0.000000 0.965926 0.258819
vn 0.000000 0.965926 0.258819
vn 0.000000 0.965926 0.258819
vn 0.000000 0.965926 0.258819
vn 0.000000 0.965926 0.258819
vn 0.000000 0.965926 0.258819
vn 0.000000 0.965926 0.258819
vn 0.000000 0.965926 0.258819
vn 0.000000 0.965926 0.258819
vn 0.000000 0.965926 0.258819
vn 0.000000 0.965926 0.258819
vn 0.000000 0.965926 0.258819
vn 0.000000 0.965926 0.258819
vn 0.000000 0.965926 0.258819
vn 0.000000 0.965926 0.258819
vn 0.000000 0.965926 0.258819
vn 0.000000 0.965926 0.258819
vn -0.000000 -0.173648 0.984808
vn -0.000000 -0.173648 0.984808
vn -0.000000 -0.173648 0.984808
vn -0.000000 -0.173648 0.984808
vn -0.000000 -0.173648 0.984808
vn -0.000000 -0.173648 0.984808
vn -0.000000 -0.173648 0.984808
vn -0.000000 -0.173648 0.984808
vn 1.000000 -0.000000 0.000000
vn 1.000000 -0.000000 0.000000
vn 1.000000 -0.000000 0.000000
vn 1.000000 -0.000000 0.000000
vn 0.000000 0.342020 -0.939693
vn 0.000000 0.342020 -0.939693
vn 0.000000 0.342020 -0.939693
vn 0.000000 0.342020 -0.939693
vn 0.000000 0.342020 -0.939693
vn 0.000000 0.342020 -0.939693
vn 0.000000 0.342020 -0.939693
vn 0.000000 0.965926 0.258819
vn 0.000000 0.965926 0.258819
vn 0.000000 0.965926 0.258819
vn 0.000000 0.965926 0.258819
vn 0.000000 0.965926 0.258819
vn 0.000000 0.965926 0.258819
vn 0.000000 0.965926 0.258819
vn 0.000000 0.965926 0.258819
vn 0.000000 0.965926 0.258819
vn 0.000000 0.965926 0.258819
vn 0.000000 0.965926 0.258819
vn 0.000000 0.965926 0.258819
vn 0.000000 0.965926 0.258819
vn 0.000000 0.965926 0.258819
vn 0.000000 0.965926 0.258819
vn 0.000000 0.965926 0.258819
vn 0.000000 0.965926 0.258819
vn 0.000000 0.342020 -0.939693
vn 0.000000 0.342020 -0.939693
vn 0.000000 0.342020 -0.939693
vn 0.000000 0.342020 -0.939693
vn 0.000000 0.342020 -0.939693
vn 0.000000 0.342020 -0.939693
vn 0.000000 0.342020 -0.939693
vn 0.000000 0.342020 -0.939693
vn -1.000000 0.000000 -0.000000
vn -1.000000 0.000000 -0.000000
vn -1.000000 0.000000 -0.000000
vn -1.000000 0.000000 -0.000000
vn -0.000000 -0.258819 0.965926
vn -0.000000 -0.258819 0.965926
vn -0.000000 -0.258819 0.965926
vn -0.000000 -0.258819 0.965926
vn -0.000000 -0.258819 0.965926
vn -0.000000 -0.258819 0.965926
vn 0.939693 -0.330366 -0.088521
vn 0.939693 -0.330366 -0.088521
vn 0.939693 -0.330366 -0.088521
vn 0.939693 -0.330366 -0.088521
vn 0.000000 0.258819 -0.965926
vn 0.000000 0.258819 -0.965926
vn 0.000000 0.258819 -0.965926
vn 0.000000 0.258819 -0.965926
vn 0.000000 0.258819 -0.965926
vn 0.000000 0.258819 -0.965926
vn -0.000000 -0.965926 -0.258819
vn -0.000000 -0.965926 -0.258819
vn -0.000000 -0.965926 -0.258819
vn -0.000000 -0.965926 -0.258819
usemtl Paint_-_Enamel_Glossy_(Black)
f 2/1/1 12/2/2 1/3/3
f 1/3/3 12/2/2 13/4/4
f 1/3/3 13/4/4 24/5/5
f 24/5/5 13/4/4 14/6/6
f 24/5/5 14/6/6 23/7/7
f 23/7/7 14/6/6 15/8/8
f 23/7/7 15/8/8 22/9/9
f 22/9/9 15/8/8 16/10/10
f 22/9/9 16/10/10 21/11/11
f 21/11/11 16/10/10 17/12/12
f 21/11/11 17/12/12 20/13/13
f 20/13/13 17/12/12 18/14/14
f 20/13/13 18/14/14 19/15/15
f 12/2/2 2/1/1 11/16/16
f 11/16/16 2/1/1 3/17/17
f 11/16/16 3/17/17 10/18/18
f 10/18/18 3/17/17 4/19/19
f 10/18/18 4/19/19 9/20/20
f 9/20/20 4/19/19 5/21/21
f 9/20/20 5/21/21 8/22/22
f 8/22/22 5/21/21 6/23/23
f 8/22/22 6/23/23 7/24/24
f 26/25/25 36/26/26 25/27/27
f 25/27/27 36/26/26 37/28/28
f 25/27/27 37/28/28 48/29/29
f 48/29/29 37/28/28 38/30/30
f 48/29/29 38/30/30 47/31/31
f 47/31/31 38/30/30 39/32/32
f 47/31/31 39/32/32 46/33/33
f 46/33/33 39/32/32 40/34/34
f 46/33/33 40/34/34 45/35/35
f 45/35/35 40/34/34 41/36/36
f 45/35/35 41/36/36 44/37/37
f 44/37/37 41/36/36 42/38/38
f 44/37/37 42/38/38 43/39/39
f 36/26/26 26/25/25 35/40/40
f 35/40/40 26/25/25 27/41/41
f 35/40/40 27/41/41 34/42/42
f 34/42/42 27/41/41 28/43/43
f 34/42/42 28/43/43 33/44/44
f 33/44/44 28/43/43 29/45/45
f 33/44/44 29/45/45 32/46/46
f 32/46/46 29/45/45 30/47/47
f 32/46/46 30/47/47 31/48/48
f 50/49/49 2/50/50 49/51/51
f 49/51/51 2/50/50 1/52/52
f 49/51/51 1/52/52 72/53/53
f 72/53/53 1/52/52 24/54/54
f 72/53/53 24/54/54 71/55/55
f 71/55/55 24/54/54 23/56/56
f 71/55/55 23/56/56 70/57/57
f 70/57/57 23/56/56 22/58/58
f 70/57/57 22/58/58 69/59/59
f 69/59/59 22/58/58 21/60/60
f 69/59/59 21/60/60 68/61/61
f 68/61/61 21/60/60 20/62/62
f 68/61/61 20/62/62 67/63/63
f 67/63/63 20/62/62 19/64/64
f 67/63/63 19/64/64 66/65/65
f 66/65/65 19/64/64 18/66/66
f 66/65/65 18/66/66 65/67/67
f 65/67/67 18/66/66 17/68/68
f 65/67/67 17/68/68 64/69/69
f 64/69/69 17/68/68 16/70/70
f 64/69/69 16/70/70 63/71/71
f 63/71/71 16/70/70 15/72/72
f 63/71/71 15/72/72 62/73/73
f 62/73/73 15/72/72 14/74/74
f 62/73/73 14/74/74 61/75/75
f 61/75/75 14/74/74 13/76/76
f 61/77/75 13/78/76 60/79/77
f 60/79/77 13/78/76 12/80/78
f 60/79/77 12/80/78 59/81/79
f 59/81/79 12/80/78 11/82/80
f 59/81/79 11/82/80 58/83/81
f 58/83/81 11/82/80 10/84/82
f 58/83/81 10/84/82 57/85/83
f 57/85/83 10/84/82 9/86/84
f 57/85/83 9/86/84 56/87/85
f 56/87/85 9/86/84 8/88/86
f 56/87/85 8/88/86 55/89/87
f 55/89/87 8/88/86 7/90/88
f 55/89/87 7/90/88 54/91/89
f 54/91/89 7/90/88 6/92/90
f 54/91/89 6/92/90 53/93/91
f 53/93/91 6/92/90 5/94/92
f 53/93/91 5/94/92 52/95/93
f 52/95/93 5/94/92 4/96/94
f 52/95/93 4/96/94 51/97/95
f 51/97/95 4/96/94 3/98/96
f 51/97/95 3/98/96 50/49/49
f 50/49/49 3/98/96 2/50/50
f 74/99/97 26/100/98 73/101/99
f 73/101/99 26/100/98 25/102/100
f 73/101/99 25/102/100 96/103/101
f 96/103/101 25/102/100 48/104/102
f 96/103/101 48/104/102 95/105/103
f 95/105/103 48/104/102 47/106/104
f 95/105/103 47/106/104 94/107/105
f 94/107/105 47/106/104 46/108/106
f 94/107/105 46/108/106 93/109/107
f 93/109/107 46/108/106 45/110/108
f 93/109/107 45/110/108 92/111/109
f 92/111/109 45/110/108 44/112/110
f 92/111/109 44/112/110 91/113/111
f 91/113/111 44/112/110 43/114/112
f 91/113/111 43/114/112 90/115/113
f 90/115/113 43/114/112 42/116/114
f 90/115/113 42/116/114 89/117/115
f 89/117/115 42/116/114 41/118/116
f 89/117/115 41/118/116 88/119/117
f 88/119/117 41/118/116 40/120/118
f 88/119/117 40/120/118 87/121/119
f 87/121/119 40/120/118 39/122/120
f 87/121/119 39/122/120 86/123/121
f 86/123/121 39/122/120 38/124/122
f 86/123/121 38/124/122 85/125/123
f 85/125/123 38/124/122 37/126/124
f 85/127/123 37/128/124 84/129/125
f 84/129/125 37/128/124 36/130/126
f 84/129/125 36/130/126 83/131/127
f 83/131/127 36/130/126 35/132/128
f 83/131/127 35/132/128 82/133/129
f 82/133/129 35/132/128 34/134/130
f 82/133/129 34/134/130 81/135/131
f 81/135/131 34/134/130 33/136/132
f 81/135/131 33/136/132 80/137/133
f 80/137/133 33/136/132 32/138/134
f 80/137/133 32/138/134 79/139/135
f 79/139/135 32/138/134 31/140/136
f 79/139/135 31/140/136 78/141/137
f 78/141/137 31/140/136 30/142/138
f 78/141/137 30/142/138 77/143/139
f 77/143/139 30/142/138 29/144/140
f 77/143/139 29/144/140 76/145/141
f 76/145/141 29/144/140 28/146/142
f 76/145/141 28/146/142 75/147/143
f 75/147/143 28/146/142 27/148/144
f 75/147/143 27/148/144 74/99/97
f 74/99/97 27/148/144 26/100/98
f 97/149/145 98/150/146 135/151/147
f 135/151/147 98/150/146 134/152/148
f 134/152/148 98/150/146 133/153/149
f 133/153/149 98/150/146 132/154/150
f 132/154/150 98/150/146 131/155/151
f 131/155/151 98/150/146 99/156/152
f 131/155/151 99/156/152 130/157/153
f 130/157/153 99/156/152 100/158/154
f 130/157/153 100/158/154 129/159/155
f 129/159/155 100/158/154 101/160/156
f 129/159/155 101/160/156 128/161/157
f 128/161/157 101/160/156 102/162/158
f 128/161/157 102/162/158 127/163/159
f 127/163/159 102/162/158 103/164/160
f 127/163/159 103/164/160 126/165/161
f 126/165/161 103/164/160 104/166/162
f 126/165/161 104/166/162 125/167/163
f 125/167/163 104/166/162 105/168/164
f 125/167/163 105/168/164 124/169/165
f 124/169/165 105/168/164 106/170/166
f 124/169/165 106/170/166 123/171/167
f 123/171/167 106/170/166 107/172/168
f 123/171/167 107/172/168 122/173/169
f 122/173/169 107/172/168 108/174/170
f 122/173/169 108/174/170 121/175/171
f 121/175/171 108/174/170 109/176/172
f 121/175/171 109/176/172 120/177/173
f 120/177/173 109/176/172 110/178/174
f 120/177/173 110/178/174 119/179/175
f 119/179/175 110/178/174 111/180/176
f 119/179/175 111/180/176 118/181/177
f 118/181/177 111/180/176 112/182/178
f 118/181/177 112/182/178 117/183/179
f 117/183/179 112/182/178 116/184/180
f 116/184/180 112/182/178 115/185/181
f 115/185/181 112/182/178 114/186/182
f 114/186/182 112/182/178 113/187/183
f 137/188/184 138/189/185 136/190/186
f 136/190/186 138/189/185 139/191/187
f 139/192/188 68/193/189 136/194/190
f 136/194/190 68/193/189 67/195/191
f 136/194/190 67/195/191 119/196/192
f 119/196/192 67/195/191 120/197/193
f 120/197/193 67/195/191 66/198/194
f 120/197/193 66/198/194 121/199/195
f 121/199/195 66/198/194 65/200/196
f 121/199/195 65/200/196 122/201/197
f 122/201/197 65/200/196 64/202/198
f 122/201/197 64/202/198 63/203/199
f 140/204/200 141/205/201 139/192/188
f 139/192/188 141/205/201 142/206/202
f 139/192/188 142/206/202 91/207/203
f 91/207/203 142/206/202 143/208/204
f 91/207/203 143/208/204 92/209/205
f 92/209/205 143/208/204 144/210/206
f 92/209/205 144/210/206 93/211/207
f 93/211/207 144/210/206 145/212/208
f 93/211/207 145/212/208 94/213/209
f 94/213/209 145/212/208 95/214/210
f 95/214/210 145/212/208 146/215/211
f 95/214/210 146/215/211 96/216/212
f 96/216/212 146/215/211 147/217/213
f 96/216/212 147/217/213 73/218/214
f 73/218/214 147/217/213 148/219/215
f 73/218/214 148/219/215 74/220/216
f 74/220/216 148/219/215 149/221/217
f 74/220/216 149/221/217 75/222/218
f 75/222/218 149/221/217 150/223/219
f 75/222/218 150/223/219 76/224/220
f 76/224/220 150/223/219 77/225/221
f 77/225/221 150/223/219 151/226/222
f 77/225/221 151/226/222 78/227/223
f 78/227/223 151/226/222 152/228/224
f 78/227/223 152/228/224 79/229/225
f 79/229/225 152/228/224 153/230/226
f 79/229/225 153/230/226 156/231/227
f 156/231/227 153/230/226 154/232/228
f 156/231/227 154/232/228 155/233/229
f 79/229/225 156/231/227 80/234/230
f 80/234/230 156/231/227 157/235/231
f 80/234/230 157/235/231 54/236/232
f 54/236/232 157/235/231 55/237/233
f 55/237/233 157/235/231 130/238/234
f 55/237/233 130/238/234 129/239/235
f 132/240/236 131/241/237 157/235/231
f 157/235/231 131/241/237 130/238/234
f 55/237/233 129/239/235 56/242/238
f 56/242/238 129/239/235 128/243/239
f 56/242/238 128/243/239 57/244/240
f 57/244/240 128/243/239 127/245/241
f 57/244/240 127/245/241 58/246/242
f 58/246/242 127/245/241 59/247/243
f 59/247/243 127/245/241 126/248/244
f 59/247/243 126/248/244 60/249/245
f 60/249/245 126/248/244 125/250/246
f 60/249/245 125/250/246 61/251/247
f 61/251/247 125/250/246 124/252/248
f 61/251/247 124/252/248 62/253/249
f 62/253/249 124/252/248 123/254/250
f 62/253/249 123/254/250 63/203/199
f 63/203/199 123/254/250 122/201/197
f 119/196/192 118/255/251 136/194/190
f 136/194/190 118/255/251 117/256/252
f 72/257/253 86/258/254 49/259/255
f 49/259/255 86/258/254 85/260/256
f 49/259/255 85/260/256 50/261/257
f 50/261/257 85/260/256 84/262/258
f 50/261/257 84/262/258 51/263/259
f 51/263/259 84/262/258 83/264/260
f 51/263/259 83/264/260 52/265/261
f 52/265/261 83/264/260 82/266/262
f 52/265/261 82/266/262 53/267/263
f 53/267/263 82/266/262 81/268/264
f 53/267/263 81/268/264 54/236/232
f 54/236/232 81/268/264 80/234/230
f 86/258/254 72/257/253 87/269/265
f 87/269/265 72/257/253 71/270/266
f 87/269/265 71/270/266 88/271/267
f 88/271/267 71/270/266 70/272/268
f 88/271/267 70/272/268 89/273/269
f 89/273/269 70/272/268 69/274/270
f 89/273/269 69/274/270 90/275/271
f 90/275/271 69/274/270 68/193/189
f 90/275/271 68/193/189 139/192/188
f 91/207/203 90/275/271 139/192/188
f 180/276/272 155/277/273 176/278/274
f 176/278/274 155/277/273 154/279/275
f 176/278/274 154/279/275 175/280/276
f 175/280/276 154/279/275 153/281/277
f 175/280/276 153/281/277 174/282/278
f 174/282/278 153/281/277 152/283/279
f 174/282/278 152/283/279 173/284/280
f 173/284/280 152/283/279 151/285/281
f 173/284/280 151/285/281 172/286/282
f 172/286/282 151/285/281 150/287/283
f 172/286/282 150/287/283 171/288/284
f 171/288/284 150/287/283 149/289/285
f 171/288/284 149/289/285 170/290/286
f 170/290/286 149/289/285 148/291/287
f 170/290/286 148/291/287 169/292/288
f 169/292/288 148/291/287 147/293/289
f 169/292/288 147/293/289 168/294/290
f 168/294/290 147/293/289 146/295/291
f 168/294/290 146/295/291 167/296/292
f 167/296/292 146/295/291 145/297/293
f 167/296/292 145/297/293 166/298/294
f 166/298/294 145/297/293 144/299/295
f 166/298/294 144/299/295 165/300/296
f 165/300/296 144/299/295 143/301/297
f 165/300/296 143/301/297 164/302/298
f 164/302/298 143/301/297 142/303/299
f 164/302/298 142/303/299 163/304/300
f 163/304/300 142/303/299 141/305/301
f 163/304/300 141/305/301 162/306/302
f 162/306/302 141/305/301 140/307/303
f 162/306/302 140/307/303 158/308/304
f 158/308/304 159/309/305 162/306/302
f 162/306/302 159/309/305 160/310/306
f 162/306/302 160/310/306 161/311/307
f 177/312/308 178/313/309 176/278/274
f 176/278/274 178/313/309 179/314/310
f 176/278/274 179/314/310 180/276/272
f 157/315/311 156/316/312 181/317/313
f 181/317/313 156/316/312 182/318/314
f 132/319/315 157/320/316 133/321/317
f 133/321/317 157/320/316 134/322/318
f 134/322/318 157/320/316 181/323/319
f 134/322/318 181/323/319 135/324/320
f 135/324/320 181/323/319 97/325/321
f 97/326/322 113/327/323 98/328/324
f 98/328/324 113/327/323 112/329/325
f 98/328/324 112/329/325 111/330/326
f 98/328/324 111/330/326 99/331/327
f 99/331/327 111/330/326 110/332/328
f 99/331/327 110/332/328 100/333/329
f 100/333/329 110/332/328 109/334/330
f 100/333/329 109/334/330 101/335/331
f 101/335/331 109/334/330 108/336/332
f 101/335/331 108/336/332 102/337/333
f 102/337/333 108/336/332 107/338/334
f 102/337/333 107/338/334 103/339/335
f 103/339/335 107/338/334 106/340/336
f 103/339/335 106/340/336 104/341/337
f 104/341/337 106/340/336 105/342/338
f 137/343/339 115/344/340 183/345/341
f 183/345/341 115/344/340 114/346/342
f 183/345/341 114/346/342 113/347/343
f 115/344/340 137/343/339 116/348/344
f 116/348/344 137/343/339 136/349/345
f 116/348/344 136/349/345 117/350/346
f 184/351/347 138/352/348 183/353/349
f 183/353/349 138/352/348 137/354/350
f 155/355/351 180/356/352 156/357/353
f 156/357/353 180/356/352 179/358/354
f 156/357/353 179/358/354 182/359/355
f 182/359/355 179/358/354 178/360/356
f 182/359/355 178/360/356 177/361/357
f 177/362/358 176/363/359 161/364/360
f 161/364/360 176/363/359 162/365/361
f 162/365/361 176/363/359 163/366/362
f 163/366/362 176/363/359 175/367/363
f 163/366/362 175/367/363 164/368/364
f 164/368/364 175/367/363 174/369/365
f 164/368/364 174/369/365 165/370/366
f 165/370/366 174/369/365 173/371/367
f 165/370/366 173/371/367 166/372/368
f 166/372/368 173/371/367 172/373/369
f 166/372/368 172/373/369 167/374/370
f 167/374/370 172/373/369 171/375/371
f 167/374/370 171/375/371 168/376/372
f 168/376/372 171/375/371 170/377/373
f 168/376/372 170/377/373 169/378/374
f 161/379/375 160/380/376 184/381/377
f 184/381/377 160/380/376 159/382/378
f 184/381/377 159/382/378 138/383/379
f 138/383/379 159/382/378 158/384/380
f 138/383/379 158/384/380 139/385/381
f 139/385/381 158/384/380 140/386/382
f 182/387/383 185/388/384 181/389/385
f 181/389/385 185/388/384 186/390/386
f 183/391/387 113/392/388 187/393/389
f 187/393/389 113/392/388 97/394/390
f 187/393/389 97/394/390 186/395/391
f 186/395/391 97/394/390 181/396/392
f 188/397/393 184/398/394 187/399/395
f 187/399/395 184/398/394 183/400/396
f 184/401/397 188/402/398 161/403/399
f 161/403/399 188/402/398 177/404/400
f 177/404/400 188/402/398 185/405/401
f 177/404/400 185/405/401 182/406/402
f 188/407/403 187/408/404 185/409/405
f 185/409/405 187/408/404 186/410/406
# 188 vertices
# 410 texture params
# 406 normals
# 372 facets

# 1 groups
