# WaveFront *.obj file (generated by Autodesk ATF)

mtllib body178_visual.mtl

g Body178

v -27.480000 0.427271 0.903406
v -27.480000 0.407860 0.975851
v -28.080000 0.407860 0.975851
v -28.080000 0.427271 0.903406
v -27.480000 0.499716 0.922817
v -28.080000 0.499716 0.922817
v -27.480000 0.480304 0.995262
v -28.080000 0.480304 0.995262
vt 0.000000 0.000000 0.000000
vt 0.075000 0.000000 0.000000
vt -0.000000 0.600000 0.000000
vt 0.075000 0.600000 0.000000
vt 0.000000 0.000000 0.000000
vt 0.075000 0.000000 0.000000
vt 0.000000 0.600000 0.000000
vt 0.075000 0.600000 0.000000
vt 0.000000 0.000000 0.000000
vt 0.075000 -0.000000 0.000000
vt 0.000000 0.600000 0.000000
vt 0.075000 0.600000 0.000000
vt 0.000000 0.000000 0.000000
vt 0.075000 -0.000000 0.000000
vt 0.000000 0.600000 0.000000
vt 0.075000 0.600000 0.000000
vt 0.037500 0.037500 0.000000
vt -0.037500 0.037500 0.000000
vt 0.037500 -0.037500 0.000000
vt -0.037500 -0.037500 0.000000
vt -0.037500 -0.037500 0.000000
vt 0.037500 -0.037500 0.000000
vt -0.037500 0.037500 0.000000
vt 0.037500 0.037500 0.000000
vn 0.000000 -0.965926 -0.258819
vn 0.000000 -0.965926 -0.258819
vn 0.000000 -0.965926 -0.258819
vn 0.000000 -0.965926 -0.258819
vn -0.000000 0.258819 -0.965926
vn -0.000000 0.258819 -0.965926
vn -0.000000 0.258819 -0.965926
vn -0.000000 0.258819 -0.965926
vn -0.000000 0.965926 0.258819
vn -0.000000 0.965926 0.258819
vn -0.000000 0.965926 0.258819
vn -0.000000 0.965926 0.258819
vn 0.000000 -0.258819 0.965926
vn 0.000000 -0.258819 0.965926
vn 0.000000 -0.258819 0.965926
vn 0.000000 -0.258819 0.965926
vn -1.000000 -0.000000 0.000000
vn -1.000000 -0.000000 0.000000
vn -1.000000 -0.000000 0.000000
vn -1.000000 -0.000000 0.000000
vn 1.000000 0.000000 -0.000000
vn 1.000000 0.000000 -0.000000
vn 1.000000 0.000000 -0.000000
vn 1.000000 0.000000 -0.000000
usemtl Opaque(196,197,196)
f 1/1/1 2/2/2 4/3/3
f 4/3/3 2/2/2 3/4/4
f 5/5/5 1/6/6 6/7/7
f 6/7/7 1/6/6 4/8/8
f 7/9/9 5/10/10 8/11/11
f 8/11/11 5/10/10 6/12/12
f 2/13/13 7/14/14 3/15/15
f 3/15/15 7/14/14 8/16/16
f 3/17/17 8/18/18 4/19/19
f 4/19/19 8/18/18 6/20/20
f 7/21/21 2/22/22 5/23/23
f 5/23/23 2/22/22 1/24/24
# 8 vertices
# 24 texture params
# 24 normals
# 12 facets

# 1 groups
