# WaveFront *.obj file (generated by Autodesk ATF)

mtllib body113_visual.mtl

g Body113

v -27.238363 2.181824 -2.890465
v -27.238363 2.150766 -2.774554
v -27.292363 2.150766 -2.774554
v -27.292363 2.181824 -2.890465
v -27.238363 2.266677 -2.743495
v -27.292363 2.266677 -2.743495
v -27.238363 2.297735 -2.859407
v -27.292363 2.297735 -2.859407
vt -0.000000 -0.054000 0.000000
vt 0.120000 -0.054000 0.000000
vt -0.000000 0.000000 0.000000
vt 0.120000 0.000000 0.000000
vt -0.120000 -0.054000 0.000000
vt 0.000000 -0.054000 0.000000
vt -0.120000 0.000000 0.000000
vt 0.000000 0.000000 0.000000
vt -0.120000 -0.054000 0.000000
vt 0.000000 -0.054000 0.000000
vt -0.120000 -0.000000 0.000000
vt -0.000000 0.000000 0.000000
vt 0.120000 -0.054000 0.000000
vt -0.000000 0.000000 0.000000
vt 0.120000 -0.000000 0.000000
vt -0.060000 -0.060000 0.000000
vt 0.060000 -0.060000 0.000000
vt -0.060000 0.060000 0.000000
vt 0.060000 0.060000 0.000000
vt -0.060000 -0.060000 0.000000
vt 0.060000 -0.060000 0.000000
vt -0.060000 0.060000 0.000000
vt 0.060000 0.060000 0.000000
vn -0.000000 -0.965926 -0.258819
vn -0.000000 -0.965926 -0.258819
vn -0.000000 -0.965926 -0.258819
vn -0.000000 -0.965926 -0.258819
vn -0.000000 -0.258819 0.965926
vn -0.000000 -0.258819 0.965926
vn -0.000000 -0.258819 0.965926
vn -0.000000 -0.258819 0.965926
vn 0.000000 0.965926 0.258819
vn 0.000000 0.965926 0.258819
vn 0.000000 0.965926 0.258819
vn 0.000000 0.965926 0.258819
vn 0.000000 0.258819 -0.965926
vn 0.000000 0.258819 -0.965926
vn 0.000000 0.258819 -0.965926
vn 0.000000 0.258819 -0.965926
vn -1.000000 0.000000 -0.000000
vn -1.000000 0.000000 -0.000000
vn -1.000000 0.000000 -0.000000
vn -1.000000 0.000000 -0.000000
vn 1.000000 -0.000000 0.000000
vn 1.000000 -0.000000 0.000000
vn 1.000000 -0.000000 0.000000
vn 1.000000 -0.000000 0.000000
usemtl Paint_-_Enamel_Glossy_(Red)
f 1/1/1 2/2/2 4/3/3
f 4/3/3 2/2/2 3/4/4
f 2/5/5 5/6/6 3/7/7
f 3/7/7 5/6/6 6/8/8
f 5/9/9 7/10/10 6/11/11
f 6/11/11 7/10/10 8/12/12
f 7/10/13 1/13/14 8/14/15
f 8/14/15 1/13/14 4/15/16
f 4/16/17 3/17/18 8/18/19
f 8/18/19 3/17/18 6/19/20
f 2/20/21 1/21/22 5/22/23
f 5/22/23 1/21/22 7/23/24
# 8 vertices
# 23 texture params
# 24 normals
# 12 facets

# 1 groups
