# WaveFront *.obj file (generated by Autodesk ATF)

mtllib body25_visual.mtl

g Body25

v -28.174312 0.265761 -3.479201
v -28.174312 0.271256 -3.492466
v -28.174312 0.279996 -3.503857
v -28.174312 0.291387 -3.512597
v -28.174312 0.304652 -3.518092
v -28.174312 0.318887 -3.519966
v -28.174312 0.333122 -3.518092
v -28.174312 0.346387 -3.512597
v -28.174312 0.357778 -3.503857
v -28.174312 0.366519 -3.492466
v -28.174312 0.372013 -3.479201
v -28.174312 0.373887 -3.464966
v -28.174312 0.372013 -3.450731
v -28.174312 0.366519 -3.437466
v -28.174312 0.357778 -3.426075
v -28.174312 0.346387 -3.417334
v -28.174312 0.333122 -3.411840
v -28.174312 0.318887 -3.409966
v -28.174312 0.304652 -3.411840
v -28.174312 0.291387 -3.417334
v -28.174312 0.279996 -3.426075
v -28.174312 0.271256 -3.437466
v -28.174312 0.265761 -3.450731
v -28.174312 0.263887 -3.464966
v -28.164312 0.256102 -3.481789
v -28.164312 0.253900 -3.466275
v -28.164312 0.255475 -3.450684
v -28.164312 0.260736 -3.435924
v -28.164312 0.269376 -3.422851
v -28.164312 0.280893 -3.412226
v -28.164312 0.294619 -3.404666
v -28.164312 0.309754 -3.400611
v -28.164312 0.325421 -3.400295
v -28.164312 0.340708 -3.403738
v -28.164312 0.354727 -3.410739
v -28.164312 0.366663 -3.420892
v -28.164312 0.375822 -3.433606
v -28.164312 0.381672 -3.448143
v -28.164312 0.383874 -3.463657
v -28.164312 0.382299 -3.479247
v -28.164312 0.377038 -3.494008
v -28.164312 0.368398 -3.507080
v -28.164312 0.356881 -3.517705
v -28.164312 0.343156 -3.525265
v -28.164312 0.328020 -3.529321
v -28.164312 0.312353 -3.529637
v -28.164312 0.297066 -3.526194
v -28.164312 0.283048 -3.519192
v -28.164312 0.271112 -3.509040
v -28.164312 0.261952 -3.496326
v -28.172972 0.376843 -3.449437
v -28.169312 0.380378 -3.448489
v -28.172972 0.266332 -3.493913
v -28.169312 0.263126 -3.495679
v -28.169312 0.257396 -3.481442
v -28.172972 0.260932 -3.480495
v -28.172972 0.274787 -3.505649
v -28.169312 0.272096 -3.508131
v -28.172972 0.285805 -3.515021
v -28.169312 0.283786 -3.518075
v -28.172972 0.298745 -3.521484
v -28.169312 0.297516 -3.524932
v -28.172972 0.312856 -3.524662
v -28.169312 0.312488 -3.528304
v -28.172972 0.327317 -3.524371
v -28.169312 0.327832 -3.527995
v -28.172972 0.341289 -3.520627
v -28.169312 0.342655 -3.524023
v -28.172972 0.353958 -3.513648
v -28.169312 0.356098 -3.516618
v -28.172972 0.364590 -3.503841
v -28.169312 0.367378 -3.506212
v -28.172972 0.372565 -3.491774
v -28.169312 0.375840 -3.493409
v -28.172972 0.377421 -3.478149
v -28.169312 0.380992 -3.478953
v -28.172972 0.378875 -3.463758
v -28.169312 0.382534 -3.463684
v -28.172972 0.371442 -3.436018
v -28.169312 0.374648 -3.434252
v -28.172972 0.362987 -3.424282
v -28.169312 0.365678 -3.421800
v -28.172972 0.351970 -3.414910
v -28.169312 0.353988 -3.411857
v -28.172972 0.339029 -3.408448
v -28.169312 0.340258 -3.405000
v -28.172972 0.324918 -3.405270
v -28.169312 0.325286 -3.401628
v -28.172972 0.310457 -3.405561
v -28.169312 0.309943 -3.401937
v -28.172972 0.296485 -3.409305
v -28.169312 0.295119 -3.405909
v -28.172972 0.283816 -3.416283
v -28.169312 0.281676 -3.413313
v -28.172972 0.273184 -3.426091
v -28.169312 0.270396 -3.423719
v -28.172972 0.265209 -3.438158
v -28.169312 0.261934 -3.436523
v -28.172972 0.260353 -3.451783
v -28.169312 0.256782 -3.450979
v -28.172972 0.258899 -3.466174
v -28.169312 0.255240 -3.466248
v -27.004312 0.256102 -3.481789
v -27.004312 0.261952 -3.496326
v -27.004312 0.271112 -3.509040
v -27.004312 0.283048 -3.519192
v -27.004312 0.297066 -3.526194
v -27.004312 0.312353 -3.529637
v -27.004312 0.328020 -3.529321
v -27.004312 0.343156 -3.525265
v -27.004312 0.356881 -3.517705
v -27.004312 0.368398 -3.507080
v -27.004312 0.377038 -3.494008
v -27.004312 0.382299 -3.479247
v -27.004312 0.383874 -3.463657
v -27.004312 0.381672 -3.448143
v -27.004312 0.375822 -3.433606
v -27.004312 0.366663 -3.420892
v -27.004312 0.354727 -3.410739
v -27.004312 0.340708 -3.403738
v -27.004312 0.325421 -3.400295
v -27.004312 0.309754 -3.400611
v -27.004312 0.294619 -3.404666
v -27.004312 0.280893 -3.412226
v -27.004312 0.269376 -3.422851
v -27.004312 0.260736 -3.435924
v -27.004312 0.255475 -3.450684
v -27.004312 0.253900 -3.466275
v -26.994312 0.265761 -3.479201
v -26.994312 0.263887 -3.464966
v -26.994312 0.265761 -3.450731
v -26.994312 0.271256 -3.437466
v -26.994312 0.279996 -3.426075
v -26.994312 0.291387 -3.417334
v -26.994312 0.304652 -3.411840
v -26.994312 0.318887 -3.409966
v -26.994312 0.333122 -3.411840
v -26.994312 0.346387 -3.417334
v -26.994312 0.357778 -3.426075
v -26.994312 0.366519 -3.437466
v -26.994312 0.372013 -3.450731
v -26.994312 0.373887 -3.464966
v -26.994312 0.372013 -3.479201
v -26.994312 0.366519 -3.492466
v -26.994312 0.357778 -3.503857
v -26.994312 0.346387 -3.512597
v -26.994312 0.333122 -3.518092
v -26.994312 0.318887 -3.519966
v -26.994312 0.304652 -3.518092
v -26.994312 0.291387 -3.512597
v -26.994312 0.279996 -3.503857
v -26.994312 0.271256 -3.492466
v -26.999312 0.380378 -3.448489
v -26.995652 0.376843 -3.449437
v -26.999312 0.263126 -3.495679
v -26.995652 0.266332 -3.493913
v -26.995652 0.260932 -3.480495
v -26.999312 0.257396 -3.481442
v -26.999312 0.272096 -3.508131
v -26.995652 0.274787 -3.505649
v -26.999312 0.283786 -3.518075
v -26.995652 0.285805 -3.515021
v -26.999312 0.297516 -3.524932
v -26.995652 0.298745 -3.521484
v -26.999312 0.312488 -3.528304
v -26.995652 0.312856 -3.524662
v -26.999312 0.327832 -3.527995
v -26.995652 0.327317 -3.524371
v -26.999312 0.342655 -3.524023
v -26.995652 0.341289 -3.520627
v -26.999312 0.356098 -3.516618
v -26.995652 0.353958 -3.513648
v -26.999312 0.367378 -3.506212
v -26.995652 0.364590 -3.503841
v -26.999312 0.375840 -3.493409
v -26.995652 0.372565 -3.491774
v -26.999312 0.380992 -3.478953
v -26.995652 0.377421 -3.478149
v -26.999312 0.382534 -3.463684
v -26.995652 0.378875 -3.463758
v -26.999312 0.374648 -3.434252
v -26.995652 0.371442 -3.436018
v -26.999312 0.365678 -3.421800
v -26.995652 0.362987 -3.424282
v -26.999312 0.353988 -3.411857
v -26.995652 0.351970 -3.414910
v -26.999312 0.340258 -3.405000
v -26.995652 0.339029 -3.408448
v -26.999312 0.325286 -3.401628
v -26.995652 0.324918 -3.405270
v -26.999312 0.309943 -3.401937
v -26.995652 0.310457 -3.405561
v -26.999312 0.295119 -3.405909
v -26.995652 0.296485 -3.409305
v -26.999312 0.281676 -3.413313
v -26.995652 0.283816 -3.416283
v -26.999312 0.270396 -3.423719
v -26.995652 0.273184 -3.426091
v -26.999312 0.261934 -3.436523
v -26.995652 0.265209 -3.438158
v -26.999312 0.256782 -3.450979
v -26.995652 0.260353 -3.451783
v -26.999312 0.255240 -3.466248
v -26.995652 0.258899 -3.466174
v -27.874312 0.381672 -3.448143
v -27.584312 0.381672 -3.448143
v -27.294312 0.381672 -3.448143
v -27.874312 0.261952 -3.496326
v -27.584312 0.261952 -3.496326
v -27.294312 0.261952 -3.496326
v -27.294312 0.256102 -3.481789
v -27.584312 0.256102 -3.481789
v -27.874312 0.256102 -3.481789
v -27.874312 0.271112 -3.509040
v -27.584312 0.271112 -3.509040
v -27.294312 0.271112 -3.509040
v -27.874312 0.283048 -3.519192
v -27.584312 0.283048 -3.519192
v -27.294312 0.283048 -3.519192
v -27.874312 0.297066 -3.526194
v -27.584312 0.297066 -3.526194
v -27.294312 0.297066 -3.526194
v -27.874312 0.312353 -3.529637
v -27.584312 0.312353 -3.529637
v -27.294312 0.312353 -3.529637
v -27.874312 0.328020 -3.529321
v -27.584312 0.328020 -3.529321
v -27.294312 0.328020 -3.529321
v -27.874312 0.343156 -3.525265
v -27.584312 0.343156 -3.525265
v -27.294312 0.343156 -3.525265
v -27.874312 0.356881 -3.517705
v -27.584312 0.356881 -3.517705
v -27.294312 0.356881 -3.517705
v -27.874312 0.368398 -3.507080
v -27.584312 0.368398 -3.507080
v -27.294312 0.368398 -3.507080
v -27.874312 0.377038 -3.494008
v -27.584312 0.377038 -3.494008
v -27.294312 0.377038 -3.494008
v -27.874312 0.382299 -3.479247
v -27.584312 0.382299 -3.479247
v -27.294312 0.382299 -3.479247
v -27.874312 0.383874 -3.463657
v -27.584312 0.383874 -3.463657
v -27.294312 0.383874 -3.463657
v -27.874312 0.375822 -3.433606
v -27.584312 0.375822 -3.433606
v -27.294312 0.375822 -3.433606
v -27.874312 0.366663 -3.420892
v -27.584312 0.366663 -3.420892
v -27.294312 0.366663 -3.420892
v -27.874312 0.354727 -3.410739
v -27.584312 0.354727 -3.410739
v -27.294312 0.354727 -3.410739
v -27.874312 0.340708 -3.403738
v -27.584312 0.340708 -3.403738
v -27.294312 0.340708 -3.403738
v -27.874312 0.325421 -3.400295
v -27.584312 0.325421 -3.400295
v -27.294312 0.325421 -3.400295
v -27.874312 0.309754 -3.400611
v -27.584312 0.309754 -3.400611
v -27.294312 0.309754 -3.400611
v -27.874312 0.294619 -3.404666
v -27.584312 0.294619 -3.404666
v -27.294312 0.294619 -3.404666
v -27.874312 0.280893 -3.412226
v -27.584312 0.280893 -3.412226
v -27.294312 0.280893 -3.412226
v -27.874312 0.269376 -3.422851
v -27.584312 0.269376 -3.422851
v -27.294312 0.269376 -3.422851
v -27.874312 0.260736 -3.435924
v -27.584312 0.260736 -3.435924
v -27.294312 0.260736 -3.435924
v -27.874312 0.255475 -3.450684
v -27.584312 0.255475 -3.450684
v -27.294312 0.255475 -3.450684
v -27.874312 0.253900 -3.466275
v -27.584312 0.253900 -3.466275
v -27.294312 0.253900 -3.466275
vt 0.015708 0.016250 0.000000
vt 0.010472 0.015000 0.000000
vt 0.015708 -0.000000 0.000000
vt 0.010472 -0.000000 0.000000
vt 0.010472 -0.015000 0.000000
vt 0.005236 -0.000000 0.000000
vt 0.005236 -0.015000 0.000000
vt -0.000000 -0.000000 0.000000
vt -0.000000 -0.015000 0.000000
vt 0.010472 0.030000 0.000000
vt 0.015708 0.032500 0.000000
vt 0.010472 0.045000 0.000000
vt 0.015708 0.048751 0.000000
vt 0.010472 0.060001 0.000000
vt 0.015708 0.065001 0.000000
vt 0.010472 0.075001 0.000000
vt 0.015708 0.081251 0.000000
vt 0.010472 0.090001 0.000000
vt 0.015708 0.097501 0.000000
vt 0.010472 0.105001 0.000000
vt 0.015708 0.113751 0.000000
vt 0.010472 0.120001 0.000000
vt 0.015708 0.130001 0.000000
vt 0.010472 0.135001 0.000000
vt 0.015708 0.146252 0.000000
vt 0.010472 0.150002 0.000000
vt 0.015708 0.162502 0.000000
vt 0.010472 0.165002 0.000000
vt 0.015708 0.178752 0.000000
vt 0.010472 0.180002 0.000000
vt 0.015708 0.195002 0.000000
vt 0.010472 0.195002 0.000000
vt 0.010472 -0.195002 0.000000
vt 0.015708 -0.195002 0.000000
vt 0.010472 -0.180002 0.000000
vt 0.005236 -0.180002 0.000000
vt 0.005236 -0.165002 0.000000
vt 0.000000 -0.165002 0.000000
vt -0.000000 -0.150002 0.000000
vt 0.005236 -0.150002 0.000000
vt -0.000000 -0.135001 0.000000
vt 0.005236 -0.135001 0.000000
vt -0.000000 -0.120001 0.000000
vt 0.005236 -0.120001 0.000000
vt -0.000000 -0.105001 0.000000
vt 0.005236 -0.105001 0.000000
vt -0.000000 -0.090001 0.000000
vt 0.005236 -0.090001 0.000000
vt -0.000000 -0.075001 0.000000
vt 0.005236 -0.075001 0.000000
vt -0.000000 -0.060001 0.000000
vt 0.005236 -0.060001 0.000000
vt -0.000000 -0.045000 0.000000
vt 0.005236 -0.045000 0.000000
vt -0.000000 -0.030000 0.000000
vt 0.005236 -0.030000 0.000000
vt 0.015708 -0.178752 0.000000
vt 0.010472 -0.165002 0.000000
vt 0.015708 -0.162502 0.000000
vt 0.010472 -0.150002 0.000000
vt 0.015708 -0.146252 0.000000
vt 0.010472 -0.135001 0.000000
vt 0.015708 -0.130001 0.000000
vt 0.010472 -0.120001 0.000000
vt 0.015708 -0.113751 0.000000
vt 0.010472 -0.105001 0.000000
vt 0.015708 -0.097501 0.000000
vt 0.010472 -0.090001 0.000000
vt 0.015708 -0.081251 0.000000
vt 0.010472 -0.075001 0.000000
vt 0.015708 -0.065001 0.000000
vt 0.010472 -0.060001 0.000000
vt 0.015708 -0.048751 0.000000
vt 0.010472 -0.045000 0.000000
vt 0.015708 -0.032500 0.000000
vt 0.010472 -0.030000 0.000000
vt 0.015708 -0.016250 0.000000
vt 0.000000 -0.180002 0.000000
vt 0.005236 -0.195002 0.000000
vt 0.005236 0.195002 0.000000
vt 0.000000 -0.195002 0.000000
vt 0.000000 0.195002 0.000000
vt 0.005236 0.180002 0.000000
vt 0.000000 0.180002 0.000000
vt 0.005236 0.165002 0.000000
vt 0.000000 0.165002 0.000000
vt 0.005236 0.150002 0.000000
vt 0.000000 0.150002 0.000000
vt 0.005236 0.135001 0.000000
vt 0.000000 0.135001 0.000000
vt 0.005236 0.120001 0.000000
vt 0.000000 0.120001 0.000000
vt 0.005236 0.105001 0.000000
vt 0.000000 0.105001 0.000000
vt 0.005236 0.090001 0.000000
vt 0.000000 0.090001 0.000000
vt 0.005236 0.075001 0.000000
vt 0.000000 0.075001 0.000000
vt 0.005236 0.060001 0.000000
vt 0.000000 0.060001 0.000000
vt 0.005236 0.045000 0.000000
vt 0.000000 0.045000 0.000000
vt 0.005236 0.030000 0.000000
vt -0.000000 0.030000 0.000000
vt 0.005236 0.015000 0.000000
vt -0.000000 0.015000 0.000000
vt -0.000000 0.015000 0.000000
vt -0.005236 0.015000 0.000000
vt -0.000000 -0.000000 0.000000
vt -0.005236 -0.000000 0.000000
vt -0.000000 -0.015000 0.000000
vt -0.005236 -0.015000 0.000000
vt -0.000000 -0.030000 0.000000
vt -0.005236 -0.030000 0.000000
vt -0.000000 -0.045000 0.000000
vt -0.005236 -0.045000 0.000000
vt -0.000000 -0.060001 0.000000
vt -0.005236 -0.060001 0.000000
vt -0.000000 -0.075001 0.000000
vt -0.005236 -0.075001 0.000000
vt -0.000000 -0.090001 0.000000
vt -0.005236 -0.090001 0.000000
vt -0.000000 -0.105001 0.000000
vt -0.005236 -0.105001 0.000000
vt -0.000000 -0.120001 0.000000
vt -0.005236 -0.120001 0.000000
vt -0.000000 -0.135001 0.000000
vt -0.005236 -0.135001 0.000000
vt -0.000000 -0.150002 0.000000
vt -0.005236 -0.150002 0.000000
vt 0.000000 -0.165002 0.000000
vt -0.005236 -0.165002 0.000000
vt 0.000000 -0.180002 0.000000
vt -0.005236 -0.180002 0.000000
vt 0.000000 -0.195002 0.000000
vt -0.005236 -0.195002 0.000000
vt 0.000000 0.195002 0.000000
vt -0.005236 0.195002 0.000000
vt 0.000000 0.180002 0.000000
vt -0.005236 0.180002 0.000000
vt 0.000000 0.165002 0.000000
vt -0.005236 0.165002 0.000000
vt 0.000000 0.150002 0.000000
vt -0.005236 0.150002 0.000000
vt 0.000000 0.135001 0.000000
vt -0.005236 0.135001 0.000000
vt 0.000000 0.120001 0.000000
vt -0.005236 0.120001 0.000000
vt 0.000000 0.105001 0.000000
vt -0.005236 0.105001 0.000000
vt 0.000000 0.090001 0.000000
vt -0.005236 0.090001 0.000000
vt 0.000000 0.075001 0.000000
vt -0.005236 0.075001 0.000000
vt 0.000000 0.060001 0.000000
vt -0.005236 0.060001 0.000000
vt 0.000000 0.045000 0.000000
vt -0.005236 0.045000 0.000000
vt -0.000000 0.030000 0.000000
vt -0.005236 0.030000 0.000000
vt -0.015708 -0.016250 0.000000
vt -0.010472 -0.015000 0.000000
vt -0.015708 0.000000 0.000000
vt -0.010472 0.000000 0.000000
vt -0.010472 0.015000 0.000000
vt -0.010472 -0.030000 0.000000
vt -0.015708 -0.032500 0.000000
vt -0.010472 -0.045000 0.000000
vt -0.015708 -0.048751 0.000000
vt -0.010472 -0.060001 0.000000
vt -0.015708 -0.065001 0.000000
vt -0.010472 -0.075001 0.000000
vt -0.015708 -0.081251 0.000000
vt -0.010472 -0.090001 0.000000
vt -0.015708 -0.097501 0.000000
vt -0.010472 -0.105001 0.000000
vt -0.015708 -0.113751 0.000000
vt -0.010472 -0.120001 0.000000
vt -0.015708 -0.130001 0.000000
vt -0.010472 -0.135001 0.000000
vt -0.015708 -0.146252 0.000000
vt -0.010472 -0.150002 0.000000
vt -0.015708 -0.162502 0.000000
vt -0.010472 -0.165002 0.000000
vt -0.015708 -0.178752 0.000000
vt -0.010472 -0.180002 0.000000
vt -0.015708 -0.195002 0.000000
vt -0.010472 -0.195002 0.000000
vt -0.010472 0.195002 0.000000
vt -0.015708 0.195002 0.000000
vt -0.010472 0.180002 0.000000
vt -0.015708 0.178752 0.000000
vt -0.010472 0.165002 0.000000
vt -0.015708 0.162502 0.000000
vt -0.010472 0.150002 0.000000
vt -0.015708 0.146252 0.000000
vt -0.010472 0.135001 0.000000
vt -0.015708 0.130001 0.000000
vt -0.010472 0.120001 0.000000
vt -0.015708 0.113751 0.000000
vt -0.010472 0.105001 0.000000
vt -0.015708 0.097501 0.000000
vt -0.010472 0.090001 0.000000
vt -0.015708 0.081251 0.000000
vt -0.010472 0.075001 0.000000
vt -0.015708 0.065001 0.000000
vt -0.010472 0.060001 0.000000
vt -0.015708 0.048751 0.000000
vt -0.010472 0.045000 0.000000
vt -0.015708 0.032500 0.000000
vt -0.010472 0.030000 0.000000
vt -0.015708 0.016250 0.000000
vt -0.010000 0.015708 0.000000
vt -0.300000 0.015708 0.000000
vt -0.010000 -0.000000 0.000000
vt -0.300000 -0.000000 0.000000
vt -0.010000 -0.015708 0.000000
vt -0.300000 -0.015708 0.000000
vt -0.010000 -0.031416 0.000000
vt -0.300000 -0.031416 0.000000
vt -0.010000 -0.047124 0.000000
vt -0.300000 -0.047124 0.000000
vt -0.010000 -0.062832 0.000000
vt -0.300000 -0.062832 0.000000
vt -0.010000 -0.078540 0.000000
vt -0.300000 -0.078540 0.000000
vt -0.010000 -0.094248 0.000000
vt -0.300000 -0.094248 0.000000
vt -0.010000 -0.109956 0.000000
vt -0.300000 -0.109956 0.000000
vt -0.010000 -0.125664 0.000000
vt -0.300000 -0.125664 0.000000
vt -0.010000 -0.141372 0.000000
vt -0.300000 -0.141372 0.000000
vt -0.010000 -0.157080 0.000000
vt -0.300000 -0.157080 0.000000
vt -0.010000 -0.172788 0.000000
vt -0.300000 -0.172788 0.000000
vt -0.010000 -0.188496 0.000000
vt -0.300000 -0.188496 0.000000
vt -0.010000 -0.204204 0.000000
vt -0.300000 -0.204204 0.000000
vt -0.010000 0.204204 0.000000
vt -0.300000 0.204204 0.000000
vt -0.010000 0.188496 0.000000
vt -0.300000 0.188496 0.000000
vt -0.010000 0.172788 0.000000
vt -0.300000 0.172788 0.000000
vt -0.010000 0.157080 0.000000
vt -0.300000 0.157080 0.000000
vt -0.010000 0.141372 0.000000
vt -0.300000 0.141372 0.000000
vt -0.010000 0.125664 0.000000
vt -0.300000 0.125664 0.000000
vt -0.010000 0.109956 0.000000
vt -0.300000 0.109956 0.000000
vt -0.010000 0.094248 0.000000
vt -0.300000 0.094248 0.000000
vt -0.010000 0.078540 0.000000
vt -0.300000 0.078540 0.000000
vt -0.010000 0.062832 0.000000
vt -0.300000 0.062832 0.000000
vt -0.010000 0.047124 0.000000
vt -0.300000 0.047124 0.000000
vt -0.010000 0.031416 0.000000
vt -0.300000 0.031416 0.000000
vt -1.170000 -0.015708 0.000000
vt -0.880000 -0.015708 0.000000
vt -1.170000 -0.000000 0.000000
vt -0.880000 -0.000000 0.000000
vt -1.170000 0.015708 0.000000
vt -0.880000 0.015708 0.000000
vt -1.170000 0.031416 0.000000
vt -0.880000 0.031416 0.000000
vt -1.170000 0.047124 0.000000
vt -0.880000 0.047124 0.000000
vt -1.170000 0.062832 0.000000
vt -0.880000 0.062832 0.000000
vt -1.170000 0.078540 0.000000
vt -0.880000 0.078540 0.000000
vt -1.170000 0.094248 0.000000
vt -0.880000 0.094248 0.000000
vt -1.170000 0.109956 0.000000
vt -0.880000 0.109956 0.000000
vt -1.170000 0.125664 0.000000
vt -0.880000 0.125664 0.000000
vt -1.170000 0.141372 0.000000
vt -0.880000 0.141372 0.000000
vt -1.170000 0.157080 0.000000
vt -0.880000 0.157080 0.000000
vt -1.170000 0.172788 0.000000
vt -0.880000 0.172788 0.000000
vt -1.170000 0.188496 0.000000
vt -0.880000 0.188496 0.000000
vt -1.170000 0.204204 0.000000
vt -0.880000 0.204204 0.000000
vt -1.170000 -0.204204 0.000000
vt -0.880000 -0.204204 0.000000
vt -1.170000 -0.188496 0.000000
vt -0.880000 -0.188496 0.000000
vt -1.170000 -0.172788 0.000000
vt -0.880000 -0.172788 0.000000
vt -1.170000 -0.157080 0.000000
vt -0.880000 -0.157080 0.000000
vt -1.170000 -0.141372 0.000000
vt -0.880000 -0.141372 0.000000
vt -1.170000 -0.125664 0.000000
vt -0.880000 -0.125664 0.000000
vt -1.170000 -0.109956 0.000000
vt -0.880000 -0.109956 0.000000
vt -1.170000 -0.094248 0.000000
vt -0.880000 -0.094248 0.000000
vt -1.170000 -0.078540 0.000000
vt -0.880000 -0.078540 0.000000
vt -1.170000 -0.062832 0.000000
vt -0.880000 -0.062832 0.000000
vt -1.170000 -0.047124 0.000000
vt -0.880000 -0.047124 0.000000
vt -1.170000 -0.031416 0.000000
vt -0.880000 -0.031416 0.000000
vt -0.590000 0.204204 0.000000
vt -0.590000 0.188496 0.000000
vt -0.590000 0.172788 0.000000
vt -0.590000 0.157080 0.000000
vt -0.590000 0.141372 0.000000
vt -0.590000 0.125664 0.000000
vt -0.590000 0.109956 0.000000
vt -0.590000 0.094248 0.000000
vt -0.590000 0.078540 0.000000
vt -0.590000 0.062832 0.000000
vt -0.590000 0.047124 0.000000
vt -0.590000 0.031416 0.000000
vt -0.590000 0.015708 0.000000
vt -0.590000 -0.000000 0.000000
vt -0.590000 -0.015708 0.000000
vt -0.590000 -0.031416 0.000000
vt -0.590000 -0.047124 0.000000
vt -0.590000 -0.062832 0.000000
vt -0.590000 -0.078540 0.000000
vt -0.590000 -0.094248 0.000000
vt -0.590000 -0.109956 0.000000
vt -0.590000 -0.125664 0.000000
vt -0.590000 -0.141372 0.000000
vt -0.590000 -0.157080 0.000000
vt -0.590000 -0.172788 0.000000
vt -0.590000 -0.188496 0.000000
vt -0.590000 -0.204204 0.000000
vt -0.053126 -0.014235 0.000000
vt 0.053126 -0.014235 0.000000
vt -0.055000 -0.000000 0.000000
vt 0.055000 -0.000000 0.000000
vt -0.053126 0.014235 0.000000
vt 0.053126 0.014235 0.000000
vt -0.047631 0.027500 0.000000
vt 0.047631 0.027500 0.000000
vt -0.038891 0.038891 0.000000
vt 0.038891 0.038891 0.000000
vt -0.027500 0.047631 0.000000
vt 0.027500 0.047631 0.000000
vt -0.014235 0.053126 0.000000
vt 0.014235 0.053126 0.000000
vt -0.000000 0.055000 0.000000
vt 0.047631 -0.027500 0.000000
vt -0.047631 -0.027500 0.000000
vt 0.038891 -0.038891 0.000000
vt -0.038891 -0.038891 0.000000
vt 0.027500 -0.047631 0.000000
vt -0.027500 -0.047631 0.000000
vt 0.014235 -0.053126 0.000000
vt -0.014235 -0.053126 0.000000
vt 0.000000 -0.055000 0.000000
vt 0.053126 0.014235 0.000000
vt -0.053126 0.014235 0.000000
vt 0.055000 0.000000 0.000000
vt -0.055000 -0.000000 0.000000
vt 0.053126 -0.014235 0.000000
vt -0.053126 -0.014235 0.000000
vt 0.047631 -0.027500 0.000000
vt -0.047631 -0.027500 0.000000
vt 0.038891 -0.038891 0.000000
vt -0.038891 -0.038891 0.000000
vt 0.027500 -0.047631 0.000000
vt -0.027500 -0.047631 0.000000
vt 0.014235 -0.053126 0.000000
vt -0.014235 -0.053126 0.000000
vt -0.000000 -0.055000 0.000000
vt -0.047631 0.027500 0.000000
vt 0.047631 0.027500 0.000000
vt -0.038891 0.038891 0.000000
vt 0.038891 0.038891 0.000000
vt -0.027500 0.047631 0.000000
vt 0.027500 0.047631 0.000000
vt -0.014235 0.053126 0.000000
vt 0.014235 0.053126 0.000000
vt 0.000000 0.055000 0.000000
vn -1.000000 0.000000 0.000000
vn -0.866025 -0.437959 -0.241230
vn -1.000000 0.000000 -0.000000
vn -0.866025 -0.482963 -0.129410
vn -0.866025 -0.499899 -0.010069
vn -0.500000 -0.836516 -0.224144
vn -0.500000 -0.865850 -0.017439
vn 0.000000 -0.965926 -0.258819
vn 0.000000 -0.999797 -0.020137
vn -0.866025 -0.367503 -0.339030
vn -1.000000 0.000000 0.000000
vn -0.866025 -0.275689 -0.417128
vn -1.000000 0.000000 -0.000000
vn -0.866025 -0.167852 -0.470984
vn -1.000000 0.000000 -0.000000
vn -0.866025 -0.050261 -0.497467
vn -1.000000 0.000000 -0.000000
vn -0.866025 0.070251 -0.495040
vn -1.000000 0.000000 -0.000000
vn -0.866025 0.186681 -0.463843
vn -1.000000 0.000000 -0.000000
vn -0.866025 0.292261 -0.405689
vn -1.000000 0.000000 -0.000000
vn -0.866025 0.380856 -0.323958
vn -1.000000 -0.000000 0.000000
vn -0.866025 0.447317 -0.223399
vn -1.000000 0.000000 -0.000000
vn -0.866025 0.487782 -0.109858
vn -1.000000 0.000000 -0.000000
vn -0.866025 0.499899 0.010069
vn -1.000000 0.000000 -0.000000
vn -0.866025 0.482963 0.129410
vn -0.866025 0.437959 0.241230
vn -0.500000 0.758568 0.417822
vn -0.500000 0.636534 0.587218
vn -0.000000 0.735006 0.678061
vn 0.000000 0.551377 0.834256
vn -0.500000 0.477507 0.722487
vn 0.000000 0.335705 0.941967
vn -0.500000 0.290729 0.815768
vn 0.000000 0.100522 0.994935
vn -0.500000 0.087055 0.861639
vn 0.000000 -0.140502 0.990080
vn -0.500000 -0.121679 0.857435
vn 0.000000 -0.373361 0.927686
vn -0.500000 -0.323341 0.803400
vn 0.000000 -0.584522 0.811378
vn -0.500000 -0.506211 0.702674
vn 0.000000 -0.761712 0.647915
vn -0.500000 -0.659662 0.561111
vn 0.000000 -0.894635 0.446798
vn -0.500000 -0.774776 0.386939
vn 0.000000 -0.975564 0.219715
vn -0.500000 -0.844863 0.190279
vn -1.000000 -0.000000 -0.000000
vn -0.866025 0.367503 0.339030
vn -1.000000 -0.000000 -0.000000
vn -0.866025 0.275689 0.417128
vn -1.000000 -0.000000 -0.000000
vn -0.866025 0.167852 0.470984
vn -1.000000 0.000000 0.000000
vn -0.866025 0.050261 0.497467
vn -1.000000 0.000000 0.000000
vn -0.866025 -0.070251 0.495040
vn -1.000000 0.000000 0.000000
vn -0.866025 -0.186681 0.463843
vn -1.000000 -0.000000 0.000000
vn -0.866025 -0.292261 0.405689
vn -1.000000 -0.000000 0.000000
vn -0.866025 -0.380856 0.323958
vn -1.000000 -0.000000 0.000000
vn -0.866025 -0.447317 0.223399
vn -1.000000 -0.000000 -0.000000
vn -0.866025 -0.487782 0.109858
vn -1.000000 -0.000000 -0.000000
vn -0.000000 0.875918 0.482459
vn -0.500000 0.836516 0.224144
vn -0.000000 0.965926 0.258819
vn -0.500000 0.865850 0.017439
vn -0.000000 0.999797 0.020137
vn -0.500000 0.844863 -0.190279
vn -0.000000 0.975564 -0.219715
vn -0.500000 0.774776 -0.386939
vn -0.000000 0.894635 -0.446798
vn -0.500000 0.659662 -0.561111
vn -0.000000 0.761712 -0.647915
vn -0.500000 0.506211 -0.702674
vn -0.000000 0.584522 -0.811378
vn -0.500000 0.323341 -0.803400
vn -0.000000 0.373361 -0.927686
vn -0.500000 0.121679 -0.857435
vn -0.000000 0.140502 -0.990080
vn -0.500000 -0.087055 -0.861639
vn -0.000000 -0.100522 -0.994935
vn -0.500000 -0.290729 -0.815768
vn -0.000000 -0.335705 -0.941967
vn -0.500000 -0.477507 -0.722487
vn -0.000000 -0.551377 -0.834256
vn -0.500000 -0.636534 -0.587218
vn 0.000000 -0.735006 -0.678061
vn -0.500000 -0.758568 -0.417822
vn 0.000000 -0.875918 -0.482459
vn 0.000000 -0.875918 -0.482459
vn 0.500000 -0.758568 -0.417822
vn 0.000000 -0.965926 -0.258819
vn 0.500000 -0.836516 -0.224144
vn 0.000000 -0.999797 -0.020137
vn 0.500000 -0.865850 -0.017439
vn 0.000000 -0.975564 0.219715
vn 0.500000 -0.844863 0.190279
vn 0.000000 -0.894635 0.446798
vn 0.500000 -0.774776 0.386939
vn 0.000000 -0.761712 0.647915
vn 0.500000 -0.659662 0.561111
vn 0.000000 -0.584522 0.811378
vn 0.500000 -0.506211 0.702674
vn 0.000000 -0.373361 0.927686
vn 0.500000 -0.323341 0.803400
vn 0.000000 -0.140502 0.990080
vn 0.500000 -0.121679 0.857435
vn 0.000000 0.100522 0.994935
vn 0.500000 0.087055 0.861639
vn 0.000000 0.335705 0.941967
vn 0.500000 0.290729 0.815768
vn 0.000000 0.551377 0.834256
vn 0.500000 0.477507 0.722487
vn -0.000000 0.735006 0.678061
vn 0.500000 0.636534 0.587218
vn -0.000000 0.875918 0.482459
vn 0.500000 0.758568 0.417822
vn -0.000000 0.965926 0.258819
vn 0.500000 0.836516 0.224144
vn -0.000000 0.999797 0.020137
vn 0.500000 0.865850 0.017439
vn -0.000000 0.975564 -0.219715
vn 0.500000 0.844863 -0.190279
vn -0.000000 0.894635 -0.446798
vn 0.500000 0.774776 -0.386939
vn -0.000000 0.761712 -0.647915
vn 0.500000 0.659662 -0.561111
vn -0.000000 0.584522 -0.811378
vn 0.500000 0.506211 -0.702674
vn -0.000000 0.373361 -0.927686
vn 0.500000 0.323341 -0.803400
vn -0.000000 0.140502 -0.990080
vn 0.500000 0.121679 -0.857435
vn -0.000000 -0.100522 -0.994935
vn 0.500000 -0.087055 -0.861639
vn -0.000000 -0.335705 -0.941967
vn 0.500000 -0.290729 -0.815768
vn -0.000000 -0.551377 -0.834256
vn 0.500000 -0.477507 -0.722487
vn 0.000000 -0.735006 -0.678061
vn 0.500000 -0.636534 -0.587218
vn 1.000000 -0.000000 0.000000
vn 0.866025 -0.499899 -0.010069
vn 1.000000 -0.000000 0.000000
vn 0.866025 -0.482963 -0.129410
vn 0.866025 -0.437959 -0.241230
vn 0.866025 -0.487782 0.109858
vn 1.000000 -0.000000 0.000000
vn 0.866025 -0.447317 0.223399
vn 1.000000 -0.000000 0.000000
vn 0.866025 -0.380856 0.323958
vn 1.000000 -0.000000 0.000000
vn 0.866025 -0.292261 0.405689
vn 1.000000 -0.000000 0.000000
vn 0.866025 -0.186681 0.463843
vn 1.000000 -0.000000 0.000000
vn 0.866025 -0.070251 0.495040
vn 1.000000 -0.000000 0.000000
vn 0.866025 0.050261 0.497467
vn 1.000000 -0.000000 0.000000
vn 0.866025 0.167852 0.470984
vn 1.000000 -0.000000 -0.000000
vn 0.866025 0.275689 0.417128
vn 1.000000 -0.000000 -0.000000
vn 0.866025 0.367503 0.339030
vn 1.000000 -0.000000 0.000000
vn 0.866025 0.437959 0.241230
vn 1.000000 0.000000 0.000000
vn 0.866025 0.482963 0.129410
vn 0.866025 0.499899 0.010069
vn 1.000000 0.000000 0.000000
vn 0.866025 0.487782 -0.109858
vn 1.000000 0.000000 0.000000
vn 0.866025 0.447317 -0.223399
vn 1.000000 0.000000 -0.000000
vn 0.866025 0.380856 -0.323958
vn 1.000000 0.000000 -0.000000
vn 0.866025 0.292261 -0.405689
vn 1.000000 0.000000 -0.000000
vn 0.866025 0.186681 -0.463843
vn 1.000000 -0.000000 -0.000000
vn 0.866025 0.070251 -0.495040
vn 1.000000 -0.000000 -0.000000
vn 0.866025 -0.050261 -0.497467
vn 1.000000 -0.000000 -0.000000
vn 0.866025 -0.167852 -0.470984
vn 1.000000 -0.000000 -0.000000
vn 0.866025 -0.275689 -0.417128
vn 1.000000 0.000000 0.000000
vn 0.866025 -0.367503 -0.339030
vn 1.000000 0.000000 0.000000
vn -0.000000 -0.875918 -0.482459
vn -0.000000 -0.965926 -0.258819
vn -0.000000 -0.999797 -0.020137
vn -0.000000 -0.975564 0.219715
vn -0.000000 -0.894635 0.446798
vn -0.000000 -0.761712 0.647915
vn -0.000000 -0.584522 0.811378
vn -0.000000 -0.373361 0.927686
vn -0.000000 -0.140502 0.990080
vn -0.000000 0.100522 0.994935
vn -0.000000 0.335705 0.941967
vn -0.000000 0.551377 0.834256
vn 0.000000 0.735006 0.678061
vn 0.000000 0.875918 0.482459
vn 0.000000 0.965926 0.258819
vn 0.000000 0.999797 0.020137
vn 0.000000 0.975564 -0.219715
vn 0.000000 0.894635 -0.446798
vn 0.000000 0.761712 -0.647915
vn 0.000000 0.584522 -0.811378
vn 0.000000 0.373361 -0.927686
vn 0.000000 0.140502 -0.990080
vn 0.000000 -0.100522 -0.994935
vn 0.000000 -0.335705 -0.941967
vn 0.000000 -0.551377 -0.834256
vn -0.000000 -0.735006 -0.678061
vn -0.000000 -0.999797 -0.020137
vn -0.000000 -0.965926 -0.258819
vn -0.000000 -0.875918 -0.482459
vn -0.000000 -0.735006 -0.678061
vn 0.000000 -0.551377 -0.834256
vn 0.000000 -0.335705 -0.941967
vn 0.000000 -0.100522 -0.994935
vn 0.000000 0.140502 -0.990080
vn 0.000000 0.373361 -0.927686
vn 0.000000 0.584522 -0.811378
vn 0.000000 0.761712 -0.647915
vn 0.000000 0.894635 -0.446798
vn 0.000000 0.975564 -0.219715
vn 0.000000 0.999797 0.020137
vn 0.000000 0.965926 0.258819
vn 0.000000 0.875918 0.482459
vn 0.000000 0.735006 0.678061
vn -0.000000 0.551377 0.834256
vn -0.000000 0.335705 0.941967
vn -0.000000 0.100522 0.994935
vn -0.000000 -0.140502 0.990080
vn -0.000000 -0.373361 0.927686
vn -0.000000 -0.584522 0.811378
vn -0.000000 -0.761712 0.647915
vn -0.000000 -0.894635 0.446798
vn -0.000000 -0.975564 0.219715
vn 0.000000 0.965926 0.258819
vn 0.000000 0.999797 0.020137
vn 0.000000 0.975564 -0.219715
vn 0.000000 0.894635 -0.446798
vn 0.000000 0.761712 -0.647915
vn 0.000000 0.584522 -0.811378
vn 0.000000 0.373361 -0.927686
vn 0.000000 0.140502 -0.990080
vn 0.000000 -0.100522 -0.994935
vn 0.000000 -0.335705 -0.941967
vn 0.000000 -0.551377 -0.834256
vn -0.000000 -0.735006 -0.678061
vn -0.000000 -0.875918 -0.482459
vn -0.000000 -0.965926 -0.258819
vn -0.000000 -0.999797 -0.020137
vn -0.000000 -0.975564 0.219715
vn -0.000000 -0.894635 0.446798
vn -0.000000 -0.761712 0.647915
vn -0.000000 -0.584522 0.811378
vn -0.000000 -0.373361 0.927686
vn -0.000000 -0.140502 0.990080
vn -0.000000 0.100522 0.994935
vn -0.000000 0.335705 0.941967
vn -0.000000 0.551377 0.834256
vn 0.000000 0.735006 0.678061
vn 0.000000 0.875918 0.482459
usemtl Opaque(202,209,238)
f 2/1/1 53/2/2 1/3/3
f 1/3/3 53/2/2 56/4/4
f 1/3/3 56/4/4 101/5/5
f 101/5/5 56/4/4 55/6/6
f 101/5/5 55/6/6 102/7/7
f 102/7/7 55/6/6 25/8/8
f 102/7/7 25/8/8 26/9/9
f 53/2/2 2/1/1 57/10/10
f 57/10/10 2/1/1 3/11/11
f 57/10/10 3/11/11 59/12/12
f 59/12/12 3/11/11 4/13/13
f 59/12/12 4/13/13 61/14/14
f 61/14/14 4/13/13 5/15/15
f 61/14/14 5/15/15 63/16/16
f 63/16/16 5/15/15 6/17/17
f 63/16/16 6/17/17 65/18/18
f 65/18/18 6/17/17 7/19/19
f 65/18/18 7/19/19 67/20/20
f 67/20/20 7/19/19 8/21/21
f 67/20/20 8/21/21 69/22/22
f 69/22/22 8/21/21 9/23/23
f 69/22/22 9/23/23 71/24/24
f 71/24/24 9/23/23 10/25/25
f 71/24/24 10/25/25 73/26/26
f 73/26/26 10/25/25 11/27/27
f 73/26/26 11/27/27 75/28/28
f 75/28/28 11/27/27 12/29/29
f 75/28/28 12/29/29 77/30/30
f 77/30/30 12/29/29 13/31/31
f 77/30/30 13/31/31 51/32/32
f 51/33/32 13/34/31 79/35/33
f 51/33/32 79/35/33 80/36/34
f 80/36/34 79/35/33 82/37/35
f 80/36/34 82/37/35 36/38/36
f 36/38/36 82/37/35 35/39/37
f 35/39/37 82/37/35 84/40/38
f 35/39/37 84/40/38 34/41/39
f 34/41/39 84/40/38 86/42/40
f 34/41/39 86/42/40 33/43/41
f 33/43/41 86/42/40 88/44/42
f 33/43/41 88/44/42 32/45/43
f 32/45/43 88/44/42 90/46/44
f 32/45/43 90/46/44 31/47/45
f 31/47/45 90/46/44 92/48/46
f 31/47/45 92/48/46 30/49/47
f 30/49/47 92/48/46 94/50/48
f 30/49/47 94/50/48 29/51/49
f 29/51/49 94/50/48 96/52/50
f 29/51/49 96/52/50 28/53/51
f 28/53/51 96/52/50 98/54/52
f 28/53/51 98/54/52 27/55/53
f 27/55/53 98/54/52 100/56/54
f 27/55/53 100/56/54 26/9/9
f 26/9/9 100/56/54 102/7/7
f 13/34/31 14/57/55 79/35/33
f 79/35/33 14/57/55 81/58/56
f 79/35/33 81/58/56 82/37/35
f 82/37/35 81/58/56 84/40/38
f 14/57/55 15/59/57 81/58/56
f 81/58/56 15/59/57 83/60/58
f 81/58/56 83/60/58 84/40/38
f 84/40/38 83/60/58 86/42/40
f 15/59/57 16/61/59 83/60/58
f 83/60/58 16/61/59 85/62/60
f 83/60/58 85/62/60 86/42/40
f 86/42/40 85/62/60 88/44/42
f 16/61/59 17/63/61 85/62/60
f 85/62/60 17/63/61 87/64/62
f 85/62/60 87/64/62 88/44/42
f 88/44/42 87/64/62 90/46/44
f 17/63/61 18/65/63 87/64/62
f 87/64/62 18/65/63 89/66/64
f 87/64/62 89/66/64 90/46/44
f 90/46/44 89/66/64 92/48/46
f 18/65/63 19/67/65 89/66/64
f 89/66/64 19/67/65 91/68/66
f 89/66/64 91/68/66 92/48/46
f 92/48/46 91/68/66 94/50/48
f 19/67/65 20/69/67 91/68/66
f 91/68/66 20/69/67 93/70/68
f 91/68/66 93/70/68 94/50/48
f 94/50/48 93/70/68 96/52/50
f 20/69/67 21/71/69 93/70/68
f 93/70/68 21/71/69 95/72/70
f 93/70/68 95/72/70 96/52/50
f 96/52/50 95/72/70 98/54/52
f 21/71/69 22/73/71 95/72/70
f 95/72/70 22/73/71 97/74/72
f 95/72/70 97/74/72 98/54/52
f 98/54/52 97/74/72 100/56/54
f 22/73/71 23/75/73 97/74/72
f 97/74/72 23/75/73 99/76/74
f 97/74/72 99/76/74 100/56/54
f 100/56/54 99/76/74 102/7/7
f 23/75/73 24/77/75 99/76/74
f 99/76/74 24/77/75 101/5/5
f 99/76/74 101/5/5 102/7/7
f 24/77/75 1/3/3 101/5/5
f 36/38/36 37/78/76 80/36/34
f 80/36/34 37/78/76 52/79/77
f 80/36/34 52/79/77 51/33/32
f 51/32/32 52/80/77 77/30/30
f 37/78/76 38/81/78 52/79/77
f 52/80/77 38/82/78 78/83/79
f 52/80/77 78/83/79 77/30/30
f 77/30/30 78/83/79 75/28/28
f 38/82/78 39/84/80 78/83/79
f 78/83/79 39/84/80 76/85/81
f 78/83/79 76/85/81 75/28/28
f 75/28/28 76/85/81 73/26/26
f 39/84/80 40/86/82 76/85/81
f 76/85/81 40/86/82 74/87/83
f 76/85/81 74/87/83 73/26/26
f 73/26/26 74/87/83 71/24/24
f 40/86/82 41/88/84 74/87/83
f 74/87/83 41/88/84 72/89/85
f 74/87/83 72/89/85 71/24/24
f 71/24/24 72/89/85 69/22/22
f 41/88/84 42/90/86 72/89/85
f 72/89/85 42/90/86 70/91/87
f 72/89/85 70/91/87 69/22/22
f 69/22/22 70/91/87 67/20/20
f 42/90/86 43/92/88 70/91/87
f 70/91/87 43/92/88 68/93/89
f 70/91/87 68/93/89 67/20/20
f 67/20/20 68/93/89 65/18/18
f 43/92/88 44/94/90 68/93/89
f 68/93/89 44/94/90 66/95/91
f 68/93/89 66/95/91 65/18/18
f 65/18/18 66/95/91 63/16/16
f 44/94/90 45/96/92 66/95/91
f 66/95/91 45/96/92 64/97/93
f 66/95/91 64/97/93 63/16/16
f 63/16/16 64/97/93 61/14/14
f 45/96/92 46/98/94 64/97/93
f 64/97/93 46/98/94 62/99/95
f 64/97/93 62/99/95 61/14/14
f 61/14/14 62/99/95 59/12/12
f 46/98/94 47/100/96 62/99/95
f 62/99/95 47/100/96 60/101/97
f 62/99/95 60/101/97 59/12/12
f 59/12/12 60/101/97 57/10/10
f 47/100/96 48/102/98 60/101/97
f 60/101/97 48/102/98 58/103/99
f 60/101/97 58/103/99 57/10/10
f 57/10/10 58/103/99 53/2/2
f 48/102/98 49/104/100 58/103/99
f 58/103/99 49/104/100 54/105/101
f 58/103/99 54/105/101 53/2/2
f 53/2/2 54/105/101 56/4/4
f 49/104/100 50/106/102 54/105/101
f 54/105/101 50/106/102 55/6/6
f 54/105/101 55/6/6 56/4/4
f 50/106/102 25/8/8 55/6/6
f 104/107/103 155/108/104 103/109/105
f 103/109/105 155/108/104 158/110/106
f 103/109/105 158/110/106 128/111/107
f 128/111/107 158/110/106 203/112/108
f 128/111/107 203/112/108 127/113/109
f 127/113/109 203/112/108 201/114/110
f 127/113/109 201/114/110 126/115/111
f 126/115/111 201/114/110 199/116/112
f 126/115/111 199/116/112 125/117/113
f 125/117/113 199/116/112 197/118/114
f 125/117/113 197/118/114 124/119/115
f 124/119/115 197/118/114 195/120/116
f 124/119/115 195/120/116 123/121/117
f 123/121/117 195/120/116 193/122/118
f 123/121/117 193/122/118 122/123/119
f 122/123/119 193/122/118 191/124/120
f 122/123/119 191/124/120 121/125/121
f 121/125/121 191/124/120 189/126/122
f 121/125/121 189/126/122 120/127/123
f 120/127/123 189/126/122 187/128/124
f 120/127/123 187/128/124 119/129/125
f 119/129/125 187/128/124 185/130/126
f 119/129/125 185/130/126 118/131/127
f 118/131/127 185/130/126 183/132/128
f 118/131/127 183/132/128 117/133/129
f 117/133/129 183/132/128 181/134/130
f 117/133/129 181/134/130 116/135/131
f 116/135/131 181/134/130 153/136/132
f 116/137/131 153/138/132 115/139/133
f 115/139/133 153/138/132 179/140/134
f 115/139/133 179/140/134 114/141/135
f 114/141/135 179/140/134 177/142/136
f 114/141/135 177/142/136 113/143/137
f 113/143/137 177/142/136 175/144/138
f 113/143/137 175/144/138 112/145/139
f 112/145/139 175/144/138 173/146/140
f 112/145/139 173/146/140 111/147/141
f 111/147/141 173/146/140 171/148/142
f 111/147/141 171/148/142 110/149/143
f 110/149/143 171/148/142 169/150/144
f 110/149/143 169/150/144 109/151/145
f 109/151/145 169/150/144 167/152/146
f 109/151/145 167/152/146 108/153/147
f 108/153/147 167/152/146 165/154/148
f 108/153/147 165/154/148 107/155/149
f 107/155/149 165/154/148 163/156/150
f 107/155/149 163/156/150 106/157/151
f 106/157/151 163/156/150 161/158/152
f 106/157/151 161/158/152 105/159/153
f 105/159/153 161/158/152 159/160/154
f 105/159/153 159/160/154 104/107/103
f 104/107/103 159/160/154 155/108/104
f 130/161/155 204/162/156 129/163/157
f 129/163/157 204/162/156 157/164/158
f 129/163/157 157/164/158 156/165/159
f 156/165/159 157/164/158 158/110/106
f 156/165/159 158/110/106 155/108/104
f 204/162/156 130/161/155 202/166/160
f 202/166/160 130/161/155 131/167/161
f 202/166/160 131/167/161 200/168/162
f 200/168/162 131/167/161 132/169/163
f 200/168/162 132/169/163 198/170/164
f 198/170/164 132/169/163 133/171/165
f 198/170/164 133/171/165 196/172/166
f 196/172/166 133/171/165 134/173/167
f 196/172/166 134/173/167 194/174/168
f 194/174/168 134/173/167 135/175/169
f 194/174/168 135/175/169 192/176/170
f 192/176/170 135/175/169 136/177/171
f 192/176/170 136/177/171 190/178/172
f 190/178/172 136/177/171 137/179/173
f 190/178/172 137/179/173 188/180/174
f 188/180/174 137/179/173 138/181/175
f 188/180/174 138/181/175 186/182/176
f 186/182/176 138/181/175 139/183/177
f 186/182/176 139/183/177 184/184/178
f 184/184/178 139/183/177 140/185/179
f 184/184/178 140/185/179 182/186/180
f 182/186/180 140/185/179 141/187/181
f 182/186/180 141/187/181 154/188/182
f 154/189/182 141/190/181 180/191/183
f 154/189/182 180/191/183 179/140/134
f 179/140/134 180/191/183 177/142/136
f 141/190/181 142/192/184 180/191/183
f 180/191/183 142/192/184 178/193/185
f 180/191/183 178/193/185 177/142/136
f 177/142/136 178/193/185 175/144/138
f 142/192/184 143/194/186 178/193/185
f 178/193/185 143/194/186 176/195/187
f 178/193/185 176/195/187 175/144/138
f 175/144/138 176/195/187 173/146/140
f 143/194/186 144/196/188 176/195/187
f 176/195/187 144/196/188 174/197/189
f 176/195/187 174/197/189 173/146/140
f 173/146/140 174/197/189 171/148/142
f 144/196/188 145/198/190 174/197/189
f 174/197/189 145/198/190 172/199/191
f 174/197/189 172/199/191 171/148/142
f 171/148/142 172/199/191 169/150/144
f 145/198/190 146/200/192 172/199/191
f 172/199/191 146/200/192 170/201/193
f 172/199/191 170/201/193 169/150/144
f 169/150/144 170/201/193 167/152/146
f 146/200/192 147/202/194 170/201/193
f 170/201/193 147/202/194 168/203/195
f 170/201/193 168/203/195 167/152/146
f 167/152/146 168/203/195 165/154/148
f 147/202/194 148/204/196 168/203/195
f 168/203/195 148/204/196 166/205/197
f 168/203/195 166/205/197 165/154/148
f 165/154/148 166/205/197 163/156/150
f 148/204/196 149/206/198 166/205/197
f 166/205/197 149/206/198 164/207/199
f 166/205/197 164/207/199 163/156/150
f 163/156/150 164/207/199 161/158/152
f 149/206/198 150/208/200 164/207/199
f 164/207/199 150/208/200 162/209/201
f 164/207/199 162/209/201 161/158/152
f 161/158/152 162/209/201 159/160/154
f 150/208/200 151/210/202 162/209/201
f 162/209/201 151/210/202 160/211/203
f 162/209/201 160/211/203 159/160/154
f 159/160/154 160/211/203 155/108/104
f 151/210/202 152/212/204 160/211/203
f 160/211/203 152/212/204 156/165/159
f 160/211/203 156/165/159 155/108/104
f 152/212/204 129/163/157 156/165/159
f 182/186/180 154/188/182 153/136/132
f 153/138/132 154/189/182 179/140/134
f 182/186/180 153/136/132 181/134/130
f 203/112/108 158/110/106 157/164/158
f 203/112/108 157/164/158 204/162/156
f 184/184/178 182/186/180 181/134/130
f 184/184/178 181/134/130 183/132/128
f 186/182/176 184/184/178 183/132/128
f 186/182/176 183/132/128 185/130/126
f 188/180/174 186/182/176 185/130/126
f 188/180/174 185/130/126 187/128/124
f 190/178/172 188/180/174 187/128/124
f 190/178/172 187/128/124 189/126/122
f 192/176/170 190/178/172 189/126/122
f 192/176/170 189/126/122 191/124/120
f 194/174/168 192/176/170 191/124/120
f 194/174/168 191/124/120 193/122/118
f 196/172/166 194/174/168 193/122/118
f 196/172/166 193/122/118 195/120/116
f 198/170/164 196/172/166 195/120/116
f 198/170/164 195/120/116 197/118/114
f 200/168/162 198/170/164 197/118/114
f 200/168/162 197/118/114 199/116/112
f 202/166/160 200/168/162 199/116/112
f 202/166/160 199/116/112 201/114/110
f 204/162/156 202/166/160 201/114/110
f 204/162/156 201/114/110 203/112/108
f 50/213/102 208/214/205 25/215/8
f 25/215/8 208/214/205 213/216/206
f 25/215/8 213/216/206 26/217/9
f 26/217/9 213/216/206 280/218/207
f 26/217/9 280/218/207 27/219/53
f 27/219/53 280/218/207 277/220/208
f 27/219/53 277/220/208 28/221/51
f 28/221/51 277/220/208 274/222/209
f 28/221/51 274/222/209 29/223/49
f 29/223/49 274/222/209 271/224/210
f 29/223/49 271/224/210 30/225/47
f 30/225/47 271/224/210 268/226/211
f 30/225/47 268/226/211 31/227/45
f 31/227/45 268/226/211 265/228/212
f 31/227/45 265/228/212 32/229/43
f 32/229/43 265/228/212 262/230/213
f 32/229/43 262/230/213 33/231/41
f 33/231/41 262/230/213 259/232/214
f 33/231/41 259/232/214 34/233/39
f 34/233/39 259/232/214 256/234/215
f 34/233/39 256/234/215 35/235/37
f 35/235/37 256/234/215 253/236/216
f 35/235/37 253/236/216 36/237/36
f 36/237/36 253/236/216 250/238/217
f 36/237/36 250/238/217 37/239/76
f 37/239/76 250/238/217 247/240/218
f 37/239/76 247/240/218 38/241/78
f 38/241/78 247/240/218 205/242/219
f 38/243/78 205/244/219 39/245/80
f 39/245/80 205/244/219 244/246/220
f 39/245/80 244/246/220 40/247/82
f 40/247/82 244/246/220 241/248/221
f 40/247/82 241/248/221 41/249/84
f 41/249/84 241/248/221 238/250/222
f 41/249/84 238/250/222 42/251/86
f 42/251/86 238/250/222 235/252/223
f 42/251/86 235/252/223 43/253/88
f 43/253/88 235/252/223 232/254/224
f 43/253/88 232/254/224 44/255/90
f 44/255/90 232/254/224 229/256/225
f 44/255/90 229/256/225 45/257/92
f 45/257/92 229/256/225 226/258/226
f 45/257/92 226/258/226 46/259/94
f 46/259/94 226/258/226 223/260/227
f 46/259/94 223/260/227 47/261/96
f 47/261/96 223/260/227 220/262/228
f 47/261/96 220/262/228 48/263/98
f 48/263/98 220/262/228 217/264/229
f 48/263/98 217/264/229 49/265/100
f 49/265/100 217/264/229 214/266/230
f 49/265/100 214/266/230 50/213/102
f 50/213/102 214/266/230 208/214/205
f 128/267/107 282/268/231 103/269/105
f 103/269/105 282/268/231 211/270/232
f 103/269/105 211/270/232 104/271/103
f 104/271/103 211/270/232 210/272/233
f 104/271/103 210/272/233 105/273/153
f 105/273/153 210/272/233 216/274/234
f 105/273/153 216/274/234 106/275/151
f 106/275/151 216/274/234 219/276/235
f 106/275/151 219/276/235 107/277/149
f 107/277/149 219/276/235 222/278/236
f 107/277/149 222/278/236 108/279/147
f 108/279/147 222/278/236 225/280/237
f 108/279/147 225/280/237 109/281/145
f 109/281/145 225/280/237 228/282/238
f 109/281/145 228/282/238 110/283/143
f 110/283/143 228/282/238 231/284/239
f 110/283/143 231/284/239 111/285/141
f 111/285/141 231/284/239 234/286/240
f 111/285/141 234/286/240 112/287/139
f 112/287/139 234/286/240 237/288/241
f 112/287/139 237/288/241 113/289/137
f 113/289/137 237/288/241 240/290/242
f 113/289/137 240/290/242 114/291/135
f 114/291/135 240/290/242 243/292/243
f 114/291/135 243/292/243 115/293/133
f 115/293/133 243/292/243 246/294/244
f 115/293/133 246/294/244 116/295/131
f 116/295/131 246/294/244 207/296/245
f 116/297/131 207/298/245 117/299/129
f 117/299/129 207/298/245 249/300/246
f 117/299/129 249/300/246 118/301/127
f 118/301/127 249/300/246 252/302/247
f 118/301/127 252/302/247 119/303/125
f 119/303/125 252/302/247 255/304/248
f 119/303/125 255/304/248 120/305/123
f 120/305/123 255/304/248 258/306/249
f 120/305/123 258/306/249 121/307/121
f 121/307/121 258/306/249 261/308/250
f 121/307/121 261/308/250 122/309/119
f 122/309/119 261/308/250 264/310/251
f 122/309/119 264/310/251 123/311/117
f 123/311/117 264/310/251 267/312/252
f 123/311/117 267/312/252 124/313/115
f 124/313/115 267/312/252 270/314/253
f 124/313/115 270/314/253 125/315/113
f 125/315/113 270/314/253 273/316/254
f 125/315/113 273/316/254 126/317/111
f 126/317/111 273/316/254 276/318/255
f 126/317/111 276/318/255 127/319/109
f 127/319/109 276/318/255 279/320/256
f 127/319/109 279/320/256 128/267/107
f 128/267/107 279/320/256 282/268/231
f 205/244/219 206/321/257 244/246/220
f 244/246/220 206/321/257 245/322/258
f 244/246/220 245/322/258 241/248/221
f 241/248/221 245/322/258 242/323/259
f 241/248/221 242/323/259 238/250/222
f 238/250/222 242/323/259 239/324/260
f 238/250/222 239/324/260 235/252/223
f 235/252/223 239/324/260 236/325/261
f 235/252/223 236/325/261 232/254/224
f 232/254/224 236/325/261 233/326/262
f 232/254/224 233/326/262 229/256/225
f 229/256/225 233/326/262 230/327/263
f 229/256/225 230/327/263 226/258/226
f 226/258/226 230/327/263 227/328/264
f 226/258/226 227/328/264 223/260/227
f 223/260/227 227/328/264 224/329/265
f 223/260/227 224/329/265 220/262/228
f 220/262/228 224/329/265 221/330/266
f 220/262/228 221/330/266 217/264/229
f 217/264/229 221/330/266 218/331/267
f 217/264/229 218/331/267 214/266/230
f 214/266/230 218/331/267 215/332/268
f 214/266/230 215/332/268 208/214/205
f 208/214/205 215/332/268 209/333/269
f 208/214/205 209/333/269 213/216/206
f 213/216/206 209/333/269 212/334/270
f 213/216/206 212/334/270 280/218/207
f 280/218/207 212/334/270 281/335/271
f 280/218/207 281/335/271 277/220/208
f 277/220/208 281/335/271 278/336/272
f 277/220/208 278/336/272 274/222/209
f 274/222/209 278/336/272 275/337/273
f 274/222/209 275/337/273 271/224/210
f 271/224/210 275/337/273 272/338/274
f 271/224/210 272/338/274 268/226/211
f 268/226/211 272/338/274 269/339/275
f 268/226/211 269/339/275 265/228/212
f 265/228/212 269/339/275 266/340/276
f 265/228/212 266/340/276 262/230/213
f 262/230/213 266/340/276 263/341/277
f 262/230/213 263/341/277 259/232/214
f 259/232/214 263/341/277 260/342/278
f 259/232/214 260/342/278 256/234/215
f 256/234/215 260/342/278 257/343/279
f 256/234/215 257/343/279 253/236/216
f 253/236/216 257/343/279 254/344/280
f 253/236/216 254/344/280 250/238/217
f 250/238/217 254/344/280 251/345/281
f 250/238/217 251/345/281 247/240/218
f 247/240/218 251/345/281 248/346/282
f 247/240/218 248/346/282 205/242/219
f 205/242/219 248/346/282 206/347/257
f 206/321/257 207/296/245 245/322/258
f 245/322/258 207/296/245 246/294/244
f 245/322/258 246/294/244 242/323/259
f 242/323/259 246/294/244 243/292/243
f 242/323/259 243/292/243 239/324/260
f 239/324/260 243/292/243 240/290/242
f 239/324/260 240/290/242 236/325/261
f 236/325/261 240/290/242 237/288/241
f 236/325/261 237/288/241 233/326/262
f 233/326/262 237/288/241 234/286/240
f 233/326/262 234/286/240 230/327/263
f 230/327/263 234/286/240 231/284/239
f 230/327/263 231/284/239 227/328/264
f 227/328/264 231/284/239 228/282/238
f 227/328/264 228/282/238 224/329/265
f 224/329/265 228/282/238 225/280/237
f 224/329/265 225/280/237 221/330/266
f 221/330/266 225/280/237 222/278/236
f 221/330/266 222/278/236 218/331/267
f 218/331/267 222/278/236 219/276/235
f 218/331/267 219/276/235 215/332/268
f 215/332/268 219/276/235 216/274/234
f 215/332/268 216/274/234 209/333/269
f 209/333/269 216/274/234 210/272/233
f 209/333/269 210/272/233 212/334/270
f 212/334/270 210/272/233 211/270/232
f 212/334/270 211/270/232 281/335/271
f 281/335/271 211/270/232 282/268/231
f 281/335/271 282/268/231 278/336/272
f 278/336/272 282/268/231 279/320/256
f 278/336/272 279/320/256 275/337/273
f 275/337/273 279/320/256 276/318/255
f 275/337/273 276/318/255 272/338/274
f 272/338/274 276/318/255 273/316/254
f 272/338/274 273/316/254 269/339/275
f 269/339/275 273/316/254 270/314/253
f 269/339/275 270/314/253 266/340/276
f 266/340/276 270/314/253 267/312/252
f 266/340/276 267/312/252 263/341/277
f 263/341/277 267/312/252 264/310/251
f 263/341/277 264/310/251 260/342/278
f 260/342/278 264/310/251 261/308/250
f 260/342/278 261/308/250 257/343/279
f 257/343/279 261/308/250 258/306/249
f 257/343/279 258/306/249 254/344/280
f 254/344/280 258/306/249 255/304/248
f 254/344/280 255/304/248 251/345/281
f 251/345/281 255/304/248 252/302/247
f 251/345/281 252/302/247 248/346/282
f 248/346/282 252/302/247 249/300/246
f 248/346/282 249/300/246 206/347/257
f 206/347/257 249/300/246 207/298/245
f 24/348/75 14/349/55 1/350/3
f 1/350/3 14/349/55 13/351/31
f 1/350/3 13/351/31 2/352/1
f 2/352/1 13/351/31 12/353/29
f 2/352/1 12/353/29 3/354/11
f 3/354/11 12/353/29 11/355/27
f 3/354/11 11/355/27 4/356/13
f 4/356/13 11/355/27 10/357/25
f 4/356/13 10/357/25 5/358/15
f 5/358/15 10/357/25 9/359/23
f 5/358/15 9/359/23 6/360/17
f 6/360/17 9/359/23 8/361/21
f 6/360/17 8/361/21 7/362/19
f 14/349/55 24/348/75 15/363/57
f 15/363/57 24/348/75 23/364/73
f 15/363/57 23/364/73 16/365/59
f 16/365/59 23/364/73 22/366/71
f 16/365/59 22/366/71 17/367/61
f 17/367/61 22/366/71 21/368/69
f 17/367/61 21/368/69 18/369/63
f 18/369/63 21/368/69 20/370/67
f 18/369/63 20/370/67 19/371/65
f 152/372/204 142/373/184 129/374/157
f 129/374/157 142/373/184 141/375/181
f 129/374/157 141/375/181 130/376/155
f 130/376/155 141/375/181 140/377/179
f 130/376/155 140/377/179 131/378/161
f 131/378/161 140/377/179 139/379/177
f 131/378/161 139/379/177 132/380/163
f 132/380/163 139/379/177 138/381/175
f 132/380/163 138/381/175 133/382/165
f 133/382/165 138/381/175 137/383/173
f 133/382/165 137/383/173 134/384/167
f 134/384/167 137/383/173 136/385/171
f 134/384/167 136/385/171 135/386/169
f 142/373/184 152/372/204 143/387/186
f 143/387/186 152/372/204 151/388/202
f 143/387/186 151/388/202 144/389/188
f 144/389/188 151/388/202 150/390/200
f 144/389/188 150/390/200 145/391/190
f 145/391/190 150/390/200 149/392/198
f 145/391/190 149/392/198 146/393/192
f 146/393/192 149/392/198 148/394/196
f 146/393/192 148/394/196 147/395/194
# 282 vertices
# 395 texture params
# 282 normals
# 560 facets

# 1 groups
