# WaveFront *.obj file (generated by Autodesk ATF)

mtllib body10_visual.mtl

g Body10

v -27.761812 0.548256 -2.698225
v -27.861812 0.548256 -2.698225
v -27.861812 0.566502 -2.766323
v -27.761812 0.566502 -2.766323
v -27.861812 0.616730 -2.752864
v -27.861812 0.598484 -2.684766
v -27.761812 0.598484 -2.684766
v -27.761812 0.616730 -2.752864
v -27.750434 0.567330 -2.766101
v -27.739313 0.569793 -2.765441
v -27.728698 0.573837 -2.764357
v -27.718830 0.579370 -2.762875
v -27.709931 0.586268 -2.761026
v -27.709931 0.568021 -2.692929
v -27.718830 0.561123 -2.694777
v -27.728698 0.555590 -2.696260
v -27.739313 0.551546 -2.697343
v -27.750434 0.549083 -2.698003
v -27.755864 0.599207 -2.684572
v -27.750287 0.601332 -2.684003
v -27.745429 0.604725 -2.683094
v -27.745429 0.622972 -2.751192
v -27.750287 0.619578 -2.752101
v -27.755864 0.617454 -2.752670
v -27.563196 0.700426 -2.657451
v -27.563196 0.718672 -2.725549
v -27.598693 0.737130 -2.647616
v -27.598693 0.755377 -2.715714
v -27.589794 0.744028 -2.645768
v -27.579926 0.749561 -2.644285
v -27.569311 0.753605 -2.643202
v -27.558190 0.756068 -2.642542
v -27.546812 0.756895 -2.642320
v -27.546812 0.775142 -2.710418
v -27.558190 0.774315 -2.710639
v -27.569311 0.771852 -2.711299
v -27.579926 0.767808 -2.712383
v -27.589794 0.762275 -2.713866
v -27.124312 0.756895 -2.642320
v -27.124312 0.775142 -2.710418
v -27.124312 0.724914 -2.723876
v -27.546812 0.724914 -2.723876
v -27.552760 0.724191 -2.724070
v -27.558338 0.722066 -2.724639
v -27.546812 0.706667 -2.655779
v -27.552760 0.705944 -2.655972
v -27.558338 0.703819 -2.656542
v -27.124312 0.706667 -2.655779
vt -0.100000 -0.000000 0.000000
vt -0.000000 0.000000 0.000000
vt -0.100000 0.070500 0.000000
vt 0.000000 0.070500 0.000000
vt 1.045250 -0.105000 0.000000
vt 0.974750 -0.105000 0.000000
vt 1.045250 -0.157000 0.000000
vt 0.974750 -0.157000 0.000000
vt 0.070500 0.000000 0.000000
vt -0.000000 0.000000 0.000000
vt 0.070500 -0.100000 0.000000
vt -0.000000 -0.100000 0.000000
vt -0.035250 -0.238761 0.000000
vt 0.035250 -0.238761 0.000000
vt -0.035250 -0.227340 0.000000
vt 0.035250 -0.227340 0.000000
vt -0.035250 -0.215919 0.000000
vt 0.035250 -0.215919 0.000000
vt -0.035250 -0.204498 0.000000
vt 0.035250 -0.204498 0.000000
vt -0.035250 -0.193078 0.000000
vt 0.035250 -0.193078 0.000000
vt -0.035250 -0.181657 0.000000
vt 0.035250 -0.181657 0.000000
vt -0.035250 -0.075398 0.000000
vt 0.035250 -0.075398 0.000000
vt -0.035250 -0.069387 0.000000
vt 0.035250 -0.069387 0.000000
vt -0.035250 -0.063376 0.000000
vt 0.035250 -0.063376 0.000000
vt -0.035250 -0.057365 0.000000
vt 0.035250 -0.057365 0.000000
vt -0.000000 -0.000000 0.000000
vt -0.070500 0.000000 0.000000
vt -0.000000 -0.200801 0.000000
vt -0.070500 -0.200801 0.000000
vt -0.000000 0.000000 0.000000
vt -0.200801 0.000000 0.000000
vt 0.000000 -0.070500 0.000000
vt -0.200801 -0.070500 0.000000
vt -0.035250 0.181657 0.000000
vt 0.035250 0.181657 0.000000
vt -0.035250 0.193078 0.000000
vt 0.035250 0.193078 0.000000
vt -0.035250 0.204498 0.000000
vt 0.035250 0.204498 0.000000
vt -0.035250 0.215919 0.000000
vt 0.035250 0.215919 0.000000
vt -0.035250 0.227340 0.000000
vt 0.035250 0.227340 0.000000
vt -0.035250 0.238761 0.000000
vt 0.035250 0.238761 0.000000
vt 0.070500 0.000000 0.000000
vt -0.000000 0.000000 0.000000
vt 0.070500 -0.422500 0.000000
vt 0.000000 -0.422500 0.000000
vt -0.052000 -0.422500 0.000000
vt 0.000000 -0.422500 0.000000
vt -0.052000 0.000000 0.000000
vt -0.000000 0.000000 0.000000
vt -0.038678 0.042982 0.000000
vt -0.031537 0.051881 0.000000
vt 0.000749 0.005948 0.000000
vt 0.002949 0.011525 0.000000
vt 0.006462 0.016383 0.000000
vt 0.105538 0.198617 0.000000
vt 0.143537 0.163119 0.000000
vt 0.109051 0.203475 0.000000
vt 0.111251 0.209052 0.000000
vt 0.112000 0.215000 0.000000
vt 0.150678 0.172018 0.000000
vt 0.112000 0.315000 0.000000
vt 0.164000 0.215000 0.000000
vt 0.164000 0.315000 0.000000
vt 0.156407 0.181886 0.000000
vt 0.160593 0.192501 0.000000
vt 0.163143 0.203622 0.000000
vt -0.044407 0.033114 0.000000
vt -0.048593 0.022499 0.000000
vt -0.051143 0.011378 0.000000
vt 0.035250 -0.075398 0.000000
vt -0.035250 -0.075398 0.000000
vt 0.035250 -0.081409 0.000000
vt -0.035250 -0.081409 0.000000
vt 0.035250 -0.087420 0.000000
vt -0.035250 -0.087420 0.000000
vt 0.035250 -0.093431 0.000000
vt -0.035250 -0.093431 0.000000
vt 0.422500 0.052000 0.000000
vt -0.000000 0.052000 0.000000
vt 0.422500 -0.000000 0.000000
vt -0.000000 0.000000 0.000000
vt -0.042982 0.038678 0.000000
vt -0.051881 0.031537 0.000000
vt -0.011378 0.051143 0.000000
vt -0.022499 0.048593 0.000000
vt -0.033114 0.044407 0.000000
vt -0.198617 -0.105538 0.000000
vt -0.016383 -0.006462 0.000000
vt -0.011525 -0.002949 0.000000
vt -0.005948 -0.000749 0.000000
vt -0.163119 -0.143537 0.000000
vt -0.203475 -0.109051 0.000000
vt -0.209052 -0.111251 0.000000
vt -0.215000 -0.112000 0.000000
vt -0.172018 -0.150678 0.000000
vt -0.215000 -0.164000 0.000000
vt -0.181886 -0.156407 0.000000
vt -0.192501 -0.160593 0.000000
vt -0.203622 -0.163143 0.000000
vt -0.315000 -0.112000 0.000000
vt -0.315000 -0.164000 0.000000
vt -0.974750 -0.105000 0.000000
vt -1.045250 -0.105000 0.000000
vt -0.974750 -0.157000 0.000000
vt -1.045250 -0.157000 0.000000
vt -0.422500 0.000000 0.000000
vt -0.000000 0.000000 0.000000
vt -0.422500 0.070500 0.000000
vt 0.000000 0.070500 0.000000
vn -0.000000 -0.965926 -0.258819
vn -0.000000 -0.965926 -0.258819
vn -0.000000 -0.965926 -0.258819
vn -0.000000 -0.965926 -0.258819
vn -1.000000 0.000000 -0.000000
vn -1.000000 0.000000 -0.000000
vn -1.000000 0.000000 -0.000000
vn -1.000000 0.000000 -0.000000
vn 0.000000 0.965926 0.258819
vn 0.000000 0.965926 0.258819
vn 0.000000 0.965926 0.258819
vn 0.000000 0.965926 0.258819
vn 0.149710 -0.955040 -0.255902
vn 0.149710 -0.955040 -0.255902
vn 0.296045 -0.922627 -0.247217
vn 0.296045 -0.922627 -0.247217
vn 0.435707 -0.869419 -0.232960
vn 0.435707 -0.869419 -0.232960
vn 0.565549 -0.796614 -0.213452
vn 0.565549 -0.796614 -0.213452
vn 0.682643 -0.705853 -0.189133
vn 0.682643 -0.705853 -0.189133
vn -0.247847 0.935788 0.250744
vn -0.247847 0.935788 0.250744
vn -0.480229 0.847255 0.227021
vn -0.480229 0.847255 0.227021
vn -0.682643 0.705853 0.189133
vn -0.682643 0.705853 0.189133
vn 0.682643 -0.705853 -0.189133
vn 0.682643 -0.705853 -0.189133
vn -0.682643 0.705853 0.189133
vn -0.682643 0.705853 0.189133
vn -0.565549 0.796614 0.213452
vn -0.565549 0.796614 0.213452
vn -0.435707 0.869419 0.232960
vn -0.435707 0.869419 0.232960
vn -0.296045 0.922627 0.247217
vn -0.296045 0.922627 0.247217
vn -0.149710 0.955040 0.255902
vn -0.149710 0.955040 0.255902
vn 0.000000 0.965926 0.258819
vn 0.000000 0.965926 0.258819
vn 0.000000 0.965926 0.258819
vn 0.000000 0.965926 0.258819
vn 0.000000 0.258819 -0.965926
vn 0.000000 0.258819 -0.965926
vn 0.000000 0.258819 -0.965926
vn 0.000000 0.258819 -0.965926
vn 0.000000 0.258819 -0.965926
vn 0.000000 0.258819 -0.965926
vn 0.000000 0.258819 -0.965926
vn 0.000000 0.258819 -0.965926
vn 0.000000 0.258819 -0.965926
vn 0.000000 0.258819 -0.965926
vn 0.000000 0.258819 -0.965926
vn 0.000000 0.258819 -0.965926
vn 0.000000 0.258819 -0.965926
vn 0.000000 0.258819 -0.965926
vn 0.000000 0.258819 -0.965926
vn 0.000000 0.258819 -0.965926
vn 0.000000 0.258819 -0.965926
vn 0.000000 0.258819 -0.965926
vn 0.000000 0.258819 -0.965926
vn 0.000000 0.258819 -0.965926
vn 0.000000 0.258819 -0.965926
vn 0.000000 0.258819 -0.965926
vn 0.000000 0.258819 -0.965926
vn 0.000000 0.258819 -0.965926
vn -0.000000 -0.965926 -0.258819
vn -0.000000 -0.965926 -0.258819
vn 0.247847 -0.935788 -0.250744
vn 0.247847 -0.935788 -0.250744
vn 0.480229 -0.847255 -0.227021
vn 0.480229 -0.847255 -0.227021
vn -0.000000 -0.258819 0.965926
vn -0.000000 -0.258819 0.965926
vn -0.000000 -0.258819 0.965926
vn -0.000000 -0.258819 0.965926
vn -0.000000 -0.258819 0.965926
vn -0.000000 -0.258819 0.965926
vn -0.000000 -0.258819 0.965926
vn -0.000000 -0.258819 0.965926
vn -0.000000 -0.258819 0.965926
vn -0.000000 -0.258819 0.965926
vn -0.000000 -0.258819 0.965926
vn -0.000000 -0.258819 0.965926
vn -0.000000 -0.258819 0.965926
vn -0.000000 -0.258819 0.965926
vn -0.000000 -0.258819 0.965926
vn -0.000000 -0.258819 0.965926
vn -0.000000 -0.258819 0.965926
vn -0.000000 -0.258819 0.965926
vn -0.000000 -0.258819 0.965926
vn -0.000000 -0.258819 0.965926
vn -0.000000 -0.258819 0.965926
vn -0.000000 -0.258819 0.965926
vn -0.000000 -0.258819 0.965926
vn -0.000000 -0.258819 0.965926
vn 1.000000 -0.000000 0.000000
vn 1.000000 -0.000000 0.000000
vn 1.000000 -0.000000 0.000000
vn 1.000000 -0.000000 0.000000
vn -0.000000 -0.965926 -0.258819
vn -0.000000 -0.965926 -0.258819
usemtl Opaque(202,209,238)
f 1/1/1 2/2/2 4/3/3
f 4/3/3 2/2/2 3/4/4
f 3/5/5 2/6/6 5/7/7
f 5/7/7 2/6/6 6/8/8
f 5/9/9 6/10/10 8/11/11
f 8/11/11 6/10/10 7/12/12
f 1/13/1 4/14/3 18/15/13
f 18/15/13 4/14/3 9/16/14
f 18/15/13 9/16/14 17/17/15
f 17/17/15 9/16/14 10/18/16
f 17/17/15 10/18/16 16/19/17
f 16/19/17 10/18/16 11/20/18
f 16/19/17 11/20/18 15/21/19
f 15/21/19 11/20/18 12/22/20
f 15/21/19 12/22/20 14/23/21
f 14/23/21 12/22/20 13/24/22
f 8/25/11 7/26/12 24/27/23
f 24/27/23 7/26/12 19/28/24
f 24/27/23 19/28/24 23/29/25
f 23/29/25 19/28/24 20/30/26
f 23/29/25 20/30/26 22/31/27
f 22/31/27 20/30/26 21/32/28
f 14/33/21 13/34/22 25/35/29
f 25/35/29 13/34/22 26/36/30
f 21/37/28 27/38/31 22/39/27
f 22/39/27 27/38/31 28/40/32
f 28/41/32 27/42/31 38/43/33
f 38/43/33 27/42/31 29/44/34
f 38/43/33 29/44/34 37/45/35
f 37/45/35 29/44/34 30/46/36
f 37/45/35 30/46/36 36/47/37
f 36/47/37 30/46/36 31/48/38
f 36/47/37 31/48/38 35/49/39
f 35/49/39 31/48/38 32/50/40
f 35/49/39 32/50/40 34/51/41
f 34/51/41 32/50/40 33/52/42
f 34/53/41 33/54/42 40/55/43
f 40/55/43 33/54/42 39/56/44
f 40/57/45 41/58/46 34/59/47
f 34/59/47 41/58/46 42/60/48
f 34/59/47 42/60/48 38/61/49
f 38/61/49 42/60/48 28/62/50
f 28/62/50 42/60/48 43/63/51
f 28/62/50 43/63/51 44/64/52
f 44/64/52 26/65/53 28/62/50
f 28/62/50 26/65/53 22/66/54
f 22/66/54 26/65/53 13/67/55
f 22/66/54 13/67/55 23/68/56
f 23/68/56 13/67/55 24/69/57
f 24/69/57 13/67/55 8/70/58
f 8/70/58 13/67/55 12/71/59
f 8/70/58 12/71/59 5/72/60
f 5/72/60 12/71/59 4/73/61
f 5/72/60 4/73/61 3/74/62
f 12/71/59 11/75/63 4/73/61
f 4/73/61 11/75/63 10/76/64
f 4/73/61 10/76/64 9/77/65
f 38/61/49 37/78/66 34/59/47
f 34/59/47 37/78/66 36/79/67
f 34/59/47 36/79/67 35/80/68
f 42/81/69 45/82/70 43/83/71
f 43/83/71 45/82/70 46/84/72
f 43/83/71 46/84/72 44/85/73
f 44/85/73 46/84/72 47/86/74
f 44/85/73 47/86/74 26/87/30
f 26/87/30 47/86/74 25/88/29
f 39/89/75 33/90/76 48/91/77
f 48/91/77 33/90/76 45/92/78
f 45/92/78 33/90/76 29/93/79
f 45/92/78 29/93/79 27/94/80
f 32/95/81 31/96/82 33/90/76
f 33/90/76 31/96/82 30/97/83
f 33/90/76 30/97/83 29/93/79
f 21/98/84 25/99/85 27/94/80
f 27/94/80 25/99/85 47/100/86
f 27/94/80 47/100/86 46/101/87
f 25/99/85 21/98/84 14/102/88
f 14/102/88 21/98/84 20/103/89
f 14/102/88 20/103/89 19/104/90
f 19/104/90 7/105/91 14/102/88
f 14/102/88 7/105/91 15/106/92
f 15/106/92 7/105/91 1/107/93
f 15/106/92 1/107/93 16/108/94
f 16/108/94 1/107/93 17/109/95
f 17/109/95 1/107/93 18/110/96
f 6/111/97 2/112/98 7/105/91
f 7/105/91 2/112/98 1/107/93
f 46/101/87 45/92/78 27/94/80
f 48/113/99 41/114/100 39/115/101
f 39/115/101 41/114/100 40/116/102
f 48/117/103 45/118/70 41/119/104
f 41/119/104 45/118/70 42/120/69
# 48 vertices
# 120 texture params
# 104 normals
# 92 facets

# 1 groups
