# WaveFront *.obj file (generated by Autodesk ATF)

mtllib body57_visual.mtl

g Body57

v -27.030000 2.288131 -0.591625
v -27.030000 2.230175 -0.607154
v -27.035000 2.226640 -0.613278
v -27.035000 2.294254 -0.595161
v -27.030000 2.214646 -0.549199
v -27.035000 2.208522 -0.545663
v -27.030000 2.272601 -0.533670
v -27.035000 2.276137 -0.527546
v -28.025000 2.294254 -0.595161
v -28.025000 2.276137 -0.527546
v -28.025000 2.226640 -0.613278
v -28.030000 2.230175 -0.607154
v -28.030000 2.288131 -0.591625
v -28.030000 2.272601 -0.533670
v -28.030000 2.214646 -0.549199
v -28.025000 2.208522 -0.545663
vt 0.003536 -0.012500 0.000000
vt 0.003536 0.047500 0.000000
vt -0.003536 -0.017500 0.000000
vt -0.003536 0.052500 0.000000
vt -0.012500 -0.003536 0.000000
vt 0.047500 -0.003536 0.000000
vt -0.017500 0.003536 0.000000
vt 0.052500 0.003536 0.000000
vt -0.003536 -0.047500 0.000000
vt 0.003536 -0.052500 0.000000
vt -0.003536 0.012500 0.000000
vt 0.003536 0.017500 0.000000
vt -0.052500 -0.003536 0.000000
vt 0.017500 -0.003536 0.000000
vt -0.047500 0.003536 0.000000
vt 0.012500 0.003536 0.000000
vt 0.000000 -0.195000 0.000000
vt 0.070000 -0.195000 0.000000
vt -0.000000 0.795000 0.000000
vt 0.070000 0.795000 0.000000
vt 0.000000 -0.195000 0.000000
vt 0.070000 -0.195000 0.000000
vt 0.000000 0.795000 0.000000
vt 0.070000 0.795000 0.000000
vt -0.030000 -0.030000 0.000000
vt 0.030000 -0.030000 0.000000
vt -0.030000 0.030000 0.000000
vt 0.030000 0.030000 0.000000
vt -0.003536 -0.012500 0.000000
vt 0.003536 -0.017500 0.000000
vt -0.003536 0.047500 0.000000
vt 0.003536 0.052500 0.000000
vt 0.047500 0.003536 0.000000
vt -0.012500 0.003536 0.000000
vt 0.052500 -0.003536 0.000000
vt -0.017500 -0.003536 0.000000
vt 0.003536 -0.047500 0.000000
vt 0.003536 0.012500 0.000000
vt -0.003536 -0.052500 0.000000
vt -0.003536 0.017500 0.000000
vt 0.017500 0.003536 0.000000
vt -0.052500 0.003536 0.000000
vt 0.012500 -0.003536 0.000000
vt -0.047500 -0.003536 0.000000
vt 0.000000 -0.195000 0.000000
vt 0.070000 -0.195000 0.000000
vt 0.000000 0.795000 0.000000
vt 0.070000 0.795000 0.000000
vt 0.030000 0.030000 0.000000
vt -0.030000 0.030000 0.000000
vt 0.030000 -0.030000 0.000000
vt -0.030000 -0.030000 0.000000
vt 0.000000 -0.195000 0.000000
vt 0.070000 -0.195000 0.000000
vt 0.000000 0.795000 0.000000
vt 0.070000 0.795000 0.000000
vn 0.707107 0.183013 -0.683013
vn 0.707107 0.183013 -0.683013
vn 0.707107 0.183013 -0.683013
vn 0.707107 0.183013 -0.683013
vn 0.707107 -0.683013 -0.183013
vn 0.707107 -0.683013 -0.183013
vn 0.707107 -0.683013 -0.183013
vn 0.707107 -0.683013 -0.183013
vn 0.707107 -0.183013 0.683013
vn 0.707107 -0.183013 0.683013
vn 0.707107 -0.183013 0.683013
vn 0.707107 -0.183013 0.683013
vn 0.707107 0.683013 0.183013
vn 0.707107 0.683013 0.183013
vn 0.707107 0.683013 0.183013
vn 0.707107 0.683013 0.183013
vn 0.000000 0.965926 0.258819
vn 0.000000 0.965926 0.258819
vn 0.000000 0.965926 0.258819
vn 0.000000 0.965926 0.258819
vn 0.000000 0.258819 -0.965926
vn 0.000000 0.258819 -0.965926
vn 0.000000 0.258819 -0.965926
vn 0.000000 0.258819 -0.965926
vn 1.000000 -0.000000 0.000000
vn 1.000000 -0.000000 0.000000
vn 1.000000 -0.000000 0.000000
vn 1.000000 -0.000000 0.000000
vn -0.707107 0.183013 -0.683013
vn -0.707107 0.183013 -0.683013
vn -0.707107 0.183013 -0.683013
vn -0.707107 0.183013 -0.683013
vn -0.707107 0.683013 0.183013
vn -0.707107 0.683013 0.183013
vn -0.707107 0.683013 0.183013
vn -0.707107 0.683013 0.183013
vn -0.707107 -0.183013 0.683013
vn -0.707107 -0.183013 0.683013
vn -0.707107 -0.183013 0.683013
vn -0.707107 -0.183013 0.683013
vn -0.707107 -0.683013 -0.183013
vn -0.707107 -0.683013 -0.183013
vn -0.707107 -0.683013 -0.183013
vn -0.707107 -0.683013 -0.183013
vn -0.000000 -0.965926 -0.258819
vn -0.000000 -0.965926 -0.258819
vn -0.000000 -0.965926 -0.258819
vn -0.000000 -0.965926 -0.258819
vn -1.000000 0.000000 -0.000000
vn -1.000000 0.000000 -0.000000
vn -1.000000 0.000000 -0.000000
vn -1.000000 0.000000 -0.000000
vn -0.000000 -0.258819 0.965926
vn -0.000000 -0.258819 0.965926
vn -0.000000 -0.258819 0.965926
vn -0.000000 -0.258819 0.965926
usemtl Polycarbonate_(Clear)
f 1/1/1 2/2/2 4/3/3
f 4/3/3 2/2/2 3/4/4
f 2/5/5 5/6/6 3/7/7
f 3/7/7 5/6/6 6/8/8
f 7/9/9 8/10/10 5/11/11
f 5/11/11 8/10/10 6/12/12
f 4/13/13 8/14/14 1/15/15
f 1/15/15 8/14/14 7/16/16
f 8/17/17 4/18/18 10/19/19
f 10/19/19 4/18/18 9/20/20
f 4/21/21 3/22/22 9/23/23
f 9/23/23 3/22/22 11/24/24
f 1/25/25 7/26/26 2/27/27
f 2/27/27 7/26/26 5/28/28
f 13/29/29 9/30/30 12/31/31
f 12/31/31 9/30/30 11/32/32
f 13/33/33 14/34/34 9/35/35
f 9/35/35 14/34/34 10/36/36
f 14/37/37 15/38/38 10/39/39
f 10/39/39 15/38/38 16/40/40
f 11/41/41 16/42/42 12/43/43
f 12/43/43 16/42/42 15/44/44
f 3/45/45 6/46/46 11/47/47
f 11/47/47 6/46/46 16/48/48
f 12/49/49 15/50/50 13/51/51
f 13/51/51 15/50/50 14/52/52
f 6/53/53 8/54/54 16/55/55
f 16/55/55 8/54/54 10/56/56
# 16 vertices
# 56 texture params
# 56 normals
# 28 facets

# 1 groups
