# WaveFront *.obj file (generated by Autodesk ATF)

mtllib body89_visual.mtl

g Body89

v -27.238363 1.867314 -1.835934
v -27.282363 1.867314 -1.835934
v -27.282363 1.897123 -1.827946
v -27.238363 1.897123 -1.827946
v -27.238363 1.836255 -1.720023
v -27.282363 1.836255 -1.720023
v -27.284588 1.836320 -1.720265
v -27.286702 1.836512 -1.720979
v -27.288598 1.836820 -1.722130
v -27.290182 1.837230 -1.723660
v -27.291373 1.837721 -1.725491
v -27.292113 1.838268 -1.727533
v -27.292363 1.838844 -1.729682
v -27.292363 1.864726 -1.826275
v -27.292113 1.865301 -1.828424
v -27.291373 1.865849 -1.830466
v -27.290182 1.866339 -1.832297
v -27.288598 1.866749 -1.833826
v -27.286702 1.867057 -1.834977
v -27.284588 1.867249 -1.835692
v -27.238363 1.866065 -1.712035
v -27.282363 1.866065 -1.712035
v -27.292363 1.894535 -1.818287
v -27.292363 1.868653 -1.721695
v -27.292113 1.868077 -1.719545
v -27.291373 1.867530 -1.717504
v -27.290182 1.867039 -1.715672
v -27.288598 1.866630 -1.714143
v -27.286702 1.866321 -1.712992
v -27.284588 1.866130 -1.712278
v -27.284588 1.897058 -1.827704
v -27.286702 1.896867 -1.826990
v -27.288598 1.896558 -1.825839
v -27.290182 1.896149 -1.824310
v -27.291373 1.895658 -1.822478
v -27.292113 1.895111 -1.820437
v -27.287017 1.880001 -1.764045
v -27.287017 1.883187 -1.775937
v -27.258653 1.883187 -1.775937
v -27.258653 1.880001 -1.764045
v -27.258653 1.898166 -1.759178
v -27.287017 1.898166 -1.759178
v -27.258653 1.889992 -1.728671
v -27.287017 1.889992 -1.728671
v -27.258653 1.930571 -1.717798
v -27.287017 1.930571 -1.717798
v -27.258653 1.946390 -1.776838
v -27.287017 1.946390 -1.776838
v -27.258653 1.905811 -1.787711
v -27.287017 1.905811 -1.787711
v -27.258653 1.901352 -1.771070
v -27.287017 1.901352 -1.771070
vt 0.030861 -0.010000 0.000000
vt -0.000000 -0.010000 0.000000
vt 0.030861 -0.054000 0.000000
vt -0.000000 -0.054000 0.000000
vt -0.000000 -0.054000 0.000000
vt 0.120000 -0.054000 0.000000
vt -0.000000 -0.010000 0.000000
vt 0.120000 -0.010000 0.000000
vt 0.010000 -0.000000 0.000000
vt 0.110000 0.000000 0.000000
vt 0.119749 -0.007775 0.000000
vt 0.119010 -0.005661 0.000000
vt 0.117818 -0.003765 0.000000
vt 0.116235 -0.002182 0.000000
vt 0.114339 -0.000990 0.000000
vt 0.112225 -0.000251 0.000000
vt 0.007775 -0.000251 0.000000
vt 0.005661 -0.000990 0.000000
vt 0.003765 -0.002182 0.000000
vt 0.002182 -0.003765 0.000000
vt 0.000990 -0.005661 0.000000
vt 0.000251 -0.007775 0.000000
vt 0.030861 -0.010000 0.000000
vt -0.000000 -0.010000 0.000000
vt 0.030861 -0.054000 0.000000
vt 0.000000 -0.054000 0.000000
vt -0.043844 0.000000 0.000000
vt 0.012312 -0.005347 0.000000
vt 0.056156 0.000000 0.000000
vt 0.065905 -0.007775 0.000000
vt 0.065166 -0.005661 0.000000
vt -0.046069 -0.000251 0.000000
vt -0.048183 -0.000990 0.000000
vt -0.050079 -0.002182 0.000000
vt -0.051662 -0.003765 0.000000
vt -0.052854 -0.005661 0.000000
vt -0.053593 -0.007775 0.000000
vt -0.000000 -0.005347 0.000000
vt -0.053844 -0.010000 0.000000
vt 0.000000 -0.033711 0.000000
vt -0.053844 -0.054000 0.000000
vt 0.066156 -0.054000 0.000000
vt 0.012312 -0.033711 0.000000
vt 0.066156 -0.010000 0.000000
vt 0.063974 -0.003765 0.000000
vt 0.062391 -0.002182 0.000000
vt 0.060495 -0.000990 0.000000
vt 0.058381 -0.000251 0.000000
vt 0.000000 -0.005347 0.000000
vt -0.018806 -0.005347 0.000000
vt 0.000000 -0.033711 0.000000
vt -0.018806 -0.033711 0.000000
vt -0.000000 -0.005347 0.000000
vt -0.031583 -0.005347 0.000000
vt -0.000000 -0.033711 0.000000
vt -0.031583 -0.033711 0.000000
vt 0.000000 -0.005347 0.000000
vt -0.042010 -0.005347 0.000000
vt -0.000000 -0.033711 0.000000
vt -0.042010 -0.033711 0.000000
vt -0.000000 -0.005347 0.000000
vt -0.061123 -0.005347 0.000000
vt 0.000000 -0.033711 0.000000
vt -0.061123 -0.033711 0.000000
vt -0.000000 -0.005347 0.000000
vt -0.042010 -0.005347 0.000000
vt 0.000000 -0.033711 0.000000
vt -0.042010 -0.033711 0.000000
vt -0.000000 -0.005347 0.000000
vt -0.017229 -0.005347 0.000000
vt 0.000000 -0.033711 0.000000
vt -0.017229 -0.033711 0.000000
vt -0.000000 -0.005347 0.000000
vt -0.018806 -0.005347 0.000000
vt 0.000000 -0.033711 0.000000
vt -0.018806 -0.033711 0.000000
vt -0.050000 -0.090861 0.000000
vt 0.050000 -0.090861 0.000000
vt -0.050000 -0.060000 0.000000
vt 0.050000 -0.060000 0.000000
vt 0.060000 -0.060000 0.000000
vt -0.060000 -0.060000 0.000000
vt 0.060000 -0.090861 0.000000
vt -0.060000 -0.090861 0.000000
vt -0.066156 0.000000 0.000000
vt -0.053844 0.000000 0.000000
vt -0.066156 0.018806 0.000000
vt -0.053844 0.018806 0.000000
vt -0.036615 0.060816 0.000000
vt -0.036615 0.018806 0.000000
vt -0.097739 0.060816 0.000000
vt -0.097739 0.018806 0.000000
vt 0.097739 0.018806 0.000000
vt 0.097739 0.060816 0.000000
vt 0.066156 0.018806 0.000000
vt 0.036615 0.060816 0.000000
vt 0.053844 0.018806 0.000000
vt 0.036615 0.018806 0.000000
vt 0.053844 0.000000 0.000000
vt 0.066156 -0.000000 0.000000
vt -0.060000 0.015708 0.000000
vt -0.090861 0.015708 0.000000
vt -0.060000 0.013464 0.000000
vt -0.090861 0.013464 0.000000
vt -0.060000 0.011220 0.000000
vt -0.090861 0.011220 0.000000
vt -0.060000 0.008976 0.000000
vt -0.090861 0.008976 0.000000
vt -0.060000 0.006732 0.000000
vt -0.090861 0.006732 0.000000
vt -0.060000 0.004488 0.000000
vt -0.090861 0.004488 0.000000
vt -0.060000 0.002244 0.000000
vt -0.090861 0.002244 0.000000
vt -0.060000 -0.000000 0.000000
vt -0.090861 -0.000000 0.000000
vt 0.090861 0.015708 0.000000
vt 0.060000 0.015708 0.000000
vt 0.090861 0.013464 0.000000
vt 0.060000 0.013464 0.000000
vt 0.090861 0.011220 0.000000
vt 0.060000 0.011220 0.000000
vt 0.090861 0.008976 0.000000
vt 0.060000 0.008976 0.000000
vt 0.090861 0.006732 0.000000
vt 0.060000 0.006732 0.000000
vt 0.090861 0.004488 0.000000
vt 0.060000 0.004488 0.000000
vt 0.090861 0.002244 0.000000
vt 0.060000 0.002244 0.000000
vt 0.090861 -0.000000 0.000000
vt 0.060000 -0.000000 0.000000
vn 0.000000 0.258819 -0.965926
vn 0.000000 0.258819 -0.965926
vn 0.000000 0.258819 -0.965926
vn 0.000000 0.258819 -0.965926
vn -0.000000 -0.965926 -0.258819
vn -0.000000 -0.965926 -0.258819
vn -0.000000 -0.965926 -0.258819
vn -0.000000 -0.965926 -0.258819
vn -0.000000 -0.965926 -0.258819
vn -0.000000 -0.965926 -0.258819
vn -0.000000 -0.965926 -0.258819
vn -0.000000 -0.965926 -0.258819
vn -0.000000 -0.965926 -0.258819
vn -0.000000 -0.965926 -0.258819
vn -0.000000 -0.965926 -0.258819
vn -0.000000 -0.965926 -0.258819
vn -0.000000 -0.965926 -0.258819
vn -0.000000 -0.965926 -0.258819
vn -0.000000 -0.965926 -0.258819
vn -0.000000 -0.965926 -0.258819
vn -0.000000 -0.965926 -0.258819
vn -0.000000 -0.965926 -0.258819
vn -0.000000 -0.258819 0.965926
vn -0.000000 -0.258819 0.965926
vn -0.000000 -0.258819 0.965926
vn -0.000000 -0.258819 0.965926
vn 0.000000 0.965926 0.258819
vn 0.000000 0.965926 0.258819
vn 0.000000 0.965926 0.258819
vn 0.000000 0.965926 0.258819
vn 0.000000 0.965926 0.258819
vn 0.000000 0.965926 0.258819
vn 0.000000 0.965926 0.258819
vn 0.000000 0.965926 0.258819
vn 0.000000 0.965926 0.258819
vn 0.000000 0.965926 0.258819
vn 0.000000 0.965926 0.258819
vn 0.000000 0.965926 0.258819
vn 0.000000 0.965926 0.258819
vn 0.000000 0.965926 0.258819
vn 0.000000 0.965926 0.258819
vn 0.000000 0.965926 0.258819
vn 0.000000 0.965926 0.258819
vn 0.000000 0.965926 0.258819
vn 0.000000 0.965926 0.258819
vn 0.000000 0.965926 0.258819
vn 0.000000 0.965926 0.258819
vn 0.000000 0.965926 0.258819
vn -0.000000 -0.258819 0.965926
vn -0.000000 -0.258819 0.965926
vn -0.000000 -0.258819 0.965926
vn -0.000000 -0.258819 0.965926
vn -0.000000 -0.965926 -0.258819
vn -0.000000 -0.965926 -0.258819
vn -0.000000 -0.965926 -0.258819
vn -0.000000 -0.965926 -0.258819
vn -0.000000 -0.258819 0.965926
vn -0.000000 -0.258819 0.965926
vn -0.000000 -0.258819 0.965926
vn -0.000000 -0.258819 0.965926
vn 0.000000 0.965926 0.258819
vn 0.000000 0.965926 0.258819
vn 0.000000 0.965926 0.258819
vn 0.000000 0.965926 0.258819
vn 0.000000 0.258819 -0.965926
vn 0.000000 0.258819 -0.965926
vn 0.000000 0.258819 -0.965926
vn 0.000000 0.258819 -0.965926
vn -0.000000 -0.965926 -0.258819
vn -0.000000 -0.965926 -0.258819
vn -0.000000 -0.965926 -0.258819
vn -0.000000 -0.965926 -0.258819
vn 0.000000 0.258819 -0.965926
vn 0.000000 0.258819 -0.965926
vn 0.000000 0.258819 -0.965926
vn 0.000000 0.258819 -0.965926
vn -1.000000 0.000000 -0.000000
vn -1.000000 0.000000 -0.000000
vn -1.000000 0.000000 -0.000000
vn -1.000000 0.000000 -0.000000
vn 1.000000 -0.000000 0.000000
vn 1.000000 -0.000000 0.000000
vn 1.000000 -0.000000 0.000000
vn 1.000000 -0.000000 0.000000
vn 1.000000 -0.000000 0.000000
vn 1.000000 -0.000000 0.000000
vn 1.000000 -0.000000 0.000000
vn 1.000000 -0.000000 0.000000
vn 1.000000 -0.000000 0.000000
vn 1.000000 -0.000000 0.000000
vn 1.000000 -0.000000 0.000000
vn 1.000000 -0.000000 0.000000
vn -1.000000 0.000000 -0.000000
vn -1.000000 0.000000 -0.000000
vn -1.000000 0.000000 -0.000000
vn -1.000000 0.000000 -0.000000
vn -1.000000 0.000000 -0.000000
vn -1.000000 0.000000 -0.000000
vn -1.000000 0.000000 -0.000000
vn -1.000000 0.000000 -0.000000
vn -0.974928 -0.057593 0.214939
vn -0.974928 -0.057593 0.214939
vn -0.900969 -0.112297 0.419100
vn -0.900969 -0.112297 0.419100
vn -0.781831 -0.161371 0.602245
vn -0.781831 -0.161371 0.602245
vn -0.623490 -0.202353 0.755191
vn -0.623490 -0.202353 0.755191
vn -0.433884 -0.233188 0.870269
vn -0.433884 -0.233188 0.870269
vn -0.222521 -0.252330 0.941708
vn -0.222521 -0.252330 0.941708
vn -0.974928 0.057593 -0.214939
vn -0.974928 0.057593 -0.214939
vn -0.900969 0.112297 -0.419100
vn -0.900969 0.112297 -0.419100
vn -0.781831 0.161371 -0.602245
vn -0.781831 0.161371 -0.602245
vn -0.623490 0.202353 -0.755191
vn -0.623490 0.202353 -0.755191
vn -0.433884 0.233188 -0.870269
vn -0.433884 0.233188 -0.870269
vn -0.222521 0.252330 -0.941708
vn -0.222521 0.252330 -0.941708
usemtl Opaque(202,209,238)
f 2/1/1 3/2/2 1/3/3
f 1/3/3 3/2/2 4/4/4
f 1/5/5 5/6/6 2/7/7
f 2/7/7 5/6/6 6/8/8
f 2/7/7 6/8/8 14/9/9
f 14/9/9 6/8/8 13/10/10
f 13/10/10 6/8/8 7/11/11
f 13/10/10 7/11/11 8/12/12
f 8/12/12 9/13/13 13/10/10
f 13/10/10 9/13/13 10/14/14
f 13/10/10 10/14/14 11/15/15
f 11/15/15 12/16/16 13/10/10
f 15/17/17 16/18/18 14/9/9
f 14/9/9 16/18/18 17/19/19
f 14/9/9 17/19/19 18/20/20
f 18/20/20 19/21/21 14/9/9
f 14/9/9 19/21/21 20/22/22
f 14/9/9 20/22/22 2/7/7
f 22/23/23 6/24/24 21/25/25
f 21/25/25 6/24/24 5/26/26
f 24/27/27 38/28/28 23/29/29
f 23/29/29 38/28/28 31/30/30
f 23/29/29 31/30/30 32/31/31
f 25/32/32 26/33/33 24/27/27
f 24/27/27 26/33/33 27/34/34
f 24/27/27 27/34/34 28/35/35
f 28/35/35 29/36/36 24/27/27
f 24/27/27 29/36/36 30/37/37
f 24/27/27 30/37/37 37/38/38
f 37/38/38 30/37/37 22/39/39
f 37/38/38 22/39/39 40/40/40
f 40/40/40 22/39/39 21/41/41
f 40/40/40 21/41/41 4/42/42
f 40/40/40 4/42/42 39/43/43
f 39/43/43 4/42/42 3/44/44
f 39/43/43 3/44/44 38/28/28
f 38/28/28 3/44/44 31/30/30
f 32/31/31 33/45/45 23/29/29
f 23/29/29 33/45/45 34/46/46
f 23/29/29 34/46/46 35/47/47
f 35/47/47 36/48/48 23/29/29
f 37/38/38 38/28/28 24/27/27
f 42/49/49 37/50/50 41/51/51
f 41/51/51 37/50/50 40/52/52
f 44/53/53 42/54/54 43/55/55
f 43/55/55 42/54/54 41/56/56
f 46/57/57 44/58/58 45/59/59
f 45/59/59 44/58/58 43/60/60
f 48/61/61 46/62/62 47/63/63
f 47/63/63 46/62/62 45/64/64
f 50/65/65 48/66/66 49/67/67
f 49/67/67 48/66/66 47/68/68
f 52/69/69 50/70/70 51/71/71
f 51/71/71 50/70/70 49/72/72
f 38/73/73 52/74/74 39/75/75
f 39/75/75 52/74/74 51/76/76
f 14/77/77 13/78/78 23/79/79
f 23/79/79 13/78/78 24/80/80
f 4/81/81 21/82/82 1/83/83
f 1/83/83 21/82/82 5/84/84
f 40/85/85 39/86/86 41/87/87
f 41/87/87 39/86/86 51/88/88
f 41/87/87 51/88/88 47/89/89
f 47/89/89 51/88/88 49/90/90
f 47/89/89 45/91/91 41/87/87
f 41/87/87 45/91/91 43/92/92
f 44/93/93 46/94/94 42/95/95
f 42/95/95 46/94/94 48/96/96
f 42/95/95 48/96/96 52/97/97
f 52/97/97 48/96/96 50/98/98
f 38/99/99 37/100/100 52/97/97
f 52/97/97 37/100/100 42/95/95
f 24/101/80 13/102/78 25/103/101
f 25/103/101 13/102/78 12/104/102
f 25/103/101 12/104/102 26/105/103
f 26/105/103 12/104/102 11/106/104
f 26/105/103 11/106/104 27/107/105
f 27/107/105 11/106/104 10/108/106
f 27/107/105 10/108/106 28/109/107
f 28/109/107 10/108/106 9/110/108
f 28/109/107 9/110/108 29/111/109
f 29/111/109 9/110/108 8/112/110
f 29/111/109 8/112/110 30/113/111
f 30/113/111 8/112/110 7/114/112
f 30/113/111 7/114/112 22/115/23
f 22/115/23 7/114/112 6/116/24
f 14/117/77 23/118/79 15/119/113
f 15/119/113 23/118/79 36/120/114
f 15/119/113 36/120/114 16/121/115
f 16/121/115 36/120/114 35/122/116
f 16/121/115 35/122/116 17/123/117
f 17/123/117 35/122/116 34/124/118
f 17/123/117 34/124/118 18/125/119
f 18/125/119 34/124/118 33/126/120
f 18/125/119 33/126/120 19/127/121
f 19/127/121 33/126/120 32/128/122
f 19/127/121 32/128/122 20/129/123
f 20/129/123 32/128/122 31/130/124
f 20/129/123 31/130/124 2/131/1
f 2/131/1 31/130/124 3/132/2
# 52 vertices
# 132 texture params
# 124 normals
# 100 facets

# 1 groups
