# WaveFront *.obj file (generated by Autodesk ATF)

mtllib body120_visual.mtl

g Body120

v -27.297463 2.598821 -3.670362
v -27.240363 2.598821 -3.670362
v -27.240363 2.600140 -3.670008
v -27.297463 2.600140 -3.670008
v -27.297463 2.444052 -3.556399
v -27.240363 2.444052 -3.556399
v -27.240363 2.442994 -3.556682
v -27.297463 2.442994 -3.556682
v -27.297463 2.559963 -3.525341
v -27.240363 2.559963 -3.525341
v -27.297773 2.598827 -3.670385
v -27.298076 2.598846 -3.670455
v -27.298363 2.598876 -3.670568
v -27.298363 2.559907 -3.525134
v -27.298076 2.559938 -3.525248
v -27.297773 2.559956 -3.525317
v -27.297463 2.482910 -3.701420
v -27.240363 2.482910 -3.701420
v -27.297773 2.444045 -3.556376
v -27.298076 2.444027 -3.556306
v -27.298363 2.443996 -3.556192
v -27.298363 2.482965 -3.701627
v -27.298076 2.482935 -3.701513
v -27.297773 2.482916 -3.701443
v -27.238363 2.444408 -3.554233
v -27.238363 2.445466 -3.553949
v -27.238363 2.485359 -3.702834
v -27.238363 2.484040 -3.703188
v -27.238363 2.492397 -3.734376
v -27.238363 2.607083 -3.703646
v -27.238363 2.598726 -3.672458
v -27.238363 2.597407 -3.672811
v -27.238363 2.557513 -3.523926
v -27.238363 2.559094 -3.523503
v -27.238363 2.550737 -3.492315
v -27.238363 2.436052 -3.523044
v -27.297463 2.561543 -3.524917
v -27.240363 2.561543 -3.524917
v -27.240363 2.434120 -3.523562
v -27.297463 2.434120 -3.523562
v -27.297463 2.552669 -3.491797
v -27.240363 2.552669 -3.491797
v -27.297463 2.435534 -3.521113
v -27.240363 2.435534 -3.521113
v -27.240363 2.550219 -3.490383
v -27.297463 2.550219 -3.490383
v -27.299463 2.444408 -3.554233
v -27.299463 2.436052 -3.523044
v -27.299463 2.550737 -3.492315
v -27.299463 2.559094 -3.523503
v -27.297463 2.481591 -3.701773
v -27.240363 2.481591 -3.701773
v -27.240363 2.609015 -3.703129
v -27.297463 2.609015 -3.703129
v -27.297463 2.490465 -3.734894
v -27.240363 2.490465 -3.734894
v -27.297463 2.607600 -3.705578
v -27.240363 2.607600 -3.705578
v -27.240363 2.492915 -3.736308
v -27.297463 2.492915 -3.736308
v -27.299463 2.484040 -3.703188
v -27.299463 2.598726 -3.672458
v -27.299463 2.607083 -3.703646
v -27.299463 2.492397 -3.734376
v -27.298463 2.608756 -3.703198
v -27.299195 2.608049 -3.703387
v -27.299311 2.599267 -3.671520
v -27.298877 2.599726 -3.670726
v -27.298229 2.600032 -3.670195
v -27.297853 2.600113 -3.670055
v -27.298463 2.604318 -3.686638
v -27.299195 2.603611 -3.686827
v -27.298463 2.607531 -3.705319
v -27.299195 2.607342 -3.704612
v -27.297463 2.609015 -3.704164
v -27.297463 2.608497 -3.705060
v -27.299195 2.607790 -3.704353
v -27.298463 2.608307 -3.704871
v -27.298463 2.608756 -3.704094
v -27.299195 2.608049 -3.703905
v -27.299311 2.483103 -3.702646
v -27.298877 2.482308 -3.702188
v -27.298229 2.481777 -3.701881
v -27.297853 2.481638 -3.701801
v -27.298463 2.580451 -3.675561
v -27.298463 2.560693 -3.680856
v -27.298463 2.540935 -3.686150
v -27.298463 2.521177 -3.691444
v -27.298463 2.501418 -3.696738
v -27.299195 2.580641 -3.676268
v -27.299195 2.560882 -3.681563
v -27.299195 2.541124 -3.686857
v -27.299195 2.521366 -3.692151
v -27.299195 2.501608 -3.697445
v -27.239973 2.598794 -3.670409
v -27.239598 2.598713 -3.670548
v -27.238949 2.598407 -3.671079
v -27.238515 2.597948 -3.671874
v -27.238515 2.599267 -3.671520
v -27.238949 2.599726 -3.670726
v -27.239598 2.600032 -3.670195
v -27.239973 2.600113 -3.670055
v -27.238631 2.608049 -3.703387
v -27.239363 2.608756 -3.703198
v -27.239363 2.604318 -3.686638
v -27.238631 2.603611 -3.686827
v -27.240363 2.609015 -3.704164
v -27.240363 2.608497 -3.705060
v -27.278430 2.608497 -3.705060
v -27.259397 2.608497 -3.705060
v -27.278430 2.609015 -3.704164
v -27.259397 2.609015 -3.704164
v -27.298463 2.492846 -3.736049
v -27.299195 2.492656 -3.735342
v -27.299195 2.588227 -3.709734
v -27.299195 2.569113 -3.714855
v -27.299195 2.549999 -3.719977
v -27.299195 2.530885 -3.725099
v -27.299195 2.511770 -3.730220
v -27.298463 2.588417 -3.710441
v -27.298463 2.569303 -3.715562
v -27.298463 2.550188 -3.720684
v -27.298463 2.531074 -3.725806
v -27.298463 2.511960 -3.730927
v -27.299195 2.491431 -3.734635
v -27.298463 2.490724 -3.734824
v -27.298463 2.486287 -3.718264
v -27.299195 2.486994 -3.718075
v -27.299195 2.551703 -3.492056
v -27.298463 2.552410 -3.491866
v -27.297853 2.561496 -3.524890
v -27.298229 2.561357 -3.524809
v -27.298877 2.560826 -3.524503
v -27.299311 2.560031 -3.524044
v -27.299195 2.556140 -3.508616
v -27.298463 2.556847 -3.508426
v -27.239973 2.559916 -3.525313
v -27.239598 2.559776 -3.525233
v -27.238949 2.559245 -3.524926
v -27.238515 2.558451 -3.524468
v -27.238631 2.592674 -3.651283
v -27.238631 2.586975 -3.630014
v -27.238631 2.581275 -3.608745
v -27.238631 2.575576 -3.587475
v -27.238631 2.569877 -3.566206
v -27.238631 2.564178 -3.544937
v -27.239363 2.593381 -3.651094
v -27.239363 2.587682 -3.629824
v -27.239363 2.581983 -3.608555
v -27.239363 2.576284 -3.587286
v -27.239363 2.570584 -3.566017
v -27.239363 2.564885 -3.544747
v -27.238631 2.607342 -3.704612
v -27.239363 2.607531 -3.705319
v -27.239497 2.608790 -3.704224
v -27.239863 2.608368 -3.705095
v -27.238863 2.608178 -3.704388
v -27.239497 2.608014 -3.705190
v -27.297463 2.491880 -3.736308
v -27.297463 2.490983 -3.735790
v -27.298329 2.491207 -3.735730
v -27.297963 2.492009 -3.736273
v -27.298963 2.491820 -3.735566
v -27.298329 2.492363 -3.736178
v -27.297853 2.443021 -3.556635
v -27.298229 2.443102 -3.556496
v -27.298877 2.443408 -3.555965
v -27.299311 2.443867 -3.555170
v -27.298463 2.462683 -3.551129
v -27.298463 2.482441 -3.545835
v -27.298463 2.502199 -3.540541
v -27.298463 2.521958 -3.535247
v -27.298463 2.541716 -3.529952
v -27.299195 2.462494 -3.550422
v -27.299195 2.482252 -3.545128
v -27.299195 2.502010 -3.539834
v -27.299195 2.521768 -3.534539
v -27.299195 2.541526 -3.529245
v -27.297463 2.551255 -3.490383
v -27.297463 2.552151 -3.490900
v -27.299195 2.550478 -3.491349
v -27.298463 2.550289 -3.490641
v -27.298329 2.551927 -3.490960
v -27.297963 2.551125 -3.490417
v -27.298963 2.551315 -3.491124
v -27.298329 2.550772 -3.490512
v -27.239973 2.561496 -3.524890
v -27.239598 2.561357 -3.524809
v -27.238949 2.560826 -3.524503
v -27.238515 2.560031 -3.524044
v -27.238631 2.492656 -3.735342
v -27.239363 2.492846 -3.736049
v -27.239363 2.588417 -3.710441
v -27.239363 2.569303 -3.715562
v -27.239363 2.550188 -3.720684
v -27.239363 2.531074 -3.725806
v -27.239363 2.511960 -3.730927
v -27.238631 2.588227 -3.709734
v -27.238631 2.569113 -3.714855
v -27.238631 2.549999 -3.719977
v -27.238631 2.530885 -3.725099
v -27.238631 2.511770 -3.730220
v -27.240363 2.491880 -3.736308
v -27.240363 2.490983 -3.735790
v -27.278430 2.490983 -3.735790
v -27.259397 2.490983 -3.735790
v -27.278430 2.491880 -3.736308
v -27.259397 2.491880 -3.736308
v -27.298463 2.434379 -3.523493
v -27.299195 2.435086 -3.523303
v -27.299195 2.439523 -3.539863
v -27.298463 2.438816 -3.540053
v -27.299195 2.435793 -3.522078
v -27.298463 2.435603 -3.521371
v -27.298463 2.531174 -3.495763
v -27.298463 2.512060 -3.500885
v -27.298463 2.492946 -3.506006
v -27.298463 2.473832 -3.511128
v -27.298463 2.454717 -3.516250
v -27.299195 2.531364 -3.496470
v -27.299195 2.512250 -3.501592
v -27.299195 2.493135 -3.506714
v -27.299195 2.474021 -3.511835
v -27.299195 2.454907 -3.516957
v -27.240363 2.551255 -3.490383
v -27.240363 2.552151 -3.490900
v -27.278430 2.552151 -3.490900
v -27.259397 2.552151 -3.490900
v -27.278430 2.551255 -3.490383
v -27.259397 2.551255 -3.490383
v -27.239363 2.552410 -3.491866
v -27.238631 2.551703 -3.492056
v -27.238631 2.556140 -3.508616
v -27.239363 2.556847 -3.508426
v -27.238631 2.491431 -3.734635
v -27.239363 2.490724 -3.734824
v -27.239497 2.491820 -3.736084
v -27.239863 2.490948 -3.735661
v -27.238863 2.491656 -3.735471
v -27.239497 2.490854 -3.735307
v -27.297463 2.434120 -3.522527
v -27.297463 2.434637 -3.521630
v -27.298963 2.434956 -3.522303
v -27.298329 2.435120 -3.521501
v -27.298329 2.434344 -3.522467
v -27.297963 2.434767 -3.521595
v -27.239363 2.550289 -3.490641
v -27.238631 2.550478 -3.491349
v -27.238863 2.551315 -3.491124
v -27.239497 2.550772 -3.490512
v -27.239497 2.551927 -3.490960
v -27.239863 2.551125 -3.490417
v -27.238515 2.483103 -3.702646
v -27.238949 2.482308 -3.702188
v -27.239598 2.481777 -3.701881
v -27.239973 2.481638 -3.701801
v -27.239363 2.486287 -3.718264
v -27.238631 2.486994 -3.718075
v -27.240363 2.434120 -3.522527
v -27.240363 2.434637 -3.521630
v -27.278430 2.434637 -3.521630
v -27.259397 2.434637 -3.521630
v -27.278430 2.434120 -3.522527
v -27.259397 2.434120 -3.522527
v -27.239363 2.435603 -3.521371
v -27.238631 2.435793 -3.522078
v -27.238631 2.531364 -3.496470
v -27.238631 2.512250 -3.501592
v -27.238631 2.493135 -3.506714
v -27.238631 2.474021 -3.511835
v -27.238631 2.454907 -3.516957
v -27.239363 2.531174 -3.495763
v -27.239363 2.512060 -3.500885
v -27.239363 2.492946 -3.506006
v -27.239363 2.473832 -3.511128
v -27.239363 2.454717 -3.516250
v -27.238515 2.484422 -3.702293
v -27.238949 2.483627 -3.701834
v -27.239598 2.483096 -3.701528
v -27.239973 2.482957 -3.701447
v -27.239363 2.434379 -3.523493
v -27.238631 2.435086 -3.523303
v -27.238863 2.434861 -3.522467
v -27.239497 2.434249 -3.523010
v -27.239497 2.434697 -3.521854
v -27.239863 2.434154 -3.522656
v -27.238515 2.444925 -3.554887
v -27.238949 2.444466 -3.555681
v -27.239598 2.444159 -3.556212
v -27.239973 2.444079 -3.556352
v -27.239363 2.477987 -3.682013
v -27.239363 2.472288 -3.660744
v -27.239363 2.466589 -3.639475
v -27.239363 2.460890 -3.618205
v -27.239363 2.455191 -3.596936
v -27.239363 2.449492 -3.575667
v -27.238631 2.478694 -3.681824
v -27.238631 2.472995 -3.660555
v -27.238631 2.467296 -3.639285
v -27.238631 2.461597 -3.618016
v -27.238631 2.455898 -3.596747
v -27.238631 2.450199 -3.575477
v -27.239973 2.443021 -3.556635
v -27.239598 2.443102 -3.556496
v -27.238949 2.443408 -3.555965
v -27.238515 2.443867 -3.555170
v -27.238631 2.439523 -3.539863
v -27.239363 2.438816 -3.540053
vt 0.121366 -0.188183 0.000000
vt 0.122731 -0.188183 0.000000
vt 0.121366 -0.131083 0.000000
vt 0.122731 -0.131083 0.000000
vt -0.001095 -0.188183 0.000000
vt 0.000000 -0.188183 0.000000
vt -0.001095 -0.131083 0.000000
vt 0.000000 -0.131083 0.000000
vt -0.185069 -0.058000 0.000000
vt -0.034931 -0.058000 0.000000
vt -0.185069 -0.000900 0.000000
vt -0.034931 -0.000900 0.000000
vt -0.185093 -0.000590 0.000000
vt -0.034907 -0.000590 0.000000
vt -0.185165 -0.000288 0.000000
vt -0.034835 -0.000288 0.000000
vt -0.185282 0.000000 0.000000
vt -0.034718 0.000000 0.000000
vt 0.034931 -0.058000 0.000000
vt 0.185069 -0.058000 0.000000
vt 0.034931 -0.000900 0.000000
vt 0.185069 -0.000900 0.000000
vt 0.034907 -0.000590 0.000000
vt 0.185093 -0.000590 0.000000
vt 0.034835 -0.000288 0.000000
vt 0.185165 -0.000288 0.000000
vt 0.034718 0.000000 0.000000
vt 0.185282 0.000000 0.000000
vt 0.060000 0.075282 0.000000
vt -0.060000 0.075282 0.000000
vt 0.060000 -0.075282 0.000000
vt -0.060000 -0.075282 0.000000
vt 0.059095 -0.077069 0.000000
vt 0.058000 -0.077069 0.000000
vt 0.059095 -0.109357 0.000000
vt -0.058000 -0.077069 0.000000
vt -0.059636 -0.109357 0.000000
vt -0.059636 -0.077069 0.000000
vt -0.058000 0.077069 0.000000
vt 0.058000 0.077069 0.000000
vt -0.059366 0.109357 0.000000
vt 0.059366 0.109357 0.000000
vt 0.059366 0.077069 0.000000
vt -0.059366 0.077069 0.000000
vt -0.122731 -0.188183 0.000000
vt -0.121095 -0.188183 0.000000
vt -0.122731 -0.131083 0.000000
vt -0.121095 -0.131083 0.000000
vt -0.036289 -0.188183 0.000000
vt -0.002000 -0.188183 0.000000
vt -0.036289 -0.131083 0.000000
vt -0.002000 -0.131083 0.000000
vt 0.002000 -0.188183 0.000000
vt 0.036289 -0.188183 0.000000
vt 0.002000 -0.131083 0.000000
vt 0.036289 -0.131083 0.000000
vt 0.002000 -0.188183 0.000000
vt 0.120731 -0.188183 0.000000
vt 0.002000 -0.131083 0.000000
vt 0.120731 -0.131083 0.000000
vt -0.059095 -0.109357 0.000000
vt 0.059636 -0.109357 0.000000
vt -0.059095 -0.077069 0.000000
vt 0.059636 -0.077069 0.000000
vt -0.000000 -0.188183 0.000000
vt 0.001366 -0.188183 0.000000
vt -0.000000 -0.131083 0.000000
vt 0.001366 -0.131083 0.000000
vt -0.036289 -0.188183 0.000000
vt -0.002000 -0.188183 0.000000
vt -0.036289 -0.131083 0.000000
vt -0.002000 -0.131083 0.000000
vt 0.002000 -0.188183 0.000000
vt 0.036289 -0.188183 0.000000
vt 0.002000 -0.131083 0.000000
vt 0.036289 -0.131083 0.000000
vt -0.120731 -0.188183 0.000000
vt -0.002000 -0.188183 0.000000
vt -0.120731 -0.131083 0.000000
vt -0.002000 -0.131083 0.000000
vt -0.059366 0.077069 0.000000
vt 0.059366 0.077069 0.000000
vt -0.059366 0.109357 0.000000
vt 0.059366 0.109357 0.000000
vt -0.002000 0.001047 0.000000
vt -0.019144 0.001047 0.000000
vt -0.002000 0.000000 0.000000
vt -0.036250 0.000393 0.000000
vt -0.036289 -0.000000 0.000000
vt -0.019144 0.002094 0.000000
vt -0.002000 0.002094 0.000000
vt -0.002000 0.003142 0.000000
vt -0.034289 0.003142 0.000000
vt -0.035054 0.002356 0.000000
vt -0.035703 0.001571 0.000000
vt -0.036136 0.000785 0.000000
vt 0.000000 0.000000 0.000000
vt -0.001047 0.000000 0.000000
vt 0.000000 -0.000740 0.000000
vt -0.001047 -0.000740 0.000000
vt 0.000000 -0.001481 0.000000
vt -0.001047 -0.001481 0.000000
vt -0.000000 -0.002221 0.000000
vt -0.001047 -0.002221 0.000000
vt -0.002094 -0.001481 0.000000
vt -0.002094 -0.002221 0.000000
vt -0.003142 -0.001481 0.000000
vt -0.002094 0.000000 0.000000
vt -0.002094 -0.000740 0.000000
vt -0.003142 0.000000 0.000000
vt -0.003142 -0.000740 0.000000
vt 0.121366 0.000000 0.000000
vt 0.122731 0.000000 0.000000
vt 0.121366 0.000311 0.000000
vt 0.122693 0.000393 0.000000
vt 0.121366 0.000622 0.000000
vt 0.122579 0.000785 0.000000
vt 0.121366 0.000934 0.000000
vt 0.122145 0.001571 0.000000
vt 0.102276 0.001047 0.000000
vt 0.102276 0.002094 0.000000
vt 0.081821 0.002094 0.000000
vt 0.121496 0.002356 0.000000
vt 0.002000 0.003142 0.000000
vt 0.120731 0.003142 0.000000
vt 0.001235 0.002356 0.000000
vt 0.020455 0.002094 0.000000
vt 0.040910 0.002094 0.000000
vt 0.061366 0.002094 0.000000
vt 0.061366 0.001047 0.000000
vt 0.081821 0.001047 0.000000
vt 0.000586 0.001571 0.000000
vt 0.020455 0.001047 0.000000
vt 0.040910 0.001047 0.000000
vt 0.001366 0.000934 0.000000
vt 0.000152 0.000785 0.000000
vt 0.001366 0.000622 0.000000
vt 0.000038 0.000393 0.000000
vt 0.001366 0.000311 0.000000
vt 0.000000 0.000000 0.000000
vt 0.001366 0.000000 0.000000
vt 0.122731 0.000000 0.000000
vt 0.121366 0.000000 0.000000
vt 0.122693 -0.000393 0.000000
vt 0.121327 -0.000393 0.000000
vt 0.122579 -0.000785 0.000000
vt 0.121213 -0.000785 0.000000
vt 0.122145 -0.001571 0.000000
vt 0.120780 -0.001571 0.000000
vt 0.121496 -0.002356 0.000000
vt 0.120131 -0.002356 0.000000
vt 0.120731 -0.003142 0.000000
vt 0.119366 -0.003142 0.000000
vt -0.002000 0.000000 0.000000
vt -0.036289 0.000000 0.000000
vt -0.019144 -0.001047 0.000000
vt -0.036250 -0.000393 0.000000
vt -0.036136 -0.000785 0.000000
vt -0.035703 -0.001571 0.000000
vt -0.019144 -0.002094 0.000000
vt -0.002000 -0.002094 0.000000
vt -0.002000 -0.003142 0.000000
vt -0.035054 -0.002356 0.000000
vt -0.034289 -0.003142 0.000000
vt -0.002000 -0.001047 0.000000
vt -0.131083 0.004189 0.000000
vt -0.150117 0.004189 0.000000
vt -0.131083 0.003142 0.000000
vt -0.169150 0.004189 0.000000
vt -0.188183 0.003142 0.000000
vt -0.188183 0.004189 0.000000
vt -0.188183 0.005236 0.000000
vt -0.169150 0.005236 0.000000
vt -0.188183 0.006283 0.000000
vt -0.150117 0.005236 0.000000
vt -0.131083 0.006283 0.000000
vt -0.131083 0.005236 0.000000
vt -0.120731 0.002094 0.000000
vt -0.100943 0.002094 0.000000
vt -0.120731 0.003142 0.000000
vt -0.081154 0.002094 0.000000
vt -0.061366 0.002094 0.000000
vt -0.061366 0.001047 0.000000
vt -0.041577 0.001047 0.000000
vt -0.002000 -0.000000 0.000000
vt -0.021789 0.001047 0.000000
vt -0.002000 0.001047 0.000000
vt -0.021789 0.002094 0.000000
vt -0.002000 0.002094 0.000000
vt -0.002000 0.003142 0.000000
vt -0.100943 0.001047 0.000000
vt -0.120731 0.001047 0.000000
vt -0.120731 0.000000 0.000000
vt -0.081154 0.001047 0.000000
vt -0.041577 0.002094 0.000000
vt 0.002000 0.000000 0.000000
vt 0.036289 -0.000000 0.000000
vt 0.019144 0.001047 0.000000
vt 0.036250 0.000393 0.000000
vt 0.036136 0.000785 0.000000
vt 0.035703 0.001571 0.000000
vt 0.019144 0.002094 0.000000
vt 0.002000 0.002094 0.000000
vt 0.002000 0.003142 0.000000
vt 0.035054 0.002356 0.000000
vt 0.034289 0.003142 0.000000
vt 0.002000 0.001047 0.000000
vt 0.002000 0.002094 0.000000
vt 0.019144 0.002094 0.000000
vt 0.002000 0.003142 0.000000
vt 0.035054 0.002356 0.000000
vt 0.034289 0.003142 0.000000
vt 0.019144 0.001047 0.000000
vt 0.002000 0.001047 0.000000
vt 0.002000 -0.000000 0.000000
vt 0.036289 -0.000000 0.000000
vt 0.036250 0.000393 0.000000
vt 0.036136 0.000785 0.000000
vt 0.035703 0.001571 0.000000
vt -0.033697 -0.002356 0.000000
vt -0.054951 -0.002094 0.000000
vt -0.032931 -0.003142 0.000000
vt -0.076971 -0.002094 0.000000
vt -0.098990 -0.002094 0.000000
vt -0.098990 -0.001047 0.000000
vt -0.121010 -0.001047 0.000000
vt -0.185069 0.000000 0.000000
vt -0.143029 -0.001047 0.000000
vt -0.165049 -0.001047 0.000000
vt -0.143029 -0.002094 0.000000
vt -0.165049 -0.002094 0.000000
vt -0.186303 -0.002356 0.000000
vt -0.185654 -0.001571 0.000000
vt -0.185221 -0.000785 0.000000
vt -0.185107 -0.000393 0.000000
vt -0.034346 -0.001571 0.000000
vt -0.054951 -0.001047 0.000000
vt -0.076971 -0.001047 0.000000
vt -0.034893 -0.000393 0.000000
vt -0.034779 -0.000785 0.000000
vt -0.034931 0.000000 0.000000
vt -0.187069 -0.003142 0.000000
vt -0.121010 -0.002094 0.000000
vt -0.003142 -0.001481 0.000000
vt -0.002094 -0.002221 0.000000
vt -0.002094 -0.001481 0.000000
vt -0.001047 -0.002221 0.000000
vt -0.001047 -0.001481 0.000000
vt -0.000000 -0.002221 0.000000
vt -0.000000 -0.001481 0.000000
vt -0.001047 -0.000740 0.000000
vt 0.000000 -0.000740 0.000000
vt -0.001047 0.000000 0.000000
vt 0.000000 -0.000000 0.000000
vt -0.002094 0.000000 0.000000
vt -0.002094 -0.000740 0.000000
vt -0.003142 0.000000 0.000000
vt -0.003142 -0.000740 0.000000
vt -0.001047 -0.004443 0.000000
vt 0.000000 -0.004443 0.000000
vt -0.001047 -0.003702 0.000000
vt 0.000000 -0.003702 0.000000
vt -0.001047 -0.002962 0.000000
vt -0.000000 -0.002962 0.000000
vt -0.001047 -0.002221 0.000000
vt -0.000000 -0.002221 0.000000
vt -0.002094 -0.002221 0.000000
vt -0.002094 -0.002962 0.000000
vt -0.002094 -0.003702 0.000000
vt -0.002094 -0.004443 0.000000
vt -0.003142 -0.003702 0.000000
vt -0.003142 -0.002221 0.000000
vt -0.003142 -0.002962 0.000000
vt -0.001095 0.000622 0.000000
vt -0.000152 0.000785 0.000000
vt -0.001095 0.000934 0.000000
vt -0.000586 0.001571 0.000000
vt -0.020455 0.001047 0.000000
vt -0.020455 0.002094 0.000000
vt -0.040910 0.002094 0.000000
vt -0.001235 0.002356 0.000000
vt -0.120731 0.003142 0.000000
vt -0.002000 0.003142 0.000000
vt -0.000038 0.000393 0.000000
vt -0.001095 0.000311 0.000000
vt 0.000000 -0.000000 0.000000
vt -0.001095 -0.000000 0.000000
vt -0.121496 0.002356 0.000000
vt -0.102276 0.002094 0.000000
vt -0.081821 0.002094 0.000000
vt -0.061366 0.002094 0.000000
vt -0.061366 0.001047 0.000000
vt -0.040910 0.001047 0.000000
vt -0.122145 0.001571 0.000000
vt -0.102276 0.001047 0.000000
vt -0.081821 0.001047 0.000000
vt -0.121095 0.000934 0.000000
vt -0.122579 0.000785 0.000000
vt -0.121095 0.000622 0.000000
vt -0.122693 0.000393 0.000000
vt -0.121095 0.000311 0.000000
vt -0.122731 0.000000 0.000000
vt -0.121095 0.000000 0.000000
vt 0.003142 -0.000740 0.000000
vt 0.002094 -0.000000 0.000000
vt 0.002094 -0.000740 0.000000
vt 0.001047 -0.000000 0.000000
vt 0.001047 -0.000740 0.000000
vt -0.000000 -0.000000 0.000000
vt -0.000000 -0.000740 0.000000
vt 0.001047 -0.001481 0.000000
vt -0.000000 -0.001481 0.000000
vt 0.001047 -0.002221 0.000000
vt -0.000000 -0.002221 0.000000
vt 0.002094 -0.002221 0.000000
vt 0.002094 -0.001481 0.000000
vt 0.003142 -0.002221 0.000000
vt 0.003142 -0.001481 0.000000
vt -0.119095 -0.003142 0.000000
vt -0.119860 -0.002356 0.000000
vt -0.120731 -0.003142 0.000000
vt -0.121496 -0.002356 0.000000
vt -0.120509 -0.001571 0.000000
vt -0.122145 -0.001571 0.000000
vt -0.120942 -0.000785 0.000000
vt -0.122579 -0.000785 0.000000
vt -0.121056 -0.000393 0.000000
vt -0.122693 -0.000393 0.000000
vt -0.121095 0.000000 0.000000
vt -0.122731 0.000000 0.000000
vt -0.120731 -0.001047 0.000000
vt -0.100943 -0.001047 0.000000
vt -0.120731 0.000000 0.000000
vt -0.081154 -0.001047 0.000000
vt -0.061366 -0.001047 0.000000
vt -0.061366 -0.002094 0.000000
vt -0.041577 -0.002094 0.000000
vt -0.002000 -0.003142 0.000000
vt -0.021789 -0.002094 0.000000
vt -0.002000 -0.002094 0.000000
vt -0.021789 -0.001047 0.000000
vt -0.002000 -0.001047 0.000000
vt -0.002000 -0.000000 0.000000
vt -0.100943 -0.002094 0.000000
vt -0.120731 -0.002094 0.000000
vt -0.120731 -0.003142 0.000000
vt -0.081154 -0.002094 0.000000
vt -0.041577 -0.001047 0.000000
vt -0.131083 0.001047 0.000000
vt -0.150117 0.001047 0.000000
vt -0.131083 -0.000000 0.000000
vt -0.169150 0.001047 0.000000
vt -0.188183 0.000000 0.000000
vt -0.188183 0.001047 0.000000
vt -0.188183 0.002094 0.000000
vt -0.169150 0.002094 0.000000
vt -0.188183 0.003142 0.000000
vt -0.150117 0.002094 0.000000
vt -0.131083 0.003142 0.000000
vt -0.131083 0.002094 0.000000
vt -0.002000 0.003142 0.000000
vt -0.034289 0.003142 0.000000
vt -0.019144 0.002094 0.000000
vt -0.035054 0.002356 0.000000
vt -0.035703 0.001571 0.000000
vt -0.019144 0.001047 0.000000
vt -0.036136 0.000785 0.000000
vt -0.036250 0.000393 0.000000
vt -0.036289 -0.000000 0.000000
vt -0.002000 -0.000000 0.000000
vt -0.002000 0.001047 0.000000
vt -0.002000 0.002094 0.000000
vt 0.120731 0.001047 0.000000
vt 0.100943 0.001047 0.000000
vt 0.120731 0.000000 0.000000
vt 0.081154 0.001047 0.000000
vt 0.061366 0.001047 0.000000
vt 0.061366 0.002094 0.000000
vt 0.041577 0.002094 0.000000
vt 0.002000 0.003142 0.000000
vt 0.021789 0.002094 0.000000
vt 0.002000 0.002094 0.000000
vt 0.021789 0.001047 0.000000
vt 0.002000 0.001047 0.000000
vt 0.002000 0.000000 0.000000
vt 0.100943 0.002094 0.000000
vt 0.120731 0.002094 0.000000
vt 0.120731 0.003142 0.000000
vt 0.081154 0.002094 0.000000
vt 0.041577 0.001047 0.000000
vt -0.131083 -0.005236 0.000000
vt -0.150117 -0.005236 0.000000
vt -0.131083 -0.006283 0.000000
vt -0.169150 -0.005236 0.000000
vt -0.188183 -0.006283 0.000000
vt -0.188183 -0.005236 0.000000
vt -0.188183 -0.004189 0.000000
vt -0.169150 -0.004189 0.000000
vt -0.188183 -0.003142 0.000000
vt -0.150117 -0.004189 0.000000
vt -0.131083 -0.003142 0.000000
vt -0.131083 -0.004189 0.000000
vt 0.002000 -0.003142 0.000000
vt 0.034289 -0.003142 0.000000
vt 0.019144 -0.002094 0.000000
vt 0.035054 -0.002356 0.000000
vt 0.035703 -0.001571 0.000000
vt 0.019144 -0.001047 0.000000
vt 0.036136 -0.000785 0.000000
vt 0.036250 -0.000393 0.000000
vt 0.036289 0.000000 0.000000
vt 0.002000 -0.000000 0.000000
vt 0.002000 -0.001047 0.000000
vt 0.002000 -0.002094 0.000000
vt 0.003142 -0.002962 0.000000
vt 0.002094 -0.002221 0.000000
vt 0.002094 -0.002962 0.000000
vt 0.001047 -0.002221 0.000000
vt 0.001047 -0.002962 0.000000
vt 0.000000 -0.002221 0.000000
vt 0.000000 -0.002962 0.000000
vt 0.001047 -0.003702 0.000000
vt 0.000000 -0.003702 0.000000
vt 0.001047 -0.004443 0.000000
vt -0.000000 -0.004443 0.000000
vt 0.002094 -0.004443 0.000000
vt 0.002094 -0.003702 0.000000
vt 0.003142 -0.004443 0.000000
vt 0.003142 -0.003702 0.000000
vt 0.003142 -0.002962 0.000000
vt 0.002094 -0.002221 0.000000
vt 0.002094 -0.002962 0.000000
vt 0.001047 -0.002221 0.000000
vt 0.001047 -0.002962 0.000000
vt -0.000000 -0.002221 0.000000
vt -0.000000 -0.002962 0.000000
vt 0.001047 -0.003702 0.000000
vt 0.000000 -0.003702 0.000000
vt 0.001047 -0.004443 0.000000
vt 0.000000 -0.004443 0.000000
vt 0.002094 -0.004443 0.000000
vt 0.002094 -0.003702 0.000000
vt 0.003142 -0.004443 0.000000
vt 0.003142 -0.003702 0.000000
vt 0.001047 0.000000 0.000000
vt 0.000000 -0.000000 0.000000
vt 0.001047 -0.000740 0.000000
vt 0.000000 -0.000740 0.000000
vt 0.001047 -0.001481 0.000000
vt -0.000000 -0.001481 0.000000
vt 0.001047 -0.002221 0.000000
vt -0.000000 -0.002221 0.000000
vt 0.002094 -0.002221 0.000000
vt 0.002094 -0.001481 0.000000
vt 0.002094 -0.000740 0.000000
vt 0.002094 -0.000000 0.000000
vt 0.003142 -0.000740 0.000000
vt 0.003142 -0.002221 0.000000
vt 0.003142 -0.001481 0.000000
vt 0.002000 -0.001047 0.000000
vt 0.019144 -0.001047 0.000000
vt 0.002000 0.000000 0.000000
vt 0.036250 -0.000393 0.000000
vt 0.036289 0.000000 0.000000
vt 0.019144 -0.002094 0.000000
vt 0.002000 -0.002094 0.000000
vt 0.002000 -0.003142 0.000000
vt 0.034289 -0.003142 0.000000
vt 0.035054 -0.002356 0.000000
vt 0.035703 -0.001571 0.000000
vt 0.036136 -0.000785 0.000000
vt -0.131083 -0.002094 0.000000
vt -0.150117 -0.002094 0.000000
vt -0.131083 -0.003142 0.000000
vt -0.169150 -0.002094 0.000000
vt -0.188183 -0.003142 0.000000
vt -0.188183 -0.002094 0.000000
vt -0.188183 -0.001047 0.000000
vt -0.169150 -0.001047 0.000000
vt -0.188183 0.000000 0.000000
vt -0.150117 -0.001047 0.000000
vt -0.131083 -0.000000 0.000000
vt -0.131083 -0.001047 0.000000
vt 0.120731 -0.002094 0.000000
vt 0.100943 -0.002094 0.000000
vt 0.120731 -0.003142 0.000000
vt 0.081154 -0.002094 0.000000
vt 0.061366 -0.002094 0.000000
vt 0.061366 -0.001047 0.000000
vt 0.041577 -0.001047 0.000000
vt 0.002000 0.000000 0.000000
vt 0.021789 -0.001047 0.000000
vt 0.002000 -0.001047 0.000000
vt 0.021789 -0.002094 0.000000
vt 0.002000 -0.002094 0.000000
vt 0.002000 -0.003142 0.000000
vt 0.100943 -0.001047 0.000000
vt 0.120731 -0.001047 0.000000
vt 0.120731 0.000000 0.000000
vt 0.081154 -0.001047 0.000000
vt 0.041577 -0.002094 0.000000
vt 0.000000 0.000000 0.000000
vt 0.000038 -0.000393 0.000000
vt 0.001366 0.000000 0.000000
vt 0.001404 -0.000393 0.000000
vt 0.000152 -0.000785 0.000000
vt 0.001518 -0.000785 0.000000
vt 0.000586 -0.001571 0.000000
vt 0.001951 -0.001571 0.000000
vt 0.001235 -0.002356 0.000000
vt 0.002600 -0.002356 0.000000
vt 0.002000 -0.003142 0.000000
vt 0.003366 -0.003142 0.000000
vt 0.001047 -0.000000 0.000000
vt 0.000000 0.000000 0.000000
vt 0.001047 -0.000740 0.000000
vt -0.000000 -0.000740 0.000000
vt 0.001047 -0.001481 0.000000
vt -0.000000 -0.001481 0.000000
vt 0.001047 -0.002221 0.000000
vt -0.000000 -0.002221 0.000000
vt 0.002094 -0.002221 0.000000
vt 0.002094 -0.001481 0.000000
vt 0.002094 -0.000740 0.000000
vt 0.002094 -0.000000 0.000000
vt 0.003142 -0.000740 0.000000
vt 0.003142 -0.002221 0.000000
vt 0.003142 -0.001481 0.000000
vt 0.034893 -0.000393 0.000000
vt 0.054951 -0.001047 0.000000
vt 0.034931 0.000000 0.000000
vt 0.076971 -0.001047 0.000000
vt 0.098990 -0.001047 0.000000
vt 0.098990 -0.002094 0.000000
vt 0.121010 -0.002094 0.000000
vt 0.187069 -0.003142 0.000000
vt 0.143029 -0.002094 0.000000
vt 0.165049 -0.002094 0.000000
vt 0.143029 -0.001047 0.000000
vt 0.165049 -0.001047 0.000000
vt 0.185107 -0.000393 0.000000
vt 0.185221 -0.000785 0.000000
vt 0.185654 -0.001571 0.000000
vt 0.186303 -0.002356 0.000000
vt 0.034779 -0.000785 0.000000
vt 0.034346 -0.001571 0.000000
vt 0.054951 -0.002094 0.000000
vt 0.033697 -0.002356 0.000000
vt 0.076971 -0.002094 0.000000
vt 0.032931 -0.003142 0.000000
vt 0.185069 0.000000 0.000000
vt 0.121010 -0.001047 0.000000
vt -0.002000 -0.002094 0.000000
vt -0.019144 -0.002094 0.000000
vt -0.002000 -0.003142 0.000000
vt -0.035054 -0.002356 0.000000
vt -0.034289 -0.003142 0.000000
vt -0.019144 -0.001047 0.000000
vt -0.002000 -0.001047 0.000000
vt -0.002000 -0.000000 0.000000
vt -0.036289 0.000000 0.000000
vt -0.036250 -0.000393 0.000000
vt -0.036136 -0.000785 0.000000
vt -0.035703 -0.001571 0.000000
vt 0.000000 -0.000000 0.000000
vt -0.001095 -0.000000 0.000000
vt -0.000038 -0.000393 0.000000
vt -0.001133 -0.000393 0.000000
vt -0.000152 -0.000785 0.000000
vt -0.001247 -0.000785 0.000000
vt -0.000586 -0.001571 0.000000
vt -0.001680 -0.001571 0.000000
vt -0.001235 -0.002356 0.000000
vt -0.002329 -0.002356 0.000000
vt -0.002000 -0.003142 0.000000
vt -0.003095 -0.003142 0.000000
vn 0.000000 -0.258819 0.965926
vn 0.000000 -0.258819 0.965926
vn 0.000000 -0.258819 0.965926
vn 0.000000 -0.258819 0.965926
vn -0.000000 0.258819 -0.965926
vn -0.000000 0.258819 -0.965926
vn -0.000000 0.258819 -0.965926
vn -0.000000 0.258819 -0.965926
vn 0.000000 0.965926 0.258819
vn 0.000000 0.965926 0.258819
vn 0.000000 0.965926 0.258819
vn 0.000000 0.965926 0.258819
vn 0.000000 0.965926 0.258819
vn 0.000000 0.965926 0.258819
vn 0.000000 0.965926 0.258819
vn 0.000000 0.965926 0.258819
vn 0.000000 0.965926 0.258819
vn 0.000000 0.965926 0.258819
vn -0.000000 -0.965926 -0.258819
vn -0.000000 -0.965926 -0.258819
vn -0.000000 -0.965926 -0.258819
vn -0.000000 -0.965926 -0.258819
vn -0.000000 -0.965926 -0.258819
vn -0.000000 -0.965926 -0.258819
vn -0.000000 -0.965926 -0.258819
vn -0.000000 -0.965926 -0.258819
vn -0.000000 -0.965926 -0.258819
vn -0.000000 -0.965926 -0.258819
vn -1.000000 -0.000000 0.000000
vn -1.000000 -0.000000 0.000000
vn -1.000000 -0.000000 0.000000
vn -1.000000 -0.000000 0.000000
vn 1.000000 0.000000 -0.000000
vn 1.000000 0.000000 -0.000000
vn 1.000000 0.000000 -0.000000
vn 1.000000 0.000000 -0.000000
vn 1.000000 0.000000 -0.000000
vn 1.000000 0.000000 -0.000000
vn 1.000000 0.000000 -0.000000
vn 1.000000 0.000000 -0.000000
vn 1.000000 0.000000 -0.000000
vn 1.000000 0.000000 -0.000000
vn 1.000000 0.000000 -0.000000
vn 1.000000 0.000000 -0.000000
vn -0.000000 0.258819 -0.965926
vn -0.000000 0.258819 -0.965926
vn -0.000000 0.258819 -0.965926
vn -0.000000 0.258819 -0.965926
vn -0.000000 -0.965926 -0.258819
vn -0.000000 -0.965926 -0.258819
vn -0.000000 -0.965926 -0.258819
vn -0.000000 -0.965926 -0.258819
vn 0.000000 0.965926 0.258819
vn 0.000000 0.965926 0.258819
vn 0.000000 0.965926 0.258819
vn 0.000000 0.965926 0.258819
vn 0.000000 -0.258819 0.965926
vn 0.000000 -0.258819 0.965926
vn 0.000000 -0.258819 0.965926
vn 0.000000 -0.258819 0.965926
vn -1.000000 -0.000000 0.000000
vn -1.000000 -0.000000 0.000000
vn -1.000000 -0.000000 0.000000
vn -1.000000 -0.000000 0.000000
vn 0.000000 -0.258819 0.965926
vn 0.000000 -0.258819 0.965926
vn 0.000000 -0.258819 0.965926
vn 0.000000 -0.258819 0.965926
vn 0.000000 0.965926 0.258819
vn 0.000000 0.965926 0.258819
vn 0.000000 0.965926 0.258819
vn 0.000000 0.965926 0.258819
vn -0.000000 -0.965926 -0.258819
vn -0.000000 -0.965926 -0.258819
vn -0.000000 -0.965926 -0.258819
vn -0.000000 -0.965926 -0.258819
vn -0.000000 0.258819 -0.965926
vn -0.000000 0.258819 -0.965926
vn -0.000000 0.258819 -0.965926
vn -0.000000 0.258819 -0.965926
vn -1.000000 -0.000000 0.000000
vn -1.000000 -0.000000 0.000000
vn -1.000000 -0.000000 0.000000
vn -1.000000 -0.000000 0.000000
vn -0.500000 0.836516 0.224144
vn -0.500000 0.836516 0.224144
vn -0.195090 0.947366 0.253846
vn 0.000000 0.965926 0.258819
vn -0.866025 0.482963 0.129410
vn -0.866025 0.482963 0.129410
vn -0.923880 0.369644 0.099046
vn -0.707107 0.683013 0.183013
vn -0.382683 0.892399 0.239118
vn -0.500000 0.224144 -0.836516
vn 0.000000 0.707107 -0.707107
vn -0.500000 0.612372 -0.612372
vn 0.000000 0.965926 -0.258819
vn -0.500000 0.836516 -0.224144
vn 0.000000 0.965926 0.258819
vn -0.866025 0.482963 -0.129410
vn -0.866025 0.482963 0.129410
vn -0.866025 0.129410 -0.482963
vn -0.866025 0.353553 -0.353553
vn -0.000000 -0.258819 0.965926
vn -0.000000 -0.258819 0.965926
vn -0.154961 -0.255693 0.954258
vn -0.195090 -0.253846 0.947366
vn -0.306179 -0.246389 0.919536
vn -0.382683 -0.239118 0.892399
vn -0.450000 -0.231133 0.862599
vn -0.707107 -0.183013 0.683013
vn -0.500000 -0.224144 0.836516
vn -0.866025 -0.129410 0.482963
vn -0.866025 -0.129410 0.482963
vn -0.923880 -0.099046 0.369644
vn -0.923880 -0.099046 0.369644
vn -0.866025 -0.129410 0.482963
vn -0.866025 -0.129410 0.482963
vn -0.866025 -0.129410 0.482963
vn -0.500000 -0.224144 0.836516
vn -0.500000 -0.224144 0.836516
vn -0.707107 -0.183013 0.683013
vn -0.500000 -0.224144 0.836516
vn -0.500000 -0.224144 0.836516
vn -0.450000 -0.231133 0.862599
vn -0.382683 -0.239118 0.892399
vn -0.306179 -0.246389 0.919536
vn -0.195090 -0.253846 0.947366
vn -0.154961 -0.255693 0.954258
vn -0.000000 -0.258819 0.965926
vn -0.000000 -0.258819 0.965926
vn 0.195090 -0.253846 0.947366
vn 0.195090 -0.253846 0.947366
vn 0.382683 -0.239118 0.892399
vn 0.382683 -0.239118 0.892399
vn 0.707107 -0.183013 0.683013
vn 0.707107 -0.183013 0.683013
vn 0.923880 -0.099046 0.369644
vn 0.923880 -0.099046 0.369644
vn 1.000000 -0.000000 0.000000
vn -0.000000 0.965926 0.258819
vn 0.500000 0.836516 0.224144
vn 0.195090 0.947366 0.253846
vn 0.382683 0.892399 0.239118
vn 0.707107 0.683013 0.183013
vn 0.866025 0.482963 0.129410
vn 0.866025 0.482963 0.129410
vn 0.923880 0.369644 0.099046
vn 1.000000 -0.000000 -0.000000
vn 0.500000 0.836516 0.224144
vn -0.000000 0.707107 -0.707107
vn -0.000000 0.707107 -0.707107
vn -0.000000 0.707107 -0.707107
vn -0.000000 0.965926 -0.258819
vn -0.000000 0.965926 -0.258819
vn -0.000000 0.965926 -0.258819
vn -0.000000 0.965926 -0.258819
vn -0.866025 0.129410 -0.482963
vn -0.866025 0.129410 -0.482963
vn -0.866025 0.129410 -0.482963
vn -0.500000 0.224144 -0.836516
vn -0.500000 0.224144 -0.836516
vn -0.500000 0.224144 -0.836516
vn -0.500000 0.224144 -0.836516
vn -0.866025 0.129410 -0.482963
vn -0.866025 0.129410 -0.482963
vn -0.500000 0.224144 -0.836516
vn -0.500000 0.224144 -0.836516
vn -0.866025 0.129410 -0.482963
vn 0.000000 -0.965926 -0.258819
vn -0.500000 -0.836516 -0.224144
vn -0.195090 -0.947366 -0.253846
vn -0.382683 -0.892399 -0.239118
vn -0.707107 -0.683013 -0.183013
vn -0.866025 -0.482963 -0.129410
vn -0.866025 -0.482963 -0.129410
vn -0.923880 -0.369644 -0.099046
vn -1.000000 -0.000000 0.000000
vn -0.500000 -0.836516 -0.224144
vn -0.866025 0.482963 0.129410
vn -0.866025 0.482963 0.129410
vn -0.923880 0.369644 0.099046
vn -1.000000 -0.000000 0.000000
vn -0.500000 0.836516 0.224144
vn -0.500000 0.836516 0.224144
vn 0.000000 0.965926 0.258819
vn -0.195090 0.947366 0.253846
vn -0.382683 0.892399 0.239118
vn -0.707107 0.683013 0.183013
vn 0.923880 0.369644 0.099046
vn 0.866025 0.482963 0.129410
vn 0.866025 0.482963 0.129410
vn 0.866025 0.482963 0.129410
vn 0.500000 0.836516 0.224144
vn 0.500000 0.836516 0.224144
vn -0.000000 0.965926 0.258819
vn 0.500000 0.836516 0.224144
vn 0.500000 0.836516 0.224144
vn 0.866025 0.482963 0.129410
vn 0.866025 0.482963 0.129410
vn 0.923880 0.369644 0.099046
vn 0.707107 0.683013 0.183013
vn 0.382683 0.892399 0.239118
vn 0.195090 0.947366 0.253846
vn 0.707107 0.683013 0.183013
vn 0.500000 0.836516 0.224144
vn 0.500000 0.836516 0.224144
vn 0.195090 0.947366 0.253846
vn 0.382683 0.892399 0.239118
vn -0.000000 0.965926 0.258819
vn 1.000000 0.000000 -0.000000
vn 0.866025 0.482963 0.129410
vn 0.250000 0.642402 -0.724444
vn 0.433013 0.853854 -0.288849
vn 0.500000 0.836516 0.224144
vn 0.750000 0.547668 -0.370891
vn 0.866025 0.129410 -0.482963
vn 0.500000 0.224144 -0.836516
vn 0.433013 0.465625 -0.771812
vn 0.000000 -0.707107 -0.707107
vn -0.433013 -0.595035 -0.677077
vn -0.750000 -0.288849 -0.595035
vn -0.866025 0.129410 -0.482963
vn -0.433013 -0.017338 -0.901221
vn -0.250000 -0.194114 -0.948588
vn 0.000000 -0.258819 -0.965926
vn -0.306179 0.246389 -0.919536
vn -0.382683 0.239118 -0.892399
vn -0.450000 0.231133 -0.862599
vn -0.707107 0.183013 -0.683013
vn -0.500000 0.224144 -0.836516
vn -0.866025 0.129410 -0.482963
vn -0.866025 0.129410 -0.482963
vn -0.923880 0.099046 -0.369644
vn -0.195090 0.253846 -0.947366
vn -0.154961 0.255693 -0.954258
vn -0.923880 0.099046 -0.369644
vn -0.866025 0.129410 -0.482963
vn -0.866025 0.129410 -0.482963
vn -0.866025 0.129410 -0.482963
vn -0.500000 0.224144 -0.836516
vn -0.500000 0.224144 -0.836516
vn -0.707107 0.183013 -0.683013
vn -0.500000 0.224144 -0.836516
vn -0.500000 0.224144 -0.836516
vn -0.450000 0.231133 -0.862599
vn -0.382683 0.239118 -0.892399
vn -0.306179 0.246389 -0.919536
vn -0.195090 0.253846 -0.947366
vn -0.154961 0.255693 -0.954258
vn 0.000000 0.258819 0.965926
vn -0.250000 0.194114 0.948588
vn 0.000000 0.707107 0.707107
vn -0.433013 0.595035 0.677077
vn -0.500000 0.836516 0.224144
vn -0.750000 0.288849 0.595035
vn -0.866025 -0.129410 0.482963
vn -0.500000 -0.224144 0.836516
vn -0.433013 0.017338 0.901221
vn 0.923880 0.099046 -0.369644
vn 0.923880 0.099046 -0.369644
vn 0.707107 0.183013 -0.683013
vn 0.707107 0.183013 -0.683013
vn 0.382683 0.239118 -0.892399
vn 0.382683 0.239118 -0.892399
vn 0.195090 0.253846 -0.947366
vn 0.195090 0.253846 -0.947366
vn 0.500000 0.224144 -0.836516
vn 0.500000 0.224144 -0.836516
vn 0.500000 0.224144 -0.836516
vn 0.500000 0.224144 -0.836516
vn 0.866025 0.129410 -0.482963
vn 0.866025 0.129410 -0.482963
vn 0.866025 0.129410 -0.482963
vn 0.866025 0.129410 -0.482963
vn 0.500000 0.224144 -0.836516
vn 0.500000 0.224144 -0.836516
vn 0.866025 0.129410 -0.482963
vn 0.866025 0.129410 -0.482963
vn 0.500000 0.224144 -0.836516
vn -0.000000 -0.707107 -0.707107
vn -0.000000 -0.707107 -0.707107
vn -0.000000 -0.965926 -0.258819
vn -0.000000 -0.707107 -0.707107
vn -0.000000 -0.258819 -0.965926
vn -0.000000 -0.258819 -0.965926
vn -0.000000 -0.258819 -0.965926
vn -0.000000 -0.258819 -0.965926
vn -1.000000 -0.000000 0.000000
vn -0.866025 -0.482963 -0.129410
vn -0.923880 -0.369644 -0.099046
vn -0.707107 -0.683013 -0.183013
vn -0.500000 -0.836516 -0.224144
vn -0.382683 -0.892399 -0.239118
vn -0.195090 -0.947366 -0.253846
vn 0.000000 -0.965926 -0.258819
vn -0.500000 -0.836516 -0.224144
vn -0.866025 -0.482963 -0.129410
vn -0.500000 -0.224144 0.836516
vn -0.000000 -0.258819 0.965926
vn -0.500000 -0.224144 0.836516
vn -0.500000 -0.224144 0.836516
vn -0.866025 -0.129410 0.482963
vn -0.866025 -0.129410 0.482963
vn -0.866025 -0.129410 0.482963
vn -0.866025 -0.129410 0.482963
vn -0.500000 -0.224144 0.836516
vn -0.500000 -0.224144 0.836516
vn -0.866025 -0.129410 0.482963
vn -0.866025 -0.129410 0.482963
vn -0.500000 -0.224144 0.836516
vn 0.000000 0.707107 0.707107
vn 0.000000 0.707107 0.707107
vn 0.000000 0.707107 0.707107
vn 0.000000 0.258819 0.965926
vn 0.000000 0.258819 0.965926
vn 0.000000 -0.258819 0.965926
vn 0.000000 0.258819 0.965926
vn 0.000000 -0.258819 0.965926
vn 0.000000 0.258819 0.965926
vn 1.000000 -0.000000 -0.000000
vn 0.866025 0.482963 0.129410
vn 0.923880 0.369644 0.099046
vn 0.707107 0.683013 0.183013
vn 0.500000 0.836516 0.224144
vn 0.382683 0.892399 0.239118
vn 0.195090 0.947366 0.253846
vn -0.000000 0.965926 0.258819
vn 0.500000 0.836516 0.224144
vn 0.866025 0.482963 0.129410
vn 0.000000 -0.707107 -0.707107
vn 0.250000 -0.724444 -0.642402
vn 0.000000 -0.258819 -0.965926
vn 0.433013 -0.288849 -0.853854
vn 0.500000 0.224144 -0.836516
vn 0.750000 -0.370891 -0.547668
vn 0.866025 -0.482963 -0.129410
vn 0.500000 -0.836516 -0.224144
vn 0.433013 -0.771812 -0.465625
vn -0.433013 -0.465625 0.771812
vn -0.750000 -0.547668 0.370891
vn -0.866025 -0.482963 -0.129410
vn -0.433013 -0.853854 0.288849
vn -0.500000 -0.836516 -0.224144
vn 0.000000 -0.965926 0.258819
vn 0.000000 -0.707107 0.707107
vn -0.250000 -0.642402 0.724444
vn 0.866025 -0.129410 0.482963
vn 0.750000 0.288849 0.595035
vn 0.433013 0.595035 0.677077
vn 0.000000 0.707107 0.707107
vn 0.000000 0.258819 0.965926
vn 0.250000 0.194114 0.948588
vn 0.433013 0.017338 0.901221
vn 0.500000 -0.224144 0.836516
vn 0.500000 -0.836516 -0.224144
vn 0.500000 -0.836516 -0.224144
vn 0.195090 -0.947366 -0.253846
vn -0.000000 -0.965926 -0.258819
vn 0.866025 -0.482963 -0.129410
vn 0.923880 -0.369644 -0.099046
vn 0.707107 -0.683013 -0.183013
vn 0.382683 -0.892399 -0.239118
vn 0.000000 -0.707107 0.707107
vn 0.000000 -0.258819 0.965926
vn 0.000000 -0.707107 0.707107
vn 0.000000 -0.258819 0.965926
vn 0.000000 -0.707107 0.707107
vn 0.000000 -0.965926 0.258819
vn 0.000000 -0.965926 0.258819
vn -0.000000 -0.965926 -0.258819
vn 0.000000 -0.965926 0.258819
vn 0.866025 -0.129410 0.482963
vn 0.866025 -0.129410 0.482963
vn 0.866025 -0.129410 0.482963
vn 0.500000 -0.224144 0.836516
vn 0.500000 -0.224144 0.836516
vn 0.500000 -0.224144 0.836516
vn 0.500000 -0.224144 0.836516
vn 0.866025 -0.129410 0.482963
vn 0.866025 -0.129410 0.482963
vn 0.500000 -0.224144 0.836516
vn 0.500000 -0.224144 0.836516
vn -0.000000 -0.258819 0.965926
vn 0.500000 -0.224144 0.836516
vn 0.866025 -0.129410 0.482963
vn 0.195090 -0.253846 0.947366
vn 0.195090 -0.253846 0.947366
vn 0.382683 -0.239118 0.892399
vn 0.382683 -0.239118 0.892399
vn 0.707107 -0.183013 0.683013
vn 0.707107 -0.183013 0.683013
vn 0.923880 -0.099046 0.369644
vn 0.923880 -0.099046 0.369644
vn 1.000000 -0.000000 0.000000
vn 0.866025 -0.482963 -0.129410
vn 1.000000 0.000000 -0.000000
vn 0.750000 -0.595035 0.288849
vn 0.866025 -0.129410 0.482963
vn 0.433013 -0.677077 0.595035
vn 0.500000 -0.224144 0.836516
vn 0.000000 -0.707107 0.707107
vn 0.000000 -0.965926 0.258819
vn 0.250000 -0.948588 0.194114
vn 0.433013 -0.901221 0.017338
vn 0.500000 -0.836516 -0.224144
vn 0.195090 -0.947366 -0.253846
vn 0.500000 -0.836516 -0.224144
vn -0.000000 -0.965926 -0.258819
vn 0.500000 -0.836516 -0.224144
vn 0.500000 -0.836516 -0.224144
vn 0.866025 -0.482963 -0.129410
vn 0.866025 -0.482963 -0.129410
vn 0.866025 -0.482963 -0.129410
vn 0.866025 -0.482963 -0.129410
vn 0.500000 -0.836516 -0.224144
vn 0.500000 -0.836516 -0.224144
vn 0.195090 -0.947366 -0.253846
vn 0.382683 -0.892399 -0.239118
vn 0.707107 -0.683013 -0.183013
vn 0.923880 -0.369644 -0.099046
vn 0.382683 -0.892399 -0.239118
vn 0.707107 -0.683013 -0.183013
vn 0.866025 -0.482963 -0.129410
vn 0.923880 -0.369644 -0.099046
vn 0.866025 -0.482963 -0.129410
vn -0.000000 -0.965926 -0.258819
vn 0.500000 -0.836516 -0.224144
vn 0.866025 -0.482963 -0.129410
vn 0.866025 -0.482963 -0.129410
vn 0.923880 -0.369644 -0.099046
vn 1.000000 -0.000000 -0.000000
vn 0.500000 -0.836516 -0.224144
vn -0.000000 -0.965926 -0.258819
vn 0.195090 -0.947366 -0.253846
vn 0.382683 -0.892399 -0.239118
vn 0.707107 -0.683013 -0.183013
vn 0.195090 0.253846 -0.947366
vn 0.195090 0.253846 -0.947366
vn 0.382683 0.239118 -0.892399
vn 0.382683 0.239118 -0.892399
vn 0.707107 0.183013 -0.683013
vn 0.707107 0.183013 -0.683013
vn 0.923880 0.099046 -0.369644
vn 0.923880 0.099046 -0.369644
usemtl Opaque(202,209,238)
f 2/1/1 3/2/2 1/3/3
f 1/3/3 3/2/2 4/4/4
f 6/5/5 7/6/6 5/7/7
f 5/7/7 7/6/6 8/8/8
f 10/9/9 2/10/10 9/11/11
f 9/11/11 2/10/10 1/12/12
f 9/11/11 1/12/12 16/13/13
f 16/13/13 1/12/12 11/14/14
f 16/13/13 11/14/14 15/15/15
f 15/15/15 11/14/14 12/16/16
f 15/15/15 12/16/16 14/17/17
f 14/17/17 12/16/16 13/18/18
f 18/19/19 6/20/20 17/21/21
f 17/21/21 6/20/20 5/22/22
f 17/21/21 5/22/22 24/23/23
f 24/23/23 5/22/22 19/24/24
f 24/23/23 19/24/24 23/25/25
f 23/25/25 19/24/24 20/26/26
f 23/25/25 20/26/26 22/27/27
f 22/27/27 20/26/26 21/28/28
f 13/29/29 22/30/30 14/31/31
f 14/31/31 22/30/30 21/32/32
f 25/33/33 26/34/34 36/35/35
f 36/35/35 26/34/34 33/36/36
f 36/35/35 33/36/36 35/37/37
f 35/37/37 33/36/36 34/38/38
f 33/36/36 26/34/34 32/39/39
f 32/39/39 26/34/34 27/40/40
f 32/39/39 27/40/40 30/41/41
f 30/41/41 27/40/40 29/42/42
f 29/42/42 27/40/40 28/43/43
f 30/41/41 31/44/44 32/39/39
f 38/45/45 10/46/46 37/47/47
f 37/47/47 10/46/46 9/48/48
f 7/49/49 39/50/50 8/51/51
f 8/51/51 39/50/50 40/52/52
f 42/53/53 38/54/54 41/55/55
f 41/55/55 38/54/54 37/56/56
f 44/57/57 45/58/58 43/59/59
f 43/59/59 45/58/58 46/60/60
f 48/61/61 49/62/62 47/63/63
f 47/63/63 49/62/62 50/64/64
f 52/65/65 18/66/66 51/67/67
f 51/67/67 18/66/66 17/68/68
f 3/69/69 53/70/70 4/71/71
f 4/71/71 53/70/70 54/72/72
f 56/73/73 52/74/74 55/75/75
f 55/75/75 52/74/74 51/76/76
f 58/77/77 59/78/78 57/79/79
f 57/79/79 59/78/78 60/80/80
f 61/81/81 62/82/82 64/83/83
f 64/83/83 62/82/82 63/84/84
f 65/85/85 71/86/86 54/87/72
f 54/87/72 71/86/86 70/88/87
f 54/87/72 70/88/87 4/89/88
f 71/86/86 65/85/85 72/90/89
f 72/90/89 65/85/85 66/91/90
f 72/90/89 66/91/90 63/92/84
f 63/92/84 62/93/82 72/90/89
f 72/90/89 62/93/82 67/94/91
f 72/90/89 67/94/91 68/95/92
f 72/90/89 68/95/92 71/86/86
f 71/86/86 68/95/92 69/96/93
f 71/86/86 69/96/93 70/88/87
f 57/97/79 73/98/94 76/99/95
f 76/99/95 73/98/94 78/100/96
f 76/99/95 78/100/96 75/101/97
f 75/101/97 78/100/96 79/102/98
f 75/101/97 79/102/98 54/103/99
f 54/103/99 79/102/98 65/104/85
f 65/104/85 79/102/98 80/105/100
f 65/104/85 80/105/100 66/106/101
f 66/106/101 80/105/100 63/107/84
f 73/98/94 74/108/102 78/100/96
f 78/100/96 74/108/102 77/109/103
f 78/100/96 77/109/103 79/102/98
f 79/102/98 77/109/103 80/105/100
f 74/108/102 63/110/84 77/109/103
f 77/109/103 63/111/84 80/105/100
f 1/112/104 4/113/105 11/114/106
f 11/114/106 4/113/105 70/115/107
f 11/114/106 70/115/107 12/116/108
f 12/116/108 70/115/107 69/117/109
f 12/116/108 69/117/109 13/118/110
f 13/118/110 69/117/109 68/119/111
f 13/118/110 68/119/111 85/120/112
f 85/120/112 68/119/111 90/121/113
f 85/120/112 90/121/113 91/122/114
f 91/122/114 90/121/113 67/123/115
f 91/122/114 67/123/115 61/124/81
f 61/124/81 67/123/115 62/125/82
f 68/119/111 67/123/115 90/121/113
f 81/126/116 94/127/117 61/124/81
f 61/124/81 94/127/117 93/128/118
f 61/124/81 93/128/118 92/129/119
f 92/129/119 93/128/118 87/130/120
f 92/129/119 87/130/120 86/131/121
f 86/131/121 87/130/120 13/118/110
f 86/131/121 13/118/110 85/120/112
f 81/126/116 82/132/122 94/127/117
f 94/127/117 82/132/122 89/133/123
f 94/127/117 89/133/123 88/134/124
f 88/134/124 89/133/123 22/135/125
f 88/134/124 22/135/125 87/130/120
f 87/130/120 22/135/125 13/118/110
f 89/133/123 82/132/122 22/135/125
f 22/135/125 82/132/122 83/136/126
f 22/135/125 83/136/126 23/137/127
f 23/137/127 83/136/126 84/138/128
f 23/137/127 84/138/128 24/139/129
f 24/139/129 84/138/128 51/140/67
f 24/139/129 51/140/67 17/141/68
f 92/129/119 86/131/121 91/122/114
f 91/122/114 86/131/121 85/120/112
f 94/127/117 88/134/124 93/128/118
f 93/128/118 88/134/124 87/130/120
f 61/124/81 92/129/119 91/122/114
f 3/142/130 2/143/131 102/144/132
f 102/144/132 2/143/131 95/145/133
f 102/144/132 95/145/133 101/146/134
f 101/146/134 95/145/133 96/147/135
f 101/146/134 96/147/135 100/148/136
f 100/148/136 96/147/135 97/149/137
f 100/148/136 97/149/137 99/150/138
f 99/150/138 97/149/137 98/151/139
f 99/150/138 98/151/139 31/152/44
f 31/152/44 98/151/139 32/153/140
f 53/154/70 3/155/141 105/156/142
f 105/156/142 3/155/141 102/157/143
f 105/156/142 102/157/143 101/158/144
f 101/158/144 100/159/145 105/156/142
f 105/156/142 100/159/145 106/160/146
f 105/156/142 106/160/146 103/161/147
f 103/161/147 106/160/146 30/162/41
f 30/162/41 106/160/146 99/163/148
f 30/162/41 99/163/148 31/164/149
f 100/159/145 99/163/148 106/160/146
f 103/161/147 104/165/150 105/156/142
f 105/156/142 104/165/150 53/154/70
f 76/166/95 109/167/151 57/168/79
f 57/168/79 109/167/151 110/169/152
f 57/168/79 110/169/152 58/170/77
f 58/170/77 110/169/152 108/171/153
f 108/171/153 110/169/152 107/172/154
f 107/172/154 110/169/152 112/173/155
f 107/172/154 112/173/155 53/174/70
f 53/174/70 112/173/155 111/175/156
f 53/174/70 111/175/156 54/176/72
f 54/176/72 111/175/156 75/177/157
f 75/177/157 111/175/156 76/166/95
f 76/166/95 111/175/156 109/167/151
f 112/173/155 110/169/152 109/167/151
f 112/173/155 109/167/151 111/175/156
f 74/178/102 115/179/158 63/180/84
f 63/180/84 115/179/158 116/181/159
f 63/180/84 116/181/159 117/182/160
f 117/182/160 116/181/159 122/183/161
f 117/182/160 122/183/161 123/184/162
f 123/184/162 122/183/161 60/185/80
f 123/184/162 60/185/80 124/186/163
f 124/186/163 60/185/80 113/187/164
f 124/186/163 113/187/164 119/188/165
f 119/188/165 113/187/164 114/189/166
f 119/188/165 114/189/166 64/190/83
f 115/179/158 74/178/102 120/191/167
f 120/191/167 74/178/102 73/192/94
f 120/191/167 73/192/94 57/193/79
f 60/185/80 122/183/161 57/193/79
f 57/193/79 122/183/161 121/194/168
f 57/193/79 121/194/168 120/191/167
f 120/191/167 121/194/168 115/179/158
f 63/180/84 117/182/160 64/190/83
f 64/190/83 117/182/160 118/195/169
f 64/190/83 118/195/169 119/188/165
f 119/188/165 118/195/169 124/186/163
f 122/183/161 116/181/159 121/194/168
f 121/194/168 116/181/159 115/179/158
f 124/186/163 118/195/169 123/184/162
f 123/184/162 118/195/169 117/182/160
f 55/196/75 51/197/170 127/198/171
f 127/198/171 51/197/170 84/199/172
f 127/198/171 84/199/172 83/200/173
f 83/200/173 82/201/174 127/198/171
f 127/198/171 82/201/174 128/202/175
f 127/198/171 128/202/175 125/203/176
f 125/203/176 128/202/175 64/204/83
f 64/204/83 128/202/175 81/205/177
f 64/204/83 81/205/177 61/206/178
f 82/201/174 81/205/177 128/202/175
f 125/203/176 126/207/179 127/198/171
f 127/198/171 126/207/179 55/196/75
f 129/208/180 135/209/181 49/210/62
f 49/210/62 135/209/181 134/211/182
f 49/210/62 134/211/182 50/212/183
f 135/209/181 129/208/180 136/213/184
f 136/213/184 129/208/180 130/214/185
f 136/213/184 130/214/185 41/215/55
f 41/215/55 37/216/186 136/213/184
f 136/213/184 37/216/186 131/217/187
f 136/213/184 131/217/187 132/218/188
f 132/218/188 133/219/189 136/213/184
f 136/213/184 133/219/189 135/209/181
f 133/219/189 134/211/182 135/209/181
f 98/220/190 141/221/191 32/222/39
f 32/222/39 141/221/191 142/223/192
f 32/222/39 142/223/192 143/224/193
f 143/224/193 142/223/192 149/225/194
f 143/224/193 149/225/194 150/226/195
f 150/226/195 149/225/194 10/227/196
f 150/226/195 10/227/196 151/228/197
f 151/228/197 10/227/196 152/229/198
f 151/228/197 152/229/198 145/230/199
f 145/230/199 152/229/198 146/231/200
f 145/230/199 146/231/200 140/232/201
f 140/232/201 146/231/200 139/233/202
f 139/233/202 146/231/200 152/229/198
f 139/233/202 152/229/198 138/234/203
f 138/234/203 152/229/198 137/235/204
f 137/235/204 152/229/198 10/227/196
f 98/220/190 97/236/205 141/221/191
f 141/221/191 97/236/205 147/237/206
f 141/221/191 147/237/206 148/238/207
f 148/238/207 147/237/206 95/239/208
f 148/238/207 95/239/208 149/225/194
f 149/225/194 95/239/208 10/227/196
f 97/236/205 96/240/209 147/237/206
f 147/237/206 96/240/209 95/239/208
f 95/239/208 2/241/210 10/227/196
f 33/242/211 32/222/39 140/232/201
f 140/232/201 32/222/39 145/230/199
f 149/225/194 142/223/192 148/238/207
f 148/238/207 142/223/192 141/221/191
f 145/230/199 32/222/39 144/243/212
f 144/243/212 32/222/39 143/224/193
f 144/243/212 143/224/193 150/226/195
f 151/228/197 145/230/199 144/243/212
f 151/228/197 144/243/212 150/226/195
f 58/244/77 108/245/153 156/246/213
f 156/246/213 108/245/153 107/247/154
f 156/246/213 107/247/154 155/248/214
f 155/248/214 107/247/154 53/249/70
f 155/248/214 53/249/70 104/250/215
f 155/248/214 104/250/215 157/251/216
f 157/251/216 104/250/215 103/252/147
f 157/251/216 103/252/147 153/253/217
f 153/253/217 103/252/147 30/254/41
f 153/253/217 154/255/218 157/251/216
f 157/251/216 154/255/218 158/256/219
f 157/251/216 158/256/219 155/248/214
f 155/248/214 158/256/219 156/246/213
f 154/255/218 58/257/77 158/256/219
f 158/256/219 58/258/77 156/246/213
f 160/259/220 55/260/75 161/261/221
f 161/261/221 55/260/75 126/262/179
f 161/261/221 126/262/179 163/263/222
f 163/263/222 126/262/179 125/264/176
f 163/263/222 125/264/176 114/265/223
f 114/265/223 125/264/176 64/266/83
f 114/265/223 113/267/164 163/263/222
f 163/263/222 113/267/164 164/268/224
f 163/263/222 164/268/224 161/261/221
f 161/261/221 164/268/224 162/269/225
f 161/261/221 162/269/225 160/259/220
f 160/259/220 162/269/225 159/270/226
f 159/270/226 162/269/225 60/271/80
f 113/267/164 60/272/80 164/268/224
f 164/268/224 60/273/80 162/269/225
f 20/274/227 166/275/228 21/276/229
f 21/276/229 166/275/228 167/277/230
f 21/276/229 167/277/230 169/278/231
f 169/278/231 167/277/230 174/279/232
f 169/278/231 174/279/232 175/280/233
f 175/280/233 174/279/232 168/281/234
f 175/280/233 168/281/234 50/282/64
f 50/282/64 168/281/234 47/283/63
f 166/275/228 20/274/227 165/284/235
f 165/284/235 20/274/227 19/285/236
f 165/284/235 19/285/236 8/286/8
f 8/286/8 19/285/236 5/287/7
f 167/277/230 168/281/234 174/279/232
f 134/288/237 178/289/238 50/282/64
f 50/282/64 178/289/238 177/290/239
f 50/282/64 177/290/239 176/291/240
f 176/291/240 177/290/239 171/292/241
f 176/291/240 171/292/241 170/293/242
f 170/293/242 171/292/241 21/276/229
f 170/293/242 21/276/229 169/278/231
f 134/288/237 133/294/243 178/289/238
f 178/289/238 133/294/243 173/295/244
f 178/289/238 173/295/244 172/296/245
f 172/296/245 173/295/244 14/297/246
f 172/296/245 14/297/246 171/292/241
f 171/292/241 14/297/246 21/276/229
f 173/295/244 133/294/243 14/297/246
f 14/297/246 133/294/243 132/298/247
f 14/297/246 132/298/247 15/299/248
f 15/299/248 132/298/247 131/300/249
f 15/299/248 131/300/249 16/301/250
f 16/301/250 131/300/249 37/302/47
f 16/301/250 37/302/47 9/303/48
f 176/291/240 170/293/242 175/280/233
f 175/280/233 170/293/242 169/278/231
f 178/289/238 172/296/245 177/290/239
f 177/290/239 172/296/245 171/292/241
f 50/282/64 176/291/240 175/280/233
f 46/304/60 179/305/251 184/306/252
f 184/306/252 179/305/251 180/307/253
f 184/306/252 180/307/253 183/308/254
f 183/308/254 180/307/253 41/309/55
f 183/308/254 41/309/55 130/310/255
f 183/308/254 130/310/255 185/311/256
f 185/311/256 130/310/255 129/312/180
f 185/311/256 129/312/180 181/313/257
f 181/313/257 129/312/180 49/314/62
f 181/313/257 182/315/258 185/311/256
f 185/311/256 182/315/258 186/316/259
f 185/311/256 186/316/259 183/308/254
f 183/308/254 186/316/259 184/306/252
f 182/315/258 46/317/60 186/316/259
f 186/316/259 46/318/60 184/306/252
f 33/319/36 140/320/260 34/321/38
f 34/321/38 140/320/260 190/322/261
f 190/322/261 140/320/260 139/323/262
f 190/322/261 139/323/262 189/324/263
f 189/324/263 139/323/262 138/325/264
f 189/324/263 138/325/264 188/326/265
f 188/326/265 138/325/264 137/327/266
f 188/326/265 137/327/266 187/328/267
f 187/328/267 137/327/266 10/329/46
f 187/328/267 10/329/46 38/330/45
f 154/331/268 193/332/269 58/333/77
f 58/333/77 193/332/269 194/334/270
f 58/333/77 194/334/270 195/335/271
f 195/335/271 194/334/270 200/336/272
f 195/335/271 200/336/272 201/337/273
f 201/337/273 200/336/272 29/338/42
f 201/337/273 29/338/42 202/339/274
f 202/339/274 29/338/42 191/340/275
f 202/339/274 191/340/275 197/341/276
f 197/341/276 191/340/275 192/342/277
f 197/341/276 192/342/277 59/343/78
f 193/332/269 154/331/268 198/344/278
f 198/344/278 154/331/268 153/345/217
f 198/344/278 153/345/217 30/346/41
f 29/338/42 200/336/272 30/346/41
f 30/346/41 200/336/272 199/347/279
f 30/346/41 199/347/279 198/344/278
f 198/344/278 199/347/279 193/332/269
f 58/333/77 195/335/271 59/343/78
f 59/343/78 195/335/271 196/348/280
f 59/343/78 196/348/280 197/341/276
f 197/341/276 196/348/280 202/339/274
f 200/336/272 194/334/270 199/347/279
f 199/347/279 194/334/270 193/332/269
f 202/339/274 196/348/280 201/337/273
f 201/337/273 196/348/280 195/335/271
f 160/349/220 205/350/281 55/351/75
f 55/351/75 205/350/281 206/352/282
f 55/351/75 206/352/282 56/353/283
f 56/353/283 206/352/282 204/354/284
f 204/354/284 206/352/282 203/355/285
f 203/355/285 206/352/282 208/356/286
f 203/355/285 208/356/286 59/357/78
f 59/357/78 208/356/286 207/358/287
f 59/357/78 207/358/287 60/359/80
f 60/359/80 207/358/287 159/360/288
f 159/360/288 207/358/287 160/349/220
f 160/349/220 207/358/287 205/350/281
f 208/356/286 206/352/282 205/350/281
f 208/356/286 205/350/281 207/358/287
f 48/361/61 47/362/289 211/363/290
f 211/363/290 47/362/289 168/364/291
f 211/363/290 168/364/291 167/365/292
f 211/363/290 167/365/292 212/366/293
f 212/366/293 167/365/292 166/367/294
f 212/366/293 166/367/294 165/368/295
f 8/369/296 40/370/52 165/368/295
f 165/368/295 40/370/52 212/366/293
f 40/370/52 209/371/297 212/366/293
f 212/366/293 209/371/297 211/363/290
f 209/371/297 210/372/298 211/363/290
f 211/363/290 210/372/298 48/361/61
f 182/373/258 215/374/299 46/375/300
f 46/375/300 215/374/299 216/376/301
f 46/375/300 216/376/301 217/377/302
f 217/377/302 216/376/301 222/378/303
f 217/377/302 222/378/303 223/379/304
f 223/379/304 222/378/303 48/380/61
f 223/379/304 48/380/61 224/381/305
f 224/381/305 48/380/61 213/382/306
f 224/381/305 213/382/306 219/383/307
f 219/383/307 213/382/306 214/384/308
f 219/383/307 214/384/308 43/385/59
f 215/374/299 182/373/258 220/386/309
f 220/386/309 182/373/258 181/387/257
f 220/386/309 181/387/257 49/388/62
f 48/380/61 222/378/303 49/388/62
f 49/388/62 222/378/303 221/389/310
f 49/388/62 221/389/310 220/386/309
f 220/386/309 221/389/310 215/374/299
f 46/375/300 217/377/302 43/385/59
f 43/385/59 217/377/302 218/390/311
f 43/385/59 218/390/311 219/383/307
f 219/383/307 218/390/311 224/381/305
f 222/378/303 216/376/301 221/389/310
f 221/389/310 216/376/301 215/374/299
f 224/381/305 218/390/311 223/379/304
f 223/379/304 218/390/311 217/377/302
f 180/391/253 227/392/312 41/393/55
f 41/393/55 227/392/312 228/394/313
f 41/393/55 228/394/313 42/395/53
f 42/395/53 228/394/313 226/396/314
f 226/396/314 228/394/313 225/397/315
f 225/397/315 228/394/313 230/398/316
f 225/397/315 230/398/316 45/399/317
f 45/399/317 230/398/316 229/400/318
f 45/399/317 229/400/318 46/401/319
f 46/401/319 229/400/318 179/402/320
f 179/402/320 229/400/318 180/391/253
f 180/391/253 229/400/318 227/392/312
f 230/398/316 228/394/313 227/392/312
f 230/398/316 227/392/312 229/400/318
f 35/403/37 34/404/321 233/405/322
f 233/405/322 34/404/321 190/406/323
f 233/405/322 190/406/323 189/407/324
f 233/405/322 189/407/324 234/408/325
f 234/408/325 189/407/324 188/409/326
f 234/408/325 188/409/326 187/410/327
f 38/411/328 42/412/53 187/410/327
f 187/410/327 42/412/53 234/408/325
f 42/412/53 231/413/329 234/408/325
f 234/408/325 231/413/329 233/405/322
f 231/413/329 232/414/330 233/405/322
f 233/405/322 232/414/330 35/403/37
f 56/415/73 204/416/331 238/417/332
f 238/417/332 204/416/331 203/418/333
f 238/417/332 203/418/333 237/419/334
f 237/419/334 203/418/333 59/420/78
f 237/419/334 59/420/78 192/421/335
f 237/419/334 192/421/335 239/422/336
f 239/422/336 192/421/335 191/423/275
f 239/422/336 191/423/275 235/424/337
f 235/424/337 191/423/275 29/425/42
f 235/424/337 236/426/338 239/422/336
f 239/422/336 236/426/338 240/427/339
f 239/422/336 240/427/339 237/419/334
f 237/419/334 240/427/339 238/417/332
f 236/426/338 56/428/73 240/427/339
f 240/427/339 56/429/73 238/417/332
f 43/430/59 214/431/308 244/432/340
f 244/432/340 214/431/308 213/433/306
f 244/432/340 213/433/306 243/434/341
f 243/434/341 213/433/306 48/435/61
f 243/434/341 48/435/61 210/436/342
f 243/434/341 210/436/342 245/437/343
f 245/437/343 210/436/342 209/438/344
f 245/437/343 209/438/344 241/439/345
f 241/439/345 209/438/344 40/440/52
f 241/439/345 242/441/346 245/437/343
f 245/437/343 242/441/346 246/442/347
f 245/437/343 246/442/347 243/434/341
f 243/434/341 246/442/347 244/432/340
f 242/441/346 43/443/59 246/442/347
f 246/442/347 43/444/59 244/432/340
f 248/445/348 35/446/37 249/447/349
f 249/447/349 35/446/37 232/448/330
f 249/447/349 232/448/330 251/449/350
f 251/449/350 232/448/330 231/450/329
f 251/449/350 231/450/329 226/451/351
f 226/451/351 231/450/329 42/452/53
f 226/451/351 225/453/352 251/449/350
f 251/449/350 225/453/352 252/454/353
f 251/449/350 252/454/353 249/447/349
f 249/447/349 252/454/353 250/455/354
f 249/447/349 250/455/354 248/445/348
f 248/445/348 250/455/354 247/456/355
f 247/456/355 250/455/354 45/457/58
f 225/453/352 45/458/58 252/454/353
f 252/454/353 45/459/58 250/455/354
f 236/460/356 257/461/357 56/462/73
f 56/462/73 257/461/357 256/463/358
f 56/462/73 256/463/358 52/464/359
f 257/461/357 236/460/356 258/465/360
f 258/465/360 236/460/356 235/466/337
f 258/465/360 235/466/337 29/467/42
f 29/467/42 28/468/43 258/465/360
f 258/465/360 28/468/43 253/469/361
f 258/465/360 253/469/361 254/470/362
f 258/465/360 254/470/362 257/461/357
f 257/461/357 254/470/362 255/471/363
f 257/461/357 255/471/363 256/463/358
f 242/472/346 261/473/364 43/474/365
f 43/474/365 261/473/364 262/475/366
f 43/474/365 262/475/366 44/476/367
f 44/476/367 262/475/366 260/477/368
f 260/477/368 262/475/366 259/478/369
f 259/478/369 262/475/366 264/479/370
f 259/478/369 264/479/370 39/480/371
f 39/480/371 264/479/370 263/481/372
f 39/480/371 263/481/372 40/482/52
f 40/482/52 263/481/372 241/483/345
f 241/483/345 263/481/372 242/472/346
f 242/472/346 263/481/372 261/473/364
f 264/479/370 262/475/366 261/473/364
f 264/479/370 261/473/364 263/481/372
f 248/484/348 267/485/373 35/486/37
f 35/486/37 267/485/373 268/487/374
f 35/486/37 268/487/374 269/488/375
f 269/488/375 268/487/374 274/489/376
f 269/488/375 274/489/376 275/490/377
f 275/490/377 274/489/376 44/491/57
f 275/490/377 44/491/57 276/492/378
f 276/492/378 44/491/57 265/493/379
f 276/492/378 265/493/379 271/494/380
f 271/494/380 265/493/379 266/495/381
f 271/494/380 266/495/381 36/496/35
f 267/485/373 248/484/348 272/497/382
f 272/497/382 248/484/348 247/498/383
f 272/497/382 247/498/383 45/499/384
f 44/491/57 274/489/376 45/499/384
f 45/499/384 274/489/376 273/500/385
f 45/499/384 273/500/385 272/497/382
f 272/497/382 273/500/385 267/485/373
f 35/486/37 269/488/375 36/496/35
f 36/496/35 269/488/375 270/501/386
f 36/496/35 270/501/386 271/494/380
f 271/494/380 270/501/386 276/492/378
f 274/489/376 268/487/374 273/500/385
f 273/500/385 268/487/374 267/485/373
f 276/492/378 270/501/386 275/490/377
f 275/490/377 270/501/386 269/488/375
f 52/502/65 256/503/387 18/504/66
f 18/504/66 256/503/387 280/505/388
f 280/505/388 256/503/387 255/506/389
f 280/505/388 255/506/389 279/507/390
f 279/507/390 255/506/389 254/508/391
f 279/507/390 254/508/391 278/509/392
f 278/509/392 254/508/391 253/510/393
f 278/509/392 253/510/393 277/511/394
f 277/511/394 253/510/393 28/512/43
f 277/511/394 28/512/43 27/513/395
f 282/514/396 36/515/397 283/516/398
f 283/516/398 36/515/397 266/517/399
f 283/516/398 266/517/399 285/518/400
f 285/518/400 266/517/399 265/519/401
f 285/518/400 265/519/401 260/520/402
f 260/520/402 265/519/401 44/521/57
f 260/520/402 259/522/403 285/518/400
f 285/518/400 259/522/403 286/523/404
f 285/518/400 286/523/404 283/516/398
f 283/516/398 286/523/404 284/524/405
f 283/516/398 284/524/405 282/514/396
f 282/514/396 284/524/405 281/525/406
f 281/525/406 284/524/405 39/526/50
f 259/522/403 39/527/50 286/523/404
f 286/523/404 39/528/50 284/524/405
f 280/529/407 291/530/408 18/531/409
f 18/531/409 291/530/408 292/532/410
f 18/531/409 292/532/410 293/533/411
f 293/533/411 292/532/410 299/534/412
f 293/533/411 299/534/412 300/535/413
f 300/535/413 299/534/412 26/536/34
f 300/535/413 26/536/34 301/537/414
f 301/537/414 26/536/34 302/538/415
f 301/537/414 302/538/415 295/539/416
f 295/539/416 302/538/415 296/540/417
f 295/539/416 296/540/417 290/541/418
f 290/541/418 296/540/417 289/542/419
f 289/542/419 296/540/417 288/543/420
f 288/543/420 296/540/417 302/538/415
f 288/543/420 302/538/415 287/544/421
f 287/544/421 302/538/415 26/536/34
f 280/529/407 279/545/422 291/530/408
f 291/530/408 279/545/422 278/546/423
f 291/530/408 278/546/423 297/547/424
f 297/547/424 278/546/423 277/548/425
f 297/547/424 277/548/425 298/549/426
f 298/549/426 277/548/425 26/536/34
f 298/549/426 26/536/34 299/534/412
f 277/548/425 27/550/40 26/536/34
f 6/551/427 18/531/409 290/541/418
f 290/541/418 18/531/409 294/552/428
f 290/541/418 294/552/428 295/539/416
f 295/539/416 294/552/428 301/537/414
f 294/552/428 18/531/409 293/533/411
f 297/547/424 298/549/426 291/530/408
f 291/530/408 298/549/426 292/532/410
f 298/549/426 299/534/412 292/532/410
f 301/537/414 294/552/428 300/535/413
f 300/535/413 294/552/428 293/533/411
f 282/553/429 307/554/430 36/555/35
f 36/555/35 307/554/430 306/556/431
f 36/555/35 306/556/431 25/557/432
f 307/554/430 282/553/429 308/558/433
f 308/558/433 282/553/429 281/559/406
f 308/558/433 281/559/406 39/560/50
f 39/560/50 7/561/434 308/558/433
f 308/558/433 7/561/434 303/562/435
f 308/558/433 303/562/435 304/563/436
f 304/563/436 305/564/437 308/558/433
f 308/558/433 305/564/437 307/554/430
f 305/564/437 306/556/431 307/554/430
f 7/565/6 6/566/5 303/567/438
f 303/567/438 6/566/5 290/568/439
f 303/567/438 290/568/439 304/569/440
f 304/569/440 290/568/439 289/570/441
f 304/569/440 289/570/441 305/571/442
f 305/571/442 289/570/441 288/572/443
f 305/571/442 288/572/443 306/573/444
f 306/573/444 288/572/443 287/574/445
f 306/573/444 287/574/445 25/575/33
f 25/575/33 287/574/445 26/576/34
# 308 vertices
# 576 texture params
# 445 normals
# 612 facets

# 1 groups
