# WaveFront *.obj file (generated by Autodesk ATF)

mtllib body91_visual.mtl

g Body91

v -27.297463 2.429219 -1.552264
v -27.240363 2.429219 -1.552264
v -27.240363 2.428866 -1.550945
v -27.297463 2.428866 -1.550945
v -27.297463 2.315256 -1.707034
v -27.240363 2.315256 -1.707034
v -27.240363 2.315539 -1.708091
v -27.297463 2.315539 -1.708091
v -27.297463 2.284198 -1.591123
v -27.240363 2.284198 -1.591123
v -27.297773 2.429242 -1.552258
v -27.298076 2.429312 -1.552239
v -27.298363 2.429426 -1.552209
v -27.298363 2.283991 -1.591178
v -27.298076 2.284105 -1.591147
v -27.297773 2.284174 -1.591129
v -27.297463 2.460277 -1.668175
v -27.240363 2.460277 -1.668175
v -27.297773 2.315233 -1.707040
v -27.298076 2.315163 -1.707059
v -27.298363 2.315049 -1.707089
v -27.298363 2.460484 -1.668120
v -27.298076 2.460370 -1.668151
v -27.297773 2.460301 -1.668169
v -27.238363 2.313090 -1.706677
v -27.238363 2.312807 -1.705619
v -27.238363 2.461691 -1.665726
v -27.238363 2.462045 -1.667045
v -27.238363 2.493233 -1.658688
v -27.238363 2.462503 -1.544003
v -27.238363 2.431315 -1.552359
v -27.238363 2.431668 -1.553678
v -27.238363 2.282784 -1.593572
v -27.238363 2.282360 -1.591991
v -27.238363 2.251172 -1.600348
v -27.238363 2.281902 -1.715034
v -27.297463 2.283774 -1.589542
v -27.240363 2.283774 -1.589542
v -27.240363 2.282419 -1.716966
v -27.297463 2.282419 -1.716966
v -27.297463 2.250654 -1.598417
v -27.240363 2.250654 -1.598417
v -27.297463 2.279970 -1.715551
v -27.240363 2.279970 -1.715551
v -27.240363 2.249240 -1.600866
v -27.297463 2.249240 -1.600866
v -27.299463 2.313090 -1.706677
v -27.299463 2.281902 -1.715034
v -27.299463 2.251172 -1.600348
v -27.299463 2.282360 -1.591991
v -27.297463 2.460631 -1.669494
v -27.240363 2.460631 -1.669494
v -27.240363 2.461986 -1.542071
v -27.297463 2.461986 -1.542071
v -27.297463 2.493751 -1.660620
v -27.240363 2.493751 -1.660620
v -27.297463 2.464435 -1.543485
v -27.240363 2.464435 -1.543485
v -27.240363 2.495165 -1.658170
v -27.297463 2.495165 -1.658170
v -27.299463 2.462045 -1.667045
v -27.299463 2.431315 -1.552359
v -27.299463 2.462503 -1.544003
v -27.299463 2.493233 -1.658688
v -27.298463 2.462055 -1.542330
v -27.299195 2.462245 -1.543037
v -27.299311 2.430378 -1.551818
v -27.298877 2.429583 -1.551359
v -27.298229 2.429052 -1.551053
v -27.297853 2.428913 -1.550972
v -27.298463 2.445495 -1.546767
v -27.299195 2.445684 -1.547474
v -27.298463 2.464176 -1.543554
v -27.299195 2.463469 -1.543744
v -27.297463 2.463021 -1.542071
v -27.297463 2.463918 -1.542588
v -27.299195 2.463210 -1.543295
v -27.298463 2.463728 -1.542778
v -27.298463 2.462952 -1.542330
v -27.299195 2.462762 -1.543037
v -27.299311 2.461504 -1.667982
v -27.298877 2.461045 -1.668777
v -27.298229 2.460738 -1.669308
v -27.297853 2.460658 -1.669447
v -27.298463 2.434419 -1.570634
v -27.298463 2.439713 -1.590392
v -27.298463 2.445007 -1.610150
v -27.298463 2.450301 -1.629909
v -27.298463 2.455595 -1.649667
v -27.299195 2.435126 -1.570445
v -27.299195 2.440420 -1.590203
v -27.299195 2.445714 -1.609961
v -27.299195 2.451008 -1.629719
v -27.299195 2.456302 -1.649477
v -27.239973 2.429266 -1.552291
v -27.239598 2.429405 -1.552372
v -27.238949 2.429936 -1.552678
v -27.238515 2.430731 -1.553137
v -27.238515 2.430378 -1.551818
v -27.238949 2.429583 -1.551359
v -27.239598 2.429052 -1.551053
v -27.239973 2.428913 -1.550972
v -27.238631 2.462245 -1.543037
v -27.239363 2.462055 -1.542330
v -27.239363 2.445495 -1.546767
v -27.238631 2.445684 -1.547474
v -27.240363 2.463021 -1.542071
v -27.240363 2.463918 -1.542588
v -27.278430 2.463918 -1.542588
v -27.259397 2.463918 -1.542588
v -27.278430 2.463021 -1.542071
v -27.259397 2.463021 -1.542071
v -27.298463 2.494906 -1.658240
v -27.299195 2.494199 -1.658429
v -27.299195 2.468591 -1.562858
v -27.299195 2.473713 -1.581972
v -27.299195 2.478834 -1.601086
v -27.299195 2.483956 -1.620201
v -27.299195 2.489077 -1.639315
v -27.298463 2.469298 -1.562669
v -27.298463 2.474420 -1.581783
v -27.298463 2.479541 -1.600897
v -27.298463 2.484663 -1.620011
v -27.298463 2.489785 -1.639125
v -27.299195 2.493492 -1.659654
v -27.298463 2.493681 -1.660361
v -27.298463 2.477121 -1.664798
v -27.299195 2.476932 -1.664091
v -27.299195 2.250913 -1.599382
v -27.298463 2.250723 -1.598675
v -27.297853 2.283747 -1.589589
v -27.298229 2.283667 -1.589728
v -27.298877 2.283360 -1.590259
v -27.299311 2.282901 -1.591054
v -27.299195 2.267473 -1.594945
v -27.298463 2.267283 -1.594238
v -27.239973 2.284171 -1.591170
v -27.239598 2.284090 -1.591309
v -27.238949 2.283784 -1.591840
v -27.238515 2.283325 -1.592635
v -27.238631 2.410140 -1.558412
v -27.238631 2.388871 -1.564111
v -27.238631 2.367602 -1.569810
v -27.238631 2.346333 -1.575509
v -27.238631 2.325063 -1.581208
v -27.238631 2.303794 -1.586907
v -27.239363 2.409951 -1.557705
v -27.239363 2.388682 -1.563404
v -27.239363 2.367412 -1.569103
v -27.239363 2.346143 -1.574802
v -27.239363 2.324874 -1.580501
v -27.239363 2.303604 -1.586200
v -27.238631 2.463469 -1.543744
v -27.239363 2.464176 -1.543554
v -27.239497 2.463081 -1.542295
v -27.239863 2.463952 -1.542718
v -27.238863 2.463245 -1.542907
v -27.239497 2.464047 -1.543071
v -27.297463 2.495165 -1.659206
v -27.297463 2.494647 -1.660102
v -27.298329 2.494587 -1.659878
v -27.297963 2.495130 -1.659076
v -27.298963 2.494423 -1.659266
v -27.298329 2.495036 -1.658723
v -27.297853 2.315492 -1.708064
v -27.298229 2.315353 -1.707983
v -27.298877 2.314822 -1.707677
v -27.299311 2.314027 -1.707218
v -27.298463 2.309986 -1.688402
v -27.298463 2.304692 -1.668644
v -27.298463 2.299398 -1.648886
v -27.298463 2.294104 -1.629128
v -27.298463 2.288810 -1.609370
v -27.299195 2.309279 -1.688592
v -27.299195 2.303985 -1.668834
v -27.299195 2.298691 -1.649075
v -27.299195 2.293397 -1.629317
v -27.299195 2.288102 -1.609559
v -27.297463 2.249240 -1.599831
v -27.297463 2.249757 -1.598934
v -27.299195 2.250206 -1.600607
v -27.298463 2.249499 -1.600797
v -27.298329 2.249818 -1.599158
v -27.297963 2.249274 -1.599960
v -27.298963 2.249982 -1.599771
v -27.298329 2.249369 -1.600314
v -27.239973 2.283747 -1.589589
v -27.239598 2.283667 -1.589728
v -27.238949 2.283360 -1.590259
v -27.238515 2.282901 -1.591054
v -27.238631 2.494199 -1.658429
v -27.239363 2.494906 -1.658240
v -27.239363 2.469298 -1.562669
v -27.239363 2.474420 -1.581783
v -27.239363 2.479541 -1.600897
v -27.239363 2.484663 -1.620011
v -27.239363 2.489785 -1.639125
v -27.238631 2.468591 -1.562858
v -27.238631 2.473713 -1.581972
v -27.238631 2.478834 -1.601086
v -27.238631 2.483956 -1.620201
v -27.238631 2.489077 -1.639315
v -27.240363 2.495165 -1.659206
v -27.240363 2.494647 -1.660102
v -27.278430 2.494647 -1.660102
v -27.259397 2.494647 -1.660102
v -27.278430 2.495165 -1.659206
v -27.259397 2.495165 -1.659206
v -27.298463 2.282350 -1.716707
v -27.299195 2.282160 -1.716000
v -27.299195 2.298720 -1.711562
v -27.298463 2.298910 -1.712270
v -27.299195 2.280936 -1.715293
v -27.298463 2.280228 -1.715482
v -27.298463 2.254620 -1.619911
v -27.298463 2.259742 -1.639025
v -27.298463 2.264864 -1.658139
v -27.298463 2.269985 -1.677254
v -27.298463 2.275107 -1.696368
v -27.299195 2.255327 -1.619721
v -27.299195 2.260449 -1.638836
v -27.299195 2.265571 -1.657950
v -27.299195 2.270692 -1.677064
v -27.299195 2.275814 -1.696178
v -27.240363 2.249240 -1.599831
v -27.240363 2.249757 -1.598934
v -27.278430 2.249757 -1.598934
v -27.259397 2.249757 -1.598934
v -27.278430 2.249240 -1.599831
v -27.259397 2.249240 -1.599831
v -27.239363 2.250723 -1.598675
v -27.238631 2.250913 -1.599382
v -27.238631 2.267473 -1.594945
v -27.239363 2.267283 -1.594238
v -27.238631 2.493492 -1.659654
v -27.239363 2.493681 -1.660361
v -27.239497 2.494941 -1.659266
v -27.239863 2.494518 -1.660137
v -27.238863 2.494329 -1.659430
v -27.239497 2.494164 -1.660232
v -27.297463 2.281384 -1.716966
v -27.297463 2.280487 -1.716448
v -27.298963 2.281160 -1.716129
v -27.298329 2.280358 -1.715965
v -27.298329 2.281324 -1.716741
v -27.297963 2.280453 -1.716319
v -27.239363 2.249499 -1.600797
v -27.238631 2.250206 -1.600607
v -27.238863 2.249982 -1.599771
v -27.239497 2.249369 -1.600314
v -27.239497 2.249818 -1.599158
v -27.239863 2.249274 -1.599960
v -27.238515 2.461504 -1.667982
v -27.238949 2.461045 -1.668777
v -27.239598 2.460738 -1.669308
v -27.239973 2.460658 -1.669447
v -27.239363 2.477121 -1.664798
v -27.238631 2.476932 -1.664091
v -27.240363 2.281384 -1.716966
v -27.240363 2.280487 -1.716448
v -27.278430 2.280487 -1.716448
v -27.259397 2.280487 -1.716448
v -27.278430 2.281384 -1.716966
v -27.259397 2.281384 -1.716966
v -27.239363 2.280228 -1.715482
v -27.238631 2.280936 -1.715293
v -27.238631 2.255327 -1.619721
v -27.238631 2.260449 -1.638836
v -27.238631 2.265571 -1.657950
v -27.238631 2.270692 -1.677064
v -27.238631 2.275814 -1.696178
v -27.239363 2.254620 -1.619911
v -27.239363 2.259742 -1.639025
v -27.239363 2.264864 -1.658139
v -27.239363 2.269985 -1.677254
v -27.239363 2.275107 -1.696368
v -27.238515 2.461150 -1.666663
v -27.238949 2.460691 -1.667458
v -27.239598 2.460385 -1.667989
v -27.239973 2.460304 -1.668128
v -27.239363 2.282350 -1.716707
v -27.238631 2.282160 -1.716000
v -27.238863 2.281324 -1.716224
v -27.239497 2.281867 -1.716836
v -27.239497 2.280711 -1.716388
v -27.239863 2.281513 -1.716931
v -27.238515 2.313744 -1.706161
v -27.238949 2.314539 -1.706619
v -27.239598 2.315070 -1.706926
v -27.239973 2.315209 -1.707007
v -27.239363 2.440870 -1.673098
v -27.239363 2.419601 -1.678797
v -27.239363 2.398332 -1.684496
v -27.239363 2.377063 -1.690195
v -27.239363 2.355793 -1.695894
v -27.239363 2.334524 -1.701593
v -27.238631 2.440681 -1.672391
v -27.238631 2.419412 -1.678090
v -27.238631 2.398142 -1.683789
v -27.238631 2.376873 -1.689488
v -27.238631 2.355604 -1.695187
v -27.238631 2.334335 -1.700886
v -27.239973 2.315492 -1.708064
v -27.239598 2.315353 -1.707983
v -27.238949 2.314822 -1.707677
v -27.238515 2.314027 -1.707218
v -27.238631 2.298720 -1.711562
v -27.239363 2.298910 -1.712270
vt 0.121366 -0.188183 0.000000
vt 0.122731 -0.188183 0.000000
vt 0.121366 -0.131083 0.000000
vt 0.122731 -0.131083 0.000000
vt -0.001095 -0.188183 0.000000
vt 0.000000 -0.188183 0.000000
vt -0.001095 -0.131083 0.000000
vt -0.000000 -0.131083 0.000000
vt -0.185069 -0.058000 0.000000
vt -0.034931 -0.058000 0.000000
vt -0.185069 -0.000900 0.000000
vt -0.034931 -0.000900 0.000000
vt -0.185093 -0.000590 0.000000
vt -0.034907 -0.000590 0.000000
vt -0.185165 -0.000288 0.000000
vt -0.034835 -0.000288 0.000000
vt -0.185282 -0.000000 0.000000
vt -0.034718 -0.000000 0.000000
vt 0.034931 -0.058000 0.000000
vt 0.185069 -0.058000 0.000000
vt 0.034931 -0.000900 0.000000
vt 0.185069 -0.000900 0.000000
vt 0.034907 -0.000590 0.000000
vt 0.185093 -0.000590 0.000000
vt 0.034835 -0.000288 0.000000
vt 0.185165 -0.000288 0.000000
vt 0.034718 -0.000000 0.000000
vt 0.185282 0.000000 0.000000
vt 0.060000 0.075282 0.000000
vt -0.060000 0.075282 0.000000
vt 0.060000 -0.075282 0.000000
vt -0.060000 -0.075282 0.000000
vt 0.059095 -0.077069 0.000000
vt 0.058000 -0.077069 0.000000
vt 0.059095 -0.109357 0.000000
vt -0.058000 -0.077069 0.000000
vt -0.059636 -0.109357 0.000000
vt -0.059636 -0.077069 0.000000
vt -0.058000 0.077069 0.000000
vt 0.058000 0.077069 0.000000
vt -0.059366 0.109357 0.000000
vt 0.059366 0.109357 0.000000
vt 0.059366 0.077069 0.000000
vt -0.059366 0.077069 0.000000
vt -0.122731 -0.188183 0.000000
vt -0.121095 -0.188183 0.000000
vt -0.122731 -0.131083 0.000000
vt -0.121095 -0.131083 0.000000
vt -0.036289 -0.188183 0.000000
vt -0.002000 -0.188183 0.000000
vt -0.036289 -0.131083 0.000000
vt -0.002000 -0.131083 0.000000
vt 0.002000 -0.188183 0.000000
vt 0.036289 -0.188183 0.000000
vt 0.002000 -0.131083 0.000000
vt 0.036289 -0.131083 0.000000
vt 0.002000 -0.188183 0.000000
vt 0.120731 -0.188183 0.000000
vt 0.002000 -0.131083 0.000000
vt 0.120731 -0.131083 0.000000
vt -0.059095 -0.109357 0.000000
vt 0.059636 -0.109357 0.000000
vt -0.059095 -0.077069 0.000000
vt 0.059636 -0.077069 0.000000
vt -0.000000 -0.188183 0.000000
vt 0.001366 -0.188183 0.000000
vt 0.000000 -0.131083 0.000000
vt 0.001366 -0.131083 0.000000
vt -0.036289 -0.188183 0.000000
vt -0.002000 -0.188183 0.000000
vt -0.036289 -0.131083 0.000000
vt -0.002000 -0.131083 0.000000
vt 0.002000 -0.188183 0.000000
vt 0.036289 -0.188183 0.000000
vt 0.002000 -0.131083 0.000000
vt 0.036289 -0.131083 0.000000
vt -0.120731 -0.188183 0.000000
vt -0.002000 -0.188183 0.000000
vt -0.120731 -0.131083 0.000000
vt -0.002000 -0.131083 0.000000
vt -0.059366 0.077069 0.000000
vt 0.059366 0.077069 0.000000
vt -0.059366 0.109357 0.000000
vt 0.059366 0.109357 0.000000
vt -0.002000 0.001047 0.000000
vt -0.019144 0.001047 0.000000
vt -0.002000 0.000000 0.000000
vt -0.036250 0.000393 0.000000
vt -0.036289 0.000000 0.000000
vt -0.019144 0.002094 0.000000
vt -0.002000 0.002094 0.000000
vt -0.002000 0.003142 0.000000
vt -0.034289 0.003142 0.000000
vt -0.035054 0.002356 0.000000
vt -0.035703 0.001571 0.000000
vt -0.036136 0.000785 0.000000
vt -0.000000 -0.000000 0.000000
vt -0.001047 0.000000 0.000000
vt -0.000000 -0.000740 0.000000
vt -0.001047 -0.000740 0.000000
vt -0.000000 -0.001481 0.000000
vt -0.001047 -0.001481 0.000000
vt -0.000000 -0.002221 0.000000
vt -0.001047 -0.002221 0.000000
vt -0.002094 -0.001481 0.000000
vt -0.002094 -0.002221 0.000000
vt -0.003142 -0.001481 0.000000
vt -0.002094 -0.000000 0.000000
vt -0.002094 -0.000740 0.000000
vt -0.003142 -0.000000 0.000000
vt -0.003142 -0.000740 0.000000
vt 0.121366 0.000000 0.000000
vt 0.122731 0.000000 0.000000
vt 0.121366 0.000311 0.000000
vt 0.122693 0.000393 0.000000
vt 0.121366 0.000622 0.000000
vt 0.122579 0.000785 0.000000
vt 0.121366 0.000934 0.000000
vt 0.122145 0.001571 0.000000
vt 0.102276 0.001047 0.000000
vt 0.102276 0.002094 0.000000
vt 0.081821 0.002094 0.000000
vt 0.121496 0.002356 0.000000
vt 0.002000 0.003142 0.000000
vt 0.120731 0.003142 0.000000
vt 0.001235 0.002356 0.000000
vt 0.020455 0.002094 0.000000
vt 0.040910 0.002094 0.000000
vt 0.061366 0.002094 0.000000
vt 0.061366 0.001047 0.000000
vt 0.081821 0.001047 0.000000
vt 0.000586 0.001571 0.000000
vt 0.020455 0.001047 0.000000
vt 0.040910 0.001047 0.000000
vt 0.001366 0.000934 0.000000
vt 0.000152 0.000785 0.000000
vt 0.001366 0.000622 0.000000
vt 0.000038 0.000393 0.000000
vt 0.001366 0.000311 0.000000
vt 0.000000 -0.000000 0.000000
vt 0.001366 0.000000 0.000000
vt 0.122731 0.000000 0.000000
vt 0.121366 0.000000 0.000000
vt 0.122693 -0.000393 0.000000
vt 0.121327 -0.000393 0.000000
vt 0.122579 -0.000785 0.000000
vt 0.121213 -0.000785 0.000000
vt 0.122145 -0.001571 0.000000
vt 0.120780 -0.001571 0.000000
vt 0.121496 -0.002356 0.000000
vt 0.120131 -0.002356 0.000000
vt 0.120731 -0.003142 0.000000
vt 0.119366 -0.003142 0.000000
vt -0.002000 0.000000 0.000000
vt -0.036289 0.000000 0.000000
vt -0.019144 -0.001047 0.000000
vt -0.036250 -0.000393 0.000000
vt -0.036136 -0.000785 0.000000
vt -0.035703 -0.001571 0.000000
vt -0.019144 -0.002094 0.000000
vt -0.002000 -0.002094 0.000000
vt -0.002000 -0.003142 0.000000
vt -0.035054 -0.002356 0.000000
vt -0.034289 -0.003142 0.000000
vt -0.002000 -0.001047 0.000000
vt -0.131083 0.004189 0.000000
vt -0.150117 0.004189 0.000000
vt -0.131083 0.003142 0.000000
vt -0.169150 0.004189 0.000000
vt -0.188183 0.003142 0.000000
vt -0.188183 0.004189 0.000000
vt -0.188183 0.005236 0.000000
vt -0.169150 0.005236 0.000000
vt -0.188183 0.006283 0.000000
vt -0.150117 0.005236 0.000000
vt -0.131083 0.006283 0.000000
vt -0.131083 0.005236 0.000000
vt -0.120731 0.002094 0.000000
vt -0.100943 0.002094 0.000000
vt -0.120731 0.003142 0.000000
vt -0.081154 0.002094 0.000000
vt -0.061366 0.002094 0.000000
vt -0.061366 0.001047 0.000000
vt -0.041577 0.001047 0.000000
vt -0.002000 0.000000 0.000000
vt -0.021789 0.001047 0.000000
vt -0.002000 0.001047 0.000000
vt -0.021789 0.002094 0.000000
vt -0.002000 0.002094 0.000000
vt -0.002000 0.003142 0.000000
vt -0.100943 0.001047 0.000000
vt -0.120731 0.001047 0.000000
vt -0.120731 0.000000 0.000000
vt -0.081154 0.001047 0.000000
vt -0.041577 0.002094 0.000000
vt 0.002000 -0.000000 0.000000
vt 0.036289 -0.000000 0.000000
vt 0.019144 0.001047 0.000000
vt 0.036250 0.000393 0.000000
vt 0.036136 0.000785 0.000000
vt 0.035703 0.001571 0.000000
vt 0.019144 0.002094 0.000000
vt 0.002000 0.002094 0.000000
vt 0.002000 0.003142 0.000000
vt 0.035054 0.002356 0.000000
vt 0.034289 0.003142 0.000000
vt 0.002000 0.001047 0.000000
vt 0.002000 0.002094 0.000000
vt 0.019144 0.002094 0.000000
vt 0.002000 0.003142 0.000000
vt 0.035054 0.002356 0.000000
vt 0.034289 0.003142 0.000000
vt 0.019144 0.001047 0.000000
vt 0.002000 0.001047 0.000000
vt 0.002000 0.000000 0.000000
vt 0.036289 0.000000 0.000000
vt 0.036250 0.000393 0.000000
vt 0.036136 0.000785 0.000000
vt 0.035703 0.001571 0.000000
vt -0.033697 -0.002356 0.000000
vt -0.054951 -0.002094 0.000000
vt -0.032931 -0.003142 0.000000
vt -0.076971 -0.002094 0.000000
vt -0.098990 -0.002094 0.000000
vt -0.098990 -0.001047 0.000000
vt -0.121010 -0.001047 0.000000
vt -0.185069 -0.000000 0.000000
vt -0.143029 -0.001047 0.000000
vt -0.165049 -0.001047 0.000000
vt -0.143029 -0.002094 0.000000
vt -0.165049 -0.002094 0.000000
vt -0.186303 -0.002356 0.000000
vt -0.185654 -0.001571 0.000000
vt -0.185221 -0.000785 0.000000
vt -0.185107 -0.000393 0.000000
vt -0.034346 -0.001571 0.000000
vt -0.054951 -0.001047 0.000000
vt -0.076971 -0.001047 0.000000
vt -0.034893 -0.000393 0.000000
vt -0.034779 -0.000785 0.000000
vt -0.034931 0.000000 0.000000
vt -0.187069 -0.003142 0.000000
vt -0.121010 -0.002094 0.000000
vt -0.003142 -0.001481 0.000000
vt -0.002094 -0.002221 0.000000
vt -0.002094 -0.001481 0.000000
vt -0.001047 -0.002221 0.000000
vt -0.001047 -0.001481 0.000000
vt -0.000000 -0.002221 0.000000
vt -0.000000 -0.001481 0.000000
vt -0.001047 -0.000740 0.000000
vt 0.000000 -0.000740 0.000000
vt -0.001047 0.000000 0.000000
vt 0.000000 0.000000 0.000000
vt -0.002094 -0.000000 0.000000
vt -0.002094 -0.000740 0.000000
vt -0.003142 -0.000000 0.000000
vt -0.003142 -0.000740 0.000000
vt -0.001047 -0.004443 0.000000
vt 0.000000 -0.004443 0.000000
vt -0.001047 -0.003702 0.000000
vt 0.000000 -0.003702 0.000000
vt -0.001047 -0.002962 0.000000
vt -0.000000 -0.002962 0.000000
vt -0.001047 -0.002221 0.000000
vt -0.000000 -0.002221 0.000000
vt -0.002094 -0.002221 0.000000
vt -0.002094 -0.002962 0.000000
vt -0.002094 -0.003702 0.000000
vt -0.002094 -0.004443 0.000000
vt -0.003142 -0.003702 0.000000
vt -0.003142 -0.002221 0.000000
vt -0.003142 -0.002962 0.000000
vt -0.001095 0.000622 0.000000
vt -0.000152 0.000785 0.000000
vt -0.001095 0.000934 0.000000
vt -0.000586 0.001571 0.000000
vt -0.020455 0.001047 0.000000
vt -0.020455 0.002094 0.000000
vt -0.040910 0.002094 0.000000
vt -0.001235 0.002356 0.000000
vt -0.120731 0.003142 0.000000
vt -0.002000 0.003142 0.000000
vt -0.000038 0.000393 0.000000
vt -0.001095 0.000311 0.000000
vt 0.000000 0.000000 0.000000
vt -0.001095 0.000000 0.000000
vt -0.121496 0.002356 0.000000
vt -0.102276 0.002094 0.000000
vt -0.081821 0.002094 0.000000
vt -0.061366 0.002094 0.000000
vt -0.061366 0.001047 0.000000
vt -0.040910 0.001047 0.000000
vt -0.122145 0.001571 0.000000
vt -0.102276 0.001047 0.000000
vt -0.081821 0.001047 0.000000
vt -0.121095 0.000934 0.000000
vt -0.122579 0.000785 0.000000
vt -0.121095 0.000622 0.000000
vt -0.122693 0.000393 0.000000
vt -0.121095 0.000311 0.000000
vt -0.122731 0.000000 0.000000
vt -0.121095 0.000000 0.000000
vt 0.003142 -0.000740 0.000000
vt 0.002094 -0.000000 0.000000
vt 0.002094 -0.000740 0.000000
vt 0.001047 -0.000000 0.000000
vt 0.001047 -0.000740 0.000000
vt -0.000000 -0.000000 0.000000
vt -0.000000 -0.000740 0.000000
vt 0.001047 -0.001481 0.000000
vt -0.000000 -0.001481 0.000000
vt 0.001047 -0.002221 0.000000
vt 0.000000 -0.002221 0.000000
vt 0.002094 -0.002221 0.000000
vt 0.002094 -0.001481 0.000000
vt 0.003142 -0.002221 0.000000
vt 0.003142 -0.001481 0.000000
vt -0.119095 -0.003142 0.000000
vt -0.119860 -0.002356 0.000000
vt -0.120731 -0.003142 0.000000
vt -0.121496 -0.002356 0.000000
vt -0.120509 -0.001571 0.000000
vt -0.122145 -0.001571 0.000000
vt -0.120942 -0.000785 0.000000
vt -0.122579 -0.000785 0.000000
vt -0.121056 -0.000393 0.000000
vt -0.122693 -0.000393 0.000000
vt -0.121095 -0.000000 0.000000
vt -0.122731 -0.000000 0.000000
vt -0.120731 -0.001047 0.000000
vt -0.100943 -0.001047 0.000000
vt -0.120731 0.000000 0.000000
vt -0.081154 -0.001047 0.000000
vt -0.061366 -0.001047 0.000000
vt -0.061366 -0.002094 0.000000
vt -0.041577 -0.002094 0.000000
vt -0.002000 -0.003142 0.000000
vt -0.021789 -0.002094 0.000000
vt -0.002000 -0.002094 0.000000
vt -0.021789 -0.001047 0.000000
vt -0.002000 -0.001047 0.000000
vt -0.002000 0.000000 0.000000
vt -0.100943 -0.002094 0.000000
vt -0.120731 -0.002094 0.000000
vt -0.120731 -0.003142 0.000000
vt -0.081154 -0.002094 0.000000
vt -0.041577 -0.001047 0.000000
vt -0.131083 0.001047 0.000000
vt -0.150117 0.001047 0.000000
vt -0.131083 -0.000000 0.000000
vt -0.169150 0.001047 0.000000
vt -0.188183 -0.000000 0.000000
vt -0.188183 0.001047 0.000000
vt -0.188183 0.002094 0.000000
vt -0.169150 0.002094 0.000000
vt -0.188183 0.003142 0.000000
vt -0.150117 0.002094 0.000000
vt -0.131083 0.003142 0.000000
vt -0.131083 0.002094 0.000000
vt -0.002000 0.003142 0.000000
vt -0.034289 0.003142 0.000000
vt -0.019144 0.002094 0.000000
vt -0.035054 0.002356 0.000000
vt -0.035703 0.001571 0.000000
vt -0.019144 0.001047 0.000000
vt -0.036136 0.000785 0.000000
vt -0.036250 0.000393 0.000000
vt -0.036289 -0.000000 0.000000
vt -0.002000 -0.000000 0.000000
vt -0.002000 0.001047 0.000000
vt -0.002000 0.002094 0.000000
vt 0.120731 0.001047 0.000000
vt 0.100943 0.001047 0.000000
vt 0.120731 0.000000 0.000000
vt 0.081154 0.001047 0.000000
vt 0.061366 0.001047 0.000000
vt 0.061366 0.002094 0.000000
vt 0.041577 0.002094 0.000000
vt 0.002000 0.003142 0.000000
vt 0.021789 0.002094 0.000000
vt 0.002000 0.002094 0.000000
vt 0.021789 0.001047 0.000000
vt 0.002000 0.001047 0.000000
vt 0.002000 0.000000 0.000000
vt 0.100943 0.002094 0.000000
vt 0.120731 0.002094 0.000000
vt 0.120731 0.003142 0.000000
vt 0.081154 0.002094 0.000000
vt 0.041577 0.001047 0.000000
vt -0.131083 -0.005236 0.000000
vt -0.150117 -0.005236 0.000000
vt -0.131083 -0.006283 0.000000
vt -0.169150 -0.005236 0.000000
vt -0.188183 -0.006283 0.000000
vt -0.188183 -0.005236 0.000000
vt -0.188183 -0.004189 0.000000
vt -0.169150 -0.004189 0.000000
vt -0.188183 -0.003142 0.000000
vt -0.150117 -0.004189 0.000000
vt -0.131083 -0.003142 0.000000
vt -0.131083 -0.004189 0.000000
vt 0.002000 -0.003142 0.000000
vt 0.034289 -0.003142 0.000000
vt 0.019144 -0.002094 0.000000
vt 0.035054 -0.002356 0.000000
vt 0.035703 -0.001571 0.000000
vt 0.019144 -0.001047 0.000000
vt 0.036136 -0.000785 0.000000
vt 0.036250 -0.000393 0.000000
vt 0.036289 0.000000 0.000000
vt 0.002000 0.000000 0.000000
vt 0.002000 -0.001047 0.000000
vt 0.002000 -0.002094 0.000000
vt 0.003142 -0.002962 0.000000
vt 0.002094 -0.002221 0.000000
vt 0.002094 -0.002962 0.000000
vt 0.001047 -0.002221 0.000000
vt 0.001047 -0.002962 0.000000
vt -0.000000 -0.002221 0.000000
vt -0.000000 -0.002962 0.000000
vt 0.001047 -0.003702 0.000000
vt 0.000000 -0.003702 0.000000
vt 0.001047 -0.004443 0.000000
vt -0.000000 -0.004443 0.000000
vt 0.002094 -0.004443 0.000000
vt 0.002094 -0.003702 0.000000
vt 0.003142 -0.004443 0.000000
vt 0.003142 -0.003702 0.000000
vt 0.003142 -0.002962 0.000000
vt 0.002094 -0.002221 0.000000
vt 0.002094 -0.002962 0.000000
vt 0.001047 -0.002221 0.000000
vt 0.001047 -0.002962 0.000000
vt -0.000000 -0.002221 0.000000
vt -0.000000 -0.002962 0.000000
vt 0.001047 -0.003702 0.000000
vt 0.000000 -0.003702 0.000000
vt 0.001047 -0.004443 0.000000
vt 0.000000 -0.004443 0.000000
vt 0.002094 -0.004443 0.000000
vt 0.002094 -0.003702 0.000000
vt 0.003142 -0.004443 0.000000
vt 0.003142 -0.003702 0.000000
vt 0.001047 0.000000 0.000000
vt 0.000000 0.000000 0.000000
vt 0.001047 -0.000740 0.000000
vt 0.000000 -0.000740 0.000000
vt 0.001047 -0.001481 0.000000
vt -0.000000 -0.001481 0.000000
vt 0.001047 -0.002221 0.000000
vt -0.000000 -0.002221 0.000000
vt 0.002094 -0.002221 0.000000
vt 0.002094 -0.001481 0.000000
vt 0.002094 -0.000740 0.000000
vt 0.002094 -0.000000 0.000000
vt 0.003142 -0.000740 0.000000
vt 0.003142 -0.002221 0.000000
vt 0.003142 -0.001481 0.000000
vt 0.002000 -0.001047 0.000000
vt 0.019144 -0.001047 0.000000
vt 0.002000 -0.000000 0.000000
vt 0.036250 -0.000393 0.000000
vt 0.036289 -0.000000 0.000000
vt 0.019144 -0.002094 0.000000
vt 0.002000 -0.002094 0.000000
vt 0.002000 -0.003142 0.000000
vt 0.034289 -0.003142 0.000000
vt 0.035054 -0.002356 0.000000
vt 0.035703 -0.001571 0.000000
vt 0.036136 -0.000785 0.000000
vt -0.131083 -0.002094 0.000000
vt -0.150117 -0.002094 0.000000
vt -0.131083 -0.003142 0.000000
vt -0.169150 -0.002094 0.000000
vt -0.188183 -0.003142 0.000000
vt -0.188183 -0.002094 0.000000
vt -0.188183 -0.001047 0.000000
vt -0.169150 -0.001047 0.000000
vt -0.188183 -0.000000 0.000000
vt -0.150117 -0.001047 0.000000
vt -0.131083 -0.000000 0.000000
vt -0.131083 -0.001047 0.000000
vt 0.120731 -0.002094 0.000000
vt 0.100943 -0.002094 0.000000
vt 0.120731 -0.003142 0.000000
vt 0.081154 -0.002094 0.000000
vt 0.061366 -0.002094 0.000000
vt 0.061366 -0.001047 0.000000
vt 0.041577 -0.001047 0.000000
vt 0.002000 0.000000 0.000000
vt 0.021789 -0.001047 0.000000
vt 0.002000 -0.001047 0.000000
vt 0.021789 -0.002094 0.000000
vt 0.002000 -0.002094 0.000000
vt 0.002000 -0.003142 0.000000
vt 0.100943 -0.001047 0.000000
vt 0.120731 -0.001047 0.000000
vt 0.120731 -0.000000 0.000000
vt 0.081154 -0.001047 0.000000
vt 0.041577 -0.002094 0.000000
vt -0.000000 -0.000000 0.000000
vt 0.000038 -0.000393 0.000000
vt 0.001366 0.000000 0.000000
vt 0.001404 -0.000393 0.000000
vt 0.000152 -0.000785 0.000000
vt 0.001518 -0.000785 0.000000
vt 0.000586 -0.001571 0.000000
vt 0.001951 -0.001571 0.000000
vt 0.001235 -0.002356 0.000000
vt 0.002600 -0.002356 0.000000
vt 0.002000 -0.003142 0.000000
vt 0.003366 -0.003142 0.000000
vt 0.001047 -0.000000 0.000000
vt -0.000000 0.000000 0.000000
vt 0.001047 -0.000740 0.000000
vt 0.000000 -0.000740 0.000000
vt 0.001047 -0.001481 0.000000
vt -0.000000 -0.001481 0.000000
vt 0.001047 -0.002221 0.000000
vt -0.000000 -0.002221 0.000000
vt 0.002094 -0.002221 0.000000
vt 0.002094 -0.001481 0.000000
vt 0.002094 -0.000740 0.000000
vt 0.002094 -0.000000 0.000000
vt 0.003142 -0.000740 0.000000
vt 0.003142 -0.002221 0.000000
vt 0.003142 -0.001481 0.000000
vt 0.034893 -0.000393 0.000000
vt 0.054951 -0.001047 0.000000
vt 0.034931 -0.000000 0.000000
vt 0.076971 -0.001047 0.000000
vt 0.098990 -0.001047 0.000000
vt 0.098990 -0.002094 0.000000
vt 0.121010 -0.002094 0.000000
vt 0.187069 -0.003142 0.000000
vt 0.143029 -0.002094 0.000000
vt 0.165049 -0.002094 0.000000
vt 0.143029 -0.001047 0.000000
vt 0.165049 -0.001047 0.000000
vt 0.185107 -0.000393 0.000000
vt 0.185221 -0.000785 0.000000
vt 0.185654 -0.001571 0.000000
vt 0.186303 -0.002356 0.000000
vt 0.034779 -0.000785 0.000000
vt 0.034346 -0.001571 0.000000
vt 0.054951 -0.002094 0.000000
vt 0.033697 -0.002356 0.000000
vt 0.076971 -0.002094 0.000000
vt 0.032931 -0.003142 0.000000
vt 0.185069 -0.000000 0.000000
vt 0.121010 -0.001047 0.000000
vt -0.002000 -0.002094 0.000000
vt -0.019144 -0.002094 0.000000
vt -0.002000 -0.003142 0.000000
vt -0.035054 -0.002356 0.000000
vt -0.034289 -0.003142 0.000000
vt -0.019144 -0.001047 0.000000
vt -0.002000 -0.001047 0.000000
vt -0.002000 -0.000000 0.000000
vt -0.036289 -0.000000 0.000000
vt -0.036250 -0.000393 0.000000
vt -0.036136 -0.000785 0.000000
vt -0.035703 -0.001571 0.000000
vt 0.000000 0.000000 0.000000
vt -0.001095 -0.000000 0.000000
vt -0.000038 -0.000393 0.000000
vt -0.001133 -0.000393 0.000000
vt -0.000152 -0.000785 0.000000
vt -0.001247 -0.000785 0.000000
vt -0.000586 -0.001571 0.000000
vt -0.001680 -0.001571 0.000000
vt -0.001235 -0.002356 0.000000
vt -0.002329 -0.002356 0.000000
vt -0.002000 -0.003142 0.000000
vt -0.003095 -0.003142 0.000000
vn -0.000000 -0.965926 -0.258819
vn -0.000000 -0.965926 -0.258819
vn -0.000000 -0.965926 -0.258819
vn -0.000000 -0.965926 -0.258819
vn 0.000000 0.965926 0.258819
vn 0.000000 0.965926 0.258819
vn 0.000000 0.965926 0.258819
vn 0.000000 0.965926 0.258819
vn 0.000000 -0.258819 0.965926
vn 0.000000 -0.258819 0.965926
vn 0.000000 -0.258819 0.965926
vn 0.000000 -0.258819 0.965926
vn 0.000000 -0.258819 0.965926
vn 0.000000 -0.258819 0.965926
vn 0.000000 -0.258819 0.965926
vn 0.000000 -0.258819 0.965926
vn 0.000000 -0.258819 0.965926
vn 0.000000 -0.258819 0.965926
vn -0.000000 0.258819 -0.965926
vn -0.000000 0.258819 -0.965926
vn -0.000000 0.258819 -0.965926
vn -0.000000 0.258819 -0.965926
vn -0.000000 0.258819 -0.965926
vn -0.000000 0.258819 -0.965926
vn -0.000000 0.258819 -0.965926
vn -0.000000 0.258819 -0.965926
vn -0.000000 0.258819 -0.965926
vn -0.000000 0.258819 -0.965926
vn -1.000000 -0.000000 0.000000
vn -1.000000 -0.000000 0.000000
vn -1.000000 -0.000000 0.000000
vn -1.000000 -0.000000 0.000000
vn 1.000000 0.000000 -0.000000
vn 1.000000 0.000000 -0.000000
vn 1.000000 0.000000 -0.000000
vn 1.000000 0.000000 -0.000000
vn 1.000000 0.000000 -0.000000
vn 1.000000 0.000000 -0.000000
vn 1.000000 0.000000 -0.000000
vn 1.000000 0.000000 -0.000000
vn 1.000000 0.000000 -0.000000
vn 1.000000 0.000000 -0.000000
vn 1.000000 0.000000 -0.000000
vn 1.000000 0.000000 -0.000000
vn 0.000000 0.965926 0.258819
vn 0.000000 0.965926 0.258819
vn 0.000000 0.965926 0.258819
vn 0.000000 0.965926 0.258819
vn -0.000000 0.258819 -0.965926
vn -0.000000 0.258819 -0.965926
vn -0.000000 0.258819 -0.965926
vn -0.000000 0.258819 -0.965926
vn 0.000000 -0.258819 0.965926
vn 0.000000 -0.258819 0.965926
vn 0.000000 -0.258819 0.965926
vn 0.000000 -0.258819 0.965926
vn -0.000000 -0.965926 -0.258819
vn -0.000000 -0.965926 -0.258819
vn -0.000000 -0.965926 -0.258819
vn -0.000000 -0.965926 -0.258819
vn -1.000000 -0.000000 0.000000
vn -1.000000 -0.000000 0.000000
vn -1.000000 -0.000000 0.000000
vn -1.000000 -0.000000 0.000000
vn -0.000000 -0.965926 -0.258819
vn -0.000000 -0.965926 -0.258819
vn -0.000000 -0.965926 -0.258819
vn -0.000000 -0.965926 -0.258819
vn 0.000000 -0.258819 0.965926
vn 0.000000 -0.258819 0.965926
vn 0.000000 -0.258819 0.965926
vn 0.000000 -0.258819 0.965926
vn -0.000000 0.258819 -0.965926
vn -0.000000 0.258819 -0.965926
vn -0.000000 0.258819 -0.965926
vn -0.000000 0.258819 -0.965926
vn 0.000000 0.965926 0.258819
vn 0.000000 0.965926 0.258819
vn 0.000000 0.965926 0.258819
vn 0.000000 0.965926 0.258819
vn -1.000000 -0.000000 0.000000
vn -1.000000 -0.000000 0.000000
vn -1.000000 -0.000000 0.000000
vn -1.000000 -0.000000 0.000000
vn -0.500000 -0.224144 0.836516
vn -0.500000 -0.224144 0.836516
vn -0.195090 -0.253846 0.947366
vn -0.866025 -0.129410 0.482963
vn -0.866025 -0.129410 0.482963
vn -0.923880 -0.099046 0.369644
vn -0.707107 -0.183013 0.683013
vn -0.382683 -0.239118 0.892399
vn -0.500000 0.836516 0.224144
vn 0.000000 0.707107 0.707107
vn -0.500000 0.612372 0.612372
vn 0.000000 0.258819 0.965926
vn -0.500000 0.224144 0.836516
vn -0.866025 0.129410 0.482963
vn -0.866025 -0.129410 0.482963
vn -0.866025 0.482963 0.129410
vn -0.866025 0.353553 0.353553
vn -0.000000 -0.965926 -0.258819
vn -0.000000 -0.965926 -0.258819
vn -0.154961 -0.954258 -0.255693
vn -0.195090 -0.947366 -0.253846
vn -0.306179 -0.919536 -0.246389
vn -0.382683 -0.892399 -0.239118
vn -0.450000 -0.862599 -0.231133
vn -0.707107 -0.683013 -0.183013
vn -0.500000 -0.836516 -0.224144
vn -0.866025 -0.482963 -0.129410
vn -0.866025 -0.482963 -0.129410
vn -0.923880 -0.369644 -0.099046
vn -0.923880 -0.369644 -0.099046
vn -0.866025 -0.482963 -0.129410
vn -0.866025 -0.482963 -0.129410
vn -0.866025 -0.482963 -0.129410
vn -0.500000 -0.836516 -0.224144
vn -0.500000 -0.836516 -0.224144
vn -0.707107 -0.683013 -0.183013
vn -0.500000 -0.836516 -0.224144
vn -0.500000 -0.836516 -0.224144
vn -0.450000 -0.862599 -0.231133
vn -0.382683 -0.892399 -0.239118
vn -0.306179 -0.919536 -0.246389
vn -0.195090 -0.947366 -0.253846
vn -0.154961 -0.954258 -0.255693
vn -0.000000 -0.965926 -0.258819
vn -0.000000 -0.965926 -0.258819
vn 0.195090 -0.947366 -0.253846
vn 0.195090 -0.947366 -0.253846
vn 0.382683 -0.892399 -0.239118
vn 0.382683 -0.892399 -0.239118
vn 0.707107 -0.683013 -0.183013
vn 0.707107 -0.683013 -0.183013
vn 0.923880 -0.369644 -0.099046
vn 0.923880 -0.369644 -0.099046
vn 1.000000 -0.000000 -0.000000
vn 0.500000 -0.224144 0.836516
vn 0.195090 -0.253846 0.947366
vn 0.382683 -0.239118 0.892399
vn 0.707107 -0.183013 0.683013
vn 0.866025 -0.129410 0.482963
vn 0.866025 -0.129410 0.482963
vn 0.923880 -0.099046 0.369644
vn 0.500000 -0.224144 0.836516
vn 0.000000 0.707107 0.707107
vn 0.000000 0.707107 0.707107
vn 0.000000 0.707107 0.707107
vn 0.000000 0.707107 0.707107
vn 0.000000 0.258819 0.965926
vn 0.000000 0.258819 0.965926
vn 0.000000 0.258819 0.965926
vn 0.000000 0.258819 0.965926
vn -0.866025 0.482963 0.129410
vn -0.866025 0.482963 0.129410
vn -0.866025 0.482963 0.129410
vn -0.500000 0.836516 0.224144
vn -0.500000 0.836516 0.224144
vn -0.500000 0.836516 0.224144
vn -0.500000 0.836516 0.224144
vn -0.866025 0.482963 0.129410
vn -0.866025 0.482963 0.129410
vn -0.500000 0.836516 0.224144
vn -0.500000 0.836516 0.224144
vn -0.000000 0.965926 0.258819
vn -0.500000 0.836516 0.224144
vn -0.866025 0.482963 0.129410
vn 0.000000 0.258819 -0.965926
vn -0.500000 0.224144 -0.836516
vn -0.195090 0.253846 -0.947366
vn -0.382683 0.239118 -0.892399
vn -0.707107 0.183013 -0.683013
vn -0.866025 0.129410 -0.482963
vn -0.866025 0.129410 -0.482963
vn -0.923880 0.099046 -0.369644
vn -0.500000 0.224144 -0.836516
vn -0.866025 -0.129410 0.482963
vn -0.866025 -0.129410 0.482963
vn -0.923880 -0.099046 0.369644
vn -0.500000 -0.224144 0.836516
vn -0.500000 -0.224144 0.836516
vn -0.000000 -0.258819 0.965926
vn -0.195090 -0.253846 0.947366
vn -0.382683 -0.239118 0.892399
vn -0.707107 -0.183013 0.683013
vn 0.923880 -0.099046 0.369644
vn 0.866025 -0.129410 0.482963
vn 0.866025 -0.129410 0.482963
vn 0.866025 -0.129410 0.482963
vn 0.500000 -0.224144 0.836516
vn 0.500000 -0.224144 0.836516
vn 0.000000 -0.258819 0.965926
vn 0.500000 -0.224144 0.836516
vn 0.500000 -0.224144 0.836516
vn 0.866025 -0.129410 0.482963
vn 0.866025 -0.129410 0.482963
vn 0.923880 -0.099046 0.369644
vn 0.707107 -0.183013 0.683013
vn 0.382683 -0.239118 0.892399
vn 0.195090 -0.253846 0.947366
vn 0.707107 -0.183013 0.683013
vn 0.500000 -0.224144 0.836516
vn 0.500000 -0.224144 0.836516
vn 0.195090 -0.253846 0.947366
vn 0.382683 -0.239118 0.892399
vn 0.866025 -0.129410 0.482963
vn 0.250000 0.724444 0.642402
vn 0.433013 0.288849 0.853854
vn 0.750000 0.370891 0.547668
vn 0.866025 0.482963 0.129410
vn 0.500000 0.836516 0.224144
vn 0.433013 0.771812 0.465625
vn 0.000000 0.707107 -0.707107
vn -0.433013 0.677077 -0.595035
vn -0.750000 0.595035 -0.288849
vn -0.433013 0.901221 -0.017338
vn -0.250000 0.948588 -0.194114
vn 0.000000 0.965926 -0.258819
vn -0.306179 0.919536 0.246389
vn -0.382683 0.892399 0.239118
vn -0.450000 0.862599 0.231133
vn -0.707107 0.683013 0.183013
vn -0.500000 0.836516 0.224144
vn -0.866025 0.482963 0.129410
vn -0.866025 0.482963 0.129410
vn -0.923880 0.369644 0.099046
vn -0.195090 0.947366 0.253846
vn -0.154961 0.954258 0.255693
vn -0.923880 0.369644 0.099046
vn -0.866025 0.482963 0.129410
vn -0.866025 0.482963 0.129410
vn -0.866025 0.482963 0.129410
vn -0.500000 0.836516 0.224144
vn -0.500000 0.836516 0.224144
vn -0.707107 0.683013 0.183013
vn -0.500000 0.836516 0.224144
vn -0.500000 0.836516 0.224144
vn -0.450000 0.862599 0.231133
vn -0.382683 0.892399 0.239118
vn -0.306179 0.919536 0.246389
vn -0.195090 0.947366 0.253846
vn -0.154961 0.954258 0.255693
vn -0.000000 0.965926 0.258819
vn -0.000000 0.965926 0.258819
vn 0.000000 -0.965926 0.258819
vn -0.250000 -0.948588 0.194114
vn 0.000000 -0.707107 0.707107
vn -0.433013 -0.677077 0.595035
vn -0.500000 -0.224144 0.836516
vn -0.750000 -0.595035 0.288849
vn -0.866025 -0.482963 -0.129410
vn -0.500000 -0.836516 -0.224144
vn -0.433013 -0.901221 0.017338
vn 0.923880 0.369644 0.099046
vn 0.923880 0.369644 0.099046
vn 0.707107 0.683013 0.183013
vn 0.707107 0.683013 0.183013
vn 0.382683 0.892399 0.239118
vn 0.382683 0.892399 0.239118
vn 0.195090 0.947366 0.253846
vn 0.195090 0.947366 0.253846
vn 0.000000 0.965926 0.258819
vn 0.000000 0.965926 0.258819
vn 0.500000 0.836516 0.224144
vn 0.500000 0.836516 0.224144
vn -0.000000 0.965926 0.258819
vn 0.500000 0.836516 0.224144
vn 0.500000 0.836516 0.224144
vn 0.866025 0.482963 0.129410
vn 0.866025 0.482963 0.129410
vn 0.866025 0.482963 0.129410
vn 0.866025 0.482963 0.129410
vn 0.500000 0.836516 0.224144
vn 0.500000 0.836516 0.224144
vn 0.866025 0.482963 0.129410
vn 0.866025 0.482963 0.129410
vn 0.866025 0.482963 0.129410
vn 0.500000 0.836516 0.224144
vn -0.000000 0.707107 -0.707107
vn -0.000000 0.707107 -0.707107
vn -0.000000 0.707107 -0.707107
vn -0.000000 0.965926 -0.258819
vn -0.000000 0.965926 -0.258819
vn -0.000000 0.965926 -0.258819
vn -0.866025 0.129410 -0.482963
vn -0.923880 0.099046 -0.369644
vn -0.707107 0.183013 -0.683013
vn -0.500000 0.224144 -0.836516
vn -0.382683 0.239118 -0.892399
vn -0.195090 0.253846 -0.947366
vn -0.500000 0.224144 -0.836516
vn -0.866025 0.129410 -0.482963
vn -0.500000 -0.836516 -0.224144
vn -0.500000 -0.836516 -0.224144
vn -0.000000 -0.965926 -0.258819
vn -0.500000 -0.836516 -0.224144
vn -0.500000 -0.836516 -0.224144
vn -0.866025 -0.482963 -0.129410
vn -0.866025 -0.482963 -0.129410
vn -0.866025 -0.482963 -0.129410
vn -0.866025 -0.482963 -0.129410
vn -0.500000 -0.836516 -0.224144
vn -0.500000 -0.836516 -0.224144
vn -0.866025 -0.482963 -0.129410
vn -0.866025 -0.482963 -0.129410
vn -0.866025 -0.482963 -0.129410
vn -0.500000 -0.836516 -0.224144
vn 0.000000 -0.707107 0.707107
vn 0.000000 -0.707107 0.707107
vn 0.000000 -0.707107 0.707107
vn 0.000000 -0.965926 0.258819
vn 0.000000 -0.965926 0.258819
vn 0.000000 -0.965926 0.258819
vn 0.866025 -0.129410 0.482963
vn 0.923880 -0.099046 0.369644
vn 0.707107 -0.183013 0.683013
vn 0.500000 -0.224144 0.836516
vn 0.382683 -0.239118 0.892399
vn 0.195090 -0.253846 0.947366
vn -0.000000 -0.258819 0.965926
vn 0.500000 -0.224144 0.836516
vn 0.866025 -0.129410 0.482963
vn 0.250000 0.642402 -0.724444
vn 0.433013 0.853854 -0.288849
vn 0.500000 0.836516 0.224144
vn 0.750000 0.547668 -0.370891
vn 0.866025 0.129410 -0.482963
vn 0.500000 0.224144 -0.836516
vn 0.433013 0.465625 -0.771812
vn -0.433013 -0.771812 -0.465625
vn -0.750000 -0.370891 -0.547668
vn -0.433013 -0.288849 -0.853854
vn 0.000000 -0.258819 -0.965926
vn 0.000000 -0.707107 -0.707107
vn -0.250000 -0.724444 -0.642402
vn 0.866025 -0.482963 -0.129410
vn 0.750000 -0.595035 0.288849
vn 0.433013 -0.677077 0.595035
vn 0.250000 -0.948588 0.194114
vn 0.433013 -0.901221 0.017338
vn 0.500000 -0.836516 -0.224144
vn 0.500000 0.224144 -0.836516
vn 0.500000 0.224144 -0.836516
vn 0.195090 0.253846 -0.947366
vn 0.000000 0.258819 -0.965926
vn 0.866025 0.129410 -0.482963
vn 0.923880 0.099046 -0.369644
vn 0.707107 0.183013 -0.683013
vn 0.382683 0.239118 -0.892399
vn -0.000000 -0.707107 -0.707107
vn -0.000000 -0.707107 -0.707107
vn -0.000000 -0.707107 -0.707107
vn -0.000000 -0.258819 -0.965926
vn -0.000000 -0.258819 -0.965926
vn -0.000000 -0.258819 -0.965926
vn 0.866025 -0.482963 -0.129410
vn 0.866025 -0.482963 -0.129410
vn 0.866025 -0.482963 -0.129410
vn 0.866025 -0.482963 -0.129410
vn 0.500000 -0.836516 -0.224144
vn 0.500000 -0.836516 -0.224144
vn 0.500000 -0.836516 -0.224144
vn 0.500000 -0.836516 -0.224144
vn 0.866025 -0.482963 -0.129410
vn 0.866025 -0.482963 -0.129410
vn 0.500000 -0.836516 -0.224144
vn 0.500000 -0.836516 -0.224144
vn 0.000000 -0.965926 -0.258819
vn 0.500000 -0.836516 -0.224144
vn 0.866025 -0.482963 -0.129410
vn 0.195090 -0.947366 -0.253846
vn 0.195090 -0.947366 -0.253846
vn 0.382683 -0.892399 -0.239118
vn 0.382683 -0.892399 -0.239118
vn 0.707107 -0.683013 -0.183013
vn 0.707107 -0.683013 -0.183013
vn 0.923880 -0.369644 -0.099046
vn 0.923880 -0.369644 -0.099046
vn 1.000000 -0.000000 -0.000000
vn 0.866025 0.129410 -0.482963
vn 1.000000 0.000000 0.000000
vn 0.750000 -0.288849 -0.595035
vn 0.866025 -0.482963 -0.129410
vn 0.433013 -0.595035 -0.677077
vn 0.500000 -0.836516 -0.224144
vn 0.000000 -0.258819 -0.965926
vn 0.250000 -0.194114 -0.948588
vn 0.433013 -0.017338 -0.901221
vn 0.500000 0.224144 -0.836516
vn 0.195090 0.253846 -0.947366
vn 0.500000 0.224144 -0.836516
vn 0.000000 0.258819 -0.965926
vn 0.500000 0.224144 -0.836516
vn 0.500000 0.224144 -0.836516
vn 0.866025 0.129410 -0.482963
vn 0.866025 0.129410 -0.482963
vn 0.866025 0.129410 -0.482963
vn 0.866025 0.129410 -0.482963
vn 0.500000 0.224144 -0.836516
vn 0.500000 0.224144 -0.836516
vn 0.195090 0.253846 -0.947366
vn 0.382683 0.239118 -0.892399
vn 0.707107 0.183013 -0.683013
vn 0.923880 0.099046 -0.369644
vn 0.382683 0.239118 -0.892399
vn 0.707107 0.183013 -0.683013
vn 0.866025 0.129410 -0.482963
vn 0.923880 0.099046 -0.369644
vn 0.866025 0.129410 -0.482963
vn 0.000000 0.258819 -0.965926
vn 0.500000 0.224144 -0.836516
vn 0.866025 0.129410 -0.482963
vn 0.923880 0.099046 -0.369644
vn 0.500000 0.224144 -0.836516
vn 0.500000 0.224144 -0.836516
vn 0.195090 0.253846 -0.947366
vn 0.382683 0.239118 -0.892399
vn 0.707107 0.183013 -0.683013
vn 0.000000 0.965926 0.258819
vn 0.195090 0.947366 0.253846
vn 0.195090 0.947366 0.253846
vn 0.382683 0.892399 0.239118
vn 0.382683 0.892399 0.239118
vn 0.707107 0.683013 0.183013
vn 0.707107 0.683013 0.183013
vn 0.923880 0.369644 0.099046
vn 0.923880 0.369644 0.099046
vn 1.000000 -0.000000 -0.000000
usemtl Opaque(202,209,238)
f 2/1/1 3/2/2 1/3/3
f 1/3/3 3/2/2 4/4/4
f 6/5/5 7/6/6 5/7/7
f 5/7/7 7/6/6 8/8/8
f 10/9/9 2/10/10 9/11/11
f 9/11/11 2/10/10 1/12/12
f 9/11/11 1/12/12 16/13/13
f 16/13/13 1/12/12 11/14/14
f 16/13/13 11/14/14 15/15/15
f 15/15/15 11/14/14 12/16/16
f 15/15/15 12/16/16 14/17/17
f 14/17/17 12/16/16 13/18/18
f 18/19/19 6/20/20 17/21/21
f 17/21/21 6/20/20 5/22/22
f 17/21/21 5/22/22 24/23/23
f 24/23/23 5/22/22 19/24/24
f 24/23/23 19/24/24 23/25/25
f 23/25/25 19/24/24 20/26/26
f 23/25/25 20/26/26 22/27/27
f 22/27/27 20/26/26 21/28/28
f 13/29/29 22/30/30 14/31/31
f 14/31/31 22/30/30 21/32/32
f 25/33/33 26/34/34 36/35/35
f 36/35/35 26/34/34 33/36/36
f 36/35/35 33/36/36 35/37/37
f 35/37/37 33/36/36 34/38/38
f 33/36/36 26/34/34 32/39/39
f 32/39/39 26/34/34 27/40/40
f 32/39/39 27/40/40 30/41/41
f 30/41/41 27/40/40 29/42/42
f 29/42/42 27/40/40 28/43/43
f 30/41/41 31/44/44 32/39/39
f 38/45/45 10/46/46 37/47/47
f 37/47/47 10/46/46 9/48/48
f 7/49/49 39/50/50 8/51/51
f 8/51/51 39/50/50 40/52/52
f 42/53/53 38/54/54 41/55/55
f 41/55/55 38/54/54 37/56/56
f 44/57/57 45/58/58 43/59/59
f 43/59/59 45/58/58 46/60/60
f 48/61/61 49/62/62 47/63/63
f 47/63/63 49/62/62 50/64/64
f 52/65/65 18/66/66 51/67/67
f 51/67/67 18/66/66 17/68/68
f 3/69/69 53/70/70 4/71/71
f 4/71/71 53/70/70 54/72/72
f 56/73/73 52/74/74 55/75/75
f 55/75/75 52/74/74 51/76/76
f 58/77/77 59/78/78 57/79/79
f 57/79/79 59/78/78 60/80/80
f 61/81/81 62/82/82 64/83/83
f 64/83/83 62/82/82 63/84/84
f 65/85/85 71/86/86 54/87/72
f 54/87/72 71/86/86 70/88/87
f 54/87/72 70/88/87 4/89/71
f 71/86/86 65/85/85 72/90/88
f 72/90/88 65/85/85 66/91/89
f 72/90/88 66/91/89 63/92/84
f 63/92/84 62/93/82 72/90/88
f 72/90/88 62/93/82 67/94/90
f 72/90/88 67/94/90 68/95/91
f 72/90/88 68/95/91 71/86/86
f 71/86/86 68/95/91 69/96/92
f 71/86/86 69/96/92 70/88/87
f 57/97/79 73/98/93 76/99/94
f 76/99/94 73/98/93 78/100/95
f 76/99/94 78/100/95 75/101/96
f 75/101/96 78/100/95 79/102/97
f 75/101/96 79/102/97 54/103/72
f 54/103/72 79/102/97 65/104/85
f 65/104/85 79/102/97 80/105/98
f 65/104/85 80/105/98 66/106/99
f 66/106/99 80/105/98 63/107/84
f 73/98/93 74/108/100 78/100/95
f 78/100/95 74/108/100 77/109/101
f 78/100/95 77/109/101 79/102/97
f 79/102/97 77/109/101 80/105/98
f 74/108/100 63/110/84 77/109/101
f 77/109/101 63/111/84 80/105/98
f 1/112/102 4/113/103 11/114/104
f 11/114/104 4/113/103 70/115/105
f 11/114/104 70/115/105 12/116/106
f 12/116/106 70/115/105 69/117/107
f 12/116/106 69/117/107 13/118/108
f 13/118/108 69/117/107 68/119/109
f 13/118/108 68/119/109 85/120/110
f 85/120/110 68/119/109 90/121/111
f 85/120/110 90/121/111 91/122/112
f 91/122/112 90/121/111 67/123/113
f 91/122/112 67/123/113 61/124/81
f 61/124/81 67/123/113 62/125/82
f 68/119/109 67/123/113 90/121/111
f 81/126/114 94/127/115 61/124/81
f 61/124/81 94/127/115 93/128/116
f 61/124/81 93/128/116 92/129/117
f 92/129/117 93/128/116 87/130/118
f 92/129/117 87/130/118 86/131/119
f 86/131/119 87/130/118 13/118/108
f 86/131/119 13/118/108 85/120/110
f 81/126/114 82/132/120 94/127/115
f 94/127/115 82/132/120 89/133/121
f 94/127/115 89/133/121 88/134/122
f 88/134/122 89/133/121 22/135/123
f 88/134/122 22/135/123 87/130/118
f 87/130/118 22/135/123 13/118/108
f 89/133/121 82/132/120 22/135/123
f 22/135/123 82/132/120 83/136/124
f 22/135/123 83/136/124 23/137/125
f 23/137/125 83/136/124 84/138/126
f 23/137/125 84/138/126 24/139/127
f 24/139/127 84/138/126 51/140/67
f 24/139/127 51/140/67 17/141/68
f 92/129/117 86/131/119 91/122/112
f 91/122/112 86/131/119 85/120/110
f 94/127/115 88/134/122 93/128/116
f 93/128/116 88/134/122 87/130/118
f 61/124/81 92/129/117 91/122/112
f 3/142/128 2/143/129 102/144/130
f 102/144/130 2/143/129 95/145/131
f 102/144/130 95/145/131 101/146/132
f 101/146/132 95/145/131 96/147/133
f 101/146/132 96/147/133 100/148/134
f 100/148/134 96/147/133 97/149/135
f 100/148/134 97/149/135 99/150/136
f 99/150/136 97/149/135 98/151/137
f 99/150/136 98/151/137 31/152/138
f 31/152/138 98/151/137 32/153/39
f 53/154/70 3/155/69 105/156/139
f 105/156/139 3/155/69 102/157/140
f 105/156/139 102/157/140 101/158/141
f 101/158/141 100/159/142 105/156/139
f 105/156/139 100/159/142 106/160/143
f 105/156/139 106/160/143 103/161/144
f 103/161/144 106/160/143 30/162/41
f 30/162/41 106/160/143 99/163/145
f 30/162/41 99/163/145 31/164/44
f 100/159/142 99/163/145 106/160/143
f 103/161/144 104/165/146 105/156/139
f 105/156/139 104/165/146 53/154/70
f 76/166/147 109/167/148 57/168/79
f 57/168/79 109/167/148 110/169/149
f 57/168/79 110/169/149 58/170/77
f 58/170/77 110/169/149 108/171/150
f 108/171/150 110/169/149 107/172/151
f 107/172/151 110/169/149 112/173/152
f 107/172/151 112/173/152 53/174/70
f 53/174/70 112/173/152 111/175/153
f 53/174/70 111/175/153 54/176/72
f 54/176/72 111/175/153 75/177/154
f 75/177/154 111/175/153 76/166/147
f 76/166/147 111/175/153 109/167/148
f 112/173/152 110/169/149 109/167/148
f 112/173/152 109/167/148 111/175/153
f 74/178/100 115/179/155 63/180/84
f 63/180/84 115/179/155 116/181/156
f 63/180/84 116/181/156 117/182/157
f 117/182/157 116/181/156 122/183/158
f 117/182/157 122/183/158 123/184/159
f 123/184/159 122/183/158 60/185/80
f 123/184/159 60/185/80 124/186/160
f 124/186/160 60/185/80 113/187/161
f 124/186/160 113/187/161 119/188/162
f 119/188/162 113/187/161 114/189/163
f 119/188/162 114/189/163 64/190/83
f 115/179/155 74/178/100 120/191/164
f 120/191/164 74/178/100 73/192/165
f 120/191/164 73/192/165 57/193/166
f 60/185/80 122/183/158 57/193/166
f 57/193/166 122/183/158 121/194/167
f 57/193/166 121/194/167 120/191/164
f 120/191/164 121/194/167 115/179/155
f 63/180/84 117/182/157 64/190/83
f 64/190/83 117/182/157 118/195/168
f 64/190/83 118/195/168 119/188/162
f 119/188/162 118/195/168 124/186/160
f 122/183/158 116/181/156 121/194/167
f 121/194/167 116/181/156 115/179/155
f 124/186/160 118/195/168 123/184/159
f 123/184/159 118/195/168 117/182/157
f 55/196/75 51/197/169 127/198/170
f 127/198/170 51/197/169 84/199/171
f 127/198/170 84/199/171 83/200/172
f 83/200/172 82/201/173 127/198/170
f 127/198/170 82/201/173 128/202/174
f 127/198/170 128/202/174 125/203/175
f 125/203/175 128/202/174 64/204/83
f 64/204/83 128/202/174 81/205/176
f 64/204/83 81/205/176 61/206/81
f 82/201/173 81/205/176 128/202/174
f 125/203/175 126/207/177 127/198/170
f 127/198/170 126/207/177 55/196/75
f 129/208/178 135/209/179 49/210/62
f 49/210/62 135/209/179 134/211/180
f 49/210/62 134/211/180 50/212/64
f 135/209/179 129/208/178 136/213/181
f 136/213/181 129/208/178 130/214/182
f 136/213/181 130/214/182 41/215/55
f 41/215/55 37/216/183 136/213/181
f 136/213/181 37/216/183 131/217/184
f 136/213/181 131/217/184 132/218/185
f 132/218/185 133/219/186 136/213/181
f 136/213/181 133/219/186 135/209/179
f 133/219/186 134/211/180 135/209/179
f 98/220/187 141/221/188 32/222/39
f 32/222/39 141/221/188 142/223/189
f 32/222/39 142/223/189 143/224/190
f 143/224/190 142/223/189 149/225/191
f 143/224/190 149/225/191 150/226/192
f 150/226/192 149/225/191 10/227/193
f 150/226/192 10/227/193 151/228/194
f 151/228/194 10/227/193 152/229/195
f 151/228/194 152/229/195 145/230/196
f 145/230/196 152/229/195 146/231/197
f 145/230/196 146/231/197 140/232/198
f 140/232/198 146/231/197 139/233/199
f 139/233/199 146/231/197 152/229/195
f 139/233/199 152/229/195 138/234/200
f 138/234/200 152/229/195 137/235/201
f 137/235/201 152/229/195 10/227/193
f 98/220/187 97/236/202 141/221/188
f 141/221/188 97/236/202 147/237/203
f 141/221/188 147/237/203 148/238/204
f 148/238/204 147/237/203 95/239/205
f 148/238/204 95/239/205 149/225/191
f 149/225/191 95/239/205 10/227/193
f 97/236/202 96/240/206 147/237/203
f 147/237/203 96/240/206 95/239/205
f 95/239/205 2/241/10 10/227/193
f 33/242/36 32/222/39 140/232/198
f 140/232/198 32/222/39 145/230/196
f 149/225/191 142/223/189 148/238/204
f 148/238/204 142/223/189 141/221/188
f 145/230/196 32/222/39 144/243/207
f 144/243/207 32/222/39 143/224/190
f 144/243/207 143/224/190 150/226/192
f 151/228/194 145/230/196 144/243/207
f 151/228/194 144/243/207 150/226/192
f 58/244/77 108/245/150 156/246/208
f 156/246/208 108/245/150 107/247/151
f 156/246/208 107/247/151 155/248/209
f 155/248/209 107/247/151 53/249/70
f 155/248/209 53/249/70 104/250/146
f 155/248/209 104/250/146 157/251/210
f 157/251/210 104/250/146 103/252/144
f 157/251/210 103/252/144 153/253/211
f 153/253/211 103/252/144 30/254/41
f 153/253/211 154/255/212 157/251/210
f 157/251/210 154/255/212 158/256/213
f 157/251/210 158/256/213 155/248/209
f 155/248/209 158/256/213 156/246/208
f 154/255/212 58/257/77 158/256/213
f 158/256/213 58/258/77 156/246/208
f 160/259/214 55/260/75 161/261/215
f 161/261/215 55/260/75 126/262/177
f 161/261/215 126/262/177 163/263/216
f 163/263/216 126/262/177 125/264/175
f 163/263/216 125/264/175 114/265/163
f 114/265/163 125/264/175 64/266/83
f 114/265/163 113/267/161 163/263/216
f 163/263/216 113/267/161 164/268/217
f 163/263/216 164/268/217 161/261/215
f 161/261/215 164/268/217 162/269/218
f 161/261/215 162/269/218 160/259/214
f 160/259/214 162/269/218 159/270/219
f 159/270/219 162/269/218 60/271/80
f 113/267/161 60/272/80 164/268/217
f 164/268/217 60/273/80 162/269/218
f 20/274/220 166/275/221 21/276/222
f 21/276/222 166/275/221 167/277/223
f 21/276/222 167/277/223 169/278/224
f 169/278/224 167/277/223 174/279/225
f 169/278/224 174/279/225 175/280/226
f 175/280/226 174/279/225 168/281/227
f 175/280/226 168/281/227 50/282/64
f 50/282/64 168/281/227 47/283/63
f 166/275/221 20/274/220 165/284/228
f 165/284/228 20/274/220 19/285/229
f 165/284/228 19/285/229 8/286/8
f 8/286/8 19/285/229 5/287/7
f 167/277/223 168/281/227 174/279/225
f 134/288/230 178/289/231 50/282/64
f 50/282/64 178/289/231 177/290/232
f 50/282/64 177/290/232 176/291/233
f 176/291/233 177/290/232 171/292/234
f 176/291/233 171/292/234 170/293/235
f 170/293/235 171/292/234 21/276/222
f 170/293/235 21/276/222 169/278/224
f 134/288/230 133/294/236 178/289/231
f 178/289/231 133/294/236 173/295/237
f 178/289/231 173/295/237 172/296/238
f 172/296/238 173/295/237 14/297/239
f 172/296/238 14/297/239 171/292/234
f 171/292/234 14/297/239 21/276/222
f 173/295/237 133/294/236 14/297/239
f 14/297/239 133/294/236 132/298/240
f 14/297/239 132/298/240 15/299/241
f 15/299/241 132/298/240 131/300/242
f 15/299/241 131/300/242 16/301/243
f 16/301/243 131/300/242 37/302/244
f 16/301/243 37/302/244 9/303/245
f 176/291/233 170/293/235 175/280/226
f 175/280/226 170/293/235 169/278/224
f 178/289/231 172/296/238 177/290/232
f 177/290/232 172/296/238 171/292/234
f 50/282/64 176/291/233 175/280/226
f 46/304/60 179/305/246 184/306/247
f 184/306/247 179/305/246 180/307/248
f 184/306/247 180/307/248 183/308/249
f 183/308/249 180/307/248 41/309/55
f 183/308/249 41/309/55 130/310/250
f 183/308/249 130/310/250 185/311/251
f 185/311/251 130/310/250 129/312/178
f 185/311/251 129/312/178 181/313/252
f 181/313/252 129/312/178 49/314/62
f 181/313/252 182/315/253 185/311/251
f 185/311/251 182/315/253 186/316/254
f 185/311/251 186/316/254 183/308/249
f 183/308/249 186/316/254 184/306/247
f 182/315/253 46/317/60 186/316/254
f 186/316/254 46/318/60 184/306/247
f 33/319/36 140/320/255 34/321/38
f 34/321/38 140/320/255 190/322/256
f 190/322/256 140/320/255 139/323/257
f 190/322/256 139/323/257 189/324/258
f 189/324/258 139/323/257 138/325/259
f 189/324/258 138/325/259 188/326/260
f 188/326/260 138/325/259 137/327/261
f 188/326/260 137/327/261 187/328/262
f 187/328/262 137/327/261 10/329/263
f 187/328/262 10/329/263 38/330/264
f 154/331/265 193/332/266 58/333/267
f 58/333/267 193/332/266 194/334/268
f 58/333/267 194/334/268 195/335/269
f 195/335/269 194/334/268 200/336/270
f 195/335/269 200/336/270 201/337/271
f 201/337/271 200/336/270 29/338/42
f 201/337/271 29/338/42 202/339/272
f 202/339/272 29/338/42 191/340/273
f 202/339/272 191/340/273 197/341/274
f 197/341/274 191/340/273 192/342/275
f 197/341/274 192/342/275 59/343/78
f 193/332/266 154/331/265 198/344/276
f 198/344/276 154/331/265 153/345/277
f 198/344/276 153/345/277 30/346/41
f 29/338/42 200/336/270 30/346/41
f 30/346/41 200/336/270 199/347/278
f 30/346/41 199/347/278 198/344/276
f 198/344/276 199/347/278 193/332/266
f 58/333/267 195/335/269 59/343/78
f 59/343/78 195/335/269 196/348/279
f 59/343/78 196/348/279 197/341/274
f 197/341/274 196/348/279 202/339/272
f 200/336/270 194/334/268 199/347/278
f 199/347/278 194/334/268 193/332/266
f 202/339/272 196/348/279 201/337/271
f 201/337/271 196/348/279 195/335/269
f 160/349/214 205/350/280 55/351/75
f 55/351/75 205/350/280 206/352/281
f 55/351/75 206/352/281 56/353/73
f 56/353/73 206/352/281 204/354/282
f 204/354/282 206/352/281 203/355/283
f 203/355/283 206/352/281 208/356/284
f 203/355/283 208/356/284 59/357/78
f 59/357/78 208/356/284 207/358/285
f 59/357/78 207/358/285 60/359/80
f 60/359/80 207/358/285 159/360/219
f 159/360/219 207/358/285 160/349/214
f 160/349/214 207/358/285 205/350/280
f 208/356/284 206/352/281 205/350/280
f 208/356/284 205/350/280 207/358/285
f 48/361/61 47/362/63 211/363/286
f 211/363/286 47/362/63 168/364/287
f 211/363/286 168/364/287 167/365/288
f 211/363/286 167/365/288 212/366/289
f 212/366/289 167/365/288 166/367/290
f 212/366/289 166/367/290 165/368/291
f 8/369/51 40/370/52 165/368/291
f 165/368/291 40/370/52 212/366/289
f 40/370/52 209/371/292 212/366/289
f 212/366/289 209/371/292 211/363/286
f 209/371/292 210/372/293 211/363/286
f 211/363/286 210/372/293 48/361/61
f 182/373/294 215/374/295 46/375/296
f 46/375/296 215/374/295 216/376/297
f 46/375/296 216/376/297 217/377/298
f 217/377/298 216/376/297 222/378/299
f 217/377/298 222/378/299 223/379/300
f 223/379/300 222/378/299 48/380/61
f 223/379/300 48/380/61 224/381/301
f 224/381/301 48/380/61 213/382/302
f 224/381/301 213/382/302 219/383/303
f 219/383/303 213/382/302 214/384/304
f 219/383/303 214/384/304 43/385/59
f 215/374/295 182/373/294 220/386/305
f 220/386/305 182/373/294 181/387/306
f 220/386/305 181/387/306 49/388/62
f 48/380/61 222/378/299 49/388/62
f 49/388/62 222/378/299 221/389/307
f 49/388/62 221/389/307 220/386/305
f 220/386/305 221/389/307 215/374/295
f 46/375/296 217/377/298 43/385/59
f 43/385/59 217/377/298 218/390/308
f 43/385/59 218/390/308 219/383/303
f 219/383/303 218/390/308 224/381/301
f 222/378/299 216/376/297 221/389/307
f 221/389/307 216/376/297 215/374/295
f 224/381/301 218/390/308 223/379/300
f 223/379/300 218/390/308 217/377/298
f 180/391/248 227/392/309 41/393/55
f 41/393/55 227/392/309 228/394/310
f 41/393/55 228/394/310 42/395/53
f 42/395/53 228/394/310 226/396/311
f 226/396/311 228/394/310 225/397/312
f 225/397/312 228/394/310 230/398/313
f 225/397/312 230/398/313 45/399/58
f 45/399/58 230/398/313 229/400/314
f 45/399/58 229/400/314 46/401/60
f 46/401/60 229/400/314 179/402/246
f 179/402/246 229/400/314 180/391/248
f 180/391/248 229/400/314 227/392/309
f 230/398/313 228/394/310 227/392/309
f 230/398/313 227/392/309 229/400/314
f 35/403/37 34/404/38 233/405/315
f 233/405/315 34/404/38 190/406/316
f 233/405/315 190/406/316 189/407/317
f 233/405/315 189/407/317 234/408/318
f 234/408/318 189/407/317 188/409/319
f 234/408/318 188/409/319 187/410/320
f 38/411/321 42/412/53 187/410/320
f 187/410/320 42/412/53 234/408/318
f 42/412/53 231/413/322 234/408/318
f 234/408/318 231/413/322 233/405/315
f 231/413/322 232/414/323 233/405/315
f 233/405/315 232/414/323 35/403/37
f 56/415/73 204/416/282 238/417/324
f 238/417/324 204/416/282 203/418/283
f 238/417/324 203/418/283 237/419/325
f 237/419/325 203/418/283 59/420/78
f 237/419/325 59/420/78 192/421/326
f 237/419/325 192/421/326 239/422/327
f 239/422/327 192/421/326 191/423/273
f 239/422/327 191/423/273 235/424/328
f 235/424/328 191/423/273 29/425/42
f 235/424/328 236/426/329 239/422/327
f 239/422/327 236/426/329 240/427/330
f 239/422/327 240/427/330 237/419/325
f 237/419/325 240/427/330 238/417/324
f 236/426/329 56/428/73 240/427/330
f 240/427/330 56/429/73 238/417/324
f 43/430/59 214/431/304 244/432/331
f 244/432/331 214/431/304 213/433/302
f 244/432/331 213/433/302 243/434/332
f 243/434/332 213/433/302 48/435/61
f 243/434/332 48/435/61 210/436/293
f 243/434/332 210/436/293 245/437/333
f 245/437/333 210/436/293 209/438/292
f 245/437/333 209/438/292 241/439/334
f 241/439/334 209/438/292 40/440/52
f 241/439/334 242/441/335 245/437/333
f 245/437/333 242/441/335 246/442/336
f 245/437/333 246/442/336 243/434/332
f 243/434/332 246/442/336 244/432/331
f 242/441/335 43/443/59 246/442/336
f 246/442/336 43/444/59 244/432/331
f 248/445/337 35/446/37 249/447/338
f 249/447/338 35/446/37 232/448/323
f 249/447/338 232/448/323 251/449/339
f 251/449/339 232/448/323 231/450/322
f 251/449/339 231/450/322 226/451/311
f 226/451/311 231/450/322 42/452/53
f 226/451/311 225/453/312 251/449/339
f 251/449/339 225/453/312 252/454/340
f 251/449/339 252/454/340 249/447/338
f 249/447/338 252/454/340 250/455/341
f 249/447/338 250/455/341 248/445/337
f 248/445/337 250/455/341 247/456/342
f 247/456/342 250/455/341 45/457/58
f 225/453/312 45/458/58 252/454/340
f 252/454/340 45/459/58 250/455/341
f 236/460/343 257/461/344 56/462/73
f 56/462/73 257/461/344 256/463/345
f 56/462/73 256/463/345 52/464/346
f 257/461/344 236/460/343 258/465/347
f 258/465/347 236/460/343 235/466/328
f 258/465/347 235/466/328 29/467/42
f 29/467/42 28/468/43 258/465/347
f 258/465/347 28/468/43 253/469/348
f 258/465/347 253/469/348 254/470/349
f 258/465/347 254/470/349 257/461/344
f 257/461/344 254/470/349 255/471/350
f 257/461/344 255/471/350 256/463/345
f 242/472/335 261/473/351 43/474/59
f 43/474/59 261/473/351 262/475/352
f 43/474/59 262/475/352 44/476/57
f 44/476/57 262/475/352 260/477/353
f 260/477/353 262/475/352 259/478/354
f 259/478/354 262/475/352 264/479/355
f 259/478/354 264/479/355 39/480/50
f 39/480/50 264/479/355 263/481/356
f 39/480/50 263/481/356 40/482/52
f 40/482/52 263/481/356 241/483/334
f 241/483/334 263/481/356 242/472/335
f 242/472/335 263/481/356 261/473/351
f 264/479/355 262/475/352 261/473/351
f 264/479/355 261/473/351 263/481/356
f 248/484/357 267/485/358 35/486/37
f 35/486/37 267/485/358 268/487/359
f 35/486/37 268/487/359 269/488/360
f 269/488/360 268/487/359 274/489/361
f 269/488/360 274/489/361 275/490/362
f 275/490/362 274/489/361 44/491/57
f 275/490/362 44/491/57 276/492/363
f 276/492/363 44/491/57 265/493/364
f 276/492/363 265/493/364 271/494/365
f 271/494/365 265/493/364 266/495/366
f 271/494/365 266/495/366 36/496/35
f 267/485/358 248/484/357 272/497/367
f 272/497/367 248/484/357 247/498/368
f 272/497/367 247/498/368 45/499/369
f 44/491/57 274/489/361 45/499/369
f 45/499/369 274/489/361 273/500/370
f 45/499/369 273/500/370 272/497/367
f 272/497/367 273/500/370 267/485/358
f 35/486/37 269/488/360 36/496/35
f 36/496/35 269/488/360 270/501/371
f 36/496/35 270/501/371 271/494/365
f 271/494/365 270/501/371 276/492/363
f 274/489/361 268/487/359 273/500/370
f 273/500/370 268/487/359 267/485/358
f 276/492/363 270/501/371 275/490/362
f 275/490/362 270/501/371 269/488/360
f 52/502/65 256/503/372 18/504/66
f 18/504/66 256/503/372 280/505/373
f 280/505/373 256/503/372 255/506/374
f 280/505/373 255/506/374 279/507/375
f 279/507/375 255/506/374 254/508/376
f 279/507/375 254/508/376 278/509/377
f 278/509/377 254/508/376 253/510/378
f 278/509/377 253/510/378 277/511/379
f 277/511/379 253/510/378 28/512/43
f 277/511/379 28/512/43 27/513/380
f 282/514/381 36/515/382 283/516/383
f 283/516/383 36/515/382 266/517/384
f 283/516/383 266/517/384 285/518/385
f 285/518/385 266/517/384 265/519/386
f 285/518/385 265/519/386 260/520/353
f 260/520/353 265/519/386 44/521/57
f 260/520/353 259/522/387 285/518/385
f 285/518/385 259/522/387 286/523/388
f 285/518/385 286/523/388 283/516/383
f 283/516/383 286/523/388 284/524/389
f 283/516/383 284/524/389 282/514/381
f 282/514/381 284/524/389 281/525/390
f 281/525/390 284/524/389 39/526/50
f 259/522/387 39/527/50 286/523/388
f 286/523/388 39/528/50 284/524/389
f 280/529/391 291/530/392 18/531/393
f 18/531/393 291/530/392 292/532/394
f 18/531/393 292/532/394 293/533/395
f 293/533/395 292/532/394 299/534/396
f 293/533/395 299/534/396 300/535/397
f 300/535/397 299/534/396 26/536/34
f 300/535/397 26/536/34 301/537/398
f 301/537/398 26/536/34 302/538/399
f 301/537/398 302/538/399 295/539/400
f 295/539/400 302/538/399 296/540/401
f 295/539/400 296/540/401 290/541/402
f 290/541/402 296/540/401 289/542/403
f 289/542/403 296/540/401 288/543/404
f 288/543/404 296/540/401 302/538/399
f 288/543/404 302/538/399 287/544/405
f 287/544/405 302/538/399 26/536/34
f 280/529/391 279/545/406 291/530/392
f 291/530/392 279/545/406 278/546/407
f 291/530/392 278/546/407 297/547/408
f 297/547/408 278/546/407 277/548/409
f 297/547/408 277/548/409 298/549/410
f 298/549/410 277/548/409 26/536/34
f 298/549/410 26/536/34 299/534/396
f 277/548/409 27/550/40 26/536/34
f 6/551/411 18/531/393 290/541/402
f 290/541/402 18/531/393 294/552/412
f 290/541/402 294/552/412 295/539/400
f 295/539/400 294/552/412 301/537/398
f 294/552/412 18/531/393 293/533/395
f 297/547/408 298/549/410 291/530/392
f 291/530/392 298/549/410 292/532/394
f 298/549/410 299/534/396 292/532/394
f 301/537/398 294/552/412 300/535/397
f 300/535/397 294/552/412 293/533/395
f 282/553/381 307/554/413 36/555/35
f 36/555/35 307/554/413 306/556/414
f 36/555/35 306/556/414 25/557/33
f 307/554/413 282/553/381 308/558/415
f 308/558/415 282/553/381 281/559/416
f 308/558/415 281/559/416 39/560/50
f 39/560/50 7/561/49 308/558/415
f 308/558/415 7/561/49 303/562/417
f 308/558/415 303/562/417 304/563/418
f 304/563/418 305/564/419 308/558/415
f 308/558/415 305/564/419 307/554/413
f 305/564/419 306/556/414 307/554/413
f 7/565/6 6/566/420 303/567/421
f 303/567/421 6/566/420 290/568/422
f 303/567/421 290/568/422 304/569/423
f 304/569/423 290/568/422 289/570/424
f 304/569/423 289/570/424 305/571/425
f 305/571/425 289/570/424 288/572/426
f 305/571/425 288/572/426 306/573/427
f 306/573/427 288/572/426 287/574/428
f 306/573/427 287/574/428 25/575/33
f 25/575/33 287/574/428 26/576/429
# 308 vertices
# 576 texture params
# 429 normals
# 612 facets

# 1 groups
