# WaveFront *.obj file (generated by Autodesk ATF)

mtllib body168_visual.mtl

g Body168

v -27.280000 -2.639195 1.555043
v -27.281000 -2.639195 1.555043
v -27.281000 -2.587449 1.611905
v -27.281000 -2.521984 1.652221
v -27.281000 -2.447916 1.672837
v -27.281000 -2.371036 1.672145
v -27.281000 -2.297352 1.650196
v -27.280000 -2.297352 1.650196
v -27.280000 -2.371036 1.672145
v -27.280000 -2.447916 1.672837
v -27.280000 -2.521984 1.652221
v -27.280000 -2.587449 1.611905
v -27.281000 -2.655984 1.566467
v -27.280000 -2.655984 1.566467
v -27.280000 -2.600384 1.627561
v -27.280000 -2.530037 1.670863
v -27.280000 -2.450448 1.692987
v -27.280000 -2.367846 1.692201
v -27.280000 -2.288693 1.668566
v -27.281000 -2.288693 1.668566
v -27.281000 -2.367846 1.692201
v -27.281000 -2.450448 1.692987
v -27.281000 -2.530037 1.670863
v -27.281000 -2.600384 1.627561
v -27.280000 -2.540516 1.134360
v -27.281000 -2.540516 1.134360
v -27.281000 -2.460624 1.108937
v -27.281000 -2.376808 1.106991
v -27.281000 -2.295822 1.128678
v -27.281000 -2.224195 1.172250
v -27.281000 -2.167700 1.234196
v -27.280000 -2.167700 1.234196
v -27.280000 -2.224195 1.172250
v -27.280000 -2.295822 1.128678
v -27.280000 -2.376808 1.106991
v -27.280000 -2.460624 1.108937
v -27.281000 -2.531857 1.152730
v -27.280000 -2.531857 1.152730
v -27.280000 -2.457434 1.128993
v -27.280000 -2.379340 1.127140
v -27.280000 -2.303875 1.147320
v -27.280000 -2.237130 1.187906
v -27.280000 -2.184489 1.245621
v -27.281000 -2.184489 1.245621
v -27.281000 -2.237130 1.187906
v -27.281000 -2.303875 1.147320
v -27.281000 -2.379340 1.127140
v -27.281000 -2.457434 1.128993
v -27.280000 -2.542437 1.130286
v -27.281000 -2.542437 1.130286
v -27.281000 -2.489133 1.243361
v -27.280000 -2.489133 1.243361
v -27.281000 -2.597035 1.164296
v -27.281000 -2.643127 1.209163
v -27.281000 -2.678595 1.262825
v -27.281000 -2.701809 1.322815
v -27.281000 -2.711700 1.386374
v -27.281000 -2.707815 1.450581
v -27.281000 -2.690331 1.512483
v -27.281000 -2.660053 1.569236
v -27.281000 -2.286610 1.672985
v -27.281000 -2.223519 1.633834
v -27.281000 -2.171976 1.580387
v -27.281000 -2.135138 1.515918
v -27.281000 -2.115263 1.444376
v -27.281000 -2.113567 1.370144
v -27.281000 -2.130154 1.297769
v -27.281000 -2.164009 1.231685
v -27.281000 -2.267352 1.302008
v -27.281000 -2.242420 1.357368
v -27.281000 -2.237904 1.417915
v -27.281000 -2.254348 1.476362
v -27.281000 -2.289772 1.525671
v -27.281000 -2.339913 1.559910
v -27.281000 -2.556711 1.498913
v -27.281000 -2.581368 1.444620
v -27.281000 -2.586365 1.385200
v -27.281000 -2.571120 1.327552
v -27.281000 -2.537405 1.278369
v -27.280000 -2.164009 1.231685
v -27.280000 -2.660053 1.569236
v -27.280000 -2.556711 1.498913
v -27.280000 -2.286610 1.672985
v -27.280000 -2.130154 1.297769
v -27.280000 -2.113567 1.370144
v -27.280000 -2.115263 1.444376
v -27.280000 -2.135138 1.515918
v -27.280000 -2.171976 1.580387
v -27.280000 -2.223519 1.633834
v -27.280000 -2.697633 1.492285
v -27.280000 -2.711940 1.407851
v -27.280000 -2.701809 1.322815
v -27.280000 -3.400620 3.930815
v -27.280000 1.042638 5.121382
v -27.280000 0.987598 5.100666
v -27.280000 0.937656 5.069610
v -27.280000 0.894732 5.029408
v -27.280000 0.860477 4.981604
v -27.280000 0.836205 4.928036
v -27.280000 0.822851 4.870762
v -27.280000 0.820926 4.811983
v -27.280000 0.830506 4.753959
v -27.280000 0.851222 4.698918
v -27.280000 0.882278 4.648976
v -27.280000 0.922480 4.606052
v -27.280000 0.970284 4.571797
v -27.280000 1.023852 4.547525
v -27.280000 1.081126 4.534171
v -27.280000 1.139905 4.532247
v -27.280000 1.197930 4.541827
v -27.280000 1.252971 4.562543
v -27.280000 1.302913 4.593598
v -27.280000 1.345836 4.633801
v -27.280000 1.380092 4.681604
v -27.280000 1.404363 4.735173
v -27.280000 1.417718 4.792447
v -27.280000 1.419642 4.851225
v -27.280000 1.410062 4.909250
v -27.280000 2.031228 2.591028
v -27.280000 1.997484 2.669737
v -27.280000 1.942876 2.735705
v -27.280000 1.871855 2.783557
v -27.280000 1.870156 2.779952
v -27.280000 1.791209 2.805149
v -27.280000 1.708373 2.807494
v -27.280000 1.628127 2.786802
v -27.280000 1.556753 2.744693
v -27.280000 1.499835 2.684462
v -27.280000 1.496570 2.686685
v -27.280000 1.461225 2.620498
v -27.280000 1.443409 2.547612
v -27.280000 1.444237 2.472584
v -27.280000 1.463657 2.400108
v -27.280000 1.500454 2.334718
v -27.280000 1.552326 2.280505
v -27.280000 1.616028 2.240858
v -27.280000 1.617532 2.244047
v -27.280000 1.698139 2.220054
v -27.280000 1.782241 2.219681
v -27.280000 1.863059 2.242958
v -27.280000 1.934079 2.288008
v -27.280000 1.989576 2.351200
v -27.280000 1.992530 2.349191
v -27.280000 2.028154 2.425062
v -27.280000 2.041398 2.507828
v -27.280000 2.367692 1.335325
v -27.280000 -2.365344 0.067111
v -27.280000 -2.668065 1.244106
v -27.280000 -2.613457 1.178138
v -27.280000 -2.339913 1.559910
v -27.280000 -2.398875 1.574965
v -27.280000 -2.459428 1.568920
v -27.280000 -2.514249 1.542504
v -27.281000 1.010553 4.579446
v -27.280000 1.010553 4.579446
v -27.280000 1.084292 4.558970
v -27.280000 1.160817 4.559608
v -27.280000 1.234204 4.581310
v -27.280000 1.298769 4.622396
v -27.280000 1.349511 4.679683
v -27.281000 1.349511 4.679683
v -27.281000 1.298769 4.622396
v -27.281000 1.234204 4.581310
v -27.281000 1.160817 4.559608
v -27.281000 1.084292 4.558970
v -27.281000 1.244965 5.076716
v -27.280000 1.244965 5.076716
v -27.280000 1.178535 5.100364
v -27.280000 1.108274 5.106342
v -27.280000 1.038803 5.094256
v -27.280000 0.974689 5.064901
v -27.280000 0.920148 5.020206
v -27.280000 0.878766 4.963111
v -27.281000 0.878766 4.963111
v -27.281000 0.920148 5.020206
v -27.281000 0.974689 5.064901
v -27.281000 1.038803 5.094256
v -27.281000 1.108274 5.106342
v -27.281000 1.178535 5.100364
v -27.281000 1.202295 4.986198
v -27.280000 1.202295 4.986198
v -27.281000 0.830506 4.753959
v -27.281000 0.820926 4.811983
v -27.281000 0.822851 4.870762
v -27.281000 0.836205 4.928036
v -27.281000 0.860477 4.981604
v -27.281000 0.894732 5.029408
v -27.281000 0.937656 5.069610
v -27.281000 0.987598 5.100666
v -27.281000 1.042638 5.121382
v -27.281000 1.100663 5.130962
v -27.281000 1.159442 5.129038
v -27.281000 1.216716 5.115683
v -27.281000 1.270284 5.091412
v -27.281000 1.318088 5.057156
v -27.281000 1.358290 5.014233
v -27.281000 1.389346 4.964291
v -27.281000 1.410062 4.909250
v -27.281000 1.419642 4.851225
v -27.281000 1.417718 4.792447
v -27.281000 1.404363 4.735173
v -27.281000 1.380092 4.681604
v -27.281000 1.345836 4.633801
v -27.281000 1.302913 4.593598
v -27.281000 1.252971 4.562543
v -27.281000 1.197930 4.541827
v -27.281000 1.139905 4.532247
v -27.281000 1.081126 4.534171
v -27.281000 1.023852 4.547525
v -27.281000 0.970284 4.571797
v -27.281000 0.922480 4.606052
v -27.281000 0.882278 4.648976
v -27.281000 0.851222 4.698918
v -27.281000 0.964563 4.911454
v -27.281000 0.947084 4.856639
v -27.281000 0.948326 4.799117
v -27.281000 0.968155 4.745107
v -27.281000 1.004428 4.700447
v -27.281000 1.053223 4.669963
v -27.281000 1.263714 4.731340
v -27.281000 1.288876 4.784680
v -27.281000 1.294890 4.843350
v -27.281000 1.281072 4.900686
v -27.281000 1.248993 4.950175
v -27.280000 0.964563 4.911454
v -27.280000 1.263714 4.731340
v -27.280000 -2.429304 1.226315
v -27.280000 -2.367293 1.231276
v -27.280000 -2.310934 1.257616
v -27.280000 -2.267352 1.302008
v -27.280000 1.053223 4.669963
v -27.280000 1.110704 4.656867
v -27.280000 1.169272 4.663601
v -27.280000 1.222281 4.689401
v -27.280000 1.380092 4.981604
v -27.280000 1.332416 5.043736
v -27.280000 1.270284 5.091412
v -27.280000 1.197930 5.121382
v -27.280000 1.120284 5.131604
v -27.280000 1.332416 5.199028
v -27.280000 1.517401 2.672509
v -27.281000 1.517401 2.672509
v -27.281000 1.570286 2.728314
v -27.281000 1.636553 2.767299
v -27.281000 1.711022 2.786415
v -27.281000 1.787872 2.784169
v -27.281000 1.861097 2.760736
v -27.280000 1.861097 2.760736
v -27.280000 1.787872 2.784169
v -27.280000 1.711022 2.786415
v -27.280000 1.636553 2.767299
v -27.280000 1.570286 2.728314
v -27.281000 1.499835 2.684462
v -27.281000 1.870156 2.779952
v -27.281000 1.791209 2.805149
v -27.281000 1.708373 2.807494
v -27.281000 1.628127 2.786802
v -27.281000 1.556753 2.744693
v -27.281000 1.617532 2.244047
v -27.281000 1.698139 2.220054
v -27.281000 1.782241 2.219681
v -27.281000 1.863059 2.242958
v -27.281000 1.934079 2.288008
v -27.281000 1.989576 2.351200
v -27.281000 1.626590 2.263263
v -27.280000 1.626590 2.263263
v -27.280000 1.701477 2.241035
v -27.280000 1.779592 2.240760
v -27.280000 1.854634 2.262461
v -27.280000 1.920546 2.304387
v -27.280000 1.972010 2.363154
v -27.281000 1.972010 2.363154
v -27.281000 1.920546 2.304387
v -27.281000 1.854634 2.262461
v -27.281000 1.779592 2.240760
v -27.281000 1.701477 2.241035
v -27.281000 1.616028 2.240858
v -27.281000 1.669332 2.353933
v -27.280000 1.669332 2.353933
v -27.281000 1.552326 2.280505
v -27.281000 1.500454 2.334718
v -27.281000 1.463657 2.400108
v -27.281000 1.444237 2.472584
v -27.281000 1.443409 2.547612
v -27.281000 1.461225 2.620498
v -27.281000 1.496570 2.686685
v -27.281000 1.871855 2.783557
v -27.281000 1.926453 2.749547
v -27.281000 1.972546 2.704680
v -27.281000 2.008014 2.651018
v -27.281000 2.031228 2.591028
v -27.281000 2.041051 2.528845
v -27.281000 2.037681 2.465980
v -27.281000 2.021267 2.405204
v -27.281000 1.992530 2.349191
v -27.281000 1.889157 2.419534
v -27.281000 1.911845 2.473502
v -27.281000 1.915464 2.531934
v -27.281000 1.899608 2.588289
v -27.281000 1.866052 2.636261
v -27.281000 1.818552 2.670482
v -27.281000 1.599942 2.616341
v -27.281000 1.572978 2.560733
v -27.281000 1.567024 2.499220
v -27.281000 1.582823 2.439474
v -27.281000 1.618405 2.388944
v -27.280000 1.599942 2.616341
v -27.280000 1.150029 5.004058
v -27.280000 1.094800 5.004739
v -27.280000 1.042109 4.988173
v -27.280000 0.997206 4.956010
v -27.280000 1.818552 2.670482
v -27.280000 1.760093 2.687387
v -27.280000 1.699380 2.683250
v -27.280000 1.643754 2.658574
v -27.280000 1.729668 2.338779
v -27.280000 1.791493 2.345690
v -27.280000 1.846994 2.373792
v -27.280000 1.889157 2.419534
v -27.080000 -2.581068 1.355167
v -27.080000 -2.553292 1.297163
v -27.080000 -2.506437 1.253109
v -27.080000 -2.446833 1.228956
v -27.080000 -2.382528 1.227965
v -27.080000 -2.322208 1.250272
v -27.080000 -2.274019 1.292861
v -27.080000 -2.244469 1.349983
v -27.080000 -2.237550 1.413922
v -27.080000 -2.254195 1.476043
v -27.080000 -2.292157 1.527956
v -27.080000 -2.346308 1.562650
v -27.080000 -2.409336 1.575440
v -27.080000 -2.472728 1.564597
v -27.080000 -2.527922 1.531587
v -27.080000 -2.567465 1.480868
v -27.080000 -2.586015 1.419289
v -27.080000 1.572413 2.468089
v -27.080000 1.600189 2.410084
v -27.080000 1.647044 2.366031
v -27.080000 1.706649 2.341878
v -27.080000 1.770953 2.340887
v -27.080000 1.831273 2.363193
v -27.080000 1.879462 2.405783
v -27.080000 1.909012 2.462905
v -27.080000 1.915931 2.526844
v -27.080000 1.899286 2.588965
v -27.080000 1.861324 2.640878
v -27.080000 1.807173 2.675572
v -27.080000 1.744145 2.688362
v -27.080000 1.680753 2.677519
v -27.080000 1.625559 2.644509
v -27.080000 1.586016 2.593790
v -27.080000 1.567466 2.532211
v -27.080000 0.951247 4.786311
v -27.080000 0.979024 4.728306
v -27.080000 1.025878 4.684253
v -27.080000 1.085483 4.660100
v -27.080000 1.149788 4.659109
v -27.080000 1.210108 4.681415
v -27.080000 1.258297 4.724005
v -27.080000 1.287846 4.781127
v -27.080000 1.294766 4.845066
v -27.080000 1.278120 4.907187
v -27.080000 1.240158 4.959100
v -27.080000 1.186007 4.993794
v -27.080000 1.122979 5.006584
v -27.080000 1.059587 4.995741
v -27.080000 1.004393 4.962731
v -27.080000 0.964850 4.912012
v -27.080000 0.946300 4.850433
v -27.080000 -2.365344 0.067111
v -27.080000 -3.400620 3.930815
v -27.080000 2.367692 1.335325
v -27.080000 1.332416 5.199028
vt -0.000000 0.627471 0.000000
vt -0.000000 0.550335 0.000000
vt 0.001000 0.627471 0.000000
vt 0.001000 0.550335 0.000000
vt -0.000000 0.473200 0.000000
vt 0.001000 0.473200 0.000000
vt -0.000000 0.396064 0.000000
vt 0.001000 0.396064 0.000000
vt -0.000000 0.318928 0.000000
vt 0.001000 0.318928 0.000000
vt -0.000000 0.241792 0.000000
vt 0.001000 0.241792 0.000000
vt -0.001000 0.673819 0.000000
vt -0.001000 0.590941 0.000000
vt 0.000000 0.673819 0.000000
vt 0.000000 0.590941 0.000000
vt -0.001000 0.508063 0.000000
vt 0.000000 0.508063 0.000000
vt -0.001000 0.425185 0.000000
vt 0.000000 0.425185 0.000000
vt -0.001000 0.342307 0.000000
vt 0.000000 0.342307 0.000000
vt -0.001000 0.259429 0.000000
vt 0.000000 0.259429 0.000000
vt -0.000000 -0.674221 0.000000
vt -0.000000 -0.590097 0.000000
vt -0.001000 -0.674221 0.000000
vt -0.001000 -0.590097 0.000000
vt -0.000000 -0.505974 0.000000
vt -0.001000 -0.505974 0.000000
vt -0.000000 -0.421850 0.000000
vt -0.001000 -0.421850 0.000000
vt -0.000000 -0.337727 0.000000
vt -0.001000 -0.337727 0.000000
vt -0.000000 -0.253604 0.000000
vt -0.001000 -0.253604 0.000000
vt 0.001000 -0.628059 0.000000
vt 0.001000 -0.549678 0.000000
vt 0.000000 -0.628059 0.000000
vt 0.000000 -0.549678 0.000000
vt 0.001000 -0.471297 0.000000
vt 0.000000 -0.471297 0.000000
vt 0.001000 -0.392916 0.000000
vt 0.000000 -0.392916 0.000000
vt 0.001000 -0.314534 0.000000
vt 0.000000 -0.314534 0.000000
vt 0.001000 -0.236153 0.000000
vt 0.000000 -0.236153 0.000000
vt 0.120505 -0.000000 0.000000
vt 0.125009 -0.000000 0.000000
vt 0.120505 0.001000 0.000000
vt 0.125009 0.001000 0.000000
vt 0.100196 0.001000 0.000000
vt 0.000000 0.001000 0.000000
vt 0.100196 -0.000000 0.000000
vt -0.000000 0.000000 0.000000
vt 0.011246 0.227217 0.000000
vt -0.032689 0.180235 0.000000
vt 0.014155 0.223779 0.000000
vt 0.027274 0.208276 0.000000
vt 0.093017 0.250466 0.000000
vt -0.065599 0.124967 0.000000
vt 0.054433 0.085482 0.000000
vt 0.091999 0.131791 0.000000
vt 0.034596 0.029249 0.000000
vt -0.085970 0.063954 0.000000
vt -0.092866 0.000000 0.000000
vt 0.034791 -0.030380 0.000000
vt -0.085970 -0.063954 0.000000
vt -0.065599 -0.124967 0.000000
vt 0.054997 -0.086482 0.000000
vt -0.032689 -0.180235 0.000000
vt 0.027719 -0.208109 0.000000
vt 0.014459 -0.223490 0.000000
vt 0.092419 -0.249641 0.000000
vt 0.083977 -0.268111 0.000000
vt 0.166089 -0.271639 0.000000
vt 0.163135 -0.291731 0.000000
vt 0.242968 -0.272384 0.000000
vt 0.245737 -0.292502 0.000000
vt 0.325322 -0.270363 0.000000
vt 0.011246 -0.227217 0.000000
vt 0.317049 -0.251816 0.000000
vt 0.395661 -0.227048 0.000000
vt 0.382542 -0.211545 0.000000
vt 0.449625 -0.176631 0.000000
vt 0.357634 -0.089301 0.000000
vt 0.485578 -0.111664 0.000000
vt 0.379089 -0.032503 0.000000
vt 0.504475 -0.039858 0.000000
vt 0.379846 0.028207 0.000000
vt 0.505156 0.034390 0.000000
vt 0.487582 0.106532 0.000000
vt 0.398816 -0.230777 0.000000
vt 0.359813 0.085523 0.000000
vt 0.452828 0.172147 0.000000
vt 0.321402 0.132543 0.000000
vt 0.386848 0.208456 0.000000
vt 0.400108 0.223837 0.000000
vt 0.321063 0.250580 0.000000
vt 0.329505 0.269050 0.000000
vt 0.246087 0.272507 0.000000
vt 0.249041 0.292599 0.000000
vt 0.165202 0.292587 0.000000
vt 0.403023 0.227217 0.000000
vt 0.167971 0.272468 0.000000
vt 0.084745 0.269013 0.000000
vt 0.318063 -0.135350 0.000000
vt 0.092866 -0.132543 0.000000
vt 0.004464 0.001000 0.000000
vt -0.000000 0.001000 0.000000
vt 0.004464 0.000000 0.000000
vt 0.000000 0.000000 0.000000
vt 0.004921 0.001000 0.000000
vt 0.000000 0.001000 0.000000
vt 0.004921 -0.000000 0.000000
vt 0.000000 0.000000 0.000000
vt 0.025229 -0.000000 0.000000
vt 0.125000 -0.000000 0.000000
vt 0.025229 0.001000 0.000000
vt 0.125000 0.001000 0.000000
vt 0.120124 0.000000 0.000000
vt 0.125009 0.000000 0.000000
vt 0.120124 0.001000 0.000000
vt 0.125009 0.001000 0.000000
vt 2.342979 -0.923779 0.000000
vt 2.272389 -0.969013 0.000000
vt 2.345888 -0.927217 0.000000
vt 2.450000 -2.000000 0.000000
vt 2.402104 -0.862614 0.000000
vt 2.437777 -0.784761 0.000000
vt 2.450000 -0.700000 0.000000
vt 2.191932 -0.992587 0.000000
vt 2.108093 -0.992599 0.000000
vt 2.027629 -0.969050 0.000000
vt 1.957026 -0.923837 0.000000
vt 1.954112 -0.927217 0.000000
vt 1.904306 -0.872147 0.000000
vt -1.907047 -0.875994 0.000000
vt -1.958318 -0.930777 0.000000
vt -2.450000 -2.000000 0.000000
vt -2.032246 -0.972124 0.000000
vt -2.113386 -0.994251 0.000000
vt -1.870974 -0.810202 0.000000
vt 1.869552 -0.806532 0.000000
vt -1.852355 -0.737516 0.000000
vt 1.851978 -0.734390 0.000000
vt -1.852355 -0.662484 0.000000
vt 1.852660 -0.660142 0.000000
vt -1.870974 -0.589798 0.000000
vt 1.871556 -0.588336 0.000000
vt -1.907047 -0.524006 0.000000
vt 1.907510 -0.523369 0.000000
vt -1.900559 1.533329 0.000000
vt 1.958318 -0.469223 0.000000
vt -1.872836 1.585195 0.000000
vt 2.450000 2.000000 0.000000
vt -1.855764 1.641473 0.000000
vt -1.850000 1.700000 0.000000
vt -1.855764 1.758527 0.000000
vt -1.872836 1.814805 0.000000
vt -1.900559 1.866671 0.000000
vt -1.937868 1.912132 0.000000
vt -1.983329 1.949441 0.000000
vt -2.035195 1.977164 0.000000
vt -2.091473 1.994236 0.000000
vt -2.150000 2.000000 0.000000
vt 1.961473 -0.472952 0.000000
vt 2.031812 -0.429637 0.000000
vt 2.111397 -0.407498 0.000000
vt 2.193999 -0.408269 0.000000
vt 2.273157 -0.431889 0.000000
vt 2.342675 -0.476510 0.000000
vt 2.345888 -0.472783 0.000000
vt 2.402104 -0.537386 0.000000
vt 2.437777 -0.615239 0.000000
vt -1.937868 1.487868 0.000000
vt -1.958318 -0.469223 0.000000
vt -1.983329 1.450559 0.000000
vt -2.031464 -0.428768 0.000000
vt -2.035195 1.422836 0.000000
vt -2.091473 1.405764 0.000000
vt -2.111305 -0.406567 0.000000
vt -2.150000 1.400000 0.000000
vt -2.194172 -0.407349 0.000000
vt -2.208527 1.405764 0.000000
vt -2.273579 -0.431053 0.000000
vt -2.264805 1.422836 0.000000
vt -2.316671 1.450559 0.000000
vt -2.345888 -0.472783 0.000000
vt -2.362132 1.487868 0.000000
vt -2.402104 -0.537386 0.000000
vt -2.399441 1.533329 0.000000
vt -2.427164 1.585195 0.000000
vt -2.437777 -0.615239 0.000000
vt -2.444236 1.641473 0.000000
vt -2.450000 -0.700000 0.000000
vt -2.450000 1.700000 0.000000
vt -2.343314 -0.475825 0.000000
vt -1.960897 -0.472215 0.000000
vt -1.960595 -0.928086 0.000000
vt -2.197474 -0.992685 0.000000
vt -2.277734 -0.967551 0.000000
vt -2.350028 -0.923581 0.000000
vt -2.347696 -0.920876 0.000000
vt -2.404076 -0.859515 0.000000
vt -2.438291 -0.782997 0.000000
vt 2.264715 -0.450359 0.000000
vt 2.152181 -0.525014 0.000000
vt 2.329415 -0.491891 0.000000
vt 2.211971 -0.536340 0.000000
vt 2.264268 -0.567457 0.000000
vt 2.191046 -0.428361 0.000000
vt 2.114166 -0.427616 0.000000
vt 2.040085 -0.448184 0.000000
vt 1.974592 -0.488455 0.000000
vt 2.092127 -0.534846 0.000000
vt 2.039071 -0.564650 0.000000
vt 0.001000 -0.616837 0.000000
vt 0.001000 -0.540060 0.000000
vt 0.000000 -0.616837 0.000000
vt 0.000000 -0.540060 0.000000
vt 0.001000 -0.463282 0.000000
vt 0.000000 -0.463282 0.000000
vt 0.001000 -0.386505 0.000000
vt 0.000000 -0.386505 0.000000
vt 0.001000 -0.309727 0.000000
vt 0.000000 -0.309727 0.000000
vt 0.001000 -0.232950 0.000000
vt 0.000000 -0.232950 0.000000
vt 0.001000 0.230570 0.000000
vt 0.001000 0.301279 0.000000
vt -0.000000 0.230570 0.000000
vt -0.000000 0.301279 0.000000
vt 0.001000 0.371988 0.000000
vt -0.000000 0.371988 0.000000
vt 0.001000 0.442697 0.000000
vt -0.000000 0.442697 0.000000
vt 0.001000 0.513407 0.000000
vt -0.000000 0.513407 0.000000
vt 0.001000 0.584116 0.000000
vt -0.000000 0.584116 0.000000
vt 0.001000 0.654825 0.000000
vt -0.000000 0.654825 0.000000
vt 0.100071 0.001000 0.000000
vt -0.000000 0.001000 0.000000
vt 0.100071 0.000000 0.000000
vt 0.000000 0.000000 0.000000
vt -0.500532 -0.058780 0.000000
vt -0.380803 -0.013379 0.000000
vt -0.506296 -0.000253 0.000000
vt -0.375629 0.043923 0.000000
vt -0.500532 0.058274 0.000000
vt -0.483460 0.114552 0.000000
vt -0.352151 0.096449 0.000000
vt -0.455737 0.166418 0.000000
vt -0.418428 0.211879 0.000000
vt -0.377552 0.214913 0.000000
vt -0.372967 0.249188 0.000000
vt -0.311625 0.253776 0.000000
vt -0.321101 0.276911 0.000000
vt -0.264823 0.293982 0.000000
vt -0.237542 0.272966 0.000000
vt -0.206296 0.299747 0.000000
vt -0.161039 0.270997 0.000000
vt -0.147769 0.293982 0.000000
vt -0.091491 0.276911 0.000000
vt -0.088040 0.248022 0.000000
vt -0.039625 0.249188 0.000000
vt -0.024200 0.205820 0.000000
vt 0.005836 0.211879 0.000000
vt 0.043145 0.166418 0.000000
vt -0.055594 0.088707 0.000000
vt 0.070868 0.114552 0.000000
vt -0.034600 0.033593 0.000000
vt 0.087940 0.058274 0.000000
vt 0.093704 -0.000253 0.000000
vt -0.033107 -0.025365 0.000000
vt 0.087940 -0.058780 0.000000
vt 0.070868 -0.115058 0.000000
vt -0.051285 -0.081471 0.000000
vt 0.043145 -0.166924 0.000000
vt -0.087068 -0.128353 0.000000
vt -0.022424 -0.204743 0.000000
vt -0.367115 -0.069262 0.000000
vt -0.483460 -0.115058 0.000000
vt -0.455737 -0.166924 0.000000
vt -0.405548 -0.189788 0.000000
vt -0.418428 -0.212385 0.000000
vt -0.372967 -0.249694 0.000000
vt -0.350799 -0.234227 0.000000
vt -0.321101 -0.277417 0.000000
vt -0.286549 -0.263283 0.000000
vt -0.264823 -0.294489 0.000000
vt -0.217022 -0.275044 0.000000
vt -0.206296 -0.300253 0.000000
vt -0.146790 -0.268738 0.000000
vt -0.147769 -0.294489 0.000000
vt -0.091491 -0.277417 0.000000
vt -0.080470 -0.244779 0.000000
vt -0.039625 -0.249694 0.000000
vt 0.005836 -0.212385 0.000000
vt -0.336044 -0.117686 0.000000
vt -0.312908 0.138523 0.000000
vt -0.093704 0.133717 0.000000
vt 0.025022 -0.000000 0.000000
vt 0.125169 -0.000000 0.000000
vt 0.025022 0.001000 0.000000
vt 0.125169 0.001000 0.000000
vt 0.025022 0.000000 0.000000
vt 0.125169 0.000000 0.000000
vt 0.025022 0.001000 0.000000
vt 0.125169 0.001000 0.000000
vt 2.036071 -0.950580 0.000000
vt 2.150574 -0.874999 0.000000
vt 1.970286 -0.908456 0.000000
vt 2.089319 -0.864143 0.000000
vt 2.035732 -0.832543 0.000000
vt 2.111047 -0.972507 0.000000
vt 2.189163 -0.972468 0.000000
vt 2.264117 -0.950466 0.000000
vt 2.329860 -0.908277 0.000000
vt 2.211757 -0.863741 0.000000
vt 2.265135 -0.831791 0.000000
vt -2.268256 1.451725 0.000000
vt -2.153836 1.525042 0.000000
vt -2.332096 1.493927 0.000000
vt -2.211716 1.536244 0.000000
vt -2.262592 1.566030 0.000000
vt -2.195257 1.428750 0.000000
vt -2.118754 1.426781 0.000000
vt -2.044671 1.445971 0.000000
vt -1.978745 1.484834 0.000000
vt -2.095521 1.533696 0.000000
vt -2.043388 1.561223 0.000000
vt -2.450000 1.700000 0.000000
vt -2.439778 1.777646 0.000000
vt -2.450000 2.000000 0.000000
vt -2.409808 1.850000 0.000000
vt -2.362132 1.912132 0.000000
vt -2.300000 1.959808 0.000000
vt -2.227646 1.989778 0.000000
vt -2.150000 2.000000 0.000000
vt -0.000000 0.621915 0.000000
vt -0.000000 0.544779 0.000000
vt 0.001000 0.621915 0.000000
vt 0.001000 0.544779 0.000000
vt -0.000000 0.467643 0.000000
vt 0.001000 0.467643 0.000000
vt -0.000000 0.390507 0.000000
vt 0.001000 0.390507 0.000000
vt -0.000000 0.313371 0.000000
vt 0.001000 0.313371 0.000000
vt -0.000000 0.236235 0.000000
vt 0.001000 0.236235 0.000000
vt -0.001000 0.670398 0.000000
vt -0.001000 0.587255 0.000000
vt 0.000000 0.670398 0.000000
vt 0.000000 0.587255 0.000000
vt -0.001000 0.504112 0.000000
vt 0.000000 0.504112 0.000000
vt -0.001000 0.420970 0.000000
vt 0.000000 0.420970 0.000000
vt -0.001000 0.337827 0.000000
vt 0.000000 0.337827 0.000000
vt -0.001000 0.254684 0.000000
vt 0.000000 0.254684 0.000000
vt -0.000000 -0.670790 0.000000
vt -0.000000 -0.586402 0.000000
vt -0.001000 -0.670790 0.000000
vt -0.001000 -0.586402 0.000000
vt -0.000000 -0.502014 0.000000
vt -0.001000 -0.502014 0.000000
vt -0.000000 -0.417627 0.000000
vt -0.001000 -0.417627 0.000000
vt -0.000000 -0.333239 0.000000
vt -0.001000 -0.333239 0.000000
vt -0.000000 -0.248851 0.000000
vt -0.001000 -0.248851 0.000000
vt 0.001000 -0.622502 0.000000
vt 0.001000 -0.544121 0.000000
vt 0.000000 -0.622502 0.000000
vt 0.000000 -0.544121 0.000000
vt 0.001000 -0.465740 0.000000
vt 0.000000 -0.465740 0.000000
vt 0.001000 -0.387359 0.000000
vt 0.000000 -0.387359 0.000000
vt 0.001000 -0.308978 0.000000
vt 0.000000 -0.308978 0.000000
vt 0.001000 -0.230596 0.000000
vt 0.000000 -0.230596 0.000000
vt 0.121484 -0.000000 0.000000
vt 0.125009 -0.000000 0.000000
vt 0.121484 0.001000 0.000000
vt 0.125009 0.001000 0.000000
vt 0.100240 0.001000 0.000000
vt 0.000000 0.001000 0.000000
vt 0.100240 -0.000000 0.000000
vt -0.000000 0.000000 0.000000
vt 0.013337 0.230777 0.000000
vt -0.037934 0.175994 0.000000
vt 0.015614 0.228086 0.000000
vt 0.029337 0.211869 0.000000
vt 0.087266 0.272124 0.000000
vt 0.095920 0.252722 0.000000
vt 0.168405 0.294251 0.000000
vt 0.171302 0.273205 0.000000
vt 0.252494 0.292685 0.000000
vt 0.249403 0.271665 0.000000
vt 0.332753 0.267551 0.000000
vt 0.323921 0.248228 0.000000
vt 0.402715 0.220876 0.000000
vt 0.388841 0.204783 0.000000
vt 0.447303 0.176915 0.000000
vt 0.323404 0.128880 0.000000
vt 0.359287 0.082623 0.000000
vt 0.053960 0.088352 0.000000
vt -0.074007 0.110202 0.000000
vt 0.032668 0.030335 0.000000
vt -0.092626 0.037516 0.000000
vt -0.092626 -0.037516 0.000000
vt 0.032871 -0.031465 0.000000
vt -0.074007 -0.110202 0.000000
vt 0.054543 -0.089341 0.000000
vt -0.037934 -0.175994 0.000000
vt 0.029790 -0.211692 0.000000
vt 0.015916 -0.227785 0.000000
vt 0.086484 -0.271232 0.000000
vt 0.013337 -0.230777 0.000000
vt 0.095316 -0.251909 0.000000
vt 0.166324 -0.293434 0.000000
vt 0.169415 -0.272414 0.000000
vt 0.249191 -0.292651 0.000000
vt 0.246294 -0.271605 0.000000
vt 0.328598 -0.268947 0.000000
vt 0.319944 -0.249545 0.000000
vt 0.398333 -0.224175 0.000000
vt 0.384610 -0.207958 0.000000
vt 0.444843 -0.180235 0.000000
vt 0.320155 -0.131791 0.000000
vt 0.357179 -0.086442 0.000000
vt 0.477752 -0.124967 0.000000
vt 0.377176 -0.031420 0.000000
vt 0.498123 -0.063954 0.000000
vt 0.505019 -0.000000 0.000000
vt 0.400908 -0.227217 0.000000
vt 0.377905 0.027119 0.000000
vt 0.498414 0.062607 0.000000
vt 0.478888 0.122457 0.000000
vt 0.405048 0.223581 0.000000
vt 0.094981 -0.136075 0.000000
vt 0.094090 0.135350 0.000000
vt 0.003573 0.001000 0.000000
vt -0.000000 0.001000 0.000000
vt 0.003573 0.000000 0.000000
vt 0.000000 0.000000 0.000000
vt 0.003950 0.001000 0.000000
vt 0.000000 0.001000 0.000000
vt 0.003950 -0.000000 0.000000
vt 0.000000 0.000000 0.000000
vt 0.025197 -0.000000 0.000000
vt 0.125036 -0.000000 0.000000
vt 0.025197 0.001000 0.000000
vt 0.125036 0.001000 0.000000
vt 0.121023 0.000000 0.000000
vt 0.125009 0.000000 0.000000
vt 0.121023 0.001000 0.000000
vt 0.125009 0.001000 0.000000
vt -2.005497 1.933974 0.000000
vt -2.115011 1.871467 0.000000
vt -1.950748 1.889535 0.000000
vt -2.063314 1.852021 0.000000
vt -2.020252 1.817432 0.000000
vt -2.069747 1.963030 0.000000
vt -2.170194 1.873831 0.000000
vt -2.139274 1.974791 0.000000
vt -2.209506 1.968485 0.000000
vt -2.275826 1.944526 0.000000
vt -2.333872 1.904490 0.000000
vt -2.223366 1.858879 0.000000
vt -2.269229 1.828100 0.000000
vt -2.039961 -0.563925 0.000000
vt -1.974771 -0.488308 0.000000
vt -2.093212 -0.534470 0.000000
vt -2.040297 -0.448091 0.000000
vt -2.153329 -0.525032 0.000000
vt -2.114395 -0.427586 0.000000
vt -2.191275 -0.428395 0.000000
vt -2.264925 -0.450455 0.000000
vt -2.329590 -0.492042 0.000000
vt -2.213044 -0.536750 0.000000
vt -2.265135 -0.568209 0.000000
vt -0.001000 -0.257793 0.000000
vt 0.000000 -0.257793 0.000000
vt -0.001000 -0.193344 0.000000
vt -0.000000 -0.171862 0.000000
vt -0.001000 -0.128896 0.000000
vt -0.000000 -0.085931 0.000000
vt -0.001000 -0.064448 0.000000
vt -0.000000 0.000000 0.000000
vt -0.001000 -0.000000 0.000000
vt -0.001000 0.064448 0.000000
vt -0.000000 0.085931 0.000000
vt -0.001000 0.128896 0.000000
vt -0.000000 0.171862 0.000000
vt -0.001000 0.193344 0.000000
vt -0.000000 0.257793 0.000000
vt -0.001000 0.257793 0.000000
vt 0.000000 0.058905 0.000000
vt -0.001000 0.000000 0.000000
vt 0.000000 0.000000 0.000000
vt -0.001000 -0.058905 0.000000
vt 0.000000 -0.078540 0.000000
vt -0.001000 -0.117810 0.000000
vt 0.000000 -0.157080 0.000000
vt -0.001000 -0.176715 0.000000
vt -0.000000 -0.235619 0.000000
vt -0.001000 -0.235619 0.000000
vt -0.001000 -0.294524 0.000000
vt -0.001000 0.058905 0.000000
vt 0.000000 0.117810 0.000000
vt -0.001000 0.117810 0.000000
vt 0.000000 0.176715 0.000000
vt -0.001000 0.176715 0.000000
vt 0.000000 0.235619 0.000000
vt -0.001000 0.235619 0.000000
vt 0.000000 0.294524 0.000000
vt -0.001000 0.294524 0.000000
vt 0.000000 0.353429 0.000000
vt -0.001000 0.353429 0.000000
vt 0.000000 0.412334 0.000000
vt -0.001000 0.412334 0.000000
vt 0.000000 0.471239 0.000000
vt -0.001000 0.471239 0.000000
vt 0.000000 0.530144 0.000000
vt -0.001000 0.530144 0.000000
vt 0.000000 0.589049 0.000000
vt -0.001000 0.589049 0.000000
vt 0.000000 0.647953 0.000000
vt -0.001000 0.647953 0.000000
vt 0.000000 0.706858 0.000000
vt -0.001000 0.706858 0.000000
vt -0.000000 0.765763 0.000000
vt -0.001000 0.765763 0.000000
vt -0.000000 0.824668 0.000000
vt -0.001000 0.824668 0.000000
vt -0.000000 0.883573 0.000000
vt -0.001000 0.883573 0.000000
vt -0.000000 0.942478 0.000000
vt -0.001000 0.942478 0.000000
vt -0.001000 -0.942478 0.000000
vt -0.000000 -0.942478 0.000000
vt -0.000000 -0.883573 0.000000
vt -0.001000 -0.883573 0.000000
vt -0.000000 -0.824668 0.000000
vt -0.001000 -0.824668 0.000000
vt -0.000000 -0.765763 0.000000
vt -0.001000 -0.765763 0.000000
vt -0.000000 -0.706858 0.000000
vt -0.001000 -0.706858 0.000000
vt -0.000000 -0.647953 0.000000
vt -0.001000 -0.647953 0.000000
vt -0.000000 -0.589049 0.000000
vt -0.001000 -0.589049 0.000000
vt -0.000000 -0.530144 0.000000
vt -0.001000 -0.530144 0.000000
vt -0.000000 -0.471239 0.000000
vt -0.001000 -0.471239 0.000000
vt -0.001000 -0.412334 0.000000
vt -0.000000 -0.392699 0.000000
vt -0.001000 -0.353429 0.000000
vt -0.000000 -0.314159 0.000000
vt -2.268901 -0.948228 0.000000
vt -2.154936 -0.874930 0.000000
vt -2.333822 -0.904783 0.000000
vt -2.215819 -0.862151 0.000000
vt -2.268385 -0.828880 0.000000
vt -2.194384 -0.971665 0.000000
vt -2.116283 -0.973205 0.000000
vt -2.040900 -0.952722 0.000000
vt -2.093429 -0.865604 0.000000
vt -1.974318 -0.911869 0.000000
vt -2.039071 -0.835350 0.000000
vt 0.099779 0.001000 0.000000
vt -0.000000 0.001000 0.000000
vt 0.099779 0.000000 0.000000
vt 0.000000 0.000000 0.000000
vt 0.024820 0.000000 0.000000
vt 0.125036 0.000000 0.000000
vt 0.024820 0.001000 0.000000
vt 0.125036 0.001000 0.000000
vt -0.001000 -0.257793 0.000000
vt -0.000000 -0.257793 0.000000
vt -0.001000 -0.193344 0.000000
vt 0.000000 -0.171862 0.000000
vt -0.001000 -0.128896 0.000000
vt 0.000000 -0.085931 0.000000
vt -0.001000 -0.064448 0.000000
vt 0.000000 -0.000000 0.000000
vt -0.001000 -0.000000 0.000000
vt -0.001000 0.063071 0.000000
vt 0.000000 0.084094 0.000000
vt -0.001000 0.126141 0.000000
vt 0.000000 0.168188 0.000000
vt -0.001000 0.189212 0.000000
vt 0.000000 0.252283 0.000000
vt -0.001000 0.252283 0.000000
vt 0.099815 0.001000 0.000000
vt -0.000000 0.001000 0.000000
vt 0.099815 0.000000 0.000000
vt 0.000000 0.000000 0.000000
vt 0.024771 0.000000 0.000000
vt 0.125000 0.000000 0.000000
vt 0.024771 0.001000 0.000000
vt 0.125000 0.001000 0.000000
vt -0.000000 -0.263303 0.000000
vt 0.000000 -0.188860 0.000000
vt -0.001000 -0.263303 0.000000
vt -0.001000 -0.188860 0.000000
vt 0.000000 -0.114418 0.000000
vt -0.001000 -0.114418 0.000000
vt 0.000000 -0.039976 0.000000
vt -0.001000 -0.039976 0.000000
vt 0.000000 0.034466 0.000000
vt -0.001000 0.034466 0.000000
vt 0.000000 0.108908 0.000000
vt -0.001000 0.108908 0.000000
vt 0.000000 0.183350 0.000000
vt -0.001000 0.183350 0.000000
vt 0.000000 0.257793 0.000000
vt -0.001000 0.257793 0.000000
vt 0.100071 0.001000 0.000000
vt 0.000000 0.001000 0.000000
vt 0.100071 -0.000000 0.000000
vt -0.000000 0.000000 0.000000
vt 0.000000 -0.263303 0.000000
vt -0.000000 -0.188073 0.000000
vt -0.001000 -0.263303 0.000000
vt -0.001000 -0.188073 0.000000
vt -0.000000 -0.112844 0.000000
vt -0.001000 -0.112844 0.000000
vt -0.000000 -0.037615 0.000000
vt -0.001000 -0.037615 0.000000
vt -0.000000 0.037615 0.000000
vt -0.001000 0.037615 0.000000
vt -0.000000 0.112844 0.000000
vt -0.001000 0.112844 0.000000
vt -0.000000 0.188073 0.000000
vt -0.001000 0.188073 0.000000
vt -0.000000 0.263303 0.000000
vt -0.001000 0.263303 0.000000
vt 0.200000 -0.485099 0.000000
vt -0.001000 -0.520392 0.000000
vt 0.200000 -0.549779 0.000000
vt 0.200000 0.549779 0.000000
vt -0.001000 0.579166 0.000000
vt -0.001000 0.519244 0.000000
vt 0.200000 0.485099 0.000000
vt -0.001000 0.459322 0.000000
vt 0.200000 0.420419 0.000000
vt -0.000000 0.399400 0.000000
vt 0.200000 0.355739 0.000000
vt -0.000000 0.338235 0.000000
vt 0.200000 0.291059 0.000000
vt -0.000000 0.277070 0.000000
vt 0.200000 0.226379 0.000000
vt -0.000000 0.215906 0.000000
vt 0.200000 0.161700 0.000000
vt -0.000000 0.154741 0.000000
vt 0.200000 0.097020 0.000000
vt -0.001000 0.154741 0.000000
vt -0.001000 0.093717 0.000000
vt -0.001000 -0.460470 0.000000
vt 0.200000 -0.420419 0.000000
vt -0.001000 -0.400548 0.000000
vt 0.000000 -0.400548 0.000000
vt 0.200000 -0.355739 0.000000
vt 0.000000 -0.338006 0.000000
vt 0.200000 -0.291059 0.000000
vt 0.000000 -0.275463 0.000000
vt 0.200000 -0.226379 0.000000
vt 0.000000 -0.212921 0.000000
vt 0.200000 -0.161700 0.000000
vt 0.000000 -0.150379 0.000000
vt 0.200000 -0.097020 0.000000
vt -0.001000 -0.089355 0.000000
vt 0.200000 -0.032340 0.000000
vt -0.001000 -0.028331 0.000000
vt 0.200000 0.032340 0.000000
vt -0.001000 0.032693 0.000000
vt -0.001000 0.399400 0.000000
vt -0.001000 -0.150379 0.000000
vt 0.200000 -0.485099 0.000000
vt -0.001000 -0.519290 0.000000
vt 0.200000 -0.549779 0.000000
vt 0.200000 0.549779 0.000000
vt -0.001000 0.580268 0.000000
vt -0.001000 0.518141 0.000000
vt 0.200000 0.485099 0.000000
vt -0.001000 0.456015 0.000000
vt 0.200000 0.420419 0.000000
vt -0.000000 0.393889 0.000000
vt 0.200000 0.355739 0.000000
vt -0.000000 0.332725 0.000000
vt 0.200000 0.291059 0.000000
vt -0.000000 0.271560 0.000000
vt 0.200000 0.226379 0.000000
vt -0.000000 0.210396 0.000000
vt 0.200000 0.161700 0.000000
vt -0.000000 0.149231 0.000000
vt 0.200000 0.097020 0.000000
vt -0.001000 0.149231 0.000000
vt -0.001000 0.090411 0.000000
vt -0.001000 -0.457164 0.000000
vt 0.200000 -0.420419 0.000000
vt -0.001000 -0.395038 0.000000
vt 0.000000 -0.395038 0.000000
vt 0.200000 -0.355739 0.000000
vt 0.000000 -0.332495 0.000000
vt 0.200000 -0.291059 0.000000
vt 0.000000 -0.269953 0.000000
vt 0.200000 -0.226379 0.000000
vt 0.000000 -0.207411 0.000000
vt 0.200000 -0.161700 0.000000
vt 0.000000 -0.144868 0.000000
vt 0.200000 -0.097020 0.000000
vt -0.001000 -0.086048 0.000000
vt 0.200000 -0.032340 0.000000
vt -0.001000 -0.027229 0.000000
vt 0.200000 0.032340 0.000000
vt -0.001000 0.031591 0.000000
vt -0.001000 0.393889 0.000000
vt -0.001000 -0.144868 0.000000
vt 0.200000 -0.485099 0.000000
vt -0.001000 -0.505120 0.000000
vt 0.200000 -0.549779 0.000000
vt 0.200000 0.549779 0.000000
vt -0.001000 0.594438 0.000000
vt -0.001000 0.536640 0.000000
vt 0.200000 0.485099 0.000000
vt -0.001000 0.478843 0.000000
vt 0.200000 0.420419 0.000000
vt -0.000000 0.421046 0.000000
vt -0.000000 0.365581 0.000000
vt -0.001000 -0.447323 0.000000
vt 0.200000 -0.420419 0.000000
vt -0.001000 -0.389526 0.000000
vt 0.000000 -0.389526 0.000000
vt 0.200000 -0.355739 0.000000
vt 0.000000 -0.330289 0.000000
vt 0.200000 -0.291059 0.000000
vt 0.000000 -0.271053 0.000000
vt 0.200000 -0.226379 0.000000
vt 0.000000 -0.211816 0.000000
vt 0.200000 -0.161700 0.000000
vt 0.000000 -0.152580 0.000000
vt 0.200000 -0.097020 0.000000
vt -0.001000 -0.093320 0.000000
vt 0.200000 -0.032340 0.000000
vt -0.001000 -0.034060 0.000000
vt -0.001000 0.025199 0.000000
vt 0.200000 0.032340 0.000000
vt -0.001000 0.084459 0.000000
vt 0.200000 0.097020 0.000000
vt -0.001000 0.143719 0.000000
vt -0.000000 0.143719 0.000000
vt 0.200000 0.161700 0.000000
vt -0.000000 0.199184 0.000000
vt 0.200000 0.226379 0.000000
vt -0.000000 0.254650 0.000000
vt 0.200000 0.291059 0.000000
vt -0.000000 0.310115 0.000000
vt 0.200000 0.355739 0.000000
vt -0.001000 0.421046 0.000000
vt -0.001000 -0.152580 0.000000
vt -0.000000 0.200000 0.000000
vt 0.000000 0.000000 0.000000
vt 1.300000 0.200000 0.000000
vt 4.000000 0.000000 0.000000
vt 4.000000 0.200000 0.000000
vt 0.000000 0.000000 0.000000
vt 4.900000 0.000000 0.000000
vt -0.000000 0.200000 0.000000
vt 4.900000 0.200000 0.000000
vt 4.000000 -0.000000 0.000000
vt 2.700000 0.200000 0.000000
vt 0.000000 0.000000 0.000000
vt 0.300000 0.200000 0.000000
vt 0.000000 0.200000 0.000000
vt 4.000000 0.200000 0.000000
vt 0.000000 0.200000 0.000000
vt 0.000000 0.000000 0.000000
vt 4.600000 0.200000 0.000000
vt 4.900000 -0.000000 0.000000
vt 4.900000 0.200000 0.000000
vt -2.450000 2.000000 0.000000
vt 2.071996 1.856654 0.000000
vt 2.450000 2.000000 0.000000
vt 2.133853 1.874253 0.000000
vt 2.197891 1.868319 0.000000
vt -2.450000 -2.000000 0.000000
vt -2.325000 -0.700000 0.000000
vt -2.313183 -0.636783 0.000000
vt -2.279327 -0.582103 0.000000
vt 2.450000 -2.000000 0.000000
vt 2.020673 -0.817897 0.000000
vt -2.001212 -0.792126 0.000000
vt -2.044539 -0.839653 0.000000
vt 2.322020 -0.667844 0.000000
vt 2.322020 -0.732156 0.000000
vt 2.298788 -0.792126 0.000000
vt -2.228004 -0.543346 0.000000
vt -2.166147 -0.525747 0.000000
vt -2.102109 -0.531681 0.000000
vt -2.044539 -0.560347 0.000000
vt 1.986817 1.636783 0.000000
vt 1.975000 1.700000 0.000000
vt 2.020673 1.582103 0.000000
vt -2.001212 -0.607874 0.000000
vt 2.020673 -0.582103 0.000000
vt 1.986817 -0.636783 0.000000
vt -1.977980 -0.667844 0.000000
vt 1.975000 -0.700000 0.000000
vt -1.977980 -0.732156 0.000000
vt 1.986817 -0.763217 0.000000
vt -2.102109 -0.868320 0.000000
vt -2.166147 -0.874253 0.000000
vt -2.228004 -0.856654 0.000000
vt -2.279327 -0.817897 0.000000
vt -2.313183 -0.763217 0.000000
vt 2.071996 -0.543346 0.000000
vt 2.071996 1.543346 0.000000
vt 2.133853 -0.525747 0.000000
vt 2.133853 1.525747 0.000000
vt 2.197891 -0.531681 0.000000
vt 2.197891 1.531681 0.000000
vt 2.255461 -0.560347 0.000000
vt 2.255461 1.560347 0.000000
vt 2.298788 -0.607874 0.000000
vt 2.298788 1.607874 0.000000
vt 2.322020 1.667844 0.000000
vt 2.322020 1.732156 0.000000
vt 2.298788 1.792126 0.000000
vt 2.255461 1.839653 0.000000
vt 2.255461 -0.839653 0.000000
vt 2.197891 -0.868320 0.000000
vt 2.133853 -0.874253 0.000000
vt 2.071996 -0.856654 0.000000
vt 1.986817 1.763217 0.000000
vt 2.020673 1.817897 0.000000
vn -0.000000 0.826419 -0.563056
vn -0.000000 0.638250 -0.769829
vn -0.000000 0.826419 -0.563056
vn -0.000000 0.638250 -0.769829
vn -0.000000 0.400194 -0.916430
vn -0.000000 0.400194 -0.916430
vn -0.000000 0.130858 -0.991401
vn -0.000000 0.130858 -0.991401
vn -0.000000 -0.148706 -0.988881
vn -0.000000 -0.148706 -0.988881
vn -0.000000 -0.416647 -0.909068
vn -0.000000 -0.416647 -0.909068
vn 0.000000 -0.826441 0.563024
vn 0.000000 -0.638160 0.769903
vn 0.000000 -0.826441 0.563024
vn 0.000000 -0.638160 0.769903
vn 0.000000 -0.399945 0.916539
vn 0.000000 -0.399945 0.916539
vn 0.000000 -0.130434 0.991457
vn 0.000000 -0.130434 0.991457
vn 0.000000 0.149283 0.988794
vn 0.000000 0.149283 0.988794
vn 0.000000 0.417319 0.908760
vn 0.000000 0.417319 0.908760
vn -0.000000 -0.435431 -0.900222
vn -0.000000 -0.164893 -0.986311
vn -0.000000 -0.435431 -0.900222
vn -0.000000 -0.164893 -0.986311
vn -0.000000 0.118935 -0.992902
vn -0.000000 0.118935 -0.992902
vn -0.000000 0.393177 -0.919463
vn -0.000000 0.393177 -0.919463
vn -0.000000 0.635728 -0.771913
vn -0.000000 0.635728 -0.771913
vn -0.000000 0.827038 -0.562146
vn -0.000000 0.827038 -0.562146
vn 0.000000 0.436096 0.899900
vn 0.000000 0.165469 0.986215
vn 0.000000 0.436096 0.899900
vn 0.000000 0.165469 0.986215
vn 0.000000 -0.118510 0.992953
vn 0.000000 -0.118510 0.992953
vn 0.000000 -0.392926 0.919570
vn 0.000000 -0.392926 0.919570
vn 0.000000 -0.635638 0.771987
vn 0.000000 -0.635638 0.771987
vn 0.000000 -0.827060 0.562114
vn 0.000000 -0.827060 0.562114
vn -0.000000 0.904536 -0.426396
vn -0.000000 0.904536 -0.426396
vn -0.000000 0.904536 -0.426396
vn -0.000000 0.904536 -0.426396
vn -0.000000 0.904536 -0.426396
vn -0.000000 0.904536 -0.426396
vn -0.000000 0.904536 -0.426396
vn -0.000000 0.904536 -0.426396
vn -1.000000 -0.000000 0.000000
vn -1.000000 -0.000000 0.000000
vn -1.000000 -0.000000 0.000000
vn -1.000000 -0.000000 0.000000
vn -1.000000 -0.000000 0.000000
vn -1.000000 -0.000000 0.000000
vn -1.000000 -0.000000 0.000000
vn -1.000000 -0.000000 0.000000
vn -1.000000 -0.000000 0.000000
vn -1.000000 -0.000000 0.000000
vn -1.000000 -0.000000 0.000000
vn -1.000000 -0.000000 0.000000
vn -1.000000 -0.000000 0.000000
vn -1.000000 -0.000000 0.000000
vn -1.000000 -0.000000 0.000000
vn -1.000000 -0.000000 0.000000
vn -1.000000 -0.000000 0.000000
vn -1.000000 -0.000000 0.000000
vn -1.000000 -0.000000 0.000000
vn -1.000000 -0.000000 0.000000
vn -1.000000 -0.000000 0.000000
vn -1.000000 -0.000000 0.000000
vn -1.000000 -0.000000 0.000000
vn -1.000000 -0.000000 0.000000
vn -1.000000 -0.000000 0.000000
vn -1.000000 -0.000000 0.000000
vn -1.000000 -0.000000 0.000000
vn -1.000000 -0.000000 0.000000
vn -1.000000 -0.000000 0.000000
vn -1.000000 -0.000000 0.000000
vn -1.000000 -0.000000 0.000000
vn -1.000000 -0.000000 0.000000
vn -1.000000 -0.000000 0.000000
vn -1.000000 -0.000000 0.000000
vn -1.000000 -0.000000 0.000000
vn -1.000000 -0.000000 0.000000
vn -1.000000 -0.000000 0.000000
vn -1.000000 -0.000000 0.000000
vn -1.000000 -0.000000 0.000000
vn -1.000000 -0.000000 0.000000
vn -1.000000 -0.000000 0.000000
vn -1.000000 -0.000000 0.000000
vn -1.000000 -0.000000 0.000000
vn -1.000000 -0.000000 0.000000
vn -1.000000 -0.000000 0.000000
vn -1.000000 -0.000000 0.000000
vn -1.000000 -0.000000 0.000000
vn -1.000000 -0.000000 0.000000
vn -1.000000 -0.000000 0.000000
vn -1.000000 -0.000000 0.000000
vn -1.000000 -0.000000 0.000000
vn -1.000000 -0.000000 0.000000
vn -1.000000 -0.000000 0.000000
vn 0.000000 -0.562585 -0.826740
vn 0.000000 -0.562585 -0.826740
vn 0.000000 -0.562585 -0.826740
vn 0.000000 -0.562585 -0.826740
vn -0.000000 0.562585 0.826740
vn -0.000000 0.562585 0.826740
vn -0.000000 0.562585 0.826740
vn -0.000000 0.562585 0.826740
vn -0.000000 0.562585 0.826740
vn -0.000000 0.562585 0.826740
vn -0.000000 0.562585 0.826740
vn -0.000000 0.562585 0.826740
vn 0.000000 -0.904536 0.426396
vn 0.000000 -0.904536 0.426396
vn 0.000000 -0.904536 0.426396
vn 0.000000 -0.904536 0.426396
vn -1.000000 -0.000000 0.000000
vn -1.000000 -0.000000 0.000000
vn -1.000000 -0.000000 0.000000
vn -1.000000 -0.000000 0.000000
vn -1.000000 -0.000000 0.000000
vn -1.000000 -0.000000 0.000000
vn -1.000000 -0.000000 0.000000
vn -1.000000 -0.000000 0.000000
vn -1.000000 -0.000000 0.000000
vn -1.000000 -0.000000 0.000000
vn -1.000000 -0.000000 0.000000
vn -1.000000 -0.000000 0.000000
vn -1.000000 -0.000000 0.000000
vn -1.000000 -0.000000 0.000000
vn -1.000000 -0.000000 0.000000
vn -1.000000 -0.000000 0.000000
vn -1.000000 -0.000000 0.000000
vn -1.000000 -0.000000 0.000000
vn -1.000000 -0.000000 0.000000
vn -1.000000 -0.000000 0.000000
vn -1.000000 -0.000000 0.000000
vn -1.000000 -0.000000 0.000000
vn -1.000000 -0.000000 0.000000
vn -1.000000 -0.000000 0.000000
vn -1.000000 -0.000000 0.000000
vn -1.000000 -0.000000 0.000000
vn -1.000000 -0.000000 0.000000
vn -1.000000 -0.000000 0.000000
vn -1.000000 -0.000000 0.000000
vn -1.000000 -0.000000 0.000000
vn -1.000000 -0.000000 0.000000
vn -1.000000 -0.000000 0.000000
vn -1.000000 -0.000000 0.000000
vn -1.000000 -0.000000 0.000000
vn -1.000000 -0.000000 0.000000
vn -1.000000 -0.000000 0.000000
vn -1.000000 -0.000000 0.000000
vn -1.000000 -0.000000 0.000000
vn -1.000000 -0.000000 0.000000
vn -1.000000 -0.000000 0.000000
vn -1.000000 -0.000000 0.000000
vn -1.000000 -0.000000 0.000000
vn -1.000000 -0.000000 0.000000
vn -1.000000 -0.000000 0.000000
vn -1.000000 -0.000000 0.000000
vn -1.000000 -0.000000 0.000000
vn -1.000000 -0.000000 0.000000
vn -1.000000 -0.000000 0.000000
vn -1.000000 -0.000000 0.000000
vn -1.000000 -0.000000 0.000000
vn -1.000000 -0.000000 0.000000
vn -1.000000 -0.000000 0.000000
vn -1.000000 -0.000000 0.000000
vn -1.000000 -0.000000 0.000000
vn -1.000000 -0.000000 0.000000
vn -1.000000 -0.000000 0.000000
vn -1.000000 -0.000000 0.000000
vn -1.000000 -0.000000 0.000000
vn -1.000000 -0.000000 0.000000
vn -1.000000 -0.000000 0.000000
vn -1.000000 -0.000000 0.000000
vn -1.000000 -0.000000 0.000000
vn -1.000000 -0.000000 0.000000
vn -1.000000 -0.000000 0.000000
vn -1.000000 -0.000000 0.000000
vn -1.000000 -0.000000 0.000000
vn -1.000000 -0.000000 0.000000
vn -1.000000 -0.000000 0.000000
vn -1.000000 -0.000000 0.000000
vn -1.000000 -0.000000 0.000000
vn -1.000000 -0.000000 0.000000
vn -1.000000 -0.000000 0.000000
vn -1.000000 -0.000000 0.000000
vn -1.000000 -0.000000 0.000000
vn -1.000000 -0.000000 0.000000
vn -1.000000 -0.000000 0.000000
vn -1.000000 -0.000000 0.000000
vn -1.000000 -0.000000 0.000000
vn -1.000000 -0.000000 0.000000
vn -1.000000 -0.000000 0.000000
vn -1.000000 -0.000000 0.000000
vn -1.000000 -0.000000 0.000000
vn -1.000000 -0.000000 0.000000
vn -1.000000 -0.000000 0.000000
vn -1.000000 -0.000000 0.000000
vn -1.000000 -0.000000 0.000000
vn -1.000000 -0.000000 0.000000
vn -1.000000 -0.000000 0.000000
vn -1.000000 -0.000000 0.000000
vn -1.000000 -0.000000 0.000000
vn -1.000000 -0.000000 0.000000
vn -1.000000 -0.000000 0.000000
vn -1.000000 -0.000000 0.000000
vn 0.000000 0.399022 0.916942
vn 0.000000 0.130882 0.991398
vn 0.000000 0.399022 0.916942
vn 0.000000 0.130882 0.991398
vn 0.000000 -0.147394 0.989078
vn 0.000000 -0.147394 0.989078
vn 0.000000 -0.414255 0.910161
vn 0.000000 -0.414255 0.910161
vn 0.000000 -0.649035 0.760759
vn 0.000000 -0.649035 0.760759
vn 0.000000 -0.833552 0.552441
vn 0.000000 -0.833552 0.552441
vn -0.000000 -0.453386 -0.891314
vn -0.000000 -0.211820 -0.977309
vn -0.000000 -0.453386 -0.891314
vn -0.000000 -0.211820 -0.977309
vn -0.000000 0.043674 -0.999046
vn -0.000000 0.043674 -0.999046
vn -0.000000 0.296296 -0.955096
vn -0.000000 0.296296 -0.955096
vn -0.000000 0.529437 -0.848350
vn -0.000000 0.529437 -0.848350
vn -0.000000 0.727767 -0.685824
vn -0.000000 0.727767 -0.685824
vn -0.000000 0.878247 -0.478207
vn -0.000000 0.878247 -0.478207
vn 0.000000 -0.904536 0.426396
vn 0.000000 -0.904536 0.426396
vn 0.000000 -0.904536 0.426396
vn 0.000000 -0.904536 0.426396
vn -1.000000 -0.000000 0.000000
vn -1.000000 -0.000000 0.000000
vn -1.000000 -0.000000 0.000000
vn -1.000000 -0.000000 0.000000
vn -1.000000 -0.000000 0.000000
vn -1.000000 -0.000000 0.000000
vn -1.000000 -0.000000 0.000000
vn -1.000000 -0.000000 0.000000
vn -1.000000 -0.000000 0.000000
vn -1.000000 -0.000000 0.000000
vn -1.000000 -0.000000 0.000000
vn -1.000000 -0.000000 0.000000
vn -1.000000 -0.000000 0.000000
vn -1.000000 -0.000000 0.000000
vn -1.000000 -0.000000 0.000000
vn -1.000000 -0.000000 0.000000
vn -1.000000 -0.000000 0.000000
vn -1.000000 -0.000000 0.000000
vn -1.000000 -0.000000 0.000000
vn -1.000000 -0.000000 0.000000
vn -1.000000 -0.000000 0.000000
vn -1.000000 -0.000000 0.000000
vn -1.000000 -0.000000 0.000000
vn -1.000000 -0.000000 0.000000
vn -1.000000 -0.000000 0.000000
vn -1.000000 -0.000000 0.000000
vn -1.000000 -0.000000 0.000000
vn -1.000000 -0.000000 0.000000
vn -1.000000 -0.000000 0.000000
vn -1.000000 -0.000000 0.000000
vn -1.000000 -0.000000 0.000000
vn -1.000000 -0.000000 0.000000
vn -1.000000 -0.000000 0.000000
vn -1.000000 -0.000000 0.000000
vn -1.000000 -0.000000 0.000000
vn -1.000000 -0.000000 0.000000
vn -1.000000 -0.000000 0.000000
vn -1.000000 -0.000000 0.000000
vn -1.000000 -0.000000 0.000000
vn -1.000000 -0.000000 0.000000
vn -1.000000 -0.000000 0.000000
vn -1.000000 -0.000000 0.000000
vn -1.000000 -0.000000 0.000000
vn -1.000000 -0.000000 0.000000
vn -1.000000 -0.000000 0.000000
vn -1.000000 -0.000000 0.000000
vn -1.000000 -0.000000 0.000000
vn -1.000000 -0.000000 0.000000
vn -1.000000 -0.000000 0.000000
vn -1.000000 -0.000000 0.000000
vn -1.000000 -0.000000 0.000000
vn -1.000000 -0.000000 0.000000
vn -1.000000 -0.000000 0.000000
vn -1.000000 -0.000000 0.000000
vn -1.000000 -0.000000 0.000000
vn -1.000000 -0.000000 0.000000
vn -1.000000 -0.000000 0.000000
vn 0.000000 0.515808 0.856704
vn 0.000000 0.515808 0.856704
vn 0.000000 0.515808 0.856704
vn 0.000000 0.515808 0.856704
vn -0.000000 -0.515808 -0.856704
vn -0.000000 -0.515808 -0.856704
vn -0.000000 -0.515808 -0.856704
vn -0.000000 -0.515808 -0.856704
vn -1.000000 -0.000000 0.000000
vn -1.000000 -0.000000 0.000000
vn -1.000000 -0.000000 0.000000
vn -1.000000 -0.000000 0.000000
vn -1.000000 -0.000000 0.000000
vn -1.000000 -0.000000 0.000000
vn -1.000000 -0.000000 0.000000
vn -1.000000 -0.000000 0.000000
vn -1.000000 -0.000000 0.000000
vn -1.000000 -0.000000 0.000000
vn -1.000000 -0.000000 0.000000
vn -1.000000 -0.000000 0.000000
vn -1.000000 -0.000000 0.000000
vn -1.000000 -0.000000 0.000000
vn -1.000000 -0.000000 0.000000
vn -1.000000 -0.000000 0.000000
vn -1.000000 -0.000000 0.000000
vn -1.000000 -0.000000 0.000000
vn -1.000000 -0.000000 0.000000
vn -1.000000 -0.000000 0.000000
vn -1.000000 -0.000000 0.000000
vn -1.000000 -0.000000 0.000000
vn -1.000000 -0.000000 0.000000
vn -1.000000 -0.000000 0.000000
vn -1.000000 -0.000000 0.000000
vn -1.000000 -0.000000 0.000000
vn -1.000000 -0.000000 0.000000
vn -1.000000 -0.000000 0.000000
vn -0.000000 0.814874 -0.579639
vn -0.000000 0.622565 -0.782568
vn -0.000000 0.814874 -0.579639
vn -0.000000 0.622565 -0.782568
vn -0.000000 0.381596 -0.924329
vn -0.000000 0.381596 -0.924329
vn -0.000000 0.110800 -0.993843
vn -0.000000 0.110800 -0.993843
vn -0.000000 -0.168657 -0.985675
vn -0.000000 -0.168657 -0.985675
vn -0.000000 -0.434930 -0.900464
vn -0.000000 -0.434930 -0.900464
vn 0.000000 -0.815736 0.578424
vn 0.000000 -0.623604 0.781740
vn 0.000000 -0.815736 0.578424
vn 0.000000 -0.623604 0.781740
vn 0.000000 -0.382673 0.923884
vn 0.000000 -0.382673 0.923884
vn 0.000000 -0.111797 0.993731
vn 0.000000 -0.111797 0.993731
vn 0.000000 0.167828 0.985816
vn 0.000000 0.167828 0.985816
vn 0.000000 0.434320 0.900759
vn 0.000000 0.434320 0.900759
vn -0.000000 -0.418440 -0.908244
vn -0.000000 -0.146340 -0.989234
vn -0.000000 -0.418440 -0.908244
vn -0.000000 -0.146340 -0.989234
vn -0.000000 0.137555 -0.990494
vn -0.000000 0.137555 -0.990494
vn -0.000000 0.410364 -0.911922
vn -0.000000 0.410364 -0.911922
vn -0.000000 0.650098 -0.759850
vn -0.000000 0.650098 -0.759850
vn -0.000000 0.837435 -0.546537
vn -0.000000 0.837435 -0.546537
vn 0.000000 0.417824 0.908528
vn 0.000000 0.145508 0.989357
vn 0.000000 0.417824 0.908528
vn 0.000000 0.145508 0.989357
vn 0.000000 -0.138549 0.990356
vn 0.000000 -0.138549 0.990356
vn 0.000000 -0.411426 0.911443
vn 0.000000 -0.411426 0.911443
vn 0.000000 -0.651106 0.758987
vn 0.000000 -0.651106 0.758987
vn 0.000000 -0.838249 0.545288
vn 0.000000 -0.838249 0.545288
vn -0.000000 0.904536 -0.426396
vn -0.000000 0.904536 -0.426396
vn -0.000000 0.904536 -0.426396
vn -0.000000 0.904536 -0.426396
vn -0.000000 0.904536 -0.426396
vn -0.000000 0.904536 -0.426396
vn -0.000000 0.904536 -0.426396
vn -0.000000 0.904536 -0.426396
vn -1.000000 -0.000000 0.000000
vn -1.000000 -0.000000 0.000000
vn -1.000000 -0.000000 0.000000
vn -1.000000 -0.000000 0.000000
vn -1.000000 -0.000000 0.000000
vn -1.000000 -0.000000 0.000000
vn -1.000000 -0.000000 0.000000
vn -1.000000 -0.000000 0.000000
vn -1.000000 -0.000000 0.000000
vn -1.000000 -0.000000 0.000000
vn -1.000000 -0.000000 0.000000
vn -1.000000 -0.000000 0.000000
vn -1.000000 -0.000000 0.000000
vn -1.000000 -0.000000 0.000000
vn -1.000000 -0.000000 0.000000
vn -1.000000 -0.000000 0.000000
vn -1.000000 -0.000000 0.000000
vn -1.000000 -0.000000 0.000000
vn -1.000000 -0.000000 0.000000
vn -1.000000 -0.000000 0.000000
vn -1.000000 -0.000000 0.000000
vn -1.000000 -0.000000 0.000000
vn -1.000000 -0.000000 0.000000
vn -1.000000 -0.000000 0.000000
vn -1.000000 -0.000000 0.000000
vn -1.000000 -0.000000 0.000000
vn -1.000000 -0.000000 0.000000
vn -1.000000 -0.000000 0.000000
vn -1.000000 -0.000000 0.000000
vn -1.000000 -0.000000 0.000000
vn -1.000000 -0.000000 0.000000
vn -1.000000 -0.000000 0.000000
vn -1.000000 -0.000000 0.000000
vn -1.000000 -0.000000 0.000000
vn -1.000000 -0.000000 0.000000
vn -1.000000 -0.000000 0.000000
vn -1.000000 -0.000000 0.000000
vn -1.000000 -0.000000 0.000000
vn -1.000000 -0.000000 0.000000
vn -1.000000 -0.000000 0.000000
vn -1.000000 -0.000000 0.000000
vn -1.000000 -0.000000 0.000000
vn -1.000000 -0.000000 0.000000
vn -1.000000 -0.000000 0.000000
vn -1.000000 -0.000000 0.000000
vn -1.000000 -0.000000 0.000000
vn -1.000000 -0.000000 0.000000
vn -1.000000 -0.000000 0.000000
vn -1.000000 -0.000000 0.000000
vn -1.000000 -0.000000 0.000000
vn -1.000000 -0.000000 0.000000
vn -1.000000 -0.000000 0.000000
vn -1.000000 -0.000000 0.000000
vn 0.000000 -0.562585 -0.826740
vn 0.000000 -0.562585 -0.826740
vn 0.000000 -0.562585 -0.826740
vn 0.000000 -0.562585 -0.826740
vn -0.000000 0.562585 0.826740
vn -0.000000 0.562585 0.826740
vn -0.000000 0.562585 0.826740
vn -0.000000 0.562585 0.826740
vn -0.000000 0.562585 0.826740
vn -0.000000 0.562585 0.826740
vn -0.000000 0.562585 0.826740
vn -0.000000 0.562585 0.826740
vn 0.000000 -0.904536 0.426396
vn 0.000000 -0.904536 0.426396
vn 0.000000 -0.904536 0.426396
vn 0.000000 -0.904536 0.426396
vn -1.000000 -0.000000 0.000000
vn -1.000000 -0.000000 0.000000
vn -1.000000 -0.000000 0.000000
vn -1.000000 -0.000000 0.000000
vn -1.000000 -0.000000 0.000000
vn -1.000000 -0.000000 0.000000
vn -1.000000 -0.000000 0.000000
vn -1.000000 -0.000000 0.000000
vn -1.000000 -0.000000 0.000000
vn -1.000000 -0.000000 0.000000
vn -1.000000 -0.000000 0.000000
vn -1.000000 -0.000000 0.000000
vn -1.000000 -0.000000 0.000000
vn -1.000000 -0.000000 0.000000
vn -1.000000 -0.000000 0.000000
vn -1.000000 -0.000000 0.000000
vn -1.000000 -0.000000 0.000000
vn -1.000000 -0.000000 0.000000
vn -1.000000 -0.000000 0.000000
vn -1.000000 -0.000000 0.000000
vn -1.000000 -0.000000 0.000000
vn -1.000000 -0.000000 0.000000
vn -1.000000 -0.000000 0.000000
vn -1.000000 -0.000000 0.000000
vn -0.000000 -0.434685 -0.900583
vn -0.000000 -0.434685 -0.900583
vn 0.000000 -0.616678 -0.787216
vn 0.000000 -0.671421 -0.741076
vn 0.000000 -0.770320 -0.637658
vn 0.000000 -0.853445 -0.521182
vn 0.000000 -0.888548 -0.458784
vn 0.000000 -0.965926 -0.258819
vn 0.000000 -0.965926 -0.258819
vn 0.000000 -0.998897 -0.046955
vn 0.000000 -0.999697 0.024634
vn 0.000000 -0.985945 0.167068
vn 0.000000 -0.952006 0.306080
vn 0.000000 -0.927667 0.373410
vn 0.000000 -0.826740 0.562585
vn 0.000000 -0.826740 0.562585
vn -0.000000 0.997859 0.065403
vn -0.000000 0.965926 0.258819
vn -0.000000 0.965926 0.258819
vn -0.000000 0.896873 0.442289
vn -0.000000 0.866025 0.500000
vn -0.000000 0.793353 0.608761
vn -0.000000 0.707107 0.707107
vn -0.000000 0.659346 0.751840
vn 0.000000 0.500000 0.866025
vn 0.000000 0.500000 0.866025
vn 0.000000 0.321439 0.946930
vn -0.000000 0.997859 0.065403
vn -0.000000 0.991445 -0.130526
vn -0.000000 0.991445 -0.130526
vn -0.000000 0.946930 -0.321439
vn -0.000000 0.946930 -0.321439
vn -0.000000 0.866025 -0.500000
vn -0.000000 0.866025 -0.500000
vn -0.000000 0.751840 -0.659346
vn -0.000000 0.751840 -0.659346
vn -0.000000 0.608761 -0.793353
vn -0.000000 0.608761 -0.793353
vn -0.000000 0.442289 -0.896873
vn -0.000000 0.442289 -0.896873
vn -0.000000 0.258819 -0.965926
vn -0.000000 0.258819 -0.965926
vn -0.000000 0.065403 -0.997859
vn -0.000000 0.065403 -0.997859
vn -0.000000 -0.130526 -0.991445
vn -0.000000 -0.130526 -0.991445
vn -0.000000 -0.321439 -0.946930
vn -0.000000 -0.321439 -0.946930
vn -0.000000 -0.500000 -0.866025
vn -0.000000 -0.500000 -0.866025
vn 0.000000 -0.659346 -0.751840
vn 0.000000 -0.659346 -0.751840
vn 0.000000 -0.793353 -0.608761
vn 0.000000 -0.793353 -0.608761
vn 0.000000 -0.896873 -0.442289
vn 0.000000 -0.896873 -0.442289
vn 0.000000 -0.965926 -0.258819
vn 0.000000 -0.965926 -0.258819
vn 0.000000 -0.997859 -0.065403
vn 0.000000 -0.997859 -0.065403
vn 0.000000 -0.991445 0.130526
vn 0.000000 -0.991445 0.130526
vn 0.000000 -0.946930 0.321439
vn 0.000000 -0.946930 0.321439
vn 0.000000 -0.866025 0.500000
vn 0.000000 -0.866025 0.500000
vn 0.000000 -0.751840 0.659346
vn 0.000000 -0.751840 0.659346
vn 0.000000 -0.608761 0.793353
vn 0.000000 -0.608761 0.793353
vn 0.000000 -0.442289 0.896873
vn 0.000000 -0.442289 0.896873
vn 0.000000 -0.258819 0.965926
vn 0.000000 -0.258819 0.965926
vn 0.000000 -0.065403 0.997859
vn 0.000000 -0.000000 1.000000
vn 0.000000 0.130526 0.991445
vn 0.000000 0.258819 0.965926
vn -1.000000 -0.000000 0.000000
vn -1.000000 -0.000000 0.000000
vn -1.000000 -0.000000 0.000000
vn -1.000000 -0.000000 0.000000
vn -1.000000 -0.000000 0.000000
vn -1.000000 -0.000000 0.000000
vn -1.000000 -0.000000 0.000000
vn -1.000000 -0.000000 0.000000
vn -1.000000 -0.000000 0.000000
vn -1.000000 -0.000000 0.000000
vn -1.000000 -0.000000 0.000000
vn 0.000000 -0.904536 0.426396
vn 0.000000 -0.904536 0.426396
vn 0.000000 -0.904536 0.426396
vn 0.000000 -0.904536 0.426396
vn 0.000000 -0.562585 -0.826740
vn 0.000000 -0.562585 -0.826740
vn 0.000000 -0.562585 -0.826740
vn 0.000000 -0.562585 -0.826740
vn 0.000000 0.434685 0.900583
vn 0.000000 0.434685 0.900583
vn -0.000000 0.616678 0.787216
vn -0.000000 0.671421 0.741076
vn -0.000000 0.770320 0.637658
vn -0.000000 0.853445 0.521182
vn -0.000000 0.888548 0.458784
vn -0.000000 0.965926 0.258819
vn -0.000000 0.965926 0.258819
vn -0.000000 0.998671 0.051541
vn -0.000000 0.999829 -0.018513
vn -0.000000 0.987438 -0.158006
vn -0.000000 0.955682 -0.294401
vn -0.000000 0.932722 -0.360596
vn -0.000000 0.836932 -0.547306
vn -0.000000 0.836932 -0.547306
vn 0.000000 -0.904536 0.426396
vn 0.000000 -0.904536 0.426396
vn 0.000000 -0.904536 0.426396
vn 0.000000 -0.904536 0.426396
vn 0.000000 -0.562585 -0.826740
vn 0.000000 -0.562585 -0.826740
vn 0.000000 -0.562585 -0.826740
vn 0.000000 -0.562585 -0.826740
vn 0.000000 0.418072 0.908414
vn -0.000000 0.628375 0.777911
vn 0.000000 0.418072 0.908414
vn -0.000000 0.628375 0.777911
vn -0.000000 0.800184 0.599754
vn -0.000000 0.800184 0.599754
vn -0.000000 0.922976 0.384857
vn -0.000000 0.922976 0.384857
vn -0.000000 0.989228 0.146385
vn -0.000000 0.989228 0.146385
vn -0.000000 0.994881 -0.101055
vn -0.000000 0.994881 -0.101055
vn -0.000000 0.939589 -0.342305
vn -0.000000 0.939589 -0.342305
vn -0.000000 0.826740 -0.562585
vn -0.000000 0.826740 -0.562585
vn -0.000000 0.904536 -0.426396
vn -0.000000 0.904536 -0.426396
vn -0.000000 0.904536 -0.426396
vn -0.000000 0.904536 -0.426396
vn -0.000000 -0.418072 -0.908414
vn 0.000000 -0.630414 -0.776259
vn -0.000000 -0.418072 -0.908414
vn 0.000000 -0.630414 -0.776259
vn 0.000000 -0.803321 -0.595547
vn 0.000000 -0.803321 -0.595547
vn 0.000000 -0.925977 -0.377580
vn 0.000000 -0.925977 -0.377580
vn 0.000000 -0.990710 -0.135994
vn 0.000000 -0.990710 -0.135994
vn 0.000000 -0.993469 0.114098
vn 0.000000 -0.993469 0.114098
vn 0.000000 -0.934084 0.357053
vn 0.000000 -0.934084 0.357053
vn 0.000000 -0.816268 0.577674
vn 0.000000 -0.816268 0.577674
vn -0.000000 0.807203 0.590274
vn -0.000000 0.909080 0.416621
vn -0.000000 0.965926 0.258819
vn -0.000000 0.996191 0.087203
vn -0.000000 0.994195 -0.107591
vn -0.000000 0.967639 -0.252340
vn -0.000000 0.888193 -0.459470
vn -0.000000 0.826740 -0.562585
vn -0.000000 0.662235 -0.749296
vn -0.000000 0.584103 -0.811679
vn -0.000000 0.346839 -0.937925
vn -0.000000 0.270837 -0.962625
vn -0.000000 -0.015399 -0.999881
vn -0.000000 -0.075178 -0.997170
vn -0.000000 -0.375558 -0.926799
vn -0.000000 -0.412104 -0.911137
vn 0.000000 -0.684996 -0.728547
vn -0.000000 -0.412104 -0.911137
vn 0.000000 -0.698622 -0.715490
vn -0.000000 0.716422 0.697667
vn 0.000000 0.539463 0.842010
vn 0.000000 0.440583 0.897712
vn 0.000000 0.440583 0.897712
vn 0.000000 0.198865 0.980027
vn 0.000000 0.098704 0.995117
vn 0.000000 -0.168591 0.985686
vn 0.000000 -0.255649 0.966770
vn 0.000000 -0.513277 0.858223
vn 0.000000 -0.577696 0.816252
vn 0.000000 -0.788642 0.614852
vn 0.000000 -0.826740 0.562585
vn 0.000000 -0.957497 0.288442
vn 0.000000 -0.969209 0.246241
vn 0.000000 -0.997037 -0.076924
vn 0.000000 -0.995013 -0.099742
vn 0.000000 -0.901921 -0.431901
vn 0.000000 -0.901048 -0.433720
vn -0.000000 0.826740 -0.562585
vn 0.000000 -0.826740 0.562585
vn -0.000000 0.807203 0.590274
vn -0.000000 0.906439 0.422336
vn -0.000000 0.965926 0.258819
vn -0.000000 0.996720 0.080926
vn -0.000000 0.994195 -0.107591
vn -0.000000 0.962698 -0.270577
vn -0.000000 0.888193 -0.459470
vn -0.000000 0.808617 -0.588335
vn -0.000000 0.662235 -0.749296
vn -0.000000 0.558259 -0.829667
vn -0.000000 0.346839 -0.937925
vn -0.000000 0.240397 -0.970675
vn -0.000000 -0.015399 -0.999881
vn -0.000000 -0.106534 -0.994309
vn -0.000000 -0.375558 -0.926799
vn -0.000000 -0.440583 -0.897712
vn 0.000000 -0.684996 -0.728547
vn -0.000000 -0.440583 -0.897712
vn 0.000000 -0.712014 -0.702166
vn -0.000000 0.703115 0.711076
vn 0.000000 0.539463 0.842010
vn 0.000000 0.412104 0.911137
vn 0.000000 0.412104 0.911137
vn 0.000000 0.198865 0.980027
vn 0.000000 0.067326 0.997731
vn 0.000000 -0.168591 0.985686
vn 0.000000 -0.285959 0.958242
vn 0.000000 -0.513277 0.858223
vn 0.000000 -0.603108 0.797659
vn 0.000000 -0.788642 0.614852
vn 0.000000 -0.844042 0.536277
vn 0.000000 -0.957497 0.288442
vn 0.000000 -0.973688 0.227886
vn 0.000000 -0.997037 -0.076924
vn 0.000000 -0.994365 -0.106008
vn 0.000000 -0.901921 -0.431901
vn 0.000000 -0.903761 -0.428038
vn -0.000000 0.808617 -0.588335
vn 0.000000 -0.844042 0.536277
vn -0.000000 0.807203 0.590274
vn -0.000000 0.869309 0.494268
vn -0.000000 0.965926 0.258819
vn -0.000000 0.982618 0.185641
vn -0.000000 0.994195 -0.107591
vn -0.000000 0.989715 -0.143053
vn -0.000000 0.888193 -0.459470
vn -0.000000 0.889834 -0.456284
vn -0.000000 0.703305 -0.710888
vn -0.000000 0.662037 0.749471
vn 0.000000 0.539463 0.842010
vn 0.000000 0.383206 0.923663
vn 0.000000 0.383206 0.923663
vn 0.000000 0.198865 0.980027
vn 0.000000 0.054744 0.998500
vn 0.000000 -0.168591 0.985686
vn 0.000000 -0.279931 0.960020
vn 0.000000 -0.513277 0.858223
vn 0.000000 -0.582837 0.812589
vn 0.000000 -0.788642 0.614852
vn 0.000000 -0.819598 0.572939
vn 0.000000 -0.957497 0.288442
vn 0.000000 -0.963381 0.268138
vn 0.000000 -0.997037 -0.076924
vn 0.000000 -0.997745 -0.067118
vn 0.000000 -0.918789 -0.394750
vn 0.000000 -0.901921 -0.431901
vn 0.000000 -0.735479 -0.677548
vn 0.000000 -0.684996 -0.728547
vn -0.000000 -0.468636 -0.883392
vn -0.000000 -0.468636 -0.883392
vn -0.000000 -0.375558 -0.926799
vn -0.000000 -0.169971 -0.985449
vn -0.000000 -0.015399 -0.999881
vn -0.000000 0.145626 -0.989340
vn -0.000000 0.346839 -0.937925
vn -0.000000 0.446715 -0.894676
vn -0.000000 0.662235 -0.749296
vn -0.000000 0.889834 -0.456284
vn 0.000000 -0.819598 0.572939
vn 0.000000 -0.965926 -0.258819
vn 0.000000 -0.965926 -0.258819
vn 0.000000 -0.965926 -0.258819
vn 0.000000 -0.965926 -0.258819
vn -0.000000 0.258819 -0.965926
vn -0.000000 0.258819 -0.965926
vn -0.000000 0.258819 -0.965926
vn -0.000000 0.258819 -0.965926
vn -0.000000 0.965926 0.258819
vn -0.000000 0.965926 0.258819
vn -0.000000 0.965926 0.258819
vn -0.000000 0.965926 0.258819
vn 0.000000 -0.258819 0.965926
vn 0.000000 -0.258819 0.965926
vn 0.000000 -0.258819 0.965926
vn 0.000000 -0.258819 0.965926
vn 1.000000 0.000000 -0.000000
vn 1.000000 0.000000 -0.000000
vn 1.000000 0.000000 -0.000000
vn 1.000000 0.000000 -0.000000
vn 1.000000 0.000000 -0.000000
vn 1.000000 0.000000 -0.000000
vn 1.000000 0.000000 -0.000000
vn 1.000000 0.000000 -0.000000
vn 1.000000 0.000000 -0.000000
vn 1.000000 0.000000 -0.000000
vn 1.000000 0.000000 -0.000000
vn 1.000000 0.000000 -0.000000
vn 1.000000 0.000000 -0.000000
vn 1.000000 0.000000 -0.000000
vn 1.000000 0.000000 -0.000000
vn 1.000000 0.000000 -0.000000
vn 1.000000 0.000000 -0.000000
vn 1.000000 0.000000 -0.000000
vn 1.000000 0.000000 -0.000000
vn 1.000000 0.000000 -0.000000
vn 1.000000 0.000000 -0.000000
vn 1.000000 0.000000 -0.000000
vn 1.000000 0.000000 -0.000000
vn 1.000000 0.000000 -0.000000
vn 1.000000 0.000000 -0.000000
vn 1.000000 0.000000 -0.000000
vn 1.000000 0.000000 -0.000000
vn 1.000000 0.000000 -0.000000
vn 1.000000 0.000000 -0.000000
vn 1.000000 0.000000 -0.000000
vn 1.000000 0.000000 -0.000000
vn 1.000000 0.000000 -0.000000
vn 1.000000 0.000000 -0.000000
vn 1.000000 0.000000 -0.000000
vn 1.000000 0.000000 -0.000000
vn 1.000000 0.000000 -0.000000
vn 1.000000 0.000000 -0.000000
vn 1.000000 0.000000 -0.000000
vn 1.000000 0.000000 -0.000000
vn 1.000000 0.000000 -0.000000
vn 1.000000 0.000000 -0.000000
vn 1.000000 0.000000 -0.000000
vn 1.000000 0.000000 -0.000000
vn 1.000000 0.000000 -0.000000
vn 1.000000 0.000000 -0.000000
vn 1.000000 0.000000 -0.000000
vn 1.000000 0.000000 -0.000000
vn 1.000000 0.000000 -0.000000
vn 1.000000 0.000000 -0.000000
vn 1.000000 0.000000 -0.000000
vn 1.000000 0.000000 -0.000000
vn 1.000000 0.000000 -0.000000
vn 1.000000 0.000000 -0.000000
vn 1.000000 0.000000 -0.000000
vn 1.000000 0.000000 -0.000000
usemtl Opaque(44,44,44)
f 2/1/1 3/2/2 1/3/3
f 1/3/3 3/2/2 12/4/4
f 12/4/4 3/2/2 4/5/5
f 12/4/4 4/5/5 11/6/6
f 11/6/6 4/5/5 5/7/7
f 11/6/6 5/7/7 10/8/8
f 10/8/8 5/7/7 6/9/9
f 10/8/8 6/9/9 9/10/10
f 9/10/10 6/9/9 7/11/11
f 9/10/10 7/11/11 8/12/12
f 14/13/13 15/14/14 13/15/15
f 13/15/15 15/14/14 24/16/16
f 24/16/16 15/14/14 16/17/17
f 24/16/16 16/17/17 23/18/18
f 23/18/18 16/17/17 17/19/19
f 23/18/18 17/19/19 22/20/20
f 22/20/20 17/19/19 18/21/21
f 22/20/20 18/21/21 21/22/22
f 21/22/22 18/21/21 19/23/23
f 21/22/22 19/23/23 20/24/24
f 26/25/25 27/26/26 25/27/27
f 25/27/27 27/26/26 36/28/28
f 36/28/28 27/26/26 28/29/29
f 36/28/28 28/29/29 35/30/30
f 35/30/30 28/29/29 29/31/31
f 35/30/30 29/31/31 34/32/32
f 34/32/32 29/31/31 30/33/33
f 34/32/32 30/33/33 33/34/34
f 33/34/34 30/33/33 31/35/35
f 33/34/34 31/35/35 32/36/36
f 38/37/37 39/38/38 37/39/39
f 37/39/39 39/38/38 48/40/40
f 48/40/40 39/38/38 40/41/41
f 48/40/40 40/41/41 47/42/42
f 47/42/42 40/41/41 41/43/43
f 47/42/42 41/43/43 46/44/44
f 46/44/44 41/43/43 42/45/45
f 46/44/44 42/45/45 45/46/46
f 45/46/46 42/45/45 43/47/47
f 45/46/46 43/47/47 44/48/48
f 25/49/49 49/50/50 26/51/51
f 26/51/51 49/50/50 50/52/52
f 37/53/53 51/54/54 38/55/55
f 38/55/55 51/54/54 52/56/56
usemtl Opaque(246,246,243)
f 50/57/57 53/58/58 26/59/59
f 26/59/59 53/58/58 37/60/60
f 26/59/59 37/60/60 48/61/61
f 54/62/62 79/63/63 53/58/58
f 53/58/58 79/63/63 51/64/64
f 53/58/58 51/64/64 37/60/60
f 79/63/63 54/62/62 78/65/65
f 78/65/65 54/62/62 55/66/66
f 78/65/65 55/66/66 56/67/67
f 78/65/65 56/67/67 77/68/68
f 77/68/68 56/67/67 57/69/69
f 77/68/68 57/69/69 58/70/70
f 77/68/68 58/70/70 76/71/71
f 76/71/71 58/70/70 59/72/72
f 76/71/71 59/72/72 2/73/73
f 2/73/73 59/72/72 13/74/74
f 2/73/73 13/74/74 3/75/75
f 3/75/75 13/74/74 24/76/76
f 3/75/75 24/76/76 4/77/77
f 4/77/77 24/76/76 23/78/78
f 4/77/77 23/78/78 5/79/79
f 5/79/79 23/78/78 22/80/80
f 5/79/79 22/80/80 21/81/81
f 59/72/72 60/82/82 13/74/74
f 5/79/79 21/81/81 6/83/83
f 6/83/83 21/81/81 20/84/84
f 6/83/83 20/84/84 7/85/85
f 7/85/85 20/84/84 62/86/86
f 7/85/85 62/86/86 73/87/87
f 73/87/87 62/86/86 63/88/88
f 73/87/87 63/88/88 72/89/89
f 72/89/89 63/88/88 64/90/90
f 72/89/89 64/90/90 71/91/91
f 71/91/91 64/90/90 65/92/92
f 71/91/91 65/92/92 66/93/93
f 20/84/84 61/94/94 62/86/86
f 71/91/91 66/93/93 70/95/95
f 70/95/95 66/93/93 67/96/96
f 70/95/95 67/96/96 69/97/97
f 69/97/97 67/96/96 44/98/98
f 44/98/98 67/96/96 31/99/99
f 44/98/98 31/99/99 45/100/100
f 45/100/100 31/99/99 30/101/101
f 45/100/100 30/101/101 46/102/102
f 46/102/102 30/101/101 29/103/103
f 46/102/102 29/103/103 28/104/104
f 67/96/96 68/105/105 31/99/99
f 46/102/102 28/104/104 47/106/106
f 47/106/106 28/104/104 27/107/107
f 47/106/106 27/107/107 48/61/61
f 48/61/61 27/107/107 26/59/59
f 73/87/87 74/108/108 7/85/85
f 2/73/73 75/109/109 76/71/71
usemtl Opaque(44,44,44)
f 31/110/110 68/111/111 32/112/112
f 32/112/112 68/111/111 80/113/113
f 13/114/114 60/115/115 14/116/116
f 14/116/116 60/115/115 81/117/117
f 1/118/118 82/119/119 2/120/120
f 2/120/120 82/119/119 75/121/121
f 19/122/122 83/123/123 20/124/124
f 20/124/124 83/123/123 61/125/125
f 25/126/126 36/127/127 49/128/128
f 49/128/128 36/127/127 147/129/129
f 49/128/128 147/129/129 149/130/130
f 149/130/130 147/129/129 148/131/131
f 148/131/131 147/129/129 92/132/132
f 36/127/127 35/133/133 147/129/129
f 147/129/129 35/133/133 34/134/134
f 147/129/129 34/134/134 33/135/135
f 32/136/136 80/137/137 33/135/135
f 33/135/135 80/137/137 147/129/129
f 84/138/138 135/139/139 80/137/137
f 80/137/137 135/139/139 136/140/140
f 80/137/137 136/140/140 147/129/129
f 147/129/129 136/140/140 146/141/141
f 146/141/141 136/140/140 138/142/142
f 146/141/141 138/142/142 139/143/143
f 135/139/139 84/138/138 134/144/144
f 134/144/144 84/138/138 85/145/145
f 134/144/144 85/145/145 133/146/146
f 133/146/146 85/145/145 86/147/147
f 133/146/146 86/147/147 132/148/148
f 132/148/148 86/147/147 87/149/149
f 132/148/148 87/149/149 131/150/150
f 131/150/150 87/149/149 88/151/151
f 131/150/150 88/151/151 130/152/152
f 130/152/152 88/151/151 89/153/153
f 130/152/152 89/153/153 105/154/154
f 105/154/154 89/153/153 83/155/155
f 105/154/154 83/155/155 104/156/156
f 104/156/156 83/155/155 93/157/157
f 104/156/156 93/157/157 103/158/158
f 103/158/158 93/157/157 102/159/159
f 102/159/159 93/157/157 101/160/160
f 101/160/160 93/157/157 100/161/161
f 100/161/161 93/157/157 99/162/162
f 99/162/162 93/157/157 98/163/163
f 98/163/163 93/157/157 97/164/164
f 97/164/164 93/157/157 96/165/165
f 96/165/165 93/157/157 95/166/166
f 95/166/166 93/157/157 94/167/167
f 19/168/168 18/169/169 83/155/155
f 83/155/155 18/169/169 93/157/157
f 18/169/169 17/170/170 93/157/157
f 93/157/157 17/170/170 16/171/171
f 93/157/157 16/171/171 15/172/172
f 14/173/173 81/174/174 15/172/172
f 15/172/172 81/174/174 93/157/157
f 81/174/174 90/175/175 93/157/157
f 93/157/157 90/175/175 91/176/176
f 93/157/157 91/176/176 92/132/132
f 105/154/154 106/177/177 130/152/152
f 130/152/152 106/177/177 129/178/178
f 129/178/178 106/177/177 107/179/179
f 129/178/178 107/179/179 127/180/180
f 127/180/180 107/179/179 108/181/181
f 127/180/180 108/181/181 109/182/182
f 127/180/180 109/182/182 126/183/183
f 126/183/183 109/182/182 110/184/184
f 126/183/183 110/184/184 125/185/185
f 125/185/185 110/184/184 111/186/186
f 125/185/185 111/186/186 124/187/187
f 124/187/187 111/186/186 112/188/188
f 124/187/187 112/188/188 113/189/189
f 124/187/187 113/189/189 122/190/190
f 122/190/190 113/189/189 114/191/191
f 122/190/190 114/191/191 121/192/192
f 121/192/192 114/191/191 115/193/193
f 121/192/192 115/193/193 116/194/194
f 121/192/192 116/194/194 120/195/195
f 120/195/195 116/194/194 117/196/196
f 120/195/195 117/196/196 119/197/197
f 119/197/197 117/196/196 118/198/198
f 122/190/190 123/199/199 124/187/187
f 127/180/180 128/200/200 129/178/178
f 136/140/140 137/201/201 138/142/142
f 139/143/143 140/202/202 146/141/141
f 146/141/141 140/202/202 141/203/203
f 146/141/141 141/203/203 143/204/204
f 143/204/204 141/203/203 142/205/205
f 143/204/204 144/206/206 146/141/141
f 146/141/141 144/206/206 145/207/207
f 146/141/141 145/207/207 119/197/197
f 12/208/208 152/209/209 1/210/210
f 1/210/210 152/209/209 153/211/211
f 1/210/210 153/211/211 82/212/212
f 12/208/208 11/213/213 152/209/209
f 152/209/209 11/213/213 10/214/214
f 152/209/209 10/214/214 9/215/215
f 9/215/215 8/216/216 152/209/209
f 152/209/209 8/216/216 151/217/217
f 151/217/217 8/216/216 150/218/218
f 155/219/219 156/220/220 154/221/221
f 154/221/221 156/220/220 165/222/222
f 165/222/222 156/220/220 157/223/223
f 165/222/222 157/223/223 164/224/224
f 164/224/224 157/223/223 158/225/225
f 164/224/224 158/225/225 163/226/226
f 163/226/226 158/225/225 159/227/227
f 163/226/226 159/227/227 162/228/228
f 162/228/228 159/227/227 160/229/229
f 162/228/228 160/229/229 161/230/230
f 167/231/231 168/232/232 166/233/233
f 166/233/233 168/232/232 179/234/234
f 179/234/234 168/232/232 169/235/235
f 179/234/234 169/235/235 178/236/236
f 178/236/236 169/235/235 170/237/237
f 178/236/236 170/237/237 177/238/238
f 177/238/238 170/237/237 171/239/239
f 177/238/238 171/239/239 176/240/240
f 176/240/240 171/239/239 172/241/241
f 176/240/240 172/241/241 175/242/242
f 175/242/242 172/241/241 173/243/243
f 175/242/242 173/243/243 174/244/244
f 166/245/245 180/246/246 167/247/247
f 167/247/247 180/246/246 181/248/248
usemtl Opaque(246,246,243)
f 183/249/249 216/250/250 182/251/251
f 182/251/251 216/250/250 217/252/252
f 182/251/251 217/252/252 213/253/253
f 213/253/253 217/252/252 212/254/254
f 212/254/254 217/252/252 218/255/255
f 212/254/254 218/255/255 211/256/256
f 211/256/256 218/255/255 210/257/257
f 210/257/257 218/255/255 154/258/258
f 210/257/257 154/258/258 209/259/259
f 209/259/259 154/258/258 165/260/260
f 209/259/259 165/260/260 208/261/261
f 208/261/261 165/260/260 207/262/262
f 207/262/262 165/260/260 164/263/263
f 207/262/262 164/263/263 206/264/264
f 206/264/264 164/263/263 163/265/265
f 206/264/264 163/265/265 205/266/266
f 205/266/266 163/265/265 204/267/267
f 204/267/267 163/265/265 162/268/268
f 204/267/267 162/268/268 203/269/269
f 203/269/269 162/268/268 161/270/270
f 203/269/269 161/270/270 202/271/271
f 202/271/271 161/270/270 201/272/272
f 201/272/272 161/270/270 221/273/273
f 201/272/272 221/273/273 200/274/274
f 200/274/274 221/273/273 222/275/275
f 200/274/274 222/275/275 199/276/276
f 199/276/276 222/275/275 198/277/277
f 198/277/277 222/275/275 223/278/278
f 198/277/277 223/278/278 197/279/279
f 197/279/279 223/278/278 196/280/280
f 196/280/280 223/278/278 224/281/281
f 196/280/280 224/281/281 195/282/282
f 195/282/282 224/281/281 180/283/283
f 195/282/282 180/283/283 166/284/284
f 216/250/250 183/249/249 215/285/285
f 215/285/285 183/249/249 184/286/286
f 215/285/285 184/286/286 185/287/287
f 215/285/285 185/287/287 174/288/288
f 174/288/288 185/287/287 186/289/289
f 174/288/288 186/289/289 187/290/290
f 174/288/288 187/290/290 175/291/291
f 175/291/291 187/290/290 188/292/292
f 175/291/291 188/292/292 176/293/293
f 176/293/293 188/292/292 189/294/294
f 176/293/293 189/294/294 177/295/295
f 177/295/295 189/294/294 190/296/296
f 177/295/295 190/296/296 178/297/297
f 178/297/297 190/296/296 191/298/298
f 178/297/297 191/298/298 192/299/299
f 178/297/297 192/299/299 179/300/300
f 179/300/300 192/299/299 193/301/301
f 179/300/300 193/301/301 166/284/284
f 166/284/284 193/301/301 194/302/302
f 166/284/284 194/302/302 195/282/282
f 174/288/288 214/303/303 215/285/285
f 218/255/255 219/304/304 154/258/258
f 161/270/270 220/305/305 221/273/273
usemtl Opaque(44,44,44)
f 173/306/306 225/307/307 174/308/308
f 174/308/308 225/307/307 214/309/309
f 160/310/310 226/311/311 161/312/312
f 161/312/312 226/311/311 220/313/313
f 42/314/314 228/315/315 43/316/316
f 43/316/316 228/315/315 229/317/317
f 43/316/316 229/317/317 230/318/318
f 42/314/314 41/319/319 228/315/315
f 228/315/315 41/319/319 40/320/320
f 228/315/315 40/320/320 39/321/321
f 39/321/321 38/322/322 228/315/315
f 228/315/315 38/322/322 227/323/323
f 227/323/323 38/322/322 52/324/324
f 159/325/325 233/326/326 160/327/327
f 160/327/327 233/326/326 234/328/328
f 160/327/327 234/328/328 226/329/329
f 159/325/325 158/330/330 233/326/326
f 233/326/326 158/330/330 157/331/331
f 233/326/326 157/331/331 156/332/332
f 156/332/332 155/333/333 233/326/326
f 233/326/326 155/333/333 232/334/334
f 232/334/334 155/333/333 231/335/335
f 118/336/198 235/337/336 240/338/337
f 240/338/337 235/337/336 236/339/338
f 240/338/337 236/339/338 237/340/339
f 237/340/339 238/341/340 240/338/337
f 240/338/337 238/341/340 239/342/341
f 240/338/337 239/342/341 94/343/167
f 242/344/342 243/345/343 241/346/344
f 241/346/344 243/345/343 252/347/345
f 252/347/345 243/345/343 244/348/346
f 252/347/345 244/348/346 251/349/347
f 251/349/347 244/348/346 245/350/348
f 251/349/347 245/350/348 250/351/349
f 250/351/349 245/350/348 246/352/350
f 250/351/349 246/352/350 249/353/351
f 249/353/351 246/352/350 247/354/352
f 249/353/351 247/354/352 248/355/353
f 128/356/354 127/357/355 253/358/356
f 253/358/356 127/357/355 258/359/357
f 258/359/357 127/357/355 126/360/358
f 258/359/357 126/360/358 257/361/359
f 257/361/359 126/360/358 125/362/360
f 257/361/359 125/362/360 256/363/361
f 256/363/361 125/362/360 124/364/362
f 256/363/361 124/364/362 255/365/363
f 255/365/363 124/364/362 123/366/364
f 255/365/363 123/366/364 254/367/365
f 259/368/366 260/369/367 137/370/368
f 137/370/368 260/369/367 138/371/369
f 138/371/369 260/369/367 261/372/370
f 138/371/369 261/372/370 139/373/371
f 139/373/371 261/372/370 262/374/372
f 139/373/371 262/374/372 140/375/373
f 140/375/373 262/374/372 263/376/374
f 140/375/373 263/376/374 141/377/375
f 141/377/375 263/376/374 264/378/376
f 141/377/375 264/378/376 142/379/377
f 266/380/378 267/381/379 265/382/380
f 265/382/380 267/381/379 276/383/381
f 276/383/381 267/381/379 268/384/382
f 276/383/381 268/384/382 275/385/383
f 275/385/383 268/384/382 269/386/384
f 275/385/383 269/386/384 274/387/385
f 274/387/385 269/386/384 270/388/386
f 274/387/385 270/388/386 273/389/387
f 273/389/387 270/388/386 271/390/388
f 273/389/387 271/390/388 272/391/389
f 137/392/390 136/393/391 259/394/392
f 259/394/392 136/393/391 277/395/393
f 265/396/394 278/397/395 266/398/396
f 266/398/396 278/397/395 279/399/397
usemtl Opaque(246,246,243)
f 277/400/398 280/401/399 259/402/400
f 259/402/400 280/401/399 265/403/401
f 259/402/400 265/403/401 260/404/402
f 260/404/402 265/403/401 276/405/403
f 260/404/402 276/405/403 261/406/404
f 261/406/404 276/405/403 275/407/405
f 261/406/404 275/407/405 262/408/406
f 262/408/406 275/407/405 274/409/407
f 262/408/406 274/409/407 263/410/408
f 263/410/408 274/409/407 273/411/409
f 263/410/408 273/411/409 264/412/410
f 264/412/410 273/411/409 272/413/411
f 264/412/410 272/413/411 294/414/412
f 294/414/412 272/413/411 296/415/413
f 294/414/412 296/415/413 297/416/414
f 265/403/401 280/401/399 306/417/415
f 306/417/415 280/401/399 281/418/416
f 306/417/415 281/418/416 305/419/417
f 305/419/417 281/418/416 282/420/418
f 305/419/417 282/420/418 283/421/419
f 305/419/417 283/421/419 304/422/420
f 304/422/420 283/421/419 284/423/421
f 304/422/420 284/423/421 303/424/422
f 303/424/422 284/423/421 285/425/423
f 303/424/422 285/425/423 242/426/424
f 242/426/424 285/425/423 253/427/425
f 242/426/424 253/427/425 258/428/426
f 285/425/423 286/429/427 253/427/425
f 242/426/424 258/428/426 243/430/428
f 243/430/428 258/428/426 257/431/429
f 243/430/428 257/431/429 244/432/430
f 244/432/430 257/431/429 256/433/431
f 244/432/430 256/433/431 245/434/432
f 245/434/432 256/433/431 255/435/433
f 245/434/432 255/435/433 246/436/434
f 246/436/434 255/435/433 254/437/435
f 246/436/434 254/437/435 247/438/436
f 247/438/436 254/437/435 288/439/437
f 247/438/436 288/439/437 301/440/438
f 301/440/438 288/439/437 300/441/439
f 300/441/439 288/439/437 289/442/440
f 300/441/439 289/442/440 299/443/441
f 299/443/441 289/442/440 290/444/442
f 299/443/441 290/444/442 291/445/443
f 254/437/435 287/446/444 288/439/437
f 299/443/441 291/445/443 298/447/445
f 298/447/445 291/445/443 292/448/446
f 298/447/445 292/448/446 293/449/447
f 298/447/445 293/449/447 297/416/414
f 297/416/414 293/449/447 294/414/412
f 294/414/412 295/450/448 264/412/410
f 242/426/424 302/451/449 303/424/422
f 306/417/415 278/452/450 265/403/401
usemtl Opaque(44,44,44)
f 264/453/451 295/454/452 142/455/453
f 142/455/453 295/454/452 143/456/454
f 253/457/455 286/458/456 128/459/457
f 128/459/457 286/458/456 129/460/458
f 241/461/459 307/462/460 242/463/461
f 242/463/461 307/462/460 302/464/462
f 123/465/463 122/466/464 254/467/465
f 254/467/465 122/466/464 287/468/466
f 172/469/467 310/470/468 173/471/469
f 173/471/469 310/470/468 311/472/470
f 173/471/469 311/472/470 225/473/471
f 172/469/467 171/474/472 310/470/468
f 310/470/468 171/474/472 309/475/473
f 309/475/473 171/474/472 170/476/474
f 309/475/473 170/476/474 169/477/475
f 169/477/475 168/478/476 309/475/473
f 309/475/473 168/478/476 167/479/477
f 309/475/473 167/479/477 308/480/478
f 308/480/478 167/479/477 181/481/479
f 307/482/480 241/483/481 315/484/482
f 315/484/482 241/483/481 252/485/483
f 315/484/482 252/485/483 314/486/484
f 314/486/484 252/485/483 251/487/485
f 314/486/484 251/487/485 250/488/486
f 250/488/486 249/489/487 314/486/484
f 314/486/484 249/489/487 248/490/488
f 314/486/484 248/490/488 313/491/489
f 313/491/489 248/490/488 312/492/490
f 50/493/491 49/494/492 53/495/493
f 53/495/493 49/494/492 149/496/494
f 53/495/493 149/496/494 54/497/495
f 54/497/495 149/496/494 148/498/496
f 54/497/495 148/498/496 55/499/497
f 55/499/497 148/498/496 92/500/498
f 55/499/497 92/500/498 56/501/499
f 56/501/499 92/500/498 57/502/500
f 57/502/500 92/500/498 91/503/501
f 57/502/500 91/503/501 58/504/502
f 58/504/502 91/503/501 90/505/503
f 58/504/502 90/505/503 59/506/504
f 59/506/504 90/505/503 81/507/505
f 59/506/504 81/507/505 60/508/506
f 117/509/507 198/510/508 118/511/509
f 118/511/509 198/510/508 197/512/510
f 118/511/509 197/512/510 235/513/511
f 235/513/511 197/512/510 196/514/512
f 235/513/511 196/514/512 236/515/513
f 236/515/513 196/514/512 195/516/514
f 236/515/513 195/516/514 237/517/515
f 237/517/515 195/516/514 194/518/516
f 237/517/515 194/518/516 193/519/517
f 198/510/508 117/509/507 199/520/518
f 199/520/518 117/509/507 116/521/519
f 199/520/518 116/521/519 200/522/520
f 200/522/520 116/521/519 115/523/521
f 200/522/520 115/523/521 201/524/522
f 201/524/522 115/523/521 114/525/523
f 201/524/522 114/525/523 202/526/524
f 202/526/524 114/525/523 113/527/525
f 202/526/524 113/527/525 203/528/526
f 203/528/526 113/527/525 112/529/527
f 203/528/526 112/529/527 204/530/528
f 204/530/528 112/529/527 111/531/529
f 204/530/528 111/531/529 205/532/530
f 205/532/530 111/531/529 110/533/531
f 205/532/530 110/533/531 206/534/532
f 206/534/532 110/533/531 109/535/533
f 206/534/532 109/535/533 207/536/534
f 207/536/534 109/535/533 108/537/535
f 207/536/534 108/537/535 208/538/536
f 208/538/536 108/537/535 107/539/537
f 208/538/536 107/539/537 209/540/538
f 209/540/538 107/539/537 106/541/539
f 209/540/538 106/541/539 210/542/540
f 210/542/540 106/541/539 105/543/541
f 210/542/540 105/543/541 211/544/542
f 211/544/542 105/543/541 104/545/543
f 211/544/542 104/545/543 212/546/544
f 212/546/544 104/545/543 103/547/545
f 212/546/544 103/547/545 213/548/546
f 213/548/546 103/547/545 102/549/547
f 213/548/546 102/549/547 182/550/548
f 182/551/548 102/552/547 101/553/549
f 182/551/548 101/553/549 183/554/550
f 183/554/550 101/553/549 100/555/551
f 183/554/550 100/555/551 184/556/552
f 184/556/552 100/555/551 99/557/553
f 184/556/552 99/557/553 185/558/554
f 185/558/554 99/557/553 98/559/555
f 185/558/554 98/559/555 186/560/556
f 186/560/556 98/559/555 97/561/557
f 186/560/556 97/561/557 187/562/558
f 187/562/558 97/561/557 96/563/559
f 187/562/558 96/563/559 188/564/560
f 188/564/560 96/563/559 95/565/561
f 188/564/560 95/565/561 189/566/562
f 189/566/562 95/565/561 94/567/563
f 189/566/562 94/567/563 190/568/564
f 190/568/564 94/567/563 191/569/565
f 191/569/565 94/567/563 239/570/566
f 191/569/565 239/570/566 192/571/567
f 192/571/567 239/570/566 238/572/568
f 192/571/567 238/572/568 193/519/517
f 193/519/517 238/572/568 237/517/515
f 270/573/569 317/574/570 271/575/571
f 271/575/571 317/574/570 318/576/572
f 271/575/571 318/576/572 319/577/573
f 270/573/569 269/578/574 317/574/570
f 317/574/570 269/578/574 268/579/575
f 317/574/570 268/579/575 267/580/576
f 317/574/570 267/580/576 316/581/577
f 316/581/577 267/580/576 266/582/578
f 316/581/577 266/582/578 279/583/579
f 247/584/580 301/585/581 248/586/582
f 248/586/582 301/585/581 312/587/583
f 271/588/584 319/589/585 272/590/586
f 272/590/586 319/589/585 296/591/587
f 287/592/588 122/593/589 288/594/590
f 288/594/590 122/593/589 121/595/591
f 288/594/590 121/595/591 289/596/592
f 289/596/592 121/595/591 120/597/593
f 289/596/592 120/597/593 290/598/594
f 290/598/594 120/597/593 119/599/595
f 290/598/594 119/599/595 291/600/596
f 291/600/596 119/599/595 292/601/597
f 292/601/597 119/599/595 145/602/598
f 292/601/597 145/602/598 293/603/599
f 293/603/599 145/602/598 144/604/600
f 293/603/599 144/604/600 294/605/601
f 294/605/601 144/604/600 143/606/602
f 294/605/601 143/606/602 295/607/603
f 7/608/604 74/609/605 8/610/606
f 8/610/606 74/609/605 150/611/607
f 43/612/608 230/613/609 44/614/610
f 44/614/610 230/613/609 69/615/611
f 83/616/612 89/617/613 61/618/614
f 61/618/614 89/617/613 62/619/615
f 62/619/615 89/617/613 88/620/616
f 62/619/615 88/620/616 63/621/617
f 63/621/617 88/620/616 87/622/618
f 63/621/617 87/622/618 64/623/619
f 64/623/619 87/622/618 86/624/620
f 64/623/619 86/624/620 65/625/621
f 65/625/621 86/624/620 85/626/622
f 65/625/621 85/626/622 66/627/623
f 66/627/623 85/626/622 84/628/624
f 66/627/623 84/628/624 67/629/625
f 67/629/625 84/628/624 80/630/626
f 67/629/625 80/630/626 68/631/627
f 154/632/628 219/633/629 155/634/630
f 155/634/630 219/633/629 231/635/631
f 136/636/632 135/637/633 277/638/634
f 277/638/634 135/637/633 280/639/635
f 280/639/635 135/637/633 134/640/636
f 280/639/635 134/640/636 281/641/637
f 281/641/637 134/640/636 133/642/638
f 281/641/637 133/642/638 282/643/639
f 282/643/639 133/642/638 132/644/640
f 282/643/639 132/644/640 283/645/641
f 283/645/641 132/644/640 131/646/642
f 283/645/641 131/646/642 284/647/643
f 284/647/643 131/646/642 130/648/644
f 284/647/643 130/648/644 285/649/645
f 285/649/645 130/648/644 129/650/646
f 285/649/645 129/650/646 286/651/647
f 321/652/648 78/653/649 320/654/650
f 320/655/650 78/656/649 77/657/651
f 320/655/650 77/657/651 336/658/652
f 336/658/652 77/657/651 76/659/653
f 336/658/652 76/659/653 335/660/654
f 335/660/654 76/659/653 82/661/655
f 335/660/654 82/661/655 334/662/656
f 334/662/656 82/661/655 153/663/657
f 334/662/656 153/663/657 333/664/658
f 333/664/658 153/663/657 152/665/659
f 333/664/658 152/665/659 332/666/660
f 332/666/660 152/665/659 151/667/661
f 332/666/660 151/667/661 331/668/662
f 331/668/662 151/667/661 150/669/663
f 331/668/662 150/669/663 330/670/664
f 330/670/664 150/669/663 74/671/665
f 330/670/664 74/671/665 73/672/666
f 78/653/649 321/652/648 79/673/667
f 79/673/667 321/652/648 322/674/668
f 79/673/667 322/674/668 51/675/669
f 51/675/669 322/674/668 52/676/670
f 52/676/670 322/674/668 323/677/671
f 52/676/670 323/677/671 227/678/672
f 227/678/672 323/677/671 324/679/673
f 227/678/672 324/679/673 228/680/674
f 228/680/674 324/679/673 325/681/675
f 228/680/674 325/681/675 229/682/676
f 229/682/676 325/681/675 326/683/677
f 229/682/676 326/683/677 230/684/678
f 230/684/678 326/683/677 327/685/679
f 230/684/678 327/685/679 70/686/680
f 70/686/680 327/685/679 328/687/681
f 70/686/680 328/687/681 71/688/682
f 71/688/682 328/687/681 329/689/683
f 71/688/682 329/689/683 72/690/684
f 72/690/684 329/689/683 73/672/666
f 73/672/666 329/689/683 330/670/664
f 76/659/653 75/691/685 82/661/655
f 70/686/680 69/692/686 230/684/678
f 338/693/687 305/694/688 337/695/689
f 337/696/689 305/697/688 304/698/690
f 337/696/689 304/698/690 353/699/691
f 353/699/691 304/698/690 303/700/692
f 353/699/691 303/700/692 352/701/693
f 352/701/693 303/700/692 307/702/694
f 352/701/693 307/702/694 351/703/695
f 351/703/695 307/702/694 315/704/696
f 351/703/695 315/704/696 350/705/697
f 350/705/697 315/704/696 314/706/698
f 350/705/697 314/706/698 349/707/699
f 349/707/699 314/706/698 313/708/700
f 349/707/699 313/708/700 348/709/701
f 348/709/701 313/708/700 312/710/702
f 348/709/701 312/710/702 347/711/703
f 347/711/703 312/710/702 301/712/704
f 347/711/703 301/712/704 300/713/705
f 305/694/688 338/693/687 306/714/706
f 306/714/706 338/693/687 339/715/707
f 306/714/706 339/715/707 278/716/708
f 278/716/708 339/715/707 279/717/709
f 279/717/709 339/715/707 340/718/710
f 279/717/709 340/718/710 316/719/711
f 316/719/711 340/718/710 341/720/712
f 316/719/711 341/720/712 317/721/713
f 317/721/713 341/720/712 342/722/714
f 317/721/713 342/722/714 318/723/715
f 318/723/715 342/722/714 343/724/716
f 318/723/715 343/724/716 319/725/717
f 319/725/717 343/724/716 344/726/718
f 319/725/717 344/726/718 297/727/719
f 297/727/719 344/726/718 345/728/720
f 297/727/719 345/728/720 298/729/721
f 298/729/721 345/728/720 346/730/722
f 298/729/721 346/730/722 299/731/723
f 299/731/723 346/730/722 300/713/705
f 300/713/705 346/730/722 347/711/703
f 303/700/692 302/732/724 307/702/694
f 297/727/719 296/733/725 319/725/717
f 355/734/726 217/735/727 354/736/728
f 354/737/728 217/738/727 216/739/729
f 354/737/728 216/739/729 370/740/730
f 370/740/730 216/739/729 215/741/731
f 370/740/730 215/741/731 369/742/732
f 369/742/732 215/741/731 225/743/733
f 369/742/732 225/743/733 311/744/734
f 217/735/727 355/734/726 218/745/735
f 218/745/735 355/734/726 356/746/736
f 218/745/735 356/746/736 219/747/737
f 219/747/737 356/746/736 231/748/738
f 231/748/738 356/746/736 357/749/739
f 231/748/738 357/749/739 232/750/740
f 232/750/740 357/749/739 358/751/741
f 232/750/740 358/751/741 233/752/742
f 233/752/742 358/751/741 359/753/743
f 233/752/742 359/753/743 234/754/744
f 234/754/744 359/753/743 360/755/745
f 234/754/744 360/755/745 226/756/746
f 226/756/746 360/755/745 361/757/747
f 226/756/746 361/757/747 221/758/748
f 221/758/748 361/757/747 362/759/749
f 221/758/748 362/759/749 222/760/750
f 222/760/750 362/759/749 223/761/751
f 223/761/751 362/759/749 363/762/752
f 223/761/751 363/762/752 224/763/753
f 224/763/753 363/762/752 364/764/754
f 224/763/753 364/764/754 180/765/755
f 180/765/755 364/764/754 181/766/756
f 181/766/756 364/764/754 365/767/757
f 181/766/756 365/767/757 308/768/758
f 308/768/758 365/767/757 366/769/759
f 308/768/758 366/769/759 309/770/760
f 309/770/760 366/769/759 367/771/761
f 309/770/760 367/771/761 310/772/762
f 310/772/762 367/771/761 368/773/763
f 310/772/762 368/773/763 311/744/734
f 311/744/734 368/773/763 369/742/732
f 215/741/731 214/774/764 225/743/733
f 221/758/748 220/775/765 226/756/746
f 147/776/766 371/777/767 92/778/498
f 92/778/498 371/777/767 372/779/768
f 92/778/498 372/779/768 93/780/769
f 373/781/770 371/782/771 146/783/772
f 146/783/772 371/782/771 147/784/773
f 373/785/774 119/786/595 374/787/775
f 374/787/775 119/786/595 118/788/509
f 374/787/775 118/788/509 240/789/776
f 373/785/774 146/790/777 119/786/595
f 93/791/778 372/792/779 94/793/563
f 94/793/563 372/792/779 374/794/780
f 94/793/563 374/794/780 240/795/781
f 372/796/782 368/797/783 374/798/784
f 374/798/784 368/797/783 367/799/785
f 374/798/784 367/799/785 366/800/786
f 371/801/787 320/802/788 372/796/782
f 372/796/782 320/802/788 336/803/789
f 372/796/782 336/803/789 335/804/790
f 373/805/791 339/806/792 371/801/787
f 371/801/787 339/806/792 327/807/793
f 371/801/787 327/807/793 326/808/794
f 374/798/784 346/809/795 373/805/791
f 373/805/791 346/809/795 345/810/796
f 373/805/791 345/810/796 344/811/797
f 335/804/790 334/812/798 372/796/782
f 372/796/782 334/812/798 333/813/799
f 372/796/782 333/813/799 332/814/800
f 332/814/800 331/815/801 372/796/782
f 372/796/782 331/815/801 355/816/802
f 372/796/782 355/816/802 354/817/803
f 355/816/802 331/815/801 356/818/804
f 356/818/804 331/815/801 330/819/805
f 356/818/804 330/819/805 352/820/806
f 352/820/806 330/819/805 353/821/807
f 353/821/807 330/819/805 329/822/808
f 353/821/807 329/822/808 337/823/809
f 337/823/809 329/822/808 328/824/810
f 337/823/809 328/824/810 338/825/811
f 338/825/811 328/824/810 327/807/793
f 338/825/811 327/807/793 339/806/792
f 326/808/794 325/826/812 371/801/787
f 371/801/787 325/826/812 324/827/813
f 371/801/787 324/827/813 323/828/814
f 323/828/814 322/829/815 371/801/787
f 371/801/787 322/829/815 321/830/816
f 371/801/787 321/830/816 320/802/788
f 352/820/806 351/831/817 356/818/804
f 356/818/804 351/831/817 357/832/818
f 357/832/818 351/831/817 350/833/819
f 357/832/818 350/833/819 358/834/820
f 358/834/820 350/833/819 349/835/821
f 358/834/820 349/835/821 359/836/822
f 359/836/822 349/835/821 348/837/823
f 359/836/822 348/837/823 360/838/824
f 360/838/824 348/837/823 347/839/825
f 360/838/824 347/839/825 361/840/826
f 361/840/826 347/839/825 346/809/795
f 361/840/826 346/809/795 362/841/827
f 362/841/827 346/809/795 374/798/784
f 362/841/827 374/798/784 363/842/828
f 363/842/828 374/798/784 364/843/829
f 364/843/829 374/798/784 365/844/830
f 365/844/830 374/798/784 366/800/786
f 344/811/797 343/845/831 373/805/791
f 373/805/791 343/845/831 342/846/832
f 373/805/791 342/846/832 341/847/833
f 341/847/833 340/848/834 373/805/791
f 373/805/791 340/848/834 339/806/792
f 354/817/803 370/849/835 372/796/782
f 372/796/782 370/849/835 369/850/836
f 372/796/782 369/850/836 368/797/783
# 374 vertices
# 850 texture params
# 836 normals
# 756 facets

# 1 groups
