# WaveFront *.obj file (generated by Autodesk ATF)

mtllib body36_visual.mtl

g Body36

v -27.230000 3.001599 -1.719141
v -27.230000 3.069214 -1.701024
v -27.480000 3.069214 -1.701024
v -27.480000 3.001599 -1.719141
v -27.230000 2.983482 -1.651527
v -27.480000 2.983482 -1.651527
v -27.230000 3.051096 -1.633409
v -27.480000 3.051096 -1.633409
v -27.230000 2.927606 -1.790731
v -27.230000 2.883607 -1.626524
v -27.480000 2.883607 -1.626524
v -27.480000 2.927606 -1.790731
v -27.230000 2.976596 -1.819016
v -27.480000 2.976596 -1.819016
v -27.230000 3.140804 -1.775016
v -27.480000 3.140804 -1.775016
v -27.230000 3.169088 -1.726027
v -27.480000 3.169088 -1.726027
v -27.230000 3.125089 -1.561819
v -27.480000 3.125089 -1.561819
v -27.230000 3.076099 -1.533535
v -27.480000 3.076099 -1.533535
v -27.230000 2.911892 -1.577534
v -27.480000 2.911892 -1.577534
vt 0.000000 0.000000 0.000000
vt 0.070000 0.000000 0.000000
vt -0.000000 0.250000 0.000000
vt 0.070000 0.250000 0.000000
vt 0.000000 0.000000 0.000000
vt 0.070000 0.000000 0.000000
vt 0.000000 0.250000 0.000000
vt 0.070000 0.250000 0.000000
vt -0.000000 0.000000 0.000000
vt 0.070000 -0.000000 0.000000
vt 0.000000 0.250000 0.000000
vt 0.070000 0.250000 0.000000
vt 0.000000 0.000000 0.000000
vt 0.070000 -0.000000 0.000000
vt 0.000000 0.250000 0.000000
vt 0.070000 0.250000 0.000000
vt 0.000000 0.000000 0.000000
vt 0.170000 -0.000000 0.000000
vt 0.000000 0.250000 0.000000
vt 0.170000 0.250000 0.000000
vt 0.000000 0.000000 0.000000
vt 0.056569 -0.000000 0.000000
vt -0.000000 0.250000 0.000000
vt 0.056569 0.250000 0.000000
vt -0.000000 0.000000 0.000000
vt 0.170000 -0.000000 0.000000
vt -0.000000 0.250000 0.000000
vt 0.170000 0.250000 0.000000
vt 0.000000 0.000000 0.000000
vt 0.056569 0.000000 0.000000
vt -0.000000 0.250000 0.000000
vt 0.056569 0.250000 0.000000
vt 0.000000 0.000000 0.000000
vt 0.170000 0.000000 0.000000
vt 0.000000 0.250000 0.000000
vt 0.170000 0.250000 0.000000
vt 0.000000 0.000000 0.000000
vt 0.056569 0.000000 0.000000
vt 0.000000 0.250000 0.000000
vt 0.056569 0.250000 0.000000
vt 0.000000 0.000000 0.000000
vt 0.170000 0.000000 0.000000
vt 0.000000 0.250000 0.000000
vt 0.170000 0.250000 0.000000
vt 0.000000 0.000000 0.000000
vt 0.056569 -0.000000 0.000000
vt 0.000000 0.250000 0.000000
vt 0.056569 0.250000 0.000000
vt -0.035000 -0.035000 0.000000
vt 0.085000 -0.125000 0.000000
vt 0.035000 -0.035000 0.000000
vt 0.125000 -0.085000 0.000000
vt 0.035000 0.035000 0.000000
vt 0.125000 0.085000 0.000000
vt 0.085000 0.125000 0.000000
vt -0.035000 0.035000 0.000000
vt -0.125000 -0.085000 0.000000
vt -0.085000 -0.125000 0.000000
vt -0.085000 0.125000 0.000000
vt -0.125000 0.085000 0.000000
vt -0.035000 -0.035000 0.000000
vt 0.085000 -0.125000 0.000000
vt 0.035000 -0.035000 0.000000
vt 0.125000 -0.085000 0.000000
vt 0.035000 0.035000 0.000000
vt 0.125000 0.085000 0.000000
vt 0.085000 0.125000 0.000000
vt -0.035000 0.035000 0.000000
vt -0.125000 -0.085000 0.000000
vt -0.085000 -0.125000 0.000000
vt -0.085000 0.125000 0.000000
vt -0.125000 0.085000 0.000000
vn -0.000000 -0.258819 0.965926
vn -0.000000 -0.258819 0.965926
vn -0.000000 -0.258819 0.965926
vn -0.000000 -0.258819 0.965926
vn 0.000000 0.965926 0.258819
vn 0.000000 0.965926 0.258819
vn 0.000000 0.965926 0.258819
vn 0.000000 0.965926 0.258819
vn 0.000000 0.258819 -0.965926
vn 0.000000 0.258819 -0.965926
vn 0.000000 0.258819 -0.965926
vn 0.000000 0.258819 -0.965926
vn -0.000000 -0.965926 -0.258819
vn -0.000000 -0.965926 -0.258819
vn -0.000000 -0.965926 -0.258819
vn -0.000000 -0.965926 -0.258819
vn -0.000000 -0.965926 -0.258819
vn -0.000000 -0.965926 -0.258819
vn -0.000000 -0.965926 -0.258819
vn -0.000000 -0.965926 -0.258819
vn 0.000000 -0.500000 -0.866025
vn 0.000000 -0.500000 -0.866025
vn 0.000000 -0.500000 -0.866025
vn 0.000000 -0.500000 -0.866025
vn 0.000000 0.258819 -0.965926
vn 0.000000 0.258819 -0.965926
vn 0.000000 0.258819 -0.965926
vn 0.000000 0.258819 -0.965926
vn 0.000000 0.866025 -0.500000
vn 0.000000 0.866025 -0.500000
vn 0.000000 0.866025 -0.500000
vn 0.000000 0.866025 -0.500000
vn 0.000000 0.965926 0.258819
vn 0.000000 0.965926 0.258819
vn 0.000000 0.965926 0.258819
vn 0.000000 0.965926 0.258819
vn -0.000000 0.500000 0.866025
vn -0.000000 0.500000 0.866025
vn -0.000000 0.500000 0.866025
vn -0.000000 0.500000 0.866025
vn -0.000000 -0.258819 0.965926
vn -0.000000 -0.258819 0.965926
vn -0.000000 -0.258819 0.965926
vn -0.000000 -0.258819 0.965926
vn -0.000000 -0.866025 0.500000
vn -0.000000 -0.866025 0.500000
vn -0.000000 -0.866025 0.500000
vn -0.000000 -0.866025 0.500000
vn -1.000000 0.000000 -0.000000
vn -1.000000 0.000000 -0.000000
vn -1.000000 0.000000 -0.000000
vn -1.000000 0.000000 -0.000000
vn -1.000000 0.000000 -0.000000
vn -1.000000 0.000000 -0.000000
vn -1.000000 0.000000 -0.000000
vn -1.000000 0.000000 -0.000000
vn -1.000000 0.000000 -0.000000
vn -1.000000 0.000000 -0.000000
vn -1.000000 0.000000 -0.000000
vn -1.000000 0.000000 -0.000000
vn 1.000000 -0.000000 0.000000
vn 1.000000 -0.000000 0.000000
vn 1.000000 -0.000000 0.000000
vn 1.000000 -0.000000 0.000000
vn 1.000000 -0.000000 0.000000
vn 1.000000 -0.000000 0.000000
vn 1.000000 -0.000000 0.000000
vn 1.000000 -0.000000 0.000000
vn 1.000000 -0.000000 0.000000
vn 1.000000 -0.000000 0.000000
vn 1.000000 -0.000000 0.000000
vn 1.000000 -0.000000 0.000000
usemtl Polycarbonate_(Clear)
f 1/1/1 2/2/2 4/3/3
f 4/3/3 2/2/2 3/4/4
f 5/5/5 1/6/6 6/7/7
f 6/7/7 1/6/6 4/8/8
f 7/9/9 5/10/10 8/11/11
f 8/11/11 5/10/10 6/12/12
f 2/13/13 7/14/14 3/15/15
f 3/15/15 7/14/14 8/16/16
f 9/17/17 10/18/18 12/19/19
f 12/19/19 10/18/18 11/20/20
f 13/21/21 9/22/22 14/23/23
f 14/23/23 9/22/22 12/24/24
f 15/25/25 13/26/26 16/27/27
f 16/27/27 13/26/26 14/28/28
f 17/29/29 15/30/30 18/31/31
f 18/31/31 15/30/30 16/32/32
f 19/33/33 17/34/34 20/35/35
f 20/35/35 17/34/34 18/36/36
f 21/37/37 19/38/38 22/39/39
f 22/39/39 19/38/38 20/40/40
f 23/41/41 21/42/42 24/43/43
f 24/43/43 21/42/42 22/44/44
f 10/45/45 23/46/46 11/47/47
f 11/47/47 23/46/46 24/48/48
f 8/49/49 18/50/50 3/51/51
f 3/51/51 18/50/50 16/52/52
f 3/51/51 16/52/52 4/53/53
f 4/53/53 16/52/52 14/54/54
f 4/53/53 14/54/54 12/55/55
f 6/56/56 22/57/57 8/49/49
f 8/49/49 22/57/57 20/58/58
f 8/49/49 20/58/58 18/50/50
f 4/53/53 11/59/59 6/56/56
f 6/56/56 11/59/59 24/60/60
f 6/56/56 24/60/60 22/57/57
f 12/55/55 11/59/59 4/53/53
f 2/61/61 19/62/62 7/63/63
f 7/63/63 19/62/62 21/64/64
f 7/63/63 21/64/64 5/65/65
f 5/65/65 21/64/64 23/66/66
f 5/65/65 23/66/66 10/67/67
f 1/68/68 15/69/69 2/61/61
f 2/61/61 15/69/69 17/70/70
f 2/61/61 17/70/70 19/62/62
f 5/65/65 9/71/71 1/68/68
f 1/68/68 9/71/71 13/72/72
f 1/68/68 13/72/72 15/69/69
f 10/67/67 9/71/71 5/65/65
# 24 vertices
# 72 texture params
# 72 normals
# 48 facets

# 1 groups
