# WaveFront *.obj file (generated by Autodesk ATF)

mtllib body102_visual.mtl

g Body102

v -27.297463 2.584510 -2.131820
v -27.240363 2.584510 -2.131820
v -27.240363 2.584157 -2.130501
v -27.297463 2.584157 -2.130501
v -27.297463 2.470547 -2.286589
v -27.240363 2.470547 -2.286589
v -27.240363 2.470831 -2.287647
v -27.297463 2.470831 -2.287647
v -27.297463 2.439489 -2.170678
v -27.240363 2.439489 -2.170678
v -27.297773 2.584534 -2.131814
v -27.298076 2.584603 -2.131795
v -27.298363 2.584717 -2.131764
v -27.298363 2.439282 -2.170733
v -27.298076 2.439396 -2.170703
v -27.297773 2.439466 -2.170684
v -27.297463 2.615569 -2.247731
v -27.240363 2.615569 -2.247731
v -27.297773 2.470524 -2.286595
v -27.298076 2.470455 -2.286614
v -27.298363 2.470341 -2.286645
v -27.298363 2.615775 -2.247675
v -27.298076 2.615661 -2.247706
v -27.297773 2.615592 -2.247725
v -27.238363 2.468381 -2.286232
v -27.238363 2.468098 -2.285175
v -27.238363 2.616983 -2.245281
v -27.238363 2.617336 -2.246600
v -27.238363 2.648525 -2.238243
v -27.238363 2.617795 -2.123558
v -27.238363 2.586606 -2.131915
v -27.238363 2.586960 -2.133234
v -27.238363 2.438075 -2.173128
v -27.238363 2.437651 -2.171547
v -27.238363 2.406463 -2.179904
v -27.238363 2.437193 -2.294589
v -27.297463 2.439066 -2.169098
v -27.240363 2.439066 -2.169098
v -27.240363 2.437711 -2.296521
v -27.297463 2.437711 -2.296521
v -27.297463 2.405945 -2.177972
v -27.240363 2.405945 -2.177972
v -27.297463 2.435261 -2.295107
v -27.240363 2.435261 -2.295107
v -27.240363 2.404531 -2.180422
v -27.297463 2.404531 -2.180422
v -27.299463 2.468381 -2.286232
v -27.299463 2.437193 -2.294589
v -27.299463 2.406463 -2.179904
v -27.299463 2.437651 -2.171547
v -27.297463 2.615922 -2.249050
v -27.240363 2.615922 -2.249050
v -27.240363 2.617277 -2.121626
v -27.297463 2.617277 -2.121626
v -27.297463 2.649042 -2.240175
v -27.240363 2.649042 -2.240175
v -27.297463 2.619727 -2.123040
v -27.240363 2.619727 -2.123040
v -27.240363 2.650456 -2.237726
v -27.297463 2.650456 -2.237726
v -27.299463 2.617336 -2.246600
v -27.299463 2.586606 -2.131915
v -27.299463 2.617795 -2.123558
v -27.299463 2.648525 -2.238243
v -27.298463 2.617346 -2.121885
v -27.299195 2.617536 -2.122592
v -27.299311 2.585669 -2.131374
v -27.298877 2.584874 -2.130915
v -27.298229 2.584343 -2.130608
v -27.297853 2.584204 -2.130528
v -27.298463 2.600786 -2.126322
v -27.299195 2.600976 -2.127029
v -27.298463 2.619468 -2.123110
v -27.299195 2.618761 -2.123299
v -27.297463 2.618312 -2.121626
v -27.297463 2.619209 -2.122144
v -27.299195 2.618502 -2.122851
v -27.298463 2.619019 -2.122333
v -27.298463 2.618243 -2.121885
v -27.299195 2.618054 -2.122592
v -27.299311 2.616795 -2.247538
v -27.298877 2.616336 -2.248332
v -27.298229 2.616030 -2.248863
v -27.297853 2.615949 -2.249003
v -27.298463 2.589710 -2.150190
v -27.298463 2.595004 -2.169948
v -27.298463 2.600298 -2.189706
v -27.298463 2.605593 -2.209464
v -27.298463 2.610887 -2.229222
v -27.299195 2.590417 -2.150000
v -27.299195 2.595711 -2.169758
v -27.299195 2.601005 -2.189516
v -27.299195 2.606300 -2.209275
v -27.299195 2.611594 -2.229033
v -27.239973 2.584557 -2.131847
v -27.239598 2.584697 -2.131927
v -27.238949 2.585228 -2.132234
v -27.238515 2.586022 -2.132693
v -27.238515 2.585669 -2.131374
v -27.238949 2.584874 -2.130915
v -27.239598 2.584343 -2.130608
v -27.239973 2.584204 -2.130528
v -27.238631 2.617536 -2.122592
v -27.239363 2.617346 -2.121885
v -27.239363 2.600786 -2.126322
v -27.238631 2.600976 -2.127029
v -27.240363 2.618312 -2.121626
v -27.240363 2.619209 -2.122144
v -27.278430 2.619209 -2.122144
v -27.259397 2.619209 -2.122144
v -27.278430 2.618312 -2.121626
v -27.259397 2.618312 -2.121626
v -27.298463 2.650198 -2.237795
v -27.299195 2.649491 -2.237985
v -27.299195 2.623882 -2.142414
v -27.299195 2.629004 -2.161528
v -27.299195 2.634126 -2.180642
v -27.299195 2.639247 -2.199756
v -27.299195 2.644369 -2.218870
v -27.298463 2.624589 -2.142224
v -27.298463 2.629711 -2.161338
v -27.298463 2.634833 -2.180452
v -27.298463 2.639954 -2.199567
v -27.298463 2.645076 -2.218681
v -27.299195 2.648783 -2.239209
v -27.298463 2.648973 -2.239917
v -27.298463 2.632413 -2.244354
v -27.299195 2.632223 -2.243647
v -27.299195 2.406204 -2.178938
v -27.298463 2.406015 -2.178231
v -27.297853 2.439038 -2.169145
v -27.298229 2.438958 -2.169284
v -27.298877 2.438651 -2.169815
v -27.299311 2.438193 -2.170610
v -27.299195 2.422764 -2.174501
v -27.298463 2.422575 -2.173794
v -27.239973 2.439462 -2.170725
v -27.239598 2.439381 -2.170865
v -27.238949 2.439075 -2.171396
v -27.238515 2.438616 -2.172190
v -27.238631 2.565432 -2.137967
v -27.238631 2.544162 -2.143666
v -27.238631 2.522893 -2.149365
v -27.238631 2.501624 -2.155064
v -27.238631 2.480355 -2.160763
v -27.238631 2.459085 -2.166463
v -27.239363 2.565242 -2.137260
v -27.239363 2.543973 -2.142959
v -27.239363 2.522704 -2.148658
v -27.239363 2.501434 -2.154357
v -27.239363 2.480165 -2.160056
v -27.239363 2.458896 -2.165755
v -27.238631 2.618761 -2.123299
v -27.239363 2.619468 -2.123110
v -27.239497 2.618372 -2.121850
v -27.239863 2.619244 -2.122273
v -27.238863 2.618537 -2.122463
v -27.239497 2.619338 -2.122627
v -27.297463 2.650456 -2.238761
v -27.297463 2.649939 -2.239658
v -27.298329 2.649879 -2.239434
v -27.297963 2.650422 -2.238632
v -27.298963 2.649715 -2.238821
v -27.298329 2.650327 -2.238278
v -27.297853 2.470784 -2.287619
v -27.298229 2.470644 -2.287539
v -27.298877 2.470113 -2.287232
v -27.299311 2.469319 -2.286774
v -27.298463 2.465278 -2.267958
v -27.298463 2.459984 -2.248200
v -27.298463 2.454689 -2.228441
v -27.298463 2.449395 -2.208683
v -27.298463 2.444101 -2.188925
v -27.299195 2.464571 -2.268147
v -27.299195 2.459276 -2.248389
v -27.299195 2.453982 -2.228631
v -27.299195 2.448688 -2.208873
v -27.299195 2.443394 -2.189115
v -27.297463 2.404531 -2.179386
v -27.297463 2.405049 -2.178490
v -27.299195 2.405497 -2.180163
v -27.298463 2.404790 -2.180352
v -27.298329 2.405109 -2.178714
v -27.297963 2.404566 -2.179516
v -27.298963 2.405273 -2.179326
v -27.298329 2.404661 -2.179869
v -27.239973 2.439038 -2.169145
v -27.239598 2.438958 -2.169284
v -27.238949 2.438651 -2.169815
v -27.238515 2.438193 -2.170610
v -27.238631 2.649491 -2.237985
v -27.239363 2.650198 -2.237795
v -27.239363 2.624589 -2.142224
v -27.239363 2.629711 -2.161338
v -27.239363 2.634833 -2.180452
v -27.239363 2.639954 -2.199567
v -27.239363 2.645076 -2.218681
v -27.238631 2.623882 -2.142414
v -27.238631 2.629004 -2.161528
v -27.238631 2.634126 -2.180642
v -27.238631 2.639247 -2.199756
v -27.238631 2.644369 -2.218870
v -27.240363 2.650456 -2.238761
v -27.240363 2.649939 -2.239658
v -27.278430 2.649939 -2.239658
v -27.259397 2.649939 -2.239658
v -27.278430 2.650456 -2.238761
v -27.259397 2.650456 -2.238761
v -27.298463 2.437641 -2.296262
v -27.299195 2.437452 -2.295555
v -27.299195 2.454012 -2.291118
v -27.298463 2.454201 -2.291825
v -27.299195 2.436227 -2.294848
v -27.298463 2.435520 -2.295038
v -27.298463 2.409912 -2.199466
v -27.298463 2.415033 -2.218581
v -27.298463 2.420155 -2.237695
v -27.298463 2.425277 -2.256809
v -27.298463 2.430398 -2.275923
v -27.299195 2.410619 -2.199277
v -27.299195 2.415740 -2.218391
v -27.299195 2.420862 -2.237505
v -27.299195 2.425984 -2.256620
v -27.299195 2.431105 -2.275734
v -27.240363 2.404531 -2.179386
v -27.240363 2.405049 -2.178490
v -27.278430 2.405049 -2.178490
v -27.259397 2.405049 -2.178490
v -27.278430 2.404531 -2.179386
v -27.259397 2.404531 -2.179386
v -27.239363 2.406015 -2.178231
v -27.238631 2.406204 -2.178938
v -27.238631 2.422764 -2.174501
v -27.239363 2.422575 -2.173794
v -27.238631 2.648783 -2.239209
v -27.239363 2.648973 -2.239917
v -27.239497 2.650232 -2.238821
v -27.239863 2.649809 -2.239692
v -27.238863 2.649620 -2.238985
v -27.239497 2.649456 -2.239787
v -27.297463 2.436675 -2.296521
v -27.297463 2.435779 -2.296003
v -27.298963 2.436451 -2.295685
v -27.298329 2.435649 -2.295521
v -27.298329 2.436615 -2.296297
v -27.297963 2.435744 -2.295874
v -27.239363 2.404790 -2.180352
v -27.238631 2.405497 -2.180163
v -27.238863 2.405273 -2.179326
v -27.239497 2.404661 -2.179869
v -27.239497 2.405109 -2.178714
v -27.239863 2.404566 -2.179516
v -27.238515 2.616795 -2.247538
v -27.238949 2.616336 -2.248332
v -27.239598 2.616030 -2.248863
v -27.239973 2.615949 -2.249003
v -27.239363 2.632413 -2.244354
v -27.238631 2.632223 -2.243647
v -27.240363 2.436675 -2.296521
v -27.240363 2.435779 -2.296003
v -27.278430 2.435779 -2.296003
v -27.259397 2.435779 -2.296003
v -27.278430 2.436675 -2.296521
v -27.259397 2.436675 -2.296521
v -27.239363 2.435520 -2.295038
v -27.238631 2.436227 -2.294848
v -27.238631 2.410619 -2.199277
v -27.238631 2.415740 -2.218391
v -27.238631 2.420862 -2.237505
v -27.238631 2.425984 -2.256620
v -27.238631 2.431105 -2.275734
v -27.239363 2.409912 -2.199466
v -27.239363 2.415033 -2.218581
v -27.239363 2.420155 -2.237695
v -27.239363 2.425277 -2.256809
v -27.239363 2.430398 -2.275923
v -27.238515 2.616442 -2.246219
v -27.238949 2.615983 -2.247013
v -27.239598 2.615676 -2.247544
v -27.239973 2.615596 -2.247684
v -27.239363 2.437641 -2.296262
v -27.238631 2.437452 -2.295555
v -27.238863 2.436615 -2.295779
v -27.239497 2.437158 -2.296392
v -27.239497 2.436003 -2.295943
v -27.239863 2.436805 -2.296486
v -27.238515 2.469035 -2.285716
v -27.238949 2.469830 -2.286175
v -27.239598 2.470361 -2.286482
v -27.239973 2.470500 -2.286562
v -27.239363 2.596162 -2.252653
v -27.239363 2.574893 -2.258353
v -27.239363 2.553623 -2.264052
v -27.239363 2.532354 -2.269751
v -27.239363 2.511085 -2.275450
v -27.239363 2.489816 -2.281149
v -27.238631 2.595972 -2.251946
v -27.238631 2.574703 -2.257645
v -27.238631 2.553434 -2.263345
v -27.238631 2.532165 -2.269044
v -27.238631 2.510895 -2.274743
v -27.238631 2.489626 -2.280442
v -27.239973 2.470784 -2.287619
v -27.239598 2.470644 -2.287539
v -27.238949 2.470113 -2.287232
v -27.238515 2.469319 -2.286774
v -27.238631 2.454012 -2.291118
v -27.239363 2.454201 -2.291825
vt 0.121366 -0.188183 0.000000
vt 0.122731 -0.188183 0.000000
vt 0.121366 -0.131083 0.000000
vt 0.122731 -0.131083 0.000000
vt -0.001095 -0.188183 0.000000
vt -0.000000 -0.188183 0.000000
vt -0.001095 -0.131083 0.000000
vt -0.000000 -0.131083 0.000000
vt -0.185069 -0.058000 0.000000
vt -0.034931 -0.058000 0.000000
vt -0.185069 -0.000900 0.000000
vt -0.034931 -0.000900 0.000000
vt -0.185093 -0.000590 0.000000
vt -0.034907 -0.000590 0.000000
vt -0.185165 -0.000288 0.000000
vt -0.034835 -0.000288 0.000000
vt -0.185282 -0.000000 0.000000
vt -0.034718 -0.000000 0.000000
vt 0.034931 -0.058000 0.000000
vt 0.185069 -0.058000 0.000000
vt 0.034931 -0.000900 0.000000
vt 0.185069 -0.000900 0.000000
vt 0.034907 -0.000590 0.000000
vt 0.185093 -0.000590 0.000000
vt 0.034835 -0.000288 0.000000
vt 0.185165 -0.000288 0.000000
vt 0.034718 -0.000000 0.000000
vt 0.185282 0.000000 0.000000
vt 0.060000 0.075282 0.000000
vt -0.060000 0.075282 0.000000
vt 0.060000 -0.075282 0.000000
vt -0.060000 -0.075282 0.000000
vt 0.059095 -0.077069 0.000000
vt 0.058000 -0.077069 0.000000
vt 0.059095 -0.109357 0.000000
vt -0.058000 -0.077069 0.000000
vt -0.059636 -0.109357 0.000000
vt -0.059636 -0.077069 0.000000
vt -0.058000 0.077069 0.000000
vt 0.058000 0.077069 0.000000
vt -0.059366 0.109357 0.000000
vt 0.059366 0.109357 0.000000
vt 0.059366 0.077069 0.000000
vt -0.059366 0.077069 0.000000
vt -0.122731 -0.188183 0.000000
vt -0.121095 -0.188183 0.000000
vt -0.122731 -0.131083 0.000000
vt -0.121095 -0.131083 0.000000
vt -0.036289 -0.188183 0.000000
vt -0.002000 -0.188183 0.000000
vt -0.036289 -0.131083 0.000000
vt -0.002000 -0.131083 0.000000
vt 0.002000 -0.188183 0.000000
vt 0.036289 -0.188183 0.000000
vt 0.002000 -0.131083 0.000000
vt 0.036289 -0.131083 0.000000
vt 0.002000 -0.188183 0.000000
vt 0.120731 -0.188183 0.000000
vt 0.002000 -0.131083 0.000000
vt 0.120731 -0.131083 0.000000
vt -0.059095 -0.109357 0.000000
vt 0.059636 -0.109357 0.000000
vt -0.059095 -0.077069 0.000000
vt 0.059636 -0.077069 0.000000
vt -0.000000 -0.188183 0.000000
vt 0.001366 -0.188183 0.000000
vt 0.000000 -0.131083 0.000000
vt 0.001366 -0.131083 0.000000
vt -0.036289 -0.188183 0.000000
vt -0.002000 -0.188183 0.000000
vt -0.036289 -0.131083 0.000000
vt -0.002000 -0.131083 0.000000
vt 0.002000 -0.188183 0.000000
vt 0.036289 -0.188183 0.000000
vt 0.002000 -0.131083 0.000000
vt 0.036289 -0.131083 0.000000
vt -0.120731 -0.188183 0.000000
vt -0.002000 -0.188183 0.000000
vt -0.120731 -0.131083 0.000000
vt -0.002000 -0.131083 0.000000
vt -0.059366 0.077069 0.000000
vt 0.059366 0.077069 0.000000
vt -0.059366 0.109357 0.000000
vt 0.059366 0.109357 0.000000
vt -0.002000 0.001047 0.000000
vt -0.019144 0.001047 0.000000
vt -0.002000 0.000000 0.000000
vt -0.036250 0.000393 0.000000
vt -0.036289 0.000000 0.000000
vt -0.019144 0.002094 0.000000
vt -0.002000 0.002094 0.000000
vt -0.002000 0.003142 0.000000
vt -0.034289 0.003142 0.000000
vt -0.035054 0.002356 0.000000
vt -0.035703 0.001571 0.000000
vt -0.036136 0.000785 0.000000
vt -0.000000 0.000000 0.000000
vt -0.001047 0.000000 0.000000
vt -0.000000 -0.000740 0.000000
vt -0.001047 -0.000740 0.000000
vt -0.000000 -0.001481 0.000000
vt -0.001047 -0.001481 0.000000
vt -0.000000 -0.002221 0.000000
vt -0.001047 -0.002221 0.000000
vt -0.002094 -0.001481 0.000000
vt -0.002094 -0.002221 0.000000
vt -0.003142 -0.001481 0.000000
vt -0.002094 0.000000 0.000000
vt -0.002094 -0.000740 0.000000
vt -0.003142 0.000000 0.000000
vt -0.003142 -0.000740 0.000000
vt 0.121366 0.000000 0.000000
vt 0.122731 0.000000 0.000000
vt 0.121366 0.000311 0.000000
vt 0.122693 0.000393 0.000000
vt 0.121366 0.000622 0.000000
vt 0.122579 0.000785 0.000000
vt 0.121366 0.000934 0.000000
vt 0.122145 0.001571 0.000000
vt 0.102276 0.001047 0.000000
vt 0.102276 0.002094 0.000000
vt 0.081821 0.002094 0.000000
vt 0.121496 0.002356 0.000000
vt 0.002000 0.003142 0.000000
vt 0.120731 0.003142 0.000000
vt 0.001235 0.002356 0.000000
vt 0.020455 0.002094 0.000000
vt 0.040910 0.002094 0.000000
vt 0.061366 0.002094 0.000000
vt 0.061366 0.001047 0.000000
vt 0.081821 0.001047 0.000000
vt 0.000586 0.001571 0.000000
vt 0.020455 0.001047 0.000000
vt 0.040910 0.001047 0.000000
vt 0.001366 0.000934 0.000000
vt 0.000152 0.000785 0.000000
vt 0.001366 0.000622 0.000000
vt 0.000038 0.000393 0.000000
vt 0.001366 0.000311 0.000000
vt 0.000000 -0.000000 0.000000
vt 0.001366 0.000000 0.000000
vt 0.122731 0.000000 0.000000
vt 0.121366 0.000000 0.000000
vt 0.122693 -0.000393 0.000000
vt 0.121327 -0.000393 0.000000
vt 0.122579 -0.000785 0.000000
vt 0.121213 -0.000785 0.000000
vt 0.122145 -0.001571 0.000000
vt 0.120780 -0.001571 0.000000
vt 0.121496 -0.002356 0.000000
vt 0.120131 -0.002356 0.000000
vt 0.120731 -0.003142 0.000000
vt 0.119366 -0.003142 0.000000
vt -0.002000 0.000000 0.000000
vt -0.036289 0.000000 0.000000
vt -0.019144 -0.001047 0.000000
vt -0.036250 -0.000393 0.000000
vt -0.036136 -0.000785 0.000000
vt -0.035703 -0.001571 0.000000
vt -0.019144 -0.002094 0.000000
vt -0.002000 -0.002094 0.000000
vt -0.002000 -0.003142 0.000000
vt -0.035054 -0.002356 0.000000
vt -0.034289 -0.003142 0.000000
vt -0.002000 -0.001047 0.000000
vt -0.131083 0.004189 0.000000
vt -0.150117 0.004189 0.000000
vt -0.131083 0.003142 0.000000
vt -0.169150 0.004189 0.000000
vt -0.188183 0.003142 0.000000
vt -0.188183 0.004189 0.000000
vt -0.188183 0.005236 0.000000
vt -0.169150 0.005236 0.000000
vt -0.188183 0.006283 0.000000
vt -0.150117 0.005236 0.000000
vt -0.131083 0.006283 0.000000
vt -0.131083 0.005236 0.000000
vt -0.120731 0.002094 0.000000
vt -0.100943 0.002094 0.000000
vt -0.120731 0.003142 0.000000
vt -0.081154 0.002094 0.000000
vt -0.061366 0.002094 0.000000
vt -0.061366 0.001047 0.000000
vt -0.041577 0.001047 0.000000
vt -0.002000 0.000000 0.000000
vt -0.021789 0.001047 0.000000
vt -0.002000 0.001047 0.000000
vt -0.021789 0.002094 0.000000
vt -0.002000 0.002094 0.000000
vt -0.002000 0.003142 0.000000
vt -0.100943 0.001047 0.000000
vt -0.120731 0.001047 0.000000
vt -0.120731 0.000000 0.000000
vt -0.081154 0.001047 0.000000
vt -0.041577 0.002094 0.000000
vt 0.002000 -0.000000 0.000000
vt 0.036289 -0.000000 0.000000
vt 0.019144 0.001047 0.000000
vt 0.036250 0.000393 0.000000
vt 0.036136 0.000785 0.000000
vt 0.035703 0.001571 0.000000
vt 0.019144 0.002094 0.000000
vt 0.002000 0.002094 0.000000
vt 0.002000 0.003142 0.000000
vt 0.035054 0.002356 0.000000
vt 0.034289 0.003142 0.000000
vt 0.002000 0.001047 0.000000
vt 0.002000 0.002094 0.000000
vt 0.019144 0.002094 0.000000
vt 0.002000 0.003142 0.000000
vt 0.035054 0.002356 0.000000
vt 0.034289 0.003142 0.000000
vt 0.019144 0.001047 0.000000
vt 0.002000 0.001047 0.000000
vt 0.002000 0.000000 0.000000
vt 0.036289 0.000000 0.000000
vt 0.036250 0.000393 0.000000
vt 0.036136 0.000785 0.000000
vt 0.035703 0.001571 0.000000
vt -0.033697 -0.002356 0.000000
vt -0.054951 -0.002094 0.000000
vt -0.032931 -0.003142 0.000000
vt -0.076971 -0.002094 0.000000
vt -0.098990 -0.002094 0.000000
vt -0.098990 -0.001047 0.000000
vt -0.121010 -0.001047 0.000000
vt -0.185069 -0.000000 0.000000
vt -0.143029 -0.001047 0.000000
vt -0.165049 -0.001047 0.000000
vt -0.143029 -0.002094 0.000000
vt -0.165049 -0.002094 0.000000
vt -0.186303 -0.002356 0.000000
vt -0.185654 -0.001571 0.000000
vt -0.185221 -0.000785 0.000000
vt -0.185107 -0.000393 0.000000
vt -0.034346 -0.001571 0.000000
vt -0.054951 -0.001047 0.000000
vt -0.076971 -0.001047 0.000000
vt -0.034893 -0.000393 0.000000
vt -0.034779 -0.000785 0.000000
vt -0.034931 0.000000 0.000000
vt -0.187069 -0.003142 0.000000
vt -0.121010 -0.002094 0.000000
vt -0.003142 -0.001481 0.000000
vt -0.002094 -0.002221 0.000000
vt -0.002094 -0.001481 0.000000
vt -0.001047 -0.002221 0.000000
vt -0.001047 -0.001481 0.000000
vt -0.000000 -0.002221 0.000000
vt -0.000000 -0.001481 0.000000
vt -0.001047 -0.000740 0.000000
vt -0.000000 -0.000740 0.000000
vt -0.001047 -0.000000 0.000000
vt -0.000000 -0.000000 0.000000
vt -0.002094 0.000000 0.000000
vt -0.002094 -0.000740 0.000000
vt -0.003142 0.000000 0.000000
vt -0.003142 -0.000740 0.000000
vt -0.001047 -0.004443 0.000000
vt 0.000000 -0.004443 0.000000
vt -0.001047 -0.003702 0.000000
vt 0.000000 -0.003702 0.000000
vt -0.001047 -0.002962 0.000000
vt 0.000000 -0.002962 0.000000
vt -0.001047 -0.002221 0.000000
vt 0.000000 -0.002221 0.000000
vt -0.002094 -0.002221 0.000000
vt -0.002094 -0.002962 0.000000
vt -0.002094 -0.003702 0.000000
vt -0.002094 -0.004443 0.000000
vt -0.003142 -0.003702 0.000000
vt -0.003142 -0.002221 0.000000
vt -0.003142 -0.002962 0.000000
vt -0.001095 0.000622 0.000000
vt -0.000152 0.000785 0.000000
vt -0.001095 0.000934 0.000000
vt -0.000586 0.001571 0.000000
vt -0.020455 0.001047 0.000000
vt -0.020455 0.002094 0.000000
vt -0.040910 0.002094 0.000000
vt -0.001235 0.002356 0.000000
vt -0.120731 0.003142 0.000000
vt -0.002000 0.003142 0.000000
vt -0.000038 0.000393 0.000000
vt -0.001095 0.000311 0.000000
vt 0.000000 0.000000 0.000000
vt -0.001095 0.000000 0.000000
vt -0.121496 0.002356 0.000000
vt -0.102276 0.002094 0.000000
vt -0.081821 0.002094 0.000000
vt -0.061366 0.002094 0.000000
vt -0.061366 0.001047 0.000000
vt -0.040910 0.001047 0.000000
vt -0.122145 0.001571 0.000000
vt -0.102276 0.001047 0.000000
vt -0.081821 0.001047 0.000000
vt -0.121095 0.000934 0.000000
vt -0.122579 0.000785 0.000000
vt -0.121095 0.000622 0.000000
vt -0.122693 0.000393 0.000000
vt -0.121095 0.000311 0.000000
vt -0.122731 0.000000 0.000000
vt -0.121095 0.000000 0.000000
vt 0.003142 -0.000740 0.000000
vt 0.002094 -0.000000 0.000000
vt 0.002094 -0.000740 0.000000
vt 0.001047 -0.000000 0.000000
vt 0.001047 -0.000740 0.000000
vt -0.000000 -0.000000 0.000000
vt -0.000000 -0.000740 0.000000
vt 0.001047 -0.001481 0.000000
vt -0.000000 -0.001481 0.000000
vt 0.001047 -0.002221 0.000000
vt 0.000000 -0.002221 0.000000
vt 0.002094 -0.002221 0.000000
vt 0.002094 -0.001481 0.000000
vt 0.003142 -0.002221 0.000000
vt 0.003142 -0.001481 0.000000
vt -0.119095 -0.003142 0.000000
vt -0.119860 -0.002356 0.000000
vt -0.120731 -0.003142 0.000000
vt -0.121496 -0.002356 0.000000
vt -0.120509 -0.001571 0.000000
vt -0.122145 -0.001571 0.000000
vt -0.120942 -0.000785 0.000000
vt -0.122579 -0.000785 0.000000
vt -0.121056 -0.000393 0.000000
vt -0.122693 -0.000393 0.000000
vt -0.121095 -0.000000 0.000000
vt -0.122731 -0.000000 0.000000
vt -0.120731 -0.001047 0.000000
vt -0.100943 -0.001047 0.000000
vt -0.120731 0.000000 0.000000
vt -0.081154 -0.001047 0.000000
vt -0.061366 -0.001047 0.000000
vt -0.061366 -0.002094 0.000000
vt -0.041577 -0.002094 0.000000
vt -0.002000 -0.003142 0.000000
vt -0.021789 -0.002094 0.000000
vt -0.002000 -0.002094 0.000000
vt -0.021789 -0.001047 0.000000
vt -0.002000 -0.001047 0.000000
vt -0.002000 0.000000 0.000000
vt -0.100943 -0.002094 0.000000
vt -0.120731 -0.002094 0.000000
vt -0.120731 -0.003142 0.000000
vt -0.081154 -0.002094 0.000000
vt -0.041577 -0.001047 0.000000
vt -0.131083 0.001047 0.000000
vt -0.150117 0.001047 0.000000
vt -0.131083 -0.000000 0.000000
vt -0.169150 0.001047 0.000000
vt -0.188183 -0.000000 0.000000
vt -0.188183 0.001047 0.000000
vt -0.188183 0.002094 0.000000
vt -0.169150 0.002094 0.000000
vt -0.188183 0.003142 0.000000
vt -0.150117 0.002094 0.000000
vt -0.131083 0.003142 0.000000
vt -0.131083 0.002094 0.000000
vt -0.002000 0.003142 0.000000
vt -0.034289 0.003142 0.000000
vt -0.019144 0.002094 0.000000
vt -0.035054 0.002356 0.000000
vt -0.035703 0.001571 0.000000
vt -0.019144 0.001047 0.000000
vt -0.036136 0.000785 0.000000
vt -0.036250 0.000393 0.000000
vt -0.036289 -0.000000 0.000000
vt -0.002000 -0.000000 0.000000
vt -0.002000 0.001047 0.000000
vt -0.002000 0.002094 0.000000
vt 0.120731 0.001047 0.000000
vt 0.100943 0.001047 0.000000
vt 0.120731 0.000000 0.000000
vt 0.081154 0.001047 0.000000
vt 0.061366 0.001047 0.000000
vt 0.061366 0.002094 0.000000
vt 0.041577 0.002094 0.000000
vt 0.002000 0.003142 0.000000
vt 0.021789 0.002094 0.000000
vt 0.002000 0.002094 0.000000
vt 0.021789 0.001047 0.000000
vt 0.002000 0.001047 0.000000
vt 0.002000 0.000000 0.000000
vt 0.100943 0.002094 0.000000
vt 0.120731 0.002094 0.000000
vt 0.120731 0.003142 0.000000
vt 0.081154 0.002094 0.000000
vt 0.041577 0.001047 0.000000
vt -0.131083 -0.005236 0.000000
vt -0.150117 -0.005236 0.000000
vt -0.131083 -0.006283 0.000000
vt -0.169150 -0.005236 0.000000
vt -0.188183 -0.006283 0.000000
vt -0.188183 -0.005236 0.000000
vt -0.188183 -0.004189 0.000000
vt -0.169150 -0.004189 0.000000
vt -0.188183 -0.003142 0.000000
vt -0.150117 -0.004189 0.000000
vt -0.131083 -0.003142 0.000000
vt -0.131083 -0.004189 0.000000
vt 0.002000 -0.003142 0.000000
vt 0.034289 -0.003142 0.000000
vt 0.019144 -0.002094 0.000000
vt 0.035054 -0.002356 0.000000
vt 0.035703 -0.001571 0.000000
vt 0.019144 -0.001047 0.000000
vt 0.036136 -0.000785 0.000000
vt 0.036250 -0.000393 0.000000
vt 0.036289 0.000000 0.000000
vt 0.002000 0.000000 0.000000
vt 0.002000 -0.001047 0.000000
vt 0.002000 -0.002094 0.000000
vt 0.003142 -0.002962 0.000000
vt 0.002094 -0.002221 0.000000
vt 0.002094 -0.002962 0.000000
vt 0.001047 -0.002221 0.000000
vt 0.001047 -0.002962 0.000000
vt 0.000000 -0.002221 0.000000
vt 0.000000 -0.002962 0.000000
vt 0.001047 -0.003702 0.000000
vt -0.000000 -0.003702 0.000000
vt 0.001047 -0.004443 0.000000
vt 0.000000 -0.004443 0.000000
vt 0.002094 -0.004443 0.000000
vt 0.002094 -0.003702 0.000000
vt 0.003142 -0.004443 0.000000
vt 0.003142 -0.003702 0.000000
vt 0.003142 -0.002962 0.000000
vt 0.002094 -0.002221 0.000000
vt 0.002094 -0.002962 0.000000
vt 0.001047 -0.002221 0.000000
vt 0.001047 -0.002962 0.000000
vt 0.000000 -0.002221 0.000000
vt -0.000000 -0.002962 0.000000
vt 0.001047 -0.003702 0.000000
vt 0.000000 -0.003702 0.000000
vt 0.001047 -0.004443 0.000000
vt 0.000000 -0.004443 0.000000
vt 0.002094 -0.004443 0.000000
vt 0.002094 -0.003702 0.000000
vt 0.003142 -0.004443 0.000000
vt 0.003142 -0.003702 0.000000
vt 0.001047 -0.000000 0.000000
vt -0.000000 -0.000000 0.000000
vt 0.001047 -0.000740 0.000000
vt -0.000000 -0.000740 0.000000
vt 0.001047 -0.001481 0.000000
vt -0.000000 -0.001481 0.000000
vt 0.001047 -0.002221 0.000000
vt -0.000000 -0.002221 0.000000
vt 0.002094 -0.002221 0.000000
vt 0.002094 -0.001481 0.000000
vt 0.002094 -0.000740 0.000000
vt 0.002094 -0.000000 0.000000
vt 0.003142 -0.000740 0.000000
vt 0.003142 -0.002221 0.000000
vt 0.003142 -0.001481 0.000000
vt 0.002000 -0.001047 0.000000
vt 0.019144 -0.001047 0.000000
vt 0.002000 -0.000000 0.000000
vt 0.036250 -0.000393 0.000000
vt 0.036289 -0.000000 0.000000
vt 0.019144 -0.002094 0.000000
vt 0.002000 -0.002094 0.000000
vt 0.002000 -0.003142 0.000000
vt 0.034289 -0.003142 0.000000
vt 0.035054 -0.002356 0.000000
vt 0.035703 -0.001571 0.000000
vt 0.036136 -0.000785 0.000000
vt -0.131083 -0.002094 0.000000
vt -0.150117 -0.002094 0.000000
vt -0.131083 -0.003142 0.000000
vt -0.169150 -0.002094 0.000000
vt -0.188183 -0.003142 0.000000
vt -0.188183 -0.002094 0.000000
vt -0.188183 -0.001047 0.000000
vt -0.169150 -0.001047 0.000000
vt -0.188183 0.000000 0.000000
vt -0.150117 -0.001047 0.000000
vt -0.131083 0.000000 0.000000
vt -0.131083 -0.001047 0.000000
vt 0.120731 -0.002094 0.000000
vt 0.100943 -0.002094 0.000000
vt 0.120731 -0.003142 0.000000
vt 0.081154 -0.002094 0.000000
vt 0.061366 -0.002094 0.000000
vt 0.061366 -0.001047 0.000000
vt 0.041577 -0.001047 0.000000
vt 0.002000 -0.000000 0.000000
vt 0.021789 -0.001047 0.000000
vt 0.002000 -0.001047 0.000000
vt 0.021789 -0.002094 0.000000
vt 0.002000 -0.002094 0.000000
vt 0.002000 -0.003142 0.000000
vt 0.100943 -0.001047 0.000000
vt 0.120731 -0.001047 0.000000
vt 0.120731 -0.000000 0.000000
vt 0.081154 -0.001047 0.000000
vt 0.041577 -0.002094 0.000000
vt 0.000000 -0.000000 0.000000
vt 0.000038 -0.000393 0.000000
vt 0.001366 0.000000 0.000000
vt 0.001404 -0.000393 0.000000
vt 0.000152 -0.000785 0.000000
vt 0.001518 -0.000785 0.000000
vt 0.000586 -0.001571 0.000000
vt 0.001951 -0.001571 0.000000
vt 0.001235 -0.002356 0.000000
vt 0.002600 -0.002356 0.000000
vt 0.002000 -0.003142 0.000000
vt 0.003366 -0.003142 0.000000
vt 0.001047 -0.000000 0.000000
vt -0.000000 0.000000 0.000000
vt 0.001047 -0.000740 0.000000
vt -0.000000 -0.000740 0.000000
vt 0.001047 -0.001481 0.000000
vt -0.000000 -0.001481 0.000000
vt 0.001047 -0.002221 0.000000
vt -0.000000 -0.002221 0.000000
vt 0.002094 -0.002221 0.000000
vt 0.002094 -0.001481 0.000000
vt 0.002094 -0.000740 0.000000
vt 0.002094 -0.000000 0.000000
vt 0.003142 -0.000740 0.000000
vt 0.003142 -0.002221 0.000000
vt 0.003142 -0.001481 0.000000
vt 0.034893 -0.000393 0.000000
vt 0.054951 -0.001047 0.000000
vt 0.034931 -0.000000 0.000000
vt 0.076971 -0.001047 0.000000
vt 0.098990 -0.001047 0.000000
vt 0.098990 -0.002094 0.000000
vt 0.121010 -0.002094 0.000000
vt 0.187069 -0.003142 0.000000
vt 0.143029 -0.002094 0.000000
vt 0.165049 -0.002094 0.000000
vt 0.143029 -0.001047 0.000000
vt 0.165049 -0.001047 0.000000
vt 0.185107 -0.000393 0.000000
vt 0.185221 -0.000785 0.000000
vt 0.185654 -0.001571 0.000000
vt 0.186303 -0.002356 0.000000
vt 0.034779 -0.000785 0.000000
vt 0.034346 -0.001571 0.000000
vt 0.054951 -0.002094 0.000000
vt 0.033697 -0.002356 0.000000
vt 0.076971 -0.002094 0.000000
vt 0.032931 -0.003142 0.000000
vt 0.185069 -0.000000 0.000000
vt 0.121010 -0.001047 0.000000
vt -0.002000 -0.002094 0.000000
vt -0.019144 -0.002094 0.000000
vt -0.002000 -0.003142 0.000000
vt -0.035054 -0.002356 0.000000
vt -0.034289 -0.003142 0.000000
vt -0.019144 -0.001047 0.000000
vt -0.002000 -0.001047 0.000000
vt -0.002000 0.000000 0.000000
vt -0.036289 0.000000 0.000000
vt -0.036250 -0.000393 0.000000
vt -0.036136 -0.000785 0.000000
vt -0.035703 -0.001571 0.000000
vt 0.000000 0.000000 0.000000
vt -0.001095 -0.000000 0.000000
vt -0.000038 -0.000393 0.000000
vt -0.001133 -0.000393 0.000000
vt -0.000152 -0.000785 0.000000
vt -0.001247 -0.000785 0.000000
vt -0.000586 -0.001571 0.000000
vt -0.001680 -0.001571 0.000000
vt -0.001235 -0.002356 0.000000
vt -0.002329 -0.002356 0.000000
vt -0.002000 -0.003142 0.000000
vt -0.003095 -0.003142 0.000000
vn -0.000000 -0.965926 -0.258819
vn -0.000000 -0.965926 -0.258819
vn -0.000000 -0.965926 -0.258819
vn -0.000000 -0.965926 -0.258819
vn 0.000000 0.965926 0.258819
vn 0.000000 0.965926 0.258819
vn 0.000000 0.965926 0.258819
vn 0.000000 0.965926 0.258819
vn 0.000000 -0.258819 0.965926
vn 0.000000 -0.258819 0.965926
vn 0.000000 -0.258819 0.965926
vn 0.000000 -0.258819 0.965926
vn 0.000000 -0.258819 0.965926
vn 0.000000 -0.258819 0.965926
vn 0.000000 -0.258819 0.965926
vn 0.000000 -0.258819 0.965926
vn 0.000000 -0.258819 0.965926
vn 0.000000 -0.258819 0.965926
vn -0.000000 0.258819 -0.965926
vn -0.000000 0.258819 -0.965926
vn -0.000000 0.258819 -0.965926
vn -0.000000 0.258819 -0.965926
vn -0.000000 0.258819 -0.965926
vn -0.000000 0.258819 -0.965926
vn -0.000000 0.258819 -0.965926
vn -0.000000 0.258819 -0.965926
vn -0.000000 0.258819 -0.965926
vn -0.000000 0.258819 -0.965926
vn -1.000000 -0.000000 0.000000
vn -1.000000 -0.000000 0.000000
vn -1.000000 -0.000000 0.000000
vn -1.000000 -0.000000 0.000000
vn 1.000000 0.000000 -0.000000
vn 1.000000 0.000000 -0.000000
vn 1.000000 0.000000 -0.000000
vn 1.000000 0.000000 -0.000000
vn 1.000000 0.000000 -0.000000
vn 1.000000 0.000000 -0.000000
vn 1.000000 0.000000 -0.000000
vn 1.000000 0.000000 -0.000000
vn 1.000000 0.000000 -0.000000
vn 1.000000 0.000000 -0.000000
vn 1.000000 0.000000 -0.000000
vn 1.000000 0.000000 -0.000000
vn 0.000000 0.965926 0.258819
vn 0.000000 0.965926 0.258819
vn 0.000000 0.965926 0.258819
vn 0.000000 0.965926 0.258819
vn -0.000000 0.258819 -0.965926
vn -0.000000 0.258819 -0.965926
vn -0.000000 0.258819 -0.965926
vn -0.000000 0.258819 -0.965926
vn 0.000000 -0.258819 0.965926
vn 0.000000 -0.258819 0.965926
vn 0.000000 -0.258819 0.965926
vn 0.000000 -0.258819 0.965926
vn -0.000000 -0.965926 -0.258819
vn -0.000000 -0.965926 -0.258819
vn -0.000000 -0.965926 -0.258819
vn -0.000000 -0.965926 -0.258819
vn -1.000000 -0.000000 0.000000
vn -1.000000 -0.000000 0.000000
vn -1.000000 -0.000000 0.000000
vn -1.000000 -0.000000 0.000000
vn -0.000000 -0.965926 -0.258819
vn -0.000000 -0.965926 -0.258819
vn -0.000000 -0.965926 -0.258819
vn -0.000000 -0.965926 -0.258819
vn 0.000000 -0.258819 0.965926
vn 0.000000 -0.258819 0.965926
vn 0.000000 -0.258819 0.965926
vn 0.000000 -0.258819 0.965926
vn -0.000000 0.258819 -0.965926
vn -0.000000 0.258819 -0.965926
vn -0.000000 0.258819 -0.965926
vn -0.000000 0.258819 -0.965926
vn 0.000000 0.965926 0.258819
vn 0.000000 0.965926 0.258819
vn 0.000000 0.965926 0.258819
vn 0.000000 0.965926 0.258819
vn -1.000000 -0.000000 0.000000
vn -1.000000 -0.000000 0.000000
vn -1.000000 -0.000000 0.000000
vn -1.000000 -0.000000 0.000000
vn -0.500000 -0.224144 0.836516
vn -0.500000 -0.224144 0.836516
vn -0.195090 -0.253846 0.947366
vn -0.866025 -0.129410 0.482963
vn -0.866025 -0.129410 0.482963
vn -0.923880 -0.099046 0.369644
vn -0.707107 -0.183013 0.683013
vn -0.382683 -0.239118 0.892399
vn -0.500000 0.836516 0.224144
vn 0.000000 0.707107 0.707107
vn -0.500000 0.612372 0.612372
vn 0.000000 0.258819 0.965926
vn -0.500000 0.224144 0.836516
vn -0.500000 -0.224144 0.836516
vn -0.866025 0.129410 0.482963
vn -0.866025 -0.129410 0.482963
vn -0.866025 0.482963 0.129410
vn -0.866025 0.353553 0.353553
vn -0.000000 -0.965926 -0.258819
vn -0.000000 -0.965926 -0.258819
vn -0.154961 -0.954258 -0.255693
vn -0.195090 -0.947366 -0.253846
vn -0.306179 -0.919536 -0.246389
vn -0.382683 -0.892399 -0.239118
vn -0.450000 -0.862599 -0.231133
vn -0.707107 -0.683013 -0.183013
vn -0.500000 -0.836516 -0.224144
vn -0.866025 -0.482963 -0.129410
vn -0.866025 -0.482963 -0.129410
vn -0.923880 -0.369644 -0.099046
vn -0.923880 -0.369644 -0.099046
vn -0.866025 -0.482963 -0.129410
vn -0.866025 -0.482963 -0.129410
vn -0.866025 -0.482963 -0.129410
vn -0.500000 -0.836516 -0.224144
vn -0.500000 -0.836516 -0.224144
vn -0.707107 -0.683013 -0.183013
vn -0.500000 -0.836516 -0.224144
vn -0.500000 -0.836516 -0.224144
vn -0.450000 -0.862599 -0.231133
vn -0.382683 -0.892399 -0.239118
vn -0.306179 -0.919536 -0.246389
vn -0.195090 -0.947366 -0.253846
vn -0.154961 -0.954258 -0.255693
vn -0.000000 -0.965926 -0.258819
vn -0.000000 -0.965926 -0.258819
vn 0.195090 -0.947366 -0.253846
vn 0.195090 -0.947366 -0.253846
vn 0.382683 -0.892399 -0.239118
vn 0.382683 -0.892399 -0.239118
vn 0.707107 -0.683013 -0.183013
vn 0.707107 -0.683013 -0.183013
vn 0.923880 -0.369644 -0.099046
vn 0.923880 -0.369644 -0.099046
vn 0.500000 -0.224144 0.836516
vn 0.195090 -0.253846 0.947366
vn 0.382683 -0.239118 0.892399
vn 0.707107 -0.183013 0.683013
vn 0.866025 -0.129410 0.482963
vn 0.866025 -0.129410 0.482963
vn 0.923880 -0.099046 0.369644
vn 0.500000 -0.224144 0.836516
vn 0.000000 0.707107 0.707107
vn 0.000000 0.707107 0.707107
vn 0.000000 0.707107 0.707107
vn 0.000000 0.258819 0.965926
vn 0.000000 0.258819 0.965926
vn 0.000000 0.258819 0.965926
vn -0.866025 0.482963 0.129410
vn -0.866025 0.482963 0.129410
vn -0.866025 0.482963 0.129410
vn -0.866025 0.482963 0.129410
vn -0.500000 0.836516 0.224144
vn -0.500000 0.836516 0.224144
vn -0.500000 0.836516 0.224144
vn -0.500000 0.836516 0.224144
vn -0.866025 0.482963 0.129410
vn -0.866025 0.482963 0.129410
vn -0.500000 0.836516 0.224144
vn -0.500000 0.836516 0.224144
vn -0.000000 0.965926 0.258819
vn -0.500000 0.836516 0.224144
vn -0.866025 0.482963 0.129410
vn 0.000000 0.258819 -0.965926
vn -0.500000 0.224144 -0.836516
vn -0.195090 0.253846 -0.947366
vn -0.382683 0.239118 -0.892399
vn -0.707107 0.183013 -0.683013
vn -0.866025 0.129410 -0.482963
vn -0.866025 0.129410 -0.482963
vn -0.923880 0.099046 -0.369644
vn -0.500000 0.224144 -0.836516
vn -0.866025 -0.129410 0.482963
vn -0.866025 -0.129410 0.482963
vn -0.923880 -0.099046 0.369644
vn -1.000000 0.000000 -0.000000
vn -0.500000 -0.224144 0.836516
vn -0.500000 -0.224144 0.836516
vn -0.000000 -0.258819 0.965926
vn -0.195090 -0.253846 0.947366
vn -0.382683 -0.239118 0.892399
vn -0.707107 -0.183013 0.683013
vn 0.923880 -0.099046 0.369644
vn 0.866025 -0.129410 0.482963
vn 1.000000 0.000000 -0.000000
vn 0.866025 -0.129410 0.482963
vn 0.866025 -0.129410 0.482963
vn 0.500000 -0.224144 0.836516
vn 0.500000 -0.224144 0.836516
vn 0.000000 -0.258819 0.965926
vn 0.500000 -0.224144 0.836516
vn 0.500000 -0.224144 0.836516
vn 0.866025 -0.129410 0.482963
vn 0.866025 -0.129410 0.482963
vn 0.923880 -0.099046 0.369644
vn 0.707107 -0.183013 0.683013
vn 0.382683 -0.239118 0.892399
vn 0.195090 -0.253846 0.947366
vn 0.707107 -0.183013 0.683013
vn 0.500000 -0.224144 0.836516
vn 0.500000 -0.224144 0.836516
vn 0.195090 -0.253846 0.947366
vn 0.382683 -0.239118 0.892399
vn 1.000000 0.000000 -0.000000
vn 0.866025 -0.129410 0.482963
vn 0.250000 0.724444 0.642402
vn 0.433013 0.288849 0.853854
vn 0.750000 0.370891 0.547668
vn 0.866025 0.482963 0.129410
vn 0.500000 0.836516 0.224144
vn 0.433013 0.771812 0.465625
vn 0.000000 0.707107 -0.707107
vn -0.433013 0.677077 -0.595035
vn -0.750000 0.595035 -0.288849
vn -0.866025 0.482963 0.129410
vn -0.433013 0.901221 -0.017338
vn -0.250000 0.948588 -0.194114
vn 0.000000 0.965926 -0.258819
vn -0.306179 0.919536 0.246389
vn -0.382683 0.892399 0.239118
vn -0.450000 0.862599 0.231133
vn -0.707107 0.683013 0.183013
vn -0.500000 0.836516 0.224144
vn -0.866025 0.482963 0.129410
vn -0.866025 0.482963 0.129410
vn -0.923880 0.369644 0.099046
vn -0.195090 0.947366 0.253846
vn -0.154961 0.954258 0.255693
vn -0.923880 0.369644 0.099046
vn -0.866025 0.482963 0.129410
vn -0.866025 0.482963 0.129410
vn -0.866025 0.482963 0.129410
vn -0.500000 0.836516 0.224144
vn -0.500000 0.836516 0.224144
vn -0.707107 0.683013 0.183013
vn -0.500000 0.836516 0.224144
vn -0.500000 0.836516 0.224144
vn -0.450000 0.862599 0.231133
vn -0.382683 0.892399 0.239118
vn -0.306179 0.919536 0.246389
vn -0.195090 0.947366 0.253846
vn -0.154961 0.954258 0.255693
vn -0.000000 0.965926 0.258819
vn -0.000000 0.965926 0.258819
vn 0.000000 -0.965926 0.258819
vn -0.250000 -0.948588 0.194114
vn 0.000000 -0.707107 0.707107
vn -0.433013 -0.677077 0.595035
vn -0.750000 -0.595035 0.288849
vn -0.866025 -0.482963 -0.129410
vn -0.500000 -0.836516 -0.224144
vn -0.433013 -0.901221 0.017338
vn 0.923880 0.369644 0.099046
vn 0.923880 0.369644 0.099046
vn 0.707107 0.683013 0.183013
vn 0.707107 0.683013 0.183013
vn 0.382683 0.892399 0.239118
vn 0.382683 0.892399 0.239118
vn 0.195090 0.947366 0.253846
vn 0.195090 0.947366 0.253846
vn 0.000000 0.965926 0.258819
vn 0.000000 0.965926 0.258819
vn 0.500000 0.836516 0.224144
vn 0.500000 0.836516 0.224144
vn -0.000000 0.965926 0.258819
vn 0.500000 0.836516 0.224144
vn 0.500000 0.836516 0.224144
vn 0.866025 0.482963 0.129410
vn 0.866025 0.482963 0.129410
vn 0.866025 0.482963 0.129410
vn 0.866025 0.482963 0.129410
vn 0.500000 0.836516 0.224144
vn 0.500000 0.836516 0.224144
vn 0.866025 0.482963 0.129410
vn 0.866025 0.482963 0.129410
vn 0.866025 0.482963 0.129410
vn 0.500000 0.836516 0.224144
vn -0.000000 0.707107 -0.707107
vn -0.000000 0.707107 -0.707107
vn -0.000000 0.707107 -0.707107
vn -0.000000 0.965926 -0.258819
vn -0.000000 0.965926 -0.258819
vn -0.000000 0.965926 -0.258819
vn -1.000000 -0.000000 0.000000
vn -0.866025 0.129410 -0.482963
vn -0.923880 0.099046 -0.369644
vn -0.707107 0.183013 -0.683013
vn -0.500000 0.224144 -0.836516
vn -0.382683 0.239118 -0.892399
vn -0.195090 0.253846 -0.947366
vn -0.500000 0.224144 -0.836516
vn -0.866025 0.129410 -0.482963
vn -0.500000 -0.836516 -0.224144
vn -0.500000 -0.836516 -0.224144
vn -0.000000 -0.965926 -0.258819
vn -0.500000 -0.836516 -0.224144
vn -0.500000 -0.836516 -0.224144
vn -0.866025 -0.482963 -0.129410
vn -0.866025 -0.482963 -0.129410
vn -0.866025 -0.482963 -0.129410
vn -0.866025 -0.482963 -0.129410
vn -0.500000 -0.836516 -0.224144
vn -0.500000 -0.836516 -0.224144
vn -0.866025 -0.482963 -0.129410
vn -0.866025 -0.482963 -0.129410
vn -0.866025 -0.482963 -0.129410
vn -0.500000 -0.836516 -0.224144
vn 0.000000 -0.707107 0.707107
vn 0.000000 -0.707107 0.707107
vn 0.000000 -0.707107 0.707107
vn 0.000000 -0.965926 0.258819
vn 0.000000 -0.965926 0.258819
vn -0.000000 -0.965926 -0.258819
vn 0.000000 -0.965926 0.258819
vn 1.000000 -0.000000 0.000000
vn 0.866025 -0.129410 0.482963
vn 0.923880 -0.099046 0.369644
vn 0.707107 -0.183013 0.683013
vn 0.500000 -0.224144 0.836516
vn 0.382683 -0.239118 0.892399
vn 0.195090 -0.253846 0.947366
vn -0.000000 -0.258819 0.965926
vn 0.500000 -0.224144 0.836516
vn 0.866025 -0.129410 0.482963
vn 0.250000 0.642402 -0.724444
vn 0.433013 0.853854 -0.288849
vn 0.500000 0.836516 0.224144
vn 0.750000 0.547668 -0.370891
vn 0.866025 0.129410 -0.482963
vn 1.000000 0.000000 -0.000000
vn 0.500000 0.224144 -0.836516
vn 0.433013 0.465625 -0.771812
vn -0.433013 -0.771812 -0.465625
vn -0.750000 -0.370891 -0.547668
vn -0.866025 0.129410 -0.482963
vn -0.433013 -0.288849 -0.853854
vn 0.000000 -0.258819 -0.965926
vn 0.000000 -0.707107 -0.707107
vn -0.250000 -0.724444 -0.642402
vn 0.866025 -0.482963 -0.129410
vn 0.750000 -0.595035 0.288849
vn 0.433013 -0.677077 0.595035
vn 0.000000 -0.965926 0.258819
vn 0.250000 -0.948588 0.194114
vn 0.433013 -0.901221 0.017338
vn 0.500000 -0.836516 -0.224144
vn 0.500000 0.224144 -0.836516
vn 0.195090 0.253846 -0.947366
vn 0.000000 0.258819 -0.965926
vn 0.866025 0.129410 -0.482963
vn 0.923880 0.099046 -0.369644
vn 0.707107 0.183013 -0.683013
vn 0.382683 0.239118 -0.892399
vn -0.000000 -0.707107 -0.707107
vn -0.000000 -0.965926 -0.258819
vn -0.000000 -0.707107 -0.707107
vn -0.000000 -0.965926 -0.258819
vn -0.000000 -0.707107 -0.707107
vn -0.000000 -0.258819 -0.965926
vn -0.000000 -0.258819 -0.965926
vn -0.000000 0.258819 -0.965926
vn -0.000000 -0.258819 -0.965926
vn -0.000000 0.258819 -0.965926
vn -0.000000 -0.258819 -0.965926
vn 0.866025 -0.482963 -0.129410
vn 0.866025 -0.482963 -0.129410
vn 0.866025 -0.482963 -0.129410
vn 0.866025 -0.482963 -0.129410
vn 0.500000 -0.836516 -0.224144
vn 0.500000 -0.836516 -0.224144
vn 0.000000 -0.965926 -0.258819
vn 0.500000 -0.836516 -0.224144
vn 0.500000 -0.836516 -0.224144
vn 0.866025 -0.482963 -0.129410
vn 0.866025 -0.482963 -0.129410
vn 0.500000 -0.836516 -0.224144
vn 0.500000 -0.836516 -0.224144
vn 0.000000 -0.965926 -0.258819
vn 0.500000 -0.836516 -0.224144
vn 0.866025 -0.482963 -0.129410
vn 0.195090 -0.947366 -0.253846
vn 0.195090 -0.947366 -0.253846
vn 0.382683 -0.892399 -0.239118
vn 0.382683 -0.892399 -0.239118
vn 0.707107 -0.683013 -0.183013
vn 0.707107 -0.683013 -0.183013
vn 0.923880 -0.369644 -0.099046
vn 0.923880 -0.369644 -0.099046
vn 1.000000 -0.000000 -0.000000
vn 0.866025 0.129410 -0.482963
vn 1.000000 0.000000 0.000000
vn 0.750000 -0.288849 -0.595035
vn 0.866025 -0.482963 -0.129410
vn 0.433013 -0.595035 -0.677077
vn 0.500000 -0.836516 -0.224144
vn 0.250000 -0.194114 -0.948588
vn 0.433013 -0.017338 -0.901221
vn 0.500000 0.224144 -0.836516
vn 0.195090 0.253846 -0.947366
vn 0.500000 0.224144 -0.836516
vn 0.000000 0.258819 -0.965926
vn 0.500000 0.224144 -0.836516
vn 0.500000 0.224144 -0.836516
vn 0.866025 0.129410 -0.482963
vn 0.866025 0.129410 -0.482963
vn 1.000000 -0.000000 0.000000
vn 0.866025 0.129410 -0.482963
vn 0.866025 0.129410 -0.482963
vn 0.500000 0.224144 -0.836516
vn 0.500000 0.224144 -0.836516
vn 0.195090 0.253846 -0.947366
vn 0.382683 0.239118 -0.892399
vn 0.707107 0.183013 -0.683013
vn 0.923880 0.099046 -0.369644
vn 0.382683 0.239118 -0.892399
vn 0.707107 0.183013 -0.683013
vn 0.866025 0.129410 -0.482963
vn 0.923880 0.099046 -0.369644
vn 0.866025 0.129410 -0.482963
vn 0.000000 0.258819 -0.965926
vn 0.500000 0.224144 -0.836516
vn 0.866025 0.129410 -0.482963
vn 0.923880 0.099046 -0.369644
vn 0.500000 0.224144 -0.836516
vn 0.500000 0.224144 -0.836516
vn -0.000000 0.258819 -0.965926
vn -0.000000 0.258819 -0.965926
vn 0.195090 0.253846 -0.947366
vn 0.382683 0.239118 -0.892399
vn 0.707107 0.183013 -0.683013
vn 0.000000 0.965926 0.258819
vn 0.195090 0.947366 0.253846
vn 0.195090 0.947366 0.253846
vn 0.382683 0.892399 0.239118
vn 0.382683 0.892399 0.239118
vn 0.707107 0.683013 0.183013
vn 0.707107 0.683013 0.183013
vn 0.923880 0.369644 0.099046
vn 0.923880 0.369644 0.099046
vn 1.000000 -0.000000 -0.000000
usemtl Opaque(202,209,238)
f 2/1/1 3/2/2 1/3/3
f 1/3/3 3/2/2 4/4/4
f 6/5/5 7/6/6 5/7/7
f 5/7/7 7/6/6 8/8/8
f 10/9/9 2/10/10 9/11/11
f 9/11/11 2/10/10 1/12/12
f 9/11/11 1/12/12 16/13/13
f 16/13/13 1/12/12 11/14/14
f 16/13/13 11/14/14 15/15/15
f 15/15/15 11/14/14 12/16/16
f 15/15/15 12/16/16 14/17/17
f 14/17/17 12/16/16 13/18/18
f 18/19/19 6/20/20 17/21/21
f 17/21/21 6/20/20 5/22/22
f 17/21/21 5/22/22 24/23/23
f 24/23/23 5/22/22 19/24/24
f 24/23/23 19/24/24 23/25/25
f 23/25/25 19/24/24 20/26/26
f 23/25/25 20/26/26 22/27/27
f 22/27/27 20/26/26 21/28/28
f 13/29/29 22/30/30 14/31/31
f 14/31/31 22/30/30 21/32/32
f 25/33/33 26/34/34 36/35/35
f 36/35/35 26/34/34 33/36/36
f 36/35/35 33/36/36 35/37/37
f 35/37/37 33/36/36 34/38/38
f 33/36/36 26/34/34 32/39/39
f 32/39/39 26/34/34 27/40/40
f 32/39/39 27/40/40 30/41/41
f 30/41/41 27/40/40 29/42/42
f 29/42/42 27/40/40 28/43/43
f 30/41/41 31/44/44 32/39/39
f 38/45/45 10/46/46 37/47/47
f 37/47/47 10/46/46 9/48/48
f 7/49/49 39/50/50 8/51/51
f 8/51/51 39/50/50 40/52/52
f 42/53/53 38/54/54 41/55/55
f 41/55/55 38/54/54 37/56/56
f 44/57/57 45/58/58 43/59/59
f 43/59/59 45/58/58 46/60/60
f 48/61/61 49/62/62 47/63/63
f 47/63/63 49/62/62 50/64/64
f 52/65/65 18/66/66 51/67/67
f 51/67/67 18/66/66 17/68/68
f 3/69/69 53/70/70 4/71/71
f 4/71/71 53/70/70 54/72/72
f 56/73/73 52/74/74 55/75/75
f 55/75/75 52/74/74 51/76/76
f 58/77/77 59/78/78 57/79/79
f 57/79/79 59/78/78 60/80/80
f 61/81/81 62/82/82 64/83/83
f 64/83/83 62/82/82 63/84/84
f 65/85/85 71/86/86 54/87/72
f 54/87/72 71/86/86 70/88/87
f 54/87/72 70/88/87 4/89/71
f 71/86/86 65/85/85 72/90/88
f 72/90/88 65/85/85 66/91/89
f 72/90/88 66/91/89 63/92/84
f 63/92/84 62/93/82 72/90/88
f 72/90/88 62/93/82 67/94/90
f 72/90/88 67/94/90 68/95/91
f 72/90/88 68/95/91 71/86/86
f 71/86/86 68/95/91 69/96/92
f 71/86/86 69/96/92 70/88/87
f 57/97/79 73/98/93 76/99/94
f 76/99/94 73/98/93 78/100/95
f 76/99/94 78/100/95 75/101/96
f 75/101/96 78/100/95 79/102/97
f 75/101/96 79/102/97 54/103/72
f 54/103/72 79/102/97 65/104/98
f 65/104/98 79/102/97 80/105/99
f 65/104/98 80/105/99 66/106/100
f 66/106/100 80/105/99 63/107/84
f 73/98/93 74/108/101 78/100/95
f 78/100/95 74/108/101 77/109/102
f 78/100/95 77/109/102 79/102/97
f 79/102/97 77/109/102 80/105/99
f 74/108/101 63/110/84 77/109/102
f 77/109/102 63/111/84 80/105/99
f 1/112/103 4/113/104 11/114/105
f 11/114/105 4/113/104 70/115/106
f 11/114/105 70/115/106 12/116/107
f 12/116/107 70/115/106 69/117/108
f 12/116/107 69/117/108 13/118/109
f 13/118/109 69/117/108 68/119/110
f 13/118/109 68/119/110 85/120/111
f 85/120/111 68/119/110 90/121/112
f 85/120/111 90/121/112 91/122/113
f 91/122/113 90/121/112 67/123/114
f 91/122/113 67/123/114 61/124/81
f 61/124/81 67/123/114 62/125/82
f 68/119/110 67/123/114 90/121/112
f 81/126/115 94/127/116 61/124/81
f 61/124/81 94/127/116 93/128/117
f 61/124/81 93/128/117 92/129/118
f 92/129/118 93/128/117 87/130/119
f 92/129/118 87/130/119 86/131/120
f 86/131/120 87/130/119 13/118/109
f 86/131/120 13/118/109 85/120/111
f 81/126/115 82/132/121 94/127/116
f 94/127/116 82/132/121 89/133/122
f 94/127/116 89/133/122 88/134/123
f 88/134/123 89/133/122 22/135/124
f 88/134/123 22/135/124 87/130/119
f 87/130/119 22/135/124 13/118/109
f 89/133/122 82/132/121 22/135/124
f 22/135/124 82/132/121 83/136/125
f 22/135/124 83/136/125 23/137/126
f 23/137/126 83/136/125 84/138/127
f 23/137/126 84/138/127 24/139/128
f 24/139/128 84/138/127 51/140/67
f 24/139/128 51/140/67 17/141/68
f 92/129/118 86/131/120 91/122/113
f 91/122/113 86/131/120 85/120/111
f 94/127/116 88/134/123 93/128/117
f 93/128/117 88/134/123 87/130/119
f 61/124/81 92/129/118 91/122/113
f 3/142/129 2/143/130 102/144/131
f 102/144/131 2/143/130 95/145/132
f 102/144/131 95/145/132 101/146/133
f 101/146/133 95/145/132 96/147/134
f 101/146/133 96/147/134 100/148/135
f 100/148/135 96/147/134 97/149/136
f 100/148/135 97/149/136 99/150/137
f 99/150/137 97/149/136 98/151/138
f 99/150/137 98/151/138 31/152/44
f 31/152/44 98/151/138 32/153/39
f 53/154/70 3/155/69 105/156/139
f 105/156/139 3/155/69 102/157/140
f 105/156/139 102/157/140 101/158/141
f 101/158/141 100/159/142 105/156/139
f 105/156/139 100/159/142 106/160/143
f 105/156/139 106/160/143 103/161/144
f 103/161/144 106/160/143 30/162/41
f 30/162/41 106/160/143 99/163/145
f 30/162/41 99/163/145 31/164/44
f 100/159/142 99/163/145 106/160/143
f 103/161/144 104/165/146 105/156/139
f 105/156/139 104/165/146 53/154/70
f 76/166/94 109/167/147 57/168/79
f 57/168/79 109/167/147 110/169/148
f 57/168/79 110/169/148 58/170/77
f 58/170/77 110/169/148 108/171/149
f 108/171/149 110/169/148 107/172/150
f 107/172/150 110/169/148 112/173/151
f 107/172/150 112/173/151 53/174/70
f 53/174/70 112/173/151 111/175/152
f 53/174/70 111/175/152 54/176/72
f 54/176/72 111/175/152 75/177/96
f 75/177/96 111/175/152 76/166/94
f 76/166/94 111/175/152 109/167/147
f 112/173/151 110/169/148 109/167/147
f 112/173/151 109/167/147 111/175/152
f 74/178/153 115/179/154 63/180/84
f 63/180/84 115/179/154 116/181/155
f 63/180/84 116/181/155 117/182/156
f 117/182/156 116/181/155 122/183/157
f 117/182/156 122/183/157 123/184/158
f 123/184/158 122/183/157 60/185/80
f 123/184/158 60/185/80 124/186/159
f 124/186/159 60/185/80 113/187/160
f 124/186/159 113/187/160 119/188/161
f 119/188/161 113/187/160 114/189/162
f 119/188/161 114/189/162 64/190/83
f 115/179/154 74/178/153 120/191/163
f 120/191/163 74/178/153 73/192/164
f 120/191/163 73/192/164 57/193/165
f 60/185/80 122/183/157 57/193/165
f 57/193/165 122/183/157 121/194/166
f 57/193/165 121/194/166 120/191/163
f 120/191/163 121/194/166 115/179/154
f 63/180/84 117/182/156 64/190/83
f 64/190/83 117/182/156 118/195/167
f 64/190/83 118/195/167 119/188/161
f 119/188/161 118/195/167 124/186/159
f 122/183/157 116/181/155 121/194/166
f 121/194/166 116/181/155 115/179/154
f 124/186/159 118/195/167 123/184/158
f 123/184/158 118/195/167 117/182/156
f 55/196/75 51/197/168 127/198/169
f 127/198/169 51/197/168 84/199/170
f 127/198/169 84/199/170 83/200/171
f 83/200/171 82/201/172 127/198/169
f 127/198/169 82/201/172 128/202/173
f 127/198/169 128/202/173 125/203/174
f 125/203/174 128/202/173 64/204/83
f 64/204/83 128/202/173 81/205/175
f 64/204/83 81/205/175 61/206/81
f 82/201/172 81/205/175 128/202/173
f 125/203/174 126/207/176 127/198/169
f 127/198/169 126/207/176 55/196/75
f 129/208/177 135/209/178 49/210/62
f 49/210/62 135/209/178 134/211/179
f 49/210/62 134/211/179 50/212/180
f 135/209/178 129/208/177 136/213/181
f 136/213/181 129/208/177 130/214/182
f 136/213/181 130/214/182 41/215/55
f 41/215/55 37/216/183 136/213/181
f 136/213/181 37/216/183 131/217/184
f 136/213/181 131/217/184 132/218/185
f 132/218/185 133/219/186 136/213/181
f 136/213/181 133/219/186 135/209/178
f 133/219/186 134/211/179 135/209/178
f 98/220/187 141/221/188 32/222/189
f 32/222/189 141/221/188 142/223/190
f 32/222/189 142/223/190 143/224/191
f 143/224/191 142/223/190 149/225/192
f 143/224/191 149/225/192 150/226/193
f 150/226/193 149/225/192 10/227/194
f 150/226/193 10/227/194 151/228/195
f 151/228/195 10/227/194 152/229/196
f 151/228/195 152/229/196 145/230/197
f 145/230/197 152/229/196 146/231/198
f 145/230/197 146/231/198 140/232/199
f 140/232/199 146/231/198 139/233/200
f 139/233/200 146/231/198 152/229/196
f 139/233/200 152/229/196 138/234/201
f 138/234/201 152/229/196 137/235/202
f 137/235/202 152/229/196 10/227/194
f 98/220/187 97/236/203 141/221/188
f 141/221/188 97/236/203 147/237/204
f 141/221/188 147/237/204 148/238/205
f 148/238/205 147/237/204 95/239/206
f 148/238/205 95/239/206 149/225/192
f 149/225/192 95/239/206 10/227/194
f 97/236/203 96/240/207 147/237/204
f 147/237/204 96/240/207 95/239/206
f 95/239/206 2/241/10 10/227/194
f 33/242/208 32/222/189 140/232/199
f 140/232/199 32/222/189 145/230/197
f 149/225/192 142/223/190 148/238/205
f 148/238/205 142/223/190 141/221/188
f 145/230/197 32/222/189 144/243/209
f 144/243/209 32/222/189 143/224/191
f 144/243/209 143/224/191 150/226/193
f 151/228/195 145/230/197 144/243/209
f 151/228/195 144/243/209 150/226/193
f 58/244/77 108/245/149 156/246/210
f 156/246/210 108/245/149 107/247/150
f 156/246/210 107/247/150 155/248/211
f 155/248/211 107/247/150 53/249/70
f 155/248/211 53/249/70 104/250/146
f 155/248/211 104/250/146 157/251/212
f 157/251/212 104/250/146 103/252/144
f 157/251/212 103/252/144 153/253/213
f 153/253/213 103/252/144 30/254/41
f 153/253/213 154/255/214 157/251/212
f 157/251/212 154/255/214 158/256/215
f 157/251/212 158/256/215 155/248/211
f 155/248/211 158/256/215 156/246/210
f 154/255/214 58/257/77 158/256/215
f 158/256/215 58/258/77 156/246/210
f 160/259/216 55/260/75 161/261/217
f 161/261/217 55/260/75 126/262/176
f 161/261/217 126/262/176 163/263/218
f 163/263/218 126/262/176 125/264/174
f 163/263/218 125/264/174 114/265/219
f 114/265/219 125/264/174 64/266/83
f 114/265/219 113/267/160 163/263/218
f 163/263/218 113/267/160 164/268/220
f 163/263/218 164/268/220 161/261/217
f 161/261/217 164/268/220 162/269/221
f 161/261/217 162/269/221 160/259/216
f 160/259/216 162/269/221 159/270/222
f 159/270/222 162/269/221 60/271/80
f 113/267/160 60/272/80 164/268/220
f 164/268/220 60/273/80 162/269/221
f 20/274/223 166/275/224 21/276/225
f 21/276/225 166/275/224 167/277/226
f 21/276/225 167/277/226 169/278/227
f 169/278/227 167/277/226 174/279/228
f 169/278/227 174/279/228 175/280/229
f 175/280/229 174/279/228 168/281/230
f 175/280/229 168/281/230 50/282/64
f 50/282/64 168/281/230 47/283/63
f 166/275/224 20/274/223 165/284/231
f 165/284/231 20/274/223 19/285/232
f 165/284/231 19/285/232 8/286/8
f 8/286/8 19/285/232 5/287/7
f 167/277/226 168/281/230 174/279/228
f 134/288/233 178/289/234 50/282/64
f 50/282/64 178/289/234 177/290/235
f 50/282/64 177/290/235 176/291/236
f 176/291/236 177/290/235 171/292/237
f 176/291/236 171/292/237 170/293/238
f 170/293/238 171/292/237 21/276/225
f 170/293/238 21/276/225 169/278/227
f 134/288/233 133/294/239 178/289/234
f 178/289/234 133/294/239 173/295/240
f 178/289/234 173/295/240 172/296/241
f 172/296/241 173/295/240 14/297/242
f 172/296/241 14/297/242 171/292/237
f 171/292/237 14/297/242 21/276/225
f 173/295/240 133/294/239 14/297/242
f 14/297/242 133/294/239 132/298/243
f 14/297/242 132/298/243 15/299/244
f 15/299/244 132/298/243 131/300/245
f 15/299/244 131/300/245 16/301/246
f 16/301/246 131/300/245 37/302/247
f 16/301/246 37/302/247 9/303/248
f 176/291/236 170/293/238 175/280/229
f 175/280/229 170/293/238 169/278/227
f 178/289/234 172/296/241 177/290/235
f 177/290/235 172/296/241 171/292/237
f 50/282/64 176/291/236 175/280/229
f 46/304/60 179/305/249 184/306/250
f 184/306/250 179/305/249 180/307/251
f 184/306/250 180/307/251 183/308/252
f 183/308/252 180/307/251 41/309/55
f 183/308/252 41/309/55 130/310/182
f 183/308/252 130/310/182 185/311/253
f 185/311/253 130/310/182 129/312/177
f 185/311/253 129/312/177 181/313/254
f 181/313/254 129/312/177 49/314/62
f 181/313/254 182/315/255 185/311/253
f 185/311/253 182/315/255 186/316/256
f 185/311/253 186/316/256 183/308/252
f 183/308/252 186/316/256 184/306/250
f 182/315/255 46/317/60 186/316/256
f 186/316/256 46/318/60 184/306/250
f 33/319/36 140/320/257 34/321/38
f 34/321/38 140/320/257 190/322/258
f 190/322/258 140/320/257 139/323/259
f 190/322/258 139/323/259 189/324/260
f 189/324/260 139/323/259 138/325/261
f 189/324/260 138/325/261 188/326/262
f 188/326/262 138/325/261 137/327/263
f 188/326/262 137/327/263 187/328/264
f 187/328/264 137/327/263 10/329/265
f 187/328/264 10/329/265 38/330/266
f 154/331/267 193/332/268 58/333/269
f 58/333/269 193/332/268 194/334/270
f 58/333/269 194/334/270 195/335/271
f 195/335/271 194/334/270 200/336/272
f 195/335/271 200/336/272 201/337/273
f 201/337/273 200/336/272 29/338/42
f 201/337/273 29/338/42 202/339/274
f 202/339/274 29/338/42 191/340/275
f 202/339/274 191/340/275 197/341/276
f 197/341/276 191/340/275 192/342/277
f 197/341/276 192/342/277 59/343/78
f 193/332/268 154/331/267 198/344/278
f 198/344/278 154/331/267 153/345/279
f 198/344/278 153/345/279 30/346/41
f 29/338/42 200/336/272 30/346/41
f 30/346/41 200/336/272 199/347/280
f 30/346/41 199/347/280 198/344/278
f 198/344/278 199/347/280 193/332/268
f 58/333/269 195/335/271 59/343/78
f 59/343/78 195/335/271 196/348/281
f 59/343/78 196/348/281 197/341/276
f 197/341/276 196/348/281 202/339/274
f 200/336/272 194/334/270 199/347/280
f 199/347/280 194/334/270 193/332/268
f 202/339/274 196/348/281 201/337/273
f 201/337/273 196/348/281 195/335/271
f 160/349/216 205/350/282 55/351/75
f 55/351/75 205/350/282 206/352/283
f 55/351/75 206/352/283 56/353/73
f 56/353/73 206/352/283 204/354/284
f 204/354/284 206/352/283 203/355/285
f 203/355/285 206/352/283 208/356/286
f 203/355/285 208/356/286 59/357/78
f 59/357/78 208/356/286 207/358/287
f 59/357/78 207/358/287 60/359/80
f 60/359/80 207/358/287 159/360/222
f 159/360/222 207/358/287 160/349/216
f 160/349/216 207/358/287 205/350/282
f 208/356/286 206/352/283 205/350/282
f 208/356/286 205/350/282 207/358/287
f 48/361/288 47/362/63 211/363/289
f 211/363/289 47/362/63 168/364/290
f 211/363/289 168/364/290 167/365/291
f 211/363/289 167/365/291 212/366/292
f 212/366/292 167/365/291 166/367/293
f 212/366/292 166/367/293 165/368/294
f 8/369/51 40/370/52 165/368/294
f 165/368/294 40/370/52 212/366/292
f 40/370/52 209/371/295 212/366/292
f 212/366/292 209/371/295 211/363/289
f 209/371/295 210/372/296 211/363/289
f 211/363/289 210/372/296 48/361/288
f 182/373/297 215/374/298 46/375/299
f 46/375/299 215/374/298 216/376/300
f 46/375/299 216/376/300 217/377/301
f 217/377/301 216/376/300 222/378/302
f 217/377/301 222/378/302 223/379/303
f 223/379/303 222/378/302 48/380/61
f 223/379/303 48/380/61 224/381/304
f 224/381/304 48/380/61 213/382/305
f 224/381/304 213/382/305 219/383/306
f 219/383/306 213/382/305 214/384/307
f 219/383/306 214/384/307 43/385/59
f 215/374/298 182/373/297 220/386/308
f 220/386/308 182/373/297 181/387/309
f 220/386/308 181/387/309 49/388/62
f 48/380/61 222/378/302 49/388/62
f 49/388/62 222/378/302 221/389/310
f 49/388/62 221/389/310 220/386/308
f 220/386/308 221/389/310 215/374/298
f 46/375/299 217/377/301 43/385/59
f 43/385/59 217/377/301 218/390/311
f 43/385/59 218/390/311 219/383/306
f 219/383/306 218/390/311 224/381/304
f 222/378/302 216/376/300 221/389/310
f 221/389/310 216/376/300 215/374/298
f 224/381/304 218/390/311 223/379/303
f 223/379/303 218/390/311 217/377/301
f 180/391/251 227/392/312 41/393/55
f 41/393/55 227/392/312 228/394/313
f 41/393/55 228/394/313 42/395/53
f 42/395/53 228/394/313 226/396/314
f 226/396/314 228/394/313 225/397/315
f 225/397/315 228/394/313 230/398/316
f 225/397/315 230/398/316 45/399/317
f 45/399/317 230/398/316 229/400/318
f 45/399/317 229/400/318 46/401/60
f 46/401/60 229/400/318 179/402/249
f 179/402/249 229/400/318 180/391/251
f 180/391/251 229/400/318 227/392/312
f 230/398/316 228/394/313 227/392/312
f 230/398/316 227/392/312 229/400/318
f 35/403/37 34/404/319 233/405/320
f 233/405/320 34/404/319 190/406/321
f 233/405/320 190/406/321 189/407/322
f 233/405/320 189/407/322 234/408/323
f 234/408/323 189/407/322 188/409/324
f 234/408/323 188/409/324 187/410/325
f 38/411/326 42/412/53 187/410/325
f 187/410/325 42/412/53 234/408/323
f 42/412/53 231/413/327 234/408/323
f 234/408/323 231/413/327 233/405/320
f 231/413/327 232/414/328 233/405/320
f 233/405/320 232/414/328 35/403/37
f 56/415/73 204/416/284 238/417/329
f 238/417/329 204/416/284 203/418/285
f 238/417/329 203/418/285 237/419/330
f 237/419/330 203/418/285 59/420/78
f 237/419/330 59/420/78 192/421/331
f 237/419/330 192/421/331 239/422/332
f 239/422/332 192/421/331 191/423/275
f 239/422/332 191/423/275 235/424/333
f 235/424/333 191/423/275 29/425/334
f 235/424/333 236/426/335 239/422/332
f 239/422/332 236/426/335 240/427/336
f 239/422/332 240/427/336 237/419/330
f 237/419/330 240/427/336 238/417/329
f 236/426/335 56/428/73 240/427/336
f 240/427/336 56/429/73 238/417/329
f 43/430/59 214/431/307 244/432/337
f 244/432/337 214/431/307 213/433/305
f 244/432/337 213/433/305 243/434/338
f 243/434/338 213/433/305 48/435/61
f 243/434/338 48/435/61 210/436/339
f 243/434/338 210/436/339 245/437/340
f 245/437/340 210/436/339 209/438/295
f 245/437/340 209/438/295 241/439/341
f 241/439/341 209/438/295 40/440/52
f 241/439/341 242/441/342 245/437/340
f 245/437/340 242/441/342 246/442/343
f 245/437/340 246/442/343 243/434/338
f 243/434/338 246/442/343 244/432/337
f 242/441/342 43/443/59 246/442/343
f 246/442/343 43/444/59 244/432/337
f 248/445/344 35/446/37 249/447/345
f 249/447/345 35/446/37 232/448/328
f 249/447/345 232/448/328 251/449/346
f 251/449/346 232/448/328 231/450/327
f 251/449/346 231/450/327 226/451/314
f 226/451/314 231/450/327 42/452/53
f 226/451/314 225/453/347 251/449/346
f 251/449/346 225/453/347 252/454/348
f 251/449/346 252/454/348 249/447/345
f 249/447/345 252/454/348 250/455/349
f 249/447/345 250/455/349 248/445/344
f 248/445/344 250/455/349 247/456/350
f 247/456/350 250/455/349 45/457/58
f 225/453/347 45/458/58 252/454/348
f 252/454/348 45/459/58 250/455/349
f 236/460/335 257/461/351 56/462/73
f 56/462/73 257/461/351 256/463/352
f 56/462/73 256/463/352 52/464/353
f 257/461/351 236/460/335 258/465/354
f 258/465/354 236/460/335 235/466/333
f 258/465/354 235/466/333 29/467/334
f 29/467/334 28/468/43 258/465/354
f 258/465/354 28/468/43 253/469/355
f 258/465/354 253/469/355 254/470/356
f 258/465/354 254/470/356 257/461/351
f 257/461/351 254/470/356 255/471/357
f 257/461/351 255/471/357 256/463/352
f 242/472/342 261/473/358 43/474/359
f 43/474/359 261/473/358 262/475/360
f 43/474/359 262/475/360 44/476/361
f 44/476/361 262/475/360 260/477/362
f 260/477/362 262/475/360 259/478/363
f 259/478/363 262/475/360 264/479/364
f 259/478/363 264/479/364 39/480/365
f 39/480/365 264/479/364 263/481/366
f 39/480/365 263/481/366 40/482/367
f 40/482/367 263/481/366 241/483/368
f 241/483/368 263/481/366 242/472/342
f 242/472/342 263/481/366 261/473/358
f 264/479/364 262/475/360 261/473/358
f 264/479/364 261/473/358 263/481/366
f 248/484/369 267/485/370 35/486/37
f 35/486/37 267/485/370 268/487/371
f 35/486/37 268/487/371 269/488/372
f 269/488/372 268/487/371 274/489/373
f 269/488/372 274/489/373 275/490/374
f 275/490/374 274/489/373 44/491/375
f 275/490/374 44/491/375 276/492/376
f 276/492/376 44/491/375 265/493/377
f 276/492/376 265/493/377 271/494/378
f 271/494/378 265/493/377 266/495/379
f 271/494/378 266/495/379 36/496/35
f 267/485/370 248/484/369 272/497/380
f 272/497/380 248/484/369 247/498/381
f 272/497/380 247/498/381 45/499/382
f 44/491/375 274/489/373 45/499/382
f 45/499/382 274/489/373 273/500/383
f 45/499/382 273/500/383 272/497/380
f 272/497/380 273/500/383 267/485/370
f 35/486/37 269/488/372 36/496/35
f 36/496/35 269/488/372 270/501/384
f 36/496/35 270/501/384 271/494/378
f 271/494/378 270/501/384 276/492/376
f 274/489/373 268/487/371 273/500/383
f 273/500/383 268/487/371 267/485/370
f 276/492/376 270/501/384 275/490/374
f 275/490/374 270/501/384 269/488/372
f 52/502/65 256/503/385 18/504/66
f 18/504/66 256/503/385 280/505/386
f 280/505/386 256/503/385 255/506/387
f 280/505/386 255/506/387 279/507/388
f 279/507/388 255/506/387 254/508/389
f 279/507/388 254/508/389 278/509/390
f 278/509/390 254/508/389 253/510/391
f 278/509/390 253/510/391 277/511/392
f 277/511/392 253/510/391 28/512/43
f 277/511/392 28/512/43 27/513/393
f 282/514/394 36/515/395 283/516/396
f 283/516/396 36/515/395 266/517/397
f 283/516/396 266/517/397 285/518/398
f 285/518/398 266/517/397 265/519/399
f 285/518/398 265/519/399 260/520/362
f 260/520/362 265/519/399 44/521/57
f 260/520/362 259/522/363 285/518/398
f 285/518/398 259/522/363 286/523/400
f 285/518/398 286/523/400 283/516/396
f 283/516/396 286/523/400 284/524/401
f 283/516/396 284/524/401 282/514/394
f 282/514/394 284/524/401 281/525/402
f 281/525/402 284/524/401 39/526/50
f 259/522/363 39/527/50 286/523/400
f 286/523/400 39/528/50 284/524/401
f 280/529/403 291/530/404 18/531/405
f 18/531/405 291/530/404 292/532/406
f 18/531/405 292/532/406 293/533/407
f 293/533/407 292/532/406 299/534/408
f 293/533/407 299/534/408 300/535/409
f 300/535/409 299/534/408 26/536/410
f 300/535/409 26/536/410 301/537/411
f 301/537/411 26/536/410 302/538/412
f 301/537/411 302/538/412 295/539/413
f 295/539/413 302/538/412 296/540/414
f 295/539/413 296/540/414 290/541/415
f 290/541/415 296/540/414 289/542/416
f 289/542/416 296/540/414 288/543/417
f 288/543/417 296/540/414 302/538/412
f 288/543/417 302/538/412 287/544/418
f 287/544/418 302/538/412 26/536/410
f 280/529/403 279/545/419 291/530/404
f 291/530/404 279/545/419 278/546/420
f 291/530/404 278/546/420 297/547/421
f 297/547/421 278/546/420 277/548/422
f 297/547/421 277/548/422 298/549/423
f 298/549/423 277/548/422 26/536/410
f 298/549/423 26/536/410 299/534/408
f 277/548/422 27/550/40 26/536/410
f 6/551/424 18/531/405 290/541/415
f 290/541/415 18/531/405 294/552/425
f 290/541/415 294/552/425 295/539/413
f 295/539/413 294/552/425 301/537/411
f 294/552/425 18/531/405 293/533/407
f 297/547/421 298/549/423 291/530/404
f 291/530/404 298/549/423 292/532/406
f 298/549/423 299/534/408 292/532/406
f 301/537/411 294/552/425 300/535/409
f 300/535/409 294/552/425 293/533/407
f 282/553/394 307/554/426 36/555/35
f 36/555/35 307/554/426 306/556/427
f 36/555/35 306/556/427 25/557/33
f 307/554/426 282/553/394 308/558/428
f 308/558/428 282/553/394 281/559/429
f 308/558/428 281/559/429 39/560/430
f 39/560/430 7/561/431 308/558/428
f 308/558/428 7/561/431 303/562/432
f 308/558/428 303/562/432 304/563/433
f 304/563/433 305/564/434 308/558/428
f 308/558/428 305/564/434 307/554/426
f 305/564/434 306/556/427 307/554/426
f 7/565/6 6/566/435 303/567/436
f 303/567/436 6/566/435 290/568/437
f 303/567/436 290/568/437 304/569/438
f 304/569/438 290/568/437 289/570/439
f 304/569/438 289/570/439 305/571/440
f 305/571/440 289/570/439 288/572/441
f 305/571/440 288/572/441 306/573/442
f 306/573/442 288/572/441 287/574/443
f 306/573/442 287/574/443 25/575/33
f 25/575/33 287/574/443 26/576/444
# 308 vertices
# 576 texture params
# 444 normals
# 612 facets

# 1 groups
