# WaveFront *.obj file (generated by Autodesk ATF)

mtllib body162_visual.mtl

g Body162

v -27.278700 1.571190 3.651082
v -27.278700 1.415898 4.230638
v -27.278700 0.817025 4.070170
v -27.278700 0.972316 3.490614
v -27.279000 1.571190 3.651082
v -27.279000 1.415898 4.230638
v -27.280000 1.415898 4.230638
v -27.280000 1.464195 4.243579
v -27.280000 1.463936 4.244544
v -27.280000 1.415640 4.231604
v -27.330000 1.415898 4.230638
v -27.330000 1.415640 4.231604
v -27.330000 1.464195 4.243579
v -27.330000 1.463936 4.244544
v -27.330000 1.619486 3.664023
v -27.280000 1.619486 3.664023
v -27.280000 1.619745 3.663057
v -27.330000 1.619745 3.663057
v -27.280000 1.571190 3.651082
v -27.330000 1.571190 3.651082
v -27.330000 1.571449 3.650116
v -27.280000 1.571449 3.650116
v -27.279000 1.464195 4.243579
v -27.279000 1.619486 3.664023
v -27.279000 1.654842 3.725260
v -27.279000 1.525432 4.208223
v -27.330000 1.654842 3.725260
v -27.330000 1.525432 4.208223
v -27.530000 1.415899 4.230638
v -27.530000 0.817025 4.070170
v -27.445000 0.885612 3.814199
v -27.515000 0.885612 3.814199
v -27.515000 0.789019 3.788318
v -27.445000 0.789019 3.788318
v -27.445000 0.903729 3.746585
v -27.445000 0.807136 3.720703
v -27.515000 0.903729 3.746585
v -27.515000 0.807136 3.720703
v -27.530000 0.972316 3.490614
v -27.445000 0.945140 3.592037
v -27.445000 0.963257 3.524422
v -27.515000 0.963257 3.524422
v -27.515000 0.945140 3.592037
v -27.445000 0.826083 4.036362
v -27.445000 0.844201 3.968748
v -27.515000 0.844201 3.968748
v -27.515000 0.826083 4.036362
v -27.530000 1.571190 3.651082
v -27.245000 0.650606 3.989344
v -27.245000 0.668724 3.921729
v -27.260071 0.678807 3.924431
v -27.260071 0.660690 3.992045
v -27.315000 0.614992 3.979801
v -27.315000 0.633109 3.912186
v -27.315000 0.554423 3.891102
v -27.315000 0.536305 3.958717
v -27.245000 0.536305 3.958717
v -27.245000 0.554423 3.891102
v -27.515000 0.704655 4.003826
v -27.515000 0.722772 3.936211
v -27.490464 0.715347 3.934221
v -27.490464 0.697229 4.001836
v -27.445000 0.772002 3.949402
v -27.445000 0.753885 4.017017
v -27.398891 0.736340 4.012316
v -27.352538 0.714881 4.006566
v -27.306184 0.689620 3.999797
v -27.306184 0.707737 3.932182
v -27.352538 0.732998 3.938951
v -27.398891 0.754457 3.944701
v -27.358610 0.641099 3.986796
v -27.402241 0.663390 3.992769
v -27.446118 0.682042 3.997767
v -27.446118 0.700159 3.930152
v -27.402241 0.681507 3.925154
v -27.358610 0.659216 3.919181
v -27.245000 0.769663 3.545018
v -27.245000 0.787780 3.477403
v -27.260071 0.797864 3.480105
v -27.260071 0.779746 3.547719
v -27.315000 0.734049 3.535475
v -27.315000 0.752166 3.467860
v -27.315000 0.673480 3.446776
v -27.315000 0.655362 3.514391
v -27.245000 0.655362 3.514391
v -27.245000 0.673480 3.446776
v -27.515000 0.823711 3.559500
v -27.515000 0.841829 3.491885
v -27.490464 0.834403 3.489895
v -27.490464 0.816286 3.557510
v -27.445000 0.891059 3.505076
v -27.445000 0.872942 3.572691
v -27.398891 0.855397 3.567990
v -27.352538 0.833938 3.562240
v -27.306184 0.808677 3.555471
v -27.306184 0.826794 3.487857
v -27.352538 0.852055 3.494625
v -27.398891 0.873514 3.500375
v -27.358610 0.760155 3.542470
v -27.402241 0.782447 3.548443
v -27.446118 0.801099 3.553441
v -27.446118 0.819216 3.485826
v -27.402241 0.800564 3.480828
v -27.358610 0.778273 3.474855
vt -0.310000 -0.300000 0.000000
vt 0.310000 -0.300000 0.000000
vt -0.310000 0.300000 0.000000
vt 0.310000 0.300000 0.000000
vt 0.600000 0.000900 0.000000
vt 0.600000 0.001200 0.000000
vt -0.000000 0.000900 0.000000
vt -0.000000 0.001200 0.000000
vt 0.000000 -0.000000 0.000000
vt 0.050000 -0.000000 0.000000
vt 0.000000 0.001000 0.000000
vt 0.050000 0.001000 0.000000
vt 0.000000 0.000000 0.000000
vt 0.050000 0.000000 0.000000
vt -0.000000 0.001000 0.000000
vt 0.050000 0.001000 0.000000
vt 0.000000 0.000000 0.000000
vt 0.050000 -0.000000 0.000000
vt 0.000000 0.001000 0.000000
vt 0.050000 0.001000 0.000000
vt 0.025000 0.025000 0.000000
vt -0.025000 0.025000 0.000000
vt 0.025000 -0.025000 0.000000
vt -0.025000 -0.025000 0.000000
vt -0.000000 -0.000000 0.000000
vt 0.050000 -0.000000 0.000000
vt 0.000000 0.001000 0.000000
vt 0.050000 0.001000 0.000000
vt 0.050000 -0.000000 0.000000
vt 0.050000 0.001000 0.000000
vt 0.000000 -0.000000 0.000000
vt -0.000000 0.001000 0.000000
vt 0.050000 -0.000000 0.000000
vt 0.050000 0.001000 0.000000
vt 0.000000 0.000000 0.000000
vt -0.000000 0.001000 0.000000
vt -0.025000 -0.025000 0.000000
vt 0.025000 -0.025000 0.000000
vt -0.025000 0.025000 0.000000
vt 0.025000 0.025000 0.000000
vt 0.050000 -0.300000 0.000000
vt 0.050000 0.300000 0.000000
vt -0.000000 -0.300000 0.000000
vt -0.000000 0.300000 0.000000
vt -0.050000 0.250000 0.000000
vt -0.050000 -0.250000 0.000000
vt -0.037500 0.035355 0.000000
vt -0.037500 -0.035355 0.000000
vt 0.012500 0.035355 0.000000
vt 0.013500 -0.035355 0.000000
vt 0.013500 0.035355 0.000000
vt 0.026000 0.250000 0.000000
vt -0.025000 0.250000 0.000000
vt 0.026000 -0.250000 0.000000
vt -0.025000 -0.250000 0.000000
vt 0.550000 0.100000 0.000000
vt 0.050000 0.100000 0.000000
vt 0.600000 0.050000 0.000000
vt -0.000000 0.050000 0.000000
vt -0.000000 -0.000000 0.000000
vt -0.001000 0.050000 0.000000
vt -0.001000 -0.000000 0.000000
vt 0.600000 -0.000000 0.000000
vt 0.601000 0.050000 0.000000
vt 0.601000 -0.000000 0.000000
vt 0.013500 -0.035355 0.000000
vt 0.013500 0.035355 0.000000
vt 0.012500 -0.035355 0.000000
vt -0.037500 0.035355 0.000000
vt -0.037500 -0.035355 0.000000
vt 0.620000 0.050000 0.000000
vt -0.000000 -0.001300 0.000000
vt 0.620000 -0.000000 0.000000
vt 0.620000 -0.001000 0.000000
vt 0.670000 -0.000000 0.000000
vt 0.670000 -0.001000 0.000000
vt 0.620000 0.250000 0.000000
vt 0.000000 0.250000 0.000000
vt 0.620000 -0.001300 0.000000
vt 0.000000 0.000000 0.000000
vt 0.070000 -0.000000 0.000000
vt 0.000000 0.100000 0.000000
vt 0.070000 0.100000 0.000000
vt 0.000000 0.000000 0.000000
vt 0.070000 0.000000 0.000000
vt -0.000000 0.100000 0.000000
vt 0.070000 0.100000 0.000000
vt 0.000000 0.000000 0.000000
vt 0.070000 0.000000 0.000000
vt -0.000000 0.100000 0.000000
vt 0.070000 0.100000 0.000000
vt 0.000000 0.000000 0.000000
vt 0.070000 -0.000000 0.000000
vt 0.000000 0.100000 0.000000
vt 0.070000 0.100000 0.000000
vt 0.035000 0.035000 0.000000
vt -0.035000 0.035000 0.000000
vt 0.035000 -0.035000 0.000000
vt -0.035000 -0.035000 0.000000
vt 0.600000 0.250000 0.000000
vt 0.565000 0.165000 0.000000
vt 0.600000 -0.001300 0.000000
vt 0.495000 0.165000 0.000000
vt 0.335000 0.165000 0.000000
vt 0.335000 0.235000 0.000000
vt 0.495000 0.235000 0.000000
vt 0.565000 0.235000 0.000000
vt -0.000000 0.250000 0.000000
vt 0.265000 0.235000 0.000000
vt 0.105000 0.235000 0.000000
vt 0.265000 0.165000 0.000000
vt 0.105000 0.165000 0.000000
vt 0.000000 -0.001300 0.000000
vt 0.035000 0.165000 0.000000
vt 0.035000 0.235000 0.000000
vt -0.000000 0.050000 0.000000
vt 0.600000 0.050000 0.000000
vt 0.000000 0.250000 0.000000
vt 0.600000 0.250000 0.000000
vt 0.000000 -0.000000 0.000000
vt 0.620000 -0.001300 0.000000
vt 0.000000 0.050000 0.000000
vt 0.620000 0.250000 0.000000
vt -0.000000 0.250000 0.000000
vt 0.000000 -0.001000 0.000000
vt -0.050000 -0.000000 0.000000
vt -0.050000 -0.001000 0.000000
vt 0.000000 -0.001300 0.000000
vt 0.310000 0.300000 0.000000
vt -0.310000 0.300000 0.000000
vt 0.310000 -0.300000 0.000000
vt -0.310000 -0.300000 0.000000
vt -0.000000 0.018333 0.000000
vt -0.070000 0.018333 0.000000
vt -0.000000 -0.000000 0.000000
vt -0.070000 -0.000000 0.000000
vt -0.000000 0.018538 0.000000
vt 0.070000 0.018538 0.000000
vt -0.000000 0.100000 0.000000
vt 0.070000 0.100000 0.000000
vt 0.070000 0.100000 0.000000
vt -0.000000 0.100000 0.000000
vt 0.070000 -0.018333 0.000000
vt -0.000000 -0.018333 0.000000
vt 0.035000 0.035000 0.000000
vt -0.035000 0.035000 0.000000
vt 0.035000 -0.035000 0.000000
vt -0.035000 -0.035000 0.000000
vt 0.070000 0.025712 0.000000
vt -0.000000 0.025712 0.000000
vt 0.070000 -0.000000 0.000000
vt 0.000000 0.000000 0.000000
vt -0.027225 0.070000 0.000000
vt -0.078593 0.070000 0.000000
vt -0.027225 0.000000 0.000000
vt -0.078593 0.000000 0.000000
vt -0.130633 0.070000 0.000000
vt -0.130633 0.000000 0.000000
vt -0.183295 0.070000 0.000000
vt -0.183295 0.000000 0.000000
vt -0.236548 0.070000 0.000000
vt -0.236548 0.000000 0.000000
vt -0.194281 0.000000 0.000000
vt -0.145711 0.000000 0.000000
vt -0.194281 0.070000 0.000000
vt -0.145711 0.070000 0.000000
vt -0.097140 0.000000 0.000000
vt -0.097140 0.070000 0.000000
vt -0.048570 0.000000 0.000000
vt -0.048570 0.070000 0.000000
vt -0.000000 0.000000 0.000000
vt -0.000000 0.070000 0.000000
vt 0.070000 0.074745 0.000000
vt -0.000000 0.074745 0.000000
vt 0.070000 0.000000 0.000000
vt 0.000000 0.000000 0.000000
vt 0.116109 0.092909 0.000000
vt 0.068882 0.149123 0.000000
vt 0.070000 0.074745 0.000000
vt 0.024536 0.133399 0.000000
vt -0.000000 0.125712 0.000000
vt 0.112759 0.168432 0.000000
vt 0.162462 0.115125 0.000000
vt 0.156390 0.191510 0.000000
vt 0.208816 0.141277 0.000000
vt 0.200000 0.218538 0.000000
vt 0.254929 0.171228 0.000000
vt 0.270000 0.181667 0.000000
vt 0.270000 0.300000 0.000000
vt 0.200000 0.300000 0.000000
vt 0.000000 0.000000 0.000000
vt 0.070000 0.000000 0.000000
vt 0.000000 0.000000 0.000000
vt 0.070000 -0.000000 0.000000
vt -0.000000 0.125712 0.000000
vt 0.070000 0.125712 0.000000
vt 0.000000 0.000000 0.000000
vt 0.070000 -0.000000 0.000000
vt 0.000000 0.074745 0.000000
vt 0.070000 0.125712 0.000000
vt 0.045464 0.133399 0.000000
vt 0.001118 0.149123 0.000000
vt -0.046109 0.092909 0.000000
vt -0.042759 0.168432 0.000000
vt -0.092462 0.115125 0.000000
vt -0.086390 0.191510 0.000000
vt -0.138816 0.141277 0.000000
vt -0.130000 0.218538 0.000000
vt -0.184929 0.171228 0.000000
vt -0.200000 0.181667 0.000000
vt -0.200000 0.300000 0.000000
vt -0.130000 0.300000 0.000000
vt -0.000000 0.018333 0.000000
vt -0.070000 0.018333 0.000000
vt -0.000000 -0.000000 0.000000
vt -0.070000 -0.000000 0.000000
vt 0.000000 0.018538 0.000000
vt 0.070000 0.018538 0.000000
vt 0.000000 0.100000 0.000000
vt 0.070000 0.100000 0.000000
vt 0.070000 0.100000 0.000000
vt -0.000000 0.100000 0.000000
vt 0.070000 -0.018333 0.000000
vt 0.000000 -0.018333 0.000000
vt 0.035000 0.035000 0.000000
vt -0.035000 0.035000 0.000000
vt 0.035000 -0.035000 0.000000
vt -0.035000 -0.035000 0.000000
vt 0.070000 0.025712 0.000000
vt -0.000000 0.025712 0.000000
vt 0.070000 0.000000 0.000000
vt 0.000000 0.000000 0.000000
vt -0.027225 0.070000 0.000000
vt -0.078593 0.070000 0.000000
vt -0.027225 0.000000 0.000000
vt -0.078593 0.000000 0.000000
vt -0.130633 0.070000 0.000000
vt -0.130633 0.000000 0.000000
vt -0.183295 0.070000 0.000000
vt -0.183295 0.000000 0.000000
vt -0.236548 0.070000 0.000000
vt -0.236548 0.000000 0.000000
vt -0.194281 0.000000 0.000000
vt -0.145711 0.000000 0.000000
vt -0.194281 0.070000 0.000000
vt -0.145711 0.070000 0.000000
vt -0.097140 0.000000 0.000000
vt -0.097140 0.070000 0.000000
vt -0.048570 0.000000 0.000000
vt -0.048570 0.070000 0.000000
vt -0.000000 0.000000 0.000000
vt -0.000000 0.070000 0.000000
vt 0.070000 0.074745 0.000000
vt -0.000000 0.074745 0.000000
vt 0.070000 0.000000 0.000000
vt 0.000000 0.000000 0.000000
vt 0.116109 0.092909 0.000000
vt 0.068882 0.149123 0.000000
vt 0.070000 0.074745 0.000000
vt 0.024536 0.133399 0.000000
vt -0.000000 0.125712 0.000000
vt 0.112759 0.168432 0.000000
vt 0.162462 0.115125 0.000000
vt 0.156390 0.191510 0.000000
vt 0.208816 0.141277 0.000000
vt 0.200000 0.218538 0.000000
vt 0.254929 0.171228 0.000000
vt 0.270000 0.181667 0.000000
vt 0.270000 0.300000 0.000000
vt 0.200000 0.300000 0.000000
vt 0.000000 0.000000 0.000000
vt 0.070000 0.000000 0.000000
vt 0.000000 0.000000 0.000000
vt 0.070000 -0.000000 0.000000
vt -0.000000 0.125712 0.000000
vt 0.070000 0.125712 0.000000
vt 0.000000 0.000000 0.000000
vt 0.070000 -0.000000 0.000000
vt 0.000000 0.074745 0.000000
vt 0.070000 0.125712 0.000000
vt 0.045464 0.133399 0.000000
vt 0.001118 0.149123 0.000000
vt -0.046109 0.092909 0.000000
vt -0.042759 0.168432 0.000000
vt -0.092462 0.115125 0.000000
vt -0.086390 0.191510 0.000000
vt -0.138816 0.141277 0.000000
vt -0.130000 0.218538 0.000000
vt -0.184929 0.171228 0.000000
vt -0.200000 0.181667 0.000000
vt -0.200000 0.300000 0.000000
vt -0.130000 0.300000 0.000000
vn 1.000000 0.000000 -0.000000
vn 1.000000 0.000000 -0.000000
vn 1.000000 0.000000 -0.000000
vn 1.000000 0.000000 -0.000000
vn -0.000000 0.965926 0.258819
vn -0.000000 0.965926 0.258819
vn -0.000000 0.965926 0.258819
vn -0.000000 0.965926 0.258819
vn 1.000000 0.000000 -0.000000
vn 1.000000 0.000000 -0.000000
vn 1.000000 0.000000 -0.000000
vn 1.000000 0.000000 -0.000000
vn 0.000000 -0.965926 -0.258819
vn 0.000000 -0.965926 -0.258819
vn 0.000000 -0.965926 -0.258819
vn 0.000000 -0.965926 -0.258819
vn -0.000000 0.965926 0.258819
vn -0.000000 0.965926 0.258819
vn -0.000000 0.965926 0.258819
vn -0.000000 0.965926 0.258819
vn 0.000000 -0.258819 0.965926
vn 0.000000 -0.258819 0.965926
vn 0.000000 -0.258819 0.965926
vn 0.000000 -0.258819 0.965926
vn -0.000000 0.965926 0.258819
vn -0.000000 0.965926 0.258819
vn -0.000000 0.965926 0.258819
vn -0.000000 0.965926 0.258819
vn 0.000000 -0.965926 -0.258819
vn 0.000000 -0.965926 -0.258819
vn 0.000000 -0.965926 -0.258819
vn 0.000000 -0.965926 -0.258819
vn 1.000000 0.000000 -0.000000
vn 1.000000 0.000000 -0.000000
vn 1.000000 0.000000 -0.000000
vn 1.000000 0.000000 -0.000000
vn -0.000000 0.258819 -0.965926
vn -0.000000 0.258819 -0.965926
vn -0.000000 0.258819 -0.965926
vn -0.000000 0.258819 -0.965926
vn 1.000000 0.000000 -0.000000
vn 1.000000 0.000000 -0.000000
vn 1.000000 0.000000 -0.000000
vn 1.000000 0.000000 -0.000000
vn 1.000000 0.000000 -0.000000
vn 1.000000 0.000000 -0.000000
vn -0.000000 0.866025 -0.500000
vn -0.000000 0.866025 -0.500000
vn -0.000000 0.866025 -0.500000
vn -0.000000 0.866025 -0.500000
vn -0.000000 0.866025 -0.500000
vn -0.000000 0.965926 0.258819
vn -0.000000 0.965926 0.258819
vn -0.000000 0.965926 0.258819
vn -0.000000 0.965926 0.258819
vn -1.000000 -0.000000 0.000000
vn -1.000000 -0.000000 0.000000
vn -1.000000 -0.000000 0.000000
vn -1.000000 -0.000000 0.000000
vn -1.000000 -0.000000 0.000000
vn -1.000000 -0.000000 0.000000
vn -1.000000 -0.000000 0.000000
vn -1.000000 -0.000000 0.000000
vn -1.000000 -0.000000 0.000000
vn -1.000000 -0.000000 0.000000
vn 0.000000 0.500000 0.866025
vn 0.000000 0.500000 0.866025
vn 0.000000 0.500000 0.866025
vn 0.000000 0.500000 0.866025
vn 0.000000 0.500000 0.866025
vn 0.000000 -0.258819 0.965926
vn 0.000000 -0.258819 0.965926
vn 0.000000 -0.258819 0.965926
vn 0.000000 -0.258819 0.965926
vn 0.000000 -0.258819 0.965926
vn 0.000000 -0.258819 0.965926
vn 0.000000 -0.258819 0.965926
vn 0.000000 -0.258819 0.965926
vn 0.000000 -0.258819 0.965926
vn 0.000000 -0.258819 0.965926
vn 0.000000 -0.258819 0.965926
vn 0.000000 -0.258819 0.965926
vn 0.000000 -0.258819 0.965926
vn 1.000000 0.000000 -0.000000
vn 1.000000 0.000000 -0.000000
vn 1.000000 0.000000 -0.000000
vn 1.000000 0.000000 -0.000000
vn -0.000000 0.258819 -0.965926
vn -0.000000 0.258819 -0.965926
vn -0.000000 0.258819 -0.965926
vn -0.000000 0.258819 -0.965926
vn -1.000000 -0.000000 0.000000
vn -1.000000 -0.000000 0.000000
vn -1.000000 -0.000000 0.000000
vn -1.000000 -0.000000 0.000000
vn 0.000000 -0.965926 -0.258819
vn 0.000000 -0.965926 -0.258819
vn 0.000000 -0.965926 -0.258819
vn 0.000000 -0.965926 -0.258819
vn 0.000000 -0.965926 -0.258819
vn 0.000000 -0.965926 -0.258819
vn 0.000000 -0.965926 -0.258819
vn 0.000000 -0.965926 -0.258819
vn 0.000000 -0.965926 -0.258819
vn 0.000000 -0.965926 -0.258819
vn 0.000000 -0.965926 -0.258819
vn 0.000000 -0.965926 -0.258819
vn 0.000000 -0.965926 -0.258819
vn 0.000000 -0.965926 -0.258819
vn 0.000000 -0.965926 -0.258819
vn 0.000000 -0.965926 -0.258819
vn 0.000000 -0.965926 -0.258819
vn 0.000000 -0.965926 -0.258819
vn 0.000000 -0.965926 -0.258819
vn 0.000000 -0.965926 -0.258819
vn -0.000000 0.965926 0.258819
vn -0.000000 0.965926 0.258819
vn -0.000000 0.965926 0.258819
vn -0.000000 0.965926 0.258819
vn -0.000000 0.258819 -0.965926
vn -0.000000 0.258819 -0.965926
vn -0.000000 0.258819 -0.965926
vn -0.000000 0.258819 -0.965926
vn -0.000000 0.258819 -0.965926
vn -0.000000 0.258819 -0.965926
vn -0.000000 0.258819 -0.965926
vn -0.000000 0.258819 -0.965926
vn -0.000000 0.258819 -0.965926
vn -1.000000 -0.000000 0.000000
vn -1.000000 -0.000000 0.000000
vn -1.000000 -0.000000 0.000000
vn -1.000000 -0.000000 0.000000
vn 0.569403 0.794048 0.212764
vn 0.569403 0.794048 0.212764
vn 0.569403 0.794048 0.212764
vn 0.569403 0.794048 0.212764
vn -1.000000 -0.000000 0.000000
vn -1.000000 -0.000000 0.000000
vn -1.000000 -0.000000 0.000000
vn -1.000000 -0.000000 0.000000
vn 1.000000 0.000000 -0.000000
vn 1.000000 0.000000 -0.000000
vn 1.000000 0.000000 -0.000000
vn 1.000000 0.000000 -0.000000
vn 0.000000 -0.965926 -0.258819
vn 0.000000 -0.965926 -0.258819
vn 0.000000 -0.965926 -0.258819
vn 0.000000 -0.965926 -0.258819
vn -0.298968 -0.921747 -0.246981
vn -0.298968 -0.921747 -0.246981
vn -0.298968 -0.921747 -0.246981
vn -0.298968 -0.921747 -0.246981
vn 0.331050 0.911460 0.244225
vn 0.400213 0.885196 0.237187
vn 0.331050 0.911460 0.244225
vn 0.400213 0.885196 0.237187
vn 0.462561 0.856377 0.229466
vn 0.462561 0.856377 0.229466
vn 0.518719 0.825813 0.221276
vn 0.518719 0.825813 0.221276
vn 0.569403 0.794048 0.212764
vn 0.569403 0.794048 0.212764
vn -0.554007 -0.804145 -0.215470
vn -0.497907 -0.837680 -0.224456
vn -0.554007 -0.804145 -0.215470
vn -0.497907 -0.837680 -0.224456
vn -0.435733 -0.869407 -0.232957
vn -0.435733 -0.869407 -0.232957
vn -0.368780 -0.897844 -0.240577
vn -0.368780 -0.897844 -0.240577
vn -0.298968 -0.921748 -0.246982
vn -0.298968 -0.921748 -0.246982
vn 1.000000 0.000000 -0.000000
vn 1.000000 0.000000 -0.000000
vn 1.000000 0.000000 -0.000000
vn 1.000000 0.000000 -0.000000
vn -0.000000 0.258819 -0.965926
vn -0.000000 0.258819 -0.965926
vn -0.000000 0.258819 -0.965926
vn -0.000000 0.258819 -0.965926
vn -0.000000 0.258819 -0.965926
vn -0.000000 0.258819 -0.965926
vn -0.000000 0.258819 -0.965926
vn -0.000000 0.258819 -0.965926
vn -0.000000 0.258819 -0.965926
vn -0.000000 0.258819 -0.965926
vn -0.000000 0.258819 -0.965926
vn -0.000000 0.258819 -0.965926
vn -0.000000 0.258819 -0.965926
vn -0.000000 0.258819 -0.965926
vn -0.000000 0.258819 -0.965926
vn -0.000000 0.258819 -0.965926
vn -1.000000 -0.000000 0.000000
vn -1.000000 -0.000000 0.000000
vn -1.000000 -0.000000 0.000000
vn -1.000000 -0.000000 0.000000
vn 0.000000 -0.258819 0.965926
vn 0.000000 -0.258819 0.965926
vn 0.000000 -0.258819 0.965926
vn 0.000000 -0.258819 0.965926
vn 0.000000 -0.258819 0.965926
vn 0.000000 -0.258819 0.965926
vn 0.000000 -0.258819 0.965926
vn 0.000000 -0.258819 0.965926
vn 0.000000 -0.258819 0.965926
vn 0.000000 -0.258819 0.965926
vn 0.000000 -0.258819 0.965926
vn 0.000000 -0.258819 0.965926
vn 0.000000 -0.258819 0.965926
vn 0.000000 -0.258819 0.965926
vn 0.000000 -0.258819 0.965926
vn 0.000000 -0.258819 0.965926
vn 0.569403 0.794048 0.212764
vn 0.569403 0.794048 0.212764
vn 0.569403 0.794048 0.212764
vn 0.569403 0.794048 0.212764
vn -1.000000 -0.000000 0.000000
vn -1.000000 -0.000000 0.000000
vn -1.000000 -0.000000 0.000000
vn -1.000000 -0.000000 0.000000
vn 1.000000 0.000000 -0.000000
vn 1.000000 0.000000 -0.000000
vn 1.000000 0.000000 -0.000000
vn 1.000000 0.000000 -0.000000
vn 0.000000 -0.965926 -0.258819
vn 0.000000 -0.965926 -0.258819
vn 0.000000 -0.965926 -0.258819
vn 0.000000 -0.965926 -0.258819
vn -0.298968 -0.921747 -0.246981
vn -0.298968 -0.921747 -0.246981
vn -0.298968 -0.921747 -0.246981
vn -0.298968 -0.921747 -0.246981
vn 0.331050 0.911460 0.244225
vn 0.400213 0.885196 0.237187
vn 0.331050 0.911460 0.244225
vn 0.400213 0.885196 0.237187
vn 0.462561 0.856377 0.229466
vn 0.462561 0.856377 0.229466
vn 0.518719 0.825813 0.221276
vn 0.518719 0.825813 0.221276
vn 0.569403 0.794048 0.212764
vn 0.569403 0.794048 0.212764
vn -0.554007 -0.804145 -0.215470
vn -0.497907 -0.837680 -0.224456
vn -0.554007 -0.804145 -0.215470
vn -0.497907 -0.837680 -0.224456
vn -0.435733 -0.869407 -0.232957
vn -0.435733 -0.869407 -0.232957
vn -0.368780 -0.897844 -0.240577
vn -0.368780 -0.897844 -0.240577
vn -0.298968 -0.921748 -0.246982
vn -0.298968 -0.921748 -0.246982
vn 1.000000 0.000000 -0.000000
vn 1.000000 0.000000 -0.000000
vn 1.000000 0.000000 -0.000000
vn 1.000000 0.000000 -0.000000
vn -0.000000 0.258819 -0.965926
vn -0.000000 0.258819 -0.965926
vn -0.000000 0.258819 -0.965926
vn -0.000000 0.258819 -0.965926
vn -0.000000 0.258819 -0.965926
vn -0.000000 0.258819 -0.965926
vn -0.000000 0.258819 -0.965926
vn -0.000000 0.258819 -0.965926
vn -0.000000 0.258819 -0.965926
vn -0.000000 0.258819 -0.965926
vn -0.000000 0.258819 -0.965926
vn -0.000000 0.258819 -0.965926
vn -0.000000 0.258819 -0.965926
vn -0.000000 0.258819 -0.965926
vn -0.000000 0.258819 -0.965926
vn -0.000000 0.258819 -0.965926
vn -1.000000 -0.000000 0.000000
vn -1.000000 -0.000000 0.000000
vn -1.000000 -0.000000 0.000000
vn -1.000000 -0.000000 0.000000
vn 0.000000 -0.258819 0.965926
vn 0.000000 -0.258819 0.965926
vn 0.000000 -0.258819 0.965926
vn 0.000000 -0.258819 0.965926
vn 0.000000 -0.258819 0.965926
vn 0.000000 -0.258819 0.965926
vn 0.000000 -0.258819 0.965926
vn 0.000000 -0.258819 0.965926
vn 0.000000 -0.258819 0.965926
vn 0.000000 -0.258819 0.965926
vn 0.000000 -0.258819 0.965926
vn 0.000000 -0.258819 0.965926
vn 0.000000 -0.258819 0.965926
vn 0.000000 -0.258819 0.965926
vn 0.000000 -0.258819 0.965926
vn 0.000000 -0.258819 0.965926
usemtl Opaque(44,44,44)
f 2/1/1 3/2/2 1/3/3
f 1/3/3 3/2/2 4/4/4
f 6/5/5 2/6/6 5/7/7
f 5/7/7 2/6/6 1/8/8
f 7/9/9 8/10/10 10/11/11
f 10/11/11 8/10/10 9/12/12
f 11/13/13 7/14/14 12/15/15
f 12/15/15 7/14/14 10/16/16
f 8/17/17 13/18/18 9/19/19
f 9/19/19 13/18/18 14/20/20
usemtl Opaque(196,197,196)
f 9/21/21 14/22/22 10/23/23
f 10/23/23 14/22/22 12/24/24
usemtl Opaque(44,44,44)
f 15/25/25 16/26/26 18/27/27
f 18/27/27 16/26/26 17/28/28
f 20/29/29 21/30/30 19/31/31
f 19/31/31 21/30/30 22/32/32
f 19/33/33 22/34/34 16/35/35
f 16/35/35 22/34/34 17/36/36
usemtl Opaque(196,197,196)
f 22/37/37 21/38/38 17/39/39
f 17/39/39 21/38/38 18/40/40
f 6/41/41 5/42/42 23/43/43
f 23/43/43 5/42/42 24/44/44
f 23/43/43 24/44/44 25/45/45
f 25/45/45 26/46/46 23/43/43
f 15/47/47 27/48/48 16/49/49
f 16/49/49 27/48/48 25/50/50
f 16/49/49 25/50/50 24/51/51
f 25/52/52 27/53/53 26/54/54
f 26/54/54 27/53/53 28/55/55
f 28/56/56 27/57/57 13/58/58
f 13/58/58 27/57/57 15/59/59
f 13/58/58 15/59/59 20/60/60
f 20/60/60 15/59/59 18/61/61
f 20/60/60 18/61/61 21/62/62
f 20/60/60 11/63/63 13/58/58
f 13/58/58 11/63/63 14/64/64
f 14/64/64 11/63/63 12/65/65
f 23/66/66 26/67/67 8/68/68
f 8/68/68 26/67/67 28/69/69
f 8/68/68 28/69/69 13/70/70
usemtl Opaque(44,44,44)
f 11/71/71 3/72/72 7/73/73
f 7/73/73 3/72/72 6/74/74
f 7/73/73 6/74/74 8/75/75
f 8/75/75 6/74/74 23/76/76
f 29/77/77 30/78/78 11/71/71
f 11/71/71 30/78/78 3/72/72
f 3/72/72 2/79/79 6/74/74
usemtl Opaque(196,197,196)
f 31/80/80 32/81/81 34/82/82
f 34/82/82 32/81/81 33/83/83
f 35/84/84 31/85/85 36/86/86
f 36/86/86 31/85/85 34/87/87
f 37/88/88 35/89/89 38/90/90
f 38/90/90 35/89/89 36/91/91
f 32/92/92 37/93/93 33/94/94
f 33/94/94 37/93/93 38/95/95
f 38/96/96 36/97/97 33/98/98
f 33/98/98 36/97/97 34/99/99
usemtl Opaque(44,44,44)
f 30/100/100 44/101/101 3/102/102
f 3/102/102 44/101/101 45/103/103
f 3/102/102 45/103/103 31/104/104
f 31/104/104 45/103/103 32/105/105
f 32/105/105 45/103/103 46/106/106
f 32/105/105 46/106/106 30/100/100
f 30/100/100 46/106/106 47/107/107
f 30/100/100 47/107/107 44/101/101
f 30/100/100 39/108/108 32/105/105
f 32/105/105 39/108/108 37/109/109
f 37/109/109 39/108/108 43/110/110
f 37/109/109 43/110/110 35/111/111
f 35/111/111 43/110/110 40/112/112
f 35/111/111 40/112/112 4/113/113
f 4/113/113 40/112/112 41/114/114
f 4/113/113 41/114/114 39/108/108
f 39/108/108 41/114/114 42/115/115
f 39/108/108 42/115/115 43/110/110
f 4/113/113 3/102/102 35/111/111
f 35/111/111 3/102/102 31/104/104
f 11/116/116 20/117/117 29/118/118
f 29/118/118 20/117/117 48/119/119
f 19/120/120 4/121/121 20/122/122
f 20/122/122 4/121/121 39/123/123
f 20/122/122 39/123/123 48/124/124
f 4/121/121 19/120/120 5/125/125
f 5/125/125 19/120/120 16/126/126
f 5/125/125 16/126/126 24/127/127
f 5/125/125 1/128/128 4/121/121
f 48/129/129 39/130/130 29/131/131
f 29/131/131 39/130/130 30/132/132
usemtl Opaque(196,197,196)
f 49/133/133 50/134/134 52/135/135
f 52/135/135 50/134/134 51/136/136
f 53/137/137 54/138/138 56/139/139
f 56/139/139 54/138/138 55/140/140
f 57/141/141 58/142/142 49/143/143
f 49/143/143 58/142/142 50/144/144
f 56/145/145 55/146/146 57/147/147
f 57/147/147 55/146/146 58/148/148
f 59/149/149 60/150/150 62/151/151
f 62/151/151 60/150/150 61/152/152
f 64/153/153 65/154/154 63/155/155
f 63/155/155 65/154/154 70/156/156
f 70/156/156 65/154/154 66/157/157
f 70/156/156 66/157/157 69/158/158
f 69/158/158 66/157/157 67/159/159
f 69/158/158 67/159/159 68/160/160
f 68/160/160 67/159/159 52/161/161
f 68/160/160 52/161/161 51/162/162
f 53/163/163 71/164/164 54/165/165
f 54/165/165 71/164/164 76/166/166
f 76/166/166 71/164/164 72/167/167
f 76/166/166 72/167/167 75/168/168
f 75/168/168 72/167/167 73/169/169
f 75/168/168 73/169/169 74/170/170
f 74/170/170 73/169/169 62/171/171
f 74/170/170 62/171/171 61/172/172
f 64/173/173 63/174/174 44/175/175
f 44/175/175 63/174/174 45/176/176
f 70/177/177 74/178/178 63/179/179
f 63/179/179 74/178/178 61/180/180
f 63/179/179 61/180/180 60/181/181
f 74/178/178 70/177/177 75/182/182
f 75/182/182 70/177/177 69/183/183
f 75/182/182 69/183/183 76/184/184
f 76/184/184 69/183/183 68/185/185
f 76/184/184 68/185/185 54/186/186
f 54/186/186 68/185/185 51/187/187
f 54/186/186 51/187/187 50/188/188
f 50/188/188 58/189/189 54/186/186
f 54/186/186 58/189/189 55/190/190
f 60/181/181 46/191/191 63/179/179
f 63/179/179 46/191/191 45/192/192
f 47/193/193 46/194/194 59/195/195
f 59/195/195 46/194/194 60/196/196
f 44/197/197 47/198/198 64/199/199
f 64/199/199 47/198/198 59/200/200
f 64/199/199 59/200/200 62/201/201
f 62/201/201 73/202/202 64/199/199
f 64/199/199 73/202/202 65/203/203
f 65/203/203 73/202/202 72/204/204
f 65/203/203 72/204/204 66/205/205
f 66/205/205 72/204/204 71/206/206
f 66/205/205 71/206/206 67/207/207
f 67/207/207 71/206/206 53/208/208
f 67/207/207 53/208/208 52/209/209
f 52/209/209 53/208/208 49/210/210
f 49/210/210 53/208/208 57/211/211
f 57/211/211 53/208/208 56/212/212
f 77/213/213 78/214/214 80/215/215
f 80/215/215 78/214/214 79/216/216
f 81/217/217 82/218/218 84/219/219
f 84/219/219 82/218/218 83/220/220
f 85/221/221 86/222/222 77/223/223
f 77/223/223 86/222/222 78/224/224
f 84/225/225 83/226/226 85/227/227
f 85/227/227 83/226/226 86/228/228
f 87/229/229 88/230/230 90/231/231
f 90/231/231 88/230/230 89/232/232
f 92/233/233 93/234/234 91/235/235
f 91/235/235 93/234/234 98/236/236
f 98/236/236 93/234/234 94/237/237
f 98/236/236 94/237/237 97/238/238
f 97/238/238 94/237/237 95/239/239
f 97/238/238 95/239/239 96/240/240
f 96/240/240 95/239/239 80/241/241
f 96/240/240 80/241/241 79/242/242
f 81/243/243 99/244/244 82/245/245
f 82/245/245 99/244/244 104/246/246
f 104/246/246 99/244/244 100/247/247
f 104/246/246 100/247/247 103/248/248
f 103/248/248 100/247/247 101/249/249
f 103/248/248 101/249/249 102/250/250
f 102/250/250 101/249/249 90/251/251
f 102/250/250 90/251/251 89/252/252
f 92/253/253 91/254/254 40/255/255
f 40/255/255 91/254/254 41/256/256
f 98/257/257 102/258/258 91/259/259
f 91/259/259 102/258/258 89/260/260
f 91/259/259 89/260/260 88/261/261
f 102/258/258 98/257/257 103/262/262
f 103/262/262 98/257/257 97/263/263
f 103/262/262 97/263/263 104/264/264
f 104/264/264 97/263/263 96/265/265
f 104/264/264 96/265/265 82/266/266
f 82/266/266 96/265/265 79/267/267
f 82/266/266 79/267/267 78/268/268
f 78/268/268 86/269/269 82/266/266
f 82/266/266 86/269/269 83/270/270
f 88/261/261 42/271/271 91/259/259
f 91/259/259 42/271/271 41/272/272
f 43/273/273 42/274/274 87/275/275
f 87/275/275 42/274/274 88/276/276
f 40/277/277 43/278/278 92/279/279
f 92/279/279 43/278/278 87/280/280
f 92/279/279 87/280/280 90/281/281
f 90/281/281 101/282/282 92/279/279
f 92/279/279 101/282/282 93/283/283
f 93/283/283 101/282/282 100/284/284
f 93/283/283 100/284/284 94/285/285
f 94/285/285 100/284/284 99/286/286
f 94/285/285 99/286/286 95/287/287
f 95/287/287 99/286/286 81/288/288
f 95/287/287 81/288/288 80/289/289
f 80/289/289 81/288/288 77/290/290
f 77/290/290 81/288/288 85/291/291
f 85/291/291 81/288/288 84/292/292
# 104 vertices
# 292 texture params
# 292 normals
# 204 facets

# 1 groups
