# WaveFront *.obj file (generated by Autodesk ATF)

mtllib body72_visual.mtl

g Body72

v -27.298687 1.916600 -0.714831
v -27.307371 1.916124 -0.713052
v -27.315776 1.915385 -0.710295
v -27.323785 1.914394 -0.706599
v -27.331286 1.913166 -0.702014
v -27.338173 1.911717 -0.696605
v -27.344351 1.910067 -0.690448
v -27.349732 1.908240 -0.683629
v -27.354242 1.906261 -0.676244
v -27.357816 1.904158 -0.668396
v -27.360406 1.901960 -0.660195
v -27.361975 1.899699 -0.651756
v -27.362500 1.897406 -0.643197
v -27.362500 1.969850 -0.623785
v -27.361975 1.972144 -0.632344
v -27.360406 1.974405 -0.640784
v -27.357816 1.976602 -0.648985
v -27.354242 1.978705 -0.656833
v -27.349732 1.980684 -0.664218
v -27.344351 1.982511 -0.671037
v -27.338173 1.984161 -0.677194
v -27.331286 1.985610 -0.682602
v -27.323785 1.986839 -0.687187
v -27.315776 1.987829 -0.690884
v -27.307371 1.988568 -0.693641
v -27.298687 1.989045 -0.695419
v -27.312500 1.897406 -0.643197
v -27.311987 1.898710 -0.648066
v -27.310467 1.899961 -0.652734
v -27.308005 1.901107 -0.657011
v -27.304700 1.902101 -0.660721
v -27.300689 1.902903 -0.663711
v -27.296137 1.903478 -0.665858
v -27.291229 1.903804 -0.667075
v -27.291229 1.976248 -0.647663
v -27.296137 1.975922 -0.646447
v -27.300689 1.975347 -0.644299
v -27.304700 1.974546 -0.641310
v -27.308005 1.973552 -0.637600
v -27.310467 1.972406 -0.633323
v -27.311987 1.971155 -0.628654
v -27.312500 1.969850 -0.623785
v -27.283813 1.904093 -0.668155
v -27.275129 1.904570 -0.669934
v -27.266724 1.905309 -0.672691
v -27.258715 1.906299 -0.676387
v -27.251214 1.907528 -0.680972
v -27.244327 1.908977 -0.686381
v -27.238149 1.910627 -0.692538
v -27.232768 1.912454 -0.699357
v -27.228258 1.914433 -0.706742
v -27.224684 1.916536 -0.714590
v -27.222094 1.918733 -0.722791
v -27.220525 1.920994 -0.731230
v -27.220000 1.923288 -0.739789
v -27.220000 1.995732 -0.720378
v -27.220525 1.993439 -0.711819
v -27.222094 1.991178 -0.703380
v -27.224684 1.988980 -0.695179
v -27.228258 1.986877 -0.687331
v -27.232768 1.984898 -0.679945
v -27.238149 1.983071 -0.673127
v -27.244327 1.981421 -0.666970
v -27.251214 1.979972 -0.661561
v -27.258715 1.978744 -0.656976
v -27.266724 1.977753 -0.653279
v -27.275129 1.977014 -0.650522
v -27.283813 1.976538 -0.648744
v -27.270000 1.923288 -0.739789
v -27.270513 1.921983 -0.734921
v -27.272033 1.920732 -0.730252
v -27.274495 1.919586 -0.725975
v -27.277800 1.918592 -0.722265
v -27.281811 1.917791 -0.719275
v -27.286363 1.917216 -0.717128
v -27.291271 1.916890 -0.715911
v -27.291271 1.989334 -0.696500
v -27.286363 1.989660 -0.697717
v -27.281811 1.990235 -0.699864
v -27.277800 1.991037 -0.702854
v -27.274495 1.992031 -0.706563
v -27.272033 1.993177 -0.710840
v -27.270513 1.994428 -0.715509
v -27.270000 1.995732 -0.720378
v -27.362500 1.877552 -0.569100
v -27.312500 1.877552 -0.569100
v -27.312500 1.867199 -0.530463
v -27.362500 1.867199 -0.530463
v -27.312500 1.893081 -0.627056
v -27.362500 1.893081 -0.627056
v -27.270000 1.938633 -0.797058
v -27.220000 1.938633 -0.797058
v -27.312500 1.949996 -0.549689
v -27.362500 1.949996 -0.549689
v -27.362500 1.939643 -0.511051
v -27.312500 1.939643 -0.511051
v -27.270000 2.011077 -0.777647
v -27.220000 2.011077 -0.777647
v -27.362500 1.965525 -0.607644
v -27.312500 1.965525 -0.607644
v -27.362500 1.975184 -0.605056
v -27.312500 1.975184 -0.605056
v -27.312500 1.867892 -0.571688
v -27.312500 1.883422 -0.629644
v -27.312500 1.959655 -0.547100
v -27.362500 1.959655 -0.547100
v -27.362500 1.883422 -0.629644
v -27.362500 1.867892 -0.571688
vt -0.075000 -0.053290 0.000000
vt 0.000000 -0.053290 0.000000
vt -0.075000 -0.044409 0.000000
vt 0.000000 -0.044409 0.000000
vt -0.075000 -0.035527 0.000000
vt -0.000000 -0.035527 0.000000
vt -0.075000 -0.026645 0.000000
vt 0.000000 -0.026645 0.000000
vt -0.075000 -0.017763 0.000000
vt -0.000000 -0.017763 0.000000
vt -0.075000 -0.008882 0.000000
vt -0.000000 -0.008882 0.000000
vt -0.075000 0.000000 0.000000
vt -0.000000 0.000000 0.000000
vt -0.075000 0.008882 0.000000
vt -0.000000 0.008882 0.000000
vt -0.075000 0.017763 0.000000
vt -0.000000 0.017763 0.000000
vt -0.075000 0.026645 0.000000
vt -0.000000 0.026645 0.000000
vt -0.075000 0.035527 0.000000
vt -0.000000 0.035527 0.000000
vt -0.075000 0.044409 0.000000
vt 0.000000 0.044409 0.000000
vt -0.075000 0.053290 0.000000
vt -0.000000 0.053290 0.000000
vt 0.075000 0.017763 0.000000
vt 0.000000 0.017763 0.000000
vt 0.075000 0.012688 0.000000
vt -0.000000 0.012688 0.000000
vt 0.075000 0.007613 0.000000
vt -0.000000 0.007613 0.000000
vt 0.075000 0.002538 0.000000
vt 0.000000 0.002538 0.000000
vt 0.075000 -0.002538 0.000000
vt 0.000000 -0.002538 0.000000
vt 0.075000 -0.007613 0.000000
vt -0.000000 -0.007613 0.000000
vt 0.075000 -0.012688 0.000000
vt -0.000000 -0.012688 0.000000
vt 0.075000 -0.017763 0.000000
vt -0.000000 -0.017763 0.000000
vt -0.075000 -0.053290 0.000000
vt -0.000000 -0.053290 0.000000
vt -0.075000 -0.044409 0.000000
vt 0.000000 -0.044409 0.000000
vt -0.075000 -0.035527 0.000000
vt 0.000000 -0.035527 0.000000
vt -0.075000 -0.026645 0.000000
vt -0.000000 -0.026645 0.000000
vt -0.075000 -0.017763 0.000000
vt -0.000000 -0.017763 0.000000
vt -0.075000 -0.008882 0.000000
vt 0.000000 -0.008882 0.000000
vt -0.075000 0.000000 0.000000
vt 0.000000 0.000000 0.000000
vt -0.075000 0.008882 0.000000
vt 0.000000 0.008882 0.000000
vt -0.075000 0.017763 0.000000
vt 0.000000 0.017763 0.000000
vt -0.075000 0.026645 0.000000
vt -0.000000 0.026645 0.000000
vt -0.075000 0.035527 0.000000
vt 0.000000 0.035527 0.000000
vt -0.075000 0.044409 0.000000
vt 0.000000 0.044409 0.000000
vt -0.075000 0.053290 0.000000
vt -0.000000 0.053290 0.000000
vt 0.075000 0.017763 0.000000
vt 0.000000 0.017763 0.000000
vt 0.075000 0.012688 0.000000
vt 0.000000 0.012688 0.000000
vt 0.075000 0.007613 0.000000
vt 0.000000 0.007613 0.000000
vt 0.075000 0.002538 0.000000
vt 0.000000 0.002538 0.000000
vt 0.075000 -0.002538 0.000000
vt 0.000000 -0.002538 0.000000
vt 0.075000 -0.007613 0.000000
vt -0.000000 -0.007613 0.000000
vt 0.075000 -0.012688 0.000000
vt 0.000000 -0.012688 0.000000
vt 0.075000 -0.017763 0.000000
vt 0.000000 -0.017763 0.000000
vt -0.101792 -0.014179 0.000000
vt -0.141792 -0.014179 0.000000
vt -0.101792 -0.064179 0.000000
vt -0.141792 -0.064179 0.000000
vt -0.041792 -0.014179 0.000000
vt -0.041792 -0.064179 0.000000
vt -0.025081 -0.014179 0.000000
vt -0.025081 -0.064179 0.000000
vt -0.016220 -0.063654 0.000000
vt -0.020041 -0.013666 0.000000
vt -0.007483 -0.062086 0.000000
vt 0.001007 -0.059496 0.000000
vt 0.009132 -0.055921 0.000000
vt -0.015207 -0.012147 0.000000
vt 0.016778 -0.051412 0.000000
vt 0.023837 -0.046030 0.000000
vt -0.010779 -0.009685 0.000000
vt 0.030211 -0.039853 0.000000
vt 0.035811 -0.032965 0.000000
vt -0.006939 -0.006380 0.000000
vt 0.040557 -0.025464 0.000000
vt -0.003843 -0.002369 0.000000
vt 0.044384 -0.017455 0.000000
vt -0.001620 0.002184 0.000000
vt 0.047239 -0.009050 0.000000
vt 0.049080 -0.000367 0.000000
vt -0.000361 0.007091 0.000000
vt 0.050198 0.007050 0.000000
vt 0.000758 0.014508 0.000000
vt 0.051458 0.011957 0.000000
vt 0.002599 0.023191 0.000000
vt 0.005453 0.031596 0.000000
vt 0.053681 0.016510 0.000000
vt 0.009280 0.039605 0.000000
vt 0.056776 0.020521 0.000000
vt 0.014027 0.047106 0.000000
vt 0.060617 0.023826 0.000000
vt 0.019627 0.053994 0.000000
vt 0.026001 0.060171 0.000000
vt 0.065045 0.026288 0.000000
vt 0.033060 0.065553 0.000000
vt 0.040706 0.070062 0.000000
vt 0.069878 0.027807 0.000000
vt 0.048831 0.073637 0.000000
vt 0.057321 0.076227 0.000000
vt 0.066058 0.077795 0.000000
vt 0.074919 0.028321 0.000000
vt 0.074919 0.078321 0.000000
vt 0.134208 0.028321 0.000000
vt 0.134208 0.078321 0.000000
vt 0.101792 -0.064179 0.000000
vt 0.141792 -0.064179 0.000000
vt 0.101792 -0.014179 0.000000
vt 0.141792 -0.014179 0.000000
vt 0.000000 0.075000 0.000000
vt -0.059289 0.075000 0.000000
vt 0.000000 0.000000 0.000000
vt -0.059289 0.000000 0.000000
vt 0.000000 0.075000 0.000000
vt -0.050000 0.075000 0.000000
vt 0.000000 0.000000 0.000000
vt -0.050000 -0.000000 0.000000
vt -0.075000 -0.059289 0.000000
vt -0.000000 -0.059289 0.000000
vt -0.075000 -0.000000 0.000000
vt -0.000000 0.000000 0.000000
vt -0.075000 -0.007500 0.000000
vt 0.000000 -0.007500 0.000000
vt -0.075000 0.000000 0.000000
vt -0.000000 0.000000 0.000000
vt -0.075000 -0.050000 0.000000
vt 0.000000 -0.050000 0.000000
vt -0.075000 -0.000000 0.000000
vt -0.000000 0.000000 0.000000
vt 0.075000 0.007500 0.000000
vt 0.000000 0.007500 0.000000
vt 0.075000 -0.000000 0.000000
vt 0.000000 0.000000 0.000000
vt 0.041792 -0.014179 0.000000
vt 0.025081 -0.014179 0.000000
vt 0.041792 -0.064179 0.000000
vt 0.025081 -0.064179 0.000000
vt 0.016220 -0.063654 0.000000
vt 0.020041 -0.013666 0.000000
vt 0.007483 -0.062086 0.000000
vt -0.001007 -0.059496 0.000000
vt -0.009132 -0.055921 0.000000
vt 0.015207 -0.012147 0.000000
vt -0.016778 -0.051412 0.000000
vt -0.023837 -0.046030 0.000000
vt 0.010779 -0.009685 0.000000
vt -0.030211 -0.039853 0.000000
vt -0.035811 -0.032965 0.000000
vt 0.006939 -0.006380 0.000000
vt -0.040557 -0.025464 0.000000
vt 0.003843 -0.002369 0.000000
vt -0.044384 -0.017455 0.000000
vt 0.001620 0.002184 0.000000
vt -0.047239 -0.009050 0.000000
vt -0.049080 -0.000367 0.000000
vt 0.000361 0.007091 0.000000
vt -0.050198 0.007050 0.000000
vt -0.000758 0.014508 0.000000
vt -0.051458 0.011957 0.000000
vt -0.002599 0.023191 0.000000
vt -0.005453 0.031596 0.000000
vt -0.053681 0.016510 0.000000
vt -0.009280 0.039605 0.000000
vt -0.056776 0.020521 0.000000
vt -0.014027 0.047106 0.000000
vt -0.060617 0.023826 0.000000
vt -0.019627 0.053994 0.000000
vt -0.026001 0.060171 0.000000
vt -0.065045 0.026288 0.000000
vt -0.033060 0.065553 0.000000
vt -0.040706 0.070062 0.000000
vt -0.069878 0.027807 0.000000
vt -0.048831 0.073637 0.000000
vt -0.057321 0.076227 0.000000
vt -0.066058 0.077795 0.000000
vt -0.074919 0.028321 0.000000
vt -0.074919 0.078321 0.000000
vt -0.134208 0.028321 0.000000
vt -0.134208 0.078321 0.000000
vt -0.000000 0.085000 0.000000
vt 0.050000 0.085000 0.000000
vt 0.000000 0.095000 0.000000
vt 0.050000 0.095000 0.000000
vt -0.030000 -0.047500 0.000000
vt 0.030000 -0.047500 0.000000
vt -0.030000 -0.037500 0.000000
vt 0.030000 -0.037500 0.000000
vt -0.030000 0.037500 0.000000
vt 0.030000 0.037500 0.000000
vt -0.030000 0.047500 0.000000
vt 0.030000 0.047500 0.000000
vt 0.046711 -0.037500 0.000000
vt 0.046711 0.037500 0.000000
vt -0.070000 0.037500 0.000000
vt -0.070000 -0.037500 0.000000
vt 0.030000 0.047500 0.000000
vt -0.030000 0.047500 0.000000
vt 0.030000 0.037500 0.000000
vt -0.030000 0.037500 0.000000
vt 0.030000 -0.037500 0.000000
vt -0.030000 -0.037500 0.000000
vt 0.030000 -0.047500 0.000000
vt -0.030000 -0.047500 0.000000
vt -0.046711 0.037500 0.000000
vt -0.046711 -0.037500 0.000000
vt 0.070000 -0.037500 0.000000
vt 0.070000 0.037500 0.000000
vt 0.010000 0.000000 0.000000
vt -0.000000 0.000000 0.000000
vt 0.010000 -0.050000 0.000000
vt 0.000000 -0.050000 0.000000
vt 0.085000 -0.050000 0.000000
vt 0.095000 -0.050000 0.000000
vt 0.085000 -0.000000 0.000000
vt 0.095000 -0.000000 0.000000
vt 0.000000 -0.050000 0.000000
vt 0.060000 -0.050000 0.000000
vt 0.000000 0.000000 0.000000
vt 0.060000 0.000000 0.000000
vt 0.050000 0.010000 0.000000
vt -0.000000 0.010000 0.000000
vt 0.050000 0.000000 0.000000
vt 0.000000 0.000000 0.000000
vt 0.000000 -0.050000 0.000000
vt 0.060000 -0.050000 0.000000
vt 0.000000 0.000000 0.000000
vt 0.060000 0.000000 0.000000
vn -0.149161 0.255924 -0.955120
vn -0.149161 0.255924 -0.955120
vn -0.264941 0.249570 -0.931408
vn -0.264941 0.249570 -0.931408
vn -0.377010 0.239721 -0.894649
vn -0.377010 0.239721 -0.894649
vn -0.483798 0.226513 -0.845359
vn -0.483798 0.226513 -0.845359
vn -0.583809 0.210133 -0.784227
vn -0.583809 0.210133 -0.784227
vn -0.675642 0.190809 -0.712110
vn -0.675642 0.190809 -0.712110
vn -0.758011 0.168813 -0.630017
vn -0.758011 0.168813 -0.630017
vn -0.829762 0.144451 -0.539100
vn -0.829762 0.144451 -0.539100
vn -0.889890 0.118067 -0.440631
vn -0.889890 0.118067 -0.440631
vn -0.937553 0.090028 -0.335990
vn -0.937553 0.090028 -0.335990
vn -0.972083 0.060729 -0.226643
vn -0.972083 0.060729 -0.226643
vn -0.992996 0.030579 -0.114121
vn -0.992996 0.030579 -0.114121
vn -1.000000 0.000000 -0.000000
vn -1.000000 0.000000 -0.000000
vn 1.000000 -0.000000 0.000000
vn 1.000000 -0.000000 0.000000
vn 0.979464 -0.052183 0.194749
vn 0.979464 -0.052183 0.194749
vn 0.918699 -0.102223 0.381500
vn 0.918699 -0.102223 0.381500
vn 0.820202 -0.148064 0.552581
vn 0.820202 -0.148064 0.552581
vn 0.688017 -0.187824 0.700967
vn 0.688017 -0.187824 0.700967
vn 0.527573 -0.219869 0.820563
vn 0.527573 -0.219869 0.820563
vn 0.345462 -0.242884 0.906457
vn 0.345462 -0.242884 0.906457
vn 0.149161 -0.255924 0.955120
vn 0.149161 -0.255924 0.955120
vn 0.149161 -0.255924 0.955120
vn 0.149161 -0.255924 0.955120
vn 0.264941 -0.249570 0.931408
vn 0.264941 -0.249570 0.931408
vn 0.377010 -0.239721 0.894649
vn 0.377010 -0.239721 0.894649
vn 0.483798 -0.226513 0.845359
vn 0.483798 -0.226513 0.845359
vn 0.583809 -0.210133 0.784227
vn 0.583809 -0.210133 0.784227
vn 0.675642 -0.190809 0.712110
vn 0.675642 -0.190809 0.712110
vn 0.758011 -0.168813 0.630017
vn 0.758011 -0.168813 0.630017
vn 0.829762 -0.144451 0.539100
vn 0.829762 -0.144451 0.539100
vn 0.889890 -0.118067 0.440631
vn 0.889890 -0.118067 0.440631
vn 0.937553 -0.090028 0.335990
vn 0.937553 -0.090028 0.335990
vn 0.972083 -0.060729 0.226643
vn 0.972083 -0.060729 0.226643
vn 0.992996 -0.030579 0.114121
vn 0.992996 -0.030579 0.114121
vn 1.000000 -0.000000 0.000000
vn 1.000000 -0.000000 0.000000
vn -1.000000 0.000000 -0.000000
vn -1.000000 0.000000 -0.000000
vn -0.979464 0.052183 -0.194749
vn -0.979464 0.052183 -0.194749
vn -0.918699 0.102223 -0.381500
vn -0.918699 0.102223 -0.381500
vn -0.820202 0.148064 -0.552581
vn -0.820202 0.148064 -0.552581
vn -0.688017 0.187824 -0.700967
vn -0.688017 0.187824 -0.700967
vn -0.527573 0.219869 -0.820563
vn -0.527573 0.219869 -0.820563
vn -0.345462 0.242884 -0.906457
vn -0.345462 0.242884 -0.906457
vn -0.149161 0.255924 -0.955120
vn -0.149161 0.255924 -0.955120
vn -0.000000 -0.965926 -0.258819
vn -0.000000 -0.965926 -0.258819
vn -0.000000 -0.965926 -0.258819
vn -0.000000 -0.965926 -0.258819
vn -0.000000 -0.965926 -0.258819
vn -0.000000 -0.965926 -0.258819
vn -0.000000 -0.965926 -0.258819
vn -0.000000 -0.965926 -0.258819
vn -0.000000 -0.965926 -0.258819
vn -0.000000 -0.965926 -0.258819
vn -0.000000 -0.965926 -0.258819
vn -0.000000 -0.965926 -0.258819
vn -0.000000 -0.965926 -0.258819
vn -0.000000 -0.965926 -0.258819
vn -0.000000 -0.965926 -0.258819
vn -0.000000 -0.965926 -0.258819
vn -0.000000 -0.965926 -0.258819
vn -0.000000 -0.965926 -0.258819
vn -0.000000 -0.965926 -0.258819
vn -0.000000 -0.965926 -0.258819
vn -0.000000 -0.965926 -0.258819
vn -0.000000 -0.965926 -0.258819
vn -0.000000 -0.965926 -0.258819
vn -0.000000 -0.965926 -0.258819
vn -0.000000 -0.965926 -0.258819
vn -0.000000 -0.965926 -0.258819
vn -0.000000 -0.965926 -0.258819
vn -0.000000 -0.965926 -0.258819
vn -0.000000 -0.965926 -0.258819
vn -0.000000 -0.965926 -0.258819
vn -0.000000 -0.965926 -0.258819
vn -0.000000 -0.965926 -0.258819
vn -0.000000 -0.965926 -0.258819
vn -0.000000 -0.965926 -0.258819
vn -0.000000 -0.965926 -0.258819
vn -0.000000 -0.965926 -0.258819
vn -0.000000 -0.965926 -0.258819
vn -0.000000 -0.965926 -0.258819
vn -0.000000 -0.965926 -0.258819
vn -0.000000 -0.965926 -0.258819
vn -0.000000 -0.965926 -0.258819
vn -0.000000 -0.965926 -0.258819
vn -0.000000 -0.965926 -0.258819
vn -0.000000 -0.965926 -0.258819
vn -0.000000 -0.965926 -0.258819
vn -0.000000 -0.965926 -0.258819
vn -0.000000 -0.965926 -0.258819
vn -0.000000 -0.965926 -0.258819
vn -0.000000 -0.965926 -0.258819
vn -0.000000 -0.965926 -0.258819
vn 0.000000 0.965926 0.258819
vn 0.000000 0.965926 0.258819
vn 0.000000 0.965926 0.258819
vn 0.000000 0.965926 0.258819
vn -1.000000 0.000000 -0.000000
vn -1.000000 0.000000 -0.000000
vn 0.000000 0.258819 -0.965926
vn 0.000000 0.258819 -0.965926
vn 0.000000 0.258819 -0.965926
vn 0.000000 0.258819 -0.965926
vn 1.000000 -0.000000 0.000000
vn 1.000000 -0.000000 0.000000
vn 0.149161 -0.255924 0.955120
vn 0.149161 -0.255924 0.955120
vn -0.000000 -0.258819 0.965926
vn -0.000000 -0.258819 0.965926
vn -0.000000 -0.258819 0.965926
vn -0.000000 -0.258819 0.965926
vn 0.000000 0.965926 0.258819
vn 0.000000 0.965926 0.258819
vn 0.000000 0.965926 0.258819
vn 0.000000 0.965926 0.258819
vn 0.000000 0.965926 0.258819
vn 0.000000 0.965926 0.258819
vn 0.000000 0.965926 0.258819
vn 0.000000 0.965926 0.258819
vn 0.000000 0.965926 0.258819
vn 0.000000 0.965926 0.258819
vn 0.000000 0.965926 0.258819
vn 0.000000 0.965926 0.258819
vn 0.000000 0.965926 0.258819
vn 0.000000 0.965926 0.258819
vn 0.000000 0.965926 0.258819
vn 0.000000 0.965926 0.258819
vn 0.000000 0.965926 0.258819
vn 0.000000 0.965926 0.258819
vn 0.000000 0.965926 0.258819
vn 0.000000 0.965926 0.258819
vn 0.000000 0.965926 0.258819
vn 0.000000 0.965926 0.258819
vn 0.000000 0.965926 0.258819
vn 0.000000 0.965926 0.258819
vn 0.000000 0.965926 0.258819
vn 0.000000 0.965926 0.258819
vn 0.000000 0.965926 0.258819
vn 0.000000 0.965926 0.258819
vn 0.000000 0.965926 0.258819
vn 0.000000 0.965926 0.258819
vn 0.000000 0.965926 0.258819
vn 0.000000 0.965926 0.258819
vn 0.000000 0.965926 0.258819
vn 0.000000 0.965926 0.258819
vn 0.000000 0.965926 0.258819
vn 0.000000 0.965926 0.258819
vn 0.000000 0.965926 0.258819
vn 0.000000 0.965926 0.258819
vn 0.000000 0.965926 0.258819
vn 0.000000 0.965926 0.258819
vn 0.000000 0.965926 0.258819
vn 0.000000 0.965926 0.258819
vn 0.000000 0.965926 0.258819
vn 0.000000 0.965926 0.258819
vn 0.000000 0.965926 0.258819
vn 0.000000 0.965926 0.258819
vn 0.000000 0.258819 -0.965926
vn 0.000000 0.258819 -0.965926
vn 0.000000 0.258819 -0.965926
vn 0.000000 0.258819 -0.965926
vn 1.000000 -0.000000 0.000000
vn 1.000000 -0.000000 0.000000
vn 1.000000 -0.000000 0.000000
vn 1.000000 -0.000000 0.000000
vn 1.000000 -0.000000 0.000000
vn 1.000000 -0.000000 0.000000
vn 1.000000 -0.000000 0.000000
vn 1.000000 -0.000000 0.000000
vn 1.000000 -0.000000 0.000000
vn 1.000000 -0.000000 0.000000
vn 1.000000 -0.000000 0.000000
vn 1.000000 -0.000000 0.000000
vn -1.000000 0.000000 -0.000000
vn -1.000000 0.000000 -0.000000
vn -1.000000 0.000000 -0.000000
vn -1.000000 0.000000 -0.000000
vn -1.000000 0.000000 -0.000000
vn -1.000000 0.000000 -0.000000
vn -1.000000 0.000000 -0.000000
vn -1.000000 0.000000 -0.000000
vn -1.000000 0.000000 -0.000000
vn -1.000000 0.000000 -0.000000
vn -0.000000 -0.258819 0.965926
vn -0.000000 -0.258819 0.965926
vn -0.000000 -0.258819 0.965926
vn -0.000000 -0.258819 0.965926
vn -0.000000 -0.258819 0.965926
vn -0.000000 -0.258819 0.965926
vn -0.000000 -0.258819 0.965926
vn -0.000000 -0.258819 0.965926
vn -0.000000 -0.965926 -0.258819
vn -0.000000 -0.965926 -0.258819
vn -0.000000 -0.965926 -0.258819
vn -0.000000 -0.965926 -0.258819
vn 0.000000 0.258819 -0.965926
vn 0.000000 0.258819 -0.965926
vn 0.000000 0.258819 -0.965926
vn 0.000000 0.258819 -0.965926
vn 0.000000 0.965926 0.258819
vn 0.000000 0.965926 0.258819
vn 0.000000 0.965926 0.258819
vn 0.000000 0.965926 0.258819
usemtl Opaque(202,209,238)
f 26/1/1 1/2/2 25/3/3
f 25/3/3 1/2/2 2/4/4
f 25/3/3 2/4/4 24/5/5
f 24/5/5 2/4/4 3/6/6
f 24/5/5 3/6/6 23/7/7
f 23/7/7 3/6/6 4/8/8
f 23/7/7 4/8/8 22/9/9
f 22/9/9 4/8/8 5/10/10
f 22/9/9 5/10/10 21/11/11
f 21/11/11 5/10/10 6/12/12
f 21/11/11 6/12/12 20/13/13
f 20/13/13 6/12/12 7/14/14
f 20/13/13 7/14/14 19/15/15
f 19/15/15 7/14/14 8/16/16
f 19/15/15 8/16/16 18/17/17
f 18/17/17 8/16/16 9/18/18
f 18/17/17 9/18/18 17/19/19
f 17/19/19 9/18/18 10/20/20
f 17/19/19 10/20/20 16/21/21
f 16/21/21 10/20/20 11/22/22
f 16/21/21 11/22/22 15/23/23
f 15/23/23 11/22/22 12/24/24
f 15/23/23 12/24/24 14/25/25
f 14/25/25 12/24/24 13/26/26
f 42/27/27 27/28/28 41/29/29
f 41/29/29 27/28/28 28/30/30
f 41/29/29 28/30/30 40/31/31
f 40/31/31 28/30/30 29/32/32
f 40/31/31 29/32/32 39/33/33
f 39/33/33 29/32/32 30/34/34
f 39/33/33 30/34/34 38/35/35
f 38/35/35 30/34/34 31/36/36
f 38/35/35 31/36/36 37/37/37
f 37/37/37 31/36/36 32/38/38
f 37/37/37 32/38/38 36/39/39
f 36/39/39 32/38/38 33/40/40
f 36/39/39 33/40/40 35/41/41
f 35/41/41 33/40/40 34/42/42
f 68/43/43 43/44/44 67/45/45
f 67/45/45 43/44/44 44/46/46
f 67/45/45 44/46/46 66/47/47
f 66/47/47 44/46/46 45/48/48
f 66/47/47 45/48/48 65/49/49
f 65/49/49 45/48/48 46/50/50
f 65/49/49 46/50/50 64/51/51
f 64/51/51 46/50/50 47/52/52
f 64/51/51 47/52/52 63/53/53
f 63/53/53 47/52/52 48/54/54
f 63/53/53 48/54/54 62/55/55
f 62/55/55 48/54/54 49/56/56
f 62/55/55 49/56/56 61/57/57
f 61/57/57 49/56/56 50/58/58
f 61/57/57 50/58/58 60/59/59
f 60/59/59 50/58/58 51/60/60
f 60/59/59 51/60/60 59/61/61
f 59/61/61 51/60/60 52/62/62
f 59/61/61 52/62/62 58/63/63
f 58/63/63 52/62/62 53/64/64
f 58/63/63 53/64/64 57/65/65
f 57/65/65 53/64/64 54/66/66
f 57/65/65 54/66/66 56/67/67
f 56/67/67 54/66/66 55/68/68
f 84/69/69 69/70/70 83/71/71
f 83/71/71 69/70/70 70/72/72
f 83/71/71 70/72/72 82/73/73
f 82/73/73 70/72/72 71/74/74
f 82/73/73 71/74/74 81/75/75
f 81/75/75 71/74/74 72/76/76
f 81/75/75 72/76/76 80/77/77
f 80/77/77 72/76/76 73/78/78
f 80/77/77 73/78/78 79/79/79
f 79/79/79 73/78/78 74/80/80
f 79/79/79 74/80/80 78/81/81
f 78/81/81 74/80/80 75/82/82
f 78/81/81 75/82/82 77/83/83
f 77/83/83 75/82/82 76/84/84
f 86/85/85 87/86/86 85/87/87
f 85/87/87 87/86/86 88/88/88
f 89/89/89 90/90/90 27/91/91
f 27/91/91 90/90/90 13/92/92
f 27/91/91 13/92/92 12/93/93
f 27/91/91 12/93/93 28/94/94
f 28/94/94 12/93/93 11/95/95
f 28/94/94 11/95/95 10/96/96
f 10/96/96 9/97/97 28/94/94
f 28/94/94 9/97/97 29/98/98
f 29/98/98 9/97/97 8/99/99
f 29/98/98 8/99/99 7/100/100
f 29/98/98 7/100/100 30/101/101
f 30/101/101 7/100/100 6/102/102
f 30/101/101 6/102/102 5/103/103
f 30/101/101 5/103/103 31/104/104
f 31/104/104 5/103/103 4/105/105
f 31/104/104 4/105/105 32/106/106
f 32/106/106 4/105/105 3/107/107
f 32/106/106 3/107/107 33/108/108
f 33/108/108 3/107/107 2/109/109
f 33/108/108 2/109/109 1/110/110
f 33/108/108 1/110/110 34/111/111
f 34/111/111 1/110/110 76/112/112
f 34/111/111 76/112/112 43/113/113
f 43/113/113 76/112/112 75/114/114
f 43/113/113 75/114/114 44/115/115
f 44/115/115 75/114/114 45/116/116
f 45/116/116 75/114/114 74/117/117
f 45/116/116 74/117/117 46/118/118
f 46/118/118 74/117/117 73/119/119
f 46/118/118 73/119/119 47/120/120
f 47/120/120 73/119/119 72/121/121
f 47/120/120 72/121/121 48/122/122
f 48/122/122 72/121/121 49/123/123
f 49/123/123 72/121/121 71/124/124
f 49/123/123 71/124/124 50/125/125
f 50/125/125 71/124/124 51/126/126
f 51/126/126 71/124/124 70/127/127
f 51/126/126 70/127/127 52/128/128
f 52/128/128 70/127/127 53/129/129
f 53/129/129 70/127/127 54/130/130
f 54/130/130 70/127/127 69/131/131
f 54/130/130 69/131/131 55/132/132
f 55/132/132 69/131/131 91/133/133
f 55/132/132 91/133/133 92/134/134
f 94/135/135 95/136/136 93/137/137
f 93/137/137 95/136/136 96/138/138
f 84/139/69 97/140/139 69/141/70
f 69/141/70 97/140/139 91/142/140
f 97/143/141 98/144/142 91/145/143
f 91/145/143 98/144/142 92/146/144
f 56/147/67 55/148/68 98/149/145
f 98/149/145 55/148/68 92/150/146
f 35/151/147 34/152/148 68/153/43
f 68/153/43 34/152/148 43/154/44
f 95/155/149 88/156/150 96/157/151
f 96/157/151 88/156/150 87/158/152
f 77/159/83 76/160/84 26/161/1
f 26/161/1 76/160/84 1/162/2
f 100/163/153 42/164/154 99/165/155
f 99/165/155 42/164/154 14/166/156
f 14/166/156 42/164/154 15/167/157
f 15/167/157 42/164/154 41/168/158
f 15/167/157 41/168/158 16/169/159
f 16/169/159 41/168/158 17/170/160
f 17/170/160 41/168/158 18/171/161
f 18/171/161 41/168/158 40/172/162
f 18/171/161 40/172/162 19/173/163
f 19/173/163 40/172/162 20/174/164
f 20/174/164 40/172/162 39/175/165
f 20/174/164 39/175/165 21/176/166
f 21/176/166 39/175/165 22/177/167
f 22/177/167 39/175/165 38/178/168
f 22/177/167 38/178/168 23/179/169
f 23/179/169 38/178/168 37/180/170
f 23/179/169 37/180/170 24/181/171
f 24/181/171 37/180/170 36/182/172
f 24/181/171 36/182/172 25/183/173
f 25/183/173 36/182/172 26/184/174
f 26/184/174 36/182/172 35/185/175
f 26/184/174 35/185/175 77/186/176
f 77/186/176 35/185/175 68/187/177
f 77/186/176 68/187/177 78/188/178
f 78/188/178 68/187/177 67/189/179
f 78/188/178 67/189/179 66/190/180
f 78/188/178 66/190/180 79/191/181
f 79/191/181 66/190/180 65/192/182
f 79/191/181 65/192/182 80/193/183
f 80/193/183 65/192/182 64/194/184
f 80/193/183 64/194/184 81/195/185
f 81/195/185 64/194/184 63/196/186
f 81/195/185 63/196/186 62/197/187
f 81/195/185 62/197/187 82/198/188
f 82/198/188 62/197/187 61/199/189
f 82/198/188 61/199/189 60/200/190
f 82/198/188 60/200/190 83/201/191
f 83/201/191 60/200/190 59/202/192
f 83/201/191 59/202/192 58/203/193
f 58/203/193 57/204/194 83/201/191
f 83/201/191 57/204/194 84/205/195
f 84/205/195 57/204/194 56/206/196
f 84/205/195 56/206/196 97/207/197
f 97/207/197 56/206/196 98/208/198
f 100/209/199 99/210/200 102/211/201
f 102/211/201 99/210/200 101/212/202
f 103/213/203 104/214/204 86/215/205
f 86/215/205 104/214/204 89/216/206
f 86/215/205 89/216/206 93/217/207
f 93/217/207 89/216/206 100/218/208
f 93/217/207 100/218/208 105/219/209
f 105/219/209 100/218/208 102/220/210
f 89/216/206 27/221/211 100/218/208
f 100/218/208 27/221/211 42/222/212
f 93/217/207 96/223/213 86/215/205
f 86/215/205 96/223/213 87/224/214
f 106/225/215 101/226/216 94/227/217
f 94/227/217 101/226/216 99/228/218
f 94/227/217 99/228/218 85/229/219
f 85/229/219 99/228/218 90/230/220
f 85/229/219 90/230/220 108/231/221
f 108/231/221 90/230/220 107/232/222
f 99/228/218 14/233/25 90/230/220
f 90/230/220 14/233/25 13/234/26
f 85/229/219 88/235/223 94/227/217
f 94/227/217 88/235/223 95/236/224
f 93/237/225 105/238/226 94/239/227
f 94/239/227 105/238/226 106/240/228
f 85/241/229 108/242/230 86/243/231
f 86/243/231 108/242/230 103/244/232
f 108/245/233 107/246/234 103/247/235
f 103/247/235 107/246/234 104/248/236
f 90/249/237 89/250/238 107/251/239
f 107/251/239 89/250/238 104/252/240
f 101/253/241 106/254/242 102/255/243
f 102/255/243 106/254/242 105/256/244
# 108 vertices
# 256 texture params
# 244 normals
# 212 facets

# 1 groups
