# WaveFront *.obj file (generated by Autodesk ATF)

mtllib body17_visual.mtl

g Body17

v -27.114312 0.970002 -1.474884
v -27.114312 0.951756 -1.406787
v -27.114312 0.901528 -1.420245
v -27.114312 0.919774 -1.488343
v -27.546812 0.970002 -1.474884
v -27.546812 0.951756 -1.406787
v -27.546812 0.901528 -1.420245
v -27.546812 0.919774 -1.488343
v -27.761812 0.320900 -1.648811
v -27.861812 0.320900 -1.648811
v -27.861812 0.302653 -1.580713
v -27.761812 0.302653 -1.580713
v -27.561652 0.968589 -1.475263
v -27.575920 0.964405 -1.476384
v -27.589068 0.957610 -1.478205
v -27.600589 0.948465 -1.480655
v -27.610040 0.937324 -1.483640
v -27.617057 0.924615 -1.487046
v -27.621369 0.910827 -1.490740
v -27.621369 0.892581 -1.422643
v -27.617057 0.906369 -1.418948
v -27.610040 0.919078 -1.415543
v -27.600589 0.930219 -1.412557
v -27.589068 0.939363 -1.410107
v -27.575920 0.946158 -1.408287
v -27.561652 0.950343 -1.407165
v -27.738268 0.321340 -1.575706
v -27.738268 0.339587 -1.643804
v -27.741216 0.332182 -1.645788
v -27.746576 0.326171 -1.647398
v -27.753720 0.322258 -1.648447
v -27.753720 0.304011 -1.580349
v -27.746576 0.307924 -1.579301
v -27.741216 0.313936 -1.577690
v -27.861812 0.252425 -1.594172
v -27.861812 0.270672 -1.662269
v -27.761812 0.252425 -1.594172
v -27.761812 0.270672 -1.662269
v -27.570357 0.901087 -1.493350
v -27.687255 0.329847 -1.646413
v -27.691567 0.316059 -1.650108
v -27.698584 0.303350 -1.653513
v -27.708035 0.292209 -1.656499
v -27.719556 0.283065 -1.658949
v -27.732704 0.276270 -1.660770
v -27.746972 0.272085 -1.661891
v -27.554904 0.918417 -1.488707
v -27.562049 0.914503 -1.489755
v -27.567409 0.908492 -1.491366
v -27.554904 0.900170 -1.420609
v -27.562049 0.896257 -1.421658
v -27.567409 0.890245 -1.423268
v -27.570357 0.882841 -1.425252
v -27.746972 0.253838 -1.593793
v -27.732704 0.258023 -1.592672
v -27.719556 0.264818 -1.590851
v -27.708035 0.273962 -1.588401
v -27.698584 0.285103 -1.585416
v -27.691567 0.297812 -1.582010
v -27.687255 0.311600 -1.578316
vt -0.157000 1.101750 0.000000
vt -0.105000 1.101750 0.000000
vt -0.157000 1.172250 0.000000
vt -0.105000 1.172250 0.000000
vt 0.432500 0.070500 0.000000
vt -0.000000 0.070500 0.000000
vt 0.432500 -0.000000 0.000000
vt 0.000000 0.000000 0.000000
vt 0.000000 0.000000 0.000000
vt -0.070500 0.000000 0.000000
vt -0.000000 -0.432500 0.000000
vt -0.070500 -0.432500 0.000000
vt 0.100000 0.070500 0.000000
vt -0.000000 0.070500 0.000000
vt 0.100000 -0.000000 0.000000
vt 0.000000 0.000000 0.000000
vt -0.091750 -0.238761 0.000000
vt -0.162250 -0.238761 0.000000
vt -0.091750 -0.253697 0.000000
vt -0.162250 -0.253697 0.000000
vt -0.091750 -0.268632 0.000000
vt -0.162250 -0.268632 0.000000
vt -0.091750 -0.283568 0.000000
vt -0.162250 -0.283568 0.000000
vt -0.091750 -0.298503 0.000000
vt -0.162250 -0.298503 0.000000
vt -0.091750 -0.313439 0.000000
vt -0.162250 -0.313439 0.000000
vt -0.091750 -0.328375 0.000000
vt -0.162250 -0.328375 0.000000
vt -0.091750 -0.343310 0.000000
vt -0.162250 -0.343310 0.000000
vt -0.091750 -0.042383 0.000000
vt -0.162250 -0.042383 0.000000
vt -0.091750 -0.050637 0.000000
vt -0.162250 -0.050637 0.000000
vt -0.091750 -0.058890 0.000000
vt -0.162250 -0.058890 0.000000
vt -0.091750 -0.067144 0.000000
vt -0.162250 -0.067144 0.000000
vt -0.091750 -0.075398 0.000000
vt -0.162250 -0.075398 0.000000
vt 0.105000 1.101750 0.000000
vt 0.157000 1.101750 0.000000
vt 0.105000 1.172250 0.000000
vt 0.157000 1.172250 0.000000
vt 0.070500 0.000000 0.000000
vt 0.000000 -0.000000 0.000000
vt 0.070500 -0.602834 0.000000
vt -0.000000 -0.602834 0.000000
vt 0.000000 0.000000 0.000000
vt -0.070500 0.000000 0.000000
vt 0.000000 -0.100000 0.000000
vt -0.070500 -0.100000 0.000000
vt 0.000000 0.000000 0.000000
vt 0.051013 0.010084 0.000000
vt -0.116898 0.591391 0.000000
vt -0.065885 0.601475 0.000000
vt -0.070198 0.615749 0.000000
vt 0.004313 -0.014274 0.000000
vt 0.053961 0.002418 0.000000
vt 0.011330 -0.027432 0.000000
vt 0.059321 -0.003806 0.000000
vt 0.020780 -0.038966 0.000000
vt 0.032302 -0.048433 0.000000
vt 0.066465 -0.007857 0.000000
vt 0.045449 -0.055467 0.000000
vt 0.059718 -0.059800 0.000000
vt 0.074557 -0.009263 0.000000
vt 0.074557 -0.061263 0.000000
vt 0.174557 -0.061263 0.000000
vt 0.174557 -0.009263 0.000000
vt -0.119846 0.599057 0.000000
vt -0.077215 0.628907 0.000000
vt -0.125206 0.605281 0.000000
vt -0.086666 0.640441 0.000000
vt -0.098187 0.649907 0.000000
vt -0.132350 0.609332 0.000000
vt -0.111335 0.656942 0.000000
vt -0.125603 0.661275 0.000000
vt -0.140443 0.610737 0.000000
vt -0.140443 0.662737 0.000000
vt -0.572943 0.610737 0.000000
vt -0.572943 0.662737 0.000000
vt 0.162250 -0.075398 0.000000
vt 0.091750 -0.075398 0.000000
vt 0.162250 -0.083652 0.000000
vt 0.091750 -0.083652 0.000000
vt 0.162250 -0.091906 0.000000
vt 0.091750 -0.091906 0.000000
vt 0.162250 -0.100160 0.000000
vt 0.091750 -0.100160 0.000000
vt 0.162250 -0.108414 0.000000
vt 0.091750 -0.108414 0.000000
vt 0.615749 -0.070198 0.000000
vt 0.601475 -0.065885 0.000000
vt 0.591391 -0.116898 0.000000
vt 0.010084 0.051013 0.000000
vt 0.000000 0.000000 0.000000
vt -0.014274 0.004313 0.000000
vt 0.002418 0.053961 0.000000
vt -0.027432 0.011330 0.000000
vt -0.003806 0.059321 0.000000
vt -0.038966 0.020780 0.000000
vt -0.048433 0.032302 0.000000
vt -0.007857 0.066465 0.000000
vt -0.055467 0.045449 0.000000
vt -0.059800 0.059718 0.000000
vt -0.009263 0.074557 0.000000
vt -0.061263 0.074557 0.000000
vt -0.061263 0.174557 0.000000
vt -0.009263 0.174557 0.000000
vt 0.599057 -0.119846 0.000000
vt 0.628907 -0.077215 0.000000
vt 0.605281 -0.125206 0.000000
vt 0.640441 -0.086666 0.000000
vt 0.649907 -0.098187 0.000000
vt 0.609332 -0.132350 0.000000
vt 0.656942 -0.111335 0.000000
vt 0.661275 -0.125603 0.000000
vt 0.610737 -0.140443 0.000000
vt 0.662737 -0.140443 0.000000
vt 0.662737 -0.572943 0.000000
vt 0.610737 -0.572943 0.000000
vt 0.162250 -0.134212 0.000000
vt 0.091750 -0.134212 0.000000
vt 0.162250 -0.149148 0.000000
vt 0.091750 -0.149148 0.000000
vt 0.162250 -0.164083 0.000000
vt 0.091750 -0.164083 0.000000
vt 0.162250 -0.179019 0.000000
vt 0.091750 -0.179019 0.000000
vt 0.162250 -0.193954 0.000000
vt 0.091750 -0.193954 0.000000
vt 0.162250 -0.208890 0.000000
vt 0.091750 -0.208890 0.000000
vt 0.162250 -0.223825 0.000000
vt 0.091750 -0.223825 0.000000
vt 0.162250 -0.238761 0.000000
vt 0.091750 -0.238761 0.000000
vt -0.602834 -0.000000 0.000000
vt -0.000000 0.000000 0.000000
vt -0.602834 0.070500 0.000000
vt -0.000000 0.070500 0.000000
vn 1.000000 -0.000000 0.000000
vn 1.000000 -0.000000 0.000000
vn 1.000000 -0.000000 0.000000
vn 1.000000 -0.000000 0.000000
vn 0.000000 0.965926 0.258819
vn 0.000000 0.965926 0.258819
vn 0.000000 0.965926 0.258819
vn 0.000000 0.965926 0.258819
vn -0.000000 -0.965926 -0.258819
vn -0.000000 -0.965926 -0.258819
vn -0.000000 -0.965926 -0.258819
vn -0.000000 -0.965926 -0.258819
vn 0.000000 0.965926 0.258819
vn 0.000000 0.965926 0.258819
vn 0.000000 0.965926 0.258819
vn 0.000000 0.965926 0.258819
vn -0.195258 0.947334 0.253837
vn -0.195258 0.947334 0.253837
vn -0.383000 0.892272 0.239084
vn -0.383000 0.892272 0.239084
vn -0.555997 0.802862 0.215126
vn -0.555997 0.802862 0.215126
vn -0.707591 0.682545 0.182887
vn -0.707591 0.682545 0.182887
vn -0.831945 0.535952 0.143608
vn -0.831945 0.535952 0.143608
vn -0.924272 0.368727 0.098800
vn -0.924272 0.368727 0.098800
vn -0.981018 0.187307 0.050189
vn -0.981018 0.187307 0.050189
vn -0.981018 0.187307 0.050189
vn -0.981018 0.187307 0.050189
vn -0.858191 0.495840 0.132860
vn -0.858191 0.495840 0.132860
vn -0.634857 0.746303 0.199971
vn -0.634857 0.746303 0.199971
vn -0.337172 0.909364 0.243663
vn -0.337172 0.909364 0.243663
vn -1.000000 0.000000 -0.000000
vn -1.000000 0.000000 -0.000000
vn -1.000000 0.000000 -0.000000
vn -1.000000 0.000000 -0.000000
vn -0.000000 -0.965926 -0.258819
vn -0.000000 -0.965926 -0.258819
vn -0.000000 -0.965926 -0.258819
vn -0.000000 -0.965926 -0.258819
vn 0.000000 0.258819 -0.965926
vn 0.000000 0.258819 -0.965926
vn 0.000000 0.258819 -0.965926
vn 0.000000 0.258819 -0.965926
vn 0.000000 0.258819 -0.965926
vn 0.000000 0.258819 -0.965926
vn 0.000000 0.258819 -0.965926
vn 0.000000 0.258819 -0.965926
vn 0.000000 0.258819 -0.965926
vn 0.000000 0.258819 -0.965926
vn 0.000000 0.258819 -0.965926
vn 0.000000 0.258819 -0.965926
vn 0.000000 0.258819 -0.965926
vn 0.000000 0.258819 -0.965926
vn 0.000000 0.258819 -0.965926
vn 0.000000 0.258819 -0.965926
vn 0.000000 0.258819 -0.965926
vn 0.000000 0.258819 -0.965926
vn 0.000000 0.258819 -0.965926
vn 0.000000 0.258819 -0.965926
vn 0.000000 0.258819 -0.965926
vn 0.000000 0.258819 -0.965926
vn 0.000000 0.258819 -0.965926
vn 0.000000 0.258819 -0.965926
vn 0.000000 0.258819 -0.965926
vn 0.000000 0.258819 -0.965926
vn 0.000000 0.258819 -0.965926
vn 0.000000 0.258819 -0.965926
vn 0.000000 0.258819 -0.965926
vn 0.000000 0.258819 -0.965926
vn 0.337172 -0.909364 -0.243663
vn 0.337172 -0.909364 -0.243663
vn 0.634857 -0.746303 -0.199971
vn 0.634857 -0.746303 -0.199971
vn 0.858191 -0.495840 -0.132860
vn 0.858191 -0.495840 -0.132860
vn 0.981018 -0.187307 -0.050189
vn 0.981018 -0.187307 -0.050189
vn -0.000000 -0.258819 0.965926
vn -0.000000 -0.258819 0.965926
vn -0.000000 -0.258819 0.965926
vn -0.000000 -0.258819 0.965926
vn -0.000000 -0.258819 0.965926
vn -0.000000 -0.258819 0.965926
vn -0.000000 -0.258819 0.965926
vn -0.000000 -0.258819 0.965926
vn -0.000000 -0.258819 0.965926
vn -0.000000 -0.258819 0.965926
vn -0.000000 -0.258819 0.965926
vn -0.000000 -0.258819 0.965926
vn -0.000000 -0.258819 0.965926
vn -0.000000 -0.258819 0.965926
vn -0.000000 -0.258819 0.965926
vn -0.000000 -0.258819 0.965926
vn -0.000000 -0.258819 0.965926
vn -0.000000 -0.258819 0.965926
vn -0.000000 -0.258819 0.965926
vn -0.000000 -0.258819 0.965926
vn -0.000000 -0.258819 0.965926
vn -0.000000 -0.258819 0.965926
vn -0.000000 -0.258819 0.965926
vn -0.000000 -0.258819 0.965926
vn -0.000000 -0.258819 0.965926
vn -0.000000 -0.258819 0.965926
vn -0.000000 -0.258819 0.965926
vn -0.000000 -0.258819 0.965926
vn -0.000000 -0.258819 0.965926
vn -0.000000 -0.258819 0.965926
vn 0.981018 -0.187307 -0.050189
vn 0.981018 -0.187307 -0.050189
vn 0.924272 -0.368727 -0.098800
vn 0.924272 -0.368727 -0.098800
vn 0.831945 -0.535952 -0.143608
vn 0.831945 -0.535952 -0.143608
vn 0.707591 -0.682545 -0.182887
vn 0.707591 -0.682545 -0.182887
vn 0.555997 -0.802862 -0.215126
vn 0.555997 -0.802862 -0.215126
vn 0.383000 -0.892272 -0.239084
vn 0.383000 -0.892272 -0.239084
vn 0.195258 -0.947334 -0.253837
vn 0.195258 -0.947334 -0.253837
usemtl Opaque(202,209,238)
f 2/1/1 3/2/2 1/3/3
f 1/3/3 3/2/2 4/4/4
f 1/5/5 5/6/6 2/7/7
f 2/7/7 5/6/6 6/8/8
f 7/9/9 8/10/10 3/11/11
f 3/11/11 8/10/10 4/12/12
f 9/13/13 10/14/14 12/15/15
f 12/15/15 10/14/14 11/16/16
f 6/17/8 5/18/6 26/19/17
f 26/19/17 5/18/6 13/20/18
f 26/19/17 13/20/18 25/21/19
f 25/21/19 13/20/18 14/22/20
f 25/21/19 14/22/20 24/23/21
f 24/23/21 14/22/20 15/24/22
f 24/23/21 15/24/22 23/25/23
f 23/25/23 15/24/22 16/26/24
f 23/25/23 16/26/24 22/27/25
f 22/27/25 16/26/24 17/28/26
f 22/27/25 17/28/26 21/29/27
f 21/29/27 17/28/26 18/30/28
f 21/29/27 18/30/28 20/31/29
f 20/31/29 18/30/28 19/32/30
f 27/33/31 28/34/32 34/35/33
f 34/35/33 28/34/32 29/36/34
f 34/35/33 29/36/34 33/37/35
f 33/37/35 29/36/34 30/38/36
f 33/37/35 30/38/36 32/39/37
f 32/39/37 30/38/36 31/40/38
f 32/39/37 31/40/38 12/41/15
f 12/41/15 31/40/38 9/42/13
f 35/43/39 11/44/40 36/45/41
f 36/45/41 11/44/40 10/46/42
f 28/47/32 27/48/31 19/49/30
f 19/49/30 27/48/31 20/50/29
f 35/51/43 36/52/44 37/53/45
f 37/53/45 36/52/44 38/54/46
f 40/55/47 28/56/48 39/57/49
f 39/57/49 28/56/48 19/58/50
f 39/57/49 19/58/50 18/59/51
f 40/55/47 41/60/52 28/56/48
f 28/56/48 41/60/52 29/61/53
f 29/61/53 41/60/52 42/62/54
f 29/61/53 42/62/54 30/63/55
f 30/63/55 42/62/54 43/64/56
f 30/63/55 43/64/56 44/65/57
f 30/63/55 44/65/57 31/66/58
f 31/66/58 44/65/57 45/67/59
f 31/66/58 45/67/59 46/68/60
f 31/66/58 46/68/60 9/69/61
f 9/69/61 46/68/60 38/70/62
f 9/69/61 38/70/62 36/71/63
f 36/71/63 10/72/64 9/69/61
f 39/57/49 18/59/51 49/73/65
f 49/73/65 18/59/51 17/74/66
f 49/73/65 17/74/66 48/75/67
f 48/75/67 17/74/66 16/76/68
f 48/75/67 16/76/68 15/77/69
f 48/75/67 15/77/69 47/78/70
f 47/78/70 15/77/69 14/79/71
f 47/78/70 14/79/71 13/80/72
f 47/78/70 13/80/72 8/81/73
f 8/81/73 13/80/72 5/82/74
f 8/81/73 5/82/74 4/83/75
f 4/83/75 5/82/74 1/84/76
f 8/85/10 7/86/9 47/87/77
f 47/87/77 7/86/9 50/88/78
f 47/87/77 50/88/78 48/89/79
f 48/89/79 50/88/78 51/90/80
f 48/89/79 51/90/80 49/91/81
f 49/91/81 51/90/80 52/92/82
f 49/91/81 52/92/82 39/93/83
f 39/93/83 52/92/82 53/94/84
f 21/95/85 20/96/86 53/97/87
f 53/97/87 20/96/86 27/98/88
f 53/97/87 27/98/88 60/99/89
f 60/99/89 27/98/88 59/100/90
f 59/100/90 27/98/88 34/101/91
f 59/100/90 34/101/91 58/102/92
f 58/102/92 34/101/91 33/103/93
f 58/102/92 33/103/93 57/104/94
f 57/104/94 33/103/93 56/105/95
f 56/105/95 33/103/93 32/106/96
f 56/105/95 32/106/96 55/107/97
f 55/107/97 32/106/96 54/108/98
f 54/108/98 32/106/96 12/109/99
f 54/108/98 12/109/99 37/110/100
f 37/110/100 12/109/99 35/111/101
f 35/111/101 12/109/99 11/112/102
f 53/97/87 52/113/103 21/95/85
f 21/95/85 52/113/103 22/114/104
f 22/114/104 52/113/103 51/115/105
f 22/114/104 51/115/105 23/116/106
f 23/116/106 51/115/105 24/117/107
f 24/117/107 51/115/105 50/118/108
f 24/117/107 50/118/108 25/119/109
f 25/119/109 50/118/108 26/120/110
f 26/120/110 50/118/108 7/121/111
f 26/120/110 7/121/111 6/122/112
f 6/122/112 7/121/111 2/123/113
f 2/123/113 7/121/111 3/124/114
f 40/125/115 60/126/116 41/127/117
f 41/127/117 60/126/116 59/128/118
f 41/127/117 59/128/118 42/129/119
f 42/129/119 59/128/118 58/130/120
f 42/129/119 58/130/120 43/131/121
f 43/131/121 58/130/120 57/132/122
f 43/131/121 57/132/122 44/133/123
f 44/133/123 57/132/122 56/134/124
f 44/133/123 56/134/124 45/135/125
f 45/135/125 56/134/124 55/136/126
f 45/135/125 55/136/126 46/137/127
f 46/137/127 55/136/126 54/138/128
f 46/137/127 54/138/128 38/139/46
f 38/139/46 54/138/128 37/140/45
f 53/141/84 60/142/116 39/143/83
f 39/143/83 60/142/116 40/144/115
# 60 vertices
# 144 texture params
# 128 normals
# 116 facets

# 1 groups
