# WaveFront *.obj file (generated by Autodesk ATF)

mtllib body190_visual.mtl

g Body190

v -27.480000 -0.316585 0.781736
v -27.480000 -0.244140 0.801148
v -28.080000 -0.244140 0.801148
v -28.080000 -0.316585 0.781736
v -27.480000 -0.297173 0.709292
v -28.080000 -0.297173 0.709292
v -27.480000 -0.224729 0.728703
v -28.080000 -0.224729 0.728703
vt 0.000000 0.000000 0.000000
vt 0.075000 -0.000000 0.000000
vt 0.000000 0.600000 0.000000
vt 0.075000 0.600000 0.000000
vt 0.000000 0.000000 0.000000
vt 0.075000 0.000000 0.000000
vt -0.000000 0.600000 0.000000
vt 0.075000 0.600000 0.000000
vt 0.000000 0.000000 0.000000
vt 0.075000 0.000000 0.000000
vt -0.000000 0.600000 0.000000
vt 0.075000 0.600000 0.000000
vt 0.000000 0.000000 0.000000
vt 0.075000 -0.000000 0.000000
vt 0.000000 0.600000 0.000000
vt 0.075000 0.600000 0.000000
vt -0.037500 -0.037500 0.000000
vt 0.037500 -0.037500 0.000000
vt -0.037500 0.037500 0.000000
vt 0.037500 0.037500 0.000000
vt -0.037500 -0.037500 0.000000
vt 0.037500 -0.037500 0.000000
vt -0.037500 0.037500 0.000000
vt 0.037500 0.037500 0.000000
vn 0.000000 -0.258819 0.965926
vn 0.000000 -0.258819 0.965926
vn 0.000000 -0.258819 0.965926
vn 0.000000 -0.258819 0.965926
vn 0.000000 -0.965926 -0.258819
vn 0.000000 -0.965926 -0.258819
vn 0.000000 -0.965926 -0.258819
vn 0.000000 -0.965926 -0.258819
vn -0.000000 0.258819 -0.965926
vn -0.000000 0.258819 -0.965926
vn -0.000000 0.258819 -0.965926
vn -0.000000 0.258819 -0.965926
vn -0.000000 0.965926 0.258819
vn -0.000000 0.965926 0.258819
vn -0.000000 0.965926 0.258819
vn -0.000000 0.965926 0.258819
vn -1.000000 -0.000000 0.000000
vn -1.000000 -0.000000 0.000000
vn -1.000000 -0.000000 0.000000
vn -1.000000 -0.000000 0.000000
vn 1.000000 0.000000 -0.000000
vn 1.000000 0.000000 -0.000000
vn 1.000000 0.000000 -0.000000
vn 1.000000 0.000000 -0.000000
usemtl Opaque(196,197,196)
f 1/1/1 2/2/2 4/3/3
f 4/3/3 2/2/2 3/4/4
f 5/5/5 1/6/6 6/7/7
f 6/7/7 1/6/6 4/8/8
f 7/9/9 5/10/10 8/11/11
f 8/11/11 5/10/10 6/12/12
f 2/13/13 7/14/14 3/15/15
f 3/15/15 7/14/14 8/16/16
f 8/17/17 6/18/18 3/19/19
f 3/19/19 6/18/18 4/20/20
f 2/21/21 1/22/22 7/23/23
f 7/23/23 1/22/22 5/24/24
# 8 vertices
# 24 texture params
# 24 normals
# 12 facets

# 1 groups
