# WaveFront *.obj file (generated by Autodesk ATF)

mtllib body180_visual.mtl

g Body180

v -27.886065 0.366897 4.385558
v -27.886065 0.352762 4.383140
v -27.886065 0.338423 4.383361
v -27.886065 0.324369 4.386213
v -27.886065 0.311078 4.391599
v -27.886065 0.299004 4.399335
v -27.886065 0.288556 4.409158
v -27.886065 0.280091 4.420734
v -27.886065 0.273898 4.433668
v -27.886065 0.270186 4.447519
v -27.886065 0.269083 4.461817
v -27.886065 0.270626 4.476075
v -27.886065 0.274762 4.489805
v -27.886065 0.281351 4.502543
v -27.886065 0.290168 4.513852
v -27.886065 0.300914 4.523349
v -27.886065 0.313221 4.530709
v -27.886065 0.326671 4.535683
v -27.886065 0.340806 4.538101
v -27.886065 0.355145 4.537880
v -27.886065 0.369199 4.535028
v -27.886065 0.382490 4.529643
v -27.886065 0.394565 4.521906
v -27.886065 0.405012 4.512083
v -27.886065 0.413477 4.500508
v -27.886065 0.419671 4.487574
v -27.886065 0.423382 4.473722
v -27.886065 0.424485 4.459424
v -27.886065 0.422942 4.445167
v -27.886065 0.418806 4.431436
v -27.886065 0.412217 4.418699
v -27.886065 0.403400 4.407389
v -27.886065 0.392655 4.397893
v -27.886065 0.380347 4.390532
v -27.732140 0.293410 4.404139
v -27.732140 0.304727 4.395274
v -27.732140 0.317484 4.388646
v -27.732140 0.331243 4.384480
v -27.732140 0.345534 4.382920
v -27.732140 0.359868 4.384020
v -27.732140 0.373754 4.387740
v -27.732140 0.386717 4.393955
v -27.732140 0.398313 4.402452
v -27.732140 0.408146 4.412939
v -27.732140 0.415879 4.425057
v -27.732140 0.421248 4.438393
v -27.642043 0.421248 4.438393
v -27.642043 0.424057 4.452390
v -27.642043 0.424259 4.466664
v -27.642043 0.421847 4.480734
v -27.642043 0.416901 4.494125
v -27.642043 0.409589 4.506386
v -27.642043 0.400158 4.517102
v -27.732140 0.400158 4.517102
v -27.732140 0.388841 4.525967
v -27.732140 0.376084 4.532596
v -27.732140 0.362325 4.536761
v -27.732140 0.348034 4.538321
v -27.732140 0.333700 4.537222
v -27.732140 0.319814 4.533501
v -27.732140 0.306851 4.527286
v -27.732140 0.295255 4.518790
v -27.732140 0.285422 4.508303
v -27.732140 0.277689 4.496184
v -27.732140 0.272320 4.482848
v -27.642043 0.272320 4.482848
v -27.642043 0.269511 4.468852
v -27.642043 0.269309 4.454578
v -27.642043 0.271722 4.440508
v -27.642043 0.276667 4.427116
v -27.642043 0.283979 4.414856
v -27.642043 0.293410 4.404139
v -27.732140 0.480281 4.218077
v -27.732140 0.352444 4.183823
v -27.363685 0.520231 4.228782
v -27.886065 0.520231 4.228782
v -27.886065 0.381074 4.748122
v -27.363685 0.381074 4.748122
v -27.886065 0.312494 4.173119
v -27.886065 0.173337 4.692460
v -27.363685 0.173337 4.692460
v -27.732140 0.213287 4.703164
v -27.732140 0.341125 4.737418
v -27.459197 0.341125 4.737418
v -27.459197 0.213287 4.703164
v -27.363685 0.312494 4.173119
v -27.459197 0.352444 4.183823
v -27.459197 0.480281 4.218077
vt -0.509467 -0.229774 0.000000
vt -0.663391 -0.236936 0.000000
vt -0.509467 -0.244135 0.000000
vt -0.509467 0.244135 0.000000
vt -0.663391 0.251333 0.000000
vt -0.663391 0.236936 0.000000
vt -0.509467 0.229774 0.000000
vt -0.663391 0.222540 0.000000
vt -0.509467 0.215413 0.000000
vt -0.663391 0.208143 0.000000
vt -0.509467 0.201052 0.000000
vt -0.663391 0.193747 0.000000
vt -0.509467 0.186691 0.000000
vt -0.663391 0.179350 0.000000
vt -0.509467 0.172330 0.000000
vt -0.663391 0.164954 0.000000
vt -0.509467 0.157969 0.000000
vt -0.753488 0.164954 0.000000
vt -0.753488 0.150658 0.000000
vt -0.663391 -0.222540 0.000000
vt -0.509467 -0.215413 0.000000
vt -0.663391 -0.208143 0.000000
vt -0.509467 -0.201052 0.000000
vt -0.663391 -0.193747 0.000000
vt -0.509467 -0.186691 0.000000
vt -0.663391 -0.179350 0.000000
vt -0.509467 -0.172330 0.000000
vt -0.663391 -0.164954 0.000000
vt -0.509467 -0.157969 0.000000
vt -0.753488 -0.150658 0.000000
vt -0.509467 -0.143609 0.000000
vt -0.753488 -0.136363 0.000000
vt -0.509467 -0.129248 0.000000
vt -0.753488 -0.122067 0.000000
vt -0.509467 -0.114887 0.000000
vt -0.753488 -0.107772 0.000000
vt -0.509467 -0.100526 0.000000
vt -0.753488 -0.093476 0.000000
vt -0.509467 -0.086165 0.000000
vt -0.753488 -0.079181 0.000000
vt -0.663391 -0.079181 0.000000
vt -0.509467 -0.071804 0.000000
vt -0.663391 -0.064784 0.000000
vt -0.509467 -0.057443 0.000000
vt -0.663391 -0.050388 0.000000
vt -0.509467 -0.043083 0.000000
vt -0.663391 -0.035991 0.000000
vt -0.509467 -0.028722 0.000000
vt -0.663391 -0.021595 0.000000
vt -0.509467 -0.014361 0.000000
vt -0.663391 -0.007198 0.000000
vt -0.509467 -0.000000 0.000000
vt -0.663391 0.007198 0.000000
vt -0.509467 0.014361 0.000000
vt -0.663391 0.021595 0.000000
vt -0.509467 0.028722 0.000000
vt -0.663391 0.035991 0.000000
vt -0.509467 0.043083 0.000000
vt -0.663391 0.050388 0.000000
vt -0.509467 0.057443 0.000000
vt -0.663391 0.064784 0.000000
vt -0.509467 0.071804 0.000000
vt -0.663391 0.079181 0.000000
vt -0.509467 0.086165 0.000000
vt -0.753488 0.093476 0.000000
vt -0.509467 0.100526 0.000000
vt -0.753488 0.107772 0.000000
vt -0.509467 0.114887 0.000000
vt -0.753488 0.122067 0.000000
vt -0.509467 0.129248 0.000000
vt -0.753488 0.136363 0.000000
vt -0.509467 0.143609 0.000000
vt -0.753488 0.079181 0.000000
vt -0.753488 -0.164954 0.000000
vt 0.309573 0.000000 0.000000
vt 0.321065 -0.008637 0.000000
vt 0.537661 -0.000000 0.000000
vt 0.330770 -0.019243 0.000000
vt 0.338354 -0.031455 0.000000
vt 0.343560 -0.044856 0.000000
vt 0.346208 -0.058986 0.000000
vt 0.537661 -0.132347 0.000000
vt 0.346208 -0.073362 0.000000
vt 0.343560 -0.087492 0.000000
vt 0.338354 -0.100892 0.000000
vt 0.330770 -0.113104 0.000000
vt 0.321065 -0.123710 0.000000
vt 0.309573 -0.132347 0.000000
vt 0.257250 0.598942 0.000000
vt -0.280411 0.598942 0.000000
vt 0.257250 0.076563 0.000000
vt -0.280411 0.076563 0.000000
vt -0.000000 0.749640 0.000000
vt -0.276001 0.779793 0.000000
vt -0.537661 0.749640 0.000000
vt -0.290097 0.782428 0.000000
vt -0.303469 0.787608 0.000000
vt -0.000000 0.964704 0.000000
vt -0.191120 0.857172 0.000000
vt -0.192443 0.842893 0.000000
vt -0.196368 0.829100 0.000000
vt -0.537661 0.964704 0.000000
vt -0.261660 0.934551 0.000000
vt -0.247564 0.931916 0.000000
vt -0.234192 0.926735 0.000000
vt -0.346541 0.857172 0.000000
vt -0.345218 0.871451 0.000000
vt -0.341293 0.885244 0.000000
vt -0.334901 0.898081 0.000000
vt -0.326259 0.909525 0.000000
vt -0.315662 0.919186 0.000000
vt -0.303469 0.926735 0.000000
vt -0.290097 0.931916 0.000000
vt -0.276001 0.934551 0.000000
vt -0.222000 0.919186 0.000000
vt -0.211402 0.909525 0.000000
vt -0.202760 0.898081 0.000000
vt -0.196368 0.885244 0.000000
vt -0.192443 0.871451 0.000000
vt -0.202760 0.816263 0.000000
vt -0.211402 0.804819 0.000000
vt -0.222000 0.795158 0.000000
vt -0.234192 0.787608 0.000000
vt -0.247564 0.782428 0.000000
vt -0.261660 0.779793 0.000000
vt -0.315662 0.795158 0.000000
vt -0.326259 0.804819 0.000000
vt -0.334901 0.816263 0.000000
vt -0.341293 0.829100 0.000000
vt -0.345218 0.842893 0.000000
vt 0.964704 -0.522379 0.000000
vt 0.964704 -0.000000 0.000000
vt 0.923346 -0.153924 0.000000
vt 0.749640 -0.000000 0.000000
vt 0.790998 -0.153924 0.000000
vt 0.749640 -0.522379 0.000000
vt 0.790998 -0.426868 0.000000
vt 0.923346 -0.426868 0.000000
vt 0.000000 0.749640 0.000000
vt 0.537661 0.749640 0.000000
vt 0.000000 0.964704 0.000000
vt 0.537661 0.964704 0.000000
vt -0.749640 -0.522379 0.000000
vt -0.923346 -0.426868 0.000000
vt -0.964704 -0.522379 0.000000
vt -0.923346 -0.153924 0.000000
vt -0.964704 -0.000000 0.000000
vt -0.790998 -0.153924 0.000000
vt -0.749640 -0.000000 0.000000
vt -0.790998 -0.426868 0.000000
vt -0.257250 0.076563 0.000000
vt 0.280411 0.076563 0.000000
vt -0.257250 0.598942 0.000000
vt 0.280411 0.598942 0.000000
vt 0.228088 -0.132347 0.000000
vt 0.216596 -0.123710 0.000000
vt -0.000000 -0.132347 0.000000
vt 0.206892 -0.113104 0.000000
vt 0.199307 -0.100892 0.000000
vt 0.194101 -0.087492 0.000000
vt 0.191453 -0.073362 0.000000
vt 0.191453 -0.058986 0.000000
vt -0.000000 0.000000 0.000000
vt 0.194101 -0.044856 0.000000
vt 0.199307 -0.031455 0.000000
vt 0.206892 -0.019243 0.000000
vt 0.216596 -0.008637 0.000000
vt 0.228088 -0.000000 0.000000
vt -0.537661 -0.132347 0.000000
vt 0.000000 -0.132347 0.000000
vt -0.537661 -0.000000 0.000000
vt -0.000000 0.000000 0.000000
vt -0.029162 0.354921 0.000000
vt 0.280411 0.172074 0.000000
vt 0.052323 0.354921 0.000000
vt 0.280411 0.445018 0.000000
vt 0.052323 0.445018 0.000000
vt -0.029162 0.445018 0.000000
vt -0.257250 0.445018 0.000000
vt -0.257250 0.172074 0.000000
vt 0.029162 0.445018 0.000000
vt 0.029162 0.354921 0.000000
vt 0.257250 0.445018 0.000000
vt 0.257250 0.172074 0.000000
vt -0.052323 0.354921 0.000000
vt -0.280411 0.172074 0.000000
vt -0.280411 0.445018 0.000000
vt -0.052323 0.445018 0.000000
vt -0.040743 0.066174 0.000000
vt 0.040743 0.066174 0.000000
vt -0.027950 0.072510 0.000000
vt 0.027950 0.072510 0.000000
vt -0.014215 0.076399 0.000000
vt 0.014215 0.076399 0.000000
vt 0.000000 0.077710 0.000000
vt 0.040743 -0.066174 0.000000
vt -0.040743 -0.066174 0.000000
vt 0.027950 -0.072510 0.000000
vt -0.027950 -0.072510 0.000000
vt 0.014215 -0.076399 0.000000
vt -0.014215 -0.076399 0.000000
vt -0.000000 -0.077710 0.000000
vn 0.000000 -0.076924 0.997037
vn 0.000000 -0.168365 0.985725
vn 0.000000 -0.258819 0.965926
vn 0.000000 -0.347054 0.937845
vn 0.000000 -0.431901 0.901921
vn 0.000000 -0.513867 0.857870
vn 0.000000 -0.590274 0.807203
vn 0.000000 -0.663094 0.748536
vn 0.000000 -0.728547 0.684996
vn 0.000000 -0.789628 0.613586
vn 0.000000 -0.842010 0.539463
vn 0.000000 -0.889139 0.457637
vn 0.000000 -0.926799 0.375558
vn 0.000000 -0.958221 0.286027
vn 0.000000 -0.980027 0.198865
vn 0.000000 -0.958221 0.286027
vn 0.000000 -0.994375 0.105920
vn 0.000000 0.016087 0.999871
vn 0.000000 0.107591 0.994195
vn 0.000000 0.199988 0.979798
vn 0.000000 0.288442 0.957497
vn 0.000000 0.377045 0.926195
vn 0.000000 0.459470 0.888193
vn 0.000000 0.541198 0.840895
vn 0.000000 0.614852 0.788642
vn 0.000000 0.686831 0.726818
vn 0.000000 0.749296 0.662235
vn 0.000000 0.808194 0.588917
vn 0.000000 0.858223 0.513277
vn 0.000000 0.902284 0.431142
vn -0.000000 0.937925 0.346839
vn -0.000000 0.965926 0.258819
vn -0.000000 0.985686 0.168591
vn -0.000000 0.996972 0.077762
vn -0.000000 0.999881 -0.015399
vn -0.000000 0.994375 -0.105920
vn -0.000000 0.980027 -0.198865
vn -0.000000 0.958221 -0.286027
vn -0.000000 0.958221 -0.286027
vn -0.000000 0.926799 -0.375558
vn -0.000000 0.889139 -0.457637
vn -0.000000 0.842010 -0.539463
vn -0.000000 0.789628 -0.613586
vn -0.000000 0.728547 -0.684996
vn -0.000000 0.663094 -0.748536
vn -0.000000 0.590274 -0.807203
vn -0.000000 0.513867 -0.857870
vn -0.000000 0.431901 -0.901921
vn -0.000000 0.347054 -0.937845
vn -0.000000 0.258819 -0.965926
vn -0.000000 0.168365 -0.985725
vn -0.000000 0.076924 -0.997037
vn -0.000000 -0.016087 -0.999871
vn -0.000000 -0.107591 -0.994195
vn -0.000000 -0.199988 -0.979798
vn -0.000000 -0.288442 -0.957497
vn -0.000000 -0.377045 -0.926195
vn -0.000000 -0.459470 -0.888193
vn -0.000000 -0.541198 -0.840895
vn -0.000000 -0.614852 -0.788642
vn -0.000000 -0.686831 -0.726818
vn -0.000000 -0.749296 -0.662235
vn -0.000000 -0.808194 -0.588917
vn -0.000000 -0.858223 -0.513277
vn -0.000000 -0.902284 -0.431142
vn 0.000000 -0.937925 -0.346839
vn 0.000000 -0.965926 -0.258819
vn 0.000000 -0.985686 -0.168591
vn 0.000000 -0.996972 -0.077762
vn 0.000000 -0.999881 0.015399
vn -0.000000 -0.686831 -0.726818
vn 0.000000 0.686831 0.726818
vn 1.000000 0.000000 -0.000000
vn 1.000000 0.000000 -0.000000
vn 1.000000 0.000000 -0.000000
vn 1.000000 0.000000 -0.000000
vn 1.000000 0.000000 -0.000000
vn 1.000000 0.000000 -0.000000
vn 1.000000 0.000000 -0.000000
vn 1.000000 0.000000 -0.000000
vn 1.000000 0.000000 -0.000000
vn 1.000000 0.000000 -0.000000
vn 1.000000 0.000000 -0.000000
vn 1.000000 0.000000 -0.000000
vn 1.000000 0.000000 -0.000000
vn 1.000000 0.000000 -0.000000
vn -0.000000 0.965926 0.258819
vn -0.000000 0.965926 0.258819
vn -0.000000 0.965926 0.258819
vn -0.000000 0.965926 0.258819
vn -1.000000 -0.000000 0.000000
vn -1.000000 -0.000000 0.000000
vn -1.000000 -0.000000 0.000000
vn -1.000000 -0.000000 0.000000
vn -1.000000 -0.000000 0.000000
vn -1.000000 -0.000000 0.000000
vn -1.000000 -0.000000 0.000000
vn -1.000000 -0.000000 0.000000
vn -1.000000 -0.000000 0.000000
vn -1.000000 -0.000000 0.000000
vn -1.000000 -0.000000 0.000000
vn -1.000000 -0.000000 0.000000
vn -1.000000 -0.000000 0.000000
vn -1.000000 -0.000000 0.000000
vn -1.000000 -0.000000 0.000000
vn -1.000000 -0.000000 0.000000
vn -1.000000 -0.000000 0.000000
vn -1.000000 -0.000000 0.000000
vn -1.000000 -0.000000 0.000000
vn -1.000000 -0.000000 0.000000
vn -1.000000 -0.000000 0.000000
vn -1.000000 -0.000000 0.000000
vn -1.000000 -0.000000 0.000000
vn -1.000000 -0.000000 0.000000
vn -1.000000 -0.000000 0.000000
vn -1.000000 -0.000000 0.000000
vn -1.000000 -0.000000 0.000000
vn -1.000000 -0.000000 0.000000
vn -1.000000 -0.000000 0.000000
vn -1.000000 -0.000000 0.000000
vn -1.000000 -0.000000 0.000000
vn -1.000000 -0.000000 0.000000
vn -1.000000 -0.000000 0.000000
vn -1.000000 -0.000000 0.000000
vn -1.000000 -0.000000 0.000000
vn -1.000000 -0.000000 0.000000
vn -1.000000 -0.000000 0.000000
vn -1.000000 -0.000000 0.000000
vn 0.000000 -0.258819 0.965926
vn 0.000000 -0.258819 0.965926
vn 0.000000 -0.258819 0.965926
vn 0.000000 -0.258819 0.965926
vn 0.000000 -0.258819 0.965926
vn 0.000000 -0.258819 0.965926
vn 0.000000 -0.258819 0.965926
vn 0.000000 -0.258819 0.965926
vn 1.000000 0.000000 -0.000000
vn 1.000000 0.000000 -0.000000
vn 1.000000 0.000000 -0.000000
vn 1.000000 0.000000 -0.000000
vn -0.000000 0.258819 -0.965926
vn -0.000000 0.258819 -0.965926
vn -0.000000 0.258819 -0.965926
vn -0.000000 0.258819 -0.965926
vn -0.000000 0.258819 -0.965926
vn -0.000000 0.258819 -0.965926
vn -0.000000 0.258819 -0.965926
vn -0.000000 0.258819 -0.965926
vn 0.000000 -0.965926 -0.258819
vn 0.000000 -0.965926 -0.258819
vn 0.000000 -0.965926 -0.258819
vn 0.000000 -0.965926 -0.258819
vn 1.000000 0.000000 -0.000000
vn 1.000000 0.000000 -0.000000
vn 1.000000 0.000000 -0.000000
vn 1.000000 0.000000 -0.000000
vn 1.000000 0.000000 -0.000000
vn 1.000000 0.000000 -0.000000
vn 1.000000 0.000000 -0.000000
vn 1.000000 0.000000 -0.000000
vn 1.000000 0.000000 -0.000000
vn 1.000000 0.000000 -0.000000
vn 1.000000 0.000000 -0.000000
vn 1.000000 0.000000 -0.000000
vn 1.000000 0.000000 -0.000000
vn 1.000000 0.000000 -0.000000
vn -1.000000 -0.000000 0.000000
vn -1.000000 -0.000000 0.000000
vn -1.000000 -0.000000 0.000000
vn -1.000000 -0.000000 0.000000
vn 0.000000 -0.965926 -0.258819
vn 0.000000 -0.965926 -0.258819
vn 0.000000 -0.965926 -0.258819
vn 0.000000 -0.965926 -0.258819
vn 0.000000 -0.965926 -0.258819
vn 0.000000 -0.965926 -0.258819
vn 0.000000 -0.965926 -0.258819
vn 0.000000 -0.965926 -0.258819
vn -0.000000 0.965926 0.258819
vn -0.000000 0.965926 0.258819
vn -0.000000 0.965926 0.258819
vn -0.000000 0.965926 0.258819
vn -0.000000 0.965926 0.258819
vn -0.000000 0.965926 0.258819
vn -0.000000 0.965926 0.258819
vn -0.000000 0.965926 0.258819
vn -1.000000 -0.000000 0.000000
vn -1.000000 -0.000000 0.000000
vn -1.000000 -0.000000 0.000000
vn -1.000000 -0.000000 0.000000
vn -1.000000 -0.000000 0.000000
vn -1.000000 -0.000000 0.000000
vn -1.000000 -0.000000 0.000000
vn -1.000000 -0.000000 0.000000
vn -1.000000 -0.000000 0.000000
vn -1.000000 -0.000000 0.000000
vn -1.000000 -0.000000 0.000000
vn -1.000000 -0.000000 0.000000
vn -1.000000 -0.000000 0.000000
vn -1.000000 -0.000000 0.000000
usemtl Opaque(202,209,238)
f 2/1/1 40/2/2 1/3/3
f 1/4/3 40/5/2 41/6/4
f 1/4/3 41/6/4 34/7/5
f 34/7/5 41/6/4 42/8/6
f 34/7/5 42/8/6 33/9/7
f 33/9/7 42/8/6 43/10/8
f 33/9/7 43/10/8 32/11/9
f 32/11/9 43/10/8 44/12/10
f 32/11/9 44/12/10 31/13/11
f 31/13/11 44/12/10 45/14/12
f 31/13/11 45/14/12 30/15/13
f 30/15/13 45/14/12 46/16/14
f 30/15/13 46/16/14 29/17/15
f 29/17/15 46/16/14 47/18/16
f 29/17/15 47/18/16 48/19/17
f 40/2/2 2/1/1 39/20/18
f 39/20/18 2/1/1 3/21/19
f 39/20/18 3/21/19 38/22/20
f 38/22/20 3/21/19 4/23/21
f 38/22/20 4/23/21 37/24/22
f 37/24/22 4/23/21 5/25/23
f 37/24/22 5/25/23 36/26/24
f 36/26/24 5/25/23 6/27/25
f 36/26/24 6/27/25 35/28/26
f 35/28/26 6/27/25 7/29/27
f 35/28/26 7/29/27 71/30/28
f 71/30/28 7/29/27 8/31/29
f 71/30/28 8/31/29 70/32/30
f 70/32/30 8/31/29 9/33/31
f 70/32/30 9/33/31 69/34/32
f 69/34/32 9/33/31 10/35/33
f 69/34/32 10/35/33 68/36/34
f 68/36/34 10/35/33 11/37/35
f 68/36/34 11/37/35 67/38/36
f 67/38/36 11/37/35 12/39/37
f 67/38/36 12/39/37 66/40/38
f 66/40/38 12/39/37 65/41/39
f 65/41/39 12/39/37 13/42/40
f 65/41/39 13/42/40 64/43/41
f 64/43/41 13/42/40 14/44/42
f 64/43/41 14/44/42 63/45/43
f 63/45/43 14/44/42 15/46/44
f 63/45/43 15/46/44 62/47/45
f 62/47/45 15/46/44 16/48/46
f 62/47/45 16/48/46 61/49/47
f 61/49/47 16/48/46 17/50/48
f 61/49/47 17/50/48 60/51/49
f 60/51/49 17/50/48 18/52/50
f 60/51/49 18/52/50 59/53/51
f 59/53/51 18/52/50 19/54/52
f 59/53/51 19/54/52 58/55/53
f 58/55/53 19/54/52 20/56/54
f 58/55/53 20/56/54 57/57/55
f 57/57/55 20/56/54 21/58/56
f 57/57/55 21/58/56 56/59/57
f 56/59/57 21/58/56 22/60/58
f 56/59/57 22/60/58 55/61/59
f 55/61/59 22/60/58 23/62/60
f 55/61/59 23/62/60 54/63/61
f 54/63/61 23/62/60 24/64/62
f 54/63/61 24/64/62 52/65/63
f 52/65/63 24/64/62 25/66/64
f 52/65/63 25/66/64 51/67/65
f 51/67/65 25/66/64 26/68/66
f 51/67/65 26/68/66 50/69/67
f 50/69/67 26/68/66 27/70/68
f 50/69/67 27/70/68 49/71/69
f 49/71/69 27/70/68 28/72/70
f 49/71/69 28/72/70 48/19/17
f 48/19/17 28/72/70 29/17/15
f 52/65/63 53/73/71 54/63/61
f 71/30/28 72/74/72 35/28/26
f 46/75/73 45/76/74 73/77/75
f 73/77/75 45/76/74 44/78/76
f 73/77/75 44/78/76 43/79/77
f 43/79/77 42/80/78 73/77/75
f 73/77/75 42/80/78 41/81/79
f 73/77/75 41/81/79 74/82/80
f 74/82/80 41/81/79 40/83/81
f 74/82/80 40/83/81 39/84/82
f 39/84/82 38/85/83 74/82/80
f 74/82/80 38/85/83 37/86/84
f 74/82/80 37/86/84 36/87/85
f 36/87/85 35/88/86 74/82/80
f 76/89/87 77/90/88 75/91/89
f 75/91/89 77/90/88 78/92/90
f 80/93/91 9/94/92 79/95/93
f 79/95/93 9/94/92 8/96/94
f 79/95/93 8/96/94 7/97/95
f 77/98/96 18/99/97 80/93/91
f 80/93/91 18/99/97 17/100/98
f 80/93/91 17/100/98 16/101/99
f 76/102/100 26/103/101 77/98/96
f 77/98/96 26/103/101 25/104/102
f 77/98/96 25/104/102 24/105/103
f 79/95/93 1/106/104 76/102/100
f 76/102/100 1/106/104 34/107/105
f 76/102/100 34/107/105 33/108/106
f 33/108/106 32/109/107 76/102/100
f 76/102/100 32/109/107 31/110/108
f 76/102/100 31/110/108 30/111/109
f 30/111/109 29/112/110 76/102/100
f 76/102/100 29/112/110 28/113/111
f 76/102/100 28/113/111 27/114/112
f 27/114/112 26/103/101 76/102/100
f 24/105/103 23/115/113 77/98/96
f 77/98/96 23/115/113 22/116/114
f 77/98/96 22/116/114 21/117/115
f 21/117/115 20/118/116 77/98/96
f 77/98/96 20/118/116 19/119/117
f 77/98/96 19/119/117 18/99/97
f 16/101/99 15/120/118 80/93/91
f 80/93/91 15/120/118 14/121/119
f 80/93/91 14/121/119 13/122/120
f 13/122/120 12/123/121 80/93/91
f 80/93/91 12/123/121 11/124/122
f 80/93/91 11/124/122 10/125/123
f 10/125/123 9/94/92 80/93/91
f 7/97/95 6/126/124 79/95/93
f 79/95/93 6/126/124 5/127/125
f 79/95/93 5/127/125 4/128/126
f 4/128/126 3/129/127 79/95/93
f 79/95/93 3/129/127 2/130/128
f 79/95/93 2/130/128 1/106/104
f 78/131/129 77/132/130 83/133/131
f 83/133/131 77/132/130 80/134/132
f 83/133/131 80/134/132 82/135/133
f 82/135/133 80/134/132 81/136/134
f 82/135/133 81/136/134 85/137/135
f 85/137/135 81/136/134 78/131/129
f 85/137/135 78/131/129 84/138/136
f 84/138/136 78/131/129 83/133/131
f 81/139/137 86/140/138 78/141/139
f 78/141/139 86/140/138 75/142/140
f 86/143/141 88/144/142 75/145/143
f 75/145/143 88/144/142 73/146/144
f 75/145/143 73/146/144 76/147/145
f 76/147/145 73/146/144 74/148/146
f 76/147/145 74/148/146 79/149/147
f 79/149/147 74/148/146 86/143/141
f 86/143/141 74/148/146 87/150/148
f 86/143/141 87/150/148 88/144/142
f 86/151/149 81/152/150 79/153/151
f 79/153/151 81/152/150 80/154/152
f 65/155/153 64/156/154 82/157/155
f 82/157/155 64/156/154 63/158/156
f 82/157/155 63/158/156 62/159/157
f 62/159/157 61/160/158 82/157/155
f 82/157/155 61/160/158 60/161/159
f 82/157/155 60/161/159 59/162/160
f 82/157/155 59/162/160 83/163/161
f 83/163/161 59/162/160 58/164/162
f 83/163/161 58/164/162 57/165/163
f 57/165/163 56/166/164 83/163/161
f 83/163/161 56/166/164 55/167/165
f 83/163/161 55/167/165 54/168/166
f 87/169/167 85/170/168 88/171/169
f 88/171/169 85/170/168 84/172/170
f 47/173/171 84/174/172 53/175/173
f 53/175/173 84/174/172 83/176/174
f 53/175/173 83/176/174 54/177/175
f 46/178/176 73/179/177 47/173/171
f 47/173/171 73/179/177 88/180/178
f 47/173/171 88/180/178 84/174/172
f 35/181/179 72/182/180 74/183/181
f 74/183/181 72/182/180 87/184/182
f 87/184/182 72/182/180 66/185/183
f 87/184/182 66/185/183 85/186/184
f 85/186/184 66/185/183 82/187/185
f 82/187/185 66/185/183 65/188/186
f 47/189/187 53/190/188 48/191/189
f 48/191/189 53/190/188 52/192/190
f 48/191/189 52/192/190 49/193/191
f 49/193/191 52/192/190 51/194/192
f 49/193/191 51/194/192 50/195/193
f 66/196/194 72/197/195 67/198/196
f 67/198/196 72/197/195 71/199/197
f 67/198/196 71/199/197 68/200/198
f 68/200/198 71/199/197 70/201/199
f 68/200/198 70/201/199 69/202/200
# 88 vertices
# 202 texture params
# 200 normals
# 180 facets

# 1 groups
