# WaveFront *.obj file (generated by Autodesk ATF)

mtllib body23_visual.mtl

g Body23

v -27.114312 1.364443 -2.946955
v -27.546812 1.364443 -2.946955
v -27.546812 1.346196 -2.878858
v -27.114312 1.346196 -2.878858
v -27.114312 1.295968 -2.892316
v -27.114312 1.314214 -2.960414
v -27.546812 1.295968 -2.892316
v -27.546812 1.314214 -2.960414
v -27.761812 0.646866 -3.066243
v -27.861812 0.646866 -3.066243
v -27.861812 0.665112 -3.134340
v -27.761812 0.665112 -3.134340
v -27.554904 1.294610 -2.892680
v -27.562049 1.290697 -2.893729
v -27.567409 1.284686 -2.895339
v -27.570357 1.277281 -2.897323
v -27.570357 1.295528 -2.965421
v -27.567409 1.302932 -2.963437
v -27.562049 1.308944 -2.961826
v -27.554904 1.312857 -2.960778
v -27.861812 0.697094 -3.052784
v -27.861812 0.715340 -3.120882
v -27.687255 0.706041 -3.050387
v -27.691567 0.692253 -3.054081
v -27.698584 0.679544 -3.057487
v -27.708035 0.668403 -3.060472
v -27.719556 0.659258 -3.062922
v -27.732704 0.652463 -3.064743
v -27.746972 0.648279 -3.065864
v -27.746972 0.666525 -3.133962
v -27.732704 0.670710 -3.132840
v -27.719556 0.677505 -3.131020
v -27.708035 0.686649 -3.128570
v -27.698584 0.697790 -3.125584
v -27.691567 0.710499 -3.122179
v -27.687255 0.724287 -3.118484
v -27.761812 0.715340 -3.120882
v -27.761812 0.697094 -3.052784
v -27.621369 1.287021 -2.894714
v -27.738268 0.715781 -3.047777
v -27.741216 0.708376 -3.049761
v -27.746576 0.702365 -3.051372
v -27.753720 0.698451 -3.052420
v -27.561652 1.344783 -2.879236
v -27.575920 1.340598 -2.880357
v -27.589068 1.333803 -2.882178
v -27.600589 1.324659 -2.884628
v -27.610040 1.313518 -2.887614
v -27.617057 1.300809 -2.891019
v -27.561652 1.363030 -2.947334
v -27.575920 1.358845 -2.948455
v -27.589068 1.352050 -2.950276
v -27.600589 1.342906 -2.952726
v -27.610040 1.331765 -2.955711
v -27.617057 1.319055 -2.959117
v -27.621369 1.305268 -2.962811
v -27.753720 0.716698 -3.120518
v -27.746576 0.720611 -3.119469
v -27.741216 0.726623 -3.117859
v -27.738268 0.734027 -3.115875
vt 0.432500 0.070500 0.000000
vt 0.000000 0.070500 0.000000
vt 0.432500 0.000000 0.000000
vt 0.000000 0.000000 0.000000
vt -0.157000 1.101750 0.000000
vt -0.105000 1.101750 0.000000
vt -0.157000 1.172250 0.000000
vt -0.105000 1.172250 0.000000
vt 0.000000 0.000000 0.000000
vt -0.070500 -0.000000 0.000000
vt -0.000000 -0.432500 0.000000
vt -0.070500 -0.432500 0.000000
vt 0.000000 0.000000 0.000000
vt -0.070500 0.000000 0.000000
vt -0.000000 -0.100000 0.000000
vt -0.070500 -0.100000 0.000000
vt 0.162250 -0.075398 0.000000
vt 0.091750 -0.075398 0.000000
vt 0.162250 -0.083652 0.000000
vt 0.091750 -0.083652 0.000000
vt 0.162250 -0.091906 0.000000
vt 0.091750 -0.091906 0.000000
vt 0.162250 -0.100160 0.000000
vt 0.091750 -0.100160 0.000000
vt 0.162250 -0.108414 0.000000
vt 0.091750 -0.108414 0.000000
vt 0.105000 1.101750 0.000000
vt 0.157000 1.101750 0.000000
vt 0.105000 1.172250 0.000000
vt 0.157000 1.172250 0.000000
vt 0.162250 -0.134212 0.000000
vt 0.091750 -0.134212 0.000000
vt 0.162250 -0.149148 0.000000
vt 0.091750 -0.149148 0.000000
vt 0.162250 -0.164083 0.000000
vt 0.091750 -0.164083 0.000000
vt 0.162250 -0.179019 0.000000
vt 0.091750 -0.179019 0.000000
vt 0.162250 -0.193954 0.000000
vt 0.091750 -0.193954 0.000000
vt 0.162250 -0.208890 0.000000
vt 0.091750 -0.208890 0.000000
vt 0.162250 -0.223825 0.000000
vt 0.091750 -0.223825 0.000000
vt 0.162250 -0.238761 0.000000
vt 0.091750 -0.238761 0.000000
vt -0.602834 -0.000000 0.000000
vt -0.000000 0.000000 0.000000
vt -0.602834 0.070500 0.000000
vt 0.000000 0.070500 0.000000
vt 0.100000 0.070500 0.000000
vt -0.000000 0.070500 0.000000
vt 0.100000 0.000000 0.000000
vt 0.000000 0.000000 0.000000
vt 0.615749 -0.070198 0.000000
vt 0.601475 -0.065885 0.000000
vt 0.591391 -0.116898 0.000000
vt 0.010084 0.051013 0.000000
vt 0.000000 0.000000 0.000000
vt -0.014274 0.004313 0.000000
vt 0.002418 0.053961 0.000000
vt -0.027432 0.011330 0.000000
vt -0.003806 0.059321 0.000000
vt -0.038966 0.020780 0.000000
vt -0.048433 0.032302 0.000000
vt -0.007857 0.066465 0.000000
vt -0.055467 0.045449 0.000000
vt -0.059800 0.059718 0.000000
vt -0.009263 0.074557 0.000000
vt -0.061263 0.074557 0.000000
vt -0.061263 0.174557 0.000000
vt -0.009263 0.174557 0.000000
vt 0.599057 -0.119846 0.000000
vt 0.628907 -0.077215 0.000000
vt 0.605281 -0.125206 0.000000
vt 0.640441 -0.086666 0.000000
vt 0.649907 -0.098187 0.000000
vt 0.609332 -0.132350 0.000000
vt 0.656942 -0.111335 0.000000
vt 0.661275 -0.125603 0.000000
vt 0.610737 -0.140443 0.000000
vt 0.662737 -0.140443 0.000000
vt 0.662737 -0.572943 0.000000
vt 0.610737 -0.572943 0.000000
vt -0.091750 -0.238761 0.000000
vt -0.162250 -0.238761 0.000000
vt -0.091750 -0.253697 0.000000
vt -0.162250 -0.253697 0.000000
vt -0.091750 -0.268632 0.000000
vt -0.162250 -0.268632 0.000000
vt -0.091750 -0.283568 0.000000
vt -0.162250 -0.283568 0.000000
vt -0.091750 -0.298503 0.000000
vt -0.162250 -0.298503 0.000000
vt -0.091750 -0.313439 0.000000
vt -0.162250 -0.313439 0.000000
vt -0.091750 -0.328375 0.000000
vt -0.162250 -0.328375 0.000000
vt -0.091750 -0.343310 0.000000
vt -0.162250 -0.343310 0.000000
vt 0.000000 0.000000 0.000000
vt 0.051013 0.010084 0.000000
vt -0.116898 0.591391 0.000000
vt -0.065885 0.601475 0.000000
vt -0.070198 0.615749 0.000000
vt 0.004313 -0.014274 0.000000
vt 0.053961 0.002418 0.000000
vt 0.011330 -0.027432 0.000000
vt 0.059321 -0.003806 0.000000
vt 0.020780 -0.038966 0.000000
vt 0.032302 -0.048433 0.000000
vt 0.066465 -0.007857 0.000000
vt 0.045449 -0.055467 0.000000
vt 0.059718 -0.059800 0.000000
vt 0.074557 -0.009263 0.000000
vt 0.074557 -0.061263 0.000000
vt 0.174557 -0.061263 0.000000
vt 0.174557 -0.009263 0.000000
vt -0.119846 0.599057 0.000000
vt -0.077215 0.628907 0.000000
vt -0.125206 0.605281 0.000000
vt -0.086666 0.640441 0.000000
vt -0.098187 0.649907 0.000000
vt -0.132350 0.609332 0.000000
vt -0.111335 0.656942 0.000000
vt -0.125603 0.661275 0.000000
vt -0.140443 0.610737 0.000000
vt -0.140443 0.662737 0.000000
vt -0.572943 0.610737 0.000000
vt -0.572943 0.662737 0.000000
vt -0.091750 -0.042383 0.000000
vt -0.162250 -0.042383 0.000000
vt -0.091750 -0.050637 0.000000
vt -0.162250 -0.050637 0.000000
vt -0.091750 -0.058890 0.000000
vt -0.162250 -0.058890 0.000000
vt -0.091750 -0.067144 0.000000
vt -0.162250 -0.067144 0.000000
vt -0.091750 -0.075398 0.000000
vt -0.162250 -0.075398 0.000000
vt 0.070500 0.000000 0.000000
vt 0.000000 -0.000000 0.000000
vt 0.070500 -0.602834 0.000000
vt -0.000000 -0.602834 0.000000
vn 0.000000 0.965926 0.258819
vn 0.000000 0.965926 0.258819
vn 0.000000 0.965926 0.258819
vn 0.000000 0.965926 0.258819
vn 1.000000 -0.000000 0.000000
vn 1.000000 -0.000000 0.000000
vn 1.000000 -0.000000 0.000000
vn 1.000000 -0.000000 0.000000
vn -0.000000 -0.965926 -0.258819
vn -0.000000 -0.965926 -0.258819
vn -0.000000 -0.965926 -0.258819
vn -0.000000 -0.965926 -0.258819
vn -0.000000 -0.965926 -0.258819
vn -0.000000 -0.965926 -0.258819
vn -0.000000 -0.965926 -0.258819
vn -0.000000 -0.965926 -0.258819
vn -0.000000 -0.965926 -0.258819
vn 0.337172 -0.909364 -0.243663
vn 0.337172 -0.909364 -0.243663
vn 0.634857 -0.746303 -0.199971
vn 0.634857 -0.746303 -0.199971
vn 0.858191 -0.495840 -0.132860
vn 0.858191 -0.495840 -0.132860
vn 0.981018 -0.187307 -0.050189
vn 0.981018 -0.187307 -0.050189
vn -1.000000 0.000000 -0.000000
vn -1.000000 0.000000 -0.000000
vn -1.000000 0.000000 -0.000000
vn -1.000000 0.000000 -0.000000
vn 0.981018 -0.187307 -0.050189
vn 0.981018 -0.187307 -0.050189
vn 0.924272 -0.368727 -0.098800
vn 0.924272 -0.368727 -0.098800
vn 0.831945 -0.535952 -0.143608
vn 0.831945 -0.535952 -0.143608
vn 0.707591 -0.682545 -0.182887
vn 0.707591 -0.682545 -0.182887
vn 0.555997 -0.802862 -0.215126
vn 0.555997 -0.802862 -0.215126
vn 0.383000 -0.892272 -0.239084
vn 0.383000 -0.892272 -0.239084
vn 0.195258 -0.947334 -0.253837
vn 0.195258 -0.947334 -0.253837
vn 0.000000 0.965926 0.258819
vn 0.000000 0.965926 0.258819
vn 0.000000 0.965926 0.258819
vn 0.000000 0.965926 0.258819
vn -0.000000 -0.258819 0.965926
vn -0.000000 -0.258819 0.965926
vn -0.000000 -0.258819 0.965926
vn -0.000000 -0.258819 0.965926
vn -0.000000 -0.258819 0.965926
vn -0.000000 -0.258819 0.965926
vn -0.000000 -0.258819 0.965926
vn -0.000000 -0.258819 0.965926
vn -0.000000 -0.258819 0.965926
vn -0.000000 -0.258819 0.965926
vn -0.000000 -0.258819 0.965926
vn -0.000000 -0.258819 0.965926
vn -0.000000 -0.258819 0.965926
vn -0.000000 -0.258819 0.965926
vn -0.000000 -0.258819 0.965926
vn -0.000000 -0.258819 0.965926
vn -0.000000 -0.258819 0.965926
vn -0.000000 -0.258819 0.965926
vn -0.000000 -0.258819 0.965926
vn -0.000000 -0.258819 0.965926
vn -0.000000 -0.258819 0.965926
vn -0.000000 -0.258819 0.965926
vn -0.000000 -0.258819 0.965926
vn -0.000000 -0.258819 0.965926
vn -0.000000 -0.258819 0.965926
vn -0.000000 -0.258819 0.965926
vn -0.000000 -0.258819 0.965926
vn -0.000000 -0.258819 0.965926
vn -0.000000 -0.258819 0.965926
vn -0.000000 -0.258819 0.965926
vn -0.195258 0.947334 0.253837
vn -0.195258 0.947334 0.253837
vn -0.383000 0.892272 0.239084
vn -0.383000 0.892272 0.239084
vn -0.555997 0.802862 0.215126
vn -0.555997 0.802862 0.215126
vn -0.707591 0.682545 0.182887
vn -0.707591 0.682545 0.182887
vn -0.831945 0.535952 0.143608
vn -0.831945 0.535952 0.143608
vn -0.924272 0.368727 0.098800
vn -0.924272 0.368727 0.098800
vn -0.981018 0.187307 0.050189
vn -0.981018 0.187307 0.050189
vn 0.000000 0.258819 -0.965926
vn 0.000000 0.258819 -0.965926
vn 0.000000 0.258819 -0.965926
vn 0.000000 0.258819 -0.965926
vn 0.000000 0.258819 -0.965926
vn 0.000000 0.258819 -0.965926
vn 0.000000 0.258819 -0.965926
vn 0.000000 0.258819 -0.965926
vn 0.000000 0.258819 -0.965926
vn 0.000000 0.258819 -0.965926
vn 0.000000 0.258819 -0.965926
vn 0.000000 0.258819 -0.965926
vn 0.000000 0.258819 -0.965926
vn 0.000000 0.258819 -0.965926
vn 0.000000 0.258819 -0.965926
vn 0.000000 0.258819 -0.965926
vn 0.000000 0.258819 -0.965926
vn 0.000000 0.258819 -0.965926
vn 0.000000 0.258819 -0.965926
vn 0.000000 0.258819 -0.965926
vn 0.000000 0.258819 -0.965926
vn 0.000000 0.258819 -0.965926
vn 0.000000 0.258819 -0.965926
vn 0.000000 0.258819 -0.965926
vn 0.000000 0.258819 -0.965926
vn 0.000000 0.258819 -0.965926
vn 0.000000 0.258819 -0.965926
vn 0.000000 0.258819 -0.965926
vn 0.000000 0.258819 -0.965926
vn 0.000000 0.258819 -0.965926
vn -0.981018 0.187307 0.050189
vn -0.981018 0.187307 0.050189
vn -0.858191 0.495840 0.132860
vn -0.858191 0.495840 0.132860
vn -0.634857 0.746303 0.199971
vn -0.634857 0.746303 0.199971
vn -0.337172 0.909364 0.243663
vn -0.337172 0.909364 0.243663
usemtl Opaque(202,209,238)
f 1/1/1 2/2/2 4/3/3
f 4/3/3 2/2/2 3/4/4
f 4/5/5 5/6/6 1/7/7
f 1/7/7 5/6/6 6/8/8
f 7/9/9 8/10/10 5/11/11
f 5/11/11 8/10/10 6/12/12
f 10/13/13 11/14/14 9/15/15
f 9/15/15 11/14/14 12/16/16
f 8/17/17 7/18/9 20/19/18
f 20/19/18 7/18/9 13/20/19
f 20/19/18 13/20/19 19/21/20
f 19/21/20 13/20/19 14/22/21
f 19/21/20 14/22/21 18/23/22
f 18/23/22 14/22/21 15/24/23
f 18/23/22 15/24/23 17/25/24
f 17/25/24 15/24/23 16/26/25
f 10/27/26 21/28/27 11/29/28
f 11/29/28 21/28/27 22/30/29
f 36/31/30 23/32/31 35/33/32
f 35/33/32 23/32/31 24/34/33
f 35/33/32 24/34/33 34/35/34
f 34/35/34 24/34/33 25/36/35
f 34/35/34 25/36/35 33/37/36
f 33/37/36 25/36/35 26/38/37
f 33/37/36 26/38/37 32/39/38
f 32/39/38 26/38/37 27/40/39
f 32/39/38 27/40/39 31/41/40
f 31/41/40 27/40/39 28/42/41
f 31/41/40 28/42/41 30/43/42
f 30/43/42 28/42/41 29/44/43
f 30/43/42 29/44/43 12/45/16
f 12/45/16 29/44/43 9/46/15
f 16/47/25 23/48/31 17/49/24
f 17/49/24 23/48/31 36/50/30
f 37/51/44 22/52/45 38/53/46
f 38/53/46 22/52/45 21/54/47
f 49/55/48 39/56/49 16/57/50
f 16/57/50 39/56/49 40/58/51
f 16/57/50 40/58/51 23/59/52
f 23/59/52 40/58/51 24/60/53
f 24/60/53 40/58/51 41/61/54
f 24/60/53 41/61/54 25/62/55
f 25/62/55 41/61/54 42/63/56
f 25/62/55 42/63/56 26/64/57
f 26/64/57 42/63/56 27/65/58
f 27/65/58 42/63/56 43/66/59
f 27/65/58 43/66/59 28/67/60
f 28/67/60 43/66/59 29/68/61
f 29/68/61 43/66/59 38/69/62
f 29/68/61 38/69/62 9/70/63
f 9/70/63 38/69/62 10/71/64
f 10/71/64 38/69/62 21/72/65
f 16/57/50 15/73/66 49/55/48
f 49/55/48 15/73/66 48/74/67
f 48/74/67 15/73/66 14/75/68
f 48/74/67 14/75/68 47/76/69
f 47/76/69 14/75/68 46/77/70
f 46/77/70 14/75/68 13/78/71
f 46/77/70 13/78/71 45/79/72
f 45/79/72 13/78/71 44/80/73
f 44/80/73 13/78/71 7/81/74
f 44/80/73 7/81/74 3/82/75
f 3/82/75 7/81/74 4/83/76
f 4/83/76 7/81/74 5/84/77
f 3/85/4 2/86/2 44/87/78
f 44/87/78 2/86/2 50/88/79
f 44/87/78 50/88/79 45/89/80
f 45/89/80 50/88/79 51/90/81
f 45/89/80 51/90/81 46/91/82
f 46/91/82 51/90/81 52/92/83
f 46/91/82 52/92/83 47/93/84
f 47/93/84 52/92/83 53/94/85
f 47/93/84 53/94/85 48/95/86
f 48/95/86 53/94/85 54/96/87
f 48/95/86 54/96/87 49/97/88
f 49/97/88 54/96/87 55/98/89
f 49/97/88 55/98/89 39/99/90
f 39/99/90 55/98/89 56/100/91
f 36/101/92 60/102/93 17/103/94
f 17/103/94 60/102/93 56/104/95
f 17/103/94 56/104/95 55/105/96
f 36/101/92 35/106/97 60/102/93
f 60/102/93 35/106/97 59/107/98
f 59/107/98 35/106/97 34/108/99
f 59/107/98 34/108/99 58/109/100
f 58/109/100 34/108/99 33/110/101
f 58/109/100 33/110/101 32/111/102
f 58/109/100 32/111/102 57/112/103
f 57/112/103 32/111/102 31/113/104
f 57/112/103 31/113/104 30/114/105
f 57/112/103 30/114/105 37/115/106
f 37/115/106 30/114/105 12/116/107
f 37/115/106 12/116/107 11/117/108
f 11/117/108 22/118/109 37/115/106
f 17/103/94 55/105/96 18/119/110
f 18/119/110 55/105/96 54/120/111
f 18/119/110 54/120/111 19/121/112
f 19/121/112 54/120/111 53/122/113
f 19/121/112 53/122/113 52/123/114
f 19/121/112 52/123/114 20/124/115
f 20/124/115 52/123/114 51/125/116
f 20/124/115 51/125/116 50/126/117
f 20/124/115 50/126/117 8/127/118
f 8/127/118 50/126/117 2/128/119
f 8/127/118 2/128/119 6/129/120
f 6/129/120 2/128/119 1/130/121
f 40/131/122 60/132/123 41/133/124
f 41/133/124 60/132/123 59/134/125
f 41/133/124 59/134/125 42/135/126
f 42/135/126 59/134/125 58/136/127
f 42/135/126 58/136/127 43/137/128
f 43/137/128 58/136/127 57/138/129
f 43/137/128 57/138/129 38/139/46
f 38/139/46 57/138/129 37/140/44
f 60/141/123 40/142/122 56/143/91
f 56/143/91 40/142/122 39/144/90
# 60 vertices
# 144 texture params
# 129 normals
# 116 facets

# 1 groups
