# WaveFront *.obj file (generated by Autodesk ATF)

mtllib body35_visual.mtl

g Body35

v -27.480000 2.863403 -3.968316
v -27.480000 2.871751 -3.966823
v -27.480000 2.880231 -3.966763
v -27.480000 2.888600 -3.968137
v -27.480000 2.896616 -3.970906
v -27.480000 2.904048 -3.974989
v -27.480000 2.910684 -3.980270
v -27.480000 2.916332 -3.986597
v -27.480000 2.920829 -3.993786
v -27.480000 2.924047 -4.001633
v -27.480000 2.925892 -4.009910
v -27.480000 2.926312 -4.018380
v -27.480000 2.925295 -4.026800
v -27.480000 2.922869 -4.034926
v -27.480000 2.919104 -4.042525
v -27.480000 2.914110 -4.049379
v -27.480000 2.908029 -4.055290
v -27.480000 2.901036 -4.060089
v -27.480000 2.893334 -4.063637
v -27.480000 2.885142 -4.065832
v -27.480000 2.876697 -4.066611
v -27.480000 2.868242 -4.065951
v -27.480000 2.860020 -4.063872
v -27.480000 2.852268 -4.060434
v -27.480000 2.845209 -4.055735
v -27.480000 2.839045 -4.049910
v -27.480000 2.833954 -4.043128
v -27.480000 2.830082 -4.035583
v -27.480000 2.827541 -4.027491
v -27.480000 2.826405 -4.019087
v -27.480000 2.826705 -4.010612
v -27.480000 2.828433 -4.002309
v -27.480000 2.831539 -3.994418
v -27.480000 2.835934 -3.987165
v -27.480000 2.841492 -3.980760
v -27.480000 2.848052 -3.975386
v -27.480000 2.855427 -3.971197
v -27.230000 2.863403 -3.968316
v -27.230000 2.855427 -3.971197
v -27.230000 2.848052 -3.975386
v -27.230000 2.841492 -3.980760
v -27.230000 2.835934 -3.987165
v -27.230000 2.831539 -3.994418
v -27.230000 2.828433 -4.002309
v -27.230000 2.826705 -4.010612
v -27.230000 2.826405 -4.019087
v -27.230000 2.827541 -4.027491
v -27.230000 2.830082 -4.035583
v -27.230000 2.833954 -4.043128
v -27.230000 2.839045 -4.049910
v -27.230000 2.845209 -4.055735
v -27.230000 2.852268 -4.060434
v -27.230000 2.860020 -4.063872
v -27.230000 2.868242 -4.065951
v -27.230000 2.876697 -4.066611
v -27.230000 2.885142 -4.065832
v -27.230000 2.893334 -4.063637
v -27.230000 2.901036 -4.060089
v -27.230000 2.908029 -4.055290
v -27.230000 2.914110 -4.049379
v -27.230000 2.919104 -4.042525
v -27.230000 2.922869 -4.034926
v -27.230000 2.925295 -4.026800
v -27.230000 2.926312 -4.018380
v -27.230000 2.925892 -4.009910
v -27.230000 2.924047 -4.001633
v -27.230000 2.920829 -3.993786
v -27.230000 2.916332 -3.986597
v -27.230000 2.910684 -3.980270
v -27.230000 2.904048 -3.974989
v -27.230000 2.896616 -3.970906
v -27.230000 2.888600 -3.968137
v -27.230000 2.880231 -3.966763
v -27.230000 2.871751 -3.966823
v -27.355000 2.863403 -3.968316
v -27.355000 2.871751 -3.966823
v -27.355000 2.880231 -3.966763
v -27.355000 2.888600 -3.968137
v -27.355000 2.896616 -3.970906
v -27.355000 2.904048 -3.974989
v -27.355000 2.910684 -3.980270
v -27.355000 2.916332 -3.986597
v -27.355000 2.920829 -3.993786
v -27.355000 2.924047 -4.001633
v -27.355000 2.925892 -4.009910
v -27.355000 2.926312 -4.018380
v -27.355000 2.925295 -4.026800
v -27.355000 2.922869 -4.034926
v -27.355000 2.919104 -4.042525
v -27.355000 2.914110 -4.049379
v -27.355000 2.908029 -4.055290
v -27.355000 2.901036 -4.060089
v -27.355000 2.893334 -4.063637
v -27.355000 2.885142 -4.065832
v -27.355000 2.876697 -4.066611
v -27.355000 2.868242 -4.065951
v -27.355000 2.860020 -4.063872
v -27.355000 2.852268 -4.060434
v -27.355000 2.845209 -4.055735
v -27.355000 2.839045 -4.049910
v -27.355000 2.833954 -4.043128
v -27.355000 2.830082 -4.035583
v -27.355000 2.827541 -4.027491
v -27.355000 2.826405 -4.019087
v -27.355000 2.826705 -4.010612
v -27.355000 2.828433 -4.002309
v -27.355000 2.831539 -3.994418
v -27.355000 2.835934 -3.987165
v -27.355000 2.841492 -3.980760
v -27.355000 2.848052 -3.975386
v -27.355000 2.855427 -3.971197
v -27.230000 2.826592 -4.159352
v -27.230000 2.777602 -4.131068
v -27.480000 2.777602 -4.131068
v -27.480000 2.826592 -4.159352
v -27.230000 2.990800 -4.115353
v -27.480000 2.990800 -4.115353
v -27.230000 3.019084 -4.066363
v -27.480000 3.019084 -4.066363
v -27.230000 2.975085 -3.902156
v -27.480000 2.975085 -3.902156
v -27.230000 2.926095 -3.873872
v -27.480000 2.926095 -3.873872
v -27.230000 2.761887 -3.917871
v -27.480000 2.761887 -3.917871
v -27.230000 2.733603 -3.966861
v -27.480000 2.733603 -3.966861
vt 0.250000 -0.148589 0.000000
vt 0.125000 -0.148589 0.000000
vt 0.250000 -0.157080 0.000000
vt 0.125000 -0.157080 0.000000
vt 0.250000 0.157080 0.000000
vt 0.125000 0.157080 0.000000
vt 0.250000 0.148589 0.000000
vt 0.125000 0.148589 0.000000
vt 0.250000 0.140098 0.000000
vt 0.125000 0.140098 0.000000
vt 0.250000 0.131607 0.000000
vt 0.125000 0.131607 0.000000
vt 0.250000 0.123116 0.000000
vt 0.125000 0.123116 0.000000
vt 0.250000 0.114626 0.000000
vt 0.125000 0.114626 0.000000
vt 0.250000 0.106135 0.000000
vt 0.125000 0.106135 0.000000
vt 0.250000 0.097644 0.000000
vt 0.125000 0.097644 0.000000
vt 0.250000 0.089153 0.000000
vt 0.125000 0.089153 0.000000
vt 0.250000 0.080663 0.000000
vt 0.125000 0.080663 0.000000
vt 0.250000 0.072172 0.000000
vt 0.125000 0.072172 0.000000
vt 0.250000 0.063681 0.000000
vt 0.125000 0.063681 0.000000
vt 0.250000 0.055190 0.000000
vt 0.125000 0.055190 0.000000
vt 0.250000 0.046699 0.000000
vt 0.125000 0.046699 0.000000
vt 0.250000 0.038209 0.000000
vt 0.125000 0.038209 0.000000
vt 0.250000 0.029718 0.000000
vt 0.125000 0.029718 0.000000
vt 0.250000 0.021227 0.000000
vt 0.125000 0.021227 0.000000
vt 0.250000 0.012736 0.000000
vt 0.125000 0.012736 0.000000
vt 0.250000 0.004245 0.000000
vt 0.125000 0.004245 0.000000
vt 0.250000 -0.004245 0.000000
vt 0.125000 -0.004245 0.000000
vt 0.250000 -0.012736 0.000000
vt 0.125000 -0.012736 0.000000
vt 0.250000 -0.021227 0.000000
vt 0.125000 -0.021227 0.000000
vt 0.250000 -0.029718 0.000000
vt 0.125000 -0.029718 0.000000
vt 0.250000 -0.038209 0.000000
vt 0.125000 -0.038209 0.000000
vt 0.250000 -0.046699 0.000000
vt 0.125000 -0.046699 0.000000
vt 0.250000 -0.055190 0.000000
vt 0.125000 -0.055190 0.000000
vt 0.250000 -0.063681 0.000000
vt 0.125000 -0.063681 0.000000
vt 0.250000 -0.072172 0.000000
vt 0.125000 -0.072172 0.000000
vt 0.250000 -0.080663 0.000000
vt 0.125000 -0.080663 0.000000
vt 0.250000 -0.089153 0.000000
vt 0.125000 -0.089153 0.000000
vt 0.250000 -0.097644 0.000000
vt 0.125000 -0.097644 0.000000
vt 0.250000 -0.106135 0.000000
vt 0.125000 -0.106135 0.000000
vt 0.250000 -0.114626 0.000000
vt 0.125000 -0.114626 0.000000
vt 0.250000 -0.123116 0.000000
vt 0.125000 -0.123116 0.000000
vt 0.250000 -0.131607 0.000000
vt 0.125000 -0.131607 0.000000
vt 0.250000 -0.140098 0.000000
vt 0.125000 -0.140098 0.000000
vt -0.000000 0.148589 0.000000
vt -0.000000 0.157080 0.000000
vt -0.000000 -0.157080 0.000000
vt -0.000000 -0.148589 0.000000
vt -0.000000 -0.140098 0.000000
vt -0.000000 -0.131607 0.000000
vt -0.000000 -0.123116 0.000000
vt 0.000000 -0.114626 0.000000
vt 0.000000 -0.106135 0.000000
vt 0.000000 -0.097644 0.000000
vt 0.000000 -0.089153 0.000000
vt 0.000000 -0.080663 0.000000
vt 0.000000 -0.072172 0.000000
vt 0.000000 -0.063681 0.000000
vt 0.000000 -0.055190 0.000000
vt 0.000000 -0.046699 0.000000
vt 0.000000 -0.038209 0.000000
vt 0.000000 -0.029718 0.000000
vt 0.000000 -0.021227 0.000000
vt 0.000000 -0.012736 0.000000
vt 0.000000 -0.004245 0.000000
vt 0.000000 0.004245 0.000000
vt 0.000000 0.012736 0.000000
vt 0.000000 0.021227 0.000000
vt 0.000000 0.029718 0.000000
vt 0.000000 0.038209 0.000000
vt -0.000000 0.046699 0.000000
vt -0.000000 0.055190 0.000000
vt -0.000000 0.063681 0.000000
vt -0.000000 0.072172 0.000000
vt -0.000000 0.080663 0.000000
vt -0.000000 0.089153 0.000000
vt -0.000000 0.097644 0.000000
vt -0.000000 0.106135 0.000000
vt -0.000000 0.114626 0.000000
vt -0.000000 0.123116 0.000000
vt -0.000000 0.131607 0.000000
vt -0.000000 0.140098 0.000000
vt 0.000000 0.000000 0.000000
vt 0.056569 -0.000000 0.000000
vt -0.000000 0.250000 0.000000
vt 0.056569 0.250000 0.000000
vt -0.000000 0.000000 0.000000
vt 0.170000 -0.000000 0.000000
vt 0.000000 0.250000 0.000000
vt 0.170000 0.250000 0.000000
vt 0.000000 0.000000 0.000000
vt 0.056569 0.000000 0.000000
vt -0.000000 0.250000 0.000000
vt 0.056569 0.250000 0.000000
vt 0.000000 0.000000 0.000000
vt 0.170000 0.000000 0.000000
vt -0.000000 0.250000 0.000000
vt 0.170000 0.250000 0.000000
vt 0.000000 0.000000 0.000000
vt 0.056569 0.000000 0.000000
vt -0.000000 0.250000 0.000000
vt 0.056569 0.250000 0.000000
vt 0.000000 0.000000 0.000000
vt 0.170000 0.000000 0.000000
vt 0.000000 0.250000 0.000000
vt 0.170000 0.250000 0.000000
vt 0.000000 0.000000 0.000000
vt 0.056569 -0.000000 0.000000
vt -0.000000 0.250000 0.000000
vt 0.056569 0.250000 0.000000
vt 0.000000 0.000000 0.000000
vt 0.170000 -0.000000 0.000000
vt 0.000000 0.250000 0.000000
vt 0.170000 0.250000 0.000000
vt -0.049281 0.008450 0.000000
vt -0.125000 0.085000 0.000000
vt -0.050000 0.000000 0.000000
vt -0.125000 -0.085000 0.000000
vt -0.049281 -0.008450 0.000000
vt -0.047144 -0.016657 0.000000
vt -0.043651 -0.024385 0.000000
vt -0.038902 -0.031411 0.000000
vt -0.033034 -0.037534 0.000000
vt -0.085000 -0.125000 0.000000
vt -0.026215 -0.042576 0.000000
vt -0.018643 -0.046394 0.000000
vt -0.010534 -0.048878 0.000000
vt -0.002122 -0.049955 0.000000
vt 0.085000 -0.125000 0.000000
vt 0.006351 -0.049595 0.000000
vt 0.014641 -0.047808 0.000000
vt 0.022510 -0.044646 0.000000
vt 0.029732 -0.040200 0.000000
vt 0.036098 -0.034597 0.000000
vt 0.125000 -0.085000 0.000000
vt 0.041425 -0.027999 0.000000
vt 0.045561 -0.020595 0.000000
vt 0.048387 -0.012599 0.000000
vt 0.049820 -0.004240 0.000000
vt 0.049820 0.004240 0.000000
vt 0.125000 0.085000 0.000000
vt 0.048387 0.012599 0.000000
vt 0.045561 0.020595 0.000000
vt 0.041425 0.027999 0.000000
vt 0.036098 0.034597 0.000000
vt 0.085000 0.125000 0.000000
vt 0.029732 0.040200 0.000000
vt 0.022510 0.044646 0.000000
vt 0.014641 0.047808 0.000000
vt 0.006351 0.049595 0.000000
vt -0.002122 0.049955 0.000000
vt -0.085000 0.125000 0.000000
vt -0.010534 0.048878 0.000000
vt -0.018643 0.046394 0.000000
vt -0.026215 0.042576 0.000000
vt -0.033034 0.037534 0.000000
vt -0.038902 0.031411 0.000000
vt -0.043651 0.024385 0.000000
vt -0.047144 0.016657 0.000000
vt 0.049281 -0.008450 0.000000
vt 0.125000 -0.085000 0.000000
vt 0.050000 0.000000 0.000000
vt 0.125000 0.085000 0.000000
vt 0.049281 0.008450 0.000000
vt 0.047144 0.016657 0.000000
vt 0.043651 0.024385 0.000000
vt 0.038902 0.031411 0.000000
vt 0.033034 0.037534 0.000000
vt 0.085000 0.125000 0.000000
vt 0.026215 0.042576 0.000000
vt 0.018643 0.046394 0.000000
vt 0.010534 0.048878 0.000000
vt 0.002122 0.049955 0.000000
vt -0.085000 0.125000 0.000000
vt -0.006351 0.049595 0.000000
vt -0.014641 0.047808 0.000000
vt -0.022510 0.044646 0.000000
vt -0.029732 0.040200 0.000000
vt -0.036098 0.034597 0.000000
vt -0.125000 0.085000 0.000000
vt -0.041425 0.027999 0.000000
vt -0.045561 0.020595 0.000000
vt -0.048387 0.012599 0.000000
vt -0.049820 0.004240 0.000000
vt -0.125000 -0.085000 0.000000
vt -0.049820 -0.004240 0.000000
vt -0.048387 -0.012599 0.000000
vt -0.045561 -0.020595 0.000000
vt -0.041425 -0.027999 0.000000
vt -0.036098 -0.034597 0.000000
vt -0.085000 -0.125000 0.000000
vt -0.029732 -0.040200 0.000000
vt -0.022510 -0.044646 0.000000
vt -0.014641 -0.047808 0.000000
vt -0.006351 -0.049595 0.000000
vt 0.002122 -0.049955 0.000000
vt 0.085000 -0.125000 0.000000
vt 0.010534 -0.048878 0.000000
vt 0.018643 -0.046394 0.000000
vt 0.026215 -0.042576 0.000000
vt 0.033034 -0.037534 0.000000
vt 0.038902 -0.031411 0.000000
vt 0.043651 -0.024385 0.000000
vt 0.047144 -0.016657 0.000000
vn 0.000000 0.091854 -0.995772
vn 0.000000 0.091854 -0.995772
vn 0.000000 0.258819 -0.965926
vn 0.000000 0.258819 -0.965926
vn 0.000000 0.418338 -0.908291
vn 0.000000 0.418338 -0.908291
vn 0.000000 0.565823 -0.824527
vn 0.000000 0.565823 -0.824527
vn 0.000000 0.697030 -0.717042
vn 0.000000 0.697030 -0.717042
vn 0.000000 0.808184 -0.588930
vn 0.000000 0.808184 -0.588930
vn 0.000000 0.896089 -0.443874
vn 0.000000 0.896089 -0.443874
vn 0.000000 0.958215 -0.286050
vn 0.000000 0.958215 -0.286050
vn 0.000000 0.992774 -0.119996
vn 0.000000 0.992774 -0.119996
vn 0.000000 0.998774 0.049509
vn 0.000000 0.998774 0.049509
vn 0.000000 0.976040 0.217591
vn 0.000000 0.976040 0.217591
vn 0.000000 0.925228 0.379413
vn 0.000000 0.925228 0.379413
vn 0.000000 0.847798 0.530319
vn 0.000000 0.847798 0.530319
vn 0.000000 0.745979 0.665970
vn 0.000000 0.745979 0.665970
vn 0.000000 0.622699 0.782461
vn 0.000000 0.622699 0.782461
vn -0.000000 0.481506 0.876443
vn -0.000000 0.481506 0.876443
vn -0.000000 0.326460 0.945211
vn -0.000000 0.326460 0.945211
vn -0.000000 0.162023 0.986787
vn -0.000000 0.162023 0.986787
vn -0.000000 -0.007076 0.999975
vn -0.000000 -0.007076 0.999975
vn -0.000000 -0.175970 0.984395
vn -0.000000 -0.175970 0.984395
vn -0.000000 -0.339803 0.940497
vn -0.000000 -0.339803 0.940497
vn -0.000000 -0.493860 0.869542
vn -0.000000 -0.493860 0.869542
vn -0.000000 -0.633709 0.773571
vn -0.000000 -0.633709 0.773571
vn -0.000000 -0.755328 0.655347
vn -0.000000 -0.755328 0.655347
vn -0.000000 -0.855218 0.518269
vn -0.000000 -0.855218 0.518269
vn -0.000000 -0.930504 0.366282
vn -0.000000 -0.930504 0.366282
vn -0.000000 -0.979021 0.203757
vn -0.000000 -0.979021 0.203757
vn -0.000000 -0.999374 0.035371
vn -0.000000 -0.999374 0.035371
vn -0.000000 -0.990977 -0.134033
vn -0.000000 -0.990977 -0.134033
vn -0.000000 -0.954071 -0.299581
vn -0.000000 -0.954071 -0.299581
vn -0.000000 -0.889718 -0.456510
vn -0.000000 -0.889718 -0.456510
vn -0.000000 -0.799770 -0.600307
vn -0.000000 -0.799770 -0.600307
vn -0.000000 -0.686813 -0.726834
vn -0.000000 -0.686813 -0.726834
vn -0.000000 -0.554099 -0.832451
vn -0.000000 -0.554099 -0.832451
vn 0.000000 -0.405443 -0.914120
vn 0.000000 -0.405443 -0.914120
vn 0.000000 -0.245124 -0.969492
vn 0.000000 -0.245124 -0.969492
vn 0.000000 -0.077754 -0.996973
vn 0.000000 -0.077754 -0.996973
vn 0.000000 0.418338 -0.908291
vn 0.000000 0.258819 -0.965926
vn 0.000000 0.091854 -0.995772
vn 0.000000 -0.077754 -0.996973
vn 0.000000 -0.245124 -0.969492
vn 0.000000 -0.405443 -0.914120
vn -0.000000 -0.554099 -0.832451
vn -0.000000 -0.686813 -0.726834
vn -0.000000 -0.799770 -0.600307
vn -0.000000 -0.889718 -0.456510
vn -0.000000 -0.954071 -0.299581
vn -0.000000 -0.990977 -0.134033
vn -0.000000 -0.999374 0.035371
vn -0.000000 -0.979021 0.203757
vn -0.000000 -0.930504 0.366282
vn -0.000000 -0.855218 0.518269
vn -0.000000 -0.755328 0.655347
vn -0.000000 -0.633709 0.773571
vn -0.000000 -0.493860 0.869542
vn -0.000000 -0.339803 0.940497
vn -0.000000 -0.175970 0.984395
vn -0.000000 -0.007076 0.999975
vn -0.000000 0.162023 0.986787
vn -0.000000 0.326460 0.945211
vn -0.000000 0.481506 0.876443
vn 0.000000 0.622699 0.782461
vn 0.000000 0.745979 0.665970
vn 0.000000 0.847798 0.530319
vn 0.000000 0.925228 0.379413
vn 0.000000 0.976040 0.217591
vn 0.000000 0.998774 0.049509
vn 0.000000 0.992774 -0.119996
vn 0.000000 0.958215 -0.286050
vn 0.000000 0.896089 -0.443874
vn 0.000000 0.808184 -0.588930
vn 0.000000 0.697030 -0.717042
vn 0.000000 0.565823 -0.824527
vn 0.000000 -0.500000 -0.866025
vn 0.000000 -0.500000 -0.866025
vn 0.000000 -0.500000 -0.866025
vn 0.000000 -0.500000 -0.866025
vn 0.000000 0.258819 -0.965926
vn 0.000000 0.258819 -0.965926
vn 0.000000 0.258819 -0.965926
vn 0.000000 0.258819 -0.965926
vn 0.000000 0.866025 -0.500000
vn 0.000000 0.866025 -0.500000
vn 0.000000 0.866025 -0.500000
vn 0.000000 0.866025 -0.500000
vn 0.000000 0.965926 0.258819
vn 0.000000 0.965926 0.258819
vn 0.000000 0.965926 0.258819
vn 0.000000 0.965926 0.258819
vn -0.000000 0.500000 0.866025
vn -0.000000 0.500000 0.866025
vn -0.000000 0.500000 0.866025
vn -0.000000 0.500000 0.866025
vn -0.000000 -0.258819 0.965926
vn -0.000000 -0.258819 0.965926
vn -0.000000 -0.258819 0.965926
vn -0.000000 -0.258819 0.965926
vn -0.000000 -0.866025 0.500000
vn -0.000000 -0.866025 0.500000
vn -0.000000 -0.866025 0.500000
vn -0.000000 -0.866025 0.500000
vn -0.000000 -0.965926 -0.258819
vn -0.000000 -0.965926 -0.258819
vn -0.000000 -0.965926 -0.258819
vn -0.000000 -0.965926 -0.258819
vn -1.000000 0.000000 -0.000000
vn -1.000000 0.000000 -0.000000
vn -1.000000 0.000000 -0.000000
vn -1.000000 0.000000 -0.000000
vn -1.000000 0.000000 -0.000000
vn -1.000000 0.000000 -0.000000
vn -1.000000 0.000000 -0.000000
vn -1.000000 0.000000 -0.000000
vn -1.000000 0.000000 -0.000000
vn -1.000000 0.000000 -0.000000
vn -1.000000 0.000000 -0.000000
vn -1.000000 0.000000 -0.000000
vn -1.000000 0.000000 -0.000000
vn -1.000000 0.000000 -0.000000
vn -1.000000 0.000000 -0.000000
vn -1.000000 0.000000 -0.000000
vn -1.000000 0.000000 -0.000000
vn -1.000000 0.000000 -0.000000
vn -1.000000 0.000000 -0.000000
vn -1.000000 0.000000 -0.000000
vn -1.000000 0.000000 -0.000000
vn -1.000000 0.000000 -0.000000
vn -1.000000 0.000000 -0.000000
vn -1.000000 0.000000 -0.000000
vn -1.000000 0.000000 -0.000000
vn -1.000000 0.000000 -0.000000
vn -1.000000 0.000000 -0.000000
vn -1.000000 0.000000 -0.000000
vn -1.000000 0.000000 -0.000000
vn -1.000000 0.000000 -0.000000
vn -1.000000 0.000000 -0.000000
vn -1.000000 0.000000 -0.000000
vn -1.000000 0.000000 -0.000000
vn -1.000000 0.000000 -0.000000
vn -1.000000 0.000000 -0.000000
vn -1.000000 0.000000 -0.000000
vn -1.000000 0.000000 -0.000000
vn -1.000000 0.000000 -0.000000
vn -1.000000 0.000000 -0.000000
vn -1.000000 0.000000 -0.000000
vn -1.000000 0.000000 -0.000000
vn -1.000000 0.000000 -0.000000
vn -1.000000 0.000000 -0.000000
vn -1.000000 0.000000 -0.000000
vn -1.000000 0.000000 -0.000000
vn 1.000000 -0.000000 0.000000
vn 1.000000 -0.000000 0.000000
vn 1.000000 -0.000000 0.000000
vn 1.000000 -0.000000 0.000000
vn 1.000000 -0.000000 0.000000
vn 1.000000 -0.000000 0.000000
vn 1.000000 -0.000000 0.000000
vn 1.000000 -0.000000 0.000000
vn 1.000000 -0.000000 0.000000
vn 1.000000 -0.000000 0.000000
vn 1.000000 -0.000000 0.000000
vn 1.000000 -0.000000 0.000000
vn 1.000000 -0.000000 0.000000
vn 1.000000 -0.000000 0.000000
vn 1.000000 -0.000000 0.000000
vn 1.000000 -0.000000 0.000000
vn 1.000000 -0.000000 0.000000
vn 1.000000 -0.000000 0.000000
vn 1.000000 -0.000000 0.000000
vn 1.000000 -0.000000 0.000000
vn 1.000000 -0.000000 0.000000
vn 1.000000 -0.000000 0.000000
vn 1.000000 -0.000000 0.000000
vn 1.000000 -0.000000 0.000000
vn 1.000000 -0.000000 0.000000
vn 1.000000 -0.000000 0.000000
vn 1.000000 -0.000000 0.000000
vn 1.000000 -0.000000 0.000000
vn 1.000000 -0.000000 0.000000
vn 1.000000 -0.000000 0.000000
vn 1.000000 -0.000000 0.000000
vn 1.000000 -0.000000 0.000000
vn 1.000000 -0.000000 0.000000
vn 1.000000 -0.000000 0.000000
vn 1.000000 -0.000000 0.000000
vn 1.000000 -0.000000 0.000000
vn 1.000000 -0.000000 0.000000
vn 1.000000 -0.000000 0.000000
vn 1.000000 -0.000000 0.000000
vn 1.000000 -0.000000 0.000000
vn 1.000000 -0.000000 0.000000
vn 1.000000 -0.000000 0.000000
vn 1.000000 -0.000000 0.000000
vn 1.000000 -0.000000 0.000000
vn 1.000000 -0.000000 0.000000
usemtl Polycarbonate_(Clear)
f 2/1/1 76/2/2 1/3/3
f 1/3/3 76/2/2 75/4/4
f 1/5/3 75/6/4 37/7/5
f 37/7/5 75/6/4 111/8/6
f 37/7/5 111/8/6 36/9/7
f 36/9/7 111/8/6 110/10/8
f 36/9/7 110/10/8 35/11/9
f 35/11/9 110/10/8 109/12/10
f 35/11/9 109/12/10 34/13/11
f 34/13/11 109/12/10 108/14/12
f 34/13/11 108/14/12 33/15/13
f 33/15/13 108/14/12 107/16/14
f 33/15/13 107/16/14 32/17/15
f 32/17/15 107/16/14 106/18/16
f 32/17/15 106/18/16 31/19/17
f 31/19/17 106/18/16 105/20/18
f 31/19/17 105/20/18 30/21/19
f 30/21/19 105/20/18 104/22/20
f 30/21/19 104/22/20 29/23/21
f 29/23/21 104/22/20 103/24/22
f 29/23/21 103/24/22 28/25/23
f 28/25/23 103/24/22 102/26/24
f 28/25/23 102/26/24 27/27/25
f 27/27/25 102/26/24 101/28/26
f 27/27/25 101/28/26 26/29/27
f 26/29/27 101/28/26 100/30/28
f 26/29/27 100/30/28 25/31/29
f 25/31/29 100/30/28 99/32/30
f 25/31/29 99/32/30 24/33/31
f 24/33/31 99/32/30 98/34/32
f 24/33/31 98/34/32 23/35/33
f 23/35/33 98/34/32 97/36/34
f 23/35/33 97/36/34 22/37/35
f 22/37/35 97/36/34 96/38/36
f 22/37/35 96/38/36 21/39/37
f 21/39/37 96/38/36 95/40/38
f 21/39/37 95/40/38 20/41/39
f 20/41/39 95/40/38 94/42/40
f 20/41/39 94/42/40 19/43/41
f 19/43/41 94/42/40 93/44/42
f 19/43/41 93/44/42 18/45/43
f 18/45/43 93/44/42 92/46/44
f 18/45/43 92/46/44 17/47/45
f 17/47/45 92/46/44 91/48/46
f 17/47/45 91/48/46 16/49/47
f 16/49/47 91/48/46 90/50/48
f 16/49/47 90/50/48 15/51/49
f 15/51/49 90/50/48 89/52/50
f 15/51/49 89/52/50 14/53/51
f 14/53/51 89/52/50 88/54/52
f 14/53/51 88/54/52 13/55/53
f 13/55/53 88/54/52 87/56/54
f 13/55/53 87/56/54 12/57/55
f 12/57/55 87/56/54 86/58/56
f 12/57/55 86/58/56 11/59/57
f 11/59/57 86/58/56 85/60/58
f 11/59/57 85/60/58 10/61/59
f 10/61/59 85/60/58 84/62/60
f 10/61/59 84/62/60 9/63/61
f 9/63/61 84/62/60 83/64/62
f 9/63/61 83/64/62 8/65/63
f 8/65/63 83/64/62 82/66/64
f 8/65/63 82/66/64 7/67/65
f 7/67/65 82/66/64 81/68/66
f 7/67/65 81/68/66 6/69/67
f 6/69/67 81/68/66 80/70/68
f 6/69/67 80/70/68 5/71/69
f 5/71/69 80/70/68 79/72/70
f 5/71/69 79/72/70 4/73/71
f 4/73/71 79/72/70 78/74/72
f 4/73/71 78/74/72 3/75/73
f 3/75/73 78/74/72 77/76/74
f 3/75/73 77/76/74 2/1/1
f 2/1/1 77/76/74 76/2/2
f 39/77/75 111/8/6 38/78/76
f 38/78/76 111/8/6 75/6/4
f 38/79/76 75/4/4 74/80/77
f 74/80/77 75/4/4 76/2/2
f 74/80/77 76/2/2 73/81/78
f 73/81/78 76/2/2 77/76/74
f 73/81/78 77/76/74 72/82/79
f 72/82/79 77/76/74 78/74/72
f 72/82/79 78/74/72 71/83/80
f 71/83/80 78/74/72 79/72/70
f 71/83/80 79/72/70 70/84/81
f 70/84/81 79/72/70 80/70/68
f 70/84/81 80/70/68 69/85/82
f 69/85/82 80/70/68 81/68/66
f 69/85/82 81/68/66 68/86/83
f 68/86/83 81/68/66 82/66/64
f 68/86/83 82/66/64 67/87/84
f 67/87/84 82/66/64 83/64/62
f 67/87/84 83/64/62 66/88/85
f 66/88/85 83/64/62 84/62/60
f 66/88/85 84/62/60 65/89/86
f 65/89/86 84/62/60 85/60/58
f 65/89/86 85/60/58 64/90/87
f 64/90/87 85/60/58 86/58/56
f 64/90/87 86/58/56 63/91/88
f 63/91/88 86/58/56 87/56/54
f 63/91/88 87/56/54 62/92/89
f 62/92/89 87/56/54 88/54/52
f 62/92/89 88/54/52 61/93/90
f 61/93/90 88/54/52 89/52/50
f 61/93/90 89/52/50 60/94/91
f 60/94/91 89/52/50 90/50/48
f 60/94/91 90/50/48 59/95/92
f 59/95/92 90/50/48 91/48/46
f 59/95/92 91/48/46 58/96/93
f 58/96/93 91/48/46 92/46/44
f 58/96/93 92/46/44 57/97/94
f 57/97/94 92/46/44 93/44/42
f 57/97/94 93/44/42 56/98/95
f 56/98/95 93/44/42 94/42/40
f 56/98/95 94/42/40 55/99/96
f 55/99/96 94/42/40 95/40/38
f 55/99/96 95/40/38 54/100/97
f 54/100/97 95/40/38 96/38/36
f 54/100/97 96/38/36 53/101/98
f 53/101/98 96/38/36 97/36/34
f 53/101/98 97/36/34 52/102/99
f 52/102/99 97/36/34 98/34/32
f 52/102/99 98/34/32 51/103/100
f 51/103/100 98/34/32 99/32/30
f 51/103/100 99/32/30 50/104/101
f 50/104/101 99/32/30 100/30/28
f 50/104/101 100/30/28 49/105/102
f 49/105/102 100/30/28 101/28/26
f 49/105/102 101/28/26 48/106/103
f 48/106/103 101/28/26 102/26/24
f 48/106/103 102/26/24 47/107/104
f 47/107/104 102/26/24 103/24/22
f 47/107/104 103/24/22 46/108/105
f 46/108/105 103/24/22 104/22/20
f 46/108/105 104/22/20 45/109/106
f 45/109/106 104/22/20 105/20/18
f 45/109/106 105/20/18 44/110/107
f 44/110/107 105/20/18 106/18/16
f 44/110/107 106/18/16 43/111/108
f 43/111/108 106/18/16 107/16/14
f 43/111/108 107/16/14 42/112/109
f 42/112/109 107/16/14 108/14/12
f 42/112/109 108/14/12 41/113/110
f 41/113/110 108/14/12 109/12/10
f 41/113/110 109/12/10 40/114/111
f 40/114/111 109/12/10 110/10/8
f 40/114/111 110/10/8 39/77/75
f 39/77/75 110/10/8 111/8/6
f 112/115/112 113/116/113 115/117/114
f 115/117/114 113/116/113 114/118/115
f 116/119/116 112/120/117 117/121/118
f 117/121/118 112/120/117 115/122/119
f 118/123/120 116/124/121 119/125/122
f 119/125/122 116/124/121 117/126/123
f 120/127/124 118/128/125 121/129/126
f 121/129/126 118/128/125 119/130/127
f 122/131/128 120/132/129 123/133/130
f 123/133/130 120/132/129 121/134/131
f 124/135/132 122/136/133 125/137/134
f 125/137/134 122/136/133 123/138/135
f 126/139/136 124/140/137 127/141/138
f 127/141/138 124/140/137 125/142/139
f 113/143/140 126/144/141 114/145/142
f 114/145/142 126/144/141 127/146/143
f 37/147/144 125/148/145 1/149/146
f 1/149/146 125/148/145 123/150/147
f 1/149/146 123/150/147 2/151/148
f 2/151/148 123/150/147 3/152/149
f 3/152/149 123/150/147 4/153/150
f 4/153/150 123/150/147 5/154/151
f 5/154/151 123/150/147 6/155/152
f 6/155/152 123/150/147 121/156/153
f 6/155/152 121/156/153 7/157/154
f 7/157/154 121/156/153 8/158/155
f 8/158/155 121/156/153 9/159/156
f 9/159/156 121/156/153 10/160/157
f 10/160/157 121/156/153 119/161/158
f 10/160/157 119/161/158 11/162/159
f 11/162/159 119/161/158 12/163/160
f 12/163/160 119/161/158 13/164/161
f 13/164/161 119/161/158 14/165/162
f 14/165/162 119/161/158 15/166/163
f 15/166/163 119/161/158 117/167/164
f 15/166/163 117/167/164 16/168/165
f 16/168/165 117/167/164 17/169/166
f 17/169/166 117/167/164 18/170/167
f 18/170/167 117/167/164 19/171/168
f 19/171/168 117/167/164 20/172/169
f 20/172/169 117/167/164 115/173/170
f 20/172/169 115/173/170 21/174/171
f 21/174/171 115/173/170 22/175/172
f 22/175/172 115/173/170 23/176/173
f 23/176/173 115/173/170 24/177/174
f 24/177/174 115/173/170 114/178/175
f 24/177/174 114/178/175 25/179/176
f 25/179/176 114/178/175 26/180/177
f 26/180/177 114/178/175 27/181/178
f 27/181/178 114/178/175 28/182/179
f 28/182/179 114/178/175 29/183/180
f 29/183/180 114/178/175 127/184/181
f 29/183/180 127/184/181 30/185/182
f 30/185/182 127/184/181 31/186/183
f 31/186/183 127/184/181 32/187/184
f 32/187/184 127/184/181 33/188/185
f 33/188/185 127/184/181 125/148/145
f 33/188/185 125/148/145 34/189/186
f 34/189/186 125/148/145 35/190/187
f 35/190/187 125/148/145 36/191/188
f 36/191/188 125/148/145 37/147/144
f 74/192/189 122/193/190 38/194/191
f 38/194/191 122/193/190 124/195/192
f 38/194/191 124/195/192 39/196/193
f 39/196/193 124/195/192 40/197/194
f 40/197/194 124/195/192 41/198/195
f 41/198/195 124/195/192 42/199/196
f 42/199/196 124/195/192 43/200/197
f 43/200/197 124/195/192 126/201/198
f 43/200/197 126/201/198 44/202/199
f 44/202/199 126/201/198 45/203/200
f 45/203/200 126/201/198 46/204/201
f 46/204/201 126/201/198 47/205/202
f 47/205/202 126/201/198 113/206/203
f 47/205/202 113/206/203 48/207/204
f 48/207/204 113/206/203 49/208/205
f 49/208/205 113/206/203 50/209/206
f 50/209/206 113/206/203 51/210/207
f 51/210/207 113/206/203 52/211/208
f 52/211/208 113/206/203 112/212/209
f 52/211/208 112/212/209 53/213/210
f 53/213/210 112/212/209 54/214/211
f 54/214/211 112/212/209 55/215/212
f 55/215/212 112/212/209 56/216/213
f 56/216/213 112/212/209 116/217/214
f 56/216/213 116/217/214 57/218/215
f 57/218/215 116/217/214 58/219/216
f 58/219/216 116/217/214 59/220/217
f 59/220/217 116/217/214 60/221/218
f 60/221/218 116/217/214 61/222/219
f 61/222/219 116/217/214 118/223/220
f 61/222/219 118/223/220 62/224/221
f 62/224/221 118/223/220 63/225/222
f 63/225/222 118/223/220 64/226/223
f 64/226/223 118/223/220 65/227/224
f 65/227/224 118/223/220 66/228/225
f 66/228/225 118/223/220 120/229/226
f 66/228/225 120/229/226 67/230/227
f 67/230/227 120/229/226 68/231/228
f 68/231/228 120/229/226 69/232/229
f 69/232/229 120/229/226 70/233/230
f 70/233/230 120/229/226 122/193/190
f 70/233/230 122/193/190 71/234/231
f 71/234/231 122/193/190 72/235/232
f 72/235/232 122/193/190 73/236/233
f 73/236/233 122/193/190 74/192/189
# 127 vertices
# 236 texture params
# 233 normals
# 254 facets

# 1 groups
