# WaveFront *.obj file (generated by Autodesk ATF)

mtllib body21_visual.mtl

g Body21

v -27.114312 1.232963 -2.456265
v -27.546812 1.232963 -2.456265
v -27.546812 1.214716 -2.388167
v -27.114312 1.214716 -2.388167
v -27.114312 1.164488 -2.401626
v -27.114312 1.182734 -2.469724
v -27.546812 1.164488 -2.401626
v -27.546812 1.182734 -2.469724
v -27.761812 0.515385 -2.575552
v -27.861812 0.515385 -2.575552
v -27.861812 0.533632 -2.643650
v -27.761812 0.533632 -2.643650
v -27.554904 1.163130 -2.401990
v -27.562049 1.159217 -2.403038
v -27.567409 1.153206 -2.404649
v -27.570357 1.145801 -2.406633
v -27.570357 1.164048 -2.474731
v -27.567409 1.171452 -2.472747
v -27.562049 1.177463 -2.471136
v -27.554904 1.181377 -2.470087
v -27.861812 0.565614 -2.562094
v -27.861812 0.583860 -2.630191
v -27.687255 0.574561 -2.559696
v -27.691567 0.560773 -2.563391
v -27.698584 0.548064 -2.566796
v -27.708035 0.536922 -2.569781
v -27.719556 0.527778 -2.572232
v -27.732704 0.520983 -2.574052
v -27.746972 0.516799 -2.575174
v -27.746972 0.535045 -2.643271
v -27.732704 0.539230 -2.642150
v -27.719556 0.546025 -2.640329
v -27.708035 0.555169 -2.637879
v -27.698584 0.566310 -2.634894
v -27.691567 0.579019 -2.631489
v -27.687255 0.592807 -2.627794
v -27.761812 0.583860 -2.630191
v -27.761812 0.565614 -2.562094
v -27.621369 1.155541 -2.404023
v -27.738268 0.584300 -2.557087
v -27.741216 0.576896 -2.559071
v -27.746576 0.570885 -2.560681
v -27.753720 0.566971 -2.561730
v -27.561652 1.213303 -2.388546
v -27.575920 1.209118 -2.389667
v -27.589068 1.202323 -2.391488
v -27.600589 1.193179 -2.393938
v -27.610040 1.182038 -2.396923
v -27.617057 1.169329 -2.400329
v -27.561652 1.231550 -2.456644
v -27.575920 1.227365 -2.457765
v -27.589068 1.220570 -2.459586
v -27.600589 1.211426 -2.462036
v -27.610040 1.200285 -2.465021
v -27.617057 1.187575 -2.468427
v -27.621369 1.173787 -2.472121
v -27.753720 0.585218 -2.629828
v -27.746576 0.589131 -2.628779
v -27.741216 0.595142 -2.627168
v -27.738268 0.602547 -2.625184
vt 0.432500 0.070500 0.000000
vt -0.000000 0.070500 0.000000
vt 0.432500 0.000000 0.000000
vt 0.000000 0.000000 0.000000
vt -0.157000 1.101750 0.000000
vt -0.105000 1.101750 0.000000
vt -0.157000 1.172250 0.000000
vt -0.105000 1.172250 0.000000
vt 0.000000 0.000000 0.000000
vt -0.070500 0.000000 0.000000
vt -0.000000 -0.432500 0.000000
vt -0.070500 -0.432500 0.000000
vt 0.000000 0.000000 0.000000
vt -0.070500 0.000000 0.000000
vt -0.000000 -0.100000 0.000000
vt -0.070500 -0.100000 0.000000
vt 0.162250 -0.075398 0.000000
vt 0.091750 -0.075398 0.000000
vt 0.162250 -0.083652 0.000000
vt 0.091750 -0.083652 0.000000
vt 0.162250 -0.091906 0.000000
vt 0.091750 -0.091906 0.000000
vt 0.162250 -0.100160 0.000000
vt 0.091750 -0.100160 0.000000
vt 0.162250 -0.108414 0.000000
vt 0.091750 -0.108414 0.000000
vt 0.105000 1.101750 0.000000
vt 0.157000 1.101750 0.000000
vt 0.105000 1.172250 0.000000
vt 0.157000 1.172250 0.000000
vt 0.162250 -0.134212 0.000000
vt 0.091750 -0.134212 0.000000
vt 0.162250 -0.149148 0.000000
vt 0.091750 -0.149148 0.000000
vt 0.162250 -0.164083 0.000000
vt 0.091750 -0.164083 0.000000
vt 0.162250 -0.179019 0.000000
vt 0.091750 -0.179019 0.000000
vt 0.162250 -0.193954 0.000000
vt 0.091750 -0.193954 0.000000
vt 0.162250 -0.208890 0.000000
vt 0.091750 -0.208890 0.000000
vt 0.162250 -0.223825 0.000000
vt 0.091750 -0.223825 0.000000
vt 0.162250 -0.238761 0.000000
vt 0.091750 -0.238761 0.000000
vt -0.602834 -0.000000 0.000000
vt -0.000000 0.000000 0.000000
vt -0.602834 0.070500 0.000000
vt -0.000000 0.070500 0.000000
vt 0.100000 0.070500 0.000000
vt -0.000000 0.070500 0.000000
vt 0.100000 -0.000000 0.000000
vt 0.000000 0.000000 0.000000
vt 0.615749 -0.070198 0.000000
vt 0.601475 -0.065885 0.000000
vt 0.591391 -0.116898 0.000000
vt 0.010084 0.051013 0.000000
vt 0.000000 0.000000 0.000000
vt -0.014274 0.004313 0.000000
vt 0.002418 0.053961 0.000000
vt -0.027432 0.011330 0.000000
vt -0.003806 0.059321 0.000000
vt -0.038966 0.020780 0.000000
vt -0.048433 0.032302 0.000000
vt -0.007857 0.066465 0.000000
vt -0.055467 0.045449 0.000000
vt -0.059800 0.059718 0.000000
vt -0.009263 0.074557 0.000000
vt -0.061263 0.074557 0.000000
vt -0.061263 0.174557 0.000000
vt -0.009263 0.174557 0.000000
vt 0.599057 -0.119846 0.000000
vt 0.628907 -0.077215 0.000000
vt 0.605281 -0.125206 0.000000
vt 0.640441 -0.086666 0.000000
vt 0.649907 -0.098187 0.000000
vt 0.609332 -0.132350 0.000000
vt 0.656942 -0.111335 0.000000
vt 0.661275 -0.125603 0.000000
vt 0.610737 -0.140443 0.000000
vt 0.662737 -0.140443 0.000000
vt 0.662737 -0.572943 0.000000
vt 0.610737 -0.572943 0.000000
vt -0.091750 -0.238761 0.000000
vt -0.162250 -0.238761 0.000000
vt -0.091750 -0.253697 0.000000
vt -0.162250 -0.253697 0.000000
vt -0.091750 -0.268632 0.000000
vt -0.162250 -0.268632 0.000000
vt -0.091750 -0.283568 0.000000
vt -0.162250 -0.283568 0.000000
vt -0.091750 -0.298503 0.000000
vt -0.162250 -0.298503 0.000000
vt -0.091750 -0.313439 0.000000
vt -0.162250 -0.313439 0.000000
vt -0.091750 -0.328375 0.000000
vt -0.162250 -0.328375 0.000000
vt -0.091750 -0.343310 0.000000
vt -0.162250 -0.343310 0.000000
vt 0.000000 0.000000 0.000000
vt 0.051013 0.010084 0.000000
vt -0.116898 0.591391 0.000000
vt -0.065885 0.601475 0.000000
vt -0.070198 0.615749 0.000000
vt 0.004313 -0.014274 0.000000
vt 0.053961 0.002418 0.000000
vt 0.011330 -0.027432 0.000000
vt 0.059321 -0.003806 0.000000
vt 0.020780 -0.038966 0.000000
vt 0.032302 -0.048433 0.000000
vt 0.066465 -0.007857 0.000000
vt 0.045449 -0.055467 0.000000
vt 0.059718 -0.059800 0.000000
vt 0.074557 -0.009263 0.000000
vt 0.074557 -0.061263 0.000000
vt 0.174557 -0.061263 0.000000
vt 0.174557 -0.009263 0.000000
vt -0.119846 0.599057 0.000000
vt -0.077215 0.628907 0.000000
vt -0.125206 0.605281 0.000000
vt -0.086666 0.640441 0.000000
vt -0.098187 0.649907 0.000000
vt -0.132350 0.609332 0.000000
vt -0.111335 0.656942 0.000000
vt -0.125603 0.661275 0.000000
vt -0.140443 0.610737 0.000000
vt -0.140443 0.662737 0.000000
vt -0.572943 0.610737 0.000000
vt -0.572943 0.662737 0.000000
vt -0.091750 -0.042383 0.000000
vt -0.162250 -0.042383 0.000000
vt -0.091750 -0.050637 0.000000
vt -0.162250 -0.050637 0.000000
vt -0.091750 -0.058890 0.000000
vt -0.162250 -0.058890 0.000000
vt -0.091750 -0.067144 0.000000
vt -0.162250 -0.067144 0.000000
vt -0.091750 -0.075398 0.000000
vt -0.162250 -0.075398 0.000000
vt 0.070500 -0.000000 0.000000
vt 0.000000 -0.000000 0.000000
vt 0.070500 -0.602834 0.000000
vt -0.000000 -0.602834 0.000000
vn 0.000000 0.965926 0.258819
vn 0.000000 0.965926 0.258819
vn 0.000000 0.965926 0.258819
vn 0.000000 0.965926 0.258819
vn 1.000000 -0.000000 0.000000
vn 1.000000 -0.000000 0.000000
vn 1.000000 -0.000000 0.000000
vn 1.000000 -0.000000 0.000000
vn -0.000000 -0.965926 -0.258819
vn -0.000000 -0.965926 -0.258819
vn -0.000000 -0.965926 -0.258819
vn -0.000000 -0.965926 -0.258819
vn -0.000000 -0.965926 -0.258819
vn -0.000000 -0.965926 -0.258819
vn -0.000000 -0.965926 -0.258819
vn -0.000000 -0.965926 -0.258819
vn 0.337172 -0.909364 -0.243663
vn 0.337172 -0.909364 -0.243663
vn 0.634857 -0.746303 -0.199971
vn 0.634857 -0.746303 -0.199971
vn 0.858191 -0.495840 -0.132860
vn 0.858191 -0.495840 -0.132860
vn 0.981018 -0.187307 -0.050189
vn 0.981018 -0.187307 -0.050189
vn -1.000000 0.000000 -0.000000
vn -1.000000 0.000000 -0.000000
vn -1.000000 0.000000 -0.000000
vn -1.000000 0.000000 -0.000000
vn 0.981018 -0.187307 -0.050189
vn 0.981018 -0.187307 -0.050189
vn 0.924272 -0.368727 -0.098800
vn 0.924272 -0.368727 -0.098800
vn 0.831945 -0.535952 -0.143608
vn 0.831945 -0.535952 -0.143608
vn 0.707591 -0.682545 -0.182887
vn 0.707591 -0.682545 -0.182887
vn 0.555997 -0.802862 -0.215126
vn 0.555997 -0.802862 -0.215126
vn 0.383000 -0.892272 -0.239084
vn 0.383000 -0.892272 -0.239084
vn 0.195258 -0.947334 -0.253837
vn 0.195258 -0.947334 -0.253837
vn 0.000000 0.965926 0.258819
vn 0.000000 0.965926 0.258819
vn 0.000000 0.965926 0.258819
vn 0.000000 0.965926 0.258819
vn -0.000000 -0.258819 0.965926
vn -0.000000 -0.258819 0.965926
vn -0.000000 -0.258819 0.965926
vn -0.000000 -0.258819 0.965926
vn -0.000000 -0.258819 0.965926
vn -0.000000 -0.258819 0.965926
vn -0.000000 -0.258819 0.965926
vn -0.000000 -0.258819 0.965926
vn -0.000000 -0.258819 0.965926
vn -0.000000 -0.258819 0.965926
vn -0.000000 -0.258819 0.965926
vn -0.000000 -0.258819 0.965926
vn -0.000000 -0.258819 0.965926
vn -0.000000 -0.258819 0.965926
vn -0.000000 -0.258819 0.965926
vn -0.000000 -0.258819 0.965926
vn -0.000000 -0.258819 0.965926
vn -0.000000 -0.258819 0.965926
vn -0.000000 -0.258819 0.965926
vn -0.000000 -0.258819 0.965926
vn -0.000000 -0.258819 0.965926
vn -0.000000 -0.258819 0.965926
vn -0.000000 -0.258819 0.965926
vn -0.000000 -0.258819 0.965926
vn -0.000000 -0.258819 0.965926
vn -0.000000 -0.258819 0.965926
vn -0.000000 -0.258819 0.965926
vn -0.000000 -0.258819 0.965926
vn -0.000000 -0.258819 0.965926
vn -0.000000 -0.258819 0.965926
vn -0.195258 0.947334 0.253837
vn -0.195258 0.947334 0.253837
vn -0.383000 0.892272 0.239084
vn -0.383000 0.892272 0.239084
vn -0.555997 0.802862 0.215126
vn -0.555997 0.802862 0.215126
vn -0.707591 0.682545 0.182887
vn -0.707591 0.682545 0.182887
vn -0.831945 0.535952 0.143608
vn -0.831945 0.535952 0.143608
vn -0.924272 0.368727 0.098800
vn -0.924272 0.368727 0.098800
vn -0.981018 0.187307 0.050189
vn -0.981018 0.187307 0.050189
vn 0.000000 0.258819 -0.965926
vn 0.000000 0.258819 -0.965926
vn 0.000000 0.258819 -0.965926
vn 0.000000 0.258819 -0.965926
vn 0.000000 0.258819 -0.965926
vn 0.000000 0.258819 -0.965926
vn 0.000000 0.258819 -0.965926
vn 0.000000 0.258819 -0.965926
vn 0.000000 0.258819 -0.965926
vn 0.000000 0.258819 -0.965926
vn 0.000000 0.258819 -0.965926
vn 0.000000 0.258819 -0.965926
vn 0.000000 0.258819 -0.965926
vn 0.000000 0.258819 -0.965926
vn 0.000000 0.258819 -0.965926
vn 0.000000 0.258819 -0.965926
vn 0.000000 0.258819 -0.965926
vn 0.000000 0.258819 -0.965926
vn 0.000000 0.258819 -0.965926
vn 0.000000 0.258819 -0.965926
vn 0.000000 0.258819 -0.965926
vn 0.000000 0.258819 -0.965926
vn 0.000000 0.258819 -0.965926
vn 0.000000 0.258819 -0.965926
vn 0.000000 0.258819 -0.965926
vn 0.000000 0.258819 -0.965926
vn 0.000000 0.258819 -0.965926
vn 0.000000 0.258819 -0.965926
vn 0.000000 0.258819 -0.965926
vn 0.000000 0.258819 -0.965926
vn -0.981018 0.187307 0.050189
vn -0.981018 0.187307 0.050189
vn -0.858191 0.495840 0.132860
vn -0.858191 0.495840 0.132860
vn -0.634857 0.746303 0.199971
vn -0.634857 0.746303 0.199971
vn -0.337172 0.909364 0.243663
vn -0.337172 0.909364 0.243663
usemtl Opaque(202,209,238)
f 1/1/1 2/2/2 4/3/3
f 4/3/3 2/2/2 3/4/4
f 4/5/5 5/6/6 1/7/7
f 1/7/7 5/6/6 6/8/8
f 7/9/9 8/10/10 5/11/11
f 5/11/11 8/10/10 6/12/12
f 10/13/13 11/14/14 9/15/15
f 9/15/15 11/14/14 12/16/16
f 8/17/10 7/18/9 20/19/17
f 20/19/17 7/18/9 13/20/18
f 20/19/17 13/20/18 19/21/19
f 19/21/19 13/20/18 14/22/20
f 19/21/19 14/22/20 18/23/21
f 18/23/21 14/22/20 15/24/22
f 18/23/21 15/24/22 17/25/23
f 17/25/23 15/24/22 16/26/24
f 10/27/25 21/28/26 11/29/27
f 11/29/27 21/28/26 22/30/28
f 36/31/29 23/32/30 35/33/31
f 35/33/31 23/32/30 24/34/32
f 35/33/31 24/34/32 34/35/33
f 34/35/33 24/34/32 25/36/34
f 34/35/33 25/36/34 33/37/35
f 33/37/35 25/36/34 26/38/36
f 33/37/35 26/38/36 32/39/37
f 32/39/37 26/38/36 27/40/38
f 32/39/37 27/40/38 31/41/39
f 31/41/39 27/40/38 28/42/40
f 31/41/39 28/42/40 30/43/41
f 30/43/41 28/42/40 29/44/42
f 30/43/41 29/44/42 12/45/16
f 12/45/16 29/44/42 9/46/15
f 16/47/24 23/48/30 17/49/23
f 17/49/23 23/48/30 36/50/29
f 37/51/43 22/52/44 38/53/45
f 38/53/45 22/52/44 21/54/46
f 49/55/47 39/56/48 16/57/49
f 16/57/49 39/56/48 40/58/50
f 16/57/49 40/58/50 23/59/51
f 23/59/51 40/58/50 24/60/52
f 24/60/52 40/58/50 41/61/53
f 24/60/52 41/61/53 25/62/54
f 25/62/54 41/61/53 42/63/55
f 25/62/54 42/63/55 26/64/56
f 26/64/56 42/63/55 27/65/57
f 27/65/57 42/63/55 43/66/58
f 27/65/57 43/66/58 28/67/59
f 28/67/59 43/66/58 29/68/60
f 29/68/60 43/66/58 38/69/61
f 29/68/60 38/69/61 9/70/62
f 9/70/62 38/69/61 10/71/63
f 10/71/63 38/69/61 21/72/64
f 16/57/49 15/73/65 49/55/47
f 49/55/47 15/73/65 48/74/66
f 48/74/66 15/73/65 14/75/67
f 48/74/66 14/75/67 47/76/68
f 47/76/68 14/75/67 46/77/69
f 46/77/69 14/75/67 13/78/70
f 46/77/69 13/78/70 45/79/71
f 45/79/71 13/78/70 44/80/72
f 44/80/72 13/78/70 7/81/73
f 44/80/72 7/81/73 3/82/74
f 3/82/74 7/81/73 4/83/75
f 4/83/75 7/81/73 5/84/76
f 3/85/4 2/86/2 44/87/77
f 44/87/77 2/86/2 50/88/78
f 44/87/77 50/88/78 45/89/79
f 45/89/79 50/88/78 51/90/80
f 45/89/79 51/90/80 46/91/81
f 46/91/81 51/90/80 52/92/82
f 46/91/81 52/92/82 47/93/83
f 47/93/83 52/92/82 53/94/84
f 47/93/83 53/94/84 48/95/85
f 48/95/85 53/94/84 54/96/86
f 48/95/85 54/96/86 49/97/87
f 49/97/87 54/96/86 55/98/88
f 49/97/87 55/98/88 39/99/89
f 39/99/89 55/98/88 56/100/90
f 36/101/91 60/102/92 17/103/93
f 17/103/93 60/102/92 56/104/94
f 17/103/93 56/104/94 55/105/95
f 36/101/91 35/106/96 60/102/92
f 60/102/92 35/106/96 59/107/97
f 59/107/97 35/106/96 34/108/98
f 59/107/97 34/108/98 58/109/99
f 58/109/99 34/108/98 33/110/100
f 58/109/99 33/110/100 32/111/101
f 58/109/99 32/111/101 57/112/102
f 57/112/102 32/111/101 31/113/103
f 57/112/102 31/113/103 30/114/104
f 57/112/102 30/114/104 37/115/105
f 37/115/105 30/114/104 12/116/106
f 37/115/105 12/116/106 11/117/107
f 11/117/107 22/118/108 37/115/105
f 17/103/93 55/105/95 18/119/109
f 18/119/109 55/105/95 54/120/110
f 18/119/109 54/120/110 19/121/111
f 19/121/111 54/120/110 53/122/112
f 19/121/111 53/122/112 52/123/113
f 19/121/111 52/123/113 20/124/114
f 20/124/114 52/123/113 51/125/115
f 20/124/114 51/125/115 50/126/116
f 20/124/114 50/126/116 8/127/117
f 8/127/117 50/126/116 2/128/118
f 8/127/117 2/128/118 6/129/119
f 6/129/119 2/128/118 1/130/120
f 40/131/121 60/132/122 41/133/123
f 41/133/123 60/132/122 59/134/124
f 41/133/123 59/134/124 42/135/125
f 42/135/125 59/134/124 58/136/126
f 42/135/125 58/136/126 43/137/127
f 43/137/127 58/136/126 57/138/128
f 43/137/127 57/138/128 38/139/45
f 38/139/45 57/138/128 37/140/43
f 60/141/122 40/142/121 56/143/90
f 56/143/90 40/142/121 39/144/89
# 60 vertices
# 144 texture params
# 128 normals
# 116 facets

# 1 groups
