# WaveFront *.obj file (generated by Autodesk ATF)

mtllib body59_visual.mtl

g Body59

v -27.030000 1.736571 -4.553915
v -27.030000 1.752100 -4.611870
v -27.035000 1.758224 -4.615406
v -27.035000 1.740106 -4.547791
v -27.030000 1.694145 -4.627400
v -27.035000 1.690609 -4.633523
v -27.030000 1.678615 -4.569444
v -27.035000 1.672492 -4.565909
v -28.025000 1.740106 -4.547791
v -28.025000 1.672492 -4.565909
v -28.025000 1.758224 -4.615406
v -28.030000 1.694145 -4.627400
v -28.030000 1.752100 -4.611870
v -28.025000 1.690609 -4.633523
v -28.030000 1.736571 -4.553915
v -28.030000 1.678615 -4.569444
vt 0.012500 0.003536 0.000000
vt -0.047500 0.003536 0.000000
vt 0.017500 -0.003536 0.000000
vt -0.052500 -0.003536 0.000000
vt 0.003536 -0.012500 0.000000
vt 0.003536 0.047500 0.000000
vt -0.003536 -0.017500 0.000000
vt -0.003536 0.052500 0.000000
vt -0.012500 -0.003536 0.000000
vt 0.047500 -0.003536 0.000000
vt -0.017500 0.003536 0.000000
vt 0.052500 0.003536 0.000000
vt 0.003536 0.017500 0.000000
vt -0.003536 0.012500 0.000000
vt 0.003536 -0.052500 0.000000
vt -0.003536 -0.047500 0.000000
vt -0.000000 -0.195000 0.000000
vt 0.070000 -0.195000 0.000000
vt -0.000000 0.795000 0.000000
vt 0.070000 0.795000 0.000000
vt 0.000000 -0.195000 0.000000
vt 0.070000 -0.195000 0.000000
vt 0.000000 0.795000 0.000000
vt 0.070000 0.795000 0.000000
vt -0.030000 -0.030000 0.000000
vt 0.030000 -0.030000 0.000000
vt -0.030000 0.030000 0.000000
vt 0.030000 0.030000 0.000000
vt -0.003536 -0.012500 0.000000
vt 0.003536 -0.017500 0.000000
vt -0.003536 0.047500 0.000000
vt 0.003536 0.052500 0.000000
vt 0.047500 0.003536 0.000000
vt -0.012500 0.003536 0.000000
vt 0.052500 -0.003536 0.000000
vt -0.017500 -0.003536 0.000000
vt 0.003536 -0.047500 0.000000
vt 0.003536 0.012500 0.000000
vt -0.003536 -0.052500 0.000000
vt -0.003536 0.017500 0.000000
vt 0.017500 0.003536 0.000000
vt -0.052500 0.003536 0.000000
vt 0.012500 -0.003536 0.000000
vt -0.047500 -0.003536 0.000000
vt -0.000000 -0.195000 0.000000
vt 0.070000 -0.195000 0.000000
vt -0.000000 0.795000 0.000000
vt 0.070000 0.795000 0.000000
vt 0.000000 -0.195000 0.000000
vt 0.070000 -0.195000 0.000000
vt 0.000000 0.795000 0.000000
vt 0.070000 0.795000 0.000000
vt 0.030000 0.030000 0.000000
vt -0.030000 0.030000 0.000000
vt 0.030000 -0.030000 0.000000
vt -0.030000 -0.030000 0.000000
vn 0.707107 0.683013 0.183013
vn 0.707107 0.683013 0.183013
vn 0.707107 0.683013 0.183013
vn 0.707107 0.683013 0.183013
vn 0.707107 0.183013 -0.683013
vn 0.707107 0.183013 -0.683013
vn 0.707107 0.183013 -0.683013
vn 0.707107 0.183013 -0.683013
vn 0.707107 -0.683013 -0.183013
vn 0.707107 -0.683013 -0.183013
vn 0.707107 -0.683013 -0.183013
vn 0.707107 -0.683013 -0.183013
vn 0.707107 -0.183013 0.683013
vn 0.707107 -0.183013 0.683013
vn 0.707107 -0.183013 0.683013
vn 0.707107 -0.183013 0.683013
vn -0.000000 -0.258819 0.965926
vn -0.000000 -0.258819 0.965926
vn -0.000000 -0.258819 0.965926
vn -0.000000 -0.258819 0.965926
vn 0.000000 0.965926 0.258819
vn 0.000000 0.965926 0.258819
vn 0.000000 0.965926 0.258819
vn 0.000000 0.965926 0.258819
vn 1.000000 -0.000000 0.000000
vn 1.000000 -0.000000 0.000000
vn 1.000000 -0.000000 0.000000
vn 1.000000 -0.000000 0.000000
vn -0.707107 0.183013 -0.683013
vn -0.707107 0.183013 -0.683013
vn -0.707107 0.183013 -0.683013
vn -0.707107 0.183013 -0.683013
vn -0.707107 0.683013 0.183013
vn -0.707107 0.683013 0.183013
vn -0.707107 0.683013 0.183013
vn -0.707107 0.683013 0.183013
vn -0.707107 -0.183013 0.683013
vn -0.707107 -0.183013 0.683013
vn -0.707107 -0.183013 0.683013
vn -0.707107 -0.183013 0.683013
vn -0.707107 -0.683013 -0.183013
vn -0.707107 -0.683013 -0.183013
vn -0.707107 -0.683013 -0.183013
vn -0.707107 -0.683013 -0.183013
vn -0.000000 -0.965926 -0.258819
vn -0.000000 -0.965926 -0.258819
vn -0.000000 -0.965926 -0.258819
vn -0.000000 -0.965926 -0.258819
vn 0.000000 0.258819 -0.965926
vn 0.000000 0.258819 -0.965926
vn 0.000000 0.258819 -0.965926
vn 0.000000 0.258819 -0.965926
vn -1.000000 0.000000 -0.000000
vn -1.000000 0.000000 -0.000000
vn -1.000000 0.000000 -0.000000
vn -1.000000 0.000000 -0.000000
usemtl Polycarbonate_(Clear)
f 1/1/1 2/2/2 4/3/3
f 4/3/3 2/2/2 3/4/4
f 2/5/5 5/6/6 3/7/7
f 3/7/7 5/6/6 6/8/8
f 5/9/9 7/10/10 6/11/11
f 6/11/11 7/10/10 8/12/12
f 8/13/13 7/14/14 4/15/15
f 4/15/15 7/14/14 1/16/16
f 8/17/17 4/18/18 10/19/19
f 10/19/19 4/18/18 9/20/20
f 4/21/21 3/22/22 9/23/23
f 9/23/23 3/22/22 11/24/24
f 2/25/25 1/26/26 5/27/27
f 5/27/27 1/26/26 7/28/28
f 13/29/29 11/30/30 12/31/31
f 12/31/31 11/30/30 14/32/32
f 13/33/33 15/34/34 11/35/35
f 11/35/35 15/34/34 9/36/36
f 15/37/37 16/38/38 9/39/39
f 9/39/39 16/38/38 10/40/40
f 14/41/41 10/42/42 12/43/43
f 12/43/43 10/42/42 16/44/44
f 6/45/45 8/46/46 14/47/47
f 14/47/47 8/46/46 10/48/48
f 3/49/49 6/50/50 11/51/51
f 11/51/51 6/50/50 14/52/52
f 12/53/53 16/54/54 13/55/55
f 13/55/55 16/54/54 15/56/56
# 16 vertices
# 56 texture params
# 56 normals
# 28 facets

# 1 groups
