# WaveFront *.obj file (generated by Autodesk ATF)

mtllib element_1_visual.mtl

g element 1

v 172.059320 0.250000 -0.000000
v 172.059320 0.236454 -0.081175
v 172.059320 0.197285 -0.153553
v 172.059320 0.136737 -0.209292
v 172.059320 0.061371 -0.242350
v 172.059320 -0.020645 -0.249146
v 172.059320 -0.100424 -0.228943
v 172.059320 -0.169320 -0.183931
v 172.059320 -0.219868 -0.118987
v 172.059320 -0.246590 -0.041149
v 172.059320 -0.246590 0.041149
v 172.059320 -0.219868 0.118987
v 172.059320 -0.169320 0.183931
v 172.059320 -0.100424 0.228943
v 172.059320 -0.020645 0.249146
v 172.059320 0.061371 0.242350
v 172.059320 0.136737 0.209292
v 172.059320 0.197285 0.153553
v 172.059320 0.236454 0.081175
v 174.059320 -0.800000 -0.000000
v 174.059320 -0.785543 0.151401
v 174.059320 -0.742694 0.297330
v 174.059320 -0.673003 0.432513
v 174.059320 -0.578987 0.552063
v 174.059320 -0.464046 0.651661
v 174.059320 -0.332332 0.727706
v 174.059320 -0.188607 0.777449
v 174.059320 -0.038066 0.799094
v 174.059320 0.113852 0.791857
v 174.059320 0.261654 0.756001
v 174.059320 0.400000 0.692820
v 174.059320 0.523889 0.604600
v 174.059320 0.628842 0.494527
v 174.059320 0.711068 0.366581
v 174.059320 0.767594 0.225386
v 174.059320 0.796378 0.076045
v 174.059320 0.796378 -0.076045
v 174.059320 0.767594 -0.225386
v 174.059320 0.711068 -0.366581
v 174.059320 0.628842 -0.494527
v 174.059320 0.523889 -0.604600
v 174.059320 0.400000 -0.692820
v 174.059320 0.261654 -0.756001
v 174.059320 0.113852 -0.791857
v 174.059320 -0.038066 -0.799094
v 174.059320 -0.188607 -0.777449
v 174.059320 -0.332332 -0.727706
v 174.059320 -0.464046 -0.651661
v 174.059320 -0.578987 -0.552063
v 174.059320 -0.673003 -0.432513
v 174.059320 -0.742694 -0.297330
v 174.059320 -0.785543 -0.151401
v 176.059320 0.800000 -0.000000
v 176.059320 0.785543 -0.151401
v 176.059320 0.742694 -0.297330
v 176.059320 0.673003 -0.432513
v 176.059320 0.578987 -0.552063
v 176.059320 0.464046 -0.651661
v 176.059320 0.332332 -0.727706
v 176.059320 0.188607 -0.777449
v 176.059320 0.038066 -0.799094
v 176.059320 -0.113852 -0.791857
v 176.059320 -0.261654 -0.756001
v 176.059320 -0.400000 -0.692820
v 176.059320 -0.523889 -0.604600
v 176.059320 -0.628842 -0.494527
v 176.059320 -0.711068 -0.366581
v 176.059320 -0.767594 -0.225386
v 176.059320 -0.796378 -0.076045
v 176.059320 -0.796378 0.076045
v 176.059320 -0.767594 0.225386
v 176.059320 -0.711068 0.366581
v 176.059320 -0.628842 0.494527
v 176.059320 -0.523889 0.604600
v 176.059320 -0.400000 0.692820
v 176.059320 -0.261654 0.756001
v 176.059320 -0.113852 0.791857
v 176.059320 0.038066 0.799094
v 176.059320 0.188607 0.777449
v 176.059320 0.332332 0.727706
v 176.059320 0.464046 0.651661
v 176.059320 0.578987 0.552063
v 176.059320 0.673003 0.432513
v 176.059320 0.742694 0.297330
v 176.059320 0.785543 0.151401
v 180.259320 -0.975000 -0.000000
v 180.259320 -0.960188 -0.169307
v 180.259320 -0.916200 -0.333470
v 180.259320 -0.844375 -0.487500
v 180.259320 -0.746893 -0.626718
v 180.259320 -0.626718 -0.746893
v 180.259320 -0.487500 -0.844375
v 180.259320 -0.333470 -0.916200
v 180.259320 -0.169307 -0.960188
v 180.259320 -0.000000 -0.975000
v 180.259320 0.169307 -0.960188
v 180.259320 0.333470 -0.916200
v 180.259320 0.487500 -0.844375
v 180.259320 0.626718 -0.746893
v 180.259320 0.746893 -0.626718
v 180.259320 0.844375 -0.487500
v 180.259320 0.916200 -0.333470
v 180.259320 0.960188 -0.169307
v 180.259320 0.975000 -0.000000
v 180.259320 0.960188 0.169307
v 180.259320 0.916200 0.333470
v 180.259320 0.844375 0.487500
v 180.259320 0.746893 0.626718
v 180.259320 0.626718 0.746893
v 180.259320 0.487500 0.844375
v 180.259320 0.333470 0.916200
v 180.259320 0.169307 0.960188
v 180.259320 -0.000000 0.975000
v 180.259320 -0.169307 0.960188
v 180.259320 -0.333470 0.916200
v 180.259320 -0.487500 0.844375
v 180.259320 -0.626718 0.746893
v 180.259320 -0.746893 0.626718
v 180.259320 -0.844375 0.487500
v 180.259320 -0.916200 0.333470
v 180.259320 -0.960188 0.169307
v 181.059320 -0.175000 -0.000000
v 181.059320 -0.161679 0.066970
v 181.059320 -0.123744 0.123744
v 181.059320 -0.066970 0.161679
v 181.059320 -0.000000 0.175000
v 181.059320 0.066970 0.161679
v 181.059320 0.123744 0.123744
v 181.059320 0.161679 0.066970
v 181.059320 0.175000 -0.000000
v 181.059320 0.161679 -0.066970
v 181.059320 0.123744 -0.123744
v 181.059320 0.066970 -0.161679
v 181.059320 -0.000000 -0.175000
v 181.059320 -0.066970 -0.161679
v 181.059320 -0.123744 -0.123744
v 181.059320 -0.161679 -0.066970
v 180.398238 -0.000000 0.962846
v 180.532936 -0.000000 0.926754
v 180.659320 -0.000000 0.867820
v 180.773550 -0.000000 0.787836
v 180.872155 -0.000000 0.689230
v 180.952140 -0.000000 0.575000
v 181.011074 -0.000000 0.448616
v 181.047166 -0.000000 0.313919
v 181.047166 -0.054511 0.309149
v 181.047166 -0.156959 0.271861
v 181.047166 -0.271861 0.156959
v 181.047166 -0.309149 0.054511
v 181.047166 -0.309149 -0.054511
v 181.047166 -0.271861 -0.156959
v 181.047166 -0.156959 -0.271861
v 181.047166 -0.054511 -0.309149
v 181.047166 0.054511 -0.309149
v 181.047166 0.156959 -0.271861
v 181.047166 0.271861 -0.156959
v 181.047166 0.309149 -0.054511
v 181.047166 0.309149 0.054511
v 181.047166 0.271861 0.156959
v 181.047166 0.156959 0.271861
v 181.047166 0.054511 0.309149
v 180.398238 -0.948218 -0.167196
v 180.532936 -0.912675 -0.160929
v 180.659320 -0.854636 -0.150695
v 180.773550 -0.775867 -0.136806
v 180.872155 -0.678759 -0.119684
v 180.952140 -0.566264 -0.099848
v 181.011074 -0.441801 -0.077901
v 181.047166 -0.313919 -0.000000
v 181.011074 -0.448616 -0.000000
v 180.952140 -0.575000 -0.000000
v 180.872155 -0.689230 -0.000000
v 180.773550 -0.787836 -0.000000
v 180.659320 -0.867820 -0.000000
v 180.532936 -0.926754 -0.000000
v 180.398238 -0.962846 -0.000000
v 180.398238 -0.904779 -0.329313
v 180.532936 -0.870864 -0.316969
v 180.659320 -0.815484 -0.296812
v 180.773550 -0.740323 -0.269456
v 180.872155 -0.647664 -0.235731
v 180.952140 -0.540323 -0.196662
v 181.011074 -0.421561 -0.153436
v 181.047166 -0.294987 -0.107366
v 180.398238 -0.833849 -0.481423
v 180.532936 -0.802593 -0.463377
v 180.659320 -0.751554 -0.433910
v 180.773550 -0.682286 -0.393918
v 180.872155 -0.596891 -0.344615
v 180.952140 -0.497965 -0.287500
v 181.011074 -0.388513 -0.224308
v 180.398238 -0.737583 -0.618906
v 180.532936 -0.709935 -0.595706
v 180.659320 -0.664789 -0.557824
v 180.773550 -0.603517 -0.506411
v 180.872155 -0.527981 -0.443029
v 180.952140 -0.440476 -0.369603
v 181.011074 -0.343660 -0.288365
v 181.047166 -0.240476 -0.201783
v 180.398238 -0.618906 -0.737583
v 180.532936 -0.595706 -0.709935
v 180.659320 -0.557824 -0.664789
v 180.773550 -0.506411 -0.603517
v 180.872155 -0.443029 -0.527981
v 180.952140 -0.369603 -0.440476
v 181.011074 -0.288365 -0.343660
v 181.047166 -0.201783 -0.240476
v 180.398238 -0.481423 -0.833849
v 180.532936 -0.463377 -0.802593
v 180.659320 -0.433910 -0.751554
v 180.773550 -0.393918 -0.682286
v 180.872155 -0.344615 -0.596891
v 180.952140 -0.287500 -0.497965
v 181.011074 -0.224308 -0.388513
v 180.398238 -0.329313 -0.904779
v 180.532936 -0.316969 -0.870864
v 180.659320 -0.296812 -0.815484
v 180.773550 -0.269456 -0.740323
v 180.872155 -0.235731 -0.647664
v 180.952140 -0.196662 -0.540323
v 181.011074 -0.153436 -0.421561
v 181.047166 -0.107366 -0.294987
v 180.398238 -0.167196 -0.948218
v 180.532936 -0.160929 -0.912675
v 180.659320 -0.150695 -0.854636
v 180.773550 -0.136806 -0.775867
v 180.872155 -0.119684 -0.678759
v 180.952140 -0.099848 -0.566264
v 181.011074 -0.077901 -0.441801
v 180.398238 -0.000000 -0.962846
v 180.532936 -0.000000 -0.926754
v 180.659320 -0.000000 -0.867820
v 180.773550 -0.000000 -0.787836
v 180.872155 -0.000000 -0.689230
v 180.952140 -0.000000 -0.575000
v 181.011074 -0.000000 -0.448616
v 181.047166 -0.000000 -0.313919
v 180.398238 0.167196 -0.948218
v 180.532936 0.160929 -0.912675
v 180.659320 0.150695 -0.854636
v 180.773550 0.136806 -0.775867
v 180.872155 0.119684 -0.678759
v 180.952140 0.099848 -0.566264
v 181.011074 0.077901 -0.441801
v 180.398238 0.329313 -0.904779
v 180.532936 0.316969 -0.870864
v 180.659320 0.296812 -0.815484
v 180.773550 0.269456 -0.740323
v 180.872155 0.235731 -0.647664
v 180.952140 0.196662 -0.540323
v 181.011074 0.153436 -0.421561
v 181.047166 0.107366 -0.294987
v 180.398238 0.481423 -0.833849
v 180.532936 0.463377 -0.802593
v 180.659320 0.433910 -0.751554
v 180.773550 0.393918 -0.682286
v 180.872155 0.344615 -0.596891
v 180.952140 0.287500 -0.497965
v 181.011074 0.224308 -0.388513
v 180.398238 0.618906 -0.737583
v 180.532936 0.595706 -0.709935
v 180.659320 0.557824 -0.664789
v 180.773550 0.506411 -0.603517
v 180.872155 0.443029 -0.527981
v 180.952140 0.369603 -0.440476
v 181.011074 0.288365 -0.343660
v 181.047166 0.201783 -0.240476
v 180.398238 0.737583 -0.618906
v 180.532936 0.709935 -0.595706
v 180.659320 0.664789 -0.557824
v 180.773550 0.603517 -0.506411
v 180.872155 0.527981 -0.443029
v 180.952140 0.440476 -0.369603
v 181.011074 0.343660 -0.288365
v 181.047166 0.240476 -0.201783
v 180.398238 0.833849 -0.481423
v 180.532936 0.802593 -0.463377
v 180.659320 0.751554 -0.433910
v 180.773550 0.682286 -0.393918
v 180.872155 0.596891 -0.344615
v 180.952140 0.497965 -0.287500
v 181.011074 0.388513 -0.224308
v 180.398238 0.904779 -0.329313
v 180.532936 0.870864 -0.316969
v 180.659320 0.815484 -0.296812
v 180.773550 0.740323 -0.269456
v 180.872155 0.647664 -0.235731
v 180.952140 0.540323 -0.196662
v 181.011074 0.421561 -0.153436
v 181.047166 0.294987 -0.107366
v 180.398238 0.948218 -0.167196
v 180.532936 0.912675 -0.160929
v 180.659320 0.854636 -0.150695
v 180.773550 0.775867 -0.136806
v 180.872155 0.678759 -0.119684
v 180.952140 0.566264 -0.099848
v 181.011074 0.441801 -0.077901
v 180.398238 0.962846 -0.000000
v 180.532936 0.926754 -0.000000
v 180.659320 0.867820 -0.000000
v 180.773550 0.787836 -0.000000
v 180.872155 0.689230 -0.000000
v 180.952140 0.575000 -0.000000
v 181.011074 0.448616 -0.000000
v 181.047166 0.313919 -0.000000
v 180.398238 0.948218 0.167196
v 180.532936 0.912675 0.160929
v 180.659320 0.854636 0.150695
v 180.773550 0.775867 0.136806
v 180.872155 0.678759 0.119684
v 180.952140 0.566264 0.099848
v 181.011074 0.441801 0.077901
v 180.398238 0.904779 0.329313
v 180.532936 0.870864 0.316969
v 180.659320 0.815484 0.296812
v 180.773550 0.740323 0.269456
v 180.872155 0.647664 0.235731
v 180.952140 0.540323 0.196662
v 181.011074 0.421561 0.153436
v 181.047166 0.294987 0.107366
v 180.398238 0.833849 0.481423
v 180.532936 0.802593 0.463377
v 180.659320 0.751554 0.433910
v 180.773550 0.682286 0.393918
v 180.872155 0.596891 0.344615
v 180.952140 0.497965 0.287500
v 181.011074 0.388513 0.224308
v 180.398238 0.737583 0.618906
v 180.532936 0.709935 0.595706
v 180.659320 0.664789 0.557824
v 180.773550 0.603517 0.506411
v 180.872155 0.527981 0.443029
v 180.952140 0.440476 0.369603
v 181.011074 0.343660 0.288365
v 181.047166 0.240476 0.201783
v 180.398238 0.618906 0.737583
v 180.532936 0.595706 0.709935
v 180.659320 0.557824 0.664789
v 180.773550 0.506411 0.603517
v 180.872155 0.443029 0.527981
v 180.952140 0.369603 0.440476
v 181.011074 0.288365 0.343660
v 181.047166 0.201783 0.240476
v 180.398238 0.481423 0.833849
v 180.532936 0.463377 0.802593
v 180.659320 0.433910 0.751554
v 180.773550 0.393918 0.682286
v 180.872155 0.344615 0.596891
v 180.952140 0.287500 0.497965
v 181.011074 0.224308 0.388513
v 180.398238 0.329313 0.904779
v 180.532936 0.316969 0.870864
v 180.659320 0.296812 0.815484
v 180.773550 0.269456 0.740323
v 180.872155 0.235731 0.647664
v 180.952140 0.196662 0.540323
v 181.011074 0.153436 0.421561
v 181.047166 0.107366 0.294987
v 180.398238 0.167196 0.948218
v 180.532936 0.160929 0.912675
v 180.659320 0.150695 0.854636
v 180.773550 0.136806 0.775867
v 180.872155 0.119684 0.678759
v 180.952140 0.099848 0.566264
v 181.011074 0.077901 0.441801
v 180.398238 -0.167196 0.948218
v 180.532936 -0.160929 0.912675
v 180.659320 -0.150695 0.854636
v 180.773550 -0.136806 0.775867
v 180.872155 -0.119684 0.678759
v 180.952140 -0.099848 0.566264
v 181.011074 -0.077901 0.441801
v 180.398238 -0.329313 0.904779
v 180.532936 -0.316969 0.870864
v 180.659320 -0.296812 0.815484
v 180.773550 -0.269456 0.740323
v 180.872155 -0.235731 0.647664
v 180.952140 -0.196662 0.540323
v 181.011074 -0.153436 0.421561
v 181.047166 -0.107366 0.294987
v 180.398238 -0.481423 0.833849
v 180.532936 -0.463377 0.802593
v 180.659320 -0.433910 0.751554
v 180.773550 -0.393918 0.682286
v 180.872155 -0.344615 0.596891
v 180.952140 -0.287500 0.497965
v 181.011074 -0.224308 0.388513
v 180.398238 -0.618906 0.737583
v 180.532936 -0.595706 0.709935
v 180.659320 -0.557824 0.664789
v 180.773550 -0.506411 0.603517
v 180.872155 -0.443029 0.527981
v 180.952140 -0.369603 0.440476
v 181.011074 -0.288365 0.343660
v 181.047166 -0.201783 0.240476
v 180.398238 -0.737583 0.618906
v 180.532936 -0.709935 0.595706
v 180.659320 -0.664789 0.557824
v 180.773550 -0.603517 0.506411
v 180.872155 -0.527981 0.443029
v 180.952140 -0.440476 0.369603
v 181.011074 -0.343660 0.288365
v 181.047166 -0.240476 0.201783
v 180.398238 -0.833849 0.481423
v 180.532936 -0.802593 0.463377
v 180.659320 -0.751554 0.433910
v 180.773550 -0.682286 0.393918
v 180.872155 -0.596891 0.344615
v 180.952140 -0.497965 0.287500
v 181.011074 -0.388513 0.224308
v 180.398238 -0.904779 0.329313
v 180.532936 -0.870864 0.316969
v 180.659320 -0.815484 0.296812
v 180.773550 -0.740323 0.269456
v 180.872155 -0.647664 0.235731
v 180.952140 -0.540323 0.196662
v 181.011074 -0.421561 0.153436
v 181.047166 -0.294987 0.107366
v 180.398238 -0.948218 0.167196
v 180.532936 -0.912675 0.160929
v 180.659320 -0.854636 0.150695
v 180.773550 -0.775867 0.136806
v 180.872155 -0.678759 0.119684
v 180.952140 -0.566264 0.099848
v 181.011074 -0.441801 0.077901
v 176.059320 -0.975000 -0.000000
v 176.059320 -0.960188 -0.169307
v 176.059320 -0.916200 -0.333470
v 176.059320 -0.844375 -0.487500
v 176.059320 -0.746893 -0.626718
v 176.059320 -0.626718 -0.746893
v 176.059320 -0.487500 -0.844375
v 176.059320 -0.333470 -0.916200
v 176.059320 -0.169307 -0.960188
v 176.059320 -0.000000 -0.975000
v 176.059320 0.169307 -0.960188
v 176.059320 0.333470 -0.916200
v 176.059320 0.487500 -0.844375
v 176.059320 0.626718 -0.746893
v 176.059320 0.746893 -0.626718
v 176.059320 0.844375 -0.487500
v 176.059320 0.916200 -0.333470
v 176.059320 0.960188 -0.169307
v 176.059320 0.975000 -0.000000
v 176.059320 0.960188 0.169307
v 176.059320 0.916200 0.333470
v 176.059320 0.844375 0.487500
v 176.059320 0.746893 0.626718
v 176.059320 0.626718 0.746893
v 176.059320 0.487500 0.844375
v 176.059320 0.333470 0.916200
v 176.059320 0.169307 0.960188
v 176.059320 -0.000000 0.975000
v 176.059320 -0.169307 0.960188
v 176.059320 -0.333470 0.916200
v 176.059320 -0.487500 0.844375
v 176.059320 -0.626718 0.746893
v 176.059320 -0.746893 0.626718
v 176.059320 -0.844375 0.487500
v 176.059320 -0.916200 0.333470
v 176.059320 -0.960188 0.169307
v 178.159320 -0.975000 -0.000000
v 178.159320 -0.960188 -0.169307
v 178.159320 -0.916200 -0.333470
v 178.159320 -0.844375 -0.487500
v 178.159320 -0.746893 -0.626718
v 178.159320 -0.626718 -0.746893
v 178.159320 -0.487500 -0.844375
v 178.159320 -0.333470 -0.916200
v 178.159320 -0.169307 -0.960188
v 178.159320 -0.000000 -0.975000
v 178.159320 0.169307 -0.960188
v 178.159320 0.333470 -0.916200
v 178.159320 0.487500 -0.844375
v 178.159320 0.626718 -0.746893
v 178.159320 0.746893 -0.626718
v 178.159320 0.844375 -0.487500
v 178.159320 0.916200 -0.333470
v 178.159320 0.960188 -0.169307
v 178.159320 0.975000 -0.000000
v 178.159320 0.960188 0.169307
v 178.159320 0.916200 0.333470
v 178.159320 0.844375 0.487500
v 178.159320 0.746893 0.626718
v 178.159320 0.626718 0.746893
v 178.159320 0.487500 0.844375
v 178.159320 0.333470 0.916200
v 178.159320 0.169307 0.960188
v 178.159320 -0.000000 0.975000
v 178.159320 -0.169307 0.960188
v 178.159320 -0.333470 0.916200
v 178.159320 -0.487500 0.844375
v 178.159320 -0.626718 0.746893
v 178.159320 -0.746893 0.626718
v 178.159320 -0.844375 0.487500
v 178.159320 -0.916200 0.333470
v 178.159320 -0.960188 0.169307
vt 0.000000 0.250000 0.000000
vt -0.081175 0.236454 0.000000
vt 0.081175 0.236454 0.000000
vt 0.153553 0.197285 0.000000
vt -0.153553 0.197285 0.000000
vt 0.209292 0.136737 0.000000
vt -0.209292 0.136737 0.000000
vt 0.242350 0.061371 0.000000
vt -0.242350 0.061371 0.000000
vt 0.249146 -0.020645 0.000000
vt -0.249146 -0.020645 0.000000
vt 0.228943 -0.100424 0.000000
vt -0.228943 -0.100424 0.000000
vt 0.183931 -0.169320 0.000000
vt -0.183931 -0.169320 0.000000
vt 0.118987 -0.219868 0.000000
vt -0.118987 -0.219868 0.000000
vt 0.041149 -0.246590 0.000000
vt -0.041149 -0.246590 0.000000
vt 0.000000 0.099960 0.000000
vt -2.074247 0.086807 0.000000
vt -0.000000 -0.000000 0.000000
vt -2.074247 -0.086807 0.000000
vt 0.000000 -0.099960 0.000000
vt 0.000000 -0.199920 0.000000
vt -2.074247 -0.260421 0.000000
vt 0.000000 -0.299879 0.000000
vt -2.074247 -0.434036 0.000000
vt 0.000000 -0.399839 0.000000
vt 0.000000 -0.499799 0.000000
vt -2.074247 -0.607650 0.000000
vt 0.000000 -0.599759 0.000000
vt 0.000000 -0.699718 0.000000
vt -2.074247 -0.781264 0.000000
vt 0.000000 -0.799678 0.000000
vt -0.000000 -0.899638 0.000000
vt -2.074247 -0.954879 0.000000
vt -0.000000 -0.999598 0.000000
vt -2.074247 -1.128493 0.000000
vt -0.000000 -1.099557 0.000000
vt -0.000000 -1.199517 0.000000
vt -2.074247 -1.302107 0.000000
vt -0.000000 -1.299477 0.000000
vt -0.000000 -1.399437 0.000000
vt -2.074247 -1.475722 0.000000
vt -0.000000 -1.499396 0.000000
vt -0.000000 -1.599356 0.000000
vt -2.074247 -1.649336 0.000000
vt -0.000000 -1.699316 0.000000
vt -0.000000 1.599356 0.000000
vt -2.074247 1.649336 0.000000
vt -2.074247 1.475722 0.000000
vt 0.000000 1.499396 0.000000
vt -0.000000 1.399437 0.000000
vt -2.074247 1.302107 0.000000
vt -0.000000 1.299477 0.000000
vt -0.000000 1.199517 0.000000
vt -2.074247 1.128493 0.000000
vt -0.000000 1.099557 0.000000
vt -0.000000 0.999598 0.000000
vt -2.074247 0.954879 0.000000
vt -0.000000 0.899638 0.000000
vt -2.074247 0.781264 0.000000
vt 0.000000 0.799678 0.000000
vt 0.000000 0.699718 0.000000
vt -2.074247 0.607650 0.000000
vt 0.000000 0.599759 0.000000
vt 0.000000 0.499799 0.000000
vt -2.074247 0.434036 0.000000
vt 0.000000 0.399839 0.000000
vt 0.000000 0.299879 0.000000
vt -2.074247 0.260421 0.000000
vt 0.000000 0.199920 0.000000
vt -2.000000 -0.152320 0.000000
vt 0.000000 -0.076160 0.000000
vt -2.000000 -0.000000 0.000000
vt 0.000000 0.076160 0.000000
vt -2.000000 0.152320 0.000000
vt 0.000000 0.228479 0.000000
vt -2.000000 0.304639 0.000000
vt 0.000000 0.380799 0.000000
vt -2.000000 0.456959 0.000000
vt 0.000000 0.533119 0.000000
vt -2.000000 0.609279 0.000000
vt 0.000000 0.685438 0.000000
vt -2.000000 0.761598 0.000000
vt 0.000000 0.837758 0.000000
vt -2.000000 0.913918 0.000000
vt 0.000000 0.990078 0.000000
vt -2.000000 1.066238 0.000000
vt 0.000000 1.142397 0.000000
vt -2.000000 1.218557 0.000000
vt -0.000000 1.294717 0.000000
vt -2.000000 1.370877 0.000000
vt -0.000000 1.447037 0.000000
vt -2.000000 1.523196 0.000000
vt -0.000000 1.599356 0.000000
vt -2.000000 1.675516 0.000000
vt -0.000000 1.751676 0.000000
vt -2.000000 1.827836 0.000000
vt -0.000000 1.903996 0.000000
vt -2.000000 1.980155 0.000000
vt -0.000000 2.056315 0.000000
vt -2.000000 2.132475 0.000000
vt -0.000000 2.208635 0.000000
vt -2.000000 2.284795 0.000000
vt -0.000000 2.360954 0.000000
vt -2.000000 2.437114 0.000000
vt -0.000000 2.513274 0.000000
vt -2.000000 2.589434 0.000000
vt -2.000000 -2.437114 0.000000
vt -0.000000 -2.513274 0.000000
vt -0.000000 -2.360954 0.000000
vt -2.000000 -2.284795 0.000000
vt -0.000000 -2.208635 0.000000
vt -2.000000 -2.132475 0.000000
vt -0.000000 -2.056315 0.000000
vt -2.000000 -1.980155 0.000000
vt -0.000000 -1.903996 0.000000
vt -2.000000 -1.827836 0.000000
vt -0.000000 -1.751676 0.000000
vt -2.000000 -1.675516 0.000000
vt -0.000000 -1.599356 0.000000
vt -2.000000 -1.523196 0.000000
vt -0.000000 -1.447037 0.000000
vt -2.000000 -1.370877 0.000000
vt -0.000000 -1.294717 0.000000
vt -2.000000 -1.218557 0.000000
vt 0.000000 -1.142397 0.000000
vt -2.000000 -1.066238 0.000000
vt 0.000000 -0.990078 0.000000
vt -2.000000 -0.913918 0.000000
vt 0.000000 -0.837758 0.000000
vt -2.000000 -0.761598 0.000000
vt 0.000000 -0.685438 0.000000
vt -2.000000 -0.609279 0.000000
vt 0.000000 -0.533119 0.000000
vt -2.000000 -0.456959 0.000000
vt 0.000000 -0.380799 0.000000
vt -2.000000 -0.304639 0.000000
vt 0.000000 -0.228479 0.000000
vt -0.000000 -1.034192 0.000000
vt -0.139626 -1.034192 0.000000
vt -0.000000 -1.163466 0.000000
vt -0.139626 -1.163466 0.000000
vt -0.000000 -1.292740 0.000000
vt -0.139626 -1.292740 0.000000
vt -0.000000 -1.422014 0.000000
vt -0.139626 -1.422014 0.000000
vt -0.000000 -1.551288 0.000000
vt -0.139626 -1.551288 0.000000
vt -0.000000 -1.680562 0.000000
vt -0.139626 -1.680562 0.000000
vt -0.000000 -1.809836 0.000000
vt -0.139626 -1.809836 0.000000
vt -0.000000 -1.939110 0.000000
vt -0.139626 -1.939110 0.000000
vt -0.000000 -2.068384 0.000000
vt -0.139626 -2.068384 0.000000
vt -0.000000 -2.197658 0.000000
vt -0.139626 -2.197658 0.000000
vt 0.000000 -2.326932 0.000000
vt -0.139626 -2.326932 0.000000
vt 0.000000 2.326932 0.000000
vt -0.139626 2.326932 0.000000
vt 0.000000 2.197658 0.000000
vt -0.139626 2.197658 0.000000
vt 0.000000 2.068384 0.000000
vt -0.139626 2.068384 0.000000
vt 0.000000 1.939110 0.000000
vt -0.139626 1.939110 0.000000
vt 0.000000 1.809836 0.000000
vt -0.139626 1.809836 0.000000
vt 0.000000 1.680562 0.000000
vt -0.139626 1.680562 0.000000
vt 0.000000 1.551288 0.000000
vt -0.139626 1.551288 0.000000
vt 0.000000 1.422014 0.000000
vt -0.139626 1.422014 0.000000
vt 0.000000 1.292740 0.000000
vt -0.139626 1.292740 0.000000
vt 0.000000 1.163466 0.000000
vt -0.139626 1.163466 0.000000
vt 0.000000 1.034192 0.000000
vt -0.139626 1.034192 0.000000
vt 0.000000 0.904918 0.000000
vt -0.139626 0.904918 0.000000
vt 0.000000 0.775644 0.000000
vt -0.139626 0.775644 0.000000
vt 0.000000 0.646370 0.000000
vt -0.139626 0.646370 0.000000
vt 0.000000 0.517096 0.000000
vt -0.139626 0.517096 0.000000
vt 0.000000 0.387822 0.000000
vt -0.139626 0.387822 0.000000
vt 0.000000 0.258548 0.000000
vt -0.139626 0.258548 0.000000
vt 0.000000 0.129274 0.000000
vt -0.139626 0.129274 0.000000
vt -0.000000 0.000000 0.000000
vt -0.139626 0.000000 0.000000
vt -0.000000 -0.129274 0.000000
vt -0.139626 -0.129274 0.000000
vt -0.000000 -0.258548 0.000000
vt -0.139626 -0.258548 0.000000
vt -0.000000 -0.387822 0.000000
vt -0.139626 -0.387822 0.000000
vt -0.000000 -0.517096 0.000000
vt -0.139626 -0.517096 0.000000
vt -0.000000 -0.646370 0.000000
vt -0.139626 -0.646370 0.000000
vt -0.000000 -0.775644 0.000000
vt -0.139626 -0.775644 0.000000
vt -0.000000 -0.904918 0.000000
vt -0.139626 -0.904918 0.000000
vt -1.256637 -1.454332 0.000000
vt -1.117011 -1.292740 0.000000
vt -1.256637 -1.163466 0.000000
vt -1.117011 -1.163466 0.000000
vt -1.117011 -1.034192 0.000000
vt -0.977384 -1.163466 0.000000
vt -0.977384 -1.034192 0.000000
vt -0.837758 -1.163466 0.000000
vt -0.837758 -1.034192 0.000000
vt -0.698132 -1.163466 0.000000
vt -0.698132 -1.034192 0.000000
vt -0.558505 -1.163466 0.000000
vt -0.558505 -1.034192 0.000000
vt -0.418879 -1.163466 0.000000
vt -0.418879 -1.034192 0.000000
vt -0.279253 -1.163466 0.000000
vt -0.279253 -1.034192 0.000000
vt -1.256637 -1.745199 0.000000
vt -1.117011 -1.551288 0.000000
vt -1.117011 -1.422014 0.000000
vt -0.977384 -1.422014 0.000000
vt -0.977384 -1.292740 0.000000
vt -0.837758 -1.422014 0.000000
vt -0.837758 -1.292740 0.000000
vt -0.698132 -1.422014 0.000000
vt -0.698132 -1.292740 0.000000
vt -0.558505 -1.422014 0.000000
vt -0.558505 -1.292740 0.000000
vt -0.418879 -1.422014 0.000000
vt -0.418879 -1.292740 0.000000
vt -0.279253 -1.422014 0.000000
vt -0.279253 -1.292740 0.000000
vt -1.256637 -2.036065 0.000000
vt -1.117011 -1.939110 0.000000
vt -1.117011 -1.809836 0.000000
vt -1.117011 -1.680562 0.000000
vt -0.977384 -1.809836 0.000000
vt -0.977384 -1.680562 0.000000
vt -0.837758 -1.809836 0.000000
vt -0.837758 -1.680562 0.000000
vt -0.698132 -1.809836 0.000000
vt -0.698132 -1.680562 0.000000
vt -0.558505 -1.809836 0.000000
vt -0.558505 -1.680562 0.000000
vt -0.418879 -1.809836 0.000000
vt -0.418879 -1.680562 0.000000
vt -0.279253 -1.809836 0.000000
vt -0.279253 -1.680562 0.000000
vt -1.256637 -2.326932 0.000000
vt -1.117011 -2.197658 0.000000
vt -1.117011 -2.068384 0.000000
vt -0.977384 -2.068384 0.000000
vt -0.977384 -1.939110 0.000000
vt -0.837758 -2.068384 0.000000
vt -0.837758 -1.939110 0.000000
vt -0.698132 -2.068384 0.000000
vt -0.698132 -1.939110 0.000000
vt -0.558505 -2.068384 0.000000
vt -0.558505 -1.939110 0.000000
vt -0.418879 -2.068384 0.000000
vt -0.418879 -1.939110 0.000000
vt -0.279253 -2.068384 0.000000
vt -0.279253 -1.939110 0.000000
vt -1.256637 2.036065 0.000000
vt -1.117011 2.197658 0.000000
vt -1.256637 2.326932 0.000000
vt -1.117011 2.326932 0.000000
vt -1.117011 -2.326932 0.000000
vt -0.977384 -2.326932 0.000000
vt -0.977384 -2.197658 0.000000
vt -0.837758 -2.326932 0.000000
vt -0.837758 -2.197658 0.000000
vt -0.698132 -2.326932 0.000000
vt -0.698132 -2.197658 0.000000
vt -0.558505 -2.326932 0.000000
vt -0.558505 -2.197658 0.000000
vt -0.418879 -2.326932 0.000000
vt -0.418879 -2.197658 0.000000
vt -0.279253 -2.326932 0.000000
vt -0.279253 -2.197658 0.000000
vt -1.256637 1.745199 0.000000
vt -1.117011 1.939110 0.000000
vt -1.117011 2.068384 0.000000
vt -0.977384 2.068384 0.000000
vt -0.977384 2.197658 0.000000
vt -0.837758 2.068384 0.000000
vt -0.837758 2.197658 0.000000
vt -0.698132 2.068384 0.000000
vt -0.698132 2.197658 0.000000
vt -0.558505 2.068384 0.000000
vt -0.558505 2.197658 0.000000
vt -0.418879 2.068384 0.000000
vt -0.418879 2.197658 0.000000
vt -0.279253 2.068384 0.000000
vt -0.279253 2.197658 0.000000
vt -1.256637 1.454332 0.000000
vt -1.117011 1.551288 0.000000
vt -1.117011 1.680562 0.000000
vt -1.117011 1.809836 0.000000
vt -0.977384 1.680562 0.000000
vt -0.977384 1.809836 0.000000
vt -0.837758 1.680562 0.000000
vt -0.837758 1.809836 0.000000
vt -0.698132 1.680562 0.000000
vt -0.698132 1.809836 0.000000
vt -0.558505 1.680562 0.000000
vt -0.558505 1.809836 0.000000
vt -0.418879 1.680562 0.000000
vt -0.418879 1.809836 0.000000
vt -0.279253 1.680562 0.000000
vt -0.279253 1.809836 0.000000
vt -1.256637 1.163466 0.000000
vt -1.117011 1.292740 0.000000
vt -1.117011 1.422014 0.000000
vt -0.977384 1.422014 0.000000
vt -0.977384 1.551288 0.000000
vt -0.837758 1.422014 0.000000
vt -0.837758 1.551288 0.000000
vt -0.698132 1.422014 0.000000
vt -0.698132 1.551288 0.000000
vt -0.558505 1.422014 0.000000
vt -0.558505 1.551288 0.000000
vt -0.418879 1.422014 0.000000
vt -0.418879 1.551288 0.000000
vt -0.279253 1.422014 0.000000
vt -0.279253 1.551288 0.000000
vt -1.256637 0.872599 0.000000
vt -1.117011 1.034192 0.000000
vt -1.117011 1.163466 0.000000
vt -0.977384 1.163466 0.000000
vt -0.977384 1.292740 0.000000
vt -0.837758 1.163466 0.000000
vt -0.837758 1.292740 0.000000
vt -0.698132 1.163466 0.000000
vt -0.698132 1.292740 0.000000
vt -0.558505 1.163466 0.000000
vt -0.558505 1.292740 0.000000
vt -0.418879 1.163466 0.000000
vt -0.418879 1.292740 0.000000
vt -0.279253 1.163466 0.000000
vt -0.279253 1.292740 0.000000
vt -1.256637 0.581733 0.000000
vt -1.117011 0.775644 0.000000
vt -1.117011 0.904918 0.000000
vt -0.977384 0.904918 0.000000
vt -0.977384 1.034192 0.000000
vt -0.837758 0.904918 0.000000
vt -0.837758 1.034192 0.000000
vt -0.698132 0.904918 0.000000
vt -0.698132 1.034192 0.000000
vt -0.558505 0.904918 0.000000
vt -0.558505 1.034192 0.000000
vt -0.418879 0.904918 0.000000
vt -0.418879 1.034192 0.000000
vt -0.279253 0.904918 0.000000
vt -0.279253 1.034192 0.000000
vt -1.256637 0.290866 0.000000
vt -1.117011 0.387822 0.000000
vt -1.117011 0.517096 0.000000
vt -1.117011 0.646370 0.000000
vt -0.977384 0.517096 0.000000
vt -0.977384 0.646370 0.000000
vt -0.837758 0.517096 0.000000
vt -0.837758 0.646370 0.000000
vt -0.698132 0.517096 0.000000
vt -0.698132 0.646370 0.000000
vt -0.558505 0.517096 0.000000
vt -0.558505 0.646370 0.000000
vt -0.418879 0.517096 0.000000
vt -0.418879 0.646370 0.000000
vt -0.279253 0.517096 0.000000
vt -0.279253 0.646370 0.000000
vt -1.256637 0.000000 0.000000
vt -1.117011 0.129274 0.000000
vt -1.117011 0.258548 0.000000
vt -0.977384 0.258548 0.000000
vt -0.977384 0.387822 0.000000
vt -0.837758 0.258548 0.000000
vt -0.837758 0.387822 0.000000
vt -0.698132 0.258548 0.000000
vt -0.698132 0.387822 0.000000
vt -0.558505 0.258548 0.000000
vt -0.558505 0.387822 0.000000
vt -0.418879 0.258548 0.000000
vt -0.418879 0.387822 0.000000
vt -0.279253 0.258548 0.000000
vt -0.279253 0.387822 0.000000
vt -1.256637 -0.290866 0.000000
vt -1.117011 -0.129274 0.000000
vt -1.117011 0.000000 0.000000
vt -0.977384 0.000000 0.000000
vt -0.977384 0.129274 0.000000
vt -0.837758 0.000000 0.000000
vt -0.837758 0.129274 0.000000
vt -0.698132 0.000000 0.000000
vt -0.698132 0.129274 0.000000
vt -0.558505 0.000000 0.000000
vt -0.558505 0.129274 0.000000
vt -0.418879 0.000000 0.000000
vt -0.418879 0.129274 0.000000
vt -0.279253 0.000000 0.000000
vt -0.279253 0.129274 0.000000
vt -1.256637 -0.581733 0.000000
vt -1.117011 -0.387822 0.000000
vt -1.117011 -0.258548 0.000000
vt -0.977384 -0.258548 0.000000
vt -0.977384 -0.129274 0.000000
vt -0.837758 -0.258548 0.000000
vt -0.837758 -0.129274 0.000000
vt -0.698132 -0.258548 0.000000
vt -0.698132 -0.129274 0.000000
vt -0.558505 -0.258548 0.000000
vt -0.558505 -0.129274 0.000000
vt -0.418879 -0.258548 0.000000
vt -0.418879 -0.129274 0.000000
vt -0.279253 -0.258548 0.000000
vt -0.279253 -0.129274 0.000000
vt -1.256637 -0.872599 0.000000
vt -1.117011 -0.775644 0.000000
vt -1.117011 -0.646370 0.000000
vt -1.117011 -0.517096 0.000000
vt -0.977384 -0.646370 0.000000
vt -0.977384 -0.517096 0.000000
vt -0.837758 -0.646370 0.000000
vt -0.837758 -0.517096 0.000000
vt -0.698132 -0.646370 0.000000
vt -0.698132 -0.517096 0.000000
vt -0.558505 -0.646370 0.000000
vt -0.558505 -0.517096 0.000000
vt -0.418879 -0.646370 0.000000
vt -0.418879 -0.517096 0.000000
vt -0.279253 -0.646370 0.000000
vt -0.279253 -0.517096 0.000000
vt -1.117011 -0.904918 0.000000
vt -0.977384 -0.904918 0.000000
vt -0.977384 -0.775644 0.000000
vt -0.837758 -0.904918 0.000000
vt -0.837758 -0.775644 0.000000
vt -0.698132 -0.904918 0.000000
vt -0.698132 -0.775644 0.000000
vt -0.558505 -0.904918 0.000000
vt -0.558505 -0.775644 0.000000
vt -0.418879 -0.904918 0.000000
vt -0.418879 -0.775644 0.000000
vt -0.279253 -0.904918 0.000000
vt -0.279253 -0.775644 0.000000
vt -0.279253 2.326932 0.000000
vt -0.418879 2.326932 0.000000
vt -0.558505 2.326932 0.000000
vt -0.698132 2.326932 0.000000
vt -0.837758 2.326932 0.000000
vt -0.977384 2.326932 0.000000
vt -0.977384 -1.551288 0.000000
vt -0.837758 -1.551288 0.000000
vt -0.698132 -1.551288 0.000000
vt -0.558505 -1.551288 0.000000
vt -0.418879 -1.551288 0.000000
vt -0.279253 -1.551288 0.000000
vt -0.977384 -0.387822 0.000000
vt -0.837758 -0.387822 0.000000
vt -0.698132 -0.387822 0.000000
vt -0.558505 -0.387822 0.000000
vt -0.418879 -0.387822 0.000000
vt -0.279253 -0.387822 0.000000
vt -0.977384 0.775644 0.000000
vt -0.837758 0.775644 0.000000
vt -0.698132 0.775644 0.000000
vt -0.558505 0.775644 0.000000
vt -0.418879 0.775644 0.000000
vt -0.279253 0.775644 0.000000
vt -0.977384 1.939110 0.000000
vt -0.837758 1.939110 0.000000
vt -0.698132 1.939110 0.000000
vt -0.558505 1.939110 0.000000
vt -0.418879 1.939110 0.000000
vt -0.279253 1.939110 0.000000
vt -0.000000 -2.892883 0.000000
vt -2.100000 -2.892883 0.000000
vt -0.000000 -3.063053 0.000000
vt -2.100000 -3.063053 0.000000
vt -0.000000 3.063053 0.000000
vt -2.100000 3.063053 0.000000
vt -0.000000 2.892883 0.000000
vt -2.100000 2.892883 0.000000
vt -0.000000 2.722714 0.000000
vt -2.100000 2.722714 0.000000
vt -0.000000 2.552544 0.000000
vt -2.100000 2.552544 0.000000
vt -0.000000 2.382374 0.000000
vt -2.100000 2.382374 0.000000
vt -0.000000 2.212205 0.000000
vt -2.100000 2.212205 0.000000
vt -0.000000 2.042035 0.000000
vt -2.100000 2.042035 0.000000
vt -0.000000 1.871866 0.000000
vt -2.100000 1.871866 0.000000
vt -0.000000 1.701696 0.000000
vt -2.100000 1.701696 0.000000
vt 0.000000 1.531526 0.000000
vt -2.100000 1.531526 0.000000
vt 0.000000 1.361357 0.000000
vt -2.100000 1.361357 0.000000
vt 0.000000 1.191187 0.000000
vt -2.100000 1.191187 0.000000
vt 0.000000 1.021018 0.000000
vt -2.100000 1.021018 0.000000
vt 0.000000 0.850848 0.000000
vt -2.100000 0.850848 0.000000
vt 0.000000 0.680678 0.000000
vt -2.100000 0.680678 0.000000
vt 0.000000 0.510509 0.000000
vt -2.100000 0.510509 0.000000
vt 0.000000 0.340339 0.000000
vt -2.100000 0.340339 0.000000
vt 0.000000 0.170170 0.000000
vt -2.100000 0.170170 0.000000
vt 0.000000 -0.000000 0.000000
vt -2.100000 0.000000 0.000000
vt 0.000000 -0.170170 0.000000
vt -2.100000 -0.170170 0.000000
vt 0.000000 -0.340339 0.000000
vt -2.100000 -0.340339 0.000000
vt 0.000000 -0.510509 0.000000
vt -2.100000 -0.510509 0.000000
vt 0.000000 -0.680678 0.000000
vt -2.100000 -0.680678 0.000000
vt 0.000000 -0.850848 0.000000
vt -2.100000 -0.850848 0.000000
vt 0.000000 -1.021018 0.000000
vt -2.100000 -1.021018 0.000000
vt 0.000000 -1.191187 0.000000
vt -2.100000 -1.191187 0.000000
vt 0.000000 -1.361357 0.000000
vt -2.100000 -1.361357 0.000000
vt -0.000000 -1.531526 0.000000
vt -2.100000 -1.531526 0.000000
vt -0.000000 -1.701696 0.000000
vt -2.100000 -1.701696 0.000000
vt -0.000000 -1.871866 0.000000
vt -2.100000 -1.871866 0.000000
vt -0.000000 -2.042035 0.000000
vt -2.100000 -2.042035 0.000000
vt -0.000000 -2.212205 0.000000
vt -2.100000 -2.212205 0.000000
vt -0.000000 -2.382374 0.000000
vt -2.100000 -2.382374 0.000000
vt -0.000000 -2.552544 0.000000
vt -2.100000 -2.552544 0.000000
vt -0.000000 -2.722714 0.000000
vt -2.100000 -2.722714 0.000000
vt -4.200000 2.892883 0.000000
vt -4.200000 3.063053 0.000000
vt -4.200000 -3.063053 0.000000
vt -4.200000 -2.892883 0.000000
vt -4.200000 -2.722714 0.000000
vt -4.200000 -2.552544 0.000000
vt -4.200000 -2.382374 0.000000
vt -4.200000 -2.212205 0.000000
vt -4.200000 -2.042035 0.000000
vt -4.200000 -1.871866 0.000000
vt -4.200000 -1.701696 0.000000
vt -4.200000 -1.531526 0.000000
vt -4.200000 -1.361357 0.000000
vt -4.200000 -1.191187 0.000000
vt -4.200000 -1.021018 0.000000
vt -4.200000 -0.850848 0.000000
vt -4.200000 -0.680678 0.000000
vt -4.200000 -0.510509 0.000000
vt -4.200000 -0.340339 0.000000
vt -4.200000 -0.170170 0.000000
vt -4.200000 0.000000 0.000000
vt -4.200000 0.170170 0.000000
vt -4.200000 0.340339 0.000000
vt -4.200000 0.510509 0.000000
vt -4.200000 0.680678 0.000000
vt -4.200000 0.850848 0.000000
vt -4.200000 1.021018 0.000000
vt -4.200000 1.191187 0.000000
vt -4.200000 1.361357 0.000000
vt -4.200000 1.531526 0.000000
vt -4.200000 1.701696 0.000000
vt -4.200000 1.871866 0.000000
vt -4.200000 2.042035 0.000000
vt -4.200000 2.212205 0.000000
vt -4.200000 2.382374 0.000000
vt -4.200000 2.552544 0.000000
vt -4.200000 2.722714 0.000000
vt -0.161679 -0.066970 0.000000
vt 0.161679 -0.066970 0.000000
vt -0.175000 0.000000 0.000000
vt 0.175000 -0.000000 0.000000
vt -0.161679 0.066970 0.000000
vt 0.161679 0.066970 0.000000
vt -0.123744 0.123744 0.000000
vt 0.123744 0.123744 0.000000
vt -0.066970 0.161679 0.000000
vt 0.066970 0.161679 0.000000
vt 0.000000 0.175000 0.000000
vt 0.123744 -0.123744 0.000000
vt -0.123744 -0.123744 0.000000
vt 0.066970 -0.161679 0.000000
vt -0.066970 -0.161679 0.000000
vt 0.000000 -0.175000 0.000000
vt -0.785543 0.151401 0.000000
vt -0.960188 0.169307 0.000000
vt -0.800000 0.000000 0.000000
vt -0.975000 -0.000000 0.000000
vt -0.960188 -0.169307 0.000000
vt -0.916200 0.333470 0.000000
vt -0.742694 0.297330 0.000000
vt -0.844375 0.487500 0.000000
vt -0.673003 0.432513 0.000000
vt -0.746893 0.626718 0.000000
vt -0.578987 0.552063 0.000000
vt -0.626718 0.746893 0.000000
vt -0.464046 0.651661 0.000000
vt -0.487500 0.844375 0.000000
vt -0.332332 0.727706 0.000000
vt -0.333470 0.916200 0.000000
vt -0.188607 0.777449 0.000000
vt -0.169307 0.960188 0.000000
vt -0.038066 0.799094 0.000000
vt -0.000000 0.975000 0.000000
vt 0.113852 0.791857 0.000000
vt 0.169307 0.960188 0.000000
vt 0.261654 0.756001 0.000000
vt 0.333470 0.916200 0.000000
vt 0.400000 0.692820 0.000000
vt 0.487500 0.844375 0.000000
vt 0.626718 0.746893 0.000000
vt 0.523889 0.604600 0.000000
vt 0.746893 0.626718 0.000000
vt 0.628842 0.494527 0.000000
vt 0.844375 0.487500 0.000000
vt 0.711068 0.366581 0.000000
vt 0.916200 0.333470 0.000000
vt 0.767594 0.225386 0.000000
vt 0.960188 0.169307 0.000000
vt 0.796378 0.076045 0.000000
vt 0.975000 0.000000 0.000000
vt 0.796378 -0.076045 0.000000
vt 0.960188 -0.169307 0.000000
vt 0.767594 -0.225386 0.000000
vt 0.916200 -0.333470 0.000000
vt 0.711068 -0.366581 0.000000
vt 0.844375 -0.487500 0.000000
vt 0.628842 -0.494527 0.000000
vt 0.746893 -0.626718 0.000000
vt 0.523889 -0.604600 0.000000
vt 0.626718 -0.746893 0.000000
vt 0.400000 -0.692820 0.000000
vt 0.487500 -0.844375 0.000000
vt 0.333470 -0.916200 0.000000
vt 0.261654 -0.756001 0.000000
vt 0.169307 -0.960188 0.000000
vt 0.113852 -0.791857 0.000000
vt -0.000000 -0.975000 0.000000
vt -0.038066 -0.799094 0.000000
vt -0.169307 -0.960188 0.000000
vt -0.188607 -0.777449 0.000000
vt -0.333470 -0.916200 0.000000
vt -0.332332 -0.727706 0.000000
vt -0.487500 -0.844375 0.000000
vt -0.464046 -0.651661 0.000000
vt -0.626718 -0.746893 0.000000
vt -0.578987 -0.552063 0.000000
vt -0.746893 -0.626718 0.000000
vt -0.673003 -0.432513 0.000000
vt -0.844375 -0.487500 0.000000
vt -0.742694 -0.297330 0.000000
vt -0.916200 -0.333470 0.000000
vt -0.785543 -0.151401 0.000000
vn -1.000000 0.000000 -0.000000
vn -1.000000 0.000000 -0.000000
vn -1.000000 0.000000 -0.000000
vn -1.000000 0.000000 -0.000000
vn -1.000000 0.000000 -0.000000
vn -1.000000 0.000000 -0.000000
vn -1.000000 0.000000 -0.000000
vn -1.000000 0.000000 -0.000000
vn -1.000000 0.000000 -0.000000
vn -1.000000 0.000000 -0.000000
vn -1.000000 0.000000 -0.000000
vn -1.000000 0.000000 -0.000000
vn -1.000000 0.000000 -0.000000
vn -1.000000 0.000000 -0.000000
vn -1.000000 0.000000 -0.000000
vn -1.000000 0.000000 -0.000000
vn -1.000000 0.000000 -0.000000
vn -1.000000 0.000000 -0.000000
vn -1.000000 0.000000 -0.000000
vn -0.265156 -0.946781 0.182477
vn -0.265156 -0.951055 0.158703
vn -0.265156 -0.964205 -0.000000
vn -0.265156 -0.951055 -0.158703
vn -0.265156 -0.946781 -0.182477
vn -0.265156 -0.895137 -0.358359
vn -0.265156 -0.847993 -0.458911
vn -0.265156 -0.811141 -0.521289
vn -0.265156 -0.653039 -0.709389
vn -0.265156 -0.697828 -0.665378
vn -0.265156 -0.559294 -0.785419
vn -0.265156 -0.387317 -0.882994
vn -0.265156 -0.400545 -0.877072
vn -0.265156 -0.227320 -0.937026
vn -0.265156 -0.079623 -0.960912
vn -0.265156 -0.045879 -0.963113
vn -0.265156 0.137221 -0.954391
vn -0.265156 0.236698 -0.934701
vn -0.265156 0.315361 -0.911175
vn -0.265156 0.527370 -0.807200
vn -0.265156 0.482103 -0.835026
vn -0.265156 0.631420 -0.728698
vn -0.265156 0.760894 -0.592227
vn -0.265156 0.757917 -0.596032
vn -0.265156 0.857020 -0.441824
vn -0.265156 0.911962 -0.313077
vn -0.265156 0.925148 -0.271648
vn -0.265156 0.959839 -0.091654
vn -0.265156 0.964205 -0.000000
vn -0.265156 0.959839 0.091654
vn -0.265156 0.911962 0.313077
vn -0.265156 0.925148 0.271648
vn -0.265156 0.857020 0.441824
vn -0.265156 0.760894 0.592227
vn -0.265156 0.757917 0.596032
vn -0.265156 0.631420 0.728698
vn -0.265156 0.527370 0.807200
vn -0.265156 0.482103 0.835026
vn -0.265156 0.315361 0.911175
vn -0.265156 0.236698 0.934701
vn -0.265156 0.137221 0.954391
vn -0.265156 -0.079623 0.960912
vn -0.265156 -0.045879 0.963113
vn -0.265156 -0.227320 0.937026
vn -0.265156 -0.387317 0.882994
vn -0.265156 -0.400545 0.877072
vn -0.265156 -0.559294 0.785419
vn -0.265156 -0.653039 0.709389
vn -0.265156 -0.697828 0.665378
vn -0.265156 -0.811141 0.521289
vn -0.265156 -0.847993 0.458911
vn -0.265156 -0.895137 0.358359
vn -0.000000 -0.981929 -0.189251
vn -0.000000 -0.995472 -0.095056
vn -0.000000 -1.000000 -0.000000
vn -0.000000 -0.995472 0.095056
vn -0.000000 -0.981929 0.189251
vn -0.000000 -0.959493 0.281733
vn -0.000000 -0.928368 0.371662
vn -0.000000 -0.888835 0.458227
vn -0.000000 -0.841254 0.540641
vn -0.000000 -0.786053 0.618159
vn -0.000000 -0.723734 0.690079
vn -0.000000 -0.654861 0.755750
vn -0.000000 -0.580057 0.814576
vn -0.000000 -0.500000 0.866025
vn -0.000000 -0.415415 0.909632
vn -0.000000 -0.327068 0.945001
vn -0.000000 -0.235759 0.971812
vn -0.000000 -0.142315 0.989821
vn -0.000000 -0.047582 0.998867
vn 0.000000 0.047582 0.998867
vn 0.000000 0.142315 0.989821
vn 0.000000 0.235759 0.971812
vn 0.000000 0.327068 0.945001
vn 0.000000 0.415415 0.909632
vn 0.000000 0.500000 0.866025
vn 0.000000 0.580057 0.814576
vn 0.000000 0.654861 0.755750
vn 0.000000 0.723734 0.690079
vn 0.000000 0.786053 0.618159
vn 0.000000 0.841254 0.540641
vn 0.000000 0.888835 0.458227
vn 0.000000 0.928368 0.371662
vn 0.000000 0.959493 0.281733
vn 0.000000 0.981929 0.189251
vn 0.000000 0.995472 0.095056
vn 0.000000 1.000000 0.000000
vn 0.000000 0.995472 -0.095056
vn 0.000000 0.981929 -0.189251
vn 0.000000 0.959493 -0.281733
vn 0.000000 0.928368 -0.371662
vn 0.000000 0.888835 -0.458227
vn 0.000000 0.841254 -0.540641
vn 0.000000 0.786053 -0.618159
vn 0.000000 0.723734 -0.690079
vn 0.000000 0.654861 -0.755750
vn 0.000000 0.580057 -0.814576
vn 0.000000 0.500000 -0.866025
vn 0.000000 0.415415 -0.909632
vn 0.000000 0.327068 -0.945001
vn 0.000000 0.235759 -0.971812
vn 0.000000 0.142315 -0.989821
vn 0.000000 0.047582 -0.998867
vn -0.000000 -0.047582 -0.998867
vn -0.000000 -0.142315 -0.989821
vn -0.000000 -0.235759 -0.971812
vn -0.000000 -0.327068 -0.945001
vn -0.000000 -0.415415 -0.909632
vn -0.000000 -0.500000 -0.866025
vn -0.000000 -0.580057 -0.814576
vn -0.000000 -0.654861 -0.755750
vn -0.000000 -0.723734 -0.690079
vn -0.000000 -0.786053 -0.618159
vn -0.000000 -0.841254 -0.540641
vn -0.000000 -0.888835 -0.458227
vn -0.000000 -0.928368 -0.371662
vn -0.000000 -0.959493 -0.281733
vn 0.000000 -0.984808 -0.173648
vn 0.173648 -0.969846 -0.171010
vn 0.000000 -1.000000 -0.000000
vn 0.173648 -0.984808 -0.000000
vn 0.000000 -0.984808 0.173648
vn 0.173648 -0.969846 0.171010
vn 0.000000 -0.939693 0.342020
vn 0.173648 -0.925417 0.336824
vn 0.000000 -0.866025 0.500000
vn 0.173648 -0.852869 0.492404
vn 0.000000 -0.766044 0.642788
vn 0.173648 -0.754407 0.633022
vn 0.000000 -0.642788 0.766044
vn 0.173648 -0.633022 0.754407
vn 0.000000 -0.500000 0.866025
vn 0.173648 -0.492404 0.852869
vn 0.000000 -0.342020 0.939693
vn 0.173648 -0.336824 0.925417
vn 0.000000 -0.173648 0.984808
vn 0.173648 -0.171010 0.969846
vn -0.000000 -0.000000 1.000000
vn 0.173648 -0.000000 0.984808
vn -0.000000 0.173648 0.984808
vn 0.173648 0.171010 0.969846
vn -0.000000 0.342020 0.939693
vn 0.173648 0.336824 0.925417
vn -0.000000 0.500000 0.866025
vn 0.173648 0.492404 0.852869
vn -0.000000 0.642788 0.766044
vn 0.173648 0.633022 0.754407
vn -0.000000 0.766044 0.642788
vn 0.173648 0.754407 0.633022
vn -0.000000 0.866025 0.500000
vn 0.173648 0.852869 0.492404
vn -0.000000 0.939693 0.342020
vn 0.173648 0.925417 0.336824
vn -0.000000 0.984808 0.173648
vn 0.173648 0.969846 0.171010
vn -0.000000 1.000000 -0.000000
vn 0.173648 0.984808 -0.000000
vn -0.000000 0.984808 -0.173648
vn 0.173648 0.969846 -0.171010
vn -0.000000 0.939693 -0.342020
vn 0.173648 0.925417 -0.336824
vn -0.000000 0.866025 -0.500000
vn 0.173648 0.852869 -0.492404
vn -0.000000 0.766044 -0.642788
vn 0.173648 0.754407 -0.633022
vn -0.000000 0.642788 -0.766044
vn 0.173648 0.633022 -0.754407
vn -0.000000 0.500000 -0.866025
vn 0.173648 0.492404 -0.852869
vn -0.000000 0.342020 -0.939693
vn 0.173648 0.336824 -0.925417
vn -0.000000 0.173648 -0.984808
vn 0.173648 0.171010 -0.969846
vn 0.000000 0.000000 -1.000000
vn 0.173648 0.000000 -0.984808
vn 0.000000 -0.173648 -0.984808
vn 0.173648 -0.171010 -0.969846
vn 0.000000 -0.342020 -0.939693
vn 0.173648 -0.336824 -0.925417
vn 0.000000 -0.500000 -0.866025
vn 0.173648 -0.492404 -0.852869
vn 0.000000 -0.642788 -0.766044
vn 0.173648 -0.633022 -0.754407
vn 0.000000 -0.766044 -0.642788
vn 0.173648 -0.754407 -0.633022
vn 0.000000 -0.866025 -0.500000
vn 0.173648 -0.852869 -0.492404
vn 0.000000 -0.939693 -0.342020
vn 0.173648 -0.925417 -0.336824
vn 1.000000 -0.000000 0.000000
vn 0.984808 -0.171010 0.030154
vn 1.000000 -0.000000 -0.000000
vn 0.984808 -0.173648 -0.000000
vn 0.984808 -0.171010 -0.030154
vn 0.939693 -0.342020 -0.000000
vn 0.939693 -0.336824 -0.059391
vn 0.866025 -0.500000 -0.000000
vn 0.866025 -0.492404 -0.086824
vn 0.766044 -0.642788 -0.000000
vn 0.766044 -0.633022 -0.111619
vn 0.642788 -0.766044 -0.000000
vn 0.642788 -0.754407 -0.133022
vn 0.500000 -0.866025 -0.000000
vn 0.500000 -0.852869 -0.150384
vn 0.342020 -0.939693 -0.000000
vn 0.342020 -0.925417 -0.163176
vn 1.000000 -0.000000 0.000000
vn 0.984808 -0.150384 0.086824
vn 0.984808 -0.163176 0.059391
vn 0.939693 -0.321394 0.116978
vn 0.939693 -0.336824 0.059391
vn 0.866025 -0.469846 0.171010
vn 0.866025 -0.492404 0.086824
vn 0.766044 -0.604023 0.219846
vn 0.766044 -0.633022 0.111619
vn 0.642788 -0.719846 0.262003
vn 0.642788 -0.754407 0.133022
vn 0.500000 -0.813798 0.296198
vn 0.500000 -0.852869 0.150384
vn 0.342020 -0.883022 0.321394
vn 0.342020 -0.925417 0.163176
vn 1.000000 -0.000000 0.000000
vn 0.984808 -0.086824 0.150384
vn 0.984808 -0.111619 0.133022
vn 0.984808 -0.133022 0.111619
vn 0.939693 -0.219846 0.262003
vn 0.939693 -0.262003 0.219846
vn 0.866025 -0.321394 0.383022
vn 0.866025 -0.383022 0.321394
vn 0.766044 -0.413176 0.492404
vn 0.766044 -0.492404 0.413176
vn 0.642788 -0.492404 0.586824
vn 0.642788 -0.586824 0.492404
vn 0.500000 -0.556670 0.663414
vn 0.500000 -0.663414 0.556670
vn 0.342020 -0.604023 0.719846
vn 0.342020 -0.719846 0.604023
vn 1.000000 -0.000000 0.000000
vn 0.984808 -0.030154 0.171010
vn 0.984808 -0.059391 0.163176
vn 0.939693 -0.116978 0.321394
vn 0.939693 -0.171010 0.296198
vn 0.866025 -0.171010 0.469846
vn 0.866025 -0.250000 0.433013
vn 0.766044 -0.219846 0.604023
vn 0.766044 -0.321394 0.556670
vn 0.642788 -0.262003 0.719846
vn 0.642788 -0.383022 0.663414
vn 0.500000 -0.296198 0.813798
vn 0.500000 -0.433013 0.750000
vn 0.342020 -0.321394 0.883022
vn 0.342020 -0.469846 0.813798
vn 1.000000 -0.000000 0.000000
vn 0.984808 0.030154 0.171010
vn 0.984808 -0.000000 0.173648
vn 0.939693 -0.000000 0.342020
vn 0.939693 -0.059391 0.336824
vn 0.866025 -0.000000 0.500000
vn 0.866025 -0.086824 0.492404
vn 0.766044 -0.000000 0.642788
vn 0.766044 -0.111619 0.633022
vn 0.642788 -0.000000 0.766044
vn 0.642788 -0.133022 0.754407
vn 0.500000 -0.000000 0.866025
vn 0.500000 -0.150384 0.852869
vn 0.342020 -0.000000 0.939693
vn 0.342020 -0.163176 0.925417
vn 1.000000 -0.000000 0.000000
vn 0.984808 0.086824 0.150384
vn 0.984808 0.059391 0.163176
vn 0.939693 0.116978 0.321394
vn 0.939693 0.059391 0.336824
vn 0.866025 0.171010 0.469846
vn 0.866025 0.086824 0.492404
vn 0.766044 0.219846 0.604023
vn 0.766044 0.111619 0.633022
vn 0.642788 0.262003 0.719846
vn 0.642788 0.133022 0.754407
vn 0.500000 0.296198 0.813798
vn 0.500000 0.150384 0.852869
vn 0.342020 0.321394 0.883022
vn 0.342020 0.163176 0.925417
vn 1.000000 -0.000000 0.000000
vn 0.984808 0.150384 0.086824
vn 0.984808 0.133022 0.111619
vn 0.984808 0.111619 0.133022
vn 0.939693 0.262003 0.219846
vn 0.939693 0.219846 0.262003
vn 0.866025 0.383022 0.321394
vn 0.866025 0.321394 0.383022
vn 0.766044 0.492404 0.413176
vn 0.766044 0.413176 0.492404
vn 0.642788 0.586824 0.492404
vn 0.642788 0.492404 0.586824
vn 0.500000 0.663414 0.556670
vn 0.500000 0.556670 0.663414
vn 0.342020 0.719846 0.604023
vn 0.342020 0.604023 0.719846
vn 1.000000 -0.000000 -0.000000
vn 0.984808 0.171010 0.030154
vn 0.984808 0.163176 0.059391
vn 0.939693 0.321394 0.116978
vn 0.939693 0.296198 0.171010
vn 0.866025 0.469846 0.171010
vn 0.866025 0.433013 0.250000
vn 0.766044 0.604023 0.219846
vn 0.766044 0.556670 0.321394
vn 0.642788 0.719846 0.262003
vn 0.642788 0.663414 0.383022
vn 0.500000 0.813798 0.296198
vn 0.500000 0.750000 0.433013
vn 0.342020 0.883022 0.321394
vn 0.342020 0.813798 0.469846
vn 1.000000 -0.000000 -0.000000
vn 0.984808 0.171010 -0.030154
vn 0.984808 0.173648 -0.000000
vn 0.939693 0.342020 -0.000000
vn 0.939693 0.336824 0.059391
vn 0.866025 0.500000 -0.000000
vn 0.866025 0.492404 0.086824
vn 0.766044 0.642788 -0.000000
vn 0.766044 0.633022 0.111619
vn 0.642788 0.766044 -0.000000
vn 0.642788 0.754407 0.133022
vn 0.500000 0.866025 -0.000000
vn 0.500000 0.852869 0.150384
vn 0.342020 0.939693 -0.000000
vn 0.342020 0.925417 0.163176
vn 1.000000 -0.000000 -0.000000
vn 0.984808 0.150384 -0.086824
vn 0.984808 0.163176 -0.059391
vn 0.939693 0.321394 -0.116978
vn 0.939693 0.336824 -0.059391
vn 0.866025 0.469846 -0.171010
vn 0.866025 0.492404 -0.086824
vn 0.766044 0.604023 -0.219846
vn 0.766044 0.633022 -0.111619
vn 0.642788 0.719846 -0.262003
vn 0.642788 0.754407 -0.133022
vn 0.500000 0.813798 -0.296198
vn 0.500000 0.852869 -0.150384
vn 0.342020 0.883022 -0.321394
vn 0.342020 0.925417 -0.163176
vn 1.000000 -0.000000 -0.000000
vn 0.984808 0.086824 -0.150384
vn 0.984808 0.111619 -0.133022
vn 0.984808 0.133022 -0.111619
vn 0.939693 0.219846 -0.262003
vn 0.939693 0.262003 -0.219846
vn 0.866025 0.321394 -0.383022
vn 0.866025 0.383022 -0.321394
vn 0.766044 0.413176 -0.492404
vn 0.766044 0.492404 -0.413176
vn 0.642788 0.492404 -0.586824
vn 0.642788 0.586824 -0.492404
vn 0.500000 0.556670 -0.663414
vn 0.500000 0.663414 -0.556670
vn 0.342020 0.604023 -0.719846
vn 0.342020 0.719846 -0.604023
vn 1.000000 -0.000000 -0.000000
vn 0.984808 0.030154 -0.171010
vn 0.984808 0.059391 -0.163176
vn 0.939693 0.116978 -0.321394
vn 0.939693 0.171010 -0.296198
vn 0.866025 0.171010 -0.469846
vn 0.866025 0.250000 -0.433013
vn 0.766044 0.219846 -0.604023
vn 0.766044 0.321394 -0.556670
vn 0.642788 0.262003 -0.719846
vn 0.642788 0.383022 -0.663414
vn 0.500000 0.296198 -0.813798
vn 0.500000 0.433013 -0.750000
vn 0.342020 0.321394 -0.883022
vn 0.342020 0.469846 -0.813798
vn 1.000000 -0.000000 -0.000000
vn 0.984808 -0.030154 -0.171010
vn 0.984808 -0.000000 -0.173648
vn 0.939693 -0.000000 -0.342020
vn 0.939693 0.059391 -0.336824
vn 0.866025 -0.000000 -0.500000
vn 0.866025 0.086824 -0.492404
vn 0.766044 -0.000000 -0.642788
vn 0.766044 0.111619 -0.633022
vn 0.642788 -0.000000 -0.766044
vn 0.642788 0.133022 -0.754407
vn 0.500000 0.000000 -0.866025
vn 0.500000 0.150384 -0.852869
vn 0.342020 0.000000 -0.939693
vn 0.342020 0.163176 -0.925417
vn 1.000000 -0.000000 -0.000000
vn 0.984808 -0.086824 -0.150384
vn 0.984808 -0.059391 -0.163176
vn 0.939693 -0.116978 -0.321394
vn 0.939693 -0.059391 -0.336824
vn 0.866025 -0.171010 -0.469846
vn 0.866025 -0.086824 -0.492404
vn 0.766044 -0.219846 -0.604023
vn 0.766044 -0.111619 -0.633022
vn 0.642788 -0.262003 -0.719846
vn 0.642788 -0.133022 -0.754407
vn 0.500000 -0.296198 -0.813798
vn 0.500000 -0.150384 -0.852869
vn 0.342020 -0.321394 -0.883022
vn 0.342020 -0.163176 -0.925417
vn 1.000000 -0.000000 -0.000000
vn 0.984808 -0.150384 -0.086824
vn 0.984808 -0.133022 -0.111619
vn 0.984808 -0.111619 -0.133022
vn 0.939693 -0.262003 -0.219846
vn 0.939693 -0.219846 -0.262003
vn 0.866025 -0.383022 -0.321394
vn 0.866025 -0.321394 -0.383022
vn 0.766044 -0.492404 -0.413176
vn 0.766044 -0.413176 -0.492404
vn 0.642788 -0.586824 -0.492404
vn 0.642788 -0.492404 -0.586824
vn 0.500000 -0.663414 -0.556670
vn 0.500000 -0.556670 -0.663414
vn 0.342020 -0.719846 -0.604023
vn 0.342020 -0.604023 -0.719846
vn 0.984808 -0.163176 -0.059391
vn 0.939693 -0.321394 -0.116978
vn 0.939693 -0.296198 -0.171010
vn 0.866025 -0.469846 -0.171010
vn 0.866025 -0.433013 -0.250000
vn 0.766044 -0.604023 -0.219846
vn 0.766044 -0.556670 -0.321394
vn 0.642788 -0.719846 -0.262003
vn 0.642788 -0.663414 -0.383022
vn 0.500000 -0.813798 -0.296198
vn 0.500000 -0.750000 -0.433013
vn 0.342020 -0.883022 -0.321394
vn 0.342020 -0.813798 -0.469846
vn 0.939693 -0.296198 0.171010
vn 0.866025 -0.433013 0.250000
vn 0.766044 -0.556670 0.321394
vn 0.642788 -0.663414 0.383022
vn 0.500000 -0.750000 0.433013
vn 0.342020 -0.813798 0.469846
vn 0.939693 -0.171010 -0.296198
vn 0.866025 -0.250000 -0.433013
vn 0.766044 -0.321394 -0.556670
vn 0.642788 -0.383022 -0.663414
vn 0.500000 -0.433013 -0.750000
vn 0.342020 -0.469846 -0.813798
vn 0.939693 0.296198 -0.171010
vn 0.866025 0.433013 -0.250000
vn 0.766044 0.556670 -0.321394
vn 0.642788 0.663414 -0.383022
vn 0.500000 0.750000 -0.433013
vn 0.342020 0.813798 -0.469846
vn 0.939693 0.171010 0.296198
vn 0.866025 0.250000 0.433013
vn 0.766044 0.321394 0.556670
vn 0.642788 0.383022 0.663414
vn 0.500000 0.433013 0.750000
vn 0.342020 0.469846 0.813798
vn -0.000000 -0.984808 -0.173648
vn -0.000000 -0.984808 -0.173648
vn -0.000000 -1.000000 -0.000000
vn -0.000000 -1.000000 -0.000000
vn -0.000000 -0.984808 0.173648
vn -0.000000 -0.984808 0.173648
vn -0.000000 -0.939693 0.342020
vn -0.000000 -0.939693 0.342020
vn -0.000000 -0.866025 0.500000
vn -0.000000 -0.866025 0.500000
vn -0.000000 -0.766044 0.642788
vn -0.000000 -0.766044 0.642788
vn -0.000000 -0.642788 0.766044
vn -0.000000 -0.642788 0.766044
vn -0.000000 -0.500000 0.866025
vn -0.000000 -0.500000 0.866025
vn -0.000000 -0.342020 0.939693
vn -0.000000 -0.342020 0.939693
vn -0.000000 -0.173648 0.984808
vn -0.000000 -0.173648 0.984808
vn 0.000000 0.000000 1.000000
vn 0.000000 0.000000 1.000000
vn 0.000000 0.173648 0.984808
vn 0.000000 0.173648 0.984808
vn 0.000000 0.342020 0.939693
vn 0.000000 0.342020 0.939693
vn 0.000000 0.500000 0.866025
vn 0.000000 0.500000 0.866025
vn 0.000000 0.642788 0.766044
vn 0.000000 0.642788 0.766044
vn 0.000000 0.766044 0.642788
vn 0.000000 0.766044 0.642788
vn 0.000000 0.866025 0.500000
vn 0.000000 0.866025 0.500000
vn 0.000000 0.939693 0.342020
vn 0.000000 0.939693 0.342020
vn 0.000000 0.984808 0.173648
vn 0.000000 0.984808 0.173648
vn 0.000000 1.000000 -0.000000
vn 0.000000 1.000000 0.000000
vn 0.000000 0.984808 -0.173648
vn 0.000000 0.984808 -0.173648
vn 0.000000 0.939693 -0.342020
vn 0.000000 0.939693 -0.342020
vn 0.000000 0.866025 -0.500000
vn 0.000000 0.866025 -0.500000
vn 0.000000 0.766044 -0.642788
vn 0.000000 0.766044 -0.642788
vn 0.000000 0.642788 -0.766044
vn 0.000000 0.642788 -0.766044
vn 0.000000 0.500000 -0.866025
vn 0.000000 0.500000 -0.866025
vn 0.000000 0.342020 -0.939693
vn 0.000000 0.342020 -0.939693
vn 0.000000 0.173648 -0.984808
vn 0.000000 0.173648 -0.984808
vn -0.000000 0.000000 -1.000000
vn -0.000000 0.000000 -1.000000
vn -0.000000 -0.173648 -0.984808
vn -0.000000 -0.173648 -0.984808
vn -0.000000 -0.342020 -0.939693
vn -0.000000 -0.342020 -0.939693
vn -0.000000 -0.500000 -0.866025
vn -0.000000 -0.500000 -0.866025
vn -0.000000 -0.642788 -0.766044
vn -0.000000 -0.642788 -0.766044
vn -0.000000 -0.766044 -0.642788
vn -0.000000 -0.766044 -0.642788
vn -0.000000 -0.866025 -0.500000
vn -0.000000 -0.866025 -0.500000
vn -0.000000 -0.939693 -0.342020
vn -0.000000 -0.939693 -0.342020
vn -1.000000 0.000000 0.000000
vn -1.000000 0.000000 0.000000
vn -1.000000 0.000000 0.000000
vn -1.000000 0.000000 0.000000
vn -1.000000 0.000000 0.000000
vn -1.000000 0.000000 0.000000
vn -1.000000 0.000000 0.000000
vn -1.000000 0.000000 0.000000
vn -1.000000 0.000000 0.000000
vn -1.000000 0.000000 0.000000
vn -1.000000 0.000000 0.000000
vn -1.000000 0.000000 0.000000
vn -1.000000 0.000000 0.000000
vn -1.000000 0.000000 0.000000
vn -1.000000 0.000000 0.000000
vn -1.000000 0.000000 0.000000
vn -1.000000 0.000000 0.000000
vn -1.000000 0.000000 0.000000
vn -1.000000 0.000000 0.000000
vn -1.000000 0.000000 0.000000
vn -1.000000 0.000000 0.000000
vn -1.000000 0.000000 0.000000
vn -1.000000 0.000000 0.000000
vn -1.000000 0.000000 0.000000
vn -1.000000 0.000000 0.000000
vn -1.000000 0.000000 0.000000
vn -1.000000 0.000000 0.000000
vn -1.000000 0.000000 0.000000
vn -1.000000 0.000000 0.000000
vn -1.000000 0.000000 0.000000
vn -1.000000 0.000000 0.000000
vn -1.000000 0.000000 0.000000
vn -1.000000 0.000000 0.000000
vn -1.000000 0.000000 0.000000
vn -1.000000 0.000000 0.000000
vn -1.000000 0.000000 0.000000
vn -1.000000 0.000000 0.000000
vn -1.000000 0.000000 0.000000
vn -1.000000 0.000000 0.000000
vn -1.000000 0.000000 0.000000
vn -1.000000 0.000000 0.000000
vn -1.000000 0.000000 0.000000
vn -1.000000 0.000000 0.000000
vn -1.000000 0.000000 0.000000
vn -1.000000 0.000000 0.000000
vn -1.000000 0.000000 0.000000
vn -1.000000 0.000000 0.000000
vn -1.000000 0.000000 0.000000
vn -1.000000 0.000000 0.000000
vn -1.000000 0.000000 0.000000
vn -1.000000 0.000000 0.000000
vn -1.000000 0.000000 0.000000
vn -1.000000 0.000000 0.000000
vn -1.000000 0.000000 0.000000
vn -1.000000 0.000000 0.000000
vn -1.000000 0.000000 0.000000
vn -1.000000 0.000000 0.000000
vn -1.000000 0.000000 0.000000
vn -1.000000 0.000000 0.000000
vn -1.000000 0.000000 0.000000
vn -1.000000 0.000000 0.000000
vn -1.000000 0.000000 0.000000
vn -1.000000 0.000000 0.000000
vn -1.000000 0.000000 0.000000
vn -1.000000 0.000000 0.000000
vn -1.000000 0.000000 0.000000
vn -1.000000 0.000000 0.000000
vn -1.000000 0.000000 0.000000
vn -1.000000 0.000000 0.000000
usemtl Opaque(255,128,64)
f 1/1/1 2/2/2 19/3/3
f 19/3/3 2/2/2 18/4/4
f 18/4/4 2/2/2 3/5/5
f 18/4/4 3/5/5 17/6/6
f 17/6/6 3/5/5 4/7/7
f 17/6/6 4/7/7 16/8/8
f 16/8/8 4/7/7 5/9/9
f 16/8/8 5/9/9 15/10/10
f 15/10/10 5/9/9 6/11/11
f 15/10/10 6/11/11 14/12/12
f 14/12/12 6/11/11 7/13/13
f 14/12/12 7/13/13 13/14/14
f 13/14/14 7/13/13 8/15/15
f 13/14/14 8/15/15 12/16/16
f 12/16/16 8/15/15 9/17/17
f 12/16/16 9/17/17 11/18/18
f 11/18/18 9/17/17 10/19/19
f 21/20/20 11/21/21 20/22/22
f 20/22/22 11/21/21 10/23/23
f 20/22/22 10/23/23 52/24/24
f 52/24/24 10/23/23 51/25/25
f 51/25/25 10/23/23 9/26/26
f 51/25/25 9/26/26 50/27/27
f 50/27/27 9/26/26 8/28/28
f 50/27/27 8/28/28 49/29/29
f 49/29/29 8/28/28 48/30/30
f 48/30/30 8/28/28 7/31/31
f 48/30/30 7/31/31 47/32/32
f 47/32/32 7/31/31 46/33/33
f 46/33/33 7/31/31 6/34/34
f 46/33/33 6/34/34 45/35/35
f 45/35/35 6/34/34 44/36/36
f 44/36/36 6/34/34 5/37/37
f 44/36/36 5/37/37 43/38/38
f 43/38/38 5/37/37 4/39/39
f 43/38/38 4/39/39 42/40/40
f 42/40/40 4/39/39 41/41/41
f 41/41/41 4/39/39 3/42/42
f 41/41/41 3/42/42 40/43/43
f 40/43/43 3/42/42 39/44/44
f 39/44/44 3/42/42 2/45/45
f 39/44/44 2/45/45 38/46/46
f 38/46/46 2/45/45 37/47/47
f 37/47/47 2/45/45 1/48/48
f 37/47/47 1/48/48 36/49/49
f 36/50/49 1/51/48 19/52/50
f 36/50/49 19/52/50 35/53/51
f 35/53/51 19/52/50 34/54/52
f 34/54/52 19/52/50 18/55/53
f 34/54/52 18/55/53 33/56/54
f 33/56/54 18/55/53 32/57/55
f 32/57/55 18/55/53 17/58/56
f 32/57/55 17/58/56 31/59/57
f 31/59/57 17/58/56 30/60/58
f 30/60/58 17/58/56 16/61/59
f 30/60/58 16/61/59 29/62/60
f 29/62/60 16/61/59 15/63/61
f 29/62/60 15/63/61 28/64/62
f 28/64/62 15/63/61 27/65/63
f 27/65/63 15/63/61 14/66/64
f 27/65/63 14/66/64 26/67/65
f 26/67/65 14/66/64 25/68/66
f 25/68/66 14/66/64 13/69/67
f 25/68/66 13/69/67 24/70/68
f 24/70/68 13/69/67 23/71/69
f 23/71/69 13/69/67 12/72/70
f 23/71/69 12/72/70 22/73/71
f 22/73/71 12/72/70 11/21/21
f 22/73/71 11/21/21 21/20/20
f 52/74/72 69/75/73 20/76/74
f 20/76/74 69/75/73 70/77/75
f 20/76/74 70/77/75 21/78/76
f 21/78/76 70/77/75 71/79/77
f 21/78/76 71/79/77 22/80/78
f 22/80/78 71/79/77 72/81/79
f 22/80/78 72/81/79 23/82/80
f 23/82/80 72/81/79 73/83/81
f 23/82/80 73/83/81 24/84/82
f 24/84/82 73/83/81 74/85/83
f 24/84/82 74/85/83 25/86/84
f 25/86/84 74/85/83 75/87/85
f 25/86/84 75/87/85 26/88/86
f 26/88/86 75/87/85 76/89/87
f 26/88/86 76/89/87 27/90/88
f 27/90/88 76/89/87 77/91/89
f 27/90/88 77/91/89 28/92/90
f 28/92/90 77/91/89 78/93/91
f 28/92/90 78/93/91 29/94/92
f 29/94/92 78/93/91 79/95/93
f 29/94/92 79/95/93 30/96/94
f 30/96/94 79/95/93 80/97/95
f 30/96/94 80/97/95 31/98/96
f 31/98/96 80/97/95 81/99/97
f 31/98/96 81/99/97 32/100/98
f 32/100/98 81/99/97 82/101/99
f 32/100/98 82/101/99 33/102/100
f 33/102/100 82/101/99 83/103/101
f 33/102/100 83/103/101 34/104/102
f 34/104/102 83/103/101 84/105/103
f 34/104/102 84/105/103 35/106/104
f 35/106/104 84/105/103 85/107/105
f 35/106/104 85/107/105 36/108/106
f 36/108/106 85/107/105 53/109/107
f 36/108/106 53/109/107 37/110/108
f 37/111/108 53/112/107 54/113/109
f 37/111/108 54/113/109 38/114/110
f 38/114/110 54/113/109 55/115/111
f 38/114/110 55/115/111 39/116/112
f 39/116/112 55/115/111 56/117/113
f 39/116/112 56/117/113 40/118/114
f 40/118/114 56/117/113 57/119/115
f 40/118/114 57/119/115 41/120/116
f 41/120/116 57/119/115 58/121/117
f 41/120/116 58/121/117 42/122/118
f 42/122/118 58/121/117 59/123/119
f 42/122/118 59/123/119 43/124/120
f 43/124/120 59/123/119 60/125/121
f 43/124/120 60/125/121 44/126/122
f 44/126/122 60/125/121 61/127/123
f 44/126/122 61/127/123 45/128/124
f 45/128/124 61/127/123 62/129/125
f 45/128/124 62/129/125 46/130/126
f 46/130/126 62/129/125 63/131/127
f 46/130/126 63/131/127 47/132/128
f 47/132/128 63/131/127 64/133/129
f 47/132/128 64/133/129 48/134/130
f 48/134/130 64/133/129 65/135/131
f 48/134/130 65/135/131 49/136/132
f 49/136/132 65/135/131 66/137/133
f 49/136/132 66/137/133 50/138/134
f 50/138/134 66/137/133 67/139/135
f 50/138/134 67/139/135 51/140/136
f 51/140/136 67/139/135 68/141/137
f 51/140/136 68/141/137 52/74/72
f 52/74/72 68/141/137 69/75/73
f 87/142/138 162/143/139 86/144/140
f 86/144/140 162/143/139 176/145/141
f 86/144/140 176/145/141 121/146/142
f 121/146/142 176/145/141 419/147/143
f 121/146/142 419/147/143 120/148/144
f 120/148/144 419/147/143 411/149/145
f 120/148/144 411/149/145 119/150/146
f 119/150/146 411/149/145 404/151/147
f 119/150/146 404/151/147 118/152/148
f 118/152/148 404/151/147 396/153/149
f 118/152/148 396/153/149 117/154/150
f 117/154/150 396/153/149 388/155/151
f 117/154/150 388/155/151 116/156/152
f 116/156/152 388/155/151 381/157/153
f 116/156/152 381/157/153 115/158/154
f 115/158/154 381/157/153 373/159/155
f 115/158/154 373/159/155 114/160/156
f 114/160/156 373/159/155 366/161/157
f 114/160/156 366/161/157 113/162/158
f 113/162/158 366/161/157 138/163/159
f 113/164/158 138/165/159 112/166/160
f 112/166/160 138/165/159 359/167/161
f 112/166/160 359/167/161 111/168/162
f 111/168/162 359/167/161 351/169/163
f 111/168/162 351/169/163 110/170/164
f 110/170/164 351/169/163 344/171/165
f 110/170/164 344/171/165 109/172/166
f 109/172/166 344/171/165 336/173/167
f 109/172/166 336/173/167 108/174/168
f 108/174/168 336/173/167 328/175/169
f 108/174/168 328/175/169 107/176/170
f 107/176/170 328/175/169 321/177/171
f 107/176/170 321/177/171 106/178/172
f 106/178/172 321/177/171 313/179/173
f 106/178/172 313/179/173 105/180/174
f 105/180/174 313/179/173 306/181/175
f 105/180/174 306/181/175 104/182/176
f 104/182/176 306/181/175 298/183/177
f 104/182/176 298/183/177 103/184/178
f 103/184/178 298/183/177 291/185/179
f 103/184/178 291/185/179 102/186/180
f 102/186/180 291/185/179 283/187/181
f 102/186/180 283/187/181 101/188/182
f 101/188/182 283/187/181 276/189/183
f 101/188/182 276/189/183 100/190/184
f 100/190/184 276/189/183 268/191/185
f 100/190/184 268/191/185 99/192/186
f 99/192/186 268/191/185 260/193/187
f 99/192/186 260/193/187 98/194/188
f 98/194/188 260/193/187 253/195/189
f 98/194/188 253/195/189 97/196/190
f 97/196/190 253/195/189 245/197/191
f 97/196/190 245/197/191 96/198/192
f 96/198/192 245/197/191 238/199/193
f 96/198/192 238/199/193 95/200/194
f 95/200/194 238/199/193 230/201/195
f 95/200/194 230/201/195 94/202/196
f 94/202/196 230/201/195 223/203/197
f 94/202/196 223/203/197 93/204/198
f 93/204/198 223/203/197 215/205/199
f 93/204/198 215/205/199 92/206/200
f 92/206/200 215/205/199 208/207/201
f 92/206/200 208/207/201 91/208/202
f 91/208/202 208/207/201 200/209/203
f 91/208/202 200/209/203 90/210/204
f 90/210/204 200/209/203 192/211/205
f 90/210/204 192/211/205 89/212/206
f 89/212/206 192/211/205 185/213/207
f 89/212/206 185/213/207 88/214/208
f 88/214/208 185/213/207 177/215/209
f 88/214/208 177/215/209 87/142/138
f 87/142/138 177/215/209 162/143/139
f 123/216/210 149/217/211 122/218/212
f 122/218/212 149/217/211 169/219/213
f 122/218/212 169/219/213 150/220/214
f 150/220/214 169/219/213 170/221/215
f 150/220/214 170/221/215 168/222/216
f 168/222/216 170/221/215 171/223/217
f 168/222/216 171/223/217 167/224/218
f 167/224/218 171/223/217 172/225/219
f 167/224/218 172/225/219 166/226/220
f 166/226/220 172/225/219 173/227/221
f 166/226/220 173/227/221 165/228/222
f 165/228/222 173/227/221 174/229/223
f 165/228/222 174/229/223 164/230/224
f 164/230/224 174/229/223 175/231/225
f 164/230/224 175/231/225 163/232/226
f 163/232/226 175/231/225 176/145/141
f 163/232/226 176/145/141 162/143/139
f 124/233/227 148/234/228 123/216/210
f 123/216/210 148/234/228 418/235/229
f 123/216/210 418/235/229 149/217/211
f 149/217/211 418/235/229 417/236/230
f 149/217/211 417/236/230 425/237/231
f 425/237/231 417/236/230 416/238/232
f 425/237/231 416/238/232 424/239/233
f 424/239/233 416/238/232 415/240/234
f 424/239/233 415/240/234 423/241/235
f 423/241/235 415/240/234 414/242/236
f 423/241/235 414/242/236 422/243/237
f 422/243/237 414/242/236 413/244/238
f 422/243/237 413/244/238 421/245/239
f 421/245/239 413/244/238 412/246/240
f 421/245/239 412/246/240 420/247/241
f 420/247/241 412/246/240 411/149/145
f 420/247/241 411/149/145 419/147/143
f 125/248/242 147/249/243 124/233/227
f 124/233/227 147/249/243 395/250/244
f 124/233/227 395/250/244 403/251/245
f 403/251/245 395/250/244 394/252/246
f 403/251/245 394/252/246 402/253/247
f 402/253/247 394/252/246 393/254/248
f 402/253/247 393/254/248 401/255/249
f 401/255/249 393/254/248 392/256/250
f 401/255/249 392/256/250 400/257/251
f 400/257/251 392/256/250 391/258/252
f 400/257/251 391/258/252 399/259/253
f 399/259/253 391/258/252 390/260/254
f 399/259/253 390/260/254 398/261/255
f 398/261/255 390/260/254 389/262/256
f 398/261/255 389/262/256 397/263/257
f 397/263/257 389/262/256 388/155/151
f 397/263/257 388/155/151 396/153/149
f 126/264/258 146/265/259 125/248/242
f 125/248/242 146/265/259 380/266/260
f 125/248/242 380/266/260 147/249/243
f 147/249/243 380/266/260 379/267/261
f 147/249/243 379/267/261 387/268/262
f 387/268/262 379/267/261 378/269/263
f 387/268/262 378/269/263 386/270/264
f 386/270/264 378/269/263 377/271/265
f 386/270/264 377/271/265 385/272/266
f 385/272/266 377/271/265 376/273/267
f 385/272/266 376/273/267 384/274/268
f 384/274/268 376/273/267 375/275/269
f 384/274/268 375/275/269 383/276/270
f 383/276/270 375/275/269 374/277/271
f 383/276/270 374/277/271 382/278/272
f 382/278/272 374/277/271 373/159/155
f 382/278/272 373/159/155 381/157/153
f 127/279/273 161/280/274 126/281/258
f 126/281/258 161/280/274 145/282/275
f 126/264/258 145/283/275 146/265/259
f 146/265/259 145/283/275 144/284/276
f 146/265/259 144/284/276 372/285/277
f 372/285/277 144/284/276 143/286/278
f 372/285/277 143/286/278 371/287/279
f 371/287/279 143/286/278 142/288/280
f 371/287/279 142/288/280 370/289/281
f 370/289/281 142/288/280 141/290/282
f 370/289/281 141/290/282 369/291/283
f 369/291/283 141/290/282 140/292/284
f 369/291/283 140/292/284 368/293/285
f 368/293/285 140/292/284 139/294/286
f 368/293/285 139/294/286 367/295/287
f 367/295/287 139/294/286 138/163/159
f 367/295/287 138/163/159 366/161/157
f 128/296/288 160/297/289 127/279/273
f 127/279/273 160/297/289 358/298/290
f 127/279/273 358/298/290 161/280/274
f 161/280/274 358/298/290 357/299/291
f 161/280/274 357/299/291 365/300/292
f 365/300/292 357/299/291 356/301/293
f 365/300/292 356/301/293 364/302/294
f 364/302/294 356/301/293 355/303/295
f 364/302/294 355/303/295 363/304/296
f 363/304/296 355/303/295 354/305/297
f 363/304/296 354/305/297 362/306/298
f 362/306/298 354/305/297 353/307/299
f 362/306/298 353/307/299 361/308/300
f 361/308/300 353/307/299 352/309/301
f 361/308/300 352/309/301 360/310/302
f 360/310/302 352/309/301 351/169/163
f 360/310/302 351/169/163 359/167/161
f 129/311/303 159/312/304 128/296/288
f 128/296/288 159/312/304 335/313/305
f 128/296/288 335/313/305 343/314/306
f 343/314/306 335/313/305 334/315/307
f 343/314/306 334/315/307 342/316/308
f 342/316/308 334/315/307 333/317/309
f 342/316/308 333/317/309 341/318/310
f 341/318/310 333/317/309 332/319/311
f 341/318/310 332/319/311 340/320/312
f 340/320/312 332/319/311 331/321/313
f 340/320/312 331/321/313 339/322/314
f 339/322/314 331/321/313 330/323/315
f 339/322/314 330/323/315 338/324/316
f 338/324/316 330/323/315 329/325/317
f 338/324/316 329/325/317 337/326/318
f 337/326/318 329/325/317 328/175/169
f 337/326/318 328/175/169 336/173/167
f 130/327/319 158/328/320 129/311/303
f 129/311/303 158/328/320 320/329/321
f 129/311/303 320/329/321 159/312/304
f 159/312/304 320/329/321 319/330/322
f 159/312/304 319/330/322 327/331/323
f 327/331/323 319/330/322 318/332/324
f 327/331/323 318/332/324 326/333/325
f 326/333/325 318/332/324 317/334/326
f 326/333/325 317/334/326 325/335/327
f 325/335/327 317/334/326 316/336/328
f 325/335/327 316/336/328 324/337/329
f 324/337/329 316/336/328 315/338/330
f 324/337/329 315/338/330 323/339/331
f 323/339/331 315/338/330 314/340/332
f 323/339/331 314/340/332 322/341/333
f 322/341/333 314/340/332 313/179/173
f 322/341/333 313/179/173 321/177/171
f 131/342/334 157/343/335 130/327/319
f 130/327/319 157/343/335 305/344/336
f 130/327/319 305/344/336 158/328/320
f 158/328/320 305/344/336 304/345/337
f 158/328/320 304/345/337 312/346/338
f 312/346/338 304/345/337 303/347/339
f 312/346/338 303/347/339 311/348/340
f 311/348/340 303/347/339 302/349/341
f 311/348/340 302/349/341 310/350/342
f 310/350/342 302/349/341 301/351/343
f 310/350/342 301/351/343 309/352/344
f 309/352/344 301/351/343 300/353/345
f 309/352/344 300/353/345 308/354/346
f 308/354/346 300/353/345 299/355/347
f 308/354/346 299/355/347 307/356/348
f 307/356/348 299/355/347 298/183/177
f 307/356/348 298/183/177 306/181/175
f 132/357/349 156/358/350 131/342/334
f 131/342/334 156/358/350 290/359/351
f 131/342/334 290/359/351 157/343/335
f 157/343/335 290/359/351 289/360/352
f 157/343/335 289/360/352 297/361/353
f 297/361/353 289/360/352 288/362/354
f 297/361/353 288/362/354 296/363/355
f 296/363/355 288/362/354 287/364/356
f 296/363/355 287/364/356 295/365/357
f 295/365/357 287/364/356 286/366/358
f 295/365/357 286/366/358 294/367/359
f 294/367/359 286/366/358 285/368/360
f 294/367/359 285/368/360 293/369/361
f 293/369/361 285/368/360 284/370/362
f 293/369/361 284/370/362 292/371/363
f 292/371/363 284/370/362 283/187/181
f 292/371/363 283/187/181 291/185/179
f 133/372/364 155/373/365 132/357/349
f 132/357/349 155/373/365 267/374/366
f 132/357/349 267/374/366 275/375/367
f 275/375/367 267/374/366 266/376/368
f 275/375/367 266/376/368 274/377/369
f 274/377/369 266/376/368 265/378/370
f 274/377/369 265/378/370 273/379/371
f 273/379/371 265/378/370 264/380/372
f 273/379/371 264/380/372 272/381/373
f 272/381/373 264/380/372 263/382/374
f 272/381/373 263/382/374 271/383/375
f 271/383/375 263/382/374 262/384/376
f 271/383/375 262/384/376 270/385/377
f 270/385/377 262/384/376 261/386/378
f 270/385/377 261/386/378 269/387/379
f 269/387/379 261/386/378 260/193/187
f 269/387/379 260/193/187 268/191/185
f 134/388/380 154/389/381 133/372/364
f 133/372/364 154/389/381 252/390/382
f 133/372/364 252/390/382 155/373/365
f 155/373/365 252/390/382 251/391/383
f 155/373/365 251/391/383 259/392/384
f 259/392/384 251/391/383 250/393/385
f 259/392/384 250/393/385 258/394/386
f 258/394/386 250/393/385 249/395/387
f 258/394/386 249/395/387 257/396/388
f 257/396/388 249/395/387 248/397/389
f 257/396/388 248/397/389 256/398/390
f 256/398/390 248/397/389 247/399/391
f 256/398/390 247/399/391 255/400/392
f 255/400/392 247/399/391 246/401/393
f 255/400/392 246/401/393 254/402/394
f 254/402/394 246/401/393 245/197/191
f 254/402/394 245/197/191 253/195/189
f 135/403/395 153/404/396 134/388/380
f 134/388/380 153/404/396 237/405/397
f 134/388/380 237/405/397 154/389/381
f 154/389/381 237/405/397 236/406/398
f 154/389/381 236/406/398 244/407/399
f 244/407/399 236/406/398 235/408/400
f 244/407/399 235/408/400 243/409/401
f 243/409/401 235/408/400 234/410/402
f 243/409/401 234/410/402 242/411/403
f 242/411/403 234/410/402 233/412/404
f 242/411/403 233/412/404 241/413/405
f 241/413/405 233/412/404 232/414/406
f 241/413/405 232/414/406 240/415/407
f 240/415/407 232/414/406 231/416/408
f 240/415/407 231/416/408 239/417/409
f 239/417/409 231/416/408 230/201/195
f 239/417/409 230/201/195 238/199/193
f 136/418/410 152/419/411 135/403/395
f 135/403/395 152/419/411 222/420/412
f 135/403/395 222/420/412 153/404/396
f 153/404/396 222/420/412 221/421/413
f 153/404/396 221/421/413 229/422/414
f 229/422/414 221/421/413 220/423/415
f 229/422/414 220/423/415 228/424/416
f 228/424/416 220/423/415 219/425/417
f 228/424/416 219/425/417 227/426/418
f 227/426/418 219/425/417 218/427/419
f 227/426/418 218/427/419 226/428/420
f 226/428/420 218/427/419 217/429/421
f 226/428/420 217/429/421 225/430/422
f 225/430/422 217/429/421 216/431/423
f 225/430/422 216/431/423 224/432/424
f 224/432/424 216/431/423 215/205/199
f 224/432/424 215/205/199 223/203/197
f 137/433/425 151/434/426 136/418/410
f 136/418/410 151/434/426 199/435/427
f 136/418/410 199/435/427 207/436/428
f 207/436/428 199/435/427 198/437/429
f 207/436/428 198/437/429 206/438/430
f 206/438/430 198/437/429 197/439/431
f 206/438/430 197/439/431 205/440/432
f 205/440/432 197/439/431 196/441/433
f 205/440/432 196/441/433 204/442/434
f 204/442/434 196/441/433 195/443/435
f 204/442/434 195/443/435 203/444/436
f 203/444/436 195/443/435 194/445/437
f 203/444/436 194/445/437 202/446/438
f 202/446/438 194/445/437 193/447/439
f 202/446/438 193/447/439 201/448/440
f 201/448/440 193/447/439 192/211/205
f 201/448/440 192/211/205 200/209/203
f 122/218/212 150/220/214 137/433/425
f 137/433/425 150/220/214 184/449/441
f 137/433/425 184/449/441 151/434/426
f 151/434/426 184/449/441 183/450/442
f 151/434/426 183/450/442 191/451/443
f 191/451/443 183/450/442 182/452/444
f 191/451/443 182/452/444 190/453/445
f 190/453/445 182/452/444 181/454/446
f 190/453/445 181/454/446 189/455/447
f 189/455/447 181/454/446 180/456/448
f 189/455/447 180/456/448 188/457/449
f 188/457/449 180/456/448 179/458/450
f 188/457/449 179/458/450 187/459/451
f 187/459/451 179/458/450 178/460/452
f 187/459/451 178/460/452 186/461/453
f 186/461/453 178/460/452 177/215/209
f 186/461/453 177/215/209 185/213/207
f 360/310/302 359/167/161 139/462/286
f 139/462/286 359/167/161 138/165/159
f 361/308/300 360/310/302 140/463/284
f 140/463/284 360/310/302 139/462/286
f 362/306/298 361/308/300 141/464/282
f 141/464/282 361/308/300 140/463/284
f 363/304/296 362/306/298 142/465/280
f 142/465/280 362/306/298 141/464/282
f 364/302/294 363/304/296 143/466/278
f 143/466/278 363/304/296 142/465/280
f 365/300/292 364/302/294 144/467/276
f 144/467/276 364/302/294 143/466/278
f 161/280/274 365/300/292 145/282/275
f 145/282/275 365/300/292 144/467/276
f 124/233/227 403/251/245 148/234/228
f 148/234/228 403/251/245 402/253/247
f 148/234/228 402/253/247 410/468/454
f 410/468/454 402/253/247 401/255/249
f 410/468/454 401/255/249 409/469/455
f 409/469/455 401/255/249 400/257/251
f 409/469/455 400/257/251 408/470/456
f 408/470/456 400/257/251 399/259/253
f 408/470/456 399/259/253 407/471/457
f 407/471/457 399/259/253 398/261/255
f 407/471/457 398/261/255 406/472/458
f 406/472/458 398/261/255 397/263/257
f 406/472/458 397/263/257 405/473/459
f 405/473/459 397/263/257 396/153/149
f 405/473/459 396/153/149 404/151/147
f 136/418/410 207/436/428 152/419/411
f 152/419/411 207/436/428 206/438/430
f 152/419/411 206/438/430 214/474/460
f 214/474/460 206/438/430 205/440/432
f 214/474/460 205/440/432 213/475/461
f 213/475/461 205/440/432 204/442/434
f 213/475/461 204/442/434 212/476/462
f 212/476/462 204/442/434 203/444/436
f 212/476/462 203/444/436 211/477/463
f 211/477/463 203/444/436 202/446/438
f 211/477/463 202/446/438 210/478/464
f 210/478/464 202/446/438 201/448/440
f 210/478/464 201/448/440 209/479/465
f 209/479/465 201/448/440 200/209/203
f 209/479/465 200/209/203 208/207/201
f 132/357/349 275/375/367 156/358/350
f 156/358/350 275/375/367 274/377/369
f 156/358/350 274/377/369 282/480/466
f 282/480/466 274/377/369 273/379/371
f 282/480/466 273/379/371 281/481/467
f 281/481/467 273/379/371 272/381/373
f 281/481/467 272/381/373 280/482/468
f 280/482/468 272/381/373 271/383/375
f 280/482/468 271/383/375 279/483/469
f 279/483/469 271/383/375 270/385/377
f 279/483/469 270/385/377 278/484/470
f 278/484/470 270/385/377 269/387/379
f 278/484/470 269/387/379 277/485/471
f 277/485/471 269/387/379 268/191/185
f 277/485/471 268/191/185 276/189/183
f 128/296/288 343/314/306 160/297/289
f 160/297/289 343/314/306 342/316/308
f 160/297/289 342/316/308 350/486/472
f 350/486/472 342/316/308 341/318/310
f 350/486/472 341/318/310 349/487/473
f 349/487/473 341/318/310 340/320/312
f 349/487/473 340/320/312 348/488/474
f 348/488/474 340/320/312 339/322/314
f 348/488/474 339/322/314 347/489/475
f 347/489/475 339/322/314 338/324/316
f 347/489/475 338/324/316 346/490/476
f 346/490/476 338/324/316 337/326/318
f 346/490/476 337/326/318 345/491/477
f 345/491/477 337/326/318 336/173/167
f 345/491/477 336/173/167 344/171/165
f 177/215/209 178/460/452 162/143/139
f 162/143/139 178/460/452 163/232/226
f 178/460/452 179/458/450 163/232/226
f 163/232/226 179/458/450 164/230/224
f 179/458/450 180/456/448 164/230/224
f 164/230/224 180/456/448 165/228/222
f 180/456/448 181/454/446 165/228/222
f 165/228/222 181/454/446 166/226/220
f 181/454/446 182/452/444 166/226/220
f 166/226/220 182/452/444 167/224/218
f 184/449/441 150/220/214 168/222/216
f 182/452/444 183/450/442 167/224/218
f 167/224/218 183/450/442 168/222/216
f 183/450/442 184/449/441 168/222/216
f 149/217/211 425/237/231 169/219/213
f 169/219/213 425/237/231 170/221/215
f 425/237/231 424/239/233 170/221/215
f 170/221/215 424/239/233 171/223/217
f 424/239/233 423/241/235 171/223/217
f 171/223/217 423/241/235 172/225/219
f 423/241/235 422/243/237 172/225/219
f 172/225/219 422/243/237 173/227/221
f 422/243/237 421/245/239 173/227/221
f 173/227/221 421/245/239 174/229/223
f 419/147/143 176/145/141 175/231/225
f 421/245/239 420/247/241 174/229/223
f 174/229/223 420/247/241 175/231/225
f 420/247/241 419/147/143 175/231/225
f 192/211/205 193/447/439 185/213/207
f 185/213/207 193/447/439 186/461/453
f 193/447/439 194/445/437 186/461/453
f 186/461/453 194/445/437 187/459/451
f 194/445/437 195/443/435 187/459/451
f 187/459/451 195/443/435 188/457/449
f 195/443/435 196/441/433 188/457/449
f 188/457/449 196/441/433 189/455/447
f 196/441/433 197/439/431 189/455/447
f 189/455/447 197/439/431 190/453/445
f 199/435/427 151/434/426 191/451/443
f 197/439/431 198/437/429 190/453/445
f 190/453/445 198/437/429 191/451/443
f 198/437/429 199/435/427 191/451/443
f 215/205/199 216/431/423 208/207/201
f 208/207/201 216/431/423 209/479/465
f 216/431/423 217/429/421 209/479/465
f 209/479/465 217/429/421 210/478/464
f 217/429/421 218/427/419 210/478/464
f 210/478/464 218/427/419 211/477/463
f 218/427/419 219/425/417 211/477/463
f 211/477/463 219/425/417 212/476/462
f 219/425/417 220/423/415 212/476/462
f 212/476/462 220/423/415 213/475/461
f 222/420/412 152/419/411 214/474/460
f 220/423/415 221/421/413 213/475/461
f 213/475/461 221/421/413 214/474/460
f 221/421/413 222/420/412 214/474/460
f 230/201/195 231/416/408 223/203/197
f 223/203/197 231/416/408 224/432/424
f 231/416/408 232/414/406 224/432/424
f 224/432/424 232/414/406 225/430/422
f 232/414/406 233/412/404 225/430/422
f 225/430/422 233/412/404 226/428/420
f 233/412/404 234/410/402 226/428/420
f 226/428/420 234/410/402 227/426/418
f 234/410/402 235/408/400 227/426/418
f 227/426/418 235/408/400 228/424/416
f 237/405/397 153/404/396 229/422/414
f 235/408/400 236/406/398 228/424/416
f 228/424/416 236/406/398 229/422/414
f 236/406/398 237/405/397 229/422/414
f 245/197/191 246/401/393 238/199/193
f 238/199/193 246/401/393 239/417/409
f 246/401/393 247/399/391 239/417/409
f 239/417/409 247/399/391 240/415/407
f 247/399/391 248/397/389 240/415/407
f 240/415/407 248/397/389 241/413/405
f 248/397/389 249/395/387 241/413/405
f 241/413/405 249/395/387 242/411/403
f 249/395/387 250/393/385 242/411/403
f 242/411/403 250/393/385 243/409/401
f 252/390/382 154/389/381 244/407/399
f 250/393/385 251/391/383 243/409/401
f 243/409/401 251/391/383 244/407/399
f 251/391/383 252/390/382 244/407/399
f 260/193/187 261/386/378 253/195/189
f 253/195/189 261/386/378 254/402/394
f 261/386/378 262/384/376 254/402/394
f 254/402/394 262/384/376 255/400/392
f 262/384/376 263/382/374 255/400/392
f 255/400/392 263/382/374 256/398/390
f 263/382/374 264/380/372 256/398/390
f 256/398/390 264/380/372 257/396/388
f 264/380/372 265/378/370 257/396/388
f 257/396/388 265/378/370 258/394/386
f 267/374/366 155/373/365 259/392/384
f 265/378/370 266/376/368 258/394/386
f 258/394/386 266/376/368 259/392/384
f 266/376/368 267/374/366 259/392/384
f 283/187/181 284/370/362 276/189/183
f 276/189/183 284/370/362 277/485/471
f 284/370/362 285/368/360 277/485/471
f 277/485/471 285/368/360 278/484/470
f 285/368/360 286/366/358 278/484/470
f 278/484/470 286/366/358 279/483/469
f 286/366/358 287/364/356 279/483/469
f 279/483/469 287/364/356 280/482/468
f 287/364/356 288/362/354 280/482/468
f 280/482/468 288/362/354 281/481/467
f 290/359/351 156/358/350 282/480/466
f 288/362/354 289/360/352 281/481/467
f 281/481/467 289/360/352 282/480/466
f 289/360/352 290/359/351 282/480/466
f 298/183/177 299/355/347 291/185/179
f 291/185/179 299/355/347 292/371/363
f 299/355/347 300/353/345 292/371/363
f 292/371/363 300/353/345 293/369/361
f 300/353/345 301/351/343 293/369/361
f 293/369/361 301/351/343 294/367/359
f 301/351/343 302/349/341 294/367/359
f 294/367/359 302/349/341 295/365/357
f 302/349/341 303/347/339 295/365/357
f 295/365/357 303/347/339 296/363/355
f 305/344/336 157/343/335 297/361/353
f 303/347/339 304/345/337 296/363/355
f 296/363/355 304/345/337 297/361/353
f 304/345/337 305/344/336 297/361/353
f 313/179/173 314/340/332 306/181/175
f 306/181/175 314/340/332 307/356/348
f 314/340/332 315/338/330 307/356/348
f 307/356/348 315/338/330 308/354/346
f 315/338/330 316/336/328 308/354/346
f 308/354/346 316/336/328 309/352/344
f 316/336/328 317/334/326 309/352/344
f 309/352/344 317/334/326 310/350/342
f 317/334/326 318/332/324 310/350/342
f 310/350/342 318/332/324 311/348/340
f 320/329/321 158/328/320 312/346/338
f 318/332/324 319/330/322 311/348/340
f 311/348/340 319/330/322 312/346/338
f 319/330/322 320/329/321 312/346/338
f 328/175/169 329/325/317 321/177/171
f 321/177/171 329/325/317 322/341/333
f 329/325/317 330/323/315 322/341/333
f 322/341/333 330/323/315 323/339/331
f 330/323/315 331/321/313 323/339/331
f 323/339/331 331/321/313 324/337/329
f 331/321/313 332/319/311 324/337/329
f 324/337/329 332/319/311 325/335/327
f 332/319/311 333/317/309 325/335/327
f 325/335/327 333/317/309 326/333/325
f 335/313/305 159/312/304 327/331/323
f 333/317/309 334/315/307 326/333/325
f 326/333/325 334/315/307 327/331/323
f 334/315/307 335/313/305 327/331/323
f 351/169/163 352/309/301 344/171/165
f 344/171/165 352/309/301 345/491/477
f 352/309/301 353/307/299 345/491/477
f 345/491/477 353/307/299 346/490/476
f 353/307/299 354/305/297 346/490/476
f 346/490/476 354/305/297 347/489/475
f 354/305/297 355/303/295 347/489/475
f 347/489/475 355/303/295 348/488/474
f 355/303/295 356/301/293 348/488/474
f 348/488/474 356/301/293 349/487/473
f 358/298/290 160/297/289 350/486/472
f 356/301/293 357/299/291 349/487/473
f 349/487/473 357/299/291 350/486/472
f 357/299/291 358/298/290 350/486/472
f 373/159/155 374/277/271 366/161/157
f 366/161/157 374/277/271 367/295/287
f 374/277/271 375/275/269 367/295/287
f 367/295/287 375/275/269 368/293/285
f 375/275/269 376/273/267 368/293/285
f 368/293/285 376/273/267 369/291/283
f 376/273/267 377/271/265 369/291/283
f 369/291/283 377/271/265 370/289/281
f 377/271/265 378/269/263 370/289/281
f 370/289/281 378/269/263 371/287/279
f 380/266/260 146/265/259 372/285/277
f 378/269/263 379/267/261 371/287/279
f 371/287/279 379/267/261 372/285/277
f 379/267/261 380/266/260 372/285/277
f 388/155/151 389/262/256 381/157/153
f 381/157/153 389/262/256 382/278/272
f 389/262/256 390/260/254 382/278/272
f 382/278/272 390/260/254 383/276/270
f 390/260/254 391/258/252 383/276/270
f 383/276/270 391/258/252 384/274/268
f 391/258/252 392/256/250 384/274/268
f 384/274/268 392/256/250 385/272/266
f 392/256/250 393/254/248 385/272/266
f 385/272/266 393/254/248 386/270/264
f 395/250/244 147/249/243 387/268/262
f 393/254/248 394/252/246 386/270/264
f 386/270/264 394/252/246 387/268/262
f 394/252/246 395/250/244 387/268/262
f 411/149/145 412/246/240 404/151/147
f 404/151/147 412/246/240 405/473/459
f 412/246/240 413/244/238 405/473/459
f 405/473/459 413/244/238 406/472/458
f 413/244/238 414/242/236 406/472/458
f 406/472/458 414/242/236 407/471/457
f 414/242/236 415/240/234 407/471/457
f 407/471/457 415/240/234 408/470/456
f 415/240/234 416/238/232 408/470/456
f 408/470/456 416/238/232 409/469/455
f 418/235/229 148/234/228 410/468/454
f 416/238/232 417/236/230 409/469/455
f 409/469/455 417/236/230 410/468/454
f 417/236/230 418/235/229 410/468/454
f 427/492/478 463/493/479 426/494/480
f 426/494/480 463/493/479 462/495/481
f 426/496/480 462/497/481 461/498/482
f 461/498/482 462/497/481 497/499/483
f 461/498/482 497/499/483 460/500/484
f 460/500/484 497/499/483 496/501/485
f 460/500/484 496/501/485 459/502/486
f 459/502/486 496/501/485 495/503/487
f 459/502/486 495/503/487 458/504/488
f 458/504/488 495/503/487 494/505/489
f 458/504/488 494/505/489 457/506/490
f 457/506/490 494/505/489 493/507/491
f 457/506/490 493/507/491 456/508/492
f 456/508/492 493/507/491 492/509/493
f 456/508/492 492/509/493 455/510/494
f 455/510/494 492/509/493 491/511/495
f 455/510/494 491/511/495 454/512/496
f 454/512/496 491/511/495 490/513/497
f 454/512/496 490/513/497 453/514/498
f 453/514/498 490/513/497 489/515/499
f 453/514/498 489/515/499 452/516/500
f 452/516/500 489/515/499 488/517/501
f 452/516/500 488/517/501 451/518/502
f 451/518/502 488/517/501 487/519/503
f 451/518/502 487/519/503 450/520/504
f 450/520/504 487/519/503 486/521/505
f 450/520/504 486/521/505 449/522/506
f 449/522/506 486/521/505 485/523/507
f 449/522/506 485/523/507 448/524/508
f 448/524/508 485/523/507 484/525/509
f 448/524/508 484/525/509 447/526/510
f 447/526/510 484/525/509 483/527/511
f 447/526/510 483/527/511 446/528/512
f 446/528/512 483/527/511 482/529/513
f 446/528/512 482/529/513 445/530/514
f 445/530/514 482/529/513 481/531/515
f 445/530/514 481/531/515 444/532/516
f 444/532/516 481/531/515 480/533/517
f 444/532/516 480/533/517 443/534/518
f 443/534/518 480/533/517 479/535/519
f 443/534/518 479/535/519 442/536/520
f 442/536/520 479/535/519 478/537/521
f 442/536/520 478/537/521 441/538/522
f 441/538/522 478/537/521 477/539/523
f 441/538/522 477/539/523 440/540/524
f 440/540/524 477/539/523 476/541/525
f 440/540/524 476/541/525 439/542/526
f 439/542/526 476/541/525 475/543/527
f 439/542/526 475/543/527 438/544/528
f 438/544/528 475/543/527 474/545/529
f 438/544/528 474/545/529 437/546/530
f 437/546/530 474/545/529 473/547/531
f 437/546/530 473/547/531 436/548/532
f 436/548/532 473/547/531 472/549/533
f 436/548/532 472/549/533 435/550/534
f 435/550/534 472/549/533 471/551/535
f 435/550/534 471/551/535 434/552/536
f 434/552/536 471/551/535 470/553/537
f 434/552/536 470/553/537 433/554/538
f 433/554/538 470/553/537 469/555/539
f 433/554/538 469/555/539 432/556/540
f 432/556/540 469/555/539 468/557/541
f 432/556/540 468/557/541 431/558/542
f 431/558/542 468/557/541 467/559/543
f 431/558/542 467/559/543 430/560/544
f 430/560/544 467/559/543 466/561/545
f 430/560/544 466/561/545 429/562/546
f 429/562/546 466/561/545 465/563/547
f 429/562/546 465/563/547 428/564/548
f 428/564/548 465/563/547 464/565/549
f 428/564/548 464/565/549 427/492/478
f 427/492/478 464/565/549 463/493/479
f 121/566/142 497/499/483 86/567/140
f 86/567/140 497/499/483 462/497/481
f 86/568/140 462/495/481 87/569/138
f 87/569/138 462/495/481 463/493/479
f 87/569/138 463/493/479 88/570/208
f 88/570/208 463/493/479 464/565/549
f 88/570/208 464/565/549 89/571/206
f 89/571/206 464/565/549 465/563/547
f 89/571/206 465/563/547 90/572/204
f 90/572/204 465/563/547 466/561/545
f 90/572/204 466/561/545 91/573/202
f 91/573/202 466/561/545 467/559/543
f 91/573/202 467/559/543 92/574/200
f 92/574/200 467/559/543 468/557/541
f 92/574/200 468/557/541 93/575/198
f 93/575/198 468/557/541 469/555/539
f 93/575/198 469/555/539 94/576/196
f 94/576/196 469/555/539 470/553/537
f 94/576/196 470/553/537 95/577/194
f 95/577/194 470/553/537 471/551/535
f 95/577/194 471/551/535 96/578/192
f 96/578/192 471/551/535 472/549/533
f 96/578/192 472/549/533 97/579/190
f 97/579/190 472/549/533 473/547/531
f 97/579/190 473/547/531 98/580/188
f 98/580/188 473/547/531 474/545/529
f 98/580/188 474/545/529 99/581/186
f 99/581/186 474/545/529 475/543/527
f 99/581/186 475/543/527 100/582/184
f 100/582/184 475/543/527 476/541/525
f 100/582/184 476/541/525 101/583/182
f 101/583/182 476/541/525 477/539/523
f 101/583/182 477/539/523 102/584/180
f 102/584/180 477/539/523 478/537/521
f 102/584/180 478/537/521 103/585/178
f 103/585/178 478/537/521 479/535/519
f 103/585/178 479/535/519 104/586/176
f 104/586/176 479/535/519 480/533/517
f 104/586/176 480/533/517 105/587/174
f 105/587/174 480/533/517 481/531/515
f 105/587/174 481/531/515 106/588/172
f 106/588/172 481/531/515 482/529/513
f 106/588/172 482/529/513 107/589/170
f 107/589/170 482/529/513 483/527/511
f 107/589/170 483/527/511 108/590/168
f 108/590/168 483/527/511 484/525/509
f 108/590/168 484/525/509 109/591/166
f 109/591/166 484/525/509 485/523/507
f 109/591/166 485/523/507 110/592/164
f 110/592/164 485/523/507 486/521/505
f 110/592/164 486/521/505 111/593/162
f 111/593/162 486/521/505 487/519/503
f 111/593/162 487/519/503 112/594/160
f 112/594/160 487/519/503 488/517/501
f 112/594/160 488/517/501 113/595/158
f 113/595/158 488/517/501 489/515/499
f 113/595/158 489/515/499 114/596/156
f 114/596/156 489/515/499 490/513/497
f 114/596/156 490/513/497 115/597/154
f 115/597/154 490/513/497 491/511/495
f 115/597/154 491/511/495 116/598/152
f 116/598/152 491/511/495 492/509/493
f 116/598/152 492/509/493 117/599/150
f 117/599/150 492/509/493 493/507/491
f 117/599/150 493/507/491 118/600/148
f 118/600/148 493/507/491 494/505/489
f 118/600/148 494/505/489 119/601/146
f 119/601/146 494/505/489 495/503/487
f 119/601/146 495/503/487 120/602/144
f 120/602/144 495/503/487 496/501/485
f 120/602/144 496/501/485 121/566/142
f 121/566/142 496/501/485 497/499/483
f 137/603/425 131/604/334 122/605/212
f 122/605/212 131/604/334 130/606/319
f 122/605/212 130/606/319 123/607/210
f 123/607/210 130/606/319 129/608/303
f 123/607/210 129/608/303 124/609/227
f 124/609/227 129/608/303 128/610/288
f 124/609/227 128/610/288 125/611/242
f 125/611/242 128/610/288 127/612/273
f 125/611/242 127/612/273 126/613/258
f 131/604/334 137/603/425 132/614/349
f 132/614/349 137/603/425 136/615/410
f 132/614/349 136/615/410 133/616/364
f 133/616/364 136/615/410 135/617/395
f 133/616/364 135/617/395 134/618/380
f 85/619/550 445/620/551 53/621/552
f 53/621/552 445/620/551 444/622/553
f 53/621/552 444/622/553 443/623/554
f 445/620/551 85/619/550 446/624/555
f 446/624/555 85/619/550 84/625/556
f 446/624/555 84/625/556 447/626/557
f 447/626/557 84/625/556 83/627/558
f 447/626/557 83/627/558 448/628/559
f 448/628/559 83/627/558 82/629/560
f 448/628/559 82/629/560 449/630/561
f 449/630/561 82/629/560 81/631/562
f 449/630/561 81/631/562 450/632/563
f 450/632/563 81/631/562 80/633/564
f 450/632/563 80/633/564 451/634/565
f 451/634/565 80/633/564 79/635/566
f 451/634/565 79/635/566 452/636/567
f 452/636/567 79/635/566 78/637/568
f 452/636/567 78/637/568 453/638/569
f 453/638/569 78/637/568 77/639/570
f 453/638/569 77/639/570 454/640/571
f 454/640/571 77/639/570 76/641/572
f 454/640/571 76/641/572 455/642/573
f 455/642/573 76/641/572 75/643/574
f 455/642/573 75/643/574 456/644/575
f 456/644/575 75/643/574 457/645/576
f 457/645/576 75/643/574 74/646/577
f 457/645/576 74/646/577 458/647/578
f 458/647/578 74/646/577 73/648/579
f 458/647/578 73/648/579 459/649/580
f 459/649/580 73/648/579 72/650/581
f 459/649/580 72/650/581 460/651/582
f 460/651/582 72/650/581 71/652/583
f 460/651/582 71/652/583 461/653/584
f 461/653/584 71/652/583 70/654/585
f 461/653/584 70/654/585 426/655/586
f 426/655/586 70/654/585 69/656/587
f 426/655/586 69/656/587 427/657/588
f 427/657/588 69/656/587 68/658/589
f 427/657/588 68/658/589 428/659/590
f 428/659/590 68/658/589 67/660/591
f 428/659/590 67/660/591 429/661/592
f 429/661/592 67/660/591 66/662/593
f 429/661/592 66/662/593 430/663/594
f 430/663/594 66/662/593 65/664/595
f 430/663/594 65/664/595 431/665/596
f 431/665/596 65/664/595 64/666/597
f 431/665/596 64/666/597 432/667/598
f 432/667/598 64/666/597 433/668/599
f 433/668/599 64/666/597 63/669/600
f 433/668/599 63/669/600 434/670/601
f 434/670/601 63/669/600 62/671/602
f 434/670/601 62/671/602 435/672/603
f 435/672/603 62/671/602 61/673/604
f 435/672/603 61/673/604 436/674/605
f 436/674/605 61/673/604 60/675/606
f 436/674/605 60/675/606 437/676/607
f 437/676/607 60/675/606 59/677/608
f 437/676/607 59/677/608 438/678/609
f 438/678/609 59/677/608 58/679/610
f 438/678/609 58/679/610 439/680/611
f 439/680/611 58/679/610 57/681/612
f 439/680/611 57/681/612 440/682/613
f 440/682/613 57/681/612 56/683/614
f 440/682/613 56/683/614 441/684/615
f 441/684/615 56/683/614 55/685/616
f 441/684/615 55/685/616 442/686/617
f 442/686/617 55/685/616 54/687/618
f 442/686/617 54/687/618 443/623/554
f 443/623/554 54/687/618 53/621/552
# 497 vertices
# 687 texture params
# 618 normals
# 990 facets

# 1 groups
