# WaveFront *.obj file (generated by Autodesk ATF)

mtllib mast_visual.mtl

g mast

v 151.451204 -0.000000 0.975000
v 151.451204 0.263052 0.938844
v 151.451204 0.506594 0.833059
v 151.451204 0.712565 0.665489
v 151.451204 0.865688 0.448563
v 151.451204 0.954607 0.198370
v 151.451204 0.972727 -0.066536
v 151.451204 0.918704 -0.326508
v 151.451204 0.796546 -0.562263
v 151.451204 0.615311 -0.756319
v 151.451204 0.388441 -0.894281
v 151.451204 0.132762 -0.965919
v 151.451204 -0.132762 -0.965919
v 151.451204 -0.388441 -0.894281
v 151.451204 -0.615311 -0.756319
v 151.451204 -0.796546 -0.562263
v 151.451204 -0.918704 -0.326508
v 151.451204 -0.972727 -0.066536
v 151.451204 -0.954607 0.198370
v 151.451204 -0.865688 0.448563
v 151.451204 -0.712565 0.665489
v 151.451204 -0.506594 0.833059
v 151.451204 -0.263052 0.938844
v 151.451204 -0.000000 -0.840517
v 151.451204 0.247747 -0.803175
v 151.451204 0.473480 -0.694468
v 151.451204 0.657143 -0.524054
v 151.451204 0.782415 -0.307075
v 151.451204 0.838167 -0.062812
v 151.451204 0.819444 0.187033
v 151.451204 0.727909 0.420259
v 151.451204 0.571697 0.616143
v 151.451204 0.364687 0.757280
v 151.451204 0.125273 0.831129
v 151.451204 -0.125273 0.831129
v 151.451204 -0.364687 0.757280
v 151.451204 -0.571697 0.616143
v 151.451204 -0.727909 0.420259
v 151.451204 -0.819444 0.187033
v 151.451204 -0.838167 -0.062812
v 151.451204 -0.782415 -0.307075
v 151.451204 -0.657143 -0.524054
v 151.451204 -0.473480 -0.694468
v 151.451204 -0.247747 -0.803175
v 176.159320 -0.000000 0.840517
v 176.159320 0.247747 0.803175
v 176.159320 0.473480 0.694468
v 176.159320 0.657143 0.524054
v 176.159320 0.782415 0.307075
v 176.159320 0.838167 0.062812
v 176.159320 0.819444 -0.187033
v 176.159320 0.727909 -0.420259
v 176.159320 0.571697 -0.616143
v 176.159320 0.364687 -0.757280
v 176.159320 0.125273 -0.831129
v 176.159320 -0.125273 -0.831129
v 176.159320 -0.364687 -0.757280
v 176.159320 -0.571697 -0.616143
v 176.159320 -0.727909 -0.420259
v 176.159320 -0.819444 -0.187033
v 176.159320 -0.838167 0.062812
v 176.159320 -0.782415 0.307075
v 176.159320 -0.657143 0.524054
v 176.159320 -0.473480 0.694468
v 176.159320 -0.247747 0.803175
v 176.159320 -0.000000 0.975000
v 176.159320 -0.263052 0.938844
v 176.159320 -0.506594 0.833059
v 176.159320 -0.712565 0.665489
v 176.159320 -0.865688 0.448563
v 176.159320 -0.954607 0.198370
v 176.159320 -0.972727 -0.066536
v 176.159320 -0.918704 -0.326508
v 176.159320 -0.796546 -0.562263
v 176.159320 -0.615311 -0.756319
v 176.159320 -0.388441 -0.894281
v 176.159320 -0.132762 -0.965919
v 176.159320 0.132762 -0.965919
v 176.159320 0.388441 -0.894281
v 176.159320 0.615311 -0.756319
v 176.159320 0.796546 -0.562263
v 176.159320 0.918704 -0.326508
v 176.159320 0.972727 -0.066536
v 176.159320 0.954607 0.198370
v 176.159320 0.865688 0.448563
v 176.159320 0.712565 0.665489
v 176.159320 0.506594 0.833059
v 176.159320 0.263052 0.938844
v 156.392827 -0.000000 0.840517
v 161.334450 -0.000000 0.840517
v 166.276073 -0.000000 0.840517
v 171.217697 -0.000000 0.840517
v 156.392827 -0.125273 -0.831129
v 161.334450 -0.125273 -0.831129
v 166.276073 -0.125273 -0.831129
v 171.217697 -0.125273 -0.831129
v 171.217697 0.125273 -0.831129
v 166.276073 0.125273 -0.831129
v 161.334450 0.125273 -0.831129
v 156.392827 0.125273 -0.831129
v 156.392827 -0.364687 -0.757280
v 161.334450 -0.364687 -0.757280
v 166.276073 -0.364687 -0.757280
v 171.217697 -0.364687 -0.757280
v 156.392827 -0.571697 -0.616143
v 161.334450 -0.571697 -0.616143
v 166.276073 -0.571697 -0.616143
v 171.217697 -0.571697 -0.616143
v 156.392827 -0.727909 -0.420259
v 161.334450 -0.727909 -0.420259
v 166.276073 -0.727909 -0.420259
v 171.217697 -0.727909 -0.420259
v 156.392827 -0.819444 -0.187033
v 161.334450 -0.819444 -0.187033
v 166.276073 -0.819444 -0.187033
v 171.217697 -0.819444 -0.187033
v 156.392827 -0.838167 0.062812
v 161.334450 -0.838167 0.062812
v 166.276073 -0.838167 0.062812
v 171.217697 -0.838167 0.062812
v 156.392827 -0.782415 0.307075
v 161.334450 -0.782415 0.307075
v 166.276073 -0.782415 0.307075
v 171.217697 -0.782415 0.307075
v 156.392827 -0.657143 0.524054
v 161.334450 -0.657143 0.524054
v 166.276073 -0.657143 0.524054
v 171.217697 -0.657143 0.524054
v 156.392827 -0.473480 0.694468
v 161.334450 -0.473480 0.694468
v 166.276073 -0.473480 0.694468
v 171.217697 -0.473480 0.694468
v 156.392827 -0.247747 0.803175
v 161.334450 -0.247747 0.803175
v 166.276073 -0.247747 0.803175
v 171.217697 -0.247747 0.803175
v 156.392827 0.247747 0.803175
v 161.334450 0.247747 0.803175
v 166.276073 0.247747 0.803175
v 171.217697 0.247747 0.803175
v 156.392827 0.473480 0.694468
v 161.334450 0.473480 0.694468
v 166.276073 0.473480 0.694468
v 171.217697 0.473480 0.694468
v 156.392827 0.657143 0.524054
v 161.334450 0.657143 0.524054
v 166.276073 0.657143 0.524054
v 171.217697 0.657143 0.524054
v 156.392827 0.782415 0.307075
v 161.334450 0.782415 0.307075
v 166.276073 0.782415 0.307075
v 171.217697 0.782415 0.307075
v 156.392827 0.838167 0.062812
v 161.334450 0.838167 0.062812
v 166.276073 0.838167 0.062812
v 171.217697 0.838167 0.062812
v 156.392827 0.819444 -0.187033
v 161.334450 0.819444 -0.187033
v 166.276073 0.819444 -0.187033
v 171.217697 0.819444 -0.187033
v 156.392827 0.727909 -0.420259
v 161.334450 0.727909 -0.420259
v 166.276073 0.727909 -0.420259
v 171.217697 0.727909 -0.420259
v 156.392827 0.571697 -0.616143
v 161.334450 0.571697 -0.616143
v 166.276073 0.571697 -0.616143
v 171.217697 0.571697 -0.616143
v 156.392827 0.364687 -0.757280
v 161.334450 0.364687 -0.757280
v 166.276073 0.364687 -0.757280
v 171.217697 0.364687 -0.757280
v 156.392827 -0.000000 0.975000
v 161.334450 -0.000000 0.975000
v 166.276073 -0.000000 0.975000
v 171.217697 -0.000000 0.975000
v 156.392827 -0.274689 0.935506
v 161.334450 -0.274689 0.935506
v 166.276073 -0.274689 0.935506
v 171.217697 -0.274689 0.935506
v 156.392827 -0.527125 0.820222
v 161.334450 -0.527125 0.820222
v 166.276073 -0.527125 0.820222
v 171.217697 -0.527125 0.820222
v 156.392827 -0.736856 0.638489
v 161.334450 -0.736856 0.638489
v 166.276073 -0.736856 0.638489
v 171.217697 -0.736856 0.638489
v 156.392827 -0.886891 0.405030
v 161.334450 -0.886891 0.405030
v 166.276073 -0.886891 0.405030
v 171.217697 -0.886891 0.405030
v 156.392827 -0.965076 0.138757
v 161.334450 -0.965076 0.138757
v 166.276073 -0.965076 0.138757
v 171.217697 -0.965076 0.138757
v 156.392827 -0.965076 -0.138757
v 161.334450 -0.965076 -0.138757
v 166.276073 -0.965076 -0.138757
v 171.217697 -0.965076 -0.138757
v 156.392827 -0.886891 -0.405030
v 161.334450 -0.886891 -0.405030
v 166.276073 -0.886891 -0.405030
v 171.217697 -0.886891 -0.405030
v 156.392827 -0.736856 -0.638489
v 161.334450 -0.736856 -0.638489
v 166.276073 -0.736856 -0.638489
v 171.217697 -0.736856 -0.638489
v 156.392827 -0.527125 -0.820222
v 161.334450 -0.527125 -0.820222
v 166.276073 -0.527125 -0.820222
v 171.217697 -0.527125 -0.820222
v 156.392827 -0.274689 -0.935506
v 161.334450 -0.274689 -0.935506
v 166.276073 -0.274689 -0.935506
v 171.217697 -0.274689 -0.935506
v 156.392827 -0.000000 -0.975000
v 161.334450 -0.000000 -0.975000
v 166.276073 -0.000000 -0.975000
v 171.217697 -0.000000 -0.975000
v 156.392827 0.274689 -0.935506
v 161.334450 0.274689 -0.935506
v 166.276073 0.274689 -0.935506
v 171.217697 0.274689 -0.935506
v 156.392827 0.527125 -0.820222
v 161.334450 0.527125 -0.820222
v 166.276073 0.527125 -0.820222
v 171.217697 0.527125 -0.820222
v 156.392827 0.736856 -0.638489
v 161.334450 0.736856 -0.638489
v 166.276073 0.736856 -0.638489
v 171.217697 0.736856 -0.638489
v 156.392827 0.886891 -0.405030
v 161.334450 0.886891 -0.405030
v 166.276073 0.886891 -0.405030
v 171.217697 0.886891 -0.405030
v 156.392827 0.965076 -0.138757
v 161.334450 0.965076 -0.138757
v 166.276073 0.965076 -0.138757
v 171.217697 0.965076 -0.138757
v 156.392827 0.965076 0.138757
v 161.334450 0.965076 0.138757
v 166.276073 0.965076 0.138757
v 171.217697 0.965076 0.138757
v 156.392827 0.886891 0.405030
v 161.334450 0.886891 0.405030
v 166.276073 0.886891 0.405030
v 171.217697 0.886891 0.405030
v 156.392827 0.736856 0.638489
v 161.334450 0.736856 0.638489
v 166.276073 0.736856 0.638489
v 171.217697 0.736856 0.638489
v 156.392827 0.527125 0.820222
v 161.334450 0.527125 0.820222
v 166.276073 0.527125 0.820222
v 171.217697 0.527125 0.820222
v 156.392827 0.274689 0.935506
v 161.334450 0.274689 0.935506
v 166.276073 0.274689 0.935506
v 171.217697 0.274689 0.935506
vt 0.938844 0.263052 0.000000
vt 0.831129 0.125273 0.000000
vt 0.975000 -0.000000 0.000000
vt 0.831129 -0.125273 0.000000
vt 0.938844 -0.263052 0.000000
vt 0.757280 -0.364687 0.000000
vt 0.833059 -0.506594 0.000000
vt 0.616143 -0.571697 0.000000
vt 0.665489 -0.712565 0.000000
vt 0.420259 -0.727909 0.000000
vt 0.448563 -0.865688 0.000000
vt 0.187033 -0.819444 0.000000
vt 0.198370 -0.954607 0.000000
vt -0.062812 -0.838167 0.000000
vt -0.066536 -0.972727 0.000000
vt -0.326508 -0.918704 0.000000
vt -0.307075 -0.782415 0.000000
vt -0.562263 -0.796546 0.000000
vt -0.524054 -0.657143 0.000000
vt -0.756319 -0.615311 0.000000
vt -0.694468 -0.473480 0.000000
vt -0.894281 -0.388441 0.000000
vt -0.803175 -0.247747 0.000000
vt -0.965919 -0.132762 0.000000
vt -0.840517 0.000000 0.000000
vt -0.965919 0.132762 0.000000
vt -0.803175 0.247747 0.000000
vt -0.894281 0.388441 0.000000
vt -0.694468 0.473480 0.000000
vt -0.756319 0.615311 0.000000
vt -0.524054 0.657143 0.000000
vt -0.562263 0.796546 0.000000
vt -0.307075 0.782415 0.000000
vt -0.326508 0.918704 0.000000
vt -0.062812 0.838167 0.000000
vt -0.066536 0.972727 0.000000
vt 0.198370 0.954607 0.000000
vt 0.187033 0.819444 0.000000
vt 0.448563 0.865688 0.000000
vt 0.420259 0.727909 0.000000
vt 0.665489 0.712565 0.000000
vt 0.616143 0.571697 0.000000
vt 0.833059 0.506594 0.000000
vt 0.757280 0.364687 0.000000
vt -0.247747 -0.803175 0.000000
vt -0.263052 -0.938844 0.000000
vt -0.000000 -0.840517 0.000000
vt -0.000000 -0.975000 0.000000
vt 0.263052 -0.938844 0.000000
vt -0.506594 -0.833059 0.000000
vt -0.473480 -0.694468 0.000000
vt -0.712565 -0.665489 0.000000
vt -0.657143 -0.524054 0.000000
vt -0.865688 -0.448563 0.000000
vt -0.782415 -0.307075 0.000000
vt -0.954607 -0.198370 0.000000
vt -0.838167 -0.062812 0.000000
vt -0.972727 0.066536 0.000000
vt -0.819444 0.187033 0.000000
vt -0.918704 0.326508 0.000000
vt -0.727909 0.420259 0.000000
vt -0.796546 0.562263 0.000000
vt -0.571697 0.616143 0.000000
vt -0.615311 0.756319 0.000000
vt -0.364687 0.757280 0.000000
vt -0.388441 0.894281 0.000000
vt -0.125273 0.831129 0.000000
vt -0.132762 0.965919 0.000000
vt 0.125273 0.831129 0.000000
vt 0.132762 0.965919 0.000000
vt 0.388441 0.894281 0.000000
vt 0.364687 0.757280 0.000000
vt 0.615311 0.756319 0.000000
vt 0.571697 0.616143 0.000000
vt 0.796546 0.562263 0.000000
vt 0.727909 0.420259 0.000000
vt 0.918704 0.326508 0.000000
vt 0.819444 0.187033 0.000000
vt 0.972727 0.066536 0.000000
vt 0.838167 -0.062812 0.000000
vt 0.954607 -0.198370 0.000000
vt 0.782415 -0.307075 0.000000
vt 0.865688 -0.448563 0.000000
vt 0.657143 -0.524054 0.000000
vt 0.712565 -0.665489 0.000000
vt 0.473480 -0.694468 0.000000
vt 0.506594 -0.833059 0.000000
vt 0.247747 -0.803175 0.000000
vt 6.724140 -0.251482 0.000000
vt 11.665763 -0.125741 0.000000
vt 6.724140 -0.000000 0.000000
vt 11.665763 0.125741 0.000000
vt 6.724140 0.251482 0.000000
vt 11.665763 0.377223 0.000000
vt 6.724140 0.502964 0.000000
vt 11.665763 0.628705 0.000000
vt 6.724140 0.754447 0.000000
vt 11.665763 0.880188 0.000000
vt 6.724140 1.005929 0.000000
vt 11.665763 1.131670 0.000000
vt 6.724140 1.257411 0.000000
vt 11.665763 1.383152 0.000000
vt 6.724140 1.508893 0.000000
vt 11.665763 1.634634 0.000000
vt 6.724140 1.760375 0.000000
vt 11.665763 1.886116 0.000000
vt 6.724140 2.011857 0.000000
vt 11.665763 2.137598 0.000000
vt 6.724140 2.263340 0.000000
vt 11.665763 2.389081 0.000000
vt 6.724140 2.514822 0.000000
vt 11.665763 2.640563 0.000000
vt 6.724140 2.766304 0.000000
vt 6.724140 -2.514822 0.000000
vt 11.665763 -2.640563 0.000000
vt 11.665763 -2.389081 0.000000
vt 6.724140 -2.263340 0.000000
vt 11.665763 -2.137598 0.000000
vt 6.724140 -2.011857 0.000000
vt 11.665763 -1.886116 0.000000
vt 6.724140 -1.760375 0.000000
vt 11.665763 -1.634634 0.000000
vt 6.724140 -1.508893 0.000000
vt 11.665763 -1.383152 0.000000
vt 6.724140 -1.257411 0.000000
vt 11.665763 -1.131670 0.000000
vt 6.724140 -1.005929 0.000000
vt 11.665763 -0.880188 0.000000
vt 6.724140 -0.754447 0.000000
vt 11.665763 -0.628705 0.000000
vt 6.724140 -0.502964 0.000000
vt 11.665763 -0.377223 0.000000
vt 31.432256 -2.389081 0.000000
vt 26.490633 -2.389081 0.000000
vt 31.432256 -2.640563 0.000000
vt 26.490633 -2.640563 0.000000
vt 31.432256 2.640563 0.000000
vt 26.490633 2.640563 0.000000
vt 31.432256 2.389081 0.000000
vt 26.490633 2.389081 0.000000
vt 31.432256 2.137598 0.000000
vt 26.490633 2.137598 0.000000
vt 31.432256 1.886116 0.000000
vt 26.490633 1.886116 0.000000
vt 31.432256 1.634634 0.000000
vt 26.490633 1.634634 0.000000
vt 31.432256 1.383152 0.000000
vt 26.490633 1.383152 0.000000
vt 31.432256 1.131670 0.000000
vt 26.490633 1.131670 0.000000
vt 31.432256 0.880188 0.000000
vt 26.490633 0.880188 0.000000
vt 31.432256 0.628705 0.000000
vt 26.490633 0.628705 0.000000
vt 31.432256 0.377223 0.000000
vt 26.490633 0.377223 0.000000
vt 31.432256 0.125741 0.000000
vt 26.490633 0.125741 0.000000
vt 31.432256 -0.125741 0.000000
vt 26.490633 -0.125741 0.000000
vt 31.432256 -0.377223 0.000000
vt 26.490633 -0.377223 0.000000
vt 31.432256 -0.628705 0.000000
vt 26.490633 -0.628705 0.000000
vt 31.432256 -0.880188 0.000000
vt 26.490633 -0.880188 0.000000
vt 31.432256 -1.131670 0.000000
vt 26.490633 -1.131670 0.000000
vt 31.432256 -1.383152 0.000000
vt 26.490633 -1.383152 0.000000
vt 31.432256 -1.634634 0.000000
vt 26.490633 -1.634634 0.000000
vt 31.432256 -1.886116 0.000000
vt 26.490633 -1.886116 0.000000
vt 31.432256 -2.137598 0.000000
vt 26.490633 -2.137598 0.000000
vt 16.607387 -2.640563 0.000000
vt 16.607387 -2.389081 0.000000
vt 16.607387 -2.137598 0.000000
vt 16.607387 -1.886116 0.000000
vt 16.607387 -1.634634 0.000000
vt 16.607387 -1.383152 0.000000
vt 16.607387 -1.131670 0.000000
vt 16.607387 -0.880188 0.000000
vt 16.607387 -0.628705 0.000000
vt 16.607387 -0.377223 0.000000
vt 16.607387 -0.125741 0.000000
vt 16.607387 0.125741 0.000000
vt 16.607387 0.377223 0.000000
vt 16.607387 0.628705 0.000000
vt 16.607387 0.880188 0.000000
vt 16.607387 1.131670 0.000000
vt 16.607387 1.383152 0.000000
vt 16.607387 1.634634 0.000000
vt 16.607387 1.886116 0.000000
vt 16.607387 2.137598 0.000000
vt 16.607387 2.389081 0.000000
vt 16.607387 2.640563 0.000000
vt 21.549010 -2.640563 0.000000
vt 21.549010 -2.389081 0.000000
vt 21.549010 -2.137598 0.000000
vt 21.549010 -1.886116 0.000000
vt 21.549010 -1.634634 0.000000
vt 21.549010 -1.383152 0.000000
vt 21.549010 -1.131670 0.000000
vt 21.549010 -0.880188 0.000000
vt 21.549010 -0.628705 0.000000
vt 21.549010 -0.377223 0.000000
vt 21.549010 -0.125741 0.000000
vt 21.549010 0.125741 0.000000
vt 21.549010 0.377223 0.000000
vt 21.549010 0.628705 0.000000
vt 21.549010 0.880188 0.000000
vt 21.549010 1.131670 0.000000
vt 21.549010 1.383152 0.000000
vt 21.549010 1.634634 0.000000
vt 21.549010 1.886116 0.000000
vt 21.549010 2.137598 0.000000
vt 21.549010 2.389081 0.000000
vt 21.549010 2.640563 0.000000
vt -6.724140 2.796700 0.000000
vt -6.724140 3.063053 0.000000
vt -11.665763 3.063053 0.000000
vt -11.665763 -3.063053 0.000000
vt -6.724140 -3.063053 0.000000
vt -6.724140 -2.796700 0.000000
vt -11.665763 -2.784593 0.000000
vt -6.724140 -2.530348 0.000000
vt -11.665763 -2.506134 0.000000
vt -6.724140 -2.263996 0.000000
vt -11.665763 -2.227675 0.000000
vt -6.724140 -1.997643 0.000000
vt -11.665763 -1.949215 0.000000
vt -6.724140 -1.731291 0.000000
vt -11.665763 -1.670756 0.000000
vt -6.724140 -1.464938 0.000000
vt -11.665763 -1.392297 0.000000
vt -6.724140 -1.198586 0.000000
vt -11.665763 -1.113837 0.000000
vt -6.724140 -0.932233 0.000000
vt -11.665763 -0.835378 0.000000
vt -6.724140 -0.665881 0.000000
vt -11.665763 -0.556919 0.000000
vt -6.724140 -0.399529 0.000000
vt -11.665763 -0.278459 0.000000
vt -6.724140 -0.133176 0.000000
vt -11.665763 0.000000 0.000000
vt -6.724140 0.133176 0.000000
vt -11.665763 0.278459 0.000000
vt -6.724140 0.399529 0.000000
vt -11.665763 0.556919 0.000000
vt -6.724140 0.665881 0.000000
vt -11.665763 0.835378 0.000000
vt -6.724140 0.932233 0.000000
vt -11.665763 1.113837 0.000000
vt -6.724140 1.198586 0.000000
vt -11.665763 1.392297 0.000000
vt -6.724140 1.464938 0.000000
vt -11.665763 1.670756 0.000000
vt -6.724140 1.731291 0.000000
vt -11.665763 1.949215 0.000000
vt -6.724140 1.997643 0.000000
vt -11.665763 2.227675 0.000000
vt -6.724140 2.263996 0.000000
vt -11.665763 2.506134 0.000000
vt -6.724140 2.530348 0.000000
vt -11.665763 2.784593 0.000000
vt -31.432256 -2.796700 0.000000
vt -31.432256 -3.063053 0.000000
vt -26.490633 -3.063053 0.000000
vt -26.490633 3.063053 0.000000
vt -31.432256 3.063053 0.000000
vt -31.432256 2.796700 0.000000
vt -26.490633 2.784593 0.000000
vt -31.432256 2.530348 0.000000
vt -26.490633 2.506134 0.000000
vt -31.432256 2.263996 0.000000
vt -26.490633 2.227675 0.000000
vt -31.432256 1.997643 0.000000
vt -26.490633 1.949215 0.000000
vt -31.432256 1.731291 0.000000
vt -26.490633 1.670756 0.000000
vt -31.432256 1.464938 0.000000
vt -26.490633 1.392297 0.000000
vt -31.432256 1.198586 0.000000
vt -26.490633 1.113837 0.000000
vt -31.432256 0.932233 0.000000
vt -26.490633 0.835378 0.000000
vt -31.432256 0.665881 0.000000
vt -26.490633 0.556919 0.000000
vt -31.432256 0.399529 0.000000
vt -26.490633 0.278459 0.000000
vt -31.432256 0.133176 0.000000
vt -26.490633 0.000000 0.000000
vt -31.432256 -0.133176 0.000000
vt -26.490633 -0.278459 0.000000
vt -31.432256 -0.399529 0.000000
vt -26.490633 -0.556919 0.000000
vt -31.432256 -0.665881 0.000000
vt -26.490633 -0.835378 0.000000
vt -31.432256 -0.932233 0.000000
vt -26.490633 -1.113837 0.000000
vt -31.432256 -1.198586 0.000000
vt -26.490633 -1.392297 0.000000
vt -31.432256 -1.464938 0.000000
vt -26.490633 -1.670756 0.000000
vt -31.432256 -1.731291 0.000000
vt -26.490633 -1.949215 0.000000
vt -31.432256 -1.997643 0.000000
vt -26.490633 -2.227675 0.000000
vt -31.432256 -2.263996 0.000000
vt -26.490633 -2.506134 0.000000
vt -31.432256 -2.530348 0.000000
vt -26.490633 -2.784593 0.000000
vt -16.607387 3.063053 0.000000
vt -16.607387 2.784593 0.000000
vt -16.607387 2.506134 0.000000
vt -16.607387 2.227675 0.000000
vt -16.607387 1.949215 0.000000
vt -16.607387 1.670756 0.000000
vt -16.607387 1.392297 0.000000
vt -16.607387 1.113837 0.000000
vt -16.607387 0.835378 0.000000
vt -16.607387 0.556919 0.000000
vt -16.607387 0.278459 0.000000
vt -16.607387 0.000000 0.000000
vt -16.607387 -0.278459 0.000000
vt -16.607387 -0.556919 0.000000
vt -16.607387 -0.835378 0.000000
vt -16.607387 -1.113837 0.000000
vt -16.607387 -1.392297 0.000000
vt -16.607387 -1.670756 0.000000
vt -16.607387 -1.949215 0.000000
vt -16.607387 -2.227675 0.000000
vt -16.607387 -2.506134 0.000000
vt -16.607387 -2.784593 0.000000
vt -16.607387 -3.063053 0.000000
vt -21.549010 3.063053 0.000000
vt -21.549010 2.784593 0.000000
vt -21.549010 2.506134 0.000000
vt -21.549010 2.227675 0.000000
vt -21.549010 1.949215 0.000000
vt -21.549010 1.670756 0.000000
vt -21.549010 1.392297 0.000000
vt -21.549010 1.113837 0.000000
vt -21.549010 0.835378 0.000000
vt -21.549010 0.556919 0.000000
vt -21.549010 0.278459 0.000000
vt -21.549010 0.000000 0.000000
vt -21.549010 -0.278459 0.000000
vt -21.549010 -0.556919 0.000000
vt -21.549010 -0.835378 0.000000
vt -21.549010 -1.113837 0.000000
vt -21.549010 -1.392297 0.000000
vt -21.549010 -1.670756 0.000000
vt -21.549010 -1.949215 0.000000
vt -21.549010 -2.227675 0.000000
vt -21.549010 -2.506134 0.000000
vt -21.549010 -2.784593 0.000000
vt -21.549010 -3.063053 0.000000
vn -1.000000 0.000000 0.000000
vn -1.000000 0.000000 0.000000
vn -1.000000 0.000000 0.000000
vn -1.000000 0.000000 0.000000
vn -1.000000 0.000000 0.000000
vn -1.000000 0.000000 0.000000
vn -1.000000 0.000000 0.000000
vn -1.000000 0.000000 0.000000
vn -1.000000 0.000000 0.000000
vn -1.000000 0.000000 0.000000
vn -1.000000 0.000000 0.000000
vn -1.000000 0.000000 0.000000
vn -1.000000 0.000000 0.000000
vn -1.000000 0.000000 0.000000
vn -1.000000 0.000000 0.000000
vn -1.000000 0.000000 0.000000
vn -1.000000 0.000000 0.000000
vn -1.000000 0.000000 0.000000
vn -1.000000 0.000000 0.000000
vn -1.000000 0.000000 0.000000
vn -1.000000 0.000000 0.000000
vn -1.000000 0.000000 0.000000
vn -1.000000 0.000000 0.000000
vn -1.000000 0.000000 0.000000
vn -1.000000 0.000000 0.000000
vn -1.000000 0.000000 0.000000
vn -1.000000 0.000000 0.000000
vn -1.000000 0.000000 0.000000
vn -1.000000 0.000000 0.000000
vn -1.000000 0.000000 0.000000
vn -1.000000 0.000000 0.000000
vn -1.000000 0.000000 0.000000
vn -1.000000 0.000000 0.000000
vn -1.000000 0.000000 0.000000
vn -1.000000 0.000000 0.000000
vn -1.000000 0.000000 0.000000
vn -1.000000 0.000000 0.000000
vn -1.000000 0.000000 0.000000
vn -1.000000 0.000000 0.000000
vn -1.000000 0.000000 0.000000
vn -1.000000 0.000000 0.000000
vn -1.000000 0.000000 0.000000
vn -1.000000 0.000000 0.000000
vn -1.000000 0.000000 0.000000
vn 1.000000 -0.000000 -0.000000
vn 1.000000 -0.000000 -0.000000
vn 1.000000 -0.000000 -0.000000
vn 1.000000 -0.000000 -0.000000
vn 1.000000 -0.000000 -0.000000
vn 1.000000 -0.000000 -0.000000
vn 1.000000 -0.000000 -0.000000
vn 1.000000 -0.000000 -0.000000
vn 1.000000 -0.000000 -0.000000
vn 1.000000 -0.000000 -0.000000
vn 1.000000 -0.000000 -0.000000
vn 1.000000 -0.000000 -0.000000
vn 1.000000 -0.000000 -0.000000
vn 1.000000 -0.000000 -0.000000
vn 1.000000 -0.000000 -0.000000
vn 1.000000 -0.000000 -0.000000
vn 1.000000 -0.000000 -0.000000
vn 1.000000 -0.000000 -0.000000
vn 1.000000 -0.000000 -0.000000
vn 1.000000 -0.000000 -0.000000
vn 1.000000 -0.000000 -0.000000
vn 1.000000 -0.000000 -0.000000
vn 1.000000 -0.000000 -0.000000
vn 1.000000 -0.000000 -0.000000
vn 1.000000 -0.000000 -0.000000
vn 1.000000 -0.000000 -0.000000
vn 1.000000 -0.000000 -0.000000
vn 1.000000 -0.000000 -0.000000
vn 1.000000 -0.000000 -0.000000
vn 1.000000 -0.000000 -0.000000
vn 1.000000 -0.000000 -0.000000
vn 1.000000 -0.000000 -0.000000
vn 1.000000 -0.000000 -0.000000
vn 1.000000 -0.000000 -0.000000
vn 1.000000 -0.000000 -0.000000
vn 1.000000 -0.000000 -0.000000
vn 1.000000 -0.000000 -0.000000
vn 1.000000 -0.000000 -0.000000
vn 1.000000 -0.000000 -0.000000
vn 1.000000 -0.000000 -0.000000
vn 1.000000 -0.000000 -0.000000
vn 1.000000 -0.000000 -0.000000
vn 1.000000 -0.000000 -0.000000
vn 1.000000 -0.000000 -0.000000
vn 0.000000 0.294755 0.955573
vn 0.000000 0.149042 0.988831
vn 0.000000 0.000000 1.000000
vn -0.000000 -0.149042 0.988831
vn -0.000000 -0.294755 0.955573
vn -0.000000 -0.433884 0.900969
vn -0.000000 -0.563320 0.826239
vn -0.000000 -0.680173 0.733052
vn -0.000000 -0.781831 0.623490
vn -0.000000 -0.866025 0.500000
vn -0.000000 -0.930874 0.365341
vn -0.000000 -0.974928 0.222521
vn -0.000000 -0.997204 0.074730
vn -0.000000 -0.997204 -0.074730
vn -0.000000 -0.974928 -0.222521
vn -0.000000 -0.930874 -0.365341
vn -0.000000 -0.866025 -0.500000
vn -0.000000 -0.781831 -0.623490
vn -0.000000 -0.680173 -0.733052
vn -0.000000 -0.563320 -0.826239
vn -0.000000 -0.433884 -0.900969
vn -0.000000 -0.294755 -0.955573
vn -0.000000 -0.149042 -0.988831
vn -0.000000 -0.000000 -1.000000
vn 0.000000 0.149042 -0.988831
vn 0.000000 0.294755 -0.955573
vn 0.000000 0.433884 -0.900969
vn 0.000000 0.563320 -0.826239
vn 0.000000 0.680173 -0.733052
vn 0.000000 0.781831 -0.623490
vn 0.000000 0.866025 -0.500000
vn 0.000000 0.930874 -0.365341
vn 0.000000 0.974928 -0.222521
vn 0.000000 0.997204 -0.074730
vn 0.000000 0.997204 0.074730
vn 0.000000 0.974928 0.222521
vn 0.000000 0.930874 0.365341
vn 0.000000 0.866025 0.500000
vn 0.000000 0.781831 0.623490
vn 0.000000 0.680173 0.733052
vn 0.000000 0.563320 0.826239
vn 0.000000 0.433884 0.900969
vn 0.000000 0.294755 -0.955573
vn 0.000000 0.294755 -0.955573
vn -0.000000 0.000000 -1.000000
vn -0.000000 0.000000 -1.000000
vn -0.000000 -0.294755 -0.955573
vn -0.000000 -0.294755 -0.955573
vn -0.000000 -0.563320 -0.826239
vn -0.000000 -0.563320 -0.826239
vn -0.000000 -0.781831 -0.623490
vn -0.000000 -0.781831 -0.623490
vn -0.000000 -0.930874 -0.365341
vn -0.000000 -0.930874 -0.365341
vn -0.000000 -0.997204 -0.074730
vn -0.000000 -0.997204 -0.074730
vn -0.000000 -0.974928 0.222521
vn -0.000000 -0.974928 0.222521
vn -0.000000 -0.866025 0.500000
vn -0.000000 -0.866025 0.500000
vn -0.000000 -0.680173 0.733052
vn -0.000000 -0.680173 0.733052
vn -0.000000 -0.433884 0.900969
vn -0.000000 -0.433884 0.900969
vn -0.000000 -0.149042 0.988831
vn -0.000000 -0.149042 0.988831
vn 0.000000 0.149042 0.988831
vn 0.000000 0.149042 0.988831
vn 0.000000 0.433884 0.900969
vn 0.000000 0.433884 0.900969
vn 0.000000 0.680173 0.733052
vn 0.000000 0.680173 0.733052
vn 0.000000 0.866025 0.500000
vn 0.000000 0.866025 0.500000
vn 0.000000 0.974928 0.222521
vn 0.000000 0.974928 0.222521
vn 0.000000 0.997204 -0.074730
vn 0.000000 0.997204 -0.074730
vn 0.000000 0.930874 -0.365341
vn 0.000000 0.930874 -0.365341
vn 0.000000 0.781831 -0.623490
vn 0.000000 0.781831 -0.623490
vn 0.000000 0.563320 -0.826239
vn 0.000000 0.563320 -0.826239
vn -0.000000 0.000000 -1.000000
vn 0.000000 0.294755 -0.955573
vn 0.000000 0.563320 -0.826239
vn 0.000000 0.781831 -0.623490
vn 0.000000 0.930874 -0.365341
vn 0.000000 0.997204 -0.074730
vn 0.000000 0.974928 0.222521
vn 0.000000 0.866025 0.500000
vn 0.000000 0.680173 0.733052
vn 0.000000 0.433884 0.900969
vn 0.000000 0.149042 0.988831
vn -0.000000 -0.149042 0.988831
vn -0.000000 -0.433884 0.900969
vn -0.000000 -0.680173 0.733052
vn -0.000000 -0.866025 0.500000
vn -0.000000 -0.974928 0.222521
vn -0.000000 -0.997204 -0.074730
vn -0.000000 -0.930874 -0.365341
vn -0.000000 -0.781831 -0.623490
vn -0.000000 -0.563320 -0.826239
vn -0.000000 -0.294755 -0.955573
vn -0.000000 0.000000 -1.000000
vn 0.000000 0.294755 -0.955573
vn 0.000000 0.563320 -0.826239
vn 0.000000 0.781831 -0.623490
vn 0.000000 0.930874 -0.365341
vn 0.000000 0.997204 -0.074730
vn 0.000000 0.974928 0.222521
vn 0.000000 0.866025 0.500000
vn 0.000000 0.680173 0.733052
vn 0.000000 0.433884 0.900969
vn 0.000000 0.149042 0.988831
vn -0.000000 -0.149042 0.988831
vn -0.000000 -0.433884 0.900969
vn -0.000000 -0.680173 0.733052
vn -0.000000 -0.866025 0.500000
vn -0.000000 -0.974928 0.222521
vn -0.000000 -0.997204 -0.074730
vn -0.000000 -0.930874 -0.365341
vn -0.000000 -0.781831 -0.623490
vn -0.000000 -0.563320 -0.826239
vn -0.000000 -0.294755 -0.955573
vn 0.000000 0.269797 0.962917
vn 0.000000 0.000000 1.000000
vn 0.000000 0.000000 1.000000
vn -0.000000 -0.269797 0.962917
vn -0.000000 -0.281733 0.959493
vn -0.000000 -0.519584 0.854419
vn -0.000000 -0.540641 0.841254
vn -0.000000 -0.730836 0.682553
vn -0.000000 -0.755750 0.654861
vn -0.000000 -0.887885 0.460065
vn -0.000000 -0.909632 0.415415
vn -0.000000 -0.979084 0.203456
vn -0.000000 -0.989821 0.142315
vn -0.000000 -0.997669 -0.068242
vn -0.000000 -0.989821 -0.142315
vn -0.000000 -0.942261 -0.334880
vn -0.000000 -0.909632 -0.415415
vn -0.000000 -0.816970 -0.576680
vn -0.000000 -0.755750 -0.654861
vn -0.000000 -0.631088 -0.775711
vn -0.000000 -0.540641 -0.841254
vn -0.000000 -0.398401 -0.917211
vn -0.000000 -0.281733 -0.959493
vn -0.000000 -0.136167 -0.990686
vn -0.000000 -0.000000 -1.000000
vn 0.000000 0.136167 -0.990686
vn 0.000000 0.281733 -0.959493
vn 0.000000 0.398401 -0.917211
vn 0.000000 0.540641 -0.841254
vn 0.000000 0.631088 -0.775711
vn 0.000000 0.755750 -0.654861
vn 0.000000 0.816970 -0.576680
vn 0.000000 0.909632 -0.415415
vn 0.000000 0.942261 -0.334880
vn 0.000000 0.989821 -0.142315
vn 0.000000 0.997669 -0.068242
vn 0.000000 0.989821 0.142315
vn 0.000000 0.979084 0.203456
vn 0.000000 0.909632 0.415415
vn 0.000000 0.887885 0.460065
vn 0.000000 0.755750 0.654861
vn 0.000000 0.730836 0.682553
vn 0.000000 0.540641 0.841254
vn 0.000000 0.519584 0.854419
vn 0.000000 0.281733 0.959493
vn -0.000000 -0.269797 0.962917
vn 0.000000 -0.000000 1.000000
vn 0.000000 -0.000000 1.000000
vn 0.000000 0.269797 0.962917
vn 0.000000 0.281733 0.959493
vn 0.000000 0.519584 0.854419
vn 0.000000 0.540641 0.841254
vn 0.000000 0.730836 0.682553
vn 0.000000 0.755750 0.654861
vn 0.000000 0.887885 0.460065
vn 0.000000 0.909632 0.415415
vn 0.000000 0.979084 0.203456
vn 0.000000 0.989821 0.142315
vn 0.000000 0.997669 -0.068242
vn 0.000000 0.989821 -0.142315
vn 0.000000 0.942261 -0.334880
vn 0.000000 0.909632 -0.415415
vn 0.000000 0.816970 -0.576680
vn 0.000000 0.755750 -0.654861
vn 0.000000 0.631088 -0.775711
vn 0.000000 0.540641 -0.841254
vn 0.000000 0.398401 -0.917211
vn 0.000000 0.281733 -0.959493
vn 0.000000 0.136167 -0.990686
vn -0.000000 -0.000000 -1.000000
vn -0.000000 -0.136167 -0.990686
vn -0.000000 -0.281733 -0.959493
vn -0.000000 -0.398401 -0.917211
vn -0.000000 -0.540641 -0.841254
vn -0.000000 -0.631088 -0.775711
vn -0.000000 -0.755750 -0.654861
vn -0.000000 -0.816970 -0.576680
vn -0.000000 -0.909632 -0.415415
vn -0.000000 -0.942261 -0.334880
vn -0.000000 -0.989821 -0.142315
vn -0.000000 -0.997669 -0.068242
vn -0.000000 -0.989821 0.142315
vn -0.000000 -0.979084 0.203456
vn -0.000000 -0.909632 0.415415
vn -0.000000 -0.887885 0.460065
vn -0.000000 -0.755750 0.654861
vn -0.000000 -0.730836 0.682553
vn -0.000000 -0.540641 0.841254
vn -0.000000 -0.519584 0.854419
vn -0.000000 -0.281733 0.959493
vn 0.000000 0.000000 1.000000
vn 0.000000 0.281733 0.959493
vn 0.000000 0.540641 0.841254
vn 0.000000 0.755750 0.654861
vn 0.000000 0.909632 0.415415
vn 0.000000 0.989821 0.142315
vn 0.000000 0.989821 -0.142315
vn 0.000000 0.909632 -0.415415
vn 0.000000 0.755750 -0.654861
vn 0.000000 0.540641 -0.841254
vn 0.000000 0.281733 -0.959493
vn -0.000000 -0.000000 -1.000000
vn -0.000000 -0.281733 -0.959493
vn -0.000000 -0.540641 -0.841254
vn -0.000000 -0.755750 -0.654861
vn -0.000000 -0.909632 -0.415415
vn -0.000000 -0.989821 -0.142315
vn -0.000000 -0.989821 0.142315
vn -0.000000 -0.909632 0.415415
vn -0.000000 -0.755750 0.654861
vn -0.000000 -0.540641 0.841254
vn -0.000000 -0.281733 0.959493
vn 0.000000 0.000000 1.000000
vn 0.000000 0.281733 0.959493
vn 0.000000 0.540641 0.841254
vn 0.000000 0.755750 0.654861
vn 0.000000 0.909632 0.415415
vn 0.000000 0.989821 0.142315
vn 0.000000 0.989821 -0.142315
vn 0.000000 0.909632 -0.415415
vn 0.000000 0.755750 -0.654861
vn 0.000000 0.540641 -0.841254
vn 0.000000 0.281733 -0.959493
vn -0.000000 -0.000000 -1.000000
vn -0.000000 -0.281733 -0.959493
vn -0.000000 -0.540641 -0.841254
vn -0.000000 -0.755750 -0.654861
vn -0.000000 -0.909632 -0.415415
vn -0.000000 -0.989821 -0.142315
vn -0.000000 -0.989821 0.142315
vn -0.000000 -0.909632 0.415415
vn -0.000000 -0.755750 0.654861
vn -0.000000 -0.540641 0.841254
vn -0.000000 -0.281733 0.959493
usemtl Opaque(255,255,255)
f 2/1/1 34/2/2 1/3/3
f 1/3/3 34/2/2 35/4/4
f 1/3/3 35/4/4 23/5/5
f 23/5/5 35/4/4 36/6/6
f 23/5/5 36/6/6 22/7/7
f 22/7/7 36/6/6 37/8/8
f 22/7/7 37/8/8 21/9/9
f 21/9/9 37/8/8 38/10/10
f 21/9/9 38/10/10 20/11/11
f 20/11/11 38/10/10 39/12/12
f 20/11/11 39/12/12 19/13/13
f 19/13/13 39/12/12 40/14/14
f 19/13/13 40/14/14 18/15/15
f 18/15/15 40/14/14 17/16/16
f 17/16/16 40/14/14 41/17/17
f 17/16/16 41/17/17 16/18/18
f 16/18/18 41/17/17 42/19/19
f 16/18/18 42/19/19 15/20/20
f 15/20/20 42/19/19 43/21/21
f 15/20/20 43/21/21 14/22/22
f 14/22/22 43/21/21 44/23/23
f 14/22/22 44/23/23 13/24/24
f 13/24/24 44/23/23 24/25/25
f 13/24/24 24/25/25 12/26/26
f 12/26/26 24/25/25 25/27/27
f 12/26/26 25/27/27 11/28/28
f 11/28/28 25/27/27 26/29/29
f 11/28/28 26/29/29 10/30/30
f 10/30/30 26/29/29 27/31/31
f 10/30/30 27/31/31 9/32/32
f 9/32/32 27/31/31 28/33/33
f 9/32/32 28/33/33 8/34/34
f 8/34/34 28/33/33 29/35/35
f 8/34/34 29/35/35 7/36/36
f 7/36/36 29/35/35 6/37/37
f 6/37/37 29/35/35 30/38/38
f 6/37/37 30/38/38 5/39/39
f 5/39/39 30/38/38 31/40/40
f 5/39/39 31/40/40 4/41/41
f 4/41/41 31/40/40 32/42/42
f 4/41/41 32/42/42 3/43/43
f 3/43/43 32/42/42 33/44/44
f 3/43/43 33/44/44 2/1/1
f 2/1/1 33/44/44 34/2/2
f 46/45/45 88/46/46 45/47/47
f 45/47/47 88/46/46 66/48/48
f 45/47/47 66/48/48 67/49/49
f 88/46/46 46/45/45 87/50/50
f 87/50/50 46/45/45 47/51/51
f 87/50/50 47/51/51 86/52/52
f 86/52/52 47/51/51 48/53/53
f 86/52/52 48/53/53 85/54/54
f 85/54/54 48/53/53 49/55/55
f 85/54/54 49/55/55 84/56/56
f 84/56/56 49/55/55 50/57/57
f 84/56/56 50/57/57 83/58/58
f 83/58/58 50/57/57 51/59/59
f 83/58/58 51/59/59 82/60/60
f 82/60/60 51/59/59 52/61/61
f 82/60/60 52/61/61 81/62/62
f 81/62/62 52/61/61 53/63/63
f 81/62/62 53/63/63 80/64/64
f 80/64/64 53/63/63 54/65/65
f 80/64/64 54/65/65 79/66/66
f 79/66/66 54/65/65 55/67/67
f 79/66/66 55/67/67 78/68/68
f 78/68/68 55/67/67 56/69/69
f 78/68/68 56/69/69 77/70/70
f 77/70/70 56/69/69 76/71/71
f 76/71/71 56/69/69 57/72/72
f 76/71/71 57/72/72 75/73/73
f 75/73/73 57/72/72 58/74/74
f 75/73/73 58/74/74 74/75/75
f 74/75/75 58/74/74 59/76/76
f 74/75/75 59/76/76 73/77/77
f 73/77/77 59/76/76 60/78/78
f 73/77/77 60/78/78 72/79/79
f 72/79/79 60/78/78 61/80/80
f 72/79/79 61/80/80 71/81/81
f 71/81/81 61/80/80 62/82/82
f 71/81/81 62/82/82 70/83/83
f 70/83/83 62/82/82 63/84/84
f 70/83/83 63/84/84 69/85/85
f 69/85/85 63/84/84 64/86/86
f 69/85/85 64/86/86 68/87/87
f 68/87/87 64/86/86 65/88/88
f 68/87/87 65/88/88 67/49/49
f 67/49/49 65/88/88 45/47/47
f 44/89/89 93/90/90 24/91/91
f 24/91/91 93/90/90 100/92/92
f 24/91/91 100/92/92 25/93/93
f 25/93/93 100/92/92 169/94/94
f 25/93/93 169/94/94 26/95/95
f 26/95/95 169/94/94 165/96/96
f 26/95/95 165/96/96 27/97/97
f 27/97/97 165/96/96 161/98/98
f 27/97/97 161/98/98 28/99/99
f 28/99/99 161/98/98 157/100/100
f 28/99/99 157/100/100 29/101/101
f 29/101/101 157/100/100 153/102/102
f 29/101/101 153/102/102 30/103/103
f 30/103/103 153/102/102 149/104/104
f 30/103/103 149/104/104 31/105/105
f 31/105/105 149/104/104 145/106/106
f 31/105/105 145/106/106 32/107/107
f 32/107/107 145/106/106 141/108/108
f 32/107/107 141/108/108 33/109/109
f 33/109/109 141/108/108 137/110/110
f 33/109/109 137/110/110 34/111/111
f 34/111/111 137/110/110 89/112/112
f 34/111/111 89/112/112 35/113/113
f 35/114/113 89/115/112 133/116/114
f 35/114/113 133/116/114 36/117/115
f 36/117/115 133/116/114 129/118/116
f 36/117/115 129/118/116 37/119/117
f 37/119/117 129/118/116 125/120/118
f 37/119/117 125/120/118 38/121/119
f 38/121/119 125/120/118 121/122/120
f 38/121/119 121/122/120 39/123/121
f 39/123/121 121/122/120 117/124/122
f 39/123/121 117/124/122 40/125/123
f 40/125/123 117/124/122 113/126/124
f 40/125/123 113/126/124 41/127/125
f 41/127/125 113/126/124 109/128/126
f 41/127/125 109/128/126 42/129/127
f 42/129/127 109/128/126 105/130/128
f 42/129/127 105/130/128 43/131/129
f 43/131/129 105/130/128 101/132/130
f 43/131/129 101/132/130 44/89/89
f 44/89/89 101/132/130 93/90/90
f 65/133/131 136/134/132 45/135/133
f 45/135/133 136/134/132 92/136/134
f 45/137/133 92/138/134 46/139/135
f 46/139/135 92/138/134 140/140/136
f 46/139/135 140/140/136 47/141/137
f 47/141/137 140/140/136 144/142/138
f 47/141/137 144/142/138 48/143/139
f 48/143/139 144/142/138 148/144/140
f 48/143/139 148/144/140 49/145/141
f 49/145/141 148/144/140 152/146/142
f 49/145/141 152/146/142 50/147/143
f 50/147/143 152/146/142 156/148/144
f 50/147/143 156/148/144 51/149/145
f 51/149/145 156/148/144 160/150/146
f 51/149/145 160/150/146 52/151/147
f 52/151/147 160/150/146 164/152/148
f 52/151/147 164/152/148 53/153/149
f 53/153/149 164/152/148 168/154/150
f 53/153/149 168/154/150 54/155/151
f 54/155/151 168/154/150 172/156/152
f 54/155/151 172/156/152 55/157/153
f 55/157/153 172/156/152 97/158/154
f 55/157/153 97/158/154 56/159/155
f 56/159/155 97/158/154 96/160/156
f 56/159/155 96/160/156 57/161/157
f 57/161/157 96/160/156 104/162/158
f 57/161/157 104/162/158 58/163/159
f 58/163/159 104/162/158 108/164/160
f 58/163/159 108/164/160 59/165/161
f 59/165/161 108/164/160 112/166/162
f 59/165/161 112/166/162 60/167/163
f 60/167/163 112/166/162 116/168/164
f 60/167/163 116/168/164 61/169/165
f 61/169/165 116/168/164 120/170/166
f 61/169/165 120/170/166 62/171/167
f 62/171/167 120/170/166 124/172/168
f 62/171/167 124/172/168 63/173/169
f 63/173/169 124/172/168 128/174/170
f 63/173/169 128/174/170 64/175/171
f 64/175/171 128/174/170 132/176/172
f 64/175/171 132/176/172 65/133/131
f 65/133/131 132/176/172 136/134/132
f 89/115/112 90/177/173 133/116/114
f 133/116/114 90/177/173 134/178/174
f 133/116/114 134/178/174 129/118/116
f 129/118/116 134/178/174 130/179/175
f 129/118/116 130/179/175 125/120/118
f 125/120/118 130/179/175 126/180/176
f 125/120/118 126/180/176 121/122/120
f 121/122/120 126/180/176 122/181/177
f 121/122/120 122/181/177 117/124/122
f 117/124/122 122/181/177 118/182/178
f 117/124/122 118/182/178 113/126/124
f 113/126/124 118/182/178 114/183/179
f 113/126/124 114/183/179 109/128/126
f 109/128/126 114/183/179 110/184/180
f 109/128/126 110/184/180 105/130/128
f 105/130/128 110/184/180 106/185/181
f 105/130/128 106/185/181 101/132/130
f 101/132/130 106/185/181 102/186/182
f 101/132/130 102/186/182 93/90/90
f 93/90/90 102/186/182 94/187/183
f 93/90/90 94/187/183 100/92/92
f 100/92/92 94/187/183 99/188/184
f 100/92/92 99/188/184 169/94/94
f 169/94/94 99/188/184 170/189/185
f 169/94/94 170/189/185 165/96/96
f 165/96/96 170/189/185 166/190/186
f 165/96/96 166/190/186 161/98/98
f 161/98/98 166/190/186 162/191/187
f 161/98/98 162/191/187 157/100/100
f 157/100/100 162/191/187 158/192/188
f 157/100/100 158/192/188 153/102/102
f 153/102/102 158/192/188 154/193/189
f 153/102/102 154/193/189 149/104/104
f 149/104/104 154/193/189 150/194/190
f 149/104/104 150/194/190 145/106/106
f 145/106/106 150/194/190 146/195/191
f 145/106/106 146/195/191 141/108/108
f 141/108/108 146/195/191 142/196/192
f 141/108/108 142/196/192 137/110/110
f 137/110/110 142/196/192 138/197/193
f 137/110/110 138/197/193 89/112/112
f 89/112/112 138/197/193 90/198/173
f 90/177/173 91/199/194 134/178/174
f 134/178/174 91/199/194 135/200/195
f 134/178/174 135/200/195 130/179/175
f 130/179/175 135/200/195 131/201/196
f 130/179/175 131/201/196 126/180/176
f 126/180/176 131/201/196 127/202/197
f 126/180/176 127/202/197 122/181/177
f 122/181/177 127/202/197 123/203/198
f 122/181/177 123/203/198 118/182/178
f 118/182/178 123/203/198 119/204/199
f 118/182/178 119/204/199 114/183/179
f 114/183/179 119/204/199 115/205/200
f 114/183/179 115/205/200 110/184/180
f 110/184/180 115/205/200 111/206/201
f 110/184/180 111/206/201 106/185/181
f 106/185/181 111/206/201 107/207/202
f 106/185/181 107/207/202 102/186/182
f 102/186/182 107/207/202 103/208/203
f 102/186/182 103/208/203 94/187/183
f 94/187/183 103/208/203 95/209/204
f 94/187/183 95/209/204 99/188/184
f 99/188/184 95/209/204 98/210/205
f 99/188/184 98/210/205 170/189/185
f 170/189/185 98/210/205 171/211/206
f 170/189/185 171/211/206 166/190/186
f 166/190/186 171/211/206 167/212/207
f 166/190/186 167/212/207 162/191/187
f 162/191/187 167/212/207 163/213/208
f 162/191/187 163/213/208 158/192/188
f 158/192/188 163/213/208 159/214/209
f 158/192/188 159/214/209 154/193/189
f 154/193/189 159/214/209 155/215/210
f 154/193/189 155/215/210 150/194/190
f 150/194/190 155/215/210 151/216/211
f 150/194/190 151/216/211 146/195/191
f 146/195/191 151/216/211 147/217/212
f 146/195/191 147/217/212 142/196/192
f 142/196/192 147/217/212 143/218/213
f 142/196/192 143/218/213 138/197/193
f 138/197/193 143/218/213 139/219/214
f 138/197/193 139/219/214 90/198/173
f 90/198/173 139/219/214 91/220/194
f 91/199/194 92/136/134 135/200/195
f 135/200/195 92/136/134 136/134/132
f 135/200/195 136/134/132 131/201/196
f 131/201/196 136/134/132 132/176/172
f 131/201/196 132/176/172 127/202/197
f 127/202/197 132/176/172 128/174/170
f 127/202/197 128/174/170 123/203/198
f 123/203/198 128/174/170 124/172/168
f 123/203/198 124/172/168 119/204/199
f 119/204/199 124/172/168 120/170/166
f 119/204/199 120/170/166 115/205/200
f 115/205/200 120/170/166 116/168/164
f 115/205/200 116/168/164 111/206/201
f 111/206/201 116/168/164 112/166/162
f 111/206/201 112/166/162 107/207/202
f 107/207/202 112/166/162 108/164/160
f 107/207/202 108/164/160 103/208/203
f 103/208/203 108/164/160 104/162/158
f 103/208/203 104/162/158 95/209/204
f 95/209/204 104/162/158 96/160/156
f 95/209/204 96/160/156 98/210/205
f 98/210/205 96/160/156 97/158/154
f 98/210/205 97/158/154 171/211/206
f 171/211/206 97/158/154 172/156/152
f 171/211/206 172/156/152 167/212/207
f 167/212/207 172/156/152 168/154/150
f 167/212/207 168/154/150 163/213/208
f 163/213/208 168/154/150 164/152/148
f 163/213/208 164/152/148 159/214/209
f 159/214/209 164/152/148 160/150/146
f 159/214/209 160/150/146 155/215/210
f 155/215/210 160/150/146 156/148/144
f 155/215/210 156/148/144 151/216/211
f 151/216/211 156/148/144 152/146/142
f 151/216/211 152/146/142 147/217/212
f 147/217/212 152/146/142 148/144/140
f 147/217/212 148/144/140 143/218/213
f 143/218/213 148/144/140 144/142/138
f 143/218/213 144/142/138 139/219/214
f 139/219/214 144/142/138 140/140/136
f 139/219/214 140/140/136 91/220/194
f 91/220/194 140/140/136 92/138/134
usemtl Opaque(255,0,0)
f 2/221/215 1/222/216 173/223/217
f 173/224/217 1/225/216 23/226/218
f 173/224/217 23/226/218 177/227/219
f 177/227/219 23/226/218 22/228/220
f 177/227/219 22/228/220 181/229/221
f 181/229/221 22/228/220 21/230/222
f 181/229/221 21/230/222 185/231/223
f 185/231/223 21/230/222 20/232/224
f 185/231/223 20/232/224 189/233/225
f 189/233/225 20/232/224 19/234/226
f 189/233/225 19/234/226 193/235/227
f 193/235/227 19/234/226 18/236/228
f 193/235/227 18/236/228 197/237/229
f 197/237/229 18/236/228 17/238/230
f 197/237/229 17/238/230 201/239/231
f 201/239/231 17/238/230 16/240/232
f 201/239/231 16/240/232 205/241/233
f 205/241/233 16/240/232 15/242/234
f 205/241/233 15/242/234 209/243/235
f 209/243/235 15/242/234 14/244/236
f 209/243/235 14/244/236 213/245/237
f 213/245/237 14/244/236 13/246/238
f 213/245/237 13/246/238 217/247/239
f 217/247/239 13/246/238 12/248/240
f 217/247/239 12/248/240 221/249/241
f 221/249/241 12/248/240 11/250/242
f 221/249/241 11/250/242 225/251/243
f 225/251/243 11/250/242 10/252/244
f 225/251/243 10/252/244 229/253/245
f 229/253/245 10/252/244 9/254/246
f 229/253/245 9/254/246 233/255/247
f 233/255/247 9/254/246 8/256/248
f 233/255/247 8/256/248 237/257/249
f 237/257/249 8/256/248 7/258/250
f 237/257/249 7/258/250 241/259/251
f 241/259/251 7/258/250 6/260/252
f 241/259/251 6/260/252 245/261/253
f 245/261/253 6/260/252 5/262/254
f 245/261/253 5/262/254 249/263/255
f 249/263/255 5/262/254 4/264/256
f 249/263/255 4/264/256 253/265/257
f 253/265/257 4/264/256 3/266/258
f 253/265/257 3/266/258 257/267/259
f 257/267/259 3/266/258 2/221/215
f 257/267/259 2/221/215 173/223/217
f 67/268/260 66/269/261 176/270/262
f 176/271/262 66/272/261 88/273/263
f 176/271/262 88/273/263 260/274/264
f 260/274/264 88/273/263 87/275/265
f 260/274/264 87/275/265 256/276/266
f 256/276/266 87/275/265 86/277/267
f 256/276/266 86/277/267 252/278/268
f 252/278/268 86/277/267 85/279/269
f 252/278/268 85/279/269 248/280/270
f 248/280/270 85/279/269 84/281/271
f 248/280/270 84/281/271 244/282/272
f 244/282/272 84/281/271 83/283/273
f 244/282/272 83/283/273 240/284/274
f 240/284/274 83/283/273 82/285/275
f 240/284/274 82/285/275 236/286/276
f 236/286/276 82/285/275 81/287/277
f 236/286/276 81/287/277 232/288/278
f 232/288/278 81/287/277 80/289/279
f 232/288/278 80/289/279 228/290/280
f 228/290/280 80/289/279 79/291/281
f 228/290/280 79/291/281 224/292/282
f 224/292/282 79/291/281 78/293/283
f 224/292/282 78/293/283 220/294/284
f 220/294/284 78/293/283 77/295/285
f 220/294/284 77/295/285 216/296/286
f 216/296/286 77/295/285 76/297/287
f 216/296/286 76/297/287 212/298/288
f 212/298/288 76/297/287 75/299/289
f 212/298/288 75/299/289 208/300/290
f 208/300/290 75/299/289 74/301/291
f 208/300/290 74/301/291 204/302/292
f 204/302/292 74/301/291 73/303/293
f 204/302/292 73/303/293 200/304/294
f 200/304/294 73/303/293 72/305/295
f 200/304/294 72/305/295 196/306/296
f 196/306/296 72/305/295 71/307/297
f 196/306/296 71/307/297 192/308/298
f 192/308/298 71/307/297 70/309/299
f 192/308/298 70/309/299 188/310/300
f 188/310/300 70/309/299 69/311/301
f 188/310/300 69/311/301 184/312/302
f 184/312/302 69/311/301 68/313/303
f 184/312/302 68/313/303 180/314/304
f 180/314/304 68/313/303 67/268/260
f 180/314/304 67/268/260 176/270/262
f 173/223/217 174/315/305 257/267/259
f 257/267/259 174/315/305 258/316/306
f 257/267/259 258/316/306 253/265/257
f 253/265/257 258/316/306 254/317/307
f 253/265/257 254/317/307 249/263/255
f 249/263/255 254/317/307 250/318/308
f 249/263/255 250/318/308 245/261/253
f 245/261/253 250/318/308 246/319/309
f 245/261/253 246/319/309 241/259/251
f 241/259/251 246/319/309 242/320/310
f 241/259/251 242/320/310 237/257/249
f 237/257/249 242/320/310 238/321/311
f 237/257/249 238/321/311 233/255/247
f 233/255/247 238/321/311 234/322/312
f 233/255/247 234/322/312 229/253/245
f 229/253/245 234/322/312 230/323/313
f 229/253/245 230/323/313 225/251/243
f 225/251/243 230/323/313 226/324/314
f 225/251/243 226/324/314 221/249/241
f 221/249/241 226/324/314 222/325/315
f 221/249/241 222/325/315 217/247/239
f 217/247/239 222/325/315 218/326/316
f 217/247/239 218/326/316 213/245/237
f 213/245/237 218/326/316 214/327/317
f 213/245/237 214/327/317 209/243/235
f 209/243/235 214/327/317 210/328/318
f 209/243/235 210/328/318 205/241/233
f 205/241/233 210/328/318 206/329/319
f 205/241/233 206/329/319 201/239/231
f 201/239/231 206/329/319 202/330/320
f 201/239/231 202/330/320 197/237/229
f 197/237/229 202/330/320 198/331/321
f 197/237/229 198/331/321 193/235/227
f 193/235/227 198/331/321 194/332/322
f 193/235/227 194/332/322 189/233/225
f 189/233/225 194/332/322 190/333/323
f 189/233/225 190/333/323 185/231/223
f 185/231/223 190/333/323 186/334/324
f 185/231/223 186/334/324 181/229/221
f 181/229/221 186/334/324 182/335/325
f 181/229/221 182/335/325 177/227/219
f 177/227/219 182/335/325 178/336/326
f 177/227/219 178/336/326 173/224/217
f 173/224/217 178/336/326 174/337/305
f 174/315/305 175/338/327 258/316/306
f 258/316/306 175/338/327 259/339/328
f 258/316/306 259/339/328 254/317/307
f 254/317/307 259/339/328 255/340/329
f 254/317/307 255/340/329 250/318/308
f 250/318/308 255/340/329 251/341/330
f 250/318/308 251/341/330 246/319/309
f 246/319/309 251/341/330 247/342/331
f 246/319/309 247/342/331 242/320/310
f 242/320/310 247/342/331 243/343/332
f 242/320/310 243/343/332 238/321/311
f 238/321/311 243/343/332 239/344/333
f 238/321/311 239/344/333 234/322/312
f 234/322/312 239/344/333 235/345/334
f 234/322/312 235/345/334 230/323/313
f 230/323/313 235/345/334 231/346/335
f 230/323/313 231/346/335 226/324/314
f 226/324/314 231/346/335 227/347/336
f 226/324/314 227/347/336 222/325/315
f 222/325/315 227/347/336 223/348/337
f 222/325/315 223/348/337 218/326/316
f 218/326/316 223/348/337 219/349/338
f 218/326/316 219/349/338 214/327/317
f 214/327/317 219/349/338 215/350/339
f 214/327/317 215/350/339 210/328/318
f 210/328/318 215/350/339 211/351/340
f 210/328/318 211/351/340 206/329/319
f 206/329/319 211/351/340 207/352/341
f 206/329/319 207/352/341 202/330/320
f 202/330/320 207/352/341 203/353/342
f 202/330/320 203/353/342 198/331/321
f 198/331/321 203/353/342 199/354/343
f 198/331/321 199/354/343 194/332/322
f 194/332/322 199/354/343 195/355/344
f 194/332/322 195/355/344 190/333/323
f 190/333/323 195/355/344 191/356/345
f 190/333/323 191/356/345 186/334/324
f 186/334/324 191/356/345 187/357/346
f 186/334/324 187/357/346 182/335/325
f 182/335/325 187/357/346 183/358/347
f 182/335/325 183/358/347 178/336/326
f 178/336/326 183/358/347 179/359/348
f 178/336/326 179/359/348 174/337/305
f 174/337/305 179/359/348 175/360/327
f 175/338/327 176/271/262 259/339/328
f 259/339/328 176/271/262 260/274/264
f 259/339/328 260/274/264 255/340/329
f 255/340/329 260/274/264 256/276/266
f 255/340/329 256/276/266 251/341/330
f 251/341/330 256/276/266 252/278/268
f 251/341/330 252/278/268 247/342/331
f 247/342/331 252/278/268 248/280/270
f 247/342/331 248/280/270 243/343/332
f 243/343/332 248/280/270 244/282/272
f 243/343/332 244/282/272 239/344/333
f 239/344/333 244/282/272 240/284/274
f 239/344/333 240/284/274 235/345/334
f 235/345/334 240/284/274 236/286/276
f 235/345/334 236/286/276 231/346/335
f 231/346/335 236/286/276 232/288/278
f 231/346/335 232/288/278 227/347/336
f 227/347/336 232/288/278 228/290/280
f 227/347/336 228/290/280 223/348/337
f 223/348/337 228/290/280 224/292/282
f 223/348/337 224/292/282 219/349/338
f 219/349/338 224/292/282 220/294/284
f 219/349/338 220/294/284 215/350/339
f 215/350/339 220/294/284 216/296/286
f 215/350/339 216/296/286 211/351/340
f 211/351/340 216/296/286 212/298/288
f 211/351/340 212/298/288 207/352/341
f 207/352/341 212/298/288 208/300/290
f 207/352/341 208/300/290 203/353/342
f 203/353/342 208/300/290 204/302/292
f 203/353/342 204/302/292 199/354/343
f 199/354/343 204/302/292 200/304/294
f 199/354/343 200/304/294 195/355/344
f 195/355/344 200/304/294 196/306/296
f 195/355/344 196/306/296 191/356/345
f 191/356/345 196/306/296 192/308/298
f 191/356/345 192/308/298 187/357/346
f 187/357/346 192/308/298 188/310/300
f 187/357/346 188/310/300 183/358/347
f 183/358/347 188/310/300 184/312/302
f 183/358/347 184/312/302 179/359/348
f 179/359/348 184/312/302 180/314/304
f 179/359/348 180/314/304 175/360/327
f 175/360/327 180/314/304 176/270/262
# 260 vertices
# 360 texture params
# 348 normals
# 520 facets

# 1 groups
