# WaveFront *.obj file (generated by Autodesk ATF)

mtllib motor_and_gearbox_visual.mtl

g Motor and Gearbox

v -0.651834 0.000000 7.600000
v -0.677282 0.225859 7.600000
v -0.752350 0.440392 7.600000
v -0.873275 0.632842 7.600000
v -1.033991 0.793559 7.600000
v -1.226442 0.914483 7.600000
v -1.440975 0.989552 7.600000
v -1.666834 1.015000 7.600000
v -1.892692 0.989552 7.600000
v -2.107226 0.914483 7.600000
v -2.299676 0.793559 7.600000
v -2.460393 0.632842 7.600000
v -2.581317 0.440392 7.600000
v -2.656385 0.225859 7.600000
v -2.681834 -0.000000 7.600000
v -2.656385 -0.225859 7.600000
v -2.581317 -0.440392 7.600000
v -2.460393 -0.632842 7.600000
v -2.299676 -0.793559 7.600000
v -2.107226 -0.914483 7.600000
v -1.892692 -0.989552 7.600000
v -1.666834 -1.015000 7.600000
v -1.440975 -0.989552 7.600000
v -1.226442 -0.914483 7.600000
v -1.033991 -0.793559 7.600000
v -0.873275 -0.632842 7.600000
v -0.752350 -0.440392 7.600000
v -0.677282 -0.225859 7.600000
v -0.651834 -0.000000 12.600000
v -0.677282 0.225859 12.600000
v -0.752350 0.440392 12.600000
v -0.873275 0.632842 12.600000
v -1.033991 0.793559 12.600000
v -1.226442 0.914483 12.600000
v -1.440975 0.989552 12.600000
v -1.666834 1.015000 12.600000
v -1.892692 0.989552 12.600000
v -2.107226 0.914483 12.600000
v -2.299676 0.793559 12.600000
v -2.460393 0.632842 12.600000
v -2.581317 0.440392 12.600000
v -2.656385 0.225859 12.600000
v -2.681834 -0.000000 12.600000
v -2.656385 -0.225859 12.600000
v -2.581317 -0.440392 12.600000
v -2.460393 -0.632842 12.600000
v -2.299676 -0.793559 12.600000
v -2.107226 -0.914483 12.600000
v -1.892692 -0.989552 12.600000
v -1.666834 -1.015000 12.600000
v -1.440975 -0.989552 12.600000
v -1.226442 -0.914483 12.600000
v -1.033991 -0.793559 12.600000
v -0.873275 -0.632842 12.600000
v -0.752350 -0.440392 12.600000
v -0.677282 -0.225859 12.600000
v -2.650000 0.575000 -1.800000
v -2.627164 0.689805 -1.800000
v -2.562132 0.787132 -1.800000
v -2.464805 0.852164 -1.800000
v -2.350000 0.875000 -1.800000
v -1.200000 0.875000 -1.800000
v -1.085195 0.852164 -1.800000
v -0.987868 0.787132 -1.800000
v -0.922836 0.689805 -1.800000
v -0.900000 0.575000 -1.800000
v -0.900000 -0.575000 -1.800000
v -0.922836 -0.689805 -1.800000
v -0.987868 -0.787132 -1.800000
v -1.085195 -0.852164 -1.800000
v -1.200000 -0.875000 -1.800000
v -2.350000 -0.875000 -1.800000
v -2.464805 -0.852164 -1.800000
v -2.562132 -0.787132 -1.800000
v -2.627164 -0.689805 -1.800000
v -2.650000 -0.575000 -1.800000
v -2.650000 0.575000 0.000000
v -2.650000 -0.575000 0.000000
v -2.350000 -0.875000 0.000000
v -2.464805 -0.852164 0.000000
v -2.562132 -0.787132 0.000000
v -2.627164 -0.689805 0.000000
v -2.075000 -0.875000 -1.060000
v -2.049064 -0.875000 -0.937979
v -1.975739 -0.875000 -0.837057
v -1.867705 -0.875000 -0.774683
v -1.743641 -0.875000 -0.761643
v -1.625000 -0.875000 -0.800192
v -1.532295 -0.875000 -0.883664
v -1.481556 -0.875000 -0.997626
v -1.481556 -0.875000 -1.122374
v -1.532295 -0.875000 -1.236336
v -1.625000 -0.875000 -1.319808
v -1.743641 -0.875000 -1.358357
v -1.867705 -0.875000 -1.345317
v -1.975739 -0.875000 -1.282943
v -2.049064 -0.875000 -1.182021
v -1.200000 -0.875000 0.000000
v -0.900000 -0.575000 0.000000
v -0.922836 -0.689805 0.000000
v -0.987868 -0.787132 0.000000
v -1.085195 -0.852164 0.000000
v -0.900000 0.575000 0.000000
v -1.200000 0.875000 0.000000
v -1.085195 0.852164 0.000000
v -0.987868 0.787132 0.000000
v -0.922836 0.689805 0.000000
v -2.075000 0.875000 -1.060000
v -2.049064 0.875000 -1.182021
v -1.975739 0.875000 -1.282943
v -1.867705 0.875000 -1.345317
v -1.743641 0.875000 -1.358357
v -1.625000 0.875000 -1.319808
v -1.532295 0.875000 -1.236336
v -1.481556 0.875000 -1.122374
v -1.481556 0.875000 -0.997626
v -1.532295 0.875000 -0.883664
v -1.625000 0.875000 -0.800192
v -1.743641 0.875000 -0.761643
v -1.867705 0.875000 -0.774683
v -1.975739 0.875000 -0.837057
v -2.049064 0.875000 -0.937979
v -2.350000 0.875000 0.000000
v -2.627164 0.689805 0.000000
v -2.562132 0.787132 0.000000
v -2.464805 0.852164 0.000000
v -2.750000 2.100000 0.000000
v -2.945090 2.084628 0.000000
v -3.132683 2.039104 0.000000
v -3.305570 1.965176 0.000000
v -3.457107 1.865685 0.000000
v -3.581470 1.744456 0.000000
v -3.673880 1.606147 0.000000
v -3.730785 1.456072 0.000000
v -3.750000 1.300000 0.000000
v -3.750000 1.300000 12.600000
v -3.740156 1.411972 12.600000
v -3.740156 1.411972 2.200000
v -3.699480 1.551063 2.200000
v -3.628531 1.682149 2.200000
v -3.529572 1.801051 2.200000
v -3.405757 1.903977 2.200000
v -3.261035 1.987648 2.200000
v -3.100020 2.049394 2.200000
v -2.927845 2.087247 2.200000
v -2.750000 2.100000 2.200000
v -3.750000 -1.100000 0.000000
v -3.750000 -1.100000 12.600000
v -3.730785 -1.256072 0.000000
v -3.673880 -1.406147 0.000000
v -3.581470 -1.544456 0.000000
v -3.457107 -1.665685 0.000000
v -3.305570 -1.765176 0.000000
v -3.132683 -1.839104 0.000000
v -2.945090 -1.884628 0.000000
v -2.750000 -1.900000 0.000000
v -2.750000 -1.900000 2.200000
v -2.927845 -1.887247 2.200000
v -3.100020 -1.849394 2.200000
v -3.261035 -1.787648 2.200000
v -3.405757 -1.703977 2.200000
v -3.529572 -1.601051 2.200000
v -3.628531 -1.482149 2.200000
v -3.699480 -1.351063 2.200000
v -3.740156 -1.211972 2.200000
v -3.740156 -1.211972 12.600000
v 1.750000 -1.900000 0.000000
v 1.750000 -1.900000 2.200000
v 1.946034 -1.892296 0.000000
v 2.140181 -1.869256 0.000000
v 2.330569 -1.831105 0.000000
v 2.515367 -1.778207 0.000000
v 2.692793 -1.711074 0.000000
v 2.861140 -1.630351 0.000000
v 3.018787 -1.536817 0.000000
v 3.164214 -1.431371 0.000000
v 3.296021 -1.315029 0.000000
v 3.412939 -1.188912 0.000000
v 3.513843 -1.054235 0.000000
v 3.597759 -0.912293 0.000000
v 3.663881 -0.764455 0.000000
v 3.711571 -0.612145 0.000000
v 3.740369 -0.456827 0.000000
v 3.750000 -0.300000 0.000000
v 3.750000 -0.300000 2.200000
v 3.740369 -0.456827 2.200000
v 3.711571 -0.612145 2.200000
v 3.663881 -0.764455 2.200000
v 3.597759 -0.912293 2.200000
v 3.513843 -1.054235 2.200000
v 3.412939 -1.188912 2.200000
v 3.296021 -1.315029 2.200000
v 3.164214 -1.431371 2.200000
v 3.018787 -1.536817 2.200000
v 2.861140 -1.630351 2.200000
v 2.692793 -1.711074 2.200000
v 2.515367 -1.778207 2.200000
v 2.330569 -1.831105 2.200000
v 2.140181 -1.869256 2.200000
v 1.946034 -1.892296 2.200000
v 3.750000 0.500000 0.000000
v 3.750000 0.500000 2.200000
v 3.740369 0.656827 0.000000
v 3.711571 0.812145 0.000000
v 3.663881 0.964455 0.000000
v 3.597759 1.112293 0.000000
v 3.513843 1.254235 0.000000
v 3.412939 1.388912 0.000000
v 3.296021 1.515029 0.000000
v 3.164214 1.631371 0.000000
v 3.018787 1.736817 0.000000
v 2.861140 1.830351 0.000000
v 2.692793 1.911074 0.000000
v 2.515367 1.978207 0.000000
v 2.330569 2.031105 0.000000
v 2.140181 2.069256 0.000000
v 1.946034 2.092296 0.000000
v 1.750000 2.100000 0.000000
v 1.750000 2.100000 2.200000
v 1.946034 2.092296 2.200000
v 2.140181 2.069256 2.200000
v 2.330569 2.031105 2.200000
v 2.515367 1.978207 2.200000
v 2.692793 1.911074 2.200000
v 2.861140 1.830351 2.200000
v 3.018787 1.736817 2.200000
v 3.164214 1.631371 2.200000
v 3.296021 1.515029 2.200000
v 3.412939 1.388912 2.200000
v 3.513843 1.254235 2.200000
v 3.597759 1.112293 2.200000
v 3.663881 0.964455 2.200000
v 3.711571 0.812145 2.200000
v 3.740369 0.656827 2.200000
v 3.700000 0.100000 2.200000
v 3.674087 -0.212730 2.200000
v 3.597053 -0.516929 2.200000
v 3.471000 -0.804300 2.200000
v 3.299367 -1.067004 2.200000
v 3.086835 -1.297875 2.200000
v 2.839202 -1.490616 2.200000
v 2.563221 -1.639969 2.200000
v 2.266422 -1.741861 2.200000
v 1.956901 -1.793511 2.200000
v 1.643099 -1.793511 2.200000
v 1.333578 -1.741861 2.200000
v 1.036779 -1.639969 2.200000
v 0.760799 -1.490616 2.200000
v 0.513165 -1.297875 2.200000
v 0.300633 -1.067004 2.200000
v 0.129000 -0.804300 2.200000
v 0.002947 -0.516929 2.200000
v -0.074086 -0.212730 2.200000
v -0.100000 0.100000 2.200000
v -0.074086 0.412730 2.200000
v 0.002947 0.716929 2.200000
v 0.129000 1.004300 2.200000
v 0.300633 1.267004 2.200000
v 0.513165 1.497875 2.200000
v 0.760799 1.690616 2.200000
v 1.036779 1.839969 2.200000
v 1.333578 1.941861 2.200000
v 1.643099 1.993511 2.200000
v 1.956901 1.993511 2.200000
v 2.266422 1.941861 2.200000
v 2.563221 1.839969 2.200000
v 2.839202 1.690616 2.200000
v 3.086835 1.497875 2.200000
v 3.299367 1.267004 2.200000
v 3.471000 1.004300 2.200000
v 3.597053 0.716929 2.200000
v 3.674087 0.412730 2.200000
v -3.698550 1.483914 2.200000
v -3.631293 1.532733 2.200000
v -3.550000 1.550000 2.200000
v -1.750000 1.550000 2.200000
v -1.495002 1.528166 2.200000
v -1.247427 1.463301 2.200000
v -1.014482 1.357293 2.200000
v -0.802950 1.213227 2.200000
v -0.618988 1.035298 2.200000
v -0.467951 0.828685 2.200000
v -0.354237 0.599404 2.200000
v -0.281155 0.354129 2.200000
v -0.250834 0.100000 2.200000
v -0.281155 -0.154129 2.200000
v -0.354237 -0.399404 2.200000
v -0.467951 -0.628685 2.200000
v -0.618988 -0.835298 2.200000
v -0.802950 -1.013227 2.200000
v -1.014482 -1.157293 2.200000
v -1.247427 -1.263301 2.200000
v -1.495002 -1.328166 2.200000
v -1.750000 -1.350000 2.200000
v -3.550000 -1.350000 2.200000
v -3.631293 -1.332733 2.200000
v -3.698550 -1.283914 2.200000
v -3.698550 -1.283914 12.600000
v -3.631293 -1.332733 12.600000
v -3.550000 -1.350000 12.600000
v -1.750000 -1.350000 12.600000
v -1.495002 -1.328166 12.600000
v -1.247427 -1.263301 12.600000
v -1.014482 -1.157293 12.600000
v -0.802950 -1.013227 12.600000
v -0.618988 -0.835298 12.600000
v -0.467951 -0.628685 12.600000
v -0.354237 -0.399404 12.600000
v -0.281155 -0.154129 12.600000
v -0.250834 0.100000 12.600000
v -0.281155 0.354129 12.600000
v -0.354237 0.599404 12.600000
v -0.467951 0.828685 12.600000
v -0.618988 1.035298 12.600000
v -0.802950 1.213227 12.600000
v -1.014482 1.357293 12.600000
v -1.247427 1.463301 12.600000
v -1.495002 1.528166 12.600000
v -1.750000 1.550000 12.600000
v -3.550000 1.550000 12.600000
v -3.631293 1.532733 12.600000
v -3.698550 1.483914 12.600000
v -3.698550 -1.283914 3.933333
v -3.698550 -1.283914 5.666667
v -3.698550 -1.283914 7.400000
v -3.698550 -1.283914 9.133333
v -3.698550 -1.283914 10.866667
v -3.631293 -1.332733 3.933333
v -3.631293 -1.332733 5.666667
v -3.631293 -1.332733 7.400000
v -3.631293 -1.332733 9.133333
v -3.631293 -1.332733 10.866667
v -1.495002 -1.328166 7.400000
v -1.247427 -1.263301 7.400000
v -1.014482 -1.157293 7.400000
v -0.802950 -1.013227 7.400000
v -0.618988 -0.835298 7.400000
v -0.467951 -0.628685 7.400000
v -0.354237 -0.399404 7.400000
v -0.281155 -0.154129 7.400000
v -0.281155 0.354129 7.400000
v -0.354237 0.599404 7.400000
v -0.467951 0.828685 7.400000
v -0.618988 1.035298 7.400000
v -0.802950 1.213227 7.400000
v -1.014482 1.357293 7.400000
v -1.247427 1.463301 7.400000
v -1.495002 1.528166 7.400000
v -3.631293 1.532733 3.933333
v -3.631293 1.532733 5.666667
v -3.631293 1.532733 7.400000
v -3.631293 1.532733 9.133333
v -3.631293 1.532733 10.866667
v -3.698550 1.483914 3.933333
v -3.698550 1.483914 5.666667
v -3.698550 1.483914 7.400000
v -3.698550 1.483914 9.133333
v -3.698550 1.483914 10.866667
v 3.700000 0.100000 10.030000
v 3.674087 0.412730 10.030000
v 3.597053 0.716929 10.030000
v 3.471000 1.004300 10.030000
v 3.299367 1.267004 10.030000
v 3.086835 1.497875 10.030000
v 2.839202 1.690616 10.030000
v 2.563221 1.839969 10.030000
v 2.266422 1.941861 10.030000
v 1.956901 1.993511 10.030000
v 1.643099 1.993511 10.030000
v 1.333578 1.941861 10.030000
v 1.036779 1.839969 10.030000
v 0.760799 1.690616 10.030000
v 0.513165 1.497875 10.030000
v 0.300633 1.267004 10.030000
v 0.129000 1.004300 10.030000
v 0.002947 0.716929 10.030000
v -0.074086 0.412730 10.030000
v -0.100000 0.100000 10.030000
v -0.074086 -0.212730 10.030000
v 0.002947 -0.516929 10.030000
v 0.129000 -0.804300 10.030000
v 0.300633 -1.067004 10.030000
v 0.513165 -1.297875 10.030000
v 0.760799 -1.490616 10.030000
v 1.036779 -1.639969 10.030000
v 1.333578 -1.741861 10.030000
v 1.643099 -1.793511 10.030000
v 1.956901 -1.793511 10.030000
v 2.266422 -1.741861 10.030000
v 2.563221 -1.639969 10.030000
v 2.839202 -1.490616 10.030000
v 3.086835 -1.297875 10.030000
v 3.299367 -1.067004 10.030000
v 3.471000 -0.804300 10.030000
v 3.597053 -0.516929 10.030000
v 3.674087 -0.212730 10.030000
v 3.700000 0.100000 6.115000
v 3.674087 -0.212730 6.115000
v 3.597053 -0.516929 6.115000
v 3.471000 -0.804300 6.115000
v 3.299367 -1.067004 6.115000
v 3.086835 -1.297875 6.115000
v 2.839202 -1.490616 6.115000
v 2.563221 -1.639969 6.115000
v 2.266422 -1.741861 6.115000
v 1.956901 -1.793511 6.115000
v 1.643099 -1.793511 6.115000
v 1.333578 -1.741861 6.115000
v 1.036779 -1.639969 6.115000
v 0.760799 -1.490616 6.115000
v 0.513165 -1.297875 6.115000
v 0.300633 -1.067004 6.115000
v 0.129000 -0.804300 6.115000
v 0.002947 -0.516929 6.115000
v -0.074086 -0.212730 6.115000
v -0.100000 0.100000 6.115000
v -0.074086 0.412730 6.115000
v 0.002947 0.716929 6.115000
v 0.129000 1.004300 6.115000
v 0.300633 1.267004 6.115000
v 0.513165 1.497875 6.115000
v 0.760799 1.690616 6.115000
v 1.036779 1.839969 6.115000
v 1.333578 1.941861 6.115000
v 1.643099 1.993511 6.115000
v 1.956901 1.993511 6.115000
v 2.266422 1.941861 6.115000
v 2.563221 1.839969 6.115000
v 2.839202 1.690616 6.115000
v 3.086835 1.497875 6.115000
v 3.299367 1.267004 6.115000
v 3.471000 1.004300 6.115000
v 3.597053 0.716929 6.115000
v 3.674087 0.412730 6.115000
vt 0.649473 0.229644 0.000000
vt 2.232153 0.348249 0.000000
vt 0.514504 0.412519 0.000000
vt 2.338357 0.549198 0.000000
vt 0.423614 0.620843 0.000000
vt 2.397183 0.768741 0.000000
vt 0.381358 0.844168 0.000000
vt 2.405682 0.995870 0.000000
vt 0.389857 1.071297 0.000000
vt 2.363427 1.219196 0.000000
vt 0.448683 1.290840 0.000000
vt 2.272536 1.427519 0.000000
vt 0.554888 1.491789 0.000000
vt 2.137568 1.610395 0.000000
vt 0.703145 1.664067 0.000000
vt 1.965290 1.758652 0.000000
vt 0.886020 1.799035 0.000000
vt 1.764341 1.864856 0.000000
vt 1.094344 1.889926 0.000000
vt 1.544798 1.923683 0.000000
vt 1.317669 1.932181 0.000000
vt 2.083896 0.175972 0.000000
vt 0.821750 0.081387 0.000000
vt 1.901020 0.041004 0.000000
vt 1.022699 -0.024818 0.000000
vt 1.692697 -0.049887 0.000000
vt 1.242242 -0.083644 0.000000
vt 1.469371 -0.092143 0.000000
vt -0.000000 -2.960951 0.000000
vt -5.000000 -2.960951 0.000000
vt -0.000000 -3.188717 0.000000
vt -5.000000 -3.188717 0.000000
vt -0.000000 3.188717 0.000000
vt -5.000000 3.188717 0.000000
vt -0.000000 2.960951 0.000000
vt -5.000000 2.960951 0.000000
vt -0.000000 2.733186 0.000000
vt -5.000000 2.733186 0.000000
vt -0.000000 2.505420 0.000000
vt -5.000000 2.505420 0.000000
vt -0.000000 2.277655 0.000000
vt -5.000000 2.277655 0.000000
vt -0.000000 2.049889 0.000000
vt -5.000000 2.049889 0.000000
vt -0.000000 1.822124 0.000000
vt -5.000000 1.822124 0.000000
vt -0.000000 1.594358 0.000000
vt -5.000000 1.594358 0.000000
vt -0.000000 1.366593 0.000000
vt -5.000000 1.366593 0.000000
vt -0.000000 1.138827 0.000000
vt -5.000000 1.138827 0.000000
vt -0.000000 0.911062 0.000000
vt -5.000000 0.911062 0.000000
vt -0.000000 0.683296 0.000000
vt -5.000000 0.683296 0.000000
vt -0.000000 0.455531 0.000000
vt -5.000000 0.455531 0.000000
vt -0.000000 0.227765 0.000000
vt -5.000000 0.227765 0.000000
vt -0.000000 0.000000 0.000000
vt -5.000000 0.000000 0.000000
vt -0.000000 -0.227765 0.000000
vt -5.000000 -0.227765 0.000000
vt -0.000000 -0.455531 0.000000
vt -5.000000 -0.455531 0.000000
vt -0.000000 -0.683296 0.000000
vt -5.000000 -0.683296 0.000000
vt -0.000000 -0.911062 0.000000
vt -5.000000 -0.911062 0.000000
vt -0.000000 -1.138827 0.000000
vt -5.000000 -1.138827 0.000000
vt -0.000000 -1.366593 0.000000
vt -5.000000 -1.366593 0.000000
vt -0.000000 -1.594358 0.000000
vt -5.000000 -1.594358 0.000000
vt -0.000000 -1.822124 0.000000
vt -5.000000 -1.822124 0.000000
vt -0.000000 -2.049889 0.000000
vt -5.000000 -2.049889 0.000000
vt -0.000000 -2.277655 0.000000
vt -5.000000 -2.277655 0.000000
vt -0.000000 -2.505420 0.000000
vt -5.000000 -2.505420 0.000000
vt -0.000000 -2.733186 0.000000
vt -5.000000 -2.733186 0.000000
vt 0.852164 0.689805 0.000000
vt 0.575000 0.875000 0.000000
vt 0.875000 0.575000 0.000000
vt -0.575000 0.875000 0.000000
vt 0.875000 -0.575000 0.000000
vt -0.875000 0.575000 0.000000
vt 0.575000 -0.875000 0.000000
vt -0.875000 -0.575000 0.000000
vt -0.575000 -0.875000 0.000000
vt -0.689805 -0.852164 0.000000
vt -0.787132 -0.787132 0.000000
vt -0.852164 -0.689805 0.000000
vt 0.787132 0.787132 0.000000
vt 0.689805 0.852164 0.000000
vt -0.689805 0.852164 0.000000
vt -0.787132 0.787132 0.000000
vt -0.852164 0.689805 0.000000
vt 0.689805 -0.852164 0.000000
vt 0.787132 -0.787132 0.000000
vt 0.852164 -0.689805 0.000000
vt 1.450000 1.800000 0.000000
vt 0.300000 1.800000 0.000000
vt 1.450000 0.000000 0.000000
vt 0.300000 0.000000 0.000000
vt -0.000000 0.235619 0.000000
vt -1.800000 0.235619 0.000000
vt 0.000000 0.117810 0.000000
vt -1.800000 0.117810 0.000000
vt 0.000000 0.000000 0.000000
vt -1.800000 0.000000 0.000000
vt 0.000000 -0.117810 0.000000
vt -1.800000 -0.117810 0.000000
vt -0.000000 -0.235619 0.000000
vt -1.800000 -0.235619 0.000000
vt 1.149064 0.937979 0.000000
vt 1.450000 0.000000 0.000000
vt 1.175000 1.060000 0.000000
vt 1.450000 1.800000 0.000000
vt 1.149064 1.182021 0.000000
vt 1.075739 1.282943 0.000000
vt 0.967705 1.345317 0.000000
vt 0.843641 1.358357 0.000000
vt 0.300000 1.800000 0.000000
vt 0.725000 1.319808 0.000000
vt 0.632295 1.236336 0.000000
vt 0.581556 1.122374 0.000000
vt 0.581556 0.997626 0.000000
vt 0.300000 0.000000 0.000000
vt 0.632295 0.883664 0.000000
vt 0.725000 0.800192 0.000000
vt 0.843641 0.761643 0.000000
vt 0.967705 0.774683 0.000000
vt 1.075739 0.837057 0.000000
vt -0.000000 0.235619 0.000000
vt -1.800000 0.235619 0.000000
vt -0.000000 0.117810 0.000000
vt -1.800000 0.117810 0.000000
vt -0.000000 -0.000000 0.000000
vt -1.800000 -0.000000 0.000000
vt -0.000000 -0.117810 0.000000
vt -1.800000 -0.117810 0.000000
vt -0.000000 -0.235619 0.000000
vt -1.800000 -0.235619 0.000000
vt 0.300000 0.000000 0.000000
vt 1.450000 0.000000 0.000000
vt 0.300000 1.800000 0.000000
vt 1.450000 1.800000 0.000000
vt -0.000000 0.235619 0.000000
vt -1.800000 0.235619 0.000000
vt -0.000000 0.117810 0.000000
vt -1.800000 0.117810 0.000000
vt -0.000000 -0.000000 0.000000
vt -1.800000 -0.000000 0.000000
vt -0.000000 -0.117810 0.000000
vt -1.800000 -0.117810 0.000000
vt -0.000000 -0.235619 0.000000
vt -1.800000 -0.235619 0.000000
vt 0.600936 1.182021 0.000000
vt 0.300000 1.800000 0.000000
vt 0.575000 1.060000 0.000000
vt 0.300000 0.000000 0.000000
vt 0.600936 0.937979 0.000000
vt 0.674261 0.837057 0.000000
vt 0.782295 0.774683 0.000000
vt 0.906359 0.761643 0.000000
vt 1.450000 0.000000 0.000000
vt 1.025000 0.800192 0.000000
vt 1.117705 0.883664 0.000000
vt 1.168444 0.997626 0.000000
vt 1.450000 1.800000 0.000000
vt 1.168444 1.122374 0.000000
vt 1.117705 1.236336 0.000000
vt 1.025000 1.319808 0.000000
vt 0.906359 1.358357 0.000000
vt 0.782295 1.345317 0.000000
vt 0.674261 1.282943 0.000000
vt -0.000000 0.235619 0.000000
vt -1.800000 0.235619 0.000000
vt -0.000000 0.117810 0.000000
vt -1.800000 0.117810 0.000000
vt -0.000000 -0.000000 0.000000
vt -1.800000 -0.000000 0.000000
vt -0.000000 -0.117810 0.000000
vt -1.800000 -0.117810 0.000000
vt -0.000000 -0.235619 0.000000
vt -1.800000 -0.235619 0.000000
vt 1.750000 -0.816814 0.000000
vt 0.000000 -0.816814 0.000000
vt 1.750000 -0.942478 0.000000
vt 0.000000 -0.942478 0.000000
vt 1.750000 0.942478 0.000000
vt 0.000000 0.942478 0.000000
vt 1.750000 0.816814 0.000000
vt 0.000000 0.816814 0.000000
vt 1.750000 0.691150 0.000000
vt 0.000000 0.691150 0.000000
vt 1.750000 0.565487 0.000000
vt 0.000000 0.565487 0.000000
vt 1.750000 0.439823 0.000000
vt 0.000000 0.439823 0.000000
vt 1.750000 0.314159 0.000000
vt 0.000000 0.314159 0.000000
vt 1.750000 0.188496 0.000000
vt 0.000000 0.188496 0.000000
vt 1.750000 0.062832 0.000000
vt 0.000000 0.062832 0.000000
vt 1.750000 -0.062832 0.000000
vt 0.000000 -0.062832 0.000000
vt 1.750000 -0.188496 0.000000
vt 0.000000 -0.188496 0.000000
vt 1.750000 -0.314159 0.000000
vt 0.000000 -0.314159 0.000000
vt 1.750000 -0.439823 0.000000
vt 0.000000 -0.439823 0.000000
vt 1.750000 -0.565487 0.000000
vt 0.000000 -0.565487 0.000000
vt 1.750000 -0.691150 0.000000
vt 0.000000 -0.691150 0.000000
vt -2.200000 -1.422401 0.000000
vt -0.000000 -1.422401 0.000000
vt -2.200000 -1.260496 0.000000
vt -0.000000 -1.244601 0.000000
vt -2.200000 -1.098591 0.000000
vt -0.000000 -1.066801 0.000000
vt -2.200000 -0.936685 0.000000
vt -0.000000 -0.889001 0.000000
vt -2.200000 -0.774780 0.000000
vt -0.000000 -0.711200 0.000000
vt -2.200000 -0.612875 0.000000
vt -0.000000 -0.533400 0.000000
vt -2.200000 -0.450970 0.000000
vt -0.000000 -0.355600 0.000000
vt -2.200000 -0.289065 0.000000
vt -0.000000 -0.177800 0.000000
vt -2.200000 -0.127160 0.000000
vt -0.000000 0.000000 0.000000
vt -12.600000 -0.000000 0.000000
vt -12.600000 -0.127160 0.000000
vt 0.000000 -2.400000 0.000000
vt 12.600000 -2.400000 0.000000
vt 0.000000 0.000000 0.000000
vt 12.600000 0.000000 0.000000
vt -12.600000 -0.000000 0.000000
vt -0.000000 0.000000 0.000000
vt -2.200000 0.127163 0.000000
vt -0.000000 0.177804 0.000000
vt -2.200000 0.289071 0.000000
vt -0.000000 0.355608 0.000000
vt -2.200000 0.450980 0.000000
vt -0.000000 0.533412 0.000000
vt -2.200000 0.612889 0.000000
vt -0.000000 0.711216 0.000000
vt -2.200000 0.774797 0.000000
vt -0.000000 0.889020 0.000000
vt -2.200000 0.936706 0.000000
vt -0.000000 1.066824 0.000000
vt -2.200000 1.098615 0.000000
vt -0.000000 1.244628 0.000000
vt -2.200000 1.260523 0.000000
vt -0.000000 1.422432 0.000000
vt -2.200000 1.422432 0.000000
vt -12.600000 0.127163 0.000000
vt 0.000000 4.500000 0.000000
vt -2.200000 4.500000 0.000000
vt 0.000000 0.000000 0.000000
vt -2.200000 0.000000 0.000000
vt -2.200000 -2.844802 0.000000
vt -0.000000 -2.844802 0.000000
vt -2.200000 -2.667002 0.000000
vt -0.000000 -2.667002 0.000000
vt -0.000000 -2.489202 0.000000
vt -2.200000 -2.489202 0.000000
vt -0.000000 -2.311402 0.000000
vt -2.200000 -2.311402 0.000000
vt -2.200000 -2.133601 0.000000
vt -0.000000 -2.133601 0.000000
vt -0.000000 -1.955801 0.000000
vt -2.200000 -1.955801 0.000000
vt -0.000000 -1.778001 0.000000
vt -2.200000 -1.778001 0.000000
vt -2.200000 -1.600201 0.000000
vt -0.000000 -1.600201 0.000000
vt -0.000000 -1.422401 0.000000
vt -2.200000 -1.422401 0.000000
vt -0.000000 -1.244601 0.000000
vt -2.200000 -1.244601 0.000000
vt -2.200000 -1.066801 0.000000
vt -0.000000 -1.066801 0.000000
vt -0.000000 -0.889001 0.000000
vt -2.200000 -0.889001 0.000000
vt -0.000000 -0.711200 0.000000
vt -2.200000 -0.711200 0.000000
vt -2.200000 -0.533400 0.000000
vt -0.000000 -0.533400 0.000000
vt -0.000000 -0.355600 0.000000
vt -2.200000 -0.355600 0.000000
vt -0.000000 -0.177800 0.000000
vt -2.200000 -0.177800 0.000000
vt -2.200000 0.000000 0.000000
vt -0.000000 0.000000 0.000000
vt 0.000000 0.800000 0.000000
vt -2.200000 0.800000 0.000000
vt 0.000000 -0.000000 0.000000
vt -2.200000 0.000000 0.000000
vt -2.200000 0.000000 0.000000
vt -0.000000 -0.000000 0.000000
vt -2.200000 0.177804 0.000000
vt -0.000000 0.177804 0.000000
vt -0.000000 0.355608 0.000000
vt -2.200000 0.355608 0.000000
vt -0.000000 0.533412 0.000000
vt -2.200000 0.533412 0.000000
vt -2.200000 0.711216 0.000000
vt -0.000000 0.711216 0.000000
vt -0.000000 0.889020 0.000000
vt -2.200000 0.889020 0.000000
vt -0.000000 1.066824 0.000000
vt -2.200000 1.066824 0.000000
vt -2.200000 1.244628 0.000000
vt -0.000000 1.244628 0.000000
vt -0.000000 1.422432 0.000000
vt -2.200000 1.422432 0.000000
vt -0.000000 1.600236 0.000000
vt -2.200000 1.600236 0.000000
vt -2.200000 1.778040 0.000000
vt -0.000000 1.778040 0.000000
vt -0.000000 1.955844 0.000000
vt -2.200000 1.955844 0.000000
vt -0.000000 2.133648 0.000000
vt -2.200000 2.133648 0.000000
vt -2.200000 2.311452 0.000000
vt -0.000000 2.311452 0.000000
vt -0.000000 2.489256 0.000000
vt -2.200000 2.489256 0.000000
vt -0.000000 2.667060 0.000000
vt -2.200000 2.667060 0.000000
vt -2.200000 2.844864 0.000000
vt -0.000000 2.844864 0.000000
vt 0.000000 -4.500000 0.000000
vt 2.200000 -4.500000 0.000000
vt 0.000000 0.000000 0.000000
vt 2.200000 0.000000 0.000000
vt 3.730785 1.356072 0.000000
vt 2.464805 0.752164 0.000000
vt 3.750000 1.200000 0.000000
vt 2.562132 0.687132 0.000000
vt 2.627164 0.589805 0.000000
vt 2.350000 0.775000 0.000000
vt 3.673880 1.506147 0.000000
vt 3.581470 1.644456 0.000000
vt 2.750000 2.000000 0.000000
vt 3.457107 1.765685 0.000000
vt 3.305570 1.865176 0.000000
vt 3.132683 1.939104 0.000000
vt 2.945090 1.984628 0.000000
vt 1.200000 0.775000 0.000000
vt -1.750000 2.000000 0.000000
vt 1.085195 0.752164 0.000000
vt 0.987868 0.687132 0.000000
vt 0.922836 0.589805 0.000000
vt -3.412939 1.288912 0.000000
vt -3.513843 1.154235 0.000000
vt -1.946034 1.992296 0.000000
vt -2.140181 1.969256 0.000000
vt -2.330569 1.931105 0.000000
vt -2.515367 1.878207 0.000000
vt -2.692793 1.811074 0.000000
vt -2.861140 1.730351 0.000000
vt -3.018787 1.636817 0.000000
vt -3.164214 1.531371 0.000000
vt -3.296021 1.415029 0.000000
vt -3.597759 1.012293 0.000000
vt 0.900000 0.475000 0.000000
vt -3.663881 0.864455 0.000000
vt -3.711571 0.712145 0.000000
vt -3.740369 0.556827 0.000000
vt -3.750000 0.400000 0.000000
vt -3.750000 -0.400000 0.000000
vt 0.900000 -0.675000 0.000000
vt -3.740369 -0.556827 0.000000
vt -3.711571 -0.712145 0.000000
vt -3.663881 -0.864455 0.000000
vt -3.597759 -1.012293 0.000000
vt -3.513843 -1.154235 0.000000
vt -3.412939 -1.288912 0.000000
vt -3.296021 -1.415029 0.000000
vt -1.750000 -2.000000 0.000000
vt -3.164214 -1.531371 0.000000
vt -3.018787 -1.636817 0.000000
vt -2.861140 -1.730351 0.000000
vt -2.692793 -1.811074 0.000000
vt -2.515367 -1.878207 0.000000
vt -2.330569 -1.931105 0.000000
vt -2.140181 -1.969256 0.000000
vt -1.946034 -1.992296 0.000000
vt 2.750000 -2.000000 0.000000
vt 1.200000 -0.975000 0.000000
vt 1.085195 -0.952164 0.000000
vt 0.987868 -0.887132 0.000000
vt 2.350000 -0.975000 0.000000
vt 2.945090 -1.984628 0.000000
vt 3.132683 -1.939104 0.000000
vt 3.305570 -1.865176 0.000000
vt 3.457107 -1.765685 0.000000
vt 3.581470 -1.644456 0.000000
vt 2.464805 -0.952164 0.000000
vt 3.673880 -1.506147 0.000000
vt 3.730785 -1.356072 0.000000
vt 3.750000 -1.200000 0.000000
vt 2.562132 -0.887132 0.000000
vt 2.627164 -0.789805 0.000000
vt 2.650000 -0.675000 0.000000
vt 2.650000 0.475000 0.000000
vt 0.922836 -0.789805 0.000000
vt 3.674087 -0.312730 0.000000
vt 3.750000 -0.400000 0.000000
vt 3.700000 0.000000 0.000000
vt 3.750000 0.400000 0.000000
vt 3.674087 0.312730 0.000000
vt 3.597053 0.616929 0.000000
vt 3.740369 0.556827 0.000000
vt 3.711571 0.712145 0.000000
vt 3.597053 -0.616929 0.000000
vt 3.740369 -0.556827 0.000000
vt 3.711571 -0.712145 0.000000
vt 3.471000 -0.904300 0.000000
vt 3.663881 -0.864455 0.000000
vt 3.597759 -1.012293 0.000000
vt 3.299367 -1.167004 0.000000
vt 3.513843 -1.154235 0.000000
vt 3.412939 -1.288912 0.000000
vt 3.086835 -1.397875 0.000000
vt 3.296021 -1.415029 0.000000
vt 3.164214 -1.531371 0.000000
vt 2.839202 -1.590616 0.000000
vt 3.018787 -1.636817 0.000000
vt 2.861140 -1.730351 0.000000
vt 2.563221 -1.739969 0.000000
vt 2.692793 -1.811074 0.000000
vt 2.515367 -1.878207 0.000000
vt 2.266422 -1.841861 0.000000
vt 2.330569 -1.931105 0.000000
vt 2.140181 -1.969256 0.000000
vt 1.956901 -1.893511 0.000000
vt 1.946034 -1.992296 0.000000
vt 1.750000 -2.000000 0.000000
vt 1.643099 -1.893511 0.000000
vt 1.333578 -1.841861 0.000000
vt -2.750000 -2.000000 0.000000
vt 1.036779 -1.739969 0.000000
vt -1.495002 -1.428166 0.000000
vt 0.760799 -1.590616 0.000000
vt -1.247427 -1.363301 0.000000
vt 0.513165 -1.397875 0.000000
vt -1.014482 -1.257293 0.000000
vt -0.802950 -1.113227 0.000000
vt 0.300633 -1.167004 0.000000
vt -0.618988 -0.935298 0.000000
vt 0.129000 -0.904300 0.000000
vt -0.467951 -0.728685 0.000000
vt 0.002947 -0.616929 0.000000
vt -0.354237 -0.499404 0.000000
vt -0.074086 -0.312730 0.000000
vt -0.281155 -0.254129 0.000000
vt -0.100000 0.000000 0.000000
vt -0.250834 0.000000 0.000000
vt -0.281155 0.254129 0.000000
vt -0.074086 0.312730 0.000000
vt -0.354237 0.499404 0.000000
vt 0.002947 0.616929 0.000000
vt -0.467951 0.728685 0.000000
vt 0.129000 0.904300 0.000000
vt -0.618988 0.935298 0.000000
vt 0.300633 1.167004 0.000000
vt -0.802950 1.113227 0.000000
vt 0.513165 1.397875 0.000000
vt -1.014482 1.257293 0.000000
vt -1.247427 1.363301 0.000000
vt 0.760799 1.590616 0.000000
vt -1.495002 1.428166 0.000000
vt 1.036779 1.739969 0.000000
vt -2.750000 2.000000 0.000000
vt 1.333578 1.841861 0.000000
vt 1.750000 2.000000 0.000000
vt 1.643099 1.893511 0.000000
vt 1.956901 1.893511 0.000000
vt 2.266422 1.841861 0.000000
vt 2.140181 1.969256 0.000000
vt 1.946034 1.992296 0.000000
vt 2.563221 1.739969 0.000000
vt 2.515367 1.878207 0.000000
vt 2.330569 1.931105 0.000000
vt 2.839202 1.590616 0.000000
vt 2.861140 1.730351 0.000000
vt 2.692793 1.811074 0.000000
vt 3.086835 1.397875 0.000000
vt 3.164214 1.531371 0.000000
vt 3.018787 1.636817 0.000000
vt 3.299367 1.167004 0.000000
vt 3.412939 1.288912 0.000000
vt 3.296021 1.415029 0.000000
vt 3.471000 0.904300 0.000000
vt 3.597759 1.012293 0.000000
vt 3.513843 1.154235 0.000000
vt 3.663881 0.864455 0.000000
vt -3.740156 1.311972 0.000000
vt -3.698550 1.383914 0.000000
vt -3.699480 1.451063 0.000000
vt -3.631293 1.432733 0.000000
vt -3.550000 1.450000 0.000000
vt -1.750000 1.450000 0.000000
vt -3.261035 1.887648 0.000000
vt -3.405757 1.803977 0.000000
vt -3.529572 1.701051 0.000000
vt -2.927845 1.987247 0.000000
vt -3.100020 1.949394 0.000000
vt -1.750000 -1.450000 0.000000
vt -2.927845 -1.987247 0.000000
vt -3.100020 -1.949394 0.000000
vt -3.261035 -1.887648 0.000000
vt -3.550000 -1.450000 0.000000
vt -3.405757 -1.803977 0.000000
vt -3.529572 -1.701051 0.000000
vt -3.628531 -1.582149 0.000000
vt -3.699480 -1.451063 0.000000
vt -3.631293 -1.432733 0.000000
vt -3.698550 -1.383914 0.000000
vt -3.740156 -1.311972 0.000000
vt -3.628531 1.582149 0.000000
vt -1.323135 0.325859 0.000000
vt -1.719262 0.254129 0.000000
vt -1.348583 0.100000 0.000000
vt -1.749583 0.000000 0.000000
vt -1.323135 -0.125859 0.000000
vt -1.719262 -0.254129 0.000000
vt -1.248067 -0.340392 0.000000
vt -1.646180 -0.499404 0.000000
vt -1.127142 -0.532842 0.000000
vt -1.532466 -0.728685 0.000000
vt -1.381429 -0.935298 0.000000
vt -1.646180 0.499404 0.000000
vt -1.248067 0.540392 0.000000
vt -1.532466 0.728685 0.000000
vt -1.127142 0.732842 0.000000
vt -1.381429 0.935298 0.000000
vt -0.966425 0.893559 0.000000
vt -1.197467 1.113227 0.000000
vt -0.985934 1.257293 0.000000
vt -0.773975 1.014483 0.000000
vt -0.752990 1.363301 0.000000
vt -0.559442 1.089552 0.000000
vt -0.505415 1.428166 0.000000
vt -0.333583 1.115000 0.000000
vt -0.250417 1.450000 0.000000
vt -0.107724 1.089552 0.000000
vt 0.106809 1.014483 0.000000
vt 1.549583 1.450000 0.000000
vt 0.299259 0.893559 0.000000
vt 0.459976 0.732842 0.000000
vt 1.749583 1.200000 0.000000
vt 0.580900 0.540392 0.000000
vt 0.655969 0.325859 0.000000
vt 0.681417 0.100000 0.000000
vt 1.749583 -1.200000 0.000000
vt 0.655969 -0.125859 0.000000
vt 0.580900 -0.340392 0.000000
vt 0.459976 -0.532842 0.000000
vt 1.549583 -1.450000 0.000000
vt 1.739740 -1.311972 0.000000
vt 1.698133 -1.383914 0.000000
vt 1.630877 -1.432733 0.000000
vt 0.299259 -0.693559 0.000000
vt 0.106809 -0.814483 0.000000
vt -0.250417 -1.450000 0.000000
vt -0.107724 -0.889552 0.000000
vt -0.333583 -0.915000 0.000000
vt -0.505415 -1.428166 0.000000
vt -0.559442 -0.889552 0.000000
vt -0.752990 -1.363301 0.000000
vt -0.985934 -1.257293 0.000000
vt -0.773975 -0.814483 0.000000
vt -1.197467 -1.113227 0.000000
vt -0.966425 -0.693559 0.000000
vt 1.739740 1.311972 0.000000
vt 1.698133 1.383914 0.000000
vt 1.630877 1.432733 0.000000
vt -0.000000 0.146726 0.000000
vt -1.733333 0.146726 0.000000
vt -0.000000 0.063009 0.000000
vt -3.466667 0.146726 0.000000
vt -5.200000 0.146726 0.000000
vt -5.200000 0.230443 0.000000
vt -6.933333 0.230443 0.000000
vt -10.400000 0.314159 0.000000
vt -8.666667 0.230443 0.000000
vt -10.400000 0.230443 0.000000
vt -8.666667 0.146726 0.000000
vt -10.400000 0.146726 0.000000
vt -10.400000 0.063009 0.000000
vt -1.733333 0.230443 0.000000
vt -0.000000 0.230443 0.000000
vt -0.000000 0.314159 0.000000
vt -3.466667 0.230443 0.000000
vt -6.933333 0.146726 0.000000
vt 0.000000 0.000000 0.000000
vt 1.800000 0.000000 0.000000
vt 0.000000 10.400000 0.000000
vt 1.800000 10.400000 0.000000
vt -10.400000 -0.000000 0.000000
vt -0.000000 0.000000 0.000000
vt -5.200000 0.256243 0.000000
vt -0.000000 0.256243 0.000000
vt -5.200000 0.512486 0.000000
vt -0.000000 0.512486 0.000000
vt -5.200000 0.768728 0.000000
vt -0.000000 0.768728 0.000000
vt -5.200000 1.024971 0.000000
vt -0.000000 1.024971 0.000000
vt -5.200000 1.281214 0.000000
vt -0.000000 1.281214 0.000000
vt -5.200000 1.537457 0.000000
vt -0.000000 1.537457 0.000000
vt -5.200000 1.793700 0.000000
vt -0.000000 1.793700 0.000000
vt -5.200000 2.049942 0.000000
vt -0.000000 2.049942 0.000000
vt -0.000000 2.306185 0.000000
vt -10.400000 2.306185 0.000000
vt -10.400000 2.049942 0.000000
vt -10.400000 1.793700 0.000000
vt -10.400000 1.537457 0.000000
vt -10.400000 1.281214 0.000000
vt -10.400000 1.024971 0.000000
vt -10.400000 0.768728 0.000000
vt -10.400000 0.512486 0.000000
vt -10.400000 0.256243 0.000000
vt -10.400000 0.050009 0.000000
vt -0.000000 0.050009 0.000000
vt -5.200000 0.306252 0.000000
vt -0.000000 0.306252 0.000000
vt -5.200000 0.562495 0.000000
vt -0.000000 0.562495 0.000000
vt -5.200000 0.818738 0.000000
vt -0.000000 0.818738 0.000000
vt -5.200000 1.074980 0.000000
vt -0.000000 1.074980 0.000000
vt -5.200000 1.331223 0.000000
vt -0.000000 1.331223 0.000000
vt -5.200000 1.587466 0.000000
vt -0.000000 1.587466 0.000000
vt -5.200000 1.843709 0.000000
vt -0.000000 1.843709 0.000000
vt -5.200000 2.099952 0.000000
vt -0.000000 2.099952 0.000000
vt -0.000000 2.356194 0.000000
vt -10.400000 2.356194 0.000000
vt -10.400000 2.099952 0.000000
vt -10.400000 1.843709 0.000000
vt -10.400000 1.587466 0.000000
vt -10.400000 1.331223 0.000000
vt -10.400000 1.074980 0.000000
vt -10.400000 0.818738 0.000000
vt -10.400000 0.562495 0.000000
vt -10.400000 0.306252 0.000000
vt -0.000000 0.000000 0.000000
vt 1.800000 0.000000 0.000000
vt -0.000000 10.400000 0.000000
vt 1.800000 10.400000 0.000000
vt -0.000000 0.083717 0.000000
vt -1.733333 0.083717 0.000000
vt -0.000000 0.000000 0.000000
vt -3.466667 0.083717 0.000000
vt -5.200000 0.083717 0.000000
vt -5.200000 0.167433 0.000000
vt -6.933333 0.167433 0.000000
vt -10.400000 0.251150 0.000000
vt -8.666667 0.167433 0.000000
vt -10.400000 0.167433 0.000000
vt -8.666667 0.083717 0.000000
vt -10.400000 0.083717 0.000000
vt -10.400000 -0.000000 0.000000
vt -1.733333 0.167433 0.000000
vt -0.000000 0.167433 0.000000
vt -0.000000 0.251150 0.000000
vt -3.466667 0.167433 0.000000
vt -6.933333 0.083717 0.000000
vt -1.874086 -0.312730 0.000000
vt 1.874086 -0.312730 0.000000
vt -1.900000 -0.000000 0.000000
vt 1.900000 0.000000 0.000000
vt -1.874086 0.312730 0.000000
vt 1.874086 0.312730 0.000000
vt -1.797053 0.616929 0.000000
vt 1.797053 0.616929 0.000000
vt -1.671000 0.904300 0.000000
vt 1.671000 0.904300 0.000000
vt -1.499367 1.167004 0.000000
vt 1.499367 1.167004 0.000000
vt -1.286835 1.397875 0.000000
vt 1.286835 1.397875 0.000000
vt -1.039202 1.590616 0.000000
vt 1.039202 1.590616 0.000000
vt -0.763221 1.739969 0.000000
vt 0.763221 1.739969 0.000000
vt -0.466422 1.841861 0.000000
vt 0.466422 1.841861 0.000000
vt -0.156901 1.893511 0.000000
vt 0.156901 1.893511 0.000000
vt 1.797053 -0.616929 0.000000
vt -1.797053 -0.616929 0.000000
vt 1.671000 -0.904300 0.000000
vt -1.671000 -0.904300 0.000000
vt 1.499367 -1.167004 0.000000
vt -1.499367 -1.167004 0.000000
vt 1.286835 -1.397875 0.000000
vt -1.286835 -1.397875 0.000000
vt 1.039202 -1.590616 0.000000
vt -1.039202 -1.590616 0.000000
vt 0.763221 -1.739969 0.000000
vt -0.763221 -1.739969 0.000000
vt 0.466422 -1.841861 0.000000
vt -0.466422 -1.841861 0.000000
vt 0.156901 -1.893511 0.000000
vt -0.156901 -1.893511 0.000000
vt -7.830000 5.654867 0.000000
vt -3.915000 5.654867 0.000000
vt -7.830000 5.969026 0.000000
vt -3.915000 5.969026 0.000000
vt -7.830000 -5.969026 0.000000
vt -3.915000 -5.969026 0.000000
vt -7.830000 -5.654867 0.000000
vt -3.915000 -5.654867 0.000000
vt -7.830000 -5.340708 0.000000
vt -3.915000 -5.340708 0.000000
vt -7.830000 -5.026548 0.000000
vt -3.915000 -5.026548 0.000000
vt -7.830000 -4.712389 0.000000
vt -3.915000 -4.712389 0.000000
vt -7.830000 -4.398230 0.000000
vt -3.915000 -4.398230 0.000000
vt -7.830000 -4.084070 0.000000
vt -3.915000 -4.084070 0.000000
vt -7.830000 -3.769911 0.000000
vt -3.915000 -3.769911 0.000000
vt -7.830000 -3.455752 0.000000
vt -3.915000 -3.455752 0.000000
vt -7.830000 -3.141593 0.000000
vt -3.915000 -3.141593 0.000000
vt -7.830000 -2.827433 0.000000
vt -3.915000 -2.827433 0.000000
vt -7.830000 -2.513274 0.000000
vt -3.915000 -2.513274 0.000000
vt -7.830000 -2.199115 0.000000
vt -3.915000 -2.199115 0.000000
vt -7.830000 -1.884956 0.000000
vt -3.915000 -1.884956 0.000000
vt -7.830000 -1.570796 0.000000
vt -3.915000 -1.570796 0.000000
vt -7.830000 -1.256637 0.000000
vt -3.915000 -1.256637 0.000000
vt -7.830000 -0.942478 0.000000
vt -3.915000 -0.942478 0.000000
vt -7.830000 -0.628319 0.000000
vt -3.915000 -0.628319 0.000000
vt -7.830000 -0.314159 0.000000
vt -3.915000 -0.314159 0.000000
vt -7.830000 0.000000 0.000000
vt -3.915000 0.000000 0.000000
vt -7.830000 0.314159 0.000000
vt -3.915000 0.314159 0.000000
vt -7.830000 0.628319 0.000000
vt -3.915000 0.628319 0.000000
vt -7.830000 0.942478 0.000000
vt -3.915000 0.942478 0.000000
vt -7.830000 1.256637 0.000000
vt -3.915000 1.256637 0.000000
vt -7.830000 1.570796 0.000000
vt -3.915000 1.570796 0.000000
vt -7.830000 1.884956 0.000000
vt -3.915000 1.884956 0.000000
vt -7.830000 2.199115 0.000000
vt -3.915000 2.199115 0.000000
vt -7.830000 2.513274 0.000000
vt -3.915000 2.513274 0.000000
vt -7.830000 2.827433 0.000000
vt -3.915000 2.827433 0.000000
vt -7.830000 3.141593 0.000000
vt -3.915000 3.141593 0.000000
vt -7.830000 3.455752 0.000000
vt -3.915000 3.455752 0.000000
vt -7.830000 3.769911 0.000000
vt -3.915000 3.769911 0.000000
vt -7.830000 4.084070 0.000000
vt -3.915000 4.084070 0.000000
vt -7.830000 4.398230 0.000000
vt -3.915000 4.398230 0.000000
vt -7.830000 4.712389 0.000000
vt -3.915000 4.712389 0.000000
vt -7.830000 5.026548 0.000000
vt -3.915000 5.026548 0.000000
vt -7.830000 5.340708 0.000000
vt -3.915000 5.340708 0.000000
vt -0.000000 -5.654867 0.000000
vt -0.000000 -5.969026 0.000000
vt -0.000000 5.969026 0.000000
vt -0.000000 5.654867 0.000000
vt -0.000000 5.340708 0.000000
vt -0.000000 5.026548 0.000000
vt -0.000000 4.712389 0.000000
vt -0.000000 4.398230 0.000000
vt -0.000000 4.084070 0.000000
vt -0.000000 3.769911 0.000000
vt -0.000000 3.455752 0.000000
vt -0.000000 3.141593 0.000000
vt -0.000000 2.827433 0.000000
vt -0.000000 2.513274 0.000000
vt -0.000000 2.199115 0.000000
vt -0.000000 1.884956 0.000000
vt -0.000000 1.570796 0.000000
vt -0.000000 1.256637 0.000000
vt -0.000000 0.942478 0.000000
vt -0.000000 0.628319 0.000000
vt -0.000000 0.314159 0.000000
vt -0.000000 0.000000 0.000000
vt -0.000000 -0.314159 0.000000
vt -0.000000 -0.628319 0.000000
vt -0.000000 -0.942478 0.000000
vt -0.000000 -1.256637 0.000000
vt -0.000000 -1.570796 0.000000
vt -0.000000 -1.884956 0.000000
vt -0.000000 -2.199115 0.000000
vt -0.000000 -2.513274 0.000000
vt -0.000000 -2.827433 0.000000
vt -0.000000 -3.141593 0.000000
vt -0.000000 -3.455752 0.000000
vt -0.000000 -3.769911 0.000000
vt -0.000000 -4.084070 0.000000
vt -0.000000 -4.398230 0.000000
vt -0.000000 -4.712389 0.000000
vt -0.000000 -5.026548 0.000000
vt -0.000000 -5.340708 0.000000
vn -0.000000 -0.000000 1.000000
vn -0.000000 -0.000000 1.000000
vn -0.000000 -0.000000 1.000000
vn -0.000000 -0.000000 1.000000
vn -0.000000 -0.000000 1.000000
vn -0.000000 -0.000000 1.000000
vn -0.000000 -0.000000 1.000000
vn -0.000000 -0.000000 1.000000
vn -0.000000 -0.000000 1.000000
vn -0.000000 -0.000000 1.000000
vn -0.000000 -0.000000 1.000000
vn -0.000000 -0.000000 1.000000
vn -0.000000 -0.000000 1.000000
vn -0.000000 -0.000000 1.000000
vn -0.000000 -0.000000 1.000000
vn -0.000000 -0.000000 1.000000
vn -0.000000 -0.000000 1.000000
vn -0.000000 -0.000000 1.000000
vn -0.000000 -0.000000 1.000000
vn -0.000000 -0.000000 1.000000
vn -0.000000 -0.000000 1.000000
vn -0.000000 -0.000000 1.000000
vn -0.000000 -0.000000 1.000000
vn -0.000000 -0.000000 1.000000
vn -0.000000 -0.000000 1.000000
vn -0.000000 -0.000000 1.000000
vn -0.000000 -0.000000 1.000000
vn -0.000000 -0.000000 1.000000
vn -0.974928 -0.222521 -0.000000
vn -0.974928 -0.222521 -0.000000
vn -1.000000 -0.000000 -0.000000
vn -1.000000 -0.000000 -0.000000
vn -0.974928 0.222521 -0.000000
vn -0.974928 0.222521 -0.000000
vn -0.900969 0.433884 -0.000000
vn -0.900969 0.433884 -0.000000
vn -0.781831 0.623490 -0.000000
vn -0.781831 0.623490 -0.000000
vn -0.623490 0.781831 0.000000
vn -0.623490 0.781831 0.000000
vn -0.433884 0.900969 0.000000
vn -0.433884 0.900969 0.000000
vn -0.222521 0.974928 0.000000
vn -0.222521 0.974928 0.000000
vn 0.000000 1.000000 0.000000
vn -0.000000 1.000000 0.000000
vn 0.222521 0.974928 0.000000
vn 0.222521 0.974928 0.000000
vn 0.433884 0.900969 0.000000
vn 0.433884 0.900969 0.000000
vn 0.623490 0.781831 0.000000
vn 0.623490 0.781831 0.000000
vn 0.781831 0.623490 0.000000
vn 0.781831 0.623490 0.000000
vn 0.900969 0.433884 0.000000
vn 0.900969 0.433884 0.000000
vn 0.974928 0.222521 0.000000
vn 0.974928 0.222521 0.000000
vn 1.000000 0.000000 0.000000
vn 1.000000 0.000000 0.000000
vn 0.974928 -0.222521 0.000000
vn 0.974928 -0.222521 0.000000
vn 0.900969 -0.433884 0.000000
vn 0.900969 -0.433884 0.000000
vn 0.781831 -0.623490 0.000000
vn 0.781831 -0.623490 0.000000
vn 0.623490 -0.781831 -0.000000
vn 0.623490 -0.781831 -0.000000
vn 0.433884 -0.900969 -0.000000
vn 0.433884 -0.900969 -0.000000
vn 0.222521 -0.974928 -0.000000
vn 0.222521 -0.974928 -0.000000
vn -0.000000 -1.000000 -0.000000
vn -0.000000 -1.000000 -0.000000
vn -0.222521 -0.974928 -0.000000
vn -0.222521 -0.974928 -0.000000
vn -0.433884 -0.900969 -0.000000
vn -0.433884 -0.900969 -0.000000
vn -0.623490 -0.781831 -0.000000
vn -0.623490 -0.781831 -0.000000
vn -0.781831 -0.623490 -0.000000
vn -0.781831 -0.623490 -0.000000
vn -0.900969 -0.433884 -0.000000
vn -0.900969 -0.433884 -0.000000
vn 0.000000 0.000000 -1.000000
vn 0.000000 0.000000 -1.000000
vn 0.000000 0.000000 -1.000000
vn 0.000000 0.000000 -1.000000
vn 0.000000 0.000000 -1.000000
vn 0.000000 0.000000 -1.000000
vn 0.000000 0.000000 -1.000000
vn 0.000000 0.000000 -1.000000
vn 0.000000 0.000000 -1.000000
vn 0.000000 0.000000 -1.000000
vn 0.000000 0.000000 -1.000000
vn 0.000000 0.000000 -1.000000
vn 0.000000 0.000000 -1.000000
vn 0.000000 0.000000 -1.000000
vn 0.000000 0.000000 -1.000000
vn 0.000000 0.000000 -1.000000
vn 0.000000 0.000000 -1.000000
vn 0.000000 0.000000 -1.000000
vn 0.000000 0.000000 -1.000000
vn 0.000000 0.000000 -1.000000
vn -1.000000 0.000000 0.000000
vn -1.000000 0.000000 0.000000
vn -1.000000 0.000000 0.000000
vn -1.000000 0.000000 0.000000
vn -0.923880 -0.382683 -0.000000
vn -0.923880 -0.382683 -0.000000
vn -0.707107 -0.707107 -0.000000
vn -0.707107 -0.707107 -0.000000
vn -0.382683 -0.923880 -0.000000
vn -0.382683 -0.923880 -0.000000
vn -0.000000 -1.000000 -0.000000
vn -0.000000 -1.000000 -0.000000
vn -0.000000 -1.000000 -0.000000
vn -0.000000 -1.000000 -0.000000
vn -0.000000 -1.000000 -0.000000
vn -0.000000 -1.000000 -0.000000
vn -0.000000 -1.000000 -0.000000
vn -0.000000 -1.000000 -0.000000
vn -0.000000 -1.000000 -0.000000
vn -0.000000 -1.000000 -0.000000
vn -0.000000 -1.000000 -0.000000
vn -0.000000 -1.000000 -0.000000
vn -0.000000 -1.000000 -0.000000
vn -0.000000 -1.000000 -0.000000
vn -0.000000 -1.000000 -0.000000
vn -0.000000 -1.000000 -0.000000
vn -0.000000 -1.000000 -0.000000
vn -0.000000 -1.000000 -0.000000
vn -0.000000 -1.000000 -0.000000
vn 0.382683 -0.923880 -0.000000
vn 0.382683 -0.923880 -0.000000
vn 0.707107 -0.707107 -0.000000
vn 0.707107 -0.707107 -0.000000
vn 0.923880 -0.382683 -0.000000
vn 0.923880 -0.382683 -0.000000
vn 1.000000 -0.000000 -0.000000
vn 1.000000 -0.000000 -0.000000
vn 1.000000 0.000000 0.000000
vn 1.000000 0.000000 0.000000
vn 0.923880 0.382683 0.000000
vn 0.923880 0.382683 0.000000
vn 0.707107 0.707107 0.000000
vn 0.707107 0.707107 0.000000
vn 0.382683 0.923880 0.000000
vn 0.382683 0.923880 0.000000
vn -0.000000 1.000000 -0.000000
vn -0.000000 1.000000 -0.000000
vn -0.000000 1.000000 0.000000
vn -0.000000 1.000000 0.000000
vn -0.000000 1.000000 0.000000
vn -0.000000 1.000000 0.000000
vn -0.000000 1.000000 0.000000
vn -0.000000 1.000000 0.000000
vn -0.000000 1.000000 0.000000
vn -0.000000 1.000000 0.000000
vn -0.000000 1.000000 0.000000
vn -0.000000 1.000000 0.000000
vn -0.000000 1.000000 0.000000
vn -0.000000 1.000000 0.000000
vn -0.000000 1.000000 0.000000
vn -0.000000 1.000000 0.000000
vn -0.000000 1.000000 0.000000
vn -0.000000 1.000000 0.000000
vn -0.000000 1.000000 0.000000
vn -0.382683 0.923880 -0.000000
vn -0.382683 0.923880 -0.000000
vn -0.707107 0.707107 -0.000000
vn -0.707107 0.707107 -0.000000
vn -0.923880 0.382683 -0.000000
vn -0.923880 0.382683 -0.000000
vn 0.913545 0.000000 -0.406737
vn 0.913545 0.000000 -0.406737
vn 1.000000 0.000000 -0.000000
vn 1.000000 0.000000 -0.000000
vn 0.913545 -0.000000 0.406737
vn 0.913545 -0.000000 0.406737
vn 0.669131 -0.000000 0.743145
vn 0.669131 -0.000000 0.743145
vn 0.309017 -0.000000 0.951057
vn 0.309017 -0.000000 0.951057
vn -0.104528 0.000000 0.994522
vn -0.104528 0.000000 0.994522
vn -0.500000 0.000000 0.866025
vn -0.500000 0.000000 0.866025
vn -0.809017 0.000000 0.587785
vn -0.809017 0.000000 0.587785
vn -0.978148 0.000000 0.207912
vn -0.978148 0.000000 0.207912
vn -0.978148 0.000000 -0.207912
vn -0.978148 0.000000 -0.207912
vn -0.809017 0.000000 -0.587785
vn -0.809017 0.000000 -0.587785
vn -0.500000 0.000000 -0.866025
vn -0.500000 0.000000 -0.866025
vn -0.104528 0.000000 -0.994522
vn -0.104528 0.000000 -0.994522
vn 0.309017 0.000000 -0.951057
vn 0.309017 0.000000 -0.951057
vn 0.669131 0.000000 -0.743145
vn 0.669131 0.000000 -0.743145
vn 0.000000 1.000000 -0.000000
vn 0.000000 1.000000 -0.000000
vn -0.143093 0.989709 -0.000000
vn -0.157153 0.987574 -0.000000
vn -0.286403 0.958109 -0.000000
vn -0.314551 0.949241 -0.000000
vn -0.429517 0.903059 -0.000000
vn -0.471419 0.881910 -0.000000
vn -0.570630 0.821207 -0.000000
vn -0.624695 0.780869 -0.000000
vn -0.705603 0.708608 -0.000000
vn -0.767507 0.641040 -0.000000
vn -0.827055 0.562121 -0.000000
vn -0.888027 0.459791 -0.000000
vn -0.924224 0.381851 -0.000000
vn -0.970452 0.241294 -0.000000
vn -0.984746 0.174000 -0.000000
vn -1.000000 -0.000000 0.000000
vn -1.000000 0.000000 -0.000000
vn -0.984746 0.174000 -0.000000
vn -1.000000 0.000000 0.000000
vn -1.000000 0.000000 0.000000
vn -0.984746 -0.174000 0.000000
vn -0.970452 -0.241294 0.000000
vn -0.924224 -0.381851 0.000000
vn -0.888027 -0.459791 0.000000
vn -0.827055 -0.562121 0.000000
vn -0.767507 -0.641040 0.000000
vn -0.705603 -0.708608 0.000000
vn -0.624695 -0.780869 0.000000
vn -0.570630 -0.821207 0.000000
vn -0.471419 -0.881910 0.000000
vn -0.429517 -0.903059 0.000000
vn -0.314551 -0.949241 0.000000
vn -0.286403 -0.958109 0.000000
vn -0.157153 -0.987574 0.000000
vn -0.143093 -0.989709 0.000000
vn 0.000000 -1.000000 -0.000000
vn 0.000000 -1.000000 -0.000000
vn -0.984746 -0.174000 0.000000
vn 0.000000 -1.000000 0.000000
vn 0.000000 -1.000000 0.000000
vn 0.078550 -0.996910 -0.000000
vn 0.078550 -0.996910 -0.000000
vn 0.157153 -0.987574 -0.000000
vn 0.157153 -0.987574 -0.000000
vn 0.235832 -0.971794 -0.000000
vn 0.235832 -0.971794 -0.000000
vn 0.314551 -0.949241 -0.000000
vn 0.314551 -0.949241 -0.000000
vn 0.393171 -0.919465 -0.000000
vn 0.393171 -0.919465 -0.000000
vn 0.471419 -0.881910 -0.000000
vn 0.471419 -0.881910 -0.000000
vn 0.548828 -0.835936 -0.000000
vn 0.548828 -0.835936 -0.000000
vn 0.624695 -0.780869 -0.000000
vn 0.624695 -0.780869 -0.000000
vn 0.698028 -0.716071 -0.000000
vn 0.698028 -0.716071 -0.000000
vn 0.767507 -0.641040 -0.000000
vn 0.767507 -0.641040 -0.000000
vn 0.831485 -0.555547 -0.000000
vn 0.831485 -0.555547 -0.000000
vn 0.888027 -0.459791 -0.000000
vn 0.888027 -0.459791 -0.000000
vn 0.935037 -0.354550 -0.000000
vn 0.935037 -0.354550 -0.000000
vn 0.970452 -0.241294 -0.000000
vn 0.970452 -0.241294 -0.000000
vn 0.992507 -0.122192 -0.000000
vn 0.992507 -0.122192 -0.000000
vn 1.000000 0.000000 -0.000000
vn 1.000000 0.000000 -0.000000
vn 1.000000 -0.000000 0.000000
vn 1.000000 -0.000000 0.000000
vn 0.992507 0.122192 -0.000000
vn 0.992507 0.122192 -0.000000
vn 0.970452 0.241294 -0.000000
vn 0.970452 0.241294 -0.000000
vn 0.935037 0.354550 -0.000000
vn 0.935037 0.354550 -0.000000
vn 0.888027 0.459791 -0.000000
vn 0.888027 0.459791 -0.000000
vn 0.831485 0.555547 -0.000000
vn 0.831485 0.555547 -0.000000
vn 0.767507 0.641040 -0.000000
vn 0.767507 0.641040 -0.000000
vn 0.698028 0.716071 -0.000000
vn 0.698028 0.716071 -0.000000
vn 0.624695 0.780869 -0.000000
vn 0.624695 0.780869 -0.000000
vn 0.548828 0.835936 -0.000000
vn 0.548828 0.835936 -0.000000
vn 0.471419 0.881910 -0.000000
vn 0.471419 0.881910 -0.000000
vn 0.393171 0.919465 -0.000000
vn 0.393171 0.919465 -0.000000
vn 0.314551 0.949241 -0.000000
vn 0.314551 0.949241 -0.000000
vn 0.235832 0.971794 -0.000000
vn 0.235832 0.971794 -0.000000
vn 0.157153 0.987574 -0.000000
vn 0.157153 0.987574 -0.000000
vn 0.078550 0.996910 -0.000000
vn 0.078550 0.996910 -0.000000
vn -0.000000 1.000000 -0.000000
vn -0.000000 1.000000 -0.000000
vn -0.000000 0.000000 -1.000000
vn -0.000000 0.000000 -1.000000
vn -0.000000 0.000000 -1.000000
vn -0.000000 0.000000 -1.000000
vn -0.000000 0.000000 -1.000000
vn -0.000000 0.000000 -1.000000
vn -0.000000 0.000000 -1.000000
vn -0.000000 0.000000 -1.000000
vn -0.000000 0.000000 -1.000000
vn -0.000000 0.000000 -1.000000
vn -0.000000 0.000000 -1.000000
vn -0.000000 0.000000 -1.000000
vn -0.000000 0.000000 -1.000000
vn -0.000000 0.000000 -1.000000
vn -0.000000 0.000000 -1.000000
vn -0.000000 0.000000 -1.000000
vn -0.000000 0.000000 -1.000000
vn -0.000000 0.000000 -1.000000
vn -0.000000 0.000000 -1.000000
vn -0.000000 0.000000 -1.000000
vn -0.000000 0.000000 -1.000000
vn -0.000000 0.000000 -1.000000
vn -0.000000 0.000000 -1.000000
vn -0.000000 0.000000 -1.000000
vn -0.000000 0.000000 -1.000000
vn -0.000000 0.000000 -1.000000
vn -0.000000 0.000000 -1.000000
vn -0.000000 0.000000 -1.000000
vn -0.000000 0.000000 -1.000000
vn -0.000000 0.000000 -1.000000
vn -0.000000 0.000000 -1.000000
vn -0.000000 0.000000 -1.000000
vn -0.000000 0.000000 -1.000000
vn -0.000000 0.000000 -1.000000
vn -0.000000 0.000000 -1.000000
vn -0.000000 0.000000 -1.000000
vn -0.000000 0.000000 -1.000000
vn -0.000000 0.000000 -1.000000
vn -0.000000 0.000000 -1.000000
vn -0.000000 0.000000 -1.000000
vn -0.000000 0.000000 -1.000000
vn -0.000000 0.000000 -1.000000
vn -0.000000 0.000000 -1.000000
vn -0.000000 0.000000 -1.000000
vn -0.000000 0.000000 -1.000000
vn -0.000000 0.000000 -1.000000
vn -0.000000 0.000000 -1.000000
vn -0.000000 0.000000 -1.000000
vn -0.000000 0.000000 -1.000000
vn -0.000000 0.000000 -1.000000
vn -0.000000 0.000000 -1.000000
vn -0.000000 0.000000 -1.000000
vn -0.000000 0.000000 -1.000000
vn -0.000000 0.000000 -1.000000
vn -0.000000 0.000000 -1.000000
vn -0.000000 0.000000 -1.000000
vn -0.000000 0.000000 -1.000000
vn -0.000000 0.000000 -1.000000
vn -0.000000 0.000000 -1.000000
vn -0.000000 0.000000 -1.000000
vn -0.000000 0.000000 -1.000000
vn -0.000000 0.000000 -1.000000
vn -0.000000 0.000000 -1.000000
vn -0.000000 0.000000 -1.000000
vn -0.000000 0.000000 -1.000000
vn -0.000000 0.000000 -1.000000
vn -0.000000 0.000000 -1.000000
vn -0.000000 0.000000 -1.000000
vn -0.000000 0.000000 -1.000000
vn -0.000000 0.000000 -1.000000
vn -0.000000 0.000000 -1.000000
vn -0.000000 0.000000 -1.000000
vn 0.000000 0.000000 1.000000
vn 0.000000 0.000000 1.000000
vn 0.000000 0.000000 1.000000
vn 0.000000 0.000000 1.000000
vn 0.000000 0.000000 1.000000
vn 0.000000 0.000000 1.000000
vn 0.000000 0.000000 1.000000
vn 0.000000 0.000000 1.000000
vn 0.000000 0.000000 1.000000
vn 0.000000 0.000000 1.000000
vn 0.000000 0.000000 1.000000
vn 0.000000 0.000000 1.000000
vn 0.000000 0.000000 1.000000
vn 0.000000 0.000000 1.000000
vn 0.000000 0.000000 1.000000
vn 0.000000 0.000000 1.000000
vn 0.000000 0.000000 1.000000
vn 0.000000 0.000000 1.000000
vn 0.000000 0.000000 1.000000
vn 0.000000 0.000000 1.000000
vn 0.000000 0.000000 1.000000
vn 0.000000 0.000000 1.000000
vn 0.000000 0.000000 1.000000
vn 0.000000 0.000000 1.000000
vn 0.000000 0.000000 1.000000
vn 0.000000 0.000000 1.000000
vn 0.000000 0.000000 1.000000
vn 0.000000 0.000000 1.000000
vn 0.000000 0.000000 1.000000
vn 0.000000 0.000000 1.000000
vn 0.000000 0.000000 1.000000
vn 0.000000 0.000000 1.000000
vn 0.000000 0.000000 1.000000
vn 0.000000 0.000000 1.000000
vn 0.000000 0.000000 1.000000
vn 0.000000 0.000000 1.000000
vn 0.000000 0.000000 1.000000
vn 0.000000 0.000000 1.000000
vn 0.000000 0.000000 1.000000
vn 0.000000 0.000000 1.000000
vn 0.000000 0.000000 1.000000
vn 0.000000 0.000000 1.000000
vn 0.000000 0.000000 1.000000
vn 0.000000 0.000000 1.000000
vn 0.000000 0.000000 1.000000
vn 0.000000 0.000000 1.000000
vn 0.000000 0.000000 1.000000
vn 0.000000 0.000000 1.000000
vn 0.000000 0.000000 1.000000
vn 0.000000 0.000000 1.000000
vn 0.000000 0.000000 1.000000
vn 0.000000 0.000000 1.000000
vn 0.000000 0.000000 1.000000
vn 0.000000 0.000000 1.000000
vn 0.000000 0.000000 1.000000
vn 0.000000 0.000000 1.000000
vn 0.000000 0.000000 1.000000
vn 0.000000 0.000000 1.000000
vn 0.000000 0.000000 1.000000
vn 0.000000 0.000000 1.000000
vn 0.000000 0.000000 1.000000
vn 0.000000 0.000000 1.000000
vn 0.000000 0.000000 1.000000
vn 0.000000 0.000000 1.000000
vn 0.000000 0.000000 1.000000
vn 0.000000 0.000000 1.000000
vn 0.000000 0.000000 1.000000
vn 0.000000 0.000000 1.000000
vn 0.000000 0.000000 1.000000
vn 0.000000 0.000000 1.000000
vn 0.000000 0.000000 1.000000
vn 0.000000 0.000000 1.000000
vn 0.000000 0.000000 1.000000
vn 0.000000 0.000000 1.000000
vn 0.000000 0.000000 1.000000
vn 0.000000 0.000000 1.000000
vn 0.000000 0.000000 1.000000
vn 0.000000 0.000000 1.000000
vn 0.000000 0.000000 1.000000
vn 0.000000 0.000000 1.000000
vn 0.000000 0.000000 1.000000
vn 0.000000 0.000000 1.000000
vn 0.000000 0.000000 1.000000
vn 0.000000 0.000000 1.000000
vn 0.000000 0.000000 1.000000
vn 0.000000 0.000000 1.000000
vn 0.000000 0.000000 1.000000
vn 0.000000 0.000000 1.000000
vn 0.000000 0.000000 1.000000
vn 0.000000 0.000000 1.000000
vn 0.000000 0.000000 1.000000
vn 0.000000 0.000000 1.000000
vn 0.000000 0.000000 1.000000
vn 0.000000 0.000000 1.000000
vn 0.000000 0.000000 1.000000
vn 0.000000 0.000000 1.000000
vn 0.000000 0.000000 1.000000
vn 0.000000 0.000000 1.000000
vn 0.000000 0.000000 1.000000
vn 0.000000 0.000000 1.000000
vn 0.000000 0.000000 1.000000
vn 0.000000 0.000000 1.000000
vn 0.000000 0.000000 1.000000
vn 0.000000 0.000000 1.000000
vn 0.000000 0.000000 1.000000
vn 0.000000 0.000000 1.000000
vn 0.000000 0.000000 1.000000
vn 0.000000 0.000000 1.000000
vn 0.000000 0.000000 1.000000
vn 0.000000 0.000000 1.000000
vn 0.000000 0.000000 1.000000
vn 0.000000 0.000000 1.000000
vn 0.000000 0.000000 1.000000
vn 0.000000 0.000000 1.000000
vn 0.000000 0.000000 1.000000
vn 0.000000 0.000000 1.000000
vn 0.000000 0.000000 1.000000
vn 0.000000 0.000000 1.000000
vn 0.000000 0.000000 1.000000
vn 0.000000 0.000000 1.000000
vn 0.000000 0.000000 1.000000
vn 0.000000 0.000000 1.000000
vn 0.000000 0.000000 1.000000
vn 0.000000 0.000000 1.000000
vn 0.000000 0.000000 1.000000
vn 0.000000 0.000000 1.000000
vn 0.000000 0.000000 1.000000
vn 0.000000 0.000000 1.000000
vn 0.000000 0.000000 1.000000
vn 0.000000 0.000000 1.000000
vn 0.000000 0.000000 1.000000
vn 0.000000 0.000000 1.000000
vn 0.000000 0.000000 1.000000
vn 0.000000 0.000000 1.000000
vn 0.000000 0.000000 1.000000
vn 0.000000 0.000000 1.000000
vn 0.000000 0.000000 1.000000
vn 0.000000 0.000000 1.000000
vn 0.000000 0.000000 1.000000
vn 0.000000 0.000000 1.000000
vn 0.000000 0.000000 1.000000
vn 0.000000 0.000000 1.000000
vn 0.000000 0.000000 1.000000
vn 0.000000 0.000000 1.000000
vn 0.000000 0.000000 1.000000
vn 0.000000 0.000000 1.000000
vn 0.000000 0.000000 1.000000
vn 0.000000 0.000000 1.000000
vn 0.000000 0.000000 1.000000
vn 0.000000 0.000000 1.000000
vn 0.000000 0.000000 1.000000
vn 0.000000 0.000000 1.000000
vn 0.000000 0.000000 1.000000
vn 0.000000 0.000000 1.000000
vn 0.000000 0.000000 1.000000
vn 0.000000 0.000000 1.000000
vn 0.000000 0.000000 1.000000
vn 0.000000 0.000000 1.000000
vn 0.000000 0.000000 1.000000
vn 0.000000 0.000000 1.000000
vn 0.000000 0.000000 1.000000
vn 0.000000 0.000000 1.000000
vn 0.000000 0.000000 1.000000
vn 0.000000 0.000000 1.000000
vn 0.000000 0.000000 1.000000
vn 0.000000 0.000000 1.000000
vn 0.000000 0.000000 1.000000
vn 0.000000 0.000000 1.000000
vn 0.000000 0.000000 1.000000
vn 0.000000 0.000000 1.000000
vn 0.000000 0.000000 1.000000
vn 0.000000 0.000000 1.000000
vn -0.742749 -0.669569 0.000000
vn -0.742749 -0.669569 0.000000
vn -0.950782 -0.309860 0.000000
vn -0.742749 -0.669569 0.000000
vn -0.742749 -0.669569 0.000000
vn -0.406467 -0.913666 0.000000
vn -0.406467 -0.913666 0.000000
vn 0.000000 -1.000000 -0.000000
vn -0.406467 -0.913666 0.000000
vn -0.406467 -0.913666 0.000000
vn -0.742749 -0.669569 0.000000
vn -0.742749 -0.669569 0.000000
vn -0.950782 -0.309860 0.000000
vn -0.406467 -0.913666 0.000000
vn -0.406467 -0.913666 0.000000
vn 0.000000 -1.000000 -0.000000
vn -0.406467 -0.913666 0.000000
vn -0.742749 -0.669569 0.000000
vn 0.000000 -1.000000 0.000000
vn 0.000000 -1.000000 0.000000
vn 0.169999 -0.985444 -0.000000
vn 0.169999 -0.985444 -0.000000
vn 0.335049 -0.942201 -0.000000
vn 0.335049 -0.942201 -0.000000
vn 0.490345 -0.871528 -0.000000
vn 0.490345 -0.871528 -0.000000
vn 0.631367 -0.775485 -0.000000
vn 0.631367 -0.775485 -0.000000
vn 0.754008 -0.656865 -0.000000
vn 0.754008 -0.656865 -0.000000
vn 0.854699 -0.519123 -0.000000
vn 0.854699 -0.519123 -0.000000
vn 0.930509 -0.366269 -0.000000
vn 0.930509 -0.366269 -0.000000
vn 0.979230 -0.202753 -0.000000
vn 0.979230 -0.202753 -0.000000
vn 0.999444 -0.033333 -0.000000
vn 0.999444 -0.033333 -0.000000
vn 0.979230 -0.202753 -0.000000
vn 0.930509 -0.366269 -0.000000
vn 0.854699 -0.519123 -0.000000
vn 0.754008 -0.656865 -0.000000
vn 0.631367 -0.775485 -0.000000
vn 0.490345 -0.871528 -0.000000
vn 0.335049 -0.942201 -0.000000
vn 0.169999 -0.985444 -0.000000
vn 0.999444 0.033333 -0.000000
vn 0.999444 0.033333 -0.000000
vn 0.979230 0.202753 -0.000000
vn 0.979230 0.202753 -0.000000
vn 0.930509 0.366269 -0.000000
vn 0.930509 0.366269 -0.000000
vn 0.854699 0.519123 -0.000000
vn 0.854699 0.519123 -0.000000
vn 0.754008 0.656865 -0.000000
vn 0.754008 0.656865 -0.000000
vn 0.631367 0.775485 -0.000000
vn 0.631367 0.775485 -0.000000
vn 0.490345 0.871528 -0.000000
vn 0.490345 0.871528 -0.000000
vn 0.335049 0.942201 -0.000000
vn 0.335049 0.942201 -0.000000
vn 0.169999 0.985444 -0.000000
vn 0.169999 0.985444 -0.000000
vn -0.000000 1.000000 -0.000000
vn -0.000000 1.000000 -0.000000
vn 0.169999 0.985444 -0.000000
vn 0.335049 0.942201 -0.000000
vn 0.490345 0.871528 -0.000000
vn 0.631367 0.775485 -0.000000
vn 0.754008 0.656865 -0.000000
vn 0.854699 0.519123 -0.000000
vn 0.930509 0.366269 -0.000000
vn 0.979230 0.202753 -0.000000
vn 0.000000 1.000000 0.000000
vn 0.000000 1.000000 0.000000
vn -0.406467 0.913666 -0.000000
vn -0.406467 0.913666 -0.000000
vn -0.406467 0.913666 -0.000000
vn -0.406467 0.913666 -0.000000
vn -0.742749 0.669569 -0.000000
vn -0.742749 0.669569 -0.000000
vn -0.950782 0.309860 -0.000000
vn -0.742749 0.669569 -0.000000
vn -0.742749 0.669569 -0.000000
vn -0.406467 0.913666 -0.000000
vn -0.406467 0.913666 -0.000000
vn -0.742749 0.669569 -0.000000
vn -0.742749 0.669569 -0.000000
vn -0.950782 0.309860 -0.000000
vn -0.742749 0.669569 -0.000000
vn -0.406467 0.913666 -0.000000
vn 0.000000 0.000000 1.000000
vn 0.000000 0.000000 1.000000
vn 0.000000 0.000000 1.000000
vn 0.000000 0.000000 1.000000
vn 0.000000 0.000000 1.000000
vn 0.000000 0.000000 1.000000
vn 0.000000 0.000000 1.000000
vn 0.000000 0.000000 1.000000
vn 0.000000 0.000000 1.000000
vn 0.000000 0.000000 1.000000
vn 0.000000 0.000000 1.000000
vn 0.000000 0.000000 1.000000
vn 0.000000 0.000000 1.000000
vn 0.000000 0.000000 1.000000
vn 0.000000 0.000000 1.000000
vn 0.000000 0.000000 1.000000
vn 0.000000 0.000000 1.000000
vn 0.000000 0.000000 1.000000
vn 0.000000 0.000000 1.000000
vn 0.000000 0.000000 1.000000
vn 0.000000 0.000000 1.000000
vn 0.000000 0.000000 1.000000
vn 0.000000 0.000000 1.000000
vn 0.000000 0.000000 1.000000
vn 0.000000 0.000000 1.000000
vn 0.000000 0.000000 1.000000
vn 0.000000 0.000000 1.000000
vn 0.000000 0.000000 1.000000
vn 0.000000 0.000000 1.000000
vn 0.000000 0.000000 1.000000
vn 0.000000 0.000000 1.000000
vn 0.000000 0.000000 1.000000
vn 0.000000 0.000000 1.000000
vn 0.000000 0.000000 1.000000
vn 0.000000 0.000000 1.000000
vn 0.000000 0.000000 1.000000
vn 0.000000 0.000000 1.000000
vn 0.000000 0.000000 1.000000
vn 0.986361 -0.164595 -0.000000
vn 0.986361 -0.164595 -0.000000
vn 1.000000 -0.000000 -0.000000
vn 1.000000 -0.000000 -0.000000
vn 0.986361 0.164595 -0.000000
vn 0.986361 0.164595 -0.000000
vn 0.945817 0.324699 -0.000000
vn 0.945817 0.324699 -0.000000
vn 0.879474 0.475947 -0.000000
vn 0.879474 0.475947 -0.000000
vn 0.789141 0.614213 -0.000000
vn 0.789141 0.614213 -0.000000
vn 0.677282 0.735724 -0.000000
vn 0.677282 0.735724 -0.000000
vn 0.546948 0.837166 -0.000000
vn 0.546948 0.837166 -0.000000
vn 0.401695 0.915773 -0.000000
vn 0.401695 0.915773 -0.000000
vn 0.245485 0.969400 -0.000000
vn 0.245485 0.969400 -0.000000
vn 0.082579 0.996584 -0.000000
vn 0.082579 0.996584 -0.000000
vn -0.082579 0.996584 -0.000000
vn -0.082579 0.996584 -0.000000
vn -0.245485 0.969400 -0.000000
vn -0.245485 0.969400 -0.000000
vn -0.401695 0.915773 -0.000000
vn -0.401695 0.915773 -0.000000
vn -0.546948 0.837166 -0.000000
vn -0.546948 0.837166 -0.000000
vn -0.677282 0.735724 -0.000000
vn -0.677282 0.735724 -0.000000
vn -0.789141 0.614213 -0.000000
vn -0.789141 0.614213 -0.000000
vn -0.879474 0.475947 -0.000000
vn -0.879474 0.475947 -0.000000
vn -0.945817 0.324699 -0.000000
vn -0.945817 0.324699 -0.000000
vn -0.986361 0.164595 -0.000000
vn -0.986361 0.164595 -0.000000
vn -1.000000 -0.000000 0.000000
vn -1.000000 -0.000000 0.000000
vn -0.986361 -0.164595 0.000000
vn -0.986361 -0.164595 0.000000
vn -0.945817 -0.324699 0.000000
vn -0.945817 -0.324699 0.000000
vn -0.879474 -0.475947 0.000000
vn -0.879474 -0.475947 0.000000
vn -0.789141 -0.614213 0.000000
vn -0.789141 -0.614213 0.000000
vn -0.677282 -0.735724 0.000000
vn -0.677282 -0.735724 0.000000
vn -0.546948 -0.837166 0.000000
vn -0.546948 -0.837166 0.000000
vn -0.401695 -0.915773 0.000000
vn -0.401695 -0.915773 0.000000
vn -0.245485 -0.969400 0.000000
vn -0.245485 -0.969400 0.000000
vn -0.082579 -0.996584 0.000000
vn -0.082579 -0.996584 0.000000
vn 0.082579 -0.996584 -0.000000
vn 0.082579 -0.996584 -0.000000
vn 0.245485 -0.969400 -0.000000
vn 0.245485 -0.969400 -0.000000
vn 0.401695 -0.915773 -0.000000
vn 0.401695 -0.915773 -0.000000
vn 0.546948 -0.837166 -0.000000
vn 0.546948 -0.837166 -0.000000
vn 0.677282 -0.735724 -0.000000
vn 0.677282 -0.735724 -0.000000
vn 0.789141 -0.614213 -0.000000
vn 0.789141 -0.614213 -0.000000
vn 0.879474 -0.475947 -0.000000
vn 0.879474 -0.475947 -0.000000
vn 0.945817 -0.324699 -0.000000
vn 0.945817 -0.324699 -0.000000
vn 0.986361 0.164595 -0.000000
vn 1.000000 0.000000 -0.000000
vn 0.986361 -0.164595 -0.000000
vn 0.945817 -0.324699 -0.000000
vn 0.879474 -0.475947 -0.000000
vn 0.789141 -0.614213 -0.000000
vn 0.677282 -0.735724 -0.000000
vn 0.546948 -0.837166 -0.000000
vn 0.401695 -0.915773 -0.000000
vn 0.245485 -0.969400 -0.000000
vn 0.082579 -0.996584 -0.000000
vn -0.082579 -0.996584 0.000000
vn -0.245485 -0.969400 0.000000
vn -0.401695 -0.915773 0.000000
vn -0.546948 -0.837166 0.000000
vn -0.677282 -0.735724 0.000000
vn -0.789141 -0.614213 0.000000
vn -0.879474 -0.475947 0.000000
vn -0.945817 -0.324699 0.000000
vn -0.986361 -0.164595 0.000000
vn -1.000000 -0.000000 0.000000
vn -0.986361 0.164595 -0.000000
vn -0.945817 0.324699 -0.000000
vn -0.879474 0.475947 -0.000000
vn -0.789141 0.614213 -0.000000
vn -0.677282 0.735724 -0.000000
vn -0.546948 0.837166 -0.000000
vn -0.401695 0.915773 -0.000000
vn -0.245485 0.969400 -0.000000
vn -0.082579 0.996584 -0.000000
vn 0.082579 0.996584 -0.000000
vn 0.245485 0.969400 -0.000000
vn 0.401695 0.915773 -0.000000
vn 0.546948 0.837166 -0.000000
vn 0.677282 0.735724 -0.000000
vn 0.789141 0.614213 -0.000000
vn 0.879474 0.475947 -0.000000
vn 0.945817 0.324699 -0.000000
usemtl Opaque(64,64,64)
f 2/1/1 10/2/2 1/3/3
f 1/3/3 10/2/2 11/4/4
f 1/3/3 11/4/4 28/5/5
f 28/5/5 11/4/4 12/6/6
f 28/5/5 12/6/6 27/7/7
f 27/7/7 12/6/6 13/8/8
f 27/7/7 13/8/8 26/9/9
f 26/9/9 13/8/8 14/10/10
f 26/9/9 14/10/10 25/11/11
f 25/11/11 14/10/10 15/12/12
f 25/11/11 15/12/12 24/13/13
f 24/13/13 15/12/12 16/14/14
f 24/13/13 16/14/14 23/15/15
f 23/15/15 16/14/14 17/16/16
f 23/15/15 17/16/16 22/17/17
f 22/17/17 17/16/16 18/18/18
f 22/17/17 18/18/18 21/19/19
f 21/19/19 18/18/18 19/20/20
f 21/19/19 19/20/20 20/21/21
f 10/2/2 2/1/1 9/22/22
f 9/22/22 2/1/1 3/23/23
f 9/22/22 3/23/23 8/24/24
f 8/24/24 3/23/23 4/25/25
f 8/24/24 4/25/25 7/26/26
f 7/26/26 4/25/25 5/27/27
f 7/26/26 5/27/27 6/28/28
f 30/29/29 2/30/30 29/31/31
f 29/31/31 2/30/30 1/32/32
f 29/33/31 1/34/32 56/35/33
f 56/35/33 1/34/32 28/36/34
f 56/35/33 28/36/34 55/37/35
f 55/37/35 28/36/34 27/38/36
f 55/37/35 27/38/36 54/39/37
f 54/39/37 27/38/36 26/40/38
f 54/39/37 26/40/38 53/41/39
f 53/41/39 26/40/38 25/42/40
f 53/41/39 25/42/40 52/43/41
f 52/43/41 25/42/40 24/44/42
f 52/43/41 24/44/42 51/45/43
f 51/45/43 24/44/42 23/46/44
f 51/45/43 23/46/44 50/47/45
f 50/47/45 23/46/44 22/48/46
f 50/47/45 22/48/46 49/49/47
f 49/49/47 22/48/46 21/50/48
f 49/49/47 21/50/48 48/51/49
f 48/51/49 21/50/48 20/52/50
f 48/51/49 20/52/50 47/53/51
f 47/53/51 20/52/50 19/54/52
f 47/53/51 19/54/52 46/55/53
f 46/55/53 19/54/52 18/56/54
f 46/55/53 18/56/54 45/57/55
f 45/57/55 18/56/54 17/58/56
f 45/57/55 17/58/56 44/59/57
f 44/59/57 17/58/56 16/60/58
f 44/59/57 16/60/58 43/61/59
f 43/61/59 16/60/58 15/62/60
f 43/61/59 15/62/60 42/63/61
f 42/63/61 15/62/60 14/64/62
f 42/63/61 14/64/62 41/65/63
f 41/65/63 14/64/62 13/66/64
f 41/65/63 13/66/64 40/67/65
f 40/67/65 13/66/64 12/68/66
f 40/67/65 12/68/66 39/69/67
f 39/69/67 12/68/66 11/70/68
f 39/69/67 11/70/68 38/71/69
f 38/71/69 11/70/68 10/72/70
f 38/71/69 10/72/70 37/73/71
f 37/73/71 10/72/70 9/74/72
f 37/73/71 9/74/72 36/75/73
f 36/75/73 9/74/72 8/76/74
f 36/75/73 8/76/74 35/77/75
f 35/77/75 8/76/74 7/78/76
f 35/77/75 7/78/76 34/79/77
f 34/79/77 7/78/76 6/80/78
f 34/79/77 6/80/78 33/81/79
f 33/81/79 6/80/78 5/82/80
f 33/81/79 5/82/80 32/83/81
f 32/83/81 5/82/80 4/84/82
f 32/83/81 4/84/82 31/85/83
f 31/85/83 4/84/82 3/86/84
f 31/85/83 3/86/84 30/29/29
f 30/29/29 3/86/84 2/30/30
f 58/87/85 61/88/86 57/89/87
f 57/89/87 61/88/86 62/90/88
f 57/89/87 62/90/88 76/91/89
f 76/91/89 62/90/88 66/92/90
f 76/91/89 66/92/90 72/93/91
f 72/93/91 66/92/90 67/94/92
f 72/93/91 67/94/92 71/95/93
f 71/95/93 67/94/92 70/96/94
f 70/96/94 67/94/92 69/97/95
f 69/97/95 67/94/92 68/98/96
f 58/87/85 59/99/97 61/88/86
f 61/88/86 59/99/97 60/100/98
f 63/101/99 64/102/100 62/90/88
f 62/90/88 64/102/100 65/103/101
f 62/90/88 65/103/101 66/92/90
f 72/93/91 73/104/102 76/91/89
f 76/91/89 73/104/102 74/105/103
f 76/91/89 74/105/103 75/106/104
f 57/107/105 76/108/106 77/109/107
f 77/109/107 76/108/106 78/110/108
f 78/111/108 76/112/106 82/113/109
f 82/113/109 76/112/106 75/114/110
f 82/113/109 75/114/110 81/115/111
f 81/115/111 75/114/110 74/116/112
f 81/115/111 74/116/112 80/117/113
f 80/117/113 74/116/112 73/118/114
f 80/117/113 73/118/114 79/119/115
f 79/119/115 73/118/114 72/120/116
f 84/121/117 79/122/115 83/123/118
f 83/123/118 79/122/115 72/124/116
f 83/123/118 72/124/116 97/125/119
f 97/125/119 72/124/116 96/126/120
f 96/126/120 72/124/116 95/127/121
f 95/127/121 72/124/116 94/128/122
f 94/128/122 72/124/116 71/129/123
f 94/128/122 71/129/123 93/130/124
f 93/130/124 71/129/123 92/131/125
f 92/131/125 71/129/123 91/132/126
f 91/132/126 71/129/123 90/133/127
f 90/133/127 71/129/123 98/134/128
f 90/133/127 98/134/128 89/135/129
f 89/135/129 98/134/128 88/136/130
f 88/136/130 98/134/128 87/137/131
f 87/137/131 98/134/128 79/122/115
f 87/137/131 79/122/115 86/138/132
f 86/138/132 79/122/115 85/139/133
f 85/139/133 79/122/115 84/121/117
f 98/140/128 71/141/123 102/142/134
f 102/142/134 71/141/123 70/143/135
f 102/142/134 70/143/135 101/144/136
f 101/144/136 70/143/135 69/145/137
f 101/144/136 69/145/137 100/146/138
f 100/146/138 69/145/137 68/147/139
f 100/146/138 68/147/139 99/148/140
f 99/148/140 68/147/139 67/149/141
f 103/150/142 99/151/140 66/152/143
f 66/152/143 99/151/140 67/153/141
f 103/154/142 66/155/143 107/156/144
f 107/156/144 66/155/143 65/157/145
f 107/156/144 65/157/145 106/158/146
f 106/158/146 65/157/145 64/159/147
f 106/158/146 64/159/147 105/160/148
f 105/160/148 64/159/147 63/161/149
f 105/160/148 63/161/149 104/162/150
f 104/162/150 63/161/149 62/163/151
f 109/164/152 61/165/153 108/166/154
f 108/166/154 61/165/153 123/167/155
f 108/166/154 123/167/155 122/168/156
f 122/168/156 123/167/155 121/169/157
f 121/169/157 123/167/155 120/170/158
f 120/170/158 123/167/155 119/171/159
f 119/171/159 123/167/155 104/172/150
f 119/171/159 104/172/150 118/173/160
f 118/173/160 104/172/150 117/174/161
f 117/174/161 104/172/150 116/175/162
f 116/175/162 104/172/150 62/176/151
f 116/175/162 62/176/151 115/177/163
f 115/177/163 62/176/151 114/178/164
f 114/178/164 62/176/151 113/179/165
f 113/179/165 62/176/151 112/180/166
f 112/180/166 62/176/151 61/165/153
f 112/180/166 61/165/153 111/181/167
f 111/181/167 61/165/153 110/182/168
f 110/182/168 61/165/153 109/164/152
f 123/183/155 61/184/153 126/185/169
f 126/185/169 61/184/153 60/186/170
f 126/185/169 60/186/170 125/187/171
f 125/187/171 60/186/170 59/188/172
f 125/187/171 59/188/172 124/189/173
f 124/189/173 59/188/172 58/190/174
f 124/189/173 58/190/174 77/191/107
f 77/191/107 58/190/174 57/192/105
f 122/193/175 84/194/176 108/195/177
f 108/195/177 84/194/176 83/196/178
f 108/197/177 83/198/178 109/199/179
f 109/199/179 83/198/178 97/200/180
f 109/199/179 97/200/180 110/201/181
f 110/201/181 97/200/180 96/202/182
f 110/201/181 96/202/182 111/203/183
f 111/203/183 96/202/182 95/204/184
f 111/203/183 95/204/184 112/205/185
f 112/205/185 95/204/184 94/206/186
f 112/205/185 94/206/186 113/207/187
f 113/207/187 94/206/186 93/208/188
f 113/207/187 93/208/188 114/209/189
f 114/209/189 93/208/188 92/210/190
f 114/209/189 92/210/190 115/211/191
f 115/211/191 92/210/190 91/212/192
f 115/211/191 91/212/192 116/213/193
f 116/213/193 91/212/192 90/214/194
f 116/213/193 90/214/194 117/215/195
f 117/215/195 90/214/194 89/216/196
f 117/215/195 89/216/196 118/217/197
f 118/217/197 89/216/196 88/218/198
f 118/217/197 88/218/198 119/219/199
f 119/219/199 88/218/198 87/220/200
f 119/219/199 87/220/200 120/221/201
f 120/221/201 87/220/200 86/222/202
f 120/221/201 86/222/202 121/223/203
f 121/223/203 86/222/202 85/224/204
f 121/223/203 85/224/204 122/193/175
f 122/193/175 85/224/204 84/194/176
f 146/225/205 127/226/206 145/227/207
f 145/227/207 127/226/206 128/228/208
f 145/227/207 128/228/208 144/229/209
f 144/229/209 128/228/208 129/230/210
f 144/229/209 129/230/210 143/231/211
f 143/231/211 129/230/210 130/232/212
f 143/231/211 130/232/212 142/233/213
f 142/233/213 130/232/212 131/234/214
f 142/233/213 131/234/214 141/235/215
f 141/235/215 131/234/214 132/236/216
f 141/235/215 132/236/216 140/237/217
f 140/237/217 132/236/216 133/238/218
f 140/237/217 133/238/218 139/239/219
f 139/239/219 133/238/218 134/240/220
f 139/239/219 134/240/220 138/241/221
f 138/241/221 134/240/220 135/242/222
f 138/241/221 135/242/222 136/243/223
f 136/243/223 137/244/224 138/241/221
f 147/245/225 148/246/226 135/247/222
f 135/247/222 148/246/226 136/248/223
f 148/249/226 147/250/225 165/251/227
f 165/251/227 147/250/225 149/252/228
f 165/251/227 149/252/228 164/253/229
f 164/253/229 149/252/228 150/254/230
f 164/253/229 150/254/230 163/255/231
f 163/255/231 150/254/230 151/256/232
f 163/255/231 151/256/232 162/257/233
f 162/257/233 151/256/232 152/258/234
f 162/257/233 152/258/234 161/259/235
f 161/259/235 152/258/234 153/260/236
f 161/259/235 153/260/236 160/261/237
f 160/261/237 153/260/236 154/262/238
f 160/261/237 154/262/238 159/263/239
f 159/263/239 154/262/238 155/264/240
f 159/263/239 155/264/240 158/265/241
f 158/265/241 155/264/240 156/266/242
f 158/265/241 156/266/242 157/267/243
f 165/251/227 166/268/244 148/249/226
f 167/269/245 168/270/246 156/271/242
f 156/271/242 168/270/246 157/272/243
f 168/273/246 167/274/245 200/275/247
f 200/275/247 167/274/245 169/276/248
f 200/275/247 169/276/248 170/277/249
f 200/275/247 170/277/249 199/278/250
f 199/278/250 170/277/249 171/279/251
f 199/278/250 171/279/251 198/280/252
f 198/280/252 171/279/251 197/281/253
f 197/281/253 171/279/251 172/282/254
f 197/281/253 172/282/254 173/283/255
f 197/281/253 173/283/255 196/284/256
f 196/284/256 173/283/255 174/285/257
f 196/284/256 174/285/257 195/286/258
f 195/286/258 174/285/257 194/287/259
f 194/287/259 174/285/257 175/288/260
f 194/287/259 175/288/260 176/289/261
f 194/287/259 176/289/261 193/290/262
f 193/290/262 176/289/261 177/291/263
f 193/290/262 177/291/263 192/292/264
f 192/292/264 177/291/263 191/293/265
f 191/293/265 177/291/263 178/294/266
f 191/293/265 178/294/266 179/295/267
f 191/293/265 179/295/267 190/296/268
f 190/296/268 179/295/267 180/297/269
f 190/296/268 180/297/269 189/298/270
f 189/298/270 180/297/269 188/299/271
f 188/299/271 180/297/269 181/300/272
f 188/299/271 181/300/272 182/301/273
f 188/299/271 182/301/273 187/302/274
f 187/302/274 182/301/273 183/303/275
f 187/302/274 183/303/275 186/304/276
f 186/304/276 183/303/275 185/305/277
f 185/305/277 183/303/275 184/306/278
f 201/307/279 202/308/280 184/309/278
f 184/309/278 202/308/280 185/310/277
f 202/311/280 201/312/279 234/313/281
f 234/313/281 201/312/279 203/314/282
f 234/313/281 203/314/282 204/315/283
f 234/313/281 204/315/283 233/316/284
f 233/316/284 204/315/283 205/317/285
f 233/316/284 205/317/285 232/318/286
f 232/318/286 205/317/285 231/319/287
f 231/319/287 205/317/285 206/320/288
f 231/319/287 206/320/288 207/321/289
f 231/319/287 207/321/289 230/322/290
f 230/322/290 207/321/289 208/323/291
f 230/322/290 208/323/291 229/324/292
f 229/324/292 208/323/291 228/325/293
f 228/325/293 208/323/291 209/326/294
f 228/325/293 209/326/294 210/327/295
f 228/325/293 210/327/295 227/328/296
f 227/328/296 210/327/295 211/329/297
f 227/328/296 211/329/297 226/330/298
f 226/330/298 211/329/297 225/331/299
f 225/331/299 211/329/297 212/332/300
f 225/331/299 212/332/300 213/333/301
f 225/331/299 213/333/301 224/334/302
f 224/334/302 213/333/301 214/335/303
f 224/334/302 214/335/303 223/336/304
f 223/336/304 214/335/303 222/337/305
f 222/337/305 214/335/303 215/338/306
f 222/337/305 215/338/306 216/339/307
f 222/337/305 216/339/307 221/340/308
f 221/340/308 216/339/307 217/341/309
f 221/340/308 217/341/309 220/342/310
f 220/342/310 217/341/309 219/343/311
f 219/343/311 217/341/309 218/344/312
f 127/345/206 146/346/205 218/347/312
f 218/347/312 146/346/205 219/348/311
f 134/349/313 126/350/314 135/351/315
f 135/351/315 126/350/314 125/352/316
f 135/351/315 125/352/316 124/353/317
f 126/350/314 134/349/313 123/354/318
f 123/354/318 134/349/313 133/355/319
f 123/354/318 133/355/319 132/356/320
f 123/354/318 132/356/320 127/357/321
f 127/357/321 132/356/320 131/358/322
f 127/357/321 131/358/322 130/359/323
f 130/359/323 129/360/324 127/357/321
f 127/357/321 129/360/324 128/361/325
f 123/354/318 127/357/321 104/362/326
f 104/362/326 127/357/321 218/363/327
f 104/362/326 218/363/327 105/364/328
f 105/364/328 218/363/327 106/365/329
f 106/365/329 218/363/327 107/366/330
f 107/366/330 218/363/327 208/367/331
f 107/366/330 208/367/331 207/368/332
f 217/369/333 216/370/334 218/363/327
f 218/363/327 216/370/334 215/371/335
f 218/363/327 215/371/335 214/372/336
f 214/372/336 213/373/337 218/363/327
f 218/363/327 213/373/337 212/374/338
f 218/363/327 212/374/338 211/375/339
f 211/375/339 210/376/340 218/363/327
f 218/363/327 210/376/340 209/377/341
f 218/363/327 209/377/341 208/367/331
f 207/368/332 206/378/342 107/366/330
f 107/366/330 206/378/342 103/379/343
f 103/379/343 206/378/342 205/380/344
f 103/379/343 205/380/344 204/381/345
f 204/381/345 203/382/346 103/379/343
f 103/379/343 203/382/346 201/383/347
f 103/379/343 201/383/347 184/384/348
f 103/379/343 184/384/348 99/385/349
f 99/385/349 184/384/348 183/386/350
f 99/385/349 183/386/350 182/387/351
f 182/387/351 181/388/352 99/385/349
f 99/385/349 181/388/352 180/389/353
f 99/385/349 180/389/353 179/390/354
f 179/390/354 178/391/355 99/385/349
f 99/385/349 178/391/355 177/392/356
f 99/385/349 177/392/356 167/393/357
f 167/393/357 177/392/356 176/394/358
f 167/393/357 176/394/358 175/395/359
f 175/395/359 174/396/360 167/393/357
f 167/393/357 174/396/360 173/397/361
f 167/393/357 173/397/361 172/398/362
f 172/398/362 171/399/363 167/393/357
f 167/393/357 171/399/363 170/400/364
f 167/393/357 170/400/364 169/401/365
f 156/402/366 98/403/367 167/393/357
f 167/393/357 98/403/367 102/404/368
f 167/393/357 102/404/368 101/405/369
f 98/403/367 156/402/366 79/406/370
f 79/406/370 156/402/366 155/407/371
f 79/406/370 155/407/371 154/408/372
f 154/408/372 153/409/373 79/406/370
f 79/406/370 153/409/373 152/410/374
f 79/406/370 152/410/374 151/411/375
f 79/406/370 151/411/375 80/412/376
f 80/412/376 151/411/375 150/413/377
f 80/412/376 150/413/377 149/414/378
f 149/414/378 147/415/379 80/412/376
f 80/412/376 147/415/379 81/416/380
f 81/416/380 147/415/379 82/417/381
f 82/417/381 147/415/379 78/418/382
f 78/418/382 147/415/379 77/419/383
f 77/419/383 147/415/379 135/351/315
f 77/419/383 135/351/315 124/353/317
f 101/405/369 100/420/384 167/393/357
f 167/393/357 100/420/384 99/385/349
f 236/421/385 185/422/386 235/423/387
f 235/423/387 185/422/386 202/424/388
f 235/423/387 202/424/388 272/425/389
f 272/425/389 202/424/388 271/426/390
f 271/426/390 202/424/388 234/427/391
f 271/426/390 234/427/391 233/428/392
f 236/421/385 237/429/393 185/422/386
f 185/422/386 237/429/393 186/430/394
f 186/430/394 237/429/393 187/431/395
f 187/431/395 237/429/393 238/432/396
f 187/431/395 238/432/396 188/433/397
f 188/433/397 238/432/396 189/434/398
f 189/434/398 238/432/396 239/435/399
f 189/434/398 239/435/399 190/436/400
f 190/436/400 239/435/399 191/437/401
f 191/437/401 239/435/399 240/438/402
f 191/437/401 240/438/402 192/439/403
f 192/439/403 240/438/402 193/440/404
f 193/440/404 240/438/402 241/441/405
f 193/440/404 241/441/405 194/442/406
f 194/442/406 241/441/405 195/443/407
f 195/443/407 241/441/405 242/444/408
f 195/443/407 242/444/408 196/445/409
f 196/445/409 242/444/408 197/446/410
f 197/446/410 242/444/408 243/447/411
f 197/446/410 243/447/411 198/448/412
f 198/448/412 243/447/411 199/449/413
f 199/449/413 243/447/411 244/450/414
f 199/449/413 244/450/414 200/451/415
f 200/451/415 244/450/414 168/452/416
f 168/452/416 244/450/414 245/453/417
f 168/452/416 245/453/417 246/454/418
f 168/452/416 246/454/418 157/455/419
f 157/455/419 246/454/418 247/456/420
f 157/455/419 247/456/420 293/457/421
f 293/457/421 247/456/420 248/458/422
f 293/457/421 248/458/422 292/459/423
f 292/459/423 248/458/422 249/460/424
f 292/459/423 249/460/424 291/461/425
f 291/461/425 249/460/424 290/462/426
f 290/462/426 249/460/424 250/463/427
f 290/462/426 250/463/427 289/464/428
f 289/464/428 250/463/427 251/465/429
f 289/464/428 251/465/429 288/466/430
f 288/466/430 251/465/429 252/467/431
f 288/466/430 252/467/431 287/468/432
f 287/468/432 252/467/431 253/469/433
f 287/468/432 253/469/433 286/470/434
f 286/470/434 253/469/433 254/471/435
f 286/470/434 254/471/435 285/472/436
f 285/472/436 254/471/435 284/473/437
f 284/473/437 254/471/435 255/474/438
f 284/473/437 255/474/438 283/475/439
f 283/475/439 255/474/438 256/476/440
f 283/475/439 256/476/440 282/477/441
f 282/477/441 256/476/440 257/478/442
f 282/477/441 257/478/442 281/479/443
f 281/479/443 257/478/442 258/480/444
f 281/479/443 258/480/444 280/481/445
f 280/481/445 258/480/444 259/482/446
f 280/481/445 259/482/446 279/483/447
f 279/483/447 259/482/446 278/484/448
f 278/484/448 259/482/446 260/485/449
f 278/484/448 260/485/449 277/486/450
f 277/486/450 260/485/449 261/487/451
f 277/486/450 261/487/451 146/488/452
f 146/488/452 261/487/451 262/489/453
f 146/488/452 262/489/453 219/490/454
f 219/490/454 262/489/453 263/491/455
f 219/490/454 263/491/455 264/492/456
f 265/493/457 221/494/458 264/492/456
f 264/492/456 221/494/458 220/495/459
f 264/492/456 220/495/459 219/490/454
f 266/496/460 223/497/461 265/493/457
f 265/493/457 223/497/461 222/498/462
f 265/493/457 222/498/462 221/494/458
f 267/499/463 225/500/464 266/496/460
f 266/496/460 225/500/464 224/501/465
f 266/496/460 224/501/465 223/497/461
f 268/502/466 227/503/467 267/499/463
f 267/499/463 227/503/467 226/504/468
f 267/499/463 226/504/468 225/500/464
f 269/505/469 229/506/470 268/502/466
f 268/502/466 229/506/470 228/507/471
f 268/502/466 228/507/471 227/503/467
f 270/508/472 231/509/473 269/505/469
f 269/505/469 231/509/473 230/510/474
f 269/505/469 230/510/474 229/506/470
f 271/426/390 233/428/392 270/508/472
f 270/508/472 233/428/392 232/511/475
f 270/508/472 232/511/475 231/509/473
f 138/512/476 273/513/477 139/514/478
f 139/514/478 273/513/477 274/515/479
f 139/514/478 274/515/479 275/516/480
f 276/517/481 143/518/482 275/516/480
f 275/516/480 143/518/482 142/519/483
f 275/516/480 142/519/483 141/520/484
f 277/486/450 146/488/452 276/517/481
f 276/517/481 146/488/452 145/521/485
f 276/517/481 145/521/485 144/522/486
f 293/457/421 294/523/487 157/455/419
f 157/455/419 294/523/487 158/524/488
f 158/524/488 294/523/487 159/525/489
f 159/525/489 294/523/487 160/526/490
f 160/526/490 294/523/487 295/527/491
f 160/526/490 295/527/491 161/528/492
f 161/528/492 295/527/491 162/529/493
f 162/529/493 295/527/491 163/530/494
f 163/530/494 295/527/491 164/531/495
f 164/531/495 295/527/491 296/532/496
f 164/531/495 296/532/496 297/533/497
f 297/533/497 165/534/498 164/531/495
f 144/522/486 143/518/482 276/517/481
f 141/520/484 140/535/499 275/516/480
f 275/516/480 140/535/499 139/514/478
f 56/536/500 309/537/501 29/538/502
f 29/538/502 309/537/501 310/539/503
f 29/538/502 310/539/503 30/540/504
f 30/540/504 310/539/503 311/541/505
f 30/540/504 311/541/505 31/542/506
f 31/542/506 311/541/505 312/543/507
f 31/542/506 312/543/507 32/544/508
f 32/544/508 312/543/507 313/545/509
f 32/544/508 313/545/509 314/546/510
f 309/537/501 56/536/500 308/547/511
f 308/547/511 56/536/500 55/548/512
f 308/547/511 55/548/512 307/549/513
f 307/549/513 55/548/512 54/550/514
f 307/549/513 54/550/514 306/551/515
f 306/551/515 54/550/514 53/552/516
f 306/551/515 53/552/516 305/553/517
f 305/553/517 53/552/516 304/554/518
f 304/554/518 53/552/516 52/555/519
f 304/554/518 52/555/519 303/556/520
f 303/556/520 52/555/519 51/557/521
f 303/556/520 51/557/521 302/558/522
f 302/558/522 51/557/521 50/559/523
f 302/558/522 50/559/523 301/560/524
f 301/560/524 50/559/523 49/561/525
f 301/560/524 49/561/525 48/562/526
f 301/560/524 48/562/526 300/563/527
f 300/563/527 48/562/526 47/564/528
f 300/563/527 47/564/528 46/565/529
f 300/563/527 46/565/529 148/566/530
f 148/566/530 46/565/529 45/567/531
f 148/566/530 45/567/531 44/568/532
f 44/568/532 43/569/533 148/566/530
f 148/566/530 43/569/533 136/570/534
f 136/570/534 43/569/533 42/571/535
f 136/570/534 42/571/535 41/572/536
f 41/572/536 40/573/537 136/570/534
f 136/570/534 40/573/537 320/574/538
f 136/570/534 320/574/538 137/575/539
f 137/575/539 320/574/538 322/576/540
f 322/576/540 320/574/538 321/577/541
f 40/573/537 39/578/542 320/574/538
f 320/574/538 39/578/542 38/579/543
f 320/574/538 38/579/543 319/580/544
f 319/580/544 38/579/543 37/581/545
f 319/580/544 37/581/545 36/582/546
f 319/580/544 36/582/546 318/583/547
f 318/583/547 36/582/546 35/584/548
f 318/583/547 35/584/548 317/585/549
f 317/585/549 35/584/548 316/586/550
f 316/586/550 35/584/548 34/587/551
f 316/586/550 34/587/551 315/588/552
f 315/588/552 34/587/551 33/589/553
f 315/588/552 33/589/553 314/546/510
f 314/546/510 33/589/553 32/544/508
f 148/566/530 166/590/554 300/563/527
f 300/563/527 166/590/554 298/591/555
f 300/563/527 298/591/555 299/592/556
f 297/593/557 323/594/558 165/595/559
f 165/595/559 323/594/558 324/596/560
f 165/595/559 324/596/560 325/597/561
f 325/597/561 324/596/560 330/598/562
f 325/597/561 330/598/562 331/599/563
f 331/599/563 330/598/562 300/600/564
f 331/599/563 300/600/564 332/601/565
f 332/601/565 300/600/564 299/602/566
f 332/601/565 299/602/566 327/603/567
f 327/603/567 299/602/566 298/604/568
f 327/603/567 298/604/568 166/605/569
f 323/594/558 297/593/557 328/606/570
f 328/606/570 297/593/557 296/607/571
f 328/606/570 296/607/571 295/608/572
f 300/600/564 330/598/562 295/608/572
f 295/608/572 330/598/562 329/609/573
f 295/608/572 329/609/573 328/606/570
f 328/606/570 329/609/573 323/594/558
f 165/595/559 325/597/561 166/605/569
f 166/605/569 325/597/561 326/610/574
f 166/605/569 326/610/574 327/603/567
f 327/603/567 326/610/574 332/601/565
f 330/598/562 324/596/560 329/609/573
f 329/609/573 324/596/560 323/594/558
f 332/601/565 326/610/574 331/599/563
f 331/599/563 326/610/574 325/597/561
f 295/611/572 294/612/575 300/613/564
f 300/613/564 294/612/575 301/614/576
f 301/615/576 294/616/575 333/617/577
f 333/617/577 294/616/575 293/618/578
f 333/617/577 293/618/578 334/619/579
f 334/619/579 293/618/578 292/620/580
f 334/619/579 292/620/580 335/621/581
f 335/621/581 292/620/580 291/622/582
f 335/621/581 291/622/582 336/623/583
f 336/623/583 291/622/582 290/624/584
f 336/623/583 290/624/584 337/625/585
f 337/625/585 290/624/584 289/626/586
f 337/625/585 289/626/586 338/627/587
f 338/627/587 289/626/586 288/628/588
f 338/627/587 288/628/588 339/629/589
f 339/629/589 288/628/588 287/630/590
f 339/629/589 287/630/590 340/631/591
f 340/631/591 287/630/590 286/632/592
f 340/631/591 286/632/592 285/633/593
f 285/633/593 310/634/594 340/631/591
f 340/631/591 310/634/594 309/635/595
f 340/631/591 309/635/595 339/629/589
f 339/629/589 309/635/595 308/636/596
f 339/629/589 308/636/596 338/627/587
f 338/627/587 308/636/596 307/637/597
f 338/627/587 307/637/597 337/625/585
f 337/625/585 307/637/597 306/638/598
f 337/625/585 306/638/598 336/623/583
f 336/623/583 306/638/598 305/639/599
f 336/623/583 305/639/599 335/621/581
f 335/621/581 305/639/599 304/640/600
f 335/621/581 304/640/600 334/619/579
f 334/619/579 304/640/600 303/641/601
f 334/619/579 303/641/601 333/617/577
f 333/617/577 303/641/601 302/642/602
f 333/617/577 302/642/602 301/615/576
f 310/643/603 285/644/604 341/645/605
f 341/645/605 285/644/604 284/646/606
f 341/645/605 284/646/606 342/647/607
f 342/647/607 284/646/606 283/648/608
f 342/647/607 283/648/608 343/649/609
f 343/649/609 283/648/608 282/650/610
f 343/649/609 282/650/610 344/651/611
f 344/651/611 282/650/610 281/652/612
f 344/651/611 281/652/612 345/653/613
f 345/653/613 281/652/612 280/654/614
f 345/653/613 280/654/614 346/655/615
f 346/655/615 280/654/614 279/656/616
f 346/655/615 279/656/616 347/657/617
f 347/657/617 279/656/616 278/658/618
f 347/657/617 278/658/618 348/659/619
f 348/659/619 278/658/618 277/660/620
f 348/659/619 277/660/620 276/661/621
f 276/661/621 319/662/622 348/659/619
f 348/659/619 319/662/622 318/663/623
f 348/659/619 318/663/623 347/657/617
f 347/657/617 318/663/623 317/664/624
f 347/657/617 317/664/624 346/655/615
f 346/655/615 317/664/624 316/665/625
f 346/655/615 316/665/625 345/653/613
f 345/653/613 316/665/625 315/666/626
f 345/653/613 315/666/626 344/651/611
f 344/651/611 315/666/626 314/667/627
f 344/651/611 314/667/627 343/649/609
f 343/649/609 314/667/627 313/668/628
f 343/649/609 313/668/628 342/647/607
f 342/647/607 313/668/628 312/669/629
f 342/647/607 312/669/629 341/645/605
f 341/645/605 312/669/629 311/670/630
f 341/645/605 311/670/630 310/643/603
f 276/671/621 275/672/631 319/673/622
f 319/673/622 275/672/631 320/674/632
f 274/675/633 349/676/634 275/677/631
f 275/677/631 349/676/634 350/678/635
f 275/677/631 350/678/635 351/679/636
f 351/679/636 350/678/635 356/680/637
f 351/679/636 356/680/637 357/681/638
f 357/681/638 356/680/637 137/682/639
f 357/681/638 137/682/639 358/683/640
f 358/683/640 137/682/639 322/684/641
f 358/683/640 322/684/641 353/685/642
f 353/685/642 322/684/641 321/686/643
f 353/685/642 321/686/643 320/687/632
f 349/676/634 274/675/633 354/688/644
f 354/688/644 274/675/633 273/689/645
f 354/688/644 273/689/645 138/690/646
f 137/682/639 356/680/637 138/690/646
f 138/690/646 356/680/637 355/691/647
f 138/690/646 355/691/647 354/688/644
f 354/688/644 355/691/647 349/676/634
f 275/677/631 351/679/636 320/687/632
f 320/687/632 351/679/636 352/692/648
f 320/687/632 352/692/648 353/685/642
f 353/685/642 352/692/648 358/683/640
f 356/680/637 350/678/635 355/691/647
f 355/691/647 350/678/635 349/676/634
f 358/683/640 352/692/648 357/681/638
f 357/681/638 352/692/648 351/679/636
f 360/693/649 377/694/650 359/695/651
f 359/695/651 377/694/650 378/696/652
f 359/695/651 378/696/652 396/697/653
f 396/697/653 378/696/652 379/698/654
f 396/697/653 379/698/654 395/699/655
f 395/699/655 379/698/654 380/700/656
f 395/699/655 380/700/656 394/701/657
f 394/701/657 380/700/656 381/702/658
f 394/701/657 381/702/658 393/703/659
f 393/703/659 381/702/658 382/704/660
f 393/703/659 382/704/660 392/705/661
f 392/705/661 382/704/660 383/706/662
f 392/705/661 383/706/662 391/707/663
f 391/707/663 383/706/662 384/708/664
f 391/707/663 384/708/664 390/709/665
f 390/709/665 384/708/664 385/710/666
f 390/709/665 385/710/666 389/711/667
f 389/711/667 385/710/666 386/712/668
f 389/711/667 386/712/668 388/713/669
f 388/713/669 386/712/668 387/714/670
f 377/694/650 360/693/649 376/715/671
f 376/715/671 360/693/649 361/716/672
f 376/715/671 361/716/672 375/717/673
f 375/717/673 361/716/672 362/718/674
f 375/717/673 362/718/674 374/719/675
f 374/719/675 362/718/674 363/720/676
f 374/719/675 363/720/676 373/721/677
f 373/721/677 363/720/676 364/722/678
f 373/721/677 364/722/678 372/723/679
f 372/723/679 364/722/678 365/724/680
f 372/723/679 365/724/680 371/725/681
f 371/725/681 365/724/680 366/726/682
f 371/725/681 366/726/682 370/727/683
f 370/727/683 366/726/682 367/728/684
f 370/727/683 367/728/684 369/729/685
f 369/729/685 367/728/684 368/730/686
f 396/731/687 398/732/688 359/733/689
f 359/733/689 398/732/688 397/734/690
f 359/735/689 397/736/690 360/737/691
f 360/737/691 397/736/690 434/738/692
f 360/737/691 434/738/692 361/739/693
f 361/739/693 434/738/692 433/740/694
f 361/739/693 433/740/694 362/741/695
f 362/741/695 433/740/694 432/742/696
f 362/741/695 432/742/696 363/743/697
f 363/743/697 432/742/696 431/744/698
f 363/743/697 431/744/698 364/745/699
f 364/745/699 431/744/698 430/746/700
f 364/745/699 430/746/700 365/747/701
f 365/747/701 430/746/700 429/748/702
f 365/747/701 429/748/702 366/749/703
f 366/749/703 429/748/702 428/750/704
f 366/749/703 428/750/704 367/751/705
f 367/751/705 428/750/704 427/752/706
f 367/751/705 427/752/706 368/753/707
f 368/753/707 427/752/706 426/754/708
f 368/753/707 426/754/708 369/755/709
f 369/755/709 426/754/708 425/756/710
f 369/755/709 425/756/710 370/757/711
f 370/757/711 425/756/710 424/758/712
f 370/757/711 424/758/712 371/759/713
f 371/759/713 424/758/712 423/760/714
f 371/759/713 423/760/714 372/761/715
f 372/761/715 423/760/714 422/762/716
f 372/761/715 422/762/716 373/763/717
f 373/763/717 422/762/716 421/764/718
f 373/763/717 421/764/718 374/765/719
f 374/765/719 421/764/718 420/766/720
f 374/765/719 420/766/720 375/767/721
f 375/767/721 420/766/720 419/768/722
f 375/767/721 419/768/722 376/769/723
f 376/769/723 419/768/722 418/770/724
f 376/769/723 418/770/724 377/771/725
f 377/771/725 418/770/724 417/772/726
f 377/771/725 417/772/726 378/773/727
f 378/773/727 417/772/726 416/774/728
f 378/773/727 416/774/728 379/775/729
f 379/775/729 416/774/728 415/776/730
f 379/775/729 415/776/730 380/777/731
f 380/777/731 415/776/730 414/778/732
f 380/777/731 414/778/732 381/779/733
f 381/779/733 414/778/732 413/780/734
f 381/779/733 413/780/734 382/781/735
f 382/781/735 413/780/734 412/782/736
f 382/781/735 412/782/736 383/783/737
f 383/783/737 412/782/736 411/784/738
f 383/783/737 411/784/738 384/785/739
f 384/785/739 411/784/738 410/786/740
f 384/785/739 410/786/740 385/787/741
f 385/787/741 410/786/740 409/788/742
f 385/787/741 409/788/742 386/789/743
f 386/789/743 409/788/742 408/790/744
f 386/789/743 408/790/744 387/791/745
f 387/791/745 408/790/744 407/792/746
f 387/791/745 407/792/746 388/793/747
f 388/793/747 407/792/746 406/794/748
f 388/793/747 406/794/748 389/795/749
f 389/795/749 406/794/748 405/796/750
f 389/795/749 405/796/750 390/797/751
f 390/797/751 405/796/750 404/798/752
f 390/797/751 404/798/752 391/799/753
f 391/799/753 404/798/752 403/800/754
f 391/799/753 403/800/754 392/801/755
f 392/801/755 403/800/754 402/802/756
f 392/801/755 402/802/756 393/803/757
f 393/803/757 402/802/756 401/804/758
f 393/803/757 401/804/758 394/805/759
f 394/805/759 401/804/758 400/806/760
f 394/805/759 400/806/760 395/807/761
f 395/807/761 400/806/760 399/808/762
f 395/807/761 399/808/762 396/731/687
f 396/731/687 399/808/762 398/732/688
f 272/809/763 434/738/692 235/810/764
f 235/810/764 434/738/692 397/736/690
f 235/811/764 397/734/690 236/812/765
f 236/812/765 397/734/690 398/732/688
f 236/812/765 398/732/688 237/813/766
f 237/813/766 398/732/688 399/808/762
f 237/813/766 399/808/762 238/814/767
f 238/814/767 399/808/762 400/806/760
f 238/814/767 400/806/760 239/815/768
f 239/815/768 400/806/760 401/804/758
f 239/815/768 401/804/758 240/816/769
f 240/816/769 401/804/758 402/802/756
f 240/816/769 402/802/756 241/817/770
f 241/817/770 402/802/756 403/800/754
f 241/817/770 403/800/754 242/818/771
f 242/818/771 403/800/754 404/798/752
f 242/818/771 404/798/752 243/819/772
f 243/819/772 404/798/752 405/796/750
f 243/819/772 405/796/750 244/820/773
f 244/820/773 405/796/750 406/794/748
f 244/820/773 406/794/748 245/821/774
f 245/821/774 406/794/748 407/792/746
f 245/821/774 407/792/746 246/822/775
f 246/822/775 407/792/746 408/790/744
f 246/822/775 408/790/744 247/823/776
f 247/823/776 408/790/744 409/788/742
f 247/823/776 409/788/742 248/824/777
f 248/824/777 409/788/742 410/786/740
f 248/824/777 410/786/740 249/825/778
f 249/825/778 410/786/740 411/784/738
f 249/825/778 411/784/738 250/826/779
f 250/826/779 411/784/738 412/782/736
f 250/826/779 412/782/736 251/827/780
f 251/827/780 412/782/736 413/780/734
f 251/827/780 413/780/734 252/828/781
f 252/828/781 413/780/734 414/778/732
f 252/828/781 414/778/732 253/829/782
f 253/829/782 414/778/732 415/776/730
f 253/829/782 415/776/730 254/830/783
f 254/830/783 415/776/730 416/774/728
f 254/830/783 416/774/728 255/831/784
f 255/831/784 416/774/728 417/772/726
f 255/831/784 417/772/726 256/832/785
f 256/832/785 417/772/726 418/770/724
f 256/832/785 418/770/724 257/833/786
f 257/833/786 418/770/724 419/768/722
f 257/833/786 419/768/722 258/834/787
f 258/834/787 419/768/722 420/766/720
f 258/834/787 420/766/720 259/835/788
f 259/835/788 420/766/720 421/764/718
f 259/835/788 421/764/718 260/836/789
f 260/836/789 421/764/718 422/762/716
f 260/836/789 422/762/716 261/837/790
f 261/837/790 422/762/716 423/760/714
f 261/837/790 423/760/714 262/838/791
f 262/838/791 423/760/714 424/758/712
f 262/838/791 424/758/712 263/839/792
f 263/839/792 424/758/712 425/756/710
f 263/839/792 425/756/710 264/840/793
f 264/840/793 425/756/710 426/754/708
f 264/840/793 426/754/708 265/841/794
f 265/841/794 426/754/708 427/752/706
f 265/841/794 427/752/706 266/842/795
f 266/842/795 427/752/706 428/750/704
f 266/842/795 428/750/704 267/843/796
f 267/843/796 428/750/704 429/748/702
f 267/843/796 429/748/702 268/844/797
f 268/844/797 429/748/702 430/746/700
f 268/844/797 430/746/700 269/845/798
f 269/845/798 430/746/700 431/744/698
f 269/845/798 431/744/698 270/846/799
f 270/846/799 431/744/698 432/742/696
f 270/846/799 432/742/696 271/847/800
f 271/847/800 432/742/696 433/740/694
f 271/847/800 433/740/694 272/809/763
f 272/809/763 433/740/694 434/738/692
# 434 vertices
# 847 texture params
# 800 normals
# 868 facets

# 1 groups
