# WaveFront *.obj file (generated by Autodesk ATF)

mtllib body27_visual.mtl

g Body27

v -3.742710 -4.050106 4.790006
v -3.604010 -4.023514 4.790006
v -3.471177 -3.975553 4.790006
v -3.347482 -3.907402 4.790006
v -3.235972 -3.820741 4.790006
v -3.139391 -3.717702 4.790006
v -3.060118 -3.600823 4.790006
v -3.000105 -3.472982 4.790006
v -2.960829 -3.337327 4.790006
v -2.943258 -3.197198 4.790006
v -2.947825 -3.056045 4.790006
v -2.974416 -2.917345 4.790006
v -3.022377 -2.784512 4.790006
v -3.090528 -2.660817 4.790006
v -3.177190 -2.549306 4.790006
v -3.280229 -2.452725 4.790006
v -3.397108 -2.373452 4.790006
v -3.524948 -2.313439 4.790006
v -3.660604 -2.274164 4.790006
v -3.800733 -2.256593 4.790006
v -3.941885 -2.261159 4.790006
v -4.080586 -2.287751 4.790006
v -4.213418 -2.335712 4.790006
v -4.337113 -2.403863 4.790006
v -4.448624 -2.490524 4.790006
v -4.545205 -2.593563 4.790006
v -4.624478 -2.710442 4.790006
v -4.684491 -2.838283 4.790006
v -4.723767 -2.973938 4.790006
v -4.741337 -3.114067 4.790006
v -4.736771 -3.255220 4.790006
v -4.710180 -3.393920 4.790006
v -4.662218 -3.526753 4.790006
v -4.594068 -3.650448 4.790006
v -4.507406 -3.761959 4.790006
v -4.404367 -3.858540 4.790006
v -4.287488 -3.937813 4.790006
v -4.159647 -3.997826 4.790006
v -4.023992 -4.037101 4.790006
v -3.883863 -4.054672 4.790006
v -3.742710 -4.050106 11.590006
v -3.883863 -4.054672 11.590006
v -4.023992 -4.037101 11.590006
v -4.159647 -3.997826 11.590006
v -4.287488 -3.937813 11.590006
v -4.404367 -3.858540 11.590006
v -4.507406 -3.761959 11.590006
v -4.594068 -3.650448 11.590006
v -4.662218 -3.526753 11.590006
v -4.710180 -3.393920 11.590006
v -4.736771 -3.255220 11.590006
v -4.741337 -3.114067 11.590006
v -4.723767 -2.973938 11.590006
v -4.684491 -2.838283 11.590006
v -4.624478 -2.710442 11.590006
v -4.545205 -2.593563 11.590006
v -4.448624 -2.490524 11.590006
v -4.337113 -2.403863 11.590006
v -4.213418 -2.335712 11.590006
v -4.080586 -2.287751 11.590006
v -3.941885 -2.261159 11.590006
v -3.800733 -2.256593 11.590006
v -3.660604 -2.274164 11.590006
v -3.524948 -2.313439 11.590006
v -3.397108 -2.373452 11.590006
v -3.280229 -2.452725 11.590006
v -3.177190 -2.549306 11.590006
v -3.090528 -2.660817 11.590006
v -3.022377 -2.784512 11.590006
v -2.974416 -2.917345 11.590006
v -2.947825 -3.056045 11.590006
v -2.943258 -3.197198 11.590006
v -2.960829 -3.337327 11.590006
v -3.000105 -3.472982 11.590006
v -3.060118 -3.600823 11.590006
v -3.139391 -3.717702 11.590006
v -3.235972 -3.820741 11.590006
v -3.347482 -3.907402 11.590006
v -3.471177 -3.975553 11.590006
v -3.604010 -4.023514 11.590006
v -3.941885 -2.261159 7.056673
v -3.941885 -2.261159 9.323340
v -3.604010 -4.023514 7.056673
v -3.604010 -4.023514 9.323340
v -3.742710 -4.050106 9.323340
v -3.742710 -4.050106 7.056673
v -3.471177 -3.975553 7.056673
v -3.471177 -3.975553 9.323340
v -3.347482 -3.907402 7.056673
v -3.347482 -3.907402 9.323340
v -3.235972 -3.820741 7.056673
v -3.235972 -3.820741 9.323340
v -3.139391 -3.717702 7.056673
v -3.139391 -3.717702 9.323340
v -3.060118 -3.600823 7.056673
v -3.060118 -3.600823 9.323340
v -3.000105 -3.472982 7.056673
v -3.000105 -3.472982 9.323340
v -2.960829 -3.337327 7.056673
v -2.960829 -3.337327 9.323340
v -2.943258 -3.197198 7.056673
v -2.943258 -3.197198 9.323340
v -2.947825 -3.056045 7.056673
v -2.947825 -3.056045 9.323340
v -2.974416 -2.917345 7.056673
v -2.974416 -2.917345 9.323340
v -3.022377 -2.784512 7.056673
v -3.022377 -2.784512 9.323340
v -3.090528 -2.660817 7.056673
v -3.090528 -2.660817 9.323340
v -3.177190 -2.549306 7.056673
v -3.177190 -2.549306 9.323340
v -3.280229 -2.452725 7.056673
v -3.280229 -2.452725 9.323340
v -3.397108 -2.373452 7.056673
v -3.397108 -2.373452 9.323340
v -3.524948 -2.313439 7.056673
v -3.524948 -2.313439 9.323340
v -3.660604 -2.274164 7.056673
v -3.660604 -2.274164 9.323340
v -3.800733 -2.256593 7.056673
v -3.800733 -2.256593 9.323340
v -4.080586 -2.287751 7.056673
v -4.080586 -2.287751 9.323340
v -4.213418 -2.335712 7.056673
v -4.213418 -2.335712 9.323340
v -4.337113 -2.403863 7.056673
v -4.337113 -2.403863 9.323340
v -4.448624 -2.490524 7.056673
v -4.448624 -2.490524 9.323340
v -4.545205 -2.593563 7.056673
v -4.545205 -2.593563 9.323340
v -4.624478 -2.710442 7.056673
v -4.624478 -2.710442 9.323340
v -4.684491 -2.838283 7.056673
v -4.684491 -2.838283 9.323340
v -4.723767 -2.973938 7.056673
v -4.723767 -2.973938 9.323340
v -4.741337 -3.114067 7.056673
v -4.741337 -3.114067 9.323340
v -4.736771 -3.255220 7.056673
v -4.736771 -3.255220 9.323340
v -4.710180 -3.393920 7.056673
v -4.710180 -3.393920 9.323340
v -4.662218 -3.526753 7.056673
v -4.662218 -3.526753 9.323340
v -4.594068 -3.650448 7.056673
v -4.594068 -3.650448 9.323340
v -4.507406 -3.761959 7.056673
v -4.507406 -3.761959 9.323340
v -4.404367 -3.858540 7.056673
v -4.404367 -3.858540 9.323340
v -4.287488 -3.937813 7.056673
v -4.287488 -3.937813 9.323340
v -4.159647 -3.997826 7.056673
v -4.159647 -3.997826 9.323340
v -4.023992 -4.037101 7.056673
v -4.023992 -4.037101 9.323340
v -3.883863 -4.054672 7.056673
v -3.883863 -4.054672 9.323340
vt -0.000000 -0.141372 0.000000
vt 2.266667 -0.141372 0.000000
vt -0.000000 -0.000000 0.000000
vt 2.266667 -0.000000 0.000000
vt 0.000000 0.141372 0.000000
vt 2.266667 0.141372 0.000000
vt 0.000000 0.282743 0.000000
vt 2.266667 0.282743 0.000000
vt -0.000000 0.424115 0.000000
vt 2.266667 0.424115 0.000000
vt 0.000000 0.565487 0.000000
vt 2.266667 0.565487 0.000000
vt -0.000000 0.706858 0.000000
vt 2.266667 0.706858 0.000000
vt -0.000000 0.848230 0.000000
vt 2.266667 0.848230 0.000000
vt -0.000000 0.989602 0.000000
vt 2.266667 0.989602 0.000000
vt -0.000000 1.130973 0.000000
vt 2.266667 1.130973 0.000000
vt 0.000000 1.272345 0.000000
vt 2.266667 1.272345 0.000000
vt 0.000000 1.413717 0.000000
vt 2.266667 1.413717 0.000000
vt 0.000000 1.555088 0.000000
vt 2.266667 1.555088 0.000000
vt 0.000000 1.696460 0.000000
vt 2.266667 1.696460 0.000000
vt -0.000000 1.837832 0.000000
vt 2.266667 1.837832 0.000000
vt -0.000000 1.979203 0.000000
vt 2.266667 1.979203 0.000000
vt 0.000000 2.120575 0.000000
vt 2.266667 2.120575 0.000000
vt -0.000000 2.261947 0.000000
vt 2.266667 2.261947 0.000000
vt 0.000000 2.403318 0.000000
vt 2.266667 2.403318 0.000000
vt -0.000000 2.544690 0.000000
vt 2.266667 2.544690 0.000000
vt 0.000000 2.686062 0.000000
vt 2.266667 2.686062 0.000000
vt 0.000000 2.827433 0.000000
vt 2.266667 2.827433 0.000000
vt 0.000000 -2.827433 0.000000
vt 2.266667 -2.827433 0.000000
vt -0.000000 -2.686062 0.000000
vt 2.266667 -2.686062 0.000000
vt -0.000000 -2.544690 0.000000
vt 2.266667 -2.544690 0.000000
vt 0.000000 -2.403318 0.000000
vt 2.266667 -2.403318 0.000000
vt -0.000000 -2.261947 0.000000
vt 2.266667 -2.261947 0.000000
vt 0.000000 -2.120575 0.000000
vt 2.266667 -2.120575 0.000000
vt 0.000000 -1.979203 0.000000
vt 2.266667 -1.979203 0.000000
vt 0.000000 -1.837832 0.000000
vt 2.266667 -1.837832 0.000000
vt 0.000000 -1.696460 0.000000
vt 2.266667 -1.696460 0.000000
vt -0.000000 -1.555088 0.000000
vt 2.266667 -1.555088 0.000000
vt -0.000000 -1.413717 0.000000
vt 2.266667 -1.413717 0.000000
vt -0.000000 -1.272345 0.000000
vt 2.266667 -1.272345 0.000000
vt -0.000000 -1.130973 0.000000
vt 2.266667 -1.130973 0.000000
vt 0.000000 -0.989602 0.000000
vt 2.266667 -0.989602 0.000000
vt 0.000000 -0.848230 0.000000
vt 2.266667 -0.848230 0.000000
vt -0.000000 -0.706858 0.000000
vt 2.266667 -0.706858 0.000000
vt 0.000000 -0.565487 0.000000
vt 2.266667 -0.565487 0.000000
vt -0.000000 -0.424115 0.000000
vt 2.266667 -0.424115 0.000000
vt 0.000000 -0.282743 0.000000
vt 2.266667 -0.282743 0.000000
vt 6.800000 0.141372 0.000000
vt 4.533333 0.141372 0.000000
vt 6.800000 -0.000000 0.000000
vt 4.533333 -0.000000 0.000000
vt 6.800000 -0.141372 0.000000
vt 4.533333 -0.141372 0.000000
vt 6.800000 -0.282743 0.000000
vt 4.533333 -0.282743 0.000000
vt 6.800000 -0.424115 0.000000
vt 4.533333 -0.424115 0.000000
vt 6.800000 -0.565487 0.000000
vt 4.533333 -0.565487 0.000000
vt 6.800000 -0.706858 0.000000
vt 4.533333 -0.706858 0.000000
vt 6.800000 -0.848230 0.000000
vt 4.533333 -0.848230 0.000000
vt 6.800000 -0.989602 0.000000
vt 4.533333 -0.989602 0.000000
vt 6.800000 -1.130973 0.000000
vt 4.533333 -1.130973 0.000000
vt 6.800000 -1.272345 0.000000
vt 4.533333 -1.272345 0.000000
vt 6.800000 -1.413717 0.000000
vt 4.533333 -1.413717 0.000000
vt 6.800000 -1.555088 0.000000
vt 4.533333 -1.555088 0.000000
vt 6.800000 -1.696460 0.000000
vt 4.533333 -1.696460 0.000000
vt 6.800000 -1.837832 0.000000
vt 4.533333 -1.837832 0.000000
vt 6.800000 -1.979203 0.000000
vt 4.533333 -1.979203 0.000000
vt 6.800000 -2.120575 0.000000
vt 4.533333 -2.120575 0.000000
vt 6.800000 -2.261947 0.000000
vt 4.533333 -2.261947 0.000000
vt 6.800000 -2.403318 0.000000
vt 4.533333 -2.403318 0.000000
vt 6.800000 -2.544690 0.000000
vt 4.533333 -2.544690 0.000000
vt 6.800000 -2.686062 0.000000
vt 4.533333 -2.686062 0.000000
vt 6.800000 -2.827433 0.000000
vt 4.533333 -2.827433 0.000000
vt 6.800000 2.827433 0.000000
vt 4.533333 2.827433 0.000000
vt 6.800000 2.686062 0.000000
vt 4.533333 2.686062 0.000000
vt 6.800000 2.544690 0.000000
vt 4.533333 2.544690 0.000000
vt 6.800000 2.403318 0.000000
vt 4.533333 2.403318 0.000000
vt 6.800000 2.261947 0.000000
vt 4.533333 2.261947 0.000000
vt 6.800000 2.120575 0.000000
vt 4.533333 2.120575 0.000000
vt 6.800000 1.979203 0.000000
vt 4.533333 1.979203 0.000000
vt 6.800000 1.837832 0.000000
vt 4.533333 1.837832 0.000000
vt 6.800000 1.696460 0.000000
vt 4.533333 1.696460 0.000000
vt 6.800000 1.555088 0.000000
vt 4.533333 1.555088 0.000000
vt 6.800000 1.413717 0.000000
vt 4.533333 1.413717 0.000000
vt 6.800000 1.272345 0.000000
vt 4.533333 1.272345 0.000000
vt 6.800000 1.130973 0.000000
vt 4.533333 1.130973 0.000000
vt 6.800000 0.989602 0.000000
vt 4.533333 0.989602 0.000000
vt 6.800000 0.848230 0.000000
vt 4.533333 0.848230 0.000000
vt 6.800000 0.706858 0.000000
vt 4.533333 0.706858 0.000000
vt 6.800000 0.565487 0.000000
vt 4.533333 0.565487 0.000000
vt 6.800000 0.424115 0.000000
vt 4.533333 0.424115 0.000000
vt 6.800000 0.282743 0.000000
vt 4.533333 0.282743 0.000000
vt -0.000000 -0.900000 0.000000
vt 0.140791 -0.888920 0.000000
vt -0.140791 -0.888920 0.000000
vt -0.278115 -0.855951 0.000000
vt 0.278115 -0.855951 0.000000
vt -0.408591 -0.801906 0.000000
vt 0.408591 -0.801906 0.000000
vt -0.529007 -0.728115 0.000000
vt 0.529007 -0.728115 0.000000
vt -0.636396 -0.636396 0.000000
vt 0.636396 -0.636396 0.000000
vt -0.728115 -0.529007 0.000000
vt 0.728115 -0.529007 0.000000
vt -0.801906 -0.408591 0.000000
vt 0.801906 -0.408591 0.000000
vt -0.855951 -0.278115 0.000000
vt 0.855951 -0.278115 0.000000
vt -0.888920 -0.140791 0.000000
vt 0.888920 -0.140791 0.000000
vt -0.900000 0.000000 0.000000
vt 0.900000 -0.000000 0.000000
vt -0.888920 0.140791 0.000000
vt 0.888920 0.140791 0.000000
vt -0.855951 0.278115 0.000000
vt 0.855951 0.278115 0.000000
vt -0.801906 0.408591 0.000000
vt 0.801906 0.408591 0.000000
vt -0.728115 0.529007 0.000000
vt 0.728115 0.529007 0.000000
vt -0.636396 0.636396 0.000000
vt 0.636396 0.636396 0.000000
vt -0.529007 0.728115 0.000000
vt 0.529007 0.728115 0.000000
vt -0.408591 0.801906 0.000000
vt 0.408591 0.801906 0.000000
vt -0.278115 0.855951 0.000000
vt 0.278115 0.855951 0.000000
vt -0.140791 0.888920 0.000000
vt 0.140791 0.888920 0.000000
vt 0.000000 0.900000 0.000000
vt -0.000000 -0.900000 0.000000
vt 0.140791 -0.888920 0.000000
vt -0.140791 -0.888920 0.000000
vt -0.278115 -0.855951 0.000000
vt 0.278115 -0.855951 0.000000
vt -0.408591 -0.801906 0.000000
vt 0.408591 -0.801906 0.000000
vt -0.529007 -0.728115 0.000000
vt 0.529007 -0.728115 0.000000
vt -0.636396 -0.636396 0.000000
vt 0.636396 -0.636396 0.000000
vt -0.728115 -0.529007 0.000000
vt 0.728115 -0.529007 0.000000
vt -0.801906 -0.408591 0.000000
vt 0.801906 -0.408591 0.000000
vt -0.855951 -0.278115 0.000000
vt 0.855951 -0.278115 0.000000
vt -0.888920 -0.140791 0.000000
vt 0.888920 -0.140791 0.000000
vt -0.900000 -0.000000 0.000000
vt 0.900000 0.000000 0.000000
vt -0.888920 0.140791 0.000000
vt 0.888920 0.140791 0.000000
vt -0.855951 0.278115 0.000000
vt 0.855951 0.278115 0.000000
vt -0.801906 0.408591 0.000000
vt 0.801906 0.408591 0.000000
vt -0.728115 0.529007 0.000000
vt 0.728115 0.529007 0.000000
vt -0.636396 0.636396 0.000000
vt 0.636396 0.636396 0.000000
vt -0.529007 0.728115 0.000000
vt 0.529007 0.728115 0.000000
vt -0.408591 0.801906 0.000000
vt 0.408591 0.801906 0.000000
vt -0.278115 0.855951 0.000000
vt 0.278115 0.855951 0.000000
vt -0.140791 0.888920 0.000000
vt 0.140791 0.888920 0.000000
vt -0.000000 0.900000 0.000000
vn 0.264764 -0.964313 0.000000
vn 0.264764 -0.964313 0.000000
vn 0.110653 -0.993859 0.000000
vn 0.110653 -0.993859 0.000000
vn -0.046183 -0.998933 0.000000
vn -0.046183 -0.998933 0.000000
vn -0.201882 -0.979410 0.000000
vn -0.201882 -0.979410 0.000000
vn -0.352610 -0.935770 0.000000
vn -0.352610 -0.935770 0.000000
vn -0.494656 -0.869089 0.000000
vn -0.494656 -0.869089 0.000000
vn -0.624521 -0.781008 0.000000
vn -0.624521 -0.781008 0.000000
vn -0.739009 -0.673696 0.000000
vn -0.739009 -0.673696 0.000000
vn -0.835300 -0.549795 0.000000
vn -0.835300 -0.549795 0.000000
vn -0.911023 -0.412356 -0.000000
vn -0.911023 -0.412356 -0.000000
vn -0.964313 -0.264764 -0.000000
vn -0.964313 -0.264764 -0.000000
vn -0.993859 -0.110653 -0.000000
vn -0.993859 -0.110653 -0.000000
vn -0.998933 0.046183 -0.000000
vn -0.998933 0.046183 -0.000000
vn -0.979410 0.201882 -0.000000
vn -0.979410 0.201882 -0.000000
vn -0.935770 0.352610 -0.000000
vn -0.935770 0.352610 -0.000000
vn -0.869089 0.494656 -0.000000
vn -0.869089 0.494656 -0.000000
vn -0.781008 0.624521 -0.000000
vn -0.781008 0.624521 -0.000000
vn -0.673696 0.739009 -0.000000
vn -0.673696 0.739009 -0.000000
vn -0.549795 0.835300 -0.000000
vn -0.549795 0.835300 -0.000000
vn -0.412356 0.911023 -0.000000
vn -0.412356 0.911023 -0.000000
vn -0.264764 0.964313 -0.000000
vn -0.264764 0.964313 -0.000000
vn -0.110653 0.993859 -0.000000
vn -0.110653 0.993859 -0.000000
vn 0.046183 0.998933 -0.000000
vn 0.046183 0.998933 -0.000000
vn 0.201882 0.979410 -0.000000
vn 0.201882 0.979410 -0.000000
vn 0.352610 0.935770 -0.000000
vn 0.352610 0.935770 -0.000000
vn 0.494656 0.869089 -0.000000
vn 0.494656 0.869089 -0.000000
vn 0.624521 0.781008 -0.000000
vn 0.624521 0.781008 -0.000000
vn 0.739009 0.673696 -0.000000
vn 0.739009 0.673696 -0.000000
vn 0.835300 0.549795 -0.000000
vn 0.835300 0.549795 -0.000000
vn 0.911023 0.412356 0.000000
vn 0.911023 0.412356 0.000000
vn 0.964313 0.264764 0.000000
vn 0.964313 0.264764 0.000000
vn 0.993859 0.110653 0.000000
vn 0.993859 0.110653 0.000000
vn 0.998933 -0.046183 0.000000
vn 0.998933 -0.046183 0.000000
vn 0.979410 -0.201882 0.000000
vn 0.979410 -0.201882 0.000000
vn 0.935770 -0.352610 0.000000
vn 0.935770 -0.352610 0.000000
vn 0.869089 -0.494656 0.000000
vn 0.869089 -0.494656 0.000000
vn 0.781008 -0.624521 0.000000
vn 0.781008 -0.624521 0.000000
vn 0.673696 -0.739009 0.000000
vn 0.673696 -0.739009 0.000000
vn 0.549795 -0.835300 0.000000
vn 0.549795 -0.835300 0.000000
vn 0.412356 -0.911023 0.000000
vn 0.412356 -0.911023 0.000000
vn -0.046183 -0.998933 0.000000
vn -0.046183 -0.998933 0.000000
vn 0.110653 -0.993859 0.000000
vn 0.110653 -0.993859 0.000000
vn 0.264764 -0.964313 0.000000
vn 0.264764 -0.964313 0.000000
vn 0.412356 -0.911023 0.000000
vn 0.412356 -0.911023 0.000000
vn 0.549795 -0.835300 0.000000
vn 0.549795 -0.835300 0.000000
vn 0.673696 -0.739009 0.000000
vn 0.673696 -0.739009 0.000000
vn 0.781008 -0.624521 0.000000
vn 0.781008 -0.624521 0.000000
vn 0.869089 -0.494656 0.000000
vn 0.869089 -0.494656 0.000000
vn 0.935770 -0.352610 0.000000
vn 0.935770 -0.352610 0.000000
vn 0.979410 -0.201882 0.000000
vn 0.979410 -0.201882 0.000000
vn 0.998933 -0.046183 0.000000
vn 0.998933 -0.046183 0.000000
vn 0.993859 0.110653 0.000000
vn 0.993859 0.110653 0.000000
vn 0.964313 0.264764 0.000000
vn 0.964313 0.264764 0.000000
vn 0.911023 0.412356 0.000000
vn 0.911023 0.412356 0.000000
vn 0.835300 0.549795 -0.000000
vn 0.835300 0.549795 -0.000000
vn 0.739009 0.673696 -0.000000
vn 0.739009 0.673696 -0.000000
vn 0.624521 0.781008 -0.000000
vn 0.624521 0.781008 -0.000000
vn 0.494656 0.869089 -0.000000
vn 0.494656 0.869089 -0.000000
vn 0.352610 0.935770 -0.000000
vn 0.352610 0.935770 -0.000000
vn 0.201882 0.979410 -0.000000
vn 0.201882 0.979410 -0.000000
vn 0.046183 0.998933 -0.000000
vn 0.046183 0.998933 -0.000000
vn -0.110653 0.993859 -0.000000
vn -0.110653 0.993859 -0.000000
vn -0.264764 0.964313 -0.000000
vn -0.264764 0.964313 -0.000000
vn -0.412356 0.911023 -0.000000
vn -0.412356 0.911023 -0.000000
vn -0.549795 0.835300 -0.000000
vn -0.549795 0.835300 -0.000000
vn -0.673696 0.739009 -0.000000
vn -0.673696 0.739009 -0.000000
vn -0.781008 0.624521 -0.000000
vn -0.781008 0.624521 -0.000000
vn -0.869089 0.494656 -0.000000
vn -0.869089 0.494656 -0.000000
vn -0.935770 0.352610 -0.000000
vn -0.935770 0.352610 -0.000000
vn -0.979410 0.201882 -0.000000
vn -0.979410 0.201882 -0.000000
vn -0.998933 0.046183 -0.000000
vn -0.998933 0.046183 -0.000000
vn -0.993859 -0.110653 -0.000000
vn -0.993859 -0.110653 -0.000000
vn -0.964313 -0.264764 -0.000000
vn -0.964313 -0.264764 -0.000000
vn -0.911023 -0.412356 -0.000000
vn -0.911023 -0.412356 -0.000000
vn -0.835300 -0.549795 0.000000
vn -0.835300 -0.549795 0.000000
vn -0.739009 -0.673696 0.000000
vn -0.739009 -0.673696 0.000000
vn -0.624521 -0.781008 0.000000
vn -0.624521 -0.781008 0.000000
vn -0.494656 -0.869089 0.000000
vn -0.494656 -0.869089 0.000000
vn -0.352610 -0.935770 0.000000
vn -0.352610 -0.935770 0.000000
vn -0.201882 -0.979410 0.000000
vn -0.201882 -0.979410 0.000000
vn 0.000000 -0.000000 -1.000000
vn 0.000000 -0.000000 -1.000000
vn 0.000000 -0.000000 -1.000000
vn 0.000000 -0.000000 -1.000000
vn 0.000000 -0.000000 -1.000000
vn 0.000000 -0.000000 -1.000000
vn 0.000000 -0.000000 -1.000000
vn 0.000000 -0.000000 -1.000000
vn 0.000000 -0.000000 -1.000000
vn 0.000000 -0.000000 -1.000000
vn 0.000000 -0.000000 -1.000000
vn 0.000000 -0.000000 -1.000000
vn 0.000000 -0.000000 -1.000000
vn 0.000000 -0.000000 -1.000000
vn 0.000000 -0.000000 -1.000000
vn 0.000000 -0.000000 -1.000000
vn 0.000000 -0.000000 -1.000000
vn 0.000000 -0.000000 -1.000000
vn 0.000000 -0.000000 -1.000000
vn 0.000000 -0.000000 -1.000000
vn 0.000000 -0.000000 -1.000000
vn 0.000000 -0.000000 -1.000000
vn 0.000000 -0.000000 -1.000000
vn 0.000000 -0.000000 -1.000000
vn 0.000000 -0.000000 -1.000000
vn 0.000000 -0.000000 -1.000000
vn 0.000000 -0.000000 -1.000000
vn 0.000000 -0.000000 -1.000000
vn 0.000000 -0.000000 -1.000000
vn 0.000000 -0.000000 -1.000000
vn 0.000000 -0.000000 -1.000000
vn 0.000000 -0.000000 -1.000000
vn 0.000000 -0.000000 -1.000000
vn 0.000000 -0.000000 -1.000000
vn 0.000000 -0.000000 -1.000000
vn 0.000000 -0.000000 -1.000000
vn 0.000000 -0.000000 -1.000000
vn 0.000000 -0.000000 -1.000000
vn 0.000000 -0.000000 -1.000000
vn 0.000000 -0.000000 -1.000000
vn -0.000000 0.000000 1.000000
vn -0.000000 0.000000 1.000000
vn -0.000000 0.000000 1.000000
vn -0.000000 0.000000 1.000000
vn -0.000000 0.000000 1.000000
vn -0.000000 0.000000 1.000000
vn -0.000000 0.000000 1.000000
vn -0.000000 0.000000 1.000000
vn -0.000000 0.000000 1.000000
vn -0.000000 0.000000 1.000000
vn -0.000000 0.000000 1.000000
vn -0.000000 0.000000 1.000000
vn -0.000000 0.000000 1.000000
vn -0.000000 0.000000 1.000000
vn -0.000000 0.000000 1.000000
vn -0.000000 0.000000 1.000000
vn -0.000000 0.000000 1.000000
vn -0.000000 0.000000 1.000000
vn -0.000000 0.000000 1.000000
vn -0.000000 0.000000 1.000000
vn -0.000000 0.000000 1.000000
vn -0.000000 0.000000 1.000000
vn -0.000000 0.000000 1.000000
vn -0.000000 0.000000 1.000000
vn -0.000000 0.000000 1.000000
vn -0.000000 0.000000 1.000000
vn -0.000000 0.000000 1.000000
vn -0.000000 0.000000 1.000000
vn -0.000000 0.000000 1.000000
vn -0.000000 0.000000 1.000000
vn -0.000000 0.000000 1.000000
vn -0.000000 0.000000 1.000000
vn -0.000000 0.000000 1.000000
vn -0.000000 0.000000 1.000000
vn -0.000000 0.000000 1.000000
vn -0.000000 0.000000 1.000000
vn -0.000000 0.000000 1.000000
vn -0.000000 0.000000 1.000000
vn -0.000000 0.000000 1.000000
vn -0.000000 0.000000 1.000000
usemtl Opaque(131,188,104)
f 2/1/1 83/2/2 1/3/3
f 1/3/3 83/2/2 86/4/4
f 1/3/3 86/4/4 40/5/5
f 40/5/5 86/4/4 159/6/6
f 40/5/5 159/6/6 39/7/7
f 39/7/7 159/6/6 157/8/8
f 39/7/7 157/8/8 38/9/9
f 38/9/9 157/8/8 155/10/10
f 38/9/9 155/10/10 37/11/11
f 37/11/11 155/10/10 153/12/12
f 37/11/11 153/12/12 36/13/13
f 36/13/13 153/12/12 151/14/14
f 36/13/13 151/14/14 35/15/15
f 35/15/15 151/14/14 149/16/16
f 35/15/15 149/16/16 34/17/17
f 34/17/17 149/16/16 147/18/18
f 34/17/17 147/18/18 33/19/19
f 33/19/19 147/18/18 145/20/20
f 33/19/19 145/20/20 32/21/21
f 32/21/21 145/20/20 143/22/22
f 32/21/21 143/22/22 31/23/23
f 31/23/23 143/22/22 141/24/24
f 31/23/23 141/24/24 30/25/25
f 30/25/25 141/24/24 139/26/26
f 30/25/25 139/26/26 29/27/27
f 29/27/27 139/26/26 137/28/28
f 29/27/27 137/28/28 28/29/29
f 28/29/29 137/28/28 135/30/30
f 28/29/29 135/30/30 27/31/31
f 27/31/31 135/30/30 133/32/32
f 27/31/31 133/32/32 26/33/33
f 26/33/33 133/32/32 131/34/34
f 26/33/33 131/34/34 25/35/35
f 25/35/35 131/34/34 129/36/36
f 25/35/35 129/36/36 24/37/37
f 24/37/37 129/36/36 127/38/38
f 24/37/37 127/38/38 23/39/39
f 23/39/39 127/38/38 125/40/40
f 23/39/39 125/40/40 22/41/41
f 22/41/41 125/40/40 123/42/42
f 22/41/41 123/42/42 21/43/43
f 21/43/43 123/42/42 81/44/44
f 21/45/43 81/46/44 20/47/45
f 20/47/45 81/46/44 121/48/46
f 20/47/45 121/48/46 19/49/47
f 19/49/47 121/48/46 119/50/48
f 19/49/47 119/50/48 18/51/49
f 18/51/49 119/50/48 117/52/50
f 18/51/49 117/52/50 17/53/51
f 17/53/51 117/52/50 115/54/52
f 17/53/51 115/54/52 16/55/53
f 16/55/53 115/54/52 113/56/54
f 16/55/53 113/56/54 15/57/55
f 15/57/55 113/56/54 111/58/56
f 15/57/55 111/58/56 14/59/57
f 14/59/57 111/58/56 109/60/58
f 14/59/57 109/60/58 13/61/59
f 13/61/59 109/60/58 107/62/60
f 13/61/59 107/62/60 12/63/61
f 12/63/61 107/62/60 105/64/62
f 12/63/61 105/64/62 11/65/63
f 11/65/63 105/64/62 103/66/64
f 11/65/63 103/66/64 10/67/65
f 10/67/65 103/66/64 101/68/66
f 10/67/65 101/68/66 9/69/67
f 9/69/67 101/68/66 99/70/68
f 9/69/67 99/70/68 8/71/69
f 8/71/69 99/70/68 97/72/70
f 8/71/69 97/72/70 7/73/71
f 7/73/71 97/72/70 95/74/72
f 7/73/71 95/74/72 6/75/73
f 6/75/73 95/74/72 93/76/74
f 6/75/73 93/76/74 5/77/75
f 5/77/75 93/76/74 91/78/76
f 5/77/75 91/78/76 4/79/77
f 4/79/77 91/78/76 89/80/78
f 4/79/77 89/80/78 3/81/79
f 3/81/79 89/80/78 87/82/80
f 3/81/79 87/82/80 2/1/1
f 2/1/1 87/82/80 83/2/2
f 42/83/81 160/84/82 41/85/83
f 41/85/83 160/84/82 85/86/84
f 41/85/83 85/86/84 80/87/85
f 80/87/85 85/86/84 84/88/86
f 80/87/85 84/88/86 79/89/87
f 79/89/87 84/88/86 88/90/88
f 79/89/87 88/90/88 78/91/89
f 78/91/89 88/90/88 90/92/90
f 78/91/89 90/92/90 77/93/91
f 77/93/91 90/92/90 92/94/92
f 77/93/91 92/94/92 76/95/93
f 76/95/93 92/94/92 94/96/94
f 76/95/93 94/96/94 75/97/95
f 75/97/95 94/96/94 96/98/96
f 75/97/95 96/98/96 74/99/97
f 74/99/97 96/98/96 98/100/98
f 74/99/97 98/100/98 73/101/99
f 73/101/99 98/100/98 100/102/100
f 73/101/99 100/102/100 72/103/101
f 72/103/101 100/102/100 102/104/102
f 72/103/101 102/104/102 71/105/103
f 71/105/103 102/104/102 104/106/104
f 71/105/103 104/106/104 70/107/105
f 70/107/105 104/106/104 106/108/106
f 70/107/105 106/108/106 69/109/107
f 69/109/107 106/108/106 108/110/108
f 69/109/107 108/110/108 68/111/109
f 68/111/109 108/110/108 110/112/110
f 68/111/109 110/112/110 67/113/111
f 67/113/111 110/112/110 112/114/112
f 67/113/111 112/114/112 66/115/113
f 66/115/113 112/114/112 114/116/114
f 66/115/113 114/116/114 65/117/115
f 65/117/115 114/116/114 116/118/116
f 65/117/115 116/118/116 64/119/117
f 64/119/117 116/118/116 118/120/118
f 64/119/117 118/120/118 63/121/119
f 63/121/119 118/120/118 120/122/120
f 63/121/119 120/122/120 62/123/121
f 62/123/121 120/122/120 122/124/122
f 62/123/121 122/124/122 61/125/123
f 61/125/123 122/124/122 82/126/124
f 61/127/123 82/128/124 60/129/125
f 60/129/125 82/128/124 124/130/126
f 60/129/125 124/130/126 59/131/127
f 59/131/127 124/130/126 126/132/128
f 59/131/127 126/132/128 58/133/129
f 58/133/129 126/132/128 128/134/130
f 58/133/129 128/134/130 57/135/131
f 57/135/131 128/134/130 130/136/132
f 57/135/131 130/136/132 56/137/133
f 56/137/133 130/136/132 132/138/134
f 56/137/133 132/138/134 55/139/135
f 55/139/135 132/138/134 134/140/136
f 55/139/135 134/140/136 54/141/137
f 54/141/137 134/140/136 136/142/138
f 54/141/137 136/142/138 53/143/139
f 53/143/139 136/142/138 138/144/140
f 53/143/139 138/144/140 52/145/141
f 52/145/141 138/144/140 140/146/142
f 52/145/141 140/146/142 51/147/143
f 51/147/143 140/146/142 142/148/144
f 51/147/143 142/148/144 50/149/145
f 50/149/145 142/148/144 144/150/146
f 50/149/145 144/150/146 49/151/147
f 49/151/147 144/150/146 146/152/148
f 49/151/147 146/152/148 48/153/149
f 48/153/149 146/152/148 148/154/150
f 48/153/149 148/154/150 47/155/151
f 47/155/151 148/154/150 150/156/152
f 47/155/151 150/156/152 46/157/153
f 46/157/153 150/156/152 152/158/154
f 46/157/153 152/158/154 45/159/155
f 45/159/155 152/158/154 154/160/156
f 45/159/155 154/160/156 44/161/157
f 44/161/157 154/160/156 156/162/158
f 44/161/157 156/162/158 43/163/159
f 43/163/159 156/162/158 158/164/160
f 43/163/159 158/164/160 42/83/81
f 42/83/81 158/164/160 160/84/82
f 81/46/44 82/126/124 121/48/46
f 121/48/46 82/126/124 122/124/122
f 121/48/46 122/124/122 119/50/48
f 119/50/48 122/124/122 120/122/120
f 119/50/48 120/122/120 117/52/50
f 117/52/50 120/122/120 118/120/118
f 117/52/50 118/120/118 115/54/52
f 115/54/52 118/120/118 116/118/116
f 115/54/52 116/118/116 113/56/54
f 113/56/54 116/118/116 114/116/114
f 113/56/54 114/116/114 111/58/56
f 111/58/56 114/116/114 112/114/112
f 111/58/56 112/114/112 109/60/58
f 109/60/58 112/114/112 110/112/110
f 109/60/58 110/112/110 107/62/60
f 107/62/60 110/112/110 108/110/108
f 107/62/60 108/110/108 105/64/62
f 105/64/62 108/110/108 106/108/106
f 105/64/62 106/108/106 103/66/64
f 103/66/64 106/108/106 104/106/104
f 103/66/64 104/106/104 101/68/66
f 101/68/66 104/106/104 102/104/102
f 101/68/66 102/104/102 99/70/68
f 99/70/68 102/104/102 100/102/100
f 99/70/68 100/102/100 97/72/70
f 97/72/70 100/102/100 98/100/98
f 97/72/70 98/100/98 95/74/72
f 95/74/72 98/100/98 96/98/96
f 95/74/72 96/98/96 93/76/74
f 93/76/74 96/98/96 94/96/94
f 93/76/74 94/96/94 91/78/76
f 91/78/76 94/96/94 92/94/92
f 91/78/76 92/94/92 89/80/78
f 89/80/78 92/94/92 90/92/90
f 89/80/78 90/92/90 87/82/80
f 87/82/80 90/92/90 88/90/88
f 87/82/80 88/90/88 83/2/2
f 83/2/2 88/90/88 84/88/86
f 83/2/2 84/88/86 86/4/4
f 86/4/4 84/88/86 85/86/84
f 86/4/4 85/86/84 159/6/6
f 159/6/6 85/86/84 160/84/82
f 159/6/6 160/84/82 157/8/8
f 157/8/8 160/84/82 158/164/160
f 157/8/8 158/164/160 155/10/10
f 155/10/10 158/164/160 156/162/158
f 155/10/10 156/162/158 153/12/12
f 153/12/12 156/162/158 154/160/156
f 153/12/12 154/160/156 151/14/14
f 151/14/14 154/160/156 152/158/154
f 151/14/14 152/158/154 149/16/16
f 149/16/16 152/158/154 150/156/152
f 149/16/16 150/156/152 147/18/18
f 147/18/18 150/156/152 148/154/150
f 147/18/18 148/154/150 145/20/20
f 145/20/20 148/154/150 146/152/148
f 145/20/20 146/152/148 143/22/22
f 143/22/22 146/152/148 144/150/146
f 143/22/22 144/150/146 141/24/24
f 141/24/24 144/150/146 142/148/144
f 141/24/24 142/148/144 139/26/26
f 139/26/26 142/148/144 140/146/142
f 139/26/26 140/146/142 137/28/28
f 137/28/28 140/146/142 138/144/140
f 137/28/28 138/144/140 135/30/30
f 135/30/30 138/144/140 136/142/138
f 135/30/30 136/142/138 133/32/32
f 133/32/32 136/142/138 134/140/136
f 133/32/32 134/140/136 131/34/34
f 131/34/34 134/140/136 132/138/134
f 131/34/34 132/138/134 129/36/36
f 129/36/36 132/138/134 130/136/132
f 129/36/36 130/136/132 127/38/38
f 127/38/38 130/136/132 128/134/130
f 127/38/38 128/134/130 125/40/40
f 125/40/40 128/134/130 126/132/128
f 125/40/40 126/132/128 123/42/42
f 123/42/42 126/132/128 124/130/126
f 123/42/42 124/130/126 81/44/44
f 81/44/44 124/130/126 82/128/124
f 1/165/161 40/166/162 2/167/163
f 2/167/163 40/166/162 3/168/164
f 3/168/164 40/166/162 39/169/165
f 3/168/164 39/169/165 4/170/166
f 4/170/166 39/169/165 38/171/167
f 4/170/166 38/171/167 5/172/168
f 5/172/168 38/171/167 37/173/169
f 5/172/168 37/173/169 6/174/170
f 6/174/170 37/173/169 36/175/171
f 6/174/170 36/175/171 7/176/172
f 7/176/172 36/175/171 35/177/173
f 7/176/172 35/177/173 8/178/174
f 8/178/174 35/177/173 34/179/175
f 8/178/174 34/179/175 9/180/176
f 9/180/176 34/179/175 33/181/177
f 9/180/176 33/181/177 10/182/178
f 10/182/178 33/181/177 32/183/179
f 10/182/178 32/183/179 11/184/180
f 11/184/180 32/183/179 31/185/181
f 11/184/180 31/185/181 12/186/182
f 12/186/182 31/185/181 30/187/183
f 12/186/182 30/187/183 13/188/184
f 13/188/184 30/187/183 29/189/185
f 13/188/184 29/189/185 14/190/186
f 14/190/186 29/189/185 28/191/187
f 14/190/186 28/191/187 15/192/188
f 15/192/188 28/191/187 27/193/189
f 15/192/188 27/193/189 16/194/190
f 16/194/190 27/193/189 26/195/191
f 16/194/190 26/195/191 17/196/192
f 17/196/192 26/195/191 25/197/193
f 17/196/192 25/197/193 18/198/194
f 18/198/194 25/197/193 24/199/195
f 18/198/194 24/199/195 19/200/196
f 19/200/196 24/199/195 23/201/197
f 19/200/196 23/201/197 20/202/198
f 20/202/198 23/201/197 22/203/199
f 20/202/198 22/203/199 21/204/200
f 41/205/201 80/206/202 42/207/203
f 42/207/203 80/206/202 43/208/204
f 43/208/204 80/206/202 79/209/205
f 43/208/204 79/209/205 44/210/206
f 44/210/206 79/209/205 78/211/207
f 44/210/206 78/211/207 45/212/208
f 45/212/208 78/211/207 77/213/209
f 45/212/208 77/213/209 46/214/210
f 46/214/210 77/213/209 76/215/211
f 46/214/210 76/215/211 47/216/212
f 47/216/212 76/215/211 75/217/213
f 47/216/212 75/217/213 48/218/214
f 48/218/214 75/217/213 74/219/215
f 48/218/214 74/219/215 49/220/216
f 49/220/216 74/219/215 73/221/217
f 49/220/216 73/221/217 50/222/218
f 50/222/218 73/221/217 72/223/219
f 50/222/218 72/223/219 51/224/220
f 51/224/220 72/223/219 71/225/221
f 51/224/220 71/225/221 52/226/222
f 52/226/222 71/225/221 70/227/223
f 52/226/222 70/227/223 53/228/224
f 53/228/224 70/227/223 69/229/225
f 53/228/224 69/229/225 54/230/226
f 54/230/226 69/229/225 68/231/227
f 54/230/226 68/231/227 55/232/228
f 55/232/228 68/231/227 67/233/229
f 55/232/228 67/233/229 56/234/230
f 56/234/230 67/233/229 66/235/231
f 56/234/230 66/235/231 57/236/232
f 57/236/232 66/235/231 65/237/233
f 57/236/232 65/237/233 58/238/234
f 58/238/234 65/237/233 64/239/235
f 58/238/234 64/239/235 59/240/236
f 59/240/236 64/239/235 63/241/237
f 59/240/236 63/241/237 60/242/238
f 60/242/238 63/241/237 62/243/239
f 60/242/238 62/243/239 61/244/240
# 160 vertices
# 244 texture params
# 240 normals
# 316 facets

# 1 groups
