# WaveFront *.obj file (generated by Autodesk ATF)

mtllib body1_visual.mtl

g Body1

v 3.046896 -1.845278 17.575000
v 3.046896 -1.845278 8.025000
v -3.382762 -0.595479 8.025000
v -3.382762 -0.595479 17.575000
v 2.580415 -2.803882 7.580000
v 2.560738 -2.800057 7.661327
v 2.506215 -2.789459 7.724022
v 2.429337 -2.774515 7.753724
v 2.347715 -2.758649 7.743628
v 2.280048 -2.745496 7.696046
v 2.241837 -2.738069 7.621880
v 2.241837 -2.738069 7.538120
v 2.280048 -2.745496 7.463954
v 2.347715 -2.758649 7.416372
v 2.429337 -2.774515 7.406276
v 2.506215 -2.789459 7.435978
v 2.560738 -2.800057 7.498673
v 1.870358 -2.665861 8.025000
v 2.850363 -2.856354 8.025000
v 2.851985 -2.856670 8.025000
v 2.851985 -2.856670 7.560000
v 2.832768 -2.852934 7.436393
v 2.776996 -2.842093 7.324886
v 2.690129 -2.825208 7.236393
v 2.580670 -2.803931 7.179577
v 2.459334 -2.780346 7.160000
v 2.337999 -2.756761 7.179577
v 2.228540 -2.735484 7.236393
v 2.141673 -2.718599 7.324886
v 2.085901 -2.707758 7.436393
v 2.066684 -2.704022 7.560000
v 2.066684 -2.704022 7.825000
v 2.051739 -2.701117 7.901537
v 2.009181 -2.692845 7.966421
v 1.945489 -2.680464 8.009776
v 2.580415 -2.803882 18.020000
v 2.560738 -2.800057 18.101327
v 2.506215 -2.789459 18.164022
v 2.429337 -2.774515 18.193724
v 2.347715 -2.758649 18.183628
v 2.280048 -2.745496 18.136046
v 2.241837 -2.738069 18.061880
v 2.241837 -2.738069 17.978120
v 2.280048 -2.745496 17.903954
v 2.347715 -2.758649 17.856372
v 2.429337 -2.774515 17.846276
v 2.506215 -2.789459 17.875978
v 2.560738 -2.800057 17.938673
v 2.850363 -2.856354 17.575000
v 1.870358 -2.665861 17.575000
v 1.945489 -2.680464 17.590224
v 2.009181 -2.692845 17.633579
v 2.051739 -2.701117 17.698463
v 2.066684 -2.704022 17.775000
v 2.066684 -2.704022 18.040000
v 2.085901 -2.707758 18.163607
v 2.141673 -2.718599 18.275114
v 2.228540 -2.735484 18.363607
v 2.337999 -2.756761 18.420423
v 2.459334 -2.780346 18.440000
v 2.580670 -2.803931 18.420423
v 2.690129 -2.825208 18.363607
v 2.776996 -2.842093 18.275114
v 2.832768 -2.852934 18.163607
v 2.851985 -2.856670 18.040000
v 2.851985 -2.856670 17.575000
v -2.599291 -1.797049 17.575000
v -3.579296 -1.606555 17.575000
v -3.580918 -1.606240 17.575000
v -3.580918 -1.606240 18.040000
v -3.561701 -1.609975 18.163607
v -3.505929 -1.620816 18.275114
v -3.419062 -1.637701 18.363607
v -3.309603 -1.658978 18.420423
v -3.188267 -1.682563 18.440000
v -3.066932 -1.706149 18.420423
v -2.957473 -1.727425 18.363607
v -2.870606 -1.744310 18.275114
v -2.814834 -1.755151 18.163607
v -2.795617 -1.758887 18.040000
v -2.795617 -1.758887 17.775000
v -2.780672 -1.761792 17.698463
v -2.738114 -1.770064 17.633579
v -2.674422 -1.782445 17.590224
v -2.965779 -1.725811 18.020000
v -2.985455 -1.721986 18.101327
v -3.039978 -1.711388 18.164022
v -3.116857 -1.696444 18.193724
v -3.198479 -1.680578 18.183628
v -3.266146 -1.667425 18.136046
v -3.304356 -1.659998 18.061880
v -3.304356 -1.659998 17.978120
v -3.266146 -1.667425 17.903954
v -3.198479 -1.680578 17.856372
v -3.116857 -1.696444 17.846276
v -3.039978 -1.711388 17.875978
v -2.985455 -1.721986 17.938673
v -2.965779 -1.725811 7.580000
v -2.985455 -1.721986 7.661327
v -3.039978 -1.711388 7.724022
v -3.116857 -1.696444 7.753724
v -3.198479 -1.680578 7.743628
v -3.266146 -1.667425 7.696046
v -3.304356 -1.659998 7.621880
v -3.304356 -1.659998 7.538120
v -3.266146 -1.667425 7.463954
v -3.198479 -1.680578 7.416372
v -3.116857 -1.696444 7.406276
v -3.039978 -1.711388 7.435978
v -2.985455 -1.721986 7.498673
v -3.579296 -1.606555 8.025000
v -2.599291 -1.797049 8.025000
v -2.674422 -1.782445 8.009776
v -2.738114 -1.770064 7.966421
v -2.780672 -1.761792 7.901537
v -2.795617 -1.758887 7.825000
v -2.795617 -1.758887 7.560000
v -2.814834 -1.755151 7.436393
v -2.870606 -1.744310 7.324886
v -2.957473 -1.727425 7.236393
v -3.066932 -1.706149 7.179577
v -3.188267 -1.682563 7.160000
v -3.309603 -1.658978 7.179577
v -3.419062 -1.637701 7.236393
v -3.505929 -1.620816 7.324886
v -3.561701 -1.609975 7.436393
v -3.580918 -1.606240 7.560000
v -3.580918 -1.606240 8.025000
v 2.538437 -3.019840 18.020000
v 2.518760 -3.016015 18.101327
v 2.464237 -3.005417 18.164022
v 2.387359 -2.990473 18.193724
v 2.305737 -2.974607 18.183628
v 2.238070 -2.961454 18.136046
v 2.199859 -2.954027 18.061880
v 2.199859 -2.954027 17.978120
v 2.238070 -2.961454 17.903954
v 2.305737 -2.974607 17.856372
v 2.387359 -2.990473 17.846276
v 2.464237 -3.005417 17.875978
v 2.518760 -3.016015 17.938673
v -3.007757 -1.941769 18.020000
v -3.027433 -1.937944 18.101327
v -3.081956 -1.927346 18.164022
v -3.158835 -1.912402 18.193724
v -3.240457 -1.896536 18.183628
v -3.308124 -1.883383 18.136046
v -3.346334 -1.875956 18.061880
v -3.346334 -1.875956 17.978120
v -3.308124 -1.883383 17.903954
v -3.240457 -1.896536 17.856372
v -3.158835 -1.912402 17.846276
v -3.081956 -1.927346 17.875978
v -3.027433 -1.937944 17.938673
v 2.538437 -3.019840 7.580000
v 2.518760 -3.016015 7.661327
v 2.464237 -3.005417 7.724022
v 2.387359 -2.990473 7.753724
v 2.305737 -2.974607 7.743628
v 2.238070 -2.961454 7.696046
v 2.199859 -2.954027 7.621880
v 2.199859 -2.954027 7.538120
v 2.238070 -2.961454 7.463954
v 2.305737 -2.974607 7.416372
v 2.387359 -2.990473 7.406276
v 2.464237 -3.005417 7.435978
v 2.518760 -3.016015 7.498673
v -3.007757 -1.941769 7.580000
v -3.027433 -1.937944 7.661327
v -3.081956 -1.927346 7.724022
v -3.158835 -1.912402 7.753724
v -3.240457 -1.896536 7.743628
v -3.308124 -1.883383 7.696046
v -3.346334 -1.875956 7.621880
v -3.346334 -1.875956 7.538120
v -3.308124 -1.883383 7.463954
v -3.240457 -1.896536 7.416372
v -3.158835 -1.912402 7.406276
v -3.081956 -1.927346 7.435978
v -3.027433 -1.937944 7.498673
v -2.837595 -1.974845 7.825000
v -2.837595 -1.974845 7.560000
v -2.641269 -2.013007 8.025000
v -2.716400 -1.998403 8.009776
v -2.780092 -1.986022 7.966421
v -2.822650 -1.977750 7.901537
v 1.828380 -2.881819 8.025000
v 2.024706 -2.919980 7.825000
v 2.009761 -2.917075 7.901537
v 1.967203 -2.908803 7.966421
v 1.903511 -2.896422 8.009776
v 2.024706 -2.919980 7.560000
v 2.810007 -3.072627 7.560000
v 2.790790 -3.068892 7.436393
v 2.735018 -3.058051 7.324886
v 2.648151 -3.041166 7.236393
v 2.538692 -3.019889 7.179577
v 2.417356 -2.996304 7.160000
v 2.296021 -2.972719 7.179577
v 2.186562 -2.951442 7.236393
v 2.099695 -2.934557 7.324886
v 2.043923 -2.923716 7.436393
v 2.810007 -3.072627 8.025000
v 2.808385 -3.072312 8.025000
v 2.808385 -3.072312 17.575000
v 2.810007 -3.072627 17.575000
v 2.810007 -3.072627 18.040000
v 2.024706 -2.919980 18.040000
v 2.043923 -2.923716 18.163607
v 2.099695 -2.934557 18.275114
v 2.186562 -2.951442 18.363607
v 2.296021 -2.972719 18.420423
v 2.417356 -2.996304 18.440000
v 2.538692 -3.019889 18.420423
v 2.648151 -3.041166 18.363607
v 2.735018 -3.058051 18.275114
v 2.790790 -3.068892 18.163607
v 2.024706 -2.919980 17.775000
v 1.828380 -2.881819 17.575000
v 1.903511 -2.896422 17.590224
v 1.967203 -2.908803 17.633579
v 2.009761 -2.917075 17.698463
v -2.641269 -2.013007 17.575000
v -2.837595 -1.974845 17.775000
v -2.822650 -1.977750 17.698463
v -2.780092 -1.986022 17.633579
v -2.716400 -1.998403 17.590224
v -2.837595 -1.974845 18.040000
v -3.622896 -1.822198 18.040000
v -3.603679 -1.825933 18.163607
v -3.547907 -1.836774 18.275114
v -3.461040 -1.853659 18.363607
v -3.351581 -1.874936 18.420423
v -3.230245 -1.898521 18.440000
v -3.108910 -1.922107 18.420423
v -2.999451 -1.943383 18.363607
v -2.912584 -1.960268 18.275114
v -2.856812 -1.971109 18.163607
v -3.622896 -1.822198 17.575000
v -3.621274 -1.822513 17.575000
v -3.621274 -1.822513 8.025000
v -3.622896 -1.822198 8.025000
v -3.622896 -1.822198 7.560000
v -2.856812 -1.971109 7.436393
v -2.912584 -1.960268 7.324886
v -2.999451 -1.943383 7.236393
v -3.108910 -1.922107 7.179577
v -3.230245 -1.898521 7.160000
v -3.351581 -1.874936 7.179577
v -3.461040 -1.853659 7.236393
v -3.547907 -1.836774 7.324886
v -3.603679 -1.825933 7.436393
vt -4.775000 -3.275000 0.000000
vt 4.775000 -3.275000 0.000000
vt -4.775000 3.275000 0.000000
vt 4.775000 3.275000 0.000000
vt -2.979955 -5.138673 0.000000
vt -3.276653 -5.240000 0.000000
vt -3.000000 -5.220000 0.000000
vt -3.257076 -5.363607 0.000000
vt -2.979955 -5.301327 0.000000
vt -3.200260 -5.475114 0.000000
vt -2.924411 -5.364022 0.000000
vt -3.111767 -5.563607 0.000000
vt -3.000260 -5.620423 0.000000
vt -3.275000 -4.775000 0.000000
vt -2.924411 -5.075978 0.000000
vt -2.846094 -5.046276 0.000000
vt -2.762944 -5.056372 0.000000
vt -2.461429 -4.898463 0.000000
vt -2.418075 -4.833579 0.000000
vt -2.353190 -4.790224 0.000000
vt -2.276653 -4.775000 0.000000
vt -2.476653 -4.975000 0.000000
vt -2.694011 -5.103954 0.000000
vt -2.655085 -5.178120 0.000000
vt -2.476653 -5.240000 0.000000
vt -2.655085 -5.261880 0.000000
vt -2.496231 -5.363607 0.000000
vt -2.694011 -5.336046 0.000000
vt -2.553046 -5.475114 0.000000
vt -2.762944 -5.383628 0.000000
vt -2.641539 -5.563607 0.000000
vt -2.753046 -5.620423 0.000000
vt -2.846094 -5.393724 0.000000
vt -2.876653 -5.640000 0.000000
vt -3.276653 -4.775000 0.000000
vt -2.979955 5.301327 0.000000
vt -3.257076 5.363607 0.000000
vt -3.000000 5.220000 0.000000
vt -3.276653 5.240000 0.000000
vt -2.979955 5.138673 0.000000
vt -3.275000 4.775000 0.000000
vt -2.924411 5.075978 0.000000
vt -2.846094 5.046276 0.000000
vt -2.418075 4.833579 0.000000
vt -2.461429 4.898463 0.000000
vt -3.200260 5.475114 0.000000
vt -2.924411 5.364022 0.000000
vt -3.111767 5.563607 0.000000
vt -3.000260 5.620423 0.000000
vt -2.846094 5.393724 0.000000
vt -2.876653 5.640000 0.000000
vt -2.753046 5.620423 0.000000
vt -2.762944 5.383628 0.000000
vt -2.641539 5.563607 0.000000
vt -2.553046 5.475114 0.000000
vt -2.694011 5.336046 0.000000
vt -2.496231 5.363607 0.000000
vt -2.655085 5.261880 0.000000
vt -2.476653 5.240000 0.000000
vt -2.655085 5.178120 0.000000
vt -2.476653 4.975000 0.000000
vt -2.694011 5.103954 0.000000
vt -2.762944 5.056372 0.000000
vt -2.276653 4.775000 0.000000
vt -2.353190 4.790224 0.000000
vt -3.276653 4.775000 0.000000
vt 2.276653 4.775000 0.000000
vt 3.275000 4.775000 0.000000
vt 2.353190 4.790224 0.000000
vt 2.418075 4.833579 0.000000
vt 2.803906 5.046276 0.000000
vt 2.461429 4.898463 0.000000
vt 2.725589 5.075978 0.000000
vt 2.476653 4.975000 0.000000
vt 2.670045 5.138673 0.000000
vt 2.476653 5.240000 0.000000
vt 2.650000 5.220000 0.000000
vt 2.670045 5.301327 0.000000
vt 3.276653 4.775000 0.000000
vt 3.276653 5.240000 0.000000
vt 2.955989 5.103954 0.000000
vt 2.887056 5.056372 0.000000
vt 3.257076 5.363607 0.000000
vt 2.994915 5.261880 0.000000
vt 2.994915 5.178120 0.000000
vt 2.955989 5.336046 0.000000
vt 3.200260 5.475114 0.000000
vt 3.111767 5.563607 0.000000
vt 2.887056 5.383628 0.000000
vt 3.000260 5.620423 0.000000
vt 2.876653 5.640000 0.000000
vt 2.803906 5.393724 0.000000
vt 2.753046 5.620423 0.000000
vt 2.641539 5.563607 0.000000
vt 2.725589 5.364022 0.000000
vt 2.553046 5.475114 0.000000
vt 2.496231 5.363607 0.000000
vt 2.670045 -5.301327 0.000000
vt 2.650000 -5.220000 0.000000
vt 2.476653 -5.240000 0.000000
vt 2.670045 -5.138673 0.000000
vt 2.476653 -4.975000 0.000000
vt 2.725589 -5.075978 0.000000
vt 2.461429 -4.898463 0.000000
vt 2.803906 -5.046276 0.000000
vt 2.418075 -4.833579 0.000000
vt 3.275000 -4.775000 0.000000
vt 2.353190 -4.790224 0.000000
vt 2.276653 -4.775000 0.000000
vt 2.887056 -5.056372 0.000000
vt 2.955989 -5.103954 0.000000
vt 3.276653 -5.240000 0.000000
vt 2.994915 -5.178120 0.000000
vt 2.994915 -5.261880 0.000000
vt 3.257076 -5.363607 0.000000
vt 2.955989 -5.336046 0.000000
vt 3.200260 -5.475114 0.000000
vt 3.111767 -5.563607 0.000000
vt 2.887056 -5.383628 0.000000
vt 3.000260 -5.620423 0.000000
vt 2.876653 -5.640000 0.000000
vt 2.803906 -5.393724 0.000000
vt 2.753046 -5.620423 0.000000
vt 2.641539 -5.563607 0.000000
vt 2.725589 -5.364022 0.000000
vt 2.553046 -5.475114 0.000000
vt 2.496231 -5.363607 0.000000
vt 3.276653 -4.775000 0.000000
vt 0.220000 -0.465197 0.000000
vt 0.000000 -0.465197 0.000000
vt 0.220000 -0.549779 0.000000
vt -0.000000 -0.549779 0.000000
vt 0.220000 0.549779 0.000000
vt -0.000000 0.549779 0.000000
vt 0.220000 0.465197 0.000000
vt 0.000000 0.465197 0.000000
vt 0.220000 0.380616 0.000000
vt -0.000000 0.380616 0.000000
vt 0.220000 0.296035 0.000000
vt -0.000000 0.296035 0.000000
vt 0.220000 0.211453 0.000000
vt 0.000000 0.211453 0.000000
vt 0.220000 0.126872 0.000000
vt -0.000000 0.126872 0.000000
vt 0.220000 0.042291 0.000000
vt 0.000000 0.042291 0.000000
vt 0.220000 -0.042291 0.000000
vt 0.000000 -0.042291 0.000000
vt 0.220000 -0.126872 0.000000
vt -0.000000 -0.126872 0.000000
vt 0.220000 -0.211453 0.000000
vt 0.000000 -0.211453 0.000000
vt 0.220000 -0.296035 0.000000
vt 0.000000 -0.296035 0.000000
vt 0.220000 -0.380616 0.000000
vt -0.000000 -0.380616 0.000000
vt 0.220000 -0.465197 0.000000
vt 0.000000 -0.465197 0.000000
vt 0.220000 -0.549779 0.000000
vt 0.000000 -0.549779 0.000000
vt 0.220000 0.549779 0.000000
vt 0.000000 0.549779 0.000000
vt 0.220000 0.465197 0.000000
vt -0.000000 0.465197 0.000000
vt 0.220000 0.380616 0.000000
vt -0.000000 0.380616 0.000000
vt 0.220000 0.296035 0.000000
vt 0.000000 0.296035 0.000000
vt 0.220000 0.211453 0.000000
vt -0.000000 0.211453 0.000000
vt 0.220000 0.126872 0.000000
vt -0.000000 0.126872 0.000000
vt 0.220000 0.042291 0.000000
vt -0.000000 0.042291 0.000000
vt 0.220000 -0.042291 0.000000
vt -0.000000 -0.042291 0.000000
vt 0.220000 -0.126872 0.000000
vt -0.000000 -0.126872 0.000000
vt 0.220000 -0.211453 0.000000
vt -0.000000 -0.211453 0.000000
vt 0.220000 -0.296035 0.000000
vt 0.000000 -0.296035 0.000000
vt 0.220000 -0.380616 0.000000
vt -0.000000 -0.380616 0.000000
vt 0.220000 -0.465197 0.000000
vt 0.000000 -0.465197 0.000000
vt 0.220000 -0.549779 0.000000
vt 0.000000 -0.549779 0.000000
vt 0.220000 0.549779 0.000000
vt 0.000000 0.549779 0.000000
vt 0.220000 0.465197 0.000000
vt 0.000000 0.465197 0.000000
vt 0.220000 0.380616 0.000000
vt -0.000000 0.380616 0.000000
vt 0.220000 0.296035 0.000000
vt -0.000000 0.296035 0.000000
vt 0.220000 0.211453 0.000000
vt 0.000000 0.211453 0.000000
vt 0.220000 0.126872 0.000000
vt -0.000000 0.126872 0.000000
vt 0.220000 0.042291 0.000000
vt 0.000000 0.042291 0.000000
vt 0.220000 -0.042291 0.000000
vt 0.000000 -0.042291 0.000000
vt 0.220000 -0.126872 0.000000
vt -0.000000 -0.126872 0.000000
vt 0.220000 -0.211453 0.000000
vt 0.000000 -0.211453 0.000000
vt 0.220000 -0.296035 0.000000
vt 0.000000 -0.296035 0.000000
vt 0.220000 -0.380616 0.000000
vt -0.000000 -0.380616 0.000000
vt 0.220000 -0.465197 0.000000
vt 0.000000 -0.465197 0.000000
vt 0.220000 -0.549779 0.000000
vt 0.000000 -0.549779 0.000000
vt 0.220000 0.549779 0.000000
vt 0.000000 0.549779 0.000000
vt 0.220000 0.465197 0.000000
vt -0.000000 0.465197 0.000000
vt 0.220000 0.380616 0.000000
vt -0.000000 0.380616 0.000000
vt 0.220000 0.296035 0.000000
vt 0.000000 0.296035 0.000000
vt 0.220000 0.211453 0.000000
vt -0.000000 0.211453 0.000000
vt 0.220000 0.126872 0.000000
vt -0.000000 0.126872 0.000000
vt 0.220000 0.042291 0.000000
vt -0.000000 0.042291 0.000000
vt 0.220000 -0.042291 0.000000
vt -0.000000 -0.042291 0.000000
vt 0.220000 -0.126872 0.000000
vt -0.000000 -0.126872 0.000000
vt 0.220000 -0.211453 0.000000
vt -0.000000 -0.211453 0.000000
vt 0.220000 -0.296035 0.000000
vt 0.000000 -0.296035 0.000000
vt 0.220000 -0.380616 0.000000
vt -0.000000 -0.380616 0.000000
vt 0.000000 0.000000 0.000000
vt 0.265000 0.000000 0.000000
vt -0.000000 0.220000 0.000000
vt 0.265000 0.220000 0.000000
vt 0.220000 0.314159 0.000000
vt 0.000000 0.314159 0.000000
vt 0.220000 0.235619 0.000000
vt 0.000000 0.235619 0.000000
vt 0.220000 0.157080 0.000000
vt -0.000000 0.157080 0.000000
vt 0.220000 0.078540 0.000000
vt 0.000000 0.078540 0.000000
vt 0.220000 -0.000000 0.000000
vt -0.000000 -0.000000 0.000000
vt 0.000000 0.000000 0.000000
vt 4.553306 0.000000 0.000000
vt 0.000000 0.220000 0.000000
vt 4.553306 0.220000 0.000000
vt -0.998347 1.250000 0.000000
vt 5.551653 1.250000 0.000000
vt 5.551653 0.220000 0.000000
vt -0.998347 0.220000 0.000000
vt 0.220000 0.314159 0.000000
vt -0.000000 0.314159 0.000000
vt 0.220000 0.235619 0.000000
vt -0.000000 0.235619 0.000000
vt 0.220000 0.157080 0.000000
vt -0.000000 0.157080 0.000000
vt 0.220000 0.078540 0.000000
vt -0.000000 0.078540 0.000000
vt 0.220000 -0.000000 0.000000
vt -0.000000 0.000000 0.000000
vt 0.000000 0.000000 0.000000
vt 0.265000 -0.000000 0.000000
vt 0.000000 0.220000 0.000000
vt 0.265000 0.220000 0.000000
vt -0.220000 0.000000 0.000000
vt -0.000000 0.000000 0.000000
vt -0.220000 0.125664 0.000000
vt -0.000000 0.125664 0.000000
vt -0.220000 0.251327 0.000000
vt -0.000000 0.251327 0.000000
vt -0.220000 0.376991 0.000000
vt -0.000000 0.376991 0.000000
vt -0.220000 0.502655 0.000000
vt -0.000000 0.502655 0.000000
vt -0.220000 0.628319 0.000000
vt -0.000000 0.628319 0.000000
vt -0.220000 0.753982 0.000000
vt -0.000000 0.753982 0.000000
vt -0.220000 0.879646 0.000000
vt -0.000000 0.879646 0.000000
vt -0.220000 1.005310 0.000000
vt 0.000000 1.005310 0.000000
vt -0.220000 1.130973 0.000000
vt 0.000000 1.130973 0.000000
vt -0.220000 1.256637 0.000000
vt 0.000000 1.256637 0.000000
vt 0.000000 0.000000 0.000000
vt 0.465000 0.000000 0.000000
vt -0.000000 0.220000 0.000000
vt 0.465000 0.220000 0.000000
vt 0.000000 0.000000 0.000000
vt 0.001653 -0.000000 0.000000
vt 0.000000 0.220000 0.000000
vt 0.001653 0.220000 0.000000
vt 0.000000 0.000000 0.000000
vt 9.550000 0.000000 0.000000
vt -0.000000 0.220000 0.000000
vt 9.550000 0.220000 0.000000
vt -0.000000 1.250000 0.000000
vt 9.550000 1.250000 0.000000
vt 0.000000 0.000000 0.000000
vt 0.001653 0.000000 0.000000
vt -0.000000 0.220000 0.000000
vt 0.001653 0.220000 0.000000
vt 0.000000 0.000000 0.000000
vt 0.465000 0.000000 0.000000
vt -0.000000 0.220000 0.000000
vt 0.465000 0.220000 0.000000
vt -0.220000 0.000000 0.000000
vt 0.000000 0.000000 0.000000
vt -0.220000 0.125664 0.000000
vt 0.000000 0.125664 0.000000
vt -0.220000 0.251327 0.000000
vt 0.000000 0.251327 0.000000
vt -0.220000 0.376991 0.000000
vt 0.000000 0.376991 0.000000
vt -0.220000 0.502655 0.000000
vt 0.000000 0.502655 0.000000
vt -0.220000 0.628319 0.000000
vt 0.000000 0.628319 0.000000
vt -0.220000 0.753982 0.000000
vt 0.000000 0.753982 0.000000
vt -0.220000 0.879646 0.000000
vt 0.000000 0.879646 0.000000
vt -0.220000 1.005310 0.000000
vt -0.000000 1.005310 0.000000
vt -0.220000 1.130973 0.000000
vt -0.000000 1.130973 0.000000
vt -0.220000 1.256637 0.000000
vt 0.000000 1.256637 0.000000
vt 0.000000 0.000000 0.000000
vt 0.265000 -0.000000 0.000000
vt 0.000000 0.220000 0.000000
vt 0.265000 0.220000 0.000000
vt 0.220000 0.314159 0.000000
vt -0.000000 0.314159 0.000000
vt 0.220000 0.235619 0.000000
vt -0.000000 0.235619 0.000000
vt 0.220000 0.157080 0.000000
vt -0.000000 0.157080 0.000000
vt 0.220000 0.078540 0.000000
vt -0.000000 0.078540 0.000000
vt 0.220000 -0.000000 0.000000
vt -0.000000 -0.000000 0.000000
vt 0.000000 0.000000 0.000000
vt 4.553306 0.000000 0.000000
vt -0.000000 0.220000 0.000000
vt 4.553306 0.220000 0.000000
vt -0.998347 1.250000 0.000000
vt 5.551653 1.250000 0.000000
vt 5.551653 0.220000 0.000000
vt -0.998347 0.220000 0.000000
vt 0.220000 0.314159 0.000000
vt -0.000000 0.314159 0.000000
vt 0.220000 0.235619 0.000000
vt 0.000000 0.235619 0.000000
vt 0.220000 0.157080 0.000000
vt 0.000000 0.157080 0.000000
vt 0.220000 0.078540 0.000000
vt 0.000000 0.078540 0.000000
vt 0.220000 0.000000 0.000000
vt 0.000000 0.000000 0.000000
vt 0.000000 0.000000 0.000000
vt 0.265000 -0.000000 0.000000
vt -0.000000 0.220000 0.000000
vt 0.265000 0.220000 0.000000
vt -0.220000 0.000000 0.000000
vt 0.000000 0.000000 0.000000
vt -0.220000 0.125664 0.000000
vt -0.000000 0.125664 0.000000
vt -0.220000 0.251327 0.000000
vt 0.000000 0.251327 0.000000
vt -0.220000 0.376991 0.000000
vt 0.000000 0.376991 0.000000
vt -0.220000 0.502655 0.000000
vt 0.000000 0.502655 0.000000
vt -0.220000 0.628319 0.000000
vt 0.000000 0.628319 0.000000
vt -0.220000 0.753982 0.000000
vt -0.000000 0.753982 0.000000
vt -0.220000 0.879646 0.000000
vt 0.000000 0.879646 0.000000
vt -0.220000 1.005310 0.000000
vt -0.000000 1.005310 0.000000
vt -0.220000 1.130973 0.000000
vt -0.000000 1.130973 0.000000
vt -0.220000 1.256637 0.000000
vt -0.000000 1.256637 0.000000
vt 0.000000 0.000000 0.000000
vt 0.465000 -0.000000 0.000000
vt 0.000000 0.220000 0.000000
vt 0.465000 0.220000 0.000000
vt 0.000000 0.000000 0.000000
vt 0.001653 0.000000 0.000000
vt -0.000000 0.220000 0.000000
vt 0.001653 0.220000 0.000000
vt 0.000000 0.000000 0.000000
vt 9.550000 -0.000000 0.000000
vt 0.000000 0.220000 0.000000
vt 9.550000 0.220000 0.000000
vt 0.000000 1.250000 0.000000
vt 9.550000 1.250000 0.000000
vt 0.000000 0.000000 0.000000
vt 0.001653 -0.000000 0.000000
vt 0.000000 0.220000 0.000000
vt 0.001653 0.220000 0.000000
vt 0.000000 0.000000 0.000000
vt 0.465000 -0.000000 0.000000
vt 0.000000 0.220000 0.000000
vt 0.465000 0.220000 0.000000
vt -0.220000 0.000000 0.000000
vt 0.000000 0.000000 0.000000
vt -0.220000 0.125664 0.000000
vt 0.000000 0.125664 0.000000
vt -0.220000 0.251327 0.000000
vt -0.000000 0.251327 0.000000
vt -0.220000 0.376991 0.000000
vt -0.000000 0.376991 0.000000
vt -0.220000 0.502655 0.000000
vt -0.000000 0.502655 0.000000
vt -0.220000 0.628319 0.000000
vt -0.000000 0.628319 0.000000
vt -0.220000 0.753982 0.000000
vt 0.000000 0.753982 0.000000
vt -0.220000 0.879646 0.000000
vt -0.000000 0.879646 0.000000
vt -0.220000 1.005310 0.000000
vt 0.000000 1.005310 0.000000
vt -0.220000 1.130973 0.000000
vt 0.000000 1.130973 0.000000
vt -0.220000 1.256637 0.000000
vt 0.000000 1.256637 0.000000
vt -2.670045 -5.301327 0.000000
vt -2.496231 -5.363607 0.000000
vt -2.650000 -5.220000 0.000000
vt -2.476653 -5.240000 0.000000
vt -2.476653 -4.975000 0.000000
vt -2.725589 -5.364022 0.000000
vt -2.641539 -5.563607 0.000000
vt -2.553046 -5.475114 0.000000
vt -2.753046 -5.620423 0.000000
vt -2.803906 -5.393724 0.000000
vt -2.876653 -5.640000 0.000000
vt -2.887056 -5.383628 0.000000
vt -3.000260 -5.620423 0.000000
vt -2.955989 -5.336046 0.000000
vt -3.111767 -5.563607 0.000000
vt -2.994915 -5.261880 0.000000
vt -3.200260 -5.475114 0.000000
vt -3.257076 -5.363607 0.000000
vt -3.276653 -5.240000 0.000000
vt -2.994915 -5.178120 0.000000
vt -3.275000 -4.775000 0.000000
vt -2.955989 -5.103954 0.000000
vt -2.887056 -5.056372 0.000000
vt -2.803906 -5.046276 0.000000
vt -2.418075 -4.833579 0.000000
vt -2.353190 -4.790224 0.000000
vt -2.461429 -4.898463 0.000000
vt -2.725589 -5.075978 0.000000
vt -2.670045 -5.138673 0.000000
vt 2.979955 -5.301327 0.000000
vt 3.200260 -5.475114 0.000000
vt 3.000000 -5.220000 0.000000
vt 3.257076 -5.363607 0.000000
vt 3.276653 -5.240000 0.000000
vt 2.924411 -5.364022 0.000000
vt 3.000260 -5.620423 0.000000
vt 3.111767 -5.563607 0.000000
vt 2.876653 -5.640000 0.000000
vt 2.846094 -5.393724 0.000000
vt 2.753046 -5.620423 0.000000
vt 2.762944 -5.383628 0.000000
vt 2.641539 -5.563607 0.000000
vt 2.694011 -5.336046 0.000000
vt 2.553046 -5.475114 0.000000
vt 2.655085 -5.261880 0.000000
vt 2.496231 -5.363607 0.000000
vt 2.476653 -5.240000 0.000000
vt 2.655085 -5.178120 0.000000
vt 2.476653 -4.975000 0.000000
vt 2.694011 -5.103954 0.000000
vt 2.461429 -4.898463 0.000000
vt 2.762944 -5.056372 0.000000
vt 2.418075 -4.833579 0.000000
vt 2.846094 -5.046276 0.000000
vt 3.275000 -4.775000 0.000000
vt 2.924411 -5.075978 0.000000
vt 2.979955 -5.138673 0.000000
vt -2.670045 5.138673 0.000000
vt -2.476653 4.975000 0.000000
vt -2.650000 5.220000 0.000000
vt -2.476653 5.240000 0.000000
vt -2.496231 5.363607 0.000000
vt -2.725589 5.075978 0.000000
vt -2.461429 4.898463 0.000000
vt -2.803906 5.046276 0.000000
vt -2.418075 4.833579 0.000000
vt -3.275000 4.775000 0.000000
vt -2.353190 4.790224 0.000000
vt -2.276653 4.775000 0.000000
vt -2.276653 -4.775000 0.000000
vt 2.276653 -4.775000 0.000000
vt -2.887056 5.056372 0.000000
vt -2.955989 5.103954 0.000000
vt -2.994915 5.178120 0.000000
vt -3.276653 5.240000 0.000000
vt -2.994915 5.261880 0.000000
vt -3.257076 5.363607 0.000000
vt -3.200260 5.475114 0.000000
vt -3.111767 5.563607 0.000000
vt -2.955989 5.336046 0.000000
vt -3.000260 5.620423 0.000000
vt -2.887056 5.383628 0.000000
vt -2.876653 5.640000 0.000000
vt -2.803906 5.393724 0.000000
vt -2.753046 5.620423 0.000000
vt -2.725589 5.364022 0.000000
vt -2.641539 5.563607 0.000000
vt -2.670045 5.301327 0.000000
vt -2.553046 5.475114 0.000000
vt 2.979955 5.138673 0.000000
vt 3.276653 5.240000 0.000000
vt 3.000000 5.220000 0.000000
vt 3.257076 5.363607 0.000000
vt 3.200260 5.475114 0.000000
vt 3.275000 4.775000 0.000000
vt 2.924411 5.075978 0.000000
vt 2.846094 5.046276 0.000000
vt 2.418075 4.833579 0.000000
vt 2.762944 5.056372 0.000000
vt 2.461429 4.898463 0.000000
vt 2.694011 5.103954 0.000000
vt 2.476653 4.975000 0.000000
vt 2.655085 5.178120 0.000000
vt 2.476653 5.240000 0.000000
vt 2.655085 5.261880 0.000000
vt 2.496231 5.363607 0.000000
vt 2.553046 5.475114 0.000000
vt 2.694011 5.336046 0.000000
vt 2.641539 5.563607 0.000000
vt 2.762944 5.383628 0.000000
vt 2.753046 5.620423 0.000000
vt 2.846094 5.393724 0.000000
vt 2.876653 5.640000 0.000000
vt 2.924411 5.364022 0.000000
vt 3.000260 5.620423 0.000000
vt 2.979955 5.301327 0.000000
vt 3.111767 5.563607 0.000000
vt 2.353190 -4.790224 0.000000
vt 2.353190 4.790224 0.000000
vt 2.276653 4.775000 0.000000
vt 3.276653 -4.775000 0.000000
vt 3.276653 4.775000 0.000000
vt -3.276653 4.775000 0.000000
vt -3.276653 -4.775000 0.000000
vn 0.190809 0.981627 -0.000000
vn 0.190809 0.981627 -0.000000
vn 0.190809 0.981627 -0.000000
vn 0.190809 0.981627 -0.000000
vn 0.190809 0.981627 -0.000000
vn 0.190809 0.981627 -0.000000
vn 0.190809 0.981627 -0.000000
vn 0.190809 0.981627 -0.000000
vn 0.190809 0.981627 -0.000000
vn 0.190809 0.981627 -0.000000
vn 0.190809 0.981627 -0.000000
vn 0.190809 0.981627 -0.000000
vn 0.190809 0.981627 -0.000000
vn 0.190809 0.981627 -0.000000
vn 0.190809 0.981627 -0.000000
vn 0.190809 0.981627 -0.000000
vn 0.190809 0.981627 -0.000000
vn 0.190809 0.981627 -0.000000
vn 0.190809 0.981627 -0.000000
vn 0.190809 0.981627 -0.000000
vn 0.190809 0.981627 -0.000000
vn 0.190809 0.981627 -0.000000
vn 0.190809 0.981627 -0.000000
vn 0.190809 0.981627 -0.000000
vn 0.190809 0.981627 -0.000000
vn 0.190809 0.981627 -0.000000
vn 0.190809 0.981627 -0.000000
vn 0.190809 0.981627 -0.000000
vn 0.190809 0.981627 -0.000000
vn 0.190809 0.981627 -0.000000
vn 0.190809 0.981627 -0.000000
vn 0.190809 0.981627 -0.000000
vn 0.190809 0.981627 -0.000000
vn 0.190809 0.981627 -0.000000
vn 0.190809 0.981627 -0.000000
vn 0.190809 0.981627 -0.000000
vn 0.190809 0.981627 -0.000000
vn 0.190809 0.981627 -0.000000
vn 0.190809 0.981627 -0.000000
vn 0.190809 0.981627 -0.000000
vn 0.190809 0.981627 -0.000000
vn 0.190809 0.981627 -0.000000
vn 0.190809 0.981627 -0.000000
vn 0.190809 0.981627 -0.000000
vn 0.190809 0.981627 -0.000000
vn 0.190809 0.981627 -0.000000
vn 0.190809 0.981627 -0.000000
vn 0.190809 0.981627 -0.000000
vn 0.190809 0.981627 -0.000000
vn 0.190809 0.981627 -0.000000
vn 0.190809 0.981627 -0.000000
vn 0.190809 0.981627 -0.000000
vn 0.190809 0.981627 -0.000000
vn 0.190809 0.981627 -0.000000
vn 0.190809 0.981627 -0.000000
vn 0.190809 0.981627 -0.000000
vn 0.190809 0.981627 -0.000000
vn 0.190809 0.981627 -0.000000
vn 0.190809 0.981627 -0.000000
vn 0.190809 0.981627 -0.000000
vn 0.190809 0.981627 -0.000000
vn 0.190809 0.981627 -0.000000
vn 0.190809 0.981627 -0.000000
vn 0.190809 0.981627 -0.000000
vn 0.190809 0.981627 -0.000000
vn 0.190809 0.981627 -0.000000
vn 0.190809 0.981627 -0.000000
vn 0.190809 0.981627 -0.000000
vn 0.190809 0.981627 -0.000000
vn 0.190809 0.981627 -0.000000
vn 0.190809 0.981627 -0.000000
vn 0.190809 0.981627 -0.000000
vn 0.190809 0.981627 -0.000000
vn 0.190809 0.981627 -0.000000
vn 0.190809 0.981627 -0.000000
vn 0.190809 0.981627 -0.000000
vn 0.190809 0.981627 -0.000000
vn 0.190809 0.981627 -0.000000
vn 0.190809 0.981627 -0.000000
vn 0.190809 0.981627 -0.000000
vn 0.190809 0.981627 -0.000000
vn 0.190809 0.981627 -0.000000
vn 0.190809 0.981627 -0.000000
vn 0.190809 0.981627 -0.000000
vn 0.190809 0.981627 -0.000000
vn 0.190809 0.981627 -0.000000
vn 0.190809 0.981627 -0.000000
vn 0.190809 0.981627 -0.000000
vn 0.190809 0.981627 -0.000000
vn 0.190809 0.981627 -0.000000
vn 0.190809 0.981627 -0.000000
vn 0.190809 0.981627 -0.000000
vn 0.190809 0.981627 -0.000000
vn 0.190809 0.981627 -0.000000
vn 0.190809 0.981627 -0.000000
vn 0.190809 0.981627 -0.000000
vn 0.190809 0.981627 -0.000000
vn 0.190809 0.981627 -0.000000
vn 0.190809 0.981627 -0.000000
vn 0.190809 0.981627 -0.000000
vn 0.190809 0.981627 -0.000000
vn 0.190809 0.981627 -0.000000
vn 0.190809 0.981627 -0.000000
vn 0.190809 0.981627 -0.000000
vn 0.190809 0.981627 -0.000000
vn 0.190809 0.981627 -0.000000
vn 0.190809 0.981627 -0.000000
vn 0.190809 0.981627 -0.000000
vn 0.190809 0.981627 -0.000000
vn 0.190809 0.981627 -0.000000
vn 0.190809 0.981627 -0.000000
vn 0.190809 0.981627 -0.000000
vn 0.190809 0.981627 -0.000000
vn 0.190809 0.981627 -0.000000
vn 0.190809 0.981627 -0.000000
vn 0.190809 0.981627 -0.000000
vn 0.190809 0.981627 -0.000000
vn 0.190809 0.981627 -0.000000
vn 0.190809 0.981627 -0.000000
vn 0.190809 0.981627 -0.000000
vn 0.190809 0.981627 -0.000000
vn 0.190809 0.981627 -0.000000
vn 0.190809 0.981627 -0.000000
vn 0.190809 0.981627 -0.000000
vn 0.190809 0.981627 -0.000000
vn 0.190809 0.981627 -0.000000
vn 0.190809 0.981627 -0.000000
vn 0.190809 0.981627 -0.000000
vn -0.869188 0.168953 0.464723
vn -0.869188 0.168953 0.464723
vn -0.981627 0.190809 0.000000
vn -0.981627 0.190809 0.000000
vn -0.869188 0.168953 -0.464723
vn -0.869188 0.168953 -0.464723
vn -0.557628 0.108392 -0.822984
vn -0.557628 0.108392 -0.822984
vn -0.118322 0.022999 -0.992709
vn -0.118322 0.022999 -0.992709
vn 0.348090 -0.067662 -0.935016
vn 0.348090 -0.067662 -0.935016
vn 0.734758 -0.142823 -0.663123
vn 0.734758 -0.142823 -0.663123
vn 0.953103 -0.185264 -0.239316
vn 0.953103 -0.185264 -0.239316
vn 0.953103 -0.185264 0.239316
vn 0.953103 -0.185264 0.239316
vn 0.734758 -0.142823 0.663123
vn 0.734758 -0.142823 0.663123
vn 0.348090 -0.067662 0.935016
vn 0.348090 -0.067662 0.935016
vn -0.118322 0.022999 0.992709
vn -0.118322 0.022999 0.992709
vn -0.557628 0.108392 0.822984
vn -0.557628 0.108392 0.822984
vn -0.869188 0.168953 0.464723
vn -0.869188 0.168953 0.464723
vn -0.981627 0.190809 0.000000
vn -0.981627 0.190809 0.000000
vn -0.869188 0.168953 -0.464723
vn -0.869188 0.168953 -0.464723
vn -0.557628 0.108392 -0.822984
vn -0.557628 0.108392 -0.822984
vn -0.118322 0.022999 -0.992709
vn -0.118322 0.022999 -0.992709
vn 0.348090 -0.067662 -0.935016
vn 0.348090 -0.067662 -0.935016
vn 0.734758 -0.142823 -0.663123
vn 0.734758 -0.142823 -0.663123
vn 0.953103 -0.185264 -0.239316
vn 0.953103 -0.185264 -0.239316
vn 0.953103 -0.185264 0.239316
vn 0.953103 -0.185264 0.239316
vn 0.734758 -0.142823 0.663123
vn 0.734758 -0.142823 0.663123
vn 0.348090 -0.067662 0.935016
vn 0.348090 -0.067662 0.935016
vn -0.118322 0.022999 0.992709
vn -0.118322 0.022999 0.992709
vn -0.557628 0.108392 0.822984
vn -0.557628 0.108392 0.822984
vn -0.869188 0.168953 0.464723
vn -0.869188 0.168953 0.464723
vn -0.981627 0.190809 0.000000
vn -0.981627 0.190809 0.000000
vn -0.869188 0.168953 -0.464723
vn -0.869188 0.168953 -0.464723
vn -0.557628 0.108392 -0.822984
vn -0.557628 0.108392 -0.822984
vn -0.118322 0.022999 -0.992709
vn -0.118322 0.022999 -0.992709
vn 0.348090 -0.067662 -0.935016
vn 0.348090 -0.067662 -0.935016
vn 0.734758 -0.142823 -0.663123
vn 0.734758 -0.142823 -0.663123
vn 0.953103 -0.185264 -0.239316
vn 0.953103 -0.185264 -0.239316
vn 0.953103 -0.185264 0.239316
vn 0.953103 -0.185264 0.239316
vn 0.734758 -0.142823 0.663123
vn 0.734758 -0.142823 0.663123
vn 0.348090 -0.067662 0.935016
vn 0.348090 -0.067662 0.935016
vn -0.118322 0.022999 0.992709
vn -0.118322 0.022999 0.992709
vn -0.557628 0.108392 0.822984
vn -0.557628 0.108392 0.822984
vn -0.869188 0.168953 0.464723
vn -0.869188 0.168953 0.464723
vn -0.981627 0.190809 0.000000
vn -0.981627 0.190809 0.000000
vn -0.869188 0.168953 -0.464723
vn -0.869188 0.168953 -0.464723
vn -0.557628 0.108392 -0.822984
vn -0.557628 0.108392 -0.822984
vn -0.118322 0.022999 -0.992709
vn -0.118322 0.022999 -0.992709
vn 0.348090 -0.067662 -0.935016
vn 0.348090 -0.067662 -0.935016
vn 0.734758 -0.142823 -0.663123
vn 0.734758 -0.142823 -0.663123
vn 0.953103 -0.185264 -0.239316
vn 0.953103 -0.185264 -0.239316
vn 0.953103 -0.185264 0.239316
vn 0.953103 -0.185264 0.239316
vn 0.734758 -0.142823 0.663123
vn 0.734758 -0.142823 0.663123
vn 0.348090 -0.067662 0.935016
vn 0.348090 -0.067662 0.935016
vn -0.118322 0.022999 0.992709
vn -0.118322 0.022999 0.992709
vn -0.557628 0.108392 0.822984
vn -0.557628 0.108392 0.822984
vn 0.981627 -0.190809 0.000000
vn 0.981627 -0.190809 0.000000
vn 0.981627 -0.190809 0.000000
vn 0.981627 -0.190809 0.000000
vn -0.000000 0.000000 -1.000000
vn -0.000000 0.000000 -1.000000
vn 0.375652 -0.073019 -0.923880
vn 0.375652 -0.073019 -0.923880
vn 0.694115 -0.134922 -0.707107
vn 0.694115 -0.134922 -0.707107
vn 0.906905 -0.176285 -0.382683
vn 0.906905 -0.176285 -0.382683
vn 0.000000 -0.000000 -1.000000
vn 0.000000 -0.000000 -1.000000
vn 0.000000 -0.000000 -1.000000
vn 0.000000 -0.000000 -1.000000
vn 0.000000 -0.000000 -1.000000
vn 0.000000 -0.000000 -1.000000
vn -0.981627 0.190809 -0.000000
vn -0.981627 0.190809 -0.000000
vn -0.906905 0.176285 -0.382683
vn -0.906905 0.176285 -0.382683
vn -0.694115 0.134922 -0.707107
vn -0.694115 0.134922 -0.707107
vn -0.375652 0.073019 -0.923880
vn -0.375652 0.073019 -0.923880
vn -0.981627 0.190809 -0.000000
vn -0.981627 0.190809 -0.000000
vn 0.981627 -0.190809 0.000000
vn 0.981627 -0.190809 -0.000000
vn 0.933583 -0.181470 -0.309017
vn 0.933583 -0.181470 -0.309017
vn 0.794153 -0.154368 -0.587785
vn 0.794153 -0.154368 -0.587785
vn 0.576986 -0.112155 -0.809017
vn 0.576986 -0.112155 -0.809017
vn 0.303339 -0.058963 -0.951057
vn 0.303339 -0.058963 -0.951057
vn 0.000000 -0.000000 -1.000000
vn 0.000000 -0.000000 -1.000000
vn -0.303339 0.058963 -0.951057
vn -0.303339 0.058963 -0.951057
vn -0.576986 0.112155 -0.809017
vn -0.576986 0.112155 -0.809017
vn -0.794153 0.154368 -0.587785
vn -0.794153 0.154368 -0.587785
vn -0.933583 0.181470 -0.309017
vn -0.933583 0.181470 -0.309017
vn 0.981627 -0.190809 0.000000
vn 0.981627 -0.190809 0.000000
vn -0.000000 0.000000 1.000000
vn -0.000000 0.000000 1.000000
vn -0.000000 0.000000 1.000000
vn -0.000000 0.000000 1.000000
vn 0.981627 -0.190809 0.000000
vn 0.981627 -0.190809 0.000000
vn 0.981627 -0.190809 0.000000
vn 0.981627 -0.190809 0.000000
vn 0.981627 -0.190809 0.000000
vn 0.981627 -0.190809 0.000000
vn 0.000000 -0.000000 -1.000000
vn 0.000000 -0.000000 -1.000000
vn 0.000000 -0.000000 -1.000000
vn 0.000000 -0.000000 -1.000000
vn 0.981627 -0.190809 0.000000
vn 0.981627 -0.190809 0.000000
vn 0.981627 -0.190809 0.000000
vn 0.981627 -0.190809 0.000000
vn -0.981627 0.190809 0.000000
vn -0.981627 0.190809 0.000000
vn -0.933583 0.181470 0.309017
vn -0.933583 0.181470 0.309017
vn -0.794153 0.154368 0.587785
vn -0.794153 0.154368 0.587785
vn -0.576986 0.112155 0.809017
vn -0.576986 0.112155 0.809017
vn -0.303339 0.058963 0.951057
vn -0.303339 0.058963 0.951057
vn -0.000000 0.000000 1.000000
vn -0.000000 0.000000 1.000000
vn 0.303339 -0.058963 0.951057
vn 0.303339 -0.058963 0.951057
vn 0.576986 -0.112155 0.809017
vn 0.576986 -0.112155 0.809017
vn 0.794153 -0.154368 0.587785
vn 0.794153 -0.154368 0.587785
vn 0.933583 -0.181470 0.309017
vn 0.933583 -0.181470 0.309017
vn -0.981627 0.190809 -0.000000
vn -0.981627 0.190809 -0.000000
vn 0.000000 -0.000000 1.000000
vn 0.000000 -0.000000 1.000000
vn -0.375652 0.073019 0.923880
vn -0.375652 0.073019 0.923880
vn -0.694115 0.134922 0.707107
vn -0.694115 0.134922 0.707107
vn -0.906905 0.176285 0.382683
vn -0.906905 0.176285 0.382683
vn -0.000000 0.000000 1.000000
vn -0.000000 0.000000 1.000000
vn -0.000000 0.000000 1.000000
vn -0.000000 0.000000 1.000000
vn -0.000000 0.000000 1.000000
vn -0.000000 0.000000 1.000000
vn 0.981627 -0.190809 0.000000
vn 0.981627 -0.190809 0.000000
vn 0.906905 -0.176285 0.382683
vn 0.906905 -0.176285 0.382683
vn 0.694115 -0.134922 0.707107
vn 0.694115 -0.134922 0.707107
vn 0.375652 -0.073019 0.923880
vn 0.375652 -0.073019 0.923880
vn 0.981627 -0.190809 0.000000
vn 0.981627 -0.190809 0.000000
vn -0.981627 0.190809 0.000000
vn -0.981627 0.190809 0.000000
vn -0.933583 0.181470 0.309017
vn -0.933583 0.181470 0.309017
vn -0.794153 0.154368 0.587785
vn -0.794153 0.154368 0.587785
vn -0.576986 0.112155 0.809017
vn -0.576986 0.112155 0.809017
vn -0.303339 0.058963 0.951057
vn -0.303339 0.058963 0.951057
vn -0.000000 0.000000 1.000000
vn -0.000000 0.000000 1.000000
vn 0.303339 -0.058963 0.951057
vn 0.303339 -0.058963 0.951057
vn 0.576986 -0.112155 0.809017
vn 0.576986 -0.112155 0.809017
vn 0.794153 -0.154368 0.587785
vn 0.794153 -0.154368 0.587785
vn 0.933583 -0.181470 0.309017
vn 0.933583 -0.181470 0.309017
vn -0.981627 0.190809 -0.000000
vn -0.981627 0.190809 -0.000000
vn 0.000000 -0.000000 -1.000000
vn 0.000000 -0.000000 -1.000000
vn 0.000000 -0.000000 -1.000000
vn 0.000000 -0.000000 -1.000000
vn -0.981627 0.190809 -0.000000
vn -0.981627 0.190809 -0.000000
vn -0.981627 0.190809 -0.000000
vn -0.981627 0.190809 -0.000000
vn -0.981627 0.190809 -0.000000
vn -0.981627 0.190809 -0.000000
vn -0.000000 0.000000 1.000000
vn -0.000000 0.000000 1.000000
vn -0.000000 0.000000 1.000000
vn -0.000000 0.000000 1.000000
vn -0.981627 0.190809 -0.000000
vn -0.981627 0.190809 -0.000000
vn -0.981627 0.190809 -0.000000
vn -0.981627 0.190809 -0.000000
vn 0.933583 -0.181470 -0.309017
vn 0.933583 -0.181470 -0.309017
vn 0.794153 -0.154368 -0.587785
vn 0.794153 -0.154368 -0.587785
vn 0.576986 -0.112155 -0.809017
vn 0.576986 -0.112155 -0.809017
vn 0.303339 -0.058963 -0.951057
vn 0.303339 -0.058963 -0.951057
vn 0.000000 -0.000000 -1.000000
vn 0.000000 -0.000000 -1.000000
vn -0.303339 0.058963 -0.951057
vn -0.303339 0.058963 -0.951057
vn -0.576986 0.112155 -0.809017
vn -0.576986 0.112155 -0.809017
vn -0.794153 0.154368 -0.587785
vn -0.794153 0.154368 -0.587785
vn -0.933583 0.181470 -0.309017
vn -0.933583 0.181470 -0.309017
vn -0.190809 -0.981627 0.000000
vn -0.190809 -0.981627 0.000000
vn -0.190809 -0.981627 0.000000
vn -0.190809 -0.981627 0.000000
vn -0.190809 -0.981627 0.000000
vn -0.190809 -0.981627 0.000000
vn -0.190809 -0.981627 0.000000
vn -0.190809 -0.981627 0.000000
vn -0.190809 -0.981627 0.000000
vn -0.190809 -0.981627 0.000000
vn -0.190809 -0.981627 0.000000
vn -0.190809 -0.981627 0.000000
vn -0.190809 -0.981627 0.000000
vn -0.190809 -0.981627 0.000000
vn -0.190809 -0.981627 0.000000
vn -0.190809 -0.981627 0.000000
vn -0.190809 -0.981627 0.000000
vn -0.190809 -0.981627 0.000000
vn -0.190809 -0.981627 0.000000
vn -0.190809 -0.981627 0.000000
vn -0.190809 -0.981627 0.000000
vn -0.190809 -0.981627 0.000000
vn -0.190809 -0.981627 0.000000
vn -0.190809 -0.981627 0.000000
vn -0.190809 -0.981627 0.000000
vn -0.190809 -0.981627 0.000000
vn -0.190809 -0.981627 0.000000
vn -0.190809 -0.981627 0.000000
vn -0.190809 -0.981627 0.000000
vn -0.190809 -0.981627 0.000000
vn -0.190809 -0.981627 0.000000
vn -0.190809 -0.981627 0.000000
vn -0.190809 -0.981627 0.000000
vn -0.190809 -0.981627 0.000000
vn -0.190809 -0.981627 0.000000
vn -0.190809 -0.981627 0.000000
vn -0.190809 -0.981627 0.000000
vn -0.190809 -0.981627 0.000000
vn -0.190809 -0.981627 0.000000
vn -0.190809 -0.981627 0.000000
vn -0.190809 -0.981627 0.000000
vn -0.190809 -0.981627 0.000000
vn -0.190809 -0.981627 0.000000
vn -0.190809 -0.981627 0.000000
vn -0.190809 -0.981627 0.000000
vn -0.190809 -0.981627 0.000000
vn -0.190809 -0.981627 0.000000
vn -0.190809 -0.981627 0.000000
vn -0.190809 -0.981627 0.000000
vn -0.190809 -0.981627 0.000000
vn -0.190809 -0.981627 0.000000
vn -0.190809 -0.981627 0.000000
vn -0.190809 -0.981627 0.000000
vn -0.190809 -0.981627 0.000000
vn -0.190809 -0.981627 0.000000
vn -0.190809 -0.981627 0.000000
vn -0.190809 -0.981627 0.000000
vn -0.190809 -0.981627 0.000000
vn -0.190809 -0.981627 0.000000
vn -0.190809 -0.981627 0.000000
vn -0.190809 -0.981627 0.000000
vn -0.190809 -0.981627 0.000000
vn -0.190809 -0.981627 0.000000
vn -0.190809 -0.981627 0.000000
vn -0.190809 -0.981627 0.000000
vn -0.190809 -0.981627 0.000000
vn -0.190809 -0.981627 0.000000
vn -0.190809 -0.981627 0.000000
vn -0.190809 -0.981627 0.000000
vn -0.190809 -0.981627 0.000000
vn -0.190809 -0.981627 0.000000
vn -0.190809 -0.981627 0.000000
vn -0.190809 -0.981627 0.000000
vn -0.190809 -0.981627 0.000000
vn -0.190809 -0.981627 0.000000
vn -0.190809 -0.981627 0.000000
vn -0.190809 -0.981627 0.000000
vn -0.190809 -0.981627 0.000000
vn -0.190809 -0.981627 0.000000
vn -0.190809 -0.981627 0.000000
vn -0.190809 -0.981627 0.000000
vn -0.190809 -0.981627 0.000000
vn -0.190809 -0.981627 0.000000
vn -0.190809 -0.981627 0.000000
vn -0.190809 -0.981627 0.000000
vn -0.190809 -0.981627 0.000000
vn -0.190809 -0.981627 0.000000
vn -0.190809 -0.981627 0.000000
vn -0.190809 -0.981627 0.000000
vn -0.190809 -0.981627 0.000000
vn -0.190809 -0.981627 0.000000
vn -0.190809 -0.981627 0.000000
vn -0.190809 -0.981627 0.000000
vn -0.190809 -0.981627 0.000000
vn -0.190809 -0.981627 0.000000
vn -0.190809 -0.981627 0.000000
vn -0.190809 -0.981627 0.000000
vn -0.190809 -0.981627 0.000000
vn -0.190809 -0.981627 0.000000
vn -0.190809 -0.981627 0.000000
vn -0.190809 -0.981627 0.000000
vn -0.190809 -0.981627 0.000000
vn -0.190809 -0.981627 0.000000
vn -0.190809 -0.981627 0.000000
vn -0.190809 -0.981627 0.000000
vn -0.190809 -0.981627 0.000000
vn -0.190809 -0.981627 0.000000
vn -0.190809 -0.981627 0.000000
vn -0.190809 -0.981627 0.000000
vn -0.190809 -0.981627 0.000000
vn -0.190809 -0.981627 0.000000
vn -0.190809 -0.981627 0.000000
vn -0.190809 -0.981627 0.000000
vn -0.190809 -0.981627 0.000000
vn -0.190809 -0.981627 0.000000
vn -0.190809 -0.981627 0.000000
vn -0.190809 -0.981627 0.000000
vn -0.190809 -0.981627 0.000000
vn -0.190809 -0.981627 0.000000
vn -0.190809 -0.981627 0.000000
vn -0.190809 -0.981627 0.000000
vn -0.190809 -0.981627 0.000000
vn -0.190809 -0.981627 0.000000
vn -0.190809 -0.981627 0.000000
usemtl Polycarbonate_(Clear)
f 1/1/1 2/2/2 4/3/3
f 4/3/3 2/2/2 3/4/4
f 6/5/5 21/6/6 5/7/7
f 5/7/7 21/6/6 22/8/8
f 5/7/7 22/8/8 17/9/9
f 17/9/9 22/8/8 23/10/10
f 17/9/9 23/10/10 16/11/11
f 16/11/11 23/10/10 24/12/12
f 16/11/11 24/12/12 25/13/13
f 21/6/6 6/5/5 19/14/14
f 19/14/14 6/5/5 7/15/15
f 19/14/14 7/15/15 8/16/16
f 9/17/17 33/18/18 8/16/16
f 8/16/16 33/18/18 34/19/19
f 8/16/16 34/19/19 19/14/14
f 19/14/14 34/19/19 35/20/20
f 19/14/14 35/20/20 18/21/21
f 33/18/18 9/17/17 32/22/22
f 32/22/22 9/17/17 10/23/23
f 32/22/22 10/23/23 11/24/24
f 32/22/22 11/24/24 31/25/25
f 31/25/25 11/24/24 12/26/26
f 31/25/25 12/26/26 30/27/27
f 30/27/27 12/26/26 13/28/28
f 30/27/27 13/28/28 29/29/29
f 29/29/29 13/28/28 14/30/30
f 29/29/29 14/30/30 28/31/31
f 28/31/31 14/30/30 27/32/32
f 27/32/32 14/30/30 15/33/33
f 27/32/32 15/33/33 26/34/34
f 26/34/34 15/33/33 25/13/13
f 25/13/13 15/33/33 16/11/11
f 19/14/14 20/35/35 21/6/6
f 37/36/36 64/37/37 36/38/38
f 36/38/38 64/37/37 65/39/39
f 36/38/38 65/39/39 48/40/40
f 48/40/40 65/39/39 49/41/41
f 48/40/40 49/41/41 47/42/42
f 47/42/42 49/41/41 46/43/43
f 46/43/43 49/41/41 52/44/44
f 46/43/43 52/44/44 53/45/45
f 64/37/37 37/36/36 63/46/46
f 63/46/46 37/36/36 38/47/47
f 63/46/46 38/47/47 62/48/48
f 62/48/48 38/47/47 61/49/49
f 61/49/49 38/47/47 39/50/50
f 61/49/49 39/50/50 60/51/51
f 60/51/51 39/50/50 59/52/52
f 59/52/52 39/50/50 40/53/53
f 59/52/52 40/53/53 58/54/54
f 58/54/54 40/53/53 57/55/55
f 57/55/55 40/53/53 41/56/56
f 57/55/55 41/56/56 56/57/57
f 56/57/57 41/56/56 42/58/58
f 56/57/57 42/58/58 55/59/59
f 55/59/59 42/58/58 43/60/60
f 55/59/59 43/60/60 54/61/61
f 54/61/61 43/60/60 44/62/62
f 54/61/61 44/62/62 45/63/63
f 54/61/61 45/63/63 53/45/45
f 53/45/45 45/63/63 46/43/43
f 50/64/64 51/65/65 49/41/41
f 49/41/41 51/65/65 52/44/44
f 65/39/39 66/66/66 49/41/41
f 67/67/67 68/68/68 84/69/69
f 84/69/69 68/68/68 83/70/70
f 83/70/70 68/68/68 95/71/71
f 83/70/70 95/71/71 82/72/72
f 82/72/72 95/71/71 96/73/73
f 82/72/72 96/73/73 81/74/74
f 81/74/74 96/73/73 97/75/75
f 81/74/74 97/75/75 80/76/76
f 80/76/76 97/75/75 85/77/77
f 80/76/76 85/77/77 86/78/78
f 69/79/79 70/80/80 68/68/68
f 68/68/68 70/80/80 93/81/81
f 68/68/68 93/81/81 94/82/82
f 71/83/83 91/84/84 70/80/80
f 70/80/80 91/84/84 92/85/85
f 70/80/80 92/85/85 93/81/81
f 91/84/84 71/83/83 90/86/86
f 90/86/86 71/83/83 72/87/87
f 90/86/86 72/87/87 73/88/88
f 90/86/86 73/88/88 89/89/89
f 89/89/89 73/88/88 74/90/90
f 89/89/89 74/90/90 75/91/91
f 89/89/89 75/91/91 88/92/92
f 88/92/92 75/91/91 76/93/93
f 88/92/92 76/93/93 77/94/94
f 88/92/92 77/94/94 87/95/95
f 87/95/95 77/94/94 78/96/96
f 87/95/95 78/96/96 86/78/78
f 86/78/78 78/96/96 79/97/97
f 86/78/78 79/97/97 80/76/76
f 94/82/82 95/71/71 68/68/68
f 110/98/98 98/99/99 117/100/100
f 117/100/100 98/99/99 99/101/101
f 117/100/100 99/101/101 116/102/102
f 116/102/102 99/101/101 100/103/103
f 116/102/102 100/103/103 115/104/104
f 115/104/104 100/103/103 101/105/105
f 115/104/104 101/105/105 114/106/106
f 114/106/106 101/105/105 111/107/107
f 114/106/106 111/107/107 113/108/108
f 113/108/108 111/107/107 112/109/109
f 101/105/105 102/110/110 111/107/107
f 111/107/107 102/110/110 103/111/111
f 111/107/107 103/111/111 127/112/112
f 127/112/112 103/111/111 104/113/113
f 127/112/112 104/113/113 105/114/114
f 127/112/112 105/114/114 126/115/115
f 126/115/115 105/114/114 106/116/116
f 126/115/115 106/116/116 125/117/117
f 125/117/117 106/116/116 124/118/118
f 124/118/118 106/116/116 107/119/119
f 124/118/118 107/119/119 123/120/120
f 123/120/120 107/119/119 122/121/121
f 122/121/121 107/119/119 108/122/122
f 122/121/121 108/122/122 121/123/123
f 121/123/123 108/122/122 120/124/124
f 120/124/124 108/122/122 109/125/125
f 120/124/124 109/125/125 119/126/126
f 119/126/126 109/125/125 110/98/98
f 119/126/126 110/98/98 118/127/127
f 118/127/127 110/98/98 117/100/100
f 127/112/112 128/128/128 111/107/107
f 48/129/129 141/130/130 36/131/131
f 36/131/131 141/130/130 129/132/132
f 36/133/131 129/134/132 37/135/133
f 37/135/133 129/134/132 130/136/134
f 37/135/133 130/136/134 38/137/135
f 38/137/135 130/136/134 131/138/136
f 38/137/135 131/138/136 39/139/137
f 39/139/137 131/138/136 132/140/138
f 39/139/137 132/140/138 40/141/139
f 40/141/139 132/140/138 133/142/140
f 40/141/139 133/142/140 41/143/141
f 41/143/141 133/142/140 134/144/142
f 41/143/141 134/144/142 42/145/143
f 42/145/143 134/144/142 135/146/144
f 42/145/143 135/146/144 43/147/145
f 43/147/145 135/146/144 136/148/146
f 43/147/145 136/148/146 44/149/147
f 44/149/147 136/148/146 137/150/148
f 44/149/147 137/150/148 45/151/149
f 45/151/149 137/150/148 138/152/150
f 45/151/149 138/152/150 46/153/151
f 46/153/151 138/152/150 139/154/152
f 46/153/151 139/154/152 47/155/153
f 47/155/153 139/154/152 140/156/154
f 47/155/153 140/156/154 48/129/129
f 48/129/129 140/156/154 141/130/130
f 97/157/155 154/158/156 85/159/157
f 85/159/157 154/158/156 142/160/158
f 85/161/157 142/162/158 86/163/159
f 86/163/159 142/162/158 143/164/160
f 86/163/159 143/164/160 87/165/161
f 87/165/161 143/164/160 144/166/162
f 87/165/161 144/166/162 88/167/163
f 88/167/163 144/166/162 145/168/164
f 88/167/163 145/168/164 89/169/165
f 89/169/165 145/168/164 146/170/166
f 89/169/165 146/170/166 90/171/167
f 90/171/167 146/170/166 147/172/168
f 90/171/167 147/172/168 91/173/169
f 91/173/169 147/172/168 148/174/170
f 91/173/169 148/174/170 92/175/171
f 92/175/171 148/174/170 149/176/172
f 92/175/171 149/176/172 93/177/173
f 93/177/173 149/176/172 150/178/174
f 93/177/173 150/178/174 94/179/175
f 94/179/175 150/178/174 151/180/176
f 94/179/175 151/180/176 95/181/177
f 95/181/177 151/180/176 152/182/178
f 95/181/177 152/182/178 96/183/179
f 96/183/179 152/182/178 153/184/180
f 96/183/179 153/184/180 97/157/155
f 97/157/155 153/184/180 154/158/156
f 17/185/181 167/186/182 5/187/183
f 5/187/183 167/186/182 155/188/184
f 5/189/183 155/190/184 6/191/185
f 6/191/185 155/190/184 156/192/186
f 6/191/185 156/192/186 7/193/187
f 7/193/187 156/192/186 157/194/188
f 7/193/187 157/194/188 8/195/189
f 8/195/189 157/194/188 158/196/190
f 8/195/189 158/196/190 9/197/191
f 9/197/191 158/196/190 159/198/192
f 9/197/191 159/198/192 10/199/193
f 10/199/193 159/198/192 160/200/194
f 10/199/193 160/200/194 11/201/195
f 11/201/195 160/200/194 161/202/196
f 11/201/195 161/202/196 12/203/197
f 12/203/197 161/202/196 162/204/198
f 12/203/197 162/204/198 13/205/199
f 13/205/199 162/204/198 163/206/200
f 13/205/199 163/206/200 14/207/201
f 14/207/201 163/206/200 164/208/202
f 14/207/201 164/208/202 15/209/203
f 15/209/203 164/208/202 165/210/204
f 15/209/203 165/210/204 16/211/205
f 16/211/205 165/210/204 166/212/206
f 16/211/205 166/212/206 17/185/181
f 17/185/181 166/212/206 167/186/182
f 110/213/207 180/214/208 98/215/209
f 98/215/209 180/214/208 168/216/210
f 98/217/209 168/218/210 99/219/211
f 99/219/211 168/218/210 169/220/212
f 99/219/211 169/220/212 100/221/213
f 100/221/213 169/220/212 170/222/214
f 100/221/213 170/222/214 101/223/215
f 101/223/215 170/222/214 171/224/216
f 101/223/215 171/224/216 102/225/217
f 102/225/217 171/224/216 172/226/218
f 102/225/217 172/226/218 103/227/219
f 103/227/219 172/226/218 173/228/220
f 103/227/219 173/228/220 104/229/221
f 104/229/221 173/228/220 174/230/222
f 104/229/221 174/230/222 105/231/223
f 105/231/223 174/230/222 175/232/224
f 105/231/223 175/232/224 106/233/225
f 106/233/225 175/232/224 176/234/226
f 106/233/225 176/234/226 107/235/227
f 107/235/227 176/234/226 177/236/228
f 107/235/227 177/236/228 108/237/229
f 108/237/229 177/236/228 178/238/230
f 108/237/229 178/238/230 109/239/231
f 109/239/231 178/238/230 179/240/232
f 109/239/231 179/240/232 110/213/207
f 110/213/207 179/240/232 180/214/208
f 181/241/233 182/242/234 116/243/235
f 116/243/235 182/242/234 117/244/236
f 112/245/237 183/246/238 113/247/239
f 113/247/239 183/246/238 184/248/240
f 113/247/239 184/248/240 114/249/241
f 114/249/241 184/248/240 185/250/242
f 114/249/241 185/250/242 115/251/243
f 115/251/243 185/250/242 186/252/244
f 115/251/243 186/252/244 116/253/235
f 116/253/235 186/252/244 181/254/233
f 187/255/245 183/256/238 18/257/246
f 18/257/246 183/256/238 112/258/237
f 18/257/246 112/258/237 2/259/247
f 2/259/247 112/258/237 3/260/248
f 3/260/248 112/258/237 111/261/249
f 2/259/247 19/262/250 18/257/246
f 32/263/251 188/264/252 33/265/253
f 33/265/253 188/264/252 189/266/254
f 33/265/253 189/266/254 34/267/255
f 34/267/255 189/266/254 190/268/256
f 34/267/255 190/268/256 35/269/257
f 35/269/257 190/268/256 191/270/258
f 35/269/257 191/270/258 18/271/246
f 18/271/246 191/270/258 187/272/245
f 192/273/259 188/274/252 31/275/260
f 31/275/260 188/274/252 32/276/251
f 21/277/261 193/278/262 22/279/263
f 22/279/263 193/278/262 194/280/264
f 22/279/263 194/280/264 23/281/265
f 23/281/265 194/280/264 195/282/266
f 23/281/265 195/282/266 24/283/267
f 24/283/267 195/282/266 196/284/268
f 24/283/267 196/284/268 25/285/269
f 25/285/269 196/284/268 197/286/270
f 25/285/269 197/286/270 26/287/271
f 26/287/271 197/286/270 198/288/272
f 26/287/271 198/288/272 27/289/273
f 27/289/273 198/288/272 199/290/274
f 27/289/273 199/290/274 28/291/275
f 28/291/275 199/290/274 200/292/276
f 28/291/275 200/292/276 29/293/277
f 29/293/277 200/292/276 201/294/278
f 29/293/277 201/294/278 30/295/279
f 30/295/279 201/294/278 202/296/280
f 30/295/279 202/296/280 31/297/260
f 31/297/260 202/296/280 192/298/259
f 203/299/281 193/300/262 20/301/282
f 20/301/282 193/300/262 21/302/261
f 204/303/283 203/304/284 19/305/285
f 19/305/285 203/304/284 20/306/286
f 205/307/287 204/308/288 49/309/289
f 49/309/289 204/308/288 19/310/290
f 49/309/289 19/310/290 1/311/291
f 1/311/291 19/310/290 2/312/292
f 206/313/293 205/314/294 66/315/295
f 66/315/295 205/314/294 49/316/296
f 207/317/297 206/318/298 65/319/299
f 65/319/299 206/318/298 66/320/300
f 55/321/301 208/322/302 56/323/303
f 56/323/303 208/322/302 209/324/304
f 56/323/303 209/324/304 57/325/305
f 57/325/305 209/324/304 210/326/306
f 57/325/305 210/326/306 58/327/307
f 58/327/307 210/326/306 211/328/308
f 58/327/307 211/328/308 59/329/309
f 59/329/309 211/328/308 212/330/310
f 59/329/309 212/330/310 60/331/311
f 60/331/311 212/330/310 213/332/312
f 60/331/311 213/332/312 61/333/313
f 61/333/313 213/332/312 214/334/314
f 61/333/313 214/334/314 62/335/315
f 62/335/315 214/334/314 215/336/316
f 62/335/315 215/336/316 63/337/317
f 63/337/317 215/336/316 216/338/318
f 63/337/317 216/338/318 64/339/319
f 64/339/319 216/338/318 217/340/320
f 64/339/319 217/340/320 65/341/299
f 65/341/299 217/340/320 207/342/297
f 218/343/321 208/344/302 54/345/322
f 54/345/322 208/344/302 55/346/301
f 50/347/323 219/348/324 51/349/325
f 51/349/325 219/348/324 220/350/326
f 51/349/325 220/350/326 52/351/327
f 52/351/327 220/350/326 221/352/328
f 52/351/327 221/352/328 53/353/329
f 53/353/329 221/352/328 222/354/330
f 53/353/329 222/354/330 54/355/322
f 54/355/322 222/354/330 218/356/321
f 223/357/331 219/358/324 67/359/332
f 67/359/332 219/358/324 50/360/323
f 67/359/332 50/360/323 4/361/333
f 4/361/333 50/360/323 1/362/334
f 1/362/334 50/360/323 49/363/335
f 4/361/333 68/364/336 67/359/332
f 81/365/337 224/366/338 82/367/339
f 82/367/339 224/366/338 225/368/340
f 82/367/339 225/368/340 83/369/341
f 83/369/341 225/368/340 226/370/342
f 83/369/341 226/370/342 84/371/343
f 84/371/343 226/370/342 227/372/344
f 84/371/343 227/372/344 67/373/332
f 67/373/332 227/372/344 223/374/331
f 228/375/345 224/376/338 80/377/346
f 80/377/346 224/376/338 81/378/337
f 70/379/347 229/380/348 71/381/349
f 71/381/349 229/380/348 230/382/350
f 71/381/349 230/382/350 72/383/351
f 72/383/351 230/382/350 231/384/352
f 72/383/351 231/384/352 73/385/353
f 73/385/353 231/384/352 232/386/354
f 73/385/353 232/386/354 74/387/355
f 74/387/355 232/386/354 233/388/356
f 74/387/355 233/388/356 75/389/357
f 75/389/357 233/388/356 234/390/358
f 75/389/357 234/390/358 76/391/359
f 76/391/359 234/390/358 235/392/360
f 76/391/359 235/392/360 77/393/361
f 77/393/361 235/392/360 236/394/362
f 77/393/361 236/394/362 78/395/363
f 78/395/363 236/394/362 237/396/364
f 78/395/363 237/396/364 79/397/365
f 79/397/365 237/396/364 238/398/366
f 79/397/365 238/398/366 80/399/346
f 80/399/346 238/398/366 228/400/345
f 239/401/367 229/402/348 69/403/368
f 69/403/368 229/402/348 70/404/347
f 240/405/369 239/406/370 68/407/371
f 68/407/371 239/406/370 69/408/372
f 241/409/373 240/410/374 111/411/375
f 111/411/375 240/410/374 68/412/376
f 111/411/375 68/412/376 3/413/377
f 3/413/377 68/412/376 4/414/378
f 242/415/379 241/416/380 128/417/381
f 128/417/381 241/416/380 111/418/382
f 243/419/383 242/420/384 127/421/385
f 127/421/385 242/420/384 128/422/386
f 117/423/236 182/424/234 118/425/387
f 118/425/387 182/424/234 244/426/388
f 118/425/387 244/426/388 119/427/389
f 119/427/389 244/426/388 245/428/390
f 119/427/389 245/428/390 120/429/391
f 120/429/391 245/428/390 246/430/392
f 120/429/391 246/430/392 121/431/393
f 121/431/393 246/430/392 247/432/394
f 121/431/393 247/432/394 122/433/395
f 122/433/395 247/432/394 248/434/396
f 122/433/395 248/434/396 123/435/397
f 123/435/397 248/434/396 249/436/398
f 123/435/397 249/436/398 124/437/399
f 124/437/399 249/436/398 250/438/400
f 124/437/399 250/438/400 125/439/401
f 125/439/401 250/438/400 251/440/402
f 125/439/401 251/440/402 126/441/403
f 126/441/403 251/440/402 252/442/404
f 126/441/403 252/442/404 127/443/385
f 127/443/385 252/442/404 243/444/383
f 180/445/405 244/446/406 168/447/407
f 168/447/407 244/446/406 182/448/408
f 168/447/407 182/448/408 181/449/409
f 179/450/410 246/451/411 180/445/405
f 180/445/405 246/451/411 245/452/412
f 180/445/405 245/452/412 244/446/406
f 246/451/411 179/450/410 247/453/413
f 247/453/413 179/450/410 178/454/414
f 247/453/413 178/454/414 248/455/415
f 248/455/415 178/454/414 177/456/416
f 248/455/415 177/456/416 249/457/417
f 249/457/417 177/456/416 176/458/418
f 249/457/417 176/458/418 250/459/419
f 250/459/419 176/458/418 175/460/420
f 250/459/419 175/460/420 251/461/421
f 251/461/421 175/460/420 252/462/422
f 252/462/422 175/460/420 243/463/423
f 243/463/423 175/460/420 174/464/424
f 243/463/423 174/464/424 241/465/425
f 241/465/425 174/464/424 173/466/426
f 241/465/425 173/466/426 172/467/427
f 172/467/427 171/468/428 241/465/425
f 241/465/425 171/468/428 185/469/429
f 241/465/425 185/469/429 184/470/430
f 185/469/429 171/468/428 186/471/431
f 186/471/431 171/468/428 170/472/432
f 186/471/431 170/472/432 181/449/409
f 181/449/409 170/472/432 169/473/433
f 181/449/409 169/473/433 168/447/407
f 167/474/434 195/475/435 155/476/436
f 155/476/436 195/475/435 194/477/437
f 155/476/436 194/477/437 193/478/438
f 166/479/439 197/480/440 167/474/434
f 167/474/434 197/480/440 196/481/441
f 167/474/434 196/481/441 195/475/435
f 197/480/440 166/479/439 198/482/442
f 198/482/442 166/479/439 165/483/443
f 198/482/442 165/483/443 199/484/444
f 199/484/444 165/483/443 164/485/445
f 199/484/444 164/485/445 200/486/446
f 200/486/446 164/485/445 163/487/447
f 200/486/446 163/487/447 201/488/448
f 201/488/448 163/487/447 162/489/449
f 201/488/448 162/489/449 202/490/450
f 202/490/450 162/489/449 192/491/451
f 192/491/451 162/489/449 161/492/452
f 192/491/451 161/492/452 188/493/453
f 188/493/453 161/492/452 160/494/454
f 188/493/453 160/494/454 189/495/455
f 189/495/455 160/494/454 159/496/456
f 189/495/455 159/496/456 190/497/457
f 190/497/457 159/496/456 158/498/458
f 190/497/457 158/498/458 204/499/459
f 204/499/459 158/498/458 157/500/460
f 204/499/459 157/500/460 156/501/461
f 204/499/459 156/501/461 193/478/438
f 193/478/438 156/501/461 155/476/436
f 154/502/462 224/503/463 142/504/464
f 142/504/464 224/503/463 228/505/465
f 142/504/464 228/505/465 238/506/466
f 154/502/462 153/507/467 224/503/463
f 224/503/463 153/507/467 225/508/468
f 225/508/468 153/507/467 152/509/469
f 225/508/468 152/509/469 226/510/470
f 226/510/470 152/509/469 240/511/471
f 226/510/470 240/511/471 227/512/472
f 227/512/472 240/511/471 184/470/430
f 227/512/472 184/470/430 223/513/473
f 223/513/473 184/470/430 183/514/474
f 223/513/473 183/514/474 187/515/475
f 152/509/469 151/516/476 240/511/471
f 240/511/471 151/516/476 150/517/477
f 240/511/471 150/517/477 149/518/478
f 240/511/471 149/518/478 229/519/479
f 229/519/479 149/518/478 148/520/480
f 229/519/479 148/520/480 230/521/481
f 230/521/481 148/520/480 231/522/482
f 231/522/482 148/520/480 232/523/483
f 232/523/483 148/520/480 147/524/484
f 232/523/483 147/524/484 233/525/485
f 233/525/485 147/524/484 146/526/486
f 233/525/485 146/526/486 234/527/487
f 234/527/487 146/526/486 145/528/488
f 234/527/487 145/528/488 235/529/489
f 235/529/489 145/528/488 144/530/490
f 235/529/489 144/530/490 236/531/491
f 236/531/491 144/530/490 143/532/492
f 236/531/491 143/532/492 237/533/493
f 237/533/493 143/532/492 238/506/466
f 238/506/466 143/532/492 142/504/464
f 141/534/494 207/535/495 129/536/496
f 129/536/496 207/535/495 217/537/497
f 129/536/496 217/537/497 216/538/498
f 207/535/495 141/534/494 205/539/499
f 205/539/499 141/534/494 140/540/500
f 205/539/499 140/540/500 139/541/501
f 205/539/499 139/541/501 221/542/502
f 221/542/502 139/541/501 138/543/503
f 221/542/502 138/543/503 222/544/504
f 222/544/504 138/543/503 137/545/505
f 222/544/504 137/545/505 218/546/506
f 218/546/506 137/545/505 136/547/507
f 218/546/506 136/547/507 208/548/508
f 208/548/508 136/547/507 135/549/509
f 208/548/508 135/549/509 209/550/510
f 209/550/510 135/549/509 210/551/511
f 210/551/511 135/549/509 134/552/512
f 210/551/511 134/552/512 211/553/513
f 211/553/513 134/552/512 133/554/514
f 211/553/513 133/554/514 212/555/515
f 212/555/515 133/554/514 132/556/516
f 212/555/515 132/556/516 213/557/517
f 213/557/517 132/556/516 131/558/518
f 213/557/517 131/558/518 214/559/519
f 214/559/519 131/558/518 130/560/520
f 214/559/519 130/560/520 215/561/521
f 215/561/521 130/560/520 216/538/498
f 216/538/498 130/560/520 129/536/496
f 191/562/522 220/563/523 187/515/475
f 187/515/475 220/563/523 219/564/524
f 187/515/475 219/564/524 223/513/473
f 220/563/523 191/562/522 204/499/459
f 204/499/459 191/562/522 190/497/457
f 193/478/438 203/565/525 204/499/459
f 204/499/459 205/539/499 220/563/523
f 220/563/523 205/539/499 221/542/502
f 205/539/499 206/566/526 207/535/495
f 229/519/479 239/567/527 240/511/471
f 240/511/471 241/465/425 184/470/430
f 241/465/425 242/568/528 243/463/423
# 252 vertices
# 568 texture params
# 528 normals
# 516 facets

# 1 groups
