# WaveFront *.obj file (generated by Autodesk ATF)

mtllib batrod1_3_1_visual.mtl

g BatRod1(3) (1)

v -3.023963 1.284006 36.093556
v -2.840069 1.230740 36.093556
v -2.652486 1.269036 36.093556
v -2.504186 1.390119 36.093556
v -2.429143 1.566251 36.093556
v -2.444549 1.757083 36.093556
v -2.546873 1.918897 36.093556
v -2.712676 2.014623 36.093556
v -2.903973 2.022332 36.093556
v -3.076941 1.940258 36.093556
v -3.191955 1.787202 36.093556
v -3.222666 1.598229 36.093556
v -3.162039 1.416630 36.093556
v -3.023963 1.284006 3.028571
v -2.840069 1.230740 3.028571
v -2.652486 1.269036 3.028571
v -2.504186 1.390119 3.028571
v -2.429143 1.566251 3.028571
v -2.444549 1.757083 3.028571
v -2.546873 1.918897 3.028571
v -2.712676 2.014623 3.028571
v -2.903973 2.022332 3.028571
v -3.076941 1.940258 3.028571
v -3.191955 1.787202 3.028571
v -3.222666 1.598229 3.028571
v -3.162039 1.416630 3.028571
v -3.023963 1.284006 31.960433
v -3.023963 1.284006 27.827310
v -3.023963 1.284006 23.694187
v -3.023963 1.284006 19.561064
v -3.023963 1.284006 15.427941
v -3.023963 1.284006 11.294818
v -3.023963 1.284006 7.161695
v -3.162039 1.416630 31.960433
v -3.162039 1.416630 27.827310
v -3.162039 1.416630 23.694187
v -3.162039 1.416630 19.561064
v -3.162039 1.416630 15.427941
v -3.162039 1.416630 11.294818
v -3.162039 1.416630 7.161695
v -3.222666 1.598229 31.960433
v -3.222666 1.598229 27.827310
v -3.222666 1.598229 23.694187
v -3.222666 1.598229 19.561064
v -3.222666 1.598229 15.427941
v -3.222666 1.598229 11.294818
v -3.222666 1.598229 7.161695
v -3.191955 1.787202 31.960433
v -3.191955 1.787202 27.827310
v -3.191955 1.787202 23.694187
v -3.191955 1.787202 19.561064
v -3.191955 1.787202 15.427941
v -3.191955 1.787202 11.294818
v -3.191955 1.787202 7.161695
v -3.076941 1.940258 31.960433
v -3.076941 1.940258 27.827310
v -3.076941 1.940258 23.694187
v -3.076941 1.940258 19.561064
v -3.076941 1.940258 15.427941
v -3.076941 1.940258 11.294818
v -3.076941 1.940258 7.161695
v -2.903973 2.022332 31.960433
v -2.903973 2.022332 27.827310
v -2.903973 2.022332 23.694187
v -2.903973 2.022332 19.561064
v -2.903973 2.022332 15.427941
v -2.903973 2.022332 11.294818
v -2.903973 2.022332 7.161695
v -2.712676 2.014623 31.960433
v -2.712676 2.014623 27.827310
v -2.712676 2.014623 23.694187
v -2.712676 2.014623 19.561064
v -2.712676 2.014623 15.427941
v -2.712676 2.014623 11.294818
v -2.712676 2.014623 7.161695
v -2.546873 1.918897 31.960433
v -2.546873 1.918897 27.827310
v -2.546873 1.918897 23.694187
v -2.546873 1.918897 19.561064
v -2.546873 1.918897 15.427941
v -2.546873 1.918897 11.294818
v -2.546873 1.918897 7.161695
v -2.444549 1.757083 31.960433
v -2.444549 1.757083 27.827310
v -2.444549 1.757083 23.694187
v -2.444549 1.757083 19.561064
v -2.444549 1.757083 15.427941
v -2.444549 1.757083 11.294818
v -2.444549 1.757083 7.161695
v -2.429143 1.566251 31.960433
v -2.429143 1.566251 27.827310
v -2.429143 1.566251 23.694187
v -2.429143 1.566251 19.561064
v -2.429143 1.566251 15.427941
v -2.429143 1.566251 11.294818
v -2.429143 1.566251 7.161695
v -2.504186 1.390119 31.960433
v -2.504186 1.390119 27.827310
v -2.504186 1.390119 23.694187
v -2.504186 1.390119 19.561064
v -2.504186 1.390119 15.427941
v -2.504186 1.390119 11.294818
v -2.504186 1.390119 7.161695
v -2.652486 1.269036 31.960433
v -2.652486 1.269036 27.827310
v -2.652486 1.269036 23.694187
v -2.652486 1.269036 19.561064
v -2.652486 1.269036 15.427941
v -2.652486 1.269036 11.294818
v -2.652486 1.269036 7.161695
v -2.840069 1.230740 31.960433
v -2.840069 1.230740 27.827310
v -2.840069 1.230740 23.694187
v -2.840069 1.230740 19.561064
v -2.840069 1.230740 15.427941
v -2.840069 1.230740 11.294818
v -2.840069 1.230740 7.161695
vt 0.400000 -2.745624 0.000000
vt 0.354182 -2.559734 0.000000
vt 0.354182 -2.931513 0.000000
vt 0.227226 -3.074817 0.000000
vt 0.227226 -2.416430 0.000000
vt 0.048215 -3.142707 0.000000
vt 0.048215 -2.348540 0.000000
vt -0.141842 -3.119630 0.000000
vt -0.141842 -2.371617 0.000000
vt -0.299404 -3.010873 0.000000
vt -0.299404 -2.480375 0.000000
vt -0.388377 -2.841350 0.000000
vt -0.388377 -2.649897 0.000000
vt 32.764985 -1.063308 0.000000
vt 28.631862 -1.063308 0.000000
vt 32.764985 -1.256637 0.000000
vt 28.631862 -1.256637 0.000000
vt 32.764985 1.256637 0.000000
vt 28.631862 1.256637 0.000000
vt 32.764985 1.063308 0.000000
vt 28.631862 1.063308 0.000000
vt 32.764985 0.869980 0.000000
vt 28.631862 0.869980 0.000000
vt 32.764985 0.676651 0.000000
vt 28.631862 0.676651 0.000000
vt 32.764985 0.483322 0.000000
vt 28.631862 0.483322 0.000000
vt 32.764985 0.289993 0.000000
vt 28.631862 0.289993 0.000000
vt 32.764985 0.096664 0.000000
vt 28.631862 0.096664 0.000000
vt 32.764985 -0.096664 0.000000
vt 28.631862 -0.096664 0.000000
vt 32.764985 -0.289993 0.000000
vt 28.631862 -0.289993 0.000000
vt 32.764985 -0.483322 0.000000
vt 28.631862 -0.483322 0.000000
vt 32.764985 -0.676651 0.000000
vt 28.631862 -0.676651 0.000000
vt 32.764985 -0.869980 0.000000
vt 28.631862 -0.869980 0.000000
vt -0.300000 1.063308 0.000000
vt 3.833123 1.063308 0.000000
vt -0.300000 1.256637 0.000000
vt 3.833123 1.256637 0.000000
vt -0.300000 -1.256637 0.000000
vt 3.833123 -1.256637 0.000000
vt -0.300000 -1.063308 0.000000
vt 3.833123 -1.063308 0.000000
vt -0.300000 -0.869980 0.000000
vt 3.833123 -0.869980 0.000000
vt -0.300000 -0.676651 0.000000
vt 3.833123 -0.676651 0.000000
vt -0.300000 -0.483322 0.000000
vt 3.833123 -0.483322 0.000000
vt -0.300000 -0.289993 0.000000
vt 3.833123 -0.289993 0.000000
vt -0.300000 -0.096664 0.000000
vt 3.833123 -0.096664 0.000000
vt -0.300000 0.096664 0.000000
vt 3.833123 0.096664 0.000000
vt -0.300000 0.289993 0.000000
vt 3.833123 0.289993 0.000000
vt -0.300000 0.483322 0.000000
vt 3.833123 0.483322 0.000000
vt -0.300000 0.676651 0.000000
vt 3.833123 0.676651 0.000000
vt -0.300000 0.869980 0.000000
vt 3.833123 0.869980 0.000000
vt 24.498739 1.256637 0.000000
vt 24.498739 1.063308 0.000000
vt 24.498739 0.869980 0.000000
vt 24.498739 0.676651 0.000000
vt 24.498739 0.483322 0.000000
vt 24.498739 0.289993 0.000000
vt 24.498739 0.096664 0.000000
vt 24.498739 -0.096664 0.000000
vt 24.498739 -0.289993 0.000000
vt 24.498739 -0.483322 0.000000
vt 24.498739 -0.676651 0.000000
vt 24.498739 -0.869980 0.000000
vt 24.498739 -1.063308 0.000000
vt 24.498739 -1.256637 0.000000
vt 20.365616 1.256637 0.000000
vt 20.365616 1.063308 0.000000
vt 20.365616 0.869980 0.000000
vt 20.365616 0.676651 0.000000
vt 20.365616 0.483322 0.000000
vt 20.365616 0.289993 0.000000
vt 20.365616 0.096664 0.000000
vt 20.365616 -0.096664 0.000000
vt 20.365616 -0.289993 0.000000
vt 20.365616 -0.483322 0.000000
vt 20.365616 -0.676651 0.000000
vt 20.365616 -0.869980 0.000000
vt 20.365616 -1.063308 0.000000
vt 20.365616 -1.256637 0.000000
vt 16.232492 1.256637 0.000000
vt 16.232492 1.063308 0.000000
vt 16.232492 0.869980 0.000000
vt 16.232492 0.676651 0.000000
vt 16.232492 0.483322 0.000000
vt 16.232492 0.289993 0.000000
vt 16.232492 0.096664 0.000000
vt 16.232492 -0.096664 0.000000
vt 16.232492 -0.289993 0.000000
vt 16.232492 -0.483322 0.000000
vt 16.232492 -0.676651 0.000000
vt 16.232492 -0.869980 0.000000
vt 16.232492 -1.063308 0.000000
vt 16.232492 -1.256637 0.000000
vt 12.099369 1.256637 0.000000
vt 12.099369 1.063308 0.000000
vt 12.099369 0.869980 0.000000
vt 12.099369 0.676651 0.000000
vt 12.099369 0.483322 0.000000
vt 12.099369 0.289993 0.000000
vt 12.099369 0.096664 0.000000
vt 12.099369 -0.096664 0.000000
vt 12.099369 -0.289993 0.000000
vt 12.099369 -0.483322 0.000000
vt 12.099369 -0.676651 0.000000
vt 12.099369 -0.869980 0.000000
vt 12.099369 -1.063308 0.000000
vt 12.099369 -1.256637 0.000000
vt 7.966246 1.256637 0.000000
vt 7.966246 1.063308 0.000000
vt 7.966246 0.869980 0.000000
vt 7.966246 0.676651 0.000000
vt 7.966246 0.483322 0.000000
vt 7.966246 0.289993 0.000000
vt 7.966246 0.096664 0.000000
vt 7.966246 -0.096664 0.000000
vt 7.966246 -0.289993 0.000000
vt 7.966246 -0.483322 0.000000
vt 7.966246 -0.676651 0.000000
vt 7.966246 -0.869980 0.000000
vt 7.966246 -1.063308 0.000000
vt 7.966246 -1.256637 0.000000
vt 0.400000 3.660832 0.000000
vt 0.354182 3.846721 0.000000
vt 0.354182 3.474942 0.000000
vt 0.227226 3.331638 0.000000
vt 0.227226 3.990025 0.000000
vt 0.048215 3.263748 0.000000
vt 0.048215 4.057915 0.000000
vt -0.141842 3.286825 0.000000
vt -0.141842 4.034838 0.000000
vt -0.299404 3.395583 0.000000
vt -0.299404 3.926081 0.000000
vt -0.388377 3.565105 0.000000
vt -0.388377 3.756558 0.000000
vn 0.000000 -0.000000 1.000000
vn 0.000000 -0.000000 1.000000
vn 0.000000 -0.000000 1.000000
vn 0.000000 -0.000000 1.000000
vn 0.000000 -0.000000 1.000000
vn 0.000000 -0.000000 1.000000
vn 0.000000 -0.000000 1.000000
vn 0.000000 -0.000000 1.000000
vn 0.000000 -0.000000 1.000000
vn 0.000000 -0.000000 1.000000
vn 0.000000 -0.000000 1.000000
vn 0.000000 -0.000000 1.000000
vn 0.000000 -0.000000 1.000000
vn -0.845190 -0.534466 -0.000000
vn -0.845190 -0.534466 -0.000000
vn -0.500000 -0.866025 -0.000000
vn -0.500000 -0.866025 -0.000000
vn -0.040266 -0.999189 -0.000000
vn -0.040266 -0.999189 -0.000000
vn 0.428693 -0.903450 -0.000000
vn 0.428693 -0.903450 -0.000000
vn 0.799443 -0.600742 -0.000000
vn 0.799443 -0.600742 -0.000000
vn 0.987050 -0.160411 -0.000000
vn 0.987050 -0.160411 -0.000000
vn 0.948536 0.316668 0.000000
vn 0.948536 0.316668 0.000000
vn 0.692724 0.721202 0.000000
vn 0.692724 0.721202 0.000000
vn 0.278217 0.960518 0.000000
vn 0.278217 0.960518 0.000000
vn -0.200026 0.979791 0.000000
vn -0.200026 0.979791 0.000000
vn -0.632445 0.774605 0.000000
vn -0.632445 0.774605 0.000000
vn -0.919979 0.391967 0.000000
vn -0.919979 0.391967 0.000000
vn -0.996757 -0.080467 -0.000000
vn -0.996757 -0.080467 -0.000000
vn -0.040266 -0.999189 -0.000000
vn -0.040266 -0.999189 -0.000000
vn -0.500000 -0.866025 -0.000000
vn -0.500000 -0.866025 -0.000000
vn -0.845190 -0.534466 -0.000000
vn -0.845190 -0.534466 -0.000000
vn -0.996757 -0.080467 -0.000000
vn -0.996757 -0.080467 -0.000000
vn -0.919979 0.391967 0.000000
vn -0.919979 0.391967 0.000000
vn -0.632445 0.774605 0.000000
vn -0.632445 0.774605 0.000000
vn -0.200026 0.979791 0.000000
vn -0.200026 0.979791 0.000000
vn 0.278217 0.960518 0.000000
vn 0.278217 0.960518 0.000000
vn 0.692724 0.721202 0.000000
vn 0.692724 0.721202 0.000000
vn 0.948536 0.316668 0.000000
vn 0.948536 0.316668 0.000000
vn 0.987050 -0.160411 -0.000000
vn 0.987050 -0.160411 -0.000000
vn 0.799443 -0.600742 -0.000000
vn 0.799443 -0.600742 -0.000000
vn 0.428693 -0.903450 -0.000000
vn 0.428693 -0.903450 -0.000000
vn -0.500000 -0.866025 -0.000000
vn -0.040266 -0.999189 -0.000000
vn 0.428693 -0.903450 -0.000000
vn 0.799443 -0.600742 -0.000000
vn 0.987050 -0.160411 -0.000000
vn 0.948536 0.316668 0.000000
vn 0.692724 0.721202 0.000000
vn 0.278217 0.960518 0.000000
vn -0.200026 0.979791 0.000000
vn -0.632445 0.774605 0.000000
vn -0.919979 0.391967 0.000000
vn -0.996757 -0.080467 -0.000000
vn -0.845190 -0.534466 -0.000000
vn -0.500000 -0.866025 -0.000000
vn -0.040266 -0.999189 -0.000000
vn 0.428693 -0.903450 -0.000000
vn 0.799443 -0.600742 -0.000000
vn 0.987050 -0.160411 -0.000000
vn 0.948536 0.316668 0.000000
vn 0.692724 0.721202 0.000000
vn 0.278217 0.960518 0.000000
vn -0.200026 0.979791 0.000000
vn -0.632445 0.774605 0.000000
vn -0.919979 0.391967 0.000000
vn -0.996757 -0.080467 -0.000000
vn -0.845190 -0.534466 -0.000000
vn -0.500000 -0.866025 -0.000000
vn -0.040266 -0.999189 -0.000000
vn 0.428693 -0.903450 -0.000000
vn 0.799443 -0.600742 -0.000000
vn 0.987050 -0.160411 -0.000000
vn 0.948536 0.316668 0.000000
vn 0.692724 0.721202 0.000000
vn 0.278217 0.960518 0.000000
vn -0.200026 0.979791 0.000000
vn -0.632445 0.774605 0.000000
vn -0.919979 0.391967 0.000000
vn -0.996757 -0.080467 -0.000000
vn -0.845190 -0.534466 -0.000000
vn -0.500000 -0.866025 -0.000000
vn -0.040266 -0.999189 -0.000000
vn 0.428693 -0.903450 -0.000000
vn 0.799443 -0.600742 -0.000000
vn 0.987050 -0.160411 -0.000000
vn 0.948536 0.316668 0.000000
vn 0.692724 0.721202 0.000000
vn 0.278217 0.960518 0.000000
vn -0.200026 0.979791 0.000000
vn -0.632445 0.774605 0.000000
vn -0.919979 0.391967 0.000000
vn -0.996757 -0.080467 -0.000000
vn -0.845190 -0.534466 -0.000000
vn -0.500000 -0.866025 -0.000000
vn -0.040266 -0.999189 -0.000000
vn 0.428693 -0.903450 -0.000000
vn 0.799443 -0.600742 -0.000000
vn 0.987050 -0.160411 -0.000000
vn 0.948536 0.316668 0.000000
vn 0.692724 0.721202 0.000000
vn 0.278217 0.960518 0.000000
vn -0.200026 0.979791 0.000000
vn -0.632445 0.774605 0.000000
vn -0.919979 0.391967 0.000000
vn -0.996757 -0.080467 -0.000000
vn -0.845190 -0.534466 -0.000000
vn -0.000000 0.000000 -1.000000
vn -0.000000 0.000000 -1.000000
vn -0.000000 0.000000 -1.000000
vn -0.000000 0.000000 -1.000000
vn -0.000000 0.000000 -1.000000
vn -0.000000 0.000000 -1.000000
vn -0.000000 0.000000 -1.000000
vn -0.000000 0.000000 -1.000000
vn -0.000000 0.000000 -1.000000
vn -0.000000 0.000000 -1.000000
vn -0.000000 0.000000 -1.000000
vn -0.000000 0.000000 -1.000000
vn -0.000000 0.000000 -1.000000
usemtl Steel_-_Satin
f 1/1/1 2/2/2 13/3/3
f 13/3/3 2/2/2 12/4/4
f 12/4/4 2/2/2 3/5/5
f 12/4/4 3/5/5 11/6/6
f 11/6/6 3/5/5 4/7/7
f 11/6/6 4/7/7 10/8/8
f 10/8/8 4/7/7 5/9/9
f 10/8/8 5/9/9 9/10/10
f 9/10/10 5/9/9 6/11/11
f 9/10/10 6/11/11 8/12/12
f 8/12/12 6/11/11 7/13/13
f 13/14/14 34/15/15 1/16/16
f 1/16/16 34/15/15 27/17/17
f 1/18/16 27/19/17 2/20/18
f 2/20/18 27/19/17 111/21/19
f 2/20/18 111/21/19 3/22/20
f 3/22/20 111/21/19 104/23/21
f 3/22/20 104/23/21 4/24/22
f 4/24/22 104/23/21 97/25/23
f 4/24/22 97/25/23 5/26/24
f 5/26/24 97/25/23 90/27/25
f 5/26/24 90/27/25 6/28/26
f 6/28/26 90/27/25 83/29/27
f 6/28/26 83/29/27 7/30/28
f 7/30/28 83/29/27 76/31/29
f 7/30/28 76/31/29 8/32/30
f 8/32/30 76/31/29 69/33/31
f 8/32/30 69/33/31 9/34/32
f 9/34/32 69/33/31 62/35/33
f 9/34/32 62/35/33 10/36/34
f 10/36/34 62/35/33 55/37/35
f 10/36/34 55/37/35 11/38/36
f 11/38/36 55/37/35 48/39/37
f 11/38/36 48/39/37 12/40/38
f 12/40/38 48/39/37 41/41/39
f 12/40/38 41/41/39 13/14/14
f 13/14/14 41/41/39 34/15/15
f 15/42/40 117/43/41 14/44/42
f 14/44/42 117/43/41 33/45/43
f 14/46/42 33/47/43 26/48/44
f 26/48/44 33/47/43 40/49/45
f 26/48/44 40/49/45 25/50/46
f 25/50/46 40/49/45 47/51/47
f 25/50/46 47/51/47 24/52/48
f 24/52/48 47/51/47 54/53/49
f 24/52/48 54/53/49 23/54/50
f 23/54/50 54/53/49 61/55/51
f 23/54/50 61/55/51 22/56/52
f 22/56/52 61/55/51 68/57/53
f 22/56/52 68/57/53 21/58/54
f 21/58/54 68/57/53 75/59/55
f 21/58/54 75/59/55 20/60/56
f 20/60/56 75/59/55 82/61/57
f 20/60/56 82/61/57 19/62/58
f 19/62/58 82/61/57 89/63/59
f 19/62/58 89/63/59 18/64/60
f 18/64/60 89/63/59 96/65/61
f 18/64/60 96/65/61 17/66/62
f 17/66/62 96/65/61 103/67/63
f 17/66/62 103/67/63 16/68/64
f 16/68/64 103/67/63 110/69/65
f 16/68/64 110/69/65 15/42/40
f 15/42/40 110/69/65 117/43/41
f 27/19/17 28/70/66 111/21/19
f 111/21/19 28/70/66 112/71/67
f 111/21/19 112/71/67 104/23/21
f 104/23/21 112/71/67 105/72/68
f 104/23/21 105/72/68 97/25/23
f 97/25/23 105/72/68 98/73/69
f 97/25/23 98/73/69 90/27/25
f 90/27/25 98/73/69 91/74/70
f 90/27/25 91/74/70 83/29/27
f 83/29/27 91/74/70 84/75/71
f 83/29/27 84/75/71 76/31/29
f 76/31/29 84/75/71 77/76/72
f 76/31/29 77/76/72 69/33/31
f 69/33/31 77/76/72 70/77/73
f 69/33/31 70/77/73 62/35/33
f 62/35/33 70/77/73 63/78/74
f 62/35/33 63/78/74 55/37/35
f 55/37/35 63/78/74 56/79/75
f 55/37/35 56/79/75 48/39/37
f 48/39/37 56/79/75 49/80/76
f 48/39/37 49/80/76 41/41/39
f 41/41/39 49/80/76 42/81/77
f 41/41/39 42/81/77 34/15/15
f 34/15/15 42/81/77 35/82/78
f 34/15/15 35/82/78 27/17/17
f 27/17/17 35/82/78 28/83/66
f 28/70/66 29/84/79 112/71/67
f 112/71/67 29/84/79 113/85/80
f 112/71/67 113/85/80 105/72/68
f 105/72/68 113/85/80 106/86/81
f 105/72/68 106/86/81 98/73/69
f 98/73/69 106/86/81 99/87/82
f 98/73/69 99/87/82 91/74/70
f 91/74/70 99/87/82 92/88/83
f 91/74/70 92/88/83 84/75/71
f 84/75/71 92/88/83 85/89/84
f 84/75/71 85/89/84 77/76/72
f 77/76/72 85/89/84 78/90/85
f 77/76/72 78/90/85 70/77/73
f 70/77/73 78/90/85 71/91/86
f 70/77/73 71/91/86 63/78/74
f 63/78/74 71/91/86 64/92/87
f 63/78/74 64/92/87 56/79/75
f 56/79/75 64/92/87 57/93/88
f 56/79/75 57/93/88 49/80/76
f 49/80/76 57/93/88 50/94/89
f 49/80/76 50/94/89 42/81/77
f 42/81/77 50/94/89 43/95/90
f 42/81/77 43/95/90 35/82/78
f 35/82/78 43/95/90 36/96/91
f 35/82/78 36/96/91 28/83/66
f 28/83/66 36/96/91 29/97/79
f 29/84/79 30/98/92 113/85/80
f 113/85/80 30/98/92 114/99/93
f 113/85/80 114/99/93 106/86/81
f 106/86/81 114/99/93 107/100/94
f 106/86/81 107/100/94 99/87/82
f 99/87/82 107/100/94 100/101/95
f 99/87/82 100/101/95 92/88/83
f 92/88/83 100/101/95 93/102/96
f 92/88/83 93/102/96 85/89/84
f 85/89/84 93/102/96 86/103/97
f 85/89/84 86/103/97 78/90/85
f 78/90/85 86/103/97 79/104/98
f 78/90/85 79/104/98 71/91/86
f 71/91/86 79/104/98 72/105/99
f 71/91/86 72/105/99 64/92/87
f 64/92/87 72/105/99 65/106/100
f 64/92/87 65/106/100 57/93/88
f 57/93/88 65/106/100 58/107/101
f 57/93/88 58/107/101 50/94/89
f 50/94/89 58/107/101 51/108/102
f 50/94/89 51/108/102 43/95/90
f 43/95/90 51/108/102 44/109/103
f 43/95/90 44/109/103 36/96/91
f 36/96/91 44/109/103 37/110/104
f 36/96/91 37/110/104 29/97/79
f 29/97/79 37/110/104 30/111/92
f 30/98/92 31/112/105 114/99/93
f 114/99/93 31/112/105 115/113/106
f 114/99/93 115/113/106 107/100/94
f 107/100/94 115/113/106 108/114/107
f 107/100/94 108/114/107 100/101/95
f 100/101/95 108/114/107 101/115/108
f 100/101/95 101/115/108 93/102/96
f 93/102/96 101/115/108 94/116/109
f 93/102/96 94/116/109 86/103/97
f 86/103/97 94/116/109 87/117/110
f 86/103/97 87/117/110 79/104/98
f 79/104/98 87/117/110 80/118/111
f 79/104/98 80/118/111 72/105/99
f 72/105/99 80/118/111 73/119/112
f 72/105/99 73/119/112 65/106/100
f 65/106/100 73/119/112 66/120/113
f 65/106/100 66/120/113 58/107/101
f 58/107/101 66/120/113 59/121/114
f 58/107/101 59/121/114 51/108/102
f 51/108/102 59/121/114 52/122/115
f 51/108/102 52/122/115 44/109/103
f 44/109/103 52/122/115 45/123/116
f 44/109/103 45/123/116 37/110/104
f 37/110/104 45/123/116 38/124/117
f 37/110/104 38/124/117 30/111/92
f 30/111/92 38/124/117 31/125/105
f 31/112/105 32/126/118 115/113/106
f 115/113/106 32/126/118 116/127/119
f 115/113/106 116/127/119 108/114/107
f 108/114/107 116/127/119 109/128/120
f 108/114/107 109/128/120 101/115/108
f 101/115/108 109/128/120 102/129/121
f 101/115/108 102/129/121 94/116/109
f 94/116/109 102/129/121 95/130/122
f 94/116/109 95/130/122 87/117/110
f 87/117/110 95/130/122 88/131/123
f 87/117/110 88/131/123 80/118/111
f 80/118/111 88/131/123 81/132/124
f 80/118/111 81/132/124 73/119/112
f 73/119/112 81/132/124 74/133/125
f 73/119/112 74/133/125 66/120/113
f 66/120/113 74/133/125 67/134/126
f 66/120/113 67/134/126 59/121/114
f 59/121/114 67/134/126 60/135/127
f 59/121/114 60/135/127 52/122/115
f 52/122/115 60/135/127 53/136/128
f 52/122/115 53/136/128 45/123/116
f 45/123/116 53/136/128 46/137/129
f 45/123/116 46/137/129 38/124/117
f 38/124/117 46/137/129 39/138/130
f 38/124/117 39/138/130 31/125/105
f 31/125/105 39/138/130 32/139/118
f 32/126/118 33/45/43 116/127/119
f 116/127/119 33/45/43 117/43/41
f 116/127/119 117/43/41 109/128/120
f 109/128/120 117/43/41 110/69/65
f 109/128/120 110/69/65 102/129/121
f 102/129/121 110/69/65 103/67/63
f 102/129/121 103/67/63 95/130/122
f 95/130/122 103/67/63 96/65/61
f 95/130/122 96/65/61 88/131/123
f 88/131/123 96/65/61 89/63/59
f 88/131/123 89/63/59 81/132/124
f 81/132/124 89/63/59 82/61/57
f 81/132/124 82/61/57 74/133/125
f 74/133/125 82/61/57 75/59/55
f 74/133/125 75/59/55 67/134/126
f 67/134/126 75/59/55 68/57/53
f 67/134/126 68/57/53 60/135/127
f 60/135/127 68/57/53 61/55/51
f 60/135/127 61/55/51 53/136/128
f 53/136/128 61/55/51 54/53/49
f 53/136/128 54/53/49 46/137/129
f 46/137/129 54/53/49 47/51/47
f 46/137/129 47/51/47 39/138/130
f 39/138/130 47/51/47 40/49/45
f 39/138/130 40/49/45 32/139/118
f 32/139/118 40/49/45 33/47/43
f 14/140/131 26/141/132 15/142/133
f 15/142/133 26/141/132 16/143/134
f 16/143/134 26/141/132 25/144/135
f 16/143/134 25/144/135 17/145/136
f 17/145/136 25/144/135 24/146/137
f 17/145/136 24/146/137 18/147/138
f 18/147/138 24/146/137 23/148/139
f 18/147/138 23/148/139 19/149/140
f 19/149/140 23/148/139 22/150/141
f 19/149/140 22/150/141 20/151/142
f 20/151/142 22/150/141 21/152/143
# 117 vertices
# 152 texture params
# 143 normals
# 230 facets

# 1 groups
