# WaveFront *.obj file (generated by Autodesk ATF)

mtllib batrod1_3_visual.mtl

g BatRod1(3)

v 0.400000 -3.260832 3.028571
v 0.354182 -3.446721 3.028571
v 0.227226 -3.590025 3.028571
v 0.048215 -3.657915 3.028571
v -0.141842 -3.634838 3.028571
v -0.299404 -3.526081 3.028571
v -0.388377 -3.356558 3.028571
v -0.388377 -3.165105 3.028571
v -0.299404 -2.995583 3.028571
v -0.141842 -2.886825 3.028571
v 0.048215 -2.863748 3.028571
v 0.227226 -2.931638 3.028571
v 0.354182 -3.074942 3.028571
v 0.400000 -3.260832 36.093556
v 0.354182 -3.074942 36.093556
v 0.227226 -2.931638 36.093556
v 0.048215 -2.863748 36.093556
v -0.141842 -2.886825 36.093556
v -0.299404 -2.995583 36.093556
v -0.388377 -3.165105 36.093556
v -0.388377 -3.356558 36.093556
v -0.299404 -3.526081 36.093556
v -0.141842 -3.634838 36.093556
v 0.048215 -3.657915 36.093556
v 0.227226 -3.590025 36.093556
v 0.354182 -3.446721 36.093556
v 0.400000 -3.260832 7.161695
v 0.400000 -3.260832 11.294818
v 0.400000 -3.260832 15.427941
v 0.400000 -3.260832 19.561064
v 0.400000 -3.260832 23.694187
v 0.400000 -3.260832 27.827310
v 0.400000 -3.260832 31.960433
v 0.354182 -3.074942 7.161695
v 0.354182 -3.074942 11.294818
v 0.354182 -3.074942 15.427941
v 0.354182 -3.074942 19.561064
v 0.354182 -3.074942 23.694187
v 0.354182 -3.074942 27.827310
v 0.354182 -3.074942 31.960433
v 0.227226 -2.931638 7.161695
v 0.227226 -2.931638 11.294818
v 0.227226 -2.931638 15.427941
v 0.227226 -2.931638 19.561064
v 0.227226 -2.931638 23.694187
v 0.227226 -2.931638 27.827310
v 0.227226 -2.931638 31.960433
v 0.048215 -2.863748 7.161695
v 0.048215 -2.863748 11.294818
v 0.048215 -2.863748 15.427941
v 0.048215 -2.863748 19.561064
v 0.048215 -2.863748 23.694187
v 0.048215 -2.863748 27.827310
v 0.048215 -2.863748 31.960433
v -0.141842 -2.886825 7.161695
v -0.141842 -2.886825 11.294818
v -0.141842 -2.886825 15.427941
v -0.141842 -2.886825 19.561064
v -0.141842 -2.886825 23.694187
v -0.141842 -2.886825 27.827310
v -0.141842 -2.886825 31.960433
v -0.299404 -2.995583 7.161695
v -0.299404 -2.995583 11.294818
v -0.299404 -2.995583 15.427941
v -0.299404 -2.995583 19.561064
v -0.299404 -2.995583 23.694187
v -0.299404 -2.995583 27.827310
v -0.299404 -2.995583 31.960433
v -0.388377 -3.165105 7.161695
v -0.388377 -3.165105 11.294818
v -0.388377 -3.165105 15.427941
v -0.388377 -3.165105 19.561064
v -0.388377 -3.165105 23.694187
v -0.388377 -3.165105 27.827310
v -0.388377 -3.165105 31.960433
v -0.388377 -3.356558 7.161695
v -0.388377 -3.356558 11.294818
v -0.388377 -3.356558 15.427941
v -0.388377 -3.356558 19.561064
v -0.388377 -3.356558 23.694187
v -0.388377 -3.356558 27.827310
v -0.388377 -3.356558 31.960433
v -0.299404 -3.526081 7.161695
v -0.299404 -3.526081 11.294818
v -0.299404 -3.526081 15.427941
v -0.299404 -3.526081 19.561064
v -0.299404 -3.526081 23.694187
v -0.299404 -3.526081 27.827310
v -0.299404 -3.526081 31.960433
v -0.141842 -3.634838 7.161695
v -0.141842 -3.634838 11.294818
v -0.141842 -3.634838 15.427941
v -0.141842 -3.634838 19.561064
v -0.141842 -3.634838 23.694187
v -0.141842 -3.634838 27.827310
v -0.141842 -3.634838 31.960433
v 0.048215 -3.657915 7.161695
v 0.048215 -3.657915 11.294818
v 0.048215 -3.657915 15.427941
v 0.048215 -3.657915 19.561064
v 0.048215 -3.657915 23.694187
v 0.048215 -3.657915 27.827310
v 0.048215 -3.657915 31.960433
v 0.227226 -3.590025 7.161695
v 0.227226 -3.590025 11.294818
v 0.227226 -3.590025 15.427941
v 0.227226 -3.590025 19.561064
v 0.227226 -3.590025 23.694187
v 0.227226 -3.590025 27.827310
v 0.227226 -3.590025 31.960433
v 0.354182 -3.446721 7.161695
v 0.354182 -3.446721 11.294818
v 0.354182 -3.446721 15.427941
v 0.354182 -3.446721 19.561064
v 0.354182 -3.446721 23.694187
v 0.354182 -3.446721 27.827310
v 0.354182 -3.446721 31.960433
vt 0.400000 3.660832 0.000000
vt 0.354182 3.846721 0.000000
vt 0.354182 3.474942 0.000000
vt 0.227226 3.331638 0.000000
vt 0.227226 3.990025 0.000000
vt 0.048215 3.263748 0.000000
vt 0.048215 4.057915 0.000000
vt -0.141842 3.286825 0.000000
vt -0.141842 4.034838 0.000000
vt -0.299404 3.395583 0.000000
vt -0.299404 3.926081 0.000000
vt -0.388377 3.565105 0.000000
vt -0.388377 3.756558 0.000000
vt 0.400000 -2.745624 0.000000
vt 0.354182 -2.559734 0.000000
vt 0.354182 -2.931513 0.000000
vt 0.227226 -3.074817 0.000000
vt 0.227226 -2.416430 0.000000
vt 0.048215 -3.142707 0.000000
vt 0.048215 -2.348540 0.000000
vt -0.141842 -3.119630 0.000000
vt -0.141842 -2.371617 0.000000
vt -0.299404 -3.010873 0.000000
vt -0.299404 -2.480375 0.000000
vt -0.388377 -2.841350 0.000000
vt -0.388377 -2.649897 0.000000
vt 30.300000 -1.063308 0.000000
vt 26.166877 -1.063308 0.000000
vt 30.300000 -1.256637 0.000000
vt 26.166877 -1.256637 0.000000
vt 30.300000 1.256637 0.000000
vt 26.166877 1.256637 0.000000
vt 30.300000 1.063308 0.000000
vt 26.166877 1.063308 0.000000
vt 30.300000 0.869980 0.000000
vt 26.166877 0.869980 0.000000
vt 30.300000 0.676651 0.000000
vt 26.166877 0.676651 0.000000
vt 30.300000 0.483322 0.000000
vt 26.166877 0.483322 0.000000
vt 30.300000 0.289993 0.000000
vt 26.166877 0.289993 0.000000
vt 30.300000 0.096664 0.000000
vt 26.166877 0.096664 0.000000
vt 30.300000 -0.096664 0.000000
vt 26.166877 -0.096664 0.000000
vt 30.300000 -0.289993 0.000000
vt 26.166877 -0.289993 0.000000
vt 30.300000 -0.483322 0.000000
vt 26.166877 -0.483322 0.000000
vt 30.300000 -0.676651 0.000000
vt 26.166877 -0.676651 0.000000
vt 30.300000 -0.869980 0.000000
vt 26.166877 -0.869980 0.000000
vt -2.764985 1.063308 0.000000
vt 1.368138 1.063308 0.000000
vt -2.764985 1.256637 0.000000
vt 1.368138 1.256637 0.000000
vt -2.764985 -1.256637 0.000000
vt 1.368138 -1.256637 0.000000
vt -2.764985 -1.063308 0.000000
vt 1.368138 -1.063308 0.000000
vt -2.764985 -0.869980 0.000000
vt 1.368138 -0.869980 0.000000
vt -2.764985 -0.676651 0.000000
vt 1.368138 -0.676651 0.000000
vt -2.764985 -0.483322 0.000000
vt 1.368138 -0.483322 0.000000
vt -2.764985 -0.289993 0.000000
vt 1.368138 -0.289993 0.000000
vt -2.764985 -0.096664 0.000000
vt 1.368138 -0.096664 0.000000
vt -2.764985 0.096664 0.000000
vt 1.368138 0.096664 0.000000
vt -2.764985 0.289993 0.000000
vt 1.368138 0.289993 0.000000
vt -2.764985 0.483322 0.000000
vt 1.368138 0.483322 0.000000
vt -2.764985 0.676651 0.000000
vt 1.368138 0.676651 0.000000
vt -2.764985 0.869980 0.000000
vt 1.368138 0.869980 0.000000
vt 22.033754 1.256637 0.000000
vt 22.033754 1.063308 0.000000
vt 22.033754 0.869980 0.000000
vt 22.033754 0.676651 0.000000
vt 22.033754 0.483322 0.000000
vt 22.033754 0.289993 0.000000
vt 22.033754 0.096664 0.000000
vt 22.033754 -0.096664 0.000000
vt 22.033754 -0.289993 0.000000
vt 22.033754 -0.483322 0.000000
vt 22.033754 -0.676651 0.000000
vt 22.033754 -0.869980 0.000000
vt 22.033754 -1.063308 0.000000
vt 22.033754 -1.256637 0.000000
vt 17.900631 1.256637 0.000000
vt 17.900631 1.063308 0.000000
vt 17.900631 0.869980 0.000000
vt 17.900631 0.676651 0.000000
vt 17.900631 0.483322 0.000000
vt 17.900631 0.289993 0.000000
vt 17.900631 0.096664 0.000000
vt 17.900631 -0.096664 0.000000
vt 17.900631 -0.289993 0.000000
vt 17.900631 -0.483322 0.000000
vt 17.900631 -0.676651 0.000000
vt 17.900631 -0.869980 0.000000
vt 17.900631 -1.063308 0.000000
vt 17.900631 -1.256637 0.000000
vt 13.767508 1.256637 0.000000
vt 13.767508 1.063308 0.000000
vt 13.767508 0.869980 0.000000
vt 13.767508 0.676651 0.000000
vt 13.767508 0.483322 0.000000
vt 13.767508 0.289993 0.000000
vt 13.767508 0.096664 0.000000
vt 13.767508 -0.096664 0.000000
vt 13.767508 -0.289993 0.000000
vt 13.767508 -0.483322 0.000000
vt 13.767508 -0.676651 0.000000
vt 13.767508 -0.869980 0.000000
vt 13.767508 -1.063308 0.000000
vt 13.767508 -1.256637 0.000000
vt 9.634384 1.256637 0.000000
vt 9.634384 1.063308 0.000000
vt 9.634384 0.869980 0.000000
vt 9.634384 0.676651 0.000000
vt 9.634384 0.483322 0.000000
vt 9.634384 0.289993 0.000000
vt 9.634384 0.096664 0.000000
vt 9.634384 -0.096664 0.000000
vt 9.634384 -0.289993 0.000000
vt 9.634384 -0.483322 0.000000
vt 9.634384 -0.676651 0.000000
vt 9.634384 -0.869980 0.000000
vt 9.634384 -1.063308 0.000000
vt 9.634384 -1.256637 0.000000
vt 5.501261 1.256637 0.000000
vt 5.501261 1.063308 0.000000
vt 5.501261 0.869980 0.000000
vt 5.501261 0.676651 0.000000
vt 5.501261 0.483322 0.000000
vt 5.501261 0.289993 0.000000
vt 5.501261 0.096664 0.000000
vt 5.501261 -0.096664 0.000000
vt 5.501261 -0.289993 0.000000
vt 5.501261 -0.483322 0.000000
vt 5.501261 -0.676651 0.000000
vt 5.501261 -0.869980 0.000000
vt 5.501261 -1.063308 0.000000
vt 5.501261 -1.256637 0.000000
vn -0.000000 0.000000 -1.000000
vn -0.000000 0.000000 -1.000000
vn -0.000000 0.000000 -1.000000
vn -0.000000 0.000000 -1.000000
vn -0.000000 0.000000 -1.000000
vn -0.000000 0.000000 -1.000000
vn -0.000000 0.000000 -1.000000
vn -0.000000 0.000000 -1.000000
vn -0.000000 0.000000 -1.000000
vn -0.000000 0.000000 -1.000000
vn -0.000000 0.000000 -1.000000
vn -0.000000 0.000000 -1.000000
vn -0.000000 0.000000 -1.000000
vn 0.000000 0.000000 1.000000
vn 0.000000 0.000000 1.000000
vn 0.000000 0.000000 1.000000
vn 0.000000 0.000000 1.000000
vn 0.000000 0.000000 1.000000
vn 0.000000 0.000000 1.000000
vn 0.000000 0.000000 1.000000
vn 0.000000 0.000000 1.000000
vn 0.000000 0.000000 1.000000
vn 0.000000 0.000000 1.000000
vn 0.000000 0.000000 1.000000
vn 0.000000 0.000000 1.000000
vn 0.000000 0.000000 1.000000
vn 0.885456 0.464723 -0.000000
vn 0.885456 0.464723 -0.000000
vn 1.000000 0.000000 -0.000000
vn 1.000000 0.000000 -0.000000
vn 0.885456 -0.464723 -0.000000
vn 0.885456 -0.464723 -0.000000
vn 0.568065 -0.822984 -0.000000
vn 0.568065 -0.822984 -0.000000
vn 0.120537 -0.992709 -0.000000
vn 0.120537 -0.992709 -0.000000
vn -0.354605 -0.935016 0.000000
vn -0.354605 -0.935016 0.000000
vn -0.748511 -0.663123 0.000000
vn -0.748511 -0.663123 0.000000
vn -0.970942 -0.239316 0.000000
vn -0.970942 -0.239316 0.000000
vn -0.970942 0.239316 0.000000
vn -0.970942 0.239316 0.000000
vn -0.748511 0.663123 0.000000
vn -0.748511 0.663123 0.000000
vn -0.354605 0.935016 0.000000
vn -0.354605 0.935016 0.000000
vn 0.120537 0.992709 -0.000000
vn 0.120537 0.992709 -0.000000
vn 0.568065 0.822984 -0.000000
vn 0.568065 0.822984 -0.000000
vn 0.885456 -0.464723 -0.000000
vn 0.885456 -0.464723 -0.000000
vn 1.000000 -0.000000 -0.000000
vn 1.000000 -0.000000 -0.000000
vn 0.885456 0.464723 -0.000000
vn 0.885456 0.464723 -0.000000
vn 0.568065 0.822984 -0.000000
vn 0.568065 0.822984 -0.000000
vn 0.120537 0.992709 -0.000000
vn 0.120537 0.992709 -0.000000
vn -0.354605 0.935016 0.000000
vn -0.354605 0.935016 0.000000
vn -0.748511 0.663123 0.000000
vn -0.748511 0.663123 0.000000
vn -0.970942 0.239316 0.000000
vn -0.970942 0.239316 0.000000
vn -0.970942 -0.239316 0.000000
vn -0.970942 -0.239316 0.000000
vn -0.748511 -0.663123 0.000000
vn -0.748511 -0.663123 0.000000
vn -0.354605 -0.935016 0.000000
vn -0.354605 -0.935016 0.000000
vn 0.120537 -0.992709 -0.000000
vn 0.120537 -0.992709 -0.000000
vn 0.568065 -0.822984 -0.000000
vn 0.568065 -0.822984 -0.000000
vn 1.000000 -0.000000 -0.000000
vn 0.885456 -0.464723 -0.000000
vn 0.568065 -0.822984 -0.000000
vn 0.120537 -0.992709 -0.000000
vn -0.354605 -0.935016 0.000000
vn -0.748511 -0.663123 0.000000
vn -0.970942 -0.239316 0.000000
vn -0.970942 0.239316 0.000000
vn -0.748511 0.663123 0.000000
vn -0.354605 0.935016 0.000000
vn 0.120537 0.992709 -0.000000
vn 0.568065 0.822984 -0.000000
vn 0.885456 0.464723 -0.000000
vn 1.000000 -0.000000 -0.000000
vn 0.885456 -0.464723 -0.000000
vn 0.568065 -0.822984 -0.000000
vn 0.120537 -0.992709 -0.000000
vn -0.354605 -0.935016 0.000000
vn -0.748511 -0.663123 0.000000
vn -0.970942 -0.239316 0.000000
vn -0.970942 0.239316 0.000000
vn -0.748511 0.663123 0.000000
vn -0.354605 0.935016 0.000000
vn 0.120537 0.992709 -0.000000
vn 0.568065 0.822984 -0.000000
vn 0.885456 0.464723 -0.000000
vn 1.000000 -0.000000 -0.000000
vn 0.885456 -0.464723 -0.000000
vn 0.568065 -0.822984 -0.000000
vn 0.120537 -0.992709 -0.000000
vn -0.354605 -0.935016 0.000000
vn -0.748511 -0.663123 0.000000
vn -0.970942 -0.239316 0.000000
vn -0.970942 0.239316 0.000000
vn -0.748511 0.663123 0.000000
vn -0.354605 0.935016 0.000000
vn 0.120537 0.992709 -0.000000
vn 0.568065 0.822984 -0.000000
vn 0.885456 0.464723 -0.000000
vn 1.000000 -0.000000 -0.000000
vn 0.885456 -0.464723 -0.000000
vn 0.568065 -0.822984 -0.000000
vn 0.120537 -0.992709 -0.000000
vn -0.354605 -0.935016 0.000000
vn -0.748511 -0.663123 0.000000
vn -0.970942 -0.239316 0.000000
vn -0.970942 0.239316 0.000000
vn -0.748511 0.663123 0.000000
vn -0.354605 0.935016 0.000000
vn 0.120537 0.992709 -0.000000
vn 0.568065 0.822984 -0.000000
vn 0.885456 0.464723 -0.000000
vn 1.000000 -0.000000 -0.000000
vn 0.885456 -0.464723 -0.000000
vn 0.568065 -0.822984 -0.000000
vn 0.120537 -0.992709 -0.000000
vn -0.354605 -0.935016 0.000000
vn -0.748511 -0.663123 0.000000
vn -0.970942 -0.239316 0.000000
vn -0.970942 0.239316 0.000000
vn -0.748511 0.663123 0.000000
vn -0.354605 0.935016 0.000000
vn 0.120537 0.992709 -0.000000
vn 0.568065 0.822984 -0.000000
vn 0.885456 0.464723 -0.000000
usemtl Steel_-_Satin
f 1/1/1 2/2/2 13/3/3
f 13/3/3 2/2/2 12/4/4
f 12/4/4 2/2/2 3/5/5
f 12/4/4 3/5/5 11/6/6
f 11/6/6 3/5/5 4/7/7
f 11/6/6 4/7/7 10/8/8
f 10/8/8 4/7/7 5/9/9
f 10/8/8 5/9/9 9/10/10
f 9/10/10 5/9/9 6/11/11
f 9/10/10 6/11/11 8/12/12
f 8/12/12 6/11/11 7/13/13
f 14/14/14 15/15/15 26/16/16
f 26/16/16 15/15/15 25/17/17
f 25/17/17 15/15/15 16/18/18
f 25/17/17 16/18/18 24/19/19
f 24/19/19 16/18/18 17/20/20
f 24/19/19 17/20/20 23/21/21
f 23/21/21 17/20/20 18/22/22
f 23/21/21 18/22/22 22/23/23
f 22/23/23 18/22/22 19/24/24
f 22/23/23 19/24/24 21/25/25
f 21/25/25 19/24/24 20/26/26
f 13/27/27 34/28/28 1/29/29
f 1/29/29 34/28/28 27/30/30
f 1/31/29 27/32/30 2/33/31
f 2/33/31 27/32/30 111/34/32
f 2/33/31 111/34/32 3/35/33
f 3/35/33 111/34/32 104/36/34
f 3/35/33 104/36/34 4/37/35
f 4/37/35 104/36/34 97/38/36
f 4/37/35 97/38/36 5/39/37
f 5/39/37 97/38/36 90/40/38
f 5/39/37 90/40/38 6/41/39
f 6/41/39 90/40/38 83/42/40
f 6/41/39 83/42/40 7/43/41
f 7/43/41 83/42/40 76/44/42
f 7/43/41 76/44/42 8/45/43
f 8/45/43 76/44/42 69/46/44
f 8/45/43 69/46/44 9/47/45
f 9/47/45 69/46/44 62/48/46
f 9/47/45 62/48/46 10/49/47
f 10/49/47 62/48/46 55/50/48
f 10/49/47 55/50/48 11/51/49
f 11/51/49 55/50/48 48/52/50
f 11/51/49 48/52/50 12/53/51
f 12/53/51 48/52/50 41/54/52
f 12/53/51 41/54/52 13/27/27
f 13/27/27 41/54/52 34/28/28
f 26/55/53 117/56/54 14/57/55
f 14/57/55 117/56/54 33/58/56
f 14/59/55 33/60/56 15/61/57
f 15/61/57 33/60/56 40/62/58
f 15/61/57 40/62/58 16/63/59
f 16/63/59 40/62/58 47/64/60
f 16/63/59 47/64/60 17/65/61
f 17/65/61 47/64/60 54/66/62
f 17/65/61 54/66/62 18/67/63
f 18/67/63 54/66/62 61/68/64
f 18/67/63 61/68/64 19/69/65
f 19/69/65 61/68/64 68/70/66
f 19/69/65 68/70/66 20/71/67
f 20/71/67 68/70/66 75/72/68
f 20/71/67 75/72/68 21/73/69
f 21/73/69 75/72/68 82/74/70
f 21/73/69 82/74/70 22/75/71
f 22/75/71 82/74/70 89/76/72
f 22/75/71 89/76/72 23/77/73
f 23/77/73 89/76/72 96/78/74
f 23/77/73 96/78/74 24/79/75
f 24/79/75 96/78/74 103/80/76
f 24/79/75 103/80/76 25/81/77
f 25/81/77 103/80/76 110/82/78
f 25/81/77 110/82/78 26/55/53
f 26/55/53 110/82/78 117/56/54
f 27/32/30 28/83/79 111/34/32
f 111/34/32 28/83/79 112/84/80
f 111/34/32 112/84/80 104/36/34
f 104/36/34 112/84/80 105/85/81
f 104/36/34 105/85/81 97/38/36
f 97/38/36 105/85/81 98/86/82
f 97/38/36 98/86/82 90/40/38
f 90/40/38 98/86/82 91/87/83
f 90/40/38 91/87/83 83/42/40
f 83/42/40 91/87/83 84/88/84
f 83/42/40 84/88/84 76/44/42
f 76/44/42 84/88/84 77/89/85
f 76/44/42 77/89/85 69/46/44
f 69/46/44 77/89/85 70/90/86
f 69/46/44 70/90/86 62/48/46
f 62/48/46 70/90/86 63/91/87
f 62/48/46 63/91/87 55/50/48
f 55/50/48 63/91/87 56/92/88
f 55/50/48 56/92/88 48/52/50
f 48/52/50 56/92/88 49/93/89
f 48/52/50 49/93/89 41/54/52
f 41/54/52 49/93/89 42/94/90
f 41/54/52 42/94/90 34/28/28
f 34/28/28 42/94/90 35/95/91
f 34/28/28 35/95/91 27/30/30
f 27/30/30 35/95/91 28/96/79
f 28/83/79 29/97/92 112/84/80
f 112/84/80 29/97/92 113/98/93
f 112/84/80 113/98/93 105/85/81
f 105/85/81 113/98/93 106/99/94
f 105/85/81 106/99/94 98/86/82
f 98/86/82 106/99/94 99/100/95
f 98/86/82 99/100/95 91/87/83
f 91/87/83 99/100/95 92/101/96
f 91/87/83 92/101/96 84/88/84
f 84/88/84 92/101/96 85/102/97
f 84/88/84 85/102/97 77/89/85
f 77/89/85 85/102/97 78/103/98
f 77/89/85 78/103/98 70/90/86
f 70/90/86 78/103/98 71/104/99
f 70/90/86 71/104/99 63/91/87
f 63/91/87 71/104/99 64/105/100
f 63/91/87 64/105/100 56/92/88
f 56/92/88 64/105/100 57/106/101
f 56/92/88 57/106/101 49/93/89
f 49/93/89 57/106/101 50/107/102
f 49/93/89 50/107/102 42/94/90
f 42/94/90 50/107/102 43/108/103
f 42/94/90 43/108/103 35/95/91
f 35/95/91 43/108/103 36/109/104
f 35/95/91 36/109/104 28/96/79
f 28/96/79 36/109/104 29/110/92
f 29/97/92 30/111/105 113/98/93
f 113/98/93 30/111/105 114/112/106
f 113/98/93 114/112/106 106/99/94
f 106/99/94 114/112/106 107/113/107
f 106/99/94 107/113/107 99/100/95
f 99/100/95 107/113/107 100/114/108
f 99/100/95 100/114/108 92/101/96
f 92/101/96 100/114/108 93/115/109
f 92/101/96 93/115/109 85/102/97
f 85/102/97 93/115/109 86/116/110
f 85/102/97 86/116/110 78/103/98
f 78/103/98 86/116/110 79/117/111
f 78/103/98 79/117/111 71/104/99
f 71/104/99 79/117/111 72/118/112
f 71/104/99 72/118/112 64/105/100
f 64/105/100 72/118/112 65/119/113
f 64/105/100 65/119/113 57/106/101
f 57/106/101 65/119/113 58/120/114
f 57/106/101 58/120/114 50/107/102
f 50/107/102 58/120/114 51/121/115
f 50/107/102 51/121/115 43/108/103
f 43/108/103 51/121/115 44/122/116
f 43/108/103 44/122/116 36/109/104
f 36/109/104 44/122/116 37/123/117
f 36/109/104 37/123/117 29/110/92
f 29/110/92 37/123/117 30/124/105
f 30/111/105 31/125/118 114/112/106
f 114/112/106 31/125/118 115/126/119
f 114/112/106 115/126/119 107/113/107
f 107/113/107 115/126/119 108/127/120
f 107/113/107 108/127/120 100/114/108
f 100/114/108 108/127/120 101/128/121
f 100/114/108 101/128/121 93/115/109
f 93/115/109 101/128/121 94/129/122
f 93/115/109 94/129/122 86/116/110
f 86/116/110 94/129/122 87/130/123
f 86/116/110 87/130/123 79/117/111
f 79/117/111 87/130/123 80/131/124
f 79/117/111 80/131/124 72/118/112
f 72/118/112 80/131/124 73/132/125
f 72/118/112 73/132/125 65/119/113
f 65/119/113 73/132/125 66/133/126
f 65/119/113 66/133/126 58/120/114
f 58/120/114 66/133/126 59/134/127
f 58/120/114 59/134/127 51/121/115
f 51/121/115 59/134/127 52/135/128
f 51/121/115 52/135/128 44/122/116
f 44/122/116 52/135/128 45/136/129
f 44/122/116 45/136/129 37/123/117
f 37/123/117 45/136/129 38/137/130
f 37/123/117 38/137/130 30/124/105
f 30/124/105 38/137/130 31/138/118
f 31/125/118 32/139/131 115/126/119
f 115/126/119 32/139/131 116/140/132
f 115/126/119 116/140/132 108/127/120
f 108/127/120 116/140/132 109/141/133
f 108/127/120 109/141/133 101/128/121
f 101/128/121 109/141/133 102/142/134
f 101/128/121 102/142/134 94/129/122
f 94/129/122 102/142/134 95/143/135
f 94/129/122 95/143/135 87/130/123
f 87/130/123 95/143/135 88/144/136
f 87/130/123 88/144/136 80/131/124
f 80/131/124 88/144/136 81/145/137
f 80/131/124 81/145/137 73/132/125
f 73/132/125 81/145/137 74/146/138
f 73/132/125 74/146/138 66/133/126
f 66/133/126 74/146/138 67/147/139
f 66/133/126 67/147/139 59/134/127
f 59/134/127 67/147/139 60/148/140
f 59/134/127 60/148/140 52/135/128
f 52/135/128 60/148/140 53/149/141
f 52/135/128 53/149/141 45/136/129
f 45/136/129 53/149/141 46/150/142
f 45/136/129 46/150/142 38/137/130
f 38/137/130 46/150/142 39/151/143
f 38/137/130 39/151/143 31/138/118
f 31/138/118 39/151/143 32/152/131
f 32/139/131 33/58/56 116/140/132
f 116/140/132 33/58/56 117/56/54
f 116/140/132 117/56/54 109/141/133
f 109/141/133 117/56/54 110/82/78
f 109/141/133 110/82/78 102/142/134
f 102/142/134 110/82/78 103/80/76
f 102/142/134 103/80/76 95/143/135
f 95/143/135 103/80/76 96/78/74
f 95/143/135 96/78/74 88/144/136
f 88/144/136 96/78/74 89/76/72
f 88/144/136 89/76/72 81/145/137
f 81/145/137 89/76/72 82/74/70
f 81/145/137 82/74/70 74/146/138
f 74/146/138 82/74/70 75/72/68
f 74/146/138 75/72/68 67/147/139
f 67/147/139 75/72/68 68/70/66
f 67/147/139 68/70/66 60/148/140
f 60/148/140 68/70/66 61/68/64
f 60/148/140 61/68/64 53/149/141
f 53/149/141 61/68/64 54/66/62
f 53/149/141 54/66/62 46/150/142
f 46/150/142 54/66/62 47/64/60
f 46/150/142 47/64/60 39/151/143
f 39/151/143 47/64/60 40/62/58
f 39/151/143 40/62/58 32/152/131
f 32/152/131 40/62/58 33/60/56
# 117 vertices
# 152 texture params
# 143 normals
# 230 facets

# 1 groups
