# WaveFront *.obj file (generated by Autodesk ATF)

mtllib body2_visual.mtl

g Body2

v 0.245873 0.512500 0.000000
v 0.244912 0.512500 -0.006382
v 0.242111 0.512500 -0.012196
v 0.237722 0.512500 -0.016927
v 0.232133 0.512500 -0.020154
v 0.225841 0.512500 -0.021590
v 0.219405 0.512500 -0.021108
v 0.213397 0.512500 -0.018750
v 0.213397 0.487500 -0.018750
v 0.219405 0.487500 -0.021108
v 0.225841 0.487500 -0.021590
v 0.232133 0.487500 -0.020154
v 0.237722 0.487500 -0.016927
v 0.242111 0.487500 -0.012196
v 0.244912 0.487500 -0.006382
v 0.245873 0.487500 0.000000
v 0.186334 0.456250 -0.065625
v 0.197352 0.456250 -0.070853
v 0.209065 0.456250 -0.074246
v 0.221172 0.456250 -0.075716
v 0.233357 0.456250 -0.075225
v 0.245305 0.456250 -0.072785
v 0.256708 0.456250 -0.068461
v 0.267269 0.456250 -0.062363
v 0.276716 0.456250 -0.054651
v 0.284802 0.456250 -0.045523
v 0.291320 0.456250 -0.035215
v 0.296100 0.456250 -0.023996
v 0.299019 0.456250 -0.012156
v 0.300000 0.456250 0.000000
v 0.137584 0.506250 -0.150062
v 0.154618 0.506250 -0.158683
v 0.172497 0.506250 -0.165377
v 0.191004 0.506250 -0.170063
v 0.209914 0.506250 -0.172685
v 0.228997 0.506250 -0.173211
v 0.248023 0.506250 -0.171635
v 0.266760 0.506250 -0.167975
v 0.284980 0.506250 -0.162276
v 0.302463 0.506250 -0.154607
v 0.318996 0.506250 -0.145062
v 0.334379 0.506250 -0.133756
v 0.348425 0.506250 -0.120826
v 0.360963 0.506250 -0.106429
v 0.371841 0.506250 -0.090741
v 0.380927 0.506250 -0.073951
v 0.388111 0.506250 -0.056263
v 0.393306 0.506250 -0.037892
v 0.396448 0.506250 -0.019062
v 0.397500 0.506250 0.000000
v 0.397500 0.493750 0.000000
v 0.396448 0.493750 -0.019062
v 0.393306 0.493750 -0.037892
v 0.388111 0.493750 -0.056263
v 0.380927 0.493750 -0.073951
v 0.371841 0.493750 -0.090741
v 0.360963 0.493750 -0.106429
v 0.348425 0.493750 -0.120826
v 0.334379 0.493750 -0.133756
v 0.318996 0.493750 -0.145062
v 0.302463 0.493750 -0.154607
v 0.284980 0.493750 -0.162276
v 0.266760 0.493750 -0.167975
v 0.248023 0.493750 -0.171635
v 0.228997 0.493750 -0.173211
v 0.209914 0.493750 -0.172685
v 0.191004 0.493750 -0.170063
v 0.172497 0.493750 -0.165377
v 0.154618 0.493750 -0.158683
v 0.137584 0.493750 -0.150062
v 0.170060 0.543750 -0.093812
v 0.183643 0.543750 -0.100437
v 0.198017 0.543750 -0.105108
v 0.212900 0.543750 -0.107732
v 0.228003 0.543750 -0.108259
v 0.243033 0.543750 -0.106680
v 0.257697 0.543750 -0.103023
v 0.271709 0.543750 -0.097362
v 0.284798 0.543750 -0.089806
v 0.296707 0.543750 -0.080501
v 0.307205 0.543750 -0.069630
v 0.316088 0.543750 -0.057404
v 0.323183 0.543750 -0.044060
v 0.328352 0.543750 -0.029859
v 0.331494 0.543750 -0.015076
v 0.332548 0.543750 0.000000
v -0.141709 0.543750 0.086188
v -0.125435 0.543750 0.114375
v 0.186334 0.543750 -0.065625
v 0.197352 0.543750 -0.070853
v 0.209065 0.543750 -0.074246
v 0.221172 0.543750 -0.075716
v 0.233357 0.543750 -0.075225
v 0.245305 0.543750 -0.072785
v 0.256708 0.543750 -0.068461
v 0.267269 0.543750 -0.062363
v 0.276716 0.543750 -0.054651
v 0.284802 0.543750 -0.045523
v 0.291320 0.543750 -0.035215
v 0.296100 0.543750 -0.023996
v 0.299019 0.543750 -0.012156
v 0.300000 0.543750 0.000000
v 0.332548 0.456250 0.000000
v 0.331494 0.456250 -0.015076
v 0.328352 0.456250 -0.029859
v 0.323183 0.456250 -0.044060
v 0.316088 0.456250 -0.057404
v 0.307205 0.456250 -0.069630
v 0.296707 0.456250 -0.080501
v 0.284798 0.456250 -0.089806
v 0.271709 0.456250 -0.097362
v 0.257697 0.456250 -0.103023
v 0.243033 0.456250 -0.106680
v 0.228003 0.456250 -0.108259
v 0.212900 0.456250 -0.107732
v 0.198017 0.456250 -0.105108
v 0.183643 0.456250 -0.100437
v 0.170060 0.456250 -0.093812
v -0.125435 0.456250 0.114375
v -0.141709 0.456250 0.086188
v -0.098372 0.512500 0.161250
v -0.098372 0.487500 0.161250
v -0.174185 0.506250 0.029938
v -0.174185 0.493750 0.029938
vt 0.012500 0.034009 0.000000
vt -0.012500 0.034009 0.000000
vt 0.012500 0.027531 0.000000
vt -0.012500 0.027531 0.000000
vt 0.012500 0.021053 0.000000
vt -0.012500 0.021053 0.000000
vt 0.012500 0.014575 0.000000
vt -0.012500 0.014575 0.000000
vt 0.012500 0.008097 0.000000
vt -0.012500 0.008097 0.000000
vt 0.012500 0.001619 0.000000
vt -0.012500 0.001619 0.000000
vt 0.012500 -0.004858 0.000000
vt -0.012500 -0.004858 0.000000
vt 0.012500 -0.011336 0.000000
vt -0.012500 -0.011336 0.000000
vt -0.000000 0.076520 0.000000
vt -0.062500 0.076520 0.000000
vt 0.000000 0.068671 0.000000
vt -0.062500 0.061944 0.000000
vt 0.000000 0.060823 0.000000
vt -0.000000 0.052975 0.000000
vt -0.062500 0.047369 0.000000
vt 0.000000 0.045127 0.000000
vt -0.000000 0.037279 0.000000
vt -0.062500 0.032794 0.000000
vt 0.000000 0.029431 0.000000
vt -0.062500 0.018219 0.000000
vt 0.000000 0.021582 0.000000
vt 0.000000 0.013734 0.000000
vt -0.062500 0.003644 0.000000
vt 0.000000 0.005886 0.000000
vt 0.000000 -0.001962 0.000000
vt -0.062500 -0.010931 0.000000
vt 0.000000 -0.009810 0.000000
vt 0.000000 -0.017658 0.000000
vt -0.062500 -0.025507 0.000000
vt -0.000000 -0.025507 0.000000
vt -0.006250 -0.090728 0.000000
vt 0.006250 -0.090728 0.000000
vt -0.006250 -0.071627 0.000000
vt 0.006250 -0.071627 0.000000
vt -0.006250 -0.052527 0.000000
vt 0.006250 -0.052527 0.000000
vt -0.006250 -0.033426 0.000000
vt 0.006250 -0.033426 0.000000
vt -0.006250 -0.014325 0.000000
vt 0.006250 -0.014325 0.000000
vt -0.006250 0.004775 0.000000
vt 0.006250 0.004775 0.000000
vt -0.006250 0.023876 0.000000
vt 0.006250 0.023876 0.000000
vt -0.006250 0.042976 0.000000
vt 0.006250 0.042976 0.000000
vt -0.006250 0.062077 0.000000
vt 0.006250 0.062077 0.000000
vt -0.006250 0.081177 0.000000
vt 0.006250 0.081177 0.000000
vt -0.006250 0.100278 0.000000
vt 0.006250 0.100278 0.000000
vt -0.006250 0.119379 0.000000
vt 0.006250 0.119379 0.000000
vt -0.006250 0.138479 0.000000
vt 0.006250 0.138479 0.000000
vt -0.006250 0.157580 0.000000
vt 0.006250 0.157580 0.000000
vt -0.006250 0.176680 0.000000
vt 0.006250 0.176680 0.000000
vt -0.006250 0.195781 0.000000
vt 0.006250 0.195781 0.000000
vt -0.006250 0.214881 0.000000
vt 0.006250 0.214881 0.000000
vt -0.006250 0.233982 0.000000
vt 0.006250 0.233982 0.000000
vt -0.006250 0.253083 0.000000
vt 0.006250 0.253083 0.000000
vt -0.006250 0.272183 0.000000
vt 0.006250 0.272183 0.000000
vt -0.075000 -0.073723 0.000000
vt 0.000000 -0.073723 0.000000
vt -0.075000 -0.058203 0.000000
vt -0.000000 -0.054064 0.000000
vt -0.075000 -0.042682 0.000000
vt -0.000000 -0.034404 0.000000
vt -0.075000 -0.027161 0.000000
vt -0.000000 -0.014745 0.000000
vt -0.075000 -0.011641 0.000000
vt -0.000000 0.004915 0.000000
vt -0.075000 0.003880 0.000000
vt -0.075000 0.019401 0.000000
vt -0.000000 0.024574 0.000000
vt -0.075000 0.034922 0.000000
vt -0.000000 0.044234 0.000000
vt -0.075000 0.050442 0.000000
vt -0.000000 0.063894 0.000000
vt -0.075000 0.065963 0.000000
vt -0.000000 0.083553 0.000000
vt -0.075000 0.081484 0.000000
vt -0.075000 0.097004 0.000000
vt -0.000000 0.103213 0.000000
vt -0.075000 0.112525 0.000000
vt -0.000000 0.122872 0.000000
vt -0.075000 0.128046 0.000000
vt 0.000000 0.142532 0.000000
vt -0.075000 0.143567 0.000000
vt -0.075000 0.159087 0.000000
vt -0.000000 0.162191 0.000000
vt -0.075000 0.174608 0.000000
vt -0.000000 0.181851 0.000000
vt -0.075000 0.190129 0.000000
vt 0.000000 0.201511 0.000000
vt -0.075000 0.205649 0.000000
vt 0.000000 0.221170 0.000000
vt -0.075000 0.221170 0.000000
vt 0.065625 0.113666 0.000000
vt 0.065625 0.146214 0.000000
vt 0.053469 0.112685 0.000000
vt 0.050549 0.145160 0.000000
vt 0.041629 0.109766 0.000000
vt 0.035766 0.142018 0.000000
vt 0.030410 0.104986 0.000000
vt 0.021565 0.136849 0.000000
vt 0.020102 0.098468 0.000000
vt 0.008221 0.129754 0.000000
vt 0.010974 0.090381 0.000000
vt -0.004005 0.120871 0.000000
vt 0.003262 0.080935 0.000000
vt -0.014876 0.110372 0.000000
vt -0.002836 0.070374 0.000000
vt -0.024181 0.098463 0.000000
vt -0.007160 0.058971 0.000000
vt -0.031737 0.085375 0.000000
vt -0.009600 0.047023 0.000000
vt -0.037398 0.071363 0.000000
vt -0.041055 0.056699 0.000000
vt -0.010091 0.034837 0.000000
vt -0.042634 0.041669 0.000000
vt -0.042107 0.026566 0.000000
vt -0.039483 0.011682 0.000000
vt -0.034812 -0.002691 0.000000
vt -0.008621 0.022731 0.000000
vt -0.028187 -0.016274 0.000000
vt -0.005228 0.011018 0.000000
vt -0.000000 0.000000 0.000000
vt 0.151813 -0.328043 0.000000
vt 0.180000 -0.311769 0.000000
vt 0.000000 0.221170 0.000000
vt 0.075000 0.221170 0.000000
vt 0.000000 0.236691 0.000000
vt 0.075000 0.240830 0.000000
vt 0.000000 0.252212 0.000000
vt 0.075000 0.260489 0.000000
vt 0.000000 0.267732 0.000000
vt 0.075000 0.280149 0.000000
vt -0.000000 0.283253 0.000000
vt 0.075000 0.299808 0.000000
vt -0.000000 0.298774 0.000000
vt -0.000000 0.314294 0.000000
vt 0.075000 0.319468 0.000000
vt -0.000000 0.329815 0.000000
vt 0.075000 0.339128 0.000000
vt -0.000000 0.345336 0.000000
vt 0.075000 0.358787 0.000000
vt -0.000000 0.360857 0.000000
vt 0.075000 0.378447 0.000000
vt -0.000000 0.376377 0.000000
vt -0.000000 0.391898 0.000000
vt 0.075000 0.398106 0.000000
vt -0.000000 0.407419 0.000000
vt 0.075000 0.417766 0.000000
vt -0.000000 0.422939 0.000000
vt 0.075000 0.437425 0.000000
vt -0.000000 0.438460 0.000000
vt -0.000000 0.453981 0.000000
vt 0.075000 0.457085 0.000000
vt -0.000000 0.469501 0.000000
vt 0.075000 0.476744 0.000000
vt -0.000000 0.485022 0.000000
vt 0.075000 0.496404 0.000000
vt -0.000000 0.500543 0.000000
vt 0.075000 0.516064 0.000000
vt -0.000000 0.516064 0.000000
vt -0.093812 0.129940 0.000000
vt -0.081657 0.128959 0.000000
vt -0.093812 0.162488 0.000000
vt -0.078737 0.161434 0.000000
vt -0.069816 0.126040 0.000000
vt -0.063954 0.158292 0.000000
vt -0.058597 0.121260 0.000000
vt -0.049753 0.153123 0.000000
vt -0.048290 0.114742 0.000000
vt -0.036409 0.146028 0.000000
vt -0.039162 0.106655 0.000000
vt -0.024182 0.137145 0.000000
vt -0.031449 0.097209 0.000000
vt -0.013311 0.126646 0.000000
vt -0.025352 0.086648 0.000000
vt -0.004007 0.114737 0.000000
vt -0.021027 0.075245 0.000000
vt 0.003550 0.101649 0.000000
vt -0.018588 0.063297 0.000000
vt 0.009211 0.087637 0.000000
vt 0.012867 0.072973 0.000000
vt -0.018097 0.051111 0.000000
vt 0.014447 0.057943 0.000000
vt 0.013919 0.042840 0.000000
vt 0.011295 0.027956 0.000000
vt 0.006625 0.013583 0.000000
vt -0.019567 0.039005 0.000000
vt -0.000000 0.000000 0.000000
vt -0.022960 0.027292 0.000000
vt -0.028187 0.016274 0.000000
vt -0.208187 -0.295495 0.000000
vt -0.180000 -0.311769 0.000000
vt 0.062500 -0.127533 0.000000
vt -0.000000 -0.127533 0.000000
vt 0.062500 -0.135381 0.000000
vt -0.000000 -0.142108 0.000000
vt 0.062500 -0.143229 0.000000
vt 0.062500 -0.151077 0.000000
vt -0.000000 -0.156683 0.000000
vt 0.062500 -0.158925 0.000000
vt 0.062500 -0.166774 0.000000
vt -0.000000 -0.171258 0.000000
vt 0.062500 -0.174622 0.000000
vt 0.000000 -0.185833 0.000000
vt 0.062500 -0.182470 0.000000
vt 0.062500 -0.190318 0.000000
vt -0.000000 -0.200409 0.000000
vt 0.062500 -0.198166 0.000000
vt 0.062500 -0.206014 0.000000
vt 0.000000 -0.214984 0.000000
vt 0.062500 -0.213863 0.000000
vt 0.062500 -0.221711 0.000000
vt 0.000000 -0.229559 0.000000
vt 0.062500 -0.229559 0.000000
vt -0.097500 0.000000 0.000000
vt -0.151627 -0.031250 0.000000
vt -0.064952 0.000000 0.000000
vt 0.000000 -0.037500 0.000000
vt -0.151627 -0.056250 0.000000
vt 0.000000 -0.050000 0.000000
vt -0.064952 -0.087500 0.000000
vt -0.097500 -0.087500 0.000000
vt 0.360000 0.025000 0.000000
vt -0.000000 0.025000 0.000000
vt 0.360000 -0.000000 0.000000
vt -0.000000 0.000000 0.000000
vt -0.216899 0.294043 0.000000
vt -0.055902 -0.027951 0.000000
vt -0.160997 0.321994 0.000000
vt -0.000000 0.000000 0.000000
vt -0.228079 0.288453 0.000000
vt -0.067082 -0.033541 0.000000
vt -0.160997 0.321994 0.000000
vt -0.000000 0.000000 0.000000
vt -0.360000 -0.012500 0.000000
vt -0.000000 -0.012500 0.000000
vt -0.360000 0.000000 0.000000
vt -0.000000 0.000000 0.000000
vt 0.160997 0.321994 0.000000
vt 0.093915 0.355535 0.000000
vt -0.000000 0.000000 0.000000
vt -0.067082 0.033541 0.000000
vt 0.160997 0.321994 0.000000
vt 0.105095 0.349945 0.000000
vt -0.000000 0.000000 0.000000
vt -0.055902 0.027951 0.000000
vt -0.000000 0.025000 0.000000
vt -0.151627 0.018750 0.000000
vt 0.000000 0.000000 0.000000
vt -0.151627 0.006250 0.000000
vt -0.086675 -0.031250 0.000000
vt -0.054127 0.056250 0.000000
vt -0.086675 0.056250 0.000000
vt -0.054127 -0.031250 0.000000
vn -1.000000 -0.000000 -0.000000
vn -1.000000 -0.000000 -0.000000
vn -0.955573 -0.000000 0.294755
vn -0.955573 -0.000000 0.294755
vn -0.826239 -0.000000 0.563320
vn -0.826239 -0.000000 0.563320
vn -0.623490 -0.000000 0.781831
vn -0.623490 -0.000000 0.781831
vn -0.365341 -0.000000 0.930874
vn -0.365341 -0.000000 0.930874
vn -0.074730 -0.000000 0.997204
vn -0.074730 -0.000000 0.997204
vn 0.222521 -0.000000 0.974928
vn 0.222521 -0.000000 0.974928
vn 0.500000 -0.000000 0.866025
vn 0.500000 -0.000000 0.866025
vn -0.500000 -0.866025 -0.000000
vn -0.500000 -0.866025 -0.000000
vn -0.493525 -0.866025 0.080206
vn -0.477786 -0.866025 0.147378
vn -0.474268 -0.866025 0.158334
vn -0.442728 -0.866025 0.232362
vn -0.413119 -0.866025 0.281660
vn -0.399721 -0.866025 0.300371
vn -0.346362 -0.866025 0.360601
vn -0.311745 -0.866025 0.390916
vn -0.284032 -0.866025 0.411492
vn -0.182671 -0.866025 0.465437
vn -0.214346 -0.866025 0.451725
vn -0.139109 -0.866025 0.480259
vn -0.037365 -0.866025 0.498602
vn -0.060268 -0.866025 0.496354
vn 0.020133 -0.866025 0.499594
vn 0.111260 -0.866025 0.487464
vn 0.100013 -0.866025 0.489895
vn 0.177302 -0.866025 0.467508
vn 0.250000 -0.866025 0.433013
vn 0.250000 -0.866025 0.433013
vn -0.500000 0.000000 -0.866025
vn -0.500000 0.000000 -0.866025
vn -0.401695 0.000000 -0.915773
vn -0.401695 0.000000 -0.915773
vn -0.298515 0.000000 -0.954405
vn -0.298515 0.000000 -0.954405
vn -0.191711 0.000000 -0.981451
vn -0.191711 0.000000 -0.981451
vn -0.082579 0.000000 -0.996584
vn -0.082579 0.000000 -0.996584
vn 0.027554 0.000000 -0.999620
vn 0.027554 0.000000 -0.999620
vn 0.137354 0.000000 -0.990522
vn 0.137354 0.000000 -0.990522
vn 0.245485 0.000000 -0.969400
vn 0.245485 0.000000 -0.969400
vn 0.350638 0.000000 -0.936511
vn 0.350638 0.000000 -0.936511
vn 0.451533 0.000000 -0.892254
vn 0.451533 0.000000 -0.892254
vn 0.546948 0.000000 -0.837166
vn 0.546948 0.000000 -0.837166
vn 0.635724 0.000000 -0.771917
vn 0.635724 0.000000 -0.771917
vn 0.716783 0.000000 -0.697297
vn 0.716783 0.000000 -0.697297
vn 0.789141 0.000000 -0.614213
vn 0.789141 0.000000 -0.614213
vn 0.851919 0.000000 -0.523673
vn 0.851919 0.000000 -0.523673
vn 0.904357 0.000000 -0.426776
vn 0.904357 0.000000 -0.426776
vn 0.945817 0.000000 -0.324699
vn 0.945817 0.000000 -0.324699
vn 0.975796 0.000000 -0.218681
vn 0.975796 0.000000 -0.218681
vn 0.993931 0.000000 -0.110008
vn 0.993931 0.000000 -0.110008
vn 1.000000 0.000000 0.000000
vn 1.000000 0.000000 0.000000
vn -0.250000 0.866025 -0.433013
vn -0.250000 0.866025 -0.433013
vn -0.200848 0.866025 -0.457887
vn -0.187303 0.866025 -0.463592
vn -0.149257 0.866025 -0.477203
vn -0.120961 0.866025 -0.485148
vn -0.095855 0.866025 -0.490726
vn -0.052264 0.866025 -0.497261
vn -0.041290 0.866025 -0.498292
vn 0.017450 0.866025 -0.499695
vn 0.013777 0.866025 -0.499810
vn 0.068677 0.866025 -0.495261
vn 0.086824 0.866025 -0.492404
vn 0.122743 0.866025 -0.484700
vn 0.154508 0.866025 -0.475528
vn 0.175319 0.866025 -0.468256
vn 0.219186 0.866025 -0.449397
vn 0.225767 0.866025 -0.446127
vn 0.279596 0.866025 -0.414519
vn 0.273474 0.866025 -0.418583
vn 0.317862 0.866025 -0.385958
vn 0.334565 0.866025 -0.371572
vn 0.358391 0.866025 -0.348648
vn 0.383022 0.866025 -0.321394
vn 0.394570 0.866025 -0.307106
vn 0.424024 0.866025 -0.264960
vn 0.425960 0.866025 -0.261836
vn 0.452179 0.866025 -0.213388
vn 0.456773 0.866025 -0.203368
vn 0.472909 0.866025 -0.162350
vn 0.480631 0.866025 -0.137819
vn 0.487898 0.866025 -0.109341
vn 0.495134 0.866025 -0.069587
vn 0.496965 0.866025 -0.055004
vn 0.500000 0.866025 0.000000
vn 0.500000 0.866025 0.000000
vn -0.000000 1.000000 0.000000
vn -0.000000 1.000000 0.000000
vn -0.000000 1.000000 0.000000
vn -0.000000 1.000000 0.000000
vn -0.000000 1.000000 0.000000
vn -0.000000 1.000000 0.000000
vn -0.000000 1.000000 0.000000
vn -0.000000 1.000000 0.000000
vn -0.000000 1.000000 0.000000
vn -0.000000 1.000000 0.000000
vn -0.000000 1.000000 0.000000
vn -0.000000 1.000000 0.000000
vn -0.000000 1.000000 0.000000
vn -0.000000 1.000000 0.000000
vn -0.000000 1.000000 0.000000
vn -0.000000 1.000000 0.000000
vn -0.000000 1.000000 0.000000
vn -0.000000 1.000000 0.000000
vn -0.000000 1.000000 0.000000
vn -0.000000 1.000000 0.000000
vn -0.000000 1.000000 0.000000
vn -0.000000 1.000000 0.000000
vn -0.000000 1.000000 0.000000
vn -0.000000 1.000000 0.000000
vn -0.000000 1.000000 0.000000
vn -0.000000 1.000000 0.000000
vn -0.000000 1.000000 0.000000
vn -0.000000 1.000000 0.000000
vn -0.000000 1.000000 0.000000
vn -0.000000 1.000000 0.000000
vn -0.000000 1.000000 0.000000
vn -0.000000 1.000000 0.000000
vn 0.500000 -0.866025 0.000000
vn 0.500000 -0.866025 0.000000
vn 0.496965 -0.866025 -0.055004
vn 0.495134 -0.866025 -0.069587
vn 0.487898 -0.866025 -0.109341
vn 0.480631 -0.866025 -0.137819
vn 0.472909 -0.866025 -0.162350
vn 0.456773 -0.866025 -0.203368
vn 0.452179 -0.866025 -0.213388
vn 0.424024 -0.866025 -0.264960
vn 0.425960 -0.866025 -0.261836
vn 0.394570 -0.866025 -0.307106
vn 0.383022 -0.866025 -0.321394
vn 0.358391 -0.866025 -0.348648
vn 0.334565 -0.866025 -0.371572
vn 0.317862 -0.866025 -0.385958
vn 0.279596 -0.866025 -0.414519
vn 0.273474 -0.866025 -0.418583
vn 0.219186 -0.866025 -0.449397
vn 0.225767 -0.866025 -0.446127
vn 0.175319 -0.866025 -0.468256
vn 0.154508 -0.866025 -0.475528
vn 0.122743 -0.866025 -0.484700
vn 0.086824 -0.866025 -0.492404
vn 0.068677 -0.866025 -0.495261
vn 0.017450 -0.866025 -0.499695
vn 0.013777 -0.866025 -0.499810
vn -0.041290 -0.866025 -0.498292
vn -0.052264 -0.866025 -0.497261
vn -0.095855 -0.866025 -0.490726
vn -0.120961 -0.866025 -0.485148
vn -0.149257 -0.866025 -0.477203
vn -0.187303 -0.866025 -0.463592
vn -0.200848 -0.866025 -0.457887
vn -0.250000 -0.866025 -0.433013
vn -0.250000 -0.866025 -0.433013
vn -0.000000 -1.000000 -0.000000
vn -0.000000 -1.000000 -0.000000
vn -0.000000 -1.000000 -0.000000
vn -0.000000 -1.000000 -0.000000
vn -0.000000 -1.000000 -0.000000
vn -0.000000 -1.000000 -0.000000
vn -0.000000 -1.000000 -0.000000
vn -0.000000 -1.000000 -0.000000
vn -0.000000 -1.000000 -0.000000
vn -0.000000 -1.000000 -0.000000
vn -0.000000 -1.000000 -0.000000
vn -0.000000 -1.000000 -0.000000
vn -0.000000 -1.000000 -0.000000
vn -0.000000 -1.000000 -0.000000
vn -0.000000 -1.000000 -0.000000
vn -0.000000 -1.000000 -0.000000
vn -0.000000 -1.000000 -0.000000
vn -0.000000 -1.000000 -0.000000
vn -0.000000 -1.000000 -0.000000
vn -0.000000 -1.000000 -0.000000
vn -0.000000 -1.000000 -0.000000
vn -0.000000 -1.000000 -0.000000
vn -0.000000 -1.000000 -0.000000
vn -0.000000 -1.000000 -0.000000
vn -0.000000 -1.000000 -0.000000
vn -0.000000 -1.000000 -0.000000
vn -0.000000 -1.000000 -0.000000
vn -0.000000 -1.000000 -0.000000
vn -0.000000 -1.000000 -0.000000
vn -0.000000 -1.000000 -0.000000
vn -0.000000 -1.000000 -0.000000
vn -0.000000 -1.000000 -0.000000
vn 0.250000 0.866025 0.433013
vn 0.250000 0.866025 0.433013
vn 0.177302 0.866025 0.467508
vn 0.111260 0.866025 0.487464
vn 0.100013 0.866025 0.489895
vn 0.020133 0.866025 0.499594
vn -0.037365 0.866025 0.498602
vn -0.060268 0.866025 0.496354
vn -0.139109 0.866025 0.480259
vn -0.182671 0.866025 0.465437
vn -0.214346 0.866025 0.451725
vn -0.311745 0.866025 0.390916
vn -0.284032 0.866025 0.411492
vn -0.346362 0.866025 0.360601
vn -0.413119 0.866025 0.281660
vn -0.399721 0.866025 0.300371
vn -0.442728 0.866025 0.232362
vn -0.477786 0.866025 0.147378
vn -0.474268 0.866025 0.158334
vn -0.493525 0.866025 0.080206
vn -0.500000 0.866025 0.000000
vn -0.500000 0.866025 0.000000
vn -0.000000 -0.000000 1.000000
vn -0.000000 -0.000000 1.000000
vn -0.000000 -0.000000 1.000000
vn -0.000000 -0.000000 1.000000
vn -0.000000 -0.000000 1.000000
vn -0.000000 -0.000000 1.000000
vn -0.000000 -0.000000 1.000000
vn -0.000000 -0.000000 1.000000
vn 0.500000 0.000000 0.866025
vn 0.500000 0.000000 0.866025
vn 0.250000 0.866025 0.433013
vn 0.250000 0.866025 0.433013
vn -0.250000 0.866025 -0.433013
vn -0.250000 0.866025 -0.433013
vn -0.500000 -0.000000 -0.866025
vn -0.500000 -0.000000 -0.866025
vn -0.250000 -0.866025 -0.433013
vn -0.250000 -0.866025 -0.433013
vn 0.250000 -0.866025 0.433013
vn 0.250000 -0.866025 0.433013
vn -0.866025 -0.000000 0.500000
vn -0.866025 -0.000000 0.500000
vn -0.866025 -0.000000 0.500000
vn -0.866025 -0.000000 0.500000
vn -0.866025 -0.000000 0.500000
vn -0.866025 -0.000000 0.500000
vn -0.866025 -0.000000 0.500000
vn -0.866025 -0.000000 0.500000
usemtl Polycarbonate_(Clear)
f 16/1/1 1/2/2 15/3/3
f 15/3/3 1/2/2 2/4/4
f 15/3/3 2/4/4 14/5/5
f 14/5/5 2/4/4 3/6/6
f 14/5/5 3/6/6 13/7/7
f 13/7/7 3/6/6 4/8/8
f 13/7/7 4/8/8 12/9/9
f 12/9/9 4/8/8 5/10/10
f 12/9/9 5/10/10 11/11/11
f 11/11/11 5/10/10 6/12/12
f 11/11/11 6/12/12 10/13/13
f 10/13/13 6/12/12 7/14/14
f 10/13/13 7/14/14 9/15/15
f 9/15/15 7/14/14 8/16/16
f 30/17/17 16/18/18 29/19/19
f 29/19/19 16/18/18 15/20/20
f 29/19/19 15/20/20 28/21/21
f 28/21/21 15/20/20 27/22/22
f 27/22/22 15/20/20 14/23/23
f 27/22/22 14/23/23 26/24/24
f 26/24/24 14/23/23 25/25/25
f 25/25/25 14/23/23 13/26/26
f 25/25/25 13/26/26 24/27/27
f 24/27/27 13/26/26 12/28/28
f 24/27/27 12/28/28 23/29/29
f 23/29/29 12/28/28 22/30/30
f 22/30/30 12/28/28 11/31/31
f 22/30/30 11/31/31 21/32/32
f 21/32/32 11/31/31 20/33/33
f 20/33/33 11/31/31 10/34/34
f 20/33/33 10/34/34 19/35/35
f 19/35/35 10/34/34 18/36/36
f 18/36/36 10/34/34 9/37/37
f 18/36/36 9/37/37 17/38/38
f 70/39/39 31/40/40 69/41/41
f 69/41/41 31/40/40 32/42/42
f 69/41/41 32/42/42 68/43/43
f 68/43/43 32/42/42 33/44/44
f 68/43/43 33/44/44 67/45/45
f 67/45/45 33/44/44 34/46/46
f 67/45/45 34/46/46 66/47/47
f 66/47/47 34/46/46 35/48/48
f 66/47/47 35/48/48 65/49/49
f 65/49/49 35/48/48 36/50/50
f 65/49/49 36/50/50 64/51/51
f 64/51/51 36/50/50 37/52/52
f 64/51/51 37/52/52 63/53/53
f 63/53/53 37/52/52 38/54/54
f 63/53/53 38/54/54 62/55/55
f 62/55/55 38/54/54 39/56/56
f 62/55/55 39/56/56 61/57/57
f 61/57/57 39/56/56 40/58/58
f 61/57/57 40/58/58 60/59/59
f 60/59/59 40/58/58 41/60/60
f 60/59/59 41/60/60 59/61/61
f 59/61/61 41/60/60 42/62/62
f 59/61/61 42/62/62 58/63/63
f 58/63/63 42/62/62 43/64/64
f 58/63/63 43/64/64 57/65/65
f 57/65/65 43/64/64 44/66/66
f 57/65/65 44/66/66 56/67/67
f 56/67/67 44/66/66 45/68/68
f 56/67/67 45/68/68 55/69/69
f 55/69/69 45/68/68 46/70/70
f 55/69/69 46/70/70 54/71/71
f 54/71/71 46/70/70 47/72/72
f 54/71/71 47/72/72 53/73/73
f 53/73/73 47/72/72 48/74/74
f 53/73/73 48/74/74 52/75/75
f 52/75/75 48/74/74 49/76/76
f 52/75/75 49/76/76 51/77/77
f 51/77/77 49/76/76 50/78/78
f 31/79/79 71/80/80 32/81/81
f 32/81/81 71/80/80 72/82/82
f 32/81/81 72/82/82 33/83/83
f 33/83/83 72/82/82 73/84/84
f 33/83/83 73/84/84 34/85/85
f 34/85/85 73/84/84 74/86/86
f 34/85/85 74/86/86 35/87/87
f 35/87/87 74/86/86 75/88/88
f 35/87/87 75/88/88 36/89/89
f 36/89/89 75/88/88 37/90/90
f 37/90/90 75/88/88 76/91/91
f 37/90/90 76/91/91 38/92/92
f 38/92/92 76/91/91 77/93/93
f 38/92/92 77/93/93 39/94/94
f 39/94/94 77/93/93 78/95/95
f 39/94/94 78/95/95 40/96/96
f 40/96/96 78/95/95 79/97/97
f 40/96/96 79/97/97 41/98/98
f 41/98/98 79/97/97 42/99/99
f 42/99/99 79/97/97 80/100/100
f 42/99/99 80/100/100 43/101/101
f 43/101/101 80/100/100 81/102/102
f 43/101/101 81/102/102 44/103/103
f 44/103/103 81/102/102 82/104/104
f 44/103/103 82/104/104 45/105/105
f 45/105/105 82/104/104 46/106/106
f 46/106/106 82/104/104 83/107/107
f 46/106/106 83/107/107 47/108/108
f 47/108/108 83/107/107 84/109/109
f 47/108/108 84/109/109 48/110/110
f 48/110/110 84/109/109 85/111/111
f 48/110/110 85/111/111 49/112/112
f 49/112/112 85/111/111 86/113/113
f 49/112/112 86/113/113 50/114/114
f 102/115/115 86/116/116 101/117/117
f 101/117/117 86/116/116 85/118/118
f 101/117/117 85/118/118 100/119/119
f 100/119/119 85/118/118 84/120/120
f 100/119/119 84/120/120 99/121/121
f 99/121/121 84/120/120 83/122/122
f 99/121/121 83/122/122 98/123/123
f 98/123/123 83/122/122 82/124/124
f 98/123/123 82/124/124 97/125/125
f 97/125/125 82/124/124 81/126/126
f 97/125/125 81/126/126 96/127/127
f 96/127/127 81/126/126 80/128/128
f 96/127/127 80/128/128 95/129/129
f 95/129/129 80/128/128 79/130/130
f 95/129/129 79/130/130 94/131/131
f 94/131/131 79/130/130 78/132/132
f 94/131/131 78/132/132 93/133/133
f 93/133/133 78/132/132 77/134/134
f 93/133/133 77/134/134 76/135/135
f 93/133/133 76/135/135 92/136/136
f 92/136/136 76/135/135 75/137/137
f 92/136/136 75/137/137 74/138/138
f 74/138/138 73/139/139 92/136/136
f 92/136/136 73/139/139 72/140/140
f 92/136/136 72/140/140 91/141/141
f 91/141/141 72/140/140 71/142/142
f 91/141/141 71/142/142 90/143/143
f 90/143/143 71/142/142 89/144/144
f 89/144/144 71/142/142 87/145/145
f 89/144/144 87/145/145 88/146/146
f 51/147/147 103/148/148 52/149/149
f 52/149/149 103/148/148 104/150/150
f 52/149/149 104/150/150 53/151/151
f 53/151/151 104/150/150 105/152/152
f 53/151/151 105/152/152 54/153/153
f 54/153/153 105/152/152 106/154/154
f 54/153/153 106/154/154 55/155/155
f 55/155/155 106/154/154 107/156/156
f 55/155/155 107/156/156 56/157/157
f 56/157/157 107/156/156 57/158/158
f 57/158/158 107/156/156 108/159/159
f 57/158/158 108/159/159 58/160/160
f 58/160/160 108/159/159 109/161/161
f 58/160/160 109/161/161 59/162/162
f 59/162/162 109/161/161 110/163/163
f 59/162/162 110/163/163 60/164/164
f 60/164/164 110/163/163 111/165/165
f 60/164/164 111/165/165 61/166/166
f 61/166/166 111/165/165 62/167/167
f 62/167/167 111/165/165 112/168/168
f 62/167/167 112/168/168 63/169/169
f 63/169/169 112/168/168 113/170/170
f 63/169/169 113/170/170 64/171/171
f 64/171/171 113/170/170 114/172/172
f 64/171/171 114/172/172 65/173/173
f 65/173/173 114/172/172 66/174/174
f 66/174/174 114/172/172 115/175/175
f 66/174/174 115/175/175 67/176/176
f 67/176/176 115/175/175 116/177/177
f 67/176/176 116/177/177 68/178/178
f 68/178/178 116/177/177 117/179/179
f 68/178/178 117/179/179 69/180/180
f 69/180/180 117/179/179 118/181/181
f 69/180/180 118/181/181 70/182/182
f 30/183/183 29/184/184 103/185/185
f 103/185/185 29/184/184 104/186/186
f 104/186/186 29/184/184 28/187/187
f 104/186/186 28/187/187 105/188/188
f 105/188/188 28/187/187 27/189/189
f 105/188/188 27/189/189 106/190/190
f 106/190/190 27/189/189 26/191/191
f 106/190/190 26/191/191 107/192/192
f 107/192/192 26/191/191 25/193/193
f 107/192/192 25/193/193 108/194/194
f 108/194/194 25/193/193 24/195/195
f 108/194/194 24/195/195 109/196/196
f 109/196/196 24/195/195 23/197/197
f 109/196/196 23/197/197 110/198/198
f 110/198/198 23/197/197 22/199/199
f 110/198/198 22/199/199 111/200/200
f 111/200/200 22/199/199 21/201/201
f 111/200/200 21/201/201 112/202/202
f 112/202/202 21/201/201 113/203/203
f 113/203/203 21/201/201 20/204/204
f 113/203/203 20/204/204 114/205/205
f 114/205/205 20/204/204 115/206/206
f 115/206/206 20/204/204 116/207/207
f 116/207/207 20/204/204 117/208/208
f 117/208/208 20/204/204 19/209/209
f 117/208/208 19/209/209 118/210/210
f 118/210/210 19/209/209 18/211/211
f 118/210/210 18/211/211 17/212/212
f 119/213/213 120/214/214 17/212/212
f 17/212/212 120/214/214 118/210/210
f 89/215/215 8/216/216 90/217/217
f 90/217/217 8/216/216 7/218/218
f 90/217/217 7/218/218 91/219/219
f 91/219/219 7/218/218 92/220/220
f 92/220/220 7/218/218 6/221/221
f 92/220/220 6/221/221 93/222/222
f 93/222/222 6/221/221 94/223/223
f 94/223/223 6/221/221 5/224/224
f 94/223/223 5/224/224 95/225/225
f 95/225/225 5/224/224 4/226/226
f 95/225/225 4/226/226 96/227/227
f 96/227/227 4/226/226 97/228/228
f 97/228/228 4/226/226 3/229/229
f 97/228/228 3/229/229 98/230/230
f 98/230/230 3/229/229 99/231/231
f 99/231/231 3/229/229 2/232/232
f 99/231/231 2/232/232 100/233/233
f 100/233/233 2/232/232 101/234/234
f 101/234/234 2/232/232 1/235/235
f 101/234/234 1/235/235 102/236/236
f 102/237/237 1/238/238 86/239/239
f 86/239/239 1/238/238 50/240/240
f 50/240/240 1/238/238 16/241/241
f 50/240/240 16/241/241 51/242/242
f 51/242/242 16/241/241 103/243/243
f 103/243/243 16/241/241 30/244/244
f 8/245/16 121/246/245 9/247/15
f 9/247/15 121/246/245 122/248/246
f 89/249/215 88/250/247 8/251/216
f 8/251/216 88/250/247 121/252/248
f 31/253/79 123/254/249 71/255/80
f 71/255/80 123/254/249 87/256/250
f 70/257/39 124/258/251 31/259/40
f 31/259/40 124/258/251 123/260/252
f 70/261/182 118/262/181 124/263/253
f 124/263/253 118/262/181 120/264/254
f 17/265/38 9/266/37 119/267/255
f 119/267/255 9/266/37 122/268/256
f 121/269/257 123/270/258 122/271/259
f 122/271/259 123/270/258 124/272/260
f 122/271/259 124/272/260 120/273/261
f 88/274/262 87/275/263 121/269/257
f 121/269/257 87/275/263 123/270/258
f 120/273/261 119/276/264 122/271/259
# 124 vertices
# 276 texture params
# 264 normals
# 244 facets

# 1 groups
