# WaveFront *.obj file (generated by Autodesk ATF)

mtllib body152_visual.mtl

g Body152

v 62.734213 -64.653054 93.648146
v 62.691786 -64.695480 93.648146
v 62.691786 -64.702552 93.653146
v 62.741284 -64.653054 93.653146
v 62.691786 -64.695480 93.588146
v 62.691786 -64.702552 93.583146
v 62.734213 -64.653054 93.588146
v 62.741284 -64.653054 93.583146
v 63.441319 -65.353090 93.653146
v 63.441319 -65.353090 93.583146
v 63.391822 -65.402587 93.653146
v 63.441319 -65.360161 93.648146
v 63.441319 -65.360161 93.588146
v 63.398893 -65.402587 93.588146
v 63.391822 -65.402587 93.583146
v 63.398893 -65.402587 93.648146
vt -0.003536 -0.047500 0.000000
vt 0.003536 -0.052500 0.000000
vt -0.003536 0.012500 0.000000
vt 0.003536 0.017500 0.000000
vt 0.012500 0.003536 0.000000
vt -0.047500 0.003536 0.000000
vt 0.017500 -0.003536 0.000000
vt -0.052500 -0.003536 0.000000
vt 0.003536 -0.012500 0.000000
vt 0.003536 0.047500 0.000000
vt -0.003536 -0.017500 0.000000
vt -0.003536 0.052500 0.000000
vt 0.052500 0.003536 0.000000
vt -0.017500 0.003536 0.000000
vt 0.047500 -0.003536 0.000000
vt -0.012500 -0.003536 0.000000
vt 0.000000 -0.195000 0.000000
vt 0.070000 -0.195000 0.000000
vt 0.000000 0.795000 0.000000
vt 0.070000 0.795000 0.000000
vt -0.000000 -0.195000 0.000000
vt 0.070000 -0.195000 0.000000
vt -0.000000 0.795000 0.000000
vt 0.070000 0.795000 0.000000
vt 0.030000 0.030000 0.000000
vt -0.030000 0.030000 0.000000
vt 0.030000 -0.030000 0.000000
vt -0.030000 -0.030000 0.000000
vt -0.047500 -0.003536 0.000000
vt 0.012500 -0.003536 0.000000
vt -0.052500 0.003536 0.000000
vt 0.017500 0.003536 0.000000
vt -0.003536 -0.012500 0.000000
vt 0.003536 -0.017500 0.000000
vt -0.003536 0.047500 0.000000
vt 0.003536 0.052500 0.000000
vt 0.047500 0.003536 0.000000
vt -0.012500 0.003536 0.000000
vt 0.052500 -0.003536 0.000000
vt -0.017500 -0.003536 0.000000
vt -0.003536 0.017500 0.000000
vt -0.003536 -0.052500 0.000000
vt 0.003536 0.012500 0.000000
vt 0.003536 -0.047500 0.000000
vt 0.030000 0.030000 0.000000
vt -0.030000 0.030000 0.000000
vt 0.030000 -0.030000 0.000000
vt -0.030000 -0.030000 0.000000
vt -0.000000 -0.195000 0.000000
vt 0.070000 -0.195000 0.000000
vt 0.000000 0.795000 0.000000
vt 0.070000 0.795000 0.000000
vt -0.000000 -0.195000 0.000000
vt 0.070000 -0.195000 0.000000
vt 0.000000 0.795000 0.000000
vt 0.070000 0.795000 0.000000
vn -0.500000 0.500000 0.707107
vn -0.500000 0.500000 0.707107
vn -0.500000 0.500000 0.707107
vn -0.500000 0.500000 0.707107
vn -1.000000 -0.000000 -0.000000
vn -1.000000 -0.000000 -0.000000
vn -1.000000 -0.000000 -0.000000
vn -1.000000 -0.000000 -0.000000
vn -0.500000 0.500000 -0.707107
vn -0.500000 0.500000 -0.707107
vn -0.500000 0.500000 -0.707107
vn -0.500000 0.500000 -0.707107
vn 0.000000 1.000000 -0.000000
vn 0.000000 1.000000 -0.000000
vn 0.000000 1.000000 -0.000000
vn 0.000000 1.000000 -0.000000
vn 0.707107 0.707107 -0.000000
vn 0.707107 0.707107 -0.000000
vn 0.707107 0.707107 -0.000000
vn 0.707107 0.707107 -0.000000
vn -0.000000 0.000000 1.000000
vn -0.000000 0.000000 1.000000
vn -0.000000 0.000000 1.000000
vn -0.000000 0.000000 1.000000
vn -0.707107 0.707107 -0.000000
vn -0.707107 0.707107 -0.000000
vn -0.707107 0.707107 -0.000000
vn -0.707107 0.707107 -0.000000
vn 1.000000 0.000000 0.000000
vn 1.000000 0.000000 0.000000
vn 1.000000 0.000000 0.000000
vn 1.000000 0.000000 0.000000
vn 0.500000 -0.500000 -0.707107
vn 0.500000 -0.500000 -0.707107
vn 0.500000 -0.500000 -0.707107
vn 0.500000 -0.500000 -0.707107
vn -0.000000 -1.000000 0.000000
vn -0.000000 -1.000000 0.000000
vn -0.000000 -1.000000 0.000000
vn -0.000000 -1.000000 0.000000
vn 0.500000 -0.500000 0.707107
vn 0.500000 -0.500000 0.707107
vn 0.500000 -0.500000 0.707107
vn 0.500000 -0.500000 0.707107
vn 0.707107 -0.707107 0.000000
vn 0.707107 -0.707107 0.000000
vn 0.707107 -0.707107 0.000000
vn 0.707107 -0.707107 0.000000
vn -0.707107 -0.707107 0.000000
vn -0.707107 -0.707107 0.000000
vn -0.707107 -0.707107 0.000000
vn -0.707107 -0.707107 0.000000
vn 0.000000 -0.000000 -1.000000
vn 0.000000 -0.000000 -1.000000
vn 0.000000 -0.000000 -1.000000
vn 0.000000 -0.000000 -1.000000
usemtl Polycarbonate_(Clear)
f 2/1/1 3/2/2 1/3/3
f 1/3/3 3/2/2 4/4/4
f 2/5/5 5/6/6 3/7/7
f 3/7/7 5/6/6 6/8/8
f 5/9/9 7/10/10 6/11/11
f 6/11/11 7/10/10 8/12/12
f 4/13/13 8/14/14 1/15/15
f 1/15/15 8/14/14 7/16/16
f 8/17/17 4/18/18 10/19/19
f 10/19/19 4/18/18 9/20/20
f 4/21/21 3/22/22 9/23/23
f 9/23/23 3/22/22 11/24/24
f 1/25/25 7/26/26 2/27/27
f 2/27/27 7/26/26 5/28/28
f 12/29/29 13/30/30 9/31/31
f 9/31/31 13/30/30 10/32/32
f 14/33/33 15/34/34 13/35/35
f 13/35/35 15/34/34 10/36/36
f 14/37/37 16/38/38 15/39/39
f 15/39/39 16/38/38 11/40/40
f 9/41/41 11/42/42 12/43/43
f 12/43/43 11/42/42 16/44/44
f 13/45/45 12/46/46 14/47/47
f 14/47/47 12/46/46 16/48/48
f 3/49/49 6/50/50 11/51/51
f 11/51/51 6/50/50 15/52/52
f 6/53/53 8/54/54 15/55/55
f 15/55/55 8/54/54 10/56/56
# 16 vertices
# 56 texture params
# 56 normals
# 28 facets

# 1 groups
