# WaveFront *.obj file (generated by Autodesk ATF)

mtllib body4_visual.mtl

g Body4

v 65.699004 -64.947052 95.862914
v 65.666228 -64.914275 95.855572
v 65.636660 -64.884708 95.834266
v 65.613195 -64.861242 95.801081
v 65.598130 -64.846177 95.759266
v 65.592938 -64.840986 95.712914
v 65.598130 -64.846177 95.666561
v 65.613195 -64.861242 95.624746
v 65.636660 -64.884708 95.591561
v 65.666228 -64.914275 95.570255
v 65.699004 -64.947052 95.562914
v 65.731781 -64.979828 95.570255
v 65.761348 -65.009396 95.591561
v 65.784814 -65.032861 95.624746
v 65.799879 -65.047926 95.666561
v 65.805070 -65.053118 95.712914
v 65.799879 -65.047926 95.759266
v 65.784814 -65.032861 95.801081
v 65.761348 -65.009396 95.834266
v 65.731781 -64.979828 95.855572
v 65.847497 -64.798559 95.862914
v 65.880273 -64.831335 95.855572
v 65.909841 -64.860903 95.834266
v 65.933306 -64.884368 95.801081
v 65.948372 -64.899434 95.759266
v 65.953563 -64.904625 95.712914
v 65.948372 -64.899434 95.666561
v 65.933306 -64.884368 95.624746
v 65.909841 -64.860903 95.591561
v 65.880273 -64.831335 95.570255
v 65.847497 -64.798559 95.562914
v 65.814721 -64.765783 95.570255
v 65.785153 -64.736215 95.591561
v 65.761688 -64.712750 95.624746
v 65.746622 -64.697684 95.666561
v 65.741431 -64.692493 95.712914
v 65.746622 -64.697684 95.759266
v 65.761688 -64.712750 95.801081
v 65.785153 -64.736215 95.834266
v 65.814721 -64.765783 95.855572
v 64.472174 -63.501018 96.547914
v 64.452232 -63.520960 96.554351
v 64.436240 -63.536953 96.572387
v 64.427365 -63.545828 96.598450
v 64.427365 -63.545828 96.627377
v 64.436240 -63.536953 96.653440
v 64.452232 -63.520960 96.671476
v 64.472174 -63.501018 96.677914
v 66.239941 -65.268785 96.677914
v 66.219999 -65.288727 96.671476
v 66.204007 -65.304720 96.653440
v 66.195132 -65.313595 96.627377
v 66.195132 -65.313595 96.598450
v 66.204007 -65.304720 96.572387
v 66.219999 -65.288727 96.554351
v 66.239941 -65.268785 96.547914
v 64.894174 -63.962902 96.554351
v 65.336115 -64.404844 96.554351
v 65.778057 -64.846786 96.554351
v 64.878181 -63.978895 96.572387
v 65.320123 -64.420836 96.572387
v 65.762065 -64.862778 96.572387
v 64.869306 -63.987770 96.598450
v 65.311248 -64.429711 96.598450
v 65.753190 -64.871653 96.598450
v 64.869306 -63.987770 96.627377
v 65.311248 -64.429711 96.627377
v 65.753190 -64.871653 96.627377
v 64.878181 -63.978895 96.653440
v 65.320123 -64.420836 96.653440
v 65.762065 -64.862778 96.653440
v 64.894174 -63.962902 96.671476
v 65.336115 -64.404844 96.671476
v 65.778057 -64.846786 96.671476
v 64.472174 -63.501018 94.747914
v 64.452232 -63.520960 94.754351
v 64.436240 -63.536953 94.772387
v 64.427365 -63.545828 94.798450
v 64.427365 -63.545828 94.827377
v 64.436240 -63.536953 94.853440
v 64.452232 -63.520960 94.871476
v 64.472174 -63.501018 94.877914
v 66.239941 -65.268785 94.877914
v 66.219999 -65.288727 94.871476
v 66.204007 -65.304720 94.853440
v 66.195132 -65.313595 94.827377
v 66.195132 -65.313595 94.798450
v 66.204007 -65.304720 94.772387
v 66.219999 -65.288727 94.754351
v 66.239941 -65.268785 94.747914
v 64.894174 -63.962902 94.754351
v 65.336115 -64.404844 94.754351
v 65.778057 -64.846786 94.754351
v 64.878181 -63.978895 94.772387
v 65.320123 -64.420836 94.772387
v 65.762065 -64.862778 94.772387
v 64.869306 -63.987770 94.798450
v 65.311248 -64.429711 94.798450
v 65.753190 -64.871653 94.798450
v 64.869306 -63.987770 94.827377
v 65.311248 -64.429711 94.827377
v 65.753190 -64.871653 94.827377
v 64.878181 -63.978895 94.853440
v 65.320123 -64.420836 94.853440
v 65.762065 -64.862778 94.853440
v 64.894174 -63.962902 94.871476
v 65.336115 -64.404844 94.871476
v 65.778057 -64.846786 94.871476
v 63.846385 -64.126808 96.862914
v 63.846385 -64.126808 96.792914
v 65.614152 -65.894575 96.792914
v 65.614152 -65.894575 96.862914
v 66.710167 -64.798559 96.862914
v 66.710167 -64.798559 96.792914
v 64.942400 -63.030792 96.792914
v 64.942400 -63.030792 96.862914
v 64.942400 -63.030792 94.562914
v 64.942400 -63.030792 94.632914
v 66.710167 -64.798559 94.632914
v 66.710167 -64.798559 94.562914
v 64.942400 -63.030792 96.368513
v 64.942400 -63.030792 96.432914
v 66.710167 -64.798559 96.432914
v 66.710167 -64.798559 96.368513
v 66.710167 -64.798559 95.517914
v 66.710167 -64.798559 95.453513
v 64.942400 -63.030792 95.453513
v 64.942400 -63.030792 95.517914
v 64.942400 -63.030792 95.907914
v 64.942400 -63.030792 95.972314
v 66.710167 -64.798559 95.972314
v 66.710167 -64.798559 95.907914
v 65.614152 -65.894575 94.562914
v 65.614152 -65.894575 94.632914
v 63.846385 -64.126808 94.632914
v 63.846385 -64.126808 94.562914
v 66.710167 -64.798559 95.057314
v 66.710167 -64.798559 94.992914
v 64.942400 -63.030792 94.992914
v 64.942400 -63.030792 95.057314
v 66.130340 -65.378387 96.792914
v 66.130340 -65.378387 94.632914
v 66.278832 -65.229894 94.632914
v 66.278832 -65.229894 94.747914
v 66.278832 -65.229894 94.877914
v 66.278832 -65.229894 94.992914
v 66.193979 -65.314747 95.057314
v 66.193979 -65.314747 95.453513
v 66.278832 -65.229894 95.517914
v 66.278832 -65.229894 95.907914
v 66.193979 -65.314747 95.972314
v 66.193979 -65.314747 96.368513
v 66.278832 -65.229894 96.432914
v 66.278832 -65.229894 96.547914
v 66.278832 -65.229894 96.677914
v 66.278832 -65.229894 96.792914
v 64.362573 -63.610620 96.792914
v 64.511065 -63.462127 96.792914
v 64.511065 -63.462127 96.677914
v 64.511065 -63.462127 96.547914
v 64.511065 -63.462127 96.432914
v 64.426212 -63.546980 96.368513
v 64.426212 -63.546980 95.972314
v 64.511065 -63.462127 95.907914
v 64.511065 -63.462127 95.517914
v 64.426212 -63.546980 95.453513
v 64.426212 -63.546980 95.057314
v 64.511065 -63.462127 94.992914
v 64.511065 -63.462127 94.877914
v 64.511065 -63.462127 94.747914
v 64.511065 -63.462127 94.632914
v 64.362573 -63.610620 94.632914
vt 0.730000 -0.047124 0.000000
vt 0.940000 -0.047124 0.000000
vt 0.730000 0.000000 0.000000
vt 0.940000 -0.000000 0.000000
vt 0.730000 0.047124 0.000000
vt 0.940000 0.047124 0.000000
vt 0.730000 0.094248 0.000000
vt 0.940000 0.094248 0.000000
vt 0.730000 0.141372 0.000000
vt 0.940000 0.141372 0.000000
vt 0.730000 0.188496 0.000000
vt 0.940000 0.188496 0.000000
vt 0.730000 0.235619 0.000000
vt 0.940000 0.235619 0.000000
vt 0.730000 0.282743 0.000000
vt 0.940000 0.282743 0.000000
vt 0.730000 0.329867 0.000000
vt 0.940000 0.329867 0.000000
vt 0.730000 0.376991 0.000000
vt 0.940000 0.376991 0.000000
vt 0.730000 0.424115 0.000000
vt 0.940000 0.424115 0.000000
vt 0.730000 0.471239 0.000000
vt 0.940000 0.471239 0.000000
vt 0.730000 -0.471239 0.000000
vt 0.940000 -0.471239 0.000000
vt 0.730000 -0.424115 0.000000
vt 0.940000 -0.424115 0.000000
vt 0.730000 -0.376991 0.000000
vt 0.940000 -0.376991 0.000000
vt 0.730000 -0.329867 0.000000
vt 0.940000 -0.329867 0.000000
vt 0.730000 -0.282743 0.000000
vt 0.940000 -0.282743 0.000000
vt 0.730000 -0.235619 0.000000
vt 0.940000 -0.235619 0.000000
vt 0.730000 -0.188496 0.000000
vt 0.940000 -0.188496 0.000000
vt 0.730000 -0.141372 0.000000
vt 0.940000 -0.141372 0.000000
vt 0.730000 -0.094248 0.000000
vt 0.940000 -0.094248 0.000000
vt -0.000000 0.072930 0.000000
vt 0.625000 0.072930 0.000000
vt -0.000000 0.102102 0.000000
vt 1.250000 0.072930 0.000000
vt 2.500000 0.102102 0.000000
vt 1.875000 0.072930 0.000000
vt 2.500000 0.072930 0.000000
vt 2.500000 0.043758 0.000000
vt 1.875000 0.043758 0.000000
vt 2.500000 0.014586 0.000000
vt 1.875000 0.014586 0.000000
vt 2.500000 -0.014586 0.000000
vt 1.875000 -0.014586 0.000000
vt 2.500000 -0.043758 0.000000
vt 1.875000 -0.043758 0.000000
vt 2.500000 -0.072930 0.000000
vt 1.875000 -0.072930 0.000000
vt 2.500000 -0.102102 0.000000
vt 1.250000 -0.072930 0.000000
vt 0.000000 -0.102102 0.000000
vt 0.625000 -0.072930 0.000000
vt 0.000000 -0.072930 0.000000
vt 0.000000 -0.043758 0.000000
vt 0.625000 -0.043758 0.000000
vt 0.000000 -0.014586 0.000000
vt 0.625000 -0.014586 0.000000
vt 0.000000 0.014586 0.000000
vt 0.625000 0.014586 0.000000
vt 0.000000 0.043758 0.000000
vt 0.625000 0.043758 0.000000
vt 1.250000 0.043758 0.000000
vt 1.250000 0.014586 0.000000
vt 1.250000 -0.014586 0.000000
vt 1.250000 -0.043758 0.000000
vt -0.000000 0.072930 0.000000
vt 0.625000 0.072930 0.000000
vt -0.000000 0.102102 0.000000
vt 1.250000 0.072930 0.000000
vt 2.500000 0.102102 0.000000
vt 1.875000 0.072930 0.000000
vt 2.500000 0.072930 0.000000
vt 2.500000 0.043758 0.000000
vt 1.875000 0.043758 0.000000
vt 2.500000 0.014586 0.000000
vt 1.875000 0.014586 0.000000
vt 2.500000 -0.014586 0.000000
vt 1.875000 -0.014586 0.000000
vt 2.500000 -0.043758 0.000000
vt 1.875000 -0.043758 0.000000
vt 2.500000 -0.072930 0.000000
vt 1.875000 -0.072930 0.000000
vt 2.500000 -0.102102 0.000000
vt 1.250000 -0.072930 0.000000
vt 0.000000 -0.102102 0.000000
vt 0.625000 -0.072930 0.000000
vt 0.000000 -0.072930 0.000000
vt 0.000000 -0.043758 0.000000
vt 0.625000 -0.043758 0.000000
vt 0.000000 -0.014586 0.000000
vt 0.625000 -0.014586 0.000000
vt 0.000000 0.014586 0.000000
vt 0.625000 0.014586 0.000000
vt 0.000000 0.043758 0.000000
vt 0.625000 0.043758 0.000000
vt 1.250000 0.043758 0.000000
vt 1.250000 0.014586 0.000000
vt 1.250000 -0.014586 0.000000
vt 1.250000 -0.043758 0.000000
vt -2.300000 -2.500000 0.000000
vt -2.230000 -2.500000 0.000000
vt -2.300000 -0.000000 0.000000
vt -2.230000 -0.000000 0.000000
vt 2.300000 -0.000000 0.000000
vt 2.230000 -0.000000 0.000000
vt 2.300000 -2.500000 0.000000
vt 2.230000 -2.500000 0.000000
vt -0.000000 -2.500000 0.000000
vt 0.070000 -2.500000 0.000000
vt -0.000000 0.000000 0.000000
vt 0.070000 0.000000 0.000000
vt 1.805600 -2.500000 0.000000
vt 1.870000 -2.500000 0.000000
vt 1.805600 0.000000 0.000000
vt 1.870000 -0.000000 0.000000
vt 0.955000 0.000000 0.000000
vt 0.890600 0.000000 0.000000
vt 0.955000 -2.500000 0.000000
vt 0.890600 -2.500000 0.000000
vt 1.345000 -2.500000 0.000000
vt 1.409400 -2.500000 0.000000
vt 1.345000 0.000000 0.000000
vt 1.409400 0.000000 0.000000
vt -0.000000 -2.500000 0.000000
vt 1.550000 -2.500000 0.000000
vt -0.000000 0.000000 0.000000
vt 1.550000 0.000000 0.000000
vt -0.000000 0.000000 0.000000
vt -0.070000 0.000000 0.000000
vt 0.000000 -2.500000 0.000000
vt -0.070000 -2.500000 0.000000
vt -1.550000 -2.500000 0.000000
vt -0.000000 -2.500000 0.000000
vt -1.550000 -0.000000 0.000000
vt -0.000000 0.000000 0.000000
vt 0.494400 0.000000 0.000000
vt 0.430000 0.000000 0.000000
vt 0.494400 -2.500000 0.000000
vt 0.430000 -2.500000 0.000000
vt 0.775000 -1.080000 0.000000
vt 0.045000 -1.080000 0.000000
vt 0.775000 -1.150000 0.000000
vt -0.775000 -1.150000 0.000000
vt -0.165000 -1.080000 0.000000
vt -0.775000 -1.080000 0.000000
vt 0.045000 1.080000 0.000000
vt -0.045000 0.259400 0.000000
vt -0.045000 -0.259400 0.000000
vt -0.045000 -0.655600 0.000000
vt 0.775000 1.080000 0.000000
vt 0.775000 1.150000 0.000000
vt -0.775000 1.150000 0.000000
vt -0.165000 1.080000 0.000000
vt -0.775000 1.080000 0.000000
vt -0.165000 0.965000 0.000000
vt -0.110000 0.965000 0.000000
vt -0.081798 0.958563 0.000000
vt -0.059181 0.940527 0.000000
vt -0.046630 0.914464 0.000000
vt -0.046630 0.885536 0.000000
vt -0.045000 0.655600 0.000000
vt -0.059181 0.859473 0.000000
vt -0.081798 0.841437 0.000000
vt -0.110000 0.835000 0.000000
vt -0.165000 0.835000 0.000000
vt -0.165000 0.720000 0.000000
vt -0.775000 0.720000 0.000000
vt -0.775000 0.655600 0.000000
vt -0.165000 0.195000 0.000000
vt -0.775000 0.259400 0.000000
vt -0.775000 0.195000 0.000000
vt -0.165000 -0.195000 0.000000
vt -0.775000 -0.259400 0.000000
vt -0.775000 -0.195000 0.000000
vt -0.775000 -0.655600 0.000000
vt -0.165000 -0.720000 0.000000
vt -0.110000 -0.835000 0.000000
vt -0.081798 -0.841437 0.000000
vt -0.775000 -0.720000 0.000000
vt -0.165000 -0.835000 0.000000
vt -0.059181 -0.859473 0.000000
vt -0.046630 -0.885536 0.000000
vt -0.046630 -0.914464 0.000000
vt -0.059181 -0.940527 0.000000
vt -0.081798 -0.958563 0.000000
vt -0.110000 -0.965000 0.000000
vt -0.165000 -0.965000 0.000000
vt -0.775000 -1.080000 0.000000
vt -0.775000 -1.150000 0.000000
vt -0.045000 -1.080000 0.000000
vt 0.775000 -1.150000 0.000000
vt 0.165000 -1.080000 0.000000
vt 0.775000 -1.080000 0.000000
vt 0.165000 -0.965000 0.000000
vt 0.110000 -0.965000 0.000000
vt 0.081798 -0.958563 0.000000
vt 0.059181 -0.940527 0.000000
vt 0.046630 -0.914464 0.000000
vt 0.046630 -0.885536 0.000000
vt 0.045000 -0.655600 0.000000
vt 0.045000 -0.259400 0.000000
vt 0.059181 -0.859473 0.000000
vt 0.081798 -0.841437 0.000000
vt 0.110000 -0.835000 0.000000
vt 0.165000 -0.835000 0.000000
vt 0.165000 -0.720000 0.000000
vt 0.775000 -0.720000 0.000000
vt 0.775000 -0.655600 0.000000
vt 0.775000 -0.259400 0.000000
vt 0.165000 -0.195000 0.000000
vt 0.165000 0.195000 0.000000
vt 0.045000 0.259400 0.000000
vt 0.775000 0.259400 0.000000
vt 0.775000 0.195000 0.000000
vt 0.775000 -0.195000 0.000000
vt 0.045000 0.655600 0.000000
vt -0.045000 1.080000 0.000000
vt 0.775000 0.655600 0.000000
vt 0.165000 0.720000 0.000000
vt 0.110000 0.835000 0.000000
vt 0.081798 0.841437 0.000000
vt 0.775000 0.720000 0.000000
vt 0.165000 0.835000 0.000000
vt 0.059181 0.859473 0.000000
vt 0.046630 0.885536 0.000000
vt 0.046630 0.914464 0.000000
vt 0.059181 0.940527 0.000000
vt 0.081798 0.958563 0.000000
vt 0.165000 1.080000 0.000000
vt 0.775000 1.150000 0.000000
vt 0.775000 1.080000 0.000000
vt 0.110000 0.965000 0.000000
vt 0.165000 0.965000 0.000000
vt -0.775000 1.150000 0.000000
vt -0.775000 1.080000 0.000000
vt -0.000000 2.500000 0.000000
vt -0.610000 2.500000 0.000000
vt 0.000000 0.000000 0.000000
vt -0.610000 -0.000000 0.000000
vt 0.610000 2.500000 0.000000
vt 0.000000 2.500000 0.000000
vt 0.610000 0.000000 0.000000
vt -0.000000 0.000000 0.000000
vt -0.390000 2.500000 0.000000
vt -0.195000 2.040000 0.000000
vt 0.000000 2.500000 0.000000
vt -0.148647 2.032658 0.000000
vt -0.106832 2.011353 0.000000
vt -0.390000 0.000000 0.000000
vt -0.345000 1.890000 0.000000
vt -0.337658 1.936353 0.000000
vt -0.316353 1.978168 0.000000
vt -0.000000 0.000000 0.000000
vt -0.195000 1.740000 0.000000
vt -0.241353 1.747342 0.000000
vt -0.283168 1.768647 0.000000
vt -0.045000 1.890000 0.000000
vt -0.052342 1.843647 0.000000
vt -0.073647 1.801832 0.000000
vt -0.106832 1.768647 0.000000
vt -0.148647 1.747342 0.000000
vt -0.316353 1.801832 0.000000
vt -0.337658 1.843647 0.000000
vt -0.283168 2.011353 0.000000
vt -0.241353 2.032658 0.000000
vt -0.073647 1.978168 0.000000
vt -0.052342 1.936353 0.000000
vt 0.000000 2.500000 0.000000
vt -0.730000 2.500000 0.000000
vt 0.000000 0.000000 0.000000
vt -0.730000 -0.000000 0.000000
vt 0.730000 2.500000 0.000000
vt -0.000000 2.500000 0.000000
vt 0.730000 -0.000000 0.000000
vt -0.000000 0.000000 0.000000
vt -0.000000 2.500000 0.000000
vt -0.396200 2.500000 0.000000
vt -0.000000 0.000000 0.000000
vt -0.396200 0.000000 0.000000
vt -0.000000 2.500000 0.000000
vt -0.730000 2.500000 0.000000
vt 0.000000 0.000000 0.000000
vt -0.730000 -0.000000 0.000000
vt 0.730000 2.500000 0.000000
vt 0.000000 2.500000 0.000000
vt 0.730000 -0.000000 0.000000
vt -0.000000 0.000000 0.000000
vt 0.000000 2.500000 0.000000
vt -0.396200 2.500000 0.000000
vt -0.000000 0.000000 0.000000
vt -0.396200 -0.000000 0.000000
vt 0.610000 2.500000 0.000000
vt -0.000000 2.500000 0.000000
vt 0.610000 -0.000000 0.000000
vt -0.000000 0.000000 0.000000
vt 0.115000 2.500000 0.000000
vt -0.000000 2.500000 0.000000
vt 0.115000 0.000000 0.000000
vt -0.000000 0.000000 0.000000
vt -0.000000 2.500000 0.000000
vt -0.055000 2.500000 0.000000
vt -0.000000 0.000000 0.000000
vt -0.055000 -0.000000 0.000000
vt 0.055000 2.500000 0.000000
vt 0.000000 2.500000 0.000000
vt 0.055000 -0.000000 0.000000
vt -0.000000 0.000000 0.000000
vt 0.115000 2.500000 0.000000
vt -0.000000 2.500000 0.000000
vt 0.115000 0.000000 0.000000
vt -0.000000 0.000000 0.000000
vt 0.000000 2.500000 0.000000
vt -0.610000 2.500000 0.000000
vt 0.000000 0.000000 0.000000
vt -0.610000 -0.000000 0.000000
vt -0.000000 2.500000 0.000000
vt -0.610000 2.500000 0.000000
vt -0.000000 0.000000 0.000000
vt -0.610000 -0.000000 0.000000
vt 0.610000 2.500000 0.000000
vt -0.000000 2.500000 0.000000
vt 0.610000 -0.000000 0.000000
vt -0.000000 0.000000 0.000000
vt 0.000000 2.500000 0.000000
vt -0.115000 2.500000 0.000000
vt -0.000000 0.000000 0.000000
vt -0.115000 -0.000000 0.000000
vt 0.000000 2.500000 0.000000
vt -0.055000 2.500000 0.000000
vt -0.000000 0.000000 0.000000
vt -0.055000 -0.000000 0.000000
vt 0.055000 2.500000 0.000000
vt -0.000000 2.500000 0.000000
vt 0.055000 -0.000000 0.000000
vt -0.000000 0.000000 0.000000
vt 0.000000 2.500000 0.000000
vt -0.115000 2.500000 0.000000
vt -0.000000 0.000000 0.000000
vt -0.115000 -0.000000 0.000000
vt 0.730000 2.500000 0.000000
vt -0.000000 2.500000 0.000000
vt 0.730000 -0.000000 0.000000
vt -0.000000 0.000000 0.000000
vt -0.000000 2.500000 0.000000
vt 1.080000 2.040000 0.000000
vt 2.160000 2.500000 0.000000
vt 1.126353 2.032658 0.000000
vt 1.168168 2.011353 0.000000
vt -0.000000 0.000000 0.000000
vt 0.937342 1.843647 0.000000
vt 0.930000 1.890000 0.000000
vt 0.937342 1.936353 0.000000
vt 2.160000 0.000000 0.000000
vt 1.080000 1.740000 0.000000
vt 1.033647 1.747342 0.000000
vt 0.991832 1.768647 0.000000
vt 1.222658 1.843647 0.000000
vt 1.201353 1.801832 0.000000
vt 1.168168 1.768647 0.000000
vt 0.958647 1.978168 0.000000
vt 0.991832 2.011353 0.000000
vt 1.033647 2.032658 0.000000
vt 1.201353 1.978168 0.000000
vt 1.222658 1.936353 0.000000
vt 1.230000 1.890000 0.000000
vt 1.126353 1.747342 0.000000
vt 0.958647 1.801832 0.000000
vt -0.000000 2.500000 0.000000
vt -0.730000 2.500000 0.000000
vt -0.000000 0.000000 0.000000
vt -0.730000 0.000000 0.000000
vn 0.218508 -0.218508 -0.951057
vn 0.218508 -0.218508 -0.951057
vn -0.000000 0.000000 -1.000000
vn 0.000000 -0.000000 -1.000000
vn -0.218508 0.218508 -0.951057
vn -0.218508 0.218508 -0.951057
vn -0.415627 0.415627 -0.809017
vn -0.415627 0.415627 -0.809017
vn -0.572061 0.572061 -0.587785
vn -0.572061 0.572061 -0.587785
vn -0.672499 0.672499 -0.309017
vn -0.672499 0.672499 -0.309017
vn -0.707107 0.707107 -0.000000
vn -0.707107 0.707107 -0.000000
vn -0.672499 0.672499 0.309017
vn -0.672499 0.672499 0.309017
vn -0.572061 0.572061 0.587785
vn -0.572061 0.572061 0.587785
vn -0.415627 0.415627 0.809017
vn -0.415627 0.415627 0.809017
vn -0.218508 0.218508 0.951057
vn -0.218508 0.218508 0.951057
vn -0.000000 0.000000 1.000000
vn -0.000000 0.000000 1.000000
vn 0.218508 -0.218508 0.951057
vn 0.218508 -0.218508 0.951057
vn 0.415627 -0.415627 0.809017
vn 0.415627 -0.415627 0.809017
vn 0.572061 -0.572061 0.587785
vn 0.572061 -0.572061 0.587785
vn 0.672499 -0.672499 0.309017
vn 0.672499 -0.672499 0.309017
vn 0.707107 -0.707107 -0.000000
vn 0.707107 -0.707107 -0.000000
vn 0.672499 -0.672499 -0.309017
vn 0.672499 -0.672499 -0.309017
vn 0.572061 -0.572061 -0.587785
vn 0.572061 -0.572061 -0.587785
vn 0.415627 -0.415627 -0.809017
vn 0.415627 -0.415627 -0.809017
vn 0.306802 0.306802 0.900969
vn 0.306802 0.306802 0.900969
vn -0.000000 0.000000 1.000000
vn 0.306802 0.306802 0.900969
vn 0.000000 0.000000 1.000000
vn 0.306802 0.306802 0.900969
vn 0.306802 0.306802 0.900969
vn 0.552838 0.552838 0.623490
vn 0.552838 0.552838 0.623490
vn 0.689378 0.689378 0.222521
vn 0.689378 0.689378 0.222521
vn 0.689378 0.689378 -0.222521
vn 0.689378 0.689378 -0.222521
vn 0.552838 0.552838 -0.623490
vn 0.552838 0.552838 -0.623490
vn 0.306802 0.306802 -0.900969
vn 0.306802 0.306802 -0.900969
vn 0.000000 0.000000 -1.000000
vn 0.306802 0.306802 -0.900969
vn 0.000000 -0.000000 -1.000000
vn 0.306802 0.306802 -0.900969
vn 0.306802 0.306802 -0.900969
vn 0.552838 0.552838 -0.623490
vn 0.552838 0.552838 -0.623490
vn 0.689378 0.689378 -0.222521
vn 0.689378 0.689378 -0.222521
vn 0.689378 0.689378 0.222521
vn 0.689378 0.689378 0.222521
vn 0.552838 0.552838 0.623490
vn 0.552838 0.552838 0.623490
vn 0.552838 0.552838 0.623490
vn 0.689378 0.689378 0.222521
vn 0.689378 0.689378 -0.222521
vn 0.552838 0.552838 -0.623490
vn 0.306802 0.306802 0.900969
vn 0.306802 0.306802 0.900969
vn -0.000000 0.000000 1.000000
vn 0.306802 0.306802 0.900969
vn -0.000000 -0.000000 1.000000
vn 0.306802 0.306802 0.900969
vn 0.306802 0.306802 0.900969
vn 0.552838 0.552838 0.623490
vn 0.552838 0.552838 0.623490
vn 0.689378 0.689378 0.222521
vn 0.689378 0.689378 0.222521
vn 0.689378 0.689378 -0.222521
vn 0.689378 0.689378 -0.222521
vn 0.552838 0.552838 -0.623490
vn 0.552838 0.552838 -0.623490
vn 0.306802 0.306802 -0.900969
vn 0.306802 0.306802 -0.900969
vn -0.000000 -0.000000 -1.000000
vn 0.306802 0.306802 -0.900969
vn 0.000000 -0.000000 -1.000000
vn 0.306802 0.306802 -0.900969
vn 0.306802 0.306802 -0.900969
vn 0.552838 0.552838 -0.623490
vn 0.552838 0.552838 -0.623490
vn 0.689378 0.689378 -0.222521
vn 0.689378 0.689378 -0.222521
vn 0.689378 0.689378 0.222521
vn 0.689378 0.689378 0.222521
vn 0.552838 0.552838 0.623490
vn 0.552838 0.552838 0.623490
vn 0.552838 0.552838 0.623490
vn 0.689378 0.689378 0.222521
vn 0.689378 0.689378 -0.222521
vn 0.552838 0.552838 -0.623490
vn -0.707107 -0.707107 -0.000000
vn -0.707107 -0.707107 -0.000000
vn -0.707107 -0.707107 -0.000000
vn -0.707107 -0.707107 -0.000000
vn 0.707107 0.707107 0.000000
vn 0.707107 0.707107 0.000000
vn 0.707107 0.707107 0.000000
vn 0.707107 0.707107 0.000000
vn 0.707107 0.707107 0.000000
vn 0.707107 0.707107 0.000000
vn 0.707107 0.707107 0.000000
vn 0.707107 0.707107 0.000000
vn 0.707107 0.707107 0.000000
vn 0.707107 0.707107 0.000000
vn 0.707107 0.707107 0.000000
vn 0.707107 0.707107 0.000000
vn 0.707107 0.707107 0.000000
vn 0.707107 0.707107 0.000000
vn 0.707107 0.707107 0.000000
vn 0.707107 0.707107 0.000000
vn 0.707107 0.707107 0.000000
vn 0.707107 0.707107 0.000000
vn 0.707107 0.707107 0.000000
vn 0.707107 0.707107 0.000000
vn -0.000000 0.000000 1.000000
vn -0.000000 0.000000 1.000000
vn -0.000000 0.000000 1.000000
vn -0.000000 0.000000 1.000000
vn -0.707107 -0.707107 -0.000000
vn -0.707107 -0.707107 -0.000000
vn -0.707107 -0.707107 -0.000000
vn -0.707107 -0.707107 -0.000000
vn 0.000000 -0.000000 -1.000000
vn 0.000000 -0.000000 -1.000000
vn 0.000000 -0.000000 -1.000000
vn 0.000000 -0.000000 -1.000000
vn 0.707107 0.707107 0.000000
vn 0.707107 0.707107 0.000000
vn 0.707107 0.707107 0.000000
vn 0.707107 0.707107 0.000000
vn 0.707107 -0.707107 0.000000
vn 0.707107 -0.707107 0.000000
vn 0.707107 -0.707107 0.000000
vn 0.707107 -0.707107 0.000000
vn 0.707107 -0.707107 0.000000
vn 0.707107 -0.707107 0.000000
vn 0.707107 -0.707107 0.000000
vn 0.707107 -0.707107 0.000000
vn 0.707107 -0.707107 0.000000
vn 0.707107 -0.707107 0.000000
vn 0.707107 -0.707107 0.000000
vn 0.707107 -0.707107 0.000000
vn 0.707107 -0.707107 0.000000
vn 0.707107 -0.707107 0.000000
vn 0.707107 -0.707107 0.000000
vn 0.707107 -0.707107 0.000000
vn 0.707107 -0.707107 0.000000
vn 0.707107 -0.707107 0.000000
vn 0.707107 -0.707107 0.000000
vn 0.707107 -0.707107 0.000000
vn 0.707107 -0.707107 0.000000
vn 0.707107 -0.707107 0.000000
vn 0.707107 -0.707107 0.000000
vn 0.707107 -0.707107 0.000000
vn 0.707107 -0.707107 0.000000
vn 0.707107 -0.707107 0.000000
vn 0.707107 -0.707107 0.000000
vn 0.707107 -0.707107 0.000000
vn 0.707107 -0.707107 0.000000
vn 0.707107 -0.707107 0.000000
vn 0.707107 -0.707107 0.000000
vn 0.707107 -0.707107 0.000000
vn 0.707107 -0.707107 0.000000
vn 0.707107 -0.707107 0.000000
vn 0.707107 -0.707107 0.000000
vn 0.707107 -0.707107 0.000000
vn 0.707107 -0.707107 0.000000
vn 0.707107 -0.707107 0.000000
vn 0.707107 -0.707107 0.000000
vn 0.707107 -0.707107 0.000000
vn 0.707107 -0.707107 0.000000
vn 0.707107 -0.707107 0.000000
vn 0.707107 -0.707107 0.000000
vn 0.707107 -0.707107 0.000000
vn 0.707107 -0.707107 0.000000
vn 0.707107 -0.707107 0.000000
vn 0.707107 -0.707107 0.000000
vn 0.707107 -0.707107 0.000000
vn -0.707107 0.707107 -0.000000
vn -0.707107 0.707107 -0.000000
vn -0.707107 0.707107 -0.000000
vn -0.707107 0.707107 -0.000000
vn -0.707107 0.707107 -0.000000
vn -0.707107 0.707107 -0.000000
vn -0.707107 0.707107 -0.000000
vn -0.707107 0.707107 -0.000000
vn -0.707107 0.707107 -0.000000
vn -0.707107 0.707107 -0.000000
vn -0.707107 0.707107 -0.000000
vn -0.707107 0.707107 -0.000000
vn -0.707107 0.707107 -0.000000
vn -0.707107 0.707107 -0.000000
vn -0.707107 0.707107 -0.000000
vn -0.707107 0.707107 -0.000000
vn -0.707107 0.707107 -0.000000
vn -0.707107 0.707107 -0.000000
vn -0.707107 0.707107 -0.000000
vn -0.707107 0.707107 -0.000000
vn -0.707107 0.707107 -0.000000
vn -0.707107 0.707107 -0.000000
vn -0.707107 0.707107 -0.000000
vn -0.707107 0.707107 -0.000000
vn -0.707107 0.707107 -0.000000
vn -0.707107 0.707107 -0.000000
vn -0.707107 0.707107 -0.000000
vn -0.707107 0.707107 -0.000000
vn -0.707107 0.707107 -0.000000
vn -0.707107 0.707107 -0.000000
vn -0.707107 0.707107 -0.000000
vn -0.707107 0.707107 -0.000000
vn -0.707107 0.707107 -0.000000
vn -0.707107 0.707107 -0.000000
vn -0.707107 0.707107 -0.000000
vn -0.707107 0.707107 -0.000000
vn -0.707107 0.707107 -0.000000
vn -0.707107 0.707107 -0.000000
vn -0.707107 0.707107 -0.000000
vn -0.707107 0.707107 -0.000000
vn -0.707107 0.707107 -0.000000
vn -0.707107 0.707107 -0.000000
vn -0.707107 0.707107 -0.000000
vn -0.707107 0.707107 -0.000000
vn -0.707107 0.707107 -0.000000
vn -0.707107 0.707107 -0.000000
vn -0.707107 0.707107 -0.000000
vn -0.707107 0.707107 -0.000000
vn 0.000000 -0.000000 -1.000000
vn 0.000000 -0.000000 -1.000000
vn 0.000000 -0.000000 -1.000000
vn 0.000000 -0.000000 -1.000000
vn -0.000000 0.000000 1.000000
vn -0.000000 0.000000 1.000000
vn -0.000000 0.000000 1.000000
vn -0.000000 0.000000 1.000000
vn 0.707107 0.707107 -0.000000
vn 0.707107 0.707107 -0.000000
vn 0.707107 0.707107 -0.000000
vn 0.707107 0.707107 -0.000000
vn 0.707107 0.707107 -0.000000
vn 0.707107 0.707107 -0.000000
vn 0.707107 0.707107 -0.000000
vn 0.707107 0.707107 -0.000000
vn 0.707107 0.707107 -0.000000
vn 0.707107 0.707107 -0.000000
vn 0.707107 0.707107 -0.000000
vn 0.707107 0.707107 -0.000000
vn 0.707107 0.707107 -0.000000
vn 0.707107 0.707107 -0.000000
vn 0.707107 0.707107 -0.000000
vn 0.707107 0.707107 -0.000000
vn 0.707107 0.707107 -0.000000
vn 0.707107 0.707107 -0.000000
vn 0.707107 0.707107 -0.000000
vn 0.707107 0.707107 -0.000000
vn 0.707107 0.707107 -0.000000
vn 0.707107 0.707107 -0.000000
vn 0.707107 0.707107 -0.000000
vn 0.707107 0.707107 -0.000000
vn 0.000000 -0.000000 -1.000000
vn 0.000000 -0.000000 -1.000000
vn 0.000000 -0.000000 -1.000000
vn 0.000000 -0.000000 -1.000000
vn -0.000000 0.000000 1.000000
vn -0.000000 0.000000 1.000000
vn -0.000000 0.000000 1.000000
vn -0.000000 0.000000 1.000000
vn 0.707107 0.707107 -0.000000
vn 0.707107 0.707107 -0.000000
vn 0.707107 0.707107 -0.000000
vn 0.707107 0.707107 -0.000000
vn 0.000000 -0.000000 -1.000000
vn 0.000000 -0.000000 -1.000000
vn 0.000000 -0.000000 -1.000000
vn 0.000000 -0.000000 -1.000000
vn -0.000000 0.000000 1.000000
vn -0.000000 0.000000 1.000000
vn -0.000000 0.000000 1.000000
vn -0.000000 0.000000 1.000000
vn 0.707107 0.707107 -0.000000
vn 0.707107 0.707107 -0.000000
vn 0.707107 0.707107 -0.000000
vn 0.707107 0.707107 -0.000000
vn -0.000000 0.000000 1.000000
vn -0.000000 0.000000 1.000000
vn -0.000000 0.000000 1.000000
vn -0.000000 0.000000 1.000000
vn 0.707107 0.707107 -0.000000
vn 0.707107 0.707107 -0.000000
vn 0.707107 0.707107 -0.000000
vn 0.707107 0.707107 -0.000000
vn -0.000000 0.000000 1.000000
vn -0.000000 0.000000 1.000000
vn 0.000000 -0.000000 -1.000000
vn 0.000000 -0.000000 -1.000000
vn 0.707107 0.707107 0.000000
vn 0.707107 0.707107 0.000000
vn 0.707107 0.707107 0.000000
vn 0.707107 0.707107 0.000000
vn 0.000000 -0.000000 -1.000000
vn 0.000000 -0.000000 -1.000000
vn 0.000000 -0.000000 -1.000000
vn 0.000000 -0.000000 -1.000000
vn 0.000000 -0.000000 -1.000000
vn 0.000000 -0.000000 -1.000000
vn 0.000000 -0.000000 -1.000000
vn 0.000000 -0.000000 -1.000000
vn -0.000000 0.000000 1.000000
vn -0.000000 0.000000 1.000000
vn -0.000000 0.000000 1.000000
vn -0.000000 0.000000 1.000000
vn 0.707107 0.707107 -0.000000
vn 0.707107 0.707107 -0.000000
vn 0.707107 0.707107 -0.000000
vn 0.707107 0.707107 -0.000000
vn -0.000000 0.000000 1.000000
vn -0.000000 0.000000 1.000000
vn 0.000000 -0.000000 -1.000000
vn 0.000000 -0.000000 -1.000000
vn 0.707107 0.707107 -0.000000
vn 0.707107 0.707107 -0.000000
vn 0.707107 0.707107 -0.000000
vn 0.707107 0.707107 -0.000000
vn 0.000000 -0.000000 -1.000000
vn 0.000000 -0.000000 -1.000000
vn 0.000000 -0.000000 -1.000000
vn 0.000000 -0.000000 -1.000000
vn -0.707107 -0.707107 0.000000
vn -0.707107 -0.707107 0.000000
vn -0.707107 -0.707107 0.000000
vn -0.707107 -0.707107 0.000000
vn -0.707107 -0.707107 0.000000
vn -0.707107 -0.707107 0.000000
vn -0.707107 -0.707107 0.000000
vn -0.707107 -0.707107 0.000000
vn -0.707107 -0.707107 0.000000
vn -0.707107 -0.707107 0.000000
vn -0.707107 -0.707107 0.000000
vn -0.707107 -0.707107 0.000000
vn -0.707107 -0.707107 0.000000
vn -0.707107 -0.707107 0.000000
vn -0.707107 -0.707107 0.000000
vn -0.707107 -0.707107 0.000000
vn -0.707107 -0.707107 0.000000
vn -0.707107 -0.707107 0.000000
vn -0.707107 -0.707107 0.000000
vn -0.707107 -0.707107 0.000000
vn -0.707107 -0.707107 0.000000
vn -0.707107 -0.707107 0.000000
vn -0.707107 -0.707107 0.000000
vn -0.707107 -0.707107 0.000000
vn -0.000000 0.000000 1.000000
vn -0.000000 0.000000 1.000000
vn -0.000000 0.000000 1.000000
vn -0.000000 0.000000 1.000000
usemtl Paint_-_Enamel_Glossy_(Dark_Grey)
f 2/1/1 40/2/2 1/3/3
f 1/3/3 40/2/2 21/4/4
f 1/3/3 21/4/4 20/5/5
f 20/5/5 21/4/4 22/6/6
f 20/5/5 22/6/6 19/7/7
f 19/7/7 22/6/6 23/8/8
f 19/7/7 23/8/8 18/9/9
f 18/9/9 23/8/8 24/10/10
f 18/9/9 24/10/10 17/11/11
f 17/11/11 24/10/10 25/12/12
f 17/11/11 25/12/12 16/13/13
f 16/13/13 25/12/12 26/14/14
f 16/13/13 26/14/14 15/15/15
f 15/15/15 26/14/14 27/16/16
f 15/15/15 27/16/16 14/17/17
f 14/17/17 27/16/16 28/18/18
f 14/17/17 28/18/18 13/19/19
f 13/19/19 28/18/18 29/20/20
f 13/19/19 29/20/20 12/21/21
f 12/21/21 29/20/20 30/22/22
f 12/21/21 30/22/22 11/23/23
f 11/23/23 30/22/22 31/24/24
f 11/25/23 31/26/24 10/27/25
f 10/27/25 31/26/24 32/28/26
f 10/27/25 32/28/26 9/29/27
f 9/29/27 32/28/26 33/30/28
f 9/29/27 33/30/28 8/31/29
f 8/31/29 33/30/28 34/32/30
f 8/31/29 34/32/30 7/33/31
f 7/33/31 34/32/30 35/34/32
f 7/33/31 35/34/32 6/35/33
f 6/35/33 35/34/32 36/36/34
f 6/35/33 36/36/34 5/37/35
f 5/37/35 36/36/34 37/38/36
f 5/37/35 37/38/36 4/39/37
f 4/39/37 37/38/36 38/40/38
f 4/39/37 38/40/38 3/41/39
f 3/41/39 38/40/38 39/42/40
f 3/41/39 39/42/40 2/1/1
f 2/1/1 39/42/40 40/2/2
f 42/43/41 57/44/42 41/45/43
f 41/45/43 57/44/42 58/46/44
f 41/45/43 58/46/44 56/47/45
f 56/47/45 58/46/44 59/48/46
f 56/47/45 59/48/46 55/49/47
f 55/49/47 59/48/46 54/50/48
f 54/50/48 59/48/46 62/51/49
f 54/50/48 62/51/49 53/52/50
f 53/52/50 62/51/49 65/53/51
f 53/52/50 65/53/51 52/54/52
f 52/54/52 65/53/51 68/55/53
f 52/54/52 68/55/53 51/56/54
f 51/56/54 68/55/53 71/57/55
f 51/56/54 71/57/55 50/58/56
f 50/58/56 71/57/55 74/59/57
f 50/58/56 74/59/57 49/60/58
f 49/60/58 74/59/57 73/61/59
f 49/60/58 73/61/59 48/62/60
f 48/62/60 73/61/59 72/63/61
f 48/62/60 72/63/61 47/64/62
f 47/64/62 72/63/61 46/65/63
f 46/65/63 72/63/61 69/66/64
f 46/65/63 69/66/64 45/67/65
f 45/67/65 69/66/64 66/68/66
f 45/67/65 66/68/66 44/69/67
f 44/69/67 66/68/66 63/70/68
f 44/69/67 63/70/68 43/71/69
f 43/71/69 63/70/68 60/72/70
f 43/71/69 60/72/70 42/43/41
f 42/43/41 60/72/70 57/44/42
f 62/51/49 59/48/46 58/46/44
f 58/46/44 57/44/42 61/73/71
f 61/73/71 57/44/42 60/72/70
f 61/73/71 60/72/70 64/74/72
f 64/74/72 60/72/70 63/70/68
f 64/74/72 63/70/68 67/75/73
f 67/75/73 63/70/68 66/68/66
f 67/75/73 66/68/66 70/76/74
f 70/76/74 66/68/66 69/66/64
f 70/76/74 69/66/64 73/61/59
f 73/61/59 69/66/64 72/63/61
f 65/53/51 62/51/49 61/73/71
f 61/73/71 62/51/49 58/46/44
f 65/53/51 61/73/71 64/74/72
f 68/55/53 65/53/51 64/74/72
f 68/55/53 64/74/72 67/75/73
f 71/57/55 68/55/53 67/75/73
f 71/57/55 67/75/73 70/76/74
f 74/59/57 71/57/55 70/76/74
f 74/59/57 70/76/74 73/61/59
f 76/77/75 91/78/76 75/79/77
f 75/79/77 91/78/76 92/80/78
f 75/79/77 92/80/78 90/81/79
f 90/81/79 92/80/78 93/82/80
f 90/81/79 93/82/80 89/83/81
f 89/83/81 93/82/80 88/84/82
f 88/84/82 93/82/80 96/85/83
f 88/84/82 96/85/83 87/86/84
f 87/86/84 96/85/83 99/87/85
f 87/86/84 99/87/85 86/88/86
f 86/88/86 99/87/85 102/89/87
f 86/88/86 102/89/87 85/90/88
f 85/90/88 102/89/87 105/91/89
f 85/90/88 105/91/89 84/92/90
f 84/92/90 105/91/89 108/93/91
f 84/92/90 108/93/91 83/94/92
f 83/94/92 108/93/91 107/95/93
f 83/94/92 107/95/93 82/96/94
f 82/96/94 107/95/93 106/97/95
f 82/96/94 106/97/95 81/98/96
f 81/98/96 106/97/95 80/99/97
f 80/99/97 106/97/95 103/100/98
f 80/99/97 103/100/98 79/101/99
f 79/101/99 103/100/98 100/102/100
f 79/101/99 100/102/100 78/103/101
f 78/103/101 100/102/100 97/104/102
f 78/103/101 97/104/102 77/105/103
f 77/105/103 97/104/102 94/106/104
f 77/105/103 94/106/104 76/77/75
f 76/77/75 94/106/104 91/78/76
f 96/85/83 93/82/80 92/80/78
f 92/80/78 91/78/76 95/107/105
f 95/107/105 91/78/76 94/106/104
f 95/107/105 94/106/104 98/108/106
f 98/108/106 94/106/104 97/104/102
f 98/108/106 97/104/102 101/109/107
f 101/109/107 97/104/102 100/102/100
f 101/109/107 100/102/100 104/110/108
f 104/110/108 100/102/100 103/100/98
f 104/110/108 103/100/98 107/95/93
f 107/95/93 103/100/98 106/97/95
f 99/87/85 96/85/83 95/107/105
f 95/107/105 96/85/83 92/80/78
f 99/87/85 95/107/105 98/108/106
f 102/89/87 99/87/85 98/108/106
f 102/89/87 98/108/106 101/109/107
f 105/91/89 102/89/87 101/109/107
f 105/91/89 101/109/107 104/110/108
f 108/93/91 105/91/89 104/110/108
f 108/93/91 104/110/108 107/95/93
f 109/111/109 110/112/110 112/113/111
f 112/113/111 110/112/110 111/114/112
f 113/115/113 114/116/114 116/117/115
f 116/117/115 114/116/114 115/118/116
f 117/119/117 118/120/118 120/121/119
f 120/121/119 118/120/118 119/122/120
f 121/123/121 122/124/122 124/125/123
f 124/125/123 122/124/122 123/126/124
f 125/127/125 126/128/126 128/129/127
f 128/129/127 126/128/126 127/130/128
f 129/131/129 130/132/130 132/133/131
f 132/133/131 130/132/130 131/134/132
f 116/135/133 109/136/134 113/137/135
f 113/137/135 109/136/134 112/138/136
f 133/139/137 134/140/138 136/141/139
f 136/141/139 134/140/138 135/142/140
f 136/143/141 117/144/142 133/145/143
f 133/145/143 117/144/142 120/146/144
f 137/147/145 138/148/146 140/149/147
f 140/149/147 138/148/146 139/150/148
f 111/151/149 141/152/150 112/153/151
f 112/153/151 141/152/150 113/154/152
f 113/154/152 141/152/150 156/155/153
f 113/154/152 156/155/153 114/156/154
f 142/157/155 148/158/156 141/152/150
f 141/152/150 148/158/156 151/159/157
f 141/152/150 151/159/157 152/160/158
f 134/161/159 133/162/160 142/157/155
f 142/157/155 133/162/160 120/163/161
f 142/157/155 120/163/161 143/164/162
f 143/164/162 120/163/161 119/165/163
f 144/166/164 90/167/165 143/164/162
f 143/164/162 90/167/165 89/168/166
f 143/164/162 89/168/166 142/157/155
f 142/157/155 89/168/166 88/169/167
f 142/157/155 88/169/167 87/170/168
f 87/170/168 86/171/169 142/157/155
f 142/157/155 86/171/169 147/172/170
f 142/157/155 147/172/170 148/158/156
f 86/171/169 85/173/171 147/172/170
f 147/172/170 85/173/171 84/174/172
f 147/172/170 84/174/172 83/175/173
f 145/176/174 146/177/175 83/175/173
f 83/175/173 146/177/175 147/172/170
f 138/178/176 137/179/177 146/177/175
f 146/177/175 137/179/177 147/172/170
f 151/159/157 148/158/156 149/180/178
f 149/180/178 148/158/156 126/181/179
f 149/180/178 126/181/179 125/182/180
f 149/180/178 150/183/181 151/159/157
f 151/159/157 150/183/181 131/184/182
f 131/184/182 150/183/181 132/185/183
f 124/186/184 153/187/185 152/160/158
f 152/160/158 153/187/185 56/188/186
f 152/160/158 56/188/186 55/189/187
f 124/186/184 123/190/188 153/187/185
f 153/187/185 154/191/189 56/188/186
f 55/189/187 54/192/190 152/160/158
f 152/160/158 54/192/190 53/193/191
f 152/160/158 53/193/191 141/152/150
f 141/152/150 53/193/191 52/194/192
f 141/152/150 52/194/192 51/195/193
f 51/195/193 50/196/194 141/152/150
f 141/152/150 50/196/194 156/155/153
f 50/196/194 49/197/195 156/155/153
f 156/155/153 49/197/195 155/198/196
f 110/199/197 109/200/198 157/201/199
f 157/201/199 109/200/198 116/202/200
f 157/201/199 116/202/200 158/203/201
f 158/203/201 116/202/200 115/204/202
f 159/205/203 48/206/204 158/203/201
f 158/203/201 48/206/204 47/207/205
f 158/203/201 47/207/205 157/201/199
f 157/201/199 47/207/205 46/208/206
f 157/201/199 46/208/206 45/209/207
f 45/209/207 44/210/208 157/201/199
f 157/201/199 44/210/208 162/211/209
f 157/201/199 162/211/209 163/212/210
f 44/210/208 43/213/211 162/211/209
f 162/211/209 43/213/211 42/214/212
f 162/211/209 42/214/212 41/215/213
f 160/216/214 161/217/215 41/215/213
f 41/215/213 161/217/215 162/211/209
f 122/218/216 121/219/217 161/217/215
f 161/217/215 121/219/217 162/211/209
f 130/220/218 164/221/219 163/212/210
f 163/212/210 164/221/219 165/222/220
f 163/212/210 165/222/220 166/223/221
f 166/223/221 165/222/220 127/224/222
f 127/224/222 165/222/220 128/225/223
f 130/220/218 129/226/224 164/221/219
f 167/227/225 172/228/226 166/223/221
f 166/223/221 172/228/226 157/201/199
f 166/223/221 157/201/199 163/212/210
f 140/229/227 168/230/228 167/227/225
f 167/227/225 168/230/228 82/231/229
f 167/227/225 82/231/229 81/232/230
f 140/229/227 139/233/231 168/230/228
f 168/230/228 169/234/232 82/231/229
f 81/232/230 80/235/233 167/227/225
f 167/227/225 80/235/233 79/236/234
f 167/227/225 79/236/234 172/228/226
f 172/228/226 79/236/234 78/237/235
f 172/228/226 78/237/235 77/238/236
f 77/238/236 76/239/237 172/228/226
f 172/228/226 76/239/237 171/240/238
f 172/228/226 171/240/238 117/241/239
f 117/241/239 171/240/238 118/242/240
f 76/239/237 75/243/241 171/240/238
f 171/240/238 75/243/241 170/244/242
f 117/241/239 136/245/243 172/228/226
f 172/228/226 136/245/243 135/246/244
f 132/247/245 150/248/246 129/249/247
f 129/249/247 150/248/246 164/250/248
f 149/251/249 125/252/250 165/253/251
f 165/253/251 125/252/250 128/254/252
f 149/255/253 26/256/254 150/257/255
f 150/257/255 26/256/254 25/258/256
f 150/257/255 25/258/256 24/259/257
f 165/260/258 31/261/259 149/255/253
f 149/255/253 31/261/259 30/262/260
f 149/255/253 30/262/260 29/263/261
f 164/264/262 36/265/263 165/260/258
f 165/260/258 36/265/263 35/266/264
f 165/260/258 35/266/264 34/267/265
f 150/257/255 21/268/266 164/264/262
f 164/264/262 21/268/266 40/269/267
f 164/264/262 40/269/267 39/270/268
f 39/270/268 38/271/269 164/264/262
f 164/264/262 38/271/269 37/272/270
f 164/264/262 37/272/270 36/265/263
f 34/267/265 33/273/271 165/260/258
f 165/260/258 33/273/271 32/274/272
f 165/260/258 32/274/272 31/261/259
f 29/263/261 28/275/273 149/255/253
f 149/255/253 28/275/273 27/276/274
f 149/255/253 27/276/274 26/256/254
f 24/259/257 23/277/275 150/257/255
f 150/257/255 23/277/275 22/278/276
f 150/257/255 22/278/276 21/268/266
f 126/279/277 148/280/278 127/281/279
f 127/281/279 148/280/278 166/282/280
f 147/283/281 137/284/282 167/285/283
f 167/285/283 137/284/282 140/286/284
f 148/287/285 147/288/286 166/289/287
f 166/289/287 147/288/286 167/290/288
f 124/291/289 152/292/290 121/293/291
f 121/293/291 152/292/290 162/294/292
f 151/295/293 131/296/294 163/297/295
f 163/297/295 131/296/294 130/298/296
f 152/299/297 151/300/298 162/301/299
f 162/301/299 151/300/298 163/302/300
f 143/303/301 119/304/302 171/305/303
f 171/305/303 119/304/302 118/306/304
f 144/307/305 143/308/306 170/309/307
f 170/309/307 143/308/306 171/310/308
f 90/311/79 144/312/309 75/313/77
f 75/313/77 144/312/309 170/314/310
f 145/315/311 83/316/92 169/317/312
f 169/317/312 83/316/92 82/318/94
f 146/319/313 145/320/314 168/321/315
f 168/321/315 145/320/314 169/322/316
f 138/323/317 146/324/318 139/325/319
f 139/325/319 146/324/318 168/326/320
f 114/327/321 156/328/322 115/329/323
f 115/329/323 156/328/322 158/330/324
f 153/331/325 123/332/326 161/333/327
f 161/333/327 123/332/326 122/334/328
f 154/335/329 153/336/330 160/337/331
f 160/337/331 153/336/330 161/338/332
f 56/339/45 154/340/333 41/341/43
f 41/341/43 154/340/333 160/342/334
f 155/343/335 49/344/58 159/345/336
f 159/345/336 49/344/58 48/346/60
f 156/347/337 155/348/338 158/349/339
f 158/349/339 155/348/338 159/350/340
f 141/351/341 111/352/342 157/353/343
f 157/353/343 111/352/342 110/354/344
f 141/355/345 16/356/346 142/357/347
f 142/357/347 16/356/346 15/358/348
f 142/357/347 15/358/348 14/359/349
f 157/360/350 2/361/351 141/355/345
f 141/355/345 2/361/351 1/362/352
f 141/355/345 1/362/352 20/363/353
f 172/364/354 6/365/355 157/360/350
f 157/360/350 6/365/355 5/366/356
f 157/360/350 5/366/356 4/367/357
f 142/357/347 10/368/358 172/364/354
f 172/364/354 10/368/358 9/369/359
f 172/364/354 9/369/359 8/370/360
f 20/363/353 19/371/361 141/355/345
f 141/355/345 19/371/361 18/372/362
f 141/355/345 18/372/362 17/373/363
f 17/373/363 16/356/346 141/355/345
f 14/359/349 13/374/364 142/357/347
f 142/357/347 13/374/364 12/375/365
f 142/357/347 12/375/365 11/376/366
f 11/376/366 10/368/358 142/357/347
f 8/370/360 7/377/367 172/364/354
f 172/364/354 7/377/367 6/365/355
f 4/367/357 3/378/368 157/360/350
f 157/360/350 3/378/368 2/361/351
f 134/379/369 142/380/370 135/381/371
f 135/381/371 142/380/370 172/382/372
# 172 vertices
# 382 texture params
# 372 normals
# 344 facets

# 1 groups
