# WaveFront *.obj file (generated by Autodesk ATF)

mtllib body2_visual.mtl

g Body2

v 64.207009 -63.143929 96.612914
v 64.205565 -63.145373 96.596749
v 64.201324 -63.149615 96.581600
v 64.194552 -63.156387 96.568418
v 64.185675 -63.165264 96.558032
v 64.175250 -63.175688 96.551095
v 64.163933 -63.187005 96.548042
v 64.152435 -63.198504 96.549065
v 64.141478 -63.209461 96.554100
v 64.131750 -63.219189 96.562830
v 64.123863 -63.227075 96.574707
v 64.118313 -63.232626 96.588985
v 64.115448 -63.235491 96.604767
v 64.115448 -63.235491 96.621060
v 64.118313 -63.232626 96.636842
v 64.123863 -63.227075 96.651120
v 64.131750 -63.219189 96.662997
v 64.141478 -63.209461 96.671727
v 64.152435 -63.198504 96.676762
v 64.163933 -63.187005 96.677785
v 64.175250 -63.175688 96.674732
v 64.185675 -63.165264 96.667795
v 64.194552 -63.156387 96.657409
v 64.201324 -63.149615 96.644227
v 64.205565 -63.145373 96.629078
v 64.192867 -63.143929 96.612914
v 64.191425 -63.145372 96.627752
v 64.187205 -63.149591 96.641491
v 64.180521 -63.156275 96.653109
v 64.171868 -63.164928 96.661747
v 64.161889 -63.174908 96.666763
v 64.151322 -63.185474 96.667785
v 64.140952 -63.195844 96.664738
v 64.131548 -63.205248 96.657847
v 64.123808 -63.212988 96.647623
v 64.118305 -63.218491 96.634826
v 64.115447 -63.221349 96.620403
v 64.115447 -63.221349 96.605424
v 64.118305 -63.218491 96.591001
v 64.123808 -63.212988 96.578204
v 64.131548 -63.205248 96.567980
v 64.140952 -63.195844 96.561089
v 64.151322 -63.185474 96.558042
v 64.161889 -63.174908 96.559064
v 64.171868 -63.164928 96.564080
v 64.180521 -63.156275 96.572718
v 64.187205 -63.149591 96.584336
v 64.191425 -63.145372 96.598075
v 64.112497 -63.231370 96.612914
v 64.112497 -63.226194 96.612914
v 64.162873 -63.175818 96.671851
v 64.162873 -63.175818 96.553976
v 64.202171 -63.141696 96.604935
v 64.197015 -63.141676 96.605394
v 64.197015 -63.141676 96.620433
v 64.202171 -63.141696 96.620892
v 64.199365 -63.144502 96.589479
v 64.194371 -63.144321 96.590826
v 64.193929 -63.149938 96.575495
v 64.189247 -63.149444 96.577646
v 64.186205 -63.157662 96.563862
v 64.181967 -63.156724 96.566683
v 64.176678 -63.167190 96.555312
v 64.172988 -63.165703 96.558624
v 64.165947 -63.177921 96.550381
v 64.154685 -63.189182 96.549379
v 64.152259 -63.186432 96.553032
v 64.143601 -63.200266 96.552369
v 64.141813 -63.196878 96.555850
v 64.133392 -63.210476 96.559163
v 64.132190 -63.206501 96.562254
v 64.124697 -63.219170 96.569335
v 64.123996 -63.214695 96.571841
v 64.118065 -63.225802 96.582245
v 64.117745 -63.220946 96.584008
v 64.113911 -63.229956 96.597082
v 64.113830 -63.224861 96.597992
v 64.113911 -63.229956 96.628745
v 64.113830 -63.224861 96.627835
v 64.118065 -63.225802 96.643582
v 64.117745 -63.220946 96.641819
v 64.124697 -63.219170 96.656492
v 64.123996 -63.214695 96.653986
v 64.133392 -63.210476 96.666664
v 64.132190 -63.206501 96.663573
v 64.143601 -63.200266 96.673458
v 64.141813 -63.196878 96.669977
v 64.154685 -63.189182 96.676448
v 64.152259 -63.186432 96.672795
v 64.165947 -63.177921 96.675446
v 64.176678 -63.167190 96.670515
v 64.172988 -63.165703 96.667203
v 64.186205 -63.157662 96.661965
v 64.181967 -63.156724 96.659144
v 64.193929 -63.149938 96.650332
v 64.189247 -63.149444 96.648181
v 64.199365 -63.144502 96.636348
v 64.194371 -63.144321 96.635001
v 65.027253 -63.978315 96.612914
v 65.025811 -63.979758 96.598075
v 65.021591 -63.983977 96.584336
v 65.014907 -63.990661 96.572718
v 65.006254 -63.999314 96.564080
v 64.996275 -64.009294 96.559064
v 64.985708 -64.019860 96.558042
v 64.975338 -64.030230 96.561089
v 64.965934 -64.039634 96.567980
v 64.958194 -64.047374 96.578204
v 64.952691 -64.052877 96.591001
v 64.949833 -64.055735 96.605424
v 64.949833 -64.055735 96.620403
v 64.952691 -64.052877 96.634826
v 64.958194 -64.047374 96.647623
v 64.965934 -64.039634 96.657847
v 64.975338 -64.030230 96.664738
v 64.985708 -64.019860 96.667785
v 64.996275 -64.009294 96.666763
v 65.006254 -63.999314 96.661747
v 65.014907 -63.990661 96.653109
v 65.021591 -63.983977 96.641491
v 65.025811 -63.979758 96.627752
v 65.027253 -63.964173 96.612914
v 65.025809 -63.965617 96.629078
v 65.021568 -63.969858 96.644227
v 65.014796 -63.976630 96.657409
v 65.005919 -63.985508 96.667795
v 64.995494 -63.995932 96.674732
v 64.984177 -64.007249 96.677785
v 64.972679 -64.018748 96.676762
v 64.961721 -64.029705 96.671727
v 64.951994 -64.039432 96.662997
v 64.944107 -64.047319 96.651120
v 64.938557 -64.052870 96.636842
v 64.935692 -64.055735 96.621060
v 64.935692 -64.055735 96.604767
v 64.938557 -64.052870 96.588985
v 64.944107 -64.047319 96.574707
v 64.951994 -64.039432 96.562830
v 64.961721 -64.029705 96.554100
v 64.972679 -64.018748 96.549065
v 64.984177 -64.007249 96.548042
v 64.995494 -63.995932 96.551095
v 65.005919 -63.985508 96.558032
v 65.014796 -63.976630 96.568418
v 65.021568 -63.969858 96.581600
v 65.025809 -63.965617 96.596749
v 64.944988 -64.058685 96.612914
v 64.939812 -64.058685 96.612914
v 64.995365 -64.008309 96.671851
v 64.995365 -64.008309 96.553976
v 65.029507 -63.974167 96.605394
v 65.029486 -63.969011 96.604935
v 65.029486 -63.969011 96.620892
v 65.029507 -63.974167 96.620433
v 65.026862 -63.976812 96.590826
v 65.026680 -63.971817 96.589479
v 65.021738 -63.981935 96.577646
v 65.021244 -63.977253 96.575495
v 65.014458 -63.989215 96.566683
v 65.013520 -63.984977 96.563862
v 65.005479 -63.998195 96.558624
v 65.003993 -63.994504 96.555312
v 64.993261 -64.005236 96.550381
v 64.974304 -64.029369 96.555850
v 64.970916 -64.027581 96.552369
v 64.982000 -64.016497 96.549379
v 64.984751 -64.018923 96.553032
v 64.964682 -64.038992 96.562254
v 64.960707 -64.037791 96.559163
v 64.956487 -64.047186 96.571841
v 64.952012 -64.046485 96.569335
v 64.950236 -64.053437 96.584008
v 64.945380 -64.053117 96.582245
v 64.946321 -64.057352 96.597992
v 64.941226 -64.057271 96.597082
v 64.946321 -64.057352 96.627835
v 64.941226 -64.057271 96.628745
v 64.950236 -64.053437 96.641819
v 64.945380 -64.053117 96.643582
v 64.956487 -64.047186 96.653986
v 64.952012 -64.046485 96.656492
v 64.964682 -64.038992 96.663573
v 64.960707 -64.037791 96.666664
v 64.974304 -64.029369 96.669977
v 64.970916 -64.027581 96.673458
v 64.984751 -64.018923 96.672795
v 64.982000 -64.016497 96.676448
v 65.005479 -63.998195 96.667203
v 65.003993 -63.994504 96.670515
v 64.993261 -64.005236 96.675446
v 65.014458 -63.989215 96.659144
v 65.013520 -63.984977 96.661965
v 65.021738 -63.981935 96.648181
v 65.021244 -63.977253 96.650332
v 65.026862 -63.976812 96.635001
v 65.026680 -63.971817 96.636348
v 64.730268 -63.851036 96.612914
v 64.525207 -63.645975 96.612914
v 64.320146 -63.440914 96.612914
v 64.821830 -63.759475 96.604767
v 64.616769 -63.554414 96.604767
v 64.411708 -63.349353 96.604767
v 64.411708 -63.349353 96.621060
v 64.616769 -63.554414 96.621060
v 64.821830 -63.759475 96.621060
v 64.818964 -63.762340 96.588985
v 64.613903 -63.557279 96.588985
v 64.408842 -63.352218 96.588985
v 64.813414 -63.767890 96.574707
v 64.608353 -63.562829 96.574707
v 64.403292 -63.357768 96.574707
v 64.805527 -63.775777 96.562830
v 64.600466 -63.570716 96.562830
v 64.395405 -63.365655 96.562830
v 64.795800 -63.785505 96.554100
v 64.590739 -63.580444 96.554100
v 64.385678 -63.375383 96.554100
v 64.784842 -63.796462 96.549065
v 64.579781 -63.591401 96.549065
v 64.374721 -63.386340 96.549065
v 64.773344 -63.807960 96.548042
v 64.568283 -63.602899 96.548042
v 64.363222 -63.397838 96.548042
v 64.762027 -63.819277 96.551095
v 64.556966 -63.614216 96.551095
v 64.351905 -63.409155 96.551095
v 64.751602 -63.829702 96.558032
v 64.546541 -63.624641 96.558032
v 64.341480 -63.419580 96.558032
v 64.742725 -63.838579 96.568418
v 64.537664 -63.633518 96.568418
v 64.332603 -63.428457 96.568418
v 64.735953 -63.845351 96.581600
v 64.530892 -63.640290 96.581600
v 64.325831 -63.435229 96.581600
v 64.731712 -63.849592 96.596749
v 64.526651 -63.644531 96.596749
v 64.321590 -63.439470 96.596749
v 64.731712 -63.849592 96.629078
v 64.526651 -63.644531 96.629078
v 64.321590 -63.439470 96.629078
v 64.735953 -63.845351 96.644227
v 64.530892 -63.640290 96.644227
v 64.325831 -63.435229 96.644227
v 64.742725 -63.838579 96.657409
v 64.537664 -63.633518 96.657409
v 64.332603 -63.428457 96.657409
v 64.751602 -63.829702 96.667795
v 64.546541 -63.624641 96.667795
v 64.341480 -63.419580 96.667795
v 64.762027 -63.819277 96.674732
v 64.556966 -63.614216 96.674732
v 64.351905 -63.409155 96.674732
v 64.773344 -63.807960 96.677785
v 64.568283 -63.602899 96.677785
v 64.363222 -63.397838 96.677785
v 64.784842 -63.796462 96.676762
v 64.579781 -63.591401 96.676762
v 64.374721 -63.386340 96.676762
v 64.795800 -63.785505 96.671727
v 64.590739 -63.580444 96.671727
v 64.385678 -63.375383 96.671727
v 64.805527 -63.775777 96.662997
v 64.600466 -63.570716 96.662997
v 64.395405 -63.365655 96.662997
v 64.813414 -63.767890 96.651120
v 64.608353 -63.562829 96.651120
v 64.403292 -63.357768 96.651120
v 64.818964 -63.762340 96.636842
v 64.613903 -63.557279 96.636842
v 64.408842 -63.352218 96.636842
vt -0.000000 0.015600 0.000000
vt -0.005236 0.007800 0.000000
vt 0.000000 -0.000000 0.000000
vt -0.005236 -0.007800 0.000000
vt -0.000000 -0.015600 0.000000
vt -0.005236 -0.023400 0.000000
vt -0.000000 -0.031200 0.000000
vt -0.005236 -0.039000 0.000000
vt 0.000000 -0.046800 0.000000
vt -0.005236 -0.054601 0.000000
vt -0.000000 -0.062401 0.000000
vt -0.005236 -0.070201 0.000000
vt -0.000000 -0.078001 0.000000
vt -0.005236 -0.085801 0.000000
vt 0.000000 -0.093601 0.000000
vt -0.005236 -0.101401 0.000000
vt -0.000000 -0.109201 0.000000
vt -0.005236 -0.117001 0.000000
vt 0.000000 -0.124801 0.000000
vt -0.005236 -0.132601 0.000000
vt 0.000000 -0.140401 0.000000
vt -0.005236 -0.148202 0.000000
vt -0.000000 -0.156002 0.000000
vt -0.005236 -0.163802 0.000000
vt -0.000000 -0.171602 0.000000
vt -0.005236 -0.179402 0.000000
vt 0.000000 -0.187202 0.000000
vt -0.005236 -0.195002 0.000000
vt 0.000000 -0.202802 0.000000
vt 0.000000 0.187202 0.000000
vt -0.005236 0.195002 0.000000
vt -0.005236 0.179402 0.000000
vt -0.000000 0.171602 0.000000
vt -0.005236 0.163802 0.000000
vt -0.000000 0.156002 0.000000
vt -0.005236 0.148202 0.000000
vt -0.000000 0.140401 0.000000
vt -0.005236 0.132601 0.000000
vt 0.000000 0.124801 0.000000
vt -0.005236 0.117001 0.000000
vt -0.000000 0.109201 0.000000
vt -0.005236 0.101401 0.000000
vt -0.000000 0.093601 0.000000
vt -0.005236 0.085801 0.000000
vt -0.000000 0.078001 0.000000
vt -0.005236 0.070201 0.000000
vt -0.000000 0.062401 0.000000
vt -0.005236 0.054601 0.000000
vt 0.000000 0.046800 0.000000
vt -0.005236 0.039000 0.000000
vt -0.000000 0.031200 0.000000
vt -0.005236 0.023400 0.000000
vt -0.015708 -0.016957 0.000000
vt -0.010472 -0.007800 0.000000
vt -0.015708 -0.000000 0.000000
vt -0.010472 0.007800 0.000000
vt -0.015708 0.016957 0.000000
vt -0.010472 0.023400 0.000000
vt -0.015708 0.033913 0.000000
vt -0.010472 0.039000 0.000000
vt -0.015708 0.050870 0.000000
vt -0.010472 0.054601 0.000000
vt -0.015708 0.067827 0.000000
vt -0.010472 0.070201 0.000000
vt -0.015708 0.084783 0.000000
vt -0.010472 0.085801 0.000000
vt -0.015708 0.101740 0.000000
vt -0.010472 0.101401 0.000000
vt -0.010472 0.117001 0.000000
vt -0.010472 -0.023400 0.000000
vt -0.015708 -0.033913 0.000000
vt -0.010472 -0.039000 0.000000
vt -0.015708 -0.050870 0.000000
vt -0.010472 -0.054601 0.000000
vt -0.015708 -0.067827 0.000000
vt -0.010472 -0.070201 0.000000
vt -0.015708 -0.084783 0.000000
vt -0.010472 -0.085801 0.000000
vt -0.015708 -0.101740 0.000000
vt -0.010472 -0.101401 0.000000
vt -0.010472 -0.117001 0.000000
vt -0.015708 -0.118697 0.000000
vt -0.010472 -0.132601 0.000000
vt -0.015708 -0.135654 0.000000
vt -0.010472 -0.148202 0.000000
vt -0.015708 -0.152610 0.000000
vt -0.010472 -0.163802 0.000000
vt -0.015708 -0.169567 0.000000
vt -0.010472 -0.179402 0.000000
vt -0.015708 -0.186524 0.000000
vt -0.010472 -0.195002 0.000000
vt -0.010472 0.195002 0.000000
vt -0.015708 0.203480 0.000000
vt -0.015708 0.186524 0.000000
vt -0.010472 0.179402 0.000000
vt -0.015708 0.169567 0.000000
vt -0.010472 0.163802 0.000000
vt -0.015708 0.152610 0.000000
vt -0.010472 0.148202 0.000000
vt -0.015708 0.135654 0.000000
vt -0.010472 0.132601 0.000000
vt -0.015708 0.118697 0.000000
vt 0.015708 0.016957 0.000000
vt 0.010472 0.007800 0.000000
vt 0.015708 0.000000 0.000000
vt 0.010472 -0.007800 0.000000
vt 0.015708 -0.016957 0.000000
vt 0.010472 -0.023400 0.000000
vt 0.015708 -0.033913 0.000000
vt 0.010472 -0.039000 0.000000
vt 0.015708 -0.050870 0.000000
vt 0.010472 -0.054601 0.000000
vt 0.015708 -0.067827 0.000000
vt 0.010472 -0.070201 0.000000
vt 0.015708 -0.084783 0.000000
vt 0.010472 -0.085801 0.000000
vt 0.015708 -0.101740 0.000000
vt 0.010472 -0.101401 0.000000
vt 0.010472 -0.117001 0.000000
vt 0.005236 -0.101401 0.000000
vt 0.005236 -0.117001 0.000000
vt 0.000000 -0.109201 0.000000
vt 0.000000 -0.124801 0.000000
vt 0.010472 0.023400 0.000000
vt 0.015708 0.033913 0.000000
vt 0.010472 0.039000 0.000000
vt 0.015708 0.050870 0.000000
vt 0.010472 0.054601 0.000000
vt 0.015708 0.067827 0.000000
vt 0.010472 0.070201 0.000000
vt 0.015708 0.084783 0.000000
vt 0.010472 0.085801 0.000000
vt 0.015708 0.101740 0.000000
vt 0.010472 0.101401 0.000000
vt 0.010472 0.117001 0.000000
vt 0.005236 0.117001 0.000000
vt 0.005236 0.132601 0.000000
vt -0.000000 0.124801 0.000000
vt -0.000000 0.140401 0.000000
vt 0.005236 0.148202 0.000000
vt 0.000000 0.156002 0.000000
vt 0.005236 0.163802 0.000000
vt 0.000000 0.171602 0.000000
vt 0.005236 0.179402 0.000000
vt 0.000000 0.187202 0.000000
vt 0.005236 0.195002 0.000000
vt 0.000000 0.202802 0.000000
vt 0.000000 -0.187202 0.000000
vt 0.005236 -0.195002 0.000000
vt 0.005236 -0.179402 0.000000
vt 0.000000 -0.171602 0.000000
vt 0.005236 -0.163802 0.000000
vt 0.000000 -0.156002 0.000000
vt 0.005236 -0.148202 0.000000
vt 0.000000 -0.140401 0.000000
vt 0.005236 -0.132601 0.000000
vt 0.015708 0.118697 0.000000
vt 0.010472 0.132601 0.000000
vt 0.015708 0.135654 0.000000
vt 0.010472 0.148202 0.000000
vt 0.015708 0.152610 0.000000
vt 0.010472 0.163802 0.000000
vt 0.015708 0.169567 0.000000
vt 0.010472 0.179402 0.000000
vt 0.015708 0.186524 0.000000
vt 0.010472 0.195002 0.000000
vt 0.010472 -0.195002 0.000000
vt 0.015708 -0.203480 0.000000
vt 0.015708 -0.186524 0.000000
vt 0.010472 -0.179402 0.000000
vt 0.015708 -0.169567 0.000000
vt 0.010472 -0.163802 0.000000
vt 0.015708 -0.152610 0.000000
vt 0.010472 -0.148202 0.000000
vt 0.015708 -0.135654 0.000000
vt 0.010472 -0.132601 0.000000
vt 0.015708 -0.118697 0.000000
vt -0.000000 -0.015600 0.000000
vt 0.005236 -0.007800 0.000000
vt -0.000000 -0.000000 0.000000
vt 0.005236 0.007800 0.000000
vt -0.000000 0.015600 0.000000
vt 0.005236 0.023400 0.000000
vt -0.000000 0.031200 0.000000
vt 0.005236 0.039000 0.000000
vt 0.000000 0.046800 0.000000
vt 0.005236 0.054601 0.000000
vt -0.000000 0.062401 0.000000
vt 0.005236 0.070201 0.000000
vt -0.000000 0.078001 0.000000
vt 0.005236 0.085801 0.000000
vt -0.000000 0.093601 0.000000
vt 0.005236 0.101401 0.000000
vt -0.000000 0.109201 0.000000
vt 0.005236 -0.023400 0.000000
vt -0.000000 -0.031200 0.000000
vt 0.005236 -0.039000 0.000000
vt 0.000000 -0.046800 0.000000
vt 0.005236 -0.054601 0.000000
vt -0.000000 -0.062401 0.000000
vt 0.005236 -0.070201 0.000000
vt -0.000000 -0.078001 0.000000
vt 0.005236 -0.085801 0.000000
vt 0.000000 -0.093601 0.000000
vt -0.010000 0.016336 0.000000
vt -0.300000 0.008168 0.000000
vt -0.010000 -0.000000 0.000000
vt -0.300000 -0.008168 0.000000
vt -0.010000 -0.016336 0.000000
vt -0.300000 -0.024504 0.000000
vt -0.010000 -0.032673 0.000000
vt -0.300000 -0.040841 0.000000
vt -0.010000 -0.049009 0.000000
vt -0.300000 -0.057177 0.000000
vt -0.010000 -0.065345 0.000000
vt -0.300000 -0.073513 0.000000
vt -0.010000 -0.081681 0.000000
vt -0.300000 -0.089850 0.000000
vt -0.010000 -0.098018 0.000000
vt -0.300000 -0.106186 0.000000
vt -0.010000 -0.114354 0.000000
vt -0.300000 -0.122522 0.000000
vt -0.010000 -0.130690 0.000000
vt -0.300000 -0.138858 0.000000
vt -0.010000 -0.147027 0.000000
vt -0.300000 -0.155195 0.000000
vt -0.010000 -0.163363 0.000000
vt -0.300000 -0.171531 0.000000
vt -0.010000 -0.179699 0.000000
vt -0.300000 -0.187867 0.000000
vt -0.010000 -0.196035 0.000000
vt -0.300000 -0.204204 0.000000
vt -0.010000 -0.212372 0.000000
vt -0.010000 0.196035 0.000000
vt -0.300000 0.204204 0.000000
vt -0.300000 0.187867 0.000000
vt -0.010000 0.179699 0.000000
vt -0.300000 0.171531 0.000000
vt -0.010000 0.163363 0.000000
vt -0.300000 0.155195 0.000000
vt -0.010000 0.147027 0.000000
vt -0.300000 0.138858 0.000000
vt -0.010000 0.130690 0.000000
vt -0.300000 0.122522 0.000000
vt -0.010000 0.114354 0.000000
vt -0.300000 0.106186 0.000000
vt -0.010000 0.098018 0.000000
vt -0.300000 0.089850 0.000000
vt -0.010000 0.081681 0.000000
vt -0.300000 0.073513 0.000000
vt -0.010000 0.065345 0.000000
vt -0.300000 0.057177 0.000000
vt -0.010000 0.049009 0.000000
vt -0.300000 0.040841 0.000000
vt -0.010000 0.032673 0.000000
vt -0.300000 0.024504 0.000000
vt -1.170000 -0.016336 0.000000
vt -0.880000 -0.008168 0.000000
vt -1.170000 -0.000000 0.000000
vt -0.880000 0.008168 0.000000
vt -1.170000 0.016336 0.000000
vt -0.880000 0.024504 0.000000
vt -1.170000 0.032673 0.000000
vt -0.880000 0.040841 0.000000
vt -1.170000 0.049009 0.000000
vt -0.880000 0.057177 0.000000
vt -1.170000 0.065345 0.000000
vt -0.880000 0.073513 0.000000
vt -1.170000 0.081681 0.000000
vt -0.880000 0.089850 0.000000
vt -1.170000 0.098018 0.000000
vt -0.880000 0.106186 0.000000
vt -1.170000 0.114354 0.000000
vt -0.880000 0.122522 0.000000
vt -1.170000 0.130690 0.000000
vt -0.880000 0.138858 0.000000
vt -1.170000 0.147027 0.000000
vt -0.880000 0.155195 0.000000
vt -1.170000 0.163363 0.000000
vt -0.880000 0.171531 0.000000
vt -1.170000 0.179699 0.000000
vt -0.880000 0.187867 0.000000
vt -1.170000 0.196035 0.000000
vt -0.880000 0.204204 0.000000
vt -1.170000 0.212372 0.000000
vt -1.170000 -0.196035 0.000000
vt -0.880000 -0.204204 0.000000
vt -0.880000 -0.187867 0.000000
vt -1.170000 -0.179699 0.000000
vt -0.880000 -0.171531 0.000000
vt -1.170000 -0.163363 0.000000
vt -0.880000 -0.155195 0.000000
vt -1.170000 -0.147027 0.000000
vt -0.880000 -0.138858 0.000000
vt -1.170000 -0.130690 0.000000
vt -0.880000 -0.122522 0.000000
vt -1.170000 -0.114354 0.000000
vt -0.880000 -0.106186 0.000000
vt -1.170000 -0.098018 0.000000
vt -0.880000 -0.089850 0.000000
vt -1.170000 -0.081681 0.000000
vt -0.880000 -0.073513 0.000000
vt -1.170000 -0.065345 0.000000
vt -0.880000 -0.057177 0.000000
vt -1.170000 -0.049009 0.000000
vt -0.880000 -0.040841 0.000000
vt -1.170000 -0.032673 0.000000
vt -0.880000 -0.024504 0.000000
vt -0.590000 0.204204 0.000000
vt -0.590000 0.187867 0.000000
vt -0.590000 0.171531 0.000000
vt -0.590000 0.155195 0.000000
vt -0.590000 0.138858 0.000000
vt -0.590000 0.122522 0.000000
vt -0.590000 0.106186 0.000000
vt -0.590000 0.089850 0.000000
vt -0.590000 0.073513 0.000000
vt -0.590000 0.057177 0.000000
vt -0.590000 0.040841 0.000000
vt -0.590000 0.024504 0.000000
vt -0.590000 0.008168 0.000000
vt -0.590000 -0.008168 0.000000
vt -0.590000 -0.024504 0.000000
vt -0.590000 -0.040841 0.000000
vt -0.590000 -0.057177 0.000000
vt -0.590000 -0.073513 0.000000
vt -0.590000 -0.089850 0.000000
vt -0.590000 -0.106186 0.000000
vt -0.590000 -0.122522 0.000000
vt -0.590000 -0.138858 0.000000
vt -0.590000 -0.155195 0.000000
vt -0.590000 -0.171531 0.000000
vt -0.590000 -0.187867 0.000000
vt -0.590000 -0.204204 0.000000
vt -0.055000 -0.000000 0.000000
vt -0.052960 -0.014839 0.000000
vt -0.052960 0.014839 0.000000
vt -0.046993 0.028577 0.000000
vt -0.046993 -0.028577 0.000000
vt -0.037540 0.040196 0.000000
vt -0.037540 -0.040196 0.000000
vt -0.025304 0.048834 0.000000
vt -0.025304 -0.048834 0.000000
vt -0.011190 0.053850 0.000000
vt -0.011190 -0.053850 0.000000
vt 0.003753 0.054872 0.000000
vt 0.018418 0.051824 0.000000
vt 0.031717 0.044933 0.000000
vt 0.042664 0.034710 0.000000
vt 0.050447 0.021912 0.000000
vt 0.054488 0.007489 0.000000
vt 0.054488 -0.007489 0.000000
vt 0.050447 -0.021912 0.000000
vt 0.042664 -0.034710 0.000000
vt 0.031717 -0.044933 0.000000
vt 0.018418 -0.051824 0.000000
vt 0.003753 -0.054872 0.000000
vt 0.055000 -0.000000 0.000000
vt 0.052960 0.014839 0.000000
vt 0.052960 -0.014839 0.000000
vt 0.046993 0.028577 0.000000
vt 0.046993 -0.028577 0.000000
vt 0.037540 0.040196 0.000000
vt 0.037540 -0.040196 0.000000
vt 0.025304 0.048834 0.000000
vt 0.025304 -0.048834 0.000000
vt 0.011190 0.053850 0.000000
vt 0.011190 -0.053850 0.000000
vt -0.003753 0.054872 0.000000
vt -0.018418 0.051824 0.000000
vt -0.031717 0.044933 0.000000
vt -0.042664 0.034710 0.000000
vt -0.050447 0.021912 0.000000
vt -0.054488 0.007489 0.000000
vt -0.054488 -0.007489 0.000000
vt -0.050447 -0.021912 0.000000
vt -0.042664 -0.034710 0.000000
vt -0.031717 -0.044933 0.000000
vt -0.018418 -0.051824 0.000000
vt -0.003753 -0.054872 0.000000
vn 0.684892 0.684892 -0.248690
vn 0.253990 0.961097 -0.108542
vn 0.707107 0.707107 0.000000
vn 0.253990 0.961097 0.108542
vn 0.684892 0.684892 0.248690
vn 0.215816 0.922923 0.318805
vn 0.619642 0.619642 0.481754
vn 0.141866 0.848973 0.509037
vn 0.515459 0.515459 0.684547
vn 0.036787 0.743894 0.667284
vn 0.378887 0.378887 0.844328
vn -0.092818 0.614289 0.783603
vn 0.218508 0.218508 0.951057
vn -0.238806 0.468301 0.850686
vn 0.044400 0.044400 0.998027
vn -0.392005 0.315102 0.864317
vn -0.132499 -0.132499 0.982287
vn -0.542787 0.164320 0.823639
vn -0.301071 -0.301071 0.904827
vn -0.681679 0.025428 0.731209
vn -0.450727 -0.450727 0.770513
vn -0.799954 -0.092847 0.592835
vn -0.572061 -0.572061 0.587785
vn -0.890179 -0.183073 0.417211
vn -0.657451 -0.657451 0.368125
vn -0.946687 -0.239580 0.215372
vn -0.701531 -0.701531 0.125333
vn -0.965926 -0.258819 -0.000000
vn -0.701531 -0.701531 -0.125333
vn -0.946687 -0.239580 -0.215372
vn -0.657451 -0.657451 -0.368125
vn -0.890179 -0.183073 -0.417211
vn -0.572061 -0.572061 -0.587785
vn -0.799954 -0.092847 -0.592835
vn -0.450727 -0.450727 -0.770513
vn -0.681679 0.025428 -0.731209
vn -0.301071 -0.301071 -0.904827
vn -0.542787 0.164320 -0.823639
vn -0.132499 -0.132499 -0.982287
vn -0.392005 0.315102 -0.864317
vn 0.044400 0.044400 -0.998027
vn -0.238806 0.468301 -0.850686
vn 0.218508 0.218508 -0.951057
vn -0.092818 0.614289 -0.783603
vn 0.378887 0.378887 -0.844328
vn 0.036787 0.743894 -0.667284
vn 0.515459 0.515459 -0.684547
vn 0.141866 0.848973 -0.509037
vn 0.619642 0.619642 -0.481754
vn 0.215816 0.922923 -0.318805
vn -0.707107 0.707107 0.000000
vn -0.261607 0.963138 0.062667
vn -0.707107 0.707107 -0.000000
vn -0.261607 0.963138 -0.062667
vn -0.707107 0.707107 -0.000000
vn -0.283647 0.941098 -0.184062
vn -0.707107 0.707107 0.000000
vn -0.326342 0.898403 -0.293893
vn -0.707107 0.707107 0.000000
vn -0.387009 0.837736 -0.385257
vn -0.707107 0.707107 -0.000000
vn -0.461837 0.762908 -0.452414
vn -0.707107 0.707107 -0.000000
vn -0.546123 0.678622 -0.491144
vn -0.707107 0.707107 -0.000000
vn -0.634572 0.590173 -0.499013
vn -0.721626 0.503118 -0.475528
vn -0.283647 0.941098 0.184062
vn -0.707107 0.707107 -0.000000
vn -0.326342 0.898403 0.293893
vn -0.707107 0.707107 -0.000000
vn -0.387009 0.837736 0.385257
vn -0.707107 0.707107 0.000000
vn -0.461837 0.762908 0.452414
vn -0.707107 0.707107 0.000000
vn -0.546123 0.678622 0.491144
vn -0.707107 0.707107 0.000000
vn -0.634572 0.590173 0.499013
vn -0.721626 0.503118 0.475528
vn -0.707107 0.707107 -0.000000
vn -0.801816 0.422929 0.422164
vn -0.707107 0.707107 0.000000
vn -0.870102 0.354643 0.342274
vn -0.707107 0.707107 0.000000
vn -0.922194 0.302551 0.240877
vn -0.707107 0.707107 -0.000000
vn -0.954818 0.269927 0.124345
vn -0.707107 0.707107 -0.000000
vn -0.965926 0.258819 -0.000000
vn -0.707107 0.707107 0.000000
vn -0.954818 0.269927 -0.124345
vn -0.707107 0.707107 0.000000
vn -0.922194 0.302551 -0.240877
vn -0.707107 0.707107 -0.000000
vn -0.870102 0.354643 -0.342274
vn -0.707107 0.707107 -0.000000
vn -0.801816 0.422929 -0.422164
vn -0.707107 0.707107 0.000000
vn 0.707107 -0.707107 -0.000000
vn 0.963138 -0.261607 -0.062667
vn 0.707107 -0.707107 0.000000
vn 0.963138 -0.261607 0.062667
vn 0.707107 -0.707107 0.000000
vn 0.941098 -0.283647 0.184062
vn 0.707107 -0.707107 -0.000000
vn 0.898403 -0.326342 0.293893
vn 0.707107 -0.707107 -0.000000
vn 0.837736 -0.387009 0.385257
vn 0.707107 -0.707107 0.000000
vn 0.762908 -0.461837 0.452414
vn 0.707107 -0.707107 0.000000
vn 0.678622 -0.546123 0.491144
vn 0.707107 -0.707107 0.000000
vn 0.590173 -0.634572 0.499013
vn 0.503118 -0.721626 0.475528
vn 0.315102 -0.392005 0.864317
vn 0.164320 -0.542787 0.823639
vn -0.132499 -0.132499 0.982287
vn -0.301071 -0.301071 0.904827
vn 0.941098 -0.283647 -0.184062
vn 0.707107 -0.707107 0.000000
vn 0.898403 -0.326342 -0.293893
vn 0.707107 -0.707107 0.000000
vn 0.837736 -0.387009 -0.385257
vn 0.707107 -0.707107 -0.000000
vn 0.762908 -0.461837 -0.452414
vn 0.707107 -0.707107 -0.000000
vn 0.678622 -0.546123 -0.491144
vn 0.707107 -0.707107 -0.000000
vn 0.590173 -0.634572 -0.499013
vn 0.503118 -0.721626 -0.475528
vn 0.164320 -0.542787 -0.823639
vn 0.025428 -0.681679 -0.731209
vn -0.301071 -0.301071 -0.904827
vn -0.450727 -0.450727 -0.770513
vn -0.092847 -0.799954 -0.592835
vn -0.572061 -0.572061 -0.587785
vn -0.183073 -0.890179 -0.417211
vn -0.657451 -0.657451 -0.368125
vn -0.239580 -0.946687 -0.215372
vn -0.701531 -0.701531 -0.125333
vn -0.258819 -0.965926 0.000000
vn -0.701531 -0.701531 0.125333
vn -0.239580 -0.946687 0.215372
vn -0.657451 -0.657451 0.368125
vn -0.183073 -0.890179 0.417211
vn -0.572061 -0.572061 0.587785
vn -0.092847 -0.799954 0.592835
vn -0.450727 -0.450727 0.770513
vn 0.025428 -0.681679 0.731209
vn 0.707107 -0.707107 0.000000
vn 0.422929 -0.801816 -0.422164
vn 0.707107 -0.707107 -0.000000
vn 0.354643 -0.870102 -0.342274
vn 0.707107 -0.707107 -0.000000
vn 0.302551 -0.922194 -0.240877
vn 0.707107 -0.707107 0.000000
vn 0.269927 -0.954818 -0.124345
vn 0.707107 -0.707107 0.000000
vn 0.258819 -0.965926 0.000000
vn 0.707107 -0.707107 -0.000000
vn 0.269927 -0.954818 0.124345
vn 0.707107 -0.707107 -0.000000
vn 0.302551 -0.922194 0.240877
vn 0.707107 -0.707107 0.000000
vn 0.354643 -0.870102 0.342274
vn 0.707107 -0.707107 0.000000
vn 0.422929 -0.801816 0.422164
vn 0.707107 -0.707107 -0.000000
vn 0.684892 0.684892 0.248690
vn 0.961097 0.253990 0.108542
vn 0.707107 0.707107 -0.000000
vn 0.961097 0.253990 -0.108542
vn 0.684892 0.684892 -0.248690
vn 0.922923 0.215816 -0.318805
vn 0.619642 0.619642 -0.481754
vn 0.848973 0.141866 -0.509037
vn 0.515459 0.515459 -0.684547
vn 0.743894 0.036787 -0.667284
vn 0.378887 0.378887 -0.844328
vn 0.614289 -0.092818 -0.783603
vn 0.218508 0.218508 -0.951057
vn 0.468301 -0.238806 -0.850686
vn 0.044400 0.044400 -0.998027
vn 0.315102 -0.392005 -0.864317
vn -0.132499 -0.132499 -0.982287
vn 0.922923 0.215816 0.318805
vn 0.619642 0.619642 0.481754
vn 0.848973 0.141866 0.509037
vn 0.515459 0.515459 0.684547
vn 0.743894 0.036787 0.667284
vn 0.378887 0.378887 0.844328
vn 0.614289 -0.092818 0.783603
vn 0.218508 0.218508 0.951057
vn 0.468301 -0.238806 0.850686
vn 0.044400 0.044400 0.998027
vn 0.684892 0.684892 -0.248690
vn 0.701531 0.701531 -0.125333
vn 0.701531 0.701531 0.125333
vn 0.684892 0.684892 0.248690
vn 0.657451 0.657451 0.368125
vn 0.572061 0.572061 0.587785
vn 0.515459 0.515459 0.684547
vn 0.450727 0.450727 0.770513
vn 0.378887 0.378887 0.844328
vn 0.301071 0.301071 0.904827
vn 0.218508 0.218508 0.951057
vn 0.132499 0.132499 0.982287
vn -0.044400 -0.044400 0.998027
vn -0.218508 -0.218508 0.951057
vn -0.378887 -0.378887 0.844328
vn -0.515459 -0.515459 0.684547
vn -0.619642 -0.619642 0.481754
vn -0.684892 -0.684892 0.248690
vn -0.707107 -0.707107 0.000000
vn -0.684892 -0.684892 -0.248690
vn -0.619642 -0.619642 -0.481754
vn -0.515459 -0.515459 -0.684547
vn -0.378887 -0.378887 -0.844328
vn -0.218508 -0.218508 -0.951057
vn -0.044400 -0.044400 -0.998027
vn 0.132499 0.132499 -0.982287
vn 0.218508 0.218508 -0.951057
vn 0.301071 0.301071 -0.904827
vn 0.378887 0.378887 -0.844328
vn 0.450727 0.450727 -0.770513
vn 0.515459 0.515459 -0.684547
vn 0.572061 0.572061 -0.587785
vn 0.657451 0.657451 -0.368125
vn 0.684892 0.684892 0.248690
vn 0.701531 0.701531 0.125333
vn 0.707107 0.707107 0.000000
vn 0.701531 0.701531 -0.125333
vn 0.684892 0.684892 -0.248690
vn 0.657451 0.657451 -0.368125
vn 0.572061 0.572061 -0.587785
vn 0.515459 0.515459 -0.684547
vn 0.450727 0.450727 -0.770513
vn 0.378887 0.378887 -0.844328
vn 0.301071 0.301071 -0.904827
vn 0.218508 0.218508 -0.951057
vn 0.132499 0.132499 -0.982287
vn -0.044400 -0.044400 -0.998027
vn -0.132499 -0.132499 -0.982287
vn -0.218508 -0.218508 -0.951057
vn -0.301071 -0.301071 -0.904827
vn -0.378887 -0.378887 -0.844328
vn -0.515459 -0.515459 -0.684547
vn -0.572061 -0.572061 -0.587785
vn -0.619642 -0.619642 -0.481754
vn -0.657451 -0.657451 -0.368125
vn -0.684892 -0.684892 -0.248690
vn -0.707107 -0.707107 -0.000000
vn -0.684892 -0.684892 0.248690
vn -0.657451 -0.657451 0.368125
vn -0.619642 -0.619642 0.481754
vn -0.572061 -0.572061 0.587785
vn -0.515459 -0.515459 0.684547
vn -0.378887 -0.378887 0.844328
vn -0.301071 -0.301071 0.904827
vn -0.218508 -0.218508 0.951057
vn -0.132499 -0.132499 0.982287
vn -0.044400 -0.044400 0.998027
vn 0.132499 0.132499 0.982287
vn 0.218508 0.218508 0.951057
vn 0.301071 0.301071 0.904827
vn 0.378887 0.378887 0.844328
vn 0.450727 0.450727 0.770513
vn 0.515459 0.515459 0.684547
vn 0.572061 0.572061 0.587785
vn 0.657451 0.657451 0.368125
vn -0.707107 -0.707107 -0.000000
vn -0.684892 -0.684892 -0.248690
vn -0.619642 -0.619642 -0.481754
vn -0.515459 -0.515459 -0.684547
vn -0.378887 -0.378887 -0.844328
vn -0.218508 -0.218508 -0.951057
vn -0.044400 -0.044400 -0.998027
vn 0.132499 0.132499 -0.982287
vn 0.301071 0.301071 -0.904827
vn 0.450727 0.450727 -0.770513
vn 0.572061 0.572061 -0.587785
vn 0.657451 0.657451 -0.368125
vn 0.701531 0.701531 -0.125333
vn 0.701531 0.701531 0.125333
vn 0.657451 0.657451 0.368125
vn 0.572061 0.572061 0.587785
vn 0.450727 0.450727 0.770513
vn 0.301071 0.301071 0.904827
vn 0.132499 0.132499 0.982287
vn -0.044400 -0.044400 0.998027
vn -0.218508 -0.218508 0.951057
vn -0.378887 -0.378887 0.844328
vn -0.515459 -0.515459 0.684547
vn -0.619642 -0.619642 0.481754
vn -0.684892 -0.684892 0.248690
vn 0.707107 -0.707107 0.000000
vn 0.707107 -0.707107 0.000000
vn 0.707107 -0.707107 0.000000
vn 0.707107 -0.707107 0.000000
vn 0.707107 -0.707107 0.000000
vn 0.707107 -0.707107 0.000000
vn 0.707107 -0.707107 0.000000
vn 0.707107 -0.707107 0.000000
vn 0.707107 -0.707107 0.000000
vn 0.707107 -0.707107 0.000000
vn 0.707107 -0.707107 0.000000
vn 0.707107 -0.707107 0.000000
vn 0.707107 -0.707107 0.000000
vn 0.707107 -0.707107 0.000000
vn 0.707107 -0.707107 0.000000
vn 0.707107 -0.707107 0.000000
vn 0.707107 -0.707107 0.000000
vn 0.707107 -0.707107 0.000000
vn 0.707107 -0.707107 0.000000
vn 0.707107 -0.707107 0.000000
vn 0.707107 -0.707107 0.000000
vn -0.707107 0.707107 -0.000000
vn -0.707107 0.707107 -0.000000
vn -0.707107 0.707107 -0.000000
vn -0.707107 0.707107 -0.000000
vn -0.707107 0.707107 -0.000000
vn -0.707107 0.707107 -0.000000
vn -0.707107 0.707107 -0.000000
vn -0.707107 0.707107 -0.000000
vn -0.707107 0.707107 -0.000000
vn -0.707107 0.707107 -0.000000
vn -0.707107 0.707107 -0.000000
vn -0.707107 0.707107 -0.000000
vn -0.707107 0.707107 -0.000000
vn -0.707107 0.707107 -0.000000
vn -0.707107 0.707107 -0.000000
vn -0.707107 0.707107 -0.000000
vn -0.707107 0.707107 -0.000000
vn -0.707107 0.707107 -0.000000
vn -0.707107 0.707107 -0.000000
vn -0.707107 0.707107 -0.000000
vn -0.707107 0.707107 -0.000000
usemtl Opaque(202,209,238)
f 2/1/1 53/2/2 1/3/3
f 1/3/3 53/2/2 56/4/4
f 1/3/3 56/4/4 25/5/5
f 25/5/5 56/4/4 97/6/6
f 25/5/5 97/6/6 24/7/7
f 24/7/7 97/6/6 95/8/8
f 24/7/7 95/8/8 23/9/9
f 23/9/9 95/8/8 93/10/10
f 23/9/9 93/10/10 22/11/11
f 22/11/11 93/10/10 91/12/12
f 22/11/11 91/12/12 21/13/13
f 21/13/13 91/12/12 90/14/14
f 21/13/13 90/14/14 20/15/15
f 20/15/15 90/14/14 88/16/16
f 20/15/15 88/16/16 19/17/17
f 19/17/17 88/16/16 86/18/18
f 19/17/17 86/18/18 18/19/19
f 18/19/19 86/18/18 84/20/20
f 18/19/19 84/20/20 17/21/21
f 17/21/21 84/20/20 82/22/22
f 17/21/21 82/22/22 16/23/23
f 16/23/23 82/22/22 80/24/24
f 16/23/23 80/24/24 15/25/25
f 15/25/25 80/24/24 78/26/26
f 15/25/25 78/26/26 14/27/27
f 14/27/27 78/26/26 49/28/28
f 14/27/27 49/28/28 13/29/29
f 13/30/29 49/31/28 76/32/30
f 13/30/29 76/32/30 12/33/31
f 12/33/31 76/32/30 74/34/32
f 12/33/31 74/34/32 11/35/33
f 11/35/33 74/34/32 72/36/34
f 11/35/33 72/36/34 10/37/35
f 10/37/35 72/36/34 70/38/36
f 10/37/35 70/38/36 9/39/37
f 9/39/37 70/38/36 68/40/38
f 9/39/37 68/40/38 8/41/39
f 8/41/39 68/40/38 66/42/40
f 8/41/39 66/42/40 7/43/41
f 7/43/41 66/42/40 65/44/42
f 7/43/41 65/44/42 6/45/43
f 6/45/43 65/44/42 63/46/44
f 6/45/43 63/46/44 5/47/45
f 5/47/45 63/46/44 61/48/46
f 5/47/45 61/48/46 4/49/47
f 4/49/47 61/48/46 59/50/48
f 4/49/47 59/50/48 3/51/49
f 3/51/49 59/50/48 57/52/50
f 3/51/49 57/52/50 2/1/1
f 2/1/1 57/52/50 53/2/2
f 27/53/51 55/54/52 26/55/53
f 26/55/53 55/54/52 54/56/54
f 26/55/53 54/56/54 48/57/55
f 48/57/55 54/56/54 58/58/56
f 48/57/55 58/58/56 47/59/57
f 47/59/57 58/58/56 60/60/58
f 47/59/57 60/60/58 46/61/59
f 46/61/59 60/60/58 62/62/60
f 46/61/59 62/62/60 45/63/61
f 45/63/61 62/62/60 64/64/62
f 45/63/61 64/64/62 44/65/63
f 44/65/63 64/64/62 52/66/64
f 44/65/63 52/66/64 43/67/65
f 43/67/65 52/66/64 67/68/66
f 43/67/65 67/68/66 69/69/67
f 69/69/67 67/68/66 66/42/40
f 69/69/67 66/42/40 68/40/38
f 55/54/52 27/53/51 98/70/68
f 98/70/68 27/53/51 28/71/69
f 98/70/68 28/71/69 96/72/70
f 96/72/70 28/71/69 29/73/71
f 96/72/70 29/73/71 94/74/72
f 94/74/72 29/73/71 30/75/73
f 94/74/72 30/75/73 92/76/74
f 92/76/74 30/75/73 31/77/75
f 92/76/74 31/77/75 51/78/76
f 51/78/76 31/77/75 32/79/77
f 51/78/76 32/79/77 89/80/78
f 89/80/78 32/79/77 87/81/79
f 89/80/78 87/81/79 86/18/18
f 86/18/18 87/81/79 84/20/20
f 32/79/77 33/82/80 87/81/79
f 87/81/79 33/82/80 85/83/81
f 87/81/79 85/83/81 84/20/20
f 84/20/20 85/83/81 82/22/22
f 33/82/80 34/84/82 85/83/81
f 85/83/81 34/84/82 83/85/83
f 85/83/81 83/85/83 82/22/22
f 82/22/22 83/85/83 80/24/24
f 34/84/82 35/86/84 83/85/83
f 83/85/83 35/86/84 81/87/85
f 83/85/83 81/87/85 80/24/24
f 80/24/24 81/87/85 78/26/26
f 35/86/84 36/88/86 81/87/85
f 81/87/85 36/88/86 79/89/87
f 81/87/85 79/89/87 78/26/26
f 78/26/26 79/89/87 49/28/28
f 36/88/86 37/90/88 79/89/87
f 79/89/87 37/90/88 50/91/89
f 79/89/87 50/91/89 49/28/28
f 49/31/28 50/92/89 76/32/30
f 37/93/88 38/94/90 50/92/89
f 50/92/89 38/94/90 77/95/91
f 50/92/89 77/95/91 76/32/30
f 76/32/30 77/95/91 74/34/32
f 38/94/90 39/96/92 77/95/91
f 77/95/91 39/96/92 75/97/93
f 77/95/91 75/97/93 74/34/32
f 74/34/32 75/97/93 72/36/34
f 39/96/92 40/98/94 75/97/93
f 75/97/93 40/98/94 73/99/95
f 75/97/93 73/99/95 72/36/34
f 72/36/34 73/99/95 70/38/36
f 40/98/94 41/100/96 73/99/95
f 73/99/95 41/100/96 71/101/97
f 73/99/95 71/101/97 70/38/36
f 70/38/36 71/101/97 68/40/38
f 41/100/96 42/102/98 71/101/97
f 71/101/97 42/102/98 69/69/67
f 71/101/97 69/69/67 68/40/38
f 42/102/98 43/67/65 69/69/67
f 53/2/2 54/56/54 56/4/4
f 56/4/4 54/56/54 55/54/52
f 56/4/4 55/54/52 97/6/6
f 97/6/6 55/54/52 98/70/68
f 97/6/6 98/70/68 95/8/8
f 95/8/8 98/70/68 96/72/70
f 95/8/8 96/72/70 93/10/10
f 93/10/10 96/72/70 94/74/72
f 93/10/10 94/74/72 91/12/12
f 91/12/12 94/74/72 92/76/74
f 91/12/12 92/76/74 90/14/14
f 90/14/14 92/76/74 51/78/76
f 90/14/14 51/78/76 88/16/16
f 88/16/16 51/78/76 89/80/78
f 88/16/16 89/80/78 86/18/18
f 54/56/54 53/2/2 58/58/56
f 58/58/56 53/2/2 57/52/50
f 58/58/56 57/52/50 60/60/58
f 60/60/58 57/52/50 59/50/48
f 60/60/58 59/50/48 62/62/60
f 62/62/60 59/50/48 61/48/46
f 62/62/60 61/48/46 64/64/62
f 64/64/62 61/48/46 63/46/44
f 64/64/62 63/46/44 52/66/64
f 52/66/64 63/46/44 65/44/42
f 52/66/64 65/44/42 67/68/66
f 67/68/66 65/44/42 66/42/40
f 100/103/99 151/104/100 99/105/101
f 99/105/101 151/104/100 154/106/102
f 99/105/101 154/106/102 121/107/103
f 121/107/103 154/106/102 195/108/104
f 121/107/103 195/108/104 120/109/105
f 120/109/105 195/108/104 193/110/106
f 120/109/105 193/110/106 119/111/107
f 119/111/107 193/110/106 191/112/108
f 119/111/107 191/112/108 118/113/109
f 118/113/109 191/112/108 188/114/110
f 118/113/109 188/114/110 117/115/111
f 117/115/111 188/114/110 149/116/112
f 117/115/111 149/116/112 116/117/113
f 116/117/113 149/116/112 186/118/114
f 116/117/113 186/118/114 184/119/115
f 184/119/115 186/118/114 187/120/116
f 184/119/115 187/120/116 185/121/117
f 185/121/117 187/120/116 129/122/118
f 185/121/117 129/122/118 130/123/119
f 151/104/100 100/103/99 155/124/120
f 155/124/120 100/103/99 101/125/121
f 155/124/120 101/125/121 157/126/122
f 157/126/122 101/125/121 102/127/123
f 157/126/122 102/127/123 159/128/124
f 159/128/124 102/127/123 103/129/125
f 159/128/124 103/129/125 161/130/126
f 161/130/126 103/129/125 104/131/127
f 161/130/126 104/131/127 150/132/128
f 150/132/128 104/131/127 105/133/129
f 150/132/128 105/133/129 167/134/130
f 167/134/130 105/133/129 164/135/131
f 167/134/130 164/135/131 165/136/132
f 165/136/132 164/135/131 169/137/133
f 165/136/132 169/137/133 139/138/134
f 139/138/134 169/137/133 138/139/135
f 138/139/135 169/137/133 171/140/136
f 138/139/135 171/140/136 137/141/137
f 137/141/137 171/140/136 173/142/138
f 137/141/137 173/142/138 136/143/139
f 136/143/139 173/142/138 175/144/140
f 136/143/139 175/144/140 135/145/141
f 135/145/141 175/144/140 148/146/142
f 135/145/141 148/146/142 134/147/143
f 134/148/143 148/149/142 177/150/144
f 134/148/143 177/150/144 133/151/145
f 133/151/145 177/150/144 179/152/146
f 133/151/145 179/152/146 132/153/147
f 132/153/147 179/152/146 181/154/148
f 132/153/147 181/154/148 131/155/149
f 131/155/149 181/154/148 183/156/150
f 131/155/149 183/156/150 130/123/119
f 130/123/119 183/156/150 185/121/117
f 105/133/129 106/157/151 164/135/131
f 164/135/131 106/157/151 168/158/152
f 164/135/131 168/158/152 169/137/133
f 169/137/133 168/158/152 171/140/136
f 106/157/151 107/159/153 168/158/152
f 168/158/152 107/159/153 170/160/154
f 168/158/152 170/160/154 171/140/136
f 171/140/136 170/160/154 173/142/138
f 107/159/153 108/161/155 170/160/154
f 170/160/154 108/161/155 172/162/156
f 170/160/154 172/162/156 173/142/138
f 173/142/138 172/162/156 175/144/140
f 108/161/155 109/163/157 172/162/156
f 172/162/156 109/163/157 174/164/158
f 172/162/156 174/164/158 175/144/140
f 175/144/140 174/164/158 148/146/142
f 109/163/157 110/165/159 174/164/158
f 174/164/158 110/165/159 147/166/160
f 174/164/158 147/166/160 148/146/142
f 148/149/142 147/167/160 177/150/144
f 110/168/159 111/169/161 147/167/160
f 147/167/160 111/169/161 176/170/162
f 147/167/160 176/170/162 177/150/144
f 177/150/144 176/170/162 179/152/146
f 111/169/161 112/171/163 176/170/162
f 176/170/162 112/171/163 178/172/164
f 176/170/162 178/172/164 179/152/146
f 179/152/146 178/172/164 181/154/148
f 112/171/163 113/173/165 178/172/164
f 178/172/164 113/173/165 180/174/166
f 178/172/164 180/174/166 181/154/148
f 181/154/148 180/174/166 183/156/150
f 113/173/165 114/175/167 180/174/166
f 180/174/166 114/175/167 182/176/168
f 180/174/166 182/176/168 183/156/150
f 183/156/150 182/176/168 185/121/117
f 114/175/167 115/177/169 182/176/168
f 182/176/168 115/177/169 184/119/115
f 182/176/168 184/119/115 185/121/117
f 115/177/169 116/117/113 184/119/115
f 123/178/170 153/179/171 122/180/172
f 122/180/172 153/179/171 152/181/173
f 122/180/172 152/181/173 146/182/174
f 146/182/174 152/181/173 156/183/175
f 146/182/174 156/183/175 145/184/176
f 145/184/176 156/183/175 158/185/177
f 145/184/176 158/185/177 144/186/178
f 144/186/178 158/185/177 160/187/179
f 144/186/178 160/187/179 143/188/180
f 143/188/180 160/187/179 162/189/181
f 143/188/180 162/189/181 142/190/182
f 142/190/182 162/189/181 163/191/183
f 142/190/182 163/191/183 141/192/184
f 141/192/184 163/191/183 166/193/185
f 141/192/184 166/193/185 140/194/186
f 140/194/186 166/193/185 165/136/132
f 140/194/186 165/136/132 139/138/134
f 153/179/171 123/178/170 196/195/187
f 196/195/187 123/178/170 124/196/188
f 196/195/187 124/196/188 194/197/189
f 194/197/189 124/196/188 125/198/190
f 194/197/189 125/198/190 192/199/191
f 192/199/191 125/198/190 126/200/192
f 192/199/191 126/200/192 189/201/193
f 189/201/193 126/200/192 127/202/194
f 189/201/193 127/202/194 190/203/195
f 190/203/195 127/202/194 128/204/196
f 190/203/195 128/204/196 187/120/116
f 187/120/116 128/204/196 129/122/118
f 151/104/100 152/181/173 154/106/102
f 154/106/102 152/181/173 153/179/171
f 154/106/102 153/179/171 195/108/104
f 195/108/104 153/179/171 196/195/187
f 195/108/104 196/195/187 193/110/106
f 193/110/106 196/195/187 194/197/189
f 193/110/106 194/197/189 191/112/108
f 191/112/108 194/197/189 192/199/191
f 191/112/108 192/199/191 188/114/110
f 188/114/110 192/199/191 189/201/193
f 188/114/110 189/201/193 149/116/112
f 149/116/112 189/201/193 190/203/195
f 149/116/112 190/203/195 186/118/114
f 186/118/114 190/203/195 187/120/116
f 152/181/173 151/104/100 156/183/175
f 156/183/175 151/104/100 155/124/120
f 156/183/175 155/124/120 158/185/177
f 158/185/177 155/124/120 157/126/122
f 158/185/177 157/126/122 160/187/179
f 160/187/179 157/126/122 159/128/124
f 160/187/179 159/128/124 162/189/181
f 162/189/181 159/128/124 161/130/126
f 162/189/181 161/130/126 163/191/183
f 163/191/183 161/130/126 150/132/128
f 163/191/183 150/132/128 166/193/185
f 166/193/185 150/132/128 167/134/130
f 166/193/185 167/134/130 165/136/132
f 146/205/197 200/206/198 122/207/172
f 122/207/172 200/206/198 205/208/199
f 122/207/172 205/208/199 123/209/200
f 123/209/200 205/208/199 269/210/201
f 123/209/200 269/210/201 124/211/188
f 124/211/188 269/210/201 266/212/202
f 124/211/188 266/212/202 125/213/203
f 125/213/203 266/212/202 263/214/204
f 125/213/203 263/214/204 126/215/205
f 126/215/205 263/214/204 260/216/206
f 126/215/205 260/216/206 127/217/207
f 127/217/207 260/216/206 257/218/208
f 127/217/207 257/218/208 128/219/196
f 128/219/196 257/218/208 254/220/209
f 128/219/196 254/220/209 129/221/118
f 129/221/118 254/220/209 251/222/210
f 129/221/118 251/222/210 130/223/119
f 130/223/119 251/222/210 248/224/211
f 130/223/119 248/224/211 131/225/149
f 131/225/149 248/224/211 245/226/212
f 131/225/149 245/226/212 132/227/147
f 132/227/147 245/226/212 242/228/213
f 132/227/147 242/228/213 133/229/145
f 133/229/145 242/228/213 239/230/214
f 133/229/145 239/230/214 134/231/143
f 134/231/143 239/230/214 197/232/215
f 134/231/143 197/232/215 135/233/141
f 135/234/141 197/235/215 236/236/216
f 135/234/141 236/236/216 136/237/139
f 136/237/139 236/236/216 233/238/217
f 136/237/139 233/238/217 137/239/137
f 137/239/137 233/238/217 230/240/218
f 137/239/137 230/240/218 138/241/135
f 138/241/135 230/240/218 227/242/219
f 138/241/135 227/242/219 139/243/134
f 139/243/134 227/242/219 224/244/220
f 139/243/134 224/244/220 140/245/186
f 140/245/186 224/244/220 221/246/221
f 140/245/186 221/246/221 141/247/184
f 141/247/184 221/246/221 218/248/222
f 141/247/184 218/248/222 142/249/223
f 142/249/223 218/248/222 215/250/224
f 142/249/223 215/250/224 143/251/225
f 143/251/225 215/250/224 212/252/226
f 143/251/225 212/252/226 144/253/227
f 144/253/227 212/252/226 209/254/228
f 144/253/227 209/254/228 145/255/176
f 145/255/176 209/254/228 206/256/229
f 145/255/176 206/256/229 146/205/197
f 146/205/197 206/256/229 200/206/198
f 25/257/230 203/258/231 1/259/232
f 1/259/232 203/258/231 202/260/233
f 1/259/232 202/260/233 2/261/234
f 2/261/234 202/260/233 208/262/235
f 2/261/234 208/262/235 3/263/49
f 3/263/49 208/262/235 211/264/236
f 3/263/49 211/264/236 4/265/237
f 4/265/237 211/264/236 214/266/238
f 4/265/237 214/266/238 5/267/239
f 5/267/239 214/266/238 217/268/240
f 5/267/239 217/268/240 6/269/241
f 6/269/241 217/268/240 220/270/242
f 6/269/241 220/270/242 7/271/41
f 7/271/41 220/270/242 223/272/243
f 7/271/41 223/272/243 8/273/244
f 8/273/244 223/272/243 226/274/245
f 8/273/244 226/274/245 9/275/246
f 9/275/246 226/274/245 229/276/247
f 9/275/246 229/276/247 10/277/35
f 10/277/35 229/276/247 232/278/248
f 10/277/35 232/278/248 11/279/249
f 11/279/249 232/278/248 235/280/250
f 11/279/249 235/280/250 12/281/251
f 12/281/251 235/280/250 238/282/252
f 12/281/251 238/282/252 13/283/29
f 13/283/29 238/282/252 199/284/253
f 13/283/29 199/284/253 14/285/27
f 14/286/27 199/287/253 241/288/254
f 14/286/27 241/288/254 15/289/255
f 15/289/255 241/288/254 244/290/256
f 15/289/255 244/290/256 16/291/257
f 16/291/257 244/290/256 247/292/258
f 16/291/257 247/292/258 17/293/21
f 17/293/21 247/292/258 250/294/259
f 17/293/21 250/294/259 18/295/260
f 18/295/260 250/294/259 253/296/261
f 18/295/260 253/296/261 19/297/262
f 19/297/262 253/296/261 256/298/263
f 19/297/262 256/298/263 20/299/15
f 20/299/15 256/298/263 259/300/264
f 20/299/15 259/300/264 21/301/265
f 21/301/265 259/300/264 262/302/266
f 21/301/265 262/302/266 22/303/267
f 22/303/267 262/302/266 265/304/268
f 22/303/267 265/304/268 23/305/269
f 23/305/269 265/304/268 268/306/270
f 23/305/269 268/306/270 24/307/7
f 24/307/7 268/306/270 271/308/271
f 24/307/7 271/308/271 25/257/230
f 25/257/230 271/308/271 203/258/231
f 197/235/215 198/309/272 236/236/216
f 236/236/216 198/309/272 237/310/273
f 236/236/216 237/310/273 233/238/217
f 233/238/217 237/310/273 234/311/274
f 233/238/217 234/311/274 230/240/218
f 230/240/218 234/311/274 231/312/275
f 230/240/218 231/312/275 227/242/219
f 227/242/219 231/312/275 228/313/276
f 227/242/219 228/313/276 224/244/220
f 224/244/220 228/313/276 225/314/277
f 224/244/220 225/314/277 221/246/221
f 221/246/221 225/314/277 222/315/278
f 221/246/221 222/315/278 218/248/222
f 218/248/222 222/315/278 219/316/279
f 218/248/222 219/316/279 215/250/224
f 215/250/224 219/316/279 216/317/280
f 215/250/224 216/317/280 212/252/226
f 212/252/226 216/317/280 213/318/281
f 212/252/226 213/318/281 209/254/228
f 209/254/228 213/318/281 210/319/282
f 209/254/228 210/319/282 206/256/229
f 206/256/229 210/319/282 207/320/283
f 206/256/229 207/320/283 200/206/198
f 200/206/198 207/320/283 201/321/284
f 200/206/198 201/321/284 205/208/199
f 205/208/199 201/321/284 204/322/285
f 205/208/199 204/322/285 269/210/201
f 269/210/201 204/322/285 270/323/286
f 269/210/201 270/323/286 266/212/202
f 266/212/202 270/323/286 267/324/287
f 266/212/202 267/324/287 263/214/204
f 263/214/204 267/324/287 264/325/288
f 263/214/204 264/325/288 260/216/206
f 260/216/206 264/325/288 261/326/289
f 260/216/206 261/326/289 257/218/208
f 257/218/208 261/326/289 258/327/290
f 257/218/208 258/327/290 254/220/209
f 254/220/209 258/327/290 255/328/291
f 254/220/209 255/328/291 251/222/210
f 251/222/210 255/328/291 252/329/292
f 251/222/210 252/329/292 248/224/211
f 248/224/211 252/329/292 249/330/293
f 248/224/211 249/330/293 245/226/212
f 245/226/212 249/330/293 246/331/294
f 245/226/212 246/331/294 242/228/213
f 242/228/213 246/331/294 243/332/295
f 242/228/213 243/332/295 239/230/214
f 239/230/214 243/332/295 240/333/296
f 239/230/214 240/333/296 197/232/215
f 197/232/215 240/333/296 198/334/272
f 198/309/272 199/284/253 237/310/273
f 237/310/273 199/284/253 238/282/252
f 237/310/273 238/282/252 234/311/274
f 234/311/274 238/282/252 235/280/250
f 234/311/274 235/280/250 231/312/275
f 231/312/275 235/280/250 232/278/248
f 231/312/275 232/278/248 228/313/276
f 228/313/276 232/278/248 229/276/247
f 228/313/276 229/276/247 225/314/277
f 225/314/277 229/276/247 226/274/245
f 225/314/277 226/274/245 222/315/278
f 222/315/278 226/274/245 223/272/243
f 222/315/278 223/272/243 219/316/279
f 219/316/279 223/272/243 220/270/242
f 219/316/279 220/270/242 216/317/280
f 216/317/280 220/270/242 217/268/240
f 216/317/280 217/268/240 213/318/281
f 213/318/281 217/268/240 214/266/238
f 213/318/281 214/266/238 210/319/282
f 210/319/282 214/266/238 211/264/236
f 210/319/282 211/264/236 207/320/283
f 207/320/283 211/264/236 208/262/235
f 207/320/283 208/262/235 201/321/284
f 201/321/284 208/262/235 202/260/233
f 201/321/284 202/260/233 204/322/285
f 204/322/285 202/260/233 203/258/231
f 204/322/285 203/258/231 270/323/286
f 270/323/286 203/258/231 271/308/271
f 270/323/286 271/308/271 267/324/287
f 267/324/287 271/308/271 268/306/270
f 267/324/287 268/306/270 264/325/288
f 264/325/288 268/306/270 265/304/268
f 264/325/288 265/304/268 261/326/289
f 261/326/289 265/304/268 262/302/266
f 261/326/289 262/302/266 258/327/290
f 258/327/290 262/302/266 259/300/264
f 258/327/290 259/300/264 255/328/291
f 255/328/291 259/300/264 256/298/263
f 255/328/291 256/298/263 252/329/292
f 252/329/292 256/298/263 253/296/261
f 252/329/292 253/296/261 249/330/293
f 249/330/293 253/296/261 250/294/259
f 249/330/293 250/294/259 246/331/294
f 246/331/294 250/294/259 247/292/258
f 246/331/294 247/292/258 243/332/295
f 243/332/295 247/292/258 244/290/256
f 243/332/295 244/290/256 240/333/296
f 240/333/296 244/290/256 241/288/254
f 240/333/296 241/288/254 198/334/272
f 198/334/272 241/288/254 199/287/253
f 99/335/297 121/336/298 100/337/299
f 100/337/299 121/336/298 101/338/300
f 101/338/300 121/336/298 120/339/301
f 101/338/300 120/339/301 102/340/123
f 102/340/123 120/339/301 119/341/107
f 102/340/123 119/341/107 103/342/302
f 103/342/302 119/341/107 118/343/303
f 103/342/302 118/343/303 104/344/304
f 104/344/304 118/343/303 117/345/305
f 104/344/304 117/345/305 105/346/306
f 105/346/306 117/345/305 106/347/307
f 106/347/307 117/345/305 107/348/308
f 107/348/308 117/345/305 108/349/309
f 108/349/309 117/345/305 109/350/310
f 109/350/310 117/345/305 110/351/311
f 110/351/311 117/345/305 111/352/312
f 111/352/312 117/345/305 112/353/313
f 112/353/313 117/345/305 113/354/314
f 113/354/314 117/345/305 114/355/315
f 114/355/315 117/345/305 115/356/316
f 115/356/316 117/345/305 116/357/317
f 26/358/318 48/359/319 27/360/320
f 27/360/320 48/359/319 47/361/321
f 27/360/320 47/361/321 28/362/322
f 28/362/322 47/361/321 46/363/59
f 28/362/322 46/363/59 29/364/71
f 29/364/71 46/363/59 45/365/323
f 29/364/71 45/365/323 30/366/324
f 30/366/324 45/365/323 44/367/325
f 30/366/324 44/367/325 31/368/326
f 31/368/326 44/367/325 43/369/327
f 31/368/326 43/369/327 42/370/328
f 42/370/328 41/371/329 31/368/326
f 31/368/326 41/371/329 40/372/330
f 31/368/326 40/372/330 39/373/331
f 39/373/331 38/374/332 31/368/326
f 31/368/326 38/374/332 37/375/333
f 31/368/326 37/375/333 36/376/334
f 36/376/334 35/377/335 31/368/326
f 31/368/326 35/377/335 34/378/336
f 31/368/326 34/378/336 33/379/337
f 33/379/337 32/380/338 31/368/326
# 271 vertices
# 380 texture params
# 338 normals
# 538 facets

# 1 groups
