# WaveFront *.obj file (generated by Autodesk ATF)

mtllib body131_visual.mtl

g Body131

v 63.368487 -64.301622 93.399146
v 63.417985 -64.252124 93.399146
v 63.594762 -64.428901 93.399146
v 63.545264 -64.478399 93.399146
v 63.368487 -64.301622 93.329146
v 63.545264 -64.478399 93.329146
v 63.417985 -64.252124 93.329146
v 63.594762 -64.428901 93.329146
v 63.481625 -64.188485 93.279146
v 63.481625 -64.188485 93.449146
v 63.658401 -64.365262 93.449146
v 63.658401 -64.365262 93.279146
v 63.453340 -64.216769 93.239146
v 63.630117 -64.393546 93.239146
v 63.333132 -64.336977 93.239146
v 63.509909 -64.513754 93.239146
v 63.304848 -64.365262 93.279146
v 63.481625 -64.542038 93.279146
v 63.304848 -64.365262 93.449146
v 63.481625 -64.542038 93.449146
v 63.333132 -64.336977 93.489146
v 63.509909 -64.513754 93.489146
v 63.453340 -64.216769 93.489146
v 63.630117 -64.393546 93.489146
vt 0.000000 0.000000 0.000000
vt 0.070000 0.000000 0.000000
vt 0.000000 0.250000 0.000000
vt 0.070000 0.250000 0.000000
vt 0.000000 0.000000 0.000000
vt 0.070000 0.000000 0.000000
vt -0.000000 0.250000 0.000000
vt 0.070000 0.250000 0.000000
vt 0.000000 0.000000 0.000000
vt 0.070000 -0.000000 0.000000
vt 0.000000 0.250000 0.000000
vt 0.070000 0.250000 0.000000
vt 0.000000 0.000000 0.000000
vt 0.070000 -0.000000 0.000000
vt 0.000000 0.250000 0.000000
vt 0.070000 0.250000 0.000000
vt 0.000000 0.000000 0.000000
vt 0.170000 0.000000 0.000000
vt -0.000000 0.250000 0.000000
vt 0.170000 0.250000 0.000000
vt 0.000000 0.000000 0.000000
vt 0.056569 0.000000 0.000000
vt -0.000000 0.250000 0.000000
vt 0.056569 0.250000 0.000000
vt 0.000000 0.000000 0.000000
vt 0.170000 -0.000000 0.000000
vt -0.000000 0.250000 0.000000
vt 0.170000 0.250000 0.000000
vt 0.000000 0.000000 0.000000
vt 0.056569 0.000000 0.000000
vt 0.000000 0.250000 0.000000
vt 0.056569 0.250000 0.000000
vt 0.000000 0.000000 0.000000
vt 0.170000 -0.000000 0.000000
vt -0.000000 0.250000 0.000000
vt 0.170000 0.250000 0.000000
vt -0.000000 0.000000 0.000000
vt 0.056569 -0.000000 0.000000
vt 0.000000 0.250000 0.000000
vt 0.056569 0.250000 0.000000
vt 0.000000 0.000000 0.000000
vt 0.170000 0.000000 0.000000
vt -0.000000 0.250000 0.000000
vt 0.170000 0.250000 0.000000
vt 0.000000 0.000000 0.000000
vt 0.056569 -0.000000 0.000000
vt 0.000000 0.250000 0.000000
vt 0.056569 0.250000 0.000000
vt 0.035000 0.035000 0.000000
vt -0.085000 0.125000 0.000000
vt -0.035000 0.035000 0.000000
vt -0.125000 0.085000 0.000000
vt -0.125000 -0.085000 0.000000
vt 0.035000 -0.035000 0.000000
vt 0.125000 -0.085000 0.000000
vt 0.125000 0.085000 0.000000
vt 0.085000 0.125000 0.000000
vt 0.085000 -0.125000 0.000000
vt -0.035000 -0.035000 0.000000
vt -0.085000 -0.125000 0.000000
vt 0.035000 0.035000 0.000000
vt -0.085000 0.125000 0.000000
vt -0.035000 0.035000 0.000000
vt -0.125000 0.085000 0.000000
vt -0.125000 -0.085000 0.000000
vt 0.035000 -0.035000 0.000000
vt 0.125000 -0.085000 0.000000
vt 0.125000 0.085000 0.000000
vt 0.085000 0.125000 0.000000
vt 0.085000 -0.125000 0.000000
vt -0.035000 -0.035000 0.000000
vt -0.085000 -0.125000 0.000000
vn 0.000000 -0.000000 -1.000000
vn 0.000000 -0.000000 -1.000000
vn 0.000000 -0.000000 -1.000000
vn 0.000000 -0.000000 -1.000000
vn 0.707107 0.707107 -0.000000
vn 0.707107 0.707107 -0.000000
vn 0.707107 0.707107 -0.000000
vn 0.707107 0.707107 -0.000000
vn -0.000000 0.000000 1.000000
vn -0.000000 0.000000 1.000000
vn -0.000000 0.000000 1.000000
vn -0.000000 0.000000 1.000000
vn -0.707107 -0.707107 0.000000
vn -0.707107 -0.707107 0.000000
vn -0.707107 -0.707107 0.000000
vn -0.707107 -0.707107 0.000000
vn 0.707107 0.707107 -0.000000
vn 0.707107 0.707107 -0.000000
vn 0.707107 0.707107 -0.000000
vn 0.707107 0.707107 -0.000000
vn 0.500000 0.500000 -0.707107
vn 0.500000 0.500000 -0.707107
vn 0.500000 0.500000 -0.707107
vn 0.500000 0.500000 -0.707107
vn 0.000000 -0.000000 -1.000000
vn 0.000000 -0.000000 -1.000000
vn 0.000000 -0.000000 -1.000000
vn 0.000000 -0.000000 -1.000000
vn -0.500000 -0.500000 -0.707107
vn -0.500000 -0.500000 -0.707107
vn -0.500000 -0.500000 -0.707107
vn -0.500000 -0.500000 -0.707107
vn -0.707107 -0.707107 0.000000
vn -0.707107 -0.707107 0.000000
vn -0.707107 -0.707107 0.000000
vn -0.707107 -0.707107 0.000000
vn -0.500000 -0.500000 0.707107
vn -0.500000 -0.500000 0.707107
vn -0.500000 -0.500000 0.707107
vn -0.500000 -0.500000 0.707107
vn -0.000000 0.000000 1.000000
vn -0.000000 0.000000 1.000000
vn -0.000000 0.000000 1.000000
vn -0.000000 0.000000 1.000000
vn 0.500000 0.500000 0.707107
vn 0.500000 0.500000 0.707107
vn 0.500000 0.500000 0.707107
vn 0.500000 0.500000 0.707107
vn 0.707107 -0.707107 0.000000
vn 0.707107 -0.707107 0.000000
vn 0.707107 -0.707107 0.000000
vn 0.707107 -0.707107 0.000000
vn 0.707107 -0.707107 0.000000
vn 0.707107 -0.707107 0.000000
vn 0.707107 -0.707107 0.000000
vn 0.707107 -0.707107 0.000000
vn 0.707107 -0.707107 0.000000
vn 0.707107 -0.707107 0.000000
vn 0.707107 -0.707107 0.000000
vn 0.707107 -0.707107 0.000000
vn -0.707107 0.707107 -0.000000
vn -0.707107 0.707107 -0.000000
vn -0.707107 0.707107 -0.000000
vn -0.707107 0.707107 -0.000000
vn -0.707107 0.707107 -0.000000
vn -0.707107 0.707107 -0.000000
vn -0.707107 0.707107 -0.000000
vn -0.707107 0.707107 -0.000000
vn -0.707107 0.707107 -0.000000
vn -0.707107 0.707107 -0.000000
vn -0.707107 0.707107 -0.000000
vn -0.707107 0.707107 -0.000000
usemtl Polycarbonate_(Clear)
f 1/1/1 2/2/2 4/3/3
f 4/3/3 2/2/2 3/4/4
f 5/5/5 1/6/6 6/7/7
f 6/7/7 1/6/6 4/8/8
f 7/9/9 5/10/10 8/11/11
f 8/11/11 5/10/10 6/12/12
f 2/13/13 7/14/14 3/15/15
f 3/15/15 7/14/14 8/16/16
f 9/17/17 10/18/18 12/19/19
f 12/19/19 10/18/18 11/20/20
f 13/21/21 9/22/22 14/23/23
f 14/23/23 9/22/22 12/24/24
f 15/25/25 13/26/26 16/27/27
f 16/27/27 13/26/26 14/28/28
f 17/29/29 15/30/30 18/31/31
f 18/31/31 15/30/30 16/32/32
f 19/33/33 17/34/34 20/35/35
f 20/35/35 17/34/34 18/36/36
f 21/37/37 19/38/38 22/39/39
f 22/39/39 19/38/38 20/40/40
f 23/41/41 21/42/42 24/43/43
f 24/43/43 21/42/42 22/44/44
f 10/45/45 23/46/46 11/47/47
f 11/47/47 23/46/46 24/48/48
f 8/49/49 11/50/50 3/51/51
f 3/51/51 11/50/50 24/52/52
f 3/51/51 24/52/52 22/53/53
f 6/54/54 16/55/55 8/49/49
f 8/49/49 16/55/55 14/56/56
f 8/49/49 14/56/56 12/57/57
f 16/55/55 6/54/54 18/58/58
f 18/58/58 6/54/54 4/59/59
f 18/58/58 4/59/59 20/60/60
f 20/60/60 4/59/59 22/53/53
f 22/53/53 4/59/59 3/51/51
f 12/57/57 11/50/50 8/49/49
f 2/61/61 9/62/62 7/63/63
f 7/63/63 9/62/62 13/64/64
f 7/63/63 13/64/64 15/65/65
f 1/66/66 21/67/67 2/61/61
f 2/61/61 21/67/67 23/68/68
f 2/61/61 23/68/68 10/69/69
f 21/67/67 1/66/66 19/70/70
f 19/70/70 1/66/66 5/71/71
f 19/70/70 5/71/71 17/72/72
f 17/72/72 5/71/71 15/65/65
f 15/65/65 5/71/71 7/63/63
f 10/69/69 9/62/62 2/61/61
# 24 vertices
# 72 texture params
# 72 normals
# 48 facets

# 1 groups
