# WaveFront *.obj file (generated by Autodesk ATF)

mtllib body12_visual.mtl

g Body12

v 64.399696 -64.022510 96.256164
v 64.470406 -64.093220 96.256164
v 64.470406 -64.093220 96.185664
v 64.399696 -64.022510 96.185664
v 64.433637 -64.129990 96.185664
v 64.433637 -64.129990 96.256164
v 64.362926 -64.059279 96.256164
v 64.362926 -64.059279 96.185664
v 64.391045 -64.015070 96.185664
v 64.381377 -64.009009 96.185664
v 64.370911 -64.004464 96.185664
v 64.359883 -64.001537 96.185664
v 64.348541 -64.000294 96.185664
v 64.348541 -64.000294 96.256164
v 64.359883 -64.001537 96.256164
v 64.370911 -64.004464 96.256164
v 64.381377 -64.009009 96.256164
v 64.391045 -64.015070 96.256164
v 64.358191 -64.055603 96.256164
v 64.352691 -64.053214 96.256164
v 64.346772 -64.052264 96.256164
v 64.346772 -64.052264 96.185664
v 64.352691 -64.053214 96.185664
v 64.358191 -64.055603 96.185664
v 64.147856 -63.993463 96.256164
v 64.147856 -63.993463 96.185664
v 64.146087 -64.045433 96.256164
v 64.146087 -64.045433 96.185664
v 64.134745 -64.044189 96.256164
v 64.123717 -64.041262 96.256164
v 64.113251 -64.036717 96.256164
v 64.103584 -64.030656 96.256164
v 64.094933 -64.023217 96.256164
v 64.094933 -64.023217 96.185664
v 64.103584 -64.030656 96.185664
v 64.113251 -64.036717 96.185664
v 64.123717 -64.041262 96.185664
v 64.134745 -64.044189 96.185664
v 63.796180 -63.724464 96.256164
v 63.796180 -63.724464 96.185664
v 63.832950 -63.687695 96.185664
v 64.131702 -63.986447 96.185664
v 64.136438 -63.990124 96.185664
v 64.141937 -63.992512 96.185664
v 64.131702 -63.986447 96.256164
v 64.136438 -63.990124 96.256164
v 64.141937 -63.992512 96.256164
v 63.832950 -63.687695 96.256164
vt -0.100000 -0.000000 0.000000
vt -0.000000 0.000000 0.000000
vt -0.100000 0.070500 0.000000
vt -0.000000 0.070500 0.000000
vt 1.045250 -0.105000 0.000000
vt 0.974750 -0.105000 0.000000
vt 1.045250 -0.157000 0.000000
vt 0.974750 -0.157000 0.000000
vt 0.070500 -0.000000 0.000000
vt -0.000000 0.000000 0.000000
vt 0.070500 -0.100000 0.000000
vt -0.000000 -0.100000 0.000000
vt -0.035250 -0.238761 0.000000
vt 0.035250 -0.238761 0.000000
vt -0.035250 -0.227340 0.000000
vt 0.035250 -0.227340 0.000000
vt 0.035250 -0.215919 0.000000
vt -0.035250 -0.215919 0.000000
vt 0.035250 -0.204498 0.000000
vt -0.035250 -0.204498 0.000000
vt 0.035250 -0.193078 0.000000
vt -0.035250 -0.193078 0.000000
vt -0.035250 -0.181657 0.000000
vt 0.035250 -0.181657 0.000000
vt -0.035250 -0.075398 0.000000
vt 0.035250 -0.075398 0.000000
vt -0.035250 -0.069387 0.000000
vt 0.035250 -0.069387 0.000000
vt -0.035250 -0.063376 0.000000
vt 0.035250 -0.063376 0.000000
vt -0.035250 -0.057365 0.000000
vt 0.035250 -0.057365 0.000000
vt -0.000000 0.000000 0.000000
vt -0.070500 0.000000 0.000000
vt 0.000000 -0.200801 0.000000
vt -0.070500 -0.200801 0.000000
vt -0.000000 0.000000 0.000000
vt -0.200801 0.000000 0.000000
vt -0.000000 -0.070500 0.000000
vt -0.200801 -0.070500 0.000000
vt -0.035250 0.181657 0.000000
vt 0.035250 0.181657 0.000000
vt -0.035250 0.193078 0.000000
vt 0.035250 0.193078 0.000000
vt 0.035250 0.204498 0.000000
vt -0.035250 0.204498 0.000000
vt 0.035250 0.215919 0.000000
vt -0.035250 0.215919 0.000000
vt 0.035250 0.227340 0.000000
vt -0.035250 0.227340 0.000000
vt -0.035250 0.238761 0.000000
vt 0.035250 0.238761 0.000000
vt 0.070500 -0.000000 0.000000
vt -0.000000 0.000000 0.000000
vt 0.070500 -0.422500 0.000000
vt -0.000000 -0.422500 0.000000
vt -0.052000 -0.422500 0.000000
vt -0.000000 -0.422500 0.000000
vt -0.052000 0.000000 0.000000
vt -0.000000 0.000000 0.000000
vt -0.038678 0.042982 0.000000
vt -0.031537 0.051881 0.000000
vt 0.000749 0.005948 0.000000
vt 0.002949 0.011525 0.000000
vt 0.006462 0.016383 0.000000
vt 0.105538 0.198617 0.000000
vt 0.143537 0.163119 0.000000
vt 0.109051 0.203475 0.000000
vt 0.111251 0.209052 0.000000
vt 0.112000 0.215000 0.000000
vt 0.150678 0.172018 0.000000
vt 0.112000 0.315000 0.000000
vt 0.164000 0.215000 0.000000
vt 0.164000 0.315000 0.000000
vt 0.156407 0.181886 0.000000
vt 0.160593 0.192501 0.000000
vt 0.163143 0.203622 0.000000
vt -0.044407 0.033114 0.000000
vt -0.048593 0.022499 0.000000
vt -0.051143 0.011378 0.000000
vt 0.035250 -0.075398 0.000000
vt -0.035250 -0.075398 0.000000
vt 0.035250 -0.081409 0.000000
vt -0.035250 -0.081409 0.000000
vt 0.035250 -0.087420 0.000000
vt -0.035250 -0.087420 0.000000
vt 0.035250 -0.093431 0.000000
vt -0.035250 -0.093431 0.000000
vt 0.422500 0.052000 0.000000
vt -0.000000 0.052000 0.000000
vt 0.422500 0.000000 0.000000
vt -0.000000 0.000000 0.000000
vt -0.042982 0.038678 0.000000
vt -0.051881 0.031537 0.000000
vt -0.011378 0.051143 0.000000
vt -0.022499 0.048593 0.000000
vt -0.033114 0.044407 0.000000
vt -0.198617 -0.105538 0.000000
vt -0.016383 -0.006462 0.000000
vt -0.011525 -0.002949 0.000000
vt -0.005948 -0.000749 0.000000
vt -0.163119 -0.143537 0.000000
vt -0.203475 -0.109051 0.000000
vt -0.209052 -0.111251 0.000000
vt -0.215000 -0.112000 0.000000
vt -0.172018 -0.150678 0.000000
vt -0.215000 -0.164000 0.000000
vt -0.181886 -0.156407 0.000000
vt -0.192501 -0.160593 0.000000
vt -0.203622 -0.163143 0.000000
vt -0.315000 -0.112000 0.000000
vt -0.315000 -0.164000 0.000000
vt -0.974750 -0.105000 0.000000
vt -1.045250 -0.105000 0.000000
vt -0.974750 -0.157000 0.000000
vt -1.045250 -0.157000 0.000000
vt -0.422500 -0.000000 0.000000
vt -0.000000 0.000000 0.000000
vt -0.422500 0.070500 0.000000
vt -0.000000 0.070500 0.000000
vn 0.707107 0.707107 -0.000000
vn 0.707107 0.707107 -0.000000
vn 0.707107 0.707107 -0.000000
vn 0.707107 0.707107 -0.000000
vn 0.707107 -0.707107 0.000000
vn 0.707107 -0.707107 0.000000
vn 0.707107 -0.707107 0.000000
vn 0.707107 -0.707107 0.000000
vn -0.707107 -0.707107 0.000000
vn -0.707107 -0.707107 0.000000
vn -0.707107 -0.707107 0.000000
vn -0.707107 -0.707107 0.000000
vn 0.593277 0.804998 -0.000000
vn 0.593277 0.804998 -0.000000
vn 0.466075 0.884745 -0.000000
vn 0.466075 0.884745 -0.000000
vn 0.328367 0.944550 -0.000000
vn 0.328367 0.944550 -0.000000
vn 0.183258 0.983065 -0.000000
vn 0.183258 0.983065 -0.000000
vn 0.034019 0.999421 -0.000000
vn 0.034019 0.999421 -0.000000
vn -0.509790 -0.860299 0.000000
vn -0.509790 -0.860299 0.000000
vn -0.280661 -0.959807 0.000000
vn -0.280661 -0.959807 0.000000
vn -0.034019 -0.999421 0.000000
vn -0.034019 -0.999421 0.000000
vn 0.034019 0.999421 -0.000000
vn 0.034019 0.999421 -0.000000
vn 0.034019 0.999421 -0.000000
vn -0.034019 -0.999421 0.000000
vn -0.034019 -0.999421 0.000000
vn -0.183258 -0.983065 0.000000
vn -0.183258 -0.983065 0.000000
vn -0.328367 -0.944550 0.000000
vn -0.328367 -0.944550 0.000000
vn -0.466075 -0.884745 0.000000
vn -0.466075 -0.884745 0.000000
vn -0.593277 -0.804998 0.000000
vn -0.593277 -0.804998 0.000000
vn -0.707107 -0.707107 0.000000
vn -0.707107 -0.707107 0.000000
vn -0.707107 -0.707107 0.000000
vn -0.707107 -0.707107 0.000000
vn 0.000000 -0.000000 -1.000000
vn 0.000000 -0.000000 -1.000000
vn 0.000000 -0.000000 -1.000000
vn 0.000000 -0.000000 -1.000000
vn 0.000000 -0.000000 -1.000000
vn 0.000000 -0.000000 -1.000000
vn 0.000000 -0.000000 -1.000000
vn 0.000000 -0.000000 -1.000000
vn 0.000000 -0.000000 -1.000000
vn 0.000000 -0.000000 -1.000000
vn 0.000000 -0.000000 -1.000000
vn 0.000000 -0.000000 -1.000000
vn 0.000000 -0.000000 -1.000000
vn 0.000000 -0.000000 -1.000000
vn 0.000000 -0.000000 -1.000000
vn 0.000000 -0.000000 -1.000000
vn 0.000000 -0.000000 -1.000000
vn 0.000000 -0.000000 -1.000000
vn 0.000000 -0.000000 -1.000000
vn 0.000000 -0.000000 -1.000000
vn 0.000000 -0.000000 -1.000000
vn 0.000000 -0.000000 -1.000000
vn 0.000000 -0.000000 -1.000000
vn 0.000000 -0.000000 -1.000000
vn 0.707107 0.707107 -0.000000
vn 0.707107 0.707107 -0.000000
vn 0.509790 0.860299 -0.000000
vn 0.509790 0.860299 -0.000000
vn 0.280661 0.959807 -0.000000
vn 0.280661 0.959807 -0.000000
vn -0.000000 0.000000 1.000000
vn -0.000000 0.000000 1.000000
vn -0.000000 0.000000 1.000000
vn -0.000000 0.000000 1.000000
vn -0.000000 0.000000 1.000000
vn -0.000000 0.000000 1.000000
vn -0.000000 0.000000 1.000000
vn -0.000000 0.000000 1.000000
vn -0.000000 0.000000 1.000000
vn -0.000000 0.000000 1.000000
vn -0.000000 0.000000 1.000000
vn -0.000000 0.000000 1.000000
vn -0.000000 0.000000 1.000000
vn -0.000000 0.000000 1.000000
vn -0.000000 0.000000 1.000000
vn -0.000000 0.000000 1.000000
vn -0.000000 0.000000 1.000000
vn -0.000000 0.000000 1.000000
vn -0.000000 0.000000 1.000000
vn -0.000000 0.000000 1.000000
vn -0.000000 0.000000 1.000000
vn -0.000000 0.000000 1.000000
vn -0.000000 0.000000 1.000000
vn -0.000000 0.000000 1.000000
vn -0.707107 0.707107 -0.000000
vn -0.707107 0.707107 -0.000000
vn -0.707107 0.707107 -0.000000
vn -0.707107 0.707107 -0.000000
vn 0.707107 0.707107 -0.000000
vn 0.707107 0.707107 -0.000000
vn 0.707107 0.707107 -0.000000
vn 0.707107 0.707107 -0.000000
usemtl Opaque(202,209,238)
f 1/1/1 2/2/2 4/3/3
f 4/3/3 2/2/2 3/4/4
f 3/5/5 2/6/6 5/7/7
f 5/7/7 2/6/6 6/8/8
f 5/9/9 6/10/10 8/11/11
f 8/11/11 6/10/10 7/12/12
f 1/13/1 4/14/3 18/15/13
f 18/15/13 4/14/3 9/16/14
f 18/15/13 9/16/14 10/17/15
f 18/15/13 10/17/15 17/18/16
f 17/18/16 10/17/15 11/19/17
f 17/18/16 11/19/17 16/20/18
f 16/20/18 11/19/17 12/21/19
f 16/20/18 12/21/19 15/22/20
f 15/22/20 12/21/19 14/23/21
f 14/23/21 12/21/19 13/24/22
f 8/25/11 7/26/12 24/27/23
f 24/27/23 7/26/12 19/28/24
f 24/27/23 19/28/24 23/29/25
f 23/29/25 19/28/24 20/30/26
f 23/29/25 20/30/26 22/31/27
f 22/31/27 20/30/26 21/32/28
f 14/33/21 13/34/29 25/35/30
f 25/35/30 13/34/29 26/36/31
f 21/37/28 27/38/32 22/39/27
f 22/39/27 27/38/32 28/40/33
f 28/41/33 27/42/32 38/43/34
f 38/43/34 27/42/32 29/44/35
f 38/43/34 29/44/35 30/45/36
f 38/43/34 30/45/36 37/46/37
f 37/46/37 30/45/36 31/47/38
f 37/46/37 31/47/38 36/48/39
f 36/48/39 31/47/38 32/49/40
f 36/48/39 32/49/40 35/50/41
f 35/50/41 32/49/40 34/51/42
f 34/51/42 32/49/40 33/52/43
f 34/53/42 33/54/43 40/55/44
f 40/55/44 33/54/43 39/56/45
f 40/57/46 41/58/47 34/59/48
f 34/59/48 41/58/47 42/60/49
f 34/59/48 42/60/49 38/61/50
f 38/61/50 42/60/49 28/62/51
f 28/62/51 42/60/49 43/63/52
f 28/62/51 43/63/52 44/64/53
f 44/64/53 26/65/54 28/62/51
f 28/62/51 26/65/54 22/66/55
f 22/66/55 26/65/54 13/67/56
f 22/66/55 13/67/56 23/68/57
f 23/68/57 13/67/56 24/69/58
f 24/69/58 13/67/56 8/70/59
f 8/70/59 13/67/56 12/71/60
f 8/70/59 12/71/60 5/72/61
f 5/72/61 12/71/60 4/73/62
f 5/72/61 4/73/62 3/74/63
f 12/71/60 11/75/64 4/73/62
f 4/73/62 11/75/64 10/76/65
f 4/73/62 10/76/65 9/77/66
f 38/61/50 37/78/67 34/59/48
f 34/59/48 37/78/67 36/79/68
f 34/59/48 36/79/68 35/80/69
f 42/81/70 45/82/71 43/83/72
f 43/83/72 45/82/71 46/84/73
f 43/83/72 46/84/73 44/85/74
f 44/85/74 46/84/73 47/86/75
f 44/85/74 47/86/75 26/87/31
f 26/87/31 47/86/75 25/88/30
f 39/89/76 33/90/77 48/91/78
f 48/91/78 33/90/77 45/92/79
f 45/92/79 33/90/77 29/93/80
f 45/92/79 29/93/80 27/94/81
f 32/95/82 31/96/83 33/90/77
f 33/90/77 31/96/83 30/97/84
f 33/90/77 30/97/84 29/93/80
f 21/98/85 25/99/86 27/94/81
f 27/94/81 25/99/86 47/100/87
f 27/94/81 47/100/87 46/101/88
f 25/99/86 21/98/85 14/102/89
f 14/102/89 21/98/85 20/103/90
f 14/102/89 20/103/90 19/104/91
f 19/104/91 7/105/92 14/102/89
f 14/102/89 7/105/92 15/106/93
f 15/106/93 7/105/92 1/107/94
f 15/106/93 1/107/94 16/108/95
f 16/108/95 1/107/94 17/109/96
f 17/109/96 1/107/94 18/110/97
f 6/111/98 2/112/99 7/105/92
f 7/105/92 2/112/99 1/107/94
f 46/101/88 45/92/79 27/94/81
f 48/113/100 41/114/101 39/115/102
f 39/115/102 41/114/101 40/116/103
f 48/117/104 45/118/105 41/119/106
f 41/119/106 45/118/105 42/120/107
# 48 vertices
# 120 texture params
# 107 normals
# 92 facets

# 1 groups
