# WaveFront *.obj file (generated by Autodesk ATF)

mtllib body137_visual.mtl

g Body137

v 63.230602 -64.156665 93.394146
v 63.230602 -64.156665 93.334146
v 63.230602 -64.163736 93.329146
v 63.230602 -64.163736 93.399146
v 63.273028 -64.114239 93.334146
v 63.280099 -64.114239 93.329146
v 63.273028 -64.114239 93.394146
v 63.280099 -64.114239 93.399146
v 63.930637 -64.863772 93.399146
v 63.980135 -64.814274 93.399146
v 63.930637 -64.863772 93.329146
v 63.980135 -64.821345 93.394146
v 63.980135 -64.821345 93.334146
v 63.980135 -64.814274 93.329146
v 63.937708 -64.863772 93.334146
v 63.937708 -64.863772 93.394146
vt 0.012500 0.003536 0.000000
vt -0.047500 0.003536 0.000000
vt 0.017500 -0.003536 0.000000
vt -0.052500 -0.003536 0.000000
vt 0.003536 -0.012500 0.000000
vt 0.003536 0.047500 0.000000
vt -0.003536 -0.017500 0.000000
vt -0.003536 0.052500 0.000000
vt -0.012500 -0.003536 0.000000
vt 0.047500 -0.003536 0.000000
vt -0.017500 0.003536 0.000000
vt 0.052500 0.003536 0.000000
vt 0.003536 0.017500 0.000000
vt -0.003536 0.012500 0.000000
vt 0.003536 -0.052500 0.000000
vt -0.003536 -0.047500 0.000000
vt -0.000000 -0.195000 0.000000
vt 0.070000 -0.195000 0.000000
vt 0.000000 0.795000 0.000000
vt 0.070000 0.795000 0.000000
vt -0.000000 -0.195000 0.000000
vt 0.070000 -0.195000 0.000000
vt 0.000000 0.795000 0.000000
vt 0.070000 0.795000 0.000000
vt -0.030000 -0.030000 0.000000
vt 0.030000 -0.030000 0.000000
vt -0.030000 0.030000 0.000000
vt 0.030000 0.030000 0.000000
vt -0.047500 -0.003536 0.000000
vt 0.012500 -0.003536 0.000000
vt -0.052500 0.003536 0.000000
vt 0.017500 0.003536 0.000000
vt -0.003536 -0.012500 0.000000
vt 0.003536 -0.017500 0.000000
vt -0.003536 0.047500 0.000000
vt 0.003536 0.052500 0.000000
vt 0.047500 0.003536 0.000000
vt -0.012500 0.003536 0.000000
vt 0.052500 -0.003536 0.000000
vt -0.017500 -0.003536 0.000000
vt -0.003536 0.017500 0.000000
vt -0.003536 -0.052500 0.000000
vt 0.003536 0.012500 0.000000
vt 0.003536 -0.047500 0.000000
vt 0.000000 -0.195000 0.000000
vt 0.070000 -0.195000 0.000000
vt -0.000000 0.795000 0.000000
vt 0.070000 0.795000 0.000000
vt 0.030000 0.030000 0.000000
vt -0.030000 0.030000 0.000000
vt 0.030000 -0.030000 0.000000
vt -0.030000 -0.030000 0.000000
vt -0.000000 -0.195000 0.000000
vt 0.070000 -0.195000 0.000000
vt 0.000000 0.795000 0.000000
vt 0.070000 0.795000 0.000000
vn -1.000000 0.000000 -0.000000
vn -1.000000 0.000000 -0.000000
vn -1.000000 0.000000 -0.000000
vn -1.000000 0.000000 -0.000000
vn -0.500000 0.500000 -0.707107
vn -0.500000 0.500000 -0.707107
vn -0.500000 0.500000 -0.707107
vn -0.500000 0.500000 -0.707107
vn 0.000000 1.000000 -0.000000
vn 0.000000 1.000000 -0.000000
vn 0.000000 1.000000 -0.000000
vn 0.000000 1.000000 -0.000000
vn -0.500000 0.500000 0.707107
vn -0.500000 0.500000 0.707107
vn -0.500000 0.500000 0.707107
vn -0.500000 0.500000 0.707107
vn -0.000000 0.000000 1.000000
vn -0.000000 0.000000 1.000000
vn -0.000000 0.000000 1.000000
vn -0.000000 0.000000 1.000000
vn -0.707107 -0.707107 0.000000
vn -0.707107 -0.707107 0.000000
vn -0.707107 -0.707107 0.000000
vn -0.707107 -0.707107 0.000000
vn -0.707107 0.707107 -0.000000
vn -0.707107 0.707107 -0.000000
vn -0.707107 0.707107 -0.000000
vn -0.707107 0.707107 -0.000000
vn 1.000000 -0.000000 0.000000
vn 1.000000 -0.000000 0.000000
vn 1.000000 -0.000000 0.000000
vn 1.000000 -0.000000 0.000000
vn 0.500000 -0.500000 -0.707107
vn 0.500000 -0.500000 -0.707107
vn 0.500000 -0.500000 -0.707107
vn 0.500000 -0.500000 -0.707107
vn -0.000000 -1.000000 0.000000
vn -0.000000 -1.000000 0.000000
vn -0.000000 -1.000000 0.000000
vn -0.000000 -1.000000 0.000000
vn 0.500000 -0.500000 0.707107
vn 0.500000 -0.500000 0.707107
vn 0.500000 -0.500000 0.707107
vn 0.500000 -0.500000 0.707107
vn 0.707107 0.707107 -0.000000
vn 0.707107 0.707107 -0.000000
vn 0.707107 0.707107 -0.000000
vn 0.707107 0.707107 -0.000000
vn 0.707107 -0.707107 0.000000
vn 0.707107 -0.707107 0.000000
vn 0.707107 -0.707107 0.000000
vn 0.707107 -0.707107 0.000000
vn 0.000000 -0.000000 -1.000000
vn 0.000000 -0.000000 -1.000000
vn 0.000000 -0.000000 -1.000000
vn 0.000000 -0.000000 -1.000000
usemtl Polycarbonate_(Clear)
f 1/1/1 2/2/2 4/3/3
f 4/3/3 2/2/2 3/4/4
f 2/5/5 5/6/6 3/7/7
f 3/7/7 5/6/6 6/8/8
f 5/9/9 7/10/10 6/11/11
f 6/11/11 7/10/10 8/12/12
f 8/13/13 7/14/14 4/15/15
f 4/15/15 7/14/14 1/16/16
f 8/17/17 4/18/18 10/19/19
f 10/19/19 4/18/18 9/20/20
f 4/21/21 3/22/22 9/23/23
f 9/23/23 3/22/22 11/24/24
f 2/25/25 1/26/26 5/27/27
f 5/27/27 1/26/26 7/28/28
f 12/29/29 13/30/30 10/31/31
f 10/31/31 13/30/30 14/32/32
f 15/33/33 11/34/34 13/35/35
f 13/35/35 11/34/34 14/36/36
f 15/37/37 16/38/38 11/39/39
f 11/39/39 16/38/38 9/40/40
f 10/41/41 9/42/42 12/43/43
f 12/43/43 9/42/42 16/44/44
f 6/45/45 8/46/46 14/47/47
f 14/47/47 8/46/46 10/48/48
f 13/49/49 12/50/50 15/51/51
f 15/51/51 12/50/50 16/52/52
f 3/53/53 6/54/54 11/55/55
f 11/55/55 6/54/54 14/56/56
# 16 vertices
# 56 texture params
# 56 normals
# 28 facets

# 1 groups
