# WaveFront *.obj file (generated by Autodesk ATF)

mtllib body128_visual.mtl

g Body128

v 62.879170 -64.790940 93.653146
v 62.879170 -64.790940 93.583146
v 63.055946 -64.967717 93.583146
v 63.055946 -64.967717 93.653146
v 62.829672 -64.840437 93.653146
v 63.006449 -65.017214 93.653146
v 62.829672 -64.840437 93.583146
v 63.006449 -65.017214 93.583146
v 62.942809 -64.727300 93.533146
v 62.942809 -64.727300 93.703146
v 63.119586 -64.904077 93.703146
v 63.119586 -64.904077 93.533146
v 62.914525 -64.755585 93.493146
v 63.091302 -64.932361 93.493146
v 62.794317 -64.875793 93.493146
v 62.971093 -65.052569 93.493146
v 62.766032 -64.904077 93.533146
v 62.942809 -65.080854 93.533146
v 62.766032 -64.904077 93.703146
v 62.942809 -65.080854 93.703146
v 62.794317 -64.875793 93.743146
v 62.971093 -65.052569 93.743146
v 62.914525 -64.755585 93.743146
v 63.091302 -64.932361 93.743146
vt 0.000000 0.000000 0.000000
vt 0.070000 -0.000000 0.000000
vt 0.000000 0.250000 0.000000
vt 0.070000 0.250000 0.000000
vt 0.000000 0.000000 0.000000
vt 0.070000 0.000000 0.000000
vt 0.000000 0.250000 0.000000
vt 0.070000 0.250000 0.000000
vt 0.000000 0.000000 0.000000
vt 0.070000 0.000000 0.000000
vt 0.000000 0.250000 0.000000
vt 0.070000 0.250000 0.000000
vt 0.000000 0.000000 0.000000
vt 0.070000 -0.000000 0.000000
vt -0.000000 0.250000 0.000000
vt 0.070000 0.250000 0.000000
vt 0.000000 0.000000 0.000000
vt 0.170000 0.000000 0.000000
vt -0.000000 0.250000 0.000000
vt 0.170000 0.250000 0.000000
vt 0.000000 0.000000 0.000000
vt 0.056569 0.000000 0.000000
vt -0.000000 0.250000 0.000000
vt 0.056569 0.250000 0.000000
vt 0.000000 0.000000 0.000000
vt 0.170000 -0.000000 0.000000
vt 0.000000 0.250000 0.000000
vt 0.170000 0.250000 0.000000
vt 0.000000 0.000000 0.000000
vt 0.056569 -0.000000 0.000000
vt 0.000000 0.250000 0.000000
vt 0.056569 0.250000 0.000000
vt 0.000000 0.000000 0.000000
vt 0.170000 -0.000000 0.000000
vt 0.000000 0.250000 0.000000
vt 0.170000 0.250000 0.000000
vt -0.000000 0.000000 0.000000
vt 0.056569 0.000000 0.000000
vt 0.000000 0.250000 0.000000
vt 0.056569 0.250000 0.000000
vt 0.000000 0.000000 0.000000
vt 0.170000 -0.000000 0.000000
vt -0.000000 0.250000 0.000000
vt 0.170000 0.250000 0.000000
vt 0.000000 0.000000 0.000000
vt 0.056569 -0.000000 0.000000
vt 0.000000 0.250000 0.000000
vt 0.056569 0.250000 0.000000
vt 0.035000 -0.035000 0.000000
vt 0.125000 -0.085000 0.000000
vt 0.035000 0.035000 0.000000
vt 0.125000 0.085000 0.000000
vt 0.085000 0.125000 0.000000
vt 0.085000 -0.125000 0.000000
vt -0.035000 -0.035000 0.000000
vt -0.085000 -0.125000 0.000000
vt -0.125000 -0.085000 0.000000
vt -0.035000 0.035000 0.000000
vt -0.125000 0.085000 0.000000
vt -0.085000 0.125000 0.000000
vt -0.035000 0.035000 0.000000
vt -0.125000 -0.085000 0.000000
vt -0.035000 -0.035000 0.000000
vt -0.085000 -0.125000 0.000000
vt 0.085000 -0.125000 0.000000
vt 0.035000 0.035000 0.000000
vt -0.085000 0.125000 0.000000
vt -0.125000 0.085000 0.000000
vt 0.035000 -0.035000 0.000000
vt 0.125000 -0.085000 0.000000
vt 0.125000 0.085000 0.000000
vt 0.085000 0.125000 0.000000
vn -0.707107 -0.707107 0.000000
vn -0.707107 -0.707107 0.000000
vn -0.707107 -0.707107 0.000000
vn -0.707107 -0.707107 0.000000
vn 0.000000 -0.000000 -1.000000
vn 0.000000 -0.000000 -1.000000
vn 0.000000 -0.000000 -1.000000
vn 0.000000 -0.000000 -1.000000
vn 0.707107 0.707107 -0.000000
vn 0.707107 0.707107 -0.000000
vn 0.707107 0.707107 -0.000000
vn 0.707107 0.707107 -0.000000
vn -0.000000 0.000000 1.000000
vn -0.000000 0.000000 1.000000
vn -0.000000 0.000000 1.000000
vn -0.000000 0.000000 1.000000
vn 0.707107 0.707107 -0.000000
vn 0.707107 0.707107 -0.000000
vn 0.707107 0.707107 -0.000000
vn 0.707107 0.707107 -0.000000
vn 0.500000 0.500000 -0.707107
vn 0.500000 0.500000 -0.707107
vn 0.500000 0.500000 -0.707107
vn 0.500000 0.500000 -0.707107
vn 0.000000 -0.000000 -1.000000
vn 0.000000 -0.000000 -1.000000
vn 0.000000 -0.000000 -1.000000
vn 0.000000 -0.000000 -1.000000
vn -0.500000 -0.500000 -0.707107
vn -0.500000 -0.500000 -0.707107
vn -0.500000 -0.500000 -0.707107
vn -0.500000 -0.500000 -0.707107
vn -0.707107 -0.707107 0.000000
vn -0.707107 -0.707107 0.000000
vn -0.707107 -0.707107 0.000000
vn -0.707107 -0.707107 0.000000
vn -0.500000 -0.500000 0.707107
vn -0.500000 -0.500000 0.707107
vn -0.500000 -0.500000 0.707107
vn -0.500000 -0.500000 0.707107
vn -0.000000 0.000000 1.000000
vn -0.000000 0.000000 1.000000
vn -0.000000 0.000000 1.000000
vn -0.000000 0.000000 1.000000
vn 0.500000 0.500000 0.707107
vn 0.500000 0.500000 0.707107
vn 0.500000 0.500000 0.707107
vn 0.500000 0.500000 0.707107
vn 0.707107 -0.707107 0.000000
vn 0.707107 -0.707107 0.000000
vn 0.707107 -0.707107 0.000000
vn 0.707107 -0.707107 0.000000
vn 0.707107 -0.707107 0.000000
vn 0.707107 -0.707107 0.000000
vn 0.707107 -0.707107 0.000000
vn 0.707107 -0.707107 0.000000
vn 0.707107 -0.707107 0.000000
vn 0.707107 -0.707107 0.000000
vn 0.707107 -0.707107 0.000000
vn 0.707107 -0.707107 0.000000
vn -0.707107 0.707107 -0.000000
vn -0.707107 0.707107 -0.000000
vn -0.707107 0.707107 -0.000000
vn -0.707107 0.707107 -0.000000
vn -0.707107 0.707107 -0.000000
vn -0.707107 0.707107 -0.000000
vn -0.707107 0.707107 -0.000000
vn -0.707107 0.707107 -0.000000
vn -0.707107 0.707107 -0.000000
vn -0.707107 0.707107 -0.000000
vn -0.707107 0.707107 -0.000000
vn -0.707107 0.707107 -0.000000
usemtl Polycarbonate_(Clear)
f 1/1/1 2/2/2 4/3/3
f 4/3/3 2/2/2 3/4/4
f 5/5/5 1/6/6 6/7/7
f 6/7/7 1/6/6 4/8/8
f 7/9/9 5/10/10 8/11/11
f 8/11/11 5/10/10 6/12/12
f 2/13/13 7/14/14 3/15/15
f 3/15/15 7/14/14 8/16/16
f 9/17/17 10/18/18 12/19/19
f 12/19/19 10/18/18 11/20/20
f 13/21/21 9/22/22 14/23/23
f 14/23/23 9/22/22 12/24/24
f 15/25/25 13/26/26 16/27/27
f 16/27/27 13/26/26 14/28/28
f 17/29/29 15/30/30 18/31/31
f 18/31/31 15/30/30 16/32/32
f 19/33/33 17/34/34 20/35/35
f 20/35/35 17/34/34 18/36/36
f 21/37/37 19/38/38 22/39/39
f 22/39/39 19/38/38 20/40/40
f 23/41/41 21/42/42 24/43/43
f 24/43/43 21/42/42 22/44/44
f 10/45/45 23/46/46 11/47/47
f 11/47/47 23/46/46 24/48/48
f 8/49/49 16/50/50 3/51/51
f 3/51/51 16/50/50 14/52/52
f 3/51/51 14/52/52 12/53/53
f 16/50/50 8/49/49 18/54/54
f 18/54/54 8/49/49 6/55/55
f 18/54/54 6/55/55 20/56/56
f 20/56/56 6/55/55 22/57/57
f 22/57/57 6/55/55 4/58/58
f 22/57/57 4/58/58 24/59/59
f 24/59/59 4/58/58 11/60/60
f 11/60/60 4/58/58 3/51/51
f 11/60/60 3/51/51 12/53/53
f 2/61/61 15/62/62 7/63/63
f 7/63/63 15/62/62 17/64/64
f 7/63/63 17/64/64 19/65/65
f 1/66/66 9/67/67 2/61/61
f 2/61/61 9/67/67 13/68/68
f 2/61/61 13/68/68 15/62/62
f 5/69/69 21/70/70 1/66/66
f 1/66/66 21/70/70 23/71/71
f 1/66/66 23/71/71 10/72/72
f 21/70/70 5/69/69 19/65/65
f 19/65/65 5/69/69 7/63/63
f 10/72/72 9/67/67 1/66/66
# 24 vertices
# 72 texture params
# 72 normals
# 48 facets

# 1 groups
