# WaveFront *.obj file (generated by Autodesk ATF)

mtllib body83_visual.mtl

g Body83

v 62.970818 -64.711119 94.885675
v 63.001930 -64.742232 94.885675
v 62.980108 -64.764054 94.885675
v 62.948996 -64.732941 94.885675
v 62.970818 -64.711119 95.005675
v 63.001930 -64.742232 95.005675
v 63.003504 -64.743805 95.005425
v 63.004998 -64.745300 95.004685
v 63.006339 -64.746641 95.003494
v 63.007459 -64.747760 95.001910
v 63.008301 -64.748603 95.000014
v 63.008824 -64.749126 94.997900
v 63.009002 -64.749303 94.995675
v 63.009002 -64.749303 94.895675
v 63.008824 -64.749126 94.893450
v 63.008301 -64.748603 94.891336
v 63.007459 -64.747760 94.889440
v 63.006339 -64.746641 94.887857
v 63.004998 -64.745300 94.886666
v 63.003504 -64.743805 94.885926
v 62.948996 -64.732941 95.005675
v 62.980108 -64.764054 95.005675
v 62.987180 -64.771125 94.895675
v 62.987180 -64.771125 94.995675
v 62.987002 -64.770948 94.997900
v 62.986479 -64.770425 95.000014
v 62.985637 -64.769582 95.001910
v 62.984517 -64.768463 95.003494
v 62.983176 -64.767122 95.004685
v 62.981682 -64.765627 95.005425
v 62.981682 -64.765627 94.885926
v 62.983176 -64.767122 94.886666
v 62.984517 -64.768463 94.887857
v 62.985637 -64.769582 94.889440
v 62.986479 -64.770425 94.891336
v 62.987002 -64.770948 94.893450
v 62.983399 -64.767344 94.951831
v 62.983399 -64.767344 94.939519
v 62.963342 -64.747288 94.939519
v 62.963342 -64.747288 94.951831
v 62.950045 -64.760586 94.951831
v 62.970101 -64.780642 94.951831
v 62.950045 -64.760586 94.983414
v 62.970101 -64.780642 94.983414
v 62.920339 -64.790291 94.983414
v 62.940395 -64.810348 94.983414
v 62.920339 -64.790291 94.922291
v 62.940395 -64.810348 94.922291
v 62.950045 -64.760586 94.922291
v 62.970101 -64.780642 94.922291
v 62.950045 -64.760586 94.939519
v 62.970101 -64.780642 94.939519
vt 0.030861 -0.010000 0.000000
vt -0.000000 -0.010000 0.000000
vt 0.030861 -0.054000 0.000000
vt -0.000000 -0.054000 0.000000
vt 0.000000 -0.054000 0.000000
vt 0.120000 -0.054000 0.000000
vt 0.000000 -0.010000 0.000000
vt 0.120000 -0.010000 0.000000
vt 0.010000 0.000000 0.000000
vt 0.110000 0.000000 0.000000
vt 0.119749 -0.007775 0.000000
vt 0.119010 -0.005661 0.000000
vt 0.117818 -0.003765 0.000000
vt 0.116235 -0.002182 0.000000
vt 0.114339 -0.000990 0.000000
vt 0.112225 -0.000251 0.000000
vt 0.007775 -0.000251 0.000000
vt 0.005661 -0.000990 0.000000
vt 0.003765 -0.002182 0.000000
vt 0.002182 -0.003765 0.000000
vt 0.000990 -0.005661 0.000000
vt 0.000251 -0.007775 0.000000
vt 0.030861 -0.010000 0.000000
vt 0.000000 -0.010000 0.000000
vt 0.030861 -0.054000 0.000000
vt 0.000000 -0.054000 0.000000
vt -0.043844 0.000000 0.000000
vt 0.012312 -0.005347 0.000000
vt 0.056156 -0.000000 0.000000
vt 0.065905 -0.007775 0.000000
vt 0.065166 -0.005661 0.000000
vt -0.046069 -0.000251 0.000000
vt -0.048183 -0.000990 0.000000
vt -0.050079 -0.002182 0.000000
vt -0.051662 -0.003765 0.000000
vt -0.052854 -0.005661 0.000000
vt -0.053593 -0.007775 0.000000
vt -0.000000 -0.005347 0.000000
vt -0.053844 -0.010000 0.000000
vt -0.000000 -0.033711 0.000000
vt -0.053844 -0.054000 0.000000
vt 0.066156 -0.054000 0.000000
vt 0.012312 -0.033711 0.000000
vt 0.066156 -0.010000 0.000000
vt 0.063974 -0.003765 0.000000
vt 0.062391 -0.002182 0.000000
vt 0.060495 -0.000990 0.000000
vt 0.058381 -0.000251 0.000000
vt -0.000000 -0.005347 0.000000
vt -0.018806 -0.005347 0.000000
vt -0.000000 -0.033711 0.000000
vt -0.018806 -0.033711 0.000000
vt 0.000000 -0.005347 0.000000
vt -0.031583 -0.005347 0.000000
vt 0.000000 -0.033711 0.000000
vt -0.031583 -0.033711 0.000000
vt 0.000000 -0.005347 0.000000
vt -0.042010 -0.005347 0.000000
vt 0.000000 -0.033711 0.000000
vt -0.042010 -0.033711 0.000000
vt -0.000000 -0.005347 0.000000
vt -0.061123 -0.005347 0.000000
vt -0.000000 -0.033711 0.000000
vt -0.061123 -0.033711 0.000000
vt 0.000000 -0.005347 0.000000
vt -0.042010 -0.005347 0.000000
vt 0.000000 -0.033711 0.000000
vt -0.042010 -0.033711 0.000000
vt 0.000000 -0.005347 0.000000
vt -0.017229 -0.005347 0.000000
vt 0.000000 -0.033711 0.000000
vt -0.017229 -0.033711 0.000000
vt -0.000000 -0.005347 0.000000
vt -0.018806 -0.005347 0.000000
vt -0.000000 -0.033711 0.000000
vt -0.018806 -0.033711 0.000000
vt -0.050000 -0.090861 0.000000
vt 0.050000 -0.090861 0.000000
vt -0.050000 -0.060000 0.000000
vt 0.050000 -0.060000 0.000000
vt 0.060000 -0.060000 0.000000
vt -0.060000 -0.060000 0.000000
vt 0.060000 -0.090861 0.000000
vt -0.060000 -0.090861 0.000000
vt -0.066156 -0.000000 0.000000
vt -0.053844 -0.000000 0.000000
vt -0.066156 0.018806 0.000000
vt -0.053844 0.018806 0.000000
vt -0.036615 0.060816 0.000000
vt -0.036615 0.018806 0.000000
vt -0.097739 0.060816 0.000000
vt -0.097739 0.018806 0.000000
vt 0.097739 0.018806 0.000000
vt 0.097739 0.060816 0.000000
vt 0.066156 0.018806 0.000000
vt 0.036615 0.060816 0.000000
vt 0.053844 0.018806 0.000000
vt 0.036615 0.018806 0.000000
vt 0.053844 -0.000000 0.000000
vt 0.066156 -0.000000 0.000000
vt -0.060000 0.015708 0.000000
vt -0.090861 0.015708 0.000000
vt -0.060000 0.013464 0.000000
vt -0.090861 0.013464 0.000000
vt -0.060000 0.011220 0.000000
vt -0.090861 0.011220 0.000000
vt -0.060000 0.008976 0.000000
vt -0.090861 0.008976 0.000000
vt -0.060000 0.006732 0.000000
vt -0.090861 0.006732 0.000000
vt -0.060000 0.004488 0.000000
vt -0.090861 0.004488 0.000000
vt -0.060000 0.002244 0.000000
vt -0.090861 0.002244 0.000000
vt -0.060000 -0.000000 0.000000
vt -0.090861 -0.000000 0.000000
vt 0.090861 0.015708 0.000000
vt 0.060000 0.015708 0.000000
vt 0.090861 0.013464 0.000000
vt 0.060000 0.013464 0.000000
vt 0.090861 0.011220 0.000000
vt 0.060000 0.011220 0.000000
vt 0.090861 0.008976 0.000000
vt 0.060000 0.008976 0.000000
vt 0.090861 0.006732 0.000000
vt 0.060000 0.006732 0.000000
vt 0.090861 0.004488 0.000000
vt 0.060000 0.004488 0.000000
vt 0.090861 0.002244 0.000000
vt 0.060000 0.002244 0.000000
vt 0.090861 -0.000000 0.000000
vt 0.060000 -0.000000 0.000000
vn 0.000000 -0.000000 -1.000000
vn 0.000000 -0.000000 -1.000000
vn 0.000000 -0.000000 -1.000000
vn 0.000000 -0.000000 -1.000000
vn 0.707107 0.707107 0.000000
vn 0.707107 0.707107 0.000000
vn 0.707107 0.707107 0.000000
vn 0.707107 0.707107 0.000000
vn 0.707107 0.707107 0.000000
vn 0.707107 0.707107 0.000000
vn 0.707107 0.707107 0.000000
vn 0.707107 0.707107 0.000000
vn 0.707107 0.707107 0.000000
vn 0.707107 0.707107 0.000000
vn 0.707107 0.707107 0.000000
vn 0.707107 0.707107 0.000000
vn 0.707107 0.707107 0.000000
vn 0.707107 0.707107 0.000000
vn 0.707107 0.707107 0.000000
vn 0.707107 0.707107 0.000000
vn 0.707107 0.707107 0.000000
vn 0.707107 0.707107 0.000000
vn -0.000000 0.000000 1.000000
vn -0.000000 0.000000 1.000000
vn -0.000000 0.000000 1.000000
vn -0.000000 0.000000 1.000000
vn -0.707107 -0.707107 -0.000000
vn -0.707107 -0.707107 -0.000000
vn -0.707107 -0.707107 -0.000000
vn -0.707107 -0.707107 -0.000000
vn -0.707107 -0.707107 -0.000000
vn -0.707107 -0.707107 -0.000000
vn -0.707107 -0.707107 -0.000000
vn -0.707107 -0.707107 -0.000000
vn -0.707107 -0.707107 -0.000000
vn -0.707107 -0.707107 -0.000000
vn -0.707107 -0.707107 -0.000000
vn -0.707107 -0.707107 -0.000000
vn -0.707107 -0.707107 -0.000000
vn -0.707107 -0.707107 -0.000000
vn -0.707107 -0.707107 -0.000000
vn -0.707107 -0.707107 -0.000000
vn -0.707107 -0.707107 -0.000000
vn -0.707107 -0.707107 -0.000000
vn -0.707107 -0.707107 -0.000000
vn -0.707107 -0.707107 -0.000000
vn -0.707107 -0.707107 -0.000000
vn -0.707107 -0.707107 -0.000000
vn -0.000000 0.000000 1.000000
vn -0.000000 0.000000 1.000000
vn -0.000000 0.000000 1.000000
vn -0.000000 0.000000 1.000000
vn 0.707107 0.707107 0.000000
vn 0.707107 0.707107 0.000000
vn 0.707107 0.707107 0.000000
vn 0.707107 0.707107 0.000000
vn -0.000000 0.000000 1.000000
vn -0.000000 0.000000 1.000000
vn -0.000000 0.000000 1.000000
vn -0.000000 0.000000 1.000000
vn -0.707107 -0.707107 -0.000000
vn -0.707107 -0.707107 -0.000000
vn -0.707107 -0.707107 -0.000000
vn -0.707107 -0.707107 -0.000000
vn 0.000000 -0.000000 -1.000000
vn 0.000000 -0.000000 -1.000000
vn 0.000000 -0.000000 -1.000000
vn 0.000000 -0.000000 -1.000000
vn 0.707107 0.707107 0.000000
vn 0.707107 0.707107 0.000000
vn 0.707107 0.707107 0.000000
vn 0.707107 0.707107 0.000000
vn 0.000000 -0.000000 -1.000000
vn 0.000000 -0.000000 -1.000000
vn 0.000000 -0.000000 -1.000000
vn 0.000000 -0.000000 -1.000000
vn 0.707107 -0.707107 0.000000
vn 0.707107 -0.707107 0.000000
vn 0.707107 -0.707107 0.000000
vn 0.707107 -0.707107 0.000000
vn -0.707107 0.707107 -0.000000
vn -0.707107 0.707107 -0.000000
vn -0.707107 0.707107 -0.000000
vn -0.707107 0.707107 -0.000000
vn -0.707107 0.707107 -0.000000
vn -0.707107 0.707107 -0.000000
vn -0.707107 0.707107 -0.000000
vn -0.707107 0.707107 -0.000000
vn -0.707107 0.707107 -0.000000
vn -0.707107 0.707107 -0.000000
vn -0.707107 0.707107 -0.000000
vn -0.707107 0.707107 -0.000000
vn 0.707107 -0.707107 0.000000
vn 0.707107 -0.707107 0.000000
vn 0.707107 -0.707107 0.000000
vn 0.707107 -0.707107 0.000000
vn 0.707107 -0.707107 0.000000
vn 0.707107 -0.707107 0.000000
vn 0.707107 -0.707107 0.000000
vn 0.707107 -0.707107 0.000000
vn 0.689378 -0.689378 0.222521
vn 0.689378 -0.689378 0.222521
vn 0.637081 -0.637081 0.433884
vn 0.637081 -0.637081 0.433884
vn 0.552838 -0.552838 0.623490
vn 0.552838 -0.552838 0.623490
vn 0.440874 -0.440874 0.781831
vn 0.440874 -0.440874 0.781831
vn 0.306802 -0.306802 0.900969
vn 0.306802 -0.306802 0.900969
vn 0.157346 -0.157346 0.974928
vn 0.157346 -0.157346 0.974928
vn -0.000000 0.000000 1.000000
vn -0.000000 0.000000 1.000000
vn 0.689378 -0.689378 -0.222521
vn 0.689378 -0.689378 -0.222521
vn 0.637081 -0.637081 -0.433884
vn 0.637081 -0.637081 -0.433884
vn 0.552838 -0.552838 -0.623490
vn 0.552838 -0.552838 -0.623490
vn 0.440874 -0.440874 -0.781831
vn 0.440874 -0.440874 -0.781831
vn 0.306802 -0.306802 -0.900969
vn 0.306802 -0.306802 -0.900969
vn 0.157346 -0.157346 -0.974928
vn 0.157346 -0.157346 -0.974928
vn -0.000000 0.000000 -1.000000
usemtl Opaque(202,209,238)
f 2/1/1 3/2/2 1/3/3
f 1/3/3 3/2/2 4/4/4
f 1/5/5 5/6/6 2/7/7
f 2/7/7 5/6/6 6/8/8
f 2/7/7 6/8/8 14/9/9
f 14/9/9 6/8/8 13/10/10
f 13/10/10 6/8/8 7/11/11
f 13/10/10 7/11/11 8/12/12
f 8/12/12 9/13/13 13/10/10
f 13/10/10 9/13/13 10/14/14
f 13/10/10 10/14/14 11/15/15
f 11/15/15 12/16/16 13/10/10
f 15/17/17 16/18/18 14/9/9
f 14/9/9 16/18/18 17/19/19
f 14/9/9 17/19/19 18/20/20
f 18/20/20 19/21/21 14/9/9
f 14/9/9 19/21/21 20/22/22
f 14/9/9 20/22/22 2/7/7
f 22/23/23 6/24/24 21/25/25
f 21/25/25 6/24/24 5/26/26
f 24/27/27 38/28/28 23/29/29
f 23/29/29 38/28/28 31/30/30
f 23/29/29 31/30/30 32/31/31
f 25/32/32 26/33/33 24/27/27
f 24/27/27 26/33/33 27/34/34
f 24/27/27 27/34/34 28/35/35
f 28/35/35 29/36/36 24/27/27
f 24/27/27 29/36/36 30/37/37
f 24/27/27 30/37/37 37/38/38
f 37/38/38 30/37/37 22/39/39
f 37/38/38 22/39/39 40/40/40
f 40/40/40 22/39/39 21/41/41
f 40/40/40 21/41/41 4/42/42
f 40/40/40 4/42/42 39/43/43
f 39/43/43 4/42/42 3/44/44
f 39/43/43 3/44/44 38/28/28
f 38/28/28 3/44/44 31/30/30
f 32/31/31 33/45/45 23/29/29
f 23/29/29 33/45/45 34/46/46
f 23/29/29 34/46/46 35/47/47
f 35/47/47 36/48/48 23/29/29
f 37/38/38 38/28/28 24/27/27
f 42/49/49 37/50/50 41/51/51
f 41/51/51 37/50/50 40/52/52
f 44/53/53 42/54/54 43/55/55
f 43/55/55 42/54/54 41/56/56
f 46/57/57 44/58/58 45/59/59
f 45/59/59 44/58/58 43/60/60
f 48/61/61 46/62/62 47/63/63
f 47/63/63 46/62/62 45/64/64
f 50/65/65 48/66/66 49/67/67
f 49/67/67 48/66/66 47/68/68
f 52/69/69 50/70/70 51/71/71
f 51/71/71 50/70/70 49/72/72
f 38/73/73 52/74/74 39/75/75
f 39/75/75 52/74/74 51/76/76
f 14/77/77 13/78/78 23/79/79
f 23/79/79 13/78/78 24/80/80
f 4/81/81 21/82/82 1/83/83
f 1/83/83 21/82/82 5/84/84
f 40/85/85 39/86/86 41/87/87
f 41/87/87 39/86/86 51/88/88
f 41/87/87 51/88/88 47/89/89
f 47/89/89 51/88/88 49/90/90
f 47/89/89 45/91/91 41/87/87
f 41/87/87 45/91/91 43/92/92
f 44/93/93 46/94/94 42/95/95
f 42/95/95 46/94/94 48/96/96
f 42/95/95 48/96/96 52/97/97
f 52/97/97 48/96/96 50/98/98
f 38/99/99 37/100/100 52/97/97
f 52/97/97 37/100/100 42/95/95
f 24/101/80 13/102/78 25/103/101
f 25/103/101 13/102/78 12/104/102
f 25/103/101 12/104/102 26/105/103
f 26/105/103 12/104/102 11/106/104
f 26/105/103 11/106/104 27/107/105
f 27/107/105 11/106/104 10/108/106
f 27/107/105 10/108/106 28/109/107
f 28/109/107 10/108/106 9/110/108
f 28/109/107 9/110/108 29/111/109
f 29/111/109 9/110/108 8/112/110
f 29/111/109 8/112/110 30/113/111
f 30/113/111 8/112/110 7/114/112
f 30/113/111 7/114/112 22/115/113
f 22/115/113 7/114/112 6/116/114
f 14/117/77 23/118/79 15/119/115
f 15/119/115 23/118/79 36/120/116
f 15/119/115 36/120/116 16/121/117
f 16/121/117 36/120/116 35/122/118
f 16/121/117 35/122/118 17/123/119
f 17/123/119 35/122/118 34/124/120
f 17/123/119 34/124/120 18/125/121
f 18/125/121 34/124/120 33/126/122
f 18/125/121 33/126/122 19/127/123
f 19/127/123 33/126/122 32/128/124
f 19/127/123 32/128/124 20/129/125
f 20/129/125 32/128/124 31/130/126
f 20/129/125 31/130/126 2/131/1
f 2/131/1 31/130/126 3/132/127
# 52 vertices
# 132 texture params
# 127 normals
# 100 facets

# 1 groups
