# WaveFront *.obj file (generated by Autodesk ATF)

mtllib body92_visual.mtl

g Body92

v 62.899102 -64.867688 94.071930
v 62.900694 -64.866095 94.071613
v 62.901476 -64.865314 94.071342
v 62.902239 -64.864550 94.070984
v 62.902975 -64.863815 94.070524
v 62.903677 -64.863113 94.069968
v 62.904337 -64.862453 94.069318
v 62.904941 -64.861849 94.068566
v 62.905484 -64.861306 94.067727
v 62.905967 -64.860823 94.066817
v 62.906376 -64.860414 94.065838
v 62.906704 -64.860086 94.064799
v 62.906954 -64.859835 94.063718
v 62.907130 -64.859660 94.062608
v 62.907227 -64.859562 94.061478
v 62.907261 -64.859529 94.060342
v 62.907968 -64.860236 94.060342
v 62.907934 -64.860269 94.061478
v 62.907837 -64.860367 94.062608
v 62.907661 -64.860542 94.063718
v 62.907411 -64.860793 94.064799
v 62.907083 -64.861121 94.065838
v 62.906674 -64.861530 94.066817
v 62.906191 -64.862013 94.067727
v 62.905648 -64.862556 94.068566
v 62.905044 -64.863160 94.069318
v 62.904384 -64.863820 94.069968
v 62.903682 -64.864522 94.070524
v 62.902946 -64.865257 94.070984
v 62.902183 -64.866021 94.071342
v 62.901401 -64.866802 94.071613
v 62.899809 -64.868395 94.071930
v 62.907230 -64.859559 94.059311
v 62.907143 -64.859646 94.058287
v 62.906992 -64.859797 94.057277
v 62.906772 -64.860017 94.056294
v 62.906486 -64.860304 94.055345
v 62.906133 -64.860656 94.054441
v 62.905718 -64.861072 94.053594
v 62.905250 -64.861540 94.052802
v 62.904735 -64.862055 94.052071
v 62.904173 -64.862617 94.051414
v 62.903570 -64.863220 94.050833
v 62.902927 -64.863862 94.050344
v 62.902248 -64.864541 94.049968
v 62.901543 -64.865247 94.049704
v 62.900822 -64.865967 94.049545
v 62.900094 -64.866696 94.049494
v 62.900801 -64.867403 94.049494
v 62.901529 -64.866675 94.049545
v 62.902250 -64.865954 94.049704
v 62.902955 -64.865249 94.049968
v 62.903634 -64.864569 94.050344
v 62.904277 -64.863927 94.050833
v 62.904880 -64.863324 94.051414
v 62.905442 -64.862762 94.052071
v 62.905957 -64.862247 94.052802
v 62.906425 -64.861779 94.053594
v 62.906840 -64.861363 94.054441
v 62.907193 -64.861011 94.055345
v 62.907480 -64.860724 94.056294
v 62.907699 -64.860505 94.057277
v 62.907850 -64.860354 94.058287
v 62.907938 -64.860266 94.059311
v 62.899278 -64.867512 94.049556
v 62.898469 -64.868320 94.049715
v 62.897677 -64.869112 94.050002
v 62.896909 -64.869880 94.050396
v 62.896170 -64.870620 94.050887
v 62.895464 -64.871325 94.051468
v 62.894135 -64.872655 94.052808
v 62.892869 -64.873921 94.054268
v 62.891643 -64.875147 94.055794
v 62.889257 -64.877532 94.058950
v 62.889965 -64.878239 94.058950
v 62.892350 -64.875854 94.055794
v 62.893576 -64.874628 94.054268
v 62.894842 -64.873362 94.052808
v 62.896171 -64.872032 94.051468
v 62.896877 -64.871327 94.050887
v 62.897617 -64.870587 94.050396
v 62.898384 -64.869819 94.050002
v 62.899176 -64.869027 94.049715
v 62.899985 -64.868219 94.049556
v 62.874625 -64.892164 94.078341
v 62.875332 -64.892872 94.078341
v 62.874625 -64.892164 94.044366
v 62.875332 -64.892872 94.044366
v 62.878251 -64.888538 94.044366
v 62.878959 -64.889245 94.044366
v 62.878251 -64.888538 94.067633
v 62.878959 -64.889245 94.067633
v 62.887692 -64.879097 94.055123
v 62.888399 -64.879804 94.055123
v 62.890464 -64.876326 94.051576
v 62.891906 -64.874884 94.049893
v 62.893403 -64.873387 94.048312
v 62.894989 -64.871801 94.046913
v 62.895829 -64.870960 94.046334
v 62.896701 -64.870088 94.045858
v 62.897599 -64.869191 94.045485
v 62.898514 -64.868275 94.045215
v 62.899442 -64.867347 94.045068
v 62.900377 -64.866413 94.045007
v 62.901084 -64.867120 94.045007
v 62.900150 -64.868054 94.045068
v 62.899221 -64.868982 94.045215
v 62.898306 -64.869898 94.045485
v 62.897408 -64.870795 94.045858
v 62.896536 -64.871668 94.046334
v 62.895696 -64.872508 94.046913
v 62.894110 -64.874094 94.048312
v 62.892613 -64.875591 94.049893
v 62.891171 -64.877033 94.051576
v 62.901422 -64.865368 94.045077
v 62.902458 -64.864332 94.045275
v 62.903474 -64.863316 94.045625
v 62.904461 -64.862328 94.046113
v 62.905403 -64.861387 94.046756
v 62.906297 -64.860493 94.047525
v 62.907136 -64.859654 94.048407
v 62.907913 -64.858876 94.049397
v 62.908622 -64.858167 94.050484
v 62.909238 -64.857552 94.051680
v 62.909766 -64.857024 94.052956
v 62.910192 -64.856597 94.054307
v 62.910506 -64.856284 94.055718
v 62.910722 -64.856068 94.057165
v 62.910846 -64.855943 94.058633
v 62.910887 -64.855903 94.060111
v 62.911594 -64.856610 94.060111
v 62.911553 -64.856650 94.058633
v 62.911429 -64.856775 94.057165
v 62.911213 -64.856991 94.055718
v 62.910900 -64.857304 94.054307
v 62.910473 -64.857731 94.052956
v 62.909945 -64.858259 94.051680
v 62.909329 -64.858874 94.050484
v 62.908620 -64.859583 94.049397
v 62.907843 -64.860361 94.048407
v 62.907004 -64.861200 94.047525
v 62.906110 -64.862094 94.046756
v 62.905168 -64.863036 94.046113
v 62.904181 -64.864023 94.045625
v 62.903165 -64.865039 94.045275
v 62.902129 -64.866075 94.045077
v 62.910840 -64.855949 94.061734
v 62.910688 -64.856102 94.063343
v 62.910419 -64.856370 94.064921
v 62.910040 -64.856749 94.066454
v 62.909541 -64.857249 94.067915
v 62.908938 -64.857852 94.069296
v 62.908236 -64.858554 94.070581
v 62.907444 -64.859346 94.071757
v 62.906580 -64.860210 94.072826
v 62.905645 -64.861145 94.073767
v 62.904645 -64.862145 94.074564
v 62.903594 -64.863195 94.075219
v 62.902504 -64.864286 94.075728
v 62.901384 -64.865405 94.076086
v 62.900248 -64.866542 94.076313
v 62.899102 -64.867688 94.076418
v 62.899809 -64.868395 94.076418
v 62.900955 -64.867249 94.076313
v 62.902091 -64.866112 94.076086
v 62.903211 -64.864993 94.075728
v 62.904301 -64.863903 94.075219
v 62.905352 -64.862852 94.074564
v 62.906352 -64.861852 94.073767
v 62.907287 -64.860917 94.072826
v 62.908151 -64.860053 94.071757
v 62.908943 -64.859261 94.070581
v 62.909645 -64.858559 94.069296
v 62.910248 -64.857956 94.067915
v 62.910748 -64.857456 94.066454
v 62.911126 -64.857077 94.064921
v 62.911395 -64.856809 94.063343
v 62.911548 -64.856656 94.061734
vt 0.018213 0.001000 0.000000
vt 0.015936 0.001000 0.000000
vt 0.018213 0.000000 0.000000
vt 0.015936 0.000000 0.000000
vt 0.014798 0.001000 0.000000
vt 0.014798 0.000000 0.000000
vt 0.013659 0.001000 0.000000
vt 0.013659 0.000000 0.000000
vt 0.012521 0.001000 0.000000
vt 0.012521 0.000000 0.000000
vt 0.011383 0.001000 0.000000
vt 0.011383 0.000000 0.000000
vt 0.010245 0.001000 0.000000
vt 0.010245 0.000000 0.000000
vt 0.009106 0.001000 0.000000
vt 0.009106 0.000000 0.000000
vt 0.007968 0.001000 0.000000
vt 0.007968 0.000000 0.000000
vt 0.006830 0.001000 0.000000
vt 0.006830 0.000000 0.000000
vt 0.005691 0.001000 0.000000
vt 0.005691 0.000000 0.000000
vt 0.004553 0.001000 0.000000
vt 0.004553 0.000000 0.000000
vt 0.003415 0.001000 0.000000
vt 0.003415 0.000000 0.000000
vt 0.002277 0.001000 0.000000
vt 0.002277 0.000000 0.000000
vt 0.001138 0.001000 0.000000
vt 0.001138 0.000000 0.000000
vt 0.000000 0.001000 0.000000
vt 0.000000 0.000000 0.000000
vt 0.016512 0.001000 0.000000
vt 0.015480 0.001000 0.000000
vt 0.016512 0.000000 0.000000
vt 0.015480 0.000000 0.000000
vt 0.014448 0.001000 0.000000
vt 0.014448 0.000000 0.000000
vt 0.013416 0.001000 0.000000
vt 0.013416 0.000000 0.000000
vt 0.012384 0.001000 0.000000
vt 0.012384 0.000000 0.000000
vt 0.011352 0.001000 0.000000
vt 0.011352 0.000000 0.000000
vt 0.010320 0.001000 0.000000
vt 0.010320 0.000000 0.000000
vt 0.009288 0.001000 0.000000
vt 0.009288 0.000000 0.000000
vt 0.008256 0.001000 0.000000
vt 0.008256 0.000000 0.000000
vt 0.007224 0.001000 0.000000
vt 0.007224 0.000000 0.000000
vt 0.006192 0.001000 0.000000
vt 0.006192 0.000000 0.000000
vt 0.005160 0.001000 0.000000
vt 0.005160 0.000000 0.000000
vt 0.004128 0.001000 0.000000
vt 0.004128 0.000000 0.000000
vt 0.003096 0.001000 0.000000
vt 0.003096 0.000000 0.000000
vt 0.002064 0.001000 0.000000
vt 0.002064 0.000000 0.000000
vt 0.001032 0.001000 0.000000
vt 0.001032 0.000000 0.000000
vt 0.000000 0.001000 0.000000
vt 0.000000 0.000000 0.000000
vt 0.018480 0.001000 0.000000
vt 0.017325 0.001000 0.000000
vt 0.018480 0.000000 0.000000
vt 0.017325 0.000000 0.000000
vt 0.016170 0.001000 0.000000
vt 0.016170 0.000000 0.000000
vt 0.015015 0.001000 0.000000
vt 0.015015 0.000000 0.000000
vt 0.013860 0.001000 0.000000
vt 0.013860 0.000000 0.000000
vt 0.012705 0.001000 0.000000
vt 0.012705 0.000000 0.000000
vt 0.011550 0.001000 0.000000
vt 0.011550 0.000000 0.000000
vt 0.009240 0.001000 0.000000
vt 0.009240 0.000000 0.000000
vt 0.006930 0.001000 0.000000
vt 0.006930 0.000000 0.000000
vt 0.004620 0.001000 0.000000
vt 0.004620 0.000000 0.000000
vt 0.000000 0.001000 0.000000
vt 0.000000 0.000000 0.000000
vt -0.028359 -0.001000 0.000000
vt 0.000000 -0.001000 0.000000
vt -0.028359 0.000000 0.000000
vt 0.000000 0.000000 0.000000
vt -0.033974 -0.001000 0.000000
vt -0.000000 -0.001000 0.000000
vt -0.033974 -0.000000 0.000000
vt 0.000000 0.000000 0.000000
vt -0.005128 -0.001000 0.000000
vt -0.000000 -0.001000 0.000000
vt -0.005128 0.000000 0.000000
vt 0.000000 0.000000 0.000000
vt -0.023267 -0.001000 0.000000
vt 0.000000 -0.001000 0.000000
vt -0.023267 -0.000000 0.000000
vt 0.000000 0.000000 0.000000
vt -0.018296 -0.001000 0.000000
vt 0.000000 -0.001000 0.000000
vt -0.018296 -0.000000 0.000000
vt 0.000000 0.000000 0.000000
vt 0.021150 0.001000 0.000000
vt 0.015863 0.001000 0.000000
vt 0.021150 0.000000 0.000000
vt 0.015863 0.000000 0.000000
vt 0.013219 0.001000 0.000000
vt 0.013219 0.000000 0.000000
vt 0.010575 0.001000 0.000000
vt 0.010575 0.000000 0.000000
vt 0.007931 0.001000 0.000000
vt 0.007931 0.000000 0.000000
vt 0.006609 0.001000 0.000000
vt 0.006609 0.000000 0.000000
vt 0.005288 0.001000 0.000000
vt 0.005288 0.000000 0.000000
vt 0.003966 0.001000 0.000000
vt 0.003966 0.000000 0.000000
vt 0.002644 0.001000 0.000000
vt 0.002644 0.000000 0.000000
vt 0.001322 0.001000 0.000000
vt 0.001322 0.000000 0.000000
vt 0.000000 0.001000 0.000000
vt 0.000000 0.000000 0.000000
vt 0.023685 0.001000 0.000000
vt 0.022205 0.001000 0.000000
vt 0.023685 0.000000 0.000000
vt 0.022205 0.000000 0.000000
vt 0.020724 0.001000 0.000000
vt 0.020724 0.000000 0.000000
vt 0.019244 0.001000 0.000000
vt 0.019244 0.000000 0.000000
vt 0.017764 0.001000 0.000000
vt 0.017764 0.000000 0.000000
vt 0.016283 0.001000 0.000000
vt 0.016283 0.000000 0.000000
vt 0.014803 0.001000 0.000000
vt 0.014803 0.000000 0.000000
vt 0.013323 0.001000 0.000000
vt 0.013323 0.000000 0.000000
vt 0.011842 0.001000 0.000000
vt 0.011842 0.000000 0.000000
vt 0.010362 0.001000 0.000000
vt 0.010362 0.000000 0.000000
vt 0.008882 0.001000 0.000000
vt 0.008882 0.000000 0.000000
vt 0.007402 0.001000 0.000000
vt 0.007402 0.000000 0.000000
vt 0.005921 0.001000 0.000000
vt 0.005921 0.000000 0.000000
vt 0.004441 0.001000 0.000000
vt 0.004441 0.000000 0.000000
vt 0.002961 0.001000 0.000000
vt 0.002961 0.000000 0.000000
vt 0.001480 0.001000 0.000000
vt 0.001480 0.000000 0.000000
vt 0.000000 0.001000 0.000000
vt 0.000000 0.000000 0.000000
vt 0.025988 0.001000 0.000000
vt 0.024364 0.001000 0.000000
vt 0.025988 0.000000 0.000000
vt 0.024364 0.000000 0.000000
vt 0.022740 0.001000 0.000000
vt 0.022740 0.000000 0.000000
vt 0.021115 0.001000 0.000000
vt 0.021115 0.000000 0.000000
vt 0.019491 0.001000 0.000000
vt 0.019491 0.000000 0.000000
vt 0.017867 0.001000 0.000000
vt 0.017867 0.000000 0.000000
vt 0.016243 0.001000 0.000000
vt 0.016243 0.000000 0.000000
vt 0.014618 0.001000 0.000000
vt 0.014618 0.000000 0.000000
vt 0.012994 0.001000 0.000000
vt 0.012994 0.000000 0.000000
vt 0.011370 0.001000 0.000000
vt 0.011370 0.000000 0.000000
vt 0.009746 0.001000 0.000000
vt 0.009746 0.000000 0.000000
vt 0.008121 0.001000 0.000000
vt 0.008121 0.000000 0.000000
vt 0.006497 0.001000 0.000000
vt 0.006497 0.000000 0.000000
vt 0.004873 0.001000 0.000000
vt 0.004873 0.000000 0.000000
vt 0.003249 0.001000 0.000000
vt 0.003249 0.000000 0.000000
vt 0.001624 0.001000 0.000000
vt 0.001624 0.000000 0.000000
vt 0.000000 0.001000 0.000000
vt 0.000000 0.000000 0.000000
vt -0.004487 -0.001000 0.000000
vt -0.000000 -0.001000 0.000000
vt -0.004487 0.000000 0.000000
vt 0.000000 0.000000 0.000000
vt 0.006005 -0.003048 0.000000
vt 0.005029 -0.007520 0.000000
vt 0.008257 -0.003364 0.000000
vt 0.006637 -0.007748 0.000000
vt 0.008257 -0.007852 0.000000
vt 0.003446 -0.007162 0.000000
vt 0.004900 -0.002776 0.000000
vt 0.001904 -0.006653 0.000000
vt 0.000418 -0.005998 0.000000
vt 0.003820 -0.002418 0.000000
vt -0.000996 -0.005201 0.000000
vt 0.002780 -0.001958 0.000000
vt -0.002319 -0.004260 0.000000
vt 0.001787 -0.001402 0.000000
vt -0.003540 -0.003191 0.000000
vt 0.000854 -0.000752 0.000000
vt -0.004660 -0.002015 0.000000
vt -0.000000 0.000000 0.000000
vt -0.005653 -0.000731 0.000000
vt -0.000769 0.000839 0.000000
vt -0.001451 0.001749 0.000000
vt -0.006505 0.000651 0.000000
vt -0.002030 0.002728 0.000000
vt -0.007212 0.002112 0.000000
vt -0.002494 0.003767 0.000000
vt -0.007748 0.003645 0.000000
vt -0.002848 0.004848 0.000000
vt -0.008128 0.005223 0.000000
vt -0.003096 0.005958 0.000000
vt -0.008344 0.006832 0.000000
vt -0.003234 0.007087 0.000000
vt -0.003282 0.008224 0.000000
vt -0.008410 0.008455 0.000000
vt -0.003238 0.009255 0.000000
vt -0.008352 0.009933 0.000000
vt -0.003115 0.010279 0.000000
vt -0.008176 0.011401 0.000000
vt -0.002901 0.011289 0.000000
vt -0.007871 0.012848 0.000000
vt -0.002591 0.012272 0.000000
vt -0.007427 0.014259 0.000000
vt -0.002185 0.013221 0.000000
vt -0.001687 0.014124 0.000000
vt -0.006824 0.015610 0.000000
vt -0.001099 0.014972 0.000000
vt -0.006077 0.016886 0.000000
vt -0.000438 0.015764 0.000000
vt -0.005207 0.018082 0.000000
vt 0.000291 0.016495 0.000000
vt -0.004204 0.019169 0.000000
vt 0.001086 0.017152 0.000000
vt -0.003105 0.020159 0.000000
vt 0.001939 0.017733 0.000000
vt -0.001918 0.021041 0.000000
vt 0.002847 0.018222 0.000000
vt -0.000654 0.021810 0.000000
vt 0.003807 0.018598 0.000000
vt 0.000678 0.022453 0.000000
vt 0.002074 0.022941 0.000000
vt 0.004805 0.018861 0.000000
vt 0.003511 0.023291 0.000000
vt 0.005824 0.019021 0.000000
vt 0.004977 0.023489 0.000000
vt 0.006454 0.023559 0.000000
vt 0.006855 0.019071 0.000000
vt 0.007775 0.023498 0.000000
vt 0.008009 0.019010 0.000000
vt 0.009088 0.023351 0.000000
vt 0.010383 0.023081 0.000000
vt 0.009152 0.018851 0.000000
vt 0.011652 0.022708 0.000000
vt 0.012885 0.022232 0.000000
vt 0.010272 0.018564 0.000000
vt 0.014074 0.021653 0.000000
vt 0.011358 0.018170 0.000000
vt 0.016316 0.020254 0.000000
vt 0.012403 0.017679 0.000000
vt 0.013401 0.017098 0.000000
vt 0.018434 0.018672 0.000000
vt 0.015282 0.015758 0.000000
vt 0.020473 0.016990 0.000000
vt 0.017072 0.014298 0.000000
vt 0.018806 0.012772 0.000000
vt 0.024393 0.013442 0.000000
vt 0.022179 0.009616 0.000000
vt 0.037744 0.000932 0.000000
vt 0.042872 -0.009775 0.000000
vt 0.042872 0.024200 0.000000
vt 0.037744 0.024200 0.000000
vt 0.003234 0.007087 0.000000
vt 0.008344 0.006832 0.000000
vt 0.003282 0.008224 0.000000
vt 0.008410 0.008455 0.000000
vt 0.003238 0.009255 0.000000
vt 0.008352 0.009933 0.000000
vt 0.003115 0.010279 0.000000
vt 0.008176 0.011401 0.000000
vt 0.002901 0.011289 0.000000
vt 0.007871 0.012848 0.000000
vt 0.002591 0.012272 0.000000
vt 0.007427 0.014259 0.000000
vt 0.002185 0.013221 0.000000
vt 0.001687 0.014124 0.000000
vt 0.006824 0.015610 0.000000
vt 0.001099 0.014972 0.000000
vt 0.006077 0.016886 0.000000
vt 0.000438 0.015764 0.000000
vt 0.005207 0.018082 0.000000
vt -0.000291 0.016495 0.000000
vt 0.004204 0.019169 0.000000
vt -0.001086 0.017152 0.000000
vt 0.003105 0.020159 0.000000
vt -0.001939 0.017733 0.000000
vt 0.001918 0.021041 0.000000
vt -0.002847 0.018222 0.000000
vt 0.000654 0.021810 0.000000
vt -0.003807 0.018598 0.000000
vt -0.000678 0.022453 0.000000
vt -0.002074 0.022941 0.000000
vt 0.003096 0.005958 0.000000
vt 0.008128 0.005223 0.000000
vt 0.002848 0.004848 0.000000
vt 0.007748 0.003645 0.000000
vt 0.002494 0.003767 0.000000
vt 0.007212 0.002112 0.000000
vt 0.002030 0.002728 0.000000
vt 0.006505 0.000651 0.000000
vt 0.001451 0.001749 0.000000
vt 0.005653 -0.000731 0.000000
vt 0.000769 0.000839 0.000000
vt 0.000000 -0.000000 0.000000
vt 0.004660 -0.002015 0.000000
vt -0.000854 -0.000752 0.000000
vt 0.003540 -0.003191 0.000000
vt -0.001787 -0.001402 0.000000
vt 0.002319 -0.004260 0.000000
vt -0.002780 -0.001958 0.000000
vt 0.000996 -0.005201 0.000000
vt -0.003820 -0.002418 0.000000
vt -0.000418 -0.005998 0.000000
vt -0.004900 -0.002776 0.000000
vt -0.001904 -0.006653 0.000000
vt -0.003446 -0.007162 0.000000
vt -0.006005 -0.003048 0.000000
vt -0.005029 -0.007520 0.000000
vt -0.008257 -0.003364 0.000000
vt -0.006637 -0.007748 0.000000
vt -0.008257 -0.007852 0.000000
vt -0.004805 0.018861 0.000000
vt -0.003511 0.023291 0.000000
vt -0.005824 0.019021 0.000000
vt -0.004977 0.023489 0.000000
vt -0.006454 0.023559 0.000000
vt -0.006855 0.019071 0.000000
vt -0.007775 0.023498 0.000000
vt -0.008009 0.019010 0.000000
vt -0.009088 0.023351 0.000000
vt -0.010383 0.023081 0.000000
vt -0.009152 0.018851 0.000000
vt -0.011652 0.022708 0.000000
vt -0.012885 0.022232 0.000000
vt -0.010272 0.018564 0.000000
vt -0.014074 0.021653 0.000000
vt -0.011358 0.018170 0.000000
vt -0.016316 0.020254 0.000000
vt -0.012403 0.017679 0.000000
vt -0.013401 0.017098 0.000000
vt -0.018434 0.018672 0.000000
vt -0.015282 0.015758 0.000000
vt -0.020473 0.016990 0.000000
vt -0.017072 0.014298 0.000000
vt -0.018806 0.012772 0.000000
vt -0.024393 0.013442 0.000000
vt -0.022179 0.009616 0.000000
vt -0.037744 0.000932 0.000000
vt -0.042872 -0.009775 0.000000
vt -0.042872 0.024200 0.000000
vt -0.037744 0.024200 0.000000
vn -0.067264 -0.067264 -0.995465
vn -0.146762 -0.146762 -0.978224
vn -0.067264 -0.067264 -0.995465
vn -0.146762 -0.146762 -0.978224
vn -0.192627 -0.192627 -0.962180
vn -0.192627 -0.192627 -0.962180
vn -0.253563 -0.253563 -0.933494
vn -0.253563 -0.253563 -0.933494
vn -0.317002 -0.317002 -0.893879
vn -0.317002 -0.317002 -0.893879
vn -0.373992 -0.373992 -0.848681
vn -0.373992 -0.373992 -0.848681
vn -0.435255 -0.435255 -0.788103
vn -0.435255 -0.435255 -0.788103
vn -0.496674 -0.496674 -0.711780
vn -0.496674 -0.496674 -0.711780
vn -0.544079 -0.544079 -0.638714
vn -0.544079 -0.544079 -0.638714
vn -0.587082 -0.587082 -0.557378
vn -0.587082 -0.587082 -0.557378
vn -0.628424 -0.628424 -0.458439
vn -0.628424 -0.628424 -0.458439
vn -0.660260 -0.660260 -0.357928
vn -0.660260 -0.660260 -0.357928
vn -0.681832 -0.681832 -0.264973
vn -0.681832 -0.681832 -0.264973
vn -0.696813 -0.696813 -0.170009
vn -0.696813 -0.696813 -0.170009
vn -0.705226 -0.705226 -0.072894
vn -0.705226 -0.705226 -0.072894
vn -0.706866 -0.706866 -0.026115
vn -0.706866 -0.706866 -0.026115
vn -0.706858 -0.706858 0.026514
vn -0.705256 -0.705256 0.072306
vn -0.706858 -0.706858 0.026514
vn -0.705256 -0.705256 0.072306
vn -0.697509 -0.697509 0.164205
vn -0.697509 -0.697509 0.164205
vn -0.684184 -0.684184 0.252557
vn -0.684184 -0.684184 0.252557
vn -0.662845 -0.662845 0.348243
vn -0.662845 -0.662845 0.348243
vn -0.635736 -0.635736 0.437813
vn -0.635736 -0.635736 0.437813
vn -0.600835 -0.600835 0.527253
vn -0.600835 -0.600835 0.527253
vn -0.561318 -0.561318 0.608147
vn -0.561318 -0.561318 0.608147
vn -0.522796 -0.522796 0.673326
vn -0.522796 -0.522796 0.673326
vn -0.476977 -0.476977 0.738232
vn -0.476977 -0.476977 0.738232
vn -0.423984 -0.423984 0.800296
vn -0.423984 -0.423984 0.800296
vn -0.369272 -0.369272 0.852805
vn -0.369272 -0.369272 0.852805
vn -0.298055 -0.298055 0.906822
vn -0.298055 -0.298055 0.906822
vn -0.217997 -0.217997 0.951291
vn -0.217997 -0.217997 0.951291
vn -0.145405 -0.145405 0.978629
vn -0.145405 -0.145405 0.978629
vn -0.067035 -0.067035 0.995496
vn -0.067035 -0.067035 0.995496
vn -0.018817 -0.018817 0.999646
vn -0.018817 -0.018817 0.999646
vn 0.027185 0.027185 0.999261
vn 0.058532 0.058532 0.996568
vn 0.027185 0.027185 0.999261
vn 0.058532 0.058532 0.996568
vn 0.138476 0.138476 0.980637
vn 0.138476 0.138476 0.980637
vn 0.209474 0.209474 0.955113
vn 0.209474 0.209474 0.955113
vn 0.271714 0.271714 0.923224
vn 0.271714 0.271714 0.923224
vn 0.328829 0.328829 0.885293
vn 0.328829 0.328829 0.885293
vn 0.380948 0.380948 0.842471
vn 0.380948 0.380948 0.842471
vn 0.438682 0.438682 0.784293
vn 0.438682 0.438682 0.784293
vn 0.457715 0.457715 0.762230
vn 0.457715 0.457715 0.762230
vn 0.473404 0.473404 0.742817
vn 0.473404 0.473404 0.742817
vn 0.489151 0.489151 0.722124
vn 0.489151 0.489151 0.722124
vn 0.483503 0.483503 0.729691
vn 0.483503 0.483503 0.729691
vn 0.483503 0.483503 0.729691
vn 0.483503 0.483503 0.729691
vn -0.707107 -0.707107 -0.000000
vn -0.707107 -0.707107 -0.000000
vn -0.707107 -0.707107 -0.000000
vn -0.707107 -0.707107 -0.000000
vn 0.000000 -0.000000 -1.000000
vn 0.000000 -0.000000 -1.000000
vn 0.000000 -0.000000 -1.000000
vn 0.000000 -0.000000 -1.000000
vn 0.707107 0.707107 0.000000
vn 0.707107 0.707107 0.000000
vn 0.707107 0.707107 0.000000
vn 0.707107 0.707107 0.000000
vn -0.483478 -0.483478 -0.729725
vn -0.483478 -0.483478 -0.729725
vn -0.483478 -0.483478 -0.729725
vn -0.483478 -0.483478 -0.729725
vn -0.482365 -0.482365 -0.731196
vn -0.459145 -0.459145 -0.760508
vn -0.482365 -0.482365 -0.731196
vn -0.459145 -0.459145 -0.760508
vn -0.440518 -0.440518 -0.782232
vn -0.440518 -0.440518 -0.782232
vn -0.402172 -0.402172 -0.822506
vn -0.402172 -0.402172 -0.822506
vn -0.335588 -0.335588 -0.880206
vn -0.335588 -0.335588 -0.880206
vn -0.283003 -0.283003 -0.916416
vn -0.283003 -0.283003 -0.916416
vn -0.226169 -0.226169 -0.947468
vn -0.226169 -0.226169 -0.947468
vn -0.173143 -0.173143 -0.969558
vn -0.173143 -0.173143 -0.969558
vn -0.113015 -0.113015 -0.987145
vn -0.113015 -0.113015 -0.987145
vn -0.048080 -0.048080 -0.997686
vn -0.048080 -0.048080 -0.997686
vn -0.024547 -0.024547 -0.999397
vn -0.024547 -0.024547 -0.999397
vn 0.021227 0.021227 -0.999549
vn 0.057501 0.057501 -0.996688
vn 0.021227 0.021227 -0.999549
vn 0.057501 0.057501 -0.996688
vn 0.132522 0.132522 -0.982281
vn 0.132522 0.132522 -0.982281
vn 0.198887 0.198887 -0.959629
vn 0.198887 0.198887 -0.959629
vn 0.271547 0.271547 -0.923322
vn 0.271547 0.271547 -0.923322
vn 0.339400 0.339400 -0.877277
vn 0.339400 0.339400 -0.877277
vn 0.394014 0.394014 -0.830365
vn 0.394014 0.394014 -0.830365
vn 0.449575 0.449575 -0.771858
vn 0.449575 0.449575 -0.771858
vn 0.494035 0.494035 -0.715443
vn 0.494035 0.494035 -0.715443
vn 0.547667 0.547667 -0.632551
vn 0.547667 0.547667 -0.632551
vn 0.591847 0.591847 -0.547207
vn 0.591847 0.591847 -0.547207
vn 0.627923 0.627923 -0.459811
vn 0.627923 0.627923 -0.459811
vn 0.661840 0.661840 -0.352046
vn 0.661840 0.661840 -0.352046
vn 0.684574 0.684574 -0.250431
vn 0.684574 0.684574 -0.250431
vn 0.697464 0.697464 -0.164582
vn 0.697464 0.697464 -0.164582
vn 0.705367 0.705367 -0.070115
vn 0.705367 0.705367 -0.070115
vn 0.706913 0.706913 -0.023404
vn 0.706913 0.706913 -0.023404
vn 0.706935 0.706935 0.022064
vn 0.704955 0.704955 0.077956
vn 0.706935 0.706935 0.022064
vn 0.704955 0.704955 0.077956
vn 0.694843 0.694843 0.185438
vn 0.694843 0.694843 0.185438
vn 0.678743 0.678743 0.280384
vn 0.678743 0.678743 0.280384
vn 0.652999 0.652999 0.383647
vn 0.652999 0.652999 0.383647
vn 0.619599 0.619599 0.481865
vn 0.619599 0.619599 0.481865
vn 0.581853 0.581853 0.568238
vn 0.581853 0.581853 0.568238
vn 0.535235 0.535235 0.653488
vn 0.535235 0.535235 0.653488
vn 0.489641 0.489641 0.721459
vn 0.489641 0.489641 0.721459
vn 0.439277 0.439277 0.783627
vn 0.439277 0.439277 0.783627
vn 0.378644 0.378644 0.844546
vn 0.378644 0.378644 0.844546
vn 0.315967 0.315967 0.894612
vn 0.315967 0.315967 0.894612
vn 0.254540 0.254540 0.932963
vn 0.254540 0.254540 0.932963
vn 0.186700 0.186700 0.964514
vn 0.186700 0.186700 0.964514
vn 0.128600 0.128600 0.983323
vn 0.128600 0.128600 0.983323
vn 0.066548 0.066548 0.995562
vn 0.066548 0.066548 0.995562
vn 0.034696 0.034696 0.998795
vn 0.034696 0.034696 0.998795
vn -0.707107 -0.707107 -0.000000
vn -0.707107 -0.707107 -0.000000
vn -0.707107 -0.707107 -0.000000
vn -0.707107 -0.707107 -0.000000
vn 0.707107 -0.707107 0.000000
vn 0.707107 -0.707107 0.000000
vn 0.707107 -0.707107 0.000000
vn 0.707107 -0.707107 0.000000
vn 0.707107 -0.707107 0.000000
vn 0.707107 -0.707107 0.000000
vn 0.707107 -0.707107 0.000000
vn 0.707107 -0.707107 0.000000
vn 0.707107 -0.707107 0.000000
vn 0.707107 -0.707107 0.000000
vn 0.707107 -0.707107 0.000000
vn 0.707107 -0.707107 0.000000
vn 0.707107 -0.707107 0.000000
vn 0.707107 -0.707107 0.000000
vn 0.707107 -0.707107 0.000000
vn 0.707107 -0.707107 0.000000
vn 0.707107 -0.707107 0.000000
vn 0.707107 -0.707107 0.000000
vn 0.707107 -0.707107 0.000000
vn 0.707107 -0.707107 0.000000
vn 0.707107 -0.707107 0.000000
vn 0.707107 -0.707107 0.000000
vn 0.707107 -0.707107 0.000000
vn 0.707107 -0.707107 0.000000
vn 0.707107 -0.707107 0.000000
vn 0.707107 -0.707107 0.000000
vn 0.707107 -0.707107 0.000000
vn 0.707107 -0.707107 0.000000
vn 0.707107 -0.707107 0.000000
vn 0.707107 -0.707107 0.000000
vn 0.707107 -0.707107 0.000000
vn 0.707107 -0.707107 0.000000
vn 0.707107 -0.707107 0.000000
vn 0.707107 -0.707107 0.000000
vn 0.707107 -0.707107 0.000000
vn 0.707107 -0.707107 0.000000
vn 0.707107 -0.707107 0.000000
vn 0.707107 -0.707107 0.000000
vn 0.707107 -0.707107 0.000000
vn 0.707107 -0.707107 0.000000
vn 0.707107 -0.707107 0.000000
vn 0.707107 -0.707107 0.000000
vn 0.707107 -0.707107 0.000000
vn 0.707107 -0.707107 0.000000
vn 0.707107 -0.707107 0.000000
vn 0.707107 -0.707107 0.000000
vn 0.707107 -0.707107 0.000000
vn 0.707107 -0.707107 0.000000
vn 0.707107 -0.707107 0.000000
vn 0.707107 -0.707107 0.000000
vn 0.707107 -0.707107 0.000000
vn 0.707107 -0.707107 0.000000
vn 0.707107 -0.707107 0.000000
vn 0.707107 -0.707107 0.000000
vn 0.707107 -0.707107 0.000000
vn 0.707107 -0.707107 0.000000
vn 0.707107 -0.707107 0.000000
vn 0.707107 -0.707107 0.000000
vn 0.707107 -0.707107 0.000000
vn 0.707107 -0.707107 0.000000
vn 0.707107 -0.707107 0.000000
vn 0.707107 -0.707107 0.000000
vn 0.707107 -0.707107 0.000000
vn 0.707107 -0.707107 0.000000
vn 0.707107 -0.707107 0.000000
vn 0.707107 -0.707107 0.000000
vn 0.707107 -0.707107 0.000000
vn 0.707107 -0.707107 0.000000
vn 0.707107 -0.707107 0.000000
vn 0.707107 -0.707107 0.000000
vn 0.707107 -0.707107 0.000000
vn 0.707107 -0.707107 0.000000
vn 0.707107 -0.707107 0.000000
vn 0.707107 -0.707107 0.000000
vn 0.707107 -0.707107 0.000000
vn 0.707107 -0.707107 0.000000
vn 0.707107 -0.707107 0.000000
vn 0.707107 -0.707107 0.000000
vn 0.707107 -0.707107 0.000000
vn 0.707107 -0.707107 0.000000
vn 0.707107 -0.707107 0.000000
vn 0.707107 -0.707107 0.000000
vn 0.707107 -0.707107 0.000000
vn 0.707107 -0.707107 0.000000
vn 0.707107 -0.707107 0.000000
vn 0.707107 -0.707107 0.000000
vn 0.707107 -0.707107 0.000000
vn 0.707107 -0.707107 0.000000
vn 0.707107 -0.707107 0.000000
vn -0.707107 0.707107 -0.000000
vn -0.707107 0.707107 -0.000000
vn -0.707107 0.707107 -0.000000
vn -0.707107 0.707107 -0.000000
vn -0.707107 0.707107 -0.000000
vn -0.707107 0.707107 -0.000000
vn -0.707107 0.707107 -0.000000
vn -0.707107 0.707107 -0.000000
vn -0.707107 0.707107 -0.000000
vn -0.707107 0.707107 -0.000000
vn -0.707107 0.707107 -0.000000
vn -0.707107 0.707107 -0.000000
vn -0.707107 0.707107 -0.000000
vn -0.707107 0.707107 -0.000000
vn -0.707107 0.707107 -0.000000
vn -0.707107 0.707107 -0.000000
vn -0.707107 0.707107 -0.000000
vn -0.707107 0.707107 -0.000000
vn -0.707107 0.707107 -0.000000
vn -0.707107 0.707107 -0.000000
vn -0.707107 0.707107 -0.000000
vn -0.707107 0.707107 -0.000000
vn -0.707107 0.707107 -0.000000
vn -0.707107 0.707107 -0.000000
vn -0.707107 0.707107 -0.000000
vn -0.707107 0.707107 -0.000000
vn -0.707107 0.707107 -0.000000
vn -0.707107 0.707107 -0.000000
vn -0.707107 0.707107 -0.000000
vn -0.707107 0.707107 -0.000000
vn -0.707107 0.707107 -0.000000
vn -0.707107 0.707107 -0.000000
vn -0.707107 0.707107 -0.000000
vn -0.707107 0.707107 -0.000000
vn -0.707107 0.707107 -0.000000
vn -0.707107 0.707107 -0.000000
vn -0.707107 0.707107 -0.000000
vn -0.707107 0.707107 -0.000000
vn -0.707107 0.707107 -0.000000
vn -0.707107 0.707107 -0.000000
vn -0.707107 0.707107 -0.000000
vn -0.707107 0.707107 -0.000000
vn -0.707107 0.707107 -0.000000
vn -0.707107 0.707107 -0.000000
vn -0.707107 0.707107 -0.000000
vn -0.707107 0.707107 -0.000000
vn -0.707107 0.707107 -0.000000
vn -0.707107 0.707107 -0.000000
vn -0.707107 0.707107 -0.000000
vn -0.707107 0.707107 -0.000000
vn -0.707107 0.707107 -0.000000
vn -0.707107 0.707107 -0.000000
vn -0.707107 0.707107 -0.000000
vn -0.707107 0.707107 -0.000000
vn -0.707107 0.707107 -0.000000
vn -0.707107 0.707107 -0.000000
vn -0.707107 0.707107 -0.000000
vn -0.707107 0.707107 -0.000000
vn -0.707107 0.707107 -0.000000
vn -0.707107 0.707107 -0.000000
vn -0.707107 0.707107 -0.000000
vn -0.707107 0.707107 -0.000000
vn -0.707107 0.707107 -0.000000
vn -0.707107 0.707107 -0.000000
vn -0.707107 0.707107 -0.000000
vn -0.707107 0.707107 -0.000000
vn -0.707107 0.707107 -0.000000
vn -0.707107 0.707107 -0.000000
vn -0.707107 0.707107 -0.000000
vn -0.707107 0.707107 -0.000000
vn -0.707107 0.707107 -0.000000
vn -0.707107 0.707107 -0.000000
vn -0.707107 0.707107 -0.000000
vn -0.707107 0.707107 -0.000000
vn -0.707107 0.707107 -0.000000
vn -0.707107 0.707107 -0.000000
vn -0.707107 0.707107 -0.000000
vn -0.707107 0.707107 -0.000000
vn -0.707107 0.707107 -0.000000
vn -0.707107 0.707107 -0.000000
vn -0.707107 0.707107 -0.000000
vn -0.707107 0.707107 -0.000000
vn -0.707107 0.707107 -0.000000
vn -0.707107 0.707107 -0.000000
vn -0.707107 0.707107 -0.000000
vn -0.707107 0.707107 -0.000000
vn -0.707107 0.707107 -0.000000
vn -0.707107 0.707107 -0.000000
vn -0.707107 0.707107 -0.000000
usemtl Opaque(202,209,238)
f 1/1/1 2/2/2 32/3/3
f 32/3/3 2/2/2 31/4/4
f 31/4/4 2/2/2 3/5/5
f 31/4/4 3/5/5 30/6/6
f 30/6/6 3/5/5 4/7/7
f 30/6/6 4/7/7 29/8/8
f 29/8/8 4/7/7 5/9/9
f 29/8/8 5/9/9 28/10/10
f 28/10/10 5/9/9 6/11/11
f 28/10/10 6/11/11 27/12/12
f 27/12/12 6/11/11 7/13/13
f 27/12/12 7/13/13 26/14/14
f 26/14/14 7/13/13 8/15/15
f 26/14/14 8/15/15 25/16/16
f 25/16/16 8/15/15 9/17/17
f 25/16/16 9/17/17 24/18/18
f 24/18/18 9/17/17 10/19/19
f 24/18/18 10/19/19 23/20/20
f 23/20/20 10/19/19 11/21/21
f 23/20/20 11/21/21 22/22/22
f 22/22/22 11/21/21 12/23/23
f 22/22/22 12/23/23 21/24/24
f 21/24/24 12/23/23 13/25/25
f 21/24/24 13/25/25 20/26/26
f 20/26/26 13/25/25 14/27/27
f 20/26/26 14/27/27 19/28/28
f 19/28/28 14/27/27 15/29/29
f 19/28/28 15/29/29 18/30/30
f 18/30/30 15/29/29 16/31/31
f 18/30/30 16/31/31 17/32/32
f 16/33/33 33/34/34 17/35/35
f 17/35/35 33/34/34 64/36/36
f 64/36/36 33/34/34 34/37/37
f 64/36/36 34/37/37 63/38/38
f 63/38/38 34/37/37 35/39/39
f 63/38/38 35/39/39 62/40/40
f 62/40/40 35/39/39 36/41/41
f 62/40/40 36/41/41 61/42/42
f 61/42/42 36/41/41 37/43/43
f 61/42/42 37/43/43 60/44/44
f 60/44/44 37/43/43 38/45/45
f 60/44/44 38/45/45 59/46/46
f 59/46/46 38/45/45 39/47/47
f 59/46/46 39/47/47 58/48/48
f 58/48/48 39/47/47 40/49/49
f 58/48/48 40/49/49 57/50/50
f 57/50/50 40/49/49 41/51/51
f 57/50/50 41/51/51 56/52/52
f 56/52/52 41/51/51 42/53/53
f 56/52/52 42/53/53 55/54/54
f 55/54/54 42/53/53 43/55/55
f 55/54/54 43/55/55 54/56/56
f 54/56/56 43/55/55 44/57/57
f 54/56/56 44/57/57 53/58/58
f 53/58/58 44/57/57 45/59/59
f 53/58/58 45/59/59 52/60/60
f 52/60/60 45/59/59 46/61/61
f 52/60/60 46/61/61 51/62/62
f 51/62/62 46/61/61 47/63/63
f 51/62/62 47/63/63 50/64/64
f 50/64/64 47/63/63 48/65/65
f 50/64/64 48/65/65 49/66/66
f 48/67/67 65/68/68 49/69/69
f 49/69/69 65/68/68 84/70/70
f 84/70/70 65/68/68 66/71/71
f 84/70/70 66/71/71 83/72/72
f 83/72/72 66/71/71 67/73/73
f 83/72/72 67/73/73 82/74/74
f 82/74/74 67/73/73 68/75/75
f 82/74/74 68/75/75 81/76/76
f 81/76/76 68/75/75 69/77/77
f 81/76/76 69/77/77 80/78/78
f 80/78/78 69/77/77 70/79/79
f 80/78/78 70/79/79 79/80/80
f 79/80/80 70/79/79 71/81/81
f 79/80/80 71/81/81 78/82/82
f 78/82/82 71/81/81 72/83/83
f 78/82/82 72/83/83 77/84/84
f 77/84/84 72/83/83 73/85/85
f 77/84/84 73/85/85 76/86/86
f 76/86/86 73/85/85 74/87/87
f 76/86/86 74/87/87 75/88/88
f 74/89/89 85/90/90 75/91/91
f 75/91/91 85/90/90 86/92/92
f 85/93/93 87/94/94 86/95/95
f 86/95/95 87/94/94 88/96/96
f 87/97/97 89/98/98 88/99/99
f 88/99/99 89/98/98 90/100/100
f 89/101/101 91/102/102 90/103/103
f 90/103/103 91/102/102 92/104/104
f 91/105/105 93/106/106 92/107/107
f 92/107/107 93/106/106 94/108/108
f 93/109/109 95/110/110 94/111/111
f 94/111/111 95/110/110 114/112/112
f 114/112/112 95/110/110 96/113/113
f 114/112/112 96/113/113 113/114/114
f 113/114/114 96/113/113 97/115/115
f 113/114/114 97/115/115 112/116/116
f 112/116/116 97/115/115 98/117/117
f 112/116/116 98/117/117 111/118/118
f 111/118/118 98/117/117 99/119/119
f 111/118/118 99/119/119 110/120/120
f 110/120/120 99/119/119 100/121/121
f 110/120/120 100/121/121 109/122/122
f 109/122/122 100/121/121 101/123/123
f 109/122/122 101/123/123 108/124/124
f 108/124/124 101/123/123 102/125/125
f 108/124/124 102/125/125 107/126/126
f 107/126/126 102/125/125 103/127/127
f 107/126/126 103/127/127 106/128/128
f 106/128/128 103/127/127 104/129/129
f 106/128/128 104/129/129 105/130/130
f 104/131/131 115/132/132 105/133/133
f 105/133/133 115/132/132 146/134/134
f 146/134/134 115/132/132 116/135/135
f 146/134/134 116/135/135 145/136/136
f 145/136/136 116/135/135 117/137/137
f 145/136/136 117/137/137 144/138/138
f 144/138/138 117/137/137 118/139/139
f 144/138/138 118/139/139 143/140/140
f 143/140/140 118/139/139 119/141/141
f 143/140/140 119/141/141 142/142/142
f 142/142/142 119/141/141 120/143/143
f 142/142/142 120/143/143 141/144/144
f 141/144/144 120/143/143 121/145/145
f 141/144/144 121/145/145 140/146/146
f 140/146/146 121/145/145 122/147/147
f 140/146/146 122/147/147 139/148/148
f 139/148/148 122/147/147 123/149/149
f 139/148/148 123/149/149 138/150/150
f 138/150/150 123/149/149 124/151/151
f 138/150/150 124/151/151 137/152/152
f 137/152/152 124/151/151 125/153/153
f 137/152/152 125/153/153 136/154/154
f 136/154/154 125/153/153 126/155/155
f 136/154/154 126/155/155 135/156/156
f 135/156/156 126/155/155 127/157/157
f 135/156/156 127/157/157 134/158/158
f 134/158/158 127/157/157 128/159/159
f 134/158/158 128/159/159 133/160/160
f 133/160/160 128/159/159 129/161/161
f 133/160/160 129/161/161 132/162/162
f 132/162/162 129/161/161 130/163/163
f 132/162/162 130/163/163 131/164/164
f 130/165/165 147/166/166 131/167/167
f 131/167/167 147/166/166 178/168/168
f 178/168/168 147/166/166 148/169/169
f 178/168/168 148/169/169 177/170/170
f 177/170/170 148/169/169 149/171/171
f 177/170/170 149/171/171 176/172/172
f 176/172/172 149/171/171 150/173/173
f 176/172/172 150/173/173 175/174/174
f 175/174/174 150/173/173 151/175/175
f 175/174/174 151/175/175 174/176/176
f 174/176/176 151/175/175 152/177/177
f 174/176/176 152/177/177 173/178/178
f 173/178/178 152/177/177 153/179/179
f 173/178/178 153/179/179 172/180/180
f 172/180/180 153/179/179 154/181/181
f 172/180/180 154/181/181 171/182/182
f 171/182/182 154/181/181 155/183/183
f 171/182/182 155/183/183 170/184/184
f 170/184/184 155/183/183 156/185/185
f 170/184/184 156/185/185 169/186/186
f 169/186/186 156/185/185 157/187/187
f 169/186/186 157/187/187 168/188/188
f 168/188/188 157/187/187 158/189/189
f 168/188/188 158/189/189 167/190/190
f 167/190/190 158/189/189 159/191/191
f 167/190/190 159/191/191 166/192/192
f 166/192/192 159/191/191 160/193/193
f 166/192/192 160/193/193 165/194/194
f 165/194/194 160/193/193 161/195/195
f 165/194/194 161/195/195 164/196/196
f 164/196/196 161/195/195 162/197/197
f 164/196/196 162/197/197 163/198/198
f 162/199/199 1/200/200 163/201/201
f 163/201/201 1/200/200 32/202/202
f 31/203/203 165/204/204 32/205/205
f 32/205/205 165/204/204 164/206/206
f 32/205/205 164/206/206 163/207/207
f 165/204/204 31/203/203 166/208/208
f 166/208/208 31/203/203 30/209/209
f 166/208/208 30/209/209 167/210/210
f 167/210/210 30/209/209 168/211/211
f 168/211/211 30/209/209 29/212/212
f 168/211/211 29/212/212 169/213/213
f 169/213/213 29/212/212 28/214/214
f 169/213/213 28/214/214 170/215/215
f 170/215/215 28/214/214 27/216/216
f 170/215/215 27/216/216 171/217/217
f 171/217/217 27/216/216 26/218/218
f 171/217/217 26/218/218 172/219/219
f 172/219/219 26/218/218 25/220/220
f 172/219/219 25/220/220 173/221/221
f 173/221/221 25/220/220 24/222/222
f 173/221/221 24/222/222 23/223/223
f 173/221/221 23/223/223 174/224/224
f 174/224/224 23/223/223 22/225/225
f 174/224/224 22/225/225 175/226/226
f 175/226/226 22/225/225 21/227/227
f 175/226/226 21/227/227 176/228/228
f 176/228/228 21/227/227 20/229/229
f 176/228/228 20/229/229 177/230/230
f 177/230/230 20/229/229 19/231/231
f 177/230/230 19/231/231 178/232/232
f 178/232/232 19/231/231 18/233/233
f 178/232/232 18/233/233 17/234/234
f 178/232/232 17/234/234 131/235/235
f 131/235/235 17/234/234 64/236/236
f 131/235/235 64/236/236 132/237/237
f 132/237/237 64/236/236 63/238/238
f 132/237/237 63/238/238 133/239/239
f 133/239/239 63/238/238 62/240/240
f 133/239/239 62/240/240 134/241/241
f 134/241/241 62/240/240 61/242/242
f 134/241/241 61/242/242 135/243/243
f 135/243/243 61/242/242 60/244/244
f 135/243/243 60/244/244 59/245/245
f 135/243/243 59/245/245 136/246/246
f 136/246/246 59/245/245 58/247/247
f 136/246/246 58/247/247 137/248/248
f 137/248/248 58/247/247 57/249/249
f 137/248/248 57/249/249 138/250/250
f 138/250/250 57/249/249 56/251/251
f 138/250/250 56/251/251 139/252/252
f 139/252/252 56/251/251 55/253/253
f 139/252/252 55/253/253 140/254/254
f 140/254/254 55/253/253 54/255/255
f 140/254/254 54/255/255 141/256/256
f 141/256/256 54/255/255 53/257/257
f 141/256/256 53/257/257 142/258/258
f 142/258/258 53/257/257 52/259/259
f 142/258/258 52/259/259 143/260/260
f 143/260/260 52/259/259 144/261/261
f 144/261/261 52/259/259 51/262/262
f 144/261/261 51/262/262 145/263/263
f 145/263/263 51/262/262 50/264/264
f 145/263/263 50/264/264 146/265/265
f 146/265/265 50/264/264 105/266/266
f 105/266/266 50/264/264 49/267/267
f 105/266/266 49/267/267 106/268/268
f 106/268/268 49/267/267 84/269/269
f 106/268/268 84/269/269 107/270/270
f 107/270/270 84/269/269 108/271/271
f 108/271/271 84/269/269 83/272/272
f 108/271/271 83/272/272 109/273/273
f 109/273/273 83/272/272 110/274/274
f 110/274/274 83/272/272 82/275/275
f 110/274/274 82/275/275 111/276/276
f 111/276/276 82/275/275 81/277/277
f 111/276/276 81/277/277 112/278/278
f 112/278/278 81/277/277 80/279/279
f 112/278/278 80/279/279 79/280/280
f 112/278/278 79/280/280 113/281/281
f 113/281/281 79/280/280 78/282/282
f 113/281/281 78/282/282 114/283/283
f 114/283/283 78/282/282 77/284/284
f 114/283/283 77/284/284 76/285/285
f 114/283/283 76/285/285 94/286/286
f 94/286/286 76/285/285 75/287/287
f 94/286/286 75/287/287 92/288/288
f 92/288/288 75/287/287 86/289/289
f 92/288/288 86/289/289 88/290/290
f 88/290/290 90/291/291 92/288/288
f 15/292/292 147/293/293 16/294/294
f 16/294/294 147/293/293 130/295/295
f 16/294/294 130/295/295 33/296/296
f 33/296/296 130/295/295 129/297/297
f 33/296/296 129/297/297 34/298/298
f 34/298/298 129/297/297 128/299/299
f 34/298/298 128/299/299 35/300/300
f 35/300/300 128/299/299 127/301/301
f 35/300/300 127/301/301 36/302/302
f 36/302/302 127/301/301 126/303/303
f 36/302/302 126/303/303 37/304/304
f 37/304/304 126/303/303 38/305/305
f 38/305/305 126/303/303 125/306/306
f 38/305/305 125/306/306 39/307/307
f 39/307/307 125/306/306 124/308/308
f 39/307/307 124/308/308 40/309/309
f 40/309/309 124/308/308 123/310/310
f 40/309/309 123/310/310 41/311/311
f 41/311/311 123/310/310 122/312/312
f 41/311/311 122/312/312 42/313/313
f 42/313/313 122/312/312 121/314/314
f 42/313/313 121/314/314 43/315/315
f 43/315/315 121/314/314 120/316/316
f 43/315/315 120/316/316 44/317/317
f 44/317/317 120/316/316 119/318/318
f 44/317/317 119/318/318 45/319/319
f 45/319/319 119/318/318 118/320/320
f 45/319/319 118/320/320 117/321/321
f 15/292/292 14/322/322 147/293/293
f 147/293/293 14/322/322 148/323/323
f 148/323/323 14/322/322 13/324/324
f 148/323/323 13/324/324 149/325/325
f 149/325/325 13/324/324 12/326/326
f 149/325/325 12/326/326 150/327/327
f 150/327/327 12/326/326 11/328/328
f 150/327/327 11/328/328 151/329/329
f 151/329/329 11/328/328 10/330/330
f 151/329/329 10/330/330 152/331/331
f 152/331/331 10/330/330 9/332/332
f 152/331/331 9/332/332 8/333/333
f 152/331/331 8/333/333 153/334/334
f 153/334/334 8/333/333 7/335/335
f 153/334/334 7/335/335 154/336/336
f 154/336/336 7/335/335 6/337/337
f 154/336/336 6/337/337 155/338/338
f 155/338/338 6/337/337 5/339/339
f 155/338/338 5/339/339 156/340/340
f 156/340/340 5/339/339 4/341/341
f 156/340/340 4/341/341 157/342/342
f 157/342/342 4/341/341 3/343/343
f 157/342/342 3/343/343 158/344/344
f 158/344/344 3/343/343 159/345/345
f 159/345/345 3/343/343 2/346/346
f 159/345/345 2/346/346 160/347/347
f 160/347/347 2/346/346 1/348/348
f 160/347/347 1/348/348 161/349/349
f 161/349/349 1/348/348 162/350/350
f 45/319/319 117/321/321 46/351/351
f 46/351/351 117/321/321 116/352/352
f 46/351/351 116/352/352 47/353/353
f 47/353/353 116/352/352 115/354/354
f 47/353/353 115/354/354 104/355/355
f 47/353/353 104/355/355 48/356/356
f 48/356/356 104/355/355 103/357/357
f 48/356/356 103/357/357 65/358/358
f 65/358/358 103/357/357 102/359/359
f 65/358/358 102/359/359 101/360/360
f 65/358/358 101/360/360 66/361/361
f 66/361/361 101/360/360 100/362/362
f 66/361/361 100/362/362 99/363/363
f 66/361/361 99/363/363 67/364/364
f 67/364/364 99/363/363 98/365/365
f 67/364/364 98/365/365 68/366/366
f 68/366/366 98/365/365 97/367/367
f 68/366/366 97/367/367 69/368/368
f 69/368/368 97/367/367 70/369/369
f 70/369/369 97/367/367 96/370/370
f 70/369/369 96/370/370 71/371/371
f 71/371/371 96/370/370 95/372/372
f 71/371/371 95/372/372 72/373/373
f 72/373/373 95/372/372 73/374/374
f 73/374/374 95/372/372 93/375/375
f 73/374/374 93/375/375 74/376/376
f 74/376/376 93/375/375 91/377/377
f 74/376/376 91/377/377 85/378/378
f 85/378/378 91/377/377 87/379/379
f 87/379/379 91/377/377 89/380/380
# 178 vertices
# 380 texture params
# 380 normals
# 352 facets

# 1 groups
