# WaveFront *.obj file (generated by Autodesk ATF)

mtllib body3_visual.mtl

g Body3

v 65.027253 -63.978315 94.812914
v 65.025811 -63.979758 94.798075
v 65.021591 -63.983977 94.784336
v 65.014907 -63.990661 94.772718
v 65.006254 -63.999314 94.764080
v 64.996275 -64.009294 94.759064
v 64.985708 -64.019860 94.758042
v 64.975338 -64.030230 94.761089
v 64.965934 -64.039634 94.767980
v 64.958194 -64.047374 94.778204
v 64.952691 -64.052877 94.791001
v 64.949833 -64.055735 94.805424
v 64.949833 -64.055735 94.820403
v 64.952691 -64.052877 94.834826
v 64.958194 -64.047374 94.847623
v 64.965934 -64.039634 94.857847
v 64.975338 -64.030230 94.864738
v 64.985708 -64.019860 94.867785
v 64.996275 -64.009294 94.866763
v 65.006254 -63.999314 94.861747
v 65.014907 -63.990661 94.853109
v 65.021591 -63.983977 94.841491
v 65.025811 -63.979758 94.827752
v 65.027253 -63.964173 94.812914
v 65.025809 -63.965617 94.829078
v 65.021568 -63.969858 94.844227
v 65.014796 -63.976630 94.857409
v 65.005919 -63.985508 94.867795
v 64.995494 -63.995932 94.874732
v 64.984177 -64.007249 94.877785
v 64.972679 -64.018748 94.876762
v 64.961721 -64.029705 94.871727
v 64.951994 -64.039432 94.862997
v 64.944107 -64.047319 94.851120
v 64.938557 -64.052870 94.836842
v 64.935692 -64.055735 94.821060
v 64.935692 -64.055735 94.804767
v 64.938557 -64.052870 94.788985
v 64.944107 -64.047319 94.774707
v 64.951994 -64.039432 94.762830
v 64.961721 -64.029705 94.754100
v 64.972679 -64.018748 94.749065
v 64.984177 -64.007249 94.748042
v 64.995494 -63.995932 94.751095
v 65.005919 -63.985508 94.758032
v 65.014796 -63.976630 94.768418
v 65.021568 -63.969858 94.781600
v 65.025809 -63.965617 94.796749
v 64.944988 -64.058685 94.812914
v 64.939812 -64.058685 94.812914
v 64.995365 -64.008309 94.871851
v 64.995365 -64.008309 94.753976
v 65.029507 -63.974167 94.805394
v 65.029486 -63.969011 94.804935
v 65.029486 -63.969011 94.820892
v 65.029507 -63.974167 94.820433
v 65.026862 -63.976812 94.790826
v 65.026680 -63.971817 94.789479
v 65.021738 -63.981935 94.777646
v 65.021244 -63.977253 94.775495
v 65.014458 -63.989215 94.766683
v 65.013520 -63.984977 94.763862
v 65.005479 -63.998195 94.758624
v 65.003993 -63.994504 94.755312
v 64.993261 -64.005236 94.750381
v 64.974304 -64.029369 94.755850
v 64.970916 -64.027581 94.752369
v 64.982000 -64.016497 94.749379
v 64.984751 -64.018923 94.753032
v 64.964682 -64.038992 94.762254
v 64.960707 -64.037791 94.759163
v 64.956487 -64.047186 94.771841
v 64.952012 -64.046485 94.769335
v 64.950236 -64.053437 94.784008
v 64.945380 -64.053117 94.782245
v 64.946321 -64.057352 94.797992
v 64.941226 -64.057271 94.797082
v 64.946321 -64.057352 94.827835
v 64.941226 -64.057271 94.828745
v 64.950236 -64.053437 94.841819
v 64.945380 -64.053117 94.843582
v 64.956487 -64.047186 94.853986
v 64.952012 -64.046485 94.856492
v 64.964682 -64.038992 94.863573
v 64.960707 -64.037791 94.866664
v 64.974304 -64.029369 94.869977
v 64.970916 -64.027581 94.873458
v 64.984751 -64.018923 94.872795
v 64.982000 -64.016497 94.876448
v 65.005479 -63.998195 94.867203
v 65.003993 -63.994504 94.870515
v 64.993261 -64.005236 94.875446
v 65.014458 -63.989215 94.859144
v 65.013520 -63.984977 94.861965
v 65.021738 -63.981935 94.848181
v 65.021244 -63.977253 94.850332
v 65.026862 -63.976812 94.835001
v 65.026680 -63.971817 94.836348
v 64.207009 -63.143929 94.812914
v 64.205565 -63.145373 94.796749
v 64.201324 -63.149615 94.781600
v 64.194552 -63.156387 94.768418
v 64.185675 -63.165264 94.758032
v 64.175250 -63.175688 94.751095
v 64.163933 -63.187005 94.748042
v 64.152435 -63.198504 94.749065
v 64.141478 -63.209461 94.754100
v 64.131750 -63.219189 94.762830
v 64.123863 -63.227075 94.774707
v 64.118313 -63.232626 94.788985
v 64.115448 -63.235491 94.804767
v 64.115448 -63.235491 94.821060
v 64.118313 -63.232626 94.836842
v 64.123863 -63.227075 94.851120
v 64.131750 -63.219189 94.862997
v 64.141478 -63.209461 94.871727
v 64.152435 -63.198504 94.876762
v 64.163933 -63.187005 94.877785
v 64.175250 -63.175688 94.874732
v 64.185675 -63.165264 94.867795
v 64.194552 -63.156387 94.857409
v 64.201324 -63.149615 94.844227
v 64.205565 -63.145373 94.829078
v 64.192867 -63.143929 94.812914
v 64.191425 -63.145372 94.827752
v 64.187205 -63.149591 94.841491
v 64.180521 -63.156275 94.853109
v 64.171868 -63.164928 94.861747
v 64.161889 -63.174908 94.866763
v 64.151322 -63.185474 94.867785
v 64.140952 -63.195844 94.864738
v 64.131548 -63.205248 94.857847
v 64.123808 -63.212988 94.847623
v 64.118305 -63.218491 94.834826
v 64.115447 -63.221349 94.820403
v 64.115447 -63.221349 94.805424
v 64.118305 -63.218491 94.791001
v 64.123808 -63.212988 94.778204
v 64.131548 -63.205248 94.767980
v 64.140952 -63.195844 94.761089
v 64.151322 -63.185474 94.758042
v 64.161889 -63.174908 94.759064
v 64.171868 -63.164928 94.764080
v 64.180521 -63.156275 94.772718
v 64.187205 -63.149591 94.784336
v 64.191425 -63.145372 94.798075
v 64.112497 -63.231370 94.812914
v 64.112497 -63.226194 94.812914
v 64.162873 -63.175818 94.871851
v 64.162873 -63.175818 94.753976
v 64.202171 -63.141696 94.804935
v 64.197015 -63.141676 94.805394
v 64.197015 -63.141676 94.820433
v 64.202171 -63.141696 94.820892
v 64.199365 -63.144502 94.789479
v 64.194371 -63.144321 94.790826
v 64.193929 -63.149938 94.775495
v 64.189247 -63.149444 94.777646
v 64.186205 -63.157662 94.763862
v 64.181967 -63.156724 94.766683
v 64.176678 -63.167190 94.755312
v 64.172988 -63.165703 94.758624
v 64.165947 -63.177921 94.750381
v 64.154685 -63.189182 94.749379
v 64.152259 -63.186432 94.753032
v 64.143601 -63.200266 94.752369
v 64.141813 -63.196878 94.755850
v 64.133392 -63.210476 94.759163
v 64.132190 -63.206501 94.762254
v 64.124697 -63.219170 94.769335
v 64.123996 -63.214695 94.771841
v 64.118065 -63.225802 94.782245
v 64.117745 -63.220946 94.784008
v 64.113911 -63.229956 94.797082
v 64.113830 -63.224861 94.797992
v 64.113911 -63.229956 94.828745
v 64.113830 -63.224861 94.827835
v 64.118065 -63.225802 94.843582
v 64.117745 -63.220946 94.841819
v 64.124697 -63.219170 94.856492
v 64.123996 -63.214695 94.853986
v 64.133392 -63.210476 94.866664
v 64.132190 -63.206501 94.863573
v 64.143601 -63.200266 94.873458
v 64.141813 -63.196878 94.869977
v 64.154685 -63.189182 94.876448
v 64.152259 -63.186432 94.872795
v 64.165947 -63.177921 94.875446
v 64.176678 -63.167190 94.870515
v 64.172988 -63.165703 94.867203
v 64.186205 -63.157662 94.861965
v 64.181967 -63.156724 94.859144
v 64.193929 -63.149938 94.850332
v 64.189247 -63.149444 94.848181
v 64.199365 -63.144502 94.836348
v 64.194371 -63.144321 94.835001
v 64.730268 -63.851036 94.812914
v 64.525207 -63.645975 94.812914
v 64.320146 -63.440914 94.812914
v 64.821830 -63.759475 94.804767
v 64.616769 -63.554414 94.804767
v 64.411708 -63.349353 94.804767
v 64.411708 -63.349353 94.821060
v 64.616769 -63.554414 94.821060
v 64.821830 -63.759475 94.821060
v 64.818964 -63.762340 94.788985
v 64.613903 -63.557279 94.788985
v 64.408842 -63.352218 94.788985
v 64.813414 -63.767890 94.774707
v 64.608353 -63.562829 94.774707
v 64.403292 -63.357768 94.774707
v 64.805527 -63.775777 94.762830
v 64.600466 -63.570716 94.762830
v 64.395405 -63.365655 94.762830
v 64.795800 -63.785505 94.754100
v 64.590739 -63.580444 94.754100
v 64.385678 -63.375383 94.754100
v 64.784842 -63.796462 94.749065
v 64.579781 -63.591401 94.749065
v 64.374721 -63.386340 94.749065
v 64.773344 -63.807960 94.748042
v 64.568283 -63.602899 94.748042
v 64.363222 -63.397838 94.748042
v 64.762027 -63.819277 94.751095
v 64.556966 -63.614216 94.751095
v 64.351905 -63.409155 94.751095
v 64.751602 -63.829702 94.758032
v 64.546541 -63.624641 94.758032
v 64.341480 -63.419580 94.758032
v 64.742725 -63.838579 94.768418
v 64.537664 -63.633518 94.768418
v 64.332603 -63.428457 94.768418
v 64.735953 -63.845351 94.781600
v 64.530892 -63.640290 94.781600
v 64.325831 -63.435229 94.781600
v 64.731712 -63.849592 94.796749
v 64.526651 -63.644531 94.796749
v 64.321590 -63.439470 94.796749
v 64.731712 -63.849592 94.829078
v 64.526651 -63.644531 94.829078
v 64.321590 -63.439470 94.829078
v 64.735953 -63.845351 94.844227
v 64.530892 -63.640290 94.844227
v 64.325831 -63.435229 94.844227
v 64.742725 -63.838579 94.857409
v 64.537664 -63.633518 94.857409
v 64.332603 -63.428457 94.857409
v 64.751602 -63.829702 94.867795
v 64.546541 -63.624641 94.867795
v 64.341480 -63.419580 94.867795
v 64.762027 -63.819277 94.874732
v 64.556966 -63.614216 94.874732
v 64.351905 -63.409155 94.874732
v 64.773344 -63.807960 94.877785
v 64.568283 -63.602899 94.877785
v 64.363222 -63.397838 94.877785
v 64.784842 -63.796462 94.876762
v 64.579781 -63.591401 94.876762
v 64.374721 -63.386340 94.876762
v 64.795800 -63.785505 94.871727
v 64.590739 -63.580444 94.871727
v 64.385678 -63.375383 94.871727
v 64.805527 -63.775777 94.862997
v 64.600466 -63.570716 94.862997
v 64.395405 -63.365655 94.862997
v 64.813414 -63.767890 94.851120
v 64.608353 -63.562829 94.851120
v 64.403292 -63.357768 94.851120
v 64.818964 -63.762340 94.836842
v 64.613903 -63.557279 94.836842
v 64.408842 -63.352218 94.836842
vt 0.015708 0.016957 0.000000
vt 0.010472 0.007800 0.000000
vt 0.015708 0.000000 0.000000
vt 0.010472 -0.007800 0.000000
vt 0.015708 -0.016957 0.000000
vt 0.010472 -0.023400 0.000000
vt 0.015708 -0.033913 0.000000
vt 0.010472 -0.039000 0.000000
vt 0.015708 -0.050870 0.000000
vt 0.010472 -0.054601 0.000000
vt 0.015708 -0.067827 0.000000
vt 0.010472 -0.070201 0.000000
vt 0.015708 -0.084783 0.000000
vt 0.010472 -0.085801 0.000000
vt 0.015708 -0.101740 0.000000
vt 0.010472 -0.101401 0.000000
vt 0.010472 -0.117001 0.000000
vt 0.005236 -0.101401 0.000000
vt 0.005236 -0.117001 0.000000
vt 0.000000 -0.109201 0.000000
vt 0.000000 -0.124801 0.000000
vt 0.010472 0.023400 0.000000
vt 0.015708 0.033913 0.000000
vt 0.010472 0.039000 0.000000
vt 0.015708 0.050870 0.000000
vt 0.010472 0.054601 0.000000
vt 0.015708 0.067827 0.000000
vt 0.010472 0.070201 0.000000
vt 0.015708 0.084783 0.000000
vt 0.010472 0.085801 0.000000
vt 0.015708 0.101740 0.000000
vt 0.010472 0.101401 0.000000
vt 0.010472 0.117001 0.000000
vt 0.005236 0.117001 0.000000
vt 0.005236 0.132601 0.000000
vt -0.000000 0.124801 0.000000
vt -0.000000 0.140401 0.000000
vt 0.005236 0.148202 0.000000
vt 0.000000 0.156002 0.000000
vt 0.005236 0.163802 0.000000
vt 0.000000 0.171602 0.000000
vt 0.005236 0.179402 0.000000
vt 0.000000 0.187202 0.000000
vt 0.005236 0.195002 0.000000
vt 0.000000 0.202802 0.000000
vt 0.000000 -0.187202 0.000000
vt 0.005236 -0.195002 0.000000
vt 0.005236 -0.179402 0.000000
vt 0.000000 -0.171602 0.000000
vt 0.005236 -0.163802 0.000000
vt 0.000000 -0.156002 0.000000
vt 0.005236 -0.148202 0.000000
vt 0.000000 -0.140401 0.000000
vt 0.005236 -0.132601 0.000000
vt 0.015708 0.118697 0.000000
vt 0.010472 0.132601 0.000000
vt 0.015708 0.135654 0.000000
vt 0.010472 0.148202 0.000000
vt 0.015708 0.152610 0.000000
vt 0.010472 0.163802 0.000000
vt 0.015708 0.169567 0.000000
vt 0.010472 0.179402 0.000000
vt 0.015708 0.186524 0.000000
vt 0.010472 0.195002 0.000000
vt 0.010472 -0.195002 0.000000
vt 0.015708 -0.203480 0.000000
vt 0.015708 -0.186524 0.000000
vt 0.010472 -0.179402 0.000000
vt 0.015708 -0.169567 0.000000
vt 0.010472 -0.163802 0.000000
vt 0.015708 -0.152610 0.000000
vt 0.010472 -0.148202 0.000000
vt 0.015708 -0.135654 0.000000
vt 0.010472 -0.132601 0.000000
vt 0.015708 -0.118697 0.000000
vt -0.000000 -0.015600 0.000000
vt 0.005236 -0.007800 0.000000
vt 0.000000 -0.000000 0.000000
vt 0.005236 0.007800 0.000000
vt -0.000000 0.015600 0.000000
vt 0.005236 0.023400 0.000000
vt -0.000000 0.031200 0.000000
vt 0.005236 0.039000 0.000000
vt 0.000000 0.046800 0.000000
vt 0.005236 0.054601 0.000000
vt -0.000000 0.062401 0.000000
vt 0.005236 0.070201 0.000000
vt -0.000000 0.078001 0.000000
vt 0.005236 0.085801 0.000000
vt -0.000000 0.093601 0.000000
vt 0.005236 0.101401 0.000000
vt -0.000000 0.109201 0.000000
vt 0.005236 -0.023400 0.000000
vt -0.000000 -0.031200 0.000000
vt 0.005236 -0.039000 0.000000
vt 0.000000 -0.046800 0.000000
vt 0.005236 -0.054601 0.000000
vt -0.000000 -0.062401 0.000000
vt 0.005236 -0.070201 0.000000
vt -0.000000 -0.078001 0.000000
vt 0.005236 -0.085801 0.000000
vt 0.000000 -0.093601 0.000000
vt -0.000000 0.015600 0.000000
vt -0.005236 0.007800 0.000000
vt -0.000000 -0.000000 0.000000
vt -0.005236 -0.007800 0.000000
vt -0.000000 -0.015600 0.000000
vt -0.005236 -0.023400 0.000000
vt -0.000000 -0.031200 0.000000
vt -0.005236 -0.039000 0.000000
vt 0.000000 -0.046800 0.000000
vt -0.005236 -0.054601 0.000000
vt -0.000000 -0.062401 0.000000
vt -0.005236 -0.070201 0.000000
vt -0.000000 -0.078001 0.000000
vt -0.005236 -0.085801 0.000000
vt 0.000000 -0.093601 0.000000
vt -0.005236 -0.101401 0.000000
vt -0.000000 -0.109201 0.000000
vt -0.005236 -0.117001 0.000000
vt 0.000000 -0.124801 0.000000
vt -0.005236 -0.132601 0.000000
vt 0.000000 -0.140401 0.000000
vt -0.005236 -0.148202 0.000000
vt -0.000000 -0.156002 0.000000
vt -0.005236 -0.163802 0.000000
vt -0.000000 -0.171602 0.000000
vt -0.005236 -0.179402 0.000000
vt 0.000000 -0.187202 0.000000
vt -0.005236 -0.195002 0.000000
vt 0.000000 -0.202802 0.000000
vt 0.000000 0.187202 0.000000
vt -0.005236 0.195002 0.000000
vt -0.005236 0.179402 0.000000
vt -0.000000 0.171602 0.000000
vt -0.005236 0.163802 0.000000
vt -0.000000 0.156002 0.000000
vt -0.005236 0.148202 0.000000
vt -0.000000 0.140401 0.000000
vt -0.005236 0.132601 0.000000
vt 0.000000 0.124801 0.000000
vt -0.005236 0.117001 0.000000
vt -0.000000 0.109201 0.000000
vt -0.005236 0.101401 0.000000
vt -0.000000 0.093601 0.000000
vt -0.005236 0.085801 0.000000
vt -0.000000 0.078001 0.000000
vt -0.005236 0.070201 0.000000
vt -0.000000 0.062401 0.000000
vt -0.005236 0.054601 0.000000
vt 0.000000 0.046800 0.000000
vt -0.005236 0.039000 0.000000
vt -0.000000 0.031200 0.000000
vt -0.005236 0.023400 0.000000
vt -0.015708 -0.016957 0.000000
vt -0.010472 -0.007800 0.000000
vt -0.015708 -0.000000 0.000000
vt -0.010472 0.007800 0.000000
vt -0.015708 0.016957 0.000000
vt -0.010472 0.023400 0.000000
vt -0.015708 0.033913 0.000000
vt -0.010472 0.039000 0.000000
vt -0.015708 0.050870 0.000000
vt -0.010472 0.054601 0.000000
vt -0.015708 0.067827 0.000000
vt -0.010472 0.070201 0.000000
vt -0.015708 0.084783 0.000000
vt -0.010472 0.085801 0.000000
vt -0.015708 0.101740 0.000000
vt -0.010472 0.101401 0.000000
vt -0.010472 0.117001 0.000000
vt -0.010472 -0.023400 0.000000
vt -0.015708 -0.033913 0.000000
vt -0.010472 -0.039000 0.000000
vt -0.015708 -0.050870 0.000000
vt -0.010472 -0.054601 0.000000
vt -0.015708 -0.067827 0.000000
vt -0.010472 -0.070201 0.000000
vt -0.015708 -0.084783 0.000000
vt -0.010472 -0.085801 0.000000
vt -0.015708 -0.101740 0.000000
vt -0.010472 -0.101401 0.000000
vt -0.010472 -0.117001 0.000000
vt -0.015708 -0.118697 0.000000
vt -0.010472 -0.132601 0.000000
vt -0.015708 -0.135654 0.000000
vt -0.010472 -0.148202 0.000000
vt -0.015708 -0.152610 0.000000
vt -0.010472 -0.163802 0.000000
vt -0.015708 -0.169567 0.000000
vt -0.010472 -0.179402 0.000000
vt -0.015708 -0.186524 0.000000
vt -0.010472 -0.195002 0.000000
vt -0.010472 0.195002 0.000000
vt -0.015708 0.203480 0.000000
vt -0.015708 0.186524 0.000000
vt -0.010472 0.179402 0.000000
vt -0.015708 0.169567 0.000000
vt -0.010472 0.163802 0.000000
vt -0.015708 0.152610 0.000000
vt -0.010472 0.148202 0.000000
vt -0.015708 0.135654 0.000000
vt -0.010472 0.132601 0.000000
vt -0.015708 0.118697 0.000000
vt -0.010000 0.016336 0.000000
vt -0.300000 0.008168 0.000000
vt -0.010000 -0.000000 0.000000
vt -0.300000 -0.008168 0.000000
vt -0.010000 -0.016336 0.000000
vt -0.300000 -0.024504 0.000000
vt -0.010000 -0.032673 0.000000
vt -0.300000 -0.040841 0.000000
vt -0.010000 -0.049009 0.000000
vt -0.300000 -0.057177 0.000000
vt -0.010000 -0.065345 0.000000
vt -0.300000 -0.073513 0.000000
vt -0.010000 -0.081681 0.000000
vt -0.300000 -0.089850 0.000000
vt -0.010000 -0.098018 0.000000
vt -0.300000 -0.106186 0.000000
vt -0.010000 -0.114354 0.000000
vt -0.300000 -0.122522 0.000000
vt -0.010000 -0.130690 0.000000
vt -0.300000 -0.138858 0.000000
vt -0.010000 -0.147027 0.000000
vt -0.300000 -0.155195 0.000000
vt -0.010000 -0.163363 0.000000
vt -0.300000 -0.171531 0.000000
vt -0.010000 -0.179699 0.000000
vt -0.300000 -0.187867 0.000000
vt -0.010000 -0.196035 0.000000
vt -0.300000 -0.204204 0.000000
vt -0.010000 -0.212372 0.000000
vt -0.010000 0.196035 0.000000
vt -0.300000 0.204204 0.000000
vt -0.300000 0.187867 0.000000
vt -0.010000 0.179699 0.000000
vt -0.300000 0.171531 0.000000
vt -0.010000 0.163363 0.000000
vt -0.300000 0.155195 0.000000
vt -0.010000 0.147027 0.000000
vt -0.300000 0.138858 0.000000
vt -0.010000 0.130690 0.000000
vt -0.300000 0.122522 0.000000
vt -0.010000 0.114354 0.000000
vt -0.300000 0.106186 0.000000
vt -0.010000 0.098018 0.000000
vt -0.300000 0.089850 0.000000
vt -0.010000 0.081681 0.000000
vt -0.300000 0.073513 0.000000
vt -0.010000 0.065345 0.000000
vt -0.300000 0.057177 0.000000
vt -0.010000 0.049009 0.000000
vt -0.300000 0.040841 0.000000
vt -0.010000 0.032673 0.000000
vt -0.300000 0.024504 0.000000
vt -1.170000 -0.016336 0.000000
vt -0.880000 -0.008168 0.000000
vt -1.170000 0.000000 0.000000
vt -0.880000 0.008168 0.000000
vt -1.170000 0.016336 0.000000
vt -0.880000 0.024504 0.000000
vt -1.170000 0.032673 0.000000
vt -0.880000 0.040841 0.000000
vt -1.170000 0.049009 0.000000
vt -0.880000 0.057177 0.000000
vt -1.170000 0.065345 0.000000
vt -0.880000 0.073513 0.000000
vt -1.170000 0.081681 0.000000
vt -0.880000 0.089850 0.000000
vt -1.170000 0.098018 0.000000
vt -0.880000 0.106186 0.000000
vt -1.170000 0.114354 0.000000
vt -0.880000 0.122522 0.000000
vt -1.170000 0.130690 0.000000
vt -0.880000 0.138858 0.000000
vt -1.170000 0.147027 0.000000
vt -0.880000 0.155195 0.000000
vt -1.170000 0.163363 0.000000
vt -0.880000 0.171531 0.000000
vt -1.170000 0.179699 0.000000
vt -0.880000 0.187867 0.000000
vt -1.170000 0.196035 0.000000
vt -0.880000 0.204204 0.000000
vt -1.170000 0.212372 0.000000
vt -1.170000 -0.196035 0.000000
vt -0.880000 -0.204204 0.000000
vt -0.880000 -0.187867 0.000000
vt -1.170000 -0.179699 0.000000
vt -0.880000 -0.171531 0.000000
vt -1.170000 -0.163363 0.000000
vt -0.880000 -0.155195 0.000000
vt -1.170000 -0.147027 0.000000
vt -0.880000 -0.138858 0.000000
vt -1.170000 -0.130690 0.000000
vt -0.880000 -0.122522 0.000000
vt -1.170000 -0.114354 0.000000
vt -0.880000 -0.106186 0.000000
vt -1.170000 -0.098018 0.000000
vt -0.880000 -0.089850 0.000000
vt -1.170000 -0.081681 0.000000
vt -0.880000 -0.073513 0.000000
vt -1.170000 -0.065345 0.000000
vt -0.880000 -0.057177 0.000000
vt -1.170000 -0.049009 0.000000
vt -0.880000 -0.040841 0.000000
vt -1.170000 -0.032673 0.000000
vt -0.880000 -0.024504 0.000000
vt -0.590000 0.204204 0.000000
vt -0.590000 0.187867 0.000000
vt -0.590000 0.171531 0.000000
vt -0.590000 0.155195 0.000000
vt -0.590000 0.138858 0.000000
vt -0.590000 0.122522 0.000000
vt -0.590000 0.106186 0.000000
vt -0.590000 0.089850 0.000000
vt -0.590000 0.073513 0.000000
vt -0.590000 0.057177 0.000000
vt -0.590000 0.040841 0.000000
vt -0.590000 0.024504 0.000000
vt -0.590000 0.008168 0.000000
vt -0.590000 -0.008168 0.000000
vt -0.590000 -0.024504 0.000000
vt -0.590000 -0.040841 0.000000
vt -0.590000 -0.057177 0.000000
vt -0.590000 -0.073513 0.000000
vt -0.590000 -0.089850 0.000000
vt -0.590000 -0.106186 0.000000
vt -0.590000 -0.122522 0.000000
vt -0.590000 -0.138858 0.000000
vt -0.590000 -0.155195 0.000000
vt -0.590000 -0.171531 0.000000
vt -0.590000 -0.187867 0.000000
vt -0.590000 -0.204204 0.000000
vt -0.055000 -0.000000 0.000000
vt -0.052960 -0.014839 0.000000
vt -0.052960 0.014839 0.000000
vt -0.046993 0.028577 0.000000
vt -0.046993 -0.028577 0.000000
vt -0.037540 0.040196 0.000000
vt -0.037540 -0.040196 0.000000
vt -0.025304 0.048834 0.000000
vt -0.025304 -0.048834 0.000000
vt -0.011190 0.053850 0.000000
vt -0.011190 -0.053850 0.000000
vt 0.003753 0.054872 0.000000
vt 0.018418 0.051824 0.000000
vt 0.031717 0.044933 0.000000
vt 0.042664 0.034710 0.000000
vt 0.050447 0.021912 0.000000
vt 0.054488 0.007489 0.000000
vt 0.054488 -0.007489 0.000000
vt 0.050447 -0.021912 0.000000
vt 0.042664 -0.034710 0.000000
vt 0.031717 -0.044933 0.000000
vt 0.018418 -0.051824 0.000000
vt 0.003753 -0.054872 0.000000
vt 0.055000 -0.000000 0.000000
vt 0.052960 0.014839 0.000000
vt 0.052960 -0.014839 0.000000
vt 0.046993 0.028577 0.000000
vt 0.046993 -0.028577 0.000000
vt 0.037540 0.040196 0.000000
vt 0.037540 -0.040196 0.000000
vt 0.025304 0.048834 0.000000
vt 0.025304 -0.048834 0.000000
vt 0.011190 0.053850 0.000000
vt 0.011190 -0.053850 0.000000
vt -0.003753 0.054872 0.000000
vt -0.018418 0.051824 0.000000
vt -0.031717 0.044933 0.000000
vt -0.042664 0.034710 0.000000
vt -0.050447 0.021912 0.000000
vt -0.054488 0.007489 0.000000
vt -0.054488 -0.007489 0.000000
vt -0.050447 -0.021912 0.000000
vt -0.042664 -0.034710 0.000000
vt -0.031717 -0.044933 0.000000
vt -0.018418 -0.051824 0.000000
vt -0.003753 -0.054872 0.000000
vn 0.707107 -0.707107 -0.000000
vn 0.963138 -0.261607 -0.062667
vn 0.707107 -0.707107 0.000000
vn 0.963138 -0.261607 0.062667
vn 0.707107 -0.707107 0.000000
vn 0.941098 -0.283647 0.184062
vn 0.707107 -0.707107 -0.000000
vn 0.898403 -0.326342 0.293893
vn 0.707107 -0.707107 -0.000000
vn 0.837736 -0.387009 0.385257
vn 0.707107 -0.707107 0.000000
vn 0.762908 -0.461837 0.452414
vn 0.707107 -0.707107 0.000000
vn 0.678622 -0.546123 0.491144
vn 0.707107 -0.707107 0.000000
vn 0.590173 -0.634572 0.499013
vn 0.503118 -0.721626 0.475528
vn 0.315102 -0.392005 0.864317
vn 0.164320 -0.542787 0.823639
vn -0.132499 -0.132499 0.982287
vn -0.301071 -0.301071 0.904827
vn 0.941098 -0.283647 -0.184062
vn 0.707107 -0.707107 0.000000
vn 0.898403 -0.326342 -0.293893
vn 0.707107 -0.707107 0.000000
vn 0.837736 -0.387009 -0.385257
vn 0.707107 -0.707107 -0.000000
vn 0.762908 -0.461837 -0.452414
vn 0.707107 -0.707107 -0.000000
vn 0.678622 -0.546123 -0.491144
vn 0.707107 -0.707107 -0.000000
vn 0.590173 -0.634572 -0.499013
vn 0.503118 -0.721626 -0.475528
vn 0.164320 -0.542787 -0.823639
vn 0.025428 -0.681679 -0.731209
vn -0.301071 -0.301071 -0.904827
vn -0.450727 -0.450727 -0.770513
vn -0.092847 -0.799954 -0.592835
vn -0.572061 -0.572061 -0.587785
vn -0.183073 -0.890179 -0.417211
vn -0.657451 -0.657451 -0.368125
vn -0.239580 -0.946687 -0.215372
vn -0.701531 -0.701531 -0.125333
vn -0.258819 -0.965926 0.000000
vn -0.701531 -0.701531 0.125333
vn -0.239580 -0.946687 0.215372
vn -0.657451 -0.657451 0.368125
vn -0.183073 -0.890179 0.417211
vn -0.572061 -0.572061 0.587785
vn -0.092847 -0.799954 0.592835
vn -0.450727 -0.450727 0.770513
vn 0.025428 -0.681679 0.731209
vn 0.707107 -0.707107 0.000000
vn 0.422929 -0.801816 -0.422164
vn 0.707107 -0.707107 -0.000000
vn 0.354643 -0.870102 -0.342274
vn 0.707107 -0.707107 -0.000000
vn 0.302551 -0.922194 -0.240877
vn 0.707107 -0.707107 0.000000
vn 0.269927 -0.954818 -0.124345
vn 0.707107 -0.707107 0.000000
vn 0.258819 -0.965926 0.000000
vn 0.707107 -0.707107 -0.000000
vn 0.269927 -0.954818 0.124345
vn 0.707107 -0.707107 -0.000000
vn 0.302551 -0.922194 0.240877
vn 0.707107 -0.707107 0.000000
vn 0.354643 -0.870102 0.342274
vn 0.707107 -0.707107 0.000000
vn 0.422929 -0.801816 0.422164
vn 0.707107 -0.707107 -0.000000
vn 0.684892 0.684892 0.248690
vn 0.961097 0.253990 0.108542
vn 0.707107 0.707107 0.000000
vn 0.961097 0.253990 -0.108542
vn 0.684892 0.684892 -0.248690
vn 0.922923 0.215816 -0.318805
vn 0.619642 0.619642 -0.481754
vn 0.848973 0.141866 -0.509037
vn 0.515459 0.515459 -0.684547
vn 0.743894 0.036787 -0.667284
vn 0.378887 0.378887 -0.844328
vn 0.614289 -0.092818 -0.783603
vn 0.218508 0.218508 -0.951057
vn 0.468301 -0.238806 -0.850686
vn 0.044400 0.044400 -0.998027
vn 0.315102 -0.392005 -0.864317
vn -0.132499 -0.132499 -0.982287
vn 0.922923 0.215816 0.318805
vn 0.619642 0.619642 0.481754
vn 0.848973 0.141866 0.509037
vn 0.515459 0.515459 0.684547
vn 0.743894 0.036787 0.667284
vn 0.378887 0.378887 0.844328
vn 0.614289 -0.092818 0.783603
vn 0.218508 0.218508 0.951057
vn 0.468301 -0.238806 0.850686
vn 0.044400 0.044400 0.998027
vn 0.684892 0.684892 -0.248690
vn 0.253990 0.961097 -0.108542
vn 0.707107 0.707107 -0.000000
vn 0.253990 0.961097 0.108542
vn 0.684892 0.684892 0.248690
vn 0.215816 0.922923 0.318805
vn 0.619642 0.619642 0.481754
vn 0.141866 0.848973 0.509037
vn 0.515459 0.515459 0.684547
vn 0.036787 0.743894 0.667284
vn 0.378887 0.378887 0.844328
vn -0.092818 0.614289 0.783603
vn 0.218508 0.218508 0.951057
vn -0.238806 0.468301 0.850686
vn 0.044400 0.044400 0.998027
vn -0.392005 0.315102 0.864317
vn -0.132499 -0.132499 0.982287
vn -0.542787 0.164320 0.823639
vn -0.301071 -0.301071 0.904827
vn -0.681679 0.025428 0.731209
vn -0.450727 -0.450727 0.770513
vn -0.799954 -0.092847 0.592835
vn -0.572061 -0.572061 0.587785
vn -0.890179 -0.183073 0.417211
vn -0.657451 -0.657451 0.368125
vn -0.946687 -0.239580 0.215372
vn -0.701531 -0.701531 0.125333
vn -0.965926 -0.258819 -0.000000
vn -0.701531 -0.701531 -0.125333
vn -0.946687 -0.239580 -0.215372
vn -0.657451 -0.657451 -0.368125
vn -0.890179 -0.183073 -0.417211
vn -0.572061 -0.572061 -0.587785
vn -0.799954 -0.092847 -0.592835
vn -0.450727 -0.450727 -0.770513
vn -0.681679 0.025428 -0.731209
vn -0.301071 -0.301071 -0.904827
vn -0.542787 0.164320 -0.823639
vn -0.132499 -0.132499 -0.982287
vn -0.392005 0.315102 -0.864317
vn 0.044400 0.044400 -0.998027
vn -0.238806 0.468301 -0.850686
vn 0.218508 0.218508 -0.951057
vn -0.092818 0.614289 -0.783603
vn 0.378887 0.378887 -0.844328
vn 0.036787 0.743894 -0.667284
vn 0.515459 0.515459 -0.684547
vn 0.141866 0.848973 -0.509037
vn 0.619642 0.619642 -0.481754
vn 0.215816 0.922923 -0.318805
vn -0.707107 0.707107 0.000000
vn -0.261607 0.963138 0.062667
vn -0.707107 0.707107 -0.000000
vn -0.261607 0.963138 -0.062667
vn -0.707107 0.707107 -0.000000
vn -0.283647 0.941098 -0.184062
vn -0.707107 0.707107 0.000000
vn -0.326342 0.898403 -0.293893
vn -0.707107 0.707107 0.000000
vn -0.387009 0.837736 -0.385257
vn -0.707107 0.707107 -0.000000
vn -0.461837 0.762908 -0.452414
vn -0.707107 0.707107 -0.000000
vn -0.546123 0.678622 -0.491144
vn -0.707107 0.707107 -0.000000
vn -0.634572 0.590173 -0.499013
vn -0.721626 0.503118 -0.475528
vn -0.283647 0.941098 0.184062
vn -0.707107 0.707107 -0.000000
vn -0.326342 0.898403 0.293893
vn -0.707107 0.707107 -0.000000
vn -0.387009 0.837736 0.385257
vn -0.707107 0.707107 0.000000
vn -0.461837 0.762908 0.452414
vn -0.707107 0.707107 0.000000
vn -0.546123 0.678622 0.491144
vn -0.707107 0.707107 0.000000
vn -0.634572 0.590173 0.499013
vn -0.721626 0.503118 0.475528
vn -0.707107 0.707107 -0.000000
vn -0.801816 0.422929 0.422164
vn -0.707107 0.707107 0.000000
vn -0.870102 0.354643 0.342274
vn -0.707107 0.707107 0.000000
vn -0.922194 0.302551 0.240877
vn -0.707107 0.707107 -0.000000
vn -0.954818 0.269927 0.124345
vn -0.707107 0.707107 -0.000000
vn -0.965926 0.258819 -0.000000
vn -0.707107 0.707107 0.000000
vn -0.954818 0.269927 -0.124345
vn -0.707107 0.707107 0.000000
vn -0.922194 0.302551 -0.240877
vn -0.707107 0.707107 -0.000000
vn -0.870102 0.354643 -0.342274
vn -0.707107 0.707107 -0.000000
vn -0.801816 0.422929 -0.422164
vn -0.707107 0.707107 0.000000
vn 0.684892 0.684892 -0.248690
vn 0.701531 0.701531 -0.125333
vn 0.707107 0.707107 0.000000
vn 0.701531 0.701531 0.125333
vn 0.684892 0.684892 0.248690
vn 0.657451 0.657451 0.368125
vn 0.572061 0.572061 0.587785
vn 0.515459 0.515459 0.684547
vn 0.450727 0.450727 0.770513
vn 0.378887 0.378887 0.844328
vn 0.301071 0.301071 0.904827
vn 0.218508 0.218508 0.951057
vn 0.132499 0.132499 0.982287
vn -0.044400 -0.044400 0.998027
vn -0.218508 -0.218508 0.951057
vn -0.378887 -0.378887 0.844328
vn -0.515459 -0.515459 0.684547
vn -0.619642 -0.619642 0.481754
vn -0.684892 -0.684892 0.248690
vn -0.707107 -0.707107 0.000000
vn -0.684892 -0.684892 -0.248690
vn -0.619642 -0.619642 -0.481754
vn -0.515459 -0.515459 -0.684547
vn -0.378887 -0.378887 -0.844328
vn -0.218508 -0.218508 -0.951057
vn -0.044400 -0.044400 -0.998027
vn 0.132499 0.132499 -0.982287
vn 0.218508 0.218508 -0.951057
vn 0.301071 0.301071 -0.904827
vn 0.378887 0.378887 -0.844328
vn 0.450727 0.450727 -0.770513
vn 0.515459 0.515459 -0.684547
vn 0.572061 0.572061 -0.587785
vn 0.657451 0.657451 -0.368125
vn 0.684892 0.684892 0.248690
vn 0.701531 0.701531 0.125333
vn 0.707107 0.707107 -0.000000
vn 0.701531 0.701531 -0.125333
vn 0.684892 0.684892 -0.248690
vn 0.657451 0.657451 -0.368125
vn 0.572061 0.572061 -0.587785
vn 0.515459 0.515459 -0.684547
vn 0.450727 0.450727 -0.770513
vn 0.378887 0.378887 -0.844328
vn 0.301071 0.301071 -0.904827
vn 0.218508 0.218508 -0.951057
vn 0.132499 0.132499 -0.982287
vn -0.044400 -0.044400 -0.998027
vn -0.132499 -0.132499 -0.982287
vn -0.218508 -0.218508 -0.951057
vn -0.301071 -0.301071 -0.904827
vn -0.378887 -0.378887 -0.844328
vn -0.450727 -0.450727 -0.770513
vn -0.515459 -0.515459 -0.684547
vn -0.572061 -0.572061 -0.587785
vn -0.619642 -0.619642 -0.481754
vn -0.657451 -0.657451 -0.368125
vn -0.684892 -0.684892 -0.248690
vn -0.701531 -0.701531 -0.125333
vn -0.707107 -0.707107 -0.000000
vn -0.701531 -0.701531 0.125333
vn -0.684892 -0.684892 0.248690
vn -0.657451 -0.657451 0.368125
vn -0.619642 -0.619642 0.481754
vn -0.572061 -0.572061 0.587785
vn -0.515459 -0.515459 0.684547
vn -0.378887 -0.378887 0.844328
vn -0.301071 -0.301071 0.904827
vn -0.218508 -0.218508 0.951057
vn -0.132499 -0.132499 0.982287
vn -0.044400 -0.044400 0.998027
vn 0.132499 0.132499 0.982287
vn 0.218508 0.218508 0.951057
vn 0.301071 0.301071 0.904827
vn 0.378887 0.378887 0.844328
vn 0.450727 0.450727 0.770513
vn 0.515459 0.515459 0.684547
vn 0.572061 0.572061 0.587785
vn 0.619642 0.619642 0.481754
vn 0.657451 0.657451 0.368125
vn -0.707107 -0.707107 -0.000000
vn -0.684892 -0.684892 -0.248690
vn -0.619642 -0.619642 -0.481754
vn -0.515459 -0.515459 -0.684547
vn -0.378887 -0.378887 -0.844328
vn -0.218508 -0.218508 -0.951057
vn -0.044400 -0.044400 -0.998027
vn 0.132499 0.132499 -0.982287
vn 0.301071 0.301071 -0.904827
vn 0.450727 0.450727 -0.770513
vn 0.572061 0.572061 -0.587785
vn 0.657451 0.657451 -0.368125
vn 0.701531 0.701531 -0.125333
vn 0.701531 0.701531 0.125333
vn 0.657451 0.657451 0.368125
vn 0.572061 0.572061 0.587785
vn 0.450727 0.450727 0.770513
vn 0.301071 0.301071 0.904827
vn 0.132499 0.132499 0.982287
vn -0.044400 -0.044400 0.998027
vn -0.218508 -0.218508 0.951057
vn -0.378887 -0.378887 0.844328
vn -0.515459 -0.515459 0.684547
vn -0.619642 -0.619642 0.481754
vn -0.684892 -0.684892 0.248690
vn 0.707107 -0.707107 0.000000
vn 0.707107 -0.707107 0.000000
vn 0.707107 -0.707107 0.000000
vn 0.707107 -0.707107 0.000000
vn 0.707107 -0.707107 0.000000
vn 0.707107 -0.707107 0.000000
vn 0.707107 -0.707107 0.000000
vn 0.707107 -0.707107 0.000000
vn 0.707107 -0.707107 0.000000
vn 0.707107 -0.707107 0.000000
vn 0.707107 -0.707107 0.000000
vn 0.707107 -0.707107 0.000000
vn 0.707107 -0.707107 0.000000
vn 0.707107 -0.707107 0.000000
vn 0.707107 -0.707107 0.000000
vn 0.707107 -0.707107 0.000000
vn 0.707107 -0.707107 0.000000
vn 0.707107 -0.707107 0.000000
vn 0.707107 -0.707107 0.000000
vn 0.707107 -0.707107 0.000000
vn 0.707107 -0.707107 0.000000
vn -0.707107 0.707107 -0.000000
vn -0.707107 0.707107 -0.000000
vn -0.707107 0.707107 -0.000000
vn -0.707107 0.707107 -0.000000
vn -0.707107 0.707107 -0.000000
vn -0.707107 0.707107 -0.000000
vn -0.707107 0.707107 -0.000000
vn -0.707107 0.707107 -0.000000
vn -0.707107 0.707107 -0.000000
vn -0.707107 0.707107 -0.000000
vn -0.707107 0.707107 -0.000000
vn -0.707107 0.707107 -0.000000
vn -0.707107 0.707107 -0.000000
vn -0.707107 0.707107 -0.000000
vn -0.707107 0.707107 -0.000000
vn -0.707107 0.707107 -0.000000
vn -0.707107 0.707107 -0.000000
vn -0.707107 0.707107 -0.000000
vn -0.707107 0.707107 -0.000000
vn -0.707107 0.707107 -0.000000
vn -0.707107 0.707107 -0.000000
usemtl Opaque(202,209,238)
f 2/1/1 53/2/2 1/3/3
f 1/3/3 53/2/2 56/4/4
f 1/3/3 56/4/4 23/5/5
f 23/5/5 56/4/4 97/6/6
f 23/5/5 97/6/6 22/7/7
f 22/7/7 97/6/6 95/8/8
f 22/7/7 95/8/8 21/9/9
f 21/9/9 95/8/8 93/10/10
f 21/9/9 93/10/10 20/11/11
f 20/11/11 93/10/10 90/12/12
f 20/11/11 90/12/12 19/13/13
f 19/13/13 90/12/12 51/14/14
f 19/13/13 51/14/14 18/15/15
f 18/15/15 51/14/14 88/16/16
f 18/15/15 88/16/16 86/17/17
f 86/17/17 88/16/16 89/18/18
f 86/17/17 89/18/18 87/19/19
f 87/19/19 89/18/18 31/20/20
f 87/19/19 31/20/20 32/21/21
f 53/2/2 2/1/1 57/22/22
f 57/22/22 2/1/1 3/23/23
f 57/22/22 3/23/23 59/24/24
f 59/24/24 3/23/23 4/25/25
f 59/24/24 4/25/25 61/26/26
f 61/26/26 4/25/25 5/27/27
f 61/26/26 5/27/27 63/28/28
f 63/28/28 5/27/27 6/29/29
f 63/28/28 6/29/29 52/30/30
f 52/30/30 6/29/29 7/31/31
f 52/30/30 7/31/31 69/32/32
f 69/32/32 7/31/31 66/33/33
f 69/32/32 66/33/33 67/34/34
f 67/34/34 66/33/33 71/35/35
f 67/34/34 71/35/35 41/36/36
f 41/36/36 71/35/35 40/37/37
f 40/37/37 71/35/35 73/38/38
f 40/37/37 73/38/38 39/39/39
f 39/39/39 73/38/38 75/40/40
f 39/39/39 75/40/40 38/41/41
f 38/41/41 75/40/40 77/42/42
f 38/41/41 77/42/42 37/43/43
f 37/43/43 77/42/42 50/44/44
f 37/43/43 50/44/44 36/45/45
f 36/46/45 50/47/44 79/48/46
f 36/46/45 79/48/46 35/49/47
f 35/49/47 79/48/46 81/50/48
f 35/49/47 81/50/48 34/51/49
f 34/51/49 81/50/48 83/52/50
f 34/51/49 83/52/50 33/53/51
f 33/53/51 83/52/50 85/54/52
f 33/53/51 85/54/52 32/21/21
f 32/21/21 85/54/52 87/19/19
f 7/31/31 8/55/53 66/33/33
f 66/33/33 8/55/53 70/56/54
f 66/33/33 70/56/54 71/35/35
f 71/35/35 70/56/54 73/38/38
f 8/55/53 9/57/55 70/56/54
f 70/56/54 9/57/55 72/58/56
f 70/56/54 72/58/56 73/38/38
f 73/38/38 72/58/56 75/40/40
f 9/57/55 10/59/57 72/58/56
f 72/58/56 10/59/57 74/60/58
f 72/58/56 74/60/58 75/40/40
f 75/40/40 74/60/58 77/42/42
f 10/59/57 11/61/59 74/60/58
f 74/60/58 11/61/59 76/62/60
f 74/60/58 76/62/60 77/42/42
f 77/42/42 76/62/60 50/44/44
f 11/61/59 12/63/61 76/62/60
f 76/62/60 12/63/61 49/64/62
f 76/62/60 49/64/62 50/44/44
f 50/47/44 49/65/62 79/48/46
f 12/66/61 13/67/63 49/65/62
f 49/65/62 13/67/63 78/68/64
f 49/65/62 78/68/64 79/48/46
f 79/48/46 78/68/64 81/50/48
f 13/67/63 14/69/65 78/68/64
f 78/68/64 14/69/65 80/70/66
f 78/68/64 80/70/66 81/50/48
f 81/50/48 80/70/66 83/52/50
f 14/69/65 15/71/67 80/70/66
f 80/70/66 15/71/67 82/72/68
f 80/70/66 82/72/68 83/52/50
f 83/52/50 82/72/68 85/54/52
f 15/71/67 16/73/69 82/72/68
f 82/72/68 16/73/69 84/74/70
f 82/72/68 84/74/70 85/54/52
f 85/54/52 84/74/70 87/19/19
f 16/73/69 17/75/71 84/74/70
f 84/74/70 17/75/71 86/17/17
f 84/74/70 86/17/17 87/19/19
f 17/75/71 18/15/15 86/17/17
f 25/76/72 55/77/73 24/78/74
f 24/78/74 55/77/73 54/79/75
f 24/78/74 54/79/75 48/80/76
f 48/80/76 54/79/75 58/81/77
f 48/80/76 58/81/77 47/82/78
f 47/82/78 58/81/77 60/83/79
f 47/82/78 60/83/79 46/84/80
f 46/84/80 60/83/79 62/85/81
f 46/84/80 62/85/81 45/86/82
f 45/86/82 62/85/81 64/87/83
f 45/86/82 64/87/83 44/88/84
f 44/88/84 64/87/83 65/89/85
f 44/88/84 65/89/85 43/90/86
f 43/90/86 65/89/85 68/91/87
f 43/90/86 68/91/87 42/92/88
f 42/92/88 68/91/87 67/34/34
f 42/92/88 67/34/34 41/36/36
f 55/77/73 25/76/72 98/93/89
f 98/93/89 25/76/72 26/94/90
f 98/93/89 26/94/90 96/95/91
f 96/95/91 26/94/90 27/96/92
f 96/95/91 27/96/92 94/97/93
f 94/97/93 27/96/92 28/98/94
f 94/97/93 28/98/94 91/99/95
f 91/99/95 28/98/94 29/100/96
f 91/99/95 29/100/96 92/101/97
f 92/101/97 29/100/96 30/102/98
f 92/101/97 30/102/98 89/18/18
f 89/18/18 30/102/98 31/20/20
f 53/2/2 54/79/75 56/4/4
f 56/4/4 54/79/75 55/77/73
f 56/4/4 55/77/73 97/6/6
f 97/6/6 55/77/73 98/93/89
f 97/6/6 98/93/89 95/8/8
f 95/8/8 98/93/89 96/95/91
f 95/8/8 96/95/91 93/10/10
f 93/10/10 96/95/91 94/97/93
f 93/10/10 94/97/93 90/12/12
f 90/12/12 94/97/93 91/99/95
f 90/12/12 91/99/95 51/14/14
f 51/14/14 91/99/95 92/101/97
f 51/14/14 92/101/97 88/16/16
f 88/16/16 92/101/97 89/18/18
f 54/79/75 53/2/2 58/81/77
f 58/81/77 53/2/2 57/22/22
f 58/81/77 57/22/22 60/83/79
f 60/83/79 57/22/22 59/24/24
f 60/83/79 59/24/24 62/85/81
f 62/85/81 59/24/24 61/26/26
f 62/85/81 61/26/26 64/87/83
f 64/87/83 61/26/26 63/28/28
f 64/87/83 63/28/28 65/89/85
f 65/89/85 63/28/28 52/30/30
f 65/89/85 52/30/30 68/91/87
f 68/91/87 52/30/30 69/32/32
f 68/91/87 69/32/32 67/34/34
f 100/103/99 151/104/100 99/105/101
f 99/105/101 151/104/100 154/106/102
f 99/105/101 154/106/102 123/107/103
f 123/107/103 154/106/102 195/108/104
f 123/107/103 195/108/104 122/109/105
f 122/109/105 195/108/104 193/110/106
f 122/109/105 193/110/106 121/111/107
f 121/111/107 193/110/106 191/112/108
f 121/111/107 191/112/108 120/113/109
f 120/113/109 191/112/108 189/114/110
f 120/113/109 189/114/110 119/115/111
f 119/115/111 189/114/110 188/116/112
f 119/115/111 188/116/112 118/117/113
f 118/117/113 188/116/112 186/118/114
f 118/117/113 186/118/114 117/119/115
f 117/119/115 186/118/114 184/120/116
f 117/119/115 184/120/116 116/121/117
f 116/121/117 184/120/116 182/122/118
f 116/121/117 182/122/118 115/123/119
f 115/123/119 182/122/118 180/124/120
f 115/123/119 180/124/120 114/125/121
f 114/125/121 180/124/120 178/126/122
f 114/125/121 178/126/122 113/127/123
f 113/127/123 178/126/122 176/128/124
f 113/127/123 176/128/124 112/129/125
f 112/129/125 176/128/124 147/130/126
f 112/129/125 147/130/126 111/131/127
f 111/132/127 147/133/126 174/134/128
f 111/132/127 174/134/128 110/135/129
f 110/135/129 174/134/128 172/136/130
f 110/135/129 172/136/130 109/137/131
f 109/137/131 172/136/130 170/138/132
f 109/137/131 170/138/132 108/139/133
f 108/139/133 170/138/132 168/140/134
f 108/139/133 168/140/134 107/141/135
f 107/141/135 168/140/134 166/142/136
f 107/141/135 166/142/136 106/143/137
f 106/143/137 166/142/136 164/144/138
f 106/143/137 164/144/138 105/145/139
f 105/145/139 164/144/138 163/146/140
f 105/145/139 163/146/140 104/147/141
f 104/147/141 163/146/140 161/148/142
f 104/147/141 161/148/142 103/149/143
f 103/149/143 161/148/142 159/150/144
f 103/149/143 159/150/144 102/151/145
f 102/151/145 159/150/144 157/152/146
f 102/151/145 157/152/146 101/153/147
f 101/153/147 157/152/146 155/154/148
f 101/153/147 155/154/148 100/103/99
f 100/103/99 155/154/148 151/104/100
f 125/155/149 153/156/150 124/157/151
f 124/157/151 153/156/150 152/158/152
f 124/157/151 152/158/152 146/159/153
f 146/159/153 152/158/152 156/160/154
f 146/159/153 156/160/154 145/161/155
f 145/161/155 156/160/154 158/162/156
f 145/161/155 158/162/156 144/163/157
f 144/163/157 158/162/156 160/164/158
f 144/163/157 160/164/158 143/165/159
f 143/165/159 160/164/158 162/166/160
f 143/165/159 162/166/160 142/167/161
f 142/167/161 162/166/160 150/168/162
f 142/167/161 150/168/162 141/169/163
f 141/169/163 150/168/162 165/170/164
f 141/169/163 165/170/164 167/171/165
f 167/171/165 165/170/164 164/144/138
f 167/171/165 164/144/138 166/142/136
f 153/156/150 125/155/149 196/172/166
f 196/172/166 125/155/149 126/173/167
f 196/172/166 126/173/167 194/174/168
f 194/174/168 126/173/167 127/175/169
f 194/174/168 127/175/169 192/176/170
f 192/176/170 127/175/169 128/177/171
f 192/176/170 128/177/171 190/178/172
f 190/178/172 128/177/171 129/179/173
f 190/178/172 129/179/173 149/180/174
f 149/180/174 129/179/173 130/181/175
f 149/180/174 130/181/175 187/182/176
f 187/182/176 130/181/175 185/183/177
f 187/182/176 185/183/177 184/120/116
f 184/120/116 185/183/177 182/122/118
f 130/181/175 131/184/178 185/183/177
f 185/183/177 131/184/178 183/185/179
f 185/183/177 183/185/179 182/122/118
f 182/122/118 183/185/179 180/124/120
f 131/184/178 132/186/180 183/185/179
f 183/185/179 132/186/180 181/187/181
f 183/185/179 181/187/181 180/124/120
f 180/124/120 181/187/181 178/126/122
f 132/186/180 133/188/182 181/187/181
f 181/187/181 133/188/182 179/189/183
f 181/187/181 179/189/183 178/126/122
f 178/126/122 179/189/183 176/128/124
f 133/188/182 134/190/184 179/189/183
f 179/189/183 134/190/184 177/191/185
f 179/189/183 177/191/185 176/128/124
f 176/128/124 177/191/185 147/130/126
f 134/190/184 135/192/186 177/191/185
f 177/191/185 135/192/186 148/193/187
f 177/191/185 148/193/187 147/130/126
f 147/133/126 148/194/187 174/134/128
f 135/195/186 136/196/188 148/194/187
f 148/194/187 136/196/188 175/197/189
f 148/194/187 175/197/189 174/134/128
f 174/134/128 175/197/189 172/136/130
f 136/196/188 137/198/190 175/197/189
f 175/197/189 137/198/190 173/199/191
f 175/197/189 173/199/191 172/136/130
f 172/136/130 173/199/191 170/138/132
f 137/198/190 138/200/192 173/199/191
f 173/199/191 138/200/192 171/201/193
f 173/199/191 171/201/193 170/138/132
f 170/138/132 171/201/193 168/140/134
f 138/200/192 139/202/194 171/201/193
f 171/201/193 139/202/194 169/203/195
f 171/201/193 169/203/195 168/140/134
f 168/140/134 169/203/195 166/142/136
f 139/202/194 140/204/196 169/203/195
f 169/203/195 140/204/196 167/171/165
f 169/203/195 167/171/165 166/142/136
f 140/204/196 141/169/163 167/171/165
f 151/104/100 152/158/152 154/106/102
f 154/106/102 152/158/152 153/156/150
f 154/106/102 153/156/150 195/108/104
f 195/108/104 153/156/150 196/172/166
f 195/108/104 196/172/166 193/110/106
f 193/110/106 196/172/166 194/174/168
f 193/110/106 194/174/168 191/112/108
f 191/112/108 194/174/168 192/176/170
f 191/112/108 192/176/170 189/114/110
f 189/114/110 192/176/170 190/178/172
f 189/114/110 190/178/172 188/116/112
f 188/116/112 190/178/172 149/180/174
f 188/116/112 149/180/174 186/118/114
f 186/118/114 149/180/174 187/182/176
f 186/118/114 187/182/176 184/120/116
f 152/158/152 151/104/100 156/160/154
f 156/160/154 151/104/100 155/154/148
f 156/160/154 155/154/148 158/162/156
f 158/162/156 155/154/148 157/152/146
f 158/162/156 157/152/146 160/164/158
f 160/164/158 157/152/146 159/150/144
f 160/164/158 159/150/144 162/166/160
f 162/166/160 159/150/144 161/148/142
f 162/166/160 161/148/142 150/168/162
f 150/168/162 161/148/142 163/146/140
f 150/168/162 163/146/140 165/170/164
f 165/170/164 163/146/140 164/144/138
f 48/205/197 200/206/198 24/207/199
f 24/207/199 200/206/198 205/208/200
f 24/207/199 205/208/200 25/209/201
f 25/209/201 205/208/200 269/210/202
f 25/209/201 269/210/202 26/211/90
f 26/211/90 269/210/202 266/212/203
f 26/211/90 266/212/203 27/213/204
f 27/213/204 266/212/203 263/214/205
f 27/213/204 263/214/205 28/215/206
f 28/215/206 263/214/205 260/216/207
f 28/215/206 260/216/207 29/217/208
f 29/217/208 260/216/207 257/218/209
f 29/217/208 257/218/209 30/219/98
f 30/219/98 257/218/209 254/220/210
f 30/219/98 254/220/210 31/221/20
f 31/221/20 254/220/210 251/222/211
f 31/221/20 251/222/211 32/223/21
f 32/223/21 251/222/211 248/224/212
f 32/223/21 248/224/212 33/225/51
f 33/225/51 248/224/212 245/226/213
f 33/225/51 245/226/213 34/227/49
f 34/227/49 245/226/213 242/228/214
f 34/227/49 242/228/214 35/229/47
f 35/229/47 242/228/214 239/230/215
f 35/229/47 239/230/215 36/231/45
f 36/231/45 239/230/215 197/232/216
f 36/231/45 197/232/216 37/233/43
f 37/234/43 197/235/216 236/236/217
f 37/234/43 236/236/217 38/237/41
f 38/237/41 236/236/217 233/238/218
f 38/237/41 233/238/218 39/239/39
f 39/239/39 233/238/218 230/240/219
f 39/239/39 230/240/219 40/241/37
f 40/241/37 230/240/219 227/242/220
f 40/241/37 227/242/220 41/243/36
f 41/243/36 227/242/220 224/244/221
f 41/243/36 224/244/221 42/245/88
f 42/245/88 224/244/221 221/246/222
f 42/245/88 221/246/222 43/247/86
f 43/247/86 221/246/222 218/248/223
f 43/247/86 218/248/223 44/249/224
f 44/249/224 218/248/223 215/250/225
f 44/249/224 215/250/225 45/251/226
f 45/251/226 215/250/225 212/252/227
f 45/251/226 212/252/227 46/253/228
f 46/253/228 212/252/227 209/254/229
f 46/253/228 209/254/229 47/255/78
f 47/255/78 209/254/229 206/256/230
f 47/255/78 206/256/230 48/205/197
f 48/205/197 206/256/230 200/206/198
f 123/257/231 203/258/232 99/259/233
f 99/259/233 203/258/232 202/260/234
f 99/259/233 202/260/234 100/261/235
f 100/261/235 202/260/234 208/262/236
f 100/261/235 208/262/236 101/263/147
f 101/263/147 208/262/236 211/264/237
f 101/263/147 211/264/237 102/265/238
f 102/265/238 211/264/237 214/266/239
f 102/265/238 214/266/239 103/267/240
f 103/267/240 214/266/239 217/268/241
f 103/267/240 217/268/241 104/269/242
f 104/269/242 217/268/241 220/270/243
f 104/269/242 220/270/243 105/271/139
f 105/271/139 220/270/243 223/272/244
f 105/271/139 223/272/244 106/273/245
f 106/273/245 223/272/244 226/274/246
f 106/273/245 226/274/246 107/275/247
f 107/275/247 226/274/246 229/276/248
f 107/275/247 229/276/248 108/277/249
f 108/277/249 229/276/248 232/278/250
f 108/277/249 232/278/250 109/279/251
f 109/279/251 232/278/250 235/280/252
f 109/279/251 235/280/252 110/281/253
f 110/281/253 235/280/252 238/282/254
f 110/281/253 238/282/254 111/283/255
f 111/283/255 238/282/254 199/284/256
f 111/283/255 199/284/256 112/285/257
f 112/286/257 199/287/256 241/288/258
f 112/286/257 241/288/258 113/289/259
f 113/289/259 241/288/258 244/290/260
f 113/289/259 244/290/260 114/291/261
f 114/291/261 244/290/260 247/292/262
f 114/291/261 247/292/262 115/293/119
f 115/293/119 247/292/262 250/294/263
f 115/293/119 250/294/263 116/295/264
f 116/295/264 250/294/263 253/296/265
f 116/295/264 253/296/265 117/297/266
f 117/297/266 253/296/265 256/298/267
f 117/297/266 256/298/267 118/299/113
f 118/299/113 256/298/267 259/300/268
f 118/299/113 259/300/268 119/301/269
f 119/301/269 259/300/268 262/302/270
f 119/301/269 262/302/270 120/303/271
f 120/303/271 262/302/270 265/304/272
f 120/303/271 265/304/272 121/305/273
f 121/305/273 265/304/272 268/306/274
f 121/305/273 268/306/274 122/307/275
f 122/307/275 268/306/274 271/308/276
f 122/307/275 271/308/276 123/257/231
f 123/257/231 271/308/276 203/258/232
f 197/235/216 198/309/277 236/236/217
f 236/236/217 198/309/277 237/310/278
f 236/236/217 237/310/278 233/238/218
f 233/238/218 237/310/278 234/311/279
f 233/238/218 234/311/279 230/240/219
f 230/240/219 234/311/279 231/312/280
f 230/240/219 231/312/280 227/242/220
f 227/242/220 231/312/280 228/313/281
f 227/242/220 228/313/281 224/244/221
f 224/244/221 228/313/281 225/314/282
f 224/244/221 225/314/282 221/246/222
f 221/246/222 225/314/282 222/315/283
f 221/246/222 222/315/283 218/248/223
f 218/248/223 222/315/283 219/316/284
f 218/248/223 219/316/284 215/250/225
f 215/250/225 219/316/284 216/317/285
f 215/250/225 216/317/285 212/252/227
f 212/252/227 216/317/285 213/318/286
f 212/252/227 213/318/286 209/254/229
f 209/254/229 213/318/286 210/319/287
f 209/254/229 210/319/287 206/256/230
f 206/256/230 210/319/287 207/320/288
f 206/256/230 207/320/288 200/206/198
f 200/206/198 207/320/288 201/321/289
f 200/206/198 201/321/289 205/208/200
f 205/208/200 201/321/289 204/322/290
f 205/208/200 204/322/290 269/210/202
f 269/210/202 204/322/290 270/323/291
f 269/210/202 270/323/291 266/212/203
f 266/212/203 270/323/291 267/324/292
f 266/212/203 267/324/292 263/214/205
f 263/214/205 267/324/292 264/325/293
f 263/214/205 264/325/293 260/216/207
f 260/216/207 264/325/293 261/326/294
f 260/216/207 261/326/294 257/218/209
f 257/218/209 261/326/294 258/327/295
f 257/218/209 258/327/295 254/220/210
f 254/220/210 258/327/295 255/328/296
f 254/220/210 255/328/296 251/222/211
f 251/222/211 255/328/296 252/329/297
f 251/222/211 252/329/297 248/224/212
f 248/224/212 252/329/297 249/330/298
f 248/224/212 249/330/298 245/226/213
f 245/226/213 249/330/298 246/331/299
f 245/226/213 246/331/299 242/228/214
f 242/228/214 246/331/299 243/332/300
f 242/228/214 243/332/300 239/230/215
f 239/230/215 243/332/300 240/333/301
f 239/230/215 240/333/301 197/232/216
f 197/232/216 240/333/301 198/334/277
f 198/309/277 199/284/256 237/310/278
f 237/310/278 199/284/256 238/282/254
f 237/310/278 238/282/254 234/311/279
f 234/311/279 238/282/254 235/280/252
f 234/311/279 235/280/252 231/312/280
f 231/312/280 235/280/252 232/278/250
f 231/312/280 232/278/250 228/313/281
f 228/313/281 232/278/250 229/276/248
f 228/313/281 229/276/248 225/314/282
f 225/314/282 229/276/248 226/274/246
f 225/314/282 226/274/246 222/315/283
f 222/315/283 226/274/246 223/272/244
f 222/315/283 223/272/244 219/316/284
f 219/316/284 223/272/244 220/270/243
f 219/316/284 220/270/243 216/317/285
f 216/317/285 220/270/243 217/268/241
f 216/317/285 217/268/241 213/318/286
f 213/318/286 217/268/241 214/266/239
f 213/318/286 214/266/239 210/319/287
f 210/319/287 214/266/239 211/264/237
f 210/319/287 211/264/237 207/320/288
f 207/320/288 211/264/237 208/262/236
f 207/320/288 208/262/236 201/321/289
f 201/321/289 208/262/236 202/260/234
f 201/321/289 202/260/234 204/322/290
f 204/322/290 202/260/234 203/258/232
f 204/322/290 203/258/232 270/323/291
f 270/323/291 203/258/232 271/308/276
f 270/323/291 271/308/276 267/324/292
f 267/324/292 271/308/276 268/306/274
f 267/324/292 268/306/274 264/325/293
f 264/325/293 268/306/274 265/304/272
f 264/325/293 265/304/272 261/326/294
f 261/326/294 265/304/272 262/302/270
f 261/326/294 262/302/270 258/327/295
f 258/327/295 262/302/270 259/300/268
f 258/327/295 259/300/268 255/328/296
f 255/328/296 259/300/268 256/298/267
f 255/328/296 256/298/267 252/329/297
f 252/329/297 256/298/267 253/296/265
f 252/329/297 253/296/265 249/330/298
f 249/330/298 253/296/265 250/294/263
f 249/330/298 250/294/263 246/331/299
f 246/331/299 250/294/263 247/292/262
f 246/331/299 247/292/262 243/332/300
f 243/332/300 247/292/262 244/290/260
f 243/332/300 244/290/260 240/333/301
f 240/333/301 244/290/260 241/288/258
f 240/333/301 241/288/258 198/334/277
f 198/334/277 241/288/258 199/287/256
f 1/335/302 23/336/303 2/337/304
f 2/337/304 23/336/303 3/338/305
f 3/338/305 23/336/303 22/339/306
f 3/338/305 22/339/306 4/340/25
f 4/340/25 22/339/306 21/341/9
f 4/340/25 21/341/9 5/342/307
f 5/342/307 21/341/9 20/343/308
f 5/342/307 20/343/308 6/344/309
f 6/344/309 20/343/308 19/345/310
f 6/344/309 19/345/310 7/346/311
f 7/346/311 19/345/310 8/347/312
f 8/347/312 19/345/310 9/348/313
f 9/348/313 19/345/310 10/349/314
f 10/349/314 19/345/310 11/350/315
f 11/350/315 19/345/310 12/351/316
f 12/351/316 19/345/310 13/352/317
f 13/352/317 19/345/310 14/353/318
f 14/353/318 19/345/310 15/354/319
f 15/354/319 19/345/310 16/355/320
f 16/355/320 19/345/310 17/356/321
f 17/356/321 19/345/310 18/357/322
f 124/358/323 146/359/324 125/360/325
f 125/360/325 146/359/324 145/361/326
f 125/360/325 145/361/326 126/362/327
f 126/362/327 145/361/326 144/363/157
f 126/362/327 144/363/157 127/364/169
f 127/364/169 144/363/157 143/365/328
f 127/364/169 143/365/328 128/366/329
f 128/366/329 143/365/328 142/367/330
f 128/366/329 142/367/330 129/368/331
f 129/368/331 142/367/330 141/369/332
f 129/368/331 141/369/332 140/370/333
f 140/370/333 139/371/334 129/368/331
f 129/368/331 139/371/334 138/372/335
f 129/368/331 138/372/335 137/373/336
f 137/373/336 136/374/337 129/368/331
f 129/368/331 136/374/337 135/375/338
f 129/368/331 135/375/338 134/376/339
f 134/376/339 133/377/340 129/368/331
f 129/368/331 133/377/340 132/378/341
f 129/368/331 132/378/341 131/379/342
f 131/379/342 130/380/343 129/368/331
# 271 vertices
# 380 texture params
# 343 normals
# 538 facets

# 1 groups
