# WaveFront *.obj file (generated by Autodesk ATF)

mtllib body7_visual.mtl

g Body7

v 64.399696 -64.022510 95.748164
v 64.470406 -64.093220 95.748164
v 64.470406 -64.093220 95.677664
v 64.399696 -64.022510 95.677664
v 64.433637 -64.129990 95.677664
v 64.433637 -64.129990 95.748164
v 64.362926 -64.059279 95.748164
v 64.362926 -64.059279 95.677664
v 64.391045 -64.015070 95.677664
v 64.381377 -64.009009 95.677664
v 64.370911 -64.004464 95.677664
v 64.359883 -64.001537 95.677664
v 64.348541 -64.000294 95.677664
v 64.348541 -64.000294 95.748164
v 64.359883 -64.001537 95.748164
v 64.370911 -64.004464 95.748164
v 64.381377 -64.009009 95.748164
v 64.391045 -64.015070 95.748164
v 64.358191 -64.055603 95.748164
v 64.352691 -64.053214 95.748164
v 64.346772 -64.052264 95.748164
v 64.346772 -64.052264 95.677664
v 64.352691 -64.053214 95.677664
v 64.358191 -64.055603 95.677664
v 64.147856 -63.993463 95.748164
v 64.147856 -63.993463 95.677664
v 64.146087 -64.045433 95.748164
v 64.146087 -64.045433 95.677664
v 64.134745 -64.044189 95.748164
v 64.123717 -64.041262 95.748164
v 64.113251 -64.036717 95.748164
v 64.103584 -64.030656 95.748164
v 64.094933 -64.023217 95.748164
v 64.094933 -64.023217 95.677664
v 64.103584 -64.030656 95.677664
v 64.113251 -64.036717 95.677664
v 64.123717 -64.041262 95.677664
v 64.134745 -64.044189 95.677664
v 63.796180 -63.724464 95.748164
v 63.796180 -63.724464 95.677664
v 63.832950 -63.687695 95.677664
v 64.131702 -63.986447 95.677664
v 64.136438 -63.990124 95.677664
v 64.141937 -63.992512 95.677664
v 64.131702 -63.986447 95.748164
v 64.136438 -63.990124 95.748164
v 64.141937 -63.992512 95.748164
v 63.832950 -63.687695 95.748164
vt -0.100000 -0.000000 0.000000
vt -0.000000 0.000000 0.000000
vt -0.100000 0.070500 0.000000
vt -0.000000 0.070500 0.000000
vt 1.045250 -0.105000 0.000000
vt 0.974750 -0.105000 0.000000
vt 1.045250 -0.157000 0.000000
vt 0.974750 -0.157000 0.000000
vt 0.070500 -0.000000 0.000000
vt -0.000000 0.000000 0.000000
vt 0.070500 -0.100000 0.000000
vt -0.000000 -0.100000 0.000000
vt -0.035250 -0.238761 0.000000
vt 0.035250 -0.238761 0.000000
vt -0.035250 -0.227340 0.000000
vt 0.035250 -0.227340 0.000000
vt 0.035250 -0.215919 0.000000
vt -0.035250 -0.215919 0.000000
vt 0.035250 -0.204498 0.000000
vt -0.035250 -0.204498 0.000000
vt 0.035250 -0.193078 0.000000
vt -0.035250 -0.193078 0.000000
vt -0.035250 -0.181657 0.000000
vt 0.035250 -0.181657 0.000000
vt -0.035250 -0.075398 0.000000
vt 0.035250 -0.075398 0.000000
vt -0.035250 -0.069387 0.000000
vt 0.035250 -0.069387 0.000000
vt -0.035250 -0.063376 0.000000
vt 0.035250 -0.063376 0.000000
vt -0.035250 -0.057365 0.000000
vt 0.035250 -0.057365 0.000000
vt -0.000000 0.000000 0.000000
vt -0.070500 -0.000000 0.000000
vt 0.000000 -0.200801 0.000000
vt -0.070500 -0.200801 0.000000
vt -0.000000 0.000000 0.000000
vt -0.200801 0.000000 0.000000
vt -0.000000 -0.070500 0.000000
vt -0.200801 -0.070500 0.000000
vt -0.035250 0.181657 0.000000
vt 0.035250 0.181657 0.000000
vt -0.035250 0.193078 0.000000
vt 0.035250 0.193078 0.000000
vt 0.035250 0.204498 0.000000
vt -0.035250 0.204498 0.000000
vt 0.035250 0.215919 0.000000
vt -0.035250 0.215919 0.000000
vt 0.035250 0.227340 0.000000
vt -0.035250 0.227340 0.000000
vt -0.035250 0.238761 0.000000
vt 0.035250 0.238761 0.000000
vt 0.070500 -0.000000 0.000000
vt -0.000000 0.000000 0.000000
vt 0.070500 -0.422500 0.000000
vt -0.000000 -0.422500 0.000000
vt -0.052000 -0.422500 0.000000
vt -0.000000 -0.422500 0.000000
vt -0.052000 0.000000 0.000000
vt -0.000000 0.000000 0.000000
vt -0.038678 0.042982 0.000000
vt -0.031537 0.051881 0.000000
vt 0.000749 0.005948 0.000000
vt 0.002949 0.011525 0.000000
vt 0.006462 0.016383 0.000000
vt 0.105538 0.198617 0.000000
vt 0.143537 0.163119 0.000000
vt 0.109051 0.203475 0.000000
vt 0.111251 0.209052 0.000000
vt 0.112000 0.215000 0.000000
vt 0.150678 0.172018 0.000000
vt 0.112000 0.315000 0.000000
vt 0.164000 0.215000 0.000000
vt 0.164000 0.315000 0.000000
vt 0.156407 0.181886 0.000000
vt 0.160593 0.192501 0.000000
vt 0.163143 0.203622 0.000000
vt -0.044407 0.033114 0.000000
vt -0.048593 0.022499 0.000000
vt -0.051143 0.011378 0.000000
vt 0.035250 -0.075398 0.000000
vt -0.035250 -0.075398 0.000000
vt 0.035250 -0.081409 0.000000
vt -0.035250 -0.081409 0.000000
vt 0.035250 -0.087420 0.000000
vt -0.035250 -0.087420 0.000000
vt 0.035250 -0.093431 0.000000
vt -0.035250 -0.093431 0.000000
vt 0.422500 0.052000 0.000000
vt -0.000000 0.052000 0.000000
vt 0.422500 0.000000 0.000000
vt -0.000000 0.000000 0.000000
vt -0.042982 0.038678 0.000000
vt -0.051881 0.031537 0.000000
vt -0.011378 0.051143 0.000000
vt -0.022499 0.048593 0.000000
vt -0.033114 0.044407 0.000000
vt -0.198617 -0.105538 0.000000
vt -0.016383 -0.006462 0.000000
vt -0.011525 -0.002949 0.000000
vt -0.005948 -0.000749 0.000000
vt -0.163119 -0.143537 0.000000
vt -0.203475 -0.109051 0.000000
vt -0.209052 -0.111251 0.000000
vt -0.215000 -0.112000 0.000000
vt -0.172018 -0.150678 0.000000
vt -0.215000 -0.164000 0.000000
vt -0.181886 -0.156407 0.000000
vt -0.192501 -0.160593 0.000000
vt -0.203622 -0.163143 0.000000
vt -0.315000 -0.112000 0.000000
vt -0.315000 -0.164000 0.000000
vt -0.974750 -0.105000 0.000000
vt -1.045250 -0.105000 0.000000
vt -0.974750 -0.157000 0.000000
vt -1.045250 -0.157000 0.000000
vt -0.422500 -0.000000 0.000000
vt -0.000000 0.000000 0.000000
vt -0.422500 0.070500 0.000000
vt -0.000000 0.070500 0.000000
vn 0.707107 0.707107 -0.000000
vn 0.707107 0.707107 -0.000000
vn 0.707107 0.707107 -0.000000
vn 0.707107 0.707107 -0.000000
vn 0.707107 -0.707107 0.000000
vn 0.707107 -0.707107 0.000000
vn 0.707107 -0.707107 0.000000
vn 0.707107 -0.707107 0.000000
vn -0.707107 -0.707107 0.000000
vn -0.707107 -0.707107 0.000000
vn -0.707107 -0.707107 0.000000
vn -0.707107 -0.707107 0.000000
vn 0.593277 0.804998 -0.000000
vn 0.593277 0.804998 -0.000000
vn 0.466075 0.884745 -0.000000
vn 0.466075 0.884745 -0.000000
vn 0.328367 0.944550 -0.000000
vn 0.328367 0.944550 -0.000000
vn 0.183258 0.983065 -0.000000
vn 0.183258 0.983065 -0.000000
vn 0.034019 0.999421 -0.000000
vn 0.034019 0.999421 -0.000000
vn -0.509790 -0.860299 0.000000
vn -0.509790 -0.860299 0.000000
vn -0.280661 -0.959807 0.000000
vn -0.280661 -0.959807 0.000000
vn -0.034019 -0.999421 0.000000
vn -0.034019 -0.999421 0.000000
vn 0.034019 0.999421 -0.000000
vn 0.034019 0.999421 -0.000000
vn 0.034019 0.999421 -0.000000
vn 0.034019 0.999421 -0.000000
vn -0.034019 -0.999421 0.000000
vn -0.034019 -0.999421 0.000000
vn -0.034019 -0.999421 0.000000
vn -0.034019 -0.999421 0.000000
vn -0.183258 -0.983065 0.000000
vn -0.183258 -0.983065 0.000000
vn -0.328367 -0.944550 0.000000
vn -0.328367 -0.944550 0.000000
vn -0.466075 -0.884745 0.000000
vn -0.466075 -0.884745 0.000000
vn -0.593277 -0.804998 0.000000
vn -0.593277 -0.804998 0.000000
vn -0.707107 -0.707107 0.000000
vn -0.707107 -0.707107 0.000000
vn -0.707107 -0.707107 0.000000
vn -0.707107 -0.707107 0.000000
vn 0.000000 -0.000000 -1.000000
vn 0.000000 -0.000000 -1.000000
vn 0.000000 -0.000000 -1.000000
vn 0.000000 -0.000000 -1.000000
vn 0.000000 -0.000000 -1.000000
vn 0.000000 -0.000000 -1.000000
vn 0.000000 -0.000000 -1.000000
vn 0.000000 -0.000000 -1.000000
vn 0.000000 -0.000000 -1.000000
vn 0.000000 -0.000000 -1.000000
vn 0.000000 -0.000000 -1.000000
vn 0.000000 -0.000000 -1.000000
vn 0.000000 -0.000000 -1.000000
vn 0.000000 -0.000000 -1.000000
vn 0.000000 -0.000000 -1.000000
vn 0.000000 -0.000000 -1.000000
vn 0.000000 -0.000000 -1.000000
vn 0.000000 -0.000000 -1.000000
vn 0.000000 -0.000000 -1.000000
vn 0.000000 -0.000000 -1.000000
vn 0.000000 -0.000000 -1.000000
vn 0.000000 -0.000000 -1.000000
vn 0.000000 -0.000000 -1.000000
vn 0.000000 -0.000000 -1.000000
vn 0.707107 0.707107 -0.000000
vn 0.707107 0.707107 -0.000000
vn 0.509790 0.860299 -0.000000
vn 0.509790 0.860299 -0.000000
vn 0.280661 0.959807 -0.000000
vn 0.280661 0.959807 -0.000000
vn 0.034019 0.999421 -0.000000
vn -0.000000 0.000000 1.000000
vn -0.000000 0.000000 1.000000
vn -0.000000 0.000000 1.000000
vn -0.000000 0.000000 1.000000
vn -0.000000 0.000000 1.000000
vn -0.000000 0.000000 1.000000
vn -0.000000 0.000000 1.000000
vn -0.000000 0.000000 1.000000
vn -0.000000 0.000000 1.000000
vn -0.000000 0.000000 1.000000
vn -0.000000 0.000000 1.000000
vn -0.000000 0.000000 1.000000
vn -0.000000 0.000000 1.000000
vn -0.000000 0.000000 1.000000
vn -0.000000 0.000000 1.000000
vn -0.000000 0.000000 1.000000
vn -0.000000 0.000000 1.000000
vn -0.000000 0.000000 1.000000
vn -0.000000 0.000000 1.000000
vn -0.000000 0.000000 1.000000
vn -0.000000 0.000000 1.000000
vn -0.000000 0.000000 1.000000
vn -0.000000 0.000000 1.000000
vn -0.000000 0.000000 1.000000
vn -0.707107 0.707107 -0.000000
vn -0.707107 0.707107 -0.000000
vn -0.707107 0.707107 -0.000000
vn -0.707107 0.707107 -0.000000
vn 0.707107 0.707107 -0.000000
vn 0.707107 0.707107 -0.000000
vn 0.707107 0.707107 -0.000000
vn 0.707107 0.707107 -0.000000
usemtl Opaque(202,209,238)
f 1/1/1 2/2/2 4/3/3
f 4/3/3 2/2/2 3/4/4
f 3/5/5 2/6/6 5/7/7
f 5/7/7 2/6/6 6/8/8
f 5/9/9 6/10/10 8/11/11
f 8/11/11 6/10/10 7/12/12
f 1/13/1 4/14/3 18/15/13
f 18/15/13 4/14/3 9/16/14
f 18/15/13 9/16/14 10/17/15
f 18/15/13 10/17/15 17/18/16
f 17/18/16 10/17/15 11/19/17
f 17/18/16 11/19/17 16/20/18
f 16/20/18 11/19/17 12/21/19
f 16/20/18 12/21/19 15/22/20
f 15/22/20 12/21/19 14/23/21
f 14/23/21 12/21/19 13/24/22
f 8/25/11 7/26/12 24/27/23
f 24/27/23 7/26/12 19/28/24
f 24/27/23 19/28/24 23/29/25
f 23/29/25 19/28/24 20/30/26
f 23/29/25 20/30/26 22/31/27
f 22/31/27 20/30/26 21/32/28
f 14/33/29 13/34/30 25/35/31
f 25/35/31 13/34/30 26/36/32
f 21/37/33 27/38/34 22/39/35
f 22/39/35 27/38/34 28/40/36
f 28/41/36 27/42/34 38/43/37
f 38/43/37 27/42/34 29/44/38
f 38/43/37 29/44/38 30/45/39
f 38/43/37 30/45/39 37/46/40
f 37/46/40 30/45/39 31/47/41
f 37/46/40 31/47/41 36/48/42
f 36/48/42 31/47/41 32/49/43
f 36/48/42 32/49/43 35/50/44
f 35/50/44 32/49/43 34/51/45
f 34/51/45 32/49/43 33/52/46
f 34/53/45 33/54/46 40/55/47
f 40/55/47 33/54/46 39/56/48
f 40/57/49 41/58/50 34/59/51
f 34/59/51 41/58/50 42/60/52
f 34/59/51 42/60/52 38/61/53
f 38/61/53 42/60/52 28/62/54
f 28/62/54 42/60/52 43/63/55
f 28/62/54 43/63/55 44/64/56
f 44/64/56 26/65/57 28/62/54
f 28/62/54 26/65/57 22/66/58
f 22/66/58 26/65/57 13/67/59
f 22/66/58 13/67/59 23/68/60
f 23/68/60 13/67/59 24/69/61
f 24/69/61 13/67/59 8/70/62
f 8/70/62 13/67/59 12/71/63
f 8/70/62 12/71/63 5/72/64
f 5/72/64 12/71/63 4/73/65
f 5/72/64 4/73/65 3/74/66
f 12/71/63 11/75/67 4/73/65
f 4/73/65 11/75/67 10/76/68
f 4/73/65 10/76/68 9/77/69
f 38/61/53 37/78/70 34/59/51
f 34/59/51 37/78/70 36/79/71
f 34/59/51 36/79/71 35/80/72
f 42/81/73 45/82/74 43/83/75
f 43/83/75 45/82/74 46/84/76
f 43/83/75 46/84/76 44/85/77
f 44/85/77 46/84/76 47/86/78
f 44/85/77 47/86/78 26/87/32
f 26/87/32 47/86/78 25/88/79
f 39/89/80 33/90/81 48/91/82
f 48/91/82 33/90/81 45/92/83
f 45/92/83 33/90/81 29/93/84
f 45/92/83 29/93/84 27/94/85
f 32/95/86 31/96/87 33/90/81
f 33/90/81 31/96/87 30/97/88
f 33/90/81 30/97/88 29/93/84
f 21/98/89 25/99/90 27/94/85
f 27/94/85 25/99/90 47/100/91
f 27/94/85 47/100/91 46/101/92
f 25/99/90 21/98/89 14/102/93
f 14/102/93 21/98/89 20/103/94
f 14/102/93 20/103/94 19/104/95
f 19/104/95 7/105/96 14/102/93
f 14/102/93 7/105/96 15/106/97
f 15/106/97 7/105/96 1/107/98
f 15/106/97 1/107/98 16/108/99
f 16/108/99 1/107/98 17/109/100
f 17/109/100 1/107/98 18/110/101
f 6/111/102 2/112/103 7/105/96
f 7/105/96 2/112/103 1/107/98
f 46/101/92 45/92/83 27/94/85
f 48/113/104 41/114/105 39/115/106
f 39/115/106 41/114/105 40/116/107
f 48/117/108 45/118/109 41/119/110
f 41/119/110 45/118/109 42/120/111
# 48 vertices
# 120 texture params
# 111 normals
# 92 facets

# 1 groups
