# WaveFront *.obj file (generated by Autodesk ATF)

mtllib body155_visual.mtl

g Body155

v 62.308335 -65.078932 96.884670
v 62.308335 -65.078932 96.824670
v 62.308335 -65.086003 96.819670
v 62.308335 -65.086003 96.889670
v 62.350762 -65.036505 96.824670
v 62.357833 -65.036505 96.819670
v 62.350762 -65.036505 96.884670
v 62.357833 -65.036505 96.889670
v 63.008371 -65.786038 96.889670
v 63.057868 -65.736541 96.889670
v 63.008371 -65.786038 96.819670
v 63.015442 -65.786038 96.824670
v 63.015442 -65.786038 96.884670
v 63.057868 -65.743612 96.884670
v 63.057868 -65.743612 96.824670
v 63.057868 -65.736541 96.819670
vt 0.012500 0.003536 0.000000
vt -0.047500 0.003536 0.000000
vt 0.017500 -0.003536 0.000000
vt -0.052500 -0.003536 0.000000
vt 0.003536 -0.012500 0.000000
vt 0.003536 0.047500 0.000000
vt -0.003536 -0.017500 0.000000
vt -0.003536 0.052500 0.000000
vt -0.012500 -0.003536 0.000000
vt 0.047500 -0.003536 0.000000
vt -0.017500 0.003536 0.000000
vt 0.052500 0.003536 0.000000
vt 0.003536 0.017500 0.000000
vt -0.003536 0.012500 0.000000
vt 0.003536 -0.052500 0.000000
vt -0.003536 -0.047500 0.000000
vt -0.000000 -0.195000 0.000000
vt 0.070000 -0.195000 0.000000
vt -0.000000 0.795000 0.000000
vt 0.070000 0.795000 0.000000
vt -0.000000 -0.195000 0.000000
vt 0.070000 -0.195000 0.000000
vt 0.000000 0.795000 0.000000
vt 0.070000 0.795000 0.000000
vt -0.030000 -0.030000 0.000000
vt 0.030000 -0.030000 0.000000
vt -0.030000 0.030000 0.000000
vt 0.030000 0.030000 0.000000
vt 0.047500 0.003536 0.000000
vt -0.012500 0.003536 0.000000
vt 0.052500 -0.003536 0.000000
vt -0.017500 -0.003536 0.000000
vt 0.003536 -0.047500 0.000000
vt 0.003536 0.012500 0.000000
vt -0.003536 -0.052500 0.000000
vt -0.003536 0.017500 0.000000
vt -0.047500 -0.003536 0.000000
vt 0.012500 -0.003536 0.000000
vt -0.052500 0.003536 0.000000
vt 0.017500 0.003536 0.000000
vt 0.003536 0.052500 0.000000
vt -0.003536 0.047500 0.000000
vt 0.003536 -0.017500 0.000000
vt -0.003536 -0.012500 0.000000
vt -0.000000 -0.195000 0.000000
vt 0.070000 -0.195000 0.000000
vt 0.000000 0.795000 0.000000
vt 0.070000 0.795000 0.000000
vt -0.030000 -0.030000 0.000000
vt 0.030000 -0.030000 0.000000
vt -0.030000 0.030000 0.000000
vt 0.030000 0.030000 0.000000
vt 0.000000 -0.195000 0.000000
vt 0.070000 -0.195000 0.000000
vt -0.000000 0.795000 0.000000
vt 0.070000 0.795000 0.000000
vn -1.000000 -0.000000 -0.000000
vn -1.000000 -0.000000 -0.000000
vn -1.000000 -0.000000 -0.000000
vn -1.000000 -0.000000 -0.000000
vn -0.500000 0.500000 -0.707107
vn -0.500000 0.500000 -0.707107
vn -0.500000 0.500000 -0.707107
vn -0.500000 0.500000 -0.707107
vn 0.000000 1.000000 -0.000000
vn 0.000000 1.000000 -0.000000
vn 0.000000 1.000000 -0.000000
vn 0.000000 1.000000 -0.000000
vn -0.500000 0.500000 0.707107
vn -0.500000 0.500000 0.707107
vn -0.500000 0.500000 0.707107
vn -0.500000 0.500000 0.707107
vn -0.000000 0.000000 1.000000
vn -0.000000 0.000000 1.000000
vn -0.000000 0.000000 1.000000
vn -0.000000 0.000000 1.000000
vn -0.707107 -0.707107 0.000000
vn -0.707107 -0.707107 0.000000
vn -0.707107 -0.707107 0.000000
vn -0.707107 -0.707107 0.000000
vn -0.707107 0.707107 -0.000000
vn -0.707107 0.707107 -0.000000
vn -0.707107 0.707107 -0.000000
vn -0.707107 0.707107 -0.000000
vn -0.000000 -1.000000 0.000000
vn -0.000000 -1.000000 0.000000
vn -0.000000 -1.000000 0.000000
vn -0.000000 -1.000000 0.000000
vn 0.500000 -0.500000 0.707107
vn 0.500000 -0.500000 0.707107
vn 0.500000 -0.500000 0.707107
vn 0.500000 -0.500000 0.707107
vn 1.000000 0.000000 0.000000
vn 1.000000 0.000000 0.000000
vn 1.000000 0.000000 0.000000
vn 1.000000 0.000000 0.000000
vn 0.500000 -0.500000 -0.707107
vn 0.500000 -0.500000 -0.707107
vn 0.500000 -0.500000 -0.707107
vn 0.500000 -0.500000 -0.707107
vn 0.000000 -0.000000 -1.000000
vn 0.000000 -0.000000 -1.000000
vn 0.000000 -0.000000 -1.000000
vn 0.000000 -0.000000 -1.000000
vn 0.707107 -0.707107 0.000000
vn 0.707107 -0.707107 0.000000
vn 0.707107 -0.707107 0.000000
vn 0.707107 -0.707107 0.000000
vn 0.707107 0.707107 -0.000000
vn 0.707107 0.707107 -0.000000
vn 0.707107 0.707107 -0.000000
vn 0.707107 0.707107 -0.000000
usemtl Polycarbonate_(Clear)
f 1/1/1 2/2/2 4/3/3
f 4/3/3 2/2/2 3/4/4
f 2/5/5 5/6/6 3/7/7
f 3/7/7 5/6/6 6/8/8
f 5/9/9 7/10/10 6/11/11
f 6/11/11 7/10/10 8/12/12
f 8/13/13 7/14/14 4/15/15
f 4/15/15 7/14/14 1/16/16
f 8/17/17 4/18/18 10/19/19
f 10/19/19 4/18/18 9/20/20
f 4/21/21 3/22/22 9/23/23
f 9/23/23 3/22/22 11/24/24
f 2/25/25 1/26/26 5/27/27
f 5/27/27 1/26/26 7/28/28
f 12/29/29 13/30/30 11/31/31
f 11/31/31 13/30/30 9/32/32
f 13/33/33 14/34/34 9/35/35
f 9/35/35 14/34/34 10/36/36
f 14/37/37 15/38/38 10/39/39
f 10/39/39 15/38/38 16/40/40
f 16/41/41 15/42/42 11/43/43
f 11/43/43 15/42/42 12/44/44
f 3/45/45 6/46/46 11/47/47
f 11/47/47 6/46/46 16/48/48
f 13/49/49 12/50/50 14/51/51
f 14/51/51 12/50/50 15/52/52
f 6/53/53 8/54/54 16/55/55
f 16/55/55 8/54/54 10/56/56
# 16 vertices
# 56 texture params
# 56 normals
# 28 facets

# 1 groups
