# WaveFront *.obj file (generated by Autodesk ATF)

mtllib body123_visual.mtl

g Body123

v 62.851592 -65.172070 93.668146
v 62.845096 -65.178567 93.667295
v 62.838821 -65.184842 93.664770
v 62.832980 -65.190683 93.660657
v 62.827774 -65.195889 93.655096
v 62.823378 -65.200285 93.648278
v 62.819944 -65.203719 93.640433
v 62.817587 -65.206076 93.631829
v 62.816388 -65.207275 93.622759
v 62.816388 -65.207275 93.613532
v 62.817587 -65.206076 93.604463
v 62.819944 -65.203719 93.595859
v 62.823378 -65.200285 93.588014
v 62.827774 -65.195889 93.581195
v 62.832980 -65.190683 93.575635
v 62.838821 -65.184842 93.571522
v 62.845096 -65.178567 93.568997
v 62.851592 -65.172070 93.568146
v 62.858089 -65.165574 93.568997
v 62.864364 -65.159299 93.571522
v 62.870205 -65.153458 93.575635
v 62.875411 -65.148252 93.581195
v 62.879807 -65.143856 93.588014
v 62.883241 -65.140422 93.595859
v 62.885598 -65.138065 93.604463
v 62.886797 -65.136866 93.613532
v 62.886797 -65.136866 93.622759
v 62.885598 -65.138065 93.631829
v 62.883241 -65.140422 93.640433
v 62.879807 -65.143856 93.648278
v 62.875411 -65.148252 93.655096
v 62.870205 -65.153458 93.660657
v 62.864364 -65.159299 93.664770
v 62.858089 -65.165574 93.667295
v 62.674816 -64.995294 93.668146
v 62.681312 -64.988797 93.667295
v 62.687588 -64.982522 93.664770
v 62.693428 -64.976682 93.660657
v 62.698634 -64.971475 93.655096
v 62.703030 -64.967080 93.648278
v 62.706464 -64.963645 93.640433
v 62.708821 -64.961288 93.631829
v 62.710020 -64.960089 93.622759
v 62.710020 -64.960089 93.613532
v 62.708821 -64.961288 93.604463
v 62.706464 -64.963645 93.595859
v 62.703030 -64.967080 93.588014
v 62.698634 -64.971475 93.581195
v 62.693428 -64.976682 93.575635
v 62.687588 -64.982522 93.571522
v 62.681312 -64.988797 93.568997
v 62.674816 -64.995294 93.568146
v 62.668319 -65.001790 93.568997
v 62.662044 -65.008066 93.571522
v 62.656204 -65.013906 93.575635
v 62.650997 -65.019112 93.581195
v 62.646602 -65.023508 93.588014
v 62.643167 -65.026943 93.595859
v 62.640810 -65.029299 93.604463
v 62.639611 -65.030498 93.613532
v 62.639611 -65.030498 93.622759
v 62.640810 -65.029299 93.631829
v 62.643167 -65.026943 93.640433
v 62.646602 -65.023508 93.648278
v 62.650997 -65.019112 93.655096
v 62.656204 -65.013906 93.660657
v 62.662044 -65.008066 93.664770
v 62.668319 -65.001790 93.667295
v 62.763204 -65.083682 93.668146
v 62.756708 -65.090179 93.667295
v 62.750432 -65.096454 93.664770
v 62.744592 -65.102294 93.660657
v 62.739385 -65.107501 93.655096
v 62.734990 -65.111896 93.648278
v 62.731555 -65.115331 93.640433
v 62.729198 -65.117688 93.631829
v 62.728000 -65.118887 93.622759
v 62.728000 -65.118887 93.613532
v 62.729198 -65.117688 93.604463
v 62.731555 -65.115331 93.595859
v 62.734990 -65.111896 93.588014
v 62.739385 -65.107501 93.581195
v 62.744592 -65.102294 93.575635
v 62.750432 -65.096454 93.571522
v 62.756708 -65.090179 93.568997
v 62.763204 -65.083682 93.568146
v 62.769701 -65.077186 93.568997
v 62.775976 -65.070910 93.571522
v 62.781816 -65.065070 93.575635
v 62.787023 -65.059863 93.581195
v 62.791418 -65.055468 93.588014
v 62.794853 -65.052033 93.595859
v 62.797210 -65.049676 93.604463
v 62.798409 -65.048478 93.613532
v 62.798409 -65.048478 93.622759
v 62.797210 -65.049676 93.631829
v 62.794853 -65.052033 93.640433
v 62.791418 -65.055468 93.648278
v 62.787023 -65.059863 93.655096
v 62.781816 -65.065070 93.660657
v 62.775976 -65.070910 93.664770
v 62.769701 -65.077186 93.667295
v 62.734920 -64.935190 93.493146
v 62.763204 -64.906905 93.533146
v 62.939981 -65.083682 93.533146
v 62.911696 -65.111966 93.493146
v 62.614712 -65.055398 93.493146
v 62.791488 -65.232174 93.493146
v 62.586427 -65.083682 93.533146
v 62.763204 -65.260459 93.533146
v 62.586427 -65.083682 93.703146
v 62.763204 -65.260459 93.703146
v 62.614712 -65.055398 93.743146
v 62.791488 -65.232174 93.743146
v 62.734920 -64.935190 93.743146
v 62.911696 -65.111966 93.743146
v 62.763204 -64.906905 93.703146
v 62.939981 -65.083682 93.703146
vt 0.250000 -0.147840 0.000000
vt 0.125000 -0.147840 0.000000
vt 0.250000 -0.157080 0.000000
vt 0.125000 -0.157080 0.000000
vt 0.250000 0.157080 0.000000
vt 0.125000 0.157080 0.000000
vt 0.250000 0.147840 0.000000
vt 0.125000 0.147840 0.000000
vt 0.250000 0.138600 0.000000
vt 0.125000 0.138600 0.000000
vt 0.250000 0.129360 0.000000
vt 0.125000 0.129360 0.000000
vt 0.250000 0.120120 0.000000
vt 0.125000 0.120120 0.000000
vt 0.250000 0.110880 0.000000
vt 0.125000 0.110880 0.000000
vt 0.250000 0.101640 0.000000
vt 0.125000 0.101640 0.000000
vt 0.250000 0.092400 0.000000
vt 0.125000 0.092400 0.000000
vt 0.250000 0.083160 0.000000
vt 0.125000 0.083160 0.000000
vt 0.250000 0.073920 0.000000
vt 0.125000 0.073920 0.000000
vt 0.250000 0.064680 0.000000
vt 0.125000 0.064680 0.000000
vt 0.250000 0.055440 0.000000
vt 0.125000 0.055440 0.000000
vt 0.250000 0.046200 0.000000
vt 0.125000 0.046200 0.000000
vt 0.250000 0.036960 0.000000
vt 0.125000 0.036960 0.000000
vt 0.250000 0.027720 0.000000
vt 0.125000 0.027720 0.000000
vt 0.250000 0.018480 0.000000
vt 0.125000 0.018480 0.000000
vt 0.250000 0.009240 0.000000
vt 0.125000 0.009240 0.000000
vt 0.250000 0.000000 0.000000
vt 0.125000 0.000000 0.000000
vt 0.250000 -0.009240 0.000000
vt 0.125000 -0.009240 0.000000
vt 0.250000 -0.018480 0.000000
vt 0.125000 -0.018480 0.000000
vt 0.250000 -0.027720 0.000000
vt 0.125000 -0.027720 0.000000
vt 0.250000 -0.036960 0.000000
vt 0.125000 -0.036960 0.000000
vt 0.250000 -0.046200 0.000000
vt 0.125000 -0.046200 0.000000
vt 0.250000 -0.055440 0.000000
vt 0.125000 -0.055440 0.000000
vt 0.250000 -0.064680 0.000000
vt 0.125000 -0.064680 0.000000
vt 0.250000 -0.073920 0.000000
vt 0.125000 -0.073920 0.000000
vt 0.250000 -0.083160 0.000000
vt 0.125000 -0.083160 0.000000
vt 0.250000 -0.092400 0.000000
vt 0.125000 -0.092400 0.000000
vt 0.250000 -0.101640 0.000000
vt 0.125000 -0.101640 0.000000
vt 0.250000 -0.110880 0.000000
vt 0.125000 -0.110880 0.000000
vt 0.250000 -0.120120 0.000000
vt 0.125000 -0.120120 0.000000
vt 0.250000 -0.129360 0.000000
vt 0.125000 -0.129360 0.000000
vt 0.250000 -0.138600 0.000000
vt 0.125000 -0.138600 0.000000
vt 0.000000 0.147840 0.000000
vt 0.000000 0.157080 0.000000
vt 0.000000 -0.157080 0.000000
vt 0.000000 -0.147840 0.000000
vt 0.000000 -0.138600 0.000000
vt -0.000000 -0.129360 0.000000
vt -0.000000 -0.120120 0.000000
vt 0.000000 -0.110880 0.000000
vt 0.000000 -0.101640 0.000000
vt -0.000000 -0.092400 0.000000
vt 0.000000 -0.083160 0.000000
vt 0.000000 -0.073920 0.000000
vt -0.000000 -0.064680 0.000000
vt 0.000000 -0.055440 0.000000
vt 0.000000 -0.046200 0.000000
vt -0.000000 -0.036960 0.000000
vt -0.000000 -0.027720 0.000000
vt -0.000000 -0.018480 0.000000
vt -0.000000 -0.009240 0.000000
vt -0.000000 0.000000 0.000000
vt -0.000000 0.009240 0.000000
vt -0.000000 0.018480 0.000000
vt 0.000000 0.027720 0.000000
vt 0.000000 0.036960 0.000000
vt -0.000000 0.046200 0.000000
vt -0.000000 0.055440 0.000000
vt 0.000000 0.064680 0.000000
vt -0.000000 0.073920 0.000000
vt -0.000000 0.083160 0.000000
vt 0.000000 0.092400 0.000000
vt -0.000000 0.101640 0.000000
vt -0.000000 0.110880 0.000000
vt 0.000000 0.120120 0.000000
vt 0.000000 0.129360 0.000000
vt 0.000000 0.138600 0.000000
vt 0.000000 0.000000 0.000000
vt 0.056569 -0.000000 0.000000
vt -0.000000 0.250000 0.000000
vt 0.056569 0.250000 0.000000
vt 0.000000 0.000000 0.000000
vt 0.170000 -0.000000 0.000000
vt -0.000000 0.250000 0.000000
vt 0.170000 0.250000 0.000000
vt 0.000000 0.000000 0.000000
vt 0.056569 0.000000 0.000000
vt 0.000000 0.250000 0.000000
vt 0.056569 0.250000 0.000000
vt 0.000000 0.000000 0.000000
vt 0.170000 -0.000000 0.000000
vt 0.000000 0.250000 0.000000
vt 0.170000 0.250000 0.000000
vt -0.000000 0.000000 0.000000
vt 0.056569 -0.000000 0.000000
vt 0.000000 0.250000 0.000000
vt 0.056569 0.250000 0.000000
vt 0.000000 0.000000 0.000000
vt 0.170000 0.000000 0.000000
vt -0.000000 0.250000 0.000000
vt 0.170000 0.250000 0.000000
vt 0.000000 0.000000 0.000000
vt 0.056569 0.000000 0.000000
vt -0.000000 0.250000 0.000000
vt 0.056569 0.250000 0.000000
vt 0.000000 0.000000 0.000000
vt 0.170000 0.000000 0.000000
vt -0.000000 0.250000 0.000000
vt 0.170000 0.250000 0.000000
vt -0.049149 0.009187 0.000000
vt -0.125000 0.085000 0.000000
vt -0.050000 -0.000000 0.000000
vt -0.125000 -0.085000 0.000000
vt -0.049149 -0.009187 0.000000
vt -0.046624 -0.018062 0.000000
vt -0.042511 -0.026322 0.000000
vt -0.036950 -0.033685 0.000000
vt -0.085000 -0.125000 0.000000
vt -0.030132 -0.039901 0.000000
vt -0.022287 -0.044758 0.000000
vt -0.013683 -0.048091 0.000000
vt -0.004613 -0.049787 0.000000
vt 0.085000 -0.125000 0.000000
vt 0.004613 -0.049787 0.000000
vt 0.013683 -0.048091 0.000000
vt 0.022287 -0.044758 0.000000
vt 0.030132 -0.039901 0.000000
vt 0.036950 -0.033685 0.000000
vt 0.125000 -0.085000 0.000000
vt 0.042511 -0.026322 0.000000
vt 0.046624 -0.018062 0.000000
vt 0.049149 -0.009187 0.000000
vt 0.050000 0.000000 0.000000
vt 0.125000 0.085000 0.000000
vt 0.049149 0.009187 0.000000
vt 0.046624 0.018062 0.000000
vt 0.042511 0.026322 0.000000
vt 0.036950 0.033685 0.000000
vt 0.085000 0.125000 0.000000
vt 0.030132 0.039901 0.000000
vt 0.022287 0.044758 0.000000
vt 0.013683 0.048091 0.000000
vt 0.004613 0.049787 0.000000
vt -0.085000 0.125000 0.000000
vt -0.004613 0.049787 0.000000
vt -0.013683 0.048091 0.000000
vt -0.022287 0.044758 0.000000
vt -0.030132 0.039901 0.000000
vt -0.036950 0.033685 0.000000
vt -0.042511 0.026322 0.000000
vt -0.046624 0.018062 0.000000
vt 0.049149 -0.009187 0.000000
vt 0.125000 -0.085000 0.000000
vt 0.050000 -0.000000 0.000000
vt 0.125000 0.085000 0.000000
vt 0.049149 0.009187 0.000000
vt 0.046624 0.018062 0.000000
vt 0.042511 0.026322 0.000000
vt 0.036950 0.033685 0.000000
vt 0.085000 0.125000 0.000000
vt 0.030132 0.039901 0.000000
vt 0.022287 0.044758 0.000000
vt 0.013683 0.048091 0.000000
vt 0.004613 0.049787 0.000000
vt -0.085000 0.125000 0.000000
vt -0.004613 0.049787 0.000000
vt -0.013683 0.048091 0.000000
vt -0.022287 0.044758 0.000000
vt -0.030132 0.039901 0.000000
vt -0.036950 0.033685 0.000000
vt -0.125000 0.085000 0.000000
vt -0.042511 0.026322 0.000000
vt -0.046624 0.018062 0.000000
vt -0.049149 0.009187 0.000000
vt -0.050000 0.000000 0.000000
vt -0.125000 -0.085000 0.000000
vt -0.049149 -0.009187 0.000000
vt -0.046624 -0.018062 0.000000
vt -0.042511 -0.026322 0.000000
vt -0.036950 -0.033685 0.000000
vt -0.085000 -0.125000 0.000000
vt -0.030132 -0.039901 0.000000
vt -0.022287 -0.044758 0.000000
vt -0.013683 -0.048091 0.000000
vt -0.004613 -0.049787 0.000000
vt 0.085000 -0.125000 0.000000
vt 0.004613 -0.049787 0.000000
vt 0.013683 -0.048091 0.000000
vt 0.022287 -0.044758 0.000000
vt 0.030132 -0.039901 0.000000
vt 0.036950 -0.033685 0.000000
vt 0.042511 -0.026322 0.000000
vt 0.046624 -0.018062 0.000000
vn 0.129931 0.129931 -0.982973
vn 0.129931 0.129931 -0.982973
vn 0.000000 -0.000000 -1.000000
vn 0.000000 -0.000000 -1.000000
vn -0.129931 -0.129931 -0.982973
vn -0.129931 -0.129931 -0.982973
vn -0.255436 -0.255436 -0.932472
vn -0.255436 -0.255436 -0.932472
vn -0.372244 -0.372244 -0.850217
vn -0.372244 -0.372244 -0.850217
vn -0.476375 -0.476375 -0.739009
vn -0.476375 -0.476375 -0.739009
vn -0.564283 -0.564283 -0.602635
vn -0.564283 -0.564283 -0.602635
vn -0.632976 -0.632976 -0.445738
vn -0.632976 -0.632976 -0.445738
vn -0.680113 -0.680113 -0.273663
vn -0.680113 -0.680113 -0.273663
vn -0.704090 -0.704090 -0.092268
vn -0.704090 -0.704090 -0.092268
vn -0.704090 -0.704090 0.092268
vn -0.704090 -0.704090 0.092268
vn -0.680113 -0.680113 0.273663
vn -0.680113 -0.680113 0.273663
vn -0.632976 -0.632976 0.445738
vn -0.632976 -0.632976 0.445738
vn -0.564283 -0.564283 0.602635
vn -0.564283 -0.564283 0.602635
vn -0.476375 -0.476375 0.739009
vn -0.476375 -0.476375 0.739009
vn -0.372244 -0.372244 0.850217
vn -0.372244 -0.372244 0.850217
vn -0.255436 -0.255436 0.932472
vn -0.255436 -0.255436 0.932472
vn -0.129931 -0.129931 0.982973
vn -0.129931 -0.129931 0.982973
vn -0.000000 -0.000000 1.000000
vn -0.000000 -0.000000 1.000000
vn 0.129931 0.129931 0.982973
vn 0.129931 0.129931 0.982973
vn 0.255436 0.255436 0.932472
vn 0.255436 0.255436 0.932472
vn 0.372244 0.372244 0.850217
vn 0.372244 0.372244 0.850217
vn 0.476375 0.476375 0.739009
vn 0.476375 0.476375 0.739009
vn 0.564283 0.564283 0.602635
vn 0.564283 0.564283 0.602635
vn 0.632976 0.632976 0.445738
vn 0.632976 0.632976 0.445738
vn 0.680113 0.680113 0.273663
vn 0.680113 0.680113 0.273663
vn 0.704090 0.704090 0.092268
vn 0.704090 0.704090 0.092268
vn 0.704090 0.704090 -0.092268
vn 0.704090 0.704090 -0.092268
vn 0.680113 0.680113 -0.273663
vn 0.680113 0.680113 -0.273663
vn 0.632976 0.632976 -0.445738
vn 0.632976 0.632976 -0.445738
vn 0.564283 0.564283 -0.602635
vn 0.564283 0.564283 -0.602635
vn 0.476375 0.476375 -0.739009
vn 0.476375 0.476375 -0.739009
vn 0.372244 0.372244 -0.850217
vn 0.372244 0.372244 -0.850217
vn 0.255436 0.255436 -0.932472
vn 0.255436 0.255436 -0.932472
vn -0.129931 -0.129931 -0.982973
vn 0.000000 -0.000000 -1.000000
vn 0.129931 0.129931 -0.982973
vn 0.255436 0.255436 -0.932472
vn 0.372244 0.372244 -0.850217
vn 0.476375 0.476375 -0.739009
vn 0.564283 0.564283 -0.602635
vn 0.632976 0.632976 -0.445738
vn 0.680113 0.680113 -0.273663
vn 0.704090 0.704090 -0.092268
vn 0.704090 0.704090 0.092268
vn 0.680113 0.680113 0.273663
vn 0.632976 0.632976 0.445738
vn 0.564283 0.564283 0.602635
vn 0.476375 0.476375 0.739009
vn 0.372244 0.372244 0.850217
vn 0.255436 0.255436 0.932472
vn 0.129931 0.129931 0.982973
vn -0.000000 0.000000 1.000000
vn -0.129931 -0.129931 0.982973
vn -0.255436 -0.255436 0.932472
vn -0.372244 -0.372244 0.850217
vn -0.476375 -0.476375 0.739009
vn -0.564283 -0.564283 0.602635
vn -0.632976 -0.632976 0.445738
vn -0.680113 -0.680113 0.273663
vn -0.704090 -0.704090 0.092268
vn -0.704090 -0.704090 -0.092268
vn -0.680113 -0.680113 -0.273663
vn -0.632976 -0.632976 -0.445738
vn -0.564283 -0.564283 -0.602635
vn -0.476375 -0.476375 -0.739009
vn -0.372244 -0.372244 -0.850217
vn -0.255436 -0.255436 -0.932472
vn 0.500000 0.500000 -0.707107
vn 0.500000 0.500000 -0.707107
vn 0.500000 0.500000 -0.707107
vn 0.500000 0.500000 -0.707107
vn 0.000000 -0.000000 -1.000000
vn 0.000000 -0.000000 -1.000000
vn 0.000000 -0.000000 -1.000000
vn 0.000000 -0.000000 -1.000000
vn -0.500000 -0.500000 -0.707107
vn -0.500000 -0.500000 -0.707107
vn -0.500000 -0.500000 -0.707107
vn -0.500000 -0.500000 -0.707107
vn -0.707107 -0.707107 0.000000
vn -0.707107 -0.707107 0.000000
vn -0.707107 -0.707107 0.000000
vn -0.707107 -0.707107 0.000000
vn -0.500000 -0.500000 0.707107
vn -0.500000 -0.500000 0.707107
vn -0.500000 -0.500000 0.707107
vn -0.500000 -0.500000 0.707107
vn -0.000000 0.000000 1.000000
vn -0.000000 0.000000 1.000000
vn -0.000000 0.000000 1.000000
vn -0.000000 0.000000 1.000000
vn 0.500000 0.500000 0.707107
vn 0.500000 0.500000 0.707107
vn 0.500000 0.500000 0.707107
vn 0.500000 0.500000 0.707107
vn 0.707107 0.707107 -0.000000
vn 0.707107 0.707107 -0.000000
vn 0.707107 0.707107 -0.000000
vn 0.707107 0.707107 -0.000000
vn 0.707107 -0.707107 0.000000
vn 0.707107 -0.707107 0.000000
vn 0.707107 -0.707107 0.000000
vn 0.707107 -0.707107 0.000000
vn 0.707107 -0.707107 0.000000
vn 0.707107 -0.707107 0.000000
vn 0.707107 -0.707107 0.000000
vn 0.707107 -0.707107 0.000000
vn 0.707107 -0.707107 0.000000
vn 0.707107 -0.707107 0.000000
vn 0.707107 -0.707107 0.000000
vn 0.707107 -0.707107 0.000000
vn 0.707107 -0.707107 0.000000
vn 0.707107 -0.707107 0.000000
vn 0.707107 -0.707107 0.000000
vn 0.707107 -0.707107 0.000000
vn 0.707107 -0.707107 0.000000
vn 0.707107 -0.707107 0.000000
vn 0.707107 -0.707107 0.000000
vn 0.707107 -0.707107 0.000000
vn 0.707107 -0.707107 0.000000
vn 0.707107 -0.707107 0.000000
vn 0.707107 -0.707107 0.000000
vn 0.707107 -0.707107 0.000000
vn 0.707107 -0.707107 0.000000
vn 0.707107 -0.707107 0.000000
vn 0.707107 -0.707107 0.000000
vn 0.707107 -0.707107 0.000000
vn 0.707107 -0.707107 0.000000
vn 0.707107 -0.707107 0.000000
vn 0.707107 -0.707107 0.000000
vn 0.707107 -0.707107 0.000000
vn 0.707107 -0.707107 0.000000
vn 0.707107 -0.707107 0.000000
vn 0.707107 -0.707107 0.000000
vn 0.707107 -0.707107 0.000000
vn 0.707107 -0.707107 0.000000
vn 0.707107 -0.707107 0.000000
vn 0.707107 -0.707107 0.000000
vn 0.707107 -0.707107 0.000000
vn 0.707107 -0.707107 0.000000
vn 0.707107 -0.707107 0.000000
vn -0.707107 0.707107 -0.000000
vn -0.707107 0.707107 -0.000000
vn -0.707107 0.707107 -0.000000
vn -0.707107 0.707107 -0.000000
vn -0.707107 0.707107 -0.000000
vn -0.707107 0.707107 -0.000000
vn -0.707107 0.707107 -0.000000
vn -0.707107 0.707107 -0.000000
vn -0.707107 0.707107 -0.000000
vn -0.707107 0.707107 -0.000000
vn -0.707107 0.707107 -0.000000
vn -0.707107 0.707107 -0.000000
vn -0.707107 0.707107 -0.000000
vn -0.707107 0.707107 -0.000000
vn -0.707107 0.707107 -0.000000
vn -0.707107 0.707107 -0.000000
vn -0.707107 0.707107 -0.000000
vn -0.707107 0.707107 -0.000000
vn -0.707107 0.707107 -0.000000
vn -0.707107 0.707107 -0.000000
vn -0.707107 0.707107 -0.000000
vn -0.707107 0.707107 -0.000000
vn -0.707107 0.707107 -0.000000
vn -0.707107 0.707107 -0.000000
vn -0.707107 0.707107 -0.000000
vn -0.707107 0.707107 -0.000000
vn -0.707107 0.707107 -0.000000
vn -0.707107 0.707107 -0.000000
vn -0.707107 0.707107 -0.000000
vn -0.707107 0.707107 -0.000000
vn -0.707107 0.707107 -0.000000
vn -0.707107 0.707107 -0.000000
vn -0.707107 0.707107 -0.000000
vn -0.707107 0.707107 -0.000000
vn -0.707107 0.707107 -0.000000
vn -0.707107 0.707107 -0.000000
vn -0.707107 0.707107 -0.000000
vn -0.707107 0.707107 -0.000000
vn -0.707107 0.707107 -0.000000
vn -0.707107 0.707107 -0.000000
vn -0.707107 0.707107 -0.000000
vn -0.707107 0.707107 -0.000000
usemtl Polycarbonate_(Clear)
f 2/1/1 70/2/2 1/3/3
f 1/3/3 70/2/2 69/4/4
f 1/5/3 69/6/4 34/7/5
f 34/7/5 69/6/4 102/8/6
f 34/7/5 102/8/6 33/9/7
f 33/9/7 102/8/6 101/10/8
f 33/9/7 101/10/8 32/11/9
f 32/11/9 101/10/8 100/12/10
f 32/11/9 100/12/10 31/13/11
f 31/13/11 100/12/10 99/14/12
f 31/13/11 99/14/12 30/15/13
f 30/15/13 99/14/12 98/16/14
f 30/15/13 98/16/14 29/17/15
f 29/17/15 98/16/14 97/18/16
f 29/17/15 97/18/16 28/19/17
f 28/19/17 97/18/16 96/20/18
f 28/19/17 96/20/18 27/21/19
f 27/21/19 96/20/18 95/22/20
f 27/21/19 95/22/20 26/23/21
f 26/23/21 95/22/20 94/24/22
f 26/23/21 94/24/22 25/25/23
f 25/25/23 94/24/22 93/26/24
f 25/25/23 93/26/24 24/27/25
f 24/27/25 93/26/24 92/28/26
f 24/27/25 92/28/26 23/29/27
f 23/29/27 92/28/26 91/30/28
f 23/29/27 91/30/28 22/31/29
f 22/31/29 91/30/28 90/32/30
f 22/31/29 90/32/30 21/33/31
f 21/33/31 90/32/30 89/34/32
f 21/33/31 89/34/32 20/35/33
f 20/35/33 89/34/32 88/36/34
f 20/35/33 88/36/34 19/37/35
f 19/37/35 88/36/34 87/38/36
f 19/37/35 87/38/36 18/39/37
f 18/39/37 87/38/36 86/40/38
f 18/39/37 86/40/38 17/41/39
f 17/41/39 86/40/38 85/42/40
f 17/41/39 85/42/40 16/43/41
f 16/43/41 85/42/40 84/44/42
f 16/43/41 84/44/42 15/45/43
f 15/45/43 84/44/42 83/46/44
f 15/45/43 83/46/44 14/47/45
f 14/47/45 83/46/44 82/48/46
f 14/47/45 82/48/46 13/49/47
f 13/49/47 82/48/46 81/50/48
f 13/49/47 81/50/48 12/51/49
f 12/51/49 81/50/48 80/52/50
f 12/51/49 80/52/50 11/53/51
f 11/53/51 80/52/50 79/54/52
f 11/53/51 79/54/52 10/55/53
f 10/55/53 79/54/52 78/56/54
f 10/55/53 78/56/54 9/57/55
f 9/57/55 78/56/54 77/58/56
f 9/57/55 77/58/56 8/59/57
f 8/59/57 77/58/56 76/60/58
f 8/59/57 76/60/58 7/61/59
f 7/61/59 76/60/58 75/62/60
f 7/61/59 75/62/60 6/63/61
f 6/63/61 75/62/60 74/64/62
f 6/63/61 74/64/62 5/65/63
f 5/65/63 74/64/62 73/66/64
f 5/65/63 73/66/64 4/67/65
f 4/67/65 73/66/64 72/68/66
f 4/67/65 72/68/66 3/69/67
f 3/69/67 72/68/66 71/70/68
f 3/69/67 71/70/68 2/1/1
f 2/1/1 71/70/68 70/2/2
f 36/71/69 102/8/6 35/72/70
f 35/72/70 102/8/6 69/6/4
f 35/73/70 69/4/4 68/74/71
f 68/74/71 69/4/4 70/2/2
f 68/74/71 70/2/2 67/75/72
f 67/75/72 70/2/2 71/70/68
f 67/75/72 71/70/68 66/76/73
f 66/76/73 71/70/68 72/68/66
f 66/76/73 72/68/66 65/77/74
f 65/77/74 72/68/66 73/66/64
f 65/77/74 73/66/64 64/78/75
f 64/78/75 73/66/64 74/64/62
f 64/78/75 74/64/62 63/79/76
f 63/79/76 74/64/62 75/62/60
f 63/79/76 75/62/60 62/80/77
f 62/80/77 75/62/60 76/60/58
f 62/80/77 76/60/58 61/81/78
f 61/81/78 76/60/58 77/58/56
f 61/81/78 77/58/56 60/82/79
f 60/82/79 77/58/56 78/56/54
f 60/82/79 78/56/54 59/83/80
f 59/83/80 78/56/54 79/54/52
f 59/83/80 79/54/52 58/84/81
f 58/84/81 79/54/52 80/52/50
f 58/84/81 80/52/50 57/85/82
f 57/85/82 80/52/50 81/50/48
f 57/85/82 81/50/48 56/86/83
f 56/86/83 81/50/48 82/48/46
f 56/86/83 82/48/46 55/87/84
f 55/87/84 82/48/46 83/46/44
f 55/87/84 83/46/44 54/88/85
f 54/88/85 83/46/44 84/44/42
f 54/88/85 84/44/42 53/89/86
f 53/89/86 84/44/42 85/42/40
f 53/89/86 85/42/40 52/90/87
f 52/90/87 85/42/40 86/40/38
f 52/90/87 86/40/38 51/91/88
f 51/91/88 86/40/38 87/38/36
f 51/91/88 87/38/36 50/92/89
f 50/92/89 87/38/36 88/36/34
f 50/92/89 88/36/34 49/93/90
f 49/93/90 88/36/34 89/34/32
f 49/93/90 89/34/32 48/94/91
f 48/94/91 89/34/32 90/32/30
f 48/94/91 90/32/30 47/95/92
f 47/95/92 90/32/30 91/30/28
f 47/95/92 91/30/28 46/96/93
f 46/96/93 91/30/28 92/28/26
f 46/96/93 92/28/26 45/97/94
f 45/97/94 92/28/26 93/26/24
f 45/97/94 93/26/24 44/98/95
f 44/98/95 93/26/24 94/24/22
f 44/98/95 94/24/22 43/99/96
f 43/99/96 94/24/22 95/22/20
f 43/99/96 95/22/20 42/100/97
f 42/100/97 95/22/20 96/20/18
f 42/100/97 96/20/18 41/101/98
f 41/101/98 96/20/18 97/18/16
f 41/101/98 97/18/16 40/102/99
f 40/102/99 97/18/16 98/16/14
f 40/102/99 98/16/14 39/103/100
f 39/103/100 98/16/14 99/14/12
f 39/103/100 99/14/12 38/104/101
f 38/104/101 99/14/12 100/12/10
f 38/104/101 100/12/10 37/105/102
f 37/105/102 100/12/10 101/10/8
f 37/105/102 101/10/8 36/71/69
f 36/71/69 101/10/8 102/8/6
f 103/106/103 104/107/104 106/108/105
f 106/108/105 104/107/104 105/109/106
f 107/110/107 103/111/108 108/112/109
f 108/112/109 103/111/108 106/113/110
f 109/114/111 107/115/112 110/116/113
f 110/116/113 107/115/112 108/117/114
f 111/118/115 109/119/116 112/120/117
f 112/120/117 109/119/116 110/121/118
f 113/122/119 111/123/120 114/124/121
f 114/124/121 111/123/120 112/125/122
f 115/126/123 113/127/124 116/128/125
f 116/128/125 113/127/124 114/129/126
f 117/130/127 115/131/128 118/132/129
f 118/132/129 115/131/128 116/133/130
f 104/134/131 117/135/132 105/136/133
f 105/136/133 117/135/132 118/137/134
f 34/138/135 116/139/136 1/140/137
f 1/140/137 116/139/136 114/141/138
f 1/140/137 114/141/138 2/142/139
f 2/142/139 114/141/138 3/143/140
f 3/143/140 114/141/138 4/144/141
f 4/144/141 114/141/138 5/145/142
f 5/145/142 114/141/138 112/146/143
f 5/145/142 112/146/143 6/147/144
f 6/147/144 112/146/143 7/148/145
f 7/148/145 112/146/143 8/149/146
f 8/149/146 112/146/143 9/150/147
f 9/150/147 112/146/143 110/151/148
f 9/150/147 110/151/148 10/152/149
f 10/152/149 110/151/148 11/153/150
f 11/153/150 110/151/148 12/154/151
f 12/154/151 110/151/148 13/155/152
f 13/155/152 110/151/148 14/156/153
f 14/156/153 110/151/148 108/157/154
f 14/156/153 108/157/154 15/158/155
f 15/158/155 108/157/154 16/159/156
f 16/159/156 108/157/154 17/160/157
f 17/160/157 108/157/154 18/161/158
f 18/161/158 108/157/154 106/162/159
f 18/161/158 106/162/159 19/163/160
f 19/163/160 106/162/159 20/164/161
f 20/164/161 106/162/159 21/165/162
f 21/165/162 106/162/159 22/166/163
f 22/166/163 106/162/159 105/167/164
f 22/166/163 105/167/164 23/168/165
f 23/168/165 105/167/164 24/169/166
f 24/169/166 105/167/164 25/170/167
f 25/170/167 105/167/164 26/171/168
f 26/171/168 105/167/164 118/172/169
f 26/171/168 118/172/169 27/173/170
f 27/173/170 118/172/169 28/174/171
f 28/174/171 118/172/169 29/175/172
f 29/175/172 118/172/169 30/176/173
f 30/176/173 118/172/169 31/177/174
f 31/177/174 118/172/169 116/139/136
f 31/177/174 116/139/136 32/178/175
f 32/178/175 116/139/136 33/179/176
f 33/179/176 116/139/136 34/138/135
f 68/180/177 113/181/178 35/182/179
f 35/182/179 113/181/178 115/183/180
f 35/182/179 115/183/180 36/184/181
f 36/184/181 115/183/180 37/185/182
f 37/185/182 115/183/180 38/186/183
f 38/186/183 115/183/180 39/187/184
f 39/187/184 115/183/180 117/188/185
f 39/187/184 117/188/185 40/189/186
f 40/189/186 117/188/185 41/190/187
f 41/190/187 117/188/185 42/191/188
f 42/191/188 117/188/185 43/192/189
f 43/192/189 117/188/185 104/193/190
f 43/192/189 104/193/190 44/194/191
f 44/194/191 104/193/190 45/195/192
f 45/195/192 104/193/190 46/196/193
f 46/196/193 104/193/190 47/197/194
f 47/197/194 104/193/190 48/198/195
f 48/198/195 104/193/190 103/199/196
f 48/198/195 103/199/196 49/200/197
f 49/200/197 103/199/196 50/201/198
f 50/201/198 103/199/196 51/202/199
f 51/202/199 103/199/196 52/203/200
f 52/203/200 103/199/196 107/204/201
f 52/203/200 107/204/201 53/205/202
f 53/205/202 107/204/201 54/206/203
f 54/206/203 107/204/201 55/207/204
f 55/207/204 107/204/201 56/208/205
f 56/208/205 107/204/201 109/209/206
f 56/208/205 109/209/206 57/210/207
f 57/210/207 109/209/206 58/211/208
f 58/211/208 109/209/206 59/212/209
f 59/212/209 109/209/206 60/213/210
f 60/213/210 109/209/206 111/214/211
f 60/213/210 111/214/211 61/215/212
f 61/215/212 111/214/211 62/216/213
f 62/216/213 111/214/211 63/217/214
f 63/217/214 111/214/211 64/218/215
f 64/218/215 111/214/211 65/219/216
f 65/219/216 111/214/211 113/181/178
f 65/219/216 113/181/178 66/220/217
f 66/220/217 113/181/178 67/221/218
f 67/221/218 113/181/178 68/180/177
# 118 vertices
# 221 texture params
# 218 normals
# 236 facets

# 1 groups
