# WaveFront *.obj file (generated by Autodesk ATF)

mtllib body127_visual.mtl

g Body127

v 62.320826 -65.702836 96.397914
v 62.314330 -65.709333 96.397062
v 62.308055 -65.715608 96.394537
v 62.302214 -65.721449 96.390424
v 62.297008 -65.726655 96.384864
v 62.292612 -65.731051 96.378045
v 62.289178 -65.734485 96.370200
v 62.286821 -65.736842 96.361597
v 62.285622 -65.738041 96.352527
v 62.285622 -65.738041 96.343300
v 62.286821 -65.736842 96.334230
v 62.289178 -65.734485 96.325627
v 62.292612 -65.731051 96.317782
v 62.297008 -65.726655 96.310963
v 62.302214 -65.721449 96.305403
v 62.308055 -65.715608 96.301290
v 62.314330 -65.709333 96.298765
v 62.320826 -65.702836 96.297914
v 62.327323 -65.696340 96.298765
v 62.333598 -65.690065 96.301290
v 62.339439 -65.684224 96.305403
v 62.344645 -65.679018 96.310963
v 62.349041 -65.674622 96.317782
v 62.352475 -65.671188 96.325627
v 62.354832 -65.668831 96.334230
v 62.356031 -65.667632 96.343300
v 62.356031 -65.667632 96.352527
v 62.354832 -65.668831 96.361597
v 62.352475 -65.671188 96.370200
v 62.349041 -65.674622 96.378045
v 62.344645 -65.679018 96.384864
v 62.339439 -65.684224 96.390424
v 62.333598 -65.690065 96.394537
v 62.327323 -65.696340 96.397062
v 62.144050 -65.526060 96.397914
v 62.150546 -65.519563 96.397062
v 62.156821 -65.513288 96.394537
v 62.162662 -65.507448 96.390424
v 62.167868 -65.502241 96.384864
v 62.172264 -65.497846 96.378045
v 62.175698 -65.494411 96.370200
v 62.178055 -65.492054 96.361597
v 62.179254 -65.490855 96.352527
v 62.179254 -65.490855 96.343300
v 62.178055 -65.492054 96.334230
v 62.175698 -65.494411 96.325627
v 62.172264 -65.497846 96.317782
v 62.167868 -65.502241 96.310963
v 62.162662 -65.507448 96.305403
v 62.156821 -65.513288 96.301290
v 62.150546 -65.519563 96.298765
v 62.144050 -65.526060 96.297914
v 62.137553 -65.532556 96.298765
v 62.131278 -65.538832 96.301290
v 62.125437 -65.544672 96.305403
v 62.120231 -65.549878 96.310963
v 62.115836 -65.554274 96.317782
v 62.112401 -65.557709 96.325627
v 62.110044 -65.560065 96.334230
v 62.108845 -65.561264 96.343300
v 62.108845 -65.561264 96.352527
v 62.110044 -65.560065 96.361597
v 62.112401 -65.557709 96.370200
v 62.115836 -65.554274 96.378045
v 62.120231 -65.549878 96.384864
v 62.125437 -65.544672 96.390424
v 62.131278 -65.538832 96.394537
v 62.137553 -65.532556 96.397062
v 62.232438 -65.614448 96.397914
v 62.225941 -65.620945 96.397062
v 62.219666 -65.627220 96.394537
v 62.213826 -65.633060 96.390424
v 62.208619 -65.638267 96.384864
v 62.204224 -65.642662 96.378045
v 62.200789 -65.646097 96.370200
v 62.198432 -65.648454 96.361597
v 62.197233 -65.649653 96.352527
v 62.197233 -65.649653 96.343300
v 62.198432 -65.648454 96.334230
v 62.200789 -65.646097 96.325627
v 62.204224 -65.642662 96.317782
v 62.208619 -65.638267 96.310963
v 62.213826 -65.633060 96.305403
v 62.219666 -65.627220 96.301290
v 62.225941 -65.620945 96.298765
v 62.232438 -65.614448 96.297914
v 62.238935 -65.607952 96.298765
v 62.245210 -65.601676 96.301290
v 62.251050 -65.595836 96.305403
v 62.256257 -65.590629 96.310963
v 62.260652 -65.586234 96.317782
v 62.264087 -65.582799 96.325627
v 62.266444 -65.580442 96.334230
v 62.267643 -65.579244 96.343300
v 62.267643 -65.579244 96.352527
v 62.266444 -65.580442 96.361597
v 62.264087 -65.582799 96.370200
v 62.260652 -65.586234 96.378045
v 62.256257 -65.590629 96.384864
v 62.251050 -65.595836 96.390424
v 62.245210 -65.601676 96.394537
v 62.238935 -65.607952 96.397062
v 62.232438 -65.437671 96.262914
v 62.232438 -65.437671 96.432914
v 62.409215 -65.614448 96.432914
v 62.409215 -65.614448 96.262914
v 62.204154 -65.465956 96.222914
v 62.380930 -65.642732 96.222914
v 62.083946 -65.586164 96.222914
v 62.260722 -65.762941 96.222914
v 62.055661 -65.614448 96.262914
v 62.232438 -65.791225 96.262914
v 62.055661 -65.614448 96.432914
v 62.232438 -65.791225 96.432914
v 62.083946 -65.586164 96.472914
v 62.260722 -65.762941 96.472914
v 62.204154 -65.465956 96.472914
v 62.380930 -65.642732 96.472914
vt 0.250000 -0.147840 0.000000
vt 0.125000 -0.147840 0.000000
vt 0.250000 -0.157080 0.000000
vt 0.125000 -0.157080 0.000000
vt 0.250000 0.157080 0.000000
vt 0.125000 0.157080 0.000000
vt 0.250000 0.147840 0.000000
vt 0.125000 0.147840 0.000000
vt 0.250000 0.138600 0.000000
vt 0.125000 0.138600 0.000000
vt 0.250000 0.129360 0.000000
vt 0.125000 0.129360 0.000000
vt 0.250000 0.120120 0.000000
vt 0.125000 0.120120 0.000000
vt 0.250000 0.110880 0.000000
vt 0.125000 0.110880 0.000000
vt 0.250000 0.101640 0.000000
vt 0.125000 0.101640 0.000000
vt 0.250000 0.092400 0.000000
vt 0.125000 0.092400 0.000000
vt 0.250000 0.083160 0.000000
vt 0.125000 0.083160 0.000000
vt 0.250000 0.073920 0.000000
vt 0.125000 0.073920 0.000000
vt 0.250000 0.064680 0.000000
vt 0.125000 0.064680 0.000000
vt 0.250000 0.055440 0.000000
vt 0.125000 0.055440 0.000000
vt 0.250000 0.046200 0.000000
vt 0.125000 0.046200 0.000000
vt 0.250000 0.036960 0.000000
vt 0.125000 0.036960 0.000000
vt 0.250000 0.027720 0.000000
vt 0.125000 0.027720 0.000000
vt 0.250000 0.018480 0.000000
vt 0.125000 0.018480 0.000000
vt 0.250000 0.009240 0.000000
vt 0.125000 0.009240 0.000000
vt 0.250000 0.000000 0.000000
vt 0.125000 0.000000 0.000000
vt 0.250000 -0.009240 0.000000
vt 0.125000 -0.009240 0.000000
vt 0.250000 -0.018480 0.000000
vt 0.125000 -0.018480 0.000000
vt 0.250000 -0.027720 0.000000
vt 0.125000 -0.027720 0.000000
vt 0.250000 -0.036960 0.000000
vt 0.125000 -0.036960 0.000000
vt 0.250000 -0.046200 0.000000
vt 0.125000 -0.046200 0.000000
vt 0.250000 -0.055440 0.000000
vt 0.125000 -0.055440 0.000000
vt 0.250000 -0.064680 0.000000
vt 0.125000 -0.064680 0.000000
vt 0.250000 -0.073920 0.000000
vt 0.125000 -0.073920 0.000000
vt 0.250000 -0.083160 0.000000
vt 0.125000 -0.083160 0.000000
vt 0.250000 -0.092400 0.000000
vt 0.125000 -0.092400 0.000000
vt 0.250000 -0.101640 0.000000
vt 0.125000 -0.101640 0.000000
vt 0.250000 -0.110880 0.000000
vt 0.125000 -0.110880 0.000000
vt 0.250000 -0.120120 0.000000
vt 0.125000 -0.120120 0.000000
vt 0.250000 -0.129360 0.000000
vt 0.125000 -0.129360 0.000000
vt 0.250000 -0.138600 0.000000
vt 0.125000 -0.138600 0.000000
vt 0.000000 0.147840 0.000000
vt 0.000000 0.157080 0.000000
vt 0.000000 -0.157080 0.000000
vt 0.000000 -0.147840 0.000000
vt 0.000000 -0.138600 0.000000
vt -0.000000 -0.129360 0.000000
vt -0.000000 -0.120120 0.000000
vt 0.000000 -0.110880 0.000000
vt 0.000000 -0.101640 0.000000
vt -0.000000 -0.092400 0.000000
vt 0.000000 -0.083160 0.000000
vt 0.000000 -0.073920 0.000000
vt -0.000000 -0.064680 0.000000
vt 0.000000 -0.055440 0.000000
vt 0.000000 -0.046200 0.000000
vt -0.000000 -0.036960 0.000000
vt -0.000000 -0.027720 0.000000
vt -0.000000 -0.018480 0.000000
vt -0.000000 -0.009240 0.000000
vt -0.000000 0.000000 0.000000
vt -0.000000 0.009240 0.000000
vt -0.000000 0.018480 0.000000
vt 0.000000 0.027720 0.000000
vt 0.000000 0.036960 0.000000
vt -0.000000 0.046200 0.000000
vt -0.000000 0.055440 0.000000
vt 0.000000 0.064680 0.000000
vt -0.000000 0.073920 0.000000
vt -0.000000 0.083160 0.000000
vt 0.000000 0.092400 0.000000
vt -0.000000 0.101640 0.000000
vt -0.000000 0.110880 0.000000
vt 0.000000 0.120120 0.000000
vt 0.000000 0.129360 0.000000
vt 0.000000 0.138600 0.000000
vt 0.000000 0.000000 0.000000
vt 0.170000 0.000000 0.000000
vt -0.000000 0.250000 0.000000
vt 0.170000 0.250000 0.000000
vt 0.000000 0.000000 0.000000
vt 0.056569 0.000000 0.000000
vt -0.000000 0.250000 0.000000
vt 0.056569 0.250000 0.000000
vt 0.000000 0.000000 0.000000
vt 0.170000 -0.000000 0.000000
vt -0.000000 0.250000 0.000000
vt 0.170000 0.250000 0.000000
vt 0.000000 0.000000 0.000000
vt 0.056569 0.000000 0.000000
vt 0.000000 0.250000 0.000000
vt 0.056569 0.250000 0.000000
vt 0.000000 0.000000 0.000000
vt 0.170000 -0.000000 0.000000
vt 0.000000 0.250000 0.000000
vt 0.170000 0.250000 0.000000
vt -0.000000 0.000000 0.000000
vt 0.056569 -0.000000 0.000000
vt 0.000000 0.250000 0.000000
vt 0.056569 0.250000 0.000000
vt 0.000000 0.000000 0.000000
vt 0.170000 0.000000 0.000000
vt -0.000000 0.250000 0.000000
vt 0.170000 0.250000 0.000000
vt 0.000000 0.000000 0.000000
vt 0.056569 -0.000000 0.000000
vt -0.000000 0.250000 0.000000
vt 0.056569 0.250000 0.000000
vt -0.049149 0.009187 0.000000
vt -0.125000 0.085000 0.000000
vt -0.050000 -0.000000 0.000000
vt -0.125000 -0.085000 0.000000
vt -0.049149 -0.009187 0.000000
vt -0.046624 -0.018062 0.000000
vt -0.042511 -0.026322 0.000000
vt -0.036950 -0.033685 0.000000
vt -0.085000 -0.125000 0.000000
vt -0.030132 -0.039901 0.000000
vt -0.022287 -0.044758 0.000000
vt -0.013683 -0.048091 0.000000
vt -0.004613 -0.049787 0.000000
vt 0.085000 -0.125000 0.000000
vt 0.004613 -0.049787 0.000000
vt 0.013683 -0.048091 0.000000
vt 0.022287 -0.044758 0.000000
vt 0.030132 -0.039901 0.000000
vt 0.036950 -0.033685 0.000000
vt 0.125000 -0.085000 0.000000
vt 0.042511 -0.026322 0.000000
vt 0.046624 -0.018062 0.000000
vt 0.049149 -0.009187 0.000000
vt 0.050000 0.000000 0.000000
vt 0.125000 0.085000 0.000000
vt 0.049149 0.009187 0.000000
vt 0.046624 0.018062 0.000000
vt 0.042511 0.026322 0.000000
vt 0.036950 0.033685 0.000000
vt 0.085000 0.125000 0.000000
vt 0.030132 0.039901 0.000000
vt 0.022287 0.044758 0.000000
vt 0.013683 0.048091 0.000000
vt 0.004613 0.049787 0.000000
vt -0.085000 0.125000 0.000000
vt -0.004613 0.049787 0.000000
vt -0.013683 0.048091 0.000000
vt -0.022287 0.044758 0.000000
vt -0.030132 0.039901 0.000000
vt -0.036950 0.033685 0.000000
vt -0.042511 0.026322 0.000000
vt -0.046624 0.018062 0.000000
vt 0.049149 -0.009187 0.000000
vt 0.125000 -0.085000 0.000000
vt 0.050000 -0.000000 0.000000
vt 0.125000 0.085000 0.000000
vt 0.049149 0.009187 0.000000
vt 0.046624 0.018062 0.000000
vt 0.042511 0.026322 0.000000
vt 0.036950 0.033685 0.000000
vt 0.085000 0.125000 0.000000
vt 0.030132 0.039901 0.000000
vt 0.022287 0.044758 0.000000
vt 0.013683 0.048091 0.000000
vt 0.004613 0.049787 0.000000
vt -0.085000 0.125000 0.000000
vt -0.004613 0.049787 0.000000
vt -0.013683 0.048091 0.000000
vt -0.022287 0.044758 0.000000
vt -0.030132 0.039901 0.000000
vt -0.036950 0.033685 0.000000
vt -0.125000 0.085000 0.000000
vt -0.042511 0.026322 0.000000
vt -0.046624 0.018062 0.000000
vt -0.049149 0.009187 0.000000
vt -0.050000 0.000000 0.000000
vt -0.125000 -0.085000 0.000000
vt -0.049149 -0.009187 0.000000
vt -0.046624 -0.018062 0.000000
vt -0.042511 -0.026322 0.000000
vt -0.036950 -0.033685 0.000000
vt -0.085000 -0.125000 0.000000
vt -0.030132 -0.039901 0.000000
vt -0.022287 -0.044758 0.000000
vt -0.013683 -0.048091 0.000000
vt -0.004613 -0.049787 0.000000
vt 0.085000 -0.125000 0.000000
vt 0.004613 -0.049787 0.000000
vt 0.013683 -0.048091 0.000000
vt 0.022287 -0.044758 0.000000
vt 0.030132 -0.039901 0.000000
vt 0.036950 -0.033685 0.000000
vt 0.042511 -0.026322 0.000000
vt 0.046624 -0.018062 0.000000
vn 0.129931 0.129931 -0.982973
vn 0.129931 0.129931 -0.982973
vn 0.000000 -0.000000 -1.000000
vn 0.000000 -0.000000 -1.000000
vn -0.129931 -0.129931 -0.982973
vn -0.129931 -0.129931 -0.982973
vn -0.255436 -0.255436 -0.932472
vn -0.255436 -0.255436 -0.932472
vn -0.372244 -0.372244 -0.850217
vn -0.372244 -0.372244 -0.850217
vn -0.476375 -0.476375 -0.739009
vn -0.476375 -0.476375 -0.739009
vn -0.564283 -0.564283 -0.602635
vn -0.564283 -0.564283 -0.602635
vn -0.632976 -0.632976 -0.445738
vn -0.632976 -0.632976 -0.445738
vn -0.680113 -0.680113 -0.273663
vn -0.680113 -0.680113 -0.273663
vn -0.704090 -0.704090 -0.092268
vn -0.704090 -0.704090 -0.092268
vn -0.704090 -0.704090 0.092268
vn -0.704090 -0.704090 0.092268
vn -0.680113 -0.680113 0.273663
vn -0.680113 -0.680113 0.273663
vn -0.632976 -0.632976 0.445738
vn -0.632976 -0.632976 0.445738
vn -0.564283 -0.564283 0.602635
vn -0.564283 -0.564283 0.602635
vn -0.476375 -0.476375 0.739009
vn -0.476375 -0.476375 0.739009
vn -0.372244 -0.372244 0.850217
vn -0.372244 -0.372244 0.850217
vn -0.255436 -0.255436 0.932472
vn -0.255436 -0.255436 0.932472
vn -0.129931 -0.129931 0.982973
vn -0.129931 -0.129931 0.982973
vn -0.000000 -0.000000 1.000000
vn -0.000000 -0.000000 1.000000
vn 0.129931 0.129931 0.982973
vn 0.129931 0.129931 0.982973
vn 0.255436 0.255436 0.932472
vn 0.255436 0.255436 0.932472
vn 0.372244 0.372244 0.850217
vn 0.372244 0.372244 0.850217
vn 0.476375 0.476375 0.739009
vn 0.476375 0.476375 0.739009
vn 0.564283 0.564283 0.602635
vn 0.564283 0.564283 0.602635
vn 0.632976 0.632976 0.445738
vn 0.632976 0.632976 0.445738
vn 0.680113 0.680113 0.273663
vn 0.680113 0.680113 0.273663
vn 0.704090 0.704090 0.092268
vn 0.704090 0.704090 0.092268
vn 0.704090 0.704090 -0.092268
vn 0.704090 0.704090 -0.092268
vn 0.680113 0.680113 -0.273663
vn 0.680113 0.680113 -0.273663
vn 0.632976 0.632976 -0.445738
vn 0.632976 0.632976 -0.445738
vn 0.564283 0.564283 -0.602635
vn 0.564283 0.564283 -0.602635
vn 0.476375 0.476375 -0.739009
vn 0.476375 0.476375 -0.739009
vn 0.372244 0.372244 -0.850217
vn 0.372244 0.372244 -0.850217
vn 0.255436 0.255436 -0.932472
vn 0.255436 0.255436 -0.932472
vn -0.129931 -0.129931 -0.982973
vn 0.000000 -0.000000 -1.000000
vn 0.129931 0.129931 -0.982973
vn 0.255436 0.255436 -0.932472
vn 0.372244 0.372244 -0.850217
vn 0.476375 0.476375 -0.739009
vn 0.564283 0.564283 -0.602635
vn 0.632976 0.632976 -0.445738
vn 0.680113 0.680113 -0.273663
vn 0.704090 0.704090 -0.092268
vn 0.704090 0.704090 0.092268
vn 0.680113 0.680113 0.273663
vn 0.632976 0.632976 0.445738
vn 0.564283 0.564283 0.602635
vn 0.476375 0.476375 0.739009
vn 0.372244 0.372244 0.850217
vn 0.255436 0.255436 0.932472
vn 0.129931 0.129931 0.982973
vn -0.000000 0.000000 1.000000
vn -0.129931 -0.129931 0.982973
vn -0.255436 -0.255436 0.932472
vn -0.372244 -0.372244 0.850217
vn -0.476375 -0.476375 0.739009
vn -0.564283 -0.564283 0.602635
vn -0.632976 -0.632976 0.445738
vn -0.680113 -0.680113 0.273663
vn -0.704090 -0.704090 0.092268
vn -0.704090 -0.704090 -0.092268
vn -0.680113 -0.680113 -0.273663
vn -0.632976 -0.632976 -0.445738
vn -0.564283 -0.564283 -0.602635
vn -0.476375 -0.476375 -0.739009
vn -0.372244 -0.372244 -0.850217
vn -0.255436 -0.255436 -0.932472
vn 0.707107 0.707107 -0.000000
vn 0.707107 0.707107 -0.000000
vn 0.707107 0.707107 -0.000000
vn 0.707107 0.707107 -0.000000
vn 0.500000 0.500000 -0.707107
vn 0.500000 0.500000 -0.707107
vn 0.500000 0.500000 -0.707107
vn 0.500000 0.500000 -0.707107
vn 0.000000 -0.000000 -1.000000
vn 0.000000 -0.000000 -1.000000
vn 0.000000 -0.000000 -1.000000
vn 0.000000 -0.000000 -1.000000
vn -0.500000 -0.500000 -0.707107
vn -0.500000 -0.500000 -0.707107
vn -0.500000 -0.500000 -0.707107
vn -0.500000 -0.500000 -0.707107
vn -0.707107 -0.707107 0.000000
vn -0.707107 -0.707107 0.000000
vn -0.707107 -0.707107 0.000000
vn -0.707107 -0.707107 0.000000
vn -0.500000 -0.500000 0.707107
vn -0.500000 -0.500000 0.707107
vn -0.500000 -0.500000 0.707107
vn -0.500000 -0.500000 0.707107
vn -0.000000 0.000000 1.000000
vn -0.000000 0.000000 1.000000
vn -0.000000 0.000000 1.000000
vn -0.000000 0.000000 1.000000
vn 0.500000 0.500000 0.707107
vn 0.500000 0.500000 0.707107
vn 0.500000 0.500000 0.707107
vn 0.500000 0.500000 0.707107
vn 0.707107 -0.707107 0.000000
vn 0.707107 -0.707107 0.000000
vn 0.707107 -0.707107 0.000000
vn 0.707107 -0.707107 0.000000
vn 0.707107 -0.707107 0.000000
vn 0.707107 -0.707107 0.000000
vn 0.707107 -0.707107 0.000000
vn 0.707107 -0.707107 0.000000
vn 0.707107 -0.707107 0.000000
vn 0.707107 -0.707107 0.000000
vn 0.707107 -0.707107 0.000000
vn 0.707107 -0.707107 0.000000
vn 0.707107 -0.707107 0.000000
vn 0.707107 -0.707107 0.000000
vn 0.707107 -0.707107 0.000000
vn 0.707107 -0.707107 0.000000
vn 0.707107 -0.707107 0.000000
vn 0.707107 -0.707107 0.000000
vn 0.707107 -0.707107 0.000000
vn 0.707107 -0.707107 0.000000
vn 0.707107 -0.707107 0.000000
vn 0.707107 -0.707107 0.000000
vn 0.707107 -0.707107 0.000000
vn 0.707107 -0.707107 0.000000
vn 0.707107 -0.707107 0.000000
vn 0.707107 -0.707107 0.000000
vn 0.707107 -0.707107 0.000000
vn 0.707107 -0.707107 0.000000
vn 0.707107 -0.707107 0.000000
vn 0.707107 -0.707107 0.000000
vn 0.707107 -0.707107 0.000000
vn 0.707107 -0.707107 0.000000
vn 0.707107 -0.707107 0.000000
vn 0.707107 -0.707107 0.000000
vn 0.707107 -0.707107 0.000000
vn 0.707107 -0.707107 0.000000
vn 0.707107 -0.707107 0.000000
vn 0.707107 -0.707107 0.000000
vn 0.707107 -0.707107 0.000000
vn 0.707107 -0.707107 0.000000
vn 0.707107 -0.707107 0.000000
vn 0.707107 -0.707107 0.000000
vn -0.707107 0.707107 -0.000000
vn -0.707107 0.707107 -0.000000
vn -0.707107 0.707107 -0.000000
vn -0.707107 0.707107 -0.000000
vn -0.707107 0.707107 -0.000000
vn -0.707107 0.707107 -0.000000
vn -0.707107 0.707107 -0.000000
vn -0.707107 0.707107 -0.000000
vn -0.707107 0.707107 -0.000000
vn -0.707107 0.707107 -0.000000
vn -0.707107 0.707107 -0.000000
vn -0.707107 0.707107 -0.000000
vn -0.707107 0.707107 -0.000000
vn -0.707107 0.707107 -0.000000
vn -0.707107 0.707107 -0.000000
vn -0.707107 0.707107 -0.000000
vn -0.707107 0.707107 -0.000000
vn -0.707107 0.707107 -0.000000
vn -0.707107 0.707107 -0.000000
vn -0.707107 0.707107 -0.000000
vn -0.707107 0.707107 -0.000000
vn -0.707107 0.707107 -0.000000
vn -0.707107 0.707107 -0.000000
vn -0.707107 0.707107 -0.000000
vn -0.707107 0.707107 -0.000000
vn -0.707107 0.707107 -0.000000
vn -0.707107 0.707107 -0.000000
vn -0.707107 0.707107 -0.000000
vn -0.707107 0.707107 -0.000000
vn -0.707107 0.707107 -0.000000
vn -0.707107 0.707107 -0.000000
vn -0.707107 0.707107 -0.000000
vn -0.707107 0.707107 -0.000000
vn -0.707107 0.707107 -0.000000
vn -0.707107 0.707107 -0.000000
vn -0.707107 0.707107 -0.000000
vn -0.707107 0.707107 -0.000000
vn -0.707107 0.707107 -0.000000
vn -0.707107 0.707107 -0.000000
vn -0.707107 0.707107 -0.000000
vn -0.707107 0.707107 -0.000000
vn -0.707107 0.707107 -0.000000
usemtl Polycarbonate_(Clear)
f 2/1/1 70/2/2 1/3/3
f 1/3/3 70/2/2 69/4/4
f 1/5/3 69/6/4 34/7/5
f 34/7/5 69/6/4 102/8/6
f 34/7/5 102/8/6 33/9/7
f 33/9/7 102/8/6 101/10/8
f 33/9/7 101/10/8 32/11/9
f 32/11/9 101/10/8 100/12/10
f 32/11/9 100/12/10 31/13/11
f 31/13/11 100/12/10 99/14/12
f 31/13/11 99/14/12 30/15/13
f 30/15/13 99/14/12 98/16/14
f 30/15/13 98/16/14 29/17/15
f 29/17/15 98/16/14 97/18/16
f 29/17/15 97/18/16 28/19/17
f 28/19/17 97/18/16 96/20/18
f 28/19/17 96/20/18 27/21/19
f 27/21/19 96/20/18 95/22/20
f 27/21/19 95/22/20 26/23/21
f 26/23/21 95/22/20 94/24/22
f 26/23/21 94/24/22 25/25/23
f 25/25/23 94/24/22 93/26/24
f 25/25/23 93/26/24 24/27/25
f 24/27/25 93/26/24 92/28/26
f 24/27/25 92/28/26 23/29/27
f 23/29/27 92/28/26 91/30/28
f 23/29/27 91/30/28 22/31/29
f 22/31/29 91/30/28 90/32/30
f 22/31/29 90/32/30 21/33/31
f 21/33/31 90/32/30 89/34/32
f 21/33/31 89/34/32 20/35/33
f 20/35/33 89/34/32 88/36/34
f 20/35/33 88/36/34 19/37/35
f 19/37/35 88/36/34 87/38/36
f 19/37/35 87/38/36 18/39/37
f 18/39/37 87/38/36 86/40/38
f 18/39/37 86/40/38 17/41/39
f 17/41/39 86/40/38 85/42/40
f 17/41/39 85/42/40 16/43/41
f 16/43/41 85/42/40 84/44/42
f 16/43/41 84/44/42 15/45/43
f 15/45/43 84/44/42 83/46/44
f 15/45/43 83/46/44 14/47/45
f 14/47/45 83/46/44 82/48/46
f 14/47/45 82/48/46 13/49/47
f 13/49/47 82/48/46 81/50/48
f 13/49/47 81/50/48 12/51/49
f 12/51/49 81/50/48 80/52/50
f 12/51/49 80/52/50 11/53/51
f 11/53/51 80/52/50 79/54/52
f 11/53/51 79/54/52 10/55/53
f 10/55/53 79/54/52 78/56/54
f 10/55/53 78/56/54 9/57/55
f 9/57/55 78/56/54 77/58/56
f 9/57/55 77/58/56 8/59/57
f 8/59/57 77/58/56 76/60/58
f 8/59/57 76/60/58 7/61/59
f 7/61/59 76/60/58 75/62/60
f 7/61/59 75/62/60 6/63/61
f 6/63/61 75/62/60 74/64/62
f 6/63/61 74/64/62 5/65/63
f 5/65/63 74/64/62 73/66/64
f 5/65/63 73/66/64 4/67/65
f 4/67/65 73/66/64 72/68/66
f 4/67/65 72/68/66 3/69/67
f 3/69/67 72/68/66 71/70/68
f 3/69/67 71/70/68 2/1/1
f 2/1/1 71/70/68 70/2/2
f 36/71/69 102/8/6 35/72/70
f 35/72/70 102/8/6 69/6/4
f 35/73/70 69/4/4 68/74/71
f 68/74/71 69/4/4 70/2/2
f 68/74/71 70/2/2 67/75/72
f 67/75/72 70/2/2 71/70/68
f 67/75/72 71/70/68 66/76/73
f 66/76/73 71/70/68 72/68/66
f 66/76/73 72/68/66 65/77/74
f 65/77/74 72/68/66 73/66/64
f 65/77/74 73/66/64 64/78/75
f 64/78/75 73/66/64 74/64/62
f 64/78/75 74/64/62 63/79/76
f 63/79/76 74/64/62 75/62/60
f 63/79/76 75/62/60 62/80/77
f 62/80/77 75/62/60 76/60/58
f 62/80/77 76/60/58 61/81/78
f 61/81/78 76/60/58 77/58/56
f 61/81/78 77/58/56 60/82/79
f 60/82/79 77/58/56 78/56/54
f 60/82/79 78/56/54 59/83/80
f 59/83/80 78/56/54 79/54/52
f 59/83/80 79/54/52 58/84/81
f 58/84/81 79/54/52 80/52/50
f 58/84/81 80/52/50 57/85/82
f 57/85/82 80/52/50 81/50/48
f 57/85/82 81/50/48 56/86/83
f 56/86/83 81/50/48 82/48/46
f 56/86/83 82/48/46 55/87/84
f 55/87/84 82/48/46 83/46/44
f 55/87/84 83/46/44 54/88/85
f 54/88/85 83/46/44 84/44/42
f 54/88/85 84/44/42 53/89/86
f 53/89/86 84/44/42 85/42/40
f 53/89/86 85/42/40 52/90/87
f 52/90/87 85/42/40 86/40/38
f 52/90/87 86/40/38 51/91/88
f 51/91/88 86/40/38 87/38/36
f 51/91/88 87/38/36 50/92/89
f 50/92/89 87/38/36 88/36/34
f 50/92/89 88/36/34 49/93/90
f 49/93/90 88/36/34 89/34/32
f 49/93/90 89/34/32 48/94/91
f 48/94/91 89/34/32 90/32/30
f 48/94/91 90/32/30 47/95/92
f 47/95/92 90/32/30 91/30/28
f 47/95/92 91/30/28 46/96/93
f 46/96/93 91/30/28 92/28/26
f 46/96/93 92/28/26 45/97/94
f 45/97/94 92/28/26 93/26/24
f 45/97/94 93/26/24 44/98/95
f 44/98/95 93/26/24 94/24/22
f 44/98/95 94/24/22 43/99/96
f 43/99/96 94/24/22 95/22/20
f 43/99/96 95/22/20 42/100/97
f 42/100/97 95/22/20 96/20/18
f 42/100/97 96/20/18 41/101/98
f 41/101/98 96/20/18 97/18/16
f 41/101/98 97/18/16 40/102/99
f 40/102/99 97/18/16 98/16/14
f 40/102/99 98/16/14 39/103/100
f 39/103/100 98/16/14 99/14/12
f 39/103/100 99/14/12 38/104/101
f 38/104/101 99/14/12 100/12/10
f 38/104/101 100/12/10 37/105/102
f 37/105/102 100/12/10 101/10/8
f 37/105/102 101/10/8 36/71/69
f 36/71/69 101/10/8 102/8/6
f 103/106/103 104/107/104 106/108/105
f 106/108/105 104/107/104 105/109/106
f 107/110/107 103/111/108 108/112/109
f 108/112/109 103/111/108 106/113/110
f 109/114/111 107/115/112 110/116/113
f 110/116/113 107/115/112 108/117/114
f 111/118/115 109/119/116 112/120/117
f 112/120/117 109/119/116 110/121/118
f 113/122/119 111/123/120 114/124/121
f 114/124/121 111/123/120 112/125/122
f 115/126/123 113/127/124 116/128/125
f 116/128/125 113/127/124 114/129/126
f 117/130/127 115/131/128 118/132/129
f 118/132/129 115/131/128 116/133/130
f 104/134/131 117/135/132 105/136/133
f 105/136/133 117/135/132 118/137/134
f 34/138/135 118/139/136 1/140/137
f 1/140/137 118/139/136 116/141/138
f 1/140/137 116/141/138 2/142/139
f 2/142/139 116/141/138 3/143/140
f 3/143/140 116/141/138 4/144/141
f 4/144/141 116/141/138 5/145/142
f 5/145/142 116/141/138 114/146/143
f 5/145/142 114/146/143 6/147/144
f 6/147/144 114/146/143 7/148/145
f 7/148/145 114/146/143 8/149/146
f 8/149/146 114/146/143 9/150/147
f 9/150/147 114/146/143 112/151/148
f 9/150/147 112/151/148 10/152/149
f 10/152/149 112/151/148 11/153/150
f 11/153/150 112/151/148 12/154/151
f 12/154/151 112/151/148 13/155/152
f 13/155/152 112/151/148 14/156/153
f 14/156/153 112/151/148 110/157/154
f 14/156/153 110/157/154 15/158/155
f 15/158/155 110/157/154 16/159/156
f 16/159/156 110/157/154 17/160/157
f 17/160/157 110/157/154 18/161/158
f 18/161/158 110/157/154 108/162/159
f 18/161/158 108/162/159 19/163/160
f 19/163/160 108/162/159 20/164/161
f 20/164/161 108/162/159 21/165/162
f 21/165/162 108/162/159 22/166/163
f 22/166/163 108/162/159 106/167/164
f 22/166/163 106/167/164 23/168/165
f 23/168/165 106/167/164 24/169/166
f 24/169/166 106/167/164 25/170/167
f 25/170/167 106/167/164 26/171/168
f 26/171/168 106/167/164 105/172/169
f 26/171/168 105/172/169 27/173/170
f 27/173/170 105/172/169 28/174/171
f 28/174/171 105/172/169 29/175/172
f 29/175/172 105/172/169 30/176/173
f 30/176/173 105/172/169 31/177/174
f 31/177/174 105/172/169 118/139/136
f 31/177/174 118/139/136 32/178/175
f 32/178/175 118/139/136 33/179/176
f 33/179/176 118/139/136 34/138/135
f 68/180/177 115/181/178 35/182/179
f 35/182/179 115/181/178 117/183/180
f 35/182/179 117/183/180 36/184/181
f 36/184/181 117/183/180 37/185/182
f 37/185/182 117/183/180 38/186/183
f 38/186/183 117/183/180 39/187/184
f 39/187/184 117/183/180 104/188/185
f 39/187/184 104/188/185 40/189/186
f 40/189/186 104/188/185 41/190/187
f 41/190/187 104/188/185 42/191/188
f 42/191/188 104/188/185 43/192/189
f 43/192/189 104/188/185 103/193/190
f 43/192/189 103/193/190 44/194/191
f 44/194/191 103/193/190 45/195/192
f 45/195/192 103/193/190 46/196/193
f 46/196/193 103/193/190 47/197/194
f 47/197/194 103/193/190 48/198/195
f 48/198/195 103/193/190 107/199/196
f 48/198/195 107/199/196 49/200/197
f 49/200/197 107/199/196 50/201/198
f 50/201/198 107/199/196 51/202/199
f 51/202/199 107/199/196 52/203/200
f 52/203/200 107/199/196 109/204/201
f 52/203/200 109/204/201 53/205/202
f 53/205/202 109/204/201 54/206/203
f 54/206/203 109/204/201 55/207/204
f 55/207/204 109/204/201 56/208/205
f 56/208/205 109/204/201 111/209/206
f 56/208/205 111/209/206 57/210/207
f 57/210/207 111/209/206 58/211/208
f 58/211/208 111/209/206 59/212/209
f 59/212/209 111/209/206 60/213/210
f 60/213/210 111/209/206 113/214/211
f 60/213/210 113/214/211 61/215/212
f 61/215/212 113/214/211 62/216/213
f 62/216/213 113/214/211 63/217/214
f 63/217/214 113/214/211 64/218/215
f 64/218/215 113/214/211 65/219/216
f 65/219/216 113/214/211 115/181/178
f 65/219/216 115/181/178 66/220/217
f 66/220/217 115/181/178 67/221/218
f 67/221/218 115/181/178 68/180/177
# 118 vertices
# 221 texture params
# 218 normals
# 236 facets

# 1 groups
