# WaveFront *.obj file (generated by Autodesk ATF)

mtllib body113_visual.mtl

g Body113

v 62.885517 -64.901265 97.206693
v 62.885517 -64.901265 97.166693
v 62.920873 -64.936620 97.166693
v 62.920873 -64.936620 97.206693
v 62.892588 -64.894194 97.206693
v 62.927944 -64.929549 97.206693
v 62.892588 -64.894194 97.246693
v 62.927944 -64.929549 97.246693
v 62.945621 -64.841161 97.246693
v 62.980977 -64.876516 97.246693
v 62.945621 -64.841161 97.206693
v 62.980977 -64.876516 97.206693
v 62.952692 -64.834090 97.206693
v 62.988048 -64.869445 97.206693
v 62.952692 -64.834090 97.166693
v 62.988048 -64.869445 97.166693
vt 0.015000 -0.000000 0.000000
vt -0.025000 0.000000 0.000000
vt 0.015000 -0.050000 0.000000
vt -0.025000 -0.050000 0.000000
vt 0.000000 0.000000 0.000000
vt -0.010000 -0.000000 0.000000
vt 0.000000 -0.050000 0.000000
vt -0.010000 -0.050000 0.000000
vt 0.000000 0.000000 0.000000
vt -0.040000 0.000000 0.000000
vt -0.000000 -0.050000 0.000000
vt -0.040000 -0.050000 0.000000
vt 0.000000 0.000000 0.000000
vt 0.075000 0.000000 0.000000
vt 0.000000 0.050000 0.000000
vt 0.075000 0.050000 0.000000
vt -0.015000 -0.000000 0.000000
vt -0.055000 -0.000000 0.000000
vt -0.015000 -0.050000 0.000000
vt -0.055000 -0.050000 0.000000
vt 0.085000 0.000000 0.000000
vt 0.075000 0.000000 0.000000
vt 0.085000 -0.050000 0.000000
vt 0.075000 -0.050000 0.000000
vt 0.000000 0.000000 0.000000
vt -0.040000 -0.000000 0.000000
vt 0.000000 -0.050000 0.000000
vt -0.040000 -0.050000 0.000000
vt 0.000000 0.000000 0.000000
vt -0.095000 0.000000 0.000000
vt -0.000000 -0.050000 0.000000
vt -0.095000 -0.050000 0.000000
vt 0.003143 0.047500 0.000000
vt -0.036857 0.047500 0.000000
vt 0.003143 0.037500 0.000000
vt -0.036857 -0.047500 0.000000
vt 0.003143 -0.037500 0.000000
vt 0.003143 -0.047500 0.000000
vt 0.043143 -0.037500 0.000000
vt 0.043143 0.037500 0.000000
vt 0.036857 0.047500 0.000000
vt -0.003143 0.037500 0.000000
vt 0.036857 -0.047500 0.000000
vt -0.003143 -0.037500 0.000000
vt -0.003143 -0.047500 0.000000
vt -0.003143 0.047500 0.000000
vt -0.043143 0.037500 0.000000
vt -0.043143 -0.037500 0.000000
vn -0.707107 -0.707107 0.000000
vn -0.707107 -0.707107 0.000000
vn -0.707107 -0.707107 0.000000
vn -0.707107 -0.707107 0.000000
vn -0.000000 0.000000 1.000000
vn -0.000000 0.000000 1.000000
vn -0.000000 0.000000 1.000000
vn -0.000000 0.000000 1.000000
vn -0.707107 -0.707107 0.000000
vn -0.707107 -0.707107 0.000000
vn -0.707107 -0.707107 0.000000
vn -0.707107 -0.707107 0.000000
vn -0.000000 0.000000 1.000000
vn -0.000000 0.000000 1.000000
vn -0.000000 0.000000 1.000000
vn -0.000000 0.000000 1.000000
vn 0.707107 0.707107 -0.000000
vn 0.707107 0.707107 -0.000000
vn 0.707107 0.707107 -0.000000
vn 0.707107 0.707107 -0.000000
vn -0.000000 0.000000 1.000000
vn -0.000000 0.000000 1.000000
vn -0.000000 0.000000 1.000000
vn -0.000000 0.000000 1.000000
vn 0.707107 0.707107 -0.000000
vn 0.707107 0.707107 -0.000000
vn 0.707107 0.707107 -0.000000
vn 0.707107 0.707107 -0.000000
vn 0.000000 -0.000000 -1.000000
vn 0.000000 -0.000000 -1.000000
vn 0.000000 -0.000000 -1.000000
vn 0.000000 -0.000000 -1.000000
vn 0.707107 -0.707107 0.000000
vn 0.707107 -0.707107 0.000000
vn 0.707107 -0.707107 0.000000
vn 0.707107 -0.707107 0.000000
vn 0.707107 -0.707107 0.000000
vn 0.707107 -0.707107 0.000000
vn 0.707107 -0.707107 0.000000
vn 0.707107 -0.707107 0.000000
vn -0.707107 0.707107 -0.000000
vn -0.707107 0.707107 -0.000000
vn -0.707107 0.707107 -0.000000
vn -0.707107 0.707107 -0.000000
vn -0.707107 0.707107 -0.000000
vn -0.707107 0.707107 -0.000000
vn -0.707107 0.707107 -0.000000
vn -0.707107 0.707107 -0.000000
usemtl Opaque(202,209,238)
f 1/1/1 2/2/2 4/3/3
f 4/3/3 2/2/2 3/4/4
f 5/5/5 1/6/6 6/7/7
f 6/7/7 1/6/6 4/8/8
f 7/9/9 5/10/10 8/11/11
f 8/11/11 5/10/10 6/12/12
f 9/13/13 7/14/14 10/15/15
f 10/15/15 7/14/14 8/16/16
f 11/17/17 9/18/18 12/19/19
f 12/19/19 9/18/18 10/20/20
f 13/21/21 11/22/22 14/23/23
f 14/23/23 11/22/22 12/24/24
f 15/25/25 13/26/26 16/27/27
f 16/27/27 13/26/26 14/28/28
f 2/29/29 15/30/30 3/31/31
f 3/31/31 15/30/30 16/32/32
f 4/33/33 3/34/34 6/35/35
f 6/35/35 3/34/34 16/36/36
f 6/35/35 16/36/36 12/37/37
f 12/37/37 16/36/36 14/38/38
f 12/37/37 10/39/39 6/35/35
f 6/35/35 10/39/39 8/40/40
f 2/41/41 5/42/42 15/43/43
f 15/43/43 5/42/42 11/44/44
f 15/43/43 11/44/44 13/45/45
f 2/41/41 1/46/46 5/42/42
f 5/42/42 7/47/47 11/44/44
f 11/44/44 7/47/47 9/48/48
# 16 vertices
# 48 texture params
# 48 normals
# 28 facets

# 1 groups
