# WaveFront *.obj file (generated by Autodesk ATF)

mtllib body18_visual.mtl

g Body18

v 64.399696 -64.022510 96.002164
v 64.470406 -64.093220 96.002164
v 64.470406 -64.093220 95.931664
v 64.399696 -64.022510 95.931664
v 64.433637 -64.129990 95.931664
v 64.433637 -64.129990 96.002164
v 64.362926 -64.059279 96.002164
v 64.362926 -64.059279 95.931664
v 64.391045 -64.015070 95.931664
v 64.381377 -64.009009 95.931664
v 64.370911 -64.004464 95.931664
v 64.359883 -64.001537 95.931664
v 64.348541 -64.000294 95.931664
v 64.348541 -64.000294 96.002164
v 64.359883 -64.001537 96.002164
v 64.370911 -64.004464 96.002164
v 64.381377 -64.009009 96.002164
v 64.391045 -64.015070 96.002164
v 64.358191 -64.055603 96.002164
v 64.352691 -64.053214 96.002164
v 64.346772 -64.052264 96.002164
v 64.346772 -64.052264 95.931664
v 64.352691 -64.053214 95.931664
v 64.358191 -64.055603 95.931664
v 64.147856 -63.993463 96.002164
v 64.147856 -63.993463 95.931664
v 64.146087 -64.045433 96.002164
v 64.146087 -64.045433 95.931664
v 64.134745 -64.044189 96.002164
v 64.123717 -64.041262 96.002164
v 64.113251 -64.036717 96.002164
v 64.103584 -64.030656 96.002164
v 64.094933 -64.023217 96.002164
v 64.094933 -64.023217 95.931664
v 64.103584 -64.030656 95.931664
v 64.113251 -64.036717 95.931664
v 64.123717 -64.041262 95.931664
v 64.134745 -64.044189 95.931664
v 63.796180 -63.724464 96.002164
v 63.796180 -63.724464 95.931664
v 63.832950 -63.687695 95.931664
v 64.131702 -63.986447 95.931664
v 64.136438 -63.990124 95.931664
v 64.141937 -63.992512 95.931664
v 64.131702 -63.986447 96.002164
v 64.136438 -63.990124 96.002164
v 64.141937 -63.992512 96.002164
v 63.832950 -63.687695 96.002164
vt -0.100000 -0.000000 0.000000
vt -0.000000 0.000000 0.000000
vt -0.100000 0.070500 0.000000
vt -0.000000 0.070500 0.000000
vt 1.045250 -0.105000 0.000000
vt 0.974750 -0.105000 0.000000
vt 1.045250 -0.157000 0.000000
vt 0.974750 -0.157000 0.000000
vt 0.070500 0.000000 0.000000
vt -0.000000 0.000000 0.000000
vt 0.070500 -0.100000 0.000000
vt -0.000000 -0.100000 0.000000
vt -0.035250 -0.238761 0.000000
vt 0.035250 -0.238761 0.000000
vt -0.035250 -0.227340 0.000000
vt 0.035250 -0.227340 0.000000
vt 0.035250 -0.215919 0.000000
vt -0.035250 -0.215919 0.000000
vt 0.035250 -0.204498 0.000000
vt -0.035250 -0.204498 0.000000
vt 0.035250 -0.193078 0.000000
vt -0.035250 -0.193078 0.000000
vt -0.035250 -0.181657 0.000000
vt 0.035250 -0.181657 0.000000
vt -0.035250 -0.075398 0.000000
vt 0.035250 -0.075398 0.000000
vt -0.035250 -0.069387 0.000000
vt 0.035250 -0.069387 0.000000
vt -0.035250 -0.063376 0.000000
vt 0.035250 -0.063376 0.000000
vt -0.035250 -0.057365 0.000000
vt 0.035250 -0.057365 0.000000
vt -0.000000 0.000000 0.000000
vt -0.070500 -0.000000 0.000000
vt 0.000000 -0.200801 0.000000
vt -0.070500 -0.200801 0.000000
vt -0.000000 0.000000 0.000000
vt -0.200801 0.000000 0.000000
vt -0.000000 -0.070500 0.000000
vt -0.200801 -0.070500 0.000000
vt -0.035250 0.181657 0.000000
vt 0.035250 0.181657 0.000000
vt -0.035250 0.193078 0.000000
vt 0.035250 0.193078 0.000000
vt 0.035250 0.204498 0.000000
vt -0.035250 0.204498 0.000000
vt 0.035250 0.215919 0.000000
vt -0.035250 0.215919 0.000000
vt 0.035250 0.227340 0.000000
vt -0.035250 0.227340 0.000000
vt -0.035250 0.238761 0.000000
vt 0.035250 0.238761 0.000000
vt 0.070500 -0.000000 0.000000
vt -0.000000 0.000000 0.000000
vt 0.070500 -0.422500 0.000000
vt 0.000000 -0.422500 0.000000
vt -0.052000 -0.422500 0.000000
vt -0.000000 -0.422500 0.000000
vt -0.052000 0.000000 0.000000
vt -0.000000 0.000000 0.000000
vt -0.038678 0.042982 0.000000
vt -0.031537 0.051881 0.000000
vt 0.000749 0.005948 0.000000
vt 0.002949 0.011525 0.000000
vt 0.006462 0.016383 0.000000
vt 0.105538 0.198617 0.000000
vt 0.143537 0.163119 0.000000
vt 0.109051 0.203475 0.000000
vt 0.111251 0.209052 0.000000
vt 0.112000 0.215000 0.000000
vt 0.150678 0.172018 0.000000
vt 0.112000 0.315000 0.000000
vt 0.164000 0.215000 0.000000
vt 0.164000 0.315000 0.000000
vt 0.156407 0.181886 0.000000
vt 0.160593 0.192501 0.000000
vt 0.163143 0.203622 0.000000
vt -0.044407 0.033114 0.000000
vt -0.048593 0.022499 0.000000
vt -0.051143 0.011378 0.000000
vt 0.035250 -0.075398 0.000000
vt -0.035250 -0.075398 0.000000
vt 0.035250 -0.081409 0.000000
vt -0.035250 -0.081409 0.000000
vt 0.035250 -0.087420 0.000000
vt -0.035250 -0.087420 0.000000
vt 0.035250 -0.093431 0.000000
vt -0.035250 -0.093431 0.000000
vt 0.422500 0.052000 0.000000
vt -0.000000 0.052000 0.000000
vt 0.422500 0.000000 0.000000
vt -0.000000 0.000000 0.000000
vt -0.042982 0.038678 0.000000
vt -0.051881 0.031537 0.000000
vt -0.011378 0.051143 0.000000
vt -0.022499 0.048593 0.000000
vt -0.033114 0.044407 0.000000
vt -0.198617 -0.105538 0.000000
vt -0.016383 -0.006462 0.000000
vt -0.011525 -0.002949 0.000000
vt -0.005948 -0.000749 0.000000
vt -0.163119 -0.143537 0.000000
vt -0.203475 -0.109051 0.000000
vt -0.209052 -0.111251 0.000000
vt -0.215000 -0.112000 0.000000
vt -0.172018 -0.150678 0.000000
vt -0.215000 -0.164000 0.000000
vt -0.181886 -0.156407 0.000000
vt -0.192501 -0.160593 0.000000
vt -0.203622 -0.163143 0.000000
vt -0.315000 -0.112000 0.000000
vt -0.315000 -0.164000 0.000000
vt -0.974750 -0.105000 0.000000
vt -1.045250 -0.105000 0.000000
vt -0.974750 -0.157000 0.000000
vt -1.045250 -0.157000 0.000000
vt -0.422500 0.000000 0.000000
vt -0.000000 0.000000 0.000000
vt -0.422500 0.070500 0.000000
vt -0.000000 0.070500 0.000000
vn 0.707107 0.707107 -0.000000
vn 0.707107 0.707107 -0.000000
vn 0.707107 0.707107 -0.000000
vn 0.707107 0.707107 -0.000000
vn 0.707107 -0.707107 0.000000
vn 0.707107 -0.707107 0.000000
vn 0.707107 -0.707107 0.000000
vn 0.707107 -0.707107 0.000000
vn -0.707107 -0.707107 0.000000
vn -0.707107 -0.707107 0.000000
vn -0.707107 -0.707107 0.000000
vn -0.707107 -0.707107 0.000000
vn 0.593277 0.804998 -0.000000
vn 0.593277 0.804998 -0.000000
vn 0.466075 0.884745 -0.000000
vn 0.466075 0.884745 -0.000000
vn 0.328367 0.944550 -0.000000
vn 0.328367 0.944550 -0.000000
vn 0.183258 0.983065 -0.000000
vn 0.183258 0.983065 -0.000000
vn 0.034019 0.999421 -0.000000
vn 0.034019 0.999421 -0.000000
vn -0.509790 -0.860299 0.000000
vn -0.509790 -0.860299 0.000000
vn -0.280661 -0.959807 0.000000
vn -0.280661 -0.959807 0.000000
vn -0.034019 -0.999421 0.000000
vn -0.034019 -0.999421 0.000000
vn 0.034019 0.999421 -0.000000
vn 0.034019 0.999421 -0.000000
vn 0.034019 0.999421 -0.000000
vn 0.034019 0.999421 -0.000000
vn -0.034019 -0.999421 0.000000
vn -0.034019 -0.999421 0.000000
vn -0.034019 -0.999421 0.000000
vn -0.034019 -0.999421 0.000000
vn -0.183258 -0.983065 0.000000
vn -0.183258 -0.983065 0.000000
vn -0.328367 -0.944550 0.000000
vn -0.328367 -0.944550 0.000000
vn -0.466075 -0.884745 0.000000
vn -0.466075 -0.884745 0.000000
vn -0.593277 -0.804998 0.000000
vn -0.593277 -0.804998 0.000000
vn -0.707107 -0.707107 0.000000
vn -0.707107 -0.707107 0.000000
vn -0.707107 -0.707107 0.000000
vn -0.707107 -0.707107 0.000000
vn 0.000000 -0.000000 -1.000000
vn 0.000000 -0.000000 -1.000000
vn 0.000000 -0.000000 -1.000000
vn 0.000000 -0.000000 -1.000000
vn 0.000000 -0.000000 -1.000000
vn 0.000000 -0.000000 -1.000000
vn 0.000000 -0.000000 -1.000000
vn 0.000000 -0.000000 -1.000000
vn 0.000000 -0.000000 -1.000000
vn 0.000000 -0.000000 -1.000000
vn 0.000000 -0.000000 -1.000000
vn 0.000000 -0.000000 -1.000000
vn 0.000000 -0.000000 -1.000000
vn 0.000000 -0.000000 -1.000000
vn 0.000000 -0.000000 -1.000000
vn 0.000000 -0.000000 -1.000000
vn 0.000000 -0.000000 -1.000000
vn 0.000000 -0.000000 -1.000000
vn 0.000000 -0.000000 -1.000000
vn 0.000000 -0.000000 -1.000000
vn 0.000000 -0.000000 -1.000000
vn 0.000000 -0.000000 -1.000000
vn 0.000000 -0.000000 -1.000000
vn 0.000000 -0.000000 -1.000000
vn 0.707107 0.707107 -0.000000
vn 0.707107 0.707107 -0.000000
vn 0.509790 0.860299 -0.000000
vn 0.509790 0.860299 -0.000000
vn 0.280661 0.959807 -0.000000
vn 0.280661 0.959807 -0.000000
vn -0.000000 0.000000 1.000000
vn -0.000000 0.000000 1.000000
vn -0.000000 0.000000 1.000000
vn -0.000000 0.000000 1.000000
vn -0.000000 0.000000 1.000000
vn -0.000000 0.000000 1.000000
vn -0.000000 0.000000 1.000000
vn -0.000000 0.000000 1.000000
vn -0.000000 0.000000 1.000000
vn -0.000000 0.000000 1.000000
vn -0.000000 0.000000 1.000000
vn -0.000000 0.000000 1.000000
vn -0.000000 0.000000 1.000000
vn -0.000000 0.000000 1.000000
vn -0.000000 0.000000 1.000000
vn -0.000000 0.000000 1.000000
vn -0.000000 0.000000 1.000000
vn -0.000000 0.000000 1.000000
vn -0.000000 0.000000 1.000000
vn -0.000000 0.000000 1.000000
vn -0.000000 0.000000 1.000000
vn -0.000000 0.000000 1.000000
vn -0.000000 0.000000 1.000000
vn -0.000000 0.000000 1.000000
vn -0.707107 0.707107 -0.000000
vn -0.707107 0.707107 -0.000000
vn -0.707107 0.707107 -0.000000
vn -0.707107 0.707107 -0.000000
vn 0.707107 0.707107 -0.000000
vn 0.707107 0.707107 -0.000000
vn 0.707107 0.707107 -0.000000
vn 0.707107 0.707107 -0.000000
usemtl Opaque(202,209,238)
f 1/1/1 2/2/2 4/3/3
f 4/3/3 2/2/2 3/4/4
f 3/5/5 2/6/6 5/7/7
f 5/7/7 2/6/6 6/8/8
f 5/9/9 6/10/10 8/11/11
f 8/11/11 6/10/10 7/12/12
f 1/13/1 4/14/3 18/15/13
f 18/15/13 4/14/3 9/16/14
f 18/15/13 9/16/14 10/17/15
f 18/15/13 10/17/15 17/18/16
f 17/18/16 10/17/15 11/19/17
f 17/18/16 11/19/17 16/20/18
f 16/20/18 11/19/17 12/21/19
f 16/20/18 12/21/19 15/22/20
f 15/22/20 12/21/19 14/23/21
f 14/23/21 12/21/19 13/24/22
f 8/25/11 7/26/12 24/27/23
f 24/27/23 7/26/12 19/28/24
f 24/27/23 19/28/24 23/29/25
f 23/29/25 19/28/24 20/30/26
f 23/29/25 20/30/26 22/31/27
f 22/31/27 20/30/26 21/32/28
f 14/33/29 13/34/30 25/35/31
f 25/35/31 13/34/30 26/36/32
f 21/37/33 27/38/34 22/39/35
f 22/39/35 27/38/34 28/40/36
f 28/41/36 27/42/34 38/43/37
f 38/43/37 27/42/34 29/44/38
f 38/43/37 29/44/38 30/45/39
f 38/43/37 30/45/39 37/46/40
f 37/46/40 30/45/39 31/47/41
f 37/46/40 31/47/41 36/48/42
f 36/48/42 31/47/41 32/49/43
f 36/48/42 32/49/43 35/50/44
f 35/50/44 32/49/43 34/51/45
f 34/51/45 32/49/43 33/52/46
f 34/53/45 33/54/46 40/55/47
f 40/55/47 33/54/46 39/56/48
f 40/57/49 41/58/50 34/59/51
f 34/59/51 41/58/50 42/60/52
f 34/59/51 42/60/52 38/61/53
f 38/61/53 42/60/52 28/62/54
f 28/62/54 42/60/52 43/63/55
f 28/62/54 43/63/55 44/64/56
f 44/64/56 26/65/57 28/62/54
f 28/62/54 26/65/57 22/66/58
f 22/66/58 26/65/57 13/67/59
f 22/66/58 13/67/59 23/68/60
f 23/68/60 13/67/59 24/69/61
f 24/69/61 13/67/59 8/70/62
f 8/70/62 13/67/59 12/71/63
f 8/70/62 12/71/63 5/72/64
f 5/72/64 12/71/63 4/73/65
f 5/72/64 4/73/65 3/74/66
f 12/71/63 11/75/67 4/73/65
f 4/73/65 11/75/67 10/76/68
f 4/73/65 10/76/68 9/77/69
f 38/61/53 37/78/70 34/59/51
f 34/59/51 37/78/70 36/79/71
f 34/59/51 36/79/71 35/80/72
f 42/81/73 45/82/74 43/83/75
f 43/83/75 45/82/74 46/84/76
f 43/83/75 46/84/76 44/85/77
f 44/85/77 46/84/76 47/86/78
f 44/85/77 47/86/78 26/87/32
f 26/87/32 47/86/78 25/88/31
f 39/89/79 33/90/80 48/91/81
f 48/91/81 33/90/80 45/92/82
f 45/92/82 33/90/80 29/93/83
f 45/92/82 29/93/83 27/94/84
f 32/95/85 31/96/86 33/90/80
f 33/90/80 31/96/86 30/97/87
f 33/90/80 30/97/87 29/93/83
f 21/98/88 25/99/89 27/94/84
f 27/94/84 25/99/89 47/100/90
f 27/94/84 47/100/90 46/101/91
f 25/99/89 21/98/88 14/102/92
f 14/102/92 21/98/88 20/103/93
f 14/102/92 20/103/93 19/104/94
f 19/104/94 7/105/95 14/102/92
f 14/102/92 7/105/95 15/106/96
f 15/106/96 7/105/95 1/107/97
f 15/106/96 1/107/97 16/108/98
f 16/108/98 1/107/97 17/109/99
f 17/109/99 1/107/97 18/110/100
f 6/111/101 2/112/102 7/105/95
f 7/105/95 2/112/102 1/107/97
f 46/101/91 45/92/82 27/94/84
f 48/113/103 41/114/104 39/115/105
f 39/115/105 41/114/104 40/116/106
f 48/117/107 45/118/108 41/119/109
f 41/119/109 45/118/108 42/120/110
# 48 vertices
# 120 texture params
# 110 normals
# 92 facets

# 1 groups
