# WaveFront *.obj file (generated by Autodesk ATF)

mtllib body48_visual.mtl

g Body48

v 65.463015 -62.277805 95.769622
v 65.452090 -62.288730 95.767175
v 65.442234 -62.298586 95.760073
v 65.434412 -62.306408 95.749011
v 65.429390 -62.311430 95.735073
v 65.427660 -62.313160 95.719622
v 65.429390 -62.311430 95.704171
v 65.434412 -62.306408 95.690233
v 65.442234 -62.298586 95.679171
v 65.452090 -62.288730 95.672069
v 65.463015 -62.277805 95.669622
v 65.427660 -62.242449 95.669622
v 65.416735 -62.253375 95.672069
v 65.406879 -62.263231 95.679171
v 65.399057 -62.271053 95.690233
v 65.394035 -62.276074 95.704171
v 65.392305 -62.277805 95.719622
v 65.394035 -62.276074 95.735073
v 65.399057 -62.271053 95.749011
v 65.406879 -62.263231 95.760073
v 65.416735 -62.253375 95.767175
v 65.427660 -62.242449 95.769622
v 66.021630 -62.567719 95.719622
v 66.019797 -62.569551 95.688349
v 66.014350 -62.574998 95.657929
v 66.005437 -62.583911 95.629192
v 65.993301 -62.596048 95.602922
v 65.978272 -62.611076 95.579834
v 65.960762 -62.628586 95.560560
v 65.941247 -62.648101 95.545625
v 65.920260 -62.669088 95.535436
v 65.898374 -62.690974 95.530271
v 65.876185 -62.713163 95.530271
v 65.854298 -62.735050 95.535436
v 65.833311 -62.756037 95.545625
v 65.813797 -62.775552 95.560560
v 65.796286 -62.793062 95.579834
v 65.781258 -62.808090 95.602922
v 65.769122 -62.820226 95.629192
v 65.760209 -62.829140 95.657929
v 65.754761 -62.834587 95.688349
v 65.752929 -62.836419 95.719622
v 65.754761 -62.834587 95.750895
v 65.760209 -62.829140 95.781315
v 65.769122 -62.820226 95.810052
v 65.781258 -62.808090 95.836322
v 65.796286 -62.793062 95.859410
v 65.813797 -62.775552 95.878684
v 65.833311 -62.756037 95.893619
v 65.854298 -62.735050 95.903808
v 65.876185 -62.713163 95.908973
v 65.898374 -62.690974 95.908973
v 65.920260 -62.669088 95.903808
v 65.941247 -62.648101 95.893619
v 65.960762 -62.628586 95.878684
v 65.978272 -62.611076 95.859410
v 65.993301 -62.596048 95.836322
v 66.005437 -62.583911 95.810052
v 66.014350 -62.574998 95.781315
v 66.019797 -62.569551 95.750895
v 66.269117 -62.815206 95.719622
v 66.267285 -62.817038 95.750895
v 66.261838 -62.822485 95.781315
v 66.252924 -62.831399 95.810052
v 66.240788 -62.843535 95.836322
v 66.225760 -62.858563 95.859410
v 66.208249 -62.876074 95.878684
v 66.188735 -62.895588 95.893619
v 66.167748 -62.916575 95.903808
v 66.145861 -62.938462 95.908973
v 66.123672 -62.960651 95.908973
v 66.101786 -62.982537 95.903808
v 66.080799 -63.003524 95.893619
v 66.061284 -63.023039 95.878684
v 66.043774 -63.040549 95.859410
v 66.028745 -63.055578 95.836322
v 66.016609 -63.067714 95.810052
v 66.007696 -63.076627 95.781315
v 66.002249 -63.082074 95.750895
v 66.000416 -63.083907 95.719622
v 66.002249 -63.082074 95.688349
v 66.007696 -63.076627 95.657929
v 66.016609 -63.067714 95.629192
v 66.028745 -63.055578 95.602922
v 66.043774 -63.040549 95.579834
v 66.061284 -63.023039 95.560560
v 66.080799 -63.003524 95.545625
v 66.101786 -62.982537 95.535436
v 66.123672 -62.960651 95.530271
v 66.145861 -62.938462 95.530271
v 66.167748 -62.916575 95.535436
v 66.188735 -62.895588 95.545625
v 66.208249 -62.876074 95.560560
v 66.225760 -62.858563 95.579834
v 66.240788 -62.843535 95.602922
v 66.252924 -62.831399 95.629192
v 66.261838 -62.822485 95.657929
v 66.267285 -62.817038 95.688349
v 65.699896 -62.040924 95.519622
v 66.159515 -62.500543 95.519622
v 66.159515 -62.500543 95.469622
v 65.664541 -62.005569 95.469622
v 65.664541 -62.005569 95.669622
v 65.699896 -62.040924 95.669622
v 65.240277 -62.500543 95.919622
v 65.240277 -62.500543 95.869622
v 65.664541 -62.076279 95.869622
v 65.664541 -62.076279 95.819622
v 65.240277 -62.500543 95.819622
v 65.240277 -62.500543 95.619622
v 65.664541 -62.076279 95.619622
v 65.664541 -62.076279 95.569622
v 65.240277 -62.500543 95.569622
v 65.240277 -62.500543 95.519622
v 65.699896 -62.040924 95.769622
v 65.699896 -62.040924 95.919622
v 65.257954 -62.518221 95.869622
v 65.664541 -62.924808 95.919622
v 65.664541 -62.924808 95.519622
v 65.257954 -62.518221 95.569622
v 65.257954 -62.518221 95.619622
v 65.257954 -62.518221 95.819622
v 66.311543 -62.772780 95.469622
v 65.957990 -63.126333 95.469622
v 65.664541 -62.995518 95.469622
v 65.169566 -62.500543 95.469622
v 66.159515 -62.500543 95.969622
v 66.159515 -62.500543 95.919622
v 65.664541 -62.005569 95.769622
v 65.664541 -62.005569 95.969622
v 65.957990 -63.126333 95.969622
v 66.311543 -62.772780 95.969622
v 65.169566 -62.500543 95.969622
v 65.664541 -62.995518 95.969622
v 66.088805 -62.500543 95.919622
v 66.088805 -62.500543 95.519622
v 65.664541 -62.111635 95.569622
v 65.664541 -62.111635 95.619622
v 65.664541 -62.111635 95.869622
v 65.664541 -62.111635 95.819622
vt 1.000100 0.078540 0.000000
vt 0.950100 0.078540 0.000000
vt 1.000100 0.062832 0.000000
vt 0.950100 0.062832 0.000000
vt 1.000100 0.047124 0.000000
vt 0.950100 0.047124 0.000000
vt 1.000100 0.031416 0.000000
vt 0.950100 0.031416 0.000000
vt 1.000100 0.015708 0.000000
vt 0.950100 0.015708 0.000000
vt 1.000100 0.000000 0.000000
vt 0.950100 0.000000 0.000000
vt 1.000100 -0.015708 0.000000
vt 0.950100 -0.015708 0.000000
vt 1.000100 -0.031416 0.000000
vt 0.950100 -0.031416 0.000000
vt 1.000100 -0.047124 0.000000
vt 0.950100 -0.047124 0.000000
vt 1.000100 -0.062832 0.000000
vt 0.950100 -0.062832 0.000000
vt 1.000100 -0.078540 0.000000
vt 0.950100 -0.078540 0.000000
vt 0.650100 -0.031416 0.000000
vt 1.000100 -0.031416 0.000000
vt 0.650100 -0.000000 0.000000
vt 1.000100 -0.000000 0.000000
vt 0.650100 0.031416 0.000000
vt 1.000100 0.031416 0.000000
vt 0.650100 0.062832 0.000000
vt 1.000100 0.062832 0.000000
vt 0.650100 0.094248 0.000000
vt 1.000100 0.094248 0.000000
vt 0.650100 0.125664 0.000000
vt 1.000100 0.125664 0.000000
vt 0.650100 0.157080 0.000000
vt 1.000100 0.157080 0.000000
vt 0.650100 0.188496 0.000000
vt 1.000100 0.188496 0.000000
vt 0.650100 0.219911 0.000000
vt 1.000100 0.219911 0.000000
vt 0.650100 0.251327 0.000000
vt 1.000100 0.251327 0.000000
vt 0.650100 0.282743 0.000000
vt 1.000100 0.282743 0.000000
vt 0.650100 0.314159 0.000000
vt 1.000100 0.314159 0.000000
vt 0.650100 0.345575 0.000000
vt 1.000100 0.345575 0.000000
vt 0.650100 0.376991 0.000000
vt 1.000100 0.376991 0.000000
vt 0.650100 0.408407 0.000000
vt 1.000100 0.408407 0.000000
vt 0.650100 0.439823 0.000000
vt 1.000100 0.439823 0.000000
vt 0.650100 0.471239 0.000000
vt 1.000100 0.471239 0.000000
vt 0.650100 0.502655 0.000000
vt 1.000100 0.502655 0.000000
vt 0.650100 0.534071 0.000000
vt 1.000100 0.534071 0.000000
vt 0.650100 0.565487 0.000000
vt 1.000100 0.565487 0.000000
vt 0.650100 0.596903 0.000000
vt 1.000100 0.596903 0.000000
vt 0.650100 -0.596903 0.000000
vt 1.000100 -0.596903 0.000000
vt 0.650100 -0.565487 0.000000
vt 1.000100 -0.565487 0.000000
vt 0.650100 -0.534071 0.000000
vt 1.000100 -0.534071 0.000000
vt 0.650100 -0.502655 0.000000
vt 1.000100 -0.502655 0.000000
vt 0.650100 -0.471239 0.000000
vt 1.000100 -0.471239 0.000000
vt 0.650100 -0.439823 0.000000
vt 1.000100 -0.439823 0.000000
vt 0.650100 -0.408407 0.000000
vt 1.000100 -0.408407 0.000000
vt 0.650100 -0.376991 0.000000
vt 1.000100 -0.376991 0.000000
vt 0.650100 -0.345575 0.000000
vt 1.000100 -0.345575 0.000000
vt 0.650100 -0.314159 0.000000
vt 1.000100 -0.314159 0.000000
vt 0.650100 -0.282743 0.000000
vt 1.000100 -0.282743 0.000000
vt 0.650100 -0.251327 0.000000
vt 1.000100 -0.251327 0.000000
vt 0.650100 -0.219911 0.000000
vt 1.000100 -0.219911 0.000000
vt 0.650100 -0.188496 0.000000
vt 1.000100 -0.188496 0.000000
vt 0.650100 -0.157080 0.000000
vt 1.000100 -0.157080 0.000000
vt 0.650100 -0.125664 0.000000
vt 1.000100 -0.125664 0.000000
vt 0.650100 -0.094248 0.000000
vt 1.000100 -0.094248 0.000000
vt 0.650100 -0.062832 0.000000
vt 1.000100 -0.062832 0.000000
vt -0.450000 -0.300000 0.000000
vt -0.500000 -0.300000 0.000000
vt -0.450000 -0.950000 0.000000
vt -0.500000 -1.000000 0.000000
vt -0.300000 -1.000000 0.000000
vt -0.300000 -0.950000 0.000000
vt 0.771110 0.350000 0.000000
vt 1.371110 0.350000 0.000000
vt 0.771110 0.400000 0.000000
vt 1.421110 0.400000 0.000000
vt 1.421110 0.250000 0.000000
vt 1.371110 0.300000 0.000000
vt 1.086110 0.250000 0.000000
vt 0.771110 0.300000 0.000000
vt 1.070659 0.247553 0.000000
vt 1.056721 0.240451 0.000000
vt 1.045659 0.229389 0.000000
vt 1.038557 0.215451 0.000000
vt 1.036110 0.200000 0.000000
vt 0.771110 0.100000 0.000000
vt 1.038557 0.184549 0.000000
vt 1.045659 0.170611 0.000000
vt 1.056721 0.159549 0.000000
vt 1.070659 0.152447 0.000000
vt 1.086110 0.150000 0.000000
vt 1.371110 0.100000 0.000000
vt 1.421110 0.150000 0.000000
vt 1.421110 0.000000 0.000000
vt 1.371110 0.050000 0.000000
vt 0.771110 0.000000 0.000000
vt 0.771110 0.050000 0.000000
vt -0.100000 -0.950000 0.000000
vt -0.050000 -0.950000 0.000000
vt -0.100000 -0.925000 0.000000
vt -0.050000 -0.350000 0.000000
vt -0.150000 -0.925000 0.000000
vt -0.450000 -0.350000 0.000000
vt -0.350000 -0.925000 0.000000
vt -0.400000 -0.925000 0.000000
vt -0.450000 -0.950000 0.000000
vt -0.400000 -0.950000 0.000000
vt -0.350000 -0.950000 0.000000
vt -0.150000 -0.950000 0.000000
vt -0.000000 -1.000000 0.000000
vt 0.700000 -1.000000 0.000000
vt -0.000000 -0.300000 0.000000
vt 0.700000 -0.300000 0.000000
vt 0.115000 -0.000000 0.000000
vt 0.615000 -0.000000 0.000000
vt -0.050000 -0.300000 0.000000
vt -0.050000 -0.950000 0.000000
vt 0.000000 -0.300000 0.000000
vt 0.000000 -1.000000 0.000000
vt -0.200000 -1.000000 0.000000
vt -0.200000 -0.950000 0.000000
vt -0.615000 -0.000000 0.000000
vt -0.700000 -0.300000 0.000000
vt -0.115000 -0.000000 0.000000
vt 0.000000 -0.300000 0.000000
vt 0.000000 -1.000000 0.000000
vt -0.700000 -1.000000 0.000000
vt 0.500000 -0.300000 0.000000
vt -0.000000 -0.300000 0.000000
vt 0.500000 -1.000000 0.000000
vt -0.000000 -1.000000 0.000000
vt 0.265000 -0.250000 0.000000
vt -0.000690 -0.189351 0.000000
vt -0.235000 -0.250000 0.000000
vt -0.031642 -0.184186 0.000000
vt -0.061322 -0.173997 0.000000
vt 0.265000 0.250000 0.000000
vt 0.205000 0.000000 0.000000
vt 0.202409 -0.031273 0.000000
vt 0.194705 -0.061693 0.000000
vt -0.235000 0.250000 0.000000
vt 0.030690 0.189351 0.000000
vt 0.061642 0.184186 0.000000
vt 0.091322 0.173997 0.000000
vt -0.175000 -0.000000 0.000000
vt -0.172409 0.031273 0.000000
vt -0.164705 0.061693 0.000000
vt 0.182100 -0.090430 0.000000
vt 0.164937 -0.116700 0.000000
vt 0.143683 -0.139788 0.000000
vt 0.118920 -0.159062 0.000000
vt 0.091322 -0.173997 0.000000
vt 0.061642 -0.184186 0.000000
vt 0.030690 -0.189351 0.000000
vt -0.088920 -0.159062 0.000000
vt -0.113683 -0.139788 0.000000
vt -0.134937 -0.116700 0.000000
vt -0.152100 -0.090430 0.000000
vt -0.164705 -0.061693 0.000000
vt -0.172409 -0.031273 0.000000
vt -0.152100 0.090430 0.000000
vt -0.134937 0.116700 0.000000
vt -0.113683 0.139788 0.000000
vt -0.088920 0.159062 0.000000
vt -0.061322 0.173997 0.000000
vt -0.031642 0.184186 0.000000
vt -0.000690 0.189351 0.000000
vt 0.118920 0.159062 0.000000
vt 0.143683 0.139788 0.000000
vt 0.164937 0.116700 0.000000
vt 0.182100 0.090430 0.000000
vt 0.194705 0.061693 0.000000
vt 0.202409 0.031273 0.000000
vt -0.350000 0.050000 0.000000
vt -0.015000 0.050000 0.000000
vt -0.350000 0.250000 0.000000
vt 0.350000 0.250000 0.000000
vt 0.000451 0.047553 0.000000
vt 0.014389 0.040451 0.000000
vt 0.025451 0.029389 0.000000
vt 0.032553 0.015451 0.000000
vt 0.035000 -0.000000 0.000000
vt 0.350000 -0.250000 0.000000
vt 0.032553 -0.015451 0.000000
vt 0.025451 -0.029389 0.000000
vt 0.014389 -0.040451 0.000000
vt 0.000451 -0.047553 0.000000
vt -0.015000 -0.050000 0.000000
vt -0.350000 -0.050000 0.000000
vt -0.350000 -0.250000 0.000000
vt 0.321286 0.500000 0.000000
vt 0.000000 0.500000 0.000000
vt 0.321286 -0.000000 0.000000
vt -0.000000 0.000000 0.000000
vt -0.000000 0.500000 0.000000
vt -0.311809 0.500000 0.000000
vt -0.000000 0.450000 0.000000
vt -0.311809 -0.000000 0.000000
vt -0.000000 0.050000 0.000000
vt -0.000000 0.000000 0.000000
vt 0.771110 -0.000000 0.000000
vt 0.771110 -0.600000 0.000000
vt 1.371110 0.000000 0.000000
vt 1.421110 -0.600000 0.000000
vt 1.421110 0.050000 0.000000
vt -0.771110 0.000000 0.000000
vt -1.371110 0.000000 0.000000
vt -0.771110 -0.600000 0.000000
vt -1.421110 -0.600000 0.000000
vt -1.421110 0.050000 0.000000
vt -1.371110 0.400000 0.000000
vt -1.070420 0.389351 0.000000
vt -0.771110 0.400000 0.000000
vt -1.039468 0.384186 0.000000
vt -1.009788 0.373997 0.000000
vt -1.371110 -0.000000 0.000000
vt -1.276110 0.200000 0.000000
vt -1.273519 0.231273 0.000000
vt -1.265816 0.261693 0.000000
vt -0.771110 -0.000000 0.000000
vt -1.070420 0.010649 0.000000
vt -1.101800 0.010649 0.000000
vt -1.132752 0.015814 0.000000
vt -0.896110 0.200000 0.000000
vt -0.898702 0.168727 0.000000
vt -0.906405 0.138307 0.000000
vt -1.253210 0.290430 0.000000
vt -1.236047 0.316700 0.000000
vt -1.214794 0.339788 0.000000
vt -1.190030 0.359062 0.000000
vt -1.162432 0.373997 0.000000
vt -1.132752 0.384186 0.000000
vt -1.101800 0.389351 0.000000
vt -0.982190 0.359062 0.000000
vt -0.957427 0.339788 0.000000
vt -0.936174 0.316700 0.000000
vt -0.919010 0.290430 0.000000
vt -0.906405 0.261693 0.000000
vt -0.898702 0.231273 0.000000
vt -0.919010 0.109570 0.000000
vt -0.936174 0.083300 0.000000
vt -0.957427 0.060212 0.000000
vt -0.982190 0.040938 0.000000
vt -1.009788 0.026003 0.000000
vt -1.039468 0.015814 0.000000
vt -1.162432 0.026003 0.000000
vt -1.190030 0.040938 0.000000
vt -1.214794 0.060212 0.000000
vt -1.236047 0.083300 0.000000
vt -1.253210 0.109570 0.000000
vt -1.265816 0.138307 0.000000
vt -1.273519 0.168727 0.000000
vt 0.335000 -0.950100 0.000000
vt -0.000000 -0.950100 0.000000
vt 0.335000 -1.000100 0.000000
vt -0.000000 -1.000100 0.000000
vt 0.335000 -0.950100 0.000000
vt -0.000000 -0.950100 0.000000
vt 0.335000 -1.000100 0.000000
vt -0.000000 -1.000100 0.000000
vt 0.300000 -0.025000 0.000000
vt 0.275000 -0.000000 0.000000
vt -0.300000 -0.025000 0.000000
vt -0.300000 -0.000000 0.000000
vt 0.300000 -0.000000 0.000000
vt -0.275000 -0.000000 0.000000
vt 0.300000 -0.025000 0.000000
vt -0.300000 -0.025000 0.000000
vt -0.300000 -0.150000 0.000000
vt 0.275000 -0.150000 0.000000
vt -0.300000 -0.100000 0.000000
vt 0.275000 -0.100000 0.000000
vt 0.300000 -0.000000 0.000000
vt -0.275000 -0.000000 0.000000
vt 0.300000 -0.025000 0.000000
vt -0.300000 -0.025000 0.000000
vt 0.300000 -0.025000 0.000000
vt 0.275000 -0.000000 0.000000
vt -0.300000 -0.025000 0.000000
vt -0.300000 -0.000000 0.000000
vt -0.300000 0.100000 0.000000
vt 0.275000 0.100000 0.000000
vt -0.300000 0.150000 0.000000
vt 0.275000 0.150000 0.000000
vt -0.100000 0.035355 0.000000
vt -0.150000 0.035355 0.000000
vt -0.100000 -0.000000 0.000000
vt -0.150000 -0.000000 0.000000
vt 0.150000 0.035355 0.000000
vt 0.100000 0.035355 0.000000
vt 0.150000 0.000000 0.000000
vt 0.100000 0.000000 0.000000
vt 0.400000 0.070711 0.000000
vt -0.000000 0.070711 0.000000
vt 0.400000 0.000000 0.000000
vt -0.000000 0.000000 0.000000
vn 0.000000 0.000000 -1.000000
vn 0.000000 0.000000 -1.000000
vn 0.218508 0.218508 -0.951057
vn 0.218508 0.218508 -0.951057
vn 0.415627 0.415627 -0.809017
vn 0.415627 0.415627 -0.809017
vn 0.572061 0.572061 -0.587785
vn 0.572061 0.572061 -0.587785
vn 0.672499 0.672499 -0.309017
vn 0.672499 0.672499 -0.309017
vn 0.707107 0.707107 -0.000000
vn 0.707107 0.707107 -0.000000
vn 0.672499 0.672499 0.309017
vn 0.672499 0.672499 0.309017
vn 0.572061 0.572061 0.587785
vn 0.572061 0.572061 0.587785
vn 0.415627 0.415627 0.809017
vn 0.415627 0.415627 0.809017
vn 0.218508 0.218508 0.951057
vn 0.218508 0.218508 0.951057
vn 0.000000 0.000000 1.000000
vn 0.000000 0.000000 1.000000
vn -0.697463 -0.697463 0.164595
vn -0.697463 -0.697463 0.164595
vn -0.707107 -0.707107 0.000000
vn -0.707107 -0.707107 0.000000
vn -0.697463 -0.697463 -0.164595
vn -0.697463 -0.697463 -0.164595
vn -0.668794 -0.668794 -0.324699
vn -0.668794 -0.668794 -0.324699
vn -0.621882 -0.621882 -0.475947
vn -0.621882 -0.621882 -0.475947
vn -0.558007 -0.558007 -0.614213
vn -0.558007 -0.558007 -0.614213
vn -0.478910 -0.478910 -0.735724
vn -0.478910 -0.478910 -0.735724
vn -0.386751 -0.386751 -0.837166
vn -0.386751 -0.386751 -0.837166
vn -0.284042 -0.284042 -0.915773
vn -0.284042 -0.284042 -0.915773
vn -0.173584 -0.173584 -0.969400
vn -0.173584 -0.173584 -0.969400
vn -0.058392 -0.058392 -0.996584
vn -0.058392 -0.058392 -0.996584
vn 0.058392 0.058392 -0.996584
vn 0.058392 0.058392 -0.996584
vn 0.173584 0.173584 -0.969400
vn 0.173584 0.173584 -0.969400
vn 0.284042 0.284042 -0.915773
vn 0.284042 0.284042 -0.915773
vn 0.386751 0.386751 -0.837166
vn 0.386751 0.386751 -0.837166
vn 0.478910 0.478910 -0.735724
vn 0.478910 0.478910 -0.735724
vn 0.558007 0.558007 -0.614213
vn 0.558007 0.558007 -0.614213
vn 0.621882 0.621882 -0.475947
vn 0.621882 0.621882 -0.475947
vn 0.668794 0.668794 -0.324699
vn 0.668794 0.668794 -0.324699
vn 0.697463 0.697463 -0.164595
vn 0.697463 0.697463 -0.164595
vn 0.707107 0.707107 -0.000000
vn 0.707107 0.707107 -0.000000
vn 0.697463 0.697463 0.164595
vn 0.697463 0.697463 0.164595
vn 0.668794 0.668794 0.324699
vn 0.668794 0.668794 0.324699
vn 0.621882 0.621882 0.475947
vn 0.621882 0.621882 0.475947
vn 0.558007 0.558007 0.614213
vn 0.558007 0.558007 0.614213
vn 0.478910 0.478910 0.735724
vn 0.478910 0.478910 0.735724
vn 0.386751 0.386751 0.837166
vn 0.386751 0.386751 0.837166
vn 0.284042 0.284042 0.915773
vn 0.284042 0.284042 0.915773
vn 0.173584 0.173584 0.969400
vn 0.173584 0.173584 0.969400
vn 0.058392 0.058392 0.996584
vn 0.058392 0.058392 0.996584
vn -0.058392 -0.058392 0.996584
vn -0.058392 -0.058392 0.996584
vn -0.173584 -0.173584 0.969400
vn -0.173584 -0.173584 0.969400
vn -0.284042 -0.284042 0.915773
vn -0.284042 -0.284042 0.915773
vn -0.386751 -0.386751 0.837166
vn -0.386751 -0.386751 0.837166
vn -0.478910 -0.478910 0.735724
vn -0.478910 -0.478910 0.735724
vn -0.558007 -0.558007 0.614213
vn -0.558007 -0.558007 0.614213
vn -0.621882 -0.621882 0.475947
vn -0.621882 -0.621882 0.475947
vn -0.668794 -0.668794 0.324699
vn -0.668794 -0.668794 0.324699
vn 0.707107 0.707107 -0.000000
vn 0.707107 0.707107 -0.000000
vn 0.707107 0.707107 -0.000000
vn 0.707107 0.707107 -0.000000
vn 0.707107 0.707107 -0.000000
vn 0.707107 0.707107 -0.000000
vn 0.707107 -0.707107 0.000000
vn 0.707107 -0.707107 0.000000
vn 0.707107 -0.707107 0.000000
vn 0.707107 -0.707107 0.000000
vn 0.707107 -0.707107 0.000000
vn 0.707107 -0.707107 0.000000
vn 0.707107 -0.707107 0.000000
vn 0.707107 -0.707107 0.000000
vn 0.707107 -0.707107 0.000000
vn 0.707107 -0.707107 0.000000
vn 0.707107 -0.707107 0.000000
vn 0.707107 -0.707107 0.000000
vn 0.707107 -0.707107 0.000000
vn 0.707107 -0.707107 0.000000
vn 0.707107 -0.707107 0.000000
vn 0.707107 -0.707107 0.000000
vn 0.707107 -0.707107 0.000000
vn 0.707107 -0.707107 0.000000
vn 0.707107 -0.707107 0.000000
vn 0.707107 -0.707107 0.000000
vn 0.707107 -0.707107 0.000000
vn 0.707107 -0.707107 0.000000
vn 0.707107 -0.707107 0.000000
vn 0.707107 -0.707107 0.000000
vn 0.707107 -0.707107 0.000000
vn 0.707107 0.707107 -0.000000
vn 0.707107 0.707107 -0.000000
vn 0.707107 0.707107 -0.000000
vn 0.707107 0.707107 -0.000000
vn 0.707107 0.707107 -0.000000
vn 0.707107 0.707107 -0.000000
vn 0.707107 0.707107 -0.000000
vn 0.707107 0.707107 -0.000000
vn 0.707107 0.707107 -0.000000
vn 0.707107 0.707107 -0.000000
vn 0.707107 0.707107 -0.000000
vn 0.707107 0.707107 -0.000000
vn 0.000000 -0.000000 -1.000000
vn 0.000000 -0.000000 -1.000000
vn 0.000000 -0.000000 -1.000000
vn 0.000000 -0.000000 -1.000000
vn 0.000000 -0.000000 -1.000000
vn 0.000000 -0.000000 -1.000000
vn 0.707107 0.707107 -0.000000
vn 0.707107 0.707107 -0.000000
vn 0.707107 0.707107 -0.000000
vn 0.707107 0.707107 -0.000000
vn 0.707107 0.707107 -0.000000
vn 0.707107 0.707107 -0.000000
vn -0.000000 0.000000 1.000000
vn -0.000000 0.000000 1.000000
vn -0.000000 0.000000 1.000000
vn -0.000000 0.000000 1.000000
vn -0.000000 0.000000 1.000000
vn -0.000000 0.000000 1.000000
vn -0.707107 -0.707107 0.000000
vn -0.707107 -0.707107 0.000000
vn -0.707107 -0.707107 0.000000
vn -0.707107 -0.707107 0.000000
vn 0.707107 -0.707107 0.000000
vn 0.707107 -0.707107 0.000000
vn 0.707107 -0.707107 0.000000
vn 0.707107 -0.707107 0.000000
vn 0.707107 -0.707107 0.000000
vn 0.707107 -0.707107 0.000000
vn 0.707107 -0.707107 0.000000
vn 0.707107 -0.707107 0.000000
vn 0.707107 -0.707107 0.000000
vn 0.707107 -0.707107 0.000000
vn 0.707107 -0.707107 0.000000
vn 0.707107 -0.707107 0.000000
vn 0.707107 -0.707107 0.000000
vn 0.707107 -0.707107 0.000000
vn 0.707107 -0.707107 0.000000
vn 0.707107 -0.707107 0.000000
vn 0.707107 -0.707107 0.000000
vn 0.707107 -0.707107 0.000000
vn 0.707107 -0.707107 0.000000
vn 0.707107 -0.707107 0.000000
vn 0.707107 -0.707107 0.000000
vn 0.707107 -0.707107 0.000000
vn 0.707107 -0.707107 0.000000
vn 0.707107 -0.707107 0.000000
vn 0.707107 -0.707107 0.000000
vn 0.707107 -0.707107 0.000000
vn 0.707107 -0.707107 0.000000
vn 0.707107 -0.707107 0.000000
vn 0.707107 -0.707107 0.000000
vn 0.707107 -0.707107 0.000000
vn 0.707107 -0.707107 0.000000
vn 0.707107 -0.707107 0.000000
vn 0.707107 -0.707107 0.000000
vn 0.707107 -0.707107 0.000000
vn 0.707107 -0.707107 0.000000
vn 0.707107 -0.707107 0.000000
vn 0.707107 -0.707107 0.000000
vn 0.707107 -0.707107 0.000000
vn 0.707107 -0.707107 0.000000
vn 0.707107 -0.707107 0.000000
vn 0.707107 -0.707107 0.000000
vn 0.707107 -0.707107 0.000000
vn -0.707107 0.707107 -0.000000
vn -0.707107 0.707107 -0.000000
vn -0.707107 0.707107 -0.000000
vn -0.707107 0.707107 -0.000000
vn -0.707107 0.707107 -0.000000
vn -0.707107 0.707107 -0.000000
vn -0.707107 0.707107 -0.000000
vn -0.707107 0.707107 -0.000000
vn -0.707107 0.707107 -0.000000
vn -0.707107 0.707107 -0.000000
vn -0.707107 0.707107 -0.000000
vn -0.707107 0.707107 -0.000000
vn -0.707107 0.707107 -0.000000
vn -0.707107 0.707107 -0.000000
vn -0.707107 0.707107 -0.000000
vn -0.707107 0.707107 -0.000000
vn -0.707107 0.707107 -0.000000
vn -0.407159 -0.913357 0.000000
vn -0.407159 -0.913357 0.000000
vn -0.407159 -0.913357 0.000000
vn -0.407159 -0.913357 0.000000
vn 0.873085 0.487567 -0.000000
vn 0.873085 0.487567 -0.000000
vn 0.873085 0.487567 -0.000000
vn 0.873085 0.487567 -0.000000
vn 0.873085 0.487567 -0.000000
vn 0.873085 0.487567 -0.000000
vn 0.000000 -0.000000 -1.000000
vn 0.000000 -0.000000 -1.000000
vn 0.000000 -0.000000 -1.000000
vn 0.000000 -0.000000 -1.000000
vn 0.000000 -0.000000 -1.000000
vn -0.000000 0.000000 1.000000
vn -0.000000 0.000000 1.000000
vn -0.000000 0.000000 1.000000
vn -0.000000 0.000000 1.000000
vn -0.000000 0.000000 1.000000
vn -0.707107 0.707107 -0.000000
vn -0.707107 0.707107 -0.000000
vn -0.707107 0.707107 -0.000000
vn -0.707107 0.707107 -0.000000
vn -0.707107 0.707107 -0.000000
vn -0.707107 0.707107 -0.000000
vn -0.707107 0.707107 -0.000000
vn -0.707107 0.707107 -0.000000
vn -0.707107 0.707107 -0.000000
vn -0.707107 0.707107 -0.000000
vn -0.707107 0.707107 -0.000000
vn -0.707107 0.707107 -0.000000
vn -0.707107 0.707107 -0.000000
vn -0.707107 0.707107 -0.000000
vn -0.707107 0.707107 -0.000000
vn -0.707107 0.707107 -0.000000
vn -0.707107 0.707107 -0.000000
vn -0.707107 0.707107 -0.000000
vn -0.707107 0.707107 -0.000000
vn -0.707107 0.707107 -0.000000
vn -0.707107 0.707107 -0.000000
vn -0.707107 0.707107 -0.000000
vn -0.707107 0.707107 -0.000000
vn -0.707107 0.707107 -0.000000
vn -0.707107 0.707107 -0.000000
vn -0.707107 0.707107 -0.000000
vn -0.707107 0.707107 -0.000000
vn -0.707107 0.707107 -0.000000
vn -0.707107 0.707107 -0.000000
vn -0.707107 0.707107 -0.000000
vn -0.707107 0.707107 -0.000000
vn -0.707107 0.707107 -0.000000
vn -0.707107 0.707107 -0.000000
vn -0.707107 0.707107 -0.000000
vn -0.707107 0.707107 -0.000000
vn -0.707107 0.707107 -0.000000
vn -0.707107 0.707107 -0.000000
vn -0.707107 0.707107 -0.000000
vn -0.707107 0.707107 -0.000000
vn -0.707107 0.707107 -0.000000
vn -0.707107 0.707107 -0.000000
vn -0.707107 0.707107 -0.000000
vn -0.000000 -0.000000 -1.000000
vn -0.000000 -0.000000 -1.000000
vn -0.000000 -0.000000 -1.000000
vn -0.000000 0.000000 1.000000
vn -0.000000 0.000000 1.000000
vn -0.000000 0.000000 1.000000
vn 0.000000 -0.000000 -1.000000
vn 0.000000 -0.000000 -1.000000
vn 0.000000 -0.000000 -1.000000
vn 0.000000 -0.000000 -1.000000
vn 0.000000 0.000000 1.000000
vn 0.000000 0.000000 1.000000
vn 0.000000 0.000000 1.000000
vn 0.000000 0.000000 1.000000
vn 0.707107 -0.707107 0.000000
vn 0.707107 -0.707107 0.000000
vn 0.707107 -0.707107 0.000000
vn 0.707107 -0.707107 0.000000
vn -0.000000 0.000000 1.000000
vn -0.000000 0.000000 1.000000
vn -0.000000 0.000000 1.000000
vn -0.000000 0.000000 1.000000
vn 0.000000 -0.000000 -1.000000
vn 0.000000 -0.000000 -1.000000
vn 0.000000 -0.000000 -1.000000
vn 0.000000 -0.000000 -1.000000
vn 0.707107 -0.707107 0.000000
vn 0.707107 -0.707107 0.000000
vn 0.707107 -0.707107 0.000000
vn 0.707107 -0.707107 0.000000
vn 1.000000 0.000000 0.000000
vn 1.000000 0.000000 0.000000
vn 1.000000 0.000000 0.000000
vn 1.000000 0.000000 0.000000
vn 1.000000 0.000000 -0.000000
vn 1.000000 0.000000 -0.000000
vn 1.000000 0.000000 -0.000000
vn 1.000000 0.000000 -0.000000
vn 0.000000 1.000000 -0.000000
vn 0.000000 1.000000 -0.000000
vn 0.000000 1.000000 -0.000000
vn 0.000000 1.000000 -0.000000
usemtl Paint_-_Enamel_Glossy_(Blue)
f 22/1/1 1/2/2 21/3/3
f 21/3/3 1/2/2 2/4/4
f 21/3/3 2/4/4 20/5/5
f 20/5/5 2/4/4 3/6/6
f 20/5/5 3/6/6 19/7/7
f 19/7/7 3/6/6 4/8/8
f 19/7/7 4/8/8 18/9/9
f 18/9/9 4/8/8 5/10/10
f 18/9/9 5/10/10 17/11/11
f 17/11/11 5/10/10 6/12/12
f 17/11/11 6/12/12 16/13/13
f 16/13/13 6/12/12 7/14/14
f 16/13/13 7/14/14 15/15/15
f 15/15/15 7/14/14 8/16/16
f 15/15/15 8/16/16 14/17/17
f 14/17/17 8/16/16 9/18/18
f 14/17/17 9/18/18 13/19/19
f 13/19/19 9/18/18 10/20/20
f 13/19/19 10/20/20 12/21/21
f 12/21/21 10/20/20 11/22/22
f 24/23/23 98/24/24 23/25/25
f 23/25/25 98/24/24 61/26/26
f 23/25/25 61/26/26 60/27/27
f 60/27/27 61/26/26 62/28/28
f 60/27/27 62/28/28 59/29/29
f 59/29/29 62/28/28 63/30/30
f 59/29/29 63/30/30 58/31/31
f 58/31/31 63/30/30 64/32/32
f 58/31/31 64/32/32 57/33/33
f 57/33/33 64/32/32 65/34/34
f 57/33/33 65/34/34 56/35/35
f 56/35/35 65/34/34 66/36/36
f 56/35/35 66/36/36 55/37/37
f 55/37/37 66/36/36 67/38/38
f 55/37/37 67/38/38 54/39/39
f 54/39/39 67/38/38 68/40/40
f 54/39/39 68/40/40 53/41/41
f 53/41/41 68/40/40 69/42/42
f 53/41/41 69/42/42 52/43/43
f 52/43/43 69/42/42 70/44/44
f 52/43/43 70/44/44 51/45/45
f 51/45/45 70/44/44 71/46/46
f 51/45/45 71/46/46 50/47/47
f 50/47/47 71/46/46 72/48/48
f 50/47/47 72/48/48 49/49/49
f 49/49/49 72/48/48 73/50/50
f 49/49/49 73/50/50 48/51/51
f 48/51/51 73/50/50 74/52/52
f 48/51/51 74/52/52 47/53/53
f 47/53/53 74/52/52 75/54/54
f 47/53/53 75/54/54 46/55/55
f 46/55/55 75/54/54 76/56/56
f 46/55/55 76/56/56 45/57/57
f 45/57/57 76/56/56 77/58/58
f 45/57/57 77/58/58 44/59/59
f 44/59/59 77/58/58 78/60/60
f 44/59/59 78/60/60 43/61/61
f 43/61/61 78/60/60 79/62/62
f 43/61/61 79/62/62 42/63/63
f 42/63/63 79/62/62 80/64/64
f 42/65/63 80/66/64 41/67/65
f 41/67/65 80/66/64 81/68/66
f 41/67/65 81/68/66 40/69/67
f 40/69/67 81/68/66 82/70/68
f 40/69/67 82/70/68 39/71/69
f 39/71/69 82/70/68 83/72/70
f 39/71/69 83/72/70 38/73/71
f 38/73/71 83/72/70 84/74/72
f 38/73/71 84/74/72 37/75/73
f 37/75/73 84/74/72 85/76/74
f 37/75/73 85/76/74 36/77/75
f 36/77/75 85/76/74 86/78/76
f 36/77/75 86/78/76 35/79/77
f 35/79/77 86/78/76 87/80/78
f 35/79/77 87/80/78 34/81/79
f 34/81/79 87/80/78 88/82/80
f 34/81/79 88/82/80 33/83/81
f 33/83/81 88/82/80 89/84/82
f 33/83/81 89/84/82 32/85/83
f 32/85/83 89/84/82 90/86/84
f 32/85/83 90/86/84 31/87/85
f 31/87/85 90/86/84 91/88/86
f 31/87/85 91/88/86 30/89/87
f 30/89/87 91/88/86 92/90/88
f 30/89/87 92/90/88 29/91/89
f 29/91/89 92/90/88 93/92/90
f 29/91/89 93/92/90 28/93/91
f 28/93/91 93/92/90 94/94/92
f 28/93/91 94/94/92 27/95/93
f 27/95/93 94/94/92 95/96/94
f 27/95/93 95/96/94 26/97/95
f 26/97/95 95/96/94 96/98/96
f 26/97/95 96/98/96 25/99/97
f 25/99/97 96/98/96 97/100/98
f 25/99/97 97/100/98 24/23/23
f 24/23/23 97/100/98 98/24/24
f 100/101/99 101/102/100 99/103/101
f 99/103/101 101/102/100 102/104/102
f 99/103/101 102/104/102 103/105/103
f 103/105/103 104/106/104 99/103/101
f 106/107/105 107/108/106 105/109/107
f 105/109/107 107/108/106 116/110/108
f 116/110/108 107/108/106 115/111/109
f 115/111/109 107/108/106 108/112/110
f 115/111/109 108/112/110 1/113/111
f 1/113/111 108/112/110 109/114/112
f 1/113/111 109/114/112 2/115/113
f 2/115/113 109/114/112 3/116/114
f 3/116/114 109/114/112 4/117/115
f 4/117/115 109/114/112 5/118/116
f 5/118/116 109/114/112 6/119/117
f 6/119/117 109/114/112 110/120/118
f 6/119/117 110/120/118 7/121/119
f 7/121/119 110/120/118 8/122/120
f 8/122/120 110/120/118 9/123/121
f 9/123/121 110/120/118 10/124/122
f 10/124/122 110/120/118 11/125/123
f 11/125/123 110/120/118 111/126/124
f 11/125/123 111/126/124 104/127/125
f 104/127/125 111/126/124 99/128/126
f 99/128/126 111/126/124 112/129/127
f 99/128/126 112/129/127 114/130/128
f 114/130/128 112/129/127 113/131/129
f 106/132/130 105/133/131 117/134/132
f 117/134/132 105/133/131 118/135/133
f 117/134/132 118/135/133 122/136/134
f 122/136/134 118/135/133 119/137/135
f 122/136/134 119/137/135 121/138/136
f 121/138/136 119/137/135 120/139/137
f 120/139/137 119/137/135 114/140/138
f 120/139/137 114/140/138 113/141/139
f 110/142/140 109/143/141 121/138/136
f 121/138/136 109/143/141 122/136/134
f 126/144/142 102/145/143 125/146/144
f 125/146/144 102/145/143 101/147/145
f 125/146/144 101/147/145 124/148/146
f 124/148/146 101/147/145 123/149/147
f 128/150/148 116/151/149 127/152/150
f 127/152/150 116/151/149 130/153/151
f 130/153/151 116/151/149 129/154/152
f 129/154/152 116/151/149 115/155/153
f 132/156/154 127/157/155 131/158/156
f 131/158/156 127/157/155 134/159/157
f 134/159/157 127/157/155 133/160/158
f 133/160/158 127/157/155 130/161/159
f 125/162/160 134/163/161 126/164/162
f 126/164/162 134/163/161 133/165/163
f 123/166/164 89/167/165 124/168/166
f 124/168/166 89/167/165 88/169/167
f 124/168/166 88/169/167 87/170/168
f 132/171/169 61/172/170 123/166/164
f 123/166/164 61/172/170 98/173/171
f 123/166/164 98/173/171 97/174/172
f 131/175/173 70/176/174 132/171/169
f 132/171/169 70/176/174 69/177/175
f 132/171/169 69/177/175 68/178/176
f 124/168/166 80/179/177 131/175/173
f 131/175/173 80/179/177 79/180/178
f 131/175/173 79/180/178 78/181/179
f 97/174/172 96/182/180 123/166/164
f 123/166/164 96/182/180 95/183/181
f 123/166/164 95/183/181 94/184/182
f 94/184/182 93/185/183 123/166/164
f 123/166/164 93/185/183 92/186/184
f 123/166/164 92/186/184 91/187/185
f 91/187/185 90/188/186 123/166/164
f 123/166/164 90/188/186 89/167/165
f 87/170/168 86/189/187 124/168/166
f 124/168/166 86/189/187 85/190/188
f 124/168/166 85/190/188 84/191/189
f 84/191/189 83/192/190 124/168/166
f 124/168/166 83/192/190 82/193/191
f 124/168/166 82/193/191 81/194/192
f 81/194/192 80/179/177 124/168/166
f 78/181/179 77/195/193 131/175/173
f 131/175/173 77/195/193 76/196/194
f 131/175/173 76/196/194 75/197/195
f 75/197/195 74/198/196 131/175/173
f 131/175/173 74/198/196 73/199/197
f 131/175/173 73/199/197 72/200/198
f 72/200/198 71/201/199 131/175/173
f 131/175/173 71/201/199 70/176/174
f 68/178/176 67/202/200 132/171/169
f 132/171/169 67/202/200 66/203/201
f 132/171/169 66/203/201 65/204/202
f 65/204/202 64/205/203 132/171/169
f 132/171/169 64/205/203 63/206/204
f 132/171/169 63/206/204 62/207/205
f 62/207/205 61/172/170 132/171/169
f 129/208/206 22/209/207 130/210/208
f 130/210/208 22/209/207 133/211/209
f 133/211/209 22/209/207 21/212/210
f 133/211/209 21/212/210 20/213/211
f 20/213/211 19/214/212 133/211/209
f 133/211/209 19/214/212 18/215/213
f 133/211/209 18/215/213 17/216/214
f 133/211/209 17/216/214 126/217/215
f 126/217/215 17/216/214 16/218/216
f 126/217/215 16/218/216 15/219/217
f 15/219/217 14/220/218 126/217/215
f 126/217/215 14/220/218 13/221/219
f 126/217/215 13/221/219 12/222/220
f 103/223/221 102/224/222 12/222/220
f 12/222/220 102/224/222 126/217/215
f 131/225/223 134/226/224 124/227/225
f 124/227/225 134/226/224 125/228/226
f 127/229/227 132/230/228 128/231/229
f 128/231/229 132/230/228 123/232/230
f 128/231/229 123/232/230 100/233/231
f 100/233/231 123/232/230 101/234/232
f 118/235/233 105/236/234 135/237/235
f 135/237/235 105/236/234 116/238/236
f 135/237/235 116/238/236 128/239/237
f 119/240/238 136/241/239 114/242/240
f 114/242/240 136/241/239 99/243/241
f 99/243/241 136/241/239 100/244/242
f 135/245/243 51/246/244 118/247/245
f 118/247/245 51/246/244 50/248/246
f 118/247/245 50/248/246 49/249/247
f 136/250/248 23/251/249 135/245/243
f 135/245/243 23/251/249 60/252/250
f 135/245/243 60/252/250 59/253/251
f 119/254/252 33/255/253 136/250/248
f 136/250/248 33/255/253 32/256/254
f 136/250/248 32/256/254 31/257/255
f 118/247/245 42/258/256 119/254/252
f 119/254/252 42/258/256 41/259/257
f 119/254/252 41/259/257 40/260/258
f 59/253/251 58/261/259 135/245/243
f 135/245/243 58/261/259 57/262/260
f 135/245/243 57/262/260 56/263/261
f 56/263/261 55/264/262 135/245/243
f 135/245/243 55/264/262 54/265/263
f 135/245/243 54/265/263 53/266/264
f 53/266/264 52/267/265 135/245/243
f 135/245/243 52/267/265 51/246/244
f 49/249/247 48/268/266 118/247/245
f 118/247/245 48/268/266 47/269/267
f 118/247/245 47/269/267 46/270/268
f 46/270/268 45/271/269 118/247/245
f 118/247/245 45/271/269 44/272/270
f 118/247/245 44/272/270 43/273/271
f 43/273/271 42/258/256 118/247/245
f 40/260/258 39/274/272 119/254/252
f 119/254/252 39/274/272 38/275/273
f 119/254/252 38/275/273 37/276/274
f 37/276/274 36/277/275 119/254/252
f 119/254/252 36/277/275 35/278/276
f 119/254/252 35/278/276 34/279/277
f 34/279/277 33/255/253 119/254/252
f 31/257/255 30/280/278 136/250/248
f 136/250/248 30/280/278 29/281/279
f 136/250/248 29/281/279 28/282/280
f 28/282/280 27/283/281 136/250/248
f 136/250/248 27/283/281 26/284/282
f 136/250/248 26/284/282 25/285/283
f 25/285/283 24/286/284 136/250/248
f 136/250/248 24/286/284 23/251/249
f 115/287/285 1/288/286 129/289/287
f 129/289/287 1/288/286 22/290/1
f 11/291/288 104/292/289 12/293/21
f 12/293/21 104/292/289 103/294/290
f 112/295/291 137/296/292 113/297/293
f 113/297/293 137/296/292 120/298/294
f 121/299/295 138/300/296 110/301/297
f 110/301/297 138/300/296 111/302/298
f 120/303/299 137/304/300 121/305/301
f 121/305/301 137/304/300 138/306/302
f 117/307/303 139/308/304 106/309/305
f 106/309/305 139/308/304 107/310/306
f 108/311/307 140/312/308 109/313/309
f 109/313/309 140/312/308 122/314/310
f 122/315/311 140/316/312 117/317/313
f 117/317/313 140/316/312 139/318/314
f 108/319/315 107/320/316 140/321/317
f 140/321/317 107/320/316 139/322/318
f 112/323/319 111/324/320 137/325/321
f 137/325/321 111/324/320 138/326/322
f 128/327/323 100/328/324 135/329/325
f 135/329/325 100/328/324 136/330/326
# 140 vertices
# 330 texture params
# 326 normals
# 280 facets

# 1 groups
