# WaveFront *.obj file (generated by Autodesk ATF)

mtllib body115_visual.mtl

g Body115

v 62.774634 -64.992614 97.055821
v 62.780774 -64.998754 97.057663
v 62.786717 -65.004697 97.060517
v 62.792381 -65.010361 97.064344
v 62.797685 -65.015664 97.069091
v 62.802555 -65.020535 97.074690
v 62.806923 -65.024903 97.081064
v 62.810728 -65.028708 97.088124
v 62.813917 -65.031897 97.095769
v 62.816445 -65.034425 97.103894
v 62.818276 -65.036256 97.112385
v 62.819385 -65.037365 97.121121
v 62.819756 -65.037736 97.129982
v 62.766723 -65.090769 97.129982
v 62.766352 -65.090398 97.121121
v 62.765243 -65.089289 97.112385
v 62.763412 -65.087458 97.103894
v 62.760884 -65.084930 97.095769
v 62.757695 -65.081741 97.088124
v 62.753890 -65.077936 97.081064
v 62.749522 -65.073568 97.074690
v 62.744651 -65.068697 97.069091
v 62.739348 -65.063394 97.064344
v 62.733684 -65.057730 97.060517
v 62.727741 -65.051787 97.057663
v 62.721601 -65.045647 97.055821
v 62.784401 -65.002381 97.129982
v 62.784038 -65.002018 97.124942
v 62.782964 -65.000944 97.120108
v 62.781223 -64.999203 97.115681
v 62.778886 -64.996866 97.111840
v 62.776050 -64.994030 97.108745
v 62.772830 -64.990810 97.106522
v 62.769360 -64.987340 97.105262
v 62.716327 -65.040373 97.105262
v 62.719797 -65.043843 97.106522
v 62.723017 -65.047063 97.108745
v 62.725853 -65.049899 97.111840
v 62.728190 -65.052236 97.115681
v 62.729931 -65.053977 97.120108
v 62.731005 -65.055051 97.124942
v 62.731368 -65.055414 97.129982
v 62.764116 -64.982096 97.104143
v 62.757976 -64.975956 97.102302
v 62.752033 -64.970013 97.099448
v 62.746369 -64.964349 97.095621
v 62.741066 -64.959045 97.090874
v 62.736195 -64.954175 97.085275
v 62.731827 -64.949807 97.078901
v 62.728022 -64.946002 97.071841
v 62.724833 -64.942813 97.064196
v 62.722305 -64.940285 97.056071
v 62.720474 -64.938454 97.047580
v 62.719365 -64.937345 97.038843
v 62.718994 -64.936974 97.029982
v 62.665961 -64.990007 97.029982
v 62.666332 -64.990378 97.038843
v 62.667441 -64.991487 97.047580
v 62.669272 -64.993318 97.056071
v 62.671800 -64.995846 97.064196
v 62.674989 -64.999035 97.071841
v 62.678794 -65.002840 97.078901
v 62.683162 -65.007208 97.085275
v 62.688033 -65.012079 97.090874
v 62.693336 -65.017382 97.095621
v 62.699000 -65.023046 97.099448
v 62.704943 -65.028989 97.102302
v 62.711083 -65.035129 97.104143
v 62.754349 -64.972329 97.029982
v 62.754712 -64.972692 97.035023
v 62.755786 -64.973766 97.039856
v 62.757527 -64.975507 97.044284
v 62.759864 -64.977844 97.048125
v 62.762700 -64.980680 97.051220
v 62.765920 -64.983900 97.053443
v 62.769390 -64.987370 97.054703
v 62.716357 -65.040403 97.054703
v 62.712887 -65.036933 97.053443
v 62.709667 -65.033713 97.051220
v 62.706831 -65.030877 97.048125
v 62.704494 -65.028540 97.044284
v 62.702753 -65.026799 97.039856
v 62.701679 -65.025725 97.035023
v 62.701316 -65.025362 97.029982
v 62.819756 -65.037736 97.206693
v 62.784401 -65.002381 97.206693
v 62.784401 -65.002381 97.246693
v 62.819756 -65.037736 97.246693
v 62.784401 -65.002381 97.146693
v 62.819756 -65.037736 97.146693
v 62.754349 -64.972329 96.970693
v 62.718994 -64.936974 96.970693
v 62.731368 -65.055414 97.206693
v 62.766723 -65.090769 97.206693
v 62.766723 -65.090769 97.246693
v 62.731368 -65.055414 97.246693
v 62.701316 -65.025362 96.970693
v 62.665961 -64.990007 96.970693
v 62.766723 -65.090769 97.146693
v 62.731368 -65.055414 97.146693
v 62.759652 -65.097840 97.146693
v 62.724297 -65.062485 97.146693
v 62.791472 -64.995310 97.206693
v 62.791472 -64.995310 97.146693
v 62.724297 -65.062485 97.206693
v 62.759652 -65.097840 97.206693
v 62.826827 -65.030665 97.146693
v 62.826827 -65.030665 97.206693
vt -0.075000 -0.053290 0.000000
vt -0.000000 -0.053290 0.000000
vt -0.075000 -0.044409 0.000000
vt 0.000000 -0.044409 0.000000
vt -0.075000 -0.035527 0.000000
vt -0.000000 -0.035527 0.000000
vt -0.075000 -0.026645 0.000000
vt 0.000000 -0.026645 0.000000
vt -0.075000 -0.017763 0.000000
vt 0.000000 -0.017763 0.000000
vt -0.075000 -0.008882 0.000000
vt 0.000000 -0.008882 0.000000
vt -0.075000 0.000000 0.000000
vt 0.000000 0.000000 0.000000
vt -0.075000 0.008882 0.000000
vt 0.000000 0.008882 0.000000
vt -0.075000 0.017763 0.000000
vt 0.000000 0.017763 0.000000
vt -0.075000 0.026645 0.000000
vt 0.000000 0.026645 0.000000
vt -0.075000 0.035527 0.000000
vt 0.000000 0.035527 0.000000
vt -0.075000 0.044409 0.000000
vt 0.000000 0.044409 0.000000
vt -0.075000 0.053290 0.000000
vt -0.000000 0.053290 0.000000
vt 0.075000 0.017763 0.000000
vt -0.000000 0.017763 0.000000
vt 0.075000 0.012688 0.000000
vt -0.000000 0.012688 0.000000
vt 0.075000 0.007613 0.000000
vt 0.000000 0.007613 0.000000
vt 0.075000 0.002538 0.000000
vt -0.000000 0.002538 0.000000
vt 0.075000 -0.002538 0.000000
vt -0.000000 -0.002538 0.000000
vt 0.075000 -0.007613 0.000000
vt 0.000000 -0.007613 0.000000
vt 0.075000 -0.012688 0.000000
vt -0.000000 -0.012688 0.000000
vt 0.075000 -0.017763 0.000000
vt -0.000000 -0.017763 0.000000
vt -0.075000 -0.053290 0.000000
vt -0.000000 -0.053290 0.000000
vt -0.075000 -0.044409 0.000000
vt 0.000000 -0.044409 0.000000
vt -0.075000 -0.035527 0.000000
vt -0.000000 -0.035527 0.000000
vt -0.075000 -0.026645 0.000000
vt -0.000000 -0.026645 0.000000
vt -0.075000 -0.017763 0.000000
vt -0.000000 -0.017763 0.000000
vt -0.075000 -0.008882 0.000000
vt -0.000000 -0.008882 0.000000
vt -0.075000 0.000000 0.000000
vt -0.000000 0.000000 0.000000
vt -0.075000 0.008882 0.000000
vt -0.000000 0.008882 0.000000
vt -0.075000 0.017763 0.000000
vt -0.000000 0.017763 0.000000
vt -0.075000 0.026645 0.000000
vt 0.000000 0.026645 0.000000
vt -0.075000 0.035527 0.000000
vt -0.000000 0.035527 0.000000
vt -0.075000 0.044409 0.000000
vt 0.000000 0.044409 0.000000
vt -0.075000 0.053290 0.000000
vt 0.000000 0.053290 0.000000
vt 0.075000 0.017763 0.000000
vt 0.000000 0.017763 0.000000
vt 0.075000 0.012688 0.000000
vt -0.000000 0.012688 0.000000
vt 0.075000 0.007613 0.000000
vt 0.000000 0.007613 0.000000
vt 0.075000 0.002538 0.000000
vt -0.000000 0.002538 0.000000
vt 0.075000 -0.002538 0.000000
vt -0.000000 -0.002538 0.000000
vt 0.075000 -0.007613 0.000000
vt 0.000000 -0.007613 0.000000
vt 0.075000 -0.012688 0.000000
vt -0.000000 -0.012688 0.000000
vt 0.075000 -0.017763 0.000000
vt -0.000000 -0.017763 0.000000
vt -0.101792 -0.014179 0.000000
vt -0.141792 -0.014179 0.000000
vt -0.101792 -0.064179 0.000000
vt -0.141792 -0.064179 0.000000
vt -0.041792 -0.014179 0.000000
vt -0.041792 -0.064179 0.000000
vt -0.025081 -0.014179 0.000000
vt -0.025081 -0.064179 0.000000
vt -0.016220 -0.063654 0.000000
vt -0.020041 -0.013666 0.000000
vt -0.007483 -0.062086 0.000000
vt 0.001007 -0.059496 0.000000
vt 0.009132 -0.055921 0.000000
vt -0.015207 -0.012147 0.000000
vt 0.016778 -0.051412 0.000000
vt 0.023837 -0.046030 0.000000
vt -0.010779 -0.009685 0.000000
vt 0.030211 -0.039853 0.000000
vt 0.035811 -0.032965 0.000000
vt -0.006939 -0.006380 0.000000
vt 0.040557 -0.025464 0.000000
vt -0.003843 -0.002369 0.000000
vt 0.044384 -0.017455 0.000000
vt -0.001620 0.002184 0.000000
vt 0.047239 -0.009050 0.000000
vt 0.049080 -0.000367 0.000000
vt -0.000361 0.007091 0.000000
vt 0.050198 0.007050 0.000000
vt 0.000758 0.014508 0.000000
vt 0.051458 0.011957 0.000000
vt 0.002599 0.023191 0.000000
vt 0.005453 0.031596 0.000000
vt 0.053681 0.016510 0.000000
vt 0.009280 0.039605 0.000000
vt 0.056776 0.020521 0.000000
vt 0.014027 0.047106 0.000000
vt 0.060617 0.023826 0.000000
vt 0.019627 0.053994 0.000000
vt 0.026001 0.060171 0.000000
vt 0.065045 0.026288 0.000000
vt 0.033060 0.065553 0.000000
vt 0.040706 0.070062 0.000000
vt 0.069878 0.027807 0.000000
vt 0.048831 0.073637 0.000000
vt 0.057321 0.076227 0.000000
vt 0.066058 0.077795 0.000000
vt 0.074919 0.028321 0.000000
vt 0.074919 0.078321 0.000000
vt 0.134208 0.028321 0.000000
vt 0.134208 0.078321 0.000000
vt 0.101792 -0.064179 0.000000
vt 0.141792 -0.064179 0.000000
vt 0.101792 -0.014179 0.000000
vt 0.141792 -0.014179 0.000000
vt -0.000000 0.075000 0.000000
vt -0.059289 0.075000 0.000000
vt 0.000000 0.000000 0.000000
vt -0.059289 -0.000000 0.000000
vt -0.000000 0.075000 0.000000
vt -0.050000 0.075000 0.000000
vt 0.000000 0.000000 0.000000
vt -0.050000 0.000000 0.000000
vt -0.075000 -0.059289 0.000000
vt -0.000000 -0.059289 0.000000
vt -0.075000 0.000000 0.000000
vt 0.000000 0.000000 0.000000
vt -0.075000 -0.007500 0.000000
vt 0.000000 -0.007500 0.000000
vt -0.075000 0.000000 0.000000
vt 0.000000 0.000000 0.000000
vt -0.075000 -0.050000 0.000000
vt 0.000000 -0.050000 0.000000
vt -0.075000 0.000000 0.000000
vt 0.000000 0.000000 0.000000
vt 0.075000 0.007500 0.000000
vt -0.000000 0.007500 0.000000
vt 0.075000 0.000000 0.000000
vt 0.000000 0.000000 0.000000
vt 0.041792 -0.014179 0.000000
vt 0.025081 -0.014179 0.000000
vt 0.041792 -0.064179 0.000000
vt 0.025081 -0.064179 0.000000
vt 0.016220 -0.063654 0.000000
vt 0.020041 -0.013666 0.000000
vt 0.007483 -0.062086 0.000000
vt -0.001007 -0.059496 0.000000
vt -0.009132 -0.055921 0.000000
vt 0.015207 -0.012147 0.000000
vt -0.016778 -0.051412 0.000000
vt -0.023837 -0.046030 0.000000
vt 0.010779 -0.009685 0.000000
vt -0.030211 -0.039853 0.000000
vt -0.035811 -0.032965 0.000000
vt 0.006939 -0.006380 0.000000
vt -0.040557 -0.025464 0.000000
vt 0.003843 -0.002369 0.000000
vt -0.044384 -0.017455 0.000000
vt 0.001620 0.002184 0.000000
vt -0.047239 -0.009050 0.000000
vt -0.049080 -0.000367 0.000000
vt 0.000361 0.007091 0.000000
vt -0.050198 0.007050 0.000000
vt -0.000758 0.014508 0.000000
vt -0.051458 0.011957 0.000000
vt -0.002599 0.023191 0.000000
vt -0.005453 0.031596 0.000000
vt -0.053681 0.016510 0.000000
vt -0.009280 0.039605 0.000000
vt -0.056776 0.020521 0.000000
vt -0.014027 0.047106 0.000000
vt -0.060617 0.023826 0.000000
vt -0.019627 0.053994 0.000000
vt -0.026001 0.060171 0.000000
vt -0.065045 0.026288 0.000000
vt -0.033060 0.065553 0.000000
vt -0.040706 0.070062 0.000000
vt -0.069878 0.027807 0.000000
vt -0.048831 0.073637 0.000000
vt -0.057321 0.076227 0.000000
vt -0.066058 0.077795 0.000000
vt -0.074919 0.028321 0.000000
vt -0.074919 0.078321 0.000000
vt -0.134208 0.028321 0.000000
vt -0.134208 0.078321 0.000000
vt -0.000000 0.085000 0.000000
vt 0.050000 0.085000 0.000000
vt -0.000000 0.095000 0.000000
vt 0.050000 0.095000 0.000000
vt -0.030000 -0.047500 0.000000
vt 0.030000 -0.047500 0.000000
vt -0.030000 -0.037500 0.000000
vt 0.030000 -0.037500 0.000000
vt -0.030000 0.037500 0.000000
vt 0.030000 0.037500 0.000000
vt -0.030000 0.047500 0.000000
vt 0.030000 0.047500 0.000000
vt 0.046711 -0.037500 0.000000
vt 0.046711 0.037500 0.000000
vt -0.070000 0.037500 0.000000
vt -0.070000 -0.037500 0.000000
vt 0.030000 0.047500 0.000000
vt -0.030000 0.047500 0.000000
vt 0.030000 0.037500 0.000000
vt -0.030000 0.037500 0.000000
vt 0.030000 -0.037500 0.000000
vt -0.030000 -0.037500 0.000000
vt 0.030000 -0.047500 0.000000
vt -0.030000 -0.047500 0.000000
vt -0.046711 0.037500 0.000000
vt -0.046711 -0.037500 0.000000
vt 0.070000 -0.037500 0.000000
vt 0.070000 0.037500 0.000000
vt 0.010000 -0.000000 0.000000
vt 0.000000 0.000000 0.000000
vt 0.010000 -0.050000 0.000000
vt -0.000000 -0.050000 0.000000
vt 0.085000 -0.050000 0.000000
vt 0.095000 -0.050000 0.000000
vt 0.085000 0.000000 0.000000
vt 0.095000 -0.000000 0.000000
vt 0.000000 -0.050000 0.000000
vt 0.060000 -0.050000 0.000000
vt 0.000000 0.000000 0.000000
vt 0.060000 0.000000 0.000000
vt 0.050000 0.010000 0.000000
vt -0.000000 0.010000 0.000000
vt 0.050000 -0.000000 0.000000
vt 0.000000 0.000000 0.000000
vt -0.000000 -0.050000 0.000000
vt 0.060000 -0.050000 0.000000
vt 0.000000 0.000000 0.000000
vt 0.060000 -0.000000 0.000000
vn 0.105473 -0.105473 -0.988813
vn 0.105473 -0.105473 -0.988813
vn 0.187342 -0.187342 -0.964265
vn 0.187342 -0.187342 -0.964265
vn 0.266586 -0.266586 -0.926209
vn 0.266586 -0.266586 -0.926209
vn 0.342097 -0.342097 -0.875180
vn 0.342097 -0.342097 -0.875180
vn 0.412815 -0.412815 -0.811891
vn 0.412815 -0.412815 -0.811891
vn 0.477751 -0.477751 -0.737230
vn 0.477751 -0.477751 -0.737230
vn 0.535995 -0.535995 -0.652242
vn 0.535995 -0.535995 -0.652242
vn 0.586730 -0.586730 -0.558117
vn 0.586730 -0.586730 -0.558117
vn 0.629247 -0.629247 -0.456175
vn 0.629247 -0.629247 -0.456175
vn 0.662950 -0.662950 -0.347843
vn 0.662950 -0.662950 -0.347843
vn 0.687366 -0.687366 -0.234638
vn 0.687366 -0.687366 -0.234638
vn 0.702154 -0.702154 -0.118146
vn 0.702154 -0.702154 -0.118146
vn 0.707107 -0.707107 -0.000000
vn 0.707107 -0.707107 0.000000
vn -0.707107 0.707107 0.000000
vn -0.707107 0.707107 -0.000000
vn -0.692586 0.692586 0.201619
vn -0.692586 0.692586 0.201619
vn -0.649618 0.649618 0.394958
vn -0.649618 0.649618 0.394958
vn -0.579970 0.579970 0.572074
vn -0.579970 0.579970 0.572074
vn -0.486501 0.486501 0.725695
vn -0.486501 0.486501 0.725695
vn -0.373051 0.373051 0.849509
vn -0.373051 0.373051 0.849509
vn -0.244278 0.244278 0.938433
vn -0.244278 0.244278 0.938433
vn -0.105473 0.105473 0.988813
vn -0.105473 0.105473 0.988813
vn -0.105473 0.105473 0.988813
vn -0.105473 0.105473 0.988813
vn -0.187342 0.187342 0.964265
vn -0.187342 0.187342 0.964265
vn -0.266586 0.266586 0.926209
vn -0.266586 0.266586 0.926209
vn -0.342097 0.342097 0.875180
vn -0.342097 0.342097 0.875180
vn -0.412815 0.412815 0.811891
vn -0.412815 0.412815 0.811891
vn -0.477751 0.477751 0.737230
vn -0.477751 0.477751 0.737230
vn -0.535995 0.535995 0.652242
vn -0.535995 0.535995 0.652242
vn -0.586730 0.586730 0.558117
vn -0.586730 0.586730 0.558117
vn -0.629247 0.629247 0.456175
vn -0.629247 0.629247 0.456175
vn -0.662950 0.662950 0.347843
vn -0.662950 0.662950 0.347843
vn -0.687366 0.687366 0.234638
vn -0.687366 0.687366 0.234638
vn -0.702154 0.702154 0.118146
vn -0.702154 0.702154 0.118146
vn -0.707107 0.707107 -0.000000
vn -0.707107 0.707107 0.000000
vn 0.707107 -0.707107 -0.000000
vn 0.707107 -0.707107 -0.000000
vn 0.692586 -0.692586 -0.201619
vn 0.692586 -0.692586 -0.201619
vn 0.649618 -0.649618 -0.394958
vn 0.649618 -0.649618 -0.394958
vn 0.579970 -0.579970 -0.572074
vn 0.579970 -0.579970 -0.572074
vn 0.486501 -0.486501 -0.725695
vn 0.486501 -0.486501 -0.725695
vn 0.373051 -0.373051 -0.849509
vn 0.373051 -0.373051 -0.849509
vn 0.244278 -0.244278 -0.938433
vn 0.244278 -0.244278 -0.938433
vn 0.105473 -0.105473 -0.988813
vn 0.105473 -0.105473 -0.988813
vn 0.707107 0.707107 -0.000000
vn 0.707107 0.707107 -0.000000
vn 0.707107 0.707107 -0.000000
vn 0.707107 0.707107 -0.000000
vn 0.707107 0.707107 -0.000000
vn 0.707107 0.707107 -0.000000
vn 0.707107 0.707107 -0.000000
vn 0.707107 0.707107 -0.000000
vn 0.707107 0.707107 -0.000000
vn 0.707107 0.707107 -0.000000
vn 0.707107 0.707107 -0.000000
vn 0.707107 0.707107 -0.000000
vn 0.707107 0.707107 -0.000000
vn 0.707107 0.707107 -0.000000
vn 0.707107 0.707107 -0.000000
vn 0.707107 0.707107 -0.000000
vn 0.707107 0.707107 -0.000000
vn 0.707107 0.707107 -0.000000
vn 0.707107 0.707107 -0.000000
vn 0.707107 0.707107 -0.000000
vn 0.707107 0.707107 -0.000000
vn 0.707107 0.707107 -0.000000
vn 0.707107 0.707107 -0.000000
vn 0.707107 0.707107 -0.000000
vn 0.707107 0.707107 -0.000000
vn 0.707107 0.707107 -0.000000
vn 0.707107 0.707107 -0.000000
vn 0.707107 0.707107 -0.000000
vn 0.707107 0.707107 -0.000000
vn 0.707107 0.707107 -0.000000
vn 0.707107 0.707107 -0.000000
vn 0.707107 0.707107 -0.000000
vn 0.707107 0.707107 -0.000000
vn 0.707107 0.707107 -0.000000
vn 0.707107 0.707107 -0.000000
vn 0.707107 0.707107 -0.000000
vn 0.707107 0.707107 -0.000000
vn 0.707107 0.707107 -0.000000
vn 0.707107 0.707107 -0.000000
vn 0.707107 0.707107 -0.000000
vn 0.707107 0.707107 -0.000000
vn 0.707107 0.707107 -0.000000
vn 0.707107 0.707107 -0.000000
vn 0.707107 0.707107 -0.000000
vn 0.707107 0.707107 -0.000000
vn 0.707107 0.707107 -0.000000
vn 0.707107 0.707107 -0.000000
vn 0.707107 0.707107 -0.000000
vn 0.707107 0.707107 -0.000000
vn 0.707107 0.707107 -0.000000
vn -0.707107 -0.707107 0.000000
vn -0.707107 -0.707107 0.000000
vn -0.707107 -0.707107 0.000000
vn -0.707107 -0.707107 0.000000
vn 0.707107 -0.707107 -0.000000
vn 0.707107 -0.707107 -0.000000
vn 0.707107 -0.707107 -0.000000
vn 0.000000 -0.000000 -1.000000
vn 0.000000 -0.000000 -1.000000
vn 0.000000 -0.000000 -1.000000
vn 0.000000 -0.000000 -1.000000
vn -0.707107 0.707107 0.000000
vn -0.707107 0.707107 0.000000
vn -0.105473 0.105473 0.988813
vn -0.000000 0.000000 1.000000
vn -0.000000 0.000000 1.000000
vn -0.000000 0.000000 1.000000
vn -0.000000 0.000000 1.000000
vn 0.105473 -0.105473 -0.988813
vn -0.707107 -0.707107 0.000000
vn -0.707107 -0.707107 0.000000
vn -0.707107 -0.707107 0.000000
vn -0.707107 -0.707107 0.000000
vn -0.707107 -0.707107 0.000000
vn -0.707107 -0.707107 0.000000
vn -0.707107 -0.707107 0.000000
vn -0.707107 -0.707107 0.000000
vn -0.707107 -0.707107 0.000000
vn -0.707107 -0.707107 0.000000
vn -0.707107 -0.707107 0.000000
vn -0.707107 -0.707107 0.000000
vn -0.707107 -0.707107 0.000000
vn -0.707107 -0.707107 0.000000
vn -0.707107 -0.707107 0.000000
vn -0.707107 -0.707107 0.000000
vn -0.707107 -0.707107 0.000000
vn -0.707107 -0.707107 0.000000
vn -0.707107 -0.707107 0.000000
vn -0.707107 -0.707107 0.000000
vn -0.707107 -0.707107 0.000000
vn -0.707107 -0.707107 0.000000
vn -0.707107 -0.707107 0.000000
vn -0.707107 -0.707107 0.000000
vn -0.707107 -0.707107 0.000000
vn -0.707107 -0.707107 0.000000
vn -0.707107 -0.707107 0.000000
vn -0.707107 -0.707107 0.000000
vn -0.707107 -0.707107 0.000000
vn -0.707107 -0.707107 0.000000
vn -0.707107 -0.707107 0.000000
vn -0.707107 -0.707107 0.000000
vn -0.707107 -0.707107 0.000000
vn -0.707107 -0.707107 0.000000
vn -0.707107 -0.707107 0.000000
vn -0.707107 -0.707107 0.000000
vn -0.707107 -0.707107 0.000000
vn -0.707107 -0.707107 0.000000
vn -0.707107 -0.707107 0.000000
vn -0.707107 -0.707107 0.000000
vn -0.707107 -0.707107 0.000000
vn -0.707107 -0.707107 0.000000
vn -0.707107 -0.707107 0.000000
vn -0.707107 -0.707107 0.000000
vn -0.707107 -0.707107 0.000000
vn -0.707107 -0.707107 0.000000
vn 0.000000 -0.000000 -1.000000
vn 0.000000 -0.000000 -1.000000
vn 0.000000 -0.000000 -1.000000
vn 0.000000 -0.000000 -1.000000
vn -0.707107 0.707107 -0.000000
vn -0.707107 0.707107 -0.000000
vn -0.707107 0.707107 -0.000000
vn -0.707107 0.707107 -0.000000
vn -0.707107 0.707107 -0.000000
vn -0.707107 0.707107 -0.000000
vn -0.707107 0.707107 -0.000000
vn -0.707107 0.707107 -0.000000
vn -0.707107 0.707107 -0.000000
vn -0.707107 0.707107 -0.000000
vn 0.707107 -0.707107 0.000000
vn 0.707107 -0.707107 0.000000
vn 0.707107 -0.707107 0.000000
vn 0.707107 -0.707107 0.000000
vn 0.707107 -0.707107 0.000000
vn 0.707107 -0.707107 0.000000
vn 0.707107 -0.707107 0.000000
vn 0.707107 -0.707107 0.000000
vn 0.707107 -0.707107 0.000000
vn 0.707107 -0.707107 0.000000
vn -0.000000 0.000000 1.000000
vn -0.000000 0.000000 1.000000
vn -0.000000 0.000000 1.000000
vn -0.000000 0.000000 1.000000
vn -0.000000 0.000000 1.000000
vn -0.000000 0.000000 1.000000
vn -0.000000 0.000000 1.000000
vn -0.000000 0.000000 1.000000
vn 0.707107 0.707107 -0.000000
vn 0.707107 0.707107 -0.000000
vn 0.707107 0.707107 -0.000000
vn 0.707107 0.707107 -0.000000
vn 0.000000 -0.000000 -1.000000
vn 0.000000 -0.000000 -1.000000
vn 0.000000 -0.000000 -1.000000
vn 0.000000 -0.000000 -1.000000
vn -0.707107 -0.707107 0.000000
vn -0.707107 -0.707107 0.000000
vn -0.707107 -0.707107 0.000000
vn -0.707107 -0.707107 0.000000
usemtl Opaque(202,209,238)
f 26/1/1 1/2/2 25/3/3
f 25/3/3 1/2/2 2/4/4
f 25/3/3 2/4/4 24/5/5
f 24/5/5 2/4/4 3/6/6
f 24/5/5 3/6/6 23/7/7
f 23/7/7 3/6/6 4/8/8
f 23/7/7 4/8/8 22/9/9
f 22/9/9 4/8/8 5/10/10
f 22/9/9 5/10/10 21/11/11
f 21/11/11 5/10/10 6/12/12
f 21/11/11 6/12/12 20/13/13
f 20/13/13 6/12/12 7/14/14
f 20/13/13 7/14/14 19/15/15
f 19/15/15 7/14/14 8/16/16
f 19/15/15 8/16/16 18/17/17
f 18/17/17 8/16/16 9/18/18
f 18/17/17 9/18/18 17/19/19
f 17/19/19 9/18/18 10/20/20
f 17/19/19 10/20/20 16/21/21
f 16/21/21 10/20/20 11/22/22
f 16/21/21 11/22/22 15/23/23
f 15/23/23 11/22/22 12/24/24
f 15/23/23 12/24/24 14/25/25
f 14/25/25 12/24/24 13/26/26
f 42/27/27 27/28/28 41/29/29
f 41/29/29 27/28/28 28/30/30
f 41/29/29 28/30/30 40/31/31
f 40/31/31 28/30/30 29/32/32
f 40/31/31 29/32/32 39/33/33
f 39/33/33 29/32/32 30/34/34
f 39/33/33 30/34/34 38/35/35
f 38/35/35 30/34/34 31/36/36
f 38/35/35 31/36/36 37/37/37
f 37/37/37 31/36/36 32/38/38
f 37/37/37 32/38/38 36/39/39
f 36/39/39 32/38/38 33/40/40
f 36/39/39 33/40/40 35/41/41
f 35/41/41 33/40/40 34/42/42
f 68/43/43 43/44/44 67/45/45
f 67/45/45 43/44/44 44/46/46
f 67/45/45 44/46/46 66/47/47
f 66/47/47 44/46/46 45/48/48
f 66/47/47 45/48/48 65/49/49
f 65/49/49 45/48/48 46/50/50
f 65/49/49 46/50/50 64/51/51
f 64/51/51 46/50/50 47/52/52
f 64/51/51 47/52/52 63/53/53
f 63/53/53 47/52/52 48/54/54
f 63/53/53 48/54/54 62/55/55
f 62/55/55 48/54/54 49/56/56
f 62/55/55 49/56/56 61/57/57
f 61/57/57 49/56/56 50/58/58
f 61/57/57 50/58/58 60/59/59
f 60/59/59 50/58/58 51/60/60
f 60/59/59 51/60/60 59/61/61
f 59/61/61 51/60/60 52/62/62
f 59/61/61 52/62/62 58/63/63
f 58/63/63 52/62/62 53/64/64
f 58/63/63 53/64/64 57/65/65
f 57/65/65 53/64/64 54/66/66
f 57/65/65 54/66/66 56/67/67
f 56/67/67 54/66/66 55/68/68
f 84/69/69 69/70/70 83/71/71
f 83/71/71 69/70/70 70/72/72
f 83/71/71 70/72/72 82/73/73
f 82/73/73 70/72/72 71/74/74
f 82/73/73 71/74/74 81/75/75
f 81/75/75 71/74/74 72/76/76
f 81/75/75 72/76/76 80/77/77
f 80/77/77 72/76/76 73/78/78
f 80/77/77 73/78/78 79/79/79
f 79/79/79 73/78/78 74/80/80
f 79/79/79 74/80/80 78/81/81
f 78/81/81 74/80/80 75/82/82
f 78/81/81 75/82/82 77/83/83
f 77/83/83 75/82/82 76/84/84
f 86/85/85 87/86/86 85/87/87
f 85/87/87 87/86/86 88/88/88
f 89/89/89 90/90/90 27/91/91
f 27/91/91 90/90/90 13/92/92
f 27/91/91 13/92/92 12/93/93
f 27/91/91 12/93/93 28/94/94
f 28/94/94 12/93/93 11/95/95
f 28/94/94 11/95/95 10/96/96
f 10/96/96 9/97/97 28/94/94
f 28/94/94 9/97/97 29/98/98
f 29/98/98 9/97/97 8/99/99
f 29/98/98 8/99/99 7/100/100
f 29/98/98 7/100/100 30/101/101
f 30/101/101 7/100/100 6/102/102
f 30/101/101 6/102/102 5/103/103
f 30/101/101 5/103/103 31/104/104
f 31/104/104 5/103/103 4/105/105
f 31/104/104 4/105/105 32/106/106
f 32/106/106 4/105/105 3/107/107
f 32/106/106 3/107/107 33/108/108
f 33/108/108 3/107/107 2/109/109
f 33/108/108 2/109/109 1/110/110
f 33/108/108 1/110/110 34/111/111
f 34/111/111 1/110/110 76/112/112
f 34/111/111 76/112/112 43/113/113
f 43/113/113 76/112/112 75/114/114
f 43/113/113 75/114/114 44/115/115
f 44/115/115 75/114/114 45/116/116
f 45/116/116 75/114/114 74/117/117
f 45/116/116 74/117/117 46/118/118
f 46/118/118 74/117/117 73/119/119
f 46/118/118 73/119/119 47/120/120
f 47/120/120 73/119/119 72/121/121
f 47/120/120 72/121/121 48/122/122
f 48/122/122 72/121/121 49/123/123
f 49/123/123 72/121/121 71/124/124
f 49/123/123 71/124/124 50/125/125
f 50/125/125 71/124/124 51/126/126
f 51/126/126 71/124/124 70/127/127
f 51/126/126 70/127/127 52/128/128
f 52/128/128 70/127/127 53/129/129
f 53/129/129 70/127/127 54/130/130
f 54/130/130 70/127/127 69/131/131
f 54/130/130 69/131/131 55/132/132
f 55/132/132 69/131/131 91/133/133
f 55/132/132 91/133/133 92/134/134
f 94/135/135 95/136/136 93/137/137
f 93/137/137 95/136/136 96/138/138
f 84/139/139 97/140/140 69/141/70
f 69/141/70 97/140/140 91/142/141
f 97/143/142 98/144/143 91/145/144
f 91/145/144 98/144/143 92/146/145
f 56/147/67 55/148/68 98/149/146
f 98/149/146 55/148/68 92/150/147
f 35/151/148 34/152/42 68/153/43
f 68/153/43 34/152/42 43/154/44
f 95/155/149 88/156/150 96/157/151
f 96/157/151 88/156/150 87/158/152
f 77/159/153 76/160/84 26/161/1
f 26/161/1 76/160/84 1/162/2
f 100/163/154 42/164/155 99/165/156
f 99/165/156 42/164/155 14/166/157
f 14/166/157 42/164/155 15/167/158
f 15/167/158 42/164/155 41/168/159
f 15/167/158 41/168/159 16/169/160
f 16/169/160 41/168/159 17/170/161
f 17/170/161 41/168/159 18/171/162
f 18/171/162 41/168/159 40/172/163
f 18/171/162 40/172/163 19/173/164
f 19/173/164 40/172/163 20/174/165
f 20/174/165 40/172/163 39/175/166
f 20/174/165 39/175/166 21/176/167
f 21/176/167 39/175/166 22/177/168
f 22/177/168 39/175/166 38/178/169
f 22/177/168 38/178/169 23/179/170
f 23/179/170 38/178/169 37/180/171
f 23/179/170 37/180/171 24/181/172
f 24/181/172 37/180/171 36/182/173
f 24/181/172 36/182/173 25/183/174
f 25/183/174 36/182/173 26/184/175
f 26/184/175 36/182/173 35/185/176
f 26/184/175 35/185/176 77/186/177
f 77/186/177 35/185/176 68/187/178
f 77/186/177 68/187/178 78/188/179
f 78/188/179 68/187/178 67/189/180
f 78/188/179 67/189/180 66/190/181
f 78/188/179 66/190/181 79/191/182
f 79/191/182 66/190/181 65/192/183
f 79/191/182 65/192/183 80/193/184
f 80/193/184 65/192/183 64/194/185
f 80/193/184 64/194/185 81/195/186
f 81/195/186 64/194/185 63/196/187
f 81/195/186 63/196/187 62/197/188
f 81/195/186 62/197/188 82/198/189
f 82/198/189 62/197/188 61/199/190
f 82/198/189 61/199/190 60/200/191
f 82/198/189 60/200/191 83/201/192
f 83/201/192 60/200/191 59/202/193
f 83/201/192 59/202/193 58/203/194
f 58/203/194 57/204/195 83/201/192
f 83/201/192 57/204/195 84/205/196
f 84/205/196 57/204/195 56/206/197
f 84/205/196 56/206/197 97/207/198
f 97/207/198 56/206/197 98/208/199
f 100/209/200 99/210/201 102/211/202
f 102/211/202 99/210/201 101/212/203
f 103/213/204 104/214/205 86/215/206
f 86/215/206 104/214/205 89/216/207
f 86/215/206 89/216/207 93/217/208
f 93/217/208 89/216/207 100/218/209
f 93/217/208 100/218/209 105/219/210
f 105/219/210 100/218/209 102/220/211
f 89/216/207 27/221/28 100/218/209
f 100/218/209 27/221/28 42/222/27
f 93/217/208 96/223/212 86/215/206
f 86/215/206 96/223/212 87/224/213
f 106/225/214 101/226/215 94/227/216
f 94/227/216 101/226/215 99/228/217
f 94/227/216 99/228/217 85/229/218
f 85/229/218 99/228/217 90/230/219
f 85/229/218 90/230/219 108/231/220
f 108/231/220 90/230/219 107/232/221
f 99/228/217 14/233/25 90/230/219
f 90/230/219 14/233/25 13/234/26
f 85/229/218 88/235/222 94/227/216
f 94/227/216 88/235/222 95/236/223
f 93/237/224 105/238/225 94/239/226
f 94/239/226 105/238/225 106/240/227
f 85/241/228 108/242/229 86/243/230
f 86/243/230 108/242/229 103/244/231
f 108/245/232 107/246/233 103/247/234
f 103/247/234 107/246/233 104/248/235
f 90/249/236 89/250/237 107/251/238
f 107/251/238 89/250/237 104/252/239
f 101/253/240 106/254/241 102/255/242
f 102/255/242 106/254/241 105/256/243
# 108 vertices
# 256 texture params
# 243 normals
# 212 facets

# 1 groups
