# WaveFront *.obj file (generated by Autodesk ATF)

mtllib body107_visual.mtl

g Body107

v 64.437683 -63.551615 93.775402
v 64.272095 -63.717203 93.775402
v 64.272095 -63.717203 93.769402
v 64.437683 -63.551615 93.769402
v 64.272095 -63.717203 93.777402
v 64.437683 -63.551615 93.777402
v 64.437683 -63.551615 93.783402
v 64.272095 -63.717203 93.783402
v 64.272095 -63.717203 93.785402
v 64.437683 -63.551615 93.785402
v 64.437683 -63.551615 93.791402
v 64.272095 -63.717203 93.791402
v 64.437683 -63.551615 93.767402
v 64.272095 -63.717203 93.767402
v 64.272095 -63.717203 93.383326
v 64.437683 -63.551615 93.383326
v 64.378346 -63.610952 93.703962
v 64.301856 -63.687442 93.718295
v 64.301856 -63.687442 93.731847
v 64.407922 -63.581376 93.712045
v 64.407922 -63.581376 93.710122
v 64.320894 -63.668405 93.648193
v 64.407922 -63.581376 93.586414
v 64.407922 -63.581376 93.584461
v 64.301856 -63.687442 93.564539
v 64.301856 -63.687442 93.578061
v 64.378176 -63.611122 93.592424
v 64.301856 -63.687442 93.646571
v 64.301856 -63.687442 93.649605
v 64.397043 -63.592255 93.468085
v 64.397043 -63.592255 93.537616
v 64.407922 -63.581376 93.537616
v 64.407922 -63.581376 93.445309
v 64.299136 -63.690162 93.524155
v 64.303662 -63.685636 93.535783
v 64.272095 -63.717203 93.793402
v 64.437683 -63.551615 93.793402
v 64.437683 -63.551615 93.797501
v 64.272095 -63.717203 93.797501
v 64.326605 -63.500059 93.362914
v 64.326605 -63.500059 93.366726
v 64.337167 -63.510621 93.365410
v 64.336930 -63.510384 93.358473
v 64.335397 -63.508851 93.351882
v 64.332642 -63.506096 93.346140
v 64.328877 -63.502331 93.341691
v 64.324393 -63.497847 93.338876
v 64.319534 -63.492988 93.337914
v 64.272158 -63.445612 93.337914
v 64.267582 -63.441036 93.338765
v 64.263319 -63.436773 93.341263
v 64.259658 -63.433112 93.345236
v 64.256848 -63.430302 93.350414
v 64.255082 -63.428536 93.356443
v 64.254480 -63.427934 93.362914
v 64.254480 -63.427934 93.457914
v 64.265086 -63.438540 93.457914
v 64.265086 -63.438540 93.362914
v 64.265625 -63.439079 93.359087
v 64.267158 -63.440612 93.355842
v 64.269452 -63.442906 93.353675
v 64.272158 -63.445612 93.352914
v 64.319534 -63.492988 93.352914
v 64.322240 -63.495694 93.353675
v 64.324534 -63.497988 93.355842
v 64.326067 -63.499521 93.359087
v 64.231101 -63.616687 93.365410
v 64.220539 -63.606125 93.366726
v 64.220539 -63.606125 93.362914
v 64.220001 -63.605587 93.359087
v 64.218468 -63.604054 93.355842
v 64.216174 -63.601760 93.353675
v 64.213468 -63.599054 93.352914
v 64.166092 -63.551678 93.352914
v 64.163386 -63.548972 93.353675
v 64.161092 -63.546678 93.355842
v 64.159559 -63.545145 93.359087
v 64.159020 -63.544606 93.362914
v 64.159020 -63.544606 93.457914
v 64.148414 -63.534000 93.457914
v 64.148414 -63.534000 93.362914
v 64.149016 -63.534602 93.356443
v 64.150782 -63.536368 93.350414
v 64.153592 -63.539178 93.345236
v 64.157253 -63.542839 93.341263
v 64.161516 -63.547102 93.338765
v 64.166092 -63.551678 93.337914
v 64.213468 -63.599054 93.337914
v 64.218327 -63.603913 93.338876
v 64.222811 -63.608397 93.341691
v 64.226576 -63.612162 93.346140
v 64.229331 -63.614917 93.351882
v 64.230864 -63.616450 93.358473
v 64.273034 -63.552554 93.359087
v 64.271501 -63.551021 93.355842
v 64.269207 -63.548727 93.353675
v 64.216419 -63.495939 93.353675
v 64.214125 -63.493645 93.355842
v 64.212592 -63.492112 93.359087
v 64.213468 -63.599054 93.842914
v 64.218327 -63.603913 93.841951
v 64.222811 -63.608397 93.839136
v 64.226576 -63.612162 93.834687
v 64.229331 -63.614917 93.828945
v 64.230864 -63.616450 93.822354
v 64.231101 -63.616687 93.815417
v 64.337167 -63.510621 93.815417
v 64.336930 -63.510384 93.822354
v 64.335397 -63.508851 93.828945
v 64.332642 -63.506096 93.834687
v 64.328877 -63.502331 93.839136
v 64.324393 -63.497847 93.841951
v 64.319534 -63.492988 93.842914
v 64.326605 -63.500059 93.817914
v 64.326605 -63.500059 93.814101
v 64.220539 -63.606125 93.814101
v 64.220539 -63.606125 93.817914
v 64.326067 -63.499521 93.821740
v 64.324534 -63.497988 93.824985
v 64.322240 -63.495694 93.827152
v 64.319534 -63.492988 93.827914
v 64.272158 -63.445612 93.827914
v 64.269452 -63.442906 93.827152
v 64.267158 -63.440612 93.824985
v 64.265625 -63.439079 93.821740
v 64.265086 -63.438540 93.817914
v 64.265086 -63.438540 93.722914
v 64.254480 -63.427934 93.722914
v 64.254480 -63.427934 93.817914
v 64.255082 -63.428536 93.824384
v 64.256848 -63.430302 93.830414
v 64.259658 -63.433112 93.835591
v 64.263319 -63.436773 93.839564
v 64.267582 -63.441036 93.842062
v 64.272158 -63.445612 93.842914
v 64.166092 -63.551678 93.842914
v 64.161516 -63.547102 93.842062
v 64.157253 -63.542839 93.839564
v 64.153592 -63.539178 93.835591
v 64.150782 -63.536368 93.830414
v 64.149016 -63.534602 93.824384
v 64.148414 -63.534000 93.817914
v 64.148414 -63.534000 93.722914
v 64.159020 -63.544606 93.722914
v 64.159020 -63.544606 93.817914
v 64.159559 -63.545145 93.821740
v 64.161092 -63.546678 93.824985
v 64.163386 -63.548972 93.827152
v 64.166092 -63.551678 93.827914
v 64.213468 -63.599054 93.827914
v 64.216174 -63.601760 93.827152
v 64.218468 -63.604054 93.824985
v 64.220001 -63.605587 93.821740
v 64.216419 -63.495939 93.827152
v 64.214125 -63.493645 93.824985
v 64.212592 -63.492112 93.821740
v 64.273034 -63.552554 93.821740
v 64.271501 -63.551021 93.824985
v 64.269207 -63.548727 93.827152
v 64.440611 -63.544444 93.775402
v 64.440288 -63.547068 93.775402
v 64.439288 -63.549516 93.775402
v 64.439288 -63.549516 93.769402
v 64.440288 -63.547068 93.769402
v 64.440611 -63.544444 93.769402
v 64.440611 -63.544444 93.767402
v 64.440288 -63.547068 93.767402
v 64.439288 -63.549516 93.767402
v 64.439765 -63.548572 93.379701
v 64.440602 -63.544981 93.376570
v 64.440081 -63.541330 93.374357
v 64.438272 -63.538117 93.373364
v 64.438272 -63.538117 93.807463
v 64.440081 -63.541330 93.806470
v 64.440602 -63.544981 93.804257
v 64.439765 -63.548572 93.801126
v 64.439288 -63.549516 93.793402
v 64.440288 -63.547068 93.793402
v 64.440611 -63.544444 93.793402
v 64.440611 -63.544444 93.791402
v 64.440288 -63.547068 93.791402
v 64.439288 -63.549516 93.791402
v 64.439288 -63.549516 93.785402
v 64.440288 -63.547068 93.785402
v 64.440611 -63.544444 93.785402
v 64.440611 -63.544444 93.783402
v 64.440288 -63.547068 93.783402
v 64.439288 -63.549516 93.783402
v 64.439288 -63.549516 93.777402
v 64.440288 -63.547068 93.777402
v 64.440611 -63.544444 93.777402
v 64.440602 -63.544981 93.735113
v 64.440602 -63.544981 93.662763
v 64.440602 -63.544981 93.590414
v 64.440602 -63.544981 93.518064
v 64.440602 -63.544981 93.445714
v 64.440081 -63.541330 93.445714
v 64.440081 -63.541330 93.518064
v 64.440081 -63.541330 93.590414
v 64.440081 -63.541330 93.662763
v 64.440081 -63.541330 93.735113
v 64.439765 -63.548572 93.735113
v 64.439765 -63.548572 93.662763
v 64.439765 -63.548572 93.590414
v 64.439765 -63.548572 93.518064
v 64.439765 -63.548572 93.445714
v 64.258597 -63.717792 93.807463
v 64.261810 -63.719601 93.806470
v 64.265461 -63.720122 93.804257
v 64.269052 -63.719285 93.801126
v 64.306027 -63.675384 93.806470
v 64.350945 -63.630465 93.806470
v 64.395864 -63.585547 93.806470
v 64.308112 -63.677470 93.804257
v 64.353031 -63.632551 93.804257
v 64.397950 -63.587632 93.804257
v 64.309489 -63.678847 93.801126
v 64.354408 -63.633928 93.801126
v 64.399327 -63.589009 93.801126
v 64.269052 -63.719285 93.379701
v 64.265461 -63.720122 93.376570
v 64.261810 -63.719601 93.374357
v 64.258597 -63.717792 93.373364
v 64.309489 -63.678847 93.379701
v 64.354408 -63.633928 93.379701
v 64.399327 -63.589009 93.379701
v 64.308112 -63.677470 93.376570
v 64.353031 -63.632551 93.376570
v 64.397950 -63.587632 93.376570
v 64.306027 -63.675384 93.374357
v 64.350945 -63.630465 93.374357
v 64.395864 -63.585547 93.374357
v 64.269995 -63.718808 93.775402
v 64.267548 -63.719808 93.775402
v 64.264924 -63.720131 93.775402
v 64.264924 -63.720131 93.777402
v 64.267548 -63.719808 93.777402
v 64.269995 -63.718808 93.777402
v 64.269995 -63.718808 93.783402
v 64.267548 -63.719808 93.783402
v 64.264924 -63.720131 93.783402
v 64.264924 -63.720131 93.785402
v 64.267548 -63.719808 93.785402
v 64.269995 -63.718808 93.785402
v 64.269995 -63.718808 93.791402
v 64.267548 -63.719808 93.791402
v 64.264924 -63.720131 93.791402
v 64.264924 -63.720131 93.793402
v 64.267548 -63.719808 93.793402
v 64.269995 -63.718808 93.793402
v 64.269995 -63.718808 93.767402
v 64.267548 -63.719808 93.767402
v 64.264924 -63.720131 93.767402
v 64.264924 -63.720131 93.769402
v 64.267548 -63.719808 93.769402
v 64.269995 -63.718808 93.769402
v 64.261810 -63.719601 93.735113
v 64.261810 -63.719601 93.662763
v 64.261810 -63.719601 93.590414
v 64.261810 -63.719601 93.518064
v 64.261810 -63.719601 93.445714
v 64.265461 -63.720122 93.445714
v 64.265461 -63.720122 93.518064
v 64.265461 -63.720122 93.590414
v 64.265461 -63.720122 93.662763
v 64.265461 -63.720122 93.735113
v 64.269052 -63.719285 93.445714
v 64.269052 -63.719285 93.518064
v 64.269052 -63.719285 93.590414
v 64.269052 -63.719285 93.662763
v 64.269052 -63.719285 93.735113
v 64.379638 -63.468239 93.815414
v 64.379638 -63.468239 93.365414
v 64.308892 -63.408877 93.373462
v 64.308892 -63.408877 93.485055
v 64.293513 -63.395972 93.490414
v 64.293513 -63.395972 93.690414
v 64.308892 -63.408877 93.695772
v 64.308892 -63.408877 93.807365
v 64.188719 -63.659158 93.815414
v 64.129357 -63.588413 93.695772
v 64.129357 -63.588413 93.807365
v 64.116452 -63.573033 93.690414
v 64.116452 -63.573033 93.490414
v 64.129357 -63.588413 93.485055
v 64.129357 -63.588413 93.373462
v 64.188719 -63.659158 93.365414
v 64.299735 -63.685321 93.718295
v 64.299735 -63.685321 93.731847
v 64.405801 -63.579255 93.712045
v 64.405801 -63.579255 93.710122
v 64.318772 -63.666283 93.648193
v 64.405801 -63.579255 93.586414
v 64.405801 -63.579255 93.584461
v 64.299735 -63.685321 93.564539
v 64.299735 -63.685321 93.578061
v 64.376055 -63.609001 93.592424
v 64.299735 -63.685321 93.646571
v 64.299735 -63.685321 93.649605
v 64.376225 -63.608831 93.703962
v 64.394922 -63.590133 93.537616
v 64.405801 -63.579255 93.537616
v 64.405801 -63.579255 93.445309
v 64.297015 -63.688040 93.524155
v 64.301541 -63.683515 93.535783
v 64.394922 -63.590133 93.468085
vt 0.031262 0.017912 0.000000
vt 0.037262 0.017912 0.000000
vt 0.031262 0.252088 0.000000
vt 0.037262 0.252088 0.000000
vt 0.029262 0.252088 0.000000
vt 0.023262 0.252088 0.000000
vt 0.029262 0.017912 0.000000
vt 0.023262 0.017912 0.000000
vt 0.021262 0.252088 0.000000
vt 0.015262 0.252088 0.000000
vt 0.021262 0.017912 0.000000
vt 0.015262 0.017912 0.000000
vt 0.039262 0.017912 0.000000
vt 0.074818 0.060000 0.000000
vt 0.039262 0.252088 0.000000
vt 0.094619 0.210000 0.000000
vt 0.096542 0.210000 0.000000
vt 0.423339 0.017912 0.000000
vt 0.282510 0.056154 0.000000
vt 0.228604 0.060000 0.000000
vt 0.160094 0.060000 0.000000
vt 0.214241 0.167933 0.000000
vt 0.361356 0.210000 0.000000
vt 0.423339 0.252088 0.000000
vt 0.269048 0.210000 0.000000
vt 0.222203 0.210000 0.000000
vt 0.269048 0.194615 0.000000
vt 0.242125 0.060000 0.000000
vt 0.270881 0.062554 0.000000
vt 0.220250 0.210000 0.000000
vt 0.158471 0.086923 0.000000
vt 0.102702 0.168173 0.000000
vt 0.088369 0.060000 0.000000
vt 0.157059 0.060000 0.000000
vt 0.338580 0.194615 0.000000
vt 0.013262 0.252088 0.000000
vt 0.009163 0.252088 0.000000
vt 0.013262 0.017912 0.000000
vt 0.009163 0.017912 0.000000
vt -0.003812 -0.010000 0.000000
vt -0.002497 -0.024938 0.000000
vt 0.000000 -0.010000 0.000000
vt 0.004440 -0.024603 0.000000
vt 0.003827 -0.009239 0.000000
vt 0.011032 -0.022434 0.000000
vt 0.016773 -0.018538 0.000000
vt 0.007071 -0.007071 0.000000
vt 0.021222 -0.013214 0.000000
vt 0.009239 -0.003827 0.000000
vt 0.024037 -0.006872 0.000000
vt 0.010000 0.000000 0.000000
vt 0.025000 0.000000 0.000000
vt 0.010000 0.067000 0.000000
vt 0.025000 0.067000 0.000000
vt 0.024148 0.073470 0.000000
vt 0.009239 0.070827 0.000000
vt 0.021651 0.079500 0.000000
vt 0.007071 0.074071 0.000000
vt 0.017678 0.084678 0.000000
vt 0.012500 0.088651 0.000000
vt 0.003827 0.076239 0.000000
vt 0.006470 0.091148 0.000000
vt -0.000000 0.077000 0.000000
vt -0.000000 0.092000 0.000000
vt -0.095000 0.077000 0.000000
vt -0.095000 0.092000 0.000000
vt 0.003812 -0.010000 0.000000
vt -0.000000 -0.010000 0.000000
vt 0.002497 -0.024938 0.000000
vt -0.004440 -0.024603 0.000000
vt -0.003827 -0.009239 0.000000
vt -0.011032 -0.022434 0.000000
vt -0.016773 -0.018538 0.000000
vt -0.007071 -0.007071 0.000000
vt -0.021222 -0.013214 0.000000
vt -0.009239 -0.003827 0.000000
vt -0.024037 -0.006872 0.000000
vt -0.010000 0.000000 0.000000
vt -0.025000 0.000000 0.000000
vt -0.025000 0.067000 0.000000
vt -0.010000 0.067000 0.000000
vt -0.024148 0.073470 0.000000
vt -0.009239 0.070827 0.000000
vt -0.021651 0.079500 0.000000
vt -0.007071 0.074071 0.000000
vt -0.017678 0.084678 0.000000
vt -0.012500 0.088651 0.000000
vt -0.003827 0.076239 0.000000
vt -0.006470 0.091148 0.000000
vt 0.000000 0.077000 0.000000
vt 0.000000 0.092000 0.000000
vt 0.095000 0.077000 0.000000
vt 0.095000 0.092000 0.000000
vt 0.000000 0.015708 0.000000
vt 0.150000 0.015708 0.000000
vt 0.075000 0.019635 0.000000
vt 0.150000 0.019635 0.000000
vt 0.075000 0.023562 0.000000
vt 0.150000 0.023562 0.000000
vt 0.075000 0.027489 0.000000
vt 0.150000 0.027489 0.000000
vt 0.150000 0.031416 0.000000
vt 0.000000 0.031416 0.000000
vt 0.000000 0.027489 0.000000
vt -0.000000 0.023562 0.000000
vt 0.000000 0.019635 0.000000
vt 0.067000 0.150000 0.000000
vt -0.000000 0.150000 0.000000
vt 0.067000 -0.000000 0.000000
vt 0.000000 0.000000 0.000000
vt 0.000000 -0.031416 0.000000
vt 0.150000 -0.031416 0.000000
vt 0.075000 -0.027489 0.000000
vt 0.150000 -0.027489 0.000000
vt 0.075000 -0.023562 0.000000
vt 0.150000 -0.023562 0.000000
vt 0.075000 -0.019635 0.000000
vt 0.150000 -0.019635 0.000000
vt 0.150000 -0.015708 0.000000
vt -0.000000 -0.015708 0.000000
vt -0.000000 -0.019635 0.000000
vt 0.000000 -0.023562 0.000000
vt -0.000000 -0.027489 0.000000
vt 0.095000 0.150000 0.000000
vt -0.000000 0.150000 0.000000
vt 0.095000 0.000000 0.000000
vt 0.000000 0.000000 0.000000
vt 0.015000 0.150000 0.000000
vt 0.000000 0.150000 0.000000
vt 0.015000 0.000000 0.000000
vt 0.000000 0.000000 0.000000
vt 0.095000 0.150000 0.000000
vt 0.000000 0.150000 0.000000
vt 0.095000 -0.000000 0.000000
vt 0.000000 0.000000 0.000000
vt 0.000000 -0.039270 0.000000
vt -0.150000 -0.039270 0.000000
vt 0.000000 -0.045815 0.000000
vt -0.150000 -0.045815 0.000000
vt -0.000000 -0.052360 0.000000
vt -0.150000 -0.052360 0.000000
vt 0.000000 -0.058905 0.000000
vt -0.150000 -0.058905 0.000000
vt 0.000000 -0.065450 0.000000
vt -0.150000 -0.065450 0.000000
vt 0.000000 -0.071995 0.000000
vt -0.150000 -0.071995 0.000000
vt -0.000000 -0.078540 0.000000
vt -0.150000 -0.078540 0.000000
vt 0.067000 0.150000 0.000000
vt -0.000000 0.150000 0.000000
vt 0.067000 0.000000 0.000000
vt 0.000000 0.000000 0.000000
vt -0.000000 -0.078540 0.000000
vt -0.150000 -0.078540 0.000000
vt -0.000000 -0.085501 0.000000
vt -0.150000 -0.085501 0.000000
vt -0.000000 -0.092462 0.000000
vt -0.150000 -0.092462 0.000000
vt -0.000000 -0.099423 0.000000
vt -0.150000 -0.099423 0.000000
vt -0.000000 -0.106385 0.000000
vt -0.150000 -0.106385 0.000000
vt -0.000000 -0.113346 0.000000
vt -0.150000 -0.113346 0.000000
vt -0.000000 -0.120304 0.000000
vt -0.150000 -0.120304 0.000000
vt 0.000000 0.003812 0.000000
vt -0.150000 0.003812 0.000000
vt 0.000000 0.000000 0.000000
vt -0.150000 0.000000 0.000000
vt -0.000000 -0.078540 0.000000
vt -0.150000 -0.078540 0.000000
vt 0.000000 -0.085501 0.000000
vt -0.150000 -0.085501 0.000000
vt 0.000000 -0.092462 0.000000
vt -0.150000 -0.092462 0.000000
vt -0.000000 -0.099423 0.000000
vt -0.150000 -0.099423 0.000000
vt -0.000000 -0.106385 0.000000
vt -0.150000 -0.106385 0.000000
vt -0.000000 -0.113346 0.000000
vt -0.150000 -0.113346 0.000000
vt 0.000000 -0.120304 0.000000
vt -0.150000 -0.120304 0.000000
vt 0.000000 0.000000 0.000000
vt -0.003812 0.000000 0.000000
vt -0.000000 -0.150000 0.000000
vt -0.003812 -0.150000 0.000000
vt 0.010000 0.003812 0.000000
vt 0.010000 0.000000 0.000000
vt 0.024938 0.002497 0.000000
vt 0.024603 -0.004440 0.000000
vt 0.009239 -0.003827 0.000000
vt 0.022434 -0.011032 0.000000
vt 0.018538 -0.016773 0.000000
vt 0.007071 -0.007071 0.000000
vt 0.013214 -0.021222 0.000000
vt 0.003827 -0.009239 0.000000
vt 0.006872 -0.024037 0.000000
vt 0.000000 -0.010000 0.000000
vt 0.000000 -0.025000 0.000000
vt -0.067000 -0.010000 0.000000
vt -0.067000 -0.025000 0.000000
vt -0.073470 -0.024148 0.000000
vt -0.070827 -0.009239 0.000000
vt -0.079500 -0.021651 0.000000
vt -0.074071 -0.007071 0.000000
vt -0.084678 -0.017678 0.000000
vt -0.088651 -0.012500 0.000000
vt -0.076239 -0.003827 0.000000
vt -0.091148 -0.006470 0.000000
vt -0.077000 -0.000000 0.000000
vt -0.092000 -0.000000 0.000000
vt -0.092000 0.095000 0.000000
vt -0.077000 0.095000 0.000000
vt -0.010000 0.003812 0.000000
vt -0.024938 0.002497 0.000000
vt -0.010000 0.000000 0.000000
vt -0.024603 -0.004440 0.000000
vt -0.009239 -0.003827 0.000000
vt -0.022434 -0.011032 0.000000
vt -0.018538 -0.016773 0.000000
vt -0.007071 -0.007071 0.000000
vt -0.013214 -0.021222 0.000000
vt -0.003827 -0.009239 0.000000
vt -0.006872 -0.024037 0.000000
vt -0.000000 -0.010000 0.000000
vt -0.000000 -0.025000 0.000000
vt 0.067000 -0.010000 0.000000
vt 0.067000 -0.025000 0.000000
vt 0.073470 -0.024148 0.000000
vt 0.070827 -0.009239 0.000000
vt 0.079500 -0.021651 0.000000
vt 0.074071 -0.007071 0.000000
vt 0.084678 -0.017678 0.000000
vt 0.088651 -0.012500 0.000000
vt 0.076239 -0.003827 0.000000
vt 0.091148 -0.006470 0.000000
vt 0.077000 -0.000000 0.000000
vt 0.092000 -0.000000 0.000000
vt 0.077000 0.095000 0.000000
vt 0.092000 0.095000 0.000000
vt -0.067000 -0.150000 0.000000
vt 0.000000 -0.150000 0.000000
vt -0.067000 0.000000 0.000000
vt 0.000000 0.000000 0.000000
vt -0.000000 -0.039270 0.000000
vt -0.150000 -0.039270 0.000000
vt -0.000000 -0.045815 0.000000
vt -0.150000 -0.045815 0.000000
vt 0.000000 -0.052360 0.000000
vt -0.150000 -0.052360 0.000000
vt -0.000000 -0.058905 0.000000
vt -0.150000 -0.058905 0.000000
vt -0.000000 -0.065450 0.000000
vt -0.150000 -0.065450 0.000000
vt -0.000000 -0.071995 0.000000
vt -0.150000 -0.071995 0.000000
vt -0.000000 -0.078540 0.000000
vt -0.150000 -0.078540 0.000000
vt 0.150000 -0.000000 0.000000
vt 0.000000 0.000000 0.000000
vt 0.150000 -0.095000 0.000000
vt -0.000000 -0.095000 0.000000
vt -0.150000 -0.000000 0.000000
vt 0.000000 0.000000 0.000000
vt -0.150000 0.015000 0.000000
vt 0.000000 0.015000 0.000000
vt -0.095000 -0.150000 0.000000
vt 0.000000 -0.150000 0.000000
vt -0.095000 -0.000000 0.000000
vt 0.000000 0.000000 0.000000
vt 0.000000 -0.031416 0.000000
vt 0.150000 -0.031416 0.000000
vt 0.075000 -0.027489 0.000000
vt 0.150000 -0.027489 0.000000
vt 0.075000 -0.023562 0.000000
vt 0.150000 -0.023562 0.000000
vt 0.075000 -0.019635 0.000000
vt 0.150000 -0.019635 0.000000
vt 0.150000 -0.015708 0.000000
vt 0.000000 -0.015708 0.000000
vt 0.000000 -0.019635 0.000000
vt -0.000000 -0.023562 0.000000
vt 0.000000 -0.027489 0.000000
vt -0.150000 0.000000 0.000000
vt 0.000000 0.000000 0.000000
vt -0.150000 0.067000 0.000000
vt -0.000000 0.067000 0.000000
vt -0.000000 0.015708 0.000000
vt 0.150000 0.015708 0.000000
vt 0.075000 0.019635 0.000000
vt 0.150000 0.019635 0.000000
vt 0.075000 0.023562 0.000000
vt 0.150000 0.023562 0.000000
vt 0.075000 0.027489 0.000000
vt 0.150000 0.027489 0.000000
vt 0.150000 0.031416 0.000000
vt 0.000000 0.031416 0.000000
vt -0.000000 0.027489 0.000000
vt 0.000000 0.023562 0.000000
vt -0.000000 0.019635 0.000000
vt -0.031262 0.010405 0.000000
vt -0.037262 0.007754 0.000000
vt -0.031262 0.007754 0.000000
vt -0.000195 0.004581 0.000000
vt -0.029262 0.007754 0.000000
vt -0.023262 0.007754 0.000000
vt -0.023262 0.010405 0.000000
vt -0.037262 0.010405 0.000000
vt -0.031262 0.013057 0.000000
vt -0.037262 0.013057 0.000000
vt -0.037262 0.015708 0.000000
vt -0.031262 0.015708 0.000000
vt -0.071551 0.004581 0.000000
vt -0.039262 0.007754 0.000000
vt -0.071551 0.008290 0.000000
vt -0.039262 0.010405 0.000000
vt -0.071551 0.011999 0.000000
vt -0.039262 0.013057 0.000000
vt -0.143901 0.011999 0.000000
vt -0.423339 0.015708 0.000000
vt -0.216251 0.011999 0.000000
vt -0.288601 0.011999 0.000000
vt -0.216251 0.008290 0.000000
vt -0.288601 0.008290 0.000000
vt -0.216251 0.004581 0.000000
vt -0.288601 0.004581 0.000000
vt -0.433301 0.000873 0.000000
vt -0.360951 0.004581 0.000000
vt -0.432308 0.004581 0.000000
vt -0.430095 0.008290 0.000000
vt -0.360951 0.008290 0.000000
vt -0.426963 0.011999 0.000000
vt -0.360951 0.011999 0.000000
vt -0.039262 0.015708 0.000000
vt 0.000799 0.000873 0.000000
vt -0.143901 0.004581 0.000000
vt -0.143901 0.008290 0.000000
vt -0.002407 0.008290 0.000000
vt -0.013262 0.007754 0.000000
vt -0.015262 0.007754 0.000000
vt -0.021262 0.007754 0.000000
vt -0.015262 0.010405 0.000000
vt -0.021262 0.010405 0.000000
vt -0.015262 0.013057 0.000000
vt -0.021262 0.013057 0.000000
vt -0.021262 0.015708 0.000000
vt -0.015262 0.015708 0.000000
vt -0.013262 0.010405 0.000000
vt -0.005539 0.011999 0.000000
vt -0.013262 0.013057 0.000000
vt -0.009163 0.015708 0.000000
vt -0.013262 0.015708 0.000000
vt -0.029262 0.010405 0.000000
vt -0.023262 0.013057 0.000000
vt -0.029262 0.013057 0.000000
vt -0.029262 0.015708 0.000000
vt -0.023262 0.015708 0.000000
vt -0.008943 0.004581 0.000000
vt -0.071475 0.004581 0.000000
vt -0.007950 0.000873 0.000000
vt -0.135000 0.004581 0.000000
vt -0.262050 0.000873 0.000000
vt -0.198525 0.004581 0.000000
vt -0.261057 0.004581 0.000000
vt -0.258844 0.008290 0.000000
vt -0.198525 0.008290 0.000000
vt -0.255712 0.011999 0.000000
vt -0.198525 0.011999 0.000000
vt -0.252088 0.015708 0.000000
vt -0.135000 0.011999 0.000000
vt -0.017912 0.015708 0.000000
vt -0.071475 0.011999 0.000000
vt -0.014288 0.011999 0.000000
vt -0.071475 0.008290 0.000000
vt -0.011156 0.008290 0.000000
vt -0.135000 0.008290 0.000000
vt -0.014288 0.019417 0.000000
vt -0.071475 0.019417 0.000000
vt -0.017912 0.015708 0.000000
vt -0.135000 0.019417 0.000000
vt -0.252088 0.015708 0.000000
vt -0.198525 0.019417 0.000000
vt -0.255712 0.019417 0.000000
vt -0.198525 0.023126 0.000000
vt -0.258844 0.023126 0.000000
vt -0.198525 0.026834 0.000000
vt -0.261057 0.026834 0.000000
vt -0.262050 0.030543 0.000000
vt -0.135000 0.026834 0.000000
vt -0.007950 0.030543 0.000000
vt -0.071475 0.026834 0.000000
vt -0.008943 0.026834 0.000000
vt -0.011156 0.023126 0.000000
vt -0.071475 0.023126 0.000000
vt -0.135000 0.023126 0.000000
vt 0.403989 0.015708 0.000000
vt 0.409989 0.015708 0.000000
vt 0.403989 0.018359 0.000000
vt 0.409989 0.018359 0.000000
vt 0.409989 0.021011 0.000000
vt 0.403989 0.021011 0.000000
vt 0.409989 0.023662 0.000000
vt 0.403989 0.023662 0.000000
vt 0.441057 0.026834 0.000000
vt 0.369700 0.026834 0.000000
vt 0.442050 0.030543 0.000000
vt 0.297350 0.026834 0.000000
vt 0.225000 0.026834 0.000000
vt 0.297350 0.023126 0.000000
vt 0.225000 0.023126 0.000000
vt 0.297350 0.019417 0.000000
vt 0.225000 0.019417 0.000000
vt 0.401989 0.015708 0.000000
vt 0.017912 0.015708 0.000000
vt 0.152650 0.019417 0.000000
vt 0.080300 0.019417 0.000000
vt 0.080300 0.023126 0.000000
vt 0.014288 0.019417 0.000000
vt 0.011156 0.023126 0.000000
vt 0.080300 0.026834 0.000000
vt 0.008943 0.026834 0.000000
vt 0.007950 0.030543 0.000000
vt 0.152650 0.026834 0.000000
vt 0.411989 0.023662 0.000000
vt 0.417989 0.023662 0.000000
vt 0.419989 0.023662 0.000000
vt 0.411989 0.021011 0.000000
vt 0.417989 0.021011 0.000000
vt 0.411989 0.018359 0.000000
vt 0.417989 0.018359 0.000000
vt 0.417989 0.015708 0.000000
vt 0.411989 0.015708 0.000000
vt 0.425989 0.023662 0.000000
vt 0.419989 0.021011 0.000000
vt 0.425989 0.021011 0.000000
vt 0.419989 0.018359 0.000000
vt 0.425989 0.018359 0.000000
vt 0.425989 0.015708 0.000000
vt 0.419989 0.015708 0.000000
vt 0.427989 0.023662 0.000000
vt 0.438844 0.023126 0.000000
vt 0.427989 0.021011 0.000000
vt 0.435712 0.019417 0.000000
vt 0.427989 0.018359 0.000000
vt 0.432088 0.015708 0.000000
vt 0.427989 0.015708 0.000000
vt 0.369700 0.019417 0.000000
vt 0.401989 0.018359 0.000000
vt 0.401989 0.021011 0.000000
vt 0.369700 0.023126 0.000000
vt 0.401989 0.023662 0.000000
vt 0.152650 0.023126 0.000000
vt 0.091219 -0.442050 0.000000
vt 0.091219 -0.007950 0.000000
vt 0.000000 -0.450000 0.000000
vt -0.000000 0.000000 0.000000
vt -0.441951 -0.020076 0.000000
vt -0.450000 -0.112428 0.000000
vt -0.330359 -0.020076 0.000000
vt 0.000000 -0.112428 0.000000
vt -0.119641 -0.020076 0.000000
vt -0.008049 -0.020076 0.000000
vt -0.125000 -0.000000 0.000000
vt -0.325000 -0.000000 0.000000
vt 0.000000 0.000000 0.000000
vt 0.007950 -0.091219 0.000000
vt 0.060000 0.000062 0.000000
vt 0.262050 -0.091219 0.000000
vt 0.210000 0.000062 0.000000
vt 0.270000 0.000000 0.000000
vt -0.261951 0.000000 0.000000
vt -0.008049 0.000000 0.000000
vt -0.261951 0.111592 0.000000
vt -0.008049 0.111592 0.000000
vt 0.020706 0.261951 0.000000
vt -0.000000 0.260201 0.000000
vt 0.020706 0.008049 0.000000
vt -0.000000 0.009799 0.000000
vt -0.260201 0.000000 0.000000
vt -0.009799 0.000000 0.000000
vt -0.260201 0.200000 0.000000
vt -0.009799 0.200000 0.000000
vt -0.261951 -0.000000 0.000000
vt -0.008049 -0.000000 0.000000
vt -0.260201 0.020706 0.000000
vt -0.009799 0.020706 0.000000
vt -0.261951 0.000000 0.000000
vt -0.008049 0.000000 0.000000
vt -0.261951 0.111592 0.000000
vt -0.008049 0.111592 0.000000
vt -0.270000 0.100382 0.000000
vt -0.262050 0.009163 0.000000
vt -0.210000 0.100444 0.000000
vt -0.007950 0.009163 0.000000
vt -0.060000 0.100444 0.000000
vt 0.000000 0.100382 0.000000
vt 0.008049 0.092351 0.000000
vt -0.000000 0.000000 0.000000
vt 0.119641 0.092351 0.000000
vt 0.450000 -0.000000 0.000000
vt 0.330359 0.092351 0.000000
vt 0.441951 0.092351 0.000000
vt 0.325000 0.112428 0.000000
vt 0.125000 0.112428 0.000000
vt -0.007950 -0.009163 0.000000
vt -0.442050 -0.009163 0.000000
vt -0.000000 -0.100382 0.000000
vt -0.450000 -0.100382 0.000000
vt 0.077294 0.210000 0.000000
vt 0.000000 0.008049 0.000000
vt 0.077294 0.060000 0.000000
vt 0.092351 0.000000 0.000000
vt 0.092290 0.060000 0.000000
vt 0.092290 0.210000 0.000000
vt 0.092351 0.270000 0.000000
vt 0.000000 0.261951 0.000000
vt -0.060000 0.015057 0.000000
vt -0.261951 0.092351 0.000000
vt -0.210000 0.015057 0.000000
vt -0.270000 0.000000 0.000000
vt -0.210000 0.000062 0.000000
vt -0.060000 0.000062 0.000000
vt 0.000000 0.000000 0.000000
vt -0.008049 0.092351 0.000000
vt 0.003000 0.000000 0.000000
vt 0.000000 0.000000 0.000000
vt 0.003000 -0.013552 0.000000
vt 0.000000 -0.013552 0.000000
vt 0.151301 0.003000 0.000000
vt 0.000000 0.003000 0.000000
vt 0.151301 0.000000 0.000000
vt 0.000000 0.000000 0.000000
vt -0.003000 0.000000 0.000000
vt 0.000000 0.000000 0.000000
vt -0.003000 0.001923 0.000000
vt 0.000000 0.001923 0.000000
vt 0.137779 0.003000 0.000000
vt 0.000000 0.003000 0.000000
vt 0.137779 -0.000000 0.000000
vt -0.000000 0.000000 0.000000
vt 0.137712 0.003000 0.000000
vt 0.000000 0.003000 0.000000
vt 0.137712 0.000000 0.000000
vt 0.000000 0.000000 0.000000
vt -0.003000 0.000000 0.000000
vt 0.000000 0.000000 0.000000
vt -0.003000 0.001953 0.000000
vt 0.000000 0.001953 0.000000
vt 0.151317 0.003000 0.000000
vt 0.000000 0.003000 0.000000
vt 0.151317 -0.000000 0.000000
vt -0.000000 0.000000 0.000000
vt 0.003000 0.000000 0.000000
vt 0.000000 0.000000 0.000000
vt 0.003000 -0.013522 0.000000
vt 0.000000 -0.013522 0.000000
vt 0.108884 0.003000 0.000000
vt 0.000000 0.003000 0.000000
vt 0.108884 0.000000 0.000000
vt 0.000000 0.000000 0.000000
vt 0.120753 0.003000 0.000000
vt -0.000000 0.003000 0.000000
vt 0.120753 -0.000000 0.000000
vt 0.000000 0.000000 0.000000
vt 0.003000 0.000000 0.000000
vt 0.000000 0.000000 0.000000
vt 0.003000 -0.003035 0.000000
vt 0.000000 -0.003035 0.000000
vt 0.121062 0.003000 0.000000
vt 0.000000 0.003000 0.000000
vt 0.121062 -0.000000 0.000000
vt 0.000000 0.000000 0.000000
vt 0.109119 0.003000 0.000000
vt -0.000000 0.003000 0.000000
vt 0.109119 0.000000 0.000000
vt 0.000000 0.000000 0.000000
vt 0.097118 0.035000 0.000000
vt 0.111451 0.143173 0.000000
vt 0.083566 0.035000 0.000000
vt 0.103368 0.185000 0.000000
vt 0.105291 0.185000 0.000000
vt 0.167220 0.061923 0.000000
vt 0.165808 0.035000 0.000000
vt 0.168843 0.035000 0.000000
vt 0.222990 0.142933 0.000000
vt 0.228999 0.185000 0.000000
vt 0.230952 0.185000 0.000000
vt 0.250874 0.035000 0.000000
vt 0.237353 0.035000 0.000000
vt 0.003000 -0.017912 0.000000
vt 0.002651 -0.015292 0.000000
vt 0.003000 -0.252088 0.000000
vt 0.002651 -0.254708 0.000000
vt 0.001627 -0.012855 0.000000
vt 0.001627 -0.257145 0.000000
vt 0.000000 -0.259229 0.000000
vt 0.000000 -0.010771 0.000000
vt -0.000000 -0.010771 0.000000
vt -0.001627 -0.012855 0.000000
vt -0.000000 -0.259229 0.000000
vt -0.001627 -0.257145 0.000000
vt -0.002651 -0.254708 0.000000
vt -0.002651 -0.015292 0.000000
vt -0.003000 -0.252088 0.000000
vt -0.003000 -0.017912 0.000000
vt 0.001000 -0.010771 0.000000
vt -0.001000 -0.010771 0.000000
vt 0.001000 -0.259229 0.000000
vt -0.001000 -0.259229 0.000000
vt -0.003000 0.000000 0.000000
vt 0.000000 0.000000 0.000000
vt -0.003000 0.015385 0.000000
vt -0.000000 0.015385 0.000000
vt -0.003000 0.000000 0.000000
vt 0.000000 0.000000 0.000000
vt -0.003000 0.092308 0.000000
vt 0.000000 0.092308 0.000000
vt 0.172874 0.003000 0.000000
vt 0.000000 0.003000 0.000000
vt 0.172874 -0.000000 0.000000
vt 0.000000 0.000000 0.000000
vt 0.013274 0.003000 0.000000
vt -0.000000 0.003000 0.000000
vt 0.013274 0.000000 0.000000
vt 0.000000 0.000000 0.000000
vt 0.148402 0.003000 0.000000
vt 0.000000 0.003000 0.000000
vt 0.148402 0.000000 0.000000
vt 0.000000 0.000000 0.000000
vt 0.003000 0.000000 0.000000
vt 0.000000 0.000000 0.000000
vt 0.003000 -0.069531 0.000000
vt 0.000000 -0.069531 0.000000
vt 0.277797 0.169615 0.000000
vt 0.347328 0.169615 0.000000
vt 0.277797 0.185000 0.000000
vt 0.370105 0.185000 0.000000
vt 0.291259 0.031154 0.000000
vt 0.279630 0.037554 0.000000
vt 0.003000 -0.017912 0.000000
vt 0.002651 -0.015292 0.000000
vt 0.003000 -0.252088 0.000000
vt 0.002651 -0.254708 0.000000
vt 0.001627 -0.012855 0.000000
vt 0.001627 -0.257145 0.000000
vt 0.000000 -0.259229 0.000000
vt 0.000000 -0.010771 0.000000
vt -0.000000 -0.010771 0.000000
vt -0.001627 -0.012855 0.000000
vt -0.000000 -0.259229 0.000000
vt -0.001627 -0.257145 0.000000
vt -0.002651 -0.254708 0.000000
vt -0.002651 -0.015292 0.000000
vt -0.003000 -0.252088 0.000000
vt -0.003000 -0.017912 0.000000
vt 0.001000 -0.010771 0.000000
vt -0.001000 -0.010771 0.000000
vt 0.001000 -0.259229 0.000000
vt -0.001000 -0.259229 0.000000
vt 0.003000 -0.017912 0.000000
vt 0.002651 -0.015292 0.000000
vt 0.003000 -0.252088 0.000000
vt 0.002651 -0.254708 0.000000
vt 0.001627 -0.012855 0.000000
vt 0.001627 -0.257145 0.000000
vt 0.000000 -0.259229 0.000000
vt 0.000000 -0.010771 0.000000
vt -0.000000 -0.010771 0.000000
vt -0.001627 -0.012855 0.000000
vt -0.000000 -0.259229 0.000000
vt -0.001627 -0.257145 0.000000
vt -0.002651 -0.254708 0.000000
vt -0.002651 -0.015292 0.000000
vt -0.003000 -0.252088 0.000000
vt -0.003000 -0.017912 0.000000
vt 0.001000 -0.010771 0.000000
vt -0.001000 -0.010771 0.000000
vt 0.001000 -0.259229 0.000000
vt -0.001000 -0.259229 0.000000
vt 0.003000 -0.017912 0.000000
vt 0.002651 -0.015292 0.000000
vt 0.003000 -0.252088 0.000000
vt 0.002651 -0.254708 0.000000
vt 0.001627 -0.012855 0.000000
vt 0.001627 -0.257145 0.000000
vt 0.000000 -0.259229 0.000000
vt 0.000000 -0.010771 0.000000
vt -0.000000 -0.010771 0.000000
vt -0.001627 -0.012855 0.000000
vt -0.000000 -0.259229 0.000000
vt -0.001627 -0.257145 0.000000
vt -0.002651 -0.254708 0.000000
vt -0.002651 -0.015292 0.000000
vt -0.003000 -0.252088 0.000000
vt -0.003000 -0.017912 0.000000
vt 0.001000 -0.010771 0.000000
vt -0.001000 -0.010771 0.000000
vt 0.001000 -0.259229 0.000000
vt -0.001000 -0.259229 0.000000
vn 0.707107 -0.707107 0.000000
vn 0.707107 -0.707107 0.000000
vn 0.707107 -0.707107 0.000000
vn 0.707107 -0.707107 0.000000
vn 0.707107 -0.707107 0.000000
vn 0.707107 -0.707107 0.000000
vn 0.707107 -0.707107 0.000000
vn 0.707107 -0.707107 0.000000
vn 0.707107 -0.707107 0.000000
vn 0.707107 -0.707107 0.000000
vn 0.707107 -0.707107 0.000000
vn 0.707107 -0.707107 0.000000
vn 0.707107 -0.707107 0.000000
vn 0.707107 -0.707107 0.000000
vn 0.707107 -0.707107 0.000000
vn 0.707107 -0.707107 0.000000
vn 0.707107 -0.707107 0.000000
vn 0.707107 -0.707107 0.000000
vn 0.707107 -0.707107 0.000000
vn 0.707107 -0.707107 0.000000
vn 0.707107 -0.707107 0.000000
vn 0.707107 -0.707107 0.000000
vn 0.707107 -0.707107 0.000000
vn 0.707107 -0.707107 0.000000
vn 0.707107 -0.707107 0.000000
vn 0.707107 -0.707107 0.000000
vn 0.707107 -0.707107 0.000000
vn 0.707107 -0.707107 0.000000
vn 0.707107 -0.707107 0.000000
vn 0.707107 -0.707107 0.000000
vn 0.707107 -0.707107 0.000000
vn 0.707107 -0.707107 0.000000
vn 0.707107 -0.707107 0.000000
vn 0.707107 -0.707107 0.000000
vn 0.707107 -0.707107 0.000000
vn 0.707107 -0.707107 0.000000
vn 0.707107 -0.707107 0.000000
vn 0.707107 -0.707107 0.000000
vn 0.707107 -0.707107 0.000000
vn 0.707107 0.707107 -0.000000
vn 0.707107 0.707107 -0.000000
vn 0.707107 0.707107 -0.000000
vn 0.707107 0.707107 -0.000000
vn 0.707107 0.707107 -0.000000
vn 0.707107 0.707107 -0.000000
vn 0.707107 0.707107 -0.000000
vn 0.707107 0.707107 -0.000000
vn 0.707107 0.707107 -0.000000
vn 0.707107 0.707107 -0.000000
vn 0.707107 0.707107 -0.000000
vn 0.707107 0.707107 -0.000000
vn 0.707107 0.707107 -0.000000
vn 0.707107 0.707107 -0.000000
vn 0.707107 0.707107 -0.000000
vn 0.707107 0.707107 -0.000000
vn 0.707107 0.707107 -0.000000
vn 0.707107 0.707107 -0.000000
vn 0.707107 0.707107 -0.000000
vn 0.707107 0.707107 -0.000000
vn 0.707107 0.707107 -0.000000
vn 0.707107 0.707107 -0.000000
vn 0.707107 0.707107 -0.000000
vn 0.707107 0.707107 -0.000000
vn 0.707107 0.707107 -0.000000
vn 0.707107 0.707107 -0.000000
vn 0.707107 0.707107 -0.000000
vn -0.707107 -0.707107 0.000000
vn -0.707107 -0.707107 0.000000
vn -0.707107 -0.707107 0.000000
vn -0.707107 -0.707107 0.000000
vn -0.707107 -0.707107 0.000000
vn -0.707107 -0.707107 0.000000
vn -0.707107 -0.707107 0.000000
vn -0.707107 -0.707107 0.000000
vn -0.707107 -0.707107 0.000000
vn -0.707107 -0.707107 0.000000
vn -0.707107 -0.707107 0.000000
vn -0.707107 -0.707107 0.000000
vn -0.707107 -0.707107 0.000000
vn -0.707107 -0.707107 0.000000
vn -0.707107 -0.707107 0.000000
vn -0.707107 -0.707107 0.000000
vn -0.707107 -0.707107 0.000000
vn -0.707107 -0.707107 0.000000
vn -0.707107 -0.707107 0.000000
vn -0.707107 -0.707107 0.000000
vn -0.707107 -0.707107 0.000000
vn -0.707107 -0.707107 0.000000
vn -0.707107 -0.707107 0.000000
vn -0.707107 -0.707107 0.000000
vn -0.707107 -0.707107 0.000000
vn -0.707107 -0.707107 0.000000
vn -0.707107 -0.707107 0.000000
vn -0.707107 0.707107 -0.000000
vn -0.707107 0.707107 -0.000000
vn -0.653281 0.653281 0.382683
vn -0.653281 0.653281 0.382683
vn -0.500000 0.500000 0.707107
vn -0.500000 0.500000 0.707107
vn -0.270598 0.270598 0.923880
vn -0.270598 0.270598 0.923880
vn -0.000000 0.000000 1.000000
vn 0.000000 0.000000 1.000000
vn -0.270598 0.270598 0.923880
vn -0.500000 0.500000 0.707107
vn -0.653281 0.653281 0.382683
vn -0.000000 0.000000 1.000000
vn -0.000000 0.000000 1.000000
vn 0.270598 -0.270598 0.923880
vn 0.270598 -0.270598 0.923880
vn 0.500000 -0.500000 0.707107
vn 0.500000 -0.500000 0.707107
vn 0.653281 -0.653281 0.382683
vn 0.653281 -0.653281 0.382683
vn 0.707107 -0.707107 -0.000000
vn 0.707107 -0.707107 0.000000
vn 0.653281 -0.653281 0.382683
vn 0.500000 -0.500000 0.707107
vn 0.270598 -0.270598 0.923880
vn 0.707107 -0.707107 0.000000
vn 0.707107 -0.707107 0.000000
vn -0.000000 0.000000 1.000000
vn -0.000000 0.000000 1.000000
vn -0.000000 0.000000 1.000000
vn -0.000000 0.000000 1.000000
vn -0.707107 0.707107 -0.000000
vn -0.707107 0.707107 -0.000000
vn -0.707107 0.707107 -0.000000
vn -0.707107 0.707107 -0.000000
vn -0.683013 0.683013 -0.258819
vn -0.683013 0.683013 -0.258819
vn -0.612372 0.612372 -0.500000
vn -0.612372 0.612372 -0.500000
vn -0.500000 0.500000 -0.707107
vn -0.500000 0.500000 -0.707107
vn -0.353553 0.353553 -0.866025
vn -0.353553 0.353553 -0.866025
vn -0.183013 0.183013 -0.965926
vn -0.183013 0.183013 -0.965926
vn 0.000000 -0.000000 -1.000000
vn 0.000000 -0.000000 -1.000000
vn 0.000000 -0.000000 -1.000000
vn 0.000000 -0.000000 -1.000000
vn 0.194358 -0.194358 -0.961483
vn 0.194358 -0.194358 -0.961483
vn 0.373744 -0.373744 -0.848900
vn 0.373744 -0.373744 -0.848900
vn 0.524339 -0.524339 -0.670922
vn 0.524339 -0.524339 -0.670922
vn 0.634542 -0.634542 -0.441261
vn 0.634542 -0.634542 -0.441261
vn 0.695865 -0.695865 -0.177609
vn 0.695865 -0.695865 -0.177609
vn 0.703590 -0.703590 0.099615
vn 0.703590 -0.703590 0.099615
vn -0.707107 0.707107 -0.000000
vn -0.707107 0.707107 -0.000000
vn -0.000000 0.000000 1.000000
vn -0.000000 0.000000 1.000000
vn 0.194358 -0.194358 0.961483
vn 0.194358 -0.194358 0.961483
vn 0.373744 -0.373744 0.848900
vn 0.373744 -0.373744 0.848900
vn 0.524339 -0.524339 0.670922
vn 0.524339 -0.524339 0.670922
vn 0.634542 -0.634542 0.441261
vn 0.634542 -0.634542 0.441261
vn 0.695865 -0.695865 0.177609
vn 0.695865 -0.695865 0.177609
vn 0.703590 -0.703590 -0.099615
vn 0.703590 -0.703590 -0.099615
vn -0.707107 0.707107 -0.000000
vn -0.707107 0.707107 -0.000000
vn -0.707107 0.707107 -0.000000
vn -0.707107 0.707107 -0.000000
vn 0.707107 0.707107 -0.000000
vn 0.707107 0.707107 -0.000000
vn 0.707107 0.707107 -0.000000
vn 0.707107 0.707107 -0.000000
vn 0.707107 0.707107 -0.000000
vn 0.707107 0.707107 -0.000000
vn 0.707107 0.707107 -0.000000
vn 0.707107 0.707107 -0.000000
vn 0.707107 0.707107 -0.000000
vn 0.707107 0.707107 -0.000000
vn 0.707107 0.707107 -0.000000
vn 0.707107 0.707107 -0.000000
vn 0.707107 0.707107 -0.000000
vn 0.707107 0.707107 -0.000000
vn 0.707107 0.707107 -0.000000
vn 0.707107 0.707107 -0.000000
vn 0.707107 0.707107 -0.000000
vn 0.707107 0.707107 -0.000000
vn 0.707107 0.707107 -0.000000
vn 0.707107 0.707107 -0.000000
vn 0.707107 0.707107 -0.000000
vn 0.707107 0.707107 -0.000000
vn 0.707107 0.707107 -0.000000
vn 0.707107 0.707107 -0.000000
vn 0.707107 0.707107 -0.000000
vn 0.707107 0.707107 -0.000000
vn 0.707107 0.707107 -0.000000
vn -0.707107 -0.707107 0.000000
vn -0.707107 -0.707107 0.000000
vn -0.707107 -0.707107 0.000000
vn -0.707107 -0.707107 0.000000
vn -0.707107 -0.707107 0.000000
vn -0.707107 -0.707107 0.000000
vn -0.707107 -0.707107 0.000000
vn -0.707107 -0.707107 0.000000
vn -0.707107 -0.707107 0.000000
vn -0.707107 -0.707107 0.000000
vn -0.707107 -0.707107 0.000000
vn -0.707107 -0.707107 0.000000
vn -0.707107 -0.707107 0.000000
vn -0.707107 -0.707107 0.000000
vn -0.707107 -0.707107 0.000000
vn -0.707107 -0.707107 0.000000
vn -0.707107 -0.707107 0.000000
vn -0.707107 -0.707107 0.000000
vn -0.707107 -0.707107 0.000000
vn -0.707107 -0.707107 0.000000
vn -0.707107 -0.707107 0.000000
vn -0.707107 -0.707107 0.000000
vn -0.707107 -0.707107 0.000000
vn -0.707107 -0.707107 0.000000
vn -0.707107 -0.707107 0.000000
vn -0.707107 -0.707107 0.000000
vn -0.707107 -0.707107 0.000000
vn -0.000000 0.000000 1.000000
vn -0.000000 0.000000 1.000000
vn -0.707107 0.707107 -0.000000
vn -0.707107 0.707107 -0.000000
vn -0.683013 0.683013 0.258819
vn -0.683013 0.683013 0.258819
vn -0.612372 0.612372 0.500000
vn -0.612372 0.612372 0.500000
vn -0.500000 0.500000 0.707107
vn -0.500000 0.500000 0.707107
vn -0.353553 0.353553 0.866025
vn -0.353553 0.353553 0.866025
vn -0.183013 0.183013 0.965926
vn -0.183013 0.183013 0.965926
vn -0.707107 0.707107 -0.000000
vn -0.707107 0.707107 -0.000000
vn 0.000000 -0.000000 -1.000000
vn 0.000000 -0.000000 -1.000000
vn 0.000000 -0.000000 -1.000000
vn 0.000000 -0.000000 -1.000000
vn 0.707107 -0.707107 0.000000
vn 0.707107 -0.707107 0.000000
vn 0.707107 -0.707107 0.000000
vn 0.707107 -0.707107 0.000000
vn 0.000000 -0.000000 -1.000000
vn 0.000000 -0.000000 -1.000000
vn 0.270598 -0.270598 -0.923880
vn 0.270598 -0.270598 -0.923880
vn 0.500000 -0.500000 -0.707107
vn 0.500000 -0.500000 -0.707107
vn 0.653281 -0.653281 -0.382683
vn 0.653281 -0.653281 -0.382683
vn 0.653281 -0.653281 -0.382683
vn 0.500000 -0.500000 -0.707107
vn 0.270598 -0.270598 -0.923880
vn 0.000000 -0.000000 -1.000000
vn 0.000000 -0.000000 -1.000000
vn -0.653281 0.653281 -0.382683
vn -0.653281 0.653281 -0.382683
vn -0.500000 0.500000 -0.707107
vn -0.500000 0.500000 -0.707107
vn -0.270598 0.270598 -0.923880
vn -0.270598 0.270598 -0.923880
vn -0.270598 0.270598 -0.923880
vn -0.500000 0.500000 -0.707107
vn -0.653281 0.653281 -0.382683
vn 0.967630 -0.252373 0.000000
vn 0.999950 0.010001 0.000000
vn 0.999950 0.010001 0.000000
vn 0.946930 0.321439 0.000000
vn 0.999950 0.010001 0.000000
vn 0.999950 0.010001 0.000000
vn 0.967630 -0.252373 0.000000
vn 0.967630 -0.252373 0.000000
vn 0.867687 -0.497110 0.000000
vn 0.867687 -0.497110 0.000000
vn 0.946930 0.321439 0.000000
vn 0.999950 0.010001 0.000000
vn 0.999048 -0.043619 0.000000
vn 0.967630 -0.252373 0.000000
vn 0.915311 -0.402747 0.000000
vn 0.867687 -0.497110 0.000000
vn 0.915311 -0.402747 0.000000
vn 0.707107 -0.707107 0.000000
vn 0.915311 -0.402747 0.000000
vn 0.915311 -0.402747 0.000000
vn 0.999048 -0.043619 0.000000
vn 0.999048 -0.043619 0.000000
vn 0.946930 0.321439 0.000000
vn 0.946930 0.321439 0.000000
vn 0.766044 0.642788 0.000000
vn 0.946930 0.321439 0.000000
vn 0.946930 0.321439 0.000000
vn 0.999048 -0.043619 0.000000
vn 0.999048 -0.043619 0.000000
vn 0.915311 -0.402747 0.000000
vn 0.915311 -0.402747 0.000000
vn 0.766044 0.642788 0.000000
vn 0.946930 0.321439 0.000000
vn 0.999048 -0.043619 0.000000
vn 0.999048 -0.043619 0.000000
vn 0.999950 0.010001 0.000000
vn 0.999950 0.010001 0.000000
vn 0.999950 0.010001 0.000000
vn 0.967630 -0.252373 0.000000
vn 0.967630 -0.252373 0.000000
vn 0.867687 -0.497110 0.000000
vn 0.867687 -0.497110 0.000000
vn 0.967630 -0.252373 0.000000
vn 0.915311 -0.402747 0.000000
vn 0.867687 -0.497110 0.000000
vn 0.967630 -0.252373 0.000000
vn 0.867687 -0.497110 0.000000
vn 0.867687 -0.497110 0.000000
vn 0.312745 -0.312745 0.896873
vn 0.312745 -0.312745 0.896873
vn 0.061628 -0.061628 0.996195
vn 0.312745 -0.312745 0.896873
vn 0.061628 -0.061628 0.996195
vn 0.312745 -0.312745 0.896873
vn 0.312745 -0.312745 0.896873
vn 0.521334 -0.521334 0.675590
vn 0.521334 -0.521334 0.675590
vn 0.659029 -0.659029 0.362438
vn 0.659029 -0.659029 0.362438
vn 0.659029 -0.659029 0.362438
vn 0.659029 -0.659029 0.362438
vn 0.659029 -0.659029 0.362438
vn 0.521334 -0.521334 0.675590
vn 0.521334 -0.521334 0.675590
vn 0.521334 -0.521334 0.675590
vn 0.659029 -0.659029 -0.362438
vn 0.659029 -0.659029 -0.362438
vn 0.659029 -0.659029 -0.362438
vn 0.659029 -0.659029 -0.362438
vn 0.659029 -0.659029 -0.362438
vn 0.521334 -0.521334 -0.675590
vn 0.521334 -0.521334 -0.675590
vn 0.312745 -0.312745 -0.896873
vn 0.312745 -0.312745 -0.896873
vn 0.061628 -0.061628 -0.996195
vn 0.312745 -0.312745 -0.896873
vn 0.061628 -0.061628 -0.996195
vn 0.312745 -0.312745 -0.896873
vn 0.312745 -0.312745 -0.896873
vn 0.521334 -0.521334 -0.675590
vn 0.521334 -0.521334 -0.675590
vn 0.521334 -0.521334 -0.675590
vn 0.497110 -0.867687 0.000000
vn 0.497110 -0.867687 0.000000
vn 0.252373 -0.967630 0.000000
vn 0.252373 -0.967630 0.000000
vn -0.010001 -0.999950 0.000000
vn -0.010001 -0.999950 0.000000
vn -0.321439 -0.946930 0.000000
vn -0.321439 -0.946930 0.000000
vn -0.642788 -0.766044 0.000000
vn -0.321439 -0.946930 0.000000
vn -0.321439 -0.946930 0.000000
vn 0.043619 -0.999048 0.000000
vn 0.043619 -0.999048 0.000000
vn 0.402747 -0.915311 0.000000
vn 0.402747 -0.915311 0.000000
vn 0.402747 -0.915311 0.000000
vn 0.402747 -0.915311 0.000000
vn 0.043619 -0.999048 0.000000
vn 0.402747 -0.915311 0.000000
vn 0.043619 -0.999048 0.000000
vn -0.321439 -0.946930 0.000000
vn -0.321439 -0.946930 0.000000
vn -0.642788 -0.766044 0.000000
vn -0.321439 -0.946930 0.000000
vn -0.010001 -0.999950 0.000000
vn -0.010001 -0.999950 0.000000
vn -0.010001 -0.999950 0.000000
vn 0.252373 -0.967630 0.000000
vn 0.252373 -0.967630 0.000000
vn 0.497110 -0.867687 0.000000
vn 0.497110 -0.867687 0.000000
vn -0.010001 -0.999950 0.000000
vn 0.252373 -0.967630 0.000000
vn 0.252373 -0.967630 0.000000
vn 0.497110 -0.867687 0.000000
vn 0.497110 -0.867687 0.000000
vn -0.010001 -0.999950 0.000000
vn 0.043619 -0.999048 0.000000
vn 0.252373 -0.967630 0.000000
vn 0.402747 -0.915311 0.000000
vn 0.497110 -0.867687 0.000000
vn 0.402747 -0.915311 0.000000
vn 0.497110 -0.867687 0.000000
vn 0.252373 -0.967630 0.000000
vn 0.043619 -0.999048 0.000000
vn -0.010001 -0.999950 0.000000
vn 0.043619 -0.999048 0.000000
vn 0.766044 0.642788 0.000000
vn 0.766044 0.642788 0.000000
vn 0.766044 0.642788 0.000000
vn 0.766044 0.642788 0.000000
vn 0.642788 0.766044 -0.000000
vn 0.642788 0.766044 -0.000000
vn 0.642788 0.766044 -0.000000
vn 0.642788 0.766044 -0.000000
vn 0.642788 0.766044 -0.000000
vn 0.642788 0.766044 -0.000000
vn 0.642788 0.766044 -0.000000
vn 0.642788 0.766044 -0.000000
vn 0.061628 -0.061628 0.996195
vn 0.061628 -0.061628 0.996195
vn 0.061628 -0.061628 0.996195
vn 0.061628 -0.061628 0.996195
vn 0.061628 -0.061628 0.996195
vn -0.707107 0.707107 -0.000000
vn -0.707107 0.707107 -0.000000
vn -0.707107 0.707107 -0.000000
vn -0.707107 0.707107 -0.000000
vn -0.183013 0.183013 0.965926
vn -0.183013 0.183013 0.965926
vn -0.183013 0.183013 0.965926
vn -0.183013 0.183013 0.965926
vn -0.707107 0.707107 -0.000000
vn -0.707107 0.707107 -0.000000
vn -0.707107 0.707107 -0.000000
vn -0.707107 0.707107 -0.000000
vn -0.183013 0.183013 -0.965926
vn -0.183013 0.183013 -0.965926
vn -0.183013 0.183013 -0.965926
vn -0.183013 0.183013 -0.965926
vn -0.707107 0.707107 -0.000000
vn -0.707107 0.707107 -0.000000
vn -0.707107 0.707107 -0.000000
vn -0.707107 0.707107 -0.000000
vn 0.061628 -0.061628 -0.996195
vn 0.061628 -0.061628 -0.996195
vn 0.061628 -0.061628 -0.996195
vn 0.061628 -0.061628 -0.996195
vn 0.061628 -0.061628 -0.996195
vn -0.766044 -0.642788 -0.000000
vn -0.766044 -0.642788 -0.000000
vn -0.766044 -0.642788 -0.000000
vn -0.766044 -0.642788 -0.000000
vn -0.766044 -0.642788 -0.000000
vn -0.766044 -0.642788 -0.000000
vn -0.766044 -0.642788 -0.000000
vn -0.766044 -0.642788 -0.000000
vn -0.642788 -0.766044 0.000000
vn -0.642788 -0.766044 0.000000
vn -0.061628 0.061628 0.996195
vn -0.061628 0.061628 0.996195
vn -0.061628 0.061628 0.996195
vn -0.061628 0.061628 0.996195
vn -0.061628 0.061628 0.996195
vn -0.061628 0.061628 0.996195
vn -0.061628 0.061628 0.996195
vn -0.061628 0.061628 0.996195
vn -0.061628 0.061628 -0.996195
vn -0.061628 0.061628 -0.996195
vn -0.061628 0.061628 -0.996195
vn -0.061628 0.061628 -0.996195
vn -0.061628 0.061628 -0.996195
vn -0.061628 0.061628 -0.996195
vn -0.061628 0.061628 -0.996195
vn -0.061628 0.061628 -0.996195
vn 0.707107 0.707107 -0.000000
vn 0.707107 0.707107 -0.000000
vn 0.707107 0.707107 -0.000000
vn 0.707107 0.707107 -0.000000
vn -0.092543 -0.092543 -0.991399
vn -0.092543 -0.092543 -0.991399
vn -0.092543 -0.092543 -0.991399
vn -0.092543 -0.092543 -0.991399
vn -0.707107 -0.707107 0.000000
vn -0.707107 -0.707107 0.000000
vn -0.707107 -0.707107 0.000000
vn -0.707107 -0.707107 0.000000
vn -0.317831 -0.317831 0.893290
vn -0.317831 -0.317831 0.893290
vn -0.317831 -0.317831 0.893290
vn -0.317831 -0.317831 0.893290
vn -0.317215 -0.317215 -0.893728
vn -0.317215 -0.317215 -0.893728
vn -0.317215 -0.317215 -0.893728
vn -0.317215 -0.317215 -0.893728
vn -0.707107 -0.707107 0.000000
vn -0.707107 -0.707107 0.000000
vn -0.707107 -0.707107 0.000000
vn -0.707107 -0.707107 0.000000
vn -0.093095 -0.093095 0.991295
vn -0.093095 -0.093095 0.991295
vn -0.093095 -0.093095 0.991295
vn -0.093095 -0.093095 0.991295
vn 0.707107 0.707107 -0.000000
vn 0.707107 0.707107 -0.000000
vn 0.707107 0.707107 -0.000000
vn 0.707107 0.707107 -0.000000
vn 0.093275 0.093275 -0.991262
vn 0.093275 0.093275 -0.991262
vn 0.093275 0.093275 -0.991262
vn 0.093275 0.093275 -0.991262
vn 0.317072 0.317072 0.893829
vn 0.317072 0.317072 0.893829
vn 0.317072 0.317072 0.893829
vn 0.317072 0.317072 0.893829
vn 0.707107 0.707107 -0.000000
vn 0.707107 0.707107 -0.000000
vn 0.707107 0.707107 -0.000000
vn 0.707107 0.707107 -0.000000
vn 0.317491 0.317491 -0.893532
vn 0.317491 0.317491 -0.893532
vn 0.317491 0.317491 -0.893532
vn 0.317491 0.317491 -0.893532
vn 0.092880 0.092880 0.991336
vn 0.092880 0.092880 0.991336
vn 0.092880 0.092880 0.991336
vn 0.092880 0.092880 0.991336
vn 0.707107 -0.707107 0.000000
vn 0.707107 -0.707107 0.000000
vn 0.707107 -0.707107 0.000000
vn 0.707107 -0.707107 0.000000
vn 0.707107 -0.707107 0.000000
vn 0.707107 -0.707107 0.000000
vn 0.707107 -0.707107 0.000000
vn 0.707107 -0.707107 0.000000
vn 0.707107 -0.707107 0.000000
vn 0.707107 -0.707107 0.000000
vn 0.707107 -0.707107 0.000000
vn 0.707107 -0.707107 0.000000
vn 0.707107 -0.707107 0.000000
vn -0.000000 0.000000 1.000000
vn -0.000000 0.000000 1.000000
vn -0.000000 0.000000 1.000000
vn -0.000000 0.000000 1.000000
vn -0.000000 0.000000 1.000000
vn -0.000000 0.000000 1.000000
vn -0.000000 0.000000 1.000000
vn -0.000000 0.000000 1.000000
vn 0.000000 -0.000000 -1.000000
vn 0.000000 -0.000000 -1.000000
vn 0.000000 -0.000000 -1.000000
vn 0.000000 -0.000000 -1.000000
vn 0.000000 -0.000000 -1.000000
vn 0.000000 -0.000000 -1.000000
vn 0.000000 -0.000000 -1.000000
vn 0.000000 -0.000000 -1.000000
vn 0.707107 -0.707107 0.000000
vn 0.707107 -0.707107 0.000000
vn 0.707107 -0.707107 0.000000
vn 0.707107 -0.707107 0.000000
vn 0.000000 -0.000000 -1.000000
vn 0.000000 -0.000000 -1.000000
vn 0.000000 -0.000000 -1.000000
vn 0.000000 -0.000000 -1.000000
vn -0.707107 -0.707107 0.000000
vn -0.707107 -0.707107 0.000000
vn -0.707107 -0.707107 0.000000
vn -0.707107 -0.707107 0.000000
vn 0.322505 0.322505 0.889933
vn 0.322505 0.322505 0.889933
vn 0.322505 0.322505 0.889933
vn 0.322505 0.322505 0.889933
vn 0.619477 0.619477 -0.482179
vn 0.619477 0.619477 -0.482179
vn 0.619477 0.619477 -0.482179
vn 0.619477 0.619477 -0.482179
vn -0.322569 -0.322569 -0.889887
vn -0.322569 -0.322569 -0.889887
vn -0.322569 -0.322569 -0.889887
vn -0.322569 -0.322569 -0.889887
vn 0.707107 0.707107 -0.000000
vn 0.707107 0.707107 -0.000000
vn 0.707107 0.707107 -0.000000
vn 0.707107 0.707107 -0.000000
vn 0.707107 -0.707107 0.000000
vn 0.707107 -0.707107 0.000000
vn 0.707107 -0.707107 0.000000
vn 0.707107 -0.707107 0.000000
vn 0.707107 -0.707107 0.000000
vn 0.707107 -0.707107 0.000000
vn -0.000000 0.000000 1.000000
vn -0.000000 0.000000 1.000000
vn -0.000000 0.000000 1.000000
vn -0.000000 0.000000 1.000000
vn -0.000000 0.000000 1.000000
vn -0.000000 0.000000 1.000000
vn -0.000000 0.000000 1.000000
vn -0.000000 0.000000 1.000000
vn 0.000000 -0.000000 -1.000000
vn 0.000000 -0.000000 -1.000000
vn 0.000000 -0.000000 -1.000000
vn 0.000000 -0.000000 -1.000000
vn 0.000000 -0.000000 -1.000000
vn 0.000000 -0.000000 -1.000000
vn 0.000000 -0.000000 -1.000000
vn 0.000000 -0.000000 -1.000000
vn 0.707107 -0.707107 0.000000
vn 0.707107 -0.707107 0.000000
vn 0.707107 -0.707107 0.000000
vn 0.707107 -0.707107 0.000000
vn -0.000000 0.000000 1.000000
vn -0.000000 0.000000 1.000000
vn -0.000000 0.000000 1.000000
vn -0.000000 0.000000 1.000000
vn -0.000000 0.000000 1.000000
vn -0.000000 0.000000 1.000000
vn -0.000000 0.000000 1.000000
vn -0.000000 0.000000 1.000000
vn 0.000000 -0.000000 -1.000000
vn 0.000000 -0.000000 -1.000000
vn 0.000000 -0.000000 -1.000000
vn 0.000000 -0.000000 -1.000000
vn 0.000000 -0.000000 -1.000000
vn 0.000000 -0.000000 -1.000000
vn 0.000000 -0.000000 -1.000000
vn 0.000000 -0.000000 -1.000000
vn 0.707107 -0.707107 0.000000
vn 0.707107 -0.707107 0.000000
vn 0.707107 -0.707107 0.000000
vn 0.707107 -0.707107 0.000000
vn -0.000000 0.000000 1.000000
vn -0.000000 0.000000 1.000000
vn -0.000000 0.000000 1.000000
vn -0.000000 0.000000 1.000000
vn -0.000000 0.000000 1.000000
vn -0.000000 0.000000 1.000000
vn -0.000000 0.000000 1.000000
vn -0.000000 0.000000 1.000000
vn 0.000000 -0.000000 -1.000000
vn 0.000000 -0.000000 -1.000000
vn 0.000000 -0.000000 -1.000000
vn 0.000000 -0.000000 -1.000000
vn 0.000000 -0.000000 -1.000000
vn 0.000000 -0.000000 -1.000000
vn 0.000000 -0.000000 -1.000000
vn 0.000000 -0.000000 -1.000000
vn 0.707107 -0.707107 0.000000
vn 0.707107 -0.707107 0.000000
vn 0.707107 -0.707107 0.000000
vn 0.707107 -0.707107 0.000000
usemtl Opaque(202,209,238)
f 2/1/1 3/2/2 1/3/3
f 1/3/3 3/2/2 4/4/4
f 6/5/5 7/6/6 5/7/7
f 5/7/7 7/6/6 8/8/8
f 10/9/9 11/10/10 9/11/11
f 9/11/11 11/10/10 12/12/12
f 14/13/13 19/14/14 13/15/15
f 13/15/15 19/14/14 20/16/16
f 13/15/15 20/16/16 21/17/17
f 15/18/18 34/19/19 14/13/13
f 14/13/13 34/19/19 26/20/20
f 14/13/13 26/20/20 28/21/21
f 28/21/21 26/20/20 27/22/22
f 34/19/19 15/18/18 33/23/23
f 33/23/23 15/18/18 16/24/24
f 33/23/23 16/24/24 32/25/25
f 32/25/25 16/24/24 24/26/26
f 32/25/25 24/26/26 31/27/27
f 31/27/27 24/26/26 25/28/28
f 31/27/27 25/28/28 35/29/29
f 35/29/29 25/28/28 34/19/19
f 34/19/19 25/28/28 26/20/20
f 16/24/24 13/15/15 24/26/26
f 24/26/26 13/15/15 23/30/30
f 23/30/30 13/15/15 21/17/17
f 23/30/30 21/17/17 22/31/31
f 17/32/32 18/33/33 29/34/34
f 29/34/34 18/33/33 14/13/13
f 29/34/34 14/13/13 28/21/21
f 18/33/33 19/14/14 14/13/13
f 30/35/35 31/27/27 35/29/29
f 37/36/36 38/37/37 36/38/38
f 36/38/38 38/37/37 39/39/39
f 41/40/40 42/41/41 40/42/42
f 40/42/42 42/41/41 43/43/43
f 40/42/42 43/43/43 66/44/44
f 66/44/44 43/43/43 44/45/45
f 66/44/44 44/45/45 45/46/46
f 66/44/44 45/46/46 65/47/47
f 65/47/47 45/46/46 46/48/48
f 65/47/47 46/48/48 64/49/49
f 64/49/49 46/48/48 47/50/50
f 64/49/49 47/50/50 63/51/51
f 63/51/51 47/50/50 48/52/52
f 63/51/51 48/52/52 62/53/53
f 62/53/53 48/52/52 49/54/54
f 62/53/53 49/54/54 50/55/55
f 62/53/53 50/55/55 61/56/56
f 61/56/56 50/55/55 51/57/57
f 61/56/56 51/57/57 60/58/58
f 60/58/58 51/57/57 52/59/59
f 60/58/58 52/59/59 53/60/60
f 60/58/58 53/60/60 59/61/61
f 59/61/61 53/60/60 54/62/62
f 59/61/61 54/62/62 58/63/63
f 58/63/63 54/62/62 55/64/64
f 58/63/63 55/64/64 57/65/65
f 57/65/65 55/64/64 56/66/66
f 68/67/67 69/68/68 67/69/69
f 67/69/69 69/68/68 93/70/70
f 93/70/70 69/68/68 70/71/71
f 93/70/70 70/71/71 92/72/72
f 92/72/72 70/71/71 91/73/73
f 91/73/73 70/71/71 71/74/74
f 91/73/73 71/74/74 90/75/75
f 90/75/75 71/74/74 72/76/76
f 90/75/75 72/76/76 89/77/77
f 89/77/77 72/76/76 73/78/78
f 89/77/77 73/78/78 88/79/79
f 88/79/79 73/78/78 87/80/80
f 87/80/80 73/78/78 74/81/81
f 87/80/80 74/81/81 86/82/82
f 86/82/82 74/81/81 75/83/83
f 86/82/82 75/83/83 85/84/84
f 85/84/84 75/83/83 76/85/85
f 85/84/84 76/85/85 84/86/86
f 84/86/86 76/85/85 83/87/87
f 83/87/87 76/85/85 77/88/88
f 83/87/87 77/88/88 82/89/89
f 82/89/89 77/88/88 78/90/90
f 82/89/89 78/90/90 81/91/91
f 81/91/91 78/90/90 79/92/92
f 81/91/91 79/92/92 80/93/93
f 69/94/94 40/95/95 94/96/96
f 94/96/96 40/95/95 66/97/97
f 94/96/96 66/97/97 95/98/98
f 95/98/98 66/97/97 65/99/99
f 95/98/98 65/99/99 96/100/100
f 96/100/100 65/99/99 64/101/101
f 96/100/100 64/101/101 63/102/102
f 63/102/102 73/103/103 96/100/100
f 96/100/100 73/103/103 72/104/104
f 96/100/100 72/104/104 95/98/98
f 95/98/98 72/104/104 71/105/105
f 95/98/98 71/105/105 94/96/96
f 94/96/96 71/105/105 70/106/106
f 94/96/96 70/106/106 69/94/94
f 63/107/102 62/108/107 73/109/103
f 73/109/103 62/108/107 74/110/108
f 74/111/108 62/112/107 97/113/109
f 97/113/109 62/112/107 61/114/110
f 97/113/109 61/114/110 98/115/111
f 98/115/111 61/114/110 60/116/112
f 98/115/111 60/116/112 99/117/113
f 99/117/113 60/116/112 59/118/114
f 99/117/113 59/118/114 58/119/115
f 58/119/115 78/120/116 99/117/113
f 99/117/113 78/120/116 77/121/117
f 99/117/113 77/121/117 98/115/111
f 98/115/111 77/121/117 76/122/118
f 98/115/111 76/122/118 97/113/109
f 97/113/109 76/122/118 75/123/119
f 97/113/109 75/123/119 74/111/108
f 58/124/115 57/125/120 78/126/116
f 78/126/116 57/125/120 79/127/121
f 57/128/122 56/129/123 79/130/124
f 79/130/124 56/129/123 80/131/125
f 56/132/126 55/133/127 80/134/128
f 80/134/128 55/133/127 81/135/129
f 81/136/129 55/137/127 82/138/130
f 82/138/130 55/137/127 54/139/131
f 82/138/130 54/139/131 83/140/132
f 83/140/132 54/139/131 53/141/133
f 83/140/132 53/141/133 84/142/134
f 84/142/134 53/141/133 52/143/135
f 84/142/134 52/143/135 85/144/136
f 85/144/136 52/143/135 51/145/137
f 85/144/136 51/145/137 86/146/138
f 86/146/138 51/145/137 50/147/139
f 86/146/138 50/147/139 87/148/140
f 87/148/140 50/147/139 49/149/141
f 49/150/141 48/151/142 87/152/140
f 87/152/140 48/151/142 88/153/143
f 88/154/143 48/155/142 89/156/144
f 89/156/144 48/155/142 47/157/145
f 89/156/144 47/157/145 90/158/146
f 90/158/146 47/157/145 46/159/147
f 90/158/146 46/159/147 91/160/148
f 91/160/148 46/159/147 45/161/149
f 91/160/148 45/161/149 92/162/150
f 92/162/150 45/161/149 44/163/151
f 92/162/150 44/163/151 93/164/152
f 93/164/152 44/163/151 43/165/153
f 93/164/152 43/165/153 67/166/154
f 67/166/154 43/165/153 42/167/155
f 68/168/156 41/169/157 69/170/94
f 69/170/94 41/169/157 40/171/95
f 113/172/158 100/173/159 112/174/160
f 112/174/160 100/173/159 101/175/161
f 112/174/160 101/175/161 111/176/162
f 111/176/162 101/175/161 102/177/163
f 111/176/162 102/177/163 110/178/164
f 110/178/164 102/177/163 103/179/165
f 110/178/164 103/179/165 109/180/166
f 109/180/166 103/179/165 104/181/167
f 109/180/166 104/181/167 108/182/168
f 108/182/168 104/181/167 105/183/169
f 108/182/168 105/183/169 107/184/170
f 107/184/170 105/183/169 106/185/171
f 114/186/172 115/187/173 117/188/174
f 117/188/174 115/187/173 116/189/175
f 115/190/176 114/191/177 107/192/178
f 107/192/178 114/191/177 108/193/179
f 108/193/179 114/191/177 118/194/180
f 108/193/179 118/194/180 109/195/181
f 109/195/181 118/194/180 110/196/182
f 110/196/182 118/194/180 119/197/183
f 110/196/182 119/197/183 111/198/184
f 111/198/184 119/197/183 120/199/185
f 111/198/184 120/199/185 112/200/186
f 112/200/186 120/199/185 121/201/187
f 112/200/186 121/201/187 113/202/188
f 113/202/188 121/201/187 122/203/189
f 113/202/188 122/203/189 135/204/190
f 135/204/190 122/203/189 134/205/191
f 134/205/191 122/203/189 123/206/192
f 134/205/191 123/206/192 133/207/193
f 133/207/193 123/206/192 124/208/194
f 133/207/193 124/208/194 132/209/195
f 132/209/195 124/208/194 131/210/196
f 131/210/196 124/208/194 125/211/197
f 131/210/196 125/211/197 130/212/198
f 130/212/198 125/211/197 126/213/199
f 130/212/198 126/213/199 129/214/200
f 129/214/200 126/213/199 128/215/201
f 128/215/201 126/213/199 127/216/202
f 116/217/203 106/218/204 117/219/205
f 117/219/205 106/218/204 105/220/206
f 117/219/205 105/220/206 153/221/207
f 153/221/207 105/220/206 104/222/208
f 153/221/207 104/222/208 103/223/209
f 153/221/207 103/223/209 152/224/210
f 152/224/210 103/223/209 102/225/211
f 152/224/210 102/225/211 151/226/212
f 151/226/212 102/225/211 101/227/213
f 151/226/212 101/227/213 150/228/214
f 150/228/214 101/227/213 100/229/215
f 150/228/214 100/229/215 149/230/216
f 149/230/216 100/229/215 136/231/217
f 149/230/216 136/231/217 137/232/218
f 149/230/216 137/232/218 148/233/219
f 148/233/219 137/232/218 138/234/220
f 148/233/219 138/234/220 147/235/221
f 147/235/221 138/234/220 139/236/222
f 147/235/221 139/236/222 140/237/223
f 147/235/221 140/237/223 146/238/224
f 146/238/224 140/237/223 141/239/225
f 146/238/224 141/239/225 145/240/226
f 145/240/226 141/239/225 142/241/227
f 145/240/226 142/241/227 144/242/228
f 144/242/228 142/241/227 143/243/229
f 136/244/230 100/245/159 135/246/231
f 135/246/231 100/245/159 113/247/158
f 129/248/232 142/249/233 130/250/234
f 130/250/234 142/249/233 141/251/235
f 130/250/234 141/251/235 131/252/236
f 131/252/236 141/251/235 140/253/237
f 131/252/236 140/253/237 132/254/238
f 132/254/238 140/253/237 139/255/239
f 132/254/238 139/255/239 133/256/240
f 133/256/240 139/255/239 138/257/241
f 133/256/240 138/257/241 134/258/242
f 134/258/242 138/257/241 137/259/243
f 134/258/242 137/259/243 135/260/231
f 135/260/231 137/259/243 136/261/230
f 142/262/233 129/263/232 143/264/244
f 143/264/244 129/263/232 128/265/245
f 143/266/246 128/267/247 144/268/248
f 144/268/248 128/267/247 127/269/249
f 145/270/250 144/271/251 126/272/252
f 126/272/252 144/271/251 127/273/253
f 122/274/254 149/275/255 154/276/256
f 154/276/256 149/275/255 148/277/257
f 154/276/256 148/277/257 155/278/258
f 155/278/258 148/277/257 147/279/259
f 155/278/258 147/279/259 156/280/260
f 156/280/260 147/279/259 146/281/261
f 156/280/260 146/281/261 145/282/250
f 145/282/250 126/283/252 156/280/260
f 156/280/260 126/283/252 125/284/262
f 156/280/260 125/284/262 155/278/258
f 155/278/258 125/284/262 124/285/263
f 155/278/258 124/285/263 154/276/256
f 154/276/256 124/285/263 123/286/264
f 154/276/256 123/286/264 122/274/254
f 149/287/255 122/288/254 150/289/265
f 150/289/265 122/288/254 121/290/266
f 114/291/172 117/292/174 157/293/267
f 157/293/267 117/292/174 153/294/268
f 157/293/267 153/294/268 158/295/269
f 158/295/269 153/294/268 152/296/270
f 158/295/269 152/296/270 159/297/271
f 159/297/271 152/296/270 151/298/272
f 159/297/271 151/298/272 150/299/265
f 150/299/265 121/300/266 159/297/271
f 159/297/271 121/300/266 120/301/273
f 159/297/271 120/301/273 158/295/269
f 158/295/269 120/301/273 119/302/274
f 158/295/269 119/302/274 157/293/267
f 157/293/267 119/302/274 118/303/275
f 157/293/267 118/303/275 114/291/172
f 161/304/276 165/305/277 160/306/278
f 160/306/278 165/305/277 174/307/279
f 160/306/278 174/307/279 191/308/280
f 191/308/280 174/307/279 186/309/281
f 191/308/280 186/309/281 187/310/282
f 165/305/277 161/304/276 164/311/283
f 164/311/283 161/304/276 162/312/284
f 164/311/283 162/312/284 163/313/285
f 163/313/285 162/312/284 4/314/4
f 4/314/4 162/312/284 1/315/3
f 174/307/279 165/305/277 201/316/286
f 201/316/286 165/305/277 166/317/287
f 201/316/286 166/317/287 192/318/288
f 192/318/288 166/317/287 167/319/289
f 192/318/288 167/319/289 202/320/290
f 202/320/290 167/319/289 168/321/291
f 202/320/290 168/321/291 203/322/292
f 203/322/292 168/321/291 16/323/293
f 203/322/292 16/323/293 204/324/294
f 204/324/294 16/323/293 205/325/295
f 204/324/294 205/325/295 194/326/296
f 194/326/296 205/325/295 195/327/297
f 194/326/296 195/327/297 199/328/298
f 199/328/298 195/327/297 198/329/299
f 199/328/298 198/329/299 172/330/300
f 172/330/300 198/329/299 197/331/301
f 172/330/300 197/331/301 171/332/302
f 171/332/302 197/331/301 170/333/303
f 170/333/303 197/331/301 196/334/304
f 170/333/303 196/334/304 169/335/305
f 169/335/305 196/334/304 206/336/306
f 169/335/305 206/336/306 16/323/293
f 16/323/293 206/336/306 205/325/295
f 168/321/291 13/337/15 16/323/293
f 172/330/300 173/338/307 199/328/298
f 199/328/298 173/338/307 200/339/308
f 199/328/298 200/339/308 194/326/296
f 194/326/296 200/339/308 193/340/309
f 194/326/296 193/340/309 204/324/294
f 204/324/294 193/340/309 203/322/292
f 200/339/308 173/338/307 201/316/286
f 201/316/286 173/338/307 174/307/279
f 175/341/310 179/342/311 174/307/279
f 174/307/279 179/342/311 180/343/312
f 174/307/279 180/343/312 185/344/313
f 185/344/313 180/343/312 181/345/314
f 185/344/313 181/345/314 184/346/315
f 184/346/315 181/345/314 182/347/316
f 184/346/315 182/347/316 183/348/317
f 183/348/317 182/347/316 10/349/9
f 10/349/9 182/347/316 11/350/10
f 179/342/311 175/341/310 178/351/318
f 178/351/318 175/341/310 176/352/319
f 178/351/318 176/352/319 177/353/320
f 177/353/320 176/352/319 38/354/37
f 177/353/320 38/354/37 37/355/36
f 185/344/313 186/309/281 174/307/279
f 191/308/280 187/310/282 190/356/321
f 190/356/321 187/310/282 188/357/322
f 190/356/321 188/357/322 189/358/323
f 189/358/323 188/357/322 6/359/5
f 6/359/5 188/357/322 7/360/6
f 200/339/308 201/316/286 193/340/309
f 193/340/309 201/316/286 192/318/288
f 193/340/309 192/318/288 203/322/292
f 203/322/292 192/318/288 202/320/290
f 197/331/301 198/329/299 196/334/304
f 196/334/304 198/329/299 195/327/297
f 196/334/304 195/327/297 206/336/306
f 206/336/306 195/327/297 205/325/295
f 208/361/324 211/362/325 207/363/326
f 207/363/326 211/362/325 212/364/327
f 207/363/326 212/364/327 173/365/328
f 173/365/328 212/364/327 213/366/329
f 173/365/328 213/366/329 174/367/330
f 174/367/330 213/366/329 175/368/331
f 175/368/331 213/366/329 216/369/332
f 175/368/331 216/369/332 176/370/333
f 176/370/333 216/369/332 219/371/334
f 176/370/333 219/371/334 38/372/37
f 38/372/37 219/371/334 218/373/335
f 38/372/37 218/373/335 39/374/39
f 39/374/39 218/373/335 217/375/336
f 39/374/39 217/375/336 210/376/337
f 210/376/337 217/375/336 214/377/338
f 210/376/337 214/377/338 209/378/339
f 209/378/339 214/377/338 211/362/325
f 209/378/339 211/362/325 208/361/324
f 216/369/332 213/366/329 212/364/327
f 212/364/327 211/362/325 215/379/340
f 215/379/340 211/362/325 214/377/338
f 215/379/340 214/377/338 218/373/335
f 218/373/335 214/377/338 217/375/336
f 219/371/334 216/369/332 215/379/340
f 215/379/340 216/369/332 212/364/327
f 219/371/334 215/379/340 218/373/335
f 220/380/341 224/381/342 15/382/18
f 15/382/18 224/381/342 225/383/343
f 15/382/18 225/383/343 16/384/24
f 16/384/24 225/383/343 226/385/344
f 16/384/24 226/385/344 169/386/345
f 169/386/345 226/385/344 229/387/346
f 169/386/345 229/387/346 170/388/347
f 170/388/347 229/387/346 232/389/348
f 170/388/347 232/389/348 171/390/349
f 171/390/349 232/389/348 172/391/350
f 172/391/350 232/389/348 231/392/351
f 172/391/350 231/392/351 223/393/352
f 223/393/352 231/392/351 230/394/353
f 223/393/352 230/394/353 222/395/354
f 222/395/354 230/394/353 221/396/355
f 221/396/355 230/394/353 227/397/356
f 221/396/355 227/397/356 220/380/341
f 220/380/341 227/397/356 224/381/342
f 229/387/346 226/385/344 225/383/343
f 225/383/343 224/381/342 228/398/357
f 228/398/357 224/381/342 227/397/356
f 228/398/357 227/397/356 231/392/351
f 231/392/351 227/397/356 230/394/353
f 232/389/348 229/387/346 228/398/357
f 228/398/357 229/387/346 225/383/343
f 232/389/348 228/398/357 231/392/351
f 3/399/2 2/400/1 256/401/358
f 256/401/358 2/400/1 233/402/359
f 256/401/358 233/402/359 234/403/360
f 256/401/358 234/403/360 255/404/361
f 255/404/361 234/403/360 235/405/362
f 255/404/361 235/405/362 254/406/363
f 254/406/363 235/405/362 208/407/364
f 254/406/363 208/407/364 257/408/365
f 257/408/365 208/407/364 207/409/366
f 257/408/365 207/409/366 258/410/367
f 258/410/367 207/409/366 259/411/368
f 258/410/367 259/411/368 265/412/369
f 265/412/369 259/411/368 264/413/370
f 265/412/369 264/413/370 270/414/371
f 270/414/371 264/413/370 269/415/372
f 270/414/371 269/415/372 14/416/13
f 14/416/13 269/415/372 15/417/18
f 15/417/18 269/415/372 268/418/373
f 15/417/18 268/418/373 267/419/374
f 267/419/374 268/418/373 262/420/375
f 267/419/374 262/420/375 220/421/376
f 220/421/376 262/420/375 221/422/377
f 221/422/377 262/420/375 261/423/378
f 221/422/377 261/423/378 222/424/379
f 222/424/379 261/423/378 223/425/380
f 223/425/380 261/423/378 260/426/381
f 223/425/380 260/426/381 259/411/368
f 259/411/368 260/426/381 264/413/370
f 235/405/362 236/427/382 208/407/364
f 208/407/364 236/427/382 241/428/383
f 208/407/364 241/428/383 242/429/384
f 236/427/382 237/430/385 241/428/383
f 241/428/383 237/430/385 240/431/386
f 240/431/386 237/430/385 238/432/387
f 240/431/386 238/432/387 239/433/388
f 239/433/388 238/432/387 8/434/8
f 8/434/8 238/432/387 5/435/7
f 208/407/364 242/429/384 247/436/389
f 247/436/389 242/429/384 243/437/390
f 247/436/389 243/437/390 246/438/391
f 246/438/391 243/437/390 244/439/392
f 246/438/391 244/439/392 245/440/393
f 245/440/393 244/439/392 12/441/12
f 12/441/12 244/439/392 9/442/11
f 247/436/389 248/443/394 208/407/364
f 208/407/364 248/443/394 209/444/395
f 209/444/395 248/443/394 249/445/396
f 209/444/395 249/445/396 210/446/397
f 210/446/397 249/445/396 250/447/398
f 210/446/397 250/447/398 39/448/39
f 39/448/39 250/447/398 36/449/38
f 207/409/366 223/425/380 259/411/368
f 220/421/376 15/417/18 267/419/374
f 270/414/371 14/416/13 271/450/399
f 271/450/399 14/416/13 251/451/400
f 271/450/399 251/451/400 252/452/401
f 271/450/399 252/452/401 266/453/402
f 266/453/402 252/452/401 253/454/403
f 266/453/402 253/454/403 257/408/365
f 257/408/365 253/454/403 254/406/363
f 257/408/365 258/410/367 266/453/402
f 266/453/402 258/410/367 265/412/369
f 266/453/402 265/412/369 271/450/399
f 271/450/399 265/412/369 270/414/371
f 260/426/381 261/423/378 263/455/404
f 263/455/404 261/423/378 262/420/375
f 263/455/404 262/420/375 268/418/373
f 269/415/372 264/413/370 263/455/404
f 263/455/404 264/413/370 260/426/381
f 269/415/372 263/455/404 268/418/373
f 173/456/405 172/457/406 272/458/407
f 272/458/407 172/457/406 273/459/408
f 279/460/409 272/461/410 278/462/411
f 278/462/411 272/461/410 273/463/412
f 278/462/411 273/463/412 275/464/413
f 275/464/413 273/463/412 274/465/414
f 276/466/415 277/467/416 275/464/413
f 275/464/413 277/467/416 278/462/411
f 280/468/417 207/469/326 106/470/418
f 106/470/418 207/469/326 173/471/419
f 106/470/418 173/471/419 107/472/420
f 107/472/420 173/471/419 272/473/421
f 278/474/422 281/475/423 279/476/424
f 279/476/424 281/475/423 282/477/425
f 278/478/426 277/479/427 281/480/428
f 281/480/428 277/479/427 283/481/429
f 276/482/430 284/483/431 277/484/432
f 277/484/432 284/483/431 283/485/433
f 275/486/434 285/487/435 276/488/436
f 276/488/436 285/487/435 284/489/437
f 274/490/438 286/491/439 275/492/440
f 275/492/440 286/491/439 285/493/441
f 273/494/442 172/495/443 42/496/444
f 42/496/444 172/495/443 223/497/352
f 42/496/444 223/497/352 67/498/445
f 67/498/445 223/497/352 287/499/446
f 286/500/447 287/501/448 285/502/449
f 285/502/449 287/501/448 280/503/450
f 285/502/449 280/503/450 281/504/451
f 281/504/451 280/503/450 282/505/452
f 283/506/453 284/507/454 281/504/451
f 281/504/451 284/507/454 285/502/449
f 223/508/380 207/509/366 287/510/455
f 287/510/455 207/509/366 280/511/456
f 115/512/457 282/513/458 116/514/459
f 116/514/459 282/513/458 280/515/460
f 116/514/459 280/515/460 106/516/461
f 107/517/462 272/518/463 115/512/457
f 115/512/457 272/518/463 279/519/464
f 115/512/457 279/519/464 282/513/458
f 68/520/465 274/521/466 41/522/467
f 41/522/467 274/521/466 273/523/468
f 41/522/467 273/523/468 42/524/469
f 67/525/470 287/526/471 68/520/465
f 68/520/465 287/526/471 286/527/472
f 68/520/465 286/527/472 274/521/466
f 18/528/473 288/529/474 19/530/475
f 19/530/475 288/529/474 289/531/476
f 20/532/477 19/533/478 290/534/479
f 290/534/479 19/533/478 289/535/480
f 20/536/481 290/537/482 21/538/483
f 21/538/483 290/537/482 291/539/484
f 22/540/485 21/541/486 292/542/487
f 292/542/487 21/541/486 291/543/488
f 23/544/489 22/545/490 293/546/491
f 293/546/491 22/545/490 292/547/492
f 23/548/493 293/549/494 24/550/495
f 24/550/495 293/549/494 294/551/496
f 25/552/497 24/553/498 295/554/499
f 295/554/499 24/553/498 294/555/500
f 25/556/501 295/557/502 26/558/503
f 26/558/503 295/557/502 296/559/504
f 27/560/505 26/561/506 297/562/507
f 297/562/507 26/561/506 296/563/508
f 28/564/509 27/565/510 298/566/511
f 298/566/511 27/565/510 297/567/512
f 28/568/513 298/569/514 29/570/515
f 29/570/515 298/569/514 299/571/516
f 17/572/517 29/573/518 300/574/519
f 300/574/519 29/573/518 299/575/520
f 18/576/521 17/577/522 288/578/523
f 288/578/523 17/577/522 300/579/524
f 288/580/525 300/581/526 289/582/527
f 289/582/527 300/581/526 290/583/528
f 290/583/528 300/581/526 291/584/529
f 291/584/529 300/581/526 292/585/530
f 292/585/530 300/581/526 299/586/531
f 292/585/530 299/586/531 298/587/532
f 298/587/532 297/588/533 292/585/530
f 292/585/530 297/588/533 293/589/534
f 293/589/534 297/588/533 294/590/535
f 294/590/535 297/588/533 295/591/536
f 295/591/536 297/588/533 296/592/537
f 13/593/538 168/594/539 14/595/540
f 14/595/540 168/594/539 251/596/541
f 251/596/541 168/594/539 167/597/542
f 251/596/541 167/597/542 252/598/543
f 252/598/543 167/597/542 253/599/544
f 253/599/544 167/597/542 166/600/545
f 165/601/546 164/602/547 254/603/548
f 254/603/548 164/602/547 255/604/549
f 255/604/549 164/602/547 256/605/550
f 256/605/550 164/602/547 163/606/551
f 256/605/550 163/606/551 3/607/552
f 3/607/552 163/606/551 4/608/553
f 166/609/554 165/610/555 253/611/556
f 253/611/556 165/610/555 254/612/557
f 31/613/558 301/614/559 32/615/560
f 32/615/560 301/614/559 302/616/561
f 32/617/562 302/618/563 33/619/564
f 33/619/564 302/618/563 303/620/565
f 34/621/566 33/622/567 304/623/568
f 304/623/568 33/622/567 303/624/569
f 35/625/570 34/626/571 305/627/572
f 305/627/572 34/626/571 304/628/573
f 30/629/574 35/630/575 306/631/576
f 306/631/576 35/630/575 305/632/577
f 30/633/578 306/634/579 31/635/580
f 31/635/580 306/634/579 301/636/581
f 301/637/582 306/638/583 302/639/584
f 302/639/584 306/638/583 303/640/585
f 303/640/585 306/638/583 304/641/586
f 304/641/586 306/638/583 305/642/587
f 11/643/588 182/644/589 12/645/590
f 12/645/590 182/644/589 245/646/591
f 245/646/591 182/644/589 181/647/592
f 245/646/591 181/647/592 246/648/593
f 246/648/593 181/647/592 247/649/594
f 247/649/594 181/647/592 180/650/595
f 179/651/596 178/652/597 248/653/598
f 248/653/598 178/652/597 249/654/599
f 249/654/599 178/652/597 250/655/600
f 250/655/600 178/652/597 177/656/601
f 250/655/600 177/656/601 36/657/602
f 36/657/602 177/656/601 37/658/603
f 180/659/604 179/660/605 247/661/606
f 247/661/606 179/660/605 248/662/607
f 7/663/608 188/664/609 8/665/610
f 8/665/610 188/664/609 239/666/611
f 239/666/611 188/664/609 187/667/612
f 239/666/611 187/667/612 240/668/613
f 240/668/613 187/667/612 241/669/614
f 241/669/614 187/667/612 186/670/615
f 185/671/616 184/672/617 242/673/618
f 242/673/618 184/672/617 243/674/619
f 243/674/619 184/672/617 244/675/620
f 244/675/620 184/672/617 183/676/621
f 244/675/620 183/676/621 9/677/622
f 9/677/622 183/676/621 10/678/623
f 186/679/624 185/680/625 241/681/626
f 241/681/626 185/680/625 242/682/627
f 1/683/628 162/684/629 2/685/630
f 2/685/630 162/684/629 233/686/631
f 233/686/631 162/684/629 161/687/632
f 233/686/631 161/687/632 234/688/633
f 234/688/633 161/687/632 235/689/634
f 235/689/634 161/687/632 160/690/635
f 191/691/636 190/692/637 236/693/638
f 236/693/638 190/692/637 237/694/639
f 237/694/639 190/692/637 238/695/640
f 238/695/640 190/692/637 189/696/641
f 238/695/640 189/696/641 5/697/642
f 5/697/642 189/696/641 6/698/643
f 160/699/644 191/700/645 235/701/646
f 235/701/646 191/700/645 236/702/647
# 306 vertices
# 702 texture params
# 647 normals
# 608 facets

# 1 groups
