# WaveFront *.obj file (generated by Autodesk ATF)

mtllib body105_visual.mtl

g Body105

v 64.491299 -63.498000 97.650425
v 64.656886 -63.332412 97.650425
v 64.656886 -63.332412 97.656425
v 64.491299 -63.498000 97.656425
v 64.656886 -63.332412 97.648425
v 64.491299 -63.498000 97.648425
v 64.491299 -63.498000 97.642425
v 64.656886 -63.332412 97.642425
v 64.656886 -63.332412 97.640425
v 64.491299 -63.498000 97.640425
v 64.491299 -63.498000 97.634425
v 64.656886 -63.332412 97.634425
v 64.491299 -63.498000 97.658425
v 64.656886 -63.332412 97.658425
v 64.656886 -63.332412 98.042501
v 64.491299 -63.498000 98.042501
v 64.550635 -63.438663 97.721865
v 64.627125 -63.362173 97.707532
v 64.627125 -63.362173 97.693980
v 64.521059 -63.468239 97.713782
v 64.521059 -63.468239 97.715705
v 64.608088 -63.381210 97.777634
v 64.521059 -63.468239 97.839413
v 64.521059 -63.468239 97.841366
v 64.627125 -63.362173 97.861288
v 64.627125 -63.362173 97.847766
v 64.550805 -63.438493 97.833403
v 64.627125 -63.362173 97.779256
v 64.627125 -63.362173 97.776222
v 64.531938 -63.457360 97.957742
v 64.531938 -63.457360 97.888211
v 64.521059 -63.468239 97.888211
v 64.521059 -63.468239 97.980518
v 64.629845 -63.359453 97.901672
v 64.625319 -63.363979 97.890044
v 64.656886 -63.332412 97.632425
v 64.491299 -63.498000 97.632425
v 64.491299 -63.498000 97.628326
v 64.656886 -63.332412 97.628326
v 64.439742 -63.386922 98.062914
v 64.439742 -63.386922 98.059101
v 64.450304 -63.397484 98.060417
v 64.450067 -63.397247 98.067354
v 64.448534 -63.395714 98.073945
v 64.445779 -63.392959 98.079687
v 64.442014 -63.389194 98.084136
v 64.437530 -63.384710 98.086951
v 64.432671 -63.379851 98.087914
v 64.385295 -63.332474 98.087914
v 64.380719 -63.327899 98.087062
v 64.376456 -63.323636 98.084564
v 64.372795 -63.319974 98.080591
v 64.369985 -63.317165 98.075414
v 64.368219 -63.315399 98.069384
v 64.367617 -63.314797 98.062914
v 64.367617 -63.314797 97.967914
v 64.378224 -63.325403 97.967914
v 64.378224 -63.325403 98.062914
v 64.378762 -63.325942 98.066740
v 64.380295 -63.327474 98.069985
v 64.382589 -63.329768 98.072152
v 64.385295 -63.332474 98.072914
v 64.432671 -63.379851 98.072914
v 64.435377 -63.382557 98.072152
v 64.437671 -63.384851 98.069985
v 64.439204 -63.386383 98.066740
v 64.556370 -63.291418 98.060417
v 64.545808 -63.280856 98.059101
v 64.545808 -63.280856 98.062914
v 64.545270 -63.280317 98.066740
v 64.543737 -63.278785 98.069985
v 64.541443 -63.276491 98.072152
v 64.538737 -63.273785 98.072914
v 64.491361 -63.226408 98.072914
v 64.488655 -63.223702 98.072152
v 64.486361 -63.221408 98.069985
v 64.484828 -63.219876 98.066740
v 64.484290 -63.219337 98.062914
v 64.484290 -63.219337 97.967914
v 64.473683 -63.208731 97.967914
v 64.473683 -63.208731 98.062914
v 64.474285 -63.209333 98.069384
v 64.476051 -63.211099 98.075414
v 64.478861 -63.213908 98.080591
v 64.482522 -63.217570 98.084564
v 64.486785 -63.221833 98.087062
v 64.491361 -63.226408 98.087914
v 64.538737 -63.273785 98.087914
v 64.543596 -63.278644 98.086951
v 64.548080 -63.283128 98.084136
v 64.551845 -63.286893 98.079687
v 64.554600 -63.289648 98.073945
v 64.556133 -63.291181 98.067354
v 64.492237 -63.333350 98.066740
v 64.490704 -63.331818 98.069985
v 64.488410 -63.329524 98.072152
v 64.435622 -63.276735 98.072152
v 64.433328 -63.274441 98.069985
v 64.431795 -63.272909 98.066740
v 64.538737 -63.273785 97.582914
v 64.543596 -63.278644 97.583876
v 64.548080 -63.283128 97.586691
v 64.551845 -63.286893 97.591140
v 64.554600 -63.289648 97.596882
v 64.556133 -63.291181 97.603473
v 64.556370 -63.291418 97.610410
v 64.450304 -63.397484 97.610410
v 64.450067 -63.397247 97.603473
v 64.448534 -63.395714 97.596882
v 64.445779 -63.392959 97.591140
v 64.442014 -63.389194 97.586691
v 64.437530 -63.384710 97.583876
v 64.432671 -63.379851 97.582914
v 64.439742 -63.386922 97.607914
v 64.439742 -63.386922 97.611726
v 64.545808 -63.280856 97.611726
v 64.545808 -63.280856 97.607914
v 64.439204 -63.386383 97.604087
v 64.437671 -63.384851 97.600842
v 64.435377 -63.382557 97.598675
v 64.432671 -63.379851 97.597914
v 64.385295 -63.332474 97.597914
v 64.382589 -63.329768 97.598675
v 64.380295 -63.327474 97.600842
v 64.378762 -63.325942 97.604087
v 64.378224 -63.325403 97.607914
v 64.378224 -63.325403 97.702914
v 64.367617 -63.314797 97.702914
v 64.367617 -63.314797 97.607914
v 64.368219 -63.315399 97.601443
v 64.369985 -63.317165 97.595414
v 64.372795 -63.319974 97.590236
v 64.376456 -63.323636 97.586263
v 64.380719 -63.327899 97.583765
v 64.385295 -63.332474 97.582914
v 64.491361 -63.226408 97.582914
v 64.486785 -63.221833 97.583765
v 64.482522 -63.217570 97.586263
v 64.478861 -63.213908 97.590236
v 64.476051 -63.211099 97.595414
v 64.474285 -63.209333 97.601443
v 64.473683 -63.208731 97.607914
v 64.473683 -63.208731 97.702914
v 64.484290 -63.219337 97.702914
v 64.484290 -63.219337 97.607914
v 64.484828 -63.219876 97.604087
v 64.486361 -63.221408 97.600842
v 64.488655 -63.223702 97.598675
v 64.491361 -63.226408 97.597914
v 64.538737 -63.273785 97.597914
v 64.541443 -63.276491 97.598675
v 64.543737 -63.278785 97.600842
v 64.545270 -63.280317 97.604087
v 64.435622 -63.276735 97.598675
v 64.433328 -63.274441 97.600842
v 64.431795 -63.272909 97.604087
v 64.492237 -63.333350 97.604087
v 64.490704 -63.331818 97.600842
v 64.488410 -63.329524 97.598675
v 64.484127 -63.500928 97.650425
v 64.486751 -63.500605 97.650425
v 64.489199 -63.499605 97.650425
v 64.489199 -63.499605 97.656425
v 64.486751 -63.500605 97.656425
v 64.484127 -63.500928 97.656425
v 64.484127 -63.500928 97.658425
v 64.486751 -63.500605 97.658425
v 64.489199 -63.499605 97.658425
v 64.488255 -63.500082 98.046126
v 64.484664 -63.500919 98.049257
v 64.481013 -63.500398 98.051470
v 64.477800 -63.498589 98.052463
v 64.477800 -63.498589 97.618364
v 64.481013 -63.500398 97.619357
v 64.484664 -63.500919 97.621570
v 64.488255 -63.500082 97.624701
v 64.489199 -63.499605 97.632425
v 64.486751 -63.500605 97.632425
v 64.484127 -63.500928 97.632425
v 64.484127 -63.500928 97.634425
v 64.486751 -63.500605 97.634425
v 64.489199 -63.499605 97.634425
v 64.489199 -63.499605 97.640425
v 64.486751 -63.500605 97.640425
v 64.484127 -63.500928 97.640425
v 64.484127 -63.500928 97.642425
v 64.486751 -63.500605 97.642425
v 64.489199 -63.499605 97.642425
v 64.489199 -63.499605 97.648425
v 64.486751 -63.500605 97.648425
v 64.484127 -63.500928 97.648425
v 64.484664 -63.500919 97.690714
v 64.484664 -63.500919 97.763064
v 64.484664 -63.500919 97.835414
v 64.484664 -63.500919 97.907763
v 64.484664 -63.500919 97.980113
v 64.481013 -63.500398 97.980113
v 64.481013 -63.500398 97.907763
v 64.481013 -63.500398 97.835414
v 64.481013 -63.500398 97.763064
v 64.481013 -63.500398 97.690714
v 64.488255 -63.500082 97.690714
v 64.488255 -63.500082 97.763064
v 64.488255 -63.500082 97.835414
v 64.488255 -63.500082 97.907763
v 64.488255 -63.500082 97.980113
v 64.657475 -63.318913 97.618364
v 64.659284 -63.322127 97.619357
v 64.659805 -63.325777 97.621570
v 64.658968 -63.329369 97.624701
v 64.615067 -63.366343 97.619357
v 64.570149 -63.411262 97.619357
v 64.525230 -63.456181 97.619357
v 64.617153 -63.368429 97.621570
v 64.572234 -63.413348 97.621570
v 64.527316 -63.458267 97.621570
v 64.618530 -63.369806 97.624701
v 64.573611 -63.414725 97.624701
v 64.528693 -63.459644 97.624701
v 64.658968 -63.329369 98.046126
v 64.659805 -63.325777 98.049257
v 64.659284 -63.322127 98.051470
v 64.657475 -63.318913 98.052463
v 64.618530 -63.369806 98.046126
v 64.573611 -63.414725 98.046126
v 64.528693 -63.459644 98.046126
v 64.617153 -63.368429 98.049257
v 64.572234 -63.413348 98.049257
v 64.527316 -63.458267 98.049257
v 64.615067 -63.366343 98.051470
v 64.570149 -63.411262 98.051470
v 64.525230 -63.456181 98.051470
v 64.658492 -63.330312 97.650425
v 64.659491 -63.327865 97.650425
v 64.659814 -63.325241 97.650425
v 64.659814 -63.325241 97.648425
v 64.659491 -63.327865 97.648425
v 64.658492 -63.330312 97.648425
v 64.658492 -63.330312 97.642425
v 64.659491 -63.327865 97.642425
v 64.659814 -63.325241 97.642425
v 64.659814 -63.325241 97.640425
v 64.659491 -63.327865 97.640425
v 64.658492 -63.330312 97.640425
v 64.658492 -63.330312 97.634425
v 64.659491 -63.327865 97.634425
v 64.659814 -63.325241 97.634425
v 64.659814 -63.325241 97.632425
v 64.659491 -63.327865 97.632425
v 64.658492 -63.330312 97.632425
v 64.658492 -63.330312 97.658425
v 64.659491 -63.327865 97.658425
v 64.659814 -63.325241 97.658425
v 64.659814 -63.325241 97.656425
v 64.659491 -63.327865 97.656425
v 64.658492 -63.330312 97.656425
v 64.659284 -63.322127 97.690714
v 64.659284 -63.322127 97.763064
v 64.659284 -63.322127 97.835414
v 64.659284 -63.322127 97.907763
v 64.659284 -63.322127 97.980113
v 64.659805 -63.325777 97.980113
v 64.659805 -63.325777 97.907763
v 64.659805 -63.325777 97.835414
v 64.659805 -63.325777 97.763064
v 64.659805 -63.325777 97.690714
v 64.658968 -63.329369 97.980113
v 64.658968 -63.329369 97.907763
v 64.658968 -63.329369 97.835414
v 64.658968 -63.329369 97.763064
v 64.658968 -63.329369 97.690714
v 64.407922 -63.439955 97.610414
v 64.407922 -63.439955 98.060414
v 64.348560 -63.369209 98.052365
v 64.348560 -63.369209 97.940772
v 64.335655 -63.353830 97.935414
v 64.335655 -63.353830 97.735414
v 64.348560 -63.369209 97.730055
v 64.348560 -63.369209 97.618462
v 64.598841 -63.249036 97.610414
v 64.528096 -63.189674 97.730055
v 64.528096 -63.189674 97.618462
v 64.512716 -63.176769 97.735414
v 64.512716 -63.176769 97.935414
v 64.528096 -63.189674 97.940772
v 64.528096 -63.189674 98.052365
v 64.598841 -63.249036 98.060414
v 64.625004 -63.360052 97.707532
v 64.625004 -63.360052 97.693980
v 64.518938 -63.466118 97.713782
v 64.518938 -63.466118 97.715705
v 64.605966 -63.379089 97.777634
v 64.518938 -63.466118 97.839413
v 64.518938 -63.466118 97.841366
v 64.625004 -63.360052 97.861288
v 64.625004 -63.360052 97.847766
v 64.548684 -63.436372 97.833403
v 64.625004 -63.360052 97.779256
v 64.625004 -63.360052 97.776222
v 64.548514 -63.436542 97.721865
v 64.529816 -63.455239 97.888211
v 64.518938 -63.466118 97.888211
v 64.518938 -63.466118 97.980518
v 64.627723 -63.357332 97.901672
v 64.623198 -63.361858 97.890044
v 64.529816 -63.455239 97.957742
vt 0.031262 0.017912 0.000000
vt 0.037262 0.017912 0.000000
vt 0.031262 0.252088 0.000000
vt 0.037262 0.252088 0.000000
vt 0.029262 0.252088 0.000000
vt 0.023262 0.252088 0.000000
vt 0.029262 0.017912 0.000000
vt 0.023262 0.017912 0.000000
vt 0.021262 0.252088 0.000000
vt 0.015262 0.252088 0.000000
vt 0.021262 0.017912 0.000000
vt 0.015262 0.017912 0.000000
vt 0.039262 0.017912 0.000000
vt 0.074818 0.060000 0.000000
vt 0.039262 0.252088 0.000000
vt 0.094619 0.210000 0.000000
vt 0.096542 0.210000 0.000000
vt 0.423339 0.017912 0.000000
vt 0.282510 0.056154 0.000000
vt 0.228604 0.060000 0.000000
vt 0.160094 0.060000 0.000000
vt 0.214241 0.167933 0.000000
vt 0.361356 0.210000 0.000000
vt 0.423339 0.252088 0.000000
vt 0.269048 0.210000 0.000000
vt 0.222203 0.210000 0.000000
vt 0.269048 0.194615 0.000000
vt 0.242125 0.060000 0.000000
vt 0.270881 0.062554 0.000000
vt 0.220250 0.210000 0.000000
vt 0.158471 0.086923 0.000000
vt 0.102702 0.168173 0.000000
vt 0.088369 0.060000 0.000000
vt 0.157059 0.060000 0.000000
vt 0.338580 0.194615 0.000000
vt 0.013262 0.252088 0.000000
vt 0.009163 0.252088 0.000000
vt 0.013262 0.017912 0.000000
vt 0.009163 0.017912 0.000000
vt -0.003812 -0.010000 0.000000
vt -0.002497 -0.024938 0.000000
vt -0.000000 -0.010000 0.000000
vt 0.004440 -0.024603 0.000000
vt 0.003827 -0.009239 0.000000
vt 0.011032 -0.022434 0.000000
vt 0.016773 -0.018538 0.000000
vt 0.007071 -0.007071 0.000000
vt 0.021222 -0.013214 0.000000
vt 0.009239 -0.003827 0.000000
vt 0.024037 -0.006872 0.000000
vt 0.010000 -0.000000 0.000000
vt 0.025000 -0.000000 0.000000
vt 0.010000 0.067000 0.000000
vt 0.025000 0.067000 0.000000
vt 0.024148 0.073470 0.000000
vt 0.009239 0.070827 0.000000
vt 0.021651 0.079500 0.000000
vt 0.007071 0.074071 0.000000
vt 0.017678 0.084678 0.000000
vt 0.012500 0.088651 0.000000
vt 0.003827 0.076239 0.000000
vt 0.006470 0.091148 0.000000
vt 0.000000 0.077000 0.000000
vt 0.000000 0.092000 0.000000
vt -0.095000 0.077000 0.000000
vt -0.095000 0.092000 0.000000
vt 0.003812 -0.010000 0.000000
vt 0.000000 -0.010000 0.000000
vt 0.002497 -0.024938 0.000000
vt -0.004440 -0.024603 0.000000
vt -0.003827 -0.009239 0.000000
vt -0.011032 -0.022434 0.000000
vt -0.016773 -0.018538 0.000000
vt -0.007071 -0.007071 0.000000
vt -0.021222 -0.013214 0.000000
vt -0.009239 -0.003827 0.000000
vt -0.024037 -0.006872 0.000000
vt -0.010000 -0.000000 0.000000
vt -0.025000 -0.000000 0.000000
vt -0.025000 0.067000 0.000000
vt -0.010000 0.067000 0.000000
vt -0.024148 0.073470 0.000000
vt -0.009239 0.070827 0.000000
vt -0.021651 0.079500 0.000000
vt -0.007071 0.074071 0.000000
vt -0.017678 0.084678 0.000000
vt -0.012500 0.088651 0.000000
vt -0.003827 0.076239 0.000000
vt -0.006470 0.091148 0.000000
vt -0.000000 0.077000 0.000000
vt -0.000000 0.092000 0.000000
vt 0.095000 0.077000 0.000000
vt 0.095000 0.092000 0.000000
vt 0.000000 0.015708 0.000000
vt 0.150000 0.015708 0.000000
vt 0.075000 0.019635 0.000000
vt 0.150000 0.019635 0.000000
vt 0.075000 0.023562 0.000000
vt 0.150000 0.023562 0.000000
vt 0.075000 0.027489 0.000000
vt 0.150000 0.027489 0.000000
vt 0.150000 0.031416 0.000000
vt -0.000000 0.031416 0.000000
vt -0.000000 0.027489 0.000000
vt 0.000000 0.023562 0.000000
vt -0.000000 0.019635 0.000000
vt 0.067000 0.150000 0.000000
vt 0.000000 0.150000 0.000000
vt 0.067000 -0.000000 0.000000
vt 0.000000 -0.000000 0.000000
vt -0.000000 -0.031416 0.000000
vt 0.150000 -0.031416 0.000000
vt 0.075000 -0.027489 0.000000
vt 0.150000 -0.027489 0.000000
vt 0.075000 -0.023562 0.000000
vt 0.150000 -0.023562 0.000000
vt 0.075000 -0.019635 0.000000
vt 0.150000 -0.019635 0.000000
vt 0.150000 -0.015708 0.000000
vt 0.000000 -0.015708 0.000000
vt 0.000000 -0.019635 0.000000
vt -0.000000 -0.023562 0.000000
vt 0.000000 -0.027489 0.000000
vt 0.095000 0.150000 0.000000
vt 0.000000 0.150000 0.000000
vt 0.095000 -0.000000 0.000000
vt 0.000000 -0.000000 0.000000
vt 0.015000 0.150000 0.000000
vt 0.000000 0.150000 0.000000
vt 0.015000 -0.000000 0.000000
vt 0.000000 -0.000000 0.000000
vt 0.095000 0.150000 0.000000
vt -0.000000 0.150000 0.000000
vt 0.095000 0.000000 0.000000
vt 0.000000 -0.000000 0.000000
vt -0.000000 -0.039270 0.000000
vt -0.150000 -0.039270 0.000000
vt -0.000000 -0.045815 0.000000
vt -0.150000 -0.045815 0.000000
vt 0.000000 -0.052360 0.000000
vt -0.150000 -0.052360 0.000000
vt -0.000000 -0.058905 0.000000
vt -0.150000 -0.058905 0.000000
vt -0.000000 -0.065450 0.000000
vt -0.150000 -0.065450 0.000000
vt -0.000000 -0.071995 0.000000
vt -0.150000 -0.071995 0.000000
vt 0.000000 -0.078540 0.000000
vt -0.150000 -0.078540 0.000000
vt 0.067000 0.150000 0.000000
vt 0.000000 0.150000 0.000000
vt 0.067000 0.000000 0.000000
vt 0.000000 -0.000000 0.000000
vt 0.000000 -0.078540 0.000000
vt -0.150000 -0.078540 0.000000
vt 0.000000 -0.085501 0.000000
vt -0.150000 -0.085501 0.000000
vt 0.000000 -0.092462 0.000000
vt -0.150000 -0.092462 0.000000
vt 0.000000 -0.099423 0.000000
vt -0.150000 -0.099423 0.000000
vt 0.000000 -0.106385 0.000000
vt -0.150000 -0.106385 0.000000
vt 0.000000 -0.113346 0.000000
vt -0.150000 -0.113346 0.000000
vt -0.000000 -0.120304 0.000000
vt -0.150000 -0.120304 0.000000
vt -0.000000 0.003812 0.000000
vt -0.150000 0.003812 0.000000
vt 0.000000 0.000000 0.000000
vt -0.150000 -0.000000 0.000000
vt 0.000000 -0.078540 0.000000
vt -0.150000 -0.078540 0.000000
vt -0.000000 -0.085501 0.000000
vt -0.150000 -0.085501 0.000000
vt -0.000000 -0.092462 0.000000
vt -0.150000 -0.092462 0.000000
vt 0.000000 -0.099423 0.000000
vt -0.150000 -0.099423 0.000000
vt 0.000000 -0.106385 0.000000
vt -0.150000 -0.106385 0.000000
vt 0.000000 -0.113346 0.000000
vt -0.150000 -0.113346 0.000000
vt 0.000000 -0.120304 0.000000
vt -0.150000 -0.120304 0.000000
vt 0.000000 -0.000000 0.000000
vt -0.003812 -0.000000 0.000000
vt 0.000000 -0.150000 0.000000
vt -0.003812 -0.150000 0.000000
vt 0.010000 0.003812 0.000000
vt 0.010000 -0.000000 0.000000
vt 0.024938 0.002497 0.000000
vt 0.024603 -0.004440 0.000000
vt 0.009239 -0.003827 0.000000
vt 0.022434 -0.011032 0.000000
vt 0.018538 -0.016773 0.000000
vt 0.007071 -0.007071 0.000000
vt 0.013214 -0.021222 0.000000
vt 0.003827 -0.009239 0.000000
vt 0.006872 -0.024037 0.000000
vt -0.000000 -0.010000 0.000000
vt -0.000000 -0.025000 0.000000
vt -0.067000 -0.010000 0.000000
vt -0.067000 -0.025000 0.000000
vt -0.073470 -0.024148 0.000000
vt -0.070827 -0.009239 0.000000
vt -0.079500 -0.021651 0.000000
vt -0.074071 -0.007071 0.000000
vt -0.084678 -0.017678 0.000000
vt -0.088651 -0.012500 0.000000
vt -0.076239 -0.003827 0.000000
vt -0.091148 -0.006470 0.000000
vt -0.077000 0.000000 0.000000
vt -0.092000 0.000000 0.000000
vt -0.092000 0.095000 0.000000
vt -0.077000 0.095000 0.000000
vt -0.010000 0.003812 0.000000
vt -0.024938 0.002497 0.000000
vt -0.010000 -0.000000 0.000000
vt -0.024603 -0.004440 0.000000
vt -0.009239 -0.003827 0.000000
vt -0.022434 -0.011032 0.000000
vt -0.018538 -0.016773 0.000000
vt -0.007071 -0.007071 0.000000
vt -0.013214 -0.021222 0.000000
vt -0.003827 -0.009239 0.000000
vt -0.006872 -0.024037 0.000000
vt 0.000000 -0.010000 0.000000
vt 0.000000 -0.025000 0.000000
vt 0.067000 -0.010000 0.000000
vt 0.067000 -0.025000 0.000000
vt 0.073470 -0.024148 0.000000
vt 0.070827 -0.009239 0.000000
vt 0.079500 -0.021651 0.000000
vt 0.074071 -0.007071 0.000000
vt 0.084678 -0.017678 0.000000
vt 0.088651 -0.012500 0.000000
vt 0.076239 -0.003827 0.000000
vt 0.091148 -0.006470 0.000000
vt 0.077000 0.000000 0.000000
vt 0.092000 0.000000 0.000000
vt 0.077000 0.095000 0.000000
vt 0.092000 0.095000 0.000000
vt -0.067000 -0.150000 0.000000
vt -0.000000 -0.150000 0.000000
vt -0.067000 0.000000 0.000000
vt 0.000000 -0.000000 0.000000
vt 0.000000 -0.039270 0.000000
vt -0.150000 -0.039270 0.000000
vt 0.000000 -0.045815 0.000000
vt -0.150000 -0.045815 0.000000
vt -0.000000 -0.052360 0.000000
vt -0.150000 -0.052360 0.000000
vt 0.000000 -0.058905 0.000000
vt -0.150000 -0.058905 0.000000
vt 0.000000 -0.065450 0.000000
vt -0.150000 -0.065450 0.000000
vt 0.000000 -0.071995 0.000000
vt -0.150000 -0.071995 0.000000
vt 0.000000 -0.078540 0.000000
vt -0.150000 -0.078540 0.000000
vt 0.150000 0.000000 0.000000
vt 0.000000 0.000000 0.000000
vt 0.150000 -0.095000 0.000000
vt 0.000000 -0.095000 0.000000
vt -0.150000 -0.000000 0.000000
vt -0.000000 0.000000 0.000000
vt -0.150000 0.015000 0.000000
vt -0.000000 0.015000 0.000000
vt -0.095000 -0.150000 0.000000
vt -0.000000 -0.150000 0.000000
vt -0.095000 0.000000 0.000000
vt 0.000000 -0.000000 0.000000
vt -0.000000 -0.031416 0.000000
vt 0.150000 -0.031416 0.000000
vt 0.075000 -0.027489 0.000000
vt 0.150000 -0.027489 0.000000
vt 0.075000 -0.023562 0.000000
vt 0.150000 -0.023562 0.000000
vt 0.075000 -0.019635 0.000000
vt 0.150000 -0.019635 0.000000
vt 0.150000 -0.015708 0.000000
vt -0.000000 -0.015708 0.000000
vt -0.000000 -0.019635 0.000000
vt 0.000000 -0.023562 0.000000
vt -0.000000 -0.027489 0.000000
vt -0.150000 -0.000000 0.000000
vt -0.000000 0.000000 0.000000
vt -0.150000 0.067000 0.000000
vt -0.000000 0.067000 0.000000
vt 0.000000 0.015708 0.000000
vt 0.150000 0.015708 0.000000
vt 0.075000 0.019635 0.000000
vt 0.150000 0.019635 0.000000
vt 0.075000 0.023562 0.000000
vt 0.150000 0.023562 0.000000
vt 0.075000 0.027489 0.000000
vt 0.150000 0.027489 0.000000
vt 0.150000 0.031416 0.000000
vt -0.000000 0.031416 0.000000
vt 0.000000 0.027489 0.000000
vt -0.000000 0.023562 0.000000
vt 0.000000 0.019635 0.000000
vt -0.031262 0.010405 0.000000
vt -0.037262 0.007754 0.000000
vt -0.031262 0.007754 0.000000
vt -0.000195 0.004581 0.000000
vt -0.029262 0.007754 0.000000
vt -0.023262 0.007754 0.000000
vt -0.023262 0.010405 0.000000
vt -0.037262 0.010405 0.000000
vt -0.031262 0.013057 0.000000
vt -0.037262 0.013057 0.000000
vt -0.037262 0.015708 0.000000
vt -0.031262 0.015708 0.000000
vt -0.071551 0.004581 0.000000
vt -0.039262 0.007754 0.000000
vt -0.071551 0.008290 0.000000
vt -0.039262 0.010405 0.000000
vt -0.071551 0.011999 0.000000
vt -0.039262 0.013057 0.000000
vt -0.143901 0.011999 0.000000
vt -0.423339 0.015708 0.000000
vt -0.216251 0.011999 0.000000
vt -0.288601 0.011999 0.000000
vt -0.216251 0.008290 0.000000
vt -0.288601 0.008290 0.000000
vt -0.216251 0.004581 0.000000
vt -0.288601 0.004581 0.000000
vt -0.433301 0.000873 0.000000
vt -0.360951 0.004581 0.000000
vt -0.432308 0.004581 0.000000
vt -0.430095 0.008290 0.000000
vt -0.360951 0.008290 0.000000
vt -0.426963 0.011999 0.000000
vt -0.360951 0.011999 0.000000
vt -0.039262 0.015708 0.000000
vt 0.000799 0.000873 0.000000
vt -0.143901 0.004581 0.000000
vt -0.143901 0.008290 0.000000
vt -0.002407 0.008290 0.000000
vt -0.013262 0.007754 0.000000
vt -0.015262 0.007754 0.000000
vt -0.021262 0.007754 0.000000
vt -0.015262 0.010405 0.000000
vt -0.021262 0.010405 0.000000
vt -0.015262 0.013057 0.000000
vt -0.021262 0.013057 0.000000
vt -0.021262 0.015708 0.000000
vt -0.015262 0.015708 0.000000
vt -0.013262 0.010405 0.000000
vt -0.005539 0.011999 0.000000
vt -0.013262 0.013057 0.000000
vt -0.009163 0.015708 0.000000
vt -0.013262 0.015708 0.000000
vt -0.029262 0.010405 0.000000
vt -0.023262 0.013057 0.000000
vt -0.029262 0.013057 0.000000
vt -0.029262 0.015708 0.000000
vt -0.023262 0.015708 0.000000
vt -0.008943 0.004581 0.000000
vt -0.071475 0.004581 0.000000
vt -0.007950 0.000873 0.000000
vt -0.135000 0.004581 0.000000
vt -0.262050 0.000873 0.000000
vt -0.198525 0.004581 0.000000
vt -0.261057 0.004581 0.000000
vt -0.258844 0.008290 0.000000
vt -0.198525 0.008290 0.000000
vt -0.255712 0.011999 0.000000
vt -0.198525 0.011999 0.000000
vt -0.252088 0.015708 0.000000
vt -0.135000 0.011999 0.000000
vt -0.017912 0.015708 0.000000
vt -0.071475 0.011999 0.000000
vt -0.014288 0.011999 0.000000
vt -0.071475 0.008290 0.000000
vt -0.011156 0.008290 0.000000
vt -0.135000 0.008290 0.000000
vt -0.014288 0.019417 0.000000
vt -0.071475 0.019417 0.000000
vt -0.017912 0.015708 0.000000
vt -0.135000 0.019417 0.000000
vt -0.252088 0.015708 0.000000
vt -0.198525 0.019417 0.000000
vt -0.255712 0.019417 0.000000
vt -0.198525 0.023126 0.000000
vt -0.258844 0.023126 0.000000
vt -0.198525 0.026834 0.000000
vt -0.261057 0.026834 0.000000
vt -0.262050 0.030543 0.000000
vt -0.135000 0.026834 0.000000
vt -0.007950 0.030543 0.000000
vt -0.071475 0.026834 0.000000
vt -0.008943 0.026834 0.000000
vt -0.011156 0.023126 0.000000
vt -0.071475 0.023126 0.000000
vt -0.135000 0.023126 0.000000
vt 0.403989 0.015708 0.000000
vt 0.409989 0.015708 0.000000
vt 0.403989 0.018359 0.000000
vt 0.409989 0.018359 0.000000
vt 0.409989 0.021011 0.000000
vt 0.403989 0.021011 0.000000
vt 0.409989 0.023662 0.000000
vt 0.403989 0.023662 0.000000
vt 0.441057 0.026834 0.000000
vt 0.369700 0.026834 0.000000
vt 0.442050 0.030543 0.000000
vt 0.297350 0.026834 0.000000
vt 0.225000 0.026834 0.000000
vt 0.297350 0.023126 0.000000
vt 0.225000 0.023126 0.000000
vt 0.297350 0.019417 0.000000
vt 0.225000 0.019417 0.000000
vt 0.401989 0.015708 0.000000
vt 0.017912 0.015708 0.000000
vt 0.152650 0.019417 0.000000
vt 0.080300 0.019417 0.000000
vt 0.080300 0.023126 0.000000
vt 0.014288 0.019417 0.000000
vt 0.011156 0.023126 0.000000
vt 0.080300 0.026834 0.000000
vt 0.008943 0.026834 0.000000
vt 0.007950 0.030543 0.000000
vt 0.152650 0.026834 0.000000
vt 0.411989 0.023662 0.000000
vt 0.417989 0.023662 0.000000
vt 0.419989 0.023662 0.000000
vt 0.411989 0.021011 0.000000
vt 0.417989 0.021011 0.000000
vt 0.411989 0.018359 0.000000
vt 0.417989 0.018359 0.000000
vt 0.417989 0.015708 0.000000
vt 0.411989 0.015708 0.000000
vt 0.425989 0.023662 0.000000
vt 0.419989 0.021011 0.000000
vt 0.425989 0.021011 0.000000
vt 0.419989 0.018359 0.000000
vt 0.425989 0.018359 0.000000
vt 0.425989 0.015708 0.000000
vt 0.419989 0.015708 0.000000
vt 0.427989 0.023662 0.000000
vt 0.438844 0.023126 0.000000
vt 0.427989 0.021011 0.000000
vt 0.435712 0.019417 0.000000
vt 0.427989 0.018359 0.000000
vt 0.432088 0.015708 0.000000
vt 0.427989 0.015708 0.000000
vt 0.369700 0.019417 0.000000
vt 0.401989 0.018359 0.000000
vt 0.401989 0.021011 0.000000
vt 0.369700 0.023126 0.000000
vt 0.401989 0.023662 0.000000
vt 0.152650 0.023126 0.000000
vt 0.091219 -0.442050 0.000000
vt 0.091219 -0.007950 0.000000
vt -0.000000 -0.450000 0.000000
vt -0.000000 0.000000 0.000000
vt -0.441951 -0.020076 0.000000
vt -0.450000 -0.112428 0.000000
vt -0.330359 -0.020076 0.000000
vt -0.000000 -0.112428 0.000000
vt -0.119641 -0.020076 0.000000
vt -0.008049 -0.020076 0.000000
vt -0.125000 0.000000 0.000000
vt -0.325000 -0.000000 0.000000
vt -0.000000 0.000000 0.000000
vt 0.007950 -0.091219 0.000000
vt 0.060000 0.000062 0.000000
vt 0.262050 -0.091219 0.000000
vt 0.210000 0.000062 0.000000
vt 0.270000 -0.000000 0.000000
vt -0.261951 -0.000000 0.000000
vt -0.008049 -0.000000 0.000000
vt -0.261951 0.111592 0.000000
vt -0.008049 0.111592 0.000000
vt 0.020706 0.261951 0.000000
vt 0.000000 0.260201 0.000000
vt 0.020706 0.008049 0.000000
vt 0.000000 0.009799 0.000000
vt -0.260201 -0.000000 0.000000
vt -0.009799 -0.000000 0.000000
vt -0.260201 0.200000 0.000000
vt -0.009799 0.200000 0.000000
vt -0.261951 -0.000000 0.000000
vt -0.008049 -0.000000 0.000000
vt -0.260201 0.020706 0.000000
vt -0.009799 0.020706 0.000000
vt -0.261951 -0.000000 0.000000
vt -0.008049 -0.000000 0.000000
vt -0.261951 0.111592 0.000000
vt -0.008049 0.111592 0.000000
vt -0.270000 0.100382 0.000000
vt -0.262050 0.009163 0.000000
vt -0.210000 0.100444 0.000000
vt -0.007950 0.009163 0.000000
vt -0.060000 0.100444 0.000000
vt -0.000000 0.100382 0.000000
vt 0.008049 0.092351 0.000000
vt -0.000000 0.000000 0.000000
vt 0.119641 0.092351 0.000000
vt 0.450000 0.000000 0.000000
vt 0.330359 0.092351 0.000000
vt 0.441951 0.092351 0.000000
vt 0.325000 0.112428 0.000000
vt 0.125000 0.112428 0.000000
vt -0.007950 -0.009163 0.000000
vt -0.442050 -0.009163 0.000000
vt 0.000000 -0.100382 0.000000
vt -0.450000 -0.100382 0.000000
vt 0.077294 0.210000 0.000000
vt -0.000000 0.008049 0.000000
vt 0.077294 0.060000 0.000000
vt 0.092351 0.000000 0.000000
vt 0.092290 0.060000 0.000000
vt 0.092290 0.210000 0.000000
vt 0.092351 0.270000 0.000000
vt -0.000000 0.261951 0.000000
vt -0.060000 0.015057 0.000000
vt -0.261951 0.092351 0.000000
vt -0.210000 0.015057 0.000000
vt -0.270000 -0.000000 0.000000
vt -0.210000 0.000062 0.000000
vt -0.060000 0.000062 0.000000
vt 0.000000 0.000000 0.000000
vt -0.008049 0.092351 0.000000
vt 0.003000 -0.000000 0.000000
vt 0.000000 0.000000 0.000000
vt 0.003000 -0.013552 0.000000
vt -0.000000 -0.013552 0.000000
vt 0.151301 0.003000 0.000000
vt -0.000000 0.003000 0.000000
vt 0.151301 0.000000 0.000000
vt 0.000000 0.000000 0.000000
vt -0.003000 -0.000000 0.000000
vt 0.000000 0.000000 0.000000
vt -0.003000 0.001923 0.000000
vt -0.000000 0.001923 0.000000
vt 0.137779 0.003000 0.000000
vt -0.000000 0.003000 0.000000
vt 0.137779 -0.000000 0.000000
vt 0.000000 0.000000 0.000000
vt 0.137712 0.003000 0.000000
vt -0.000000 0.003000 0.000000
vt 0.137712 0.000000 0.000000
vt 0.000000 0.000000 0.000000
vt -0.003000 -0.000000 0.000000
vt 0.000000 0.000000 0.000000
vt -0.003000 0.001953 0.000000
vt -0.000000 0.001953 0.000000
vt 0.151317 0.003000 0.000000
vt -0.000000 0.003000 0.000000
vt 0.151317 -0.000000 0.000000
vt 0.000000 0.000000 0.000000
vt 0.003000 -0.000000 0.000000
vt 0.000000 0.000000 0.000000
vt 0.003000 -0.013522 0.000000
vt -0.000000 -0.013522 0.000000
vt 0.108884 0.003000 0.000000
vt -0.000000 0.003000 0.000000
vt 0.108884 -0.000000 0.000000
vt -0.000000 0.000000 0.000000
vt 0.120753 0.003000 0.000000
vt 0.000000 0.003000 0.000000
vt 0.120753 0.000000 0.000000
vt 0.000000 0.000000 0.000000
vt 0.003000 -0.000000 0.000000
vt 0.000000 0.000000 0.000000
vt 0.003000 -0.003035 0.000000
vt -0.000000 -0.003035 0.000000
vt 0.121062 0.003000 0.000000
vt -0.000000 0.003000 0.000000
vt 0.121062 0.000000 0.000000
vt -0.000000 0.000000 0.000000
vt 0.109119 0.003000 0.000000
vt 0.000000 0.003000 0.000000
vt 0.109119 -0.000000 0.000000
vt 0.000000 0.000000 0.000000
vt 0.097118 0.035000 0.000000
vt 0.111451 0.143173 0.000000
vt 0.083566 0.035000 0.000000
vt 0.103368 0.185000 0.000000
vt 0.105291 0.185000 0.000000
vt 0.167220 0.061923 0.000000
vt 0.165808 0.035000 0.000000
vt 0.168843 0.035000 0.000000
vt 0.222990 0.142933 0.000000
vt 0.228999 0.185000 0.000000
vt 0.230952 0.185000 0.000000
vt 0.250874 0.035000 0.000000
vt 0.237353 0.035000 0.000000
vt 0.003000 -0.017912 0.000000
vt 0.002651 -0.015292 0.000000
vt 0.003000 -0.252088 0.000000
vt 0.002651 -0.254708 0.000000
vt 0.001627 -0.012855 0.000000
vt 0.001627 -0.257145 0.000000
vt -0.000000 -0.259229 0.000000
vt -0.000000 -0.010771 0.000000
vt 0.000000 -0.010771 0.000000
vt -0.001627 -0.012855 0.000000
vt 0.000000 -0.259229 0.000000
vt -0.001627 -0.257145 0.000000
vt -0.002651 -0.254708 0.000000
vt -0.002651 -0.015292 0.000000
vt -0.003000 -0.252088 0.000000
vt -0.003000 -0.017912 0.000000
vt 0.001000 -0.010771 0.000000
vt -0.001000 -0.010771 0.000000
vt 0.001000 -0.259229 0.000000
vt -0.001000 -0.259229 0.000000
vt -0.003000 -0.000000 0.000000
vt 0.000000 -0.000000 0.000000
vt -0.003000 0.015385 0.000000
vt -0.000000 0.015385 0.000000
vt -0.003000 -0.000000 0.000000
vt 0.000000 0.000000 0.000000
vt -0.003000 0.092308 0.000000
vt -0.000000 0.092308 0.000000
vt 0.172874 0.003000 0.000000
vt -0.000000 0.003000 0.000000
vt 0.172874 -0.000000 0.000000
vt 0.000000 0.000000 0.000000
vt 0.013274 0.003000 0.000000
vt -0.000000 0.003000 0.000000
vt 0.013274 -0.000000 0.000000
vt -0.000000 0.000000 0.000000
vt 0.148402 0.003000 0.000000
vt -0.000000 0.003000 0.000000
vt 0.148402 -0.000000 0.000000
vt 0.000000 0.000000 0.000000
vt 0.003000 -0.000000 0.000000
vt 0.000000 0.000000 0.000000
vt 0.003000 -0.069531 0.000000
vt -0.000000 -0.069531 0.000000
vt 0.277797 0.169615 0.000000
vt 0.347328 0.169615 0.000000
vt 0.277797 0.185000 0.000000
vt 0.370105 0.185000 0.000000
vt 0.291259 0.031154 0.000000
vt 0.279630 0.037554 0.000000
vt 0.003000 -0.017912 0.000000
vt 0.002651 -0.015292 0.000000
vt 0.003000 -0.252088 0.000000
vt 0.002651 -0.254708 0.000000
vt 0.001627 -0.012855 0.000000
vt 0.001627 -0.257145 0.000000
vt -0.000000 -0.259229 0.000000
vt -0.000000 -0.010771 0.000000
vt 0.000000 -0.010771 0.000000
vt -0.001627 -0.012855 0.000000
vt 0.000000 -0.259229 0.000000
vt -0.001627 -0.257145 0.000000
vt -0.002651 -0.254708 0.000000
vt -0.002651 -0.015292 0.000000
vt -0.003000 -0.252088 0.000000
vt -0.003000 -0.017912 0.000000
vt 0.001000 -0.010771 0.000000
vt -0.001000 -0.010771 0.000000
vt 0.001000 -0.259229 0.000000
vt -0.001000 -0.259229 0.000000
vt 0.003000 -0.017912 0.000000
vt 0.002651 -0.015292 0.000000
vt 0.003000 -0.252088 0.000000
vt 0.002651 -0.254708 0.000000
vt 0.001627 -0.012855 0.000000
vt 0.001627 -0.257145 0.000000
vt -0.000000 -0.259229 0.000000
vt -0.000000 -0.010771 0.000000
vt 0.000000 -0.010771 0.000000
vt -0.001627 -0.012855 0.000000
vt 0.000000 -0.259229 0.000000
vt -0.001627 -0.257145 0.000000
vt -0.002651 -0.254708 0.000000
vt -0.002651 -0.015292 0.000000
vt -0.003000 -0.252088 0.000000
vt -0.003000 -0.017912 0.000000
vt 0.001000 -0.010771 0.000000
vt -0.001000 -0.010771 0.000000
vt 0.001000 -0.259229 0.000000
vt -0.001000 -0.259229 0.000000
vt 0.003000 -0.017912 0.000000
vt 0.002651 -0.015292 0.000000
vt 0.003000 -0.252088 0.000000
vt 0.002651 -0.254708 0.000000
vt 0.001627 -0.012855 0.000000
vt 0.001627 -0.257145 0.000000
vt -0.000000 -0.259229 0.000000
vt -0.000000 -0.010771 0.000000
vt 0.000000 -0.010771 0.000000
vt -0.001627 -0.012855 0.000000
vt 0.000000 -0.259229 0.000000
vt -0.001627 -0.257145 0.000000
vt -0.002651 -0.254708 0.000000
vt -0.002651 -0.015292 0.000000
vt -0.003000 -0.252088 0.000000
vt -0.003000 -0.017912 0.000000
vt 0.001000 -0.010771 0.000000
vt -0.001000 -0.010771 0.000000
vt 0.001000 -0.259229 0.000000
vt -0.001000 -0.259229 0.000000
vn 0.707107 -0.707107 0.000000
vn 0.707107 -0.707107 0.000000
vn 0.707107 -0.707107 0.000000
vn 0.707107 -0.707107 0.000000
vn 0.707107 -0.707107 0.000000
vn 0.707107 -0.707107 0.000000
vn 0.707107 -0.707107 0.000000
vn 0.707107 -0.707107 0.000000
vn 0.707107 -0.707107 0.000000
vn 0.707107 -0.707107 0.000000
vn 0.707107 -0.707107 0.000000
vn 0.707107 -0.707107 0.000000
vn 0.707107 -0.707107 0.000000
vn 0.707107 -0.707107 0.000000
vn 0.707107 -0.707107 0.000000
vn 0.707107 -0.707107 0.000000
vn 0.707107 -0.707107 0.000000
vn 0.707107 -0.707107 0.000000
vn 0.707107 -0.707107 0.000000
vn 0.707107 -0.707107 0.000000
vn 0.707107 -0.707107 0.000000
vn 0.707107 -0.707107 0.000000
vn 0.707107 -0.707107 0.000000
vn 0.707107 -0.707107 0.000000
vn 0.707107 -0.707107 0.000000
vn 0.707107 -0.707107 0.000000
vn 0.707107 -0.707107 0.000000
vn 0.707107 -0.707107 0.000000
vn 0.707107 -0.707107 0.000000
vn 0.707107 -0.707107 0.000000
vn 0.707107 -0.707107 0.000000
vn 0.707107 -0.707107 0.000000
vn 0.707107 -0.707107 0.000000
vn 0.707107 -0.707107 0.000000
vn 0.707107 -0.707107 0.000000
vn 0.707107 -0.707107 0.000000
vn 0.707107 -0.707107 0.000000
vn 0.707107 -0.707107 0.000000
vn 0.707107 -0.707107 0.000000
vn -0.707107 -0.707107 -0.000000
vn -0.707107 -0.707107 -0.000000
vn -0.707107 -0.707107 -0.000000
vn -0.707107 -0.707107 -0.000000
vn -0.707107 -0.707107 -0.000000
vn -0.707107 -0.707107 -0.000000
vn -0.707107 -0.707107 -0.000000
vn -0.707107 -0.707107 -0.000000
vn -0.707107 -0.707107 -0.000000
vn -0.707107 -0.707107 -0.000000
vn -0.707107 -0.707107 -0.000000
vn -0.707107 -0.707107 -0.000000
vn -0.707107 -0.707107 -0.000000
vn -0.707107 -0.707107 -0.000000
vn -0.707107 -0.707107 -0.000000
vn -0.707107 -0.707107 -0.000000
vn -0.707107 -0.707107 -0.000000
vn -0.707107 -0.707107 -0.000000
vn -0.707107 -0.707107 -0.000000
vn -0.707107 -0.707107 -0.000000
vn -0.707107 -0.707107 -0.000000
vn -0.707107 -0.707107 -0.000000
vn -0.707107 -0.707107 -0.000000
vn -0.707107 -0.707107 -0.000000
vn -0.707107 -0.707107 -0.000000
vn -0.707107 -0.707107 -0.000000
vn -0.707107 -0.707107 -0.000000
vn 0.707107 0.707107 0.000000
vn 0.707107 0.707107 0.000000
vn 0.707107 0.707107 0.000000
vn 0.707107 0.707107 0.000000
vn 0.707107 0.707107 0.000000
vn 0.707107 0.707107 0.000000
vn 0.707107 0.707107 0.000000
vn 0.707107 0.707107 0.000000
vn 0.707107 0.707107 0.000000
vn 0.707107 0.707107 0.000000
vn 0.707107 0.707107 0.000000
vn 0.707107 0.707107 0.000000
vn 0.707107 0.707107 0.000000
vn 0.707107 0.707107 0.000000
vn 0.707107 0.707107 0.000000
vn 0.707107 0.707107 0.000000
vn 0.707107 0.707107 0.000000
vn 0.707107 0.707107 0.000000
vn 0.707107 0.707107 0.000000
vn 0.707107 0.707107 0.000000
vn 0.707107 0.707107 0.000000
vn 0.707107 0.707107 0.000000
vn 0.707107 0.707107 0.000000
vn 0.707107 0.707107 0.000000
vn 0.707107 0.707107 0.000000
vn 0.707107 0.707107 0.000000
vn 0.707107 0.707107 0.000000
vn -0.707107 0.707107 0.000000
vn -0.707107 0.707107 -0.000000
vn -0.653281 0.653281 -0.382683
vn -0.653281 0.653281 -0.382683
vn -0.500000 0.500000 -0.707107
vn -0.500000 0.500000 -0.707107
vn -0.270598 0.270598 -0.923880
vn -0.270598 0.270598 -0.923880
vn 0.000000 -0.000000 -1.000000
vn 0.000000 -0.000000 -1.000000
vn -0.270598 0.270598 -0.923880
vn -0.500000 0.500000 -0.707107
vn -0.653281 0.653281 -0.382683
vn 0.000000 -0.000000 -1.000000
vn 0.000000 -0.000000 -1.000000
vn 0.000000 -0.000000 -1.000000
vn 0.270598 -0.270598 -0.923880
vn 0.270598 -0.270598 -0.923880
vn 0.500000 -0.500000 -0.707107
vn 0.500000 -0.500000 -0.707107
vn 0.653281 -0.653281 -0.382683
vn 0.653281 -0.653281 -0.382683
vn 0.707107 -0.707107 -0.000000
vn 0.707107 -0.707107 0.000000
vn 0.653281 -0.653281 -0.382683
vn 0.500000 -0.500000 -0.707107
vn 0.270598 -0.270598 -0.923880
vn 0.707107 -0.707107 0.000000
vn 0.707107 -0.707107 0.000000
vn 0.000000 -0.000000 -1.000000
vn 0.000000 -0.000000 -1.000000
vn 0.000000 -0.000000 -1.000000
vn 0.000000 -0.000000 -1.000000
vn -0.707107 0.707107 -0.000000
vn -0.707107 0.707107 -0.000000
vn -0.707107 0.707107 -0.000000
vn -0.707107 0.707107 -0.000000
vn -0.683013 0.683013 0.258819
vn -0.683013 0.683013 0.258819
vn -0.612372 0.612372 0.500000
vn -0.612372 0.612372 0.500000
vn -0.500000 0.500000 0.707107
vn -0.500000 0.500000 0.707107
vn -0.353553 0.353553 0.866025
vn -0.353553 0.353553 0.866025
vn -0.183013 0.183013 0.965926
vn -0.183013 0.183013 0.965926
vn -0.000000 0.000000 1.000000
vn -0.000000 0.000000 1.000000
vn -0.000000 0.000000 1.000000
vn -0.000000 0.000000 1.000000
vn -0.000000 0.000000 1.000000
vn 0.194358 -0.194358 0.961483
vn 0.194358 -0.194358 0.961483
vn 0.373744 -0.373744 0.848900
vn 0.373744 -0.373744 0.848900
vn 0.524339 -0.524339 0.670922
vn 0.524339 -0.524339 0.670922
vn 0.634542 -0.634542 0.441261
vn 0.634542 -0.634542 0.441261
vn 0.695865 -0.695865 0.177609
vn 0.695865 -0.695865 0.177609
vn 0.703590 -0.703590 -0.099615
vn 0.703590 -0.703590 -0.099615
vn -0.707107 0.707107 -0.000000
vn -0.707107 0.707107 -0.000000
vn 0.000000 0.000000 -1.000000
vn -0.000000 0.000000 -1.000000
vn 0.194358 -0.194358 -0.961483
vn 0.194358 -0.194358 -0.961483
vn 0.373744 -0.373744 -0.848900
vn 0.373744 -0.373744 -0.848900
vn 0.524339 -0.524339 -0.670922
vn 0.524339 -0.524339 -0.670922
vn 0.634542 -0.634542 -0.441261
vn 0.634542 -0.634542 -0.441261
vn 0.695865 -0.695865 -0.177609
vn 0.695865 -0.695865 -0.177609
vn 0.703590 -0.703590 0.099615
vn 0.703590 -0.703590 0.099615
vn -0.707107 0.707107 -0.000000
vn -0.707107 0.707107 -0.000000
vn -0.707107 0.707107 -0.000000
vn -0.707107 0.707107 -0.000000
vn -0.707107 -0.707107 -0.000000
vn -0.707107 -0.707107 -0.000000
vn -0.707107 -0.707107 -0.000000
vn -0.707107 -0.707107 -0.000000
vn -0.707107 -0.707107 -0.000000
vn -0.707107 -0.707107 -0.000000
vn -0.707107 -0.707107 -0.000000
vn -0.707107 -0.707107 -0.000000
vn -0.707107 -0.707107 -0.000000
vn -0.707107 -0.707107 -0.000000
vn -0.707107 -0.707107 -0.000000
vn -0.707107 -0.707107 -0.000000
vn -0.707107 -0.707107 -0.000000
vn -0.707107 -0.707107 -0.000000
vn -0.707107 -0.707107 -0.000000
vn -0.707107 -0.707107 -0.000000
vn -0.707107 -0.707107 -0.000000
vn -0.707107 -0.707107 -0.000000
vn -0.707107 -0.707107 -0.000000
vn -0.707107 -0.707107 -0.000000
vn -0.707107 -0.707107 -0.000000
vn -0.707107 -0.707107 -0.000000
vn -0.707107 -0.707107 -0.000000
vn -0.707107 -0.707107 -0.000000
vn -0.707107 -0.707107 -0.000000
vn -0.707107 -0.707107 -0.000000
vn -0.707107 -0.707107 -0.000000
vn 0.707107 0.707107 0.000000
vn 0.707107 0.707107 0.000000
vn 0.707107 0.707107 0.000000
vn 0.707107 0.707107 0.000000
vn 0.707107 0.707107 0.000000
vn 0.707107 0.707107 0.000000
vn 0.707107 0.707107 0.000000
vn 0.707107 0.707107 0.000000
vn 0.707107 0.707107 0.000000
vn 0.707107 0.707107 0.000000
vn 0.707107 0.707107 0.000000
vn 0.707107 0.707107 0.000000
vn 0.707107 0.707107 0.000000
vn 0.707107 0.707107 0.000000
vn 0.707107 0.707107 0.000000
vn 0.707107 0.707107 0.000000
vn 0.707107 0.707107 0.000000
vn 0.707107 0.707107 0.000000
vn 0.707107 0.707107 0.000000
vn 0.707107 0.707107 0.000000
vn 0.707107 0.707107 0.000000
vn 0.707107 0.707107 0.000000
vn 0.707107 0.707107 0.000000
vn 0.707107 0.707107 0.000000
vn 0.707107 0.707107 0.000000
vn 0.707107 0.707107 0.000000
vn 0.707107 0.707107 0.000000
vn 0.000000 -0.000000 -1.000000
vn 0.000000 -0.000000 -1.000000
vn -0.707107 0.707107 0.000000
vn -0.707107 0.707107 -0.000000
vn -0.683013 0.683013 -0.258819
vn -0.683013 0.683013 -0.258819
vn -0.612372 0.612372 -0.500000
vn -0.612372 0.612372 -0.500000
vn -0.500000 0.500000 -0.707107
vn -0.500000 0.500000 -0.707107
vn -0.353553 0.353553 -0.866025
vn -0.353553 0.353553 -0.866025
vn -0.183013 0.183013 -0.965926
vn -0.183013 0.183013 -0.965926
vn -0.707107 0.707107 -0.000000
vn -0.707107 0.707107 -0.000000
vn -0.000000 0.000000 1.000000
vn -0.000000 0.000000 1.000000
vn -0.000000 0.000000 1.000000
vn -0.000000 0.000000 1.000000
vn 0.707107 -0.707107 0.000000
vn 0.707107 -0.707107 0.000000
vn 0.707107 -0.707107 0.000000
vn 0.707107 -0.707107 0.000000
vn -0.000000 0.000000 1.000000
vn -0.000000 0.000000 1.000000
vn 0.270598 -0.270598 0.923880
vn 0.270598 -0.270598 0.923880
vn 0.500000 -0.500000 0.707107
vn 0.500000 -0.500000 0.707107
vn 0.653281 -0.653281 0.382683
vn 0.653281 -0.653281 0.382683
vn 0.653281 -0.653281 0.382683
vn 0.500000 -0.500000 0.707107
vn 0.270598 -0.270598 0.923880
vn -0.000000 0.000000 1.000000
vn -0.000000 0.000000 1.000000
vn -0.653281 0.653281 0.382683
vn -0.653281 0.653281 0.382683
vn -0.500000 0.500000 0.707107
vn -0.500000 0.500000 0.707107
vn -0.270598 0.270598 0.923880
vn -0.270598 0.270598 0.923880
vn -0.270598 0.270598 0.923880
vn -0.500000 0.500000 0.707107
vn -0.653281 0.653281 0.382683
vn 0.252373 -0.967630 0.000000
vn -0.010001 -0.999950 0.000000
vn -0.010001 -0.999950 0.000000
vn -0.321439 -0.946930 0.000000
vn -0.010001 -0.999950 0.000000
vn -0.010001 -0.999950 0.000000
vn 0.252373 -0.967630 0.000000
vn 0.252373 -0.967630 0.000000
vn 0.497110 -0.867687 0.000000
vn 0.497110 -0.867687 0.000000
vn -0.321439 -0.946930 0.000000
vn -0.010001 -0.999950 0.000000
vn 0.043619 -0.999048 0.000000
vn 0.252373 -0.967630 0.000000
vn 0.402747 -0.915311 0.000000
vn 0.497110 -0.867687 0.000000
vn 0.402747 -0.915311 0.000000
vn 0.402747 -0.915311 0.000000
vn 0.402747 -0.915311 0.000000
vn 0.043619 -0.999048 0.000000
vn 0.043619 -0.999048 0.000000
vn -0.321439 -0.946930 0.000000
vn -0.321439 -0.946930 0.000000
vn -0.642788 -0.766044 -0.000000
vn -0.321439 -0.946930 0.000000
vn -0.321439 -0.946930 0.000000
vn 0.043619 -0.999048 0.000000
vn 0.043619 -0.999048 0.000000
vn 0.402747 -0.915311 0.000000
vn 0.402747 -0.915311 0.000000
vn -0.642788 -0.766044 -0.000000
vn -0.321439 -0.946930 0.000000
vn 0.043619 -0.999048 0.000000
vn 0.043619 -0.999048 0.000000
vn -0.010001 -0.999950 0.000000
vn -0.010001 -0.999950 0.000000
vn -0.010001 -0.999950 0.000000
vn 0.252373 -0.967630 0.000000
vn 0.252373 -0.967630 0.000000
vn 0.497110 -0.867687 0.000000
vn 0.497110 -0.867687 0.000000
vn 0.252373 -0.967630 0.000000
vn 0.402747 -0.915311 0.000000
vn 0.497110 -0.867687 0.000000
vn 0.252373 -0.967630 0.000000
vn 0.497110 -0.867687 0.000000
vn 0.497110 -0.867687 0.000000
vn 0.312745 -0.312745 -0.896873
vn 0.312745 -0.312745 -0.896873
vn 0.061628 -0.061628 -0.996195
vn 0.312745 -0.312745 -0.896873
vn 0.061628 -0.061628 -0.996195
vn 0.312745 -0.312745 -0.896873
vn 0.312745 -0.312745 -0.896873
vn 0.521334 -0.521334 -0.675590
vn 0.521334 -0.521334 -0.675590
vn 0.659029 -0.659029 -0.362438
vn 0.659029 -0.659029 -0.362438
vn 0.659029 -0.659029 -0.362438
vn 0.659029 -0.659029 -0.362438
vn 0.659029 -0.659029 -0.362438
vn 0.521334 -0.521334 -0.675590
vn 0.521334 -0.521334 -0.675590
vn 0.521334 -0.521334 -0.675590
vn 0.659029 -0.659029 0.362438
vn 0.659029 -0.659029 0.362438
vn 0.659029 -0.659029 0.362438
vn 0.659029 -0.659029 0.362438
vn 0.659029 -0.659029 0.362438
vn 0.521334 -0.521334 0.675590
vn 0.521334 -0.521334 0.675590
vn 0.312745 -0.312745 0.896873
vn 0.312745 -0.312745 0.896873
vn 0.061628 -0.061628 0.996195
vn 0.312745 -0.312745 0.896873
vn 0.061628 -0.061628 0.996195
vn 0.312745 -0.312745 0.896873
vn 0.312745 -0.312745 0.896873
vn 0.521334 -0.521334 0.675590
vn 0.521334 -0.521334 0.675590
vn 0.521334 -0.521334 0.675590
vn 0.707107 -0.707107 0.000000
vn 0.707107 -0.707107 0.000000
vn 0.867687 -0.497110 0.000000
vn 0.867687 -0.497110 0.000000
vn 0.967630 -0.252373 0.000000
vn 0.967630 -0.252373 0.000000
vn 0.999950 0.010001 0.000000
vn 0.999950 0.010001 0.000000
vn 0.946930 0.321439 0.000000
vn 0.946930 0.321439 0.000000
vn 0.766044 0.642788 0.000000
vn 0.946930 0.321439 0.000000
vn 0.946930 0.321439 0.000000
vn 0.999048 -0.043619 0.000000
vn 0.999048 -0.043619 0.000000
vn 0.915311 -0.402747 0.000000
vn 0.915311 -0.402747 0.000000
vn 0.707107 -0.707107 0.000000
vn 0.915311 -0.402747 0.000000
vn 0.915311 -0.402747 0.000000
vn 0.999048 -0.043619 0.000000
vn 0.915311 -0.402747 0.000000
vn 0.999048 -0.043619 0.000000
vn 0.946930 0.321439 0.000000
vn 0.946930 0.321439 0.000000
vn 0.766044 0.642788 0.000000
vn 0.946930 0.321439 0.000000
vn 0.999950 0.010001 0.000000
vn 0.999950 0.010001 0.000000
vn 0.999950 0.010001 0.000000
vn 0.967630 -0.252373 0.000000
vn 0.967630 -0.252373 0.000000
vn 0.867687 -0.497110 0.000000
vn 0.867687 -0.497110 0.000000
vn 0.707107 -0.707107 0.000000
vn 0.707107 -0.707107 0.000000
vn 0.999950 0.010001 0.000000
vn 0.967630 -0.252373 0.000000
vn 0.967630 -0.252373 0.000000
vn 0.867687 -0.497110 0.000000
vn 0.867687 -0.497110 0.000000
vn 0.707107 -0.707107 0.000000
vn 0.707107 -0.707107 0.000000
vn 0.999950 0.010001 0.000000
vn 0.999048 -0.043619 0.000000
vn 0.967630 -0.252373 0.000000
vn 0.915311 -0.402747 0.000000
vn 0.867687 -0.497110 0.000000
vn 0.707107 -0.707107 0.000000
vn 0.707107 -0.707107 0.000000
vn 0.915311 -0.402747 0.000000
vn 0.867687 -0.497110 0.000000
vn 0.967630 -0.252373 0.000000
vn 0.999048 -0.043619 0.000000
vn 0.999950 0.010001 0.000000
vn 0.999048 -0.043619 0.000000
vn -0.642788 -0.766044 -0.000000
vn -0.642788 -0.766044 -0.000000
vn -0.642788 -0.766044 -0.000000
vn -0.766044 -0.642788 -0.000000
vn -0.766044 -0.642788 -0.000000
vn -0.766044 -0.642788 -0.000000
vn -0.766044 -0.642788 -0.000000
vn -0.766044 -0.642788 -0.000000
vn -0.766044 -0.642788 -0.000000
vn -0.766044 -0.642788 -0.000000
vn -0.766044 -0.642788 -0.000000
vn 0.061628 -0.061628 -0.996195
vn 0.061628 -0.061628 -0.996195
vn 0.061628 -0.061628 -0.996195
vn 0.061628 -0.061628 -0.996195
vn 0.061628 -0.061628 -0.996195
vn 0.061628 -0.061628 -0.996195
vn -0.707107 0.707107 -0.000000
vn -0.707107 0.707107 -0.000000
vn -0.707107 0.707107 -0.000000
vn -0.707107 0.707107 -0.000000
vn -0.183013 0.183013 -0.965926
vn -0.183013 0.183013 -0.965926
vn -0.183013 0.183013 -0.965926
vn -0.183013 0.183013 -0.965926
vn -0.707107 0.707107 -0.000000
vn -0.707107 0.707107 -0.000000
vn -0.707107 0.707107 -0.000000
vn -0.707107 0.707107 -0.000000
vn -0.183013 0.183013 0.965926
vn -0.183013 0.183013 0.965926
vn -0.183013 0.183013 0.965926
vn -0.183013 0.183013 0.965926
vn -0.707107 0.707107 -0.000000
vn -0.707107 0.707107 -0.000000
vn -0.707107 0.707107 -0.000000
vn -0.707107 0.707107 -0.000000
vn 0.061628 -0.061628 0.996195
vn 0.061628 -0.061628 0.996195
vn 0.061628 -0.061628 0.996195
vn 0.061628 -0.061628 0.996195
vn 0.642788 0.766044 0.000000
vn 0.642788 0.766044 0.000000
vn 0.642788 0.766044 0.000000
vn 0.642788 0.766044 0.000000
vn 0.642788 0.766044 0.000000
vn 0.642788 0.766044 0.000000
vn 0.642788 0.766044 0.000000
vn 0.642788 0.766044 0.000000
vn 0.766044 0.642788 0.000000
vn 0.766044 0.642788 0.000000
vn 0.766044 0.642788 0.000000
vn 0.766044 0.642788 0.000000
vn -0.061628 0.061628 -0.996195
vn -0.061628 0.061628 -0.996195
vn -0.061628 0.061628 -0.996195
vn -0.061628 0.061628 -0.996195
vn -0.061628 0.061628 -0.996195
vn -0.061628 0.061628 -0.996195
vn -0.061628 0.061628 -0.996195
vn -0.061628 0.061628 -0.996195
vn -0.061628 0.061628 0.996195
vn -0.061628 0.061628 0.996195
vn -0.061628 0.061628 0.996195
vn -0.061628 0.061628 0.996195
vn -0.061628 0.061628 0.996195
vn -0.061628 0.061628 0.996195
vn -0.061628 0.061628 0.996195
vn -0.061628 0.061628 0.996195
vn -0.707107 -0.707107 -0.000000
vn -0.707107 -0.707107 -0.000000
vn -0.707107 -0.707107 -0.000000
vn -0.707107 -0.707107 -0.000000
vn 0.092543 0.092543 0.991399
vn 0.092543 0.092543 0.991399
vn 0.092543 0.092543 0.991399
vn 0.092543 0.092543 0.991399
vn 0.707107 0.707107 0.000000
vn 0.707107 0.707107 0.000000
vn 0.707107 0.707107 0.000000
vn 0.707107 0.707107 0.000000
vn 0.317831 0.317831 -0.893290
vn 0.317831 0.317831 -0.893290
vn 0.317831 0.317831 -0.893290
vn 0.317831 0.317831 -0.893290
vn 0.317215 0.317215 0.893728
vn 0.317215 0.317215 0.893728
vn 0.317215 0.317215 0.893728
vn 0.317215 0.317215 0.893728
vn 0.707107 0.707107 0.000000
vn 0.707107 0.707107 0.000000
vn 0.707107 0.707107 0.000000
vn 0.707107 0.707107 0.000000
vn 0.093095 0.093095 -0.991295
vn 0.093095 0.093095 -0.991295
vn 0.093095 0.093095 -0.991295
vn 0.093095 0.093095 -0.991295
vn -0.707107 -0.707107 -0.000000
vn -0.707107 -0.707107 -0.000000
vn -0.707107 -0.707107 -0.000000
vn -0.707107 -0.707107 -0.000000
vn -0.093275 -0.093275 0.991262
vn -0.093275 -0.093275 0.991262
vn -0.093275 -0.093275 0.991262
vn -0.093275 -0.093275 0.991262
vn -0.317072 -0.317072 -0.893829
vn -0.317072 -0.317072 -0.893829
vn -0.317072 -0.317072 -0.893829
vn -0.317072 -0.317072 -0.893829
vn -0.707107 -0.707107 -0.000000
vn -0.707107 -0.707107 -0.000000
vn -0.707107 -0.707107 -0.000000
vn -0.707107 -0.707107 -0.000000
vn -0.317491 -0.317491 0.893532
vn -0.317491 -0.317491 0.893532
vn -0.317491 -0.317491 0.893532
vn -0.317491 -0.317491 0.893532
vn -0.092880 -0.092880 -0.991336
vn -0.092880 -0.092880 -0.991336
vn -0.092880 -0.092880 -0.991336
vn -0.092880 -0.092880 -0.991336
vn 0.707107 -0.707107 0.000000
vn 0.707107 -0.707107 0.000000
vn 0.707107 -0.707107 0.000000
vn 0.707107 -0.707107 0.000000
vn 0.707107 -0.707107 0.000000
vn 0.707107 -0.707107 0.000000
vn 0.707107 -0.707107 0.000000
vn 0.707107 -0.707107 0.000000
vn 0.707107 -0.707107 0.000000
vn 0.707107 -0.707107 0.000000
vn 0.707107 -0.707107 0.000000
vn 0.707107 -0.707107 0.000000
vn 0.707107 -0.707107 0.000000
vn 0.000000 -0.000000 -1.000000
vn 0.000000 -0.000000 -1.000000
vn 0.000000 -0.000000 -1.000000
vn 0.000000 -0.000000 -1.000000
vn 0.000000 -0.000000 -1.000000
vn 0.000000 -0.000000 -1.000000
vn 0.000000 -0.000000 -1.000000
vn 0.000000 -0.000000 -1.000000
vn -0.000000 0.000000 1.000000
vn -0.000000 0.000000 1.000000
vn -0.000000 0.000000 1.000000
vn -0.000000 0.000000 1.000000
vn -0.000000 0.000000 1.000000
vn -0.000000 0.000000 1.000000
vn -0.000000 0.000000 1.000000
vn -0.000000 0.000000 1.000000
vn 0.707107 -0.707107 0.000000
vn 0.707107 -0.707107 0.000000
vn 0.707107 -0.707107 0.000000
vn 0.707107 -0.707107 0.000000
vn -0.000000 0.000000 1.000000
vn -0.000000 0.000000 1.000000
vn -0.000000 0.000000 1.000000
vn -0.000000 0.000000 1.000000
vn 0.707107 0.707107 0.000000
vn 0.707107 0.707107 0.000000
vn 0.707107 0.707107 0.000000
vn 0.707107 0.707107 0.000000
vn -0.322505 -0.322505 -0.889933
vn -0.322505 -0.322505 -0.889933
vn -0.322505 -0.322505 -0.889933
vn -0.322505 -0.322505 -0.889933
vn -0.619477 -0.619477 0.482179
vn -0.619477 -0.619477 0.482179
vn -0.619477 -0.619477 0.482179
vn -0.619477 -0.619477 0.482179
vn 0.322569 0.322569 0.889887
vn 0.322569 0.322569 0.889887
vn 0.322569 0.322569 0.889887
vn 0.322569 0.322569 0.889887
vn -0.707107 -0.707107 -0.000000
vn -0.707107 -0.707107 -0.000000
vn -0.707107 -0.707107 -0.000000
vn -0.707107 -0.707107 -0.000000
vn 0.707107 -0.707107 0.000000
vn 0.707107 -0.707107 0.000000
vn 0.707107 -0.707107 0.000000
vn 0.707107 -0.707107 0.000000
vn 0.707107 -0.707107 0.000000
vn 0.707107 -0.707107 0.000000
vn 0.000000 -0.000000 -1.000000
vn 0.000000 -0.000000 -1.000000
vn 0.000000 -0.000000 -1.000000
vn 0.000000 -0.000000 -1.000000
vn 0.000000 -0.000000 -1.000000
vn 0.000000 -0.000000 -1.000000
vn 0.000000 -0.000000 -1.000000
vn 0.000000 -0.000000 -1.000000
vn -0.000000 0.000000 1.000000
vn -0.000000 0.000000 1.000000
vn -0.000000 0.000000 1.000000
vn -0.000000 0.000000 1.000000
vn -0.000000 0.000000 1.000000
vn -0.000000 0.000000 1.000000
vn -0.000000 0.000000 1.000000
vn -0.000000 0.000000 1.000000
vn 0.707107 -0.707107 0.000000
vn 0.707107 -0.707107 0.000000
vn 0.707107 -0.707107 0.000000
vn 0.707107 -0.707107 0.000000
vn 0.000000 -0.000000 -1.000000
vn 0.000000 -0.000000 -1.000000
vn 0.000000 -0.000000 -1.000000
vn 0.000000 -0.000000 -1.000000
vn 0.000000 -0.000000 -1.000000
vn 0.000000 -0.000000 -1.000000
vn 0.000000 -0.000000 -1.000000
vn 0.000000 -0.000000 -1.000000
vn -0.000000 0.000000 1.000000
vn -0.000000 0.000000 1.000000
vn -0.000000 0.000000 1.000000
vn -0.000000 0.000000 1.000000
vn -0.000000 0.000000 1.000000
vn -0.000000 0.000000 1.000000
vn -0.000000 0.000000 1.000000
vn -0.000000 0.000000 1.000000
vn 0.707107 -0.707107 0.000000
vn 0.707107 -0.707107 0.000000
vn 0.707107 -0.707107 0.000000
vn 0.707107 -0.707107 0.000000
vn 0.000000 -0.000000 -1.000000
vn 0.000000 -0.000000 -1.000000
vn 0.000000 -0.000000 -1.000000
vn 0.000000 -0.000000 -1.000000
vn 0.000000 -0.000000 -1.000000
vn 0.000000 -0.000000 -1.000000
vn 0.000000 -0.000000 -1.000000
vn 0.000000 -0.000000 -1.000000
vn -0.000000 0.000000 1.000000
vn -0.000000 0.000000 1.000000
vn -0.000000 0.000000 1.000000
vn -0.000000 0.000000 1.000000
vn -0.000000 0.000000 1.000000
vn -0.000000 0.000000 1.000000
vn -0.000000 0.000000 1.000000
vn -0.000000 0.000000 1.000000
vn 0.707107 -0.707107 0.000000
vn 0.707107 -0.707107 0.000000
vn 0.707107 -0.707107 0.000000
vn 0.707107 -0.707107 0.000000
usemtl Opaque(202,209,238)
f 2/1/1 3/2/2 1/3/3
f 1/3/3 3/2/2 4/4/4
f 6/5/5 7/6/6 5/7/7
f 5/7/7 7/6/6 8/8/8
f 10/9/9 11/10/10 9/11/11
f 9/11/11 11/10/10 12/12/12
f 14/13/13 19/14/14 13/15/15
f 13/15/15 19/14/14 20/16/16
f 13/15/15 20/16/16 21/17/17
f 15/18/18 34/19/19 14/13/13
f 14/13/13 34/19/19 26/20/20
f 14/13/13 26/20/20 28/21/21
f 28/21/21 26/20/20 27/22/22
f 34/19/19 15/18/18 33/23/23
f 33/23/23 15/18/18 16/24/24
f 33/23/23 16/24/24 32/25/25
f 32/25/25 16/24/24 24/26/26
f 32/25/25 24/26/26 31/27/27
f 31/27/27 24/26/26 25/28/28
f 31/27/27 25/28/28 35/29/29
f 35/29/29 25/28/28 34/19/19
f 34/19/19 25/28/28 26/20/20
f 16/24/24 13/15/15 24/26/26
f 24/26/26 13/15/15 23/30/30
f 23/30/30 13/15/15 21/17/17
f 23/30/30 21/17/17 22/31/31
f 17/32/32 18/33/33 29/34/34
f 29/34/34 18/33/33 14/13/13
f 29/34/34 14/13/13 28/21/21
f 18/33/33 19/14/14 14/13/13
f 30/35/35 31/27/27 35/29/29
f 37/36/36 38/37/37 36/38/38
f 36/38/38 38/37/37 39/39/39
f 41/40/40 42/41/41 40/42/42
f 40/42/42 42/41/41 43/43/43
f 40/42/42 43/43/43 66/44/44
f 66/44/44 43/43/43 44/45/45
f 66/44/44 44/45/45 45/46/46
f 66/44/44 45/46/46 65/47/47
f 65/47/47 45/46/46 46/48/48
f 65/47/47 46/48/48 64/49/49
f 64/49/49 46/48/48 47/50/50
f 64/49/49 47/50/50 63/51/51
f 63/51/51 47/50/50 48/52/52
f 63/51/51 48/52/52 62/53/53
f 62/53/53 48/52/52 49/54/54
f 62/53/53 49/54/54 50/55/55
f 62/53/53 50/55/55 61/56/56
f 61/56/56 50/55/55 51/57/57
f 61/56/56 51/57/57 60/58/58
f 60/58/58 51/57/57 52/59/59
f 60/58/58 52/59/59 53/60/60
f 60/58/58 53/60/60 59/61/61
f 59/61/61 53/60/60 54/62/62
f 59/61/61 54/62/62 58/63/63
f 58/63/63 54/62/62 55/64/64
f 58/63/63 55/64/64 57/65/65
f 57/65/65 55/64/64 56/66/66
f 68/67/67 69/68/68 67/69/69
f 67/69/69 69/68/68 93/70/70
f 93/70/70 69/68/68 70/71/71
f 93/70/70 70/71/71 92/72/72
f 92/72/72 70/71/71 91/73/73
f 91/73/73 70/71/71 71/74/74
f 91/73/73 71/74/74 90/75/75
f 90/75/75 71/74/74 72/76/76
f 90/75/75 72/76/76 89/77/77
f 89/77/77 72/76/76 73/78/78
f 89/77/77 73/78/78 88/79/79
f 88/79/79 73/78/78 87/80/80
f 87/80/80 73/78/78 74/81/81
f 87/80/80 74/81/81 86/82/82
f 86/82/82 74/81/81 75/83/83
f 86/82/82 75/83/83 85/84/84
f 85/84/84 75/83/83 76/85/85
f 85/84/84 76/85/85 84/86/86
f 84/86/86 76/85/85 83/87/87
f 83/87/87 76/85/85 77/88/88
f 83/87/87 77/88/88 82/89/89
f 82/89/89 77/88/88 78/90/90
f 82/89/89 78/90/90 81/91/91
f 81/91/91 78/90/90 79/92/92
f 81/91/91 79/92/92 80/93/93
f 69/94/94 40/95/95 94/96/96
f 94/96/96 40/95/95 66/97/97
f 94/96/96 66/97/97 95/98/98
f 95/98/98 66/97/97 65/99/99
f 95/98/98 65/99/99 96/100/100
f 96/100/100 65/99/99 64/101/101
f 96/100/100 64/101/101 63/102/102
f 63/102/102 73/103/103 96/100/100
f 96/100/100 73/103/103 72/104/104
f 96/100/100 72/104/104 95/98/98
f 95/98/98 72/104/104 71/105/105
f 95/98/98 71/105/105 94/96/96
f 94/96/96 71/105/105 70/106/106
f 94/96/96 70/106/106 69/94/94
f 63/107/107 62/108/108 73/109/103
f 73/109/103 62/108/108 74/110/109
f 74/111/109 62/112/108 97/113/110
f 97/113/110 62/112/108 61/114/111
f 97/113/110 61/114/111 98/115/112
f 98/115/112 61/114/111 60/116/113
f 98/115/112 60/116/113 99/117/114
f 99/117/114 60/116/113 59/118/115
f 99/117/114 59/118/115 58/119/116
f 58/119/116 78/120/117 99/117/114
f 99/117/114 78/120/117 77/121/118
f 99/117/114 77/121/118 98/115/112
f 98/115/112 77/121/118 76/122/119
f 98/115/112 76/122/119 97/113/110
f 97/113/110 76/122/119 75/123/120
f 97/113/110 75/123/120 74/111/109
f 58/124/116 57/125/121 78/126/117
f 78/126/117 57/125/121 79/127/122
f 57/128/123 56/129/124 79/130/125
f 79/130/125 56/129/124 80/131/126
f 56/132/127 55/133/128 80/134/129
f 80/134/129 55/133/128 81/135/130
f 81/136/130 55/137/128 82/138/131
f 82/138/131 55/137/128 54/139/132
f 82/138/131 54/139/132 83/140/133
f 83/140/133 54/139/132 53/141/134
f 83/140/133 53/141/134 84/142/135
f 84/142/135 53/141/134 52/143/136
f 84/142/135 52/143/136 85/144/137
f 85/144/137 52/143/136 51/145/138
f 85/144/137 51/145/138 86/146/139
f 86/146/139 51/145/138 50/147/140
f 86/146/139 50/147/140 87/148/141
f 87/148/141 50/147/140 49/149/142
f 49/150/142 48/151/143 87/152/141
f 87/152/141 48/151/143 88/153/144
f 88/154/144 48/155/145 89/156/146
f 89/156/146 48/155/145 47/157/147
f 89/156/146 47/157/147 90/158/148
f 90/158/148 47/157/147 46/159/149
f 90/158/148 46/159/149 91/160/150
f 91/160/150 46/159/149 45/161/151
f 91/160/150 45/161/151 92/162/152
f 92/162/152 45/161/151 44/163/153
f 92/162/152 44/163/153 93/164/154
f 93/164/154 44/163/153 43/165/155
f 93/164/154 43/165/155 67/166/156
f 67/166/156 43/165/155 42/167/157
f 68/168/158 41/169/159 69/170/94
f 69/170/94 41/169/159 40/171/95
f 113/172/160 100/173/161 112/174/162
f 112/174/162 100/173/161 101/175/163
f 112/174/162 101/175/163 111/176/164
f 111/176/164 101/175/163 102/177/165
f 111/176/164 102/177/165 110/178/166
f 110/178/166 102/177/165 103/179/167
f 110/178/166 103/179/167 109/180/168
f 109/180/168 103/179/167 104/181/169
f 109/180/168 104/181/169 108/182/170
f 108/182/170 104/181/169 105/183/171
f 108/182/170 105/183/171 107/184/172
f 107/184/172 105/183/171 106/185/173
f 114/186/174 115/187/175 117/188/176
f 117/188/176 115/187/175 116/189/177
f 115/190/178 114/191/179 107/192/180
f 107/192/180 114/191/179 108/193/181
f 108/193/181 114/191/179 118/194/182
f 108/193/181 118/194/182 109/195/183
f 109/195/183 118/194/182 110/196/184
f 110/196/184 118/194/182 119/197/185
f 110/196/184 119/197/185 111/198/186
f 111/198/186 119/197/185 120/199/187
f 111/198/186 120/199/187 112/200/188
f 112/200/188 120/199/187 121/201/189
f 112/200/188 121/201/189 113/202/190
f 113/202/190 121/201/189 122/203/191
f 113/202/190 122/203/191 135/204/192
f 135/204/192 122/203/191 134/205/193
f 134/205/193 122/203/191 123/206/194
f 134/205/193 123/206/194 133/207/195
f 133/207/195 123/206/194 124/208/196
f 133/207/195 124/208/196 132/209/197
f 132/209/197 124/208/196 131/210/198
f 131/210/198 124/208/196 125/211/199
f 131/210/198 125/211/199 130/212/200
f 130/212/200 125/211/199 126/213/201
f 130/212/200 126/213/201 129/214/202
f 129/214/202 126/213/201 128/215/203
f 128/215/203 126/213/201 127/216/204
f 116/217/205 106/218/206 117/219/207
f 117/219/207 106/218/206 105/220/208
f 117/219/207 105/220/208 153/221/209
f 153/221/209 105/220/208 104/222/210
f 153/221/209 104/222/210 103/223/211
f 153/221/209 103/223/211 152/224/212
f 152/224/212 103/223/211 102/225/213
f 152/224/212 102/225/213 151/226/214
f 151/226/214 102/225/213 101/227/215
f 151/226/214 101/227/215 150/228/216
f 150/228/216 101/227/215 100/229/217
f 150/228/216 100/229/217 149/230/218
f 149/230/218 100/229/217 136/231/219
f 149/230/218 136/231/219 137/232/220
f 149/230/218 137/232/220 148/233/221
f 148/233/221 137/232/220 138/234/222
f 148/233/221 138/234/222 147/235/223
f 147/235/223 138/234/222 139/236/224
f 147/235/223 139/236/224 140/237/225
f 147/235/223 140/237/225 146/238/226
f 146/238/226 140/237/225 141/239/227
f 146/238/226 141/239/227 145/240/228
f 145/240/228 141/239/227 142/241/229
f 145/240/228 142/241/229 144/242/230
f 144/242/230 142/241/229 143/243/231
f 136/244/232 100/245/161 135/246/233
f 135/246/233 100/245/161 113/247/160
f 129/248/234 142/249/235 130/250/236
f 130/250/236 142/249/235 141/251/237
f 130/250/236 141/251/237 131/252/238
f 131/252/238 141/251/237 140/253/239
f 131/252/238 140/253/239 132/254/240
f 132/254/240 140/253/239 139/255/241
f 132/254/240 139/255/241 133/256/242
f 133/256/242 139/255/241 138/257/243
f 133/256/242 138/257/243 134/258/244
f 134/258/244 138/257/243 137/259/245
f 134/258/244 137/259/245 135/260/233
f 135/260/233 137/259/245 136/261/232
f 142/262/235 129/263/234 143/264/246
f 143/264/246 129/263/234 128/265/247
f 143/266/248 128/267/249 144/268/250
f 144/268/250 128/267/249 127/269/251
f 145/270/252 144/271/253 126/272/254
f 126/272/254 144/271/253 127/273/255
f 122/274/256 149/275/257 154/276/258
f 154/276/258 149/275/257 148/277/259
f 154/276/258 148/277/259 155/278/260
f 155/278/260 148/277/259 147/279/261
f 155/278/260 147/279/261 156/280/262
f 156/280/262 147/279/261 146/281/263
f 156/280/262 146/281/263 145/282/252
f 145/282/252 126/283/254 156/280/262
f 156/280/262 126/283/254 125/284/264
f 156/280/262 125/284/264 155/278/260
f 155/278/260 125/284/264 124/285/265
f 155/278/260 124/285/265 154/276/258
f 154/276/258 124/285/265 123/286/266
f 154/276/258 123/286/266 122/274/256
f 149/287/257 122/288/256 150/289/267
f 150/289/267 122/288/256 121/290/268
f 114/291/174 117/292/176 157/293/269
f 157/293/269 117/292/176 153/294/270
f 157/293/269 153/294/270 158/295/271
f 158/295/271 153/294/270 152/296/272
f 158/295/271 152/296/272 159/297/273
f 159/297/273 152/296/272 151/298/274
f 159/297/273 151/298/274 150/299/267
f 150/299/267 121/300/268 159/297/273
f 159/297/273 121/300/268 120/301/275
f 159/297/273 120/301/275 158/295/271
f 158/295/271 120/301/275 119/302/276
f 158/295/271 119/302/276 157/293/269
f 157/293/269 119/302/276 118/303/277
f 157/293/269 118/303/277 114/291/174
f 161/304/278 165/305/279 160/306/280
f 160/306/280 165/305/279 174/307/281
f 160/306/280 174/307/281 191/308/282
f 191/308/282 174/307/281 186/309/283
f 191/308/282 186/309/283 187/310/284
f 165/305/279 161/304/278 164/311/285
f 164/311/285 161/304/278 162/312/286
f 164/311/285 162/312/286 163/313/287
f 163/313/287 162/312/286 4/314/4
f 4/314/4 162/312/286 1/315/3
f 174/307/281 165/305/279 201/316/288
f 201/316/288 165/305/279 166/317/289
f 201/316/288 166/317/289 192/318/290
f 192/318/290 166/317/289 167/319/291
f 192/318/290 167/319/291 202/320/292
f 202/320/292 167/319/291 168/321/293
f 202/320/292 168/321/293 203/322/294
f 203/322/294 168/321/293 16/323/24
f 203/322/294 16/323/24 204/324/295
f 204/324/295 16/323/24 205/325/296
f 204/324/295 205/325/296 194/326/297
f 194/326/297 205/325/296 195/327/298
f 194/326/297 195/327/298 199/328/299
f 199/328/299 195/327/298 198/329/300
f 199/328/299 198/329/300 172/330/301
f 172/330/301 198/329/300 197/331/302
f 172/330/301 197/331/302 171/332/303
f 171/332/303 197/331/302 170/333/304
f 170/333/304 197/331/302 196/334/305
f 170/333/304 196/334/305 169/335/306
f 169/335/306 196/334/305 206/336/307
f 169/335/306 206/336/307 16/323/24
f 16/323/24 206/336/307 205/325/296
f 168/321/293 13/337/15 16/323/24
f 172/330/301 173/338/308 199/328/299
f 199/328/299 173/338/308 200/339/309
f 199/328/299 200/339/309 194/326/297
f 194/326/297 200/339/309 193/340/310
f 194/326/297 193/340/310 204/324/295
f 204/324/295 193/340/310 203/322/294
f 200/339/309 173/338/308 201/316/288
f 201/316/288 173/338/308 174/307/281
f 175/341/311 179/342/312 174/307/281
f 174/307/281 179/342/312 180/343/313
f 174/307/281 180/343/313 185/344/314
f 185/344/314 180/343/313 181/345/315
f 185/344/314 181/345/315 184/346/316
f 184/346/316 181/345/315 182/347/317
f 184/346/316 182/347/317 183/348/318
f 183/348/318 182/347/317 10/349/9
f 10/349/9 182/347/317 11/350/10
f 179/342/312 175/341/311 178/351/319
f 178/351/319 175/341/311 176/352/320
f 178/351/319 176/352/320 177/353/321
f 177/353/321 176/352/320 38/354/37
f 177/353/321 38/354/37 37/355/36
f 185/344/314 186/309/283 174/307/281
f 191/308/282 187/310/284 190/356/322
f 190/356/322 187/310/284 188/357/323
f 190/356/322 188/357/323 189/358/324
f 189/358/324 188/357/323 6/359/5
f 6/359/5 188/357/323 7/360/6
f 200/339/309 201/316/288 193/340/310
f 193/340/310 201/316/288 192/318/290
f 193/340/310 192/318/290 203/322/294
f 203/322/294 192/318/290 202/320/292
f 197/331/302 198/329/300 196/334/305
f 196/334/305 198/329/300 195/327/298
f 196/334/305 195/327/298 206/336/307
f 206/336/307 195/327/298 205/325/296
f 208/361/325 211/362/326 207/363/327
f 207/363/327 211/362/326 212/364/328
f 207/363/327 212/364/328 173/365/329
f 173/365/329 212/364/328 213/366/330
f 173/365/329 213/366/330 174/367/331
f 174/367/331 213/366/330 175/368/332
f 175/368/332 213/366/330 216/369/333
f 175/368/332 216/369/333 176/370/334
f 176/370/334 216/369/333 219/371/335
f 176/370/334 219/371/335 38/372/37
f 38/372/37 219/371/335 218/373/336
f 38/372/37 218/373/336 39/374/39
f 39/374/39 218/373/336 217/375/337
f 39/374/39 217/375/337 210/376/338
f 210/376/338 217/375/337 214/377/339
f 210/376/338 214/377/339 209/378/340
f 209/378/340 214/377/339 211/362/326
f 209/378/340 211/362/326 208/361/325
f 216/369/333 213/366/330 212/364/328
f 212/364/328 211/362/326 215/379/341
f 215/379/341 211/362/326 214/377/339
f 215/379/341 214/377/339 218/373/336
f 218/373/336 214/377/339 217/375/337
f 219/371/335 216/369/333 215/379/341
f 215/379/341 216/369/333 212/364/328
f 219/371/335 215/379/341 218/373/336
f 220/380/342 224/381/343 15/382/18
f 15/382/18 224/381/343 225/383/344
f 15/382/18 225/383/344 16/384/24
f 16/384/24 225/383/344 226/385/345
f 16/384/24 226/385/345 169/386/346
f 169/386/346 226/385/345 229/387/347
f 169/386/346 229/387/347 170/388/348
f 170/388/348 229/387/347 232/389/349
f 170/388/348 232/389/349 171/390/350
f 171/390/350 232/389/349 172/391/351
f 172/391/351 232/389/349 231/392/352
f 172/391/351 231/392/352 223/393/353
f 223/393/353 231/392/352 230/394/354
f 223/393/353 230/394/354 222/395/355
f 222/395/355 230/394/354 221/396/356
f 221/396/356 230/394/354 227/397/357
f 221/396/356 227/397/357 220/380/342
f 220/380/342 227/397/357 224/381/343
f 229/387/347 226/385/345 225/383/344
f 225/383/344 224/381/343 228/398/358
f 228/398/358 224/381/343 227/397/357
f 228/398/358 227/397/357 231/392/352
f 231/392/352 227/397/357 230/394/354
f 232/389/349 229/387/347 228/398/358
f 228/398/358 229/387/347 225/383/344
f 232/389/349 228/398/358 231/392/352
f 3/399/359 2/400/360 256/401/361
f 256/401/361 2/400/360 233/402/362
f 256/401/361 233/402/362 234/403/363
f 256/401/361 234/403/363 255/404/364
f 255/404/364 234/403/363 235/405/365
f 255/404/364 235/405/365 254/406/366
f 254/406/366 235/405/365 208/407/367
f 254/406/366 208/407/367 257/408/368
f 257/408/368 208/407/367 207/409/369
f 257/408/368 207/409/369 258/410/370
f 258/410/370 207/409/369 259/411/371
f 258/410/370 259/411/371 265/412/372
f 265/412/372 259/411/371 264/413/373
f 265/412/372 264/413/373 270/414/374
f 270/414/374 264/413/373 269/415/375
f 270/414/374 269/415/375 14/416/376
f 14/416/376 269/415/375 15/417/18
f 15/417/18 269/415/375 268/418/377
f 15/417/18 268/418/377 267/419/378
f 267/419/378 268/418/377 262/420/379
f 267/419/378 262/420/379 220/421/380
f 220/421/380 262/420/379 221/422/381
f 221/422/381 262/420/379 261/423/382
f 221/422/381 261/423/382 222/424/383
f 222/424/383 261/423/382 223/425/384
f 223/425/384 261/423/382 260/426/385
f 223/425/384 260/426/385 259/411/371
f 259/411/371 260/426/385 264/413/373
f 235/405/365 236/427/386 208/407/367
f 208/407/367 236/427/386 241/428/387
f 208/407/367 241/428/387 242/429/388
f 236/427/386 237/430/389 241/428/387
f 241/428/387 237/430/389 240/431/390
f 240/431/390 237/430/389 238/432/391
f 240/431/390 238/432/391 239/433/392
f 239/433/392 238/432/391 8/434/393
f 8/434/393 238/432/391 5/435/394
f 208/407/367 242/429/388 247/436/395
f 247/436/395 242/429/388 243/437/396
f 247/436/395 243/437/396 246/438/397
f 246/438/397 243/437/396 244/439/398
f 246/438/397 244/439/398 245/440/399
f 245/440/399 244/439/398 12/441/400
f 12/441/400 244/439/398 9/442/401
f 247/436/395 248/443/402 208/407/367
f 208/407/367 248/443/402 209/444/403
f 209/444/403 248/443/402 249/445/404
f 209/444/403 249/445/404 210/446/405
f 210/446/405 249/445/404 250/447/406
f 210/446/405 250/447/406 39/448/407
f 39/448/407 250/447/406 36/449/408
f 207/409/369 223/425/384 259/411/371
f 220/421/380 15/417/18 267/419/378
f 270/414/374 14/416/376 271/450/409
f 271/450/409 14/416/376 251/451/410
f 271/450/409 251/451/410 252/452/411
f 271/450/409 252/452/411 266/453/412
f 266/453/412 252/452/411 253/454/413
f 266/453/412 253/454/413 257/408/368
f 257/408/368 253/454/413 254/406/366
f 257/408/368 258/410/370 266/453/412
f 266/453/412 258/410/370 265/412/372
f 266/453/412 265/412/372 271/450/409
f 271/450/409 265/412/372 270/414/374
f 260/426/385 261/423/382 263/455/414
f 263/455/414 261/423/382 262/420/379
f 263/455/414 262/420/379 268/418/377
f 269/415/375 264/413/373 263/455/414
f 263/455/414 264/413/373 260/426/385
f 269/415/375 263/455/414 268/418/377
f 173/456/308 172/457/415 272/458/416
f 272/458/416 172/457/415 273/459/417
f 279/460/418 272/461/419 278/462/420
f 278/462/420 272/461/419 273/463/421
f 278/462/420 273/463/421 275/464/422
f 275/464/422 273/463/421 274/465/423
f 276/466/424 277/467/425 275/464/422
f 275/464/422 277/467/425 278/462/420
f 280/468/426 207/469/427 106/470/428
f 106/470/428 207/469/427 173/471/429
f 106/470/428 173/471/429 107/472/430
f 107/472/430 173/471/429 272/473/431
f 278/474/432 281/475/433 279/476/434
f 279/476/434 281/475/433 282/477/435
f 278/478/436 277/479/437 281/480/438
f 281/480/438 277/479/437 283/481/439
f 276/482/440 284/483/441 277/484/442
f 277/484/442 284/483/441 283/485/443
f 275/486/444 285/487/445 276/488/446
f 276/488/446 285/487/445 284/489/447
f 274/490/448 286/491/449 275/492/450
f 275/492/450 286/491/449 285/493/451
f 273/494/452 172/495/351 42/496/453
f 42/496/453 172/495/351 223/497/353
f 42/496/453 223/497/353 67/498/454
f 67/498/454 223/497/353 287/499/455
f 286/500/456 287/501/457 285/502/458
f 285/502/458 287/501/457 280/503/459
f 285/502/458 280/503/459 281/504/460
f 281/504/460 280/503/459 282/505/461
f 283/506/462 284/507/463 281/504/460
f 281/504/460 284/507/463 285/502/458
f 223/508/464 207/509/465 287/510/466
f 287/510/466 207/509/465 280/511/467
f 115/512/468 282/513/469 116/514/470
f 116/514/470 282/513/469 280/515/471
f 116/514/470 280/515/471 106/516/472
f 107/517/473 272/518/474 115/512/468
f 115/512/468 272/518/474 279/519/475
f 115/512/468 279/519/475 282/513/469
f 68/520/476 274/521/477 41/522/478
f 41/522/478 274/521/477 273/523/479
f 41/522/478 273/523/479 42/524/480
f 67/525/481 287/526/482 68/520/476
f 68/520/476 287/526/482 286/527/483
f 68/520/476 286/527/483 274/521/477
f 18/528/484 288/529/485 19/530/486
f 19/530/486 288/529/485 289/531/487
f 20/532/488 19/533/489 290/534/490
f 290/534/490 19/533/489 289/535/491
f 20/536/492 290/537/493 21/538/494
f 21/538/494 290/537/493 291/539/495
f 22/540/496 21/541/497 292/542/498
f 292/542/498 21/541/497 291/543/499
f 23/544/500 22/545/501 293/546/502
f 293/546/502 22/545/501 292/547/503
f 23/548/504 293/549/505 24/550/506
f 24/550/506 293/549/505 294/551/507
f 25/552/508 24/553/509 295/554/510
f 295/554/510 24/553/509 294/555/511
f 25/556/512 295/557/513 26/558/514
f 26/558/514 295/557/513 296/559/515
f 27/560/516 26/561/517 297/562/518
f 297/562/518 26/561/517 296/563/519
f 28/564/520 27/565/521 298/566/522
f 298/566/522 27/565/521 297/567/523
f 28/568/524 298/569/525 29/570/526
f 29/570/526 298/569/525 299/571/527
f 17/572/528 29/573/529 300/574/530
f 300/574/530 29/573/529 299/575/531
f 18/576/532 17/577/533 288/578/534
f 288/578/534 17/577/533 300/579/535
f 288/580/536 300/581/537 289/582/538
f 289/582/538 300/581/537 290/583/539
f 290/583/539 300/581/537 291/584/540
f 291/584/540 300/581/537 292/585/541
f 292/585/541 300/581/537 299/586/542
f 292/585/541 299/586/542 298/587/543
f 298/587/543 297/588/544 292/585/541
f 292/585/541 297/588/544 293/589/545
f 293/589/545 297/588/544 294/590/546
f 294/590/546 297/588/544 295/591/547
f 295/591/547 297/588/544 296/592/548
f 13/593/549 168/594/550 14/595/551
f 14/595/551 168/594/550 251/596/552
f 251/596/552 168/594/550 167/597/553
f 251/596/552 167/597/553 252/598/554
f 252/598/554 167/597/553 253/599/555
f 253/599/555 167/597/553 166/600/556
f 165/601/557 164/602/558 254/603/559
f 254/603/559 164/602/558 255/604/560
f 255/604/560 164/602/558 256/605/561
f 256/605/561 164/602/558 163/606/562
f 256/605/561 163/606/562 3/607/563
f 3/607/563 163/606/562 4/608/564
f 166/609/565 165/610/566 253/611/567
f 253/611/567 165/610/566 254/612/568
f 31/613/569 301/614/570 32/615/571
f 32/615/571 301/614/570 302/616/572
f 32/617/573 302/618/574 33/619/575
f 33/619/575 302/618/574 303/620/576
f 34/621/577 33/622/578 304/623/579
f 304/623/579 33/622/578 303/624/580
f 35/625/581 34/626/582 305/627/583
f 305/627/583 34/626/582 304/628/584
f 30/629/585 35/630/586 306/631/587
f 306/631/587 35/630/586 305/632/588
f 30/633/589 306/634/590 31/635/591
f 31/635/591 306/634/590 301/636/592
f 301/637/593 306/638/594 302/639/595
f 302/639/595 306/638/594 303/640/596
f 303/640/596 306/638/594 304/641/597
f 304/641/597 306/638/594 305/642/598
f 11/643/599 182/644/600 12/645/601
f 12/645/601 182/644/600 245/646/602
f 245/646/602 182/644/600 181/647/603
f 245/646/602 181/647/603 246/648/604
f 246/648/604 181/647/603 247/649/605
f 247/649/605 181/647/603 180/650/606
f 179/651/607 178/652/608 248/653/609
f 248/653/609 178/652/608 249/654/610
f 249/654/610 178/652/608 250/655/611
f 250/655/611 178/652/608 177/656/612
f 250/655/611 177/656/612 36/657/613
f 36/657/613 177/656/612 37/658/614
f 180/659/615 179/660/616 247/661/617
f 247/661/617 179/660/616 248/662/618
f 7/663/619 188/664/620 8/665/621
f 8/665/621 188/664/620 239/666/622
f 239/666/622 188/664/620 187/667/623
f 239/666/622 187/667/623 240/668/624
f 240/668/624 187/667/623 241/669/625
f 241/669/625 187/667/623 186/670/626
f 185/671/627 184/672/628 242/673/629
f 242/673/629 184/672/628 243/674/630
f 243/674/630 184/672/628 244/675/631
f 244/675/631 184/672/628 183/676/632
f 244/675/631 183/676/632 9/677/633
f 9/677/633 183/676/632 10/678/634
f 186/679/635 185/680/636 241/681/637
f 241/681/637 185/680/636 242/682/638
f 1/683/639 162/684/640 2/685/641
f 2/685/641 162/684/640 233/686/642
f 233/686/642 162/684/640 161/687/643
f 233/686/642 161/687/643 234/688/644
f 234/688/644 161/687/643 235/689/645
f 235/689/645 161/687/643 160/690/646
f 191/691/647 190/692/648 236/693/649
f 236/693/649 190/692/648 237/694/650
f 237/694/650 190/692/648 238/695/651
f 238/695/651 190/692/648 189/696/652
f 238/695/651 189/696/652 5/697/653
f 5/697/653 189/696/652 6/698/654
f 160/699/655 191/700/656 235/701/657
f 235/701/657 191/700/656 236/702/658
# 306 vertices
# 702 texture params
# 658 normals
# 608 facets

# 1 groups
