# WaveFront *.obj file (generated by Autodesk ATF)

mtllib body63_visual.mtl

g Body63

v 62.611131 -65.155658 96.043872
v 62.610907 -65.155882 96.041620
v 62.610715 -65.156074 96.040515
v 62.610462 -65.156327 96.039435
v 62.610137 -65.156653 96.038394
v 62.609744 -65.157046 96.037402
v 62.609284 -65.157506 96.036469
v 62.608752 -65.158037 96.035615
v 62.608159 -65.158630 96.034846
v 62.607516 -65.159274 96.034164
v 62.606823 -65.159966 96.033585
v 62.606089 -65.160701 96.033121
v 62.605324 -65.161465 96.032767
v 62.604539 -65.162250 96.032519
v 62.603741 -65.163049 96.032381
v 62.602937 -65.163853 96.032333
v 62.603644 -65.164560 96.032333
v 62.604448 -65.163756 96.032381
v 62.605246 -65.162958 96.032519
v 62.606031 -65.162172 96.032767
v 62.606796 -65.161408 96.033121
v 62.607530 -65.160674 96.033585
v 62.608223 -65.159981 96.034164
v 62.608866 -65.159338 96.034846
v 62.609459 -65.158744 96.035615
v 62.609991 -65.158213 96.036469
v 62.610451 -65.157753 96.037402
v 62.610844 -65.157360 96.038394
v 62.611169 -65.157035 96.039435
v 62.611422 -65.156781 96.040515
v 62.611614 -65.156589 96.041620
v 62.611838 -65.156365 96.043872
v 62.602208 -65.164582 96.032376
v 62.601484 -65.165306 96.032500
v 62.600770 -65.166020 96.032713
v 62.600074 -65.166715 96.033024
v 62.599404 -65.167386 96.033430
v 62.598765 -65.168025 96.033928
v 62.598165 -65.168624 96.034516
v 62.597606 -65.169184 96.035177
v 62.597089 -65.169701 96.035905
v 62.596624 -65.170166 96.036701
v 62.596213 -65.170576 96.037553
v 62.595868 -65.170922 96.038462
v 62.595601 -65.171188 96.039422
v 62.595415 -65.171374 96.040420
v 62.595303 -65.171487 96.041439
v 62.595267 -65.171523 96.042469
v 62.595974 -65.172230 96.042469
v 62.596010 -65.172194 96.041439
v 62.596122 -65.172082 96.040420
v 62.596308 -65.171895 96.039422
v 62.596575 -65.171629 96.038462
v 62.596920 -65.171283 96.037553
v 62.597331 -65.170873 96.036701
v 62.597796 -65.170408 96.035905
v 62.598313 -65.169891 96.035177
v 62.598872 -65.169331 96.034516
v 62.599472 -65.168732 96.033928
v 62.600111 -65.168093 96.033430
v 62.600782 -65.167422 96.033024
v 62.601477 -65.166727 96.032713
v 62.602191 -65.166013 96.032500
v 62.602915 -65.165289 96.032376
v 62.595310 -65.171479 96.043623
v 62.595423 -65.171367 96.044767
v 62.595625 -65.171164 96.045887
v 62.595904 -65.170886 96.046972
v 62.596251 -65.170538 96.048018
v 62.596663 -65.170127 96.049016
v 62.597610 -65.169180 96.050897
v 62.598642 -65.168147 96.052686
v 62.599721 -65.167069 96.054421
v 62.601953 -65.164837 96.057794
v 62.602660 -65.165544 96.057794
v 62.600428 -65.167776 96.054421
v 62.599349 -65.168854 96.052686
v 62.598317 -65.169887 96.050897
v 62.597370 -65.170834 96.049016
v 62.596959 -65.171245 96.048018
v 62.596611 -65.171593 96.046972
v 62.596332 -65.171871 96.045887
v 62.596130 -65.172074 96.044767
v 62.596017 -65.172187 96.043623
v 62.615664 -65.151126 96.078487
v 62.616371 -65.151833 96.078487
v 62.591641 -65.175149 96.078487
v 62.592348 -65.175856 96.078487
v 62.591641 -65.175149 96.073359
v 62.592348 -65.175856 96.073359
v 62.608093 -65.158697 96.073359
v 62.608800 -65.159404 96.073359
v 62.599247 -65.167543 96.060008
v 62.599954 -65.168250 96.060008
v 62.596739 -65.170051 96.056088
v 62.595549 -65.171241 96.054049
v 62.594430 -65.172359 96.051931
v 62.593442 -65.173348 96.049689
v 62.593032 -65.173758 96.048500
v 62.592695 -65.174094 96.047267
v 62.592432 -65.174358 96.045998
v 62.592241 -65.174549 96.044703
v 62.592137 -65.174653 96.043390
v 62.592094 -65.174696 96.042069
v 62.592801 -65.175403 96.042069
v 62.592844 -65.175360 96.043390
v 62.592948 -65.175256 96.044703
v 62.593139 -65.175065 96.045998
v 62.593402 -65.174801 96.047267
v 62.593739 -65.174465 96.048500
v 62.594149 -65.174055 96.049689
v 62.595138 -65.173066 96.051931
v 62.596256 -65.171948 96.054049
v 62.597446 -65.170758 96.056088
v 62.592143 -65.174647 96.040591
v 62.592283 -65.174507 96.039126
v 62.592531 -65.174259 96.037689
v 62.592876 -65.173914 96.036293
v 62.593331 -65.173459 96.034961
v 62.593874 -65.172916 96.033697
v 62.594498 -65.172292 96.032510
v 62.595198 -65.171592 96.031411
v 62.595966 -65.170823 96.030408
v 62.596812 -65.169978 96.029538
v 62.597715 -65.169075 96.028791
v 62.598669 -65.168120 96.028187
v 62.599667 -65.167122 96.027744
v 62.600691 -65.166099 96.027439
v 62.601729 -65.165061 96.027263
v 62.602774 -65.164016 96.027205
v 62.603481 -65.164723 96.027205
v 62.602436 -65.165768 96.027263
v 62.601398 -65.166806 96.027439
v 62.600374 -65.167830 96.027744
v 62.599377 -65.168827 96.028187
v 62.598422 -65.169782 96.028791
v 62.597519 -65.170685 96.029538
v 62.596673 -65.171531 96.030408
v 62.595905 -65.172299 96.031411
v 62.595205 -65.172999 96.032510
v 62.594581 -65.173623 96.033697
v 62.594038 -65.174166 96.034961
v 62.593583 -65.174621 96.036293
v 62.593238 -65.174966 96.037689
v 62.592990 -65.175214 96.039126
v 62.592850 -65.175354 96.040591
v 62.603921 -65.162869 96.027271
v 62.605059 -65.161731 96.027487
v 62.606175 -65.160615 96.027867
v 62.607259 -65.159531 96.028403
v 62.608292 -65.158498 96.029109
v 62.609269 -65.157521 96.029962
v 62.610177 -65.156612 96.030955
v 62.611009 -65.155781 96.032074
v 62.611765 -65.155025 96.033296
v 62.612430 -65.154360 96.034619
v 62.612994 -65.153796 96.036033
v 62.613457 -65.153333 96.037519
v 62.613816 -65.152973 96.039060
v 62.614070 -65.152720 96.040644
v 62.614231 -65.152559 96.042251
v 62.614304 -65.152485 96.043872
v 62.615011 -65.153193 96.043872
v 62.614938 -65.153266 96.042251
v 62.614777 -65.153427 96.040644
v 62.614524 -65.153680 96.039060
v 62.614164 -65.154040 96.037519
v 62.613701 -65.154503 96.036033
v 62.613137 -65.155067 96.034619
v 62.612472 -65.155732 96.033296
v 62.611716 -65.156488 96.032074
v 62.610884 -65.157320 96.030955
v 62.609976 -65.158228 96.029962
v 62.608999 -65.159205 96.029109
v 62.607966 -65.160238 96.028403
v 62.606882 -65.161322 96.027867
v 62.605766 -65.162438 96.027487
v 62.604628 -65.163576 96.027271
vt 0.018213 0.001000 0.000000
vt 0.015936 0.001000 0.000000
vt 0.018213 0.000000 0.000000
vt 0.015936 0.000000 0.000000
vt 0.014798 0.001000 0.000000
vt 0.014798 0.000000 0.000000
vt 0.013659 0.001000 0.000000
vt 0.013659 0.000000 0.000000
vt 0.012521 0.001000 0.000000
vt 0.012521 0.000000 0.000000
vt 0.011383 0.001000 0.000000
vt 0.011383 0.000000 0.000000
vt 0.010245 0.001000 0.000000
vt 0.010245 0.000000 0.000000
vt 0.009106 0.001000 0.000000
vt 0.009106 0.000000 0.000000
vt 0.007968 0.001000 0.000000
vt 0.007968 0.000000 0.000000
vt 0.006830 0.001000 0.000000
vt 0.006830 0.000000 0.000000
vt 0.005691 0.001000 0.000000
vt 0.005691 0.000000 0.000000
vt 0.004553 0.001000 0.000000
vt 0.004553 0.000000 0.000000
vt 0.003415 0.001000 0.000000
vt 0.003415 0.000000 0.000000
vt 0.002277 0.001000 0.000000
vt 0.002277 0.000000 0.000000
vt 0.001138 0.001000 0.000000
vt 0.001138 0.000000 0.000000
vt 0.000000 0.001000 0.000000
vt 0.000000 0.000000 0.000000
vt 0.016512 0.001000 0.000000
vt 0.015480 0.001000 0.000000
vt 0.016512 0.000000 0.000000
vt 0.015480 0.000000 0.000000
vt 0.014448 0.001000 0.000000
vt 0.014448 0.000000 0.000000
vt 0.013416 0.001000 0.000000
vt 0.013416 0.000000 0.000000
vt 0.012384 0.001000 0.000000
vt 0.012384 0.000000 0.000000
vt 0.011352 0.001000 0.000000
vt 0.011352 0.000000 0.000000
vt 0.010320 0.001000 0.000000
vt 0.010320 0.000000 0.000000
vt 0.009288 0.001000 0.000000
vt 0.009288 0.000000 0.000000
vt 0.008256 0.001000 0.000000
vt 0.008256 0.000000 0.000000
vt 0.007224 0.001000 0.000000
vt 0.007224 0.000000 0.000000
vt 0.006192 0.001000 0.000000
vt 0.006192 0.000000 0.000000
vt 0.005160 0.001000 0.000000
vt 0.005160 0.000000 0.000000
vt 0.004128 0.001000 0.000000
vt 0.004128 0.000000 0.000000
vt 0.003096 0.001000 0.000000
vt 0.003096 0.000000 0.000000
vt 0.002064 0.001000 0.000000
vt 0.002064 0.000000 0.000000
vt 0.001032 0.001000 0.000000
vt 0.001032 0.000000 0.000000
vt 0.000000 0.001000 0.000000
vt 0.000000 0.000000 0.000000
vt 0.018480 0.001000 0.000000
vt 0.017325 0.001000 0.000000
vt 0.018480 0.000000 0.000000
vt 0.017325 0.000000 0.000000
vt 0.016170 0.001000 0.000000
vt 0.016170 0.000000 0.000000
vt 0.015015 0.001000 0.000000
vt 0.015015 0.000000 0.000000
vt 0.013860 0.001000 0.000000
vt 0.013860 0.000000 0.000000
vt 0.012705 0.001000 0.000000
vt 0.012705 0.000000 0.000000
vt 0.011550 0.001000 0.000000
vt 0.011550 0.000000 0.000000
vt 0.009240 0.001000 0.000000
vt 0.009240 0.000000 0.000000
vt 0.006930 0.001000 0.000000
vt 0.006930 0.000000 0.000000
vt 0.004620 0.001000 0.000000
vt 0.004620 0.000000 0.000000
vt 0.000000 0.001000 0.000000
vt 0.000000 0.000000 0.000000
vt -0.028359 -0.001000 0.000000
vt 0.000000 -0.001000 0.000000
vt -0.028359 -0.000000 0.000000
vt 0.000000 0.000000 0.000000
vt -0.033974 -0.001000 0.000000
vt -0.000000 -0.001000 0.000000
vt -0.033974 -0.000000 0.000000
vt -0.000000 0.000000 0.000000
vt -0.005128 -0.001000 0.000000
vt -0.000000 -0.001000 0.000000
vt -0.005128 0.000000 0.000000
vt 0.000000 0.000000 0.000000
vt -0.023267 -0.001000 0.000000
vt 0.000000 -0.001000 0.000000
vt -0.023267 0.000000 0.000000
vt 0.000000 0.000000 0.000000
vt -0.018296 -0.001000 0.000000
vt -0.000000 -0.001000 0.000000
vt -0.018296 0.000000 0.000000
vt -0.000000 0.000000 0.000000
vt 0.021150 0.001000 0.000000
vt 0.015863 0.001000 0.000000
vt 0.021150 0.000000 0.000000
vt 0.015863 0.000000 0.000000
vt 0.013219 0.001000 0.000000
vt 0.013219 0.000000 0.000000
vt 0.010575 0.001000 0.000000
vt 0.010575 0.000000 0.000000
vt 0.007931 0.001000 0.000000
vt 0.007931 0.000000 0.000000
vt 0.006609 0.001000 0.000000
vt 0.006609 0.000000 0.000000
vt 0.005288 0.001000 0.000000
vt 0.005288 0.000000 0.000000
vt 0.003966 0.001000 0.000000
vt 0.003966 0.000000 0.000000
vt 0.002644 0.001000 0.000000
vt 0.002644 0.000000 0.000000
vt 0.001322 0.001000 0.000000
vt 0.001322 0.000000 0.000000
vt 0.000000 0.001000 0.000000
vt 0.000000 0.000000 0.000000
vt 0.023685 0.001000 0.000000
vt 0.022205 0.001000 0.000000
vt 0.023685 0.000000 0.000000
vt 0.022205 0.000000 0.000000
vt 0.020724 0.001000 0.000000
vt 0.020724 0.000000 0.000000
vt 0.019244 0.001000 0.000000
vt 0.019244 0.000000 0.000000
vt 0.017764 0.001000 0.000000
vt 0.017764 0.000000 0.000000
vt 0.016283 0.001000 0.000000
vt 0.016283 0.000000 0.000000
vt 0.014803 0.001000 0.000000
vt 0.014803 0.000000 0.000000
vt 0.013323 0.001000 0.000000
vt 0.013323 0.000000 0.000000
vt 0.011842 0.001000 0.000000
vt 0.011842 0.000000 0.000000
vt 0.010362 0.001000 0.000000
vt 0.010362 0.000000 0.000000
vt 0.008882 0.001000 0.000000
vt 0.008882 0.000000 0.000000
vt 0.007402 0.001000 0.000000
vt 0.007402 0.000000 0.000000
vt 0.005921 0.001000 0.000000
vt 0.005921 0.000000 0.000000
vt 0.004441 0.001000 0.000000
vt 0.004441 0.000000 0.000000
vt 0.002961 0.001000 0.000000
vt 0.002961 0.000000 0.000000
vt 0.001480 0.001000 0.000000
vt 0.001480 0.000000 0.000000
vt 0.000000 0.001000 0.000000
vt 0.000000 0.000000 0.000000
vt 0.025988 0.001000 0.000000
vt 0.024364 0.001000 0.000000
vt 0.025988 0.000000 0.000000
vt 0.024364 0.000000 0.000000
vt 0.022740 0.001000 0.000000
vt 0.022740 0.000000 0.000000
vt 0.021115 0.001000 0.000000
vt 0.021115 0.000000 0.000000
vt 0.019491 0.001000 0.000000
vt 0.019491 0.000000 0.000000
vt 0.017867 0.001000 0.000000
vt 0.017867 0.000000 0.000000
vt 0.016243 0.001000 0.000000
vt 0.016243 0.000000 0.000000
vt 0.014618 0.001000 0.000000
vt 0.014618 0.000000 0.000000
vt 0.012994 0.001000 0.000000
vt 0.012994 0.000000 0.000000
vt 0.011370 0.001000 0.000000
vt 0.011370 0.000000 0.000000
vt 0.009746 0.001000 0.000000
vt 0.009746 0.000000 0.000000
vt 0.008121 0.001000 0.000000
vt 0.008121 0.000000 0.000000
vt 0.006497 0.001000 0.000000
vt 0.006497 0.000000 0.000000
vt 0.004873 0.001000 0.000000
vt 0.004873 0.000000 0.000000
vt 0.003249 0.001000 0.000000
vt 0.003249 0.000000 0.000000
vt 0.001624 0.001000 0.000000
vt 0.001624 0.000000 0.000000
vt 0.000000 0.001000 0.000000
vt 0.000000 0.000000 0.000000
vt -0.004487 -0.001000 0.000000
vt 0.000000 -0.001000 0.000000
vt -0.004487 0.000000 0.000000
vt -0.000000 0.000000 0.000000
vt 0.006005 -0.003048 0.000000
vt 0.005029 -0.007520 0.000000
vt 0.008257 -0.003364 0.000000
vt 0.006637 -0.007748 0.000000
vt 0.008257 -0.007852 0.000000
vt 0.003446 -0.007162 0.000000
vt 0.004900 -0.002776 0.000000
vt 0.001904 -0.006653 0.000000
vt 0.000418 -0.005998 0.000000
vt 0.003820 -0.002418 0.000000
vt -0.000996 -0.005201 0.000000
vt 0.002780 -0.001958 0.000000
vt -0.002319 -0.004260 0.000000
vt 0.001787 -0.001402 0.000000
vt -0.003540 -0.003191 0.000000
vt 0.000854 -0.000752 0.000000
vt -0.004660 -0.002015 0.000000
vt -0.000000 -0.000000 0.000000
vt -0.005653 -0.000731 0.000000
vt -0.000769 0.000839 0.000000
vt -0.001451 0.001749 0.000000
vt -0.006505 0.000651 0.000000
vt -0.002030 0.002728 0.000000
vt -0.007212 0.002112 0.000000
vt -0.002494 0.003767 0.000000
vt -0.007748 0.003645 0.000000
vt -0.002848 0.004848 0.000000
vt -0.008128 0.005223 0.000000
vt -0.003096 0.005958 0.000000
vt -0.008344 0.006832 0.000000
vt -0.003234 0.007087 0.000000
vt -0.003282 0.008224 0.000000
vt -0.008410 0.008455 0.000000
vt -0.003238 0.009255 0.000000
vt -0.008352 0.009933 0.000000
vt -0.003115 0.010279 0.000000
vt -0.008176 0.011401 0.000000
vt -0.002901 0.011289 0.000000
vt -0.007871 0.012848 0.000000
vt -0.002591 0.012272 0.000000
vt -0.007427 0.014259 0.000000
vt -0.002185 0.013221 0.000000
vt -0.001687 0.014124 0.000000
vt -0.006824 0.015610 0.000000
vt -0.001099 0.014972 0.000000
vt -0.006077 0.016886 0.000000
vt -0.000438 0.015764 0.000000
vt -0.005207 0.018082 0.000000
vt 0.000291 0.016495 0.000000
vt -0.004204 0.019169 0.000000
vt 0.001086 0.017152 0.000000
vt -0.003105 0.020159 0.000000
vt 0.001939 0.017733 0.000000
vt -0.001918 0.021041 0.000000
vt 0.002847 0.018222 0.000000
vt -0.000654 0.021810 0.000000
vt 0.003807 0.018598 0.000000
vt 0.000678 0.022453 0.000000
vt 0.002074 0.022941 0.000000
vt 0.004805 0.018861 0.000000
vt 0.003511 0.023291 0.000000
vt 0.005824 0.019021 0.000000
vt 0.004977 0.023489 0.000000
vt 0.006454 0.023559 0.000000
vt 0.006855 0.019071 0.000000
vt 0.007775 0.023498 0.000000
vt 0.008009 0.019010 0.000000
vt 0.009088 0.023351 0.000000
vt 0.010383 0.023081 0.000000
vt 0.009152 0.018851 0.000000
vt 0.011652 0.022708 0.000000
vt 0.012885 0.022232 0.000000
vt 0.010272 0.018564 0.000000
vt 0.014074 0.021653 0.000000
vt 0.011358 0.018170 0.000000
vt 0.016316 0.020254 0.000000
vt 0.012403 0.017679 0.000000
vt 0.013401 0.017098 0.000000
vt 0.018434 0.018672 0.000000
vt 0.015282 0.015758 0.000000
vt 0.020473 0.016990 0.000000
vt 0.017072 0.014298 0.000000
vt 0.018806 0.012772 0.000000
vt 0.024393 0.013442 0.000000
vt 0.022179 0.009616 0.000000
vt 0.037744 0.000932 0.000000
vt 0.042872 -0.009775 0.000000
vt 0.042872 0.024200 0.000000
vt 0.037744 0.024200 0.000000
vt 0.003234 0.007087 0.000000
vt 0.008344 0.006832 0.000000
vt 0.003282 0.008224 0.000000
vt 0.008410 0.008455 0.000000
vt 0.003238 0.009255 0.000000
vt 0.008352 0.009933 0.000000
vt 0.003115 0.010279 0.000000
vt 0.008176 0.011401 0.000000
vt 0.002901 0.011289 0.000000
vt 0.007871 0.012848 0.000000
vt 0.002591 0.012272 0.000000
vt 0.007427 0.014259 0.000000
vt 0.002185 0.013221 0.000000
vt 0.001687 0.014124 0.000000
vt 0.006824 0.015610 0.000000
vt 0.001099 0.014972 0.000000
vt 0.006077 0.016886 0.000000
vt 0.000438 0.015764 0.000000
vt 0.005207 0.018082 0.000000
vt -0.000291 0.016495 0.000000
vt 0.004204 0.019169 0.000000
vt -0.001086 0.017152 0.000000
vt 0.003105 0.020159 0.000000
vt -0.001939 0.017733 0.000000
vt 0.001918 0.021041 0.000000
vt -0.002847 0.018222 0.000000
vt 0.000654 0.021810 0.000000
vt -0.003807 0.018598 0.000000
vt -0.000678 0.022453 0.000000
vt -0.002074 0.022941 0.000000
vt 0.003096 0.005958 0.000000
vt 0.008128 0.005223 0.000000
vt 0.002848 0.004848 0.000000
vt 0.007748 0.003645 0.000000
vt 0.002494 0.003767 0.000000
vt 0.007212 0.002112 0.000000
vt 0.002030 0.002728 0.000000
vt 0.006505 0.000651 0.000000
vt 0.001451 0.001749 0.000000
vt 0.005653 -0.000731 0.000000
vt 0.000769 0.000839 0.000000
vt 0.000000 -0.000000 0.000000
vt 0.004660 -0.002015 0.000000
vt -0.000854 -0.000752 0.000000
vt 0.003540 -0.003191 0.000000
vt -0.001787 -0.001402 0.000000
vt 0.002319 -0.004260 0.000000
vt -0.002780 -0.001958 0.000000
vt 0.000996 -0.005201 0.000000
vt -0.003820 -0.002418 0.000000
vt -0.000418 -0.005998 0.000000
vt -0.004900 -0.002776 0.000000
vt -0.001904 -0.006653 0.000000
vt -0.003446 -0.007162 0.000000
vt -0.006005 -0.003048 0.000000
vt -0.005029 -0.007520 0.000000
vt -0.008257 -0.003364 0.000000
vt -0.006637 -0.007748 0.000000
vt -0.008257 -0.007852 0.000000
vt -0.004805 0.018861 0.000000
vt -0.003511 0.023291 0.000000
vt -0.005824 0.019021 0.000000
vt -0.004977 0.023489 0.000000
vt -0.006454 0.023559 0.000000
vt -0.006855 0.019071 0.000000
vt -0.007775 0.023498 0.000000
vt -0.008009 0.019010 0.000000
vt -0.009088 0.023351 0.000000
vt -0.010383 0.023081 0.000000
vt -0.009152 0.018851 0.000000
vt -0.011652 0.022708 0.000000
vt -0.012885 0.022232 0.000000
vt -0.010272 0.018564 0.000000
vt -0.014074 0.021653 0.000000
vt -0.011358 0.018170 0.000000
vt -0.016316 0.020254 0.000000
vt -0.012403 0.017679 0.000000
vt -0.013401 0.017098 0.000000
vt -0.018434 0.018672 0.000000
vt -0.015282 0.015758 0.000000
vt -0.020473 0.016990 0.000000
vt -0.017072 0.014298 0.000000
vt -0.018806 0.012772 0.000000
vt -0.024393 0.013442 0.000000
vt -0.022179 0.009616 0.000000
vt -0.037744 0.000932 0.000000
vt -0.042872 -0.009775 0.000000
vt -0.042872 0.024200 0.000000
vt -0.037744 0.024200 0.000000
vn -0.703900 -0.703900 0.095125
vn -0.691709 -0.691709 0.207553
vn -0.703900 -0.703900 0.095125
vn -0.691709 -0.691709 0.207553
vn -0.680364 -0.680364 0.272416
vn -0.680364 -0.680364 0.272416
vn -0.660080 -0.660080 0.358592
vn -0.660080 -0.660080 0.358592
vn -0.632068 -0.632068 0.448308
vn -0.632068 -0.632068 0.448308
vn -0.600108 -0.600108 0.528905
vn -0.600108 -0.600108 0.528905
vn -0.557273 -0.557273 0.615544
vn -0.557273 -0.557273 0.615544
vn -0.503304 -0.503304 0.702403
vn -0.503304 -0.503304 0.702403
vn -0.451639 -0.451639 0.769444
vn -0.451639 -0.451639 0.769444
vn -0.394126 -0.394126 0.830259
vn -0.394126 -0.394126 0.830259
vn -0.324165 -0.324165 0.888726
vn -0.324165 -0.324165 0.888726
vn -0.253094 -0.253094 0.933749
vn -0.253094 -0.253094 0.933749
vn -0.187364 -0.187364 0.964256
vn -0.187364 -0.187364 0.964256
vn -0.120215 -0.120215 0.985442
vn -0.120215 -0.120215 0.985442
vn -0.051544 -0.051544 0.997340
vn -0.051544 -0.051544 0.997340
vn -0.018466 -0.018466 0.999659
vn -0.018466 -0.018466 0.999659
vn 0.018748 0.018748 0.999648
vn 0.051128 0.051128 0.997382
vn 0.018748 0.018748 0.999648
vn 0.051128 0.051128 0.997382
vn 0.116110 0.116110 0.986426
vn 0.116110 0.116110 0.986426
vn 0.178584 0.178584 0.967582
vn 0.178584 0.178584 0.967582
vn 0.246245 0.246245 0.937404
vn 0.246245 0.246245 0.937404
vn 0.309581 0.309581 0.899066
vn 0.309581 0.309581 0.899066
vn 0.372824 0.372824 0.849709
vn 0.372824 0.372824 0.849709
vn 0.430025 0.430025 0.793824
vn 0.430025 0.430025 0.793824
vn 0.476113 0.476113 0.739346
vn 0.476113 0.476113 0.739346
vn 0.522009 0.522009 0.674547
vn 0.522009 0.522009 0.674547
vn 0.565895 0.565895 0.599605
vn 0.565895 0.565895 0.599605
vn 0.603024 0.603024 0.522229
vn 0.603024 0.603024 0.522229
vn 0.641220 0.641220 0.421514
vn 0.641220 0.641220 0.421514
vn 0.672664 0.672664 0.308295
vn 0.672664 0.672664 0.308295
vn 0.691995 0.691995 0.205634
vn 0.691995 0.691995 0.205634
vn 0.703922 0.703922 0.094801
vn 0.703922 0.703922 0.094801
vn 0.706856 0.706856 0.026611
vn 0.706856 0.706856 0.026611
vn 0.706584 0.706584 -0.038445
vn 0.704680 0.704680 -0.082777
vn 0.706584 0.706584 -0.038445
vn 0.704680 0.704680 -0.082777
vn 0.693415 0.693415 -0.195835
vn 0.693415 0.693415 -0.195835
vn 0.675367 0.675367 -0.296241
vn 0.675367 0.675367 -0.296241
vn 0.652818 0.652818 -0.384262
vn 0.652818 0.652818 -0.384262
vn 0.625996 0.625996 -0.465034
vn 0.625996 0.625996 -0.465034
vn 0.595717 0.595717 -0.538741
vn 0.595717 0.595717 -0.538741
vn 0.554579 0.554579 -0.620390
vn 0.554579 0.554579 -0.620390
vn 0.538978 0.538978 -0.647306
vn 0.538978 0.538978 -0.647306
vn 0.525251 0.525251 -0.669495
vn 0.525251 0.525251 -0.669495
vn 0.510619 0.510619 -0.691764
vn 0.510619 0.510619 -0.691764
vn 0.515970 0.515970 -0.683777
vn 0.515970 0.515970 -0.683777
vn 0.515970 0.515970 -0.683777
vn 0.515970 0.515970 -0.683777
vn -0.000000 0.000000 1.000000
vn -0.000000 0.000000 1.000000
vn -0.000000 0.000000 1.000000
vn -0.000000 0.000000 1.000000
vn -0.707107 -0.707107 -0.000000
vn -0.707107 -0.707107 -0.000000
vn -0.707107 -0.707107 -0.000000
vn -0.707107 -0.707107 -0.000000
vn 0.000000 -0.000000 -1.000000
vn 0.000000 -0.000000 -1.000000
vn 0.000000 -0.000000 -1.000000
vn 0.000000 -0.000000 -1.000000
vn -0.515993 -0.515993 0.683741
vn -0.515993 -0.515993 0.683741
vn -0.515993 -0.515993 0.683741
vn -0.515993 -0.515993 0.683741
vn -0.517034 -0.517034 0.682168
vn -0.537760 -0.537760 0.649328
vn -0.517034 -0.517034 0.682168
vn -0.537760 -0.537760 0.649328
vn -0.553122 -0.553122 0.622987
vn -0.553122 -0.553122 0.622987
vn -0.581599 -0.581599 0.568757
vn -0.581599 -0.581599 0.568757
vn -0.622399 -0.622399 0.474593
vn -0.622399 -0.622399 0.474593
vn -0.648004 -0.648004 0.400227
vn -0.648004 -0.648004 0.400227
vn -0.669961 -0.669961 0.319851
vn -0.669961 -0.669961 0.319851
vn -0.685581 -0.685581 0.244862
vn -0.685581 -0.685581 0.244862
vn -0.698017 -0.698017 0.159827
vn -0.698017 -0.698017 0.159827
vn -0.705470 -0.705470 0.067995
vn -0.705470 -0.705470 0.067995
vn -0.706681 -0.706681 0.034714
vn -0.706681 -0.706681 0.034714
vn -0.706788 -0.706788 -0.030019
vn -0.704765 -0.704765 -0.081319
vn -0.706788 -0.706788 -0.030019
vn -0.704765 -0.704765 -0.081319
vn -0.694578 -0.694578 -0.187414
vn -0.694578 -0.694578 -0.187414
vn -0.678560 -0.678560 -0.281269
vn -0.678560 -0.678560 -0.281269
vn -0.652887 -0.652887 -0.384026
vn -0.652887 -0.652887 -0.384026
vn -0.620329 -0.620329 -0.479984
vn -0.620329 -0.620329 -0.479984
vn -0.587157 -0.587157 -0.557220
vn -0.587157 -0.587157 -0.557220
vn -0.545786 -0.545786 -0.635795
vn -0.545786 -0.545786 -0.635795
vn -0.505895 -0.505895 -0.698671
vn -0.505895 -0.505895 -0.698671
vn -0.447281 -0.447281 -0.774519
vn -0.447281 -0.447281 -0.774519
vn -0.386934 -0.386934 -0.836997
vn -0.386934 -0.386934 -0.836997
vn -0.325135 -0.325135 -0.888017
vn -0.325135 -0.325135 -0.888017
vn -0.248934 -0.248934 -0.935983
vn -0.248934 -0.248934 -0.935983
vn -0.177081 -0.177081 -0.968135
vn -0.177081 -0.177081 -0.968135
vn -0.116377 -0.116377 -0.986363
vn -0.116377 -0.116377 -0.986363
vn -0.049579 -0.049579 -0.997539
vn -0.049579 -0.049579 -0.997539
vn -0.016549 -0.016549 -0.999726
vn -0.016549 -0.016549 -0.999726
vn 0.015601 0.015601 -0.999757
vn 0.055123 0.055123 -0.996957
vn 0.015601 0.015601 -0.999757
vn 0.055123 0.055123 -0.996957
vn 0.131125 0.131125 -0.982656
vn 0.131125 0.131125 -0.982656
vn 0.198261 0.198261 -0.959888
vn 0.198261 0.198261 -0.959888
vn 0.271280 0.271280 -0.923480
vn 0.271280 0.271280 -0.923480
vn 0.340730 0.340730 -0.876245
vn 0.340730 0.340730 -0.876245
vn 0.401805 0.401805 -0.822864
vn 0.401805 0.401805 -0.822864
vn 0.462086 0.462086 -0.756937
vn 0.462086 0.462086 -0.756937
vn 0.510148 0.510148 -0.692458
vn 0.510148 0.510148 -0.692458
vn 0.554108 0.554108 -0.621232
vn 0.554108 0.554108 -0.621232
vn 0.597184 0.597184 -0.535483
vn 0.597184 0.597184 -0.535483
vn 0.632586 0.632586 -0.446844
vn 0.632586 0.632586 -0.446844
vn 0.659704 0.659704 -0.359973
vn 0.659704 0.659704 -0.359973
vn 0.682014 0.682014 -0.264033
vn 0.682014 0.682014 -0.264033
vn 0.695314 0.695314 -0.181868
vn 0.695314 0.695314 -0.181868
vn 0.703968 0.703968 -0.094112
vn 0.703968 0.703968 -0.094112
vn 0.706255 0.706255 -0.049068
vn 0.706255 0.706255 -0.049068
vn -0.000000 0.000000 1.000000
vn -0.000000 0.000000 1.000000
vn -0.000000 0.000000 1.000000
vn -0.000000 0.000000 1.000000
vn 0.707107 -0.707107 0.000000
vn 0.707107 -0.707107 0.000000
vn 0.707107 -0.707107 0.000000
vn 0.707107 -0.707107 0.000000
vn 0.707107 -0.707107 0.000000
vn 0.707107 -0.707107 0.000000
vn 0.707107 -0.707107 0.000000
vn 0.707107 -0.707107 0.000000
vn 0.707107 -0.707107 0.000000
vn 0.707107 -0.707107 0.000000
vn 0.707107 -0.707107 0.000000
vn 0.707107 -0.707107 0.000000
vn 0.707107 -0.707107 0.000000
vn 0.707107 -0.707107 0.000000
vn 0.707107 -0.707107 0.000000
vn 0.707107 -0.707107 0.000000
vn 0.707107 -0.707107 0.000000
vn 0.707107 -0.707107 0.000000
vn 0.707107 -0.707107 0.000000
vn 0.707107 -0.707107 0.000000
vn 0.707107 -0.707107 0.000000
vn 0.707107 -0.707107 0.000000
vn 0.707107 -0.707107 0.000000
vn 0.707107 -0.707107 0.000000
vn 0.707107 -0.707107 0.000000
vn 0.707107 -0.707107 0.000000
vn 0.707107 -0.707107 0.000000
vn 0.707107 -0.707107 0.000000
vn 0.707107 -0.707107 0.000000
vn 0.707107 -0.707107 0.000000
vn 0.707107 -0.707107 0.000000
vn 0.707107 -0.707107 0.000000
vn 0.707107 -0.707107 0.000000
vn 0.707107 -0.707107 0.000000
vn 0.707107 -0.707107 0.000000
vn 0.707107 -0.707107 0.000000
vn 0.707107 -0.707107 0.000000
vn 0.707107 -0.707107 0.000000
vn 0.707107 -0.707107 0.000000
vn 0.707107 -0.707107 0.000000
vn 0.707107 -0.707107 0.000000
vn 0.707107 -0.707107 0.000000
vn 0.707107 -0.707107 0.000000
vn 0.707107 -0.707107 0.000000
vn 0.707107 -0.707107 0.000000
vn 0.707107 -0.707107 0.000000
vn 0.707107 -0.707107 0.000000
vn 0.707107 -0.707107 0.000000
vn 0.707107 -0.707107 0.000000
vn 0.707107 -0.707107 0.000000
vn 0.707107 -0.707107 0.000000
vn 0.707107 -0.707107 0.000000
vn 0.707107 -0.707107 0.000000
vn 0.707107 -0.707107 0.000000
vn 0.707107 -0.707107 0.000000
vn 0.707107 -0.707107 0.000000
vn 0.707107 -0.707107 0.000000
vn 0.707107 -0.707107 0.000000
vn 0.707107 -0.707107 0.000000
vn 0.707107 -0.707107 0.000000
vn 0.707107 -0.707107 0.000000
vn 0.707107 -0.707107 0.000000
vn 0.707107 -0.707107 0.000000
vn 0.707107 -0.707107 0.000000
vn 0.707107 -0.707107 0.000000
vn 0.707107 -0.707107 0.000000
vn 0.707107 -0.707107 0.000000
vn 0.707107 -0.707107 0.000000
vn 0.707107 -0.707107 0.000000
vn 0.707107 -0.707107 0.000000
vn 0.707107 -0.707107 0.000000
vn 0.707107 -0.707107 0.000000
vn 0.707107 -0.707107 0.000000
vn 0.707107 -0.707107 0.000000
vn 0.707107 -0.707107 0.000000
vn 0.707107 -0.707107 0.000000
vn 0.707107 -0.707107 0.000000
vn 0.707107 -0.707107 0.000000
vn 0.707107 -0.707107 0.000000
vn 0.707107 -0.707107 0.000000
vn 0.707107 -0.707107 0.000000
vn 0.707107 -0.707107 0.000000
vn 0.707107 -0.707107 0.000000
vn 0.707107 -0.707107 0.000000
vn 0.707107 -0.707107 0.000000
vn 0.707107 -0.707107 0.000000
vn 0.707107 -0.707107 0.000000
vn 0.707107 -0.707107 0.000000
vn 0.707107 -0.707107 0.000000
vn -0.707107 0.707107 -0.000000
vn -0.707107 0.707107 -0.000000
vn -0.707107 0.707107 -0.000000
vn -0.707107 0.707107 -0.000000
vn -0.707107 0.707107 -0.000000
vn -0.707107 0.707107 -0.000000
vn -0.707107 0.707107 -0.000000
vn -0.707107 0.707107 -0.000000
vn -0.707107 0.707107 -0.000000
vn -0.707107 0.707107 -0.000000
vn -0.707107 0.707107 -0.000000
vn -0.707107 0.707107 -0.000000
vn -0.707107 0.707107 -0.000000
vn -0.707107 0.707107 -0.000000
vn -0.707107 0.707107 -0.000000
vn -0.707107 0.707107 -0.000000
vn -0.707107 0.707107 -0.000000
vn -0.707107 0.707107 -0.000000
vn -0.707107 0.707107 -0.000000
vn -0.707107 0.707107 -0.000000
vn -0.707107 0.707107 -0.000000
vn -0.707107 0.707107 -0.000000
vn -0.707107 0.707107 -0.000000
vn -0.707107 0.707107 -0.000000
vn -0.707107 0.707107 -0.000000
vn -0.707107 0.707107 -0.000000
vn -0.707107 0.707107 -0.000000
vn -0.707107 0.707107 -0.000000
vn -0.707107 0.707107 -0.000000
vn -0.707107 0.707107 -0.000000
vn -0.707107 0.707107 -0.000000
vn -0.707107 0.707107 -0.000000
vn -0.707107 0.707107 -0.000000
vn -0.707107 0.707107 -0.000000
vn -0.707107 0.707107 -0.000000
vn -0.707107 0.707107 -0.000000
vn -0.707107 0.707107 -0.000000
vn -0.707107 0.707107 -0.000000
vn -0.707107 0.707107 -0.000000
vn -0.707107 0.707107 -0.000000
vn -0.707107 0.707107 -0.000000
vn -0.707107 0.707107 -0.000000
vn -0.707107 0.707107 -0.000000
vn -0.707107 0.707107 -0.000000
vn -0.707107 0.707107 -0.000000
vn -0.707107 0.707107 -0.000000
vn -0.707107 0.707107 -0.000000
vn -0.707107 0.707107 -0.000000
vn -0.707107 0.707107 -0.000000
vn -0.707107 0.707107 -0.000000
vn -0.707107 0.707107 -0.000000
vn -0.707107 0.707107 -0.000000
vn -0.707107 0.707107 -0.000000
vn -0.707107 0.707107 -0.000000
vn -0.707107 0.707107 -0.000000
vn -0.707107 0.707107 -0.000000
vn -0.707107 0.707107 -0.000000
vn -0.707107 0.707107 -0.000000
vn -0.707107 0.707107 -0.000000
vn -0.707107 0.707107 -0.000000
vn -0.707107 0.707107 -0.000000
vn -0.707107 0.707107 -0.000000
vn -0.707107 0.707107 -0.000000
vn -0.707107 0.707107 -0.000000
vn -0.707107 0.707107 -0.000000
vn -0.707107 0.707107 -0.000000
vn -0.707107 0.707107 -0.000000
vn -0.707107 0.707107 -0.000000
vn -0.707107 0.707107 -0.000000
vn -0.707107 0.707107 -0.000000
vn -0.707107 0.707107 -0.000000
vn -0.707107 0.707107 -0.000000
vn -0.707107 0.707107 -0.000000
vn -0.707107 0.707107 -0.000000
vn -0.707107 0.707107 -0.000000
vn -0.707107 0.707107 -0.000000
vn -0.707107 0.707107 -0.000000
vn -0.707107 0.707107 -0.000000
vn -0.707107 0.707107 -0.000000
vn -0.707107 0.707107 -0.000000
vn -0.707107 0.707107 -0.000000
vn -0.707107 0.707107 -0.000000
vn -0.707107 0.707107 -0.000000
vn -0.707107 0.707107 -0.000000
vn -0.707107 0.707107 -0.000000
vn -0.707107 0.707107 -0.000000
vn -0.707107 0.707107 -0.000000
vn -0.707107 0.707107 -0.000000
vn -0.707107 0.707107 -0.000000
usemtl Opaque(202,209,238)
f 1/1/1 2/2/2 32/3/3
f 32/3/3 2/2/2 31/4/4
f 31/4/4 2/2/2 3/5/5
f 31/4/4 3/5/5 30/6/6
f 30/6/6 3/5/5 4/7/7
f 30/6/6 4/7/7 29/8/8
f 29/8/8 4/7/7 5/9/9
f 29/8/8 5/9/9 28/10/10
f 28/10/10 5/9/9 6/11/11
f 28/10/10 6/11/11 27/12/12
f 27/12/12 6/11/11 7/13/13
f 27/12/12 7/13/13 26/14/14
f 26/14/14 7/13/13 8/15/15
f 26/14/14 8/15/15 25/16/16
f 25/16/16 8/15/15 9/17/17
f 25/16/16 9/17/17 24/18/18
f 24/18/18 9/17/17 10/19/19
f 24/18/18 10/19/19 23/20/20
f 23/20/20 10/19/19 11/21/21
f 23/20/20 11/21/21 22/22/22
f 22/22/22 11/21/21 12/23/23
f 22/22/22 12/23/23 21/24/24
f 21/24/24 12/23/23 13/25/25
f 21/24/24 13/25/25 20/26/26
f 20/26/26 13/25/25 14/27/27
f 20/26/26 14/27/27 19/28/28
f 19/28/28 14/27/27 15/29/29
f 19/28/28 15/29/29 18/30/30
f 18/30/30 15/29/29 16/31/31
f 18/30/30 16/31/31 17/32/32
f 16/33/33 33/34/34 17/35/35
f 17/35/35 33/34/34 64/36/36
f 64/36/36 33/34/34 34/37/37
f 64/36/36 34/37/37 63/38/38
f 63/38/38 34/37/37 35/39/39
f 63/38/38 35/39/39 62/40/40
f 62/40/40 35/39/39 36/41/41
f 62/40/40 36/41/41 61/42/42
f 61/42/42 36/41/41 37/43/43
f 61/42/42 37/43/43 60/44/44
f 60/44/44 37/43/43 38/45/45
f 60/44/44 38/45/45 59/46/46
f 59/46/46 38/45/45 39/47/47
f 59/46/46 39/47/47 58/48/48
f 58/48/48 39/47/47 40/49/49
f 58/48/48 40/49/49 57/50/50
f 57/50/50 40/49/49 41/51/51
f 57/50/50 41/51/51 56/52/52
f 56/52/52 41/51/51 42/53/53
f 56/52/52 42/53/53 55/54/54
f 55/54/54 42/53/53 43/55/55
f 55/54/54 43/55/55 54/56/56
f 54/56/56 43/55/55 44/57/57
f 54/56/56 44/57/57 53/58/58
f 53/58/58 44/57/57 45/59/59
f 53/58/58 45/59/59 52/60/60
f 52/60/60 45/59/59 46/61/61
f 52/60/60 46/61/61 51/62/62
f 51/62/62 46/61/61 47/63/63
f 51/62/62 47/63/63 50/64/64
f 50/64/64 47/63/63 48/65/65
f 50/64/64 48/65/65 49/66/66
f 48/67/67 65/68/68 49/69/69
f 49/69/69 65/68/68 84/70/70
f 84/70/70 65/68/68 66/71/71
f 84/70/70 66/71/71 83/72/72
f 83/72/72 66/71/71 67/73/73
f 83/72/72 67/73/73 82/74/74
f 82/74/74 67/73/73 68/75/75
f 82/74/74 68/75/75 81/76/76
f 81/76/76 68/75/75 69/77/77
f 81/76/76 69/77/77 80/78/78
f 80/78/78 69/77/77 70/79/79
f 80/78/78 70/79/79 79/80/80
f 79/80/80 70/79/79 71/81/81
f 79/80/80 71/81/81 78/82/82
f 78/82/82 71/81/81 72/83/83
f 78/82/82 72/83/83 77/84/84
f 77/84/84 72/83/83 73/85/85
f 77/84/84 73/85/85 76/86/86
f 76/86/86 73/85/85 74/87/87
f 76/86/86 74/87/87 75/88/88
f 74/89/89 85/90/90 75/91/91
f 75/91/91 85/90/90 86/92/92
f 85/93/93 87/94/94 86/95/95
f 86/95/95 87/94/94 88/96/96
f 87/97/97 89/98/98 88/99/99
f 88/99/99 89/98/98 90/100/100
f 89/101/101 91/102/102 90/103/103
f 90/103/103 91/102/102 92/104/104
f 91/105/105 93/106/106 92/107/107
f 92/107/107 93/106/106 94/108/108
f 93/109/109 95/110/110 94/111/111
f 94/111/111 95/110/110 114/112/112
f 114/112/112 95/110/110 96/113/113
f 114/112/112 96/113/113 113/114/114
f 113/114/114 96/113/113 97/115/115
f 113/114/114 97/115/115 112/116/116
f 112/116/116 97/115/115 98/117/117
f 112/116/116 98/117/117 111/118/118
f 111/118/118 98/117/117 99/119/119
f 111/118/118 99/119/119 110/120/120
f 110/120/120 99/119/119 100/121/121
f 110/120/120 100/121/121 109/122/122
f 109/122/122 100/121/121 101/123/123
f 109/122/122 101/123/123 108/124/124
f 108/124/124 101/123/123 102/125/125
f 108/124/124 102/125/125 107/126/126
f 107/126/126 102/125/125 103/127/127
f 107/126/126 103/127/127 106/128/128
f 106/128/128 103/127/127 104/129/129
f 106/128/128 104/129/129 105/130/130
f 104/131/131 115/132/132 105/133/133
f 105/133/133 115/132/132 146/134/134
f 146/134/134 115/132/132 116/135/135
f 146/134/134 116/135/135 145/136/136
f 145/136/136 116/135/135 117/137/137
f 145/136/136 117/137/137 144/138/138
f 144/138/138 117/137/137 118/139/139
f 144/138/138 118/139/139 143/140/140
f 143/140/140 118/139/139 119/141/141
f 143/140/140 119/141/141 142/142/142
f 142/142/142 119/141/141 120/143/143
f 142/142/142 120/143/143 141/144/144
f 141/144/144 120/143/143 121/145/145
f 141/144/144 121/145/145 140/146/146
f 140/146/146 121/145/145 122/147/147
f 140/146/146 122/147/147 139/148/148
f 139/148/148 122/147/147 123/149/149
f 139/148/148 123/149/149 138/150/150
f 138/150/150 123/149/149 124/151/151
f 138/150/150 124/151/151 137/152/152
f 137/152/152 124/151/151 125/153/153
f 137/152/152 125/153/153 136/154/154
f 136/154/154 125/153/153 126/155/155
f 136/154/154 126/155/155 135/156/156
f 135/156/156 126/155/155 127/157/157
f 135/156/156 127/157/157 134/158/158
f 134/158/158 127/157/157 128/159/159
f 134/158/158 128/159/159 133/160/160
f 133/160/160 128/159/159 129/161/161
f 133/160/160 129/161/161 132/162/162
f 132/162/162 129/161/161 130/163/163
f 132/162/162 130/163/163 131/164/164
f 130/165/165 147/166/166 131/167/167
f 131/167/167 147/166/166 178/168/168
f 178/168/168 147/166/166 148/169/169
f 178/168/168 148/169/169 177/170/170
f 177/170/170 148/169/169 149/171/171
f 177/170/170 149/171/171 176/172/172
f 176/172/172 149/171/171 150/173/173
f 176/172/172 150/173/173 175/174/174
f 175/174/174 150/173/173 151/175/175
f 175/174/174 151/175/175 174/176/176
f 174/176/176 151/175/175 152/177/177
f 174/176/176 152/177/177 173/178/178
f 173/178/178 152/177/177 153/179/179
f 173/178/178 153/179/179 172/180/180
f 172/180/180 153/179/179 154/181/181
f 172/180/180 154/181/181 171/182/182
f 171/182/182 154/181/181 155/183/183
f 171/182/182 155/183/183 170/184/184
f 170/184/184 155/183/183 156/185/185
f 170/184/184 156/185/185 169/186/186
f 169/186/186 156/185/185 157/187/187
f 169/186/186 157/187/187 168/188/188
f 168/188/188 157/187/187 158/189/189
f 168/188/188 158/189/189 167/190/190
f 167/190/190 158/189/189 159/191/191
f 167/190/190 159/191/191 166/192/192
f 166/192/192 159/191/191 160/193/193
f 166/192/192 160/193/193 165/194/194
f 165/194/194 160/193/193 161/195/195
f 165/194/194 161/195/195 164/196/196
f 164/196/196 161/195/195 162/197/197
f 164/196/196 162/197/197 163/198/198
f 162/199/199 1/200/200 163/201/201
f 163/201/201 1/200/200 32/202/202
f 31/203/203 165/204/204 32/205/205
f 32/205/205 165/204/204 164/206/206
f 32/205/205 164/206/206 163/207/207
f 165/204/204 31/203/203 166/208/208
f 166/208/208 31/203/203 30/209/209
f 166/208/208 30/209/209 167/210/210
f 167/210/210 30/209/209 168/211/211
f 168/211/211 30/209/209 29/212/212
f 168/211/211 29/212/212 169/213/213
f 169/213/213 29/212/212 28/214/214
f 169/213/213 28/214/214 170/215/215
f 170/215/215 28/214/214 27/216/216
f 170/215/215 27/216/216 171/217/217
f 171/217/217 27/216/216 26/218/218
f 171/217/217 26/218/218 172/219/219
f 172/219/219 26/218/218 25/220/220
f 172/219/219 25/220/220 173/221/221
f 173/221/221 25/220/220 24/222/222
f 173/221/221 24/222/222 23/223/223
f 173/221/221 23/223/223 174/224/224
f 174/224/224 23/223/223 22/225/225
f 174/224/224 22/225/225 175/226/226
f 175/226/226 22/225/225 21/227/227
f 175/226/226 21/227/227 176/228/228
f 176/228/228 21/227/227 20/229/229
f 176/228/228 20/229/229 177/230/230
f 177/230/230 20/229/229 19/231/231
f 177/230/230 19/231/231 178/232/232
f 178/232/232 19/231/231 18/233/233
f 178/232/232 18/233/233 17/234/234
f 178/232/232 17/234/234 131/235/235
f 131/235/235 17/234/234 64/236/236
f 131/235/235 64/236/236 132/237/237
f 132/237/237 64/236/236 63/238/238
f 132/237/237 63/238/238 133/239/239
f 133/239/239 63/238/238 62/240/240
f 133/239/239 62/240/240 134/241/241
f 134/241/241 62/240/240 61/242/242
f 134/241/241 61/242/242 135/243/243
f 135/243/243 61/242/242 60/244/244
f 135/243/243 60/244/244 59/245/245
f 135/243/243 59/245/245 136/246/246
f 136/246/246 59/245/245 58/247/247
f 136/246/246 58/247/247 137/248/248
f 137/248/248 58/247/247 57/249/249
f 137/248/248 57/249/249 138/250/250
f 138/250/250 57/249/249 56/251/251
f 138/250/250 56/251/251 139/252/252
f 139/252/252 56/251/251 55/253/253
f 139/252/252 55/253/253 140/254/254
f 140/254/254 55/253/253 54/255/255
f 140/254/254 54/255/255 141/256/256
f 141/256/256 54/255/255 53/257/257
f 141/256/256 53/257/257 142/258/258
f 142/258/258 53/257/257 52/259/259
f 142/258/258 52/259/259 143/260/260
f 143/260/260 52/259/259 144/261/261
f 144/261/261 52/259/259 51/262/262
f 144/261/261 51/262/262 145/263/263
f 145/263/263 51/262/262 50/264/264
f 145/263/263 50/264/264 146/265/265
f 146/265/265 50/264/264 105/266/266
f 105/266/266 50/264/264 49/267/267
f 105/266/266 49/267/267 106/268/268
f 106/268/268 49/267/267 84/269/269
f 106/268/268 84/269/269 107/270/270
f 107/270/270 84/269/269 108/271/271
f 108/271/271 84/269/269 83/272/272
f 108/271/271 83/272/272 109/273/273
f 109/273/273 83/272/272 110/274/274
f 110/274/274 83/272/272 82/275/275
f 110/274/274 82/275/275 111/276/276
f 111/276/276 82/275/275 81/277/277
f 111/276/276 81/277/277 112/278/278
f 112/278/278 81/277/277 80/279/279
f 112/278/278 80/279/279 79/280/280
f 112/278/278 79/280/280 113/281/281
f 113/281/281 79/280/280 78/282/282
f 113/281/281 78/282/282 114/283/283
f 114/283/283 78/282/282 77/284/284
f 114/283/283 77/284/284 76/285/285
f 114/283/283 76/285/285 94/286/286
f 94/286/286 76/285/285 75/287/287
f 94/286/286 75/287/287 92/288/288
f 92/288/288 75/287/287 86/289/289
f 92/288/288 86/289/289 88/290/290
f 88/290/290 90/291/291 92/288/288
f 15/292/292 147/293/293 16/294/294
f 16/294/294 147/293/293 130/295/295
f 16/294/294 130/295/295 33/296/296
f 33/296/296 130/295/295 129/297/297
f 33/296/296 129/297/297 34/298/298
f 34/298/298 129/297/297 128/299/299
f 34/298/298 128/299/299 35/300/300
f 35/300/300 128/299/299 127/301/301
f 35/300/300 127/301/301 36/302/302
f 36/302/302 127/301/301 126/303/303
f 36/302/302 126/303/303 37/304/304
f 37/304/304 126/303/303 38/305/305
f 38/305/305 126/303/303 125/306/306
f 38/305/305 125/306/306 39/307/307
f 39/307/307 125/306/306 124/308/308
f 39/307/307 124/308/308 40/309/309
f 40/309/309 124/308/308 123/310/310
f 40/309/309 123/310/310 41/311/311
f 41/311/311 123/310/310 122/312/312
f 41/311/311 122/312/312 42/313/313
f 42/313/313 122/312/312 121/314/314
f 42/313/313 121/314/314 43/315/315
f 43/315/315 121/314/314 120/316/316
f 43/315/315 120/316/316 44/317/317
f 44/317/317 120/316/316 119/318/318
f 44/317/317 119/318/318 45/319/319
f 45/319/319 119/318/318 118/320/320
f 45/319/319 118/320/320 117/321/321
f 15/292/292 14/322/322 147/293/293
f 147/293/293 14/322/322 148/323/323
f 148/323/323 14/322/322 13/324/324
f 148/323/323 13/324/324 149/325/325
f 149/325/325 13/324/324 12/326/326
f 149/325/325 12/326/326 150/327/327
f 150/327/327 12/326/326 11/328/328
f 150/327/327 11/328/328 151/329/329
f 151/329/329 11/328/328 10/330/330
f 151/329/329 10/330/330 152/331/331
f 152/331/331 10/330/330 9/332/332
f 152/331/331 9/332/332 8/333/333
f 152/331/331 8/333/333 153/334/334
f 153/334/334 8/333/333 7/335/335
f 153/334/334 7/335/335 154/336/336
f 154/336/336 7/335/335 6/337/337
f 154/336/336 6/337/337 155/338/338
f 155/338/338 6/337/337 5/339/339
f 155/338/338 5/339/339 156/340/340
f 156/340/340 5/339/339 4/341/341
f 156/340/340 4/341/341 157/342/342
f 157/342/342 4/341/341 3/343/343
f 157/342/342 3/343/343 158/344/344
f 158/344/344 3/343/343 159/345/345
f 159/345/345 3/343/343 2/346/346
f 159/345/345 2/346/346 160/347/347
f 160/347/347 2/346/346 1/348/348
f 160/347/347 1/348/348 161/349/349
f 161/349/349 1/348/348 162/350/350
f 45/319/319 117/321/321 46/351/351
f 46/351/351 117/321/321 116/352/352
f 46/351/351 116/352/352 47/353/353
f 47/353/353 116/352/352 115/354/354
f 47/353/353 115/354/354 104/355/355
f 47/353/353 104/355/355 48/356/356
f 48/356/356 104/355/355 103/357/357
f 48/356/356 103/357/357 65/358/358
f 65/358/358 103/357/357 102/359/359
f 65/358/358 102/359/359 101/360/360
f 65/358/358 101/360/360 66/361/361
f 66/361/361 101/360/360 100/362/362
f 66/361/361 100/362/362 99/363/363
f 66/361/361 99/363/363 67/364/364
f 67/364/364 99/363/363 98/365/365
f 67/364/364 98/365/365 68/366/366
f 68/366/366 98/365/365 97/367/367
f 68/366/366 97/367/367 69/368/368
f 69/368/368 97/367/367 70/369/369
f 70/369/369 97/367/367 96/370/370
f 70/369/369 96/370/370 71/371/371
f 71/371/371 96/370/370 95/372/372
f 71/371/371 95/372/372 72/373/373
f 72/373/373 95/372/372 73/374/374
f 73/374/374 95/372/372 93/375/375
f 73/374/374 93/375/375 74/376/376
f 74/376/376 93/375/375 91/377/377
f 74/376/376 91/377/377 85/378/378
f 85/378/378 91/377/377 87/379/379
f 87/379/379 91/377/377 89/380/380
# 178 vertices
# 380 texture params
# 380 normals
# 352 facets

# 1 groups
