# WaveFront *.obj file (generated by Autodesk ATF)

mtllib body60_visual.mtl

g Body60

v 62.576904 -65.188613 96.114247
v 62.536528 -65.148237 96.114247
v 62.536528 -65.148237 96.115613
v 62.576904 -65.188613 96.115613
v 62.683067 -65.082450 95.994247
v 62.642691 -65.042074 95.994247
v 62.642691 -65.042074 95.993153
v 62.683067 -65.082450 95.993153
v 62.683067 -65.082450 96.114247
v 62.642691 -65.042074 96.114247
v 62.577106 -65.188849 96.114247
v 62.577269 -65.189114 96.114247
v 62.577389 -65.189400 96.114247
v 62.683855 -65.082935 96.114247
v 62.683568 -65.082815 96.114247
v 62.683303 -65.082652 96.114247
v 62.576904 -65.188613 95.994247
v 62.536528 -65.148237 95.994247
v 62.683303 -65.082652 95.994247
v 62.683568 -65.082815 95.994247
v 62.683855 -65.082935 95.994247
v 62.577389 -65.189400 95.994247
v 62.577269 -65.189114 95.994247
v 62.577106 -65.188849 95.994247
v 62.642691 -65.039246 95.995153
v 62.642691 -65.039246 95.996247
v 62.533700 -65.148237 95.996247
v 62.533700 -65.148237 95.994882
v 62.510869 -65.171068 95.994882
v 62.510869 -65.171068 96.113613
v 62.533700 -65.148237 96.113613
v 62.533700 -65.148237 96.112247
v 62.642691 -65.039246 96.112247
v 62.642691 -65.039246 96.113884
v 62.665523 -65.016414 96.113884
v 62.665523 -65.016414 95.995153
v 62.683067 -65.082450 96.115884
v 62.642691 -65.042074 96.115884
v 62.666937 -65.017828 95.993153
v 62.707313 -65.058204 95.993153
v 62.707313 -65.058204 96.115884
v 62.666937 -65.017828 96.115884
v 62.708727 -65.056790 95.995153
v 62.668351 -65.016414 95.995153
v 62.668351 -65.016414 96.113884
v 62.708727 -65.056790 96.113884
v 62.685896 -65.082450 95.995153
v 62.708727 -65.059618 95.995153
v 62.708727 -65.059618 96.113884
v 62.685896 -65.082450 96.113884
v 62.576904 -65.188613 95.992882
v 62.536528 -65.148237 95.992882
v 62.512283 -65.172482 96.115613
v 62.552659 -65.212858 96.115613
v 62.552659 -65.212858 95.992882
v 62.512283 -65.172482 95.992882
v 62.551244 -65.214272 96.113613
v 62.510869 -65.173897 96.113613
v 62.510869 -65.173897 95.994882
v 62.551244 -65.214272 95.994882
v 62.576904 -65.191441 95.994882
v 62.576904 -65.191441 96.113613
v 62.554073 -65.214272 96.113613
v 62.554073 -65.214272 95.994882
v 62.553366 -65.213565 96.115345
v 62.553883 -65.214083 96.114613
v 62.577338 -65.190792 96.114378
v 62.577490 -65.190027 96.115027
v 62.577338 -65.189261 96.115461
v 62.577153 -65.188916 96.115574
v 62.565489 -65.201443 96.115345
v 62.566006 -65.201960 96.114613
v 62.552141 -65.214790 96.113613
v 62.553176 -65.214790 96.113613
v 62.551951 -65.213565 96.115345
v 62.551434 -65.214083 96.114613
v 62.553271 -65.214695 96.114113
v 62.552305 -65.214626 96.114479
v 62.552753 -65.214178 96.115113
v 62.553530 -65.214437 96.114479
v 62.577338 -65.190792 95.994116
v 62.577490 -65.190027 95.993468
v 62.577338 -65.189261 95.993034
v 62.577153 -65.188916 95.992920
v 62.577422 -65.189509 96.095158
v 62.577422 -65.189509 96.074702
v 62.577422 -65.189509 96.054247
v 62.577422 -65.189509 96.033792
v 62.577422 -65.189509 96.013337
v 62.577422 -65.190544 96.095158
v 62.577422 -65.190544 96.074702
v 62.577422 -65.190544 96.054247
v 62.577422 -65.190544 96.033792
v 62.577422 -65.190544 96.013337
v 62.536225 -65.147988 96.114209
v 62.535880 -65.147803 96.114095
v 62.535114 -65.147651 96.113661
v 62.534349 -65.147803 96.113013
v 62.534349 -65.147803 96.114378
v 62.535114 -65.147651 96.115027
v 62.535880 -65.147803 96.115461
v 62.536225 -65.147988 96.115574
v 62.511058 -65.171258 96.114613
v 62.511576 -65.171775 96.115345
v 62.523699 -65.159653 96.115345
v 62.523181 -65.159135 96.114613
v 62.511576 -65.173190 96.115345
v 62.511058 -65.173707 96.114613
v 62.537975 -65.200624 96.114613
v 62.524517 -65.187166 96.114613
v 62.538493 -65.200107 96.115345
v 62.525034 -65.186648 96.115345
v 62.552141 -65.214790 95.994882
v 62.553176 -65.214790 95.994882
v 62.553176 -65.214790 96.093824
v 62.553176 -65.214790 96.074036
v 62.553176 -65.214790 96.054247
v 62.553176 -65.214790 96.034459
v 62.553176 -65.214790 96.014670
v 62.552141 -65.214790 96.093824
v 62.552141 -65.214790 96.074036
v 62.552141 -65.214790 96.054247
v 62.552141 -65.214790 96.034459
v 62.552141 -65.214790 96.014670
v 62.553883 -65.214083 95.993882
v 62.553366 -65.213565 95.993150
v 62.565489 -65.201443 95.993150
v 62.566006 -65.201960 95.993882
v 62.708538 -65.059429 96.114884
v 62.708020 -65.058911 96.115616
v 62.683370 -65.082698 96.115845
v 62.683716 -65.082883 96.115731
v 62.684481 -65.083036 96.115298
v 62.685247 -65.082883 96.114649
v 62.696415 -65.071552 96.114884
v 62.695897 -65.071034 96.115616
v 62.642443 -65.041771 96.114209
v 62.642258 -65.041425 96.114095
v 62.642106 -65.040660 96.113661
v 62.642258 -65.039894 96.113013
v 62.549460 -65.132856 96.113247
v 62.565030 -65.117286 96.113247
v 62.580600 -65.101716 96.113247
v 62.596170 -65.086146 96.113247
v 62.611740 -65.070575 96.113247
v 62.627311 -65.055005 96.113247
v 62.549977 -65.133374 96.113979
v 62.565548 -65.117804 96.113979
v 62.581118 -65.102233 96.113979
v 62.596688 -65.086663 96.113979
v 62.612258 -65.071093 96.113979
v 62.627828 -65.055523 96.113979
v 62.510351 -65.171965 96.113613
v 62.510351 -65.173000 96.113613
v 62.510963 -65.172577 96.115113
v 62.510704 -65.173354 96.114479
v 62.510515 -65.172129 96.114479
v 62.510446 -65.173095 96.114113
v 62.551434 -65.214083 95.993882
v 62.551951 -65.213565 95.993150
v 62.552564 -65.214178 95.993382
v 62.551787 -65.214437 95.994016
v 62.553012 -65.214626 95.994016
v 62.552046 -65.214695 95.994382
v 62.683370 -65.082698 95.993191
v 62.683716 -65.082883 95.993305
v 62.684481 -65.083036 95.993738
v 62.685247 -65.082883 95.994387
v 62.683964 -65.082967 96.013608
v 62.683964 -65.082967 96.034063
v 62.683964 -65.082967 96.054518
v 62.683964 -65.082967 96.074973
v 62.683964 -65.082967 96.095428
v 62.684999 -65.082967 96.013608
v 62.684999 -65.082967 96.034063
v 62.684999 -65.082967 96.054518
v 62.684999 -65.082967 96.074973
v 62.684999 -65.082967 96.095428
v 62.708538 -65.056979 96.114884
v 62.708020 -65.057497 96.115616
v 62.709245 -65.058722 96.113884
v 62.709245 -65.057686 96.113884
v 62.708632 -65.058109 96.115384
v 62.708891 -65.057333 96.114750
v 62.709081 -65.058558 96.114750
v 62.709150 -65.057592 96.114384
v 62.642443 -65.041771 96.115845
v 62.642258 -65.041425 96.115731
v 62.642106 -65.040660 96.115298
v 62.642258 -65.039894 96.114649
v 62.510351 -65.171965 95.994882
v 62.510351 -65.173000 95.994882
v 62.510351 -65.173000 96.093824
v 62.510351 -65.173000 96.074036
v 62.510351 -65.173000 96.054247
v 62.510351 -65.173000 96.034459
v 62.510351 -65.173000 96.014670
v 62.510351 -65.171965 96.093824
v 62.510351 -65.171965 96.074036
v 62.510351 -65.171965 96.054247
v 62.510351 -65.171965 96.034459
v 62.510351 -65.171965 96.014670
v 62.511058 -65.173707 95.993882
v 62.511576 -65.173190 95.993150
v 62.538493 -65.200107 95.993150
v 62.525034 -65.186648 95.993150
v 62.537975 -65.200624 95.993882
v 62.524517 -65.187166 95.993882
v 62.708020 -65.058911 95.993421
v 62.708538 -65.059429 95.994153
v 62.696415 -65.071552 95.994153
v 62.695897 -65.071034 95.993421
v 62.709245 -65.058722 95.995153
v 62.709245 -65.057686 95.995153
v 62.709245 -65.057686 96.094095
v 62.709245 -65.057686 96.074307
v 62.709245 -65.057686 96.054518
v 62.709245 -65.057686 96.034730
v 62.709245 -65.057686 96.014941
v 62.709245 -65.058722 96.094095
v 62.709245 -65.058722 96.074307
v 62.709245 -65.058722 96.054518
v 62.709245 -65.058722 96.034730
v 62.709245 -65.058722 96.014941
v 62.668162 -65.016604 96.114884
v 62.667644 -65.017121 96.115616
v 62.694561 -65.044038 96.115616
v 62.681103 -65.030580 96.115616
v 62.695079 -65.043521 96.114884
v 62.681620 -65.030062 96.114884
v 62.666230 -65.017121 96.115616
v 62.665712 -65.016604 96.114884
v 62.653589 -65.028726 96.114884
v 62.654107 -65.029244 96.115616
v 62.511058 -65.171258 95.993882
v 62.511576 -65.171775 95.993150
v 62.510610 -65.172931 95.993882
v 62.511317 -65.172741 95.993150
v 62.510610 -65.172034 95.993882
v 62.511317 -65.172224 95.993150
v 62.708020 -65.057497 95.993421
v 62.708538 -65.056979 95.994153
v 62.709081 -65.058558 95.994287
v 62.709150 -65.057592 95.994653
v 62.708632 -65.058109 95.993653
v 62.708891 -65.057333 95.994287
v 62.667455 -65.015896 96.113884
v 62.666419 -65.015896 96.113884
v 62.666583 -65.016061 96.114750
v 62.667549 -65.015991 96.114384
v 62.667032 -65.016509 96.115384
v 62.667808 -65.016250 96.114750
v 62.534349 -65.147803 95.994116
v 62.535114 -65.147651 95.993468
v 62.535880 -65.147803 95.993034
v 62.536225 -65.147988 95.992920
v 62.523699 -65.159653 95.993150
v 62.523181 -65.159135 95.993882
v 62.667644 -65.017121 95.993421
v 62.668162 -65.016604 95.994153
v 62.695079 -65.043521 95.994153
v 62.681620 -65.030062 95.994153
v 62.694561 -65.044038 95.993421
v 62.681103 -65.030580 95.993421
v 62.667455 -65.015896 95.995153
v 62.666419 -65.015896 95.995153
v 62.666419 -65.015896 96.094095
v 62.666419 -65.015896 96.074307
v 62.666419 -65.015896 96.054518
v 62.666419 -65.015896 96.034730
v 62.666419 -65.015896 96.014941
v 62.667455 -65.015896 96.094095
v 62.667455 -65.015896 96.074307
v 62.667455 -65.015896 96.054518
v 62.667455 -65.015896 96.034730
v 62.667455 -65.015896 96.014941
v 62.534349 -65.147803 95.995482
v 62.535114 -65.147651 95.994833
v 62.535880 -65.147803 95.994400
v 62.536225 -65.147988 95.994286
v 62.666230 -65.017121 95.993421
v 62.665712 -65.016604 95.994153
v 62.666489 -65.016155 95.994153
v 62.666678 -65.016862 95.993421
v 62.667385 -65.016155 95.994153
v 62.667196 -65.016862 95.993421
v 62.642258 -65.039894 95.995482
v 62.642106 -65.040660 95.994833
v 62.642258 -65.041425 95.994400
v 62.642443 -65.041771 95.994286
v 62.549977 -65.133374 95.994515
v 62.565548 -65.117804 95.994515
v 62.581118 -65.102233 95.994515
v 62.596688 -65.086663 95.994515
v 62.612258 -65.071093 95.994515
v 62.627828 -65.055523 95.994515
v 62.549460 -65.132856 95.995247
v 62.565030 -65.117286 95.995247
v 62.580600 -65.101716 95.995247
v 62.596170 -65.086146 95.995247
v 62.611740 -65.070575 95.995247
v 62.627311 -65.055005 95.995247
v 62.642443 -65.041771 95.993191
v 62.642258 -65.041425 95.993305
v 62.642106 -65.040660 95.993738
v 62.642258 -65.039894 95.994387
v 62.653589 -65.028726 95.994153
v 62.654107 -65.029244 95.993421
vt 0.121366 -0.188183 0.000000
vt 0.122731 -0.188183 0.000000
vt 0.121366 -0.131083 0.000000
vt 0.122731 -0.131083 0.000000
vt -0.001095 -0.188183 0.000000
vt 0.000000 -0.188183 0.000000
vt -0.001095 -0.131083 0.000000
vt 0.000000 -0.131083 0.000000
vt -0.185069 -0.058000 0.000000
vt -0.034931 -0.058000 0.000000
vt -0.185069 -0.000900 0.000000
vt -0.034931 -0.000900 0.000000
vt -0.185093 -0.000590 0.000000
vt -0.034907 -0.000590 0.000000
vt -0.185165 -0.000288 0.000000
vt -0.034835 -0.000288 0.000000
vt -0.185282 0.000000 0.000000
vt -0.034718 -0.000000 0.000000
vt 0.034931 -0.058000 0.000000
vt 0.185069 -0.058000 0.000000
vt 0.034931 -0.000900 0.000000
vt 0.185069 -0.000900 0.000000
vt 0.034907 -0.000590 0.000000
vt 0.185093 -0.000590 0.000000
vt 0.034835 -0.000288 0.000000
vt 0.185165 -0.000288 0.000000
vt 0.034718 -0.000000 0.000000
vt 0.185282 0.000000 0.000000
vt 0.060000 0.075282 0.000000
vt -0.060000 0.075282 0.000000
vt 0.060000 -0.075282 0.000000
vt -0.060000 -0.075282 0.000000
vt 0.059095 -0.077069 0.000000
vt 0.058000 -0.077069 0.000000
vt 0.059095 -0.109357 0.000000
vt -0.058000 -0.077069 0.000000
vt -0.059636 -0.109357 0.000000
vt -0.059636 -0.077069 0.000000
vt -0.058000 0.077069 0.000000
vt 0.058000 0.077069 0.000000
vt -0.059366 0.109357 0.000000
vt 0.059366 0.109357 0.000000
vt 0.059366 0.077069 0.000000
vt -0.059366 0.077069 0.000000
vt -0.122731 -0.188183 0.000000
vt -0.121095 -0.188183 0.000000
vt -0.122731 -0.131083 0.000000
vt -0.121095 -0.131083 0.000000
vt -0.036289 -0.188183 0.000000
vt -0.002000 -0.188183 0.000000
vt -0.036289 -0.131083 0.000000
vt -0.002000 -0.131083 0.000000
vt 0.002000 -0.188183 0.000000
vt 0.036289 -0.188183 0.000000
vt 0.002000 -0.131083 0.000000
vt 0.036289 -0.131083 0.000000
vt 0.002000 -0.188183 0.000000
vt 0.120731 -0.188183 0.000000
vt 0.002000 -0.131083 0.000000
vt 0.120731 -0.131083 0.000000
vt -0.059095 -0.109357 0.000000
vt 0.059636 -0.109357 0.000000
vt -0.059095 -0.077069 0.000000
vt 0.059636 -0.077069 0.000000
vt -0.000000 -0.188183 0.000000
vt 0.001366 -0.188183 0.000000
vt 0.000000 -0.131083 0.000000
vt 0.001366 -0.131083 0.000000
vt -0.036289 -0.188183 0.000000
vt -0.002000 -0.188183 0.000000
vt -0.036289 -0.131083 0.000000
vt -0.002000 -0.131083 0.000000
vt 0.002000 -0.188183 0.000000
vt 0.036289 -0.188183 0.000000
vt 0.002000 -0.131083 0.000000
vt 0.036289 -0.131083 0.000000
vt -0.120731 -0.188183 0.000000
vt -0.002000 -0.188183 0.000000
vt -0.120731 -0.131083 0.000000
vt -0.002000 -0.131083 0.000000
vt -0.059366 0.077069 0.000000
vt 0.059366 0.077069 0.000000
vt -0.059366 0.109357 0.000000
vt 0.059366 0.109357 0.000000
vt -0.002000 0.001047 0.000000
vt -0.019144 0.001047 0.000000
vt -0.002000 0.000000 0.000000
vt -0.036250 0.000393 0.000000
vt -0.036289 -0.000000 0.000000
vt -0.019144 0.002094 0.000000
vt -0.002000 0.002094 0.000000
vt -0.002000 0.003142 0.000000
vt -0.034289 0.003142 0.000000
vt -0.035054 0.002356 0.000000
vt -0.035703 0.001571 0.000000
vt -0.036136 0.000785 0.000000
vt -0.000000 -0.000000 0.000000
vt -0.001047 0.000000 0.000000
vt -0.000000 -0.000740 0.000000
vt -0.001047 -0.000740 0.000000
vt -0.000000 -0.001481 0.000000
vt -0.001047 -0.001481 0.000000
vt -0.000000 -0.002221 0.000000
vt -0.001047 -0.002221 0.000000
vt -0.002094 -0.001481 0.000000
vt -0.002094 -0.002221 0.000000
vt -0.003142 -0.001481 0.000000
vt -0.002094 0.000000 0.000000
vt -0.002094 -0.000740 0.000000
vt -0.003142 0.000000 0.000000
vt -0.003142 -0.000740 0.000000
vt 0.121366 -0.000000 0.000000
vt 0.122731 -0.000000 0.000000
vt 0.121366 0.000311 0.000000
vt 0.122693 0.000393 0.000000
vt 0.121366 0.000622 0.000000
vt 0.122579 0.000785 0.000000
vt 0.121366 0.000934 0.000000
vt 0.122145 0.001571 0.000000
vt 0.102276 0.001047 0.000000
vt 0.102276 0.002094 0.000000
vt 0.081821 0.002094 0.000000
vt 0.121496 0.002356 0.000000
vt 0.002000 0.003142 0.000000
vt 0.120731 0.003142 0.000000
vt 0.001235 0.002356 0.000000
vt 0.020455 0.002094 0.000000
vt 0.040910 0.002094 0.000000
vt 0.061366 0.002094 0.000000
vt 0.061366 0.001047 0.000000
vt 0.081821 0.001047 0.000000
vt 0.000586 0.001571 0.000000
vt 0.020455 0.001047 0.000000
vt 0.040910 0.001047 0.000000
vt 0.001366 0.000934 0.000000
vt 0.000152 0.000785 0.000000
vt 0.001366 0.000622 0.000000
vt 0.000038 0.000393 0.000000
vt 0.001366 0.000311 0.000000
vt -0.000000 -0.000000 0.000000
vt 0.001366 0.000000 0.000000
vt 0.122731 0.000000 0.000000
vt 0.121366 0.000000 0.000000
vt 0.122693 -0.000393 0.000000
vt 0.121327 -0.000393 0.000000
vt 0.122579 -0.000785 0.000000
vt 0.121213 -0.000785 0.000000
vt 0.122145 -0.001571 0.000000
vt 0.120780 -0.001571 0.000000
vt 0.121496 -0.002356 0.000000
vt 0.120131 -0.002356 0.000000
vt 0.120731 -0.003142 0.000000
vt 0.119366 -0.003142 0.000000
vt -0.002000 0.000000 0.000000
vt -0.036289 0.000000 0.000000
vt -0.019144 -0.001047 0.000000
vt -0.036250 -0.000393 0.000000
vt -0.036136 -0.000785 0.000000
vt -0.035703 -0.001571 0.000000
vt -0.019144 -0.002094 0.000000
vt -0.002000 -0.002094 0.000000
vt -0.002000 -0.003142 0.000000
vt -0.035054 -0.002356 0.000000
vt -0.034289 -0.003142 0.000000
vt -0.002000 -0.001047 0.000000
vt -0.131083 0.004189 0.000000
vt -0.150117 0.004189 0.000000
vt -0.131083 0.003142 0.000000
vt -0.169150 0.004189 0.000000
vt -0.188183 0.003142 0.000000
vt -0.188183 0.004189 0.000000
vt -0.188183 0.005236 0.000000
vt -0.169150 0.005236 0.000000
vt -0.188183 0.006283 0.000000
vt -0.150117 0.005236 0.000000
vt -0.131083 0.006283 0.000000
vt -0.131083 0.005236 0.000000
vt -0.120731 0.002094 0.000000
vt -0.100943 0.002094 0.000000
vt -0.120731 0.003142 0.000000
vt -0.081154 0.002094 0.000000
vt -0.061366 0.002094 0.000000
vt -0.061366 0.001047 0.000000
vt -0.041577 0.001047 0.000000
vt -0.002000 0.000000 0.000000
vt -0.021789 0.001047 0.000000
vt -0.002000 0.001047 0.000000
vt -0.021789 0.002094 0.000000
vt -0.002000 0.002094 0.000000
vt -0.002000 0.003142 0.000000
vt -0.100943 0.001047 0.000000
vt -0.120731 0.001047 0.000000
vt -0.120731 0.000000 0.000000
vt -0.081154 0.001047 0.000000
vt -0.041577 0.002094 0.000000
vt 0.002000 -0.000000 0.000000
vt 0.036289 -0.000000 0.000000
vt 0.019144 0.001047 0.000000
vt 0.036250 0.000393 0.000000
vt 0.036136 0.000785 0.000000
vt 0.035703 0.001571 0.000000
vt 0.019144 0.002094 0.000000
vt 0.002000 0.002094 0.000000
vt 0.002000 0.003142 0.000000
vt 0.035054 0.002356 0.000000
vt 0.034289 0.003142 0.000000
vt 0.002000 0.001047 0.000000
vt 0.002000 0.002094 0.000000
vt 0.019144 0.002094 0.000000
vt 0.002000 0.003142 0.000000
vt 0.035054 0.002356 0.000000
vt 0.034289 0.003142 0.000000
vt 0.019144 0.001047 0.000000
vt 0.002000 0.001047 0.000000
vt 0.002000 0.000000 0.000000
vt 0.036289 0.000000 0.000000
vt 0.036250 0.000393 0.000000
vt 0.036136 0.000785 0.000000
vt 0.035703 0.001571 0.000000
vt -0.033697 -0.002356 0.000000
vt -0.054951 -0.002094 0.000000
vt -0.032931 -0.003142 0.000000
vt -0.076971 -0.002094 0.000000
vt -0.098990 -0.002094 0.000000
vt -0.098990 -0.001047 0.000000
vt -0.121010 -0.001047 0.000000
vt -0.185068 -0.000000 0.000000
vt -0.143029 -0.001047 0.000000
vt -0.165049 -0.001047 0.000000
vt -0.143029 -0.002094 0.000000
vt -0.165049 -0.002094 0.000000
vt -0.186303 -0.002356 0.000000
vt -0.185654 -0.001571 0.000000
vt -0.185221 -0.000785 0.000000
vt -0.185107 -0.000393 0.000000
vt -0.034346 -0.001571 0.000000
vt -0.054951 -0.001047 0.000000
vt -0.076971 -0.001047 0.000000
vt -0.034893 -0.000393 0.000000
vt -0.034779 -0.000785 0.000000
vt -0.034931 0.000000 0.000000
vt -0.187068 -0.003142 0.000000
vt -0.121010 -0.002094 0.000000
vt -0.003142 -0.001481 0.000000
vt -0.002094 -0.002221 0.000000
vt -0.002094 -0.001481 0.000000
vt -0.001047 -0.002221 0.000000
vt -0.001047 -0.001481 0.000000
vt 0.000000 -0.002221 0.000000
vt 0.000000 -0.001481 0.000000
vt -0.001047 -0.000740 0.000000
vt -0.000000 -0.000740 0.000000
vt -0.001047 -0.000000 0.000000
vt -0.000000 -0.000000 0.000000
vt -0.002094 -0.000000 0.000000
vt -0.002094 -0.000740 0.000000
vt -0.003142 -0.000000 0.000000
vt -0.003142 -0.000740 0.000000
vt -0.001047 -0.004443 0.000000
vt -0.000000 -0.004443 0.000000
vt -0.001047 -0.003702 0.000000
vt -0.000000 -0.003702 0.000000
vt -0.001047 -0.002962 0.000000
vt 0.000000 -0.002962 0.000000
vt -0.001047 -0.002221 0.000000
vt -0.000000 -0.002221 0.000000
vt -0.002094 -0.002221 0.000000
vt -0.002094 -0.002962 0.000000
vt -0.002094 -0.003702 0.000000
vt -0.002094 -0.004443 0.000000
vt -0.003142 -0.003702 0.000000
vt -0.003142 -0.002221 0.000000
vt -0.003142 -0.002962 0.000000
vt -0.001095 0.000622 0.000000
vt -0.000152 0.000785 0.000000
vt -0.001095 0.000934 0.000000
vt -0.000586 0.001571 0.000000
vt -0.020455 0.001047 0.000000
vt -0.020455 0.002094 0.000000
vt -0.040910 0.002094 0.000000
vt -0.001235 0.002356 0.000000
vt -0.120731 0.003142 0.000000
vt -0.002000 0.003142 0.000000
vt -0.000038 0.000393 0.000000
vt -0.001095 0.000311 0.000000
vt -0.000000 0.000000 0.000000
vt -0.001095 0.000000 0.000000
vt -0.121496 0.002356 0.000000
vt -0.102276 0.002094 0.000000
vt -0.081821 0.002094 0.000000
vt -0.061366 0.002094 0.000000
vt -0.061366 0.001047 0.000000
vt -0.040910 0.001047 0.000000
vt -0.122145 0.001571 0.000000
vt -0.102276 0.001047 0.000000
vt -0.081821 0.001047 0.000000
vt -0.121095 0.000934 0.000000
vt -0.122579 0.000785 0.000000
vt -0.121095 0.000622 0.000000
vt -0.122693 0.000393 0.000000
vt -0.121095 0.000311 0.000000
vt -0.122731 0.000000 0.000000
vt -0.121095 0.000000 0.000000
vt 0.003142 -0.000740 0.000000
vt 0.002094 -0.000000 0.000000
vt 0.002094 -0.000740 0.000000
vt 0.001047 0.000000 0.000000
vt 0.001047 -0.000740 0.000000
vt 0.000000 -0.000000 0.000000
vt -0.000000 -0.000740 0.000000
vt 0.001047 -0.001481 0.000000
vt 0.000000 -0.001481 0.000000
vt 0.001047 -0.002221 0.000000
vt 0.000000 -0.002221 0.000000
vt 0.002094 -0.002221 0.000000
vt 0.002094 -0.001481 0.000000
vt 0.003142 -0.002221 0.000000
vt 0.003142 -0.001481 0.000000
vt -0.119095 -0.003142 0.000000
vt -0.119860 -0.002356 0.000000
vt -0.120731 -0.003142 0.000000
vt -0.121496 -0.002356 0.000000
vt -0.120509 -0.001571 0.000000
vt -0.122145 -0.001571 0.000000
vt -0.120942 -0.000785 0.000000
vt -0.122579 -0.000785 0.000000
vt -0.121056 -0.000393 0.000000
vt -0.122693 -0.000393 0.000000
vt -0.121095 -0.000000 0.000000
vt -0.122731 -0.000000 0.000000
vt -0.120731 -0.001047 0.000000
vt -0.100943 -0.001047 0.000000
vt -0.120731 -0.000000 0.000000
vt -0.081154 -0.001047 0.000000
vt -0.061366 -0.001047 0.000000
vt -0.061366 -0.002094 0.000000
vt -0.041577 -0.002094 0.000000
vt -0.002000 -0.003142 0.000000
vt -0.021789 -0.002094 0.000000
vt -0.002000 -0.002094 0.000000
vt -0.021789 -0.001047 0.000000
vt -0.002000 -0.001047 0.000000
vt -0.002000 0.000000 0.000000
vt -0.100943 -0.002094 0.000000
vt -0.120731 -0.002094 0.000000
vt -0.120731 -0.003142 0.000000
vt -0.081154 -0.002094 0.000000
vt -0.041577 -0.001047 0.000000
vt -0.131083 0.001047 0.000000
vt -0.150117 0.001047 0.000000
vt -0.131083 -0.000000 0.000000
vt -0.169150 0.001047 0.000000
vt -0.188183 0.000000 0.000000
vt -0.188183 0.001047 0.000000
vt -0.188183 0.002094 0.000000
vt -0.169150 0.002094 0.000000
vt -0.188183 0.003142 0.000000
vt -0.150117 0.002094 0.000000
vt -0.131083 0.003142 0.000000
vt -0.131083 0.002094 0.000000
vt -0.002000 0.003142 0.000000
vt -0.034289 0.003142 0.000000
vt -0.019144 0.002094 0.000000
vt -0.035054 0.002356 0.000000
vt -0.035703 0.001571 0.000000
vt -0.019144 0.001047 0.000000
vt -0.036136 0.000785 0.000000
vt -0.036250 0.000393 0.000000
vt -0.036289 0.000000 0.000000
vt -0.002000 -0.000000 0.000000
vt -0.002000 0.001047 0.000000
vt -0.002000 0.002094 0.000000
vt 0.120731 0.001047 0.000000
vt 0.100943 0.001047 0.000000
vt 0.120731 -0.000000 0.000000
vt 0.081154 0.001047 0.000000
vt 0.061366 0.001047 0.000000
vt 0.061366 0.002094 0.000000
vt 0.041577 0.002094 0.000000
vt 0.002000 0.003142 0.000000
vt 0.021789 0.002094 0.000000
vt 0.002000 0.002094 0.000000
vt 0.021789 0.001047 0.000000
vt 0.002000 0.001047 0.000000
vt 0.002000 0.000000 0.000000
vt 0.100943 0.002094 0.000000
vt 0.120731 0.002094 0.000000
vt 0.120731 0.003142 0.000000
vt 0.081154 0.002094 0.000000
vt 0.041577 0.001047 0.000000
vt -0.131083 -0.005236 0.000000
vt -0.150117 -0.005236 0.000000
vt -0.131083 -0.006283 0.000000
vt -0.169150 -0.005236 0.000000
vt -0.188183 -0.006283 0.000000
vt -0.188183 -0.005236 0.000000
vt -0.188183 -0.004189 0.000000
vt -0.169150 -0.004189 0.000000
vt -0.188183 -0.003142 0.000000
vt -0.150117 -0.004189 0.000000
vt -0.131083 -0.003142 0.000000
vt -0.131083 -0.004189 0.000000
vt 0.002000 -0.003142 0.000000
vt 0.034289 -0.003142 0.000000
vt 0.019144 -0.002094 0.000000
vt 0.035054 -0.002356 0.000000
vt 0.035703 -0.001571 0.000000
vt 0.019144 -0.001047 0.000000
vt 0.036136 -0.000785 0.000000
vt 0.036250 -0.000393 0.000000
vt 0.036289 -0.000000 0.000000
vt 0.002000 0.000000 0.000000
vt 0.002000 -0.001047 0.000000
vt 0.002000 -0.002094 0.000000
vt 0.003142 -0.002962 0.000000
vt 0.002094 -0.002221 0.000000
vt 0.002094 -0.002962 0.000000
vt 0.001047 -0.002221 0.000000
vt 0.001047 -0.002962 0.000000
vt -0.000000 -0.002221 0.000000
vt -0.000000 -0.002962 0.000000
vt 0.001047 -0.003702 0.000000
vt -0.000000 -0.003702 0.000000
vt 0.001047 -0.004443 0.000000
vt -0.000000 -0.004443 0.000000
vt 0.002094 -0.004443 0.000000
vt 0.002094 -0.003702 0.000000
vt 0.003142 -0.004443 0.000000
vt 0.003142 -0.003702 0.000000
vt 0.003142 -0.002962 0.000000
vt 0.002094 -0.002221 0.000000
vt 0.002094 -0.002962 0.000000
vt 0.001047 -0.002221 0.000000
vt 0.001047 -0.002962 0.000000
vt 0.000000 -0.002221 0.000000
vt 0.000000 -0.002962 0.000000
vt 0.001047 -0.003702 0.000000
vt -0.000000 -0.003702 0.000000
vt 0.001047 -0.004443 0.000000
vt -0.000000 -0.004443 0.000000
vt 0.002094 -0.004443 0.000000
vt 0.002094 -0.003702 0.000000
vt 0.003142 -0.004443 0.000000
vt 0.003142 -0.003702 0.000000
vt 0.001047 -0.000000 0.000000
vt -0.000000 -0.000000 0.000000
vt 0.001047 -0.000740 0.000000
vt -0.000000 -0.000740 0.000000
vt 0.001047 -0.001481 0.000000
vt 0.000000 -0.001481 0.000000
vt 0.001047 -0.002221 0.000000
vt 0.000000 -0.002221 0.000000
vt 0.002094 -0.002221 0.000000
vt 0.002094 -0.001481 0.000000
vt 0.002094 -0.000740 0.000000
vt 0.002094 -0.000000 0.000000
vt 0.003142 -0.000740 0.000000
vt 0.003142 -0.002221 0.000000
vt 0.003142 -0.001481 0.000000
vt 0.002000 -0.001047 0.000000
vt 0.019144 -0.001047 0.000000
vt 0.002000 -0.000000 0.000000
vt 0.036250 -0.000393 0.000000
vt 0.036289 -0.000000 0.000000
vt 0.019144 -0.002094 0.000000
vt 0.002000 -0.002094 0.000000
vt 0.002000 -0.003142 0.000000
vt 0.034289 -0.003142 0.000000
vt 0.035054 -0.002356 0.000000
vt 0.035703 -0.001571 0.000000
vt 0.036136 -0.000785 0.000000
vt -0.131083 -0.002094 0.000000
vt -0.150117 -0.002094 0.000000
vt -0.131083 -0.003142 0.000000
vt -0.169150 -0.002094 0.000000
vt -0.188183 -0.003142 0.000000
vt -0.188183 -0.002094 0.000000
vt -0.188183 -0.001047 0.000000
vt -0.169150 -0.001047 0.000000
vt -0.188183 -0.000000 0.000000
vt -0.150117 -0.001047 0.000000
vt -0.131083 -0.000000 0.000000
vt -0.131083 -0.001047 0.000000
vt 0.120731 -0.002094 0.000000
vt 0.100943 -0.002094 0.000000
vt 0.120731 -0.003142 0.000000
vt 0.081154 -0.002094 0.000000
vt 0.061366 -0.002094 0.000000
vt 0.061366 -0.001047 0.000000
vt 0.041577 -0.001047 0.000000
vt 0.002000 0.000000 0.000000
vt 0.021789 -0.001047 0.000000
vt 0.002000 -0.001047 0.000000
vt 0.021789 -0.002094 0.000000
vt 0.002000 -0.002094 0.000000
vt 0.002000 -0.003142 0.000000
vt 0.100943 -0.001047 0.000000
vt 0.120731 -0.001047 0.000000
vt 0.120731 0.000000 0.000000
vt 0.081154 -0.001047 0.000000
vt 0.041577 -0.002094 0.000000
vt -0.000000 0.000000 0.000000
vt 0.000038 -0.000393 0.000000
vt 0.001366 0.000000 0.000000
vt 0.001404 -0.000393 0.000000
vt 0.000152 -0.000785 0.000000
vt 0.001518 -0.000785 0.000000
vt 0.000586 -0.001571 0.000000
vt 0.001951 -0.001571 0.000000
vt 0.001235 -0.002356 0.000000
vt 0.002600 -0.002356 0.000000
vt 0.002000 -0.003142 0.000000
vt 0.003366 -0.003142 0.000000
vt 0.001047 0.000000 0.000000
vt -0.000000 0.000000 0.000000
vt 0.001047 -0.000740 0.000000
vt -0.000000 -0.000740 0.000000
vt 0.001047 -0.001481 0.000000
vt -0.000000 -0.001481 0.000000
vt 0.001047 -0.002221 0.000000
vt 0.000000 -0.002221 0.000000
vt 0.002094 -0.002221 0.000000
vt 0.002094 -0.001481 0.000000
vt 0.002094 -0.000740 0.000000
vt 0.002094 -0.000000 0.000000
vt 0.003142 -0.000740 0.000000
vt 0.003142 -0.002221 0.000000
vt 0.003142 -0.001481 0.000000
vt 0.034893 -0.000393 0.000000
vt 0.054951 -0.001047 0.000000
vt 0.034931 0.000000 0.000000
vt 0.076971 -0.001047 0.000000
vt 0.098990 -0.001047 0.000000
vt 0.098990 -0.002094 0.000000
vt 0.121010 -0.002094 0.000000
vt 0.187069 -0.003142 0.000000
vt 0.143029 -0.002094 0.000000
vt 0.165049 -0.002094 0.000000
vt 0.143029 -0.001047 0.000000
vt 0.165049 -0.001047 0.000000
vt 0.185107 -0.000393 0.000000
vt 0.185221 -0.000785 0.000000
vt 0.185654 -0.001571 0.000000
vt 0.186303 -0.002356 0.000000
vt 0.034779 -0.000785 0.000000
vt 0.034346 -0.001571 0.000000
vt 0.054951 -0.002094 0.000000
vt 0.033697 -0.002356 0.000000
vt 0.076971 -0.002094 0.000000
vt 0.032931 -0.003142 0.000000
vt 0.185069 0.000000 0.000000
vt 0.121010 -0.001047 0.000000
vt -0.002000 -0.002094 0.000000
vt -0.019144 -0.002094 0.000000
vt -0.002000 -0.003142 0.000000
vt -0.035054 -0.002356 0.000000
vt -0.034289 -0.003142 0.000000
vt -0.019144 -0.001047 0.000000
vt -0.002000 -0.001047 0.000000
vt -0.002000 -0.000000 0.000000
vt -0.036289 -0.000000 0.000000
vt -0.036250 -0.000393 0.000000
vt -0.036136 -0.000785 0.000000
vt -0.035703 -0.001571 0.000000
vt -0.000000 0.000000 0.000000
vt -0.001095 0.000000 0.000000
vt -0.000038 -0.000393 0.000000
vt -0.001133 -0.000393 0.000000
vt -0.000152 -0.000785 0.000000
vt -0.001247 -0.000785 0.000000
vt -0.000586 -0.001571 0.000000
vt -0.001680 -0.001571 0.000000
vt -0.001235 -0.002356 0.000000
vt -0.002329 -0.002356 0.000000
vt -0.002000 -0.003142 0.000000
vt -0.003095 -0.003142 0.000000
vn 0.707107 0.707107 0.000000
vn 0.707107 0.707107 0.000000
vn 0.707107 0.707107 0.000000
vn 0.707107 0.707107 0.000000
vn -0.707107 -0.707107 -0.000000
vn -0.707107 -0.707107 -0.000000
vn -0.707107 -0.707107 -0.000000
vn -0.707107 -0.707107 -0.000000
vn -0.000000 0.000000 1.000000
vn -0.000000 0.000000 1.000000
vn -0.000000 0.000000 1.000000
vn -0.000000 0.000000 1.000000
vn -0.000000 0.000000 1.000000
vn -0.000000 0.000000 1.000000
vn -0.000000 0.000000 1.000000
vn -0.000000 0.000000 1.000000
vn -0.000000 0.000000 1.000000
vn -0.000000 0.000000 1.000000
vn 0.000000 -0.000000 -1.000000
vn 0.000000 -0.000000 -1.000000
vn 0.000000 -0.000000 -1.000000
vn 0.000000 -0.000000 -1.000000
vn 0.000000 -0.000000 -1.000000
vn 0.000000 -0.000000 -1.000000
vn 0.000000 -0.000000 -1.000000
vn 0.000000 -0.000000 -1.000000
vn 0.000000 -0.000000 -1.000000
vn 0.000000 -0.000000 -1.000000
vn 0.707107 -0.707107 0.000000
vn 0.707107 -0.707107 0.000000
vn 0.707107 -0.707107 0.000000
vn 0.707107 -0.707107 0.000000
vn -0.707107 0.707107 -0.000000
vn -0.707107 0.707107 -0.000000
vn -0.707107 0.707107 -0.000000
vn -0.707107 0.707107 -0.000000
vn -0.707107 0.707107 -0.000000
vn -0.707107 0.707107 -0.000000
vn -0.707107 0.707107 -0.000000
vn -0.707107 0.707107 -0.000000
vn -0.707107 0.707107 -0.000000
vn -0.707107 0.707107 -0.000000
vn -0.707107 0.707107 -0.000000
vn -0.707107 0.707107 -0.000000
vn -0.707107 -0.707107 -0.000000
vn -0.707107 -0.707107 -0.000000
vn -0.707107 -0.707107 -0.000000
vn -0.707107 -0.707107 -0.000000
vn 0.000000 -0.000000 -1.000000
vn 0.000000 -0.000000 -1.000000
vn 0.000000 -0.000000 -1.000000
vn 0.000000 -0.000000 -1.000000
vn -0.000000 0.000000 1.000000
vn -0.000000 0.000000 1.000000
vn -0.000000 0.000000 1.000000
vn -0.000000 0.000000 1.000000
vn 0.707107 0.707107 0.000000
vn 0.707107 0.707107 0.000000
vn 0.707107 0.707107 0.000000
vn 0.707107 0.707107 0.000000
vn 0.707107 -0.707107 0.000000
vn 0.707107 -0.707107 0.000000
vn 0.707107 -0.707107 0.000000
vn 0.707107 -0.707107 0.000000
vn 0.707107 0.707107 0.000000
vn 0.707107 0.707107 0.000000
vn 0.707107 0.707107 0.000000
vn 0.707107 0.707107 0.000000
vn -0.000000 0.000000 1.000000
vn -0.000000 0.000000 1.000000
vn -0.000000 0.000000 1.000000
vn -0.000000 0.000000 1.000000
vn 0.000000 -0.000000 -1.000000
vn 0.000000 -0.000000 -1.000000
vn 0.000000 -0.000000 -1.000000
vn 0.000000 -0.000000 -1.000000
vn -0.707107 -0.707107 -0.000000
vn -0.707107 -0.707107 -0.000000
vn -0.707107 -0.707107 -0.000000
vn -0.707107 -0.707107 -0.000000
vn 0.707107 -0.707107 0.000000
vn 0.707107 -0.707107 0.000000
vn 0.707107 -0.707107 0.000000
vn 0.707107 -0.707107 0.000000
vn 0.353553 -0.353553 0.866025
vn 0.353553 -0.353553 0.866025
vn 0.137950 -0.137950 0.980785
vn -0.000000 0.000000 1.000000
vn 0.612372 -0.612372 0.500000
vn 0.612372 -0.612372 0.500000
vn 0.707107 -0.707107 -0.000000
vn 0.653281 -0.653281 0.382683
vn 0.500000 -0.500000 0.707107
vn 0.270598 -0.270598 0.923880
vn -0.258819 -0.965926 0.000000
vn -0.612372 -0.612372 0.500000
vn -0.176777 -0.883883 0.433013
vn -0.353553 -0.353553 0.866025
vn 0.047367 -0.659740 0.750000
vn 0.353553 -0.353553 0.866025
vn 0.435596 -0.789149 0.433013
vn 0.258819 -0.965926 0.000000
vn 0.306186 -0.918559 0.250000
vn 0.707107 0.707107 0.000000
vn 0.707107 0.707107 0.000000
vn 0.808140 0.588991 0.000000
vn 0.831470 0.555570 0.000000
vn 0.889649 0.456646 0.000000
vn 0.923880 0.382683 0.000000
vn 0.949665 0.313268 0.000000
vn 1.000000 -0.000000 0.000000
vn 0.965926 0.258819 0.000000
vn 0.965926 -0.258819 0.000000
vn 0.965926 -0.258819 0.000000
vn 0.923880 -0.382683 0.000000
vn 0.707107 -0.707107 0.000000
vn 0.923880 -0.382683 0.000000
vn 0.965926 -0.258819 0.000000
vn 0.965926 -0.258819 0.000000
vn 0.965926 -0.258819 0.000000
vn 0.965926 0.258819 0.000000
vn 0.965926 0.258819 0.000000
vn 1.000000 -0.000000 0.000000
vn 0.965926 0.258819 0.000000
vn 0.965926 0.258819 0.000000
vn 0.949665 0.313268 0.000000
vn 0.923880 0.382683 0.000000
vn 0.889649 0.456646 0.000000
vn 0.831470 0.555570 0.000000
vn 0.808140 0.588991 0.000000
vn 0.707107 0.707107 0.000000
vn 0.707107 0.707107 0.000000
vn 0.555570 0.831470 -0.000000
vn 0.555570 0.831470 -0.000000
vn 0.382683 0.923880 -0.000000
vn 0.382683 0.923880 -0.000000
vn -0.000000 1.000000 -0.000000
vn -0.000000 1.000000 -0.000000
vn -0.382683 0.923880 -0.000000
vn -0.382683 0.923880 -0.000000
vn -0.707107 0.707107 -0.000000
vn -0.707107 0.707107 -0.000000
vn 0.000000 -0.000000 1.000000
vn -0.353553 0.353553 0.866025
vn -0.137950 0.137950 0.980785
vn -0.270598 0.270598 0.923880
vn -0.500000 0.500000 0.707107
vn -0.612372 0.612372 0.500000
vn -0.612372 0.612372 0.500000
vn -0.653281 0.653281 0.382683
vn -0.353553 0.353553 0.866025
vn -0.612372 -0.612372 0.500000
vn -0.612372 -0.612372 0.500000
vn -0.707107 -0.707107 0.000000
vn -0.612372 -0.612372 0.500000
vn -0.707107 -0.707107 -0.000000
vn -0.612372 -0.612372 0.500000
vn -0.353553 -0.353553 0.866025
vn -0.353553 -0.353553 0.866025
vn 0.000000 0.000000 1.000000
vn -0.353553 -0.353553 0.866025
vn 0.000000 0.000000 1.000000
vn -0.353553 -0.353553 0.866025
vn 0.258819 -0.965926 0.000000
vn 0.258819 -0.965926 0.000000
vn 0.707107 -0.707107 0.000000
vn 0.258819 -0.965926 0.000000
vn 0.258819 -0.965926 0.000000
vn -0.258819 -0.965926 0.000000
vn -0.258819 -0.965926 0.000000
vn -0.707107 -0.707107 -0.000000
vn -0.258819 -0.965926 0.000000
vn -0.258819 -0.965926 0.000000
vn 0.258819 -0.965926 0.000000
vn 0.258819 -0.965926 0.000000
vn 0.707107 -0.707107 0.000000
vn -0.258819 -0.965926 0.000000
vn -0.258819 -0.965926 0.000000
vn -0.707107 -0.707107 -0.000000
vn -0.258819 -0.965926 0.000000
vn 0.258819 -0.965926 0.000000
vn -0.000000 0.000000 -1.000000
vn 0.353553 -0.353553 -0.866025
vn 0.137950 -0.137950 -0.980785
vn 0.270598 -0.270598 -0.923880
vn 0.500000 -0.500000 -0.707107
vn 0.612372 -0.612372 -0.500000
vn 0.612372 -0.612372 -0.500000
vn 0.653281 -0.653281 -0.382683
vn 0.707107 -0.707107 -0.000000
vn 0.353553 -0.353553 -0.866025
vn 0.612372 -0.612372 0.500000
vn 0.612372 -0.612372 0.500000
vn 0.653281 -0.653281 0.382683
vn 0.353553 -0.353553 0.866025
vn 0.353553 -0.353553 0.866025
vn 0.000000 -0.000000 1.000000
vn 0.137950 -0.137950 0.980785
vn 0.270598 -0.270598 0.923880
vn 0.500000 -0.500000 0.707107
vn -0.653281 0.653281 0.382683
vn -0.612372 0.612372 0.500000
vn -0.612372 0.612372 0.500000
vn -0.612372 0.612372 0.500000
vn -0.353553 0.353553 0.866025
vn -0.353553 0.353553 0.866025
vn -0.000000 0.000000 1.000000
vn -0.353553 0.353553 0.866025
vn -0.353553 0.353553 0.866025
vn -0.612372 0.612372 0.500000
vn -0.612372 0.612372 0.500000
vn -0.653281 0.653281 0.382683
vn -0.500000 0.500000 0.707107
vn -0.270598 0.270598 0.923880
vn -0.137950 0.137950 0.980785
vn -0.500000 0.500000 0.707107
vn -0.353553 0.353553 0.866025
vn -0.353553 0.353553 0.866025
vn -0.137950 0.137950 0.980785
vn -0.270598 0.270598 0.923880
vn 0.000000 -0.000000 1.000000
vn -0.707107 0.707107 0.000000
vn -0.612372 0.612372 0.500000
vn -0.612372 -0.612372 0.500000
vn -0.789149 -0.435596 0.433013
vn -0.353553 -0.353553 0.866025
vn -0.659740 -0.047367 0.750000
vn -0.353553 0.353553 0.866025
vn -0.883883 0.176777 0.433013
vn -0.965926 0.258819 0.000000
vn -0.965926 -0.258819 0.000000
vn -0.918559 -0.306186 0.250000
vn -0.353553 -0.353553 -0.866025
vn -0.047367 -0.659740 -0.750000
vn 0.353553 -0.353553 -0.866025
vn 0.176777 -0.883883 -0.433013
vn 0.612372 -0.612372 -0.500000
vn 0.258819 -0.965926 0.000000
vn 0.707107 -0.707107 0.000000
vn -0.258819 -0.965926 0.000000
vn -0.306186 -0.918559 -0.250000
vn -0.435596 -0.789149 -0.433013
vn -0.612372 -0.612372 -0.500000
vn -0.456646 -0.889649 0.000000
vn -0.382683 -0.923880 0.000000
vn -0.313268 -0.949665 0.000000
vn 0.000000 -1.000000 0.000000
vn -0.258819 -0.965926 0.000000
vn 0.258819 -0.965926 0.000000
vn 0.258819 -0.965926 0.000000
vn 0.382683 -0.923880 0.000000
vn 0.707107 -0.707107 0.000000
vn 0.707107 -0.707107 0.000000
vn -0.555570 -0.831470 0.000000
vn -0.588991 -0.808140 0.000000
vn -0.707107 -0.707107 -0.000000
vn -0.707107 -0.707107 -0.000000
vn 0.382683 -0.923880 0.000000
vn 0.258819 -0.965926 0.000000
vn 0.258819 -0.965926 0.000000
vn 0.258819 -0.965926 0.000000
vn -0.258819 -0.965926 0.000000
vn -0.258819 -0.965926 0.000000
vn -0.000000 -1.000000 0.000000
vn -0.258819 -0.965926 0.000000
vn -0.258819 -0.965926 0.000000
vn -0.313268 -0.949665 0.000000
vn -0.382683 -0.923880 0.000000
vn -0.456646 -0.889649 0.000000
vn -0.555570 -0.831470 0.000000
vn -0.588991 -0.808140 0.000000
vn -0.707107 -0.707107 -0.000000
vn -0.707107 -0.707107 -0.000000
vn 0.612372 0.612372 0.500000
vn 0.789149 0.435596 0.433013
vn 0.353553 0.353553 0.866025
vn 0.659740 0.047367 0.750000
vn 0.353553 -0.353553 0.866025
vn 0.883883 -0.176777 0.433013
vn 0.612372 -0.612372 0.500000
vn 0.965926 -0.258819 0.000000
vn 0.707107 -0.707107 0.000000
vn 0.965926 0.258819 0.000000
vn 0.918559 0.306186 0.250000
vn -0.707107 0.707107 -0.000000
vn -0.923880 0.382683 -0.000000
vn -0.707107 0.707107 -0.000000
vn -0.923880 0.382683 -0.000000
vn -1.000000 0.000000 -0.000000
vn -1.000000 0.000000 -0.000000
vn -0.923880 -0.382683 -0.000000
vn -0.923880 -0.382683 -0.000000
vn -0.831470 -0.555570 -0.000000
vn -0.831470 -0.555570 -0.000000
vn -0.707107 -0.707107 -0.000000
vn -0.707107 -0.707107 -0.000000
vn -0.965926 -0.258819 -0.000000
vn -0.965926 -0.258819 -0.000000
vn -0.707107 -0.707107 -0.000000
vn -0.965926 -0.258819 -0.000000
vn -0.965926 -0.258819 -0.000000
vn -0.965926 0.258819 -0.000000
vn -0.965926 0.258819 -0.000000
vn -0.707107 0.707107 -0.000000
vn -0.965926 0.258819 -0.000000
vn -0.965926 0.258819 -0.000000
vn -0.965926 -0.258819 -0.000000
vn -0.965926 -0.258819 -0.000000
vn -0.965926 0.258819 -0.000000
vn -0.965926 0.258819 -0.000000
vn -0.707107 0.707107 -0.000000
vn -0.965926 0.258819 -0.000000
vn -0.965926 -0.258819 -0.000000
vn -0.353553 -0.353553 -0.866025
vn -0.353553 -0.353553 -0.866025
vn 0.000000 0.000000 -1.000000
vn -0.353553 -0.353553 -0.866025
vn -0.000000 -0.000000 -1.000000
vn -0.353553 -0.353553 -0.866025
vn -0.612372 -0.612372 -0.500000
vn -0.612372 -0.612372 -0.500000
vn -0.707107 -0.707107 -0.000000
vn -0.612372 -0.612372 -0.500000
vn -0.707107 -0.707107 -0.000000
vn -0.612372 -0.612372 -0.500000
vn 0.612372 -0.612372 -0.500000
vn 0.653281 -0.653281 -0.382683
vn 0.500000 -0.500000 -0.707107
vn 0.353553 -0.353553 -0.866025
vn 0.270598 -0.270598 -0.923880
vn 0.137950 -0.137950 -0.980785
vn 0.000000 -0.000000 -1.000000
vn 0.353553 -0.353553 -0.866025
vn 0.612372 -0.612372 -0.500000
vn 0.965926 0.258819 0.000000
vn 0.965926 0.258819 0.000000
vn 0.707107 0.707107 0.000000
vn 0.965926 0.258819 0.000000
vn 0.965926 0.258819 0.000000
vn 0.965926 -0.258819 0.000000
vn 0.965926 -0.258819 0.000000
vn 0.965926 -0.258819 0.000000
vn 0.965926 -0.258819 0.000000
vn 0.965926 0.258819 0.000000
vn 0.965926 0.258819 0.000000
vn 0.965926 -0.258819 0.000000
vn 0.965926 -0.258819 0.000000
vn 0.707107 -0.707107 0.000000
vn 0.965926 -0.258819 0.000000
vn 0.965926 0.258819 0.000000
vn 0.353553 0.353553 0.866025
vn 0.353553 0.353553 0.866025
vn 0.353553 0.353553 0.866025
vn 0.353553 0.353553 0.866025
vn 0.612372 0.612372 0.500000
vn 0.612372 0.612372 0.500000
vn 0.707107 0.707107 -0.000000
vn 0.612372 0.612372 0.500000
vn 0.707107 0.707107 -0.000000
vn 0.612372 0.612372 0.500000
vn -0.707107 0.707107 0.000000
vn -0.612372 0.612372 0.500000
vn -0.653281 0.653281 0.382683
vn -0.500000 0.500000 0.707107
vn -0.353553 0.353553 0.866025
vn -0.270598 0.270598 0.923880
vn -0.137950 0.137950 0.980785
vn -0.000000 0.000000 1.000000
vn -0.353553 0.353553 0.866025
vn -0.612372 0.612372 0.500000
vn -0.353553 -0.353553 -0.866025
vn -0.482963 -0.129410 -0.866025
vn -0.612372 -0.612372 -0.500000
vn -0.836516 -0.224144 -0.500000
vn -0.836516 0.224144 -0.500000
vn -0.612372 0.612372 -0.500000
vn -0.353553 0.353553 -0.866025
vn -0.482963 0.129410 -0.866025
vn 0.918559 0.306186 -0.250000
vn 0.883883 -0.176777 -0.433013
vn 0.659740 0.047367 -0.750000
vn 0.353553 -0.353553 -0.866025
vn 0.353553 0.353553 -0.866025
vn 0.612372 0.612372 -0.500000
vn 0.789149 0.435596 -0.433013
vn -0.258819 0.965926 0.000000
vn -0.707107 0.707107 0.000000
vn -0.176777 0.883883 0.433013
vn 0.047367 0.659740 0.750000
vn -0.353553 0.353553 0.866025
vn 0.353553 0.353553 0.866025
vn 0.435596 0.789149 0.433013
vn 0.306186 0.918559 0.250000
vn 0.258819 0.965926 0.000000
vn -0.353553 0.353553 -0.866025
vn -0.353553 0.353553 -0.866025
vn -0.137950 0.137950 -0.980785
vn -0.612372 0.612372 -0.500000
vn -0.653281 0.653281 -0.382683
vn -0.500000 0.500000 -0.707107
vn -0.270598 0.270598 -0.923880
vn 0.612372 0.612372 -0.500000
vn 0.612372 0.612372 -0.500000
vn 0.707107 0.707107 0.000000
vn 0.612372 0.612372 -0.500000
vn 0.707107 0.707107 -0.000000
vn 0.612372 0.612372 -0.500000
vn 0.353553 0.353553 -0.866025
vn 0.353553 0.353553 -0.866025
vn 0.000000 0.000000 -1.000000
vn 0.353553 0.353553 -0.866025
vn 0.000000 0.000000 -1.000000
vn 0.353553 0.353553 -0.866025
vn -0.258819 0.965926 -0.000000
vn -0.258819 0.965926 -0.000000
vn -0.707107 0.707107 -0.000000
vn -0.258819 0.965926 -0.000000
vn -0.258819 0.965926 -0.000000
vn 0.258819 0.965926 -0.000000
vn 0.258819 0.965926 -0.000000
vn 0.707107 0.707107 0.000000
vn 0.258819 0.965926 -0.000000
vn 0.258819 0.965926 -0.000000
vn -0.258819 0.965926 -0.000000
vn -0.258819 0.965926 -0.000000
vn 0.258819 0.965926 -0.000000
vn 0.258819 0.965926 -0.000000
vn 0.707107 0.707107 0.000000
vn 0.258819 0.965926 -0.000000
vn -0.258819 0.965926 -0.000000
vn 0.707107 0.707107 0.000000
vn 0.555570 0.831470 -0.000000
vn 0.707107 0.707107 0.000000
vn 0.555570 0.831470 -0.000000
vn 0.382683 0.923880 -0.000000
vn 0.382683 0.923880 -0.000000
vn 0.000000 1.000000 -0.000000
vn 0.000000 1.000000 -0.000000
vn -0.382683 0.923880 -0.000000
vn -0.382683 0.923880 -0.000000
vn -0.612372 0.612372 -0.500000
vn -0.224144 0.836516 -0.500000
vn -0.258819 0.965926 0.000000
vn 0.224144 0.836516 -0.500000
vn 0.258819 0.965926 0.000000
vn 0.612372 0.612372 -0.500000
vn 0.353553 0.353553 -0.866025
vn 0.129410 0.482963 -0.866025
vn -0.129410 0.482963 -0.866025
vn -0.353553 0.353553 -0.866025
vn -0.137950 0.137950 -0.980785
vn -0.353553 0.353553 -0.866025
vn 0.000000 -0.000000 -1.000000
vn -0.353553 0.353553 -0.866025
vn -0.353553 0.353553 -0.866025
vn -0.612372 0.612372 -0.500000
vn -0.612372 0.612372 -0.500000
vn -0.707107 0.707107 0.000000
vn -0.612372 0.612372 -0.500000
vn -0.612372 0.612372 -0.500000
vn -0.353553 0.353553 -0.866025
vn -0.353553 0.353553 -0.866025
vn -0.137950 0.137950 -0.980785
vn -0.270598 0.270598 -0.923880
vn -0.500000 0.500000 -0.707107
vn -0.653281 0.653281 -0.382683
vn -0.270598 0.270598 -0.923880
vn -0.500000 0.500000 -0.707107
vn -0.612372 0.612372 -0.500000
vn -0.653281 0.653281 -0.382683
vn -0.612372 0.612372 -0.500000
vn 0.000000 -0.000000 -1.000000
vn -0.353553 0.353553 -0.866025
vn -0.612372 0.612372 -0.500000
vn -0.612372 0.612372 -0.500000
vn -0.653281 0.653281 -0.382683
vn -0.707107 0.707107 0.000000
vn -0.353553 0.353553 -0.866025
vn -0.353553 0.353553 -0.866025
vn -0.000000 0.000000 -1.000000
vn -0.137950 0.137950 -0.980785
vn -0.270598 0.270598 -0.923880
vn -0.500000 0.500000 -0.707107
vn -0.831470 -0.555570 -0.000000
vn -0.831470 -0.555570 -0.000000
vn -0.923880 -0.382683 -0.000000
vn -0.923880 -0.382683 -0.000000
vn -1.000000 -0.000000 -0.000000
vn -1.000000 -0.000000 -0.000000
vn -0.923880 0.382683 -0.000000
vn -0.923880 0.382683 -0.000000
vn -0.707107 0.707107 -0.000000
vn -0.707107 0.707107 -0.000000
usemtl Opaque(202,209,238)
f 2/1/1 3/2/2 1/3/3
f 1/3/3 3/2/2 4/4/4
f 6/5/5 7/6/6 5/7/7
f 5/7/7 7/6/6 8/8/8
f 10/9/9 2/10/10 9/11/11
f 9/11/11 2/10/10 1/12/12
f 9/11/11 1/12/12 16/13/13
f 16/13/13 1/12/12 11/14/14
f 16/13/13 11/14/14 15/15/15
f 15/15/15 11/14/14 12/16/16
f 15/15/15 12/16/16 14/17/17
f 14/17/17 12/16/16 13/18/18
f 18/19/19 6/20/20 17/21/21
f 17/21/21 6/20/20 5/22/22
f 17/21/21 5/22/22 24/23/23
f 24/23/23 5/22/22 19/24/24
f 24/23/23 19/24/24 23/25/25
f 23/25/25 19/24/24 20/26/26
f 23/25/25 20/26/26 22/27/27
f 22/27/27 20/26/26 21/28/28
f 13/29/29 22/30/30 14/31/31
f 14/31/31 22/30/30 21/32/32
f 25/33/33 26/34/34 36/35/35
f 36/35/35 26/34/34 33/36/36
f 36/35/35 33/36/36 35/37/37
f 35/37/37 33/36/36 34/38/38
f 33/36/36 26/34/34 32/39/39
f 32/39/39 26/34/34 27/40/40
f 32/39/39 27/40/40 30/41/41
f 30/41/41 27/40/40 29/42/42
f 29/42/42 27/40/40 28/43/43
f 30/41/41 31/44/44 32/39/39
f 38/45/45 10/46/46 37/47/47
f 37/47/47 10/46/46 9/48/48
f 7/49/49 39/50/50 8/51/51
f 8/51/51 39/50/50 40/52/52
f 42/53/53 38/54/54 41/55/55
f 41/55/55 38/54/54 37/56/56
f 44/57/57 45/58/58 43/59/59
f 43/59/59 45/58/58 46/60/60
f 48/61/61 49/62/62 47/63/63
f 47/63/63 49/62/62 50/64/64
f 52/65/65 18/66/66 51/67/67
f 51/67/67 18/66/66 17/68/68
f 3/69/69 53/70/70 4/71/71
f 4/71/71 53/70/70 54/72/72
f 56/73/73 52/74/74 55/75/75
f 55/75/75 52/74/74 51/76/76
f 58/77/77 59/78/78 57/79/79
f 57/79/79 59/78/78 60/80/80
f 61/81/81 62/82/82 64/83/83
f 64/83/83 62/82/82 63/84/84
f 65/85/85 71/86/86 54/87/72
f 54/87/72 71/86/86 70/88/87
f 54/87/72 70/88/87 4/89/88
f 71/86/86 65/85/85 72/90/89
f 72/90/89 65/85/85 66/91/90
f 72/90/89 66/91/90 63/92/84
f 63/92/84 62/93/91 72/90/89
f 72/90/89 62/93/91 67/94/92
f 72/90/89 67/94/92 68/95/93
f 72/90/89 68/95/93 71/86/86
f 71/86/86 68/95/93 69/96/94
f 71/86/86 69/96/94 70/88/87
f 57/97/79 73/98/95 76/99/96
f 76/99/96 73/98/95 78/100/97
f 76/99/96 78/100/97 75/101/98
f 75/101/98 78/100/97 79/102/99
f 75/101/98 79/102/99 54/103/72
f 54/103/72 79/102/99 65/104/100
f 65/104/100 79/102/99 80/105/101
f 65/104/100 80/105/101 66/106/90
f 66/106/90 80/105/101 63/107/84
f 73/98/95 74/108/102 78/100/97
f 78/100/97 74/108/102 77/109/103
f 78/100/97 77/109/103 79/102/99
f 79/102/99 77/109/103 80/105/101
f 74/108/102 63/110/84 77/109/103
f 77/109/103 63/111/84 80/105/101
f 1/112/104 4/113/105 11/114/106
f 11/114/106 4/113/105 70/115/107
f 11/114/106 70/115/107 12/116/108
f 12/116/108 70/115/107 69/117/109
f 12/116/108 69/117/109 13/118/110
f 13/118/110 69/117/109 68/119/111
f 13/118/110 68/119/111 85/120/112
f 85/120/112 68/119/111 90/121/113
f 85/120/112 90/121/113 91/122/114
f 91/122/114 90/121/113 67/123/115
f 91/122/114 67/123/115 61/124/81
f 61/124/81 67/123/115 62/125/116
f 68/119/111 67/123/115 90/121/113
f 81/126/117 94/127/118 61/124/81
f 61/124/81 94/127/118 93/128/119
f 61/124/81 93/128/119 92/129/120
f 92/129/120 93/128/119 87/130/121
f 92/129/120 87/130/121 86/131/122
f 86/131/122 87/130/121 13/118/110
f 86/131/122 13/118/110 85/120/112
f 81/126/117 82/132/123 94/127/118
f 94/127/118 82/132/123 89/133/124
f 94/127/118 89/133/124 88/134/125
f 88/134/125 89/133/124 22/135/126
f 88/134/125 22/135/126 87/130/121
f 87/130/121 22/135/126 13/118/110
f 89/133/124 82/132/123 22/135/126
f 22/135/126 82/132/123 83/136/127
f 22/135/126 83/136/127 23/137/128
f 23/137/128 83/136/127 84/138/129
f 23/137/128 84/138/129 24/139/130
f 24/139/130 84/138/129 51/140/67
f 24/139/130 51/140/67 17/141/68
f 92/129/120 86/131/122 91/122/114
f 91/122/114 86/131/122 85/120/112
f 94/127/118 88/134/125 93/128/119
f 93/128/119 88/134/125 87/130/121
f 61/124/81 92/129/120 91/122/114
f 3/142/131 2/143/132 102/144/133
f 102/144/133 2/143/132 95/145/134
f 102/144/133 95/145/134 101/146/135
f 101/146/135 95/145/134 96/147/136
f 101/146/135 96/147/136 100/148/137
f 100/148/137 96/147/136 97/149/138
f 100/148/137 97/149/138 99/150/139
f 99/150/139 97/149/138 98/151/140
f 99/150/139 98/151/140 31/152/141
f 31/152/141 98/151/140 32/153/142
f 53/154/70 3/155/143 105/156/144
f 105/156/144 3/155/143 102/157/145
f 105/156/144 102/157/145 101/158/146
f 101/158/146 100/159/147 105/156/144
f 105/156/144 100/159/147 106/160/148
f 105/156/144 106/160/148 103/161/149
f 103/161/149 106/160/148 30/162/41
f 30/162/41 106/160/148 99/163/150
f 30/162/41 99/163/150 31/164/44
f 100/159/147 99/163/150 106/160/148
f 103/161/149 104/165/151 105/156/144
f 105/156/144 104/165/151 53/154/70
f 76/166/152 109/167/153 57/168/154
f 57/168/154 109/167/153 110/169/155
f 57/168/154 110/169/155 58/170/156
f 58/170/156 110/169/155 108/171/157
f 108/171/157 110/169/155 107/172/158
f 107/172/158 110/169/155 112/173/159
f 107/172/158 112/173/159 53/174/160
f 53/174/160 112/173/159 111/175/161
f 53/174/160 111/175/161 54/176/162
f 54/176/162 111/175/161 75/177/163
f 75/177/163 111/175/161 76/166/152
f 76/166/152 111/175/161 109/167/153
f 112/173/159 110/169/155 109/167/153
f 112/173/159 109/167/153 111/175/161
f 74/178/164 115/179/165 63/180/166
f 63/180/166 115/179/165 116/181/167
f 63/180/166 116/181/167 117/182/168
f 117/182/168 116/181/167 122/183/169
f 117/182/168 122/183/169 123/184/170
f 123/184/170 122/183/169 60/185/171
f 123/184/170 60/185/171 124/186/172
f 124/186/172 60/185/171 113/187/173
f 124/186/172 113/187/173 119/188/174
f 119/188/174 113/187/173 114/189/175
f 119/188/174 114/189/175 64/190/176
f 115/179/165 74/178/164 120/191/177
f 120/191/177 74/178/164 73/192/178
f 120/191/177 73/192/178 57/193/179
f 60/185/171 122/183/169 57/193/179
f 57/193/179 122/183/169 121/194/180
f 57/193/179 121/194/180 120/191/177
f 120/191/177 121/194/180 115/179/165
f 63/180/166 117/182/168 64/190/176
f 64/190/176 117/182/168 118/195/181
f 64/190/176 118/195/181 119/188/174
f 119/188/174 118/195/181 124/186/172
f 122/183/169 116/181/167 121/194/180
f 121/194/180 116/181/167 115/179/165
f 124/186/172 118/195/181 123/184/170
f 123/184/170 118/195/181 117/182/168
f 55/196/182 51/197/76 127/198/183
f 127/198/183 51/197/76 84/199/184
f 127/198/183 84/199/184 83/200/185
f 83/200/185 82/201/186 127/198/183
f 127/198/183 82/201/186 128/202/187
f 127/198/183 128/202/187 125/203/188
f 125/203/188 128/202/187 64/204/83
f 64/204/83 128/202/187 81/205/189
f 64/204/83 81/205/189 61/206/190
f 82/201/186 81/205/189 128/202/187
f 125/203/188 126/207/191 127/198/183
f 127/198/183 126/207/191 55/196/182
f 129/208/192 135/209/193 49/210/62
f 49/210/62 135/209/193 134/211/194
f 49/210/62 134/211/194 50/212/64
f 135/209/193 129/208/192 136/213/195
f 136/213/195 129/208/192 130/214/196
f 136/213/195 130/214/196 41/215/197
f 41/215/197 37/216/56 136/213/195
f 136/213/195 37/216/56 131/217/198
f 136/213/195 131/217/198 132/218/199
f 132/218/199 133/219/200 136/213/195
f 136/213/195 133/219/200 135/209/193
f 133/219/200 134/211/194 135/209/193
f 98/220/201 141/221/202 32/222/39
f 32/222/39 141/221/202 142/223/203
f 32/222/39 142/223/203 143/224/204
f 143/224/204 142/223/203 149/225/205
f 143/224/204 149/225/205 150/226/206
f 150/226/206 149/225/205 10/227/207
f 150/226/206 10/227/207 151/228/208
f 151/228/208 10/227/207 152/229/209
f 151/228/208 152/229/209 145/230/210
f 145/230/210 152/229/209 146/231/211
f 145/230/210 146/231/211 140/232/212
f 140/232/212 146/231/211 139/233/213
f 139/233/213 146/231/211 152/229/209
f 139/233/213 152/229/209 138/234/214
f 138/234/214 152/229/209 137/235/215
f 137/235/215 152/229/209 10/227/207
f 98/220/201 97/236/216 141/221/202
f 141/221/202 97/236/216 147/237/217
f 141/221/202 147/237/217 148/238/218
f 148/238/218 147/237/217 95/239/219
f 148/238/218 95/239/219 149/225/205
f 149/225/205 95/239/219 10/227/207
f 97/236/216 96/240/220 147/237/217
f 147/237/217 96/240/220 95/239/219
f 95/239/219 2/241/221 10/227/207
f 33/242/222 32/222/39 140/232/212
f 140/232/212 32/222/39 145/230/210
f 149/225/205 142/223/203 148/238/218
f 148/238/218 142/223/203 141/221/202
f 145/230/210 32/222/39 144/243/223
f 144/243/223 32/222/39 143/224/204
f 144/243/223 143/224/204 150/226/206
f 151/228/208 145/230/210 144/243/223
f 151/228/208 144/243/223 150/226/206
f 58/244/77 108/245/224 156/246/225
f 156/246/225 108/245/224 107/247/226
f 156/246/225 107/247/226 155/248/227
f 155/248/227 107/247/226 53/249/70
f 155/248/227 53/249/70 104/250/228
f 155/248/227 104/250/228 157/251/229
f 157/251/229 104/250/228 103/252/149
f 157/251/229 103/252/149 153/253/230
f 153/253/230 103/252/149 30/254/41
f 153/253/230 154/255/231 157/251/229
f 157/251/229 154/255/231 158/256/232
f 157/251/229 158/256/232 155/248/227
f 155/248/227 158/256/232 156/246/225
f 154/255/231 58/257/77 158/256/232
f 158/256/232 58/258/77 156/246/225
f 160/259/233 55/260/75 161/261/234
f 161/261/234 55/260/75 126/262/235
f 161/261/234 126/262/235 163/263/236
f 163/263/236 126/262/235 125/264/237
f 163/263/236 125/264/237 114/265/238
f 114/265/238 125/264/237 64/266/239
f 114/265/238 113/267/240 163/263/236
f 163/263/236 113/267/240 164/268/241
f 163/263/236 164/268/241 161/261/234
f 161/261/234 164/268/241 162/269/242
f 161/261/234 162/269/242 160/259/233
f 160/259/233 162/269/242 159/270/243
f 159/270/243 162/269/242 60/271/80
f 113/267/240 60/272/80 164/268/241
f 164/268/241 60/273/80 162/269/242
f 20/274/244 166/275/245 21/276/246
f 21/276/246 166/275/245 167/277/247
f 21/276/246 167/277/247 169/278/248
f 169/278/248 167/277/247 174/279/249
f 169/278/248 174/279/249 175/280/250
f 175/280/250 174/279/249 168/281/251
f 175/280/250 168/281/251 50/282/252
f 50/282/252 168/281/251 47/283/253
f 166/275/245 20/274/244 165/284/254
f 165/284/254 20/274/244 19/285/255
f 165/284/254 19/285/255 8/286/256
f 8/286/256 19/285/255 5/287/257
f 167/277/247 168/281/251 174/279/249
f 134/288/258 178/289/259 50/282/252
f 50/282/252 178/289/259 177/290/260
f 50/282/252 177/290/260 176/291/261
f 176/291/261 177/290/260 171/292/262
f 176/291/261 171/292/262 170/293/263
f 170/293/263 171/292/262 21/276/246
f 170/293/263 21/276/246 169/278/248
f 134/288/258 133/294/264 178/289/259
f 178/289/259 133/294/264 173/295/265
f 178/289/259 173/295/265 172/296/266
f 172/296/266 173/295/265 14/297/267
f 172/296/266 14/297/267 171/292/262
f 171/292/262 14/297/267 21/276/246
f 173/295/265 133/294/264 14/297/267
f 14/297/267 133/294/264 132/298/268
f 14/297/267 132/298/268 15/299/269
f 15/299/269 132/298/268 131/300/270
f 15/299/269 131/300/270 16/301/271
f 16/301/271 131/300/270 37/302/272
f 16/301/271 37/302/272 9/303/273
f 176/291/261 170/293/263 175/280/250
f 175/280/250 170/293/263 169/278/248
f 178/289/259 172/296/266 177/290/260
f 177/290/260 172/296/266 171/292/262
f 50/282/252 176/291/261 175/280/250
f 46/304/60 179/305/274 184/306/275
f 184/306/275 179/305/274 180/307/276
f 184/306/275 180/307/276 183/308/277
f 183/308/277 180/307/276 41/309/55
f 183/308/277 41/309/55 130/310/278
f 183/308/277 130/310/278 185/311/279
f 185/311/279 130/310/278 129/312/280
f 185/311/279 129/312/280 181/313/281
f 181/313/281 129/312/280 49/314/282
f 181/313/281 182/315/283 185/311/279
f 185/311/279 182/315/283 186/316/284
f 185/311/279 186/316/284 183/308/277
f 183/308/277 186/316/284 184/306/275
f 182/315/283 46/317/60 186/316/284
f 186/316/284 46/318/60 184/306/275
f 33/319/285 140/320/286 34/321/287
f 34/321/287 140/320/286 190/322/288
f 190/322/288 140/320/286 139/323/289
f 190/322/288 139/323/289 189/324/290
f 189/324/290 139/323/289 138/325/291
f 189/324/290 138/325/291 188/326/292
f 188/326/292 138/325/291 137/327/293
f 188/326/292 137/327/293 187/328/294
f 187/328/294 137/327/293 10/329/295
f 187/328/294 10/329/295 38/330/296
f 154/331/297 193/332/298 58/333/299
f 58/333/299 193/332/298 194/334/300
f 58/333/299 194/334/300 195/335/301
f 195/335/301 194/334/300 200/336/302
f 195/335/301 200/336/302 201/337/303
f 201/337/303 200/336/302 29/338/304
f 201/337/303 29/338/304 202/339/305
f 202/339/305 29/338/304 191/340/306
f 202/339/305 191/340/306 197/341/307
f 197/341/307 191/340/306 192/342/308
f 197/341/307 192/342/308 59/343/78
f 193/332/298 154/331/297 198/344/309
f 198/344/309 154/331/297 153/345/310
f 198/344/309 153/345/310 30/346/311
f 29/338/304 200/336/302 30/346/311
f 30/346/311 200/336/302 199/347/312
f 30/346/311 199/347/312 198/344/309
f 198/344/309 199/347/312 193/332/298
f 58/333/299 195/335/301 59/343/78
f 59/343/78 195/335/301 196/348/313
f 59/343/78 196/348/313 197/341/307
f 197/341/307 196/348/313 202/339/305
f 200/336/302 194/334/300 199/347/312
f 199/347/312 194/334/300 193/332/298
f 202/339/305 196/348/313 201/337/303
f 201/337/303 196/348/313 195/335/301
f 160/349/314 205/350/315 55/351/316
f 55/351/316 205/350/315 206/352/317
f 55/351/316 206/352/317 56/353/318
f 56/353/318 206/352/317 204/354/319
f 204/354/319 206/352/317 203/355/320
f 203/355/320 206/352/317 208/356/321
f 203/355/320 208/356/321 59/357/322
f 59/357/322 208/356/321 207/358/323
f 59/357/322 207/358/323 60/359/324
f 60/359/324 207/358/323 159/360/325
f 159/360/325 207/358/323 160/349/314
f 160/349/314 207/358/323 205/350/315
f 208/356/321 206/352/317 205/350/315
f 208/356/321 205/350/315 207/358/323
f 48/361/61 47/362/63 211/363/326
f 211/363/326 47/362/63 168/364/327
f 211/363/326 168/364/327 167/365/328
f 211/363/326 167/365/328 212/366/329
f 212/366/329 167/365/328 166/367/330
f 212/366/329 166/367/330 165/368/331
f 8/369/332 40/370/52 165/368/331
f 165/368/331 40/370/52 212/366/329
f 40/370/52 209/371/333 212/366/329
f 212/366/329 209/371/333 211/363/326
f 209/371/333 210/372/334 211/363/326
f 211/363/326 210/372/334 48/361/61
f 182/373/335 215/374/336 46/375/337
f 46/375/337 215/374/336 216/376/338
f 46/375/337 216/376/338 217/377/339
f 217/377/339 216/376/338 222/378/340
f 217/377/339 222/378/340 223/379/341
f 223/379/341 222/378/340 48/380/61
f 223/379/341 48/380/61 224/381/342
f 224/381/342 48/380/61 213/382/343
f 224/381/342 213/382/343 219/383/344
f 219/383/344 213/382/343 214/384/345
f 219/383/344 214/384/345 43/385/59
f 215/374/336 182/373/335 220/386/346
f 220/386/346 182/373/335 181/387/347
f 220/386/346 181/387/347 49/388/348
f 48/380/61 222/378/340 49/388/348
f 49/388/348 222/378/340 221/389/349
f 49/388/348 221/389/349 220/386/346
f 220/386/346 221/389/349 215/374/336
f 46/375/337 217/377/339 43/385/59
f 43/385/59 217/377/339 218/390/350
f 43/385/59 218/390/350 219/383/344
f 219/383/344 218/390/350 224/381/342
f 222/378/340 216/376/338 221/389/349
f 221/389/349 216/376/338 215/374/336
f 224/381/342 218/390/350 223/379/341
f 223/379/341 218/390/350 217/377/339
f 180/391/351 227/392/352 41/393/55
f 41/393/55 227/392/352 228/394/353
f 41/393/55 228/394/353 42/395/53
f 42/395/53 228/394/353 226/396/354
f 226/396/354 228/394/353 225/397/355
f 225/397/355 228/394/353 230/398/356
f 225/397/355 230/398/356 45/399/357
f 45/399/357 230/398/356 229/400/358
f 45/399/357 229/400/358 46/401/359
f 46/401/359 229/400/358 179/402/360
f 179/402/360 229/400/358 180/391/351
f 180/391/351 229/400/358 227/392/352
f 230/398/356 228/394/353 227/392/352
f 230/398/356 227/392/352 229/400/358
f 35/403/37 34/404/361 233/405/362
f 233/405/362 34/404/361 190/406/363
f 233/405/362 190/406/363 189/407/364
f 233/405/362 189/407/364 234/408/365
f 234/408/365 189/407/364 188/409/366
f 234/408/365 188/409/366 187/410/367
f 38/411/368 42/412/53 187/410/367
f 187/410/367 42/412/53 234/408/365
f 42/412/53 231/413/369 234/408/365
f 234/408/365 231/413/369 233/405/362
f 231/413/369 232/414/370 233/405/362
f 233/405/362 232/414/370 35/403/37
f 56/415/73 204/416/371 238/417/372
f 238/417/372 204/416/371 203/418/373
f 238/417/372 203/418/373 237/419/374
f 237/419/374 203/418/373 59/420/78
f 237/419/374 59/420/78 192/421/308
f 237/419/374 192/421/308 239/422/375
f 239/422/375 192/421/308 191/423/306
f 239/422/375 191/423/306 235/424/376
f 235/424/376 191/423/306 29/425/42
f 235/424/376 236/426/377 239/422/375
f 239/422/375 236/426/377 240/427/378
f 239/422/375 240/427/378 237/419/374
f 237/419/374 240/427/378 238/417/372
f 236/426/377 56/428/73 240/427/378
f 240/427/378 56/429/73 238/417/372
f 43/430/59 214/431/345 244/432/379
f 244/432/379 214/431/345 213/433/343
f 244/432/379 213/433/343 243/434/380
f 243/434/380 213/433/343 48/435/61
f 243/434/380 48/435/61 210/436/334
f 243/434/380 210/436/334 245/437/381
f 245/437/381 210/436/334 209/438/382
f 245/437/381 209/438/382 241/439/383
f 241/439/383 209/438/382 40/440/52
f 241/439/383 242/441/384 245/437/381
f 245/437/381 242/441/384 246/442/385
f 245/437/381 246/442/385 243/434/380
f 243/434/380 246/442/385 244/432/379
f 242/441/384 43/443/59 246/442/385
f 246/442/385 43/444/59 244/432/379
f 248/445/386 35/446/387 249/447/388
f 249/447/388 35/446/387 232/448/370
f 249/447/388 232/448/370 251/449/389
f 251/449/389 232/448/370 231/450/390
f 251/449/389 231/450/390 226/451/391
f 226/451/391 231/450/390 42/452/53
f 226/451/391 225/453/355 251/449/389
f 251/449/389 225/453/355 252/454/392
f 251/449/389 252/454/392 249/447/388
f 249/447/388 252/454/392 250/455/393
f 249/447/388 250/455/393 248/445/386
f 248/445/386 250/455/393 247/456/394
f 247/456/394 250/455/393 45/457/58
f 225/453/355 45/458/58 252/454/392
f 252/454/392 45/459/58 250/455/393
f 236/460/395 257/461/396 56/462/73
f 56/462/73 257/461/396 256/463/397
f 56/462/73 256/463/397 52/464/74
f 257/461/396 236/460/395 258/465/398
f 258/465/398 236/460/395 235/466/376
f 258/465/398 235/466/376 29/467/42
f 29/467/42 28/468/43 258/465/398
f 258/465/398 28/468/43 253/469/399
f 258/465/398 253/469/399 254/470/400
f 258/465/398 254/470/400 257/461/396
f 257/461/396 254/470/400 255/471/401
f 257/461/396 255/471/401 256/463/397
f 242/472/402 261/473/403 43/474/404
f 43/474/404 261/473/403 262/475/405
f 43/474/404 262/475/405 44/476/406
f 44/476/406 262/475/405 260/477/407
f 260/477/407 262/475/405 259/478/408
f 259/478/408 262/475/405 264/479/409
f 259/478/408 264/479/409 39/480/410
f 39/480/410 264/479/409 263/481/411
f 39/480/410 263/481/411 40/482/412
f 40/482/412 263/481/411 241/483/413
f 241/483/413 263/481/411 242/472/402
f 242/472/402 263/481/411 261/473/403
f 264/479/409 262/475/405 261/473/403
f 264/479/409 261/473/403 263/481/411
f 248/484/414 267/485/415 35/486/416
f 35/486/416 267/485/415 268/487/417
f 35/486/416 268/487/417 269/488/418
f 269/488/418 268/487/417 274/489/419
f 269/488/418 274/489/419 275/490/420
f 275/490/420 274/489/419 44/491/421
f 275/490/420 44/491/421 276/492/422
f 276/492/422 44/491/421 265/493/423
f 276/492/422 265/493/423 271/494/424
f 271/494/424 265/493/423 266/495/425
f 271/494/424 266/495/425 36/496/35
f 267/485/415 248/484/414 272/497/426
f 272/497/426 248/484/414 247/498/427
f 272/497/426 247/498/427 45/499/428
f 44/491/421 274/489/419 45/499/428
f 45/499/428 274/489/419 273/500/429
f 45/499/428 273/500/429 272/497/426
f 272/497/426 273/500/429 267/485/415
f 35/486/416 269/488/418 36/496/35
f 36/496/35 269/488/418 270/501/430
f 36/496/35 270/501/430 271/494/424
f 271/494/424 270/501/430 276/492/422
f 274/489/419 268/487/417 273/500/429
f 273/500/429 268/487/417 267/485/415
f 276/492/422 270/501/430 275/490/420
f 275/490/420 270/501/430 269/488/418
f 52/502/431 256/503/432 18/504/433
f 18/504/433 256/503/432 280/505/434
f 280/505/434 256/503/432 255/506/435
f 280/505/434 255/506/435 279/507/436
f 279/507/436 255/506/435 254/508/437
f 279/507/436 254/508/437 278/509/438
f 278/509/438 254/508/437 253/510/439
f 278/509/438 253/510/439 277/511/440
f 277/511/440 253/510/439 28/512/43
f 277/511/440 28/512/43 27/513/40
f 282/514/441 36/515/35 283/516/442
f 283/516/442 36/515/35 266/517/443
f 283/516/442 266/517/443 285/518/444
f 285/518/444 266/517/443 265/519/445
f 285/518/444 265/519/445 260/520/446
f 260/520/446 265/519/445 44/521/421
f 260/520/446 259/522/447 285/518/444
f 285/518/444 259/522/447 286/523/448
f 285/518/444 286/523/448 283/516/442
f 283/516/442 286/523/448 284/524/449
f 283/516/442 284/524/449 282/514/441
f 282/514/441 284/524/449 281/525/450
f 281/525/450 284/524/449 39/526/50
f 259/522/447 39/527/50 286/523/448
f 286/523/448 39/528/50 284/524/449
f 280/529/451 291/530/452 18/531/453
f 18/531/453 291/530/452 292/532/454
f 18/531/453 292/532/454 293/533/455
f 293/533/455 292/532/454 299/534/456
f 293/533/455 299/534/456 300/535/457
f 300/535/457 299/534/456 26/536/458
f 300/535/457 26/536/458 301/537/459
f 301/537/459 26/536/458 302/538/460
f 301/537/459 302/538/460 295/539/461
f 295/539/461 302/538/460 296/540/462
f 295/539/461 296/540/462 290/541/463
f 290/541/463 296/540/462 289/542/464
f 289/542/464 296/540/462 288/543/465
f 288/543/465 296/540/462 302/538/460
f 288/543/465 302/538/460 287/544/466
f 287/544/466 302/538/460 26/536/458
f 280/529/451 279/545/467 291/530/452
f 291/530/452 279/545/467 278/546/468
f 291/530/452 278/546/468 297/547/469
f 297/547/469 278/546/468 277/548/470
f 297/547/469 277/548/470 298/549/471
f 298/549/471 277/548/470 26/536/458
f 298/549/471 26/536/458 299/534/456
f 277/548/470 27/550/40 26/536/458
f 6/551/472 18/531/453 290/541/463
f 290/541/463 18/531/453 294/552/473
f 290/541/463 294/552/473 295/539/461
f 295/539/461 294/552/473 301/537/459
f 294/552/473 18/531/453 293/533/455
f 297/547/469 298/549/471 291/530/452
f 291/530/452 298/549/471 292/532/454
f 298/549/471 299/534/456 292/532/454
f 301/537/459 294/552/473 300/535/457
f 300/535/457 294/552/473 293/533/455
f 282/553/474 307/554/475 36/555/35
f 36/555/35 307/554/475 306/556/476
f 36/555/35 306/556/476 25/557/477
f 307/554/475 282/553/474 308/558/478
f 308/558/478 282/553/474 281/559/479
f 308/558/478 281/559/479 39/560/480
f 39/560/480 7/561/49 308/558/478
f 308/558/478 7/561/49 303/562/481
f 308/558/478 303/562/481 304/563/482
f 304/563/482 305/564/483 308/558/478
f 308/558/478 305/564/483 307/554/475
f 305/564/483 306/556/476 307/554/475
f 7/565/6 6/566/5 303/567/484
f 303/567/484 6/566/5 290/568/485
f 303/567/484 290/568/485 304/569/486
f 304/569/486 290/568/485 289/570/487
f 304/569/486 289/570/487 305/571/488
f 305/571/488 289/570/487 288/572/489
f 305/571/488 288/572/489 306/573/490
f 306/573/490 288/572/489 287/574/491
f 306/573/490 287/574/491 25/575/492
f 25/575/492 287/574/491 26/576/493
# 308 vertices
# 576 texture params
# 493 normals
# 612 facets

# 1 groups
