# WaveFront *.obj file (generated by Autodesk ATF)

mtllib body97_visual.mtl

g Body97

v 63.207913 -64.557604 94.024426
v 63.167537 -64.517228 94.024426
v 63.166571 -64.518194 94.024426
v 63.206947 -64.558570 94.024426
v 63.292766 -64.472751 94.174563
v 63.252390 -64.432375 94.174563
v 63.253164 -64.431601 94.174563
v 63.293540 -64.471977 94.174563
v 63.207913 -64.557604 94.174563
v 63.167537 -64.517228 94.174563
v 63.208132 -64.557823 94.024402
v 63.208346 -64.558037 94.024330
v 63.208549 -64.558240 94.024212
v 63.208549 -64.558240 94.174777
v 63.208346 -64.558037 94.174659
v 63.208132 -64.557823 94.174587
v 63.292766 -64.472751 94.024426
v 63.252390 -64.432375 94.024426
v 63.292985 -64.472970 94.174587
v 63.293199 -64.473184 94.174659
v 63.293402 -64.473388 94.174777
v 63.293402 -64.473388 94.024212
v 63.293199 -64.473184 94.024330
v 63.292985 -64.472970 94.024402
v 63.250336 -64.431601 94.176563
v 63.249561 -64.432375 94.176563
v 63.249561 -64.432375 94.022426
v 63.250527 -64.431410 94.022426
v 63.250527 -64.431410 93.990137
v 63.166571 -64.515365 93.990137
v 63.166571 -64.515365 94.022426
v 63.167537 -64.514400 94.022426
v 63.167537 -64.514400 94.176563
v 63.166380 -64.515557 94.176563
v 63.166380 -64.515557 94.208851
v 63.250336 -64.431601 94.208851
v 63.206756 -64.558761 94.174563
v 63.166380 -64.518385 94.174563
v 63.253164 -64.431601 94.208851
v 63.293540 -64.471977 94.208851
v 63.206756 -64.558761 94.208851
v 63.166380 -64.518385 94.208851
v 63.292126 -64.473391 94.210851
v 63.251750 -64.433016 94.210851
v 63.167794 -64.516971 94.210851
v 63.208170 -64.557347 94.210851
v 63.293540 -64.474806 94.176563
v 63.293540 -64.474806 94.208851
v 63.209584 -64.558761 94.208851
v 63.209584 -64.558761 94.176563
v 63.293731 -64.471786 94.024426
v 63.253355 -64.431410 94.024426
v 63.166571 -64.518194 93.990137
v 63.206947 -64.558570 93.990137
v 63.293731 -64.471786 93.990137
v 63.253355 -64.431410 93.990137
v 63.208361 -64.557155 93.988137
v 63.167986 -64.516780 93.988137
v 63.251941 -64.432824 93.988137
v 63.292317 -64.473200 93.988137
v 63.293731 -64.474614 94.022426
v 63.209776 -64.558570 94.022426
v 63.209776 -64.558570 93.990137
v 63.293731 -64.474614 93.990137
v 63.207844 -64.559087 93.990137
v 63.208879 -64.559087 93.990137
v 63.209127 -64.559003 94.023191
v 63.208361 -64.559155 94.023840
v 63.207596 -64.559003 94.024274
v 63.207250 -64.558818 94.024388
v 63.207844 -64.559087 94.007282
v 63.208879 -64.559087 94.007282
v 63.209069 -64.557862 93.988405
v 63.209586 -64.558380 93.989137
v 63.207137 -64.558380 93.989137
v 63.207654 -64.557862 93.988405
v 63.209233 -64.558734 93.989271
v 63.208456 -64.558475 93.988637
v 63.208008 -64.558923 93.989271
v 63.208974 -64.558992 93.989637
v 63.294165 -64.473965 94.023191
v 63.294317 -64.473200 94.023840
v 63.294165 -64.472434 94.024274
v 63.293980 -64.472089 94.024388
v 63.222118 -64.544813 94.024158
v 63.236582 -64.530349 94.024158
v 63.251046 -64.515885 94.024158
v 63.265510 -64.501421 94.024158
v 63.279974 -64.486957 94.024158
v 63.222636 -64.545330 94.023426
v 63.237100 -64.530866 94.023426
v 63.251564 -64.516402 94.023426
v 63.266028 -64.501938 94.023426
v 63.280492 -64.487474 94.023426
v 63.167288 -64.516925 94.024388
v 63.167104 -64.516579 94.024274
v 63.166951 -64.515814 94.023840
v 63.167104 -64.515049 94.023191
v 63.166138 -64.516014 94.023191
v 63.165986 -64.516780 94.023840
v 63.166138 -64.517545 94.024274
v 63.166323 -64.517891 94.024388
v 63.166054 -64.516262 93.990137
v 63.166054 -64.517297 93.990137
v 63.166054 -64.517297 94.007282
v 63.166054 -64.516262 94.007282
v 63.166761 -64.518004 93.989137
v 63.167279 -64.517487 93.988405
v 63.194196 -64.544404 93.988405
v 63.180737 -64.530945 93.988405
v 63.193678 -64.544922 93.989137
v 63.180220 -64.531463 93.989137
v 63.293024 -64.473907 93.988405
v 63.293542 -64.474425 93.989137
v 63.223579 -64.544388 93.989137
v 63.237571 -64.530395 93.989137
v 63.251564 -64.516402 93.989137
v 63.265557 -64.502410 93.989137
v 63.279549 -64.488417 93.989137
v 63.223061 -64.543870 93.988405
v 63.237054 -64.529877 93.988405
v 63.251046 -64.515885 93.988405
v 63.265039 -64.501892 93.988405
v 63.279032 -64.487900 93.988405
v 63.294249 -64.473717 93.990137
v 63.294249 -64.472682 93.990137
v 63.294249 -64.472682 94.007282
v 63.294249 -64.473717 94.007282
v 63.208688 -64.559279 94.208851
v 63.207652 -64.559279 94.208851
v 63.207059 -64.559010 94.174601
v 63.207405 -64.559195 94.174715
v 63.208170 -64.559347 94.175149
v 63.208935 -64.559195 94.175798
v 63.208688 -64.559279 94.191707
v 63.207652 -64.559279 94.191707
v 63.167288 -64.516925 94.174601
v 63.167104 -64.516579 94.174715
v 63.166951 -64.515814 94.175149
v 63.167104 -64.515049 94.175798
v 63.167019 -64.515296 94.044446
v 63.167019 -64.515296 94.066465
v 63.167019 -64.515296 94.088485
v 63.167019 -64.515296 94.110504
v 63.167019 -64.515296 94.132524
v 63.167019 -64.515296 94.154543
v 63.167019 -64.516332 94.044446
v 63.167019 -64.516332 94.066465
v 63.167019 -64.516332 94.088485
v 63.167019 -64.516332 94.110504
v 63.167019 -64.516332 94.132524
v 63.167019 -64.516332 94.154543
v 63.166761 -64.515555 93.989137
v 63.167279 -64.516072 93.988405
v 63.166313 -64.517228 93.989137
v 63.167020 -64.517038 93.988405
v 63.166313 -64.516331 93.989137
v 63.167020 -64.516521 93.988405
v 63.293024 -64.472493 93.988405
v 63.293542 -64.471975 93.989137
v 63.293990 -64.472752 93.989137
v 63.293283 -64.472941 93.988405
v 63.293990 -64.473648 93.989137
v 63.293283 -64.473459 93.988405
v 63.293788 -64.472280 94.174601
v 63.293973 -64.472626 94.174715
v 63.294126 -64.473391 94.175149
v 63.293973 -64.474157 94.175798
v 63.279783 -64.487148 94.174831
v 63.265319 -64.501612 94.174831
v 63.250855 -64.516076 94.174831
v 63.236391 -64.530540 94.174831
v 63.221927 -64.545004 94.174831
v 63.280300 -64.487666 94.175563
v 63.265836 -64.502130 94.175563
v 63.251373 -64.516594 94.175563
v 63.236909 -64.531058 94.175563
v 63.222445 -64.545522 94.175563
v 63.207463 -64.558054 94.210584
v 63.206945 -64.558572 94.209851
v 63.209395 -64.558572 94.209851
v 63.208877 -64.558054 94.210584
v 63.207722 -64.559020 94.209851
v 63.207911 -64.558313 94.210584
v 63.208618 -64.559020 94.209851
v 63.208429 -64.558313 94.210584
v 63.166131 -64.518082 94.174601
v 63.165946 -64.517736 94.174715
v 63.165794 -64.516971 94.175149
v 63.165946 -64.516206 94.175798
v 63.250716 -64.431599 93.989137
v 63.251234 -64.432117 93.988405
v 63.181271 -64.502080 93.988405
v 63.195264 -64.488087 93.988405
v 63.209256 -64.474095 93.988405
v 63.223249 -64.460102 93.988405
v 63.237242 -64.446110 93.988405
v 63.180754 -64.501562 93.989137
v 63.194746 -64.487570 93.989137
v 63.208739 -64.473577 93.989137
v 63.222731 -64.459584 93.989137
v 63.236724 -64.445592 93.989137
v 63.252648 -64.432117 93.988405
v 63.253166 -64.431599 93.989137
v 63.280083 -64.458517 93.989137
v 63.266625 -64.445058 93.989137
v 63.279566 -64.459034 93.988405
v 63.266107 -64.445576 93.988405
v 63.294057 -64.472874 94.208851
v 63.294057 -64.473909 94.208851
v 63.294057 -64.473909 94.191707
v 63.294057 -64.472874 94.191707
v 63.293350 -64.474616 94.209851
v 63.292833 -64.474098 94.210584
v 63.222870 -64.544061 94.210584
v 63.236862 -64.530069 94.210584
v 63.250855 -64.516076 94.210584
v 63.264847 -64.502084 94.210584
v 63.278840 -64.488091 94.210584
v 63.223387 -64.544579 94.209851
v 63.237380 -64.530586 94.209851
v 63.251373 -64.516594 94.209851
v 63.265365 -64.502601 94.209851
v 63.279358 -64.488609 94.209851
v 63.167087 -64.517678 94.210584
v 63.166569 -64.518196 94.209851
v 63.193487 -64.545113 94.209851
v 63.180028 -64.531654 94.209851
v 63.194004 -64.544595 94.210584
v 63.180546 -64.531137 94.210584
v 63.165862 -64.517489 94.208851
v 63.165862 -64.516453 94.208851
v 63.165862 -64.516453 94.191707
v 63.165862 -64.517489 94.191707
v 63.251424 -64.430892 93.990137
v 63.252459 -64.430892 93.990137
v 63.252036 -64.431505 93.988637
v 63.252812 -64.431246 93.989271
v 63.251588 -64.431056 93.989271
v 63.252554 -64.430987 93.989637
v 63.293350 -64.472167 94.209851
v 63.292833 -64.472684 94.210584
v 63.293799 -64.473840 94.209851
v 63.293091 -64.473650 94.210584
v 63.293799 -64.472943 94.209851
v 63.293091 -64.473133 94.210584
v 63.167087 -64.516264 94.210584
v 63.166569 -64.515746 94.209851
v 63.166121 -64.516523 94.209851
v 63.166828 -64.516712 94.210584
v 63.166121 -64.517419 94.209851
v 63.166828 -64.517230 94.210584
v 63.251176 -64.430976 94.023191
v 63.251941 -64.430824 94.023840
v 63.252707 -64.430976 94.024274
v 63.253052 -64.431161 94.024388
v 63.252459 -64.430892 94.007282
v 63.251424 -64.430892 94.007282
v 63.252974 -64.431791 94.209851
v 63.252457 -64.432308 94.210584
v 63.279374 -64.459226 94.210584
v 63.265915 -64.445767 94.210584
v 63.279892 -64.458708 94.209851
v 63.266433 -64.445249 94.209851
v 63.251043 -64.432308 94.210584
v 63.250525 -64.431791 94.209851
v 63.180562 -64.501754 94.209851
v 63.194555 -64.487761 94.209851
v 63.208547 -64.473769 94.209851
v 63.222540 -64.459776 94.209851
v 63.236532 -64.445783 94.209851
v 63.181080 -64.502271 94.210584
v 63.195072 -64.488279 94.210584
v 63.209065 -64.474286 94.210584
v 63.223057 -64.460294 94.210584
v 63.237050 -64.446301 94.210584
v 63.250210 -64.431942 94.023191
v 63.250976 -64.431790 94.023840
v 63.251741 -64.431942 94.024274
v 63.252087 -64.432127 94.024388
v 63.252267 -64.431084 94.208851
v 63.251232 -64.431084 94.208851
v 63.251396 -64.431248 94.209718
v 63.252362 -64.431178 94.209351
v 63.251844 -64.431696 94.210351
v 63.252621 -64.431437 94.209718
v 63.250210 -64.431942 94.175798
v 63.250976 -64.431790 94.175149
v 63.251741 -64.431942 94.174715
v 63.252087 -64.432127 94.174601
v 63.251493 -64.431858 94.044446
v 63.251493 -64.431858 94.066465
v 63.251493 -64.431858 94.088485
v 63.251493 -64.431858 94.110504
v 63.251493 -64.431858 94.132524
v 63.251493 -64.431858 94.154543
v 63.250458 -64.431858 94.044446
v 63.250458 -64.431858 94.066465
v 63.250458 -64.431858 94.088485
v 63.250458 -64.431858 94.110504
v 63.250458 -64.431858 94.132524
v 63.250458 -64.431858 94.154543
v 63.252861 -64.431353 94.174601
v 63.252515 -64.431168 94.174715
v 63.251750 -64.431016 94.175149
v 63.250984 -64.431168 94.175798
v 63.251232 -64.431084 94.191707
v 63.252267 -64.431084 94.191707
vt 0.121366 -0.188183 0.000000
vt 0.122731 -0.188183 0.000000
vt 0.121366 -0.131083 0.000000
vt 0.122731 -0.131083 0.000000
vt -0.001095 -0.188183 0.000000
vt 0.000000 -0.188183 0.000000
vt -0.001095 -0.131083 0.000000
vt 0.000000 -0.131083 0.000000
vt -0.185069 -0.058000 0.000000
vt -0.034931 -0.058000 0.000000
vt -0.185069 -0.000900 0.000000
vt -0.034931 -0.000900 0.000000
vt -0.185093 -0.000590 0.000000
vt -0.034907 -0.000590 0.000000
vt -0.185165 -0.000288 0.000000
vt -0.034835 -0.000288 0.000000
vt -0.185282 0.000000 0.000000
vt -0.034718 0.000000 0.000000
vt 0.034931 -0.058000 0.000000
vt 0.185069 -0.058000 0.000000
vt 0.034931 -0.000900 0.000000
vt 0.185069 -0.000900 0.000000
vt 0.034907 -0.000590 0.000000
vt 0.185093 -0.000590 0.000000
vt 0.034835 -0.000288 0.000000
vt 0.185165 -0.000288 0.000000
vt 0.034718 -0.000000 0.000000
vt 0.185282 0.000000 0.000000
vt 0.060000 0.075282 0.000000
vt -0.060000 0.075282 0.000000
vt 0.060000 -0.075282 0.000000
vt -0.060000 -0.075282 0.000000
vt 0.059095 -0.077069 0.000000
vt 0.058000 -0.077069 0.000000
vt 0.059095 -0.109357 0.000000
vt -0.058000 -0.077069 0.000000
vt -0.059636 -0.109357 0.000000
vt -0.059636 -0.077069 0.000000
vt -0.058000 0.077069 0.000000
vt 0.058000 0.077069 0.000000
vt -0.059366 0.109357 0.000000
vt 0.059366 0.109357 0.000000
vt 0.059366 0.077069 0.000000
vt -0.059366 0.077069 0.000000
vt -0.122731 -0.188183 0.000000
vt -0.121095 -0.188183 0.000000
vt -0.122731 -0.131083 0.000000
vt -0.121095 -0.131083 0.000000
vt -0.036289 -0.188183 0.000000
vt -0.002000 -0.188183 0.000000
vt -0.036289 -0.131083 0.000000
vt -0.002000 -0.131083 0.000000
vt 0.002000 -0.188183 0.000000
vt 0.036289 -0.188183 0.000000
vt 0.002000 -0.131083 0.000000
vt 0.036289 -0.131083 0.000000
vt 0.002000 -0.188183 0.000000
vt 0.120731 -0.188183 0.000000
vt 0.002000 -0.131083 0.000000
vt 0.120731 -0.131083 0.000000
vt -0.059095 -0.109357 0.000000
vt 0.059636 -0.109357 0.000000
vt -0.059095 -0.077069 0.000000
vt 0.059636 -0.077069 0.000000
vt 0.000000 -0.188183 0.000000
vt 0.001366 -0.188183 0.000000
vt 0.000000 -0.131083 0.000000
vt 0.001366 -0.131083 0.000000
vt -0.036289 -0.188183 0.000000
vt -0.002000 -0.188183 0.000000
vt -0.036289 -0.131083 0.000000
vt -0.002000 -0.131083 0.000000
vt 0.002000 -0.188183 0.000000
vt 0.036289 -0.188183 0.000000
vt 0.002000 -0.131083 0.000000
vt 0.036289 -0.131083 0.000000
vt -0.120731 -0.188183 0.000000
vt -0.002000 -0.188183 0.000000
vt -0.120731 -0.131083 0.000000
vt -0.002000 -0.131083 0.000000
vt -0.059366 0.077069 0.000000
vt 0.059366 0.077069 0.000000
vt -0.059366 0.109357 0.000000
vt 0.059366 0.109357 0.000000
vt -0.002000 0.001047 0.000000
vt -0.019144 0.001047 0.000000
vt -0.002000 0.000000 0.000000
vt -0.036250 0.000393 0.000000
vt -0.036289 0.000000 0.000000
vt -0.019144 0.002094 0.000000
vt -0.002000 0.002094 0.000000
vt -0.002000 0.003142 0.000000
vt -0.034289 0.003142 0.000000
vt -0.035054 0.002356 0.000000
vt -0.035703 0.001571 0.000000
vt -0.036136 0.000785 0.000000
vt 0.000000 -0.000000 0.000000
vt -0.001047 -0.000000 0.000000
vt -0.000000 -0.000740 0.000000
vt -0.001047 -0.000740 0.000000
vt 0.000000 -0.001481 0.000000
vt -0.001047 -0.001481 0.000000
vt -0.000000 -0.002221 0.000000
vt -0.001047 -0.002221 0.000000
vt -0.002094 -0.001481 0.000000
vt -0.002094 -0.002221 0.000000
vt -0.003142 -0.001481 0.000000
vt -0.002094 0.000000 0.000000
vt -0.002094 -0.000740 0.000000
vt -0.003142 0.000000 0.000000
vt -0.003142 -0.000740 0.000000
vt 0.121366 0.000000 0.000000
vt 0.122731 0.000000 0.000000
vt 0.121366 0.000311 0.000000
vt 0.122693 0.000393 0.000000
vt 0.121366 0.000622 0.000000
vt 0.122579 0.000785 0.000000
vt 0.121366 0.000934 0.000000
vt 0.122145 0.001571 0.000000
vt 0.102276 0.001047 0.000000
vt 0.102276 0.002094 0.000000
vt 0.081821 0.002094 0.000000
vt 0.121496 0.002356 0.000000
vt 0.002000 0.003142 0.000000
vt 0.120731 0.003142 0.000000
vt 0.001235 0.002356 0.000000
vt 0.020455 0.002094 0.000000
vt 0.040910 0.002094 0.000000
vt 0.061366 0.002094 0.000000
vt 0.061366 0.001047 0.000000
vt 0.081821 0.001047 0.000000
vt 0.000586 0.001571 0.000000
vt 0.020455 0.001047 0.000000
vt 0.040910 0.001047 0.000000
vt 0.001366 0.000934 0.000000
vt 0.000152 0.000785 0.000000
vt 0.001366 0.000622 0.000000
vt 0.000038 0.000393 0.000000
vt 0.001366 0.000311 0.000000
vt -0.000000 0.000000 0.000000
vt 0.001366 0.000000 0.000000
vt 0.122731 -0.000000 0.000000
vt 0.121366 -0.000000 0.000000
vt 0.122693 -0.000393 0.000000
vt 0.121327 -0.000393 0.000000
vt 0.122579 -0.000785 0.000000
vt 0.121213 -0.000785 0.000000
vt 0.122145 -0.001571 0.000000
vt 0.120780 -0.001571 0.000000
vt 0.121496 -0.002356 0.000000
vt 0.120131 -0.002356 0.000000
vt 0.120731 -0.003142 0.000000
vt 0.119366 -0.003142 0.000000
vt -0.002000 -0.000000 0.000000
vt -0.036289 -0.000000 0.000000
vt -0.019144 -0.001047 0.000000
vt -0.036250 -0.000393 0.000000
vt -0.036136 -0.000785 0.000000
vt -0.035703 -0.001571 0.000000
vt -0.019144 -0.002094 0.000000
vt -0.002000 -0.002094 0.000000
vt -0.002000 -0.003142 0.000000
vt -0.035054 -0.002356 0.000000
vt -0.034289 -0.003142 0.000000
vt -0.002000 -0.001047 0.000000
vt -0.131083 0.004189 0.000000
vt -0.150117 0.004189 0.000000
vt -0.131083 0.003142 0.000000
vt -0.169150 0.004189 0.000000
vt -0.188183 0.003142 0.000000
vt -0.188183 0.004189 0.000000
vt -0.188183 0.005236 0.000000
vt -0.169150 0.005236 0.000000
vt -0.188183 0.006283 0.000000
vt -0.150117 0.005236 0.000000
vt -0.131083 0.006283 0.000000
vt -0.131083 0.005236 0.000000
vt -0.120731 0.002094 0.000000
vt -0.100943 0.002094 0.000000
vt -0.120731 0.003142 0.000000
vt -0.081154 0.002094 0.000000
vt -0.061366 0.002094 0.000000
vt -0.061366 0.001047 0.000000
vt -0.041577 0.001047 0.000000
vt -0.002000 0.000000 0.000000
vt -0.021789 0.001047 0.000000
vt -0.002000 0.001047 0.000000
vt -0.021789 0.002094 0.000000
vt -0.002000 0.002094 0.000000
vt -0.002000 0.003142 0.000000
vt -0.100943 0.001047 0.000000
vt -0.120731 0.001047 0.000000
vt -0.120731 0.000000 0.000000
vt -0.081154 0.001047 0.000000
vt -0.041577 0.002094 0.000000
vt 0.002000 -0.000000 0.000000
vt 0.036289 -0.000000 0.000000
vt 0.019144 0.001047 0.000000
vt 0.036250 0.000393 0.000000
vt 0.036136 0.000785 0.000000
vt 0.035703 0.001571 0.000000
vt 0.019144 0.002094 0.000000
vt 0.002000 0.002094 0.000000
vt 0.002000 0.003142 0.000000
vt 0.035054 0.002356 0.000000
vt 0.034289 0.003142 0.000000
vt 0.002000 0.001047 0.000000
vt 0.002000 0.002094 0.000000
vt 0.019144 0.002094 0.000000
vt 0.002000 0.003142 0.000000
vt 0.035054 0.002356 0.000000
vt 0.034289 0.003142 0.000000
vt 0.019144 0.001047 0.000000
vt 0.002000 0.001047 0.000000
vt 0.002000 -0.000000 0.000000
vt 0.036289 -0.000000 0.000000
vt 0.036250 0.000393 0.000000
vt 0.036136 0.000785 0.000000
vt 0.035703 0.001571 0.000000
vt -0.033697 -0.002356 0.000000
vt -0.054951 -0.002094 0.000000
vt -0.032931 -0.003142 0.000000
vt -0.076971 -0.002094 0.000000
vt -0.098990 -0.002094 0.000000
vt -0.098990 -0.001047 0.000000
vt -0.121010 -0.001047 0.000000
vt -0.185069 -0.000000 0.000000
vt -0.143029 -0.001047 0.000000
vt -0.165049 -0.001047 0.000000
vt -0.143029 -0.002094 0.000000
vt -0.165049 -0.002094 0.000000
vt -0.186303 -0.002356 0.000000
vt -0.185654 -0.001571 0.000000
vt -0.185221 -0.000785 0.000000
vt -0.185107 -0.000393 0.000000
vt -0.034346 -0.001571 0.000000
vt -0.054951 -0.001047 0.000000
vt -0.076971 -0.001047 0.000000
vt -0.034893 -0.000393 0.000000
vt -0.034779 -0.000785 0.000000
vt -0.034931 -0.000000 0.000000
vt -0.187069 -0.003142 0.000000
vt -0.121010 -0.002094 0.000000
vt -0.003142 -0.001481 0.000000
vt -0.002094 -0.002221 0.000000
vt -0.002094 -0.001481 0.000000
vt -0.001047 -0.002221 0.000000
vt -0.001047 -0.001481 0.000000
vt 0.000000 -0.002221 0.000000
vt 0.000000 -0.001481 0.000000
vt -0.001047 -0.000740 0.000000
vt 0.000000 -0.000740 0.000000
vt -0.001047 -0.000000 0.000000
vt 0.000000 -0.000000 0.000000
vt -0.002094 0.000000 0.000000
vt -0.002094 -0.000740 0.000000
vt -0.003142 0.000000 0.000000
vt -0.003142 -0.000740 0.000000
vt -0.001047 -0.004443 0.000000
vt -0.000000 -0.004443 0.000000
vt -0.001047 -0.003702 0.000000
vt -0.000000 -0.003702 0.000000
vt -0.001047 -0.002962 0.000000
vt -0.000000 -0.002962 0.000000
vt -0.001047 -0.002221 0.000000
vt -0.000000 -0.002221 0.000000
vt -0.002094 -0.002221 0.000000
vt -0.002094 -0.002962 0.000000
vt -0.002094 -0.003702 0.000000
vt -0.002094 -0.004443 0.000000
vt -0.003142 -0.003702 0.000000
vt -0.003142 -0.002221 0.000000
vt -0.003142 -0.002962 0.000000
vt -0.001095 0.000622 0.000000
vt -0.000152 0.000785 0.000000
vt -0.001095 0.000934 0.000000
vt -0.000586 0.001571 0.000000
vt -0.020455 0.001047 0.000000
vt -0.020455 0.002094 0.000000
vt -0.040910 0.002094 0.000000
vt -0.001235 0.002356 0.000000
vt -0.120731 0.003142 0.000000
vt -0.002000 0.003142 0.000000
vt -0.000038 0.000393 0.000000
vt -0.001095 0.000311 0.000000
vt -0.000000 -0.000000 0.000000
vt -0.001095 -0.000000 0.000000
vt -0.121496 0.002356 0.000000
vt -0.102276 0.002094 0.000000
vt -0.081821 0.002094 0.000000
vt -0.061366 0.002094 0.000000
vt -0.061366 0.001047 0.000000
vt -0.040910 0.001047 0.000000
vt -0.122145 0.001571 0.000000
vt -0.102276 0.001047 0.000000
vt -0.081821 0.001047 0.000000
vt -0.121095 0.000934 0.000000
vt -0.122579 0.000785 0.000000
vt -0.121095 0.000622 0.000000
vt -0.122693 0.000393 0.000000
vt -0.121095 0.000311 0.000000
vt -0.122731 0.000000 0.000000
vt -0.121095 0.000000 0.000000
vt 0.003142 -0.000740 0.000000
vt 0.002094 -0.000000 0.000000
vt 0.002094 -0.000740 0.000000
vt 0.001047 -0.000000 0.000000
vt 0.001047 -0.000740 0.000000
vt 0.000000 -0.000000 0.000000
vt -0.000000 -0.000740 0.000000
vt 0.001047 -0.001481 0.000000
vt -0.000000 -0.001481 0.000000
vt 0.001047 -0.002221 0.000000
vt -0.000000 -0.002221 0.000000
vt 0.002094 -0.002221 0.000000
vt 0.002094 -0.001481 0.000000
vt 0.003142 -0.002221 0.000000
vt 0.003142 -0.001481 0.000000
vt -0.119095 -0.003142 0.000000
vt -0.119860 -0.002356 0.000000
vt -0.120731 -0.003142 0.000000
vt -0.121496 -0.002356 0.000000
vt -0.120509 -0.001571 0.000000
vt -0.122145 -0.001571 0.000000
vt -0.120942 -0.000785 0.000000
vt -0.122579 -0.000785 0.000000
vt -0.121056 -0.000393 0.000000
vt -0.122693 -0.000393 0.000000
vt -0.121095 0.000000 0.000000
vt -0.122731 0.000000 0.000000
vt -0.120731 -0.001047 0.000000
vt -0.100943 -0.001047 0.000000
vt -0.120731 -0.000000 0.000000
vt -0.081154 -0.001047 0.000000
vt -0.061366 -0.001047 0.000000
vt -0.061366 -0.002094 0.000000
vt -0.041577 -0.002094 0.000000
vt -0.002000 -0.003142 0.000000
vt -0.021789 -0.002094 0.000000
vt -0.002000 -0.002094 0.000000
vt -0.021789 -0.001047 0.000000
vt -0.002000 -0.001047 0.000000
vt -0.002000 -0.000000 0.000000
vt -0.100943 -0.002094 0.000000
vt -0.120731 -0.002094 0.000000
vt -0.120731 -0.003142 0.000000
vt -0.081154 -0.002094 0.000000
vt -0.041577 -0.001047 0.000000
vt -0.131083 0.001047 0.000000
vt -0.150117 0.001047 0.000000
vt -0.131083 -0.000000 0.000000
vt -0.169150 0.001047 0.000000
vt -0.188183 0.000000 0.000000
vt -0.188183 0.001047 0.000000
vt -0.188183 0.002094 0.000000
vt -0.169150 0.002094 0.000000
vt -0.188183 0.003142 0.000000
vt -0.150117 0.002094 0.000000
vt -0.131083 0.003142 0.000000
vt -0.131083 0.002094 0.000000
vt -0.002000 0.003142 0.000000
vt -0.034289 0.003142 0.000000
vt -0.019144 0.002094 0.000000
vt -0.035054 0.002356 0.000000
vt -0.035703 0.001571 0.000000
vt -0.019144 0.001047 0.000000
vt -0.036136 0.000785 0.000000
vt -0.036250 0.000393 0.000000
vt -0.036289 0.000000 0.000000
vt -0.002000 0.000000 0.000000
vt -0.002000 0.001047 0.000000
vt -0.002000 0.002094 0.000000
vt 0.120731 0.001047 0.000000
vt 0.100943 0.001047 0.000000
vt 0.120731 0.000000 0.000000
vt 0.081154 0.001047 0.000000
vt 0.061366 0.001047 0.000000
vt 0.061366 0.002094 0.000000
vt 0.041577 0.002094 0.000000
vt 0.002000 0.003142 0.000000
vt 0.021789 0.002094 0.000000
vt 0.002000 0.002094 0.000000
vt 0.021789 0.001047 0.000000
vt 0.002000 0.001047 0.000000
vt 0.002000 -0.000000 0.000000
vt 0.100943 0.002094 0.000000
vt 0.120731 0.002094 0.000000
vt 0.120731 0.003142 0.000000
vt 0.081154 0.002094 0.000000
vt 0.041577 0.001047 0.000000
vt -0.131083 -0.005236 0.000000
vt -0.150117 -0.005236 0.000000
vt -0.131083 -0.006283 0.000000
vt -0.169150 -0.005236 0.000000
vt -0.188183 -0.006283 0.000000
vt -0.188183 -0.005236 0.000000
vt -0.188183 -0.004189 0.000000
vt -0.169150 -0.004189 0.000000
vt -0.188183 -0.003142 0.000000
vt -0.150117 -0.004189 0.000000
vt -0.131083 -0.003142 0.000000
vt -0.131083 -0.004189 0.000000
vt 0.002000 -0.003142 0.000000
vt 0.034289 -0.003142 0.000000
vt 0.019144 -0.002094 0.000000
vt 0.035054 -0.002356 0.000000
vt 0.035703 -0.001571 0.000000
vt 0.019144 -0.001047 0.000000
vt 0.036136 -0.000785 0.000000
vt 0.036250 -0.000393 0.000000
vt 0.036289 -0.000000 0.000000
vt 0.002000 -0.000000 0.000000
vt 0.002000 -0.001047 0.000000
vt 0.002000 -0.002094 0.000000
vt 0.003142 -0.002962 0.000000
vt 0.002094 -0.002221 0.000000
vt 0.002094 -0.002962 0.000000
vt 0.001047 -0.002221 0.000000
vt 0.001047 -0.002962 0.000000
vt -0.000000 -0.002221 0.000000
vt 0.000000 -0.002962 0.000000
vt 0.001047 -0.003702 0.000000
vt -0.000000 -0.003702 0.000000
vt 0.001047 -0.004443 0.000000
vt -0.000000 -0.004443 0.000000
vt 0.002094 -0.004443 0.000000
vt 0.002094 -0.003702 0.000000
vt 0.003142 -0.004443 0.000000
vt 0.003142 -0.003702 0.000000
vt 0.003142 -0.002962 0.000000
vt 0.002094 -0.002221 0.000000
vt 0.002094 -0.002962 0.000000
vt 0.001047 -0.002221 0.000000
vt 0.001047 -0.002962 0.000000
vt -0.000000 -0.002221 0.000000
vt -0.000000 -0.002962 0.000000
vt 0.001047 -0.003702 0.000000
vt -0.000000 -0.003702 0.000000
vt 0.001047 -0.004443 0.000000
vt -0.000000 -0.004443 0.000000
vt 0.002094 -0.004443 0.000000
vt 0.002094 -0.003702 0.000000
vt 0.003142 -0.004443 0.000000
vt 0.003142 -0.003702 0.000000
vt 0.001047 -0.000000 0.000000
vt 0.000000 -0.000000 0.000000
vt 0.001047 -0.000740 0.000000
vt 0.000000 -0.000740 0.000000
vt 0.001047 -0.001481 0.000000
vt 0.000000 -0.001481 0.000000
vt 0.001047 -0.002221 0.000000
vt 0.000000 -0.002221 0.000000
vt 0.002094 -0.002221 0.000000
vt 0.002094 -0.001481 0.000000
vt 0.002094 -0.000740 0.000000
vt 0.002094 0.000000 0.000000
vt 0.003142 -0.000740 0.000000
vt 0.003142 -0.002221 0.000000
vt 0.003142 -0.001481 0.000000
vt 0.002000 -0.001047 0.000000
vt 0.019144 -0.001047 0.000000
vt 0.002000 0.000000 0.000000
vt 0.036250 -0.000393 0.000000
vt 0.036289 0.000000 0.000000
vt 0.019144 -0.002094 0.000000
vt 0.002000 -0.002094 0.000000
vt 0.002000 -0.003142 0.000000
vt 0.034289 -0.003142 0.000000
vt 0.035054 -0.002356 0.000000
vt 0.035703 -0.001571 0.000000
vt 0.036136 -0.000785 0.000000
vt -0.131083 -0.002094 0.000000
vt -0.150117 -0.002094 0.000000
vt -0.131083 -0.003142 0.000000
vt -0.169150 -0.002094 0.000000
vt -0.188183 -0.003142 0.000000
vt -0.188183 -0.002094 0.000000
vt -0.188183 -0.001047 0.000000
vt -0.169150 -0.001047 0.000000
vt -0.188183 0.000000 0.000000
vt -0.150117 -0.001047 0.000000
vt -0.131083 0.000000 0.000000
vt -0.131083 -0.001047 0.000000
vt 0.120731 -0.002094 0.000000
vt 0.100943 -0.002094 0.000000
vt 0.120731 -0.003142 0.000000
vt 0.081154 -0.002094 0.000000
vt 0.061366 -0.002094 0.000000
vt 0.061366 -0.001047 0.000000
vt 0.041577 -0.001047 0.000000
vt 0.002000 0.000000 0.000000
vt 0.021789 -0.001047 0.000000
vt 0.002000 -0.001047 0.000000
vt 0.021789 -0.002094 0.000000
vt 0.002000 -0.002094 0.000000
vt 0.002000 -0.003142 0.000000
vt 0.100943 -0.001047 0.000000
vt 0.120731 -0.001047 0.000000
vt 0.120731 0.000000 0.000000
vt 0.081154 -0.001047 0.000000
vt 0.041577 -0.002094 0.000000
vt -0.000000 0.000000 0.000000
vt 0.000038 -0.000393 0.000000
vt 0.001366 -0.000000 0.000000
vt 0.001404 -0.000393 0.000000
vt 0.000152 -0.000785 0.000000
vt 0.001518 -0.000785 0.000000
vt 0.000586 -0.001571 0.000000
vt 0.001951 -0.001571 0.000000
vt 0.001235 -0.002356 0.000000
vt 0.002600 -0.002356 0.000000
vt 0.002000 -0.003142 0.000000
vt 0.003366 -0.003142 0.000000
vt 0.001047 -0.000000 0.000000
vt -0.000000 -0.000000 0.000000
vt 0.001047 -0.000740 0.000000
vt -0.000000 -0.000740 0.000000
vt 0.001047 -0.001481 0.000000
vt 0.000000 -0.001481 0.000000
vt 0.001047 -0.002221 0.000000
vt 0.000000 -0.002221 0.000000
vt 0.002094 -0.002221 0.000000
vt 0.002094 -0.001481 0.000000
vt 0.002094 -0.000740 0.000000
vt 0.002094 -0.000000 0.000000
vt 0.003142 -0.000740 0.000000
vt 0.003142 -0.002221 0.000000
vt 0.003142 -0.001481 0.000000
vt 0.034893 -0.000393 0.000000
vt 0.054951 -0.001047 0.000000
vt 0.034931 0.000000 0.000000
vt 0.076971 -0.001047 0.000000
vt 0.098990 -0.001047 0.000000
vt 0.098990 -0.002094 0.000000
vt 0.121010 -0.002094 0.000000
vt 0.187069 -0.003142 0.000000
vt 0.143029 -0.002094 0.000000
vt 0.165049 -0.002094 0.000000
vt 0.143029 -0.001047 0.000000
vt 0.165049 -0.001047 0.000000
vt 0.185107 -0.000393 0.000000
vt 0.185221 -0.000785 0.000000
vt 0.185654 -0.001571 0.000000
vt 0.186303 -0.002356 0.000000
vt 0.034779 -0.000785 0.000000
vt 0.034346 -0.001571 0.000000
vt 0.054951 -0.002094 0.000000
vt 0.033697 -0.002356 0.000000
vt 0.076971 -0.002094 0.000000
vt 0.032931 -0.003142 0.000000
vt 0.185069 0.000000 0.000000
vt 0.121010 -0.001047 0.000000
vt -0.002000 -0.002094 0.000000
vt -0.019144 -0.002094 0.000000
vt -0.002000 -0.003142 0.000000
vt -0.035054 -0.002356 0.000000
vt -0.034289 -0.003142 0.000000
vt -0.019144 -0.001047 0.000000
vt -0.002000 -0.001047 0.000000
vt -0.002000 -0.000000 0.000000
vt -0.036289 -0.000000 0.000000
vt -0.036250 -0.000393 0.000000
vt -0.036136 -0.000785 0.000000
vt -0.035703 -0.001571 0.000000
vt -0.000000 -0.000000 0.000000
vt -0.001095 0.000000 0.000000
vt -0.000038 -0.000393 0.000000
vt -0.001133 -0.000393 0.000000
vt -0.000152 -0.000785 0.000000
vt -0.001247 -0.000785 0.000000
vt -0.000586 -0.001571 0.000000
vt -0.001680 -0.001571 0.000000
vt -0.001235 -0.002356 0.000000
vt -0.002329 -0.002356 0.000000
vt -0.002000 -0.003142 0.000000
vt -0.003095 -0.003142 0.000000
vn -0.000000 0.000000 1.000000
vn -0.000000 0.000000 1.000000
vn -0.000000 0.000000 1.000000
vn -0.000000 0.000000 1.000000
vn 0.000000 -0.000000 -1.000000
vn 0.000000 -0.000000 -1.000000
vn 0.000000 -0.000000 -1.000000
vn 0.000000 -0.000000 -1.000000
vn -0.707107 -0.707107 -0.000000
vn -0.707107 -0.707107 -0.000000
vn -0.707107 -0.707107 -0.000000
vn -0.707107 -0.707107 -0.000000
vn -0.707107 -0.707107 -0.000000
vn -0.707107 -0.707107 -0.000000
vn -0.707107 -0.707107 -0.000000
vn -0.707107 -0.707107 -0.000000
vn -0.707107 -0.707107 -0.000000
vn -0.707107 -0.707107 -0.000000
vn 0.707107 0.707107 0.000000
vn 0.707107 0.707107 0.000000
vn 0.707107 0.707107 0.000000
vn 0.707107 0.707107 0.000000
vn 0.707107 0.707107 0.000000
vn 0.707107 0.707107 0.000000
vn 0.707107 0.707107 0.000000
vn 0.707107 0.707107 0.000000
vn 0.707107 0.707107 0.000000
vn 0.707107 0.707107 0.000000
vn 0.707107 -0.707107 0.000000
vn 0.707107 -0.707107 0.000000
vn 0.707107 -0.707107 0.000000
vn 0.707107 -0.707107 0.000000
vn -0.707107 0.707107 -0.000000
vn -0.707107 0.707107 -0.000000
vn -0.707107 0.707107 -0.000000
vn -0.707107 0.707107 -0.000000
vn -0.707107 0.707107 -0.000000
vn -0.707107 0.707107 -0.000000
vn -0.707107 0.707107 -0.000000
vn -0.707107 0.707107 -0.000000
vn -0.707107 0.707107 -0.000000
vn -0.707107 0.707107 -0.000000
vn -0.707107 0.707107 -0.000000
vn -0.707107 0.707107 -0.000000
vn 0.000000 -0.000000 -1.000000
vn 0.000000 -0.000000 -1.000000
vn 0.000000 -0.000000 -1.000000
vn 0.000000 -0.000000 -1.000000
vn 0.707107 0.707107 0.000000
vn 0.707107 0.707107 0.000000
vn 0.707107 0.707107 0.000000
vn 0.707107 0.707107 0.000000
vn -0.707107 -0.707107 -0.000000
vn -0.707107 -0.707107 -0.000000
vn -0.707107 -0.707107 -0.000000
vn -0.707107 -0.707107 -0.000000
vn -0.000000 0.000000 1.000000
vn -0.000000 0.000000 1.000000
vn -0.000000 0.000000 1.000000
vn -0.000000 0.000000 1.000000
vn 0.707107 -0.707107 0.000000
vn 0.707107 -0.707107 0.000000
vn 0.707107 -0.707107 0.000000
vn 0.707107 -0.707107 0.000000
vn -0.000000 0.000000 1.000000
vn -0.000000 0.000000 1.000000
vn -0.000000 0.000000 1.000000
vn -0.000000 0.000000 1.000000
vn -0.707107 -0.707107 -0.000000
vn -0.707107 -0.707107 -0.000000
vn -0.707107 -0.707107 -0.000000
vn -0.707107 -0.707107 -0.000000
vn 0.707107 0.707107 0.000000
vn 0.707107 0.707107 0.000000
vn 0.707107 0.707107 0.000000
vn 0.707107 0.707107 0.000000
vn 0.000000 -0.000000 -1.000000
vn 0.000000 -0.000000 -1.000000
vn 0.000000 -0.000000 -1.000000
vn 0.000000 -0.000000 -1.000000
vn 0.707107 -0.707107 0.000000
vn 0.707107 -0.707107 0.000000
vn 0.707107 -0.707107 0.000000
vn 0.707107 -0.707107 0.000000
vn -0.258819 -0.965926 0.000000
vn -0.258819 -0.965926 0.000000
vn -0.555570 -0.831470 0.000000
vn -0.707107 -0.707107 -0.000000
vn 0.258819 -0.965926 0.000000
vn 0.258819 -0.965926 0.000000
vn 0.707107 -0.707107 0.000000
vn 0.707107 -0.707107 0.000000
vn 0.382683 -0.923880 0.000000
vn 0.000000 -1.000000 0.000000
vn -0.382683 -0.923880 0.000000
vn 0.353553 -0.353553 -0.866025
vn -0.353553 -0.353553 -0.866025
vn 0.047367 -0.659740 -0.750000
vn -0.612372 -0.612372 -0.500000
vn -0.176777 -0.883883 -0.433013
vn -0.258819 -0.965926 0.000000
vn 0.306186 -0.918559 -0.250000
vn 0.258819 -0.965926 0.000000
vn 0.612372 -0.612372 -0.500000
vn 0.435596 -0.789149 -0.433013
vn 0.000000 -0.000000 1.000000
vn 0.000000 -0.000000 1.000000
vn 0.109574 -0.109574 0.987921
vn 0.137950 -0.137950 0.980785
vn 0.216501 -0.216501 0.951974
vn 0.270598 -0.270598 0.923880
vn 0.318198 -0.318198 0.893029
vn 0.500000 -0.500000 0.707107
vn 0.353553 -0.353553 0.866025
vn 0.612372 -0.612372 0.500000
vn 0.612372 -0.612372 0.500000
vn 0.653281 -0.653281 0.382683
vn 0.707107 -0.707107 0.000000
vn 0.653281 -0.653281 0.382683
vn 0.612372 -0.612372 0.500000
vn 0.612372 -0.612372 0.500000
vn 0.612372 -0.612372 0.500000
vn 0.353553 -0.353553 0.866025
vn 0.353553 -0.353553 0.866025
vn 0.500000 -0.500000 0.707107
vn 0.353553 -0.353553 0.866025
vn 0.353553 -0.353553 0.866025
vn 0.318198 -0.318198 0.893029
vn 0.270598 -0.270598 0.923880
vn 0.216501 -0.216501 0.951974
vn 0.137950 -0.137950 0.980785
vn 0.109574 -0.109574 0.987921
vn 0.000000 -0.000000 1.000000
vn -0.000000 0.000000 1.000000
vn -0.000000 0.000000 1.000000
vn -0.137950 0.137950 0.980785
vn -0.137950 0.137950 0.980785
vn -0.270598 0.270598 0.923880
vn -0.270598 0.270598 0.923880
vn -0.500000 0.500000 0.707107
vn -0.500000 0.500000 0.707107
vn -0.653281 0.653281 0.382683
vn -0.653281 0.653281 0.382683
vn -0.707107 0.707107 0.000000
vn -0.707107 0.707107 0.000000
vn -0.707107 -0.707107 -0.000000
vn -0.707107 -0.707107 -0.000000
vn -0.965926 -0.258819 -0.000000
vn -0.831470 -0.555570 -0.000000
vn -0.923880 -0.382683 -0.000000
vn -1.000000 -0.000000 -0.000000
vn -0.965926 0.258819 -0.000000
vn -0.965926 0.258819 -0.000000
vn -0.707107 0.707107 -0.000000
vn -0.923880 0.382683 -0.000000
vn -0.707107 0.707107 -0.000000
vn -0.965926 -0.258819 -0.000000
vn -0.353553 -0.353553 -0.866025
vn -0.353553 -0.353553 -0.866025
vn -0.000000 -0.000000 -1.000000
vn -0.353553 -0.353553 -0.866025
vn 0.000000 0.000000 -1.000000
vn -0.353553 -0.353553 -0.866025
vn -0.612372 -0.612372 -0.500000
vn -0.612372 -0.612372 -0.500000
vn -0.612372 -0.612372 -0.500000
vn -0.707107 -0.707107 0.000000
vn -0.612372 -0.612372 -0.500000
vn 0.612372 -0.612372 -0.500000
vn 0.612372 -0.612372 -0.500000
vn 0.707107 -0.707107 0.000000
vn 0.612372 -0.612372 -0.500000
vn 0.612372 -0.612372 -0.500000
vn 0.353553 -0.353553 -0.866025
vn 0.353553 -0.353553 -0.866025
vn 0.000000 -0.000000 -1.000000
vn 0.353553 -0.353553 -0.866025
vn 0.353553 -0.353553 -0.866025
vn 0.612372 -0.612372 -0.500000
vn 0.612372 -0.612372 -0.500000
vn 0.353553 -0.353553 -0.866025
vn 0.353553 -0.353553 -0.866025
vn 0.353553 -0.353553 -0.866025
vn 0.612372 -0.612372 -0.500000
vn 0.707107 0.707107 0.000000
vn 0.707107 0.707107 0.000000
vn 0.965926 0.258819 0.000000
vn 0.831470 0.555570 0.000000
vn 0.923880 0.382683 0.000000
vn 1.000000 -0.000000 0.000000
vn 0.965926 -0.258819 0.000000
vn 0.965926 -0.258819 0.000000
vn 0.707107 -0.707107 0.000000
vn 0.923880 -0.382683 0.000000
vn 0.965926 0.258819 0.000000
vn 0.258819 -0.965926 0.000000
vn 0.258819 -0.965926 0.000000
vn 0.707107 -0.707107 0.000000
vn 0.382683 -0.923880 0.000000
vn 0.707107 -0.707107 0.000000
vn -0.258819 -0.965926 0.000000
vn -0.258819 -0.965926 0.000000
vn -0.707107 -0.707107 -0.000000
vn -0.555570 -0.831470 0.000000
vn -0.382683 -0.923880 0.000000
vn 0.000000 -1.000000 0.000000
vn -0.923880 0.382683 -0.000000
vn -0.965926 0.258819 -0.000000
vn -0.707107 0.707107 -0.000000
vn -0.965926 0.258819 -0.000000
vn -0.965926 0.258819 -0.000000
vn -0.965926 -0.258819 -0.000000
vn -0.965926 -0.258819 -0.000000
vn -0.707107 -0.707107 -0.000000
vn -0.965926 -0.258819 -0.000000
vn -0.965926 -0.258819 -0.000000
vn -0.965926 0.258819 -0.000000
vn -0.965926 0.258819 -0.000000
vn -0.923880 0.382683 -0.000000
vn -1.000000 0.000000 -0.000000
vn -0.923880 -0.382683 -0.000000
vn -0.831470 -0.555570 -0.000000
vn -1.000000 -0.000000 -0.000000
vn -0.965926 -0.258819 -0.000000
vn -0.965926 -0.258819 -0.000000
vn -0.831470 -0.555570 -0.000000
vn -0.923880 -0.382683 -0.000000
vn -0.707107 -0.707107 -0.000000
vn -0.707107 0.707107 -0.000000
vn -0.965926 0.258819 -0.000000
vn -0.353553 -0.353553 -0.866025
vn -0.482963 -0.129410 -0.866025
vn -0.612372 -0.612372 -0.500000
vn -0.836516 -0.224144 -0.500000
vn -0.836516 0.224144 -0.500000
vn -0.612372 0.612372 -0.500000
vn -0.353553 0.353553 -0.866025
vn -0.482963 0.129410 -0.866025
vn 0.612372 0.612372 -0.500000
vn 0.836516 0.224144 -0.500000
vn 0.836516 -0.224144 -0.500000
vn 0.612372 -0.612372 -0.500000
vn 0.353553 -0.353553 -0.866025
vn 0.482963 -0.129410 -0.866025
vn 0.482963 0.129410 -0.866025
vn 0.353553 0.353553 -0.866025
vn 0.216501 -0.216501 -0.951974
vn 0.270598 -0.270598 -0.923880
vn 0.318198 -0.318198 -0.893029
vn 0.500000 -0.500000 -0.707107
vn 0.353553 -0.353553 -0.866025
vn 0.612372 -0.612372 -0.500000
vn 0.612372 -0.612372 -0.500000
vn 0.653281 -0.653281 -0.382683
vn 0.707107 -0.707107 0.000000
vn 0.137950 -0.137950 -0.980785
vn 0.109574 -0.109574 -0.987921
vn -0.000000 0.000000 -1.000000
vn 0.653281 -0.653281 -0.382683
vn 0.612372 -0.612372 -0.500000
vn 0.612372 -0.612372 -0.500000
vn 0.612372 -0.612372 -0.500000
vn 0.353553 -0.353553 -0.866025
vn 0.353553 -0.353553 -0.866025
vn 0.500000 -0.500000 -0.707107
vn 0.353553 -0.353553 -0.866025
vn 0.353553 -0.353553 -0.866025
vn 0.318198 -0.318198 -0.893029
vn 0.270598 -0.270598 -0.923880
vn 0.216501 -0.216501 -0.951974
vn 0.137950 -0.137950 -0.980785
vn 0.109574 -0.109574 -0.987921
vn -0.353553 -0.353553 0.866025
vn -0.129410 -0.482963 0.866025
vn -0.612372 -0.612372 0.500000
vn -0.224144 -0.836516 0.500000
vn -0.258819 -0.965926 0.000000
vn 0.224144 -0.836516 0.500000
vn 0.258819 -0.965926 0.000000
vn 0.612372 -0.612372 0.500000
vn 0.353553 -0.353553 0.866025
vn 0.129410 -0.482963 0.866025
vn -0.707107 0.707107 0.000000
vn -0.653281 0.653281 -0.382683
vn -0.707107 0.707107 0.000000
vn -0.653281 0.653281 -0.382683
vn -0.500000 0.500000 -0.707107
vn -0.500000 0.500000 -0.707107
vn -0.270598 0.270598 -0.923880
vn -0.270598 0.270598 -0.923880
vn -0.137950 0.137950 -0.980785
vn -0.137950 0.137950 -0.980785
vn 0.000000 -0.000000 -1.000000
vn -0.353553 0.353553 -0.866025
vn -0.353553 0.353553 -0.866025
vn -0.000000 0.000000 -1.000000
vn -0.353553 0.353553 -0.866025
vn -0.353553 0.353553 -0.866025
vn -0.612372 0.612372 -0.500000
vn -0.612372 0.612372 -0.500000
vn -0.612372 0.612372 -0.500000
vn -0.612372 0.612372 -0.500000
vn -0.353553 0.353553 -0.866025
vn -0.353553 0.353553 -0.866025
vn -0.612372 0.612372 -0.500000
vn -0.612372 0.612372 -0.500000
vn -0.707107 0.707107 0.000000
vn -0.612372 0.612372 -0.500000
vn -0.353553 0.353553 -0.866025
vn 0.612372 0.612372 -0.500000
vn 0.612372 0.612372 -0.500000
vn 0.707107 0.707107 0.000000
vn 0.612372 0.612372 -0.500000
vn 0.707107 0.707107 -0.000000
vn 0.612372 0.612372 -0.500000
vn 0.353553 0.353553 -0.866025
vn 0.353553 0.353553 -0.866025
vn -0.000000 -0.000000 -1.000000
vn 0.353553 0.353553 -0.866025
vn -0.000000 -0.000000 -1.000000
vn 0.353553 0.353553 -0.866025
vn 0.707107 -0.707107 0.000000
vn 0.707107 -0.707107 0.000000
vn 0.965926 -0.258819 0.000000
vn 0.923880 -0.382683 0.000000
vn 1.000000 0.000000 0.000000
vn 0.965926 0.258819 0.000000
vn 0.923880 0.382683 0.000000
vn 0.831470 0.555570 0.000000
vn 0.707107 0.707107 0.000000
vn 0.707107 0.707107 0.000000
vn 0.965926 0.258819 0.000000
vn 0.965926 -0.258819 0.000000
vn 0.353553 -0.353553 0.866025
vn 0.353553 -0.353553 0.866025
vn 0.000000 -0.000000 1.000000
vn 0.353553 -0.353553 0.866025
vn 0.353553 -0.353553 0.866025
vn 0.612372 -0.612372 0.500000
vn 0.612372 -0.612372 0.500000
vn 0.612372 -0.612372 0.500000
vn 0.612372 -0.612372 0.500000
vn 0.353553 -0.353553 0.866025
vn 0.353553 -0.353553 0.866025
vn -0.000000 0.000000 1.000000
vn 0.612372 -0.612372 0.500000
vn 0.707107 -0.707107 0.000000
vn 0.612372 -0.612372 0.500000
vn 0.353553 -0.353553 0.866025
vn -0.612372 -0.612372 0.500000
vn -0.612372 -0.612372 0.500000
vn -0.612372 -0.612372 0.500000
vn -0.612372 -0.612372 0.500000
vn -0.353553 -0.353553 0.866025
vn -0.353553 -0.353553 0.866025
vn -0.000000 -0.000000 1.000000
vn -0.353553 -0.353553 0.866025
vn -0.000000 -0.000000 1.000000
vn -0.353553 -0.353553 0.866025
vn -0.707107 0.707107 -0.000000
vn -0.965926 0.258819 -0.000000
vn -0.923880 0.382683 -0.000000
vn -1.000000 0.000000 -0.000000
vn -0.965926 -0.258819 -0.000000
vn -0.923880 -0.382683 -0.000000
vn -0.831470 -0.555570 -0.000000
vn -0.707107 -0.707107 -0.000000
vn -0.707107 -0.707107 -0.000000
vn -0.965926 -0.258819 -0.000000
vn -0.965926 0.258819 -0.000000
vn 0.612372 0.612372 -0.500000
vn 0.435596 0.789149 -0.433013
vn 0.353553 0.353553 -0.866025
vn 0.047367 0.659740 -0.750000
vn -0.353553 0.353553 -0.866025
vn -0.176777 0.883883 -0.433013
vn -0.258819 0.965926 0.000000
vn -0.707107 0.707107 0.000000
vn 0.258819 0.965926 0.000000
vn 0.306186 0.918559 -0.250000
vn 0.353553 -0.353553 0.866025
vn 0.482963 -0.129410 0.866025
vn 0.612372 -0.612372 0.500000
vn 0.836516 -0.224144 0.500000
vn 0.836516 0.224144 0.500000
vn 0.612372 0.612372 0.500000
vn 0.353553 0.353553 0.866025
vn 0.482963 0.129410 0.866025
vn -0.612372 0.612372 0.500000
vn -0.836516 0.224144 0.500000
vn -0.836516 -0.224144 0.500000
vn -0.612372 -0.612372 0.500000
vn -0.353553 -0.353553 0.866025
vn -0.482963 -0.129410 0.866025
vn -0.482963 0.129410 0.866025
vn -0.353553 0.353553 0.866025
vn 0.258819 0.965926 -0.000000
vn 0.258819 0.965926 -0.000000
vn 0.555570 0.831470 -0.000000
vn 0.707107 0.707107 0.000000
vn -0.258819 0.965926 -0.000000
vn -0.258819 0.965926 -0.000000
vn -0.707107 0.707107 -0.000000
vn -0.382683 0.923880 -0.000000
vn -0.000000 1.000000 -0.000000
vn 0.382683 0.923880 -0.000000
vn 0.353553 0.353553 0.866025
vn 0.353553 0.353553 0.866025
vn 0.000000 0.000000 1.000000
vn 0.353553 0.353553 0.866025
vn 0.000000 0.000000 1.000000
vn 0.353553 0.353553 0.866025
vn 0.612372 0.612372 0.500000
vn 0.612372 0.612372 0.500000
vn 0.707107 0.707107 -0.000000
vn 0.612372 0.612372 0.500000
vn 0.707107 0.707107 -0.000000
vn 0.612372 0.612372 0.500000
vn -0.612372 0.612372 0.500000
vn -0.612372 0.612372 0.500000
vn -0.707107 0.707107 0.000000
vn -0.612372 0.612372 0.500000
vn -0.612372 0.612372 0.500000
vn -0.353553 0.353553 0.866025
vn -0.353553 0.353553 0.866025
vn -0.353553 0.353553 0.866025
vn -0.353553 0.353553 0.866025
vn -0.612372 0.612372 0.500000
vn -0.612372 0.612372 0.500000
vn -0.353553 0.353553 0.866025
vn -0.353553 0.353553 0.866025
vn 0.000000 -0.000000 1.000000
vn -0.353553 0.353553 0.866025
vn -0.612372 0.612372 0.500000
vn -0.137950 0.137950 0.980785
vn -0.000000 0.000000 1.000000
vn -0.137950 0.137950 0.980785
vn -0.270598 0.270598 0.923880
vn -0.270598 0.270598 0.923880
vn -0.500000 0.500000 0.707107
vn -0.500000 0.500000 0.707107
vn -0.653281 0.653281 0.382683
vn -0.653281 0.653281 0.382683
vn -0.258819 0.965926 0.000000
vn -0.707107 0.707107 0.000000
vn -0.176777 0.883883 0.433013
vn 0.047367 0.659740 0.750000
vn -0.353553 0.353553 0.866025
vn 0.353553 0.353553 0.866025
vn 0.612372 0.612372 0.500000
vn 0.435596 0.789149 0.433013
vn 0.306186 0.918559 0.250000
vn 0.258819 0.965926 0.000000
vn 0.555570 0.831470 -0.000000
vn 0.258819 0.965926 -0.000000
vn 0.707107 0.707107 0.000000
vn 0.258819 0.965926 -0.000000
vn 0.258819 0.965926 -0.000000
vn -0.258819 0.965926 -0.000000
vn -0.258819 0.965926 -0.000000
vn -0.707107 0.707107 -0.000000
vn -0.258819 0.965926 -0.000000
vn -0.258819 0.965926 -0.000000
vn 0.258819 0.965926 -0.000000
vn 0.258819 0.965926 -0.000000
vn 0.555570 0.831470 -0.000000
vn 0.382683 0.923880 -0.000000
vn -0.000000 1.000000 -0.000000
vn -0.382683 0.923880 -0.000000
vn 0.382683 0.923880 -0.000000
vn 0.000000 1.000000 -0.000000
vn -0.258819 0.965926 -0.000000
vn -0.382683 0.923880 -0.000000
vn -0.258819 0.965926 -0.000000
vn -0.707107 0.707107 -0.000000
vn 0.707107 0.707107 0.000000
vn 0.258819 0.965926 -0.000000
vn -0.258819 0.965926 -0.000000
vn -0.258819 0.965926 -0.000000
vn -0.382683 0.923880 -0.000000
vn -0.707107 0.707107 -0.000000
vn 0.258819 0.965926 -0.000000
vn 0.258819 0.965926 -0.000000
vn 0.707107 0.707107 0.000000
vn 0.555570 0.831470 -0.000000
vn 0.382683 0.923880 -0.000000
vn -0.000000 1.000000 -0.000000
vn 0.000000 -0.000000 -1.000000
vn -0.137950 0.137950 -0.980785
vn -0.137950 0.137950 -0.980785
vn -0.270598 0.270598 -0.923880
vn -0.270598 0.270598 -0.923880
vn -0.500000 0.500000 -0.707107
vn -0.500000 0.500000 -0.707107
vn -0.653281 0.653281 -0.382683
vn -0.653281 0.653281 -0.382683
usemtl Opaque(202,209,238)
f 2/1/1 3/2/2 1/3/3
f 1/3/3 3/2/2 4/4/4
f 6/5/5 7/6/6 5/7/7
f 5/7/7 7/6/6 8/8/8
f 10/9/9 2/10/10 9/11/11
f 9/11/11 2/10/10 1/12/12
f 9/11/11 1/12/12 16/13/13
f 16/13/13 1/12/12 11/14/14
f 16/13/13 11/14/14 15/15/15
f 15/15/15 11/14/14 12/16/16
f 15/15/15 12/16/16 14/17/17
f 14/17/17 12/16/16 13/18/18
f 18/19/19 6/20/20 17/21/21
f 17/21/21 6/20/20 5/22/22
f 17/21/21 5/22/22 24/23/23
f 24/23/23 5/22/22 19/24/24
f 24/23/23 19/24/24 23/25/25
f 23/25/25 19/24/24 20/26/26
f 23/25/25 20/26/26 22/27/27
f 22/27/27 20/26/26 21/28/28
f 13/29/29 22/30/30 14/31/31
f 14/31/31 22/30/30 21/32/32
f 25/33/33 26/34/34 36/35/35
f 36/35/35 26/34/34 33/36/36
f 36/35/35 33/36/36 35/37/37
f 35/37/37 33/36/36 34/38/38
f 33/36/36 26/34/34 32/39/39
f 32/39/39 26/34/34 27/40/40
f 32/39/39 27/40/40 30/41/41
f 30/41/41 27/40/40 29/42/42
f 29/42/42 27/40/40 28/43/43
f 30/41/41 31/44/44 32/39/39
f 38/45/45 10/46/46 37/47/47
f 37/47/47 10/46/46 9/48/48
f 7/49/49 39/50/50 8/51/51
f 8/51/51 39/50/50 40/52/52
f 42/53/53 38/54/54 41/55/55
f 41/55/55 38/54/54 37/56/56
f 44/57/57 45/58/58 43/59/59
f 43/59/59 45/58/58 46/60/60
f 48/61/61 49/62/62 47/63/63
f 47/63/63 49/62/62 50/64/64
f 52/65/65 18/66/66 51/67/67
f 51/67/67 18/66/66 17/68/68
f 3/69/69 53/70/70 4/71/71
f 4/71/71 53/70/70 54/72/72
f 56/73/73 52/74/74 55/75/75
f 55/75/75 52/74/74 51/76/76
f 58/77/77 59/78/78 57/79/79
f 57/79/79 59/78/78 60/80/80
f 61/81/81 62/82/82 64/83/83
f 64/83/83 62/82/82 63/84/84
f 65/85/85 71/86/86 54/87/72
f 54/87/72 71/86/86 70/88/87
f 54/87/72 70/88/87 4/89/88
f 71/86/86 65/85/85 72/90/89
f 72/90/89 65/85/85 66/91/90
f 72/90/89 66/91/90 63/92/91
f 63/92/91 62/93/92 72/90/89
f 72/90/89 62/93/92 67/94/93
f 72/90/89 67/94/93 68/95/94
f 72/90/89 68/95/94 71/86/86
f 71/86/86 68/95/94 69/96/95
f 71/86/86 69/96/95 70/88/87
f 57/97/79 73/98/96 76/99/97
f 76/99/97 73/98/96 78/100/98
f 76/99/97 78/100/98 75/101/99
f 75/101/99 78/100/98 79/102/100
f 75/101/99 79/102/100 54/103/72
f 54/103/72 79/102/100 65/104/101
f 65/104/101 79/102/100 80/105/102
f 65/104/101 80/105/102 66/106/103
f 66/106/103 80/105/102 63/107/84
f 73/98/96 74/108/104 78/100/98
f 78/100/98 74/108/104 77/109/105
f 78/100/98 77/109/105 79/102/100
f 79/102/100 77/109/105 80/105/102
f 74/108/104 63/110/84 77/109/105
f 77/109/105 63/111/84 80/105/102
f 1/112/106 4/113/107 11/114/108
f 11/114/108 4/113/107 70/115/109
f 11/114/108 70/115/109 12/116/110
f 12/116/110 70/115/109 69/117/111
f 12/116/110 69/117/111 13/118/112
f 13/118/112 69/117/111 68/119/113
f 13/118/112 68/119/113 85/120/114
f 85/120/114 68/119/113 90/121/115
f 85/120/114 90/121/115 91/122/116
f 91/122/116 90/121/115 67/123/117
f 91/122/116 67/123/117 61/124/81
f 61/124/81 67/123/117 62/125/118
f 68/119/113 67/123/117 90/121/115
f 81/126/119 94/127/120 61/124/81
f 61/124/81 94/127/120 93/128/121
f 61/124/81 93/128/121 92/129/122
f 92/129/122 93/128/121 87/130/123
f 92/129/122 87/130/123 86/131/124
f 86/131/124 87/130/123 13/118/112
f 86/131/124 13/118/112 85/120/114
f 81/126/119 82/132/125 94/127/120
f 94/127/120 82/132/125 89/133/126
f 94/127/120 89/133/126 88/134/127
f 88/134/127 89/133/126 22/135/128
f 88/134/127 22/135/128 87/130/123
f 87/130/123 22/135/128 13/118/112
f 89/133/126 82/132/125 22/135/128
f 22/135/128 82/132/125 83/136/129
f 22/135/128 83/136/129 23/137/130
f 23/137/130 83/136/129 84/138/131
f 23/137/130 84/138/131 24/139/132
f 24/139/132 84/138/131 51/140/67
f 24/139/132 51/140/67 17/141/133
f 92/129/122 86/131/124 91/122/116
f 91/122/116 86/131/124 85/120/114
f 94/127/120 88/134/127 93/128/121
f 93/128/121 88/134/127 87/130/123
f 61/124/81 92/129/122 91/122/116
f 3/142/134 2/143/135 102/144/136
f 102/144/136 2/143/135 95/145/137
f 102/144/136 95/145/137 101/146/138
f 101/146/138 95/145/137 96/147/139
f 101/146/138 96/147/139 100/148/140
f 100/148/140 96/147/139 97/149/141
f 100/148/140 97/149/141 99/150/142
f 99/150/142 97/149/141 98/151/143
f 99/150/142 98/151/143 31/152/144
f 31/152/144 98/151/143 32/153/145
f 53/154/146 3/155/147 105/156/148
f 105/156/148 3/155/147 102/157/149
f 105/156/148 102/157/149 101/158/150
f 101/158/150 100/159/151 105/156/148
f 105/156/148 100/159/151 106/160/152
f 105/156/148 106/160/152 103/161/153
f 103/161/153 106/160/152 30/162/154
f 30/162/154 106/160/152 99/163/155
f 30/162/154 99/163/155 31/164/156
f 100/159/151 99/163/155 106/160/152
f 103/161/153 104/165/157 105/156/148
f 105/156/148 104/165/157 53/154/146
f 76/166/158 109/167/159 57/168/160
f 57/168/160 109/167/159 110/169/161
f 57/168/160 110/169/161 58/170/162
f 58/170/162 110/169/161 108/171/163
f 108/171/163 110/169/161 107/172/164
f 107/172/164 110/169/161 112/173/165
f 107/172/164 112/173/165 53/174/70
f 53/174/70 112/173/165 111/175/166
f 53/174/70 111/175/166 54/176/167
f 54/176/167 111/175/166 75/177/168
f 75/177/168 111/175/166 76/166/158
f 76/166/158 111/175/166 109/167/159
f 112/173/165 110/169/161 109/167/159
f 112/173/165 109/167/159 111/175/166
f 74/178/169 115/179/170 63/180/171
f 63/180/171 115/179/170 116/181/172
f 63/180/171 116/181/172 117/182/173
f 117/182/173 116/181/172 122/183/174
f 117/182/173 122/183/174 123/184/175
f 123/184/175 122/183/174 60/185/176
f 123/184/175 60/185/176 124/186/177
f 124/186/177 60/185/176 113/187/178
f 124/186/177 113/187/178 119/188/179
f 119/188/179 113/187/178 114/189/180
f 119/188/179 114/189/180 64/190/83
f 115/179/170 74/178/169 120/191/181
f 120/191/181 74/178/169 73/192/182
f 120/191/181 73/192/182 57/193/79
f 60/185/176 122/183/174 57/193/79
f 57/193/79 122/183/174 121/194/183
f 57/193/79 121/194/183 120/191/181
f 120/191/181 121/194/183 115/179/170
f 63/180/171 117/182/173 64/190/83
f 64/190/83 117/182/173 118/195/184
f 64/190/83 118/195/184 119/188/179
f 119/188/179 118/195/184 124/186/177
f 122/183/174 116/181/172 121/194/183
f 121/194/183 116/181/172 115/179/170
f 124/186/177 118/195/184 123/184/175
f 123/184/175 118/195/184 117/182/173
f 55/196/185 51/197/186 127/198/187
f 127/198/187 51/197/186 84/199/188
f 127/198/187 84/199/188 83/200/189
f 83/200/189 82/201/190 127/198/187
f 127/198/187 82/201/190 128/202/191
f 127/198/187 128/202/191 125/203/192
f 125/203/192 128/202/191 64/204/193
f 64/204/193 128/202/191 81/205/194
f 64/204/193 81/205/194 61/206/81
f 82/201/190 81/205/194 128/202/191
f 125/203/192 126/207/195 127/198/187
f 127/198/187 126/207/195 55/196/185
f 129/208/196 135/209/197 49/210/198
f 49/210/198 135/209/197 134/211/199
f 49/210/198 134/211/199 50/212/200
f 135/209/197 129/208/196 136/213/201
f 136/213/201 129/208/196 130/214/202
f 136/213/201 130/214/202 41/215/55
f 41/215/55 37/216/203 136/213/201
f 136/213/201 37/216/203 131/217/204
f 136/213/201 131/217/204 132/218/205
f 132/218/205 133/219/206 136/213/201
f 136/213/201 133/219/206 135/209/197
f 133/219/206 134/211/199 135/209/197
f 98/220/207 141/221/208 32/222/209
f 32/222/209 141/221/208 142/223/210
f 32/222/209 142/223/210 143/224/211
f 143/224/211 142/223/210 149/225/212
f 143/224/211 149/225/212 150/226/213
f 150/226/213 149/225/212 10/227/214
f 150/226/213 10/227/214 151/228/215
f 151/228/215 10/227/214 152/229/216
f 151/228/215 152/229/216 145/230/217
f 145/230/217 152/229/216 146/231/218
f 145/230/217 146/231/218 140/232/219
f 140/232/219 146/231/218 139/233/220
f 139/233/220 146/231/218 152/229/216
f 139/233/220 152/229/216 138/234/221
f 138/234/221 152/229/216 137/235/222
f 137/235/222 152/229/216 10/227/214
f 98/220/207 97/236/223 141/221/208
f 141/221/208 97/236/223 147/237/224
f 141/221/208 147/237/224 148/238/225
f 148/238/225 147/237/224 95/239/226
f 148/238/225 95/239/226 149/225/212
f 149/225/212 95/239/226 10/227/214
f 97/236/223 96/240/227 147/237/224
f 147/237/224 96/240/227 95/239/226
f 95/239/226 2/241/228 10/227/214
f 33/242/229 32/222/209 140/232/219
f 140/232/219 32/222/209 145/230/217
f 149/225/212 142/223/210 148/238/225
f 148/238/225 142/223/210 141/221/208
f 145/230/217 32/222/209 144/243/230
f 144/243/230 32/222/209 143/224/211
f 144/243/230 143/224/211 150/226/213
f 151/228/215 145/230/217 144/243/230
f 151/228/215 144/243/230 150/226/213
f 58/244/77 108/245/231 156/246/232
f 156/246/232 108/245/231 107/247/233
f 156/246/232 107/247/233 155/248/234
f 155/248/234 107/247/233 53/249/146
f 155/248/234 53/249/146 104/250/157
f 155/248/234 104/250/157 157/251/235
f 157/251/235 104/250/157 103/252/153
f 157/251/235 103/252/153 153/253/236
f 153/253/236 103/252/153 30/254/154
f 153/253/236 154/255/237 157/251/235
f 157/251/235 154/255/237 158/256/238
f 157/251/235 158/256/238 155/248/234
f 155/248/234 158/256/238 156/246/232
f 154/255/237 58/257/77 158/256/238
f 158/256/238 58/258/77 156/246/232
f 160/259/239 55/260/75 161/261/240
f 161/261/240 55/260/75 126/262/195
f 161/261/240 126/262/195 163/263/241
f 163/263/241 126/262/195 125/264/192
f 163/263/241 125/264/192 114/265/242
f 114/265/242 125/264/192 64/266/193
f 114/265/242 113/267/243 163/263/241
f 163/263/241 113/267/243 164/268/244
f 163/263/241 164/268/244 161/261/240
f 161/261/240 164/268/244 162/269/245
f 161/261/240 162/269/245 160/259/239
f 160/259/239 162/269/245 159/270/246
f 159/270/246 162/269/245 60/271/80
f 113/267/243 60/272/80 164/268/244
f 164/268/244 60/273/80 162/269/245
f 20/274/247 166/275/248 21/276/249
f 21/276/249 166/275/248 167/277/250
f 21/276/249 167/277/250 169/278/251
f 169/278/251 167/277/250 174/279/252
f 169/278/251 174/279/252 175/280/253
f 175/280/253 174/279/252 168/281/254
f 175/280/253 168/281/254 50/282/255
f 50/282/255 168/281/254 47/283/63
f 166/275/248 20/274/247 165/284/256
f 165/284/256 20/274/247 19/285/257
f 165/284/256 19/285/257 8/286/8
f 8/286/8 19/285/257 5/287/258
f 167/277/250 168/281/254 174/279/252
f 134/288/259 178/289/260 50/282/255
f 50/282/255 178/289/260 177/290/261
f 50/282/255 177/290/261 176/291/262
f 176/291/262 177/290/261 171/292/263
f 176/291/262 171/292/263 170/293/264
f 170/293/264 171/292/263 21/276/249
f 170/293/264 21/276/249 169/278/251
f 134/288/259 133/294/265 178/289/260
f 178/289/260 133/294/265 173/295/266
f 178/289/260 173/295/266 172/296/267
f 172/296/267 173/295/266 14/297/268
f 172/296/267 14/297/268 171/292/263
f 171/292/263 14/297/268 21/276/249
f 173/295/266 133/294/265 14/297/268
f 14/297/268 133/294/265 132/298/269
f 14/297/268 132/298/269 15/299/270
f 15/299/270 132/298/269 131/300/271
f 15/299/270 131/300/271 16/301/272
f 16/301/272 131/300/271 37/302/47
f 16/301/272 37/302/47 9/303/48
f 176/291/262 170/293/264 175/280/253
f 175/280/253 170/293/264 169/278/251
f 178/289/260 172/296/267 177/290/261
f 177/290/261 172/296/267 171/292/263
f 50/282/255 176/291/262 175/280/253
f 46/304/60 179/305/273 184/306/274
f 184/306/274 179/305/273 180/307/275
f 184/306/274 180/307/275 183/308/276
f 183/308/276 180/307/275 41/309/55
f 183/308/276 41/309/55 130/310/277
f 183/308/276 130/310/277 185/311/278
f 185/311/278 130/310/277 129/312/279
f 185/311/278 129/312/279 181/313/280
f 181/313/280 129/312/279 49/314/198
f 181/313/280 182/315/281 185/311/278
f 185/311/278 182/315/281 186/316/282
f 185/311/278 186/316/282 183/308/276
f 183/308/276 186/316/282 184/306/274
f 182/315/281 46/317/60 186/316/282
f 186/316/282 46/318/60 184/306/274
f 33/319/283 140/320/284 34/321/285
f 34/321/285 140/320/284 190/322/286
f 190/322/286 140/320/284 139/323/287
f 190/322/286 139/323/287 189/324/288
f 189/324/288 139/323/287 138/325/289
f 189/324/288 138/325/289 188/326/290
f 188/326/290 138/325/289 137/327/291
f 188/326/290 137/327/291 187/328/292
f 187/328/292 137/327/291 10/329/46
f 187/328/292 10/329/46 38/330/293
f 154/331/294 193/332/295 58/333/296
f 58/333/296 193/332/295 194/334/297
f 58/333/296 194/334/297 195/335/298
f 195/335/298 194/334/297 200/336/299
f 195/335/298 200/336/299 201/337/300
f 201/337/300 200/336/299 29/338/42
f 201/337/300 29/338/42 202/339/301
f 202/339/301 29/338/42 191/340/302
f 202/339/301 191/340/302 197/341/303
f 197/341/303 191/340/302 192/342/304
f 197/341/303 192/342/304 59/343/78
f 193/332/295 154/331/294 198/344/305
f 198/344/305 154/331/294 153/345/306
f 198/344/305 153/345/306 30/346/307
f 29/338/42 200/336/299 30/346/307
f 30/346/307 200/336/299 199/347/308
f 30/346/307 199/347/308 198/344/305
f 198/344/305 199/347/308 193/332/295
f 58/333/296 195/335/298 59/343/78
f 59/343/78 195/335/298 196/348/309
f 59/343/78 196/348/309 197/341/303
f 197/341/303 196/348/309 202/339/301
f 200/336/299 194/334/297 199/347/308
f 199/347/308 194/334/297 193/332/295
f 202/339/301 196/348/309 201/337/300
f 201/337/300 196/348/309 195/335/298
f 160/349/310 205/350/311 55/351/312
f 55/351/312 205/350/311 206/352/313
f 55/351/312 206/352/313 56/353/314
f 56/353/314 206/352/313 204/354/315
f 204/354/315 206/352/313 203/355/316
f 203/355/316 206/352/313 208/356/317
f 203/355/316 208/356/317 59/357/318
f 59/357/318 208/356/317 207/358/319
f 59/357/318 207/358/319 60/359/320
f 60/359/320 207/358/319 159/360/321
f 159/360/321 207/358/319 160/349/310
f 160/349/310 207/358/319 205/350/311
f 208/356/317 206/352/313 205/350/311
f 208/356/317 205/350/311 207/358/319
f 48/361/322 47/362/323 211/363/324
f 211/363/324 47/362/323 168/364/325
f 211/363/324 168/364/325 167/365/326
f 211/363/324 167/365/326 212/366/327
f 212/366/327 167/365/326 166/367/328
f 212/366/327 166/367/328 165/368/329
f 8/369/330 40/370/331 165/368/329
f 165/368/329 40/370/331 212/366/327
f 40/370/331 209/371/332 212/366/327
f 212/366/327 209/371/332 211/363/324
f 209/371/332 210/372/333 211/363/324
f 211/363/324 210/372/333 48/361/322
f 182/373/334 215/374/335 46/375/336
f 46/375/336 215/374/335 216/376/337
f 46/375/336 216/376/337 217/377/338
f 217/377/338 216/376/337 222/378/339
f 217/377/338 222/378/339 223/379/340
f 223/379/340 222/378/339 48/380/61
f 223/379/340 48/380/61 224/381/341
f 224/381/341 48/380/61 213/382/342
f 224/381/341 213/382/342 219/383/343
f 219/383/343 213/382/342 214/384/344
f 219/383/343 214/384/344 43/385/345
f 215/374/335 182/373/334 220/386/346
f 220/386/346 182/373/334 181/387/280
f 220/386/346 181/387/280 49/388/347
f 48/380/61 222/378/339 49/388/347
f 49/388/347 222/378/339 221/389/348
f 49/388/347 221/389/348 220/386/346
f 220/386/346 221/389/348 215/374/335
f 46/375/336 217/377/338 43/385/345
f 43/385/345 217/377/338 218/390/349
f 43/385/345 218/390/349 219/383/343
f 219/383/343 218/390/349 224/381/341
f 222/378/339 216/376/337 221/389/348
f 221/389/348 216/376/337 215/374/335
f 224/381/341 218/390/349 223/379/340
f 223/379/340 218/390/349 217/377/338
f 180/391/350 227/392/351 41/393/55
f 41/393/55 227/392/351 228/394/352
f 41/393/55 228/394/352 42/395/53
f 42/395/53 228/394/352 226/396/353
f 226/396/353 228/394/352 225/397/354
f 225/397/354 228/394/352 230/398/355
f 225/397/354 230/398/355 45/399/356
f 45/399/356 230/398/355 229/400/357
f 45/399/356 229/400/357 46/401/358
f 46/401/358 229/400/357 179/402/359
f 179/402/359 229/400/357 180/391/350
f 180/391/350 229/400/357 227/392/351
f 230/398/355 228/394/352 227/392/351
f 230/398/355 227/392/351 229/400/357
f 35/403/360 34/404/38 233/405/361
f 233/405/361 34/404/38 190/406/362
f 233/405/361 190/406/362 189/407/363
f 233/405/361 189/407/363 234/408/364
f 234/408/364 189/407/363 188/409/365
f 234/408/364 188/409/365 187/410/366
f 38/411/367 42/412/368 187/410/366
f 187/410/366 42/412/368 234/408/364
f 42/412/368 231/413/369 234/408/364
f 234/408/364 231/413/369 233/405/361
f 231/413/369 232/414/370 233/405/361
f 233/405/361 232/414/370 35/403/360
f 56/415/73 204/416/371 238/417/372
f 238/417/372 204/416/371 203/418/373
f 238/417/372 203/418/373 237/419/374
f 237/419/374 203/418/373 59/420/78
f 237/419/374 59/420/78 192/421/375
f 237/419/374 192/421/375 239/422/376
f 239/422/376 192/421/375 191/423/302
f 239/422/376 191/423/302 235/424/377
f 235/424/377 191/423/302 29/425/378
f 235/424/377 236/426/379 239/422/376
f 239/422/376 236/426/379 240/427/380
f 239/422/376 240/427/380 237/419/374
f 237/419/374 240/427/380 238/417/372
f 236/426/379 56/428/73 240/427/380
f 240/427/380 56/429/73 238/417/372
f 43/430/59 214/431/381 244/432/382
f 244/432/382 214/431/381 213/433/383
f 244/432/382 213/433/383 243/434/384
f 243/434/384 213/433/383 48/435/322
f 243/434/384 48/435/322 210/436/333
f 243/434/384 210/436/333 245/437/385
f 245/437/385 210/436/333 209/438/332
f 245/437/385 209/438/332 241/439/386
f 241/439/386 209/438/332 40/440/52
f 241/439/386 242/441/387 245/437/385
f 245/437/385 242/441/387 246/442/388
f 245/437/385 246/442/388 243/434/384
f 243/434/384 246/442/388 244/432/382
f 242/441/387 43/443/59 246/442/388
f 246/442/388 43/444/59 244/432/382
f 248/445/389 35/446/360 249/447/390
f 249/447/390 35/446/360 232/448/370
f 249/447/390 232/448/370 251/449/391
f 251/449/391 232/448/370 231/450/369
f 251/449/391 231/450/369 226/451/392
f 226/451/392 231/450/369 42/452/368
f 226/451/392 225/453/393 251/449/391
f 251/449/391 225/453/393 252/454/394
f 251/449/391 252/454/394 249/447/390
f 249/447/390 252/454/394 250/455/395
f 249/447/390 250/455/395 248/445/389
f 248/445/389 250/455/395 247/456/396
f 247/456/396 250/455/395 45/457/58
f 225/453/393 45/458/58 252/454/394
f 252/454/394 45/459/58 250/455/395
f 236/460/397 257/461/398 56/462/73
f 56/462/73 257/461/398 256/463/399
f 56/462/73 256/463/399 52/464/400
f 257/461/398 236/460/397 258/465/401
f 258/465/401 236/460/397 235/466/402
f 258/465/401 235/466/402 29/467/378
f 29/467/378 28/468/403 258/465/401
f 258/465/401 28/468/403 253/469/404
f 258/465/401 253/469/404 254/470/405
f 258/465/401 254/470/405 257/461/398
f 257/461/398 254/470/405 255/471/406
f 257/461/398 255/471/406 256/463/399
f 242/472/407 261/473/408 43/474/409
f 43/474/409 261/473/408 262/475/410
f 43/474/409 262/475/410 44/476/411
f 44/476/411 262/475/410 260/477/412
f 260/477/412 262/475/410 259/478/413
f 259/478/413 262/475/410 264/479/414
f 259/478/413 264/479/414 39/480/415
f 39/480/415 264/479/414 263/481/416
f 39/480/415 263/481/416 40/482/417
f 40/482/417 263/481/416 241/483/418
f 241/483/418 263/481/416 242/472/407
f 242/472/407 263/481/416 261/473/408
f 264/479/414 262/475/410 261/473/408
f 264/479/414 261/473/408 263/481/416
f 248/484/419 267/485/420 35/486/421
f 35/486/421 267/485/420 268/487/422
f 35/486/421 268/487/422 269/488/423
f 269/488/423 268/487/422 274/489/424
f 269/488/423 274/489/424 275/490/425
f 275/490/425 274/489/424 44/491/57
f 275/490/425 44/491/57 276/492/426
f 276/492/426 44/491/57 265/493/427
f 276/492/426 265/493/427 271/494/428
f 271/494/428 265/493/427 266/495/429
f 271/494/428 266/495/429 36/496/35
f 267/485/420 248/484/419 272/497/430
f 272/497/430 248/484/419 247/498/431
f 272/497/430 247/498/431 45/499/432
f 44/491/57 274/489/424 45/499/432
f 45/499/432 274/489/424 273/500/433
f 45/499/432 273/500/433 272/497/430
f 272/497/430 273/500/433 267/485/420
f 35/486/421 269/488/423 36/496/35
f 36/496/35 269/488/423 270/501/434
f 36/496/35 270/501/434 271/494/428
f 271/494/428 270/501/434 276/492/426
f 274/489/424 268/487/422 273/500/433
f 273/500/433 268/487/422 267/485/420
f 276/492/426 270/501/434 275/490/425
f 275/490/425 270/501/434 269/488/423
f 52/502/65 256/503/435 18/504/436
f 18/504/436 256/503/435 280/505/437
f 280/505/437 256/503/435 255/506/438
f 280/505/437 255/506/438 279/507/439
f 279/507/439 255/506/438 254/508/440
f 279/507/439 254/508/440 278/509/441
f 278/509/441 254/508/440 253/510/442
f 278/509/441 253/510/442 277/511/443
f 277/511/443 253/510/442 28/512/43
f 277/511/443 28/512/43 27/513/40
f 282/514/444 36/515/445 283/516/446
f 283/516/446 36/515/445 266/517/429
f 283/516/446 266/517/429 285/518/447
f 285/518/447 266/517/429 265/519/448
f 285/518/447 265/519/448 260/520/449
f 260/520/449 265/519/448 44/521/57
f 260/520/449 259/522/450 285/518/447
f 285/518/447 259/522/450 286/523/451
f 285/518/447 286/523/451 283/516/446
f 283/516/446 286/523/451 284/524/452
f 283/516/446 284/524/452 282/514/444
f 282/514/444 284/524/452 281/525/453
f 281/525/453 284/524/452 39/526/50
f 259/522/450 39/527/50 286/523/451
f 286/523/451 39/528/50 284/524/452
f 280/529/454 291/530/455 18/531/456
f 18/531/456 291/530/455 292/532/457
f 18/531/456 292/532/457 293/533/458
f 293/533/458 292/532/457 299/534/459
f 293/533/458 299/534/459 300/535/460
f 300/535/460 299/534/459 26/536/461
f 300/535/460 26/536/461 301/537/462
f 301/537/462 26/536/461 302/538/463
f 301/537/462 302/538/463 295/539/464
f 295/539/464 302/538/463 296/540/465
f 295/539/464 296/540/465 290/541/466
f 290/541/466 296/540/465 289/542/467
f 289/542/467 296/540/465 288/543/468
f 288/543/468 296/540/465 302/538/463
f 288/543/468 302/538/463 287/544/469
f 287/544/469 302/538/463 26/536/461
f 280/529/454 279/545/470 291/530/455
f 291/530/455 279/545/470 278/546/471
f 291/530/455 278/546/471 297/547/472
f 297/547/472 278/546/471 277/548/473
f 297/547/472 277/548/473 298/549/474
f 298/549/474 277/548/473 26/536/461
f 298/549/474 26/536/461 299/534/459
f 277/548/473 27/550/475 26/536/461
f 6/551/476 18/531/456 290/541/466
f 290/541/466 18/531/456 294/552/477
f 290/541/466 294/552/477 295/539/464
f 295/539/464 294/552/477 301/537/462
f 294/552/477 18/531/456 293/533/458
f 297/547/472 298/549/474 291/530/455
f 291/530/455 298/549/474 292/532/457
f 298/549/474 299/534/459 292/532/457
f 301/537/462 294/552/477 300/535/460
f 300/535/460 294/552/477 293/533/458
f 282/553/478 307/554/479 36/555/445
f 36/555/445 307/554/479 306/556/480
f 36/555/445 306/556/480 25/557/481
f 307/554/479 282/553/478 308/558/482
f 308/558/482 282/553/478 281/559/483
f 308/558/482 281/559/483 39/560/50
f 39/560/50 7/561/484 308/558/482
f 308/558/482 7/561/484 303/562/485
f 308/558/482 303/562/485 304/563/486
f 304/563/486 305/564/487 308/558/482
f 308/558/482 305/564/487 307/554/479
f 305/564/487 306/556/480 307/554/479
f 7/565/6 6/566/488 303/567/489
f 303/567/489 6/566/488 290/568/490
f 303/567/489 290/568/490 304/569/491
f 304/569/491 290/568/490 289/570/492
f 304/569/491 289/570/492 305/571/493
f 305/571/493 289/570/492 288/572/494
f 305/571/493 288/572/494 306/573/495
f 306/573/495 288/572/494 287/574/496
f 306/573/495 287/574/496 25/575/33
f 25/575/33 287/574/496 26/576/34
# 308 vertices
# 576 texture params
# 496 normals
# 612 facets

# 1 groups
