# WaveFront *.obj file (generated by Autodesk ATF)

mtllib body17_visual.mtl

g Body17

v 65.624411 -65.098732 96.692914
v 65.301257 -64.775578 96.692914
v 65.301257 -64.775578 94.732914
v 65.624411 -65.098732 94.732914
v 65.782089 -65.256411 94.927914
v 65.782089 -65.256411 96.497914
v 65.585867 -65.060189 95.525414
v 65.561505 -65.035827 95.528606
v 65.537973 -65.012294 95.538075
v 65.516072 -64.990393 95.553498
v 65.496547 -64.970869 95.574349
v 65.480064 -64.954386 95.599920
v 65.467184 -64.941506 95.629338
v 65.458346 -64.932668 95.661602
v 65.453850 -64.928172 95.695613
v 65.453850 -64.928172 95.730214
v 65.458346 -64.932668 95.764225
v 65.467184 -64.941506 95.796489
v 65.480064 -64.954386 95.825907
v 65.496547 -64.970869 95.851478
v 65.516072 -64.990393 95.872329
v 65.537973 -65.012294 95.887752
v 65.561505 -65.035827 95.897221
v 65.585867 -65.060189 95.900414
v 65.610229 -65.084551 95.897221
v 65.633762 -65.108083 95.887752
v 65.655663 -65.129984 95.872329
v 65.675188 -65.149509 95.851478
v 65.691670 -65.165992 95.825907
v 65.704550 -65.178872 95.796489
v 65.713389 -65.187710 95.764225
v 65.717884 -65.192206 95.730214
v 65.717884 -65.192206 95.695613
v 65.713389 -65.187710 95.661602
v 65.704550 -65.178872 95.629338
v 65.691670 -65.165992 95.599920
v 65.675188 -65.149509 95.574349
v 65.655663 -65.129984 95.553498
v 65.633762 -65.108083 95.538075
v 65.610229 -65.084551 95.528606
v 65.699004 -64.947052 95.525414
v 65.674642 -64.922690 95.528606
v 65.651110 -64.899157 95.538075
v 65.629209 -64.877256 95.553498
v 65.609684 -64.857731 95.574349
v 65.593201 -64.841249 95.599920
v 65.580321 -64.828369 95.629338
v 65.571483 -64.819530 95.661602
v 65.566987 -64.815035 95.695613
v 65.566987 -64.815035 95.730214
v 65.571483 -64.819530 95.764225
v 65.580321 -64.828369 95.796489
v 65.593201 -64.841249 95.825907
v 65.609684 -64.857731 95.851478
v 65.629209 -64.877256 95.872329
v 65.651110 -64.899157 95.887752
v 65.674642 -64.922690 95.897221
v 65.699004 -64.947052 95.900414
v 65.723366 -64.971414 95.897221
v 65.746899 -64.994946 95.887752
v 65.768800 -65.016847 95.872329
v 65.788325 -65.036372 95.851478
v 65.804808 -65.052855 95.825907
v 65.817687 -65.065735 95.796489
v 65.826526 -65.074573 95.764225
v 65.831021 -65.079069 95.730214
v 65.831021 -65.079069 95.695613
v 65.826526 -65.074573 95.661602
v 65.817687 -65.065735 95.629338
v 65.804808 -65.052855 95.599920
v 65.788325 -65.036372 95.574349
v 65.768800 -65.016847 95.553498
v 65.746899 -64.994946 95.538075
v 65.723366 -64.971414 95.528606
v 65.737548 -64.985595 94.732914
v 65.895227 -65.143274 94.927914
v 65.895227 -65.143274 96.497914
v 65.737548 -64.985595 96.692914
v 65.414394 -64.662441 96.692914
v 65.414394 -64.662441 94.732914
vt 0.030000 1.070000 0.000000
vt 0.871436 1.346182 0.000000
vt 0.030000 1.527009 0.000000
vt 0.850584 1.373794 0.000000
vt 0.835161 1.404767 0.000000
vt 1.990000 1.070000 0.000000
vt 0.992700 1.285800 0.000000
vt 0.958688 1.292158 0.000000
vt 0.926424 1.304657 0.000000
vt 1.990000 1.527009 0.000000
vt 1.148564 1.346182 0.000000
vt 1.122994 1.322872 0.000000
vt 1.093576 1.304657 0.000000
vt 1.795000 1.750000 0.000000
vt 1.169416 1.571206 0.000000
vt 1.184839 1.540233 0.000000
vt 1.194307 1.506953 0.000000
vt 0.225000 1.750000 0.000000
vt 1.027300 1.659200 0.000000
vt 1.061312 1.652842 0.000000
vt 1.093576 1.640343 0.000000
vt 0.850584 1.571206 0.000000
vt 0.871436 1.598818 0.000000
vt 0.897006 1.622128 0.000000
vt 1.197500 1.472500 0.000000
vt 1.194307 1.438047 0.000000
vt 1.184839 1.404767 0.000000
vt 1.169416 1.373794 0.000000
vt 1.061312 1.292158 0.000000
vt 1.027300 1.285800 0.000000
vt 0.897006 1.322872 0.000000
vt 0.825693 1.438047 0.000000
vt 0.822500 1.472500 0.000000
vt 0.825693 1.506953 0.000000
vt 0.835161 1.540233 0.000000
vt 0.926424 1.640343 0.000000
vt 0.958688 1.652842 0.000000
vt 0.992700 1.659200 0.000000
vt 1.122994 1.622128 0.000000
vt 1.148564 1.598818 0.000000
vt 0.160000 0.034650 0.000000
vt -0.000000 -0.000000 0.000000
vt 0.160000 0.000000 0.000000
vt 0.000000 -0.034650 0.000000
vt 0.160000 -0.034650 0.000000
vt 0.000000 -0.069300 0.000000
vt 0.160000 -0.069300 0.000000
vt 0.000000 -0.103950 0.000000
vt 0.160000 -0.103950 0.000000
vt 0.000000 -0.138600 0.000000
vt 0.160000 -0.138600 0.000000
vt 0.000000 -0.173250 0.000000
vt 0.160000 -0.173250 0.000000
vt 0.000000 -0.207900 0.000000
vt 0.160000 -0.207900 0.000000
vt 0.000000 -0.242549 0.000000
vt 0.160000 -0.242549 0.000000
vt 0.000000 -0.277199 0.000000
vt 0.160000 -0.277199 0.000000
vt 0.000000 -0.311849 0.000000
vt 0.160000 -0.311849 0.000000
vt 0.000000 -0.346499 0.000000
vt 0.160000 -0.346499 0.000000
vt 0.000000 -0.381149 0.000000
vt 0.160000 -0.381149 0.000000
vt 0.000000 -0.415799 0.000000
vt 0.160000 -0.415799 0.000000
vt 0.000000 -0.450449 0.000000
vt 0.160000 -0.450449 0.000000
vt 0.000000 -0.485099 0.000000
vt 0.160000 -0.485099 0.000000
vt 0.000000 -0.519749 0.000000
vt 0.160000 -0.519749 0.000000
vt 0.000000 -0.554399 0.000000
vt 0.160000 -0.554399 0.000000
vt 0.160000 -0.589049 0.000000
vt 0.000000 -0.589049 0.000000
vt 0.160000 0.589049 0.000000
vt 0.000000 0.589049 0.000000
vt 0.160000 0.554399 0.000000
vt -0.000000 0.554399 0.000000
vt -0.000000 0.519749 0.000000
vt -0.000000 0.034650 0.000000
vt 0.160000 0.069300 0.000000
vt -0.000000 0.069300 0.000000
vt 0.160000 0.103950 0.000000
vt -0.000000 0.103950 0.000000
vt 0.160000 0.138600 0.000000
vt -0.000000 0.138600 0.000000
vt 0.160000 0.173250 0.000000
vt -0.000000 0.173250 0.000000
vt 0.160000 0.207900 0.000000
vt -0.000000 0.207900 0.000000
vt 0.160000 0.242549 0.000000
vt -0.000000 0.242549 0.000000
vt 0.160000 0.277199 0.000000
vt -0.000000 0.277199 0.000000
vt 0.160000 0.311849 0.000000
vt -0.000000 0.311849 0.000000
vt 0.160000 0.346499 0.000000
vt -0.000000 0.346499 0.000000
vt 0.160000 0.381149 0.000000
vt -0.000000 0.381149 0.000000
vt 0.160000 0.415799 0.000000
vt -0.000000 0.415799 0.000000
vt 0.160000 0.450449 0.000000
vt -0.000000 0.450449 0.000000
vt 0.160000 0.485099 0.000000
vt -0.000000 0.485099 0.000000
vt 0.160000 0.519749 0.000000
vt 0.160488 -0.000000 0.000000
vt -0.135738 0.000000 0.000000
vt 0.160488 -0.160000 0.000000
vt -0.135738 -0.160000 0.000000
vt 0.160000 1.795000 0.000000
vt -0.000000 1.795000 0.000000
vt 0.160000 0.225000 0.000000
vt -0.000000 0.225000 0.000000
vt 0.160000 1.465465 0.000000
vt 0.000000 1.465465 0.000000
vt 0.160000 1.169239 0.000000
vt 0.000000 1.169239 0.000000
vt 1.527009 0.000000 0.000000
vt 1.070000 0.000000 0.000000
vt 1.527009 -0.160000 0.000000
vt 1.070000 -0.160000 0.000000
vt 0.000000 1.990000 0.000000
vt -0.160000 1.990000 0.000000
vt 0.000000 0.030000 0.000000
vt -0.160000 0.030000 0.000000
vt -0.160000 1.070000 0.000000
vt 0.000000 1.070000 0.000000
vt -0.160000 1.527009 0.000000
vt -0.000000 1.527009 0.000000
vt -0.030000 1.070000 0.000000
vt -1.027300 1.285800 0.000000
vt -1.990000 1.070000 0.000000
vt -1.061312 1.292158 0.000000
vt -1.093576 1.304657 0.000000
vt -0.030000 1.527009 0.000000
vt -0.871436 1.346182 0.000000
vt -0.897006 1.322872 0.000000
vt -0.926424 1.304657 0.000000
vt -0.225000 1.750000 0.000000
vt -0.850584 1.571206 0.000000
vt -0.835161 1.540233 0.000000
vt -0.825693 1.506953 0.000000
vt -1.795000 1.750000 0.000000
vt -0.992700 1.659200 0.000000
vt -0.958688 1.652842 0.000000
vt -0.926424 1.640343 0.000000
vt -1.990000 1.527009 0.000000
vt -1.169416 1.571206 0.000000
vt -1.148564 1.598818 0.000000
vt -1.122994 1.622128 0.000000
vt -1.148564 1.346182 0.000000
vt -1.169416 1.373794 0.000000
vt -1.184839 1.404767 0.000000
vt -1.194307 1.438047 0.000000
vt -1.197500 1.472500 0.000000
vt -1.194307 1.506953 0.000000
vt -1.184839 1.540233 0.000000
vt -1.093576 1.640343 0.000000
vt -1.061312 1.652842 0.000000
vt -1.027300 1.659200 0.000000
vt -0.897006 1.622128 0.000000
vt -0.871436 1.598818 0.000000
vt -0.822500 1.472500 0.000000
vt -0.825693 1.438047 0.000000
vt -0.835161 1.404767 0.000000
vt -0.850584 1.373794 0.000000
vt -0.958688 1.292158 0.000000
vt -0.992700 1.285800 0.000000
vt -1.122994 1.322872 0.000000
vn -0.707107 -0.707107 0.000000
vn -0.707107 -0.707107 0.000000
vn -0.707107 -0.707107 0.000000
vn -0.707107 -0.707107 0.000000
vn -0.707107 -0.707107 0.000000
vn -0.707107 -0.707107 0.000000
vn -0.707107 -0.707107 0.000000
vn -0.707107 -0.707107 0.000000
vn -0.707107 -0.707107 0.000000
vn -0.707107 -0.707107 0.000000
vn -0.707107 -0.707107 0.000000
vn -0.707107 -0.707107 0.000000
vn -0.707107 -0.707107 0.000000
vn -0.707107 -0.707107 0.000000
vn -0.707107 -0.707107 0.000000
vn -0.707107 -0.707107 0.000000
vn -0.707107 -0.707107 0.000000
vn -0.707107 -0.707107 0.000000
vn -0.707107 -0.707107 0.000000
vn -0.707107 -0.707107 0.000000
vn -0.707107 -0.707107 0.000000
vn -0.707107 -0.707107 0.000000
vn -0.707107 -0.707107 0.000000
vn -0.707107 -0.707107 0.000000
vn -0.707107 -0.707107 0.000000
vn -0.707107 -0.707107 0.000000
vn -0.707107 -0.707107 0.000000
vn -0.707107 -0.707107 0.000000
vn -0.707107 -0.707107 0.000000
vn -0.707107 -0.707107 0.000000
vn -0.707107 -0.707107 0.000000
vn -0.707107 -0.707107 0.000000
vn -0.707107 -0.707107 0.000000
vn -0.707107 -0.707107 0.000000
vn -0.707107 -0.707107 0.000000
vn -0.707107 -0.707107 0.000000
vn -0.707107 -0.707107 0.000000
vn -0.707107 -0.707107 0.000000
vn -0.707107 -0.707107 0.000000
vn -0.707107 -0.707107 0.000000
vn -0.129931 0.129931 0.982973
vn 0.000000 0.000000 1.000000
vn -0.000000 0.000000 1.000000
vn 0.129931 -0.129931 0.982973
vn 0.129931 -0.129931 0.982973
vn 0.255436 -0.255436 0.932472
vn 0.255436 -0.255436 0.932472
vn 0.372244 -0.372244 0.850217
vn 0.372244 -0.372244 0.850217
vn 0.476375 -0.476375 0.739009
vn 0.476375 -0.476375 0.739009
vn 0.564283 -0.564283 0.602635
vn 0.564283 -0.564283 0.602635
vn 0.632976 -0.632976 0.445738
vn 0.632976 -0.632976 0.445738
vn 0.680113 -0.680113 0.273663
vn 0.680113 -0.680113 0.273663
vn 0.704090 -0.704090 0.092268
vn 0.704090 -0.704090 0.092268
vn 0.704090 -0.704090 -0.092268
vn 0.704090 -0.704090 -0.092268
vn 0.680113 -0.680113 -0.273663
vn 0.680113 -0.680113 -0.273663
vn 0.632976 -0.632976 -0.445738
vn 0.632976 -0.632976 -0.445738
vn 0.564283 -0.564283 -0.602635
vn 0.564283 -0.564283 -0.602635
vn 0.476375 -0.476375 -0.739009
vn 0.476375 -0.476375 -0.739009
vn 0.372244 -0.372244 -0.850217
vn 0.372244 -0.372244 -0.850217
vn 0.255436 -0.255436 -0.932472
vn 0.255436 -0.255436 -0.932472
vn 0.129931 -0.129931 -0.982973
vn 0.129931 -0.129931 -0.982973
vn 0.000000 -0.000000 -1.000000
vn 0.000000 -0.000000 -1.000000
vn -0.129931 0.129931 -0.982973
vn -0.129931 0.129931 -0.982973
vn -0.255436 0.255436 -0.932472
vn -0.129931 0.129931 0.982973
vn -0.255436 0.255436 0.932472
vn -0.255436 0.255436 0.932472
vn -0.372244 0.372244 0.850217
vn -0.372244 0.372244 0.850217
vn -0.476375 0.476375 0.739009
vn -0.476375 0.476375 0.739009
vn -0.564283 0.564283 0.602635
vn -0.564283 0.564283 0.602635
vn -0.632976 0.632976 0.445738
vn -0.632976 0.632976 0.445738
vn -0.680113 0.680113 0.273663
vn -0.680113 0.680113 0.273663
vn -0.704090 0.704090 0.092268
vn -0.704090 0.704090 0.092268
vn -0.704090 0.704090 -0.092268
vn -0.704090 0.704090 -0.092268
vn -0.680113 0.680113 -0.273663
vn -0.680113 0.680113 -0.273663
vn -0.632976 0.632976 -0.445738
vn -0.632976 0.632976 -0.445738
vn -0.564283 0.564283 -0.602635
vn -0.564283 0.564283 -0.602635
vn -0.476375 0.476375 -0.739009
vn -0.476375 0.476375 -0.739009
vn -0.372244 0.372244 -0.850217
vn -0.372244 0.372244 -0.850217
vn -0.255436 0.255436 -0.932472
vn 0.465475 -0.465475 -0.752773
vn 0.465475 -0.465475 -0.752773
vn 0.465475 -0.465475 -0.752773
vn 0.465475 -0.465475 -0.752773
vn 0.707107 -0.707107 0.000000
vn 0.707107 -0.707107 0.000000
vn 0.707107 -0.707107 0.000000
vn 0.707107 -0.707107 0.000000
vn 0.465475 -0.465475 0.752773
vn 0.465475 -0.465475 0.752773
vn 0.465475 -0.465475 0.752773
vn 0.465475 -0.465475 0.752773
vn -0.000000 0.000000 1.000000
vn -0.000000 0.000000 1.000000
vn -0.000000 0.000000 1.000000
vn -0.000000 0.000000 1.000000
vn -0.707107 0.707107 -0.000000
vn -0.707107 0.707107 -0.000000
vn -0.707107 0.707107 -0.000000
vn -0.707107 0.707107 -0.000000
vn 0.000000 -0.000000 -1.000000
vn 0.000000 -0.000000 -1.000000
vn 0.000000 -0.000000 -1.000000
vn 0.000000 -0.000000 -1.000000
vn 0.707107 0.707107 -0.000000
vn 0.707107 0.707107 -0.000000
vn 0.707107 0.707107 -0.000000
vn 0.707107 0.707107 -0.000000
vn 0.707107 0.707107 -0.000000
vn 0.707107 0.707107 -0.000000
vn 0.707107 0.707107 -0.000000
vn 0.707107 0.707107 -0.000000
vn 0.707107 0.707107 -0.000000
vn 0.707107 0.707107 -0.000000
vn 0.707107 0.707107 -0.000000
vn 0.707107 0.707107 -0.000000
vn 0.707107 0.707107 -0.000000
vn 0.707107 0.707107 -0.000000
vn 0.707107 0.707107 -0.000000
vn 0.707107 0.707107 -0.000000
vn 0.707107 0.707107 -0.000000
vn 0.707107 0.707107 -0.000000
vn 0.707107 0.707107 -0.000000
vn 0.707107 0.707107 -0.000000
vn 0.707107 0.707107 -0.000000
vn 0.707107 0.707107 -0.000000
vn 0.707107 0.707107 -0.000000
vn 0.707107 0.707107 -0.000000
vn 0.707107 0.707107 -0.000000
vn 0.707107 0.707107 -0.000000
vn 0.707107 0.707107 -0.000000
vn 0.707107 0.707107 -0.000000
vn 0.707107 0.707107 -0.000000
vn 0.707107 0.707107 -0.000000
vn 0.707107 0.707107 -0.000000
vn 0.707107 0.707107 -0.000000
vn 0.707107 0.707107 -0.000000
vn 0.707107 0.707107 -0.000000
vn 0.707107 0.707107 -0.000000
vn 0.707107 0.707107 -0.000000
vn 0.707107 0.707107 -0.000000
vn 0.707107 0.707107 -0.000000
vn 0.707107 0.707107 -0.000000
vn 0.707107 0.707107 -0.000000
usemtl Polycarbonate_(Clear)
f 2/1/1 20/2/2 1/3/3
f 1/3/3 20/2/2 21/4/4
f 1/3/3 21/4/4 22/5/5
f 3/6/6 16/7/7 2/1/1
f 2/1/1 16/7/7 17/8/8
f 2/1/1 17/8/8 18/9/9
f 4/10/10 11/11/11 3/6/6
f 3/6/6 11/11/11 12/12/12
f 3/6/6 12/12/12 13/13/13
f 5/14/14 38/15/15 4/10/10
f 4/10/10 38/15/15 39/16/16
f 4/10/10 39/16/16 40/17/17
f 6/18/18 33/19/19 5/14/14
f 5/14/14 33/19/19 34/20/20
f 5/14/14 34/20/20 35/21/21
f 1/3/3 27/22/22 6/18/18
f 6/18/18 27/22/22 28/23/23
f 6/18/18 28/23/23 29/24/24
f 40/17/17 7/25/25 4/10/10
f 4/10/10 7/25/25 8/26/26
f 4/10/10 8/26/26 9/27/27
f 9/27/27 10/28/28 4/10/10
f 4/10/10 10/28/28 11/11/11
f 13/13/13 14/29/29 3/6/6
f 3/6/6 14/29/29 15/30/30
f 3/6/6 15/30/30 16/7/7
f 18/9/9 19/31/31 2/1/1
f 2/1/1 19/31/31 20/2/2
f 22/5/5 23/32/32 1/3/3
f 1/3/3 23/32/32 24/33/33
f 1/3/3 24/33/33 25/34/34
f 25/34/34 26/35/35 1/3/3
f 1/3/3 26/35/35 27/22/22
f 29/24/24 30/36/36 6/18/18
f 6/18/18 30/36/36 31/37/37
f 6/18/18 31/37/37 32/38/38
f 32/38/38 33/19/19 6/18/18
f 35/21/21 36/39/39 5/14/14
f 5/14/14 36/39/39 37/40/40
f 5/14/14 37/40/40 38/15/15
f 40/41/41 41/42/42 7/43/43
f 7/43/43 41/42/42 42/44/44
f 7/43/43 42/44/44 8/45/45
f 8/45/45 42/44/44 43/46/46
f 8/45/45 43/46/46 9/47/47
f 9/47/47 43/46/46 44/48/48
f 9/47/47 44/48/48 10/49/49
f 10/49/49 44/48/48 45/50/50
f 10/49/49 45/50/50 11/51/51
f 11/51/51 45/50/50 46/52/52
f 11/51/51 46/52/52 12/53/53
f 12/53/53 46/52/52 47/54/54
f 12/53/53 47/54/54 13/55/55
f 13/55/55 47/54/54 48/56/56
f 13/55/55 48/56/56 14/57/57
f 14/57/57 48/56/56 49/58/58
f 14/57/57 49/58/58 15/59/59
f 15/59/59 49/58/58 50/60/60
f 15/59/59 50/60/60 16/61/61
f 16/61/61 50/60/60 51/62/62
f 16/61/61 51/62/62 17/63/63
f 17/63/63 51/62/62 52/64/64
f 17/63/63 52/64/64 18/65/65
f 18/65/65 52/64/64 53/66/66
f 18/65/65 53/66/66 19/67/67
f 19/67/67 53/66/66 54/68/68
f 19/67/67 54/68/68 20/69/69
f 20/69/69 54/68/68 55/70/70
f 20/69/69 55/70/70 21/71/71
f 21/71/71 55/70/70 56/72/72
f 21/71/71 56/72/72 22/73/73
f 22/73/73 56/72/72 57/74/74
f 22/73/73 57/74/74 23/75/75
f 23/75/75 57/74/74 24/76/76
f 24/76/76 57/74/74 58/77/77
f 24/78/76 58/79/77 25/80/78
f 25/80/78 58/79/77 59/81/79
f 25/80/78 59/81/79 60/82/80
f 41/42/42 40/41/41 74/83/81
f 74/83/81 40/41/41 39/84/82
f 74/83/81 39/84/82 73/85/83
f 73/85/83 39/84/82 38/86/84
f 73/85/83 38/86/84 72/87/85
f 72/87/85 38/86/84 37/88/86
f 72/87/85 37/88/86 71/89/87
f 71/89/87 37/88/86 36/90/88
f 71/89/87 36/90/88 70/91/89
f 70/91/89 36/90/88 35/92/90
f 70/91/89 35/92/90 69/93/91
f 69/93/91 35/92/90 34/94/92
f 69/93/91 34/94/92 68/95/93
f 68/95/93 34/94/92 33/96/94
f 68/95/93 33/96/94 67/97/95
f 67/97/95 33/96/94 32/98/96
f 67/97/95 32/98/96 66/99/97
f 66/99/97 32/98/96 31/100/98
f 66/99/97 31/100/98 65/101/99
f 65/101/99 31/100/98 30/102/100
f 65/101/99 30/102/100 64/103/101
f 64/103/101 30/102/100 29/104/102
f 64/103/101 29/104/102 63/105/103
f 63/105/103 29/104/102 28/106/104
f 63/105/103 28/106/104 62/107/105
f 62/107/105 28/106/104 27/108/106
f 62/107/105 27/108/106 61/109/107
f 61/109/107 27/108/106 26/110/108
f 61/109/107 26/110/108 60/82/80
f 60/82/80 26/110/108 25/80/78
f 75/111/109 76/112/110 4/113/111
f 4/113/111 76/112/110 5/114/112
f 5/115/113 76/116/114 6/117/115
f 6/117/115 76/116/114 77/118/116
f 6/119/117 77/120/118 1/121/119
f 1/121/119 77/120/118 78/122/120
f 78/123/121 79/124/122 1/125/123
f 1/125/123 79/124/122 2/126/124
f 80/127/125 3/128/126 79/129/127
f 79/129/127 3/128/126 2/130/128
f 3/131/129 80/132/130 4/133/131
f 4/133/131 80/132/130 75/134/132
f 79/135/133 49/136/134 80/137/135
f 80/137/135 49/136/134 48/138/136
f 80/137/135 48/138/136 47/139/137
f 78/140/138 54/141/139 79/135/133
f 79/135/133 54/141/139 53/142/140
f 79/135/133 53/142/140 52/143/141
f 77/144/142 61/145/143 78/140/138
f 78/140/138 61/145/143 60/146/144
f 78/140/138 60/146/144 59/147/145
f 76/148/146 66/149/147 77/144/142
f 77/144/142 66/149/147 65/150/148
f 77/144/142 65/150/148 64/151/149
f 75/152/150 72/153/151 76/148/146
f 76/148/146 72/153/151 71/154/152
f 76/148/146 71/154/152 70/155/153
f 80/137/135 45/156/154 75/152/150
f 75/152/150 45/156/154 44/157/155
f 75/152/150 44/157/155 43/158/156
f 42/159/157 41/160/158 75/152/150
f 75/152/150 41/160/158 74/161/159
f 75/152/150 74/161/159 73/162/160
f 73/162/160 72/153/151 75/152/150
f 70/155/153 69/163/161 76/148/146
f 76/148/146 69/163/161 68/164/162
f 76/148/146 68/164/162 67/165/163
f 67/165/163 66/149/147 76/148/146
f 64/151/149 63/166/164 77/144/142
f 77/144/142 63/166/164 62/167/165
f 77/144/142 62/167/165 61/145/143
f 59/147/145 58/168/166 78/140/138
f 78/140/138 58/168/166 57/169/167
f 78/140/138 57/169/167 56/170/168
f 56/170/168 55/171/169 78/140/138
f 78/140/138 55/171/169 54/141/139
f 52/143/141 51/172/170 79/135/133
f 79/135/133 51/172/170 50/173/171
f 79/135/133 50/173/171 49/136/134
f 47/139/137 46/174/172 80/137/135
f 80/137/135 46/174/172 45/156/154
f 43/158/156 42/159/157 75/152/150
# 80 vertices
# 174 texture params
# 172 normals
# 160 facets

# 1 groups
