# WaveFront *.obj file (generated by Autodesk ATF)

mtllib body112_visual.mtl

g Body112

v 63.009261 -64.646706 97.814693
v 63.004424 -64.651543 97.815899
v 63.000171 -64.655797 97.819372
v 62.997014 -64.658954 97.824693
v 62.995334 -64.660634 97.831220
v 62.995334 -64.660634 97.838166
v 62.997014 -64.658954 97.844693
v 63.000171 -64.655797 97.850014
v 63.004424 -64.651543 97.853487
v 63.009261 -64.646706 97.854693
v 63.044616 -64.682062 97.854693
v 63.039779 -64.686899 97.853487
v 63.035526 -64.691152 97.850014
v 63.032369 -64.694309 97.844693
v 63.030689 -64.695989 97.838166
v 63.030689 -64.695989 97.831220
v 63.032369 -64.694309 97.824693
v 63.035526 -64.691152 97.819372
v 63.039779 -64.686899 97.815899
v 63.044616 -64.682062 97.814693
v 62.988048 -64.667919 97.958693
v 62.987510 -64.668458 97.954866
v 62.985977 -64.669991 97.951622
v 62.983683 -64.672285 97.949454
v 62.980977 -64.674991 97.948693
v 63.016332 -64.710346 97.948693
v 63.019038 -64.707640 97.949454
v 63.021332 -64.705346 97.951622
v 63.022865 -64.703813 97.954866
v 63.023403 -64.703275 97.958693
v 62.726418 -64.929549 97.948693
v 62.723712 -64.932255 97.949454
v 62.721418 -64.934549 97.951622
v 62.719885 -64.936082 97.954866
v 62.719347 -64.936620 97.958693
v 62.754703 -64.971975 97.958693
v 62.755241 -64.971437 97.954866
v 62.756774 -64.969904 97.951622
v 62.759068 -64.967610 97.949454
v 62.761774 -64.964904 97.948693
v 62.698134 -64.957833 97.854693
v 62.702971 -64.952996 97.853487
v 62.707224 -64.948743 97.850014
v 62.710381 -64.945586 97.844693
v 62.712061 -64.943906 97.838166
v 62.712061 -64.943906 97.831220
v 62.710381 -64.945586 97.824693
v 62.707224 -64.948743 97.819372
v 62.702971 -64.952996 97.815899
v 62.698134 -64.957833 97.814693
v 62.733489 -64.993189 97.814693
v 62.738326 -64.988352 97.815899
v 62.742580 -64.984098 97.819372
v 62.745737 -64.980941 97.824693
v 62.747417 -64.979261 97.831220
v 62.747417 -64.979261 97.838166
v 62.745737 -64.980941 97.844693
v 62.742580 -64.984098 97.850014
v 62.738326 -64.988352 97.853487
v 62.733489 -64.993189 97.854693
v 62.818342 -64.837625 97.474693
v 62.818342 -64.837625 97.444693
v 62.676921 -64.979046 97.444693
v 62.676921 -64.979046 97.814693
v 62.662779 -64.993189 97.854693
v 62.662779 -64.993189 97.968693
v 62.719347 -64.936620 97.968693
v 62.988048 -64.667919 97.968693
v 63.044616 -64.611351 97.968693
v 63.044616 -64.611351 97.854693
v 63.030474 -64.625493 97.814693
v 63.030474 -64.625493 97.444693
v 62.889053 -64.766914 97.444693
v 62.889053 -64.766914 97.474693
v 62.891174 -64.769036 97.444693
v 62.891174 -64.769036 97.474693
v 62.820463 -64.839746 97.474693
v 62.820463 -64.839746 97.444693
v 63.065830 -64.660848 97.444693
v 62.712276 -65.014402 97.444693
v 62.712276 -65.014402 97.814693
v 62.698134 -65.028544 97.854693
v 62.698134 -65.028544 97.968693
v 62.754703 -64.971975 97.968693
v 63.023403 -64.703275 97.968693
v 63.079972 -64.646706 97.968693
v 63.079972 -64.646706 97.854693
v 63.065830 -64.660848 97.814693
vt 0.050000 0.031416 0.000000
vt -0.000000 0.031416 0.000000
vt 0.050000 0.024435 0.000000
vt 0.000000 0.024435 0.000000
vt 0.050000 0.017453 0.000000
vt -0.000000 0.017453 0.000000
vt 0.050000 0.010472 0.000000
vt 0.000000 0.010472 0.000000
vt 0.050000 0.003491 0.000000
vt 0.000000 0.003491 0.000000
vt 0.050000 -0.003491 0.000000
vt 0.000000 -0.003491 0.000000
vt 0.050000 -0.010472 0.000000
vt 0.000000 -0.010472 0.000000
vt 0.050000 -0.017453 0.000000
vt -0.000000 -0.017453 0.000000
vt 0.050000 -0.024435 0.000000
vt 0.000000 -0.024435 0.000000
vt 0.050000 -0.031416 0.000000
vt 0.000000 -0.031416 0.000000
vt 0.050000 0.007854 0.000000
vt -0.000000 0.007854 0.000000
vt 0.050000 0.003927 0.000000
vt -0.000000 0.003927 0.000000
vt 0.050000 -0.000000 0.000000
vt 0.000000 -0.000000 0.000000
vt 0.050000 -0.003927 0.000000
vt 0.000000 -0.003927 0.000000
vt 0.050000 -0.007854 0.000000
vt -0.000000 -0.007854 0.000000
vt 0.050000 0.007854 0.000000
vt -0.000000 0.007854 0.000000
vt 0.050000 0.003927 0.000000
vt -0.000000 0.003927 0.000000
vt 0.050000 0.000000 0.000000
vt -0.000000 0.000000 0.000000
vt 0.050000 -0.003927 0.000000
vt 0.000000 -0.003927 0.000000
vt 0.050000 -0.007854 0.000000
vt -0.000000 -0.007854 0.000000
vt 0.050000 0.031416 0.000000
vt 0.000000 0.031416 0.000000
vt 0.050000 0.024435 0.000000
vt -0.000000 0.024435 0.000000
vt 0.050000 0.017453 0.000000
vt 0.000000 0.017453 0.000000
vt 0.050000 0.010472 0.000000
vt -0.000000 0.010472 0.000000
vt 0.050000 0.003491 0.000000
vt -0.000000 0.003491 0.000000
vt 0.050000 -0.003491 0.000000
vt -0.000000 -0.003491 0.000000
vt 0.050000 -0.010472 0.000000
vt -0.000000 -0.010472 0.000000
vt 0.050000 -0.017453 0.000000
vt 0.000000 -0.017453 0.000000
vt 0.050000 -0.024435 0.000000
vt -0.000000 -0.024435 0.000000
vt 0.050000 -0.031416 0.000000
vt -0.000000 -0.031416 0.000000
vt 0.380000 0.050000 0.000000
vt 0.380000 0.250000 0.000000
vt 0.350000 0.050000 0.000000
vt 0.008794 0.213160 0.000000
vt 0.005321 0.207144 0.000000
vt 0.010000 0.250000 0.000000
vt 0.010000 0.220000 0.000000
vt 0.000000 0.202679 0.000000
vt 0.350000 -0.050000 0.000000
vt 0.000000 -0.202679 0.000000
vt 0.005321 -0.207144 0.000000
vt -0.006527 -0.200304 0.000000
vt -0.006527 0.200304 0.000000
vt -0.013473 0.200304 0.000000
vt -0.020000 0.202679 0.000000
vt -0.124000 0.180000 0.000000
vt -0.013473 -0.200304 0.000000
vt -0.025321 0.207144 0.000000
vt -0.028794 0.213160 0.000000
vt -0.124761 0.183827 0.000000
vt -0.030000 0.220000 0.000000
vt -0.126929 0.187071 0.000000
vt -0.144000 0.270000 0.000000
vt -0.130173 0.189239 0.000000
vt -0.134000 0.190000 0.000000
vt -0.144000 0.190000 0.000000
vt -0.030000 0.270000 0.000000
vt -0.124000 -0.180000 0.000000
vt -0.020000 -0.202679 0.000000
vt -0.025321 -0.207144 0.000000
vt -0.028794 -0.213160 0.000000
vt -0.124761 -0.183827 0.000000
vt -0.030000 -0.220000 0.000000
vt -0.126929 -0.187071 0.000000
vt -0.144000 -0.270000 0.000000
vt -0.130173 -0.189239 0.000000
vt -0.134000 -0.190000 0.000000
vt -0.144000 -0.190000 0.000000
vt -0.030000 -0.270000 0.000000
vt 0.008794 -0.213160 0.000000
vt 0.380000 -0.250000 0.000000
vt 0.380000 -0.050000 0.000000
vt 0.010000 -0.220000 0.000000
vt 0.010000 -0.250000 0.000000
vt -0.030000 -0.003000 0.000000
vt -0.000000 -0.003000 0.000000
vt -0.030000 0.000000 0.000000
vt -0.000000 0.000000 0.000000
vt -0.030000 -0.003000 0.000000
vt 0.000000 -0.003000 0.000000
vt -0.030000 -0.000000 0.000000
vt -0.000000 0.000000 0.000000
vt -0.100000 -0.003000 0.000000
vt 0.000000 -0.003000 0.000000
vt -0.100000 0.000000 0.000000
vt -0.000000 0.000000 0.000000
vt -0.015000 -0.050000 0.000000
vt 0.015000 -0.050000 0.000000
vt -0.015000 0.050000 0.000000
vt 0.015000 0.050000 0.000000
vt -0.000000 0.300000 0.000000
vt 0.003000 0.300000 0.000000
vt -0.000000 0.500000 0.000000
vt 0.050000 0.500000 0.000000
vt 0.050000 -0.000000 0.000000
vt 0.003000 0.200000 0.000000
vt 0.000000 0.000000 0.000000
vt -0.000000 0.200000 0.000000
vt -0.000000 -0.050000 0.000000
vt 0.370000 -0.050000 0.000000
vt 0.000000 0.000000 0.000000
vt 0.370000 -0.000000 0.000000
vt 0.000000 -0.050000 0.000000
vt 0.030000 -0.050000 0.000000
vt 0.000000 0.000000 0.000000
vt 0.030000 0.000000 0.000000
vt 0.120000 -0.050000 0.000000
vt 0.170000 -0.050000 0.000000
vt 0.120000 0.000000 0.000000
vt 0.170000 0.000000 0.000000
vt -0.000000 -0.050000 0.000000
vt 0.114000 -0.050000 0.000000
vt 0.000000 0.000000 0.000000
vt 0.114000 -0.000000 0.000000
vt -0.000000 -0.050000 0.000000
vt 0.080000 -0.050000 0.000000
vt 0.000000 0.000000 0.000000
vt 0.080000 0.000000 0.000000
vt -0.050000 -0.010000 0.000000
vt 0.000000 -0.010000 0.000000
vt -0.050000 -0.000000 0.000000
vt 0.000000 0.000000 0.000000
vt 0.000000 -0.050000 0.000000
vt 0.360000 -0.050000 0.000000
vt 0.000000 0.000000 0.000000
vt 0.360000 -0.000000 0.000000
vt -0.000000 -0.050000 0.000000
vt 0.010000 -0.050000 0.000000
vt 0.000000 0.000000 0.000000
vt 0.010000 -0.000000 0.000000
vt 0.460000 -0.050000 0.000000
vt 0.540000 -0.050000 0.000000
vt 0.460000 0.000000 0.000000
vt 0.540000 0.000000 0.000000
vt -0.050000 -0.114000 0.000000
vt -0.000000 -0.114000 0.000000
vt -0.050000 -0.000000 0.000000
vt 0.000000 0.000000 0.000000
vt -0.370000 -0.050000 0.000000
vt -0.320000 -0.050000 0.000000
vt -0.370000 0.000000 0.000000
vt -0.320000 0.000000 0.000000
vt 0.470000 -0.050000 0.000000
vt 0.500000 -0.050000 0.000000
vt 0.470000 0.000000 0.000000
vt 0.500000 0.000000 0.000000
vt 0.000000 -0.050000 0.000000
vt 0.370000 -0.050000 0.000000
vt 0.000000 0.000000 0.000000
vt 0.370000 0.000000 0.000000
vt -0.278355 -0.250000 0.000000
vt 0.096324 0.207144 0.000000
vt -0.278355 0.250000 0.000000
vt 0.092851 0.213160 0.000000
vt 0.091645 0.220000 0.000000
vt 0.091645 -0.250000 0.000000
vt 0.091645 -0.220000 0.000000
vt 0.092851 -0.213160 0.000000
vt 0.096324 -0.207144 0.000000
vt 0.101645 -0.202679 0.000000
vt 0.101645 0.202679 0.000000
vt 0.108172 -0.200304 0.000000
vt 0.108172 0.200304 0.000000
vt 0.115118 -0.200304 0.000000
vt 0.115118 0.200304 0.000000
vt 0.225645 -0.180000 0.000000
vt 0.225645 0.180000 0.000000
vt 0.121645 -0.202679 0.000000
vt 0.126966 -0.207144 0.000000
vt 0.130439 -0.213160 0.000000
vt 0.226406 -0.183827 0.000000
vt 0.131645 -0.220000 0.000000
vt 0.228574 -0.187071 0.000000
vt 0.245645 -0.270000 0.000000
vt 0.231818 -0.189239 0.000000
vt 0.235645 -0.190000 0.000000
vt 0.245645 -0.190000 0.000000
vt 0.131645 -0.270000 0.000000
vt 0.226406 0.183827 0.000000
vt 0.130439 0.213160 0.000000
vt 0.126966 0.207144 0.000000
vt 0.121645 0.202679 0.000000
vt 0.131645 0.220000 0.000000
vt 0.228574 0.187071 0.000000
vt 0.245645 0.270000 0.000000
vt 0.231818 0.189239 0.000000
vt 0.235645 0.190000 0.000000
vt 0.245645 0.190000 0.000000
vt 0.131645 0.270000 0.000000
vt 0.091645 0.250000 0.000000
vn -0.000000 -0.000000 1.000000
vn -0.000000 0.000000 1.000000
vn 0.241845 0.241845 0.939693
vn 0.241845 0.241845 0.939693
vn 0.454519 0.454519 0.766044
vn 0.454519 0.454519 0.766044
vn 0.612372 0.612372 0.500000
vn 0.612372 0.612372 0.500000
vn 0.696364 0.696364 0.173648
vn 0.696364 0.696364 0.173648
vn 0.696364 0.696364 -0.173648
vn 0.696364 0.696364 -0.173648
vn 0.612372 0.612372 -0.500000
vn 0.612372 0.612372 -0.500000
vn 0.454519 0.454519 -0.766044
vn 0.454519 0.454519 -0.766044
vn 0.241845 0.241845 -0.939693
vn 0.241845 0.241845 -0.939693
vn -0.000000 -0.000000 -1.000000
vn 0.000000 -0.000000 -1.000000
vn -0.707107 -0.707107 0.000000
vn -0.707107 -0.707107 -0.000000
vn -0.653281 -0.653281 0.382683
vn -0.653281 -0.653281 0.382683
vn -0.500000 -0.500000 0.707107
vn -0.500000 -0.500000 0.707107
vn -0.270598 -0.270598 0.923880
vn -0.270598 -0.270598 0.923880
vn -0.000000 -0.000000 1.000000
vn -0.000000 0.000000 1.000000
vn -0.000000 -0.000000 1.000000
vn -0.000000 0.000000 1.000000
vn 0.270598 0.270598 0.923880
vn 0.270598 0.270598 0.923880
vn 0.500000 0.500000 0.707107
vn 0.500000 0.500000 0.707107
vn 0.653281 0.653281 0.382683
vn 0.653281 0.653281 0.382683
vn 0.707107 0.707107 0.000000
vn 0.707107 0.707107 -0.000000
vn -0.000000 -0.000000 -1.000000
vn 0.000000 -0.000000 -1.000000
vn -0.241845 -0.241845 -0.939693
vn -0.241845 -0.241845 -0.939693
vn -0.454519 -0.454519 -0.766044
vn -0.454519 -0.454519 -0.766044
vn -0.612372 -0.612372 -0.500000
vn -0.612372 -0.612372 -0.500000
vn -0.696364 -0.696364 -0.173648
vn -0.696364 -0.696364 -0.173648
vn -0.696364 -0.696364 0.173648
vn -0.696364 -0.696364 0.173648
vn -0.612372 -0.612372 0.500000
vn -0.612372 -0.612372 0.500000
vn -0.454519 -0.454519 0.766044
vn -0.454519 -0.454519 0.766044
vn -0.241845 -0.241845 0.939693
vn -0.241845 -0.241845 0.939693
vn -0.000000 -0.000000 1.000000
vn -0.000000 0.000000 1.000000
vn -0.707107 0.707107 -0.000000
vn -0.707107 0.707107 -0.000000
vn -0.707107 0.707107 -0.000000
vn -0.707107 0.707107 -0.000000
vn -0.707107 0.707107 -0.000000
vn -0.707107 0.707107 -0.000000
vn -0.707107 0.707107 -0.000000
vn -0.707107 0.707107 -0.000000
vn -0.707107 0.707107 -0.000000
vn -0.707107 0.707107 -0.000000
vn -0.707107 0.707107 -0.000000
vn -0.707107 0.707107 -0.000000
vn -0.707107 0.707107 -0.000000
vn -0.707107 0.707107 -0.000000
vn -0.707107 0.707107 -0.000000
vn -0.707107 0.707107 -0.000000
vn -0.707107 0.707107 -0.000000
vn -0.707107 0.707107 -0.000000
vn -0.707107 0.707107 -0.000000
vn -0.707107 0.707107 -0.000000
vn -0.707107 0.707107 -0.000000
vn -0.707107 0.707107 -0.000000
vn -0.707107 0.707107 -0.000000
vn -0.707107 0.707107 -0.000000
vn -0.707107 0.707107 -0.000000
vn -0.707107 0.707107 -0.000000
vn -0.707107 0.707107 -0.000000
vn -0.707107 0.707107 -0.000000
vn -0.707107 0.707107 -0.000000
vn -0.707107 0.707107 -0.000000
vn -0.707107 0.707107 -0.000000
vn -0.707107 0.707107 -0.000000
vn -0.707107 0.707107 -0.000000
vn -0.707107 0.707107 -0.000000
vn -0.707107 0.707107 -0.000000
vn -0.707107 0.707107 -0.000000
vn -0.707107 0.707107 -0.000000
vn -0.707107 0.707107 -0.000000
vn -0.707107 0.707107 -0.000000
vn -0.707107 0.707107 -0.000000
vn -0.707107 0.707107 -0.000000
vn -0.707107 0.707107 -0.000000
vn -0.707107 0.707107 -0.000000
vn -0.707107 0.707107 -0.000000
vn -0.707107 -0.707107 0.000000
vn -0.707107 -0.707107 0.000000
vn -0.707107 -0.707107 0.000000
vn -0.707107 -0.707107 0.000000
vn 0.707107 0.707107 -0.000000
vn 0.707107 0.707107 -0.000000
vn 0.707107 0.707107 -0.000000
vn 0.707107 0.707107 -0.000000
vn 0.000000 -0.000000 -1.000000
vn 0.000000 -0.000000 -1.000000
vn 0.000000 -0.000000 -1.000000
vn 0.000000 -0.000000 -1.000000
vn -0.707107 0.707107 -0.000000
vn -0.707107 0.707107 -0.000000
vn -0.707107 0.707107 -0.000000
vn -0.707107 0.707107 -0.000000
vn 0.000000 -0.000000 -1.000000
vn 0.000000 -0.000000 -1.000000
vn 0.000000 -0.000000 -1.000000
vn 0.000000 -0.000000 -1.000000
vn 0.000000 -0.000000 -1.000000
vn 0.000000 -0.000000 -1.000000
vn 0.000000 -0.000000 -1.000000
vn 0.000000 -0.000000 -1.000000
vn -0.707107 -0.707107 0.000000
vn -0.707107 -0.707107 0.000000
vn -0.707107 -0.707107 0.000000
vn -0.707107 -0.707107 0.000000
vn 0.000000 0.000000 1.000000
vn 0.000000 0.000000 1.000000
vn 0.000000 0.000000 1.000000
vn 0.000000 -0.000000 -1.000000
vn 0.000000 -0.000000 -1.000000
vn 0.000000 -0.000000 -1.000000
vn -0.707107 -0.707107 0.000000
vn -0.707107 -0.707107 0.000000
vn -0.707107 -0.707107 0.000000
vn -0.707107 -0.707107 0.000000
vn -0.000000 0.000000 1.000000
vn -0.000000 0.000000 1.000000
vn -0.000000 0.000000 1.000000
vn -0.000000 0.000000 1.000000
vn 0.707107 0.707107 0.000000
vn 0.707107 0.707107 0.000000
vn 0.707107 0.707107 0.000000
vn 0.707107 0.707107 0.000000
vn -0.707107 -0.707107 0.000000
vn -0.707107 -0.707107 0.000000
vn -0.707107 -0.707107 0.000000
vn -0.707107 -0.707107 0.000000
vn -0.000000 0.000000 1.000000
vn -0.000000 0.000000 1.000000
vn -0.000000 0.000000 1.000000
vn -0.000000 0.000000 1.000000
vn 0.707107 0.707107 0.000000
vn 0.707107 0.707107 0.000000
vn 0.707107 0.707107 0.000000
vn 0.707107 0.707107 0.000000
vn 0.000000 -0.000000 -1.000000
vn 0.000000 -0.000000 -1.000000
vn 0.000000 0.000000 1.000000
vn 0.000000 0.000000 1.000000
vn 0.000000 0.000000 1.000000
vn 0.707107 0.707107 -0.000000
vn 0.707107 0.707107 -0.000000
vn 0.707107 0.707107 -0.000000
vn 0.707107 0.707107 -0.000000
vn 0.707107 -0.707107 0.000000
vn 0.707107 -0.707107 0.000000
vn 0.707107 -0.707107 0.000000
vn 0.707107 -0.707107 0.000000
vn 0.707107 -0.707107 0.000000
vn 0.707107 -0.707107 0.000000
vn 0.707107 -0.707107 0.000000
vn 0.707107 -0.707107 0.000000
vn 0.707107 -0.707107 0.000000
vn 0.707107 -0.707107 0.000000
vn 0.707107 -0.707107 0.000000
vn 0.707107 -0.707107 0.000000
vn 0.707107 -0.707107 0.000000
vn 0.707107 -0.707107 0.000000
vn 0.707107 -0.707107 0.000000
vn 0.707107 -0.707107 0.000000
vn 0.707107 -0.707107 0.000000
vn 0.707107 -0.707107 0.000000
vn 0.707107 -0.707107 0.000000
vn 0.707107 -0.707107 0.000000
vn 0.707107 -0.707107 0.000000
vn 0.707107 -0.707107 0.000000
vn 0.707107 -0.707107 0.000000
vn 0.707107 -0.707107 0.000000
vn 0.707107 -0.707107 0.000000
vn 0.707107 -0.707107 0.000000
vn 0.707107 -0.707107 0.000000
vn 0.707107 -0.707107 0.000000
vn 0.707107 -0.707107 0.000000
vn 0.707107 -0.707107 0.000000
vn 0.707107 -0.707107 0.000000
vn 0.707107 -0.707107 0.000000
vn 0.707107 -0.707107 0.000000
vn 0.707107 -0.707107 0.000000
vn 0.707107 -0.707107 0.000000
vn 0.707107 -0.707107 0.000000
vn 0.707107 -0.707107 0.000000
vn 0.707107 -0.707107 0.000000
vn 0.707107 -0.707107 0.000000
vn 0.707107 -0.707107 0.000000
usemtl Opaque(202,209,238)
f 20/1/1 1/2/2 19/3/3
f 19/3/3 1/2/2 2/4/4
f 19/3/3 2/4/4 18/5/5
f 18/5/5 2/4/4 3/6/6
f 18/5/5 3/6/6 17/7/7
f 17/7/7 3/6/6 4/8/8
f 17/7/7 4/8/8 16/9/9
f 16/9/9 4/8/8 5/10/10
f 16/9/9 5/10/10 15/11/11
f 15/11/11 5/10/10 6/12/12
f 15/11/11 6/12/12 14/13/13
f 14/13/13 6/12/12 7/14/14
f 14/13/13 7/14/14 13/15/15
f 13/15/15 7/14/14 8/16/16
f 13/15/15 8/16/16 12/17/17
f 12/17/17 8/16/16 9/18/18
f 12/17/17 9/18/18 11/19/19
f 11/19/19 9/18/18 10/20/20
f 30/21/21 21/22/22 29/23/23
f 29/23/23 21/22/22 22/24/24
f 29/23/23 22/24/24 28/25/25
f 28/25/25 22/24/24 23/26/26
f 28/25/25 23/26/26 27/27/27
f 27/27/27 23/26/26 24/28/28
f 27/27/27 24/28/28 26/29/29
f 26/29/29 24/28/28 25/30/30
f 40/31/31 31/32/32 39/33/33
f 39/33/33 31/32/32 32/34/34
f 39/33/33 32/34/34 38/35/35
f 38/35/35 32/34/34 33/36/36
f 38/35/35 33/36/36 37/37/37
f 37/37/37 33/36/36 34/38/38
f 37/37/37 34/38/38 36/39/39
f 36/39/39 34/38/38 35/40/40
f 60/41/41 41/42/42 59/43/43
f 59/43/43 41/42/42 42/44/44
f 59/43/43 42/44/44 58/45/45
f 58/45/45 42/44/44 43/46/46
f 58/45/45 43/46/46 57/47/47
f 57/47/47 43/46/46 44/48/48
f 57/47/47 44/48/48 56/49/49
f 56/49/49 44/48/48 45/50/50
f 56/49/49 45/50/50 55/51/51
f 55/51/51 45/50/50 46/52/52
f 55/51/51 46/52/52 54/53/53
f 54/53/53 46/52/52 47/54/54
f 54/53/53 47/54/54 53/55/55
f 53/55/55 47/54/54 48/56/56
f 53/55/55 48/56/56 52/57/57
f 52/57/57 48/56/56 49/58/58
f 52/57/57 49/58/58 51/59/59
f 51/59/59 49/58/58 50/60/60
f 62/61/61 63/62/62 61/63/63
f 61/63/63 63/62/62 49/64/64
f 61/63/63 49/64/64 48/65/65
f 64/66/66 50/67/67 63/62/62
f 63/62/62 50/67/67 49/64/64
f 48/65/65 47/68/68 61/63/63
f 61/63/63 47/68/68 74/69/69
f 74/69/69 47/68/68 4/70/70
f 74/69/69 4/70/70 3/71/71
f 4/70/70 47/68/68 5/72/72
f 5/72/72 47/68/68 46/73/73
f 5/72/72 46/73/73 45/74/74
f 44/75/75 31/76/76 45/74/74
f 45/74/74 31/76/76 6/77/77
f 45/74/74 6/77/77 5/72/72
f 44/75/75 43/78/78 31/76/76
f 31/76/76 43/78/78 42/79/79
f 31/76/76 42/79/79 32/80/80
f 32/80/80 42/79/79 41/81/81
f 32/80/80 41/81/81 33/82/82
f 33/82/82 41/81/81 66/83/83
f 33/82/82 66/83/83 34/84/84
f 34/84/84 66/83/83 35/85/85
f 35/85/85 66/83/83 67/86/86
f 41/81/81 65/87/87 66/83/83
f 31/76/76 25/88/88 6/77/77
f 6/77/77 25/88/88 7/89/89
f 7/89/89 25/88/88 8/90/90
f 8/90/90 25/88/88 9/91/91
f 9/91/91 25/88/88 24/92/92
f 9/91/91 24/92/92 10/93/93
f 10/93/93 24/92/92 23/94/94
f 10/93/93 23/94/94 69/95/95
f 69/95/95 23/94/94 22/96/96
f 69/95/95 22/96/96 21/97/97
f 21/97/97 68/98/98 69/95/95
f 69/95/95 70/99/99 10/93/93
f 3/71/71 2/100/100 74/69/69
f 74/69/69 2/100/100 72/101/101
f 74/69/69 72/101/101 73/102/102
f 2/100/100 1/103/103 72/101/101
f 72/101/101 1/103/103 71/104/104
f 75/105/105 76/106/106 73/107/107
f 73/107/107 76/106/106 74/108/108
f 77/109/109 78/110/110 61/111/111
f 61/111/111 78/110/110 62/112/112
f 76/113/113 77/114/114 74/115/115
f 74/115/115 77/114/114 61/116/116
f 76/117/117 75/118/118 77/119/119
f 77/119/119 75/118/118 78/120/120
f 62/121/121 78/122/122 63/123/123
f 63/123/123 78/122/122 80/124/124
f 80/124/124 78/122/122 79/125/125
f 79/125/125 78/122/122 75/126/126
f 79/125/125 75/126/126 72/127/127
f 72/127/127 75/126/126 73/128/128
f 80/129/129 81/130/130 63/131/131
f 63/131/131 81/130/130 64/132/132
f 81/133/133 51/134/134 64/135/135
f 64/135/135 51/134/134 50/136/60
f 60/137/136 82/138/137 41/139/42
f 41/139/42 82/138/137 65/140/138
f 82/141/139 83/142/140 65/143/141
f 65/143/141 83/142/140 66/144/142
f 83/145/143 84/146/144 66/147/145
f 66/147/145 84/146/144 67/148/146
f 36/149/147 35/150/148 84/151/149
f 84/151/149 35/150/148 67/152/150
f 40/153/31 26/154/29 31/155/32
f 31/155/32 26/154/29 25/156/30
f 30/157/151 85/158/152 21/159/153
f 21/159/153 85/158/152 68/160/154
f 85/161/155 86/162/156 68/163/157
f 68/163/157 86/162/156 69/164/158
f 87/165/159 70/166/160 86/167/161
f 86/167/161 70/166/160 69/168/162
f 87/169/163 11/170/19 70/171/164
f 70/171/164 11/170/19 10/172/20
f 20/173/165 88/174/166 1/175/2
f 1/175/2 88/174/166 71/176/167
f 88/177/168 79/178/169 71/179/170
f 71/179/170 79/178/169 72/180/171
f 79/181/172 53/182/173 80/183/174
f 80/183/174 53/182/173 52/184/175
f 80/183/174 52/184/175 51/185/176
f 88/186/177 20/187/178 79/181/172
f 79/181/172 20/187/178 19/188/179
f 79/181/172 19/188/179 18/189/180
f 79/181/172 18/189/180 53/182/173
f 53/182/173 18/189/180 17/190/181
f 53/182/173 17/190/181 54/191/182
f 54/191/182 17/190/181 16/192/183
f 54/191/182 16/192/183 55/193/184
f 55/193/184 16/192/183 15/194/185
f 55/193/184 15/194/185 56/195/186
f 56/195/186 15/194/185 26/196/187
f 56/195/186 26/196/187 40/197/188
f 15/194/185 14/198/189 26/196/187
f 26/196/187 14/198/189 13/199/190
f 26/196/187 13/199/190 12/200/191
f 26/196/187 12/200/191 27/201/192
f 27/201/192 12/200/191 11/202/193
f 27/201/192 11/202/193 28/203/194
f 28/203/194 11/202/193 86/204/195
f 28/203/194 86/204/195 29/205/196
f 29/205/196 86/204/195 30/206/197
f 30/206/197 86/204/195 85/207/198
f 11/202/193 87/208/199 86/204/195
f 39/209/200 59/210/201 40/197/188
f 40/197/188 59/210/201 58/211/202
f 40/197/188 58/211/202 57/212/203
f 59/210/201 39/209/200 60/213/204
f 60/213/204 39/209/200 38/214/205
f 60/213/204 38/214/205 83/215/206
f 83/215/206 38/214/205 37/216/207
f 83/215/206 37/216/207 36/217/208
f 36/217/208 84/218/209 83/215/206
f 83/215/206 82/219/210 60/213/204
f 57/212/203 56/195/186 40/197/188
f 51/185/176 81/220/211 80/183/174
# 88 vertices
# 220 texture params
# 211 normals
# 172 facets

# 1 groups
