# WaveFront *.obj file (generated by Autodesk ATF)

mtllib body56_visual.mtl

g Body56

v 62.864143 -64.817794 96.405675
v 62.895256 -64.848907 96.405675
v 62.896829 -64.850480 96.405425
v 62.898324 -64.851975 96.404685
v 62.899664 -64.853315 96.403494
v 62.900784 -64.854435 96.401910
v 62.901626 -64.855277 96.400014
v 62.902149 -64.855800 96.397900
v 62.902327 -64.855978 96.395675
v 62.902327 -64.855978 96.295675
v 62.902149 -64.855800 96.293450
v 62.901626 -64.855277 96.291336
v 62.900784 -64.854435 96.289440
v 62.899664 -64.853315 96.287857
v 62.898324 -64.851975 96.286666
v 62.896829 -64.850480 96.285926
v 62.895256 -64.848907 96.285675
v 62.864143 -64.817794 96.285675
v 62.878490 -64.832141 96.339519
v 62.898546 -64.852197 96.339519
v 62.898546 -64.852197 96.351831
v 62.878490 -64.832141 96.351831
v 62.882181 -64.828449 96.339519
v 62.902237 -64.848506 96.339519
v 62.882181 -64.828449 96.301314
v 62.902237 -64.848506 96.301314
v 62.941041 -64.769589 96.301314
v 62.961098 -64.789645 96.301314
v 62.941041 -64.769589 96.316759
v 62.961098 -64.789645 96.316759
v 62.917257 -64.793373 96.316759
v 62.937313 -64.813430 96.316759
v 62.917257 -64.793373 96.385267
v 62.937313 -64.813430 96.385267
v 62.882181 -64.828449 96.385267
v 62.902237 -64.848506 96.385267
v 62.882181 -64.828449 96.351831
v 62.902237 -64.848506 96.351831
v 62.842321 -64.839616 96.405675
v 62.873434 -64.870729 96.405675
v 62.880505 -64.877800 96.295675
v 62.880505 -64.877800 96.395675
v 62.880327 -64.877622 96.397900
v 62.879804 -64.877099 96.400014
v 62.878962 -64.876257 96.401910
v 62.877842 -64.875137 96.403494
v 62.876502 -64.873797 96.404685
v 62.875007 -64.872302 96.405425
v 62.842321 -64.839616 96.285675
v 62.873434 -64.870729 96.285675
v 62.875007 -64.872302 96.285926
v 62.876502 -64.873797 96.286666
v 62.877842 -64.875137 96.287857
v 62.878962 -64.876257 96.289440
v 62.879804 -64.877099 96.291336
v 62.880327 -64.877622 96.293450
vt 0.120000 -0.010000 0.000000
vt 0.066156 -0.033711 0.000000
vt 0.120000 -0.054000 0.000000
vt 0.053844 -0.033711 0.000000
vt 0.000000 -0.054000 0.000000
vt 0.000000 -0.010000 0.000000
vt 0.053844 -0.005347 0.000000
vt 0.000251 -0.007775 0.000000
vt 0.010000 0.000000 0.000000
vt 0.000990 -0.005661 0.000000
vt 0.002182 -0.003765 0.000000
vt 0.003765 -0.002182 0.000000
vt 0.005661 -0.000990 0.000000
vt 0.007775 -0.000251 0.000000
vt 0.066156 -0.005347 0.000000
vt 0.119749 -0.007775 0.000000
vt 0.110000 0.000000 0.000000
vt 0.119010 -0.005661 0.000000
vt 0.117818 -0.003765 0.000000
vt 0.116235 -0.002182 0.000000
vt 0.114339 -0.000990 0.000000
vt 0.112225 -0.000251 0.000000
vt 0.005220 -0.005347 0.000000
vt -0.000000 -0.005347 0.000000
vt 0.005220 -0.033711 0.000000
vt -0.000000 -0.033711 0.000000
vt 0.038205 -0.005347 0.000000
vt -0.000000 -0.005347 0.000000
vt 0.038205 -0.033711 0.000000
vt -0.000000 -0.033711 0.000000
vt 0.083241 -0.005347 0.000000
vt -0.000000 -0.005347 0.000000
vt 0.083241 -0.033711 0.000000
vt 0.000000 -0.033711 0.000000
vt 0.015445 -0.005347 0.000000
vt 0.000000 -0.005347 0.000000
vt 0.015445 -0.033711 0.000000
vt 0.000000 -0.033711 0.000000
vt 0.033636 -0.005347 0.000000
vt -0.000000 -0.005347 0.000000
vt 0.033636 -0.033711 0.000000
vt 0.000000 -0.033711 0.000000
vt 0.068508 -0.005347 0.000000
vt 0.000000 -0.005347 0.000000
vt 0.068508 -0.033711 0.000000
vt 0.000000 -0.033711 0.000000
vt 0.049605 -0.005347 0.000000
vt 0.000000 -0.005347 0.000000
vt 0.049605 -0.033711 0.000000
vt -0.000000 -0.033711 0.000000
vt 0.033436 -0.005347 0.000000
vt -0.000000 -0.005347 0.000000
vt 0.033436 -0.033711 0.000000
vt -0.000000 -0.033711 0.000000
vt 0.005220 -0.005347 0.000000
vt 0.000000 -0.005347 0.000000
vt 0.005220 -0.033711 0.000000
vt -0.000000 -0.033711 0.000000
vt 0.000000 -0.010000 0.000000
vt -0.030861 -0.010000 0.000000
vt 0.000000 -0.054000 0.000000
vt -0.030861 -0.054000 0.000000
vt -0.110000 0.000000 0.000000
vt -0.000000 -0.010000 0.000000
vt -0.010000 0.000000 0.000000
vt -0.000251 -0.007775 0.000000
vt -0.000990 -0.005661 0.000000
vt -0.112225 -0.000251 0.000000
vt -0.114339 -0.000990 0.000000
vt -0.116235 -0.002182 0.000000
vt -0.117818 -0.003765 0.000000
vt -0.119010 -0.005661 0.000000
vt -0.119749 -0.007775 0.000000
vt -0.120000 -0.010000 0.000000
vt -0.120000 -0.054000 0.000000
vt -0.000000 -0.054000 0.000000
vt -0.002182 -0.003765 0.000000
vt -0.003765 -0.002182 0.000000
vt -0.005661 -0.000990 0.000000
vt -0.007775 -0.000251 0.000000
vt -0.000000 -0.010000 0.000000
vt -0.030861 -0.010000 0.000000
vt -0.000000 -0.054000 0.000000
vt -0.030861 -0.054000 0.000000
vt -0.050000 0.060000 0.000000
vt 0.050000 0.060000 0.000000
vt -0.050000 0.090861 0.000000
vt 0.050000 0.090861 0.000000
vt -0.060000 0.060000 0.000000
vt 0.060000 0.060000 0.000000
vt -0.060000 0.090861 0.000000
vt 0.060000 0.090861 0.000000
vt -0.053844 0.120000 0.000000
vt -0.066156 0.120000 0.000000
vt -0.053844 0.114780 0.000000
vt -0.066156 0.114780 0.000000
vt -0.031083 0.065175 0.000000
vt -0.099592 0.065175 0.000000
vt -0.099592 0.114780 0.000000
vt -0.031083 0.031538 0.000000
vt -0.015639 0.031538 0.000000
vt -0.015639 0.114780 0.000000
vt 0.015639 0.114780 0.000000
vt 0.031083 0.065175 0.000000
vt 0.053844 0.114780 0.000000
vt 0.066156 0.114780 0.000000
vt 0.053844 0.120000 0.000000
vt 0.066156 0.120000 0.000000
vt 0.015639 0.031538 0.000000
vt 0.031083 0.031538 0.000000
vt 0.099592 0.065175 0.000000
vt 0.099592 0.114780 0.000000
vt -0.090861 0.015708 0.000000
vt -0.060000 0.015708 0.000000
vt -0.090861 0.017952 0.000000
vt -0.060000 0.017952 0.000000
vt -0.090861 0.020196 0.000000
vt -0.060000 0.020196 0.000000
vt -0.090861 0.022440 0.000000
vt -0.060000 0.022440 0.000000
vt -0.090861 0.024684 0.000000
vt -0.060000 0.024684 0.000000
vt -0.090861 0.026928 0.000000
vt -0.060000 0.026928 0.000000
vt -0.090861 0.029172 0.000000
vt -0.060000 0.029172 0.000000
vt -0.090861 0.031416 0.000000
vt -0.060000 0.031416 0.000000
vt 0.060000 0.015708 0.000000
vt 0.090861 0.015708 0.000000
vt 0.060000 0.017952 0.000000
vt 0.090861 0.017952 0.000000
vt 0.060000 0.020196 0.000000
vt 0.090861 0.020196 0.000000
vt 0.060000 0.022440 0.000000
vt 0.090861 0.022440 0.000000
vt 0.060000 0.024684 0.000000
vt 0.090861 0.024684 0.000000
vt 0.060000 0.026928 0.000000
vt 0.090861 0.026928 0.000000
vt 0.060000 0.029172 0.000000
vt 0.090861 0.029172 0.000000
vt 0.060000 0.031416 0.000000
vt 0.090861 0.031416 0.000000
vn 0.707107 0.707107 0.000000
vn 0.707107 0.707107 0.000000
vn 0.707107 0.707107 0.000000
vn 0.707107 0.707107 0.000000
vn 0.707107 0.707107 0.000000
vn 0.707107 0.707107 0.000000
vn 0.707107 0.707107 0.000000
vn 0.707107 0.707107 0.000000
vn 0.707107 0.707107 0.000000
vn 0.707107 0.707107 0.000000
vn 0.707107 0.707107 0.000000
vn 0.707107 0.707107 0.000000
vn 0.707107 0.707107 0.000000
vn 0.707107 0.707107 0.000000
vn 0.707107 0.707107 0.000000
vn 0.707107 0.707107 0.000000
vn 0.707107 0.707107 0.000000
vn 0.707107 0.707107 0.000000
vn 0.707107 0.707107 0.000000
vn 0.707107 0.707107 0.000000
vn 0.707107 0.707107 0.000000
vn 0.707107 0.707107 0.000000
vn 0.000000 -0.000000 -1.000000
vn 0.000000 -0.000000 -1.000000
vn 0.000000 -0.000000 -1.000000
vn 0.000000 -0.000000 -1.000000
vn -0.707107 -0.707107 0.000000
vn -0.707107 -0.707107 0.000000
vn -0.707107 -0.707107 0.000000
vn -0.707107 -0.707107 0.000000
vn 0.000000 -0.000000 -1.000000
vn 0.000000 -0.000000 -1.000000
vn 0.000000 -0.000000 -1.000000
vn 0.000000 -0.000000 -1.000000
vn 0.707107 0.707107 -0.000000
vn 0.707107 0.707107 -0.000000
vn 0.707107 0.707107 -0.000000
vn 0.707107 0.707107 -0.000000
vn -0.000000 0.000000 1.000000
vn -0.000000 0.000000 1.000000
vn -0.000000 0.000000 1.000000
vn -0.000000 0.000000 1.000000
vn 0.707107 0.707107 -0.000000
vn 0.707107 0.707107 -0.000000
vn 0.707107 0.707107 -0.000000
vn 0.707107 0.707107 -0.000000
vn -0.000000 0.000000 1.000000
vn -0.000000 0.000000 1.000000
vn -0.000000 0.000000 1.000000
vn -0.000000 0.000000 1.000000
vn -0.707107 -0.707107 0.000000
vn -0.707107 -0.707107 0.000000
vn -0.707107 -0.707107 0.000000
vn -0.707107 -0.707107 0.000000
vn -0.000000 0.000000 1.000000
vn -0.000000 0.000000 1.000000
vn -0.000000 0.000000 1.000000
vn -0.000000 0.000000 1.000000
vn -0.000000 0.000000 1.000000
vn -0.000000 0.000000 1.000000
vn -0.000000 0.000000 1.000000
vn -0.000000 0.000000 1.000000
vn -0.707107 -0.707107 0.000000
vn -0.707107 -0.707107 0.000000
vn -0.707107 -0.707107 0.000000
vn -0.707107 -0.707107 0.000000
vn -0.707107 -0.707107 0.000000
vn -0.707107 -0.707107 0.000000
vn -0.707107 -0.707107 0.000000
vn -0.707107 -0.707107 0.000000
vn -0.707107 -0.707107 0.000000
vn -0.707107 -0.707107 0.000000
vn -0.707107 -0.707107 0.000000
vn -0.707107 -0.707107 0.000000
vn -0.707107 -0.707107 0.000000
vn -0.707107 -0.707107 0.000000
vn -0.707107 -0.707107 0.000000
vn -0.707107 -0.707107 0.000000
vn -0.707107 -0.707107 0.000000
vn -0.707107 -0.707107 0.000000
vn 0.000000 -0.000000 -1.000000
vn 0.000000 -0.000000 -1.000000
vn 0.000000 -0.000000 -1.000000
vn 0.000000 -0.000000 -1.000000
vn 0.707107 -0.707107 0.000000
vn 0.707107 -0.707107 0.000000
vn 0.707107 -0.707107 0.000000
vn 0.707107 -0.707107 0.000000
vn -0.707107 0.707107 -0.000000
vn -0.707107 0.707107 -0.000000
vn -0.707107 0.707107 -0.000000
vn -0.707107 0.707107 -0.000000
vn -0.707107 0.707107 -0.000000
vn -0.707107 0.707107 -0.000000
vn -0.707107 0.707107 -0.000000
vn -0.707107 0.707107 -0.000000
vn -0.707107 0.707107 -0.000000
vn -0.707107 0.707107 -0.000000
vn -0.707107 0.707107 -0.000000
vn -0.707107 0.707107 -0.000000
vn -0.707107 0.707107 -0.000000
vn -0.707107 0.707107 -0.000000
vn 0.707107 -0.707107 0.000000
vn 0.707107 -0.707107 0.000000
vn 0.707107 -0.707107 0.000000
vn 0.707107 -0.707107 0.000000
vn 0.707107 -0.707107 0.000000
vn 0.707107 -0.707107 0.000000
vn 0.707107 -0.707107 0.000000
vn 0.707107 -0.707107 0.000000
vn 0.707107 -0.707107 0.000000
vn 0.707107 -0.707107 0.000000
vn 0.689378 -0.689378 0.222521
vn 0.689378 -0.689378 0.222521
vn 0.637081 -0.637081 0.433884
vn 0.637081 -0.637081 0.433884
vn 0.552838 -0.552838 0.623490
vn 0.552838 -0.552838 0.623490
vn 0.440874 -0.440874 0.781831
vn 0.440874 -0.440874 0.781831
vn 0.306802 -0.306802 0.900969
vn 0.306802 -0.306802 0.900969
vn 0.157346 -0.157346 0.974928
vn 0.157346 -0.157346 0.974928
vn -0.000000 0.000000 1.000000
vn 0.689378 -0.689378 -0.222521
vn 0.689378 -0.689378 -0.222521
vn 0.637081 -0.637081 -0.433884
vn 0.637081 -0.637081 -0.433884
vn 0.552838 -0.552838 -0.623490
vn 0.552838 -0.552838 -0.623490
vn 0.440874 -0.440874 -0.781831
vn 0.440874 -0.440874 -0.781831
vn 0.306802 -0.306802 -0.900969
vn 0.306802 -0.306802 -0.900969
vn 0.157346 -0.157346 -0.974928
vn 0.157346 -0.157346 -0.974928
vn -0.000000 0.000000 -1.000000
usemtl Opaque(202,209,238)
f 2/1/1 22/2/2 1/3/3
f 1/3/3 22/2/2 19/4/4
f 1/3/3 19/4/4 18/5/5
f 18/5/5 19/4/4 17/6/6
f 17/6/6 19/4/4 20/7/7
f 17/6/6 20/7/7 16/8/8
f 16/8/8 20/7/7 10/9/9
f 16/8/8 10/9/9 15/10/10
f 15/10/10 10/9/9 14/11/11
f 14/11/11 10/9/9 13/12/12
f 13/12/12 10/9/9 12/13/13
f 12/13/13 10/9/9 11/14/14
f 22/2/2 2/1/1 21/15/15
f 21/15/15 2/1/1 3/16/16
f 21/15/15 3/16/16 9/17/17
f 9/17/17 3/16/16 4/18/18
f 9/17/17 4/18/18 5/19/19
f 5/19/19 6/20/20 9/17/17
f 9/17/17 6/20/20 7/21/21
f 9/17/17 7/21/21 8/22/22
f 9/17/17 10/9/9 21/15/15
f 21/15/15 10/9/9 20/7/7
f 24/23/23 20/24/24 23/25/25
f 23/25/25 20/24/24 19/26/26
f 26/27/27 24/28/28 25/29/29
f 25/29/29 24/28/28 23/30/30
f 28/31/31 26/32/32 27/33/33
f 27/33/33 26/32/32 25/34/34
f 30/35/35 28/36/36 29/37/37
f 29/37/37 28/36/36 27/38/38
f 32/39/39 30/40/40 31/41/41
f 31/41/41 30/40/40 29/42/42
f 34/43/43 32/44/44 33/45/45
f 33/45/45 32/44/44 31/46/46
f 36/47/47 34/48/48 35/49/49
f 35/49/49 34/48/48 33/50/50
f 38/51/51 36/52/52 37/53/53
f 37/53/53 36/52/52 35/54/54
f 21/55/55 38/56/56 22/57/57
f 22/57/57 38/56/56 37/58/58
f 40/59/59 2/60/60 39/61/61
f 39/61/61 2/60/60 1/62/62
f 42/63/63 50/64/64 41/65/65
f 41/65/65 50/64/64 51/66/66
f 41/65/65 51/66/66 52/67/67
f 43/68/68 44/69/69 42/63/63
f 42/63/63 44/69/69 45/70/70
f 42/63/63 45/70/70 46/71/71
f 46/71/71 47/72/72 42/63/63
f 42/63/63 47/72/72 48/73/73
f 42/63/63 48/73/73 40/74/74
f 39/75/75 49/76/76 40/74/74
f 40/74/74 49/76/76 50/64/64
f 40/74/74 50/64/64 42/63/63
f 52/67/67 53/77/77 41/65/65
f 41/65/65 53/77/77 54/78/78
f 41/65/65 54/78/78 55/79/79
f 55/79/79 56/80/80 41/65/65
f 17/81/81 50/82/82 18/83/83
f 18/83/83 50/82/82 49/84/84
f 10/85/85 9/86/86 41/87/87
f 41/87/87 9/86/86 42/88/88
f 1/89/89 18/90/90 39/91/91
f 39/91/91 18/90/90 49/92/92
f 19/93/93 22/94/94 23/95/95
f 23/95/95 22/94/94 37/96/96
f 23/95/95 37/96/96 31/97/97
f 31/97/97 37/96/96 33/98/98
f 33/98/98 37/96/96 35/99/99
f 29/100/100 27/101/101 31/97/97
f 31/97/97 27/101/101 25/102/102
f 31/97/97 25/102/102 23/95/95
f 26/103/103 32/104/104 24/105/105
f 24/105/105 32/104/104 38/106/106
f 24/105/105 38/106/106 20/107/107
f 20/107/107 38/106/106 21/108/108
f 26/103/103 28/109/109 32/104/104
f 32/104/104 28/109/109 30/110/110
f 32/104/104 34/111/111 38/106/106
f 38/106/106 34/111/111 36/112/112
f 42/113/88 9/114/86 43/115/113
f 43/115/113 9/114/86 8/116/114
f 43/115/113 8/116/114 44/117/115
f 44/117/115 8/116/114 7/118/116
f 44/117/115 7/118/116 45/119/117
f 45/119/117 7/118/116 6/120/118
f 45/119/117 6/120/118 46/121/119
f 46/121/119 6/120/118 5/122/120
f 46/121/119 5/122/120 47/123/121
f 47/123/121 5/122/120 4/124/122
f 47/123/121 4/124/122 48/125/123
f 48/125/123 4/124/122 3/126/124
f 48/125/123 3/126/124 40/127/125
f 40/127/125 3/126/124 2/128/60
f 10/129/85 41/130/87 11/131/126
f 11/131/126 41/130/87 56/132/127
f 11/131/126 56/132/127 12/133/128
f 12/133/128 56/132/127 55/134/129
f 12/133/128 55/134/129 13/135/130
f 13/135/130 55/134/129 54/136/131
f 13/135/130 54/136/131 14/137/132
f 14/137/132 54/136/131 53/138/133
f 14/137/132 53/138/133 15/139/134
f 15/139/134 53/138/133 52/140/135
f 15/139/134 52/140/135 16/141/136
f 16/141/136 52/140/135 51/142/137
f 16/141/136 51/142/137 17/143/81
f 17/143/81 51/142/137 50/144/138
# 56 vertices
# 144 texture params
# 138 normals
# 108 facets

# 1 groups
