# WaveFront *.obj file (generated by Autodesk ATF)

mtllib body10_visual.mtl

g Body10

v 63.429899 -64.076603 95.804664
v 63.735722 -64.382427 95.804664
v 63.735722 -64.382427 95.875164
v 63.429899 -64.076603 95.875164
v 63.466668 -64.039834 95.875164
v 63.466668 -64.039834 95.804664
v 63.772492 -64.345657 95.875164
v 63.772492 -64.345657 95.804664
v 64.399696 -64.022510 95.875164
v 64.470406 -64.093220 95.875164
v 64.470406 -64.093220 95.804664
v 64.399696 -64.022510 95.804664
v 63.779208 -64.350386 95.875164
v 63.787124 -64.352573 95.875164
v 63.795315 -64.351962 95.875164
v 63.802820 -64.348626 95.875164
v 63.802820 -64.348626 95.804664
v 63.795315 -64.351962 95.804664
v 63.787124 -64.352573 95.804664
v 63.779208 -64.350386 95.804664
v 64.433637 -64.129990 95.875164
v 64.433637 -64.129990 95.804664
v 64.303657 -64.013109 95.875164
v 64.316799 -64.006065 95.875164
v 64.331065 -64.001723 95.875164
v 64.345904 -64.000250 95.875164
v 64.360744 -64.001702 95.875164
v 64.375015 -64.006025 95.875164
v 64.388168 -64.013051 95.875164
v 64.388168 -64.013051 95.804664
v 64.375015 -64.006025 95.804664
v 64.360744 -64.001702 95.804664
v 64.345904 -64.000250 95.804664
v 64.331065 -64.001723 95.804664
v 64.316799 -64.006065 95.804664
v 64.303657 -64.013109 95.804664
v 64.362926 -64.059279 95.804664
v 64.362926 -64.059279 95.875164
v 63.831762 -64.391828 95.875164
v 64.332598 -64.056310 95.875164
v 64.340103 -64.052974 95.875164
v 64.348294 -64.052364 95.875164
v 64.356210 -64.054551 95.875164
v 63.747250 -64.391886 95.875164
v 63.760403 -64.398912 95.875164
v 63.774674 -64.403234 95.875164
v 63.789515 -64.404687 95.875164
v 63.804353 -64.403214 95.875164
v 63.818619 -64.398872 95.875164
v 63.747250 -64.391886 95.804664
v 63.760403 -64.398912 95.804664
v 63.774674 -64.403234 95.804664
v 63.789515 -64.404687 95.804664
v 63.804353 -64.403214 95.804664
v 63.818619 -64.398872 95.804664
v 63.831762 -64.391828 95.804664
v 64.356210 -64.054551 95.804664
v 64.348294 -64.052364 95.804664
v 64.340103 -64.052974 95.804664
v 64.332598 -64.056310 95.804664
vt 0.432500 0.070500 0.000000
vt 0.000000 0.070500 0.000000
vt 0.432500 -0.000000 0.000000
vt 0.000000 0.000000 0.000000
vt -0.157000 1.101750 0.000000
vt -0.105000 1.101750 0.000000
vt -0.157000 1.172250 0.000000
vt -0.105000 1.172250 0.000000
vt 0.000000 0.000000 0.000000
vt -0.070500 -0.000000 0.000000
vt 0.000000 -0.432500 0.000000
vt -0.070500 -0.432500 0.000000
vt 0.000000 0.000000 0.000000
vt -0.070500 -0.000000 0.000000
vt 0.000000 -0.100000 0.000000
vt -0.070500 -0.100000 0.000000
vt 0.162250 -0.075398 0.000000
vt 0.091750 -0.075398 0.000000
vt 0.162250 -0.083652 0.000000
vt 0.091750 -0.083652 0.000000
vt 0.162250 -0.091906 0.000000
vt 0.091750 -0.091906 0.000000
vt 0.162250 -0.100160 0.000000
vt 0.091750 -0.100160 0.000000
vt 0.162250 -0.108414 0.000000
vt 0.091750 -0.108414 0.000000
vt 0.105000 1.101750 0.000000
vt 0.157000 1.101750 0.000000
vt 0.105000 1.172250 0.000000
vt 0.157000 1.172250 0.000000
vt 0.162250 -0.134212 0.000000
vt 0.091750 -0.134212 0.000000
vt 0.162250 -0.149148 0.000000
vt 0.091750 -0.149148 0.000000
vt 0.162250 -0.164083 0.000000
vt 0.091750 -0.164083 0.000000
vt 0.162250 -0.179019 0.000000
vt 0.091750 -0.179019 0.000000
vt 0.162250 -0.193954 0.000000
vt 0.091750 -0.193954 0.000000
vt 0.162250 -0.208890 0.000000
vt 0.091750 -0.208890 0.000000
vt 0.162250 -0.223825 0.000000
vt 0.091750 -0.223825 0.000000
vt 0.162250 -0.238761 0.000000
vt 0.091750 -0.238761 0.000000
vt -0.602834 -0.000000 0.000000
vt 0.000000 0.000000 0.000000
vt -0.602834 0.070500 0.000000
vt -0.000000 0.070500 0.000000
vt 0.100000 0.070500 0.000000
vt 0.000000 0.070500 0.000000
vt 0.100000 -0.000000 0.000000
vt 0.000000 0.000000 0.000000
vt 0.615749 -0.070198 0.000000
vt 0.601475 -0.065885 0.000000
vt 0.591391 -0.116898 0.000000
vt 0.010084 0.051013 0.000000
vt 0.000000 0.000000 0.000000
vt -0.014274 0.004313 0.000000
vt 0.002418 0.053961 0.000000
vt -0.027432 0.011330 0.000000
vt -0.003806 0.059321 0.000000
vt -0.038966 0.020780 0.000000
vt -0.048433 0.032302 0.000000
vt -0.007857 0.066465 0.000000
vt -0.055467 0.045449 0.000000
vt -0.059800 0.059718 0.000000
vt -0.009263 0.074557 0.000000
vt -0.061263 0.074557 0.000000
vt -0.061263 0.174557 0.000000
vt -0.009263 0.174557 0.000000
vt 0.599057 -0.119846 0.000000
vt 0.628907 -0.077215 0.000000
vt 0.605281 -0.125206 0.000000
vt 0.640441 -0.086666 0.000000
vt 0.649907 -0.098187 0.000000
vt 0.609332 -0.132350 0.000000
vt 0.656942 -0.111335 0.000000
vt 0.661275 -0.125603 0.000000
vt 0.610737 -0.140443 0.000000
vt 0.662737 -0.140443 0.000000
vt 0.662737 -0.572943 0.000000
vt 0.610737 -0.572943 0.000000
vt -0.091750 -0.238761 0.000000
vt -0.162250 -0.238761 0.000000
vt -0.091750 -0.253697 0.000000
vt -0.162250 -0.253697 0.000000
vt -0.091750 -0.268632 0.000000
vt -0.162250 -0.268632 0.000000
vt -0.091750 -0.283568 0.000000
vt -0.162250 -0.283568 0.000000
vt -0.091750 -0.298503 0.000000
vt -0.162250 -0.298503 0.000000
vt -0.091750 -0.313439 0.000000
vt -0.162250 -0.313439 0.000000
vt -0.091750 -0.328375 0.000000
vt -0.162250 -0.328375 0.000000
vt -0.091750 -0.343310 0.000000
vt -0.162250 -0.343310 0.000000
vt 0.000000 0.000000 0.000000
vt 0.051013 0.010084 0.000000
vt -0.116898 0.591391 0.000000
vt -0.065885 0.601475 0.000000
vt -0.070198 0.615749 0.000000
vt 0.004313 -0.014274 0.000000
vt 0.053961 0.002418 0.000000
vt 0.011330 -0.027432 0.000000
vt 0.059321 -0.003806 0.000000
vt 0.020780 -0.038966 0.000000
vt 0.032302 -0.048433 0.000000
vt 0.066465 -0.007857 0.000000
vt 0.045449 -0.055467 0.000000
vt 0.059718 -0.059800 0.000000
vt 0.074557 -0.009263 0.000000
vt 0.074557 -0.061263 0.000000
vt 0.174557 -0.061263 0.000000
vt 0.174557 -0.009263 0.000000
vt -0.119846 0.599057 0.000000
vt -0.077215 0.628907 0.000000
vt -0.125206 0.605281 0.000000
vt -0.086666 0.640441 0.000000
vt -0.098187 0.649907 0.000000
vt -0.132350 0.609332 0.000000
vt -0.111335 0.656942 0.000000
vt -0.125603 0.661275 0.000000
vt -0.140443 0.610737 0.000000
vt -0.140443 0.662737 0.000000
vt -0.572943 0.610737 0.000000
vt -0.572943 0.662737 0.000000
vt -0.091750 -0.042383 0.000000
vt -0.162250 -0.042383 0.000000
vt -0.091750 -0.050637 0.000000
vt -0.162250 -0.050637 0.000000
vt -0.091750 -0.058890 0.000000
vt -0.162250 -0.058890 0.000000
vt -0.091750 -0.067144 0.000000
vt -0.162250 -0.067144 0.000000
vt -0.091750 -0.075398 0.000000
vt -0.162250 -0.075398 0.000000
vt 0.070500 -0.000000 0.000000
vt 0.000000 0.000000 0.000000
vt 0.070500 -0.602834 0.000000
vt -0.000000 -0.602834 0.000000
vn -0.707107 -0.707107 0.000000
vn -0.707107 -0.707107 0.000000
vn -0.707107 -0.707107 0.000000
vn -0.707107 -0.707107 0.000000
vn -0.707107 0.707107 -0.000000
vn -0.707107 0.707107 -0.000000
vn -0.707107 0.707107 -0.000000
vn -0.707107 0.707107 -0.000000
vn 0.707107 0.707107 -0.000000
vn 0.707107 0.707107 -0.000000
vn 0.707107 0.707107 -0.000000
vn 0.707107 0.707107 -0.000000
vn 0.707107 0.707107 -0.000000
vn 0.707107 0.707107 -0.000000
vn 0.707107 0.707107 -0.000000
vn 0.707107 0.707107 -0.000000
vn 0.427284 0.904117 -0.000000
vn 0.427284 0.904117 -0.000000
vn 0.097421 0.995243 -0.000000
vn 0.097421 0.995243 -0.000000
vn -0.243852 0.969812 -0.000000
vn -0.243852 0.969812 -0.000000
vn -0.556567 0.830803 -0.000000
vn -0.556567 0.830803 -0.000000
vn 0.707107 -0.707107 0.000000
vn 0.707107 -0.707107 0.000000
vn 0.707107 -0.707107 0.000000
vn 0.707107 -0.707107 0.000000
vn -0.556567 0.830803 -0.000000
vn -0.556567 0.830803 -0.000000
vn -0.383633 0.923486 -0.000000
vn -0.383633 0.923486 -0.000000
vn -0.195930 0.980618 -0.000000
vn -0.195930 0.980618 -0.000000
vn -0.000685 1.000000 -0.000000
vn -0.000685 1.000000 -0.000000
vn 0.194586 0.980885 -0.000000
vn 0.194586 0.980885 -0.000000
vn 0.382367 0.924011 -0.000000
vn 0.382367 0.924011 -0.000000
vn 0.555428 0.831565 -0.000000
vn 0.555428 0.831565 -0.000000
vn -0.556567 0.830803 -0.000000
vn -0.556567 0.830803 -0.000000
vn -0.707107 -0.707107 0.000000
vn -0.707107 -0.707107 0.000000
vn -0.707107 -0.707107 0.000000
vn -0.707107 -0.707107 0.000000
vn -0.000000 0.000000 1.000000
vn -0.000000 0.000000 1.000000
vn -0.000000 0.000000 1.000000
vn -0.000000 0.000000 1.000000
vn -0.000000 0.000000 1.000000
vn -0.000000 0.000000 1.000000
vn -0.000000 0.000000 1.000000
vn -0.000000 0.000000 1.000000
vn -0.000000 0.000000 1.000000
vn -0.000000 0.000000 1.000000
vn -0.000000 0.000000 1.000000
vn -0.000000 0.000000 1.000000
vn -0.000000 0.000000 1.000000
vn -0.000000 0.000000 1.000000
vn -0.000000 0.000000 1.000000
vn -0.000000 0.000000 1.000000
vn -0.000000 0.000000 1.000000
vn -0.000000 0.000000 1.000000
vn -0.000000 0.000000 1.000000
vn -0.000000 0.000000 1.000000
vn -0.000000 0.000000 1.000000
vn -0.000000 0.000000 1.000000
vn -0.000000 0.000000 1.000000
vn -0.000000 0.000000 1.000000
vn -0.000000 0.000000 1.000000
vn -0.000000 0.000000 1.000000
vn -0.000000 0.000000 1.000000
vn -0.000000 0.000000 1.000000
vn -0.000000 0.000000 1.000000
vn -0.000000 0.000000 1.000000
vn -0.555428 -0.831565 0.000000
vn -0.555428 -0.831565 0.000000
vn -0.382367 -0.924011 0.000000
vn -0.382367 -0.924011 0.000000
vn -0.194586 -0.980885 0.000000
vn -0.194586 -0.980885 0.000000
vn 0.000685 -1.000000 0.000000
vn 0.000685 -1.000000 0.000000
vn 0.195930 -0.980618 0.000000
vn 0.195930 -0.980618 0.000000
vn 0.383633 -0.923486 0.000000
vn 0.383633 -0.923486 0.000000
vn 0.556567 -0.830803 0.000000
vn 0.556567 -0.830803 0.000000
vn 0.000000 -0.000000 -1.000000
vn 0.000000 -0.000000 -1.000000
vn 0.000000 -0.000000 -1.000000
vn 0.000000 -0.000000 -1.000000
vn 0.000000 -0.000000 -1.000000
vn 0.000000 -0.000000 -1.000000
vn 0.000000 -0.000000 -1.000000
vn 0.000000 -0.000000 -1.000000
vn 0.000000 -0.000000 -1.000000
vn 0.000000 -0.000000 -1.000000
vn 0.000000 -0.000000 -1.000000
vn 0.000000 -0.000000 -1.000000
vn 0.000000 -0.000000 -1.000000
vn 0.000000 -0.000000 -1.000000
vn 0.000000 -0.000000 -1.000000
vn 0.000000 -0.000000 -1.000000
vn 0.000000 -0.000000 -1.000000
vn 0.000000 -0.000000 -1.000000
vn 0.000000 -0.000000 -1.000000
vn 0.000000 -0.000000 -1.000000
vn 0.000000 -0.000000 -1.000000
vn 0.000000 -0.000000 -1.000000
vn 0.000000 -0.000000 -1.000000
vn 0.000000 -0.000000 -1.000000
vn 0.000000 -0.000000 -1.000000
vn 0.000000 -0.000000 -1.000000
vn 0.000000 -0.000000 -1.000000
vn 0.000000 -0.000000 -1.000000
vn 0.000000 -0.000000 -1.000000
vn 0.000000 -0.000000 -1.000000
vn 0.556567 -0.830803 0.000000
vn 0.556567 -0.830803 0.000000
vn 0.243852 -0.969812 0.000000
vn 0.243852 -0.969812 0.000000
vn -0.097421 -0.995243 0.000000
vn -0.097421 -0.995243 0.000000
vn -0.427284 -0.904117 0.000000
vn -0.427284 -0.904117 0.000000
usemtl Opaque(202,209,238)
f 1/1/1 2/2/2 4/3/3
f 4/3/3 2/2/2 3/4/4
f 4/5/5 5/6/6 1/7/7
f 1/7/7 5/6/6 6/8/8
f 7/9/9 8/10/10 5/11/11
f 5/11/11 8/10/10 6/12/12
f 10/13/13 11/14/14 9/15/15
f 9/15/15 11/14/14 12/16/16
f 8/17/10 7/18/9 20/19/17
f 20/19/17 7/18/9 13/20/18
f 20/19/17 13/20/18 19/21/19
f 19/21/19 13/20/18 14/22/20
f 19/21/19 14/22/20 18/23/21
f 18/23/21 14/22/20 15/24/22
f 18/23/21 15/24/22 17/25/23
f 17/25/23 15/24/22 16/26/24
f 10/27/25 21/28/26 11/29/27
f 11/29/27 21/28/26 22/30/28
f 36/31/29 23/32/30 35/33/31
f 35/33/31 23/32/30 24/34/32
f 35/33/31 24/34/32 34/35/33
f 34/35/33 24/34/32 25/36/34
f 34/35/33 25/36/34 33/37/35
f 33/37/35 25/36/34 26/38/36
f 33/37/35 26/38/36 32/39/37
f 32/39/37 26/38/36 27/40/38
f 32/39/37 27/40/38 31/41/39
f 31/41/39 27/40/38 28/42/40
f 31/41/39 28/42/40 30/43/41
f 30/43/41 28/42/40 29/44/42
f 30/43/41 29/44/42 12/45/16
f 12/45/16 29/44/42 9/46/15
f 16/47/43 23/48/30 17/49/44
f 17/49/44 23/48/30 36/50/29
f 37/51/45 22/52/46 38/53/47
f 38/53/47 22/52/46 21/54/48
f 49/55/49 39/56/50 16/57/51
f 16/57/51 39/56/50 40/58/52
f 16/57/51 40/58/52 23/59/53
f 23/59/53 40/58/52 24/60/54
f 24/60/54 40/58/52 41/61/55
f 24/60/54 41/61/55 25/62/56
f 25/62/56 41/61/55 42/63/57
f 25/62/56 42/63/57 26/64/58
f 26/64/58 42/63/57 27/65/59
f 27/65/59 42/63/57 43/66/60
f 27/65/59 43/66/60 28/67/61
f 28/67/61 43/66/60 29/68/62
f 29/68/62 43/66/60 38/69/63
f 29/68/62 38/69/63 9/70/64
f 9/70/64 38/69/63 10/71/65
f 10/71/65 38/69/63 21/72/66
f 16/57/51 15/73/67 49/55/49
f 49/55/49 15/73/67 48/74/68
f 48/74/68 15/73/67 14/75/69
f 48/74/68 14/75/69 47/76/70
f 47/76/70 14/75/69 46/77/71
f 46/77/71 14/75/69 13/78/72
f 46/77/71 13/78/72 45/79/73
f 45/79/73 13/78/72 44/80/74
f 44/80/74 13/78/72 7/81/75
f 44/80/74 7/81/75 3/82/76
f 3/82/76 7/81/75 4/83/77
f 4/83/77 7/81/75 5/84/78
f 3/85/4 2/86/2 44/87/79
f 44/87/79 2/86/2 50/88/80
f 44/87/79 50/88/80 45/89/81
f 45/89/81 50/88/80 51/90/82
f 45/89/81 51/90/82 46/91/83
f 46/91/83 51/90/82 52/92/84
f 46/91/83 52/92/84 47/93/85
f 47/93/85 52/92/84 53/94/86
f 47/93/85 53/94/86 48/95/87
f 48/95/87 53/94/86 54/96/88
f 48/95/87 54/96/88 49/97/89
f 49/97/89 54/96/88 55/98/90
f 49/97/89 55/98/90 39/99/91
f 39/99/91 55/98/90 56/100/92
f 36/101/93 60/102/94 17/103/95
f 17/103/95 60/102/94 56/104/96
f 17/103/95 56/104/96 55/105/97
f 36/101/93 35/106/98 60/102/94
f 60/102/94 35/106/98 59/107/99
f 59/107/99 35/106/98 34/108/100
f 59/107/99 34/108/100 58/109/101
f 58/109/101 34/108/100 33/110/102
f 58/109/101 33/110/102 32/111/103
f 58/109/101 32/111/103 57/112/104
f 57/112/104 32/111/103 31/113/105
f 57/112/104 31/113/105 30/114/106
f 57/112/104 30/114/106 37/115/107
f 37/115/107 30/114/106 12/116/108
f 37/115/107 12/116/108 11/117/109
f 11/117/109 22/118/110 37/115/107
f 17/103/95 55/105/97 18/119/111
f 18/119/111 55/105/97 54/120/112
f 18/119/111 54/120/112 19/121/113
f 19/121/113 54/120/112 53/122/114
f 19/121/113 53/122/114 52/123/115
f 19/121/113 52/123/115 20/124/116
f 20/124/116 52/123/115 51/125/117
f 20/124/116 51/125/117 50/126/118
f 20/124/116 50/126/118 8/127/119
f 8/127/119 50/126/118 2/128/120
f 8/127/119 2/128/120 6/129/121
f 6/129/121 2/128/120 1/130/122
f 40/131/123 60/132/124 41/133/125
f 41/133/125 60/132/124 59/134/126
f 41/133/125 59/134/126 42/135/127
f 42/135/127 59/134/126 58/136/128
f 42/135/127 58/136/128 43/137/129
f 43/137/129 58/136/128 57/138/130
f 43/137/129 57/138/130 38/139/47
f 38/139/47 57/138/130 37/140/45
f 60/141/124 40/142/123 56/143/92
f 56/143/92 40/142/123 39/144/91
# 60 vertices
# 144 texture params
# 130 normals
# 116 facets

# 1 groups
