# WaveFront *.obj file (generated by Autodesk ATF)

mtllib body99_visual.mtl

g Body99

v 63.252206 -64.515998 94.116802
v 63.249114 -64.519090 94.116688
v 63.247571 -64.520632 94.116522
v 63.246036 -64.522168 94.116262
v 63.244510 -64.523694 94.115903
v 63.243003 -64.525201 94.115411
v 63.241532 -64.526672 94.114735
v 63.240113 -64.528091 94.113866
v 63.238761 -64.529443 94.112803
v 63.237502 -64.530702 94.111534
v 63.236916 -64.531288 94.110820
v 63.236371 -64.531833 94.110044
v 63.235869 -64.532335 94.109212
v 63.235412 -64.532792 94.108330
v 63.234638 -64.533566 94.106437
v 63.234327 -64.533877 94.105436
v 63.234078 -64.534126 94.104400
v 63.233881 -64.534322 94.103342
v 63.233741 -64.534463 94.102266
v 63.233660 -64.534544 94.101179
v 63.233636 -64.534568 94.100085
v 63.233660 -64.534544 94.098984
v 63.233745 -64.534459 94.097889
v 63.233884 -64.534320 94.096804
v 63.234079 -64.534125 94.095738
v 63.234639 -64.533565 94.093683
v 63.234999 -64.533205 94.092706
v 63.235409 -64.532795 94.091768
v 63.235861 -64.532343 94.090871
v 63.236360 -64.531844 94.090025
v 63.237475 -64.530728 94.088488
v 63.238726 -64.529478 94.087174
v 63.240074 -64.528130 94.086069
v 63.241488 -64.526716 94.085144
v 63.242955 -64.525249 94.084405
v 63.244464 -64.523740 94.083854
v 63.245994 -64.522210 94.083438
v 63.247539 -64.520665 94.083156
v 63.249091 -64.519112 94.082964
v 63.252206 -64.515998 94.082828
v 63.255324 -64.512880 94.082963
v 63.256878 -64.511326 94.083153
v 63.258424 -64.509780 94.083444
v 63.259957 -64.508247 94.083853
v 63.261465 -64.506739 94.084415
v 63.262935 -64.505269 94.085152
v 63.264352 -64.503852 94.086074
v 63.265701 -64.502503 94.087180
v 63.266955 -64.501249 94.088491
v 63.268080 -64.500124 94.090018
v 63.269037 -64.499167 94.091758
v 63.269448 -64.498756 94.092696
v 63.269807 -64.498397 94.093675
v 63.270114 -64.498090 94.094689
v 63.270365 -64.497839 94.095733
v 63.270562 -64.497642 94.096800
v 63.270701 -64.497503 94.097886
v 63.270804 -64.497399 94.100085
v 63.270780 -64.497424 94.101180
v 63.270699 -64.497505 94.102269
v 63.270559 -64.497645 94.103346
v 63.270358 -64.497846 94.104404
v 63.270105 -64.498099 94.105439
v 63.269794 -64.498410 94.106442
v 63.269017 -64.499187 94.108336
v 63.268059 -64.500145 94.110056
v 63.267515 -64.500689 94.110835
v 63.266931 -64.501273 94.111554
v 63.265672 -64.502532 94.112829
v 63.264321 -64.503883 94.113899
v 63.262898 -64.505306 94.114762
v 63.261423 -64.506781 94.115428
v 63.259915 -64.508289 94.115928
v 63.258386 -64.509818 94.116277
v 63.256847 -64.511357 94.116524
v 63.255302 -64.512901 94.116689
v 63.237262 -64.530942 94.099935
v 63.237369 -64.530835 94.101645
v 63.237683 -64.530521 94.103303
v 63.238181 -64.530023 94.104868
v 63.238838 -64.529366 94.106311
v 63.239633 -64.528571 94.107606
v 63.240557 -64.527646 94.108717
v 63.241578 -64.526626 94.109644
v 63.242669 -64.525535 94.110395
v 63.243805 -64.524399 94.110995
v 63.244978 -64.523226 94.111435
v 63.246171 -64.522033 94.111750
v 63.247374 -64.520830 94.111983
v 63.249794 -64.518410 94.112239
v 63.252220 -64.515984 94.112315
v 63.254647 -64.513557 94.112240
v 63.257067 -64.511137 94.111975
v 63.258271 -64.509933 94.111754
v 63.259463 -64.508741 94.111429
v 63.260636 -64.507568 94.110992
v 63.261774 -64.506430 94.110393
v 63.262864 -64.505340 94.109639
v 63.263885 -64.504319 94.108712
v 63.264814 -64.503390 94.107608
v 63.265609 -64.502595 94.106314
v 63.266263 -64.501941 94.104867
v 63.266769 -64.501435 94.103307
v 63.266949 -64.501255 94.102486
v 63.267073 -64.501131 94.101645
v 63.267178 -64.501026 94.099935
v 63.267071 -64.501133 94.098226
v 63.266944 -64.501260 94.097387
v 63.266760 -64.501444 94.096568
v 63.266247 -64.501957 94.095012
v 63.265590 -64.502614 94.093571
v 63.264784 -64.503420 94.092290
v 63.263851 -64.504353 94.091196
v 63.262822 -64.505382 94.090287
v 63.261732 -64.506472 94.089533
v 63.260600 -64.507604 94.088916
v 63.259439 -64.508765 94.088420
v 63.258256 -64.509948 94.088041
v 63.257060 -64.511144 94.087755
v 63.254646 -64.513558 94.087409
v 63.252220 -64.515984 94.087315
v 63.249963 -64.518240 94.087411
v 63.247716 -64.520488 94.087722
v 63.245496 -64.522708 94.088301
v 63.244405 -64.523798 94.088713
v 63.243332 -64.524872 94.089208
v 63.242129 -64.526075 94.089899
v 63.240989 -64.527215 94.090777
v 63.239945 -64.528259 94.091869
v 63.239469 -64.528735 94.092494
v 63.239036 -64.529168 94.093178
v 63.238291 -64.529913 94.094682
v 63.237732 -64.530472 94.096339
v 63.237525 -64.530679 94.097212
v 63.237375 -64.530829 94.098106
v 63.232929 -64.533861 94.100085
v 63.232953 -64.533836 94.101179
v 63.233034 -64.533756 94.102266
v 63.233174 -64.533615 94.103342
v 63.233371 -64.533418 94.104400
v 63.233620 -64.533170 94.105436
v 63.233931 -64.532859 94.106437
v 63.234705 -64.532085 94.108330
v 63.235162 -64.531628 94.109212
v 63.235664 -64.531126 94.110044
v 63.236209 -64.530581 94.110820
v 63.236795 -64.529995 94.111534
v 63.238054 -64.528736 94.112803
v 63.239406 -64.527384 94.113866
v 63.240825 -64.525965 94.114735
v 63.242296 -64.524494 94.115411
v 63.243803 -64.522987 94.115903
v 63.245328 -64.521461 94.116262
v 63.246864 -64.519925 94.116522
v 63.248407 -64.518383 94.116688
v 63.251499 -64.515291 94.116802
v 63.254595 -64.512194 94.116689
v 63.256140 -64.510650 94.116524
v 63.257679 -64.509111 94.116277
v 63.259208 -64.507582 94.115928
v 63.260716 -64.506074 94.115428
v 63.262191 -64.504599 94.114762
v 63.263614 -64.503175 94.113899
v 63.264965 -64.501825 94.112829
v 63.266224 -64.500566 94.111554
v 63.266808 -64.499981 94.110835
v 63.267352 -64.499438 94.110056
v 63.268310 -64.498479 94.108336
v 63.269086 -64.497703 94.106442
v 63.269398 -64.497392 94.105439
v 63.269651 -64.497139 94.104404
v 63.269852 -64.496938 94.103346
v 63.269992 -64.496798 94.102269
v 63.270073 -64.496717 94.101180
v 63.270097 -64.496692 94.100085
v 63.269994 -64.496796 94.097886
v 63.269855 -64.496934 94.096800
v 63.269658 -64.497132 94.095733
v 63.269407 -64.497383 94.094689
v 63.269100 -64.497690 94.093675
v 63.268741 -64.498049 94.092696
v 63.268330 -64.498460 94.091758
v 63.267372 -64.499417 94.090018
v 63.266248 -64.500542 94.088491
v 63.264994 -64.501795 94.087180
v 63.263645 -64.503145 94.086074
v 63.262228 -64.504561 94.085152
v 63.260758 -64.506032 94.084415
v 63.259250 -64.507540 94.083853
v 63.257717 -64.509072 94.083444
v 63.256171 -64.510619 94.083153
v 63.254617 -64.512173 94.082963
v 63.251499 -64.515291 94.082828
v 63.248384 -64.518405 94.082964
v 63.246832 -64.519958 94.083156
v 63.245287 -64.521503 94.083438
v 63.243757 -64.523033 94.083854
v 63.242248 -64.524542 94.084405
v 63.240780 -64.526009 94.085144
v 63.239366 -64.527423 94.086069
v 63.238019 -64.528771 94.087174
v 63.236768 -64.530021 94.088488
v 63.235653 -64.531137 94.090025
v 63.235154 -64.531636 94.090871
v 63.234702 -64.532088 94.091768
v 63.234292 -64.532497 94.092706
v 63.233932 -64.532858 94.093683
v 63.233372 -64.533418 94.095738
v 63.233177 -64.533613 94.096804
v 63.233038 -64.533751 94.097889
v 63.232953 -64.533837 94.098984
v 63.266471 -64.500318 94.099935
v 63.266366 -64.500424 94.101645
v 63.266242 -64.500548 94.102486
v 63.266062 -64.500728 94.103307
v 63.265556 -64.501234 94.104867
v 63.264902 -64.501888 94.106314
v 63.264106 -64.502683 94.107608
v 63.263178 -64.503612 94.108712
v 63.262157 -64.504633 94.109639
v 63.261066 -64.505723 94.110393
v 63.259929 -64.506860 94.110992
v 63.258756 -64.508034 94.111429
v 63.257564 -64.509226 94.111754
v 63.256360 -64.510430 94.111975
v 63.253940 -64.512850 94.112240
v 63.251513 -64.515277 94.112315
v 63.249087 -64.517703 94.112239
v 63.246666 -64.520123 94.111983
v 63.245464 -64.521326 94.111750
v 63.244271 -64.522518 94.111435
v 63.243098 -64.523691 94.110995
v 63.241962 -64.524828 94.110395
v 63.240871 -64.525919 94.109644
v 63.239850 -64.526939 94.108717
v 63.238926 -64.527864 94.107606
v 63.238130 -64.528659 94.106311
v 63.237474 -64.529316 94.104868
v 63.236975 -64.529814 94.103303
v 63.236662 -64.530128 94.101645
v 63.236555 -64.530235 94.099935
v 63.236668 -64.530122 94.098106
v 63.236818 -64.529972 94.097212
v 63.237025 -64.529765 94.096339
v 63.237584 -64.529206 94.094682
v 63.238329 -64.528461 94.093178
v 63.238762 -64.528028 94.092494
v 63.239238 -64.527552 94.091869
v 63.240282 -64.526508 94.090777
v 63.241422 -64.525368 94.089899
v 63.242625 -64.524165 94.089208
v 63.243698 -64.523091 94.088713
v 63.244789 -64.522001 94.088301
v 63.247009 -64.519781 94.087722
v 63.249256 -64.517533 94.087411
v 63.251513 -64.515277 94.087315
v 63.253939 -64.512851 94.087409
v 63.256352 -64.510437 94.087755
v 63.257549 -64.509241 94.088041
v 63.258732 -64.508058 94.088420
v 63.259893 -64.506896 94.088916
v 63.261025 -64.505765 94.089533
v 63.262115 -64.504675 94.090287
v 63.263144 -64.503646 94.091196
v 63.264077 -64.502713 94.092290
v 63.264883 -64.501907 94.093571
v 63.265540 -64.501249 94.095012
v 63.266052 -64.500737 94.096568
v 63.266237 -64.500553 94.097387
v 63.266364 -64.500426 94.098226
vt -0.012730 -0.002822 0.000000
vt -0.013691 0.001627 0.000000
vt -0.017103 -0.002936 0.000000
vt -0.017123 0.001551 0.000000
vt -0.020555 0.001626 0.000000
vt -0.010548 -0.002656 0.000000
vt -0.010268 0.001884 0.000000
vt -0.008376 -0.002396 0.000000
vt -0.008568 0.002116 0.000000
vt -0.006218 -0.002037 0.000000
vt -0.006881 0.002431 0.000000
vt -0.004087 -0.001545 0.000000
vt -0.005222 0.002871 0.000000
vt -0.002007 -0.000868 0.000000
vt 0.000000 -0.000000 0.000000
vt -0.003615 0.003471 0.000000
vt 0.001911 0.001063 0.000000
vt -0.002072 0.004222 0.000000
vt 0.003692 0.002332 0.000000
vt -0.000629 0.005150 0.000000
vt 0.004521 0.003046 0.000000
vt 0.005292 0.003822 0.000000
vt 0.000679 0.006260 0.000000
vt 0.006002 0.004654 0.000000
vt 0.006648 0.005536 0.000000
vt 0.001803 0.007555 0.000000
vt 0.007743 0.007429 0.000000
vt 0.002732 0.008999 0.000000
vt 0.008182 0.008430 0.000000
vt 0.003437 0.010563 0.000000
vt 0.008534 0.009466 0.000000
vt 0.008812 0.010524 0.000000
vt 0.003880 0.012222 0.000000
vt 0.009011 0.011600 0.000000
vt 0.009125 0.012687 0.000000
vt 0.004031 0.013931 0.000000
vt 0.009159 0.013781 0.000000
vt 0.009125 0.014882 0.000000
vt 0.003871 0.015760 0.000000
vt 0.009005 0.015977 0.000000
vt 0.008809 0.017062 0.000000
vt 0.003660 0.016654 0.000000
vt 0.008533 0.018128 0.000000
vt 0.003367 0.017527 0.000000
vt 0.007741 0.020184 0.000000
vt 0.002576 0.019184 0.000000
vt 0.007232 0.021160 0.000000
vt 0.001523 0.020688 0.000000
vt 0.006652 0.022098 0.000000
vt 0.006013 0.022995 0.000000
vt 0.000910 0.021372 0.000000
vt 0.005307 0.023841 0.000000
vt 0.000237 0.021997 0.000000
vt 0.003730 0.025379 0.000000
vt -0.001239 0.023089 0.000000
vt 0.001961 0.026692 0.000000
vt -0.002851 0.023967 0.000000
vt 0.000055 0.027797 0.000000
vt -0.004553 0.024658 0.000000
vt -0.001944 0.028722 0.000000
vt -0.006071 0.025153 0.000000
vt -0.004020 0.029461 0.000000
vt -0.007613 0.025565 0.000000
vt -0.006153 0.030012 0.000000
vt -0.010753 0.026145 0.000000
vt -0.008317 0.030428 0.000000
vt -0.010503 0.030711 0.000000
vt -0.013931 0.026455 0.000000
vt -0.012698 0.030902 0.000000
vt -0.017103 0.031038 0.000000
vt -0.021512 0.030903 0.000000
vt -0.020553 0.026457 0.000000
vt -0.017123 0.026551 0.000000
vt -0.023710 0.030713 0.000000
vt -0.023966 0.026112 0.000000
vt -0.025897 0.030422 0.000000
vt -0.025658 0.025825 0.000000
vt -0.028064 0.030013 0.000000
vt -0.027331 0.025446 0.000000
vt -0.030197 0.029451 0.000000
vt -0.028974 0.024950 0.000000
vt -0.032276 0.028714 0.000000
vt -0.034280 0.027792 0.000000
vt -0.030574 0.024333 0.000000
vt -0.036188 0.026686 0.000000
vt -0.032115 0.023579 0.000000
vt -0.037960 0.025375 0.000000
vt -0.033570 0.022671 0.000000
vt -0.039551 0.023848 0.000000
vt -0.034890 0.021576 0.000000
vt -0.040905 0.022108 0.000000
vt -0.036030 0.020296 0.000000
vt -0.041486 0.021171 0.000000
vt -0.036960 0.018854 0.000000
vt -0.041994 0.020191 0.000000
vt -0.042428 0.019178 0.000000
vt -0.037684 0.017298 0.000000
vt -0.042783 0.018133 0.000000
vt -0.043062 0.017066 0.000000
vt -0.037945 0.016480 0.000000
vt -0.043259 0.015981 0.000000
vt -0.038124 0.015640 0.000000
vt -0.038276 0.013931 0.000000
vt -0.043405 0.013781 0.000000
vt -0.043370 0.012686 0.000000
vt -0.038127 0.012221 0.000000
vt -0.043256 0.011597 0.000000
vt -0.037952 0.011380 0.000000
vt -0.043057 0.010520 0.000000
vt -0.037698 0.010559 0.000000
vt -0.042773 0.009462 0.000000
vt -0.042415 0.008427 0.000000
vt -0.036982 0.008999 0.000000
vt -0.041975 0.007424 0.000000
vt -0.036057 0.007552 0.000000
vt -0.040877 0.005530 0.000000
vt -0.034932 0.006258 0.000000
vt -0.039522 0.003810 0.000000
vt -0.033619 0.005154 0.000000
vt -0.038753 0.003031 0.000000
vt -0.037927 0.002312 0.000000
vt -0.032175 0.004227 0.000000
vt -0.036146 0.001038 0.000000
vt -0.030633 0.003474 0.000000
vt -0.034236 -0.000033 0.000000
vt -0.029025 0.002875 0.000000
vt -0.032223 -0.000896 0.000000
vt -0.030137 -0.001562 0.000000
vt -0.027365 0.002437 0.000000
vt -0.028005 -0.002062 0.000000
vt -0.025680 0.002112 0.000000
vt -0.025842 -0.002411 0.000000
vt -0.023977 0.001891 0.000000
vt -0.023666 -0.002658 0.000000
vt -0.021482 -0.002823 0.000000
vt -0.009125 0.014882 0.000000
vt -0.009159 0.013781 0.000000
vt -0.004031 0.013931 0.000000
vt -0.009125 0.012687 0.000000
vt -0.003880 0.012222 0.000000
vt -0.009011 0.011600 0.000000
vt -0.008812 0.010524 0.000000
vt -0.003437 0.010563 0.000000
vt -0.008534 0.009466 0.000000
vt -0.008182 0.008430 0.000000
vt -0.002732 0.008999 0.000000
vt -0.007743 0.007429 0.000000
vt -0.001803 0.007555 0.000000
vt -0.006648 0.005536 0.000000
vt -0.000679 0.006260 0.000000
vt -0.006002 0.004654 0.000000
vt -0.005292 0.003822 0.000000
vt 0.000629 0.005150 0.000000
vt -0.004521 0.003046 0.000000
vt -0.003692 0.002332 0.000000
vt 0.002072 0.004222 0.000000
vt -0.001911 0.001063 0.000000
vt 0.003615 0.003471 0.000000
vt 0.000000 0.000000 0.000000
vt 0.005222 0.002871 0.000000
vt 0.002007 -0.000868 0.000000
vt 0.004087 -0.001545 0.000000
vt 0.006881 0.002431 0.000000
vt 0.006218 -0.002037 0.000000
vt 0.008568 0.002116 0.000000
vt 0.008376 -0.002396 0.000000
vt 0.010268 0.001884 0.000000
vt 0.010548 -0.002656 0.000000
vt 0.013691 0.001627 0.000000
vt 0.012730 -0.002822 0.000000
vt 0.017103 -0.002936 0.000000
vt 0.021482 -0.002823 0.000000
vt 0.020555 0.001626 0.000000
vt 0.017123 0.001551 0.000000
vt 0.023666 -0.002658 0.000000
vt 0.023977 0.001891 0.000000
vt 0.025842 -0.002411 0.000000
vt 0.025680 0.002112 0.000000
vt 0.028005 -0.002062 0.000000
vt 0.027365 0.002437 0.000000
vt 0.030137 -0.001562 0.000000
vt 0.029025 0.002875 0.000000
vt 0.032223 -0.000896 0.000000
vt 0.034236 -0.000033 0.000000
vt 0.030633 0.003474 0.000000
vt 0.036146 0.001038 0.000000
vt 0.032175 0.004227 0.000000
vt 0.037927 0.002312 0.000000
vt 0.033619 0.005154 0.000000
vt 0.038753 0.003031 0.000000
vt 0.039522 0.003810 0.000000
vt 0.034932 0.006258 0.000000
vt 0.040877 0.005530 0.000000
vt 0.036057 0.007552 0.000000
vt 0.041975 0.007424 0.000000
vt 0.036982 0.008999 0.000000
vt 0.042415 0.008427 0.000000
vt 0.037698 0.010559 0.000000
vt 0.042773 0.009462 0.000000
vt 0.043057 0.010520 0.000000
vt 0.037952 0.011380 0.000000
vt 0.043256 0.011597 0.000000
vt 0.038127 0.012221 0.000000
vt 0.043370 0.012686 0.000000
vt 0.038276 0.013931 0.000000
vt 0.043405 0.013781 0.000000
vt 0.043259 0.015981 0.000000
vt 0.043062 0.017066 0.000000
vt 0.037945 0.016480 0.000000
vt 0.038124 0.015640 0.000000
vt 0.037684 0.017298 0.000000
vt 0.042783 0.018133 0.000000
vt 0.042428 0.019178 0.000000
vt 0.036960 0.018854 0.000000
vt 0.041994 0.020191 0.000000
vt 0.041486 0.021171 0.000000
vt 0.036030 0.020296 0.000000
vt 0.040905 0.022108 0.000000
vt 0.034890 0.021576 0.000000
vt 0.039551 0.023848 0.000000
vt 0.033570 0.022671 0.000000
vt 0.037960 0.025375 0.000000
vt 0.032115 0.023579 0.000000
vt 0.036188 0.026686 0.000000
vt 0.030574 0.024333 0.000000
vt 0.034280 0.027792 0.000000
vt 0.028974 0.024950 0.000000
vt 0.032276 0.028714 0.000000
vt 0.030197 0.029451 0.000000
vt 0.027331 0.025446 0.000000
vt 0.028064 0.030013 0.000000
vt 0.025658 0.025825 0.000000
vt 0.025897 0.030422 0.000000
vt 0.023966 0.026112 0.000000
vt 0.023710 0.030713 0.000000
vt 0.020553 0.026457 0.000000
vt 0.021512 0.030903 0.000000
vt 0.017103 0.031038 0.000000
vt 0.012698 0.030902 0.000000
vt 0.013931 0.026455 0.000000
vt 0.017123 0.026551 0.000000
vt 0.010503 0.030711 0.000000
vt 0.010753 0.026145 0.000000
vt 0.008317 0.030428 0.000000
vt 0.006153 0.030012 0.000000
vt 0.007613 0.025565 0.000000
vt 0.004020 0.029461 0.000000
vt 0.006071 0.025153 0.000000
vt 0.001944 0.028722 0.000000
vt 0.004553 0.024658 0.000000
vt -0.000055 0.027797 0.000000
vt 0.002851 0.023967 0.000000
vt -0.001961 0.026692 0.000000
vt 0.001239 0.023089 0.000000
vt -0.003730 0.025379 0.000000
vt -0.000237 0.021997 0.000000
vt -0.005307 0.023841 0.000000
vt -0.000910 0.021372 0.000000
vt -0.006013 0.022995 0.000000
vt -0.001523 0.020688 0.000000
vt -0.006652 0.022098 0.000000
vt -0.007232 0.021160 0.000000
vt -0.002576 0.019184 0.000000
vt -0.007741 0.020184 0.000000
vt -0.003367 0.017527 0.000000
vt -0.008533 0.018128 0.000000
vt -0.003660 0.016654 0.000000
vt -0.008809 0.017062 0.000000
vt -0.003871 0.015760 0.000000
vt -0.009005 0.015977 0.000000
vt 0.035005 0.001000 0.000000
vt 0.030630 0.001000 0.000000
vt 0.035005 0.000000 0.000000
vt 0.030630 0.000000 0.000000
vt 0.028442 0.001000 0.000000
vt 0.028442 0.000000 0.000000
vt 0.026254 0.001000 0.000000
vt 0.026254 0.000000 0.000000
vt 0.024066 0.001000 0.000000
vt 0.024066 0.000000 0.000000
vt 0.021878 0.001000 0.000000
vt 0.021878 0.000000 0.000000
vt 0.019691 0.001000 0.000000
vt 0.019691 0.000000 0.000000
vt 0.017503 0.001000 0.000000
vt 0.017503 0.000000 0.000000
vt 0.015315 0.001000 0.000000
vt 0.015315 0.000000 0.000000
vt 0.013127 0.001000 0.000000
vt 0.013127 0.000000 0.000000
vt 0.012033 0.001000 0.000000
vt 0.012033 0.000000 0.000000
vt 0.010939 0.001000 0.000000
vt 0.010939 0.000000 0.000000
vt 0.009845 0.001000 0.000000
vt 0.009845 0.000000 0.000000
vt 0.008751 0.001000 0.000000
vt 0.008751 0.000000 0.000000
vt 0.006564 0.001000 0.000000
vt 0.006564 0.000000 0.000000
vt 0.005470 0.001000 0.000000
vt 0.005470 0.000000 0.000000
vt 0.004376 0.001000 0.000000
vt 0.004376 0.000000 0.000000
vt 0.003282 0.001000 0.000000
vt 0.003282 0.000000 0.000000
vt 0.002188 0.001000 0.000000
vt 0.002188 0.000000 0.000000
vt 0.001094 0.001000 0.000000
vt 0.001094 0.000000 0.000000
vt 0.000000 0.001000 0.000000
vt 0.000000 0.000000 0.000000
vt 0.035264 0.001000 0.000000
vt 0.034162 0.001000 0.000000
vt 0.035264 0.000000 0.000000
vt 0.034162 0.000000 0.000000
vt 0.033060 0.001000 0.000000
vt 0.033060 0.000000 0.000000
vt 0.031958 0.001000 0.000000
vt 0.031958 0.000000 0.000000
vt 0.030856 0.001000 0.000000
vt 0.030856 0.000000 0.000000
vt 0.028652 0.001000 0.000000
vt 0.028652 0.000000 0.000000
vt 0.027550 0.001000 0.000000
vt 0.027550 0.000000 0.000000
vt 0.026448 0.001000 0.000000
vt 0.026448 0.000000 0.000000
vt 0.025346 0.001000 0.000000
vt 0.025346 0.000000 0.000000
vt 0.024244 0.001000 0.000000
vt 0.024244 0.000000 0.000000
vt 0.022040 0.001000 0.000000
vt 0.022040 0.000000 0.000000
vt 0.019836 0.001000 0.000000
vt 0.019836 0.000000 0.000000
vt 0.017632 0.001000 0.000000
vt 0.017632 0.000000 0.000000
vt 0.015428 0.001000 0.000000
vt 0.015428 0.000000 0.000000
vt 0.013224 0.001000 0.000000
vt 0.013224 0.000000 0.000000
vt 0.011020 0.001000 0.000000
vt 0.011020 0.000000 0.000000
vt 0.008816 0.001000 0.000000
vt 0.008816 0.000000 0.000000
vt 0.006612 0.001000 0.000000
vt 0.006612 0.000000 0.000000
vt 0.004408 0.001000 0.000000
vt 0.004408 0.000000 0.000000
vt 0.000000 0.001000 0.000000
vt 0.000000 0.000000 0.000000
vt 0.035299 0.001000 0.000000
vt 0.030886 0.001000 0.000000
vt 0.035299 0.000000 0.000000
vt 0.030886 0.000000 0.000000
vt 0.028680 0.001000 0.000000
vt 0.028680 0.000000 0.000000
vt 0.026474 0.001000 0.000000
vt 0.026474 0.000000 0.000000
vt 0.024268 0.001000 0.000000
vt 0.024268 0.000000 0.000000
vt 0.022062 0.001000 0.000000
vt 0.022062 0.000000 0.000000
vt 0.019856 0.001000 0.000000
vt 0.019856 0.000000 0.000000
vt 0.017649 0.001000 0.000000
vt 0.017649 0.000000 0.000000
vt 0.015443 0.001000 0.000000
vt 0.015443 0.000000 0.000000
vt 0.013237 0.001000 0.000000
vt 0.013237 0.000000 0.000000
vt 0.011031 0.001000 0.000000
vt 0.011031 0.000000 0.000000
vt 0.008825 0.001000 0.000000
vt 0.008825 0.000000 0.000000
vt 0.007722 0.001000 0.000000
vt 0.007722 0.000000 0.000000
vt 0.006619 0.001000 0.000000
vt 0.006619 0.000000 0.000000
vt 0.005515 0.001000 0.000000
vt 0.005515 0.000000 0.000000
vt 0.004412 0.001000 0.000000
vt 0.004412 0.000000 0.000000
vt 0.003309 0.001000 0.000000
vt 0.003309 0.000000 0.000000
vt 0.002206 0.001000 0.000000
vt 0.002206 0.000000 0.000000
vt 0.000000 0.001000 0.000000
vt 0.000000 0.000000 0.000000
vt 0.035056 0.001000 0.000000
vt 0.033961 0.001000 0.000000
vt 0.035056 0.000000 0.000000
vt 0.033961 0.000000 0.000000
vt 0.032865 0.001000 0.000000
vt 0.032865 0.000000 0.000000
vt 0.031770 0.001000 0.000000
vt 0.031770 0.000000 0.000000
vt 0.030674 0.001000 0.000000
vt 0.030674 0.000000 0.000000
vt 0.029579 0.001000 0.000000
vt 0.029579 0.000000 0.000000
vt 0.028483 0.001000 0.000000
vt 0.028483 0.000000 0.000000
vt 0.026292 0.001000 0.000000
vt 0.026292 0.000000 0.000000
vt 0.024101 0.001000 0.000000
vt 0.024101 0.000000 0.000000
vt 0.023006 0.001000 0.000000
vt 0.023006 0.000000 0.000000
vt 0.021910 0.001000 0.000000
vt 0.021910 0.000000 0.000000
vt 0.019719 0.001000 0.000000
vt 0.019719 0.000000 0.000000
vt 0.017528 0.001000 0.000000
vt 0.017528 0.000000 0.000000
vt 0.015337 0.001000 0.000000
vt 0.015337 0.000000 0.000000
vt 0.013146 0.001000 0.000000
vt 0.013146 0.000000 0.000000
vt 0.010955 0.001000 0.000000
vt 0.010955 0.000000 0.000000
vt 0.008764 0.001000 0.000000
vt 0.008764 0.000000 0.000000
vt 0.006573 0.001000 0.000000
vt 0.006573 0.000000 0.000000
vt 0.004382 0.001000 0.000000
vt 0.004382 0.000000 0.000000
vt 0.000000 0.001000 0.000000
vt 0.000000 0.000000 0.000000
vt 0.027472 0.001000 0.000000
vt 0.024038 0.001000 0.000000
vt 0.027472 0.000000 0.000000
vt 0.024038 0.000000 0.000000
vt 0.020604 0.001000 0.000000
vt 0.020604 0.000000 0.000000
vt 0.018887 0.001000 0.000000
vt 0.018887 0.000000 0.000000
vt 0.017170 0.001000 0.000000
vt 0.017170 0.000000 0.000000
vt 0.015453 0.001000 0.000000
vt 0.015453 0.000000 0.000000
vt 0.013736 0.001000 0.000000
vt 0.013736 0.000000 0.000000
vt 0.012019 0.001000 0.000000
vt 0.012019 0.000000 0.000000
vt 0.010302 0.001000 0.000000
vt 0.010302 0.000000 0.000000
vt 0.008585 0.001000 0.000000
vt 0.008585 0.000000 0.000000
vt 0.006868 0.001000 0.000000
vt 0.006868 0.000000 0.000000
vt 0.005151 0.001000 0.000000
vt 0.005151 0.000000 0.000000
vt 0.003434 0.001000 0.000000
vt 0.003434 0.000000 0.000000
vt 0.002575 0.001000 0.000000
vt 0.002575 0.000000 0.000000
vt 0.001717 0.001000 0.000000
vt 0.001717 0.000000 0.000000
vt 0.000000 0.001000 0.000000
vt 0.000000 0.000000 0.000000
vt 0.027465 0.001000 0.000000
vt 0.025749 0.001000 0.000000
vt 0.027465 0.000000 0.000000
vt 0.025749 0.000000 0.000000
vt 0.024032 0.001000 0.000000
vt 0.024032 0.000000 0.000000
vt 0.022315 0.001000 0.000000
vt 0.022315 0.000000 0.000000
vt 0.020599 0.001000 0.000000
vt 0.020599 0.000000 0.000000
vt 0.018882 0.001000 0.000000
vt 0.018882 0.000000 0.000000
vt 0.017166 0.001000 0.000000
vt 0.017166 0.000000 0.000000
vt 0.015449 0.001000 0.000000
vt 0.015449 0.000000 0.000000
vt 0.013733 0.001000 0.000000
vt 0.013733 0.000000 0.000000
vt 0.012016 0.001000 0.000000
vt 0.012016 0.000000 0.000000
vt 0.010299 0.001000 0.000000
vt 0.010299 0.000000 0.000000
vt 0.008583 0.001000 0.000000
vt 0.008583 0.000000 0.000000
vt 0.006866 0.001000 0.000000
vt 0.006866 0.000000 0.000000
vt 0.003433 0.001000 0.000000
vt 0.003433 0.000000 0.000000
vt 0.000000 0.001000 0.000000
vt 0.000000 0.000000 0.000000
vt 0.014696 0.001000 0.000000
vt 0.012859 0.001000 0.000000
vt 0.014696 0.000000 0.000000
vt 0.012859 0.000000 0.000000
vt 0.011022 0.001000 0.000000
vt 0.011022 0.000000 0.000000
vt 0.009185 0.001000 0.000000
vt 0.009185 0.000000 0.000000
vt 0.008266 0.001000 0.000000
vt 0.008266 0.000000 0.000000
vt 0.007348 0.001000 0.000000
vt 0.007348 0.000000 0.000000
vt 0.005511 0.001000 0.000000
vt 0.005511 0.000000 0.000000
vt 0.003674 0.001000 0.000000
vt 0.003674 0.000000 0.000000
vt 0.002755 0.001000 0.000000
vt 0.002755 0.000000 0.000000
vt 0.001837 0.001000 0.000000
vt 0.001837 0.000000 0.000000
vt 0.000000 0.001000 0.000000
vt 0.000000 0.000000 0.000000
vt 0.012774 0.001000 0.000000
vt 0.009580 0.001000 0.000000
vt 0.012774 0.000000 0.000000
vt 0.009580 0.000000 0.000000
vt 0.006387 0.001000 0.000000
vt 0.006387 0.000000 0.000000
vt 0.003193 0.001000 0.000000
vt 0.003193 0.000000 0.000000
vt 0.001597 0.001000 0.000000
vt 0.001597 0.000000 0.000000
vt 0.000000 0.001000 0.000000
vt 0.000000 0.000000 0.000000
vt 0.027456 0.001000 0.000000
vt 0.025740 0.001000 0.000000
vt 0.027456 0.000000 0.000000
vt 0.025740 0.000000 0.000000
vt 0.024882 0.001000 0.000000
vt 0.024882 0.000000 0.000000
vt 0.024024 0.001000 0.000000
vt 0.024024 0.000000 0.000000
vt 0.022308 0.001000 0.000000
vt 0.022308 0.000000 0.000000
vt 0.020592 0.001000 0.000000
vt 0.020592 0.000000 0.000000
vt 0.018876 0.001000 0.000000
vt 0.018876 0.000000 0.000000
vt 0.017160 0.001000 0.000000
vt 0.017160 0.000000 0.000000
vt 0.015444 0.001000 0.000000
vt 0.015444 0.000000 0.000000
vt 0.013728 0.001000 0.000000
vt 0.013728 0.000000 0.000000
vt 0.012012 0.001000 0.000000
vt 0.012012 0.000000 0.000000
vt 0.010296 0.001000 0.000000
vt 0.010296 0.000000 0.000000
vt 0.008580 0.001000 0.000000
vt 0.008580 0.000000 0.000000
vt 0.006864 0.001000 0.000000
vt 0.006864 0.000000 0.000000
vt 0.003432 0.001000 0.000000
vt 0.003432 0.000000 0.000000
vt 0.000000 0.001000 0.000000
vt 0.000000 0.000000 0.000000
vn 0.707107 -0.707107 0.000000
vn 0.707107 -0.707107 0.000000
vn 0.707107 -0.707107 0.000000
vn 0.707107 -0.707107 0.000000
vn 0.707107 -0.707107 0.000000
vn 0.707107 -0.707107 0.000000
vn 0.707107 -0.707107 0.000000
vn 0.707107 -0.707107 0.000000
vn 0.707107 -0.707107 0.000000
vn 0.707107 -0.707107 0.000000
vn 0.707107 -0.707107 0.000000
vn 0.707107 -0.707107 0.000000
vn 0.707107 -0.707107 0.000000
vn 0.707107 -0.707107 0.000000
vn 0.707107 -0.707107 0.000000
vn 0.707107 -0.707107 0.000000
vn 0.707107 -0.707107 0.000000
vn 0.707107 -0.707107 0.000000
vn 0.707107 -0.707107 0.000000
vn 0.707107 -0.707107 0.000000
vn 0.707107 -0.707107 0.000000
vn 0.707107 -0.707107 0.000000
vn 0.707107 -0.707107 0.000000
vn 0.707107 -0.707107 0.000000
vn 0.707107 -0.707107 0.000000
vn 0.707107 -0.707107 0.000000
vn 0.707107 -0.707107 0.000000
vn 0.707107 -0.707107 0.000000
vn 0.707107 -0.707107 0.000000
vn 0.707107 -0.707107 0.000000
vn 0.707107 -0.707107 0.000000
vn 0.707107 -0.707107 0.000000
vn 0.707107 -0.707107 0.000000
vn 0.707107 -0.707107 0.000000
vn 0.707107 -0.707107 0.000000
vn 0.707107 -0.707107 0.000000
vn 0.707107 -0.707107 0.000000
vn 0.707107 -0.707107 0.000000
vn 0.707107 -0.707107 0.000000
vn 0.707107 -0.707107 0.000000
vn 0.707107 -0.707107 0.000000
vn 0.707107 -0.707107 0.000000
vn 0.707107 -0.707107 0.000000
vn 0.707107 -0.707107 0.000000
vn 0.707107 -0.707107 0.000000
vn 0.707107 -0.707107 0.000000
vn 0.707107 -0.707107 0.000000
vn 0.707107 -0.707107 0.000000
vn 0.707107 -0.707107 0.000000
vn 0.707107 -0.707107 0.000000
vn 0.707107 -0.707107 0.000000
vn 0.707107 -0.707107 0.000000
vn 0.707107 -0.707107 0.000000
vn 0.707107 -0.707107 0.000000
vn 0.707107 -0.707107 0.000000
vn 0.707107 -0.707107 0.000000
vn 0.707107 -0.707107 0.000000
vn 0.707107 -0.707107 0.000000
vn 0.707107 -0.707107 0.000000
vn 0.707107 -0.707107 0.000000
vn 0.707107 -0.707107 0.000000
vn 0.707107 -0.707107 0.000000
vn 0.707107 -0.707107 0.000000
vn 0.707107 -0.707107 0.000000
vn 0.707107 -0.707107 0.000000
vn 0.707107 -0.707107 0.000000
vn 0.707107 -0.707107 0.000000
vn 0.707107 -0.707107 0.000000
vn 0.707107 -0.707107 0.000000
vn 0.707107 -0.707107 0.000000
vn 0.707107 -0.707107 0.000000
vn 0.707107 -0.707107 0.000000
vn 0.707107 -0.707107 0.000000
vn 0.707107 -0.707107 0.000000
vn 0.707107 -0.707107 0.000000
vn 0.707107 -0.707107 0.000000
vn 0.707107 -0.707107 0.000000
vn 0.707107 -0.707107 0.000000
vn 0.707107 -0.707107 0.000000
vn 0.707107 -0.707107 0.000000
vn 0.707107 -0.707107 0.000000
vn 0.707107 -0.707107 0.000000
vn 0.707107 -0.707107 0.000000
vn 0.707107 -0.707107 0.000000
vn 0.707107 -0.707107 0.000000
vn 0.707107 -0.707107 0.000000
vn 0.707107 -0.707107 0.000000
vn 0.707107 -0.707107 0.000000
vn 0.707107 -0.707107 0.000000
vn 0.707107 -0.707107 0.000000
vn 0.707107 -0.707107 0.000000
vn 0.707107 -0.707107 0.000000
vn 0.707107 -0.707107 0.000000
vn 0.707107 -0.707107 0.000000
vn 0.707107 -0.707107 0.000000
vn 0.707107 -0.707107 0.000000
vn 0.707107 -0.707107 0.000000
vn 0.707107 -0.707107 0.000000
vn 0.707107 -0.707107 0.000000
vn 0.707107 -0.707107 0.000000
vn 0.707107 -0.707107 0.000000
vn 0.707107 -0.707107 0.000000
vn 0.707107 -0.707107 0.000000
vn 0.707107 -0.707107 0.000000
vn 0.707107 -0.707107 0.000000
vn 0.707107 -0.707107 0.000000
vn 0.707107 -0.707107 0.000000
vn 0.707107 -0.707107 0.000000
vn 0.707107 -0.707107 0.000000
vn 0.707107 -0.707107 0.000000
vn 0.707107 -0.707107 0.000000
vn 0.707107 -0.707107 0.000000
vn 0.707107 -0.707107 0.000000
vn 0.707107 -0.707107 0.000000
vn 0.707107 -0.707107 0.000000
vn 0.707107 -0.707107 0.000000
vn 0.707107 -0.707107 0.000000
vn 0.707107 -0.707107 0.000000
vn 0.707107 -0.707107 0.000000
vn 0.707107 -0.707107 0.000000
vn 0.707107 -0.707107 0.000000
vn 0.707107 -0.707107 0.000000
vn 0.707107 -0.707107 0.000000
vn 0.707107 -0.707107 0.000000
vn 0.707107 -0.707107 0.000000
vn 0.707107 -0.707107 0.000000
vn 0.707107 -0.707107 0.000000
vn 0.707107 -0.707107 0.000000
vn 0.707107 -0.707107 0.000000
vn 0.707107 -0.707107 0.000000
vn 0.707107 -0.707107 0.000000
vn 0.707107 -0.707107 0.000000
vn 0.707107 -0.707107 0.000000
vn 0.707107 -0.707107 0.000000
vn 0.707107 -0.707107 0.000000
vn -0.707107 0.707107 -0.000000
vn -0.707107 0.707107 -0.000000
vn -0.707107 0.707107 -0.000000
vn -0.707107 0.707107 -0.000000
vn -0.707107 0.707107 -0.000000
vn -0.707107 0.707107 -0.000000
vn -0.707107 0.707107 -0.000000
vn -0.707107 0.707107 -0.000000
vn -0.707107 0.707107 -0.000000
vn -0.707107 0.707107 -0.000000
vn -0.707107 0.707107 -0.000000
vn -0.707107 0.707107 -0.000000
vn -0.707107 0.707107 -0.000000
vn -0.707107 0.707107 -0.000000
vn -0.707107 0.707107 -0.000000
vn -0.707107 0.707107 -0.000000
vn -0.707107 0.707107 -0.000000
vn -0.707107 0.707107 -0.000000
vn -0.707107 0.707107 -0.000000
vn -0.707107 0.707107 -0.000000
vn -0.707107 0.707107 -0.000000
vn -0.707107 0.707107 -0.000000
vn -0.707107 0.707107 -0.000000
vn -0.707107 0.707107 -0.000000
vn -0.707107 0.707107 -0.000000
vn -0.707107 0.707107 -0.000000
vn -0.707107 0.707107 -0.000000
vn -0.707107 0.707107 -0.000000
vn -0.707107 0.707107 -0.000000
vn -0.707107 0.707107 -0.000000
vn -0.707107 0.707107 -0.000000
vn -0.707107 0.707107 -0.000000
vn -0.707107 0.707107 -0.000000
vn -0.707107 0.707107 -0.000000
vn -0.707107 0.707107 -0.000000
vn -0.707107 0.707107 -0.000000
vn -0.707107 0.707107 -0.000000
vn -0.707107 0.707107 -0.000000
vn -0.707107 0.707107 -0.000000
vn -0.707107 0.707107 -0.000000
vn -0.707107 0.707107 -0.000000
vn -0.707107 0.707107 -0.000000
vn -0.707107 0.707107 -0.000000
vn -0.707107 0.707107 -0.000000
vn -0.707107 0.707107 -0.000000
vn -0.707107 0.707107 -0.000000
vn -0.707107 0.707107 -0.000000
vn -0.707107 0.707107 -0.000000
vn -0.707107 0.707107 -0.000000
vn -0.707107 0.707107 -0.000000
vn -0.707107 0.707107 -0.000000
vn -0.707107 0.707107 -0.000000
vn -0.707107 0.707107 -0.000000
vn -0.707107 0.707107 -0.000000
vn -0.707107 0.707107 -0.000000
vn -0.707107 0.707107 -0.000000
vn -0.707107 0.707107 -0.000000
vn -0.707107 0.707107 -0.000000
vn -0.707107 0.707107 -0.000000
vn -0.707107 0.707107 -0.000000
vn -0.707107 0.707107 -0.000000
vn -0.707107 0.707107 -0.000000
vn -0.707107 0.707107 -0.000000
vn -0.707107 0.707107 -0.000000
vn -0.707107 0.707107 -0.000000
vn -0.707107 0.707107 -0.000000
vn -0.707107 0.707107 -0.000000
vn -0.707107 0.707107 -0.000000
vn -0.707107 0.707107 -0.000000
vn -0.707107 0.707107 -0.000000
vn -0.707107 0.707107 -0.000000
vn -0.707107 0.707107 -0.000000
vn -0.707107 0.707107 -0.000000
vn -0.707107 0.707107 -0.000000
vn -0.707107 0.707107 -0.000000
vn -0.707107 0.707107 -0.000000
vn -0.707107 0.707107 -0.000000
vn -0.707107 0.707107 -0.000000
vn -0.707107 0.707107 -0.000000
vn -0.707107 0.707107 -0.000000
vn -0.707107 0.707107 -0.000000
vn -0.707107 0.707107 -0.000000
vn -0.707107 0.707107 -0.000000
vn -0.707107 0.707107 -0.000000
vn -0.707107 0.707107 -0.000000
vn -0.707107 0.707107 -0.000000
vn -0.707107 0.707107 -0.000000
vn -0.707107 0.707107 -0.000000
vn -0.707107 0.707107 -0.000000
vn -0.707107 0.707107 -0.000000
vn -0.707107 0.707107 -0.000000
vn -0.707107 0.707107 -0.000000
vn -0.707107 0.707107 -0.000000
vn -0.707107 0.707107 -0.000000
vn -0.707107 0.707107 -0.000000
vn -0.707107 0.707107 -0.000000
vn -0.707107 0.707107 -0.000000
vn -0.707107 0.707107 -0.000000
vn -0.707107 0.707107 -0.000000
vn -0.707107 0.707107 -0.000000
vn -0.707107 0.707107 -0.000000
vn -0.707107 0.707107 -0.000000
vn -0.707107 0.707107 -0.000000
vn -0.707107 0.707107 -0.000000
vn -0.707107 0.707107 -0.000000
vn -0.707107 0.707107 -0.000000
vn -0.707107 0.707107 -0.000000
vn -0.707107 0.707107 -0.000000
vn -0.707107 0.707107 -0.000000
vn -0.707107 0.707107 -0.000000
vn -0.707107 0.707107 -0.000000
vn -0.707107 0.707107 -0.000000
vn -0.707107 0.707107 -0.000000
vn -0.707107 0.707107 -0.000000
vn -0.707107 0.707107 -0.000000
vn -0.707107 0.707107 -0.000000
vn -0.707107 0.707107 -0.000000
vn -0.707107 0.707107 -0.000000
vn -0.707107 0.707107 -0.000000
vn -0.707107 0.707107 -0.000000
vn -0.707107 0.707107 -0.000000
vn -0.707107 0.707107 -0.000000
vn -0.707107 0.707107 -0.000000
vn -0.707107 0.707107 -0.000000
vn -0.707107 0.707107 -0.000000
vn -0.707107 0.707107 -0.000000
vn -0.707107 0.707107 -0.000000
vn -0.707107 0.707107 -0.000000
vn -0.707107 0.707107 -0.000000
vn -0.707107 0.707107 -0.000000
vn -0.707107 0.707107 -0.000000
vn -0.707107 0.707107 -0.000000
vn -0.707107 0.707107 -0.000000
vn -0.707107 0.707107 -0.000000
vn -0.707107 0.707107 -0.000000
vn -0.004148 -0.004148 0.999983
vn -0.040979 -0.040979 0.998319
vn -0.004148 -0.004148 0.999983
vn -0.040979 -0.040979 0.998319
vn -0.067790 -0.067790 0.995394
vn -0.067790 -0.067790 0.995394
vn -0.099886 -0.099886 0.989973
vn -0.099886 -0.099886 0.989973
vn -0.133133 -0.133133 0.982116
vn -0.133133 -0.133133 0.982116
vn -0.189222 -0.189222 0.963530
vn -0.189222 -0.189222 0.963530
vn -0.248700 -0.248700 0.936107
vn -0.248700 -0.248700 0.936107
vn -0.311766 -0.311766 0.897554
vn -0.311766 -0.311766 0.897554
vn -0.377355 -0.377355 0.845699
vn -0.377355 -0.377355 0.845699
vn -0.442438 -0.442438 0.780062
vn -0.442438 -0.442438 0.780062
vn -0.480910 -0.480910 0.733110
vn -0.480910 -0.480910 0.733110
vn -0.521377 -0.521377 0.675523
vn -0.521377 -0.521377 0.675523
vn -0.553672 -0.553672 0.622008
vn -0.553672 -0.553672 0.622008
vn -0.586262 -0.586262 0.559101
vn -0.586262 -0.586262 0.559101
vn -0.634556 -0.634556 0.441223
vn -0.634556 -0.634556 0.441223
vn -0.660027 -0.660027 0.358787
vn -0.660027 -0.660027 0.358787
vn -0.677063 -0.677063 0.288395
vn -0.677063 -0.677063 0.288395
vn -0.690071 -0.690071 0.218182
vn -0.690071 -0.690071 0.218182
vn -0.699627 -0.699627 0.145069
vn -0.699627 -0.699627 0.145069
vn -0.705812 -0.705812 0.060488
vn -0.705812 -0.705812 0.060488
vn -0.707006 -0.707006 0.016892
vn -0.707006 -0.707006 0.016892
vn -0.707032 -0.707032 -0.014555
vn -0.705688 -0.705688 -0.063321
vn -0.707032 -0.707032 -0.014555
vn -0.705688 -0.705688 -0.063321
vn -0.699343 -0.699343 -0.147784
vn -0.699343 -0.699343 -0.147784
vn -0.691205 -0.691205 -0.210880
vn -0.691205 -0.691205 -0.210880
vn -0.676676 -0.676676 -0.290207
vn -0.676676 -0.676676 -0.290207
vn -0.640761 -0.640761 -0.422907
vn -0.640761 -0.640761 -0.422907
vn -0.612900 -0.612900 -0.498706
vn -0.612900 -0.612900 -0.498706
vn -0.590032 -0.590032 -0.551112
vn -0.590032 -0.590032 -0.551112
vn -0.559839 -0.559839 -0.610868
vn -0.559839 -0.559839 -0.610868
vn -0.525639 -0.525639 -0.668885
vn -0.525639 -0.525639 -0.668885
vn -0.457458 -0.457458 -0.762539
vn -0.457458 -0.457458 -0.762539
vn -0.387463 -0.387463 -0.836508
vn -0.387463 -0.387463 -0.836508
vn -0.324991 -0.324991 -0.888123
vn -0.324991 -0.324991 -0.888123
vn -0.268704 -0.268704 -0.924984
vn -0.268704 -0.268704 -0.924984
vn -0.201735 -0.201735 -0.958440
vn -0.201735 -0.201735 -0.958440
vn -0.155870 -0.155870 -0.975402
vn -0.155870 -0.155870 -0.975402
vn -0.110765 -0.110765 -0.987655
vn -0.110765 -0.110765 -0.987655
vn -0.074636 -0.074636 -0.994414
vn -0.074636 -0.074636 -0.994414
vn -0.046377 -0.046377 -0.997847
vn -0.046377 -0.046377 -0.997847
vn -0.008607 -0.008607 -0.999926
vn -0.008607 -0.008607 -0.999926
vn 0.008482 0.008482 -0.999928
vn 0.045392 0.045392 -0.997937
vn 0.008482 0.008482 -0.999928
vn 0.045392 0.045392 -0.997937
vn 0.076413 0.076413 -0.994144
vn 0.076413 0.076413 -0.994144
vn 0.111220 0.111220 -0.987553
vn 0.111220 0.111220 -0.987553
vn 0.152234 0.152234 -0.976550
vn 0.152234 0.152234 -0.976550
vn 0.208931 0.208931 -0.955351
vn 0.208931 0.208931 -0.955351
vn 0.268093 0.268093 -0.925339
vn 0.268093 0.268093 -0.925339
vn 0.320045 0.320045 -0.891707
vn 0.320045 0.320045 -0.891707
vn 0.385245 0.385245 -0.838554
vn 0.385245 0.385245 -0.838554
vn 0.456242 0.456242 -0.763994
vn 0.456242 0.456242 -0.763994
vn 0.524413 0.524413 -0.670806
vn 0.524413 0.524413 -0.670806
vn 0.586331 0.586331 -0.558956
vn 0.586331 0.586331 -0.558956
vn 0.615476 0.615476 -0.492320
vn 0.615476 0.615476 -0.492320
vn 0.638628 0.638628 -0.429311
vn 0.638628 0.638628 -0.429311
vn 0.660782 0.660782 -0.355998
vn 0.660782 0.660782 -0.355998
vn 0.677000 0.677000 -0.288689
vn 0.677000 0.677000 -0.288689
vn 0.690454 0.690454 -0.215748
vn 0.690454 0.690454 -0.215748
vn 0.700039 0.700039 -0.141038
vn 0.700039 0.700039 -0.141038
vn 0.706998 0.706998 -0.017522
vn 0.706998 0.706998 -0.017522
vn 0.707007 0.707007 0.016783
vn 0.705800 0.705800 0.060776
vn 0.707007 0.707007 0.016783
vn 0.705800 0.705800 0.060776
vn 0.699654 0.699654 0.144800
vn 0.699654 0.699654 0.144800
vn 0.689808 0.689808 0.219840
vn 0.689808 0.689808 0.219840
vn 0.675578 0.675578 0.295279
vn 0.675578 0.675578 0.295279
vn 0.659329 0.659329 0.361344
vn 0.659329 0.659329 0.361344
vn 0.635078 0.635078 0.439717
vn 0.635078 0.635078 0.439717
vn 0.586408 0.586408 0.558795
vn 0.586408 0.586408 0.558795
vn 0.523244 0.523244 0.672630
vn 0.523244 0.523244 0.672630
vn 0.482180 0.482180 0.731441
vn 0.482180 0.482180 0.731441
vn 0.447390 0.447390 0.774393
vn 0.447390 0.447390 0.774393
vn 0.377782 0.377782 0.845317
vn 0.377782 0.377782 0.845317
vn 0.309560 0.309560 0.899080
vn 0.309560 0.309560 0.899080
vn 0.246726 0.246726 0.937151
vn 0.246726 0.246726 0.937151
vn 0.185310 0.185310 0.965049
vn 0.185310 0.185310 0.965049
vn 0.136808 0.136808 0.981105
vn 0.136808 0.136808 0.981105
vn 0.093657 0.093657 0.991190
vn 0.093657 0.093657 0.991190
vn 0.066099 0.066099 0.995621
vn 0.066099 0.066099 0.995621
vn 0.040793 0.040793 0.998335
vn 0.040793 0.040793 0.998335
vn 0.004135 0.004135 0.999983
vn 0.004135 0.004135 0.999983
vn -0.001694 -0.001694 -0.999997
vn -0.035439 -0.035439 -0.998743
vn -0.001694 -0.001694 -0.999997
vn -0.035439 -0.035439 -0.998743
vn -0.078858 -0.078858 -0.993762
vn -0.078858 -0.078858 -0.993762
vn -0.109055 -0.109055 -0.988035
vn -0.109055 -0.109055 -0.988035
vn -0.154476 -0.154476 -0.975845
vn -0.154476 -0.154476 -0.975845
vn -0.212479 -0.212479 -0.953785
vn -0.212479 -0.212479 -0.953785
vn -0.278401 -0.278401 -0.919231
vn -0.278401 -0.278401 -0.919231
vn -0.346005 -0.346005 -0.872101
vn -0.346005 -0.346005 -0.872101
vn -0.415910 -0.415910 -0.808726
vn -0.415910 -0.415910 -0.808726
vn -0.493082 -0.493082 -0.716756
vn -0.493082 -0.493082 -0.716756
vn -0.569672 -0.569672 -0.592409
vn -0.569672 -0.569672 -0.592409
vn -0.619438 -0.619438 -0.482279
vn -0.619438 -0.619438 -0.482279
vn -0.664800 -0.664800 -0.340707
vn -0.664800 -0.664800 -0.340707
vn -0.684490 -0.684490 -0.250891
vn -0.684490 -0.684490 -0.250891
vn -0.698521 -0.698521 -0.155361
vn -0.698521 -0.698521 -0.155361
vn -0.706135 -0.706135 -0.052406
vn -0.706135 -0.706135 -0.052406
vn 0.706222 0.706222 -0.050018
vn 0.697584 0.697584 -0.163568
vn 0.706222 0.706222 -0.050018
vn 0.697584 0.697584 -0.163568
vn 0.664968 0.664968 -0.340051
vn 0.664968 0.664968 -0.340051
vn 0.621153 0.621153 -0.477846
vn 0.621153 0.621153 -0.477846
vn 0.565048 0.565048 -0.601200
vn 0.565048 0.565048 -0.601200
vn 0.497101 0.497101 -0.711182
vn 0.497101 0.497101 -0.711182
vn 0.422361 0.422361 -0.802011
vn 0.422361 0.422361 -0.802011
vn 0.340837 0.340837 -0.876163
vn 0.340837 0.340837 -0.876163
vn 0.279845 0.279845 -0.918354
vn 0.279845 0.279845 -0.918354
vn 0.213235 0.213235 -0.953447
vn 0.213235 0.213235 -0.953447
vn 0.151486 0.151486 -0.976782
vn 0.151486 0.151486 -0.976782
vn 0.113088 0.113088 -0.987128
vn 0.113088 0.113088 -0.987128
vn 0.076293 0.076293 -0.994162
vn 0.076293 0.076293 -0.994162
vn 0.036001 0.036001 -0.998703
vn 0.036001 0.036001 -0.998703
vn 0.001807 0.001807 -0.999997
vn 0.001807 0.001807 -0.999997
vn 0.245790 0.245790 0.937643
vn 0.299839 0.299839 0.905645
vn 0.245790 0.245790 0.937643
vn 0.299839 0.299839 0.905645
vn 0.378552 0.378552 0.844628
vn 0.378552 0.378552 0.844628
vn 0.458363 0.458363 0.761450
vn 0.458363 0.458363 0.761450
vn 0.504641 0.504641 0.700482
vn 0.504641 0.504641 0.700482
vn 0.546292 0.546292 0.634925
vn 0.546292 0.546292 0.634925
vn 0.609540 0.609540 0.506875
vn 0.609540 0.609540 0.506875
vn 0.661211 0.661211 0.354403
vn 0.661211 0.661211 0.354403
vn 0.679082 0.679082 0.278741
vn 0.679082 0.679082 0.278741
vn 0.695975 0.695975 0.176740
vn 0.695975 0.695975 0.176740
vn 0.706507 0.706507 0.041190
vn 0.706507 0.706507 0.041190
vn 0.006702 0.006702 0.999955
vn 0.045120 0.045120 0.997962
vn 0.006702 0.006702 0.999955
vn 0.045120 0.045120 0.997962
vn 0.094056 0.094056 0.991114
vn 0.094056 0.094056 0.991114
vn 0.159609 0.159609 0.974192
vn 0.159609 0.159609 0.974192
vn 0.204461 0.204461 0.957283
vn 0.204461 0.204461 0.957283
vn 0.226344 0.226344 0.947384
vn 0.226344 0.226344 0.947384
vn -0.706114 -0.706114 0.052969
vn -0.698026 -0.698026 0.159749
vn -0.706114 -0.706114 0.052969
vn -0.698026 -0.698026 0.159749
vn -0.683329 -0.683329 0.257145
vn -0.683329 -0.683329 0.257145
vn -0.662946 -0.662946 0.347856
vn -0.662946 -0.662946 0.347856
vn -0.618605 -0.618605 0.484412
vn -0.618605 -0.618605 0.484412
vn -0.565499 -0.565499 0.600352
vn -0.565499 -0.565499 0.600352
vn -0.489419 -0.489419 0.721760
vn -0.489419 -0.489419 0.721760
vn -0.409126 -0.409126 0.815618
vn -0.409126 -0.409126 0.815618
vn -0.339946 -0.339946 0.876854
vn -0.339946 -0.339946 0.876854
vn -0.283072 -0.283072 0.916373
vn -0.283072 -0.283072 0.916373
vn -0.225495 -0.225495 0.947789
vn -0.225495 -0.225495 0.947789
vn -0.184781 -0.184781 0.965252
vn -0.184781 -0.184781 0.965252
vn -0.131277 -0.131277 0.982615
vn -0.131277 -0.131277 0.982615
vn -0.101216 -0.101216 0.989702
vn -0.101216 -0.101216 0.989702
vn -0.042971 -0.042971 0.998152
vn -0.042971 -0.042971 0.998152
vn -0.009247 -0.009247 0.999914
vn -0.009247 -0.009247 0.999914
usemtl Opaque(202,209,238)
f 2/1/1 90/2/2 1/3/3
f 1/3/3 90/2/2 91/4/4
f 1/3/3 91/4/4 92/5/5
f 2/1/1 3/6/6 90/2/2
f 90/2/2 3/6/6 89/7/7
f 89/7/7 3/6/6 4/8/8
f 89/7/7 4/8/8 88/9/9
f 88/9/9 4/8/8 5/10/10
f 88/9/9 5/10/10 87/11/11
f 87/11/11 5/10/10 6/12/12
f 87/11/11 6/12/12 86/13/13
f 86/13/13 6/12/12 7/14/14
f 86/13/13 7/14/14 8/15/15
f 86/13/13 8/15/15 85/16/16
f 85/16/16 8/15/15 9/17/17
f 85/16/16 9/17/17 84/18/18
f 84/18/18 9/17/17 10/19/19
f 84/18/18 10/19/19 83/20/20
f 83/20/20 10/19/19 11/21/21
f 83/20/20 11/21/21 12/22/22
f 83/20/20 12/22/22 82/23/23
f 82/23/23 12/22/22 13/24/24
f 82/23/23 13/24/24 14/25/25
f 82/23/23 14/25/25 81/26/26
f 81/26/26 14/25/25 15/27/27
f 81/26/26 15/27/27 80/28/28
f 80/28/28 15/27/27 16/29/29
f 80/28/28 16/29/29 79/30/30
f 79/30/30 16/29/29 17/31/31
f 79/30/30 17/31/31 18/32/32
f 79/30/30 18/32/32 78/33/33
f 78/33/33 18/32/32 19/34/34
f 78/33/33 19/34/34 20/35/35
f 78/33/33 20/35/35 77/36/36
f 77/36/36 20/35/35 21/37/37
f 77/36/36 21/37/37 22/38/38
f 77/36/36 22/38/38 135/39/39
f 135/39/39 22/38/38 23/40/40
f 135/39/39 23/40/40 24/41/41
f 135/39/39 24/41/41 134/42/42
f 134/42/42 24/41/41 25/43/43
f 134/42/42 25/43/43 133/44/44
f 133/44/44 25/43/43 26/45/45
f 133/44/44 26/45/45 132/46/46
f 132/46/46 26/45/45 27/47/47
f 132/46/46 27/47/47 131/48/48
f 131/48/48 27/47/47 28/49/49
f 131/48/48 28/49/49 29/50/50
f 131/48/48 29/50/50 130/51/51
f 130/51/51 29/50/50 30/52/52
f 130/51/51 30/52/52 129/53/53
f 129/53/53 30/52/52 31/54/54
f 129/53/53 31/54/54 128/55/55
f 128/55/55 31/54/54 32/56/56
f 128/55/55 32/56/56 127/57/57
f 127/57/57 32/56/56 33/58/58
f 127/57/57 33/58/58 126/59/59
f 126/59/59 33/58/58 34/60/60
f 126/59/59 34/60/60 125/61/61
f 125/61/61 34/60/60 35/62/62
f 125/61/61 35/62/62 124/63/63
f 124/63/63 35/62/62 36/64/64
f 124/63/63 36/64/64 123/65/65
f 123/65/65 36/64/64 37/66/66
f 123/65/65 37/66/66 38/67/67
f 123/65/65 38/67/67 122/68/68
f 122/68/68 38/67/67 39/69/69
f 122/68/68 39/69/69 40/70/70
f 41/71/71 120/72/72 40/70/70
f 40/70/70 120/72/72 121/73/73
f 40/70/70 121/73/73 122/68/68
f 41/71/71 42/74/74 120/72/72
f 120/72/72 42/74/74 119/75/75
f 119/75/75 42/74/74 43/76/76
f 119/75/75 43/76/76 118/77/77
f 118/77/77 43/76/76 44/78/78
f 118/77/77 44/78/78 117/79/79
f 117/79/79 44/78/78 45/80/80
f 117/79/79 45/80/80 116/81/81
f 116/81/81 45/80/80 46/82/82
f 116/81/81 46/82/82 47/83/83
f 116/81/81 47/83/83 115/84/84
f 115/84/84 47/83/83 48/85/85
f 115/84/84 48/85/85 114/86/86
f 114/86/86 48/85/85 49/87/87
f 114/86/86 49/87/87 113/88/88
f 113/88/88 49/87/87 50/89/89
f 113/88/88 50/89/89 112/90/90
f 112/90/90 50/89/89 51/91/91
f 112/90/90 51/91/91 111/92/92
f 111/92/92 51/91/91 52/93/93
f 111/92/92 52/93/93 110/94/94
f 110/94/94 52/93/93 53/95/95
f 110/94/94 53/95/95 54/96/96
f 110/94/94 54/96/96 109/97/97
f 109/97/97 54/96/96 55/98/98
f 109/97/97 55/98/98 56/99/99
f 109/97/97 56/99/99 108/100/100
f 108/100/100 56/99/99 57/101/101
f 108/100/100 57/101/101 107/102/102
f 107/102/102 57/101/101 106/103/103
f 106/103/103 57/101/101 58/104/104
f 106/103/103 58/104/104 59/105/105
f 106/103/103 59/105/105 105/106/106
f 105/106/106 59/105/105 60/107/107
f 105/106/106 60/107/107 104/108/108
f 104/108/108 60/107/107 61/109/109
f 104/108/108 61/109/109 103/110/110
f 103/110/110 61/109/109 62/111/111
f 103/110/110 62/111/111 63/112/112
f 103/110/110 63/112/112 102/113/113
f 102/113/113 63/112/112 64/114/114
f 102/113/113 64/114/114 101/115/115
f 101/115/115 64/114/114 65/116/116
f 101/115/115 65/116/116 100/117/117
f 100/117/117 65/116/116 66/118/118
f 100/117/117 66/118/118 99/119/119
f 99/119/119 66/118/118 67/120/120
f 99/119/119 67/120/120 68/121/121
f 99/119/119 68/121/121 98/122/122
f 98/122/122 68/121/121 69/123/123
f 98/122/122 69/123/123 97/124/124
f 97/124/124 69/123/123 70/125/125
f 97/124/124 70/125/125 96/126/126
f 96/126/126 70/125/125 71/127/127
f 96/126/126 71/127/127 72/128/128
f 96/126/126 72/128/128 95/129/129
f 95/129/129 72/128/128 73/130/130
f 95/129/129 73/130/130 94/131/131
f 94/131/131 73/130/130 74/132/132
f 94/131/131 74/132/132 93/133/133
f 93/133/133 74/132/132 75/134/134
f 93/133/133 75/134/134 92/5/5
f 92/5/5 75/134/134 76/135/135
f 92/5/5 76/135/135 1/3/3
f 211/136/136 136/137/137 241/138/138
f 241/138/138 136/137/137 137/139/139
f 241/138/138 137/139/139 240/140/140
f 240/140/140 137/139/139 138/141/141
f 240/140/140 138/141/141 139/142/142
f 240/140/140 139/142/142 239/143/143
f 239/143/143 139/142/142 140/144/144
f 239/143/143 140/144/144 141/145/145
f 239/143/143 141/145/145 238/146/146
f 238/146/146 141/145/145 142/147/147
f 238/146/146 142/147/147 237/148/148
f 237/148/148 142/147/147 143/149/149
f 237/148/148 143/149/149 236/150/150
f 236/150/150 143/149/149 144/151/151
f 236/150/150 144/151/151 145/152/152
f 236/150/150 145/152/152 235/153/153
f 235/153/153 145/152/152 146/154/154
f 235/153/153 146/154/154 147/155/155
f 235/153/153 147/155/155 234/156/156
f 234/156/156 147/155/155 148/157/157
f 234/156/156 148/157/157 233/158/158
f 233/158/158 148/157/157 149/159/159
f 233/158/158 149/159/159 232/160/160
f 232/160/160 149/159/159 150/161/161
f 232/160/160 150/161/161 151/162/162
f 232/160/160 151/162/162 231/163/163
f 231/163/163 151/162/162 152/164/164
f 231/163/163 152/164/164 230/165/165
f 230/165/165 152/164/164 153/166/166
f 230/165/165 153/166/166 229/167/167
f 229/167/167 153/166/166 154/168/168
f 229/167/167 154/168/168 228/169/169
f 228/169/169 154/168/168 155/170/170
f 228/169/169 155/170/170 156/171/171
f 157/172/172 226/173/173 156/171/171
f 156/171/171 226/173/173 227/174/174
f 156/171/171 227/174/174 228/169/169
f 157/172/172 158/175/175 226/173/173
f 226/173/173 158/175/175 225/176/176
f 225/176/176 158/175/175 159/177/177
f 225/176/176 159/177/177 224/178/178
f 224/178/178 159/177/177 160/179/179
f 224/178/178 160/179/179 223/180/180
f 223/180/180 160/179/179 161/181/181
f 223/180/180 161/181/181 222/182/182
f 222/182/182 161/181/181 162/183/183
f 222/182/182 162/183/183 163/184/184
f 222/182/182 163/184/184 221/185/185
f 221/185/185 163/184/184 164/186/186
f 221/185/185 164/186/186 220/187/187
f 220/187/187 164/186/186 165/188/188
f 220/187/187 165/188/188 219/189/189
f 219/189/189 165/188/188 166/190/190
f 219/189/189 166/190/190 167/191/191
f 219/189/189 167/191/191 218/192/192
f 218/192/192 167/191/191 168/193/193
f 218/192/192 168/193/193 217/194/194
f 217/194/194 168/193/193 169/195/195
f 217/194/194 169/195/195 216/196/196
f 216/196/196 169/195/195 170/197/197
f 216/196/196 170/197/197 215/198/198
f 215/198/198 170/197/197 171/199/199
f 215/198/198 171/199/199 172/200/200
f 215/198/198 172/200/200 214/201/201
f 214/201/201 172/200/200 173/202/202
f 214/201/201 173/202/202 213/203/203
f 213/203/203 173/202/202 174/204/204
f 213/203/203 174/204/204 212/205/205
f 212/205/205 174/204/204 175/206/206
f 212/205/205 175/206/206 176/207/207
f 177/208/208 269/209/209 176/207/207
f 176/207/207 269/209/209 270/210/210
f 176/207/207 270/210/210 212/205/205
f 269/209/209 177/208/208 268/211/211
f 268/211/211 177/208/208 178/212/212
f 268/211/211 178/212/212 179/213/213
f 268/211/211 179/213/213 267/214/214
f 267/214/214 179/213/213 180/215/215
f 267/214/214 180/215/215 181/216/216
f 267/214/214 181/216/216 266/217/217
f 266/217/217 181/216/216 182/218/218
f 266/217/217 182/218/218 265/219/219
f 265/219/219 182/218/218 183/220/220
f 265/219/219 183/220/220 264/221/221
f 264/221/221 183/220/220 184/222/222
f 264/221/221 184/222/222 263/223/223
f 263/223/223 184/222/222 185/224/224
f 263/223/223 185/224/224 262/225/225
f 262/225/225 185/224/224 186/226/226
f 262/225/225 186/226/226 261/227/227
f 261/227/227 186/226/226 187/228/228
f 261/227/227 187/228/228 188/229/229
f 261/227/227 188/229/229 260/230/230
f 260/230/230 188/229/229 189/231/231
f 260/230/230 189/231/231 259/232/232
f 259/232/232 189/231/231 190/233/233
f 259/232/232 190/233/233 258/234/234
f 258/234/234 190/233/233 191/235/235
f 258/234/234 191/235/235 257/236/236
f 257/236/236 191/235/235 192/237/237
f 257/236/236 192/237/237 193/238/238
f 194/239/239 255/240/240 193/238/238
f 193/238/238 255/240/240 256/241/241
f 193/238/238 256/241/241 257/236/236
f 194/239/239 195/242/242 255/240/240
f 255/240/240 195/242/242 254/243/243
f 254/243/243 195/242/242 196/244/244
f 254/243/243 196/244/244 197/245/245
f 254/243/243 197/245/245 253/246/246
f 253/246/246 197/245/245 198/247/247
f 253/246/246 198/247/247 252/248/248
f 252/248/248 198/247/247 199/249/249
f 252/248/248 199/249/249 251/250/250
f 251/250/250 199/249/249 200/251/251
f 251/250/250 200/251/251 250/252/252
f 250/252/252 200/251/251 201/253/253
f 250/252/252 201/253/253 249/254/254
f 249/254/254 201/253/253 202/255/255
f 249/254/254 202/255/255 248/256/256
f 248/256/256 202/255/255 203/257/257
f 248/256/256 203/257/257 247/258/258
f 247/258/258 203/257/257 204/259/259
f 247/258/258 204/259/259 246/260/260
f 246/260/260 204/259/259 205/261/261
f 246/260/260 205/261/261 206/262/262
f 246/260/260 206/262/262 245/263/263
f 245/263/263 206/262/262 207/264/264
f 245/263/263 207/264/264 244/265/265
f 244/265/265 207/264/264 208/266/266
f 244/265/265 208/266/266 243/267/267
f 243/267/267 208/266/266 209/268/268
f 243/267/267 209/268/268 242/269/269
f 242/269/269 209/268/268 210/270/270
f 242/269/269 210/270/270 211/136/136
f 242/269/269 211/136/136 241/138/138
f 156/271/271 155/272/272 1/273/273
f 1/273/273 155/272/272 2/274/274
f 2/274/274 155/272/272 154/275/275
f 2/274/274 154/275/275 3/276/276
f 3/276/276 154/275/275 153/277/277
f 3/276/276 153/277/277 4/278/278
f 4/278/278 153/277/277 152/279/279
f 4/278/278 152/279/279 5/280/280
f 5/280/280 152/279/279 151/281/281
f 5/280/280 151/281/281 6/282/282
f 6/282/282 151/281/281 150/283/283
f 6/282/282 150/283/283 7/284/284
f 7/284/284 150/283/283 149/285/285
f 7/284/284 149/285/285 8/286/286
f 8/286/286 149/285/285 148/287/287
f 8/286/286 148/287/287 9/288/288
f 9/288/288 148/287/287 147/289/289
f 9/288/288 147/289/289 10/290/290
f 10/290/290 147/289/289 146/291/291
f 10/290/290 146/291/291 11/292/292
f 11/292/292 146/291/291 145/293/293
f 11/292/292 145/293/293 12/294/294
f 12/294/294 145/293/293 144/295/295
f 12/294/294 144/295/295 13/296/296
f 13/296/296 144/295/295 143/297/297
f 13/296/296 143/297/297 14/298/298
f 14/298/298 143/297/297 142/299/299
f 14/298/298 142/299/299 15/300/300
f 15/300/300 142/299/299 141/301/301
f 15/300/300 141/301/301 16/302/302
f 16/302/302 141/301/301 140/303/303
f 16/302/302 140/303/303 17/304/304
f 17/304/304 140/303/303 139/305/305
f 17/304/304 139/305/305 18/306/306
f 18/306/306 139/305/305 138/307/307
f 18/306/306 138/307/307 19/308/308
f 19/308/308 138/307/307 137/309/309
f 19/308/308 137/309/309 20/310/310
f 20/310/310 137/309/309 136/311/311
f 20/310/310 136/311/311 21/312/312
f 136/313/313 211/314/314 21/315/315
f 21/315/315 211/314/314 22/316/316
f 22/316/316 211/314/314 210/317/317
f 22/316/316 210/317/317 23/318/318
f 23/318/318 210/317/317 209/319/319
f 23/318/318 209/319/319 24/320/320
f 24/320/320 209/319/319 208/321/321
f 24/320/320 208/321/321 25/322/322
f 25/322/322 208/321/321 207/323/323
f 25/322/322 207/323/323 26/324/324
f 26/324/324 207/323/323 206/325/325
f 26/324/324 206/325/325 27/326/326
f 27/326/326 206/325/325 205/327/327
f 27/326/326 205/327/327 28/328/328
f 28/328/328 205/327/327 204/329/329
f 28/328/328 204/329/329 29/330/330
f 29/330/330 204/329/329 203/331/331
f 29/330/330 203/331/331 30/332/332
f 30/332/332 203/331/331 202/333/333
f 30/332/332 202/333/333 31/334/334
f 31/334/334 202/333/333 201/335/335
f 31/334/334 201/335/335 32/336/336
f 32/336/336 201/335/335 200/337/337
f 32/336/336 200/337/337 33/338/338
f 33/338/338 200/337/337 199/339/339
f 33/338/338 199/339/339 34/340/340
f 34/340/340 199/339/339 198/341/341
f 34/340/340 198/341/341 35/342/342
f 35/342/342 198/341/341 197/343/343
f 35/342/342 197/343/343 36/344/344
f 36/344/344 197/343/343 196/345/345
f 36/344/344 196/345/345 37/346/346
f 37/346/346 196/345/345 195/347/347
f 37/346/346 195/347/347 38/348/348
f 38/348/348 195/347/347 194/349/349
f 38/348/348 194/349/349 39/350/350
f 39/350/350 194/349/349 193/351/351
f 39/350/350 193/351/351 40/352/352
f 193/353/353 192/354/354 40/355/355
f 40/355/355 192/354/354 41/356/356
f 41/356/356 192/354/354 191/357/357
f 41/356/356 191/357/357 42/358/358
f 42/358/358 191/357/357 190/359/359
f 42/358/358 190/359/359 43/360/360
f 43/360/360 190/359/359 189/361/361
f 43/360/360 189/361/361 44/362/362
f 44/362/362 189/361/361 188/363/363
f 44/362/362 188/363/363 45/364/364
f 45/364/364 188/363/363 187/365/365
f 45/364/364 187/365/365 46/366/366
f 46/366/366 187/365/365 186/367/367
f 46/366/366 186/367/367 47/368/368
f 47/368/368 186/367/367 185/369/369
f 47/368/368 185/369/369 48/370/370
f 48/370/370 185/369/369 184/371/371
f 48/370/370 184/371/371 49/372/372
f 49/372/372 184/371/371 183/373/373
f 49/372/372 183/373/373 50/374/374
f 50/374/374 183/373/373 182/375/375
f 50/374/374 182/375/375 51/376/376
f 51/376/376 182/375/375 181/377/377
f 51/376/376 181/377/377 52/378/378
f 52/378/378 181/377/377 180/379/379
f 52/378/378 180/379/379 53/380/380
f 53/380/380 180/379/379 179/381/381
f 53/380/380 179/381/381 54/382/382
f 54/382/382 179/381/381 178/383/383
f 54/382/382 178/383/383 55/384/384
f 55/384/384 178/383/383 177/385/385
f 55/384/384 177/385/385 56/386/386
f 56/386/386 177/385/385 176/387/387
f 56/386/386 176/387/387 57/388/388
f 57/388/388 176/387/387 175/389/389
f 57/388/388 175/389/389 58/390/390
f 175/391/391 174/392/392 58/393/393
f 58/393/393 174/392/392 59/394/394
f 59/394/394 174/392/392 173/395/395
f 59/394/394 173/395/395 60/396/396
f 60/396/396 173/395/395 172/397/397
f 60/396/396 172/397/397 61/398/398
f 61/398/398 172/397/397 171/399/399
f 61/398/398 171/399/399 62/400/400
f 62/400/400 171/399/399 170/401/401
f 62/400/400 170/401/401 63/402/402
f 63/402/402 170/401/401 169/403/403
f 63/402/402 169/403/403 64/404/404
f 64/404/404 169/403/403 168/405/405
f 64/404/404 168/405/405 65/406/406
f 65/406/406 168/405/405 167/407/407
f 65/406/406 167/407/407 66/408/408
f 66/408/408 167/407/407 166/409/409
f 66/408/408 166/409/409 67/410/410
f 67/410/410 166/409/409 165/411/411
f 67/410/410 165/411/411 68/412/412
f 68/412/412 165/411/411 164/413/413
f 68/412/412 164/413/413 69/414/414
f 69/414/414 164/413/413 163/415/415
f 69/414/414 163/415/415 70/416/416
f 70/416/416 163/415/415 162/417/417
f 70/416/416 162/417/417 71/418/418
f 71/418/418 162/417/417 161/419/419
f 71/418/418 161/419/419 72/420/420
f 72/420/420 161/419/419 160/421/421
f 72/420/420 160/421/421 73/422/422
f 73/422/422 160/421/421 159/423/423
f 73/422/422 159/423/423 74/424/424
f 74/424/424 159/423/423 158/425/425
f 74/424/424 158/425/425 75/426/426
f 75/426/426 158/425/425 157/427/427
f 75/426/426 157/427/427 76/428/428
f 76/428/428 157/427/427 156/429/429
f 76/428/428 156/429/429 1/430/430
f 227/431/431 226/432/432 91/433/433
f 91/433/433 226/432/432 92/434/434
f 92/434/434 226/432/432 225/435/435
f 92/434/434 225/435/435 93/436/436
f 93/436/436 225/435/435 224/437/437
f 93/436/436 224/437/437 94/438/438
f 94/438/438 224/437/437 223/439/439
f 94/438/438 223/439/439 95/440/440
f 95/440/440 223/439/439 222/441/441
f 95/440/440 222/441/441 96/442/442
f 96/442/442 222/441/441 221/443/443
f 96/442/442 221/443/443 97/444/444
f 97/444/444 221/443/443 220/445/445
f 97/444/444 220/445/445 98/446/446
f 98/446/446 220/445/445 219/447/447
f 98/446/446 219/447/447 99/448/448
f 99/448/448 219/447/447 218/449/449
f 99/448/448 218/449/449 100/450/450
f 100/450/450 218/449/449 217/451/451
f 100/450/450 217/451/451 101/452/452
f 101/452/452 217/451/451 216/453/453
f 101/452/452 216/453/453 102/454/454
f 102/454/454 216/453/453 215/455/455
f 102/454/454 215/455/455 103/456/456
f 103/456/456 215/455/455 214/457/457
f 103/456/456 214/457/457 104/458/458
f 104/458/458 214/457/457 213/459/459
f 104/458/458 213/459/459 105/460/460
f 105/460/460 213/459/459 212/461/461
f 105/460/460 212/461/461 106/462/462
f 241/463/463 240/464/464 77/465/465
f 77/465/465 240/464/464 78/466/466
f 78/466/466 240/464/464 239/467/467
f 78/466/466 239/467/467 79/468/468
f 79/468/468 239/467/467 238/469/469
f 79/468/468 238/469/469 80/470/470
f 80/470/470 238/469/469 237/471/471
f 80/470/470 237/471/471 81/472/472
f 81/472/472 237/471/471 236/473/473
f 81/472/472 236/473/473 82/474/474
f 82/474/474 236/473/473 235/475/475
f 82/474/474 235/475/475 83/476/476
f 83/476/476 235/475/475 234/477/477
f 83/476/476 234/477/477 84/478/478
f 84/478/478 234/477/477 233/479/479
f 84/478/478 233/479/479 85/480/480
f 85/480/480 233/479/479 232/481/481
f 85/480/480 232/481/481 86/482/482
f 86/482/482 232/481/481 231/483/483
f 86/482/482 231/483/483 87/484/484
f 87/484/484 231/483/483 230/485/485
f 87/484/484 230/485/485 88/486/486
f 88/486/486 230/485/485 229/487/487
f 88/486/486 229/487/487 89/488/488
f 89/488/488 229/487/487 228/489/489
f 89/488/488 228/489/489 90/490/490
f 90/490/490 228/489/489 227/491/491
f 90/490/490 227/491/491 91/492/492
f 251/493/493 250/494/494 126/495/495
f 126/495/495 250/494/494 127/496/496
f 127/496/496 250/494/494 249/497/497
f 127/496/496 249/497/497 128/498/498
f 128/498/498 249/497/497 248/499/499
f 128/498/498 248/499/499 129/500/500
f 129/500/500 248/499/499 247/501/501
f 129/500/500 247/501/501 130/502/502
f 130/502/502 247/501/501 246/503/503
f 130/502/502 246/503/503 131/504/504
f 131/504/504 246/503/503 245/505/505
f 131/504/504 245/505/505 132/506/506
f 132/506/506 245/505/505 244/507/507
f 132/506/506 244/507/507 133/508/508
f 133/508/508 244/507/507 243/509/509
f 133/508/508 243/509/509 134/510/510
f 134/510/510 243/509/509 242/511/511
f 134/510/510 242/511/511 135/512/512
f 135/512/512 242/511/511 241/513/513
f 135/512/512 241/513/513 77/514/514
f 256/515/515 255/516/516 121/517/517
f 121/517/517 255/516/516 122/518/518
f 122/518/518 255/516/516 254/519/519
f 122/518/518 254/519/519 123/520/520
f 123/520/520 254/519/519 253/521/521
f 123/520/520 253/521/521 124/522/522
f 124/522/522 253/521/521 252/523/523
f 124/522/522 252/523/523 125/524/524
f 125/524/524 252/523/523 251/525/525
f 125/524/524 251/525/525 126/526/526
f 212/527/527 270/528/528 106/529/529
f 106/529/529 270/528/528 107/530/530
f 107/530/530 270/528/528 269/531/531
f 107/530/530 269/531/531 108/532/532
f 108/532/532 269/531/531 268/533/533
f 108/532/532 268/533/533 109/534/534
f 109/534/534 268/533/533 267/535/535
f 109/534/534 267/535/535 110/536/536
f 110/536/536 267/535/535 266/537/537
f 110/536/536 266/537/537 111/538/538
f 111/538/538 266/537/537 265/539/539
f 111/538/538 265/539/539 112/540/540
f 112/540/540 265/539/539 264/541/541
f 112/540/540 264/541/541 113/542/542
f 113/542/542 264/541/541 263/543/543
f 113/542/542 263/543/543 114/544/544
f 114/544/544 263/543/543 262/545/545
f 114/544/544 262/545/545 115/546/546
f 115/546/546 262/545/545 261/547/547
f 115/546/546 261/547/547 116/548/548
f 116/548/548 261/547/547 260/549/549
f 116/548/548 260/549/549 117/550/550
f 117/550/550 260/549/549 259/551/551
f 117/550/550 259/551/551 118/552/552
f 118/552/552 259/551/551 258/553/553
f 118/552/552 258/553/553 119/554/554
f 119/554/554 258/553/553 257/555/555
f 119/554/554 257/555/555 120/556/556
f 120/556/556 257/555/555 256/557/557
f 120/556/556 256/557/557 121/558/558
# 270 vertices
# 558 texture params
# 558 normals
# 540 facets

# 1 groups
