# WaveFront *.obj file (generated by Autodesk ATF)

mtllib body11_visual.mtl

g Body11

v 64.399696 -64.022510 94.986164
v 64.470406 -64.093220 94.986164
v 64.470406 -64.093220 94.915664
v 64.399696 -64.022510 94.915664
v 64.433637 -64.129990 94.915664
v 64.433637 -64.129990 94.986164
v 64.362926 -64.059279 94.986164
v 64.362926 -64.059279 94.915664
v 64.391045 -64.015070 94.915664
v 64.381377 -64.009009 94.915664
v 64.370911 -64.004464 94.915664
v 64.359883 -64.001537 94.915664
v 64.348541 -64.000294 94.915664
v 64.348541 -64.000294 94.986164
v 64.359883 -64.001537 94.986164
v 64.370911 -64.004464 94.986164
v 64.381377 -64.009009 94.986164
v 64.391045 -64.015070 94.986164
v 64.358191 -64.055603 94.986164
v 64.352691 -64.053214 94.986164
v 64.346772 -64.052264 94.986164
v 64.346772 -64.052264 94.915664
v 64.352691 -64.053214 94.915664
v 64.358191 -64.055603 94.915664
v 64.147856 -63.993463 94.986164
v 64.147856 -63.993463 94.915664
v 64.146087 -64.045433 94.986164
v 64.146087 -64.045433 94.915664
v 64.134745 -64.044189 94.986164
v 64.123717 -64.041262 94.986164
v 64.113251 -64.036717 94.986164
v 64.103584 -64.030656 94.986164
v 64.094933 -64.023217 94.986164
v 64.094933 -64.023217 94.915664
v 64.103584 -64.030656 94.915664
v 64.113251 -64.036717 94.915664
v 64.123717 -64.041262 94.915664
v 64.134745 -64.044189 94.915664
v 63.796180 -63.724464 94.986164
v 63.796180 -63.724464 94.915664
v 63.832950 -63.687695 94.915664
v 64.131702 -63.986447 94.915664
v 64.136438 -63.990124 94.915664
v 64.141937 -63.992512 94.915664
v 64.131702 -63.986447 94.986164
v 64.136438 -63.990124 94.986164
v 64.141937 -63.992512 94.986164
v 63.832950 -63.687695 94.986164
vt -0.100000 -0.000000 0.000000
vt -0.000000 0.000000 0.000000
vt -0.100000 0.070500 0.000000
vt -0.000000 0.070500 0.000000
vt 1.045250 -0.105000 0.000000
vt 0.974750 -0.105000 0.000000
vt 1.045250 -0.157000 0.000000
vt 0.974750 -0.157000 0.000000
vt 0.070500 -0.000000 0.000000
vt -0.000000 0.000000 0.000000
vt 0.070500 -0.100000 0.000000
vt -0.000000 -0.100000 0.000000
vt -0.035250 -0.238761 0.000000
vt 0.035250 -0.238761 0.000000
vt -0.035250 -0.227340 0.000000
vt 0.035250 -0.227340 0.000000
vt 0.035250 -0.215919 0.000000
vt -0.035250 -0.215919 0.000000
vt 0.035250 -0.204498 0.000000
vt -0.035250 -0.204498 0.000000
vt 0.035250 -0.193078 0.000000
vt -0.035250 -0.193078 0.000000
vt -0.035250 -0.181657 0.000000
vt 0.035250 -0.181657 0.000000
vt -0.035250 -0.075398 0.000000
vt 0.035250 -0.075398 0.000000
vt -0.035250 -0.069387 0.000000
vt 0.035250 -0.069387 0.000000
vt -0.035250 -0.063376 0.000000
vt 0.035250 -0.063376 0.000000
vt -0.035250 -0.057365 0.000000
vt 0.035250 -0.057365 0.000000
vt -0.000000 0.000000 0.000000
vt -0.070500 -0.000000 0.000000
vt 0.000000 -0.200801 0.000000
vt -0.070500 -0.200801 0.000000
vt -0.000000 0.000000 0.000000
vt -0.200801 0.000000 0.000000
vt -0.000000 -0.070500 0.000000
vt -0.200801 -0.070500 0.000000
vt -0.035250 0.181657 0.000000
vt 0.035250 0.181657 0.000000
vt -0.035250 0.193078 0.000000
vt 0.035250 0.193078 0.000000
vt 0.035250 0.204498 0.000000
vt -0.035250 0.204498 0.000000
vt 0.035250 0.215919 0.000000
vt -0.035250 0.215919 0.000000
vt 0.035250 0.227340 0.000000
vt -0.035250 0.227340 0.000000
vt -0.035250 0.238761 0.000000
vt 0.035250 0.238761 0.000000
vt 0.070500 -0.000000 0.000000
vt -0.000000 0.000000 0.000000
vt 0.070500 -0.422500 0.000000
vt -0.000000 -0.422500 0.000000
vt -0.052000 -0.422500 0.000000
vt 0.000000 -0.422500 0.000000
vt -0.052000 0.000000 0.000000
vt -0.000000 0.000000 0.000000
vt -0.038678 0.042982 0.000000
vt -0.031537 0.051881 0.000000
vt 0.000749 0.005948 0.000000
vt 0.002949 0.011525 0.000000
vt 0.006462 0.016383 0.000000
vt 0.105538 0.198617 0.000000
vt 0.143537 0.163119 0.000000
vt 0.109051 0.203475 0.000000
vt 0.111251 0.209052 0.000000
vt 0.112000 0.215000 0.000000
vt 0.150678 0.172018 0.000000
vt 0.112000 0.315000 0.000000
vt 0.164000 0.215000 0.000000
vt 0.164000 0.315000 0.000000
vt 0.156407 0.181886 0.000000
vt 0.160593 0.192501 0.000000
vt 0.163143 0.203622 0.000000
vt -0.044407 0.033114 0.000000
vt -0.048593 0.022499 0.000000
vt -0.051143 0.011378 0.000000
vt 0.035250 -0.075398 0.000000
vt -0.035250 -0.075398 0.000000
vt 0.035250 -0.081409 0.000000
vt -0.035250 -0.081409 0.000000
vt 0.035250 -0.087420 0.000000
vt -0.035250 -0.087420 0.000000
vt 0.035250 -0.093431 0.000000
vt -0.035250 -0.093431 0.000000
vt 0.422500 0.052000 0.000000
vt -0.000000 0.052000 0.000000
vt 0.422500 -0.000000 0.000000
vt -0.000000 0.000000 0.000000
vt -0.042982 0.038678 0.000000
vt -0.051881 0.031537 0.000000
vt -0.011378 0.051143 0.000000
vt -0.022499 0.048593 0.000000
vt -0.033114 0.044407 0.000000
vt -0.198617 -0.105538 0.000000
vt -0.016383 -0.006462 0.000000
vt -0.011525 -0.002949 0.000000
vt -0.005948 -0.000749 0.000000
vt -0.163119 -0.143537 0.000000
vt -0.203475 -0.109051 0.000000
vt -0.209052 -0.111251 0.000000
vt -0.215000 -0.112000 0.000000
vt -0.172018 -0.150678 0.000000
vt -0.215000 -0.164000 0.000000
vt -0.181886 -0.156407 0.000000
vt -0.192501 -0.160593 0.000000
vt -0.203622 -0.163143 0.000000
vt -0.315000 -0.112000 0.000000
vt -0.315000 -0.164000 0.000000
vt -0.974750 -0.105000 0.000000
vt -1.045250 -0.105000 0.000000
vt -0.974750 -0.157000 0.000000
vt -1.045250 -0.157000 0.000000
vt -0.422500 -0.000000 0.000000
vt -0.000000 0.000000 0.000000
vt -0.422500 0.070500 0.000000
vt -0.000000 0.070500 0.000000
vn 0.707107 0.707107 -0.000000
vn 0.707107 0.707107 -0.000000
vn 0.707107 0.707107 -0.000000
vn 0.707107 0.707107 -0.000000
vn 0.707107 -0.707107 0.000000
vn 0.707107 -0.707107 0.000000
vn 0.707107 -0.707107 0.000000
vn 0.707107 -0.707107 0.000000
vn -0.707107 -0.707107 0.000000
vn -0.707107 -0.707107 0.000000
vn -0.707107 -0.707107 0.000000
vn -0.707107 -0.707107 0.000000
vn 0.593277 0.804998 -0.000000
vn 0.593277 0.804998 -0.000000
vn 0.466075 0.884745 -0.000000
vn 0.466075 0.884745 -0.000000
vn 0.328367 0.944550 -0.000000
vn 0.328367 0.944550 -0.000000
vn 0.183258 0.983065 -0.000000
vn 0.183258 0.983065 -0.000000
vn 0.034019 0.999421 -0.000000
vn 0.034019 0.999421 -0.000000
vn -0.509790 -0.860299 0.000000
vn -0.509790 -0.860299 0.000000
vn -0.280661 -0.959807 0.000000
vn -0.280661 -0.959807 0.000000
vn -0.034019 -0.999421 0.000000
vn -0.034019 -0.999421 0.000000
vn 0.034019 0.999421 -0.000000
vn 0.034019 0.999421 -0.000000
vn -0.034019 -0.999421 0.000000
vn -0.034019 -0.999421 0.000000
vn -0.183258 -0.983065 0.000000
vn -0.183258 -0.983065 0.000000
vn -0.328367 -0.944550 0.000000
vn -0.328367 -0.944550 0.000000
vn -0.466075 -0.884745 0.000000
vn -0.466075 -0.884745 0.000000
vn -0.593277 -0.804998 0.000000
vn -0.593277 -0.804998 0.000000
vn -0.707107 -0.707107 0.000000
vn -0.707107 -0.707107 0.000000
vn -0.707107 -0.707107 0.000000
vn -0.707107 -0.707107 0.000000
vn 0.000000 -0.000000 -1.000000
vn 0.000000 -0.000000 -1.000000
vn 0.000000 -0.000000 -1.000000
vn 0.000000 -0.000000 -1.000000
vn 0.000000 -0.000000 -1.000000
vn 0.000000 -0.000000 -1.000000
vn 0.000000 -0.000000 -1.000000
vn 0.000000 -0.000000 -1.000000
vn 0.000000 -0.000000 -1.000000
vn 0.000000 -0.000000 -1.000000
vn 0.000000 -0.000000 -1.000000
vn 0.000000 -0.000000 -1.000000
vn 0.000000 -0.000000 -1.000000
vn 0.000000 -0.000000 -1.000000
vn 0.000000 -0.000000 -1.000000
vn 0.000000 -0.000000 -1.000000
vn 0.000000 -0.000000 -1.000000
vn 0.000000 -0.000000 -1.000000
vn 0.000000 -0.000000 -1.000000
vn 0.000000 -0.000000 -1.000000
vn 0.000000 -0.000000 -1.000000
vn 0.000000 -0.000000 -1.000000
vn 0.000000 -0.000000 -1.000000
vn 0.000000 -0.000000 -1.000000
vn 0.707107 0.707107 -0.000000
vn 0.707107 0.707107 -0.000000
vn 0.509790 0.860299 -0.000000
vn 0.509790 0.860299 -0.000000
vn 0.280661 0.959807 -0.000000
vn 0.280661 0.959807 -0.000000
vn 0.034019 0.999421 -0.000000
vn -0.000000 0.000000 1.000000
vn -0.000000 0.000000 1.000000
vn -0.000000 0.000000 1.000000
vn -0.000000 0.000000 1.000000
vn -0.000000 0.000000 1.000000
vn -0.000000 0.000000 1.000000
vn -0.000000 0.000000 1.000000
vn -0.000000 0.000000 1.000000
vn -0.000000 0.000000 1.000000
vn -0.000000 0.000000 1.000000
vn -0.000000 0.000000 1.000000
vn -0.000000 0.000000 1.000000
vn -0.000000 0.000000 1.000000
vn -0.000000 0.000000 1.000000
vn -0.000000 0.000000 1.000000
vn -0.000000 0.000000 1.000000
vn -0.000000 0.000000 1.000000
vn -0.000000 0.000000 1.000000
vn -0.000000 0.000000 1.000000
vn -0.000000 0.000000 1.000000
vn -0.000000 0.000000 1.000000
vn -0.000000 0.000000 1.000000
vn -0.000000 0.000000 1.000000
vn -0.000000 0.000000 1.000000
vn -0.707107 0.707107 -0.000000
vn -0.707107 0.707107 -0.000000
vn -0.707107 0.707107 -0.000000
vn -0.707107 0.707107 -0.000000
vn 0.707107 0.707107 -0.000000
vn 0.707107 0.707107 -0.000000
usemtl Opaque(202,209,238)
f 1/1/1 2/2/2 4/3/3
f 4/3/3 2/2/2 3/4/4
f 3/5/5 2/6/6 5/7/7
f 5/7/7 2/6/6 6/8/8
f 5/9/9 6/10/10 8/11/11
f 8/11/11 6/10/10 7/12/12
f 1/13/1 4/14/3 18/15/13
f 18/15/13 4/14/3 9/16/14
f 18/15/13 9/16/14 10/17/15
f 18/15/13 10/17/15 17/18/16
f 17/18/16 10/17/15 11/19/17
f 17/18/16 11/19/17 16/20/18
f 16/20/18 11/19/17 12/21/19
f 16/20/18 12/21/19 15/22/20
f 15/22/20 12/21/19 14/23/21
f 14/23/21 12/21/19 13/24/22
f 8/25/11 7/26/12 24/27/23
f 24/27/23 7/26/12 19/28/24
f 24/27/23 19/28/24 23/29/25
f 23/29/25 19/28/24 20/30/26
f 23/29/25 20/30/26 22/31/27
f 22/31/27 20/30/26 21/32/28
f 14/33/21 13/34/22 25/35/29
f 25/35/29 13/34/22 26/36/30
f 21/37/28 27/38/31 22/39/27
f 22/39/27 27/38/31 28/40/32
f 28/41/32 27/42/31 38/43/33
f 38/43/33 27/42/31 29/44/34
f 38/43/33 29/44/34 30/45/35
f 38/43/33 30/45/35 37/46/36
f 37/46/36 30/45/35 31/47/37
f 37/46/36 31/47/37 36/48/38
f 36/48/38 31/47/37 32/49/39
f 36/48/38 32/49/39 35/50/40
f 35/50/40 32/49/39 34/51/41
f 34/51/41 32/49/39 33/52/42
f 34/53/41 33/54/42 40/55/43
f 40/55/43 33/54/42 39/56/44
f 40/57/45 41/58/46 34/59/47
f 34/59/47 41/58/46 42/60/48
f 34/59/47 42/60/48 38/61/49
f 38/61/49 42/60/48 28/62/50
f 28/62/50 42/60/48 43/63/51
f 28/62/50 43/63/51 44/64/52
f 44/64/52 26/65/53 28/62/50
f 28/62/50 26/65/53 22/66/54
f 22/66/54 26/65/53 13/67/55
f 22/66/54 13/67/55 23/68/56
f 23/68/56 13/67/55 24/69/57
f 24/69/57 13/67/55 8/70/58
f 8/70/58 13/67/55 12/71/59
f 8/70/58 12/71/59 5/72/60
f 5/72/60 12/71/59 4/73/61
f 5/72/60 4/73/61 3/74/62
f 12/71/59 11/75/63 4/73/61
f 4/73/61 11/75/63 10/76/64
f 4/73/61 10/76/64 9/77/65
f 38/61/49 37/78/66 34/59/47
f 34/59/47 37/78/66 36/79/67
f 34/59/47 36/79/67 35/80/68
f 42/81/69 45/82/70 43/83/71
f 43/83/71 45/82/70 46/84/72
f 43/83/71 46/84/72 44/85/73
f 44/85/73 46/84/72 47/86/74
f 44/85/73 47/86/74 26/87/30
f 26/87/30 47/86/74 25/88/75
f 39/89/76 33/90/77 48/91/78
f 48/91/78 33/90/77 45/92/79
f 45/92/79 33/90/77 29/93/80
f 45/92/79 29/93/80 27/94/81
f 32/95/82 31/96/83 33/90/77
f 33/90/77 31/96/83 30/97/84
f 33/90/77 30/97/84 29/93/80
f 21/98/85 25/99/86 27/94/81
f 27/94/81 25/99/86 47/100/87
f 27/94/81 47/100/87 46/101/88
f 25/99/86 21/98/85 14/102/89
f 14/102/89 21/98/85 20/103/90
f 14/102/89 20/103/90 19/104/91
f 19/104/91 7/105/92 14/102/89
f 14/102/89 7/105/92 15/106/93
f 15/106/93 7/105/92 1/107/94
f 15/106/93 1/107/94 16/108/95
f 16/108/95 1/107/94 17/109/96
f 17/109/96 1/107/94 18/110/97
f 6/111/98 2/112/99 7/105/92
f 7/105/92 2/112/99 1/107/94
f 46/101/88 45/92/79 27/94/81
f 48/113/100 41/114/101 39/115/102
f 39/115/102 41/114/101 40/116/103
f 48/117/104 45/118/70 41/119/105
f 41/119/105 45/118/70 42/120/69
# 48 vertices
# 120 texture params
# 105 normals
# 92 facets

# 1 groups
