# WaveFront *.obj file (generated by Autodesk ATF)

mtllib body101_visual.mtl

g Body101

v 62.681451 -64.995403 96.727874
v 62.681451 -64.995403 96.577874
v 62.653166 -65.023687 96.577874
v 62.653166 -65.023687 96.727874
v 62.844085 -64.832769 96.577874
v 62.844085 -64.832769 96.727874
v 62.872369 -64.804484 96.727874
v 62.872369 -64.804484 96.577874
v 62.653640 -65.024161 96.730374
v 62.654934 -65.025455 96.732204
v 62.656702 -65.027223 96.732874
v 62.684986 -64.998939 96.732874
v 62.847621 -64.836304 96.732874
v 62.875905 -64.808020 96.732874
v 62.874137 -64.806252 96.732204
v 62.872843 -64.804958 96.730374
v 62.690174 -64.987627 96.730374
v 62.726708 -64.951093 96.730374
v 62.763242 -64.914560 96.730374
v 62.799775 -64.878026 96.730374
v 62.836309 -64.841492 96.730374
v 62.691468 -64.988921 96.732204
v 62.728002 -64.952387 96.732204
v 62.764536 -64.915854 96.732204
v 62.801069 -64.879320 96.732204
v 62.837603 -64.842786 96.732204
v 62.752161 -65.066114 96.732874
v 62.723877 -65.094398 96.732874
v 62.914796 -64.903479 96.732874
v 62.943080 -64.875195 96.732874
v 62.725645 -65.096166 96.732204
v 62.726939 -65.097460 96.730374
v 62.727413 -65.097934 96.727874
v 62.755697 -65.069649 96.727874
v 62.918331 -64.907015 96.727874
v 62.946616 -64.878731 96.727874
v 62.946142 -64.878257 96.730374
v 62.944848 -64.876963 96.732204
v 62.762179 -65.059632 96.732204
v 62.798712 -65.023098 96.732204
v 62.835246 -64.986564 96.732204
v 62.871780 -64.950030 96.732204
v 62.908314 -64.913497 96.732204
v 62.763473 -65.060926 96.730374
v 62.800007 -65.024392 96.730374
v 62.836540 -64.987858 96.730374
v 62.873074 -64.951325 96.730374
v 62.909608 -64.914791 96.730374
v 62.727413 -65.097934 96.577874
v 62.755697 -65.069649 96.577874
v 62.918331 -64.907015 96.577874
v 62.946616 -64.878731 96.577874
v 62.875905 -64.808020 96.572874
v 62.847621 -64.836304 96.572874
v 62.684986 -64.998939 96.572874
v 62.656702 -65.027223 96.572874
v 62.654934 -65.025455 96.573544
v 62.653640 -65.024161 96.575374
v 62.872843 -64.804958 96.575374
v 62.874137 -64.806252 96.573544
v 62.691468 -64.988921 96.573544
v 62.728002 -64.952387 96.573544
v 62.764536 -64.915854 96.573544
v 62.801069 -64.879320 96.573544
v 62.837603 -64.842786 96.573544
v 62.690174 -64.987627 96.575374
v 62.726708 -64.951093 96.575374
v 62.763242 -64.914560 96.575374
v 62.799775 -64.878026 96.575374
v 62.836309 -64.841492 96.575374
v 62.726939 -65.097460 96.575374
v 62.725645 -65.096166 96.573544
v 62.723877 -65.094398 96.572874
v 62.752161 -65.066114 96.572874
v 62.914796 -64.903479 96.572874
v 62.943080 -64.875195 96.572874
v 62.944848 -64.876963 96.573544
v 62.946142 -64.878257 96.575374
v 62.763473 -65.060926 96.575374
v 62.800007 -65.024392 96.575374
v 62.836540 -64.987858 96.575374
v 62.873074 -64.951325 96.575374
v 62.909608 -64.914791 96.575374
v 62.762179 -65.059632 96.573544
v 62.798712 -65.023098 96.573544
v 62.835246 -64.986564 96.573544
v 62.871780 -64.950030 96.573544
v 62.908314 -64.913497 96.573544
v 62.946616 -64.871659 96.577874
v 62.879441 -64.804484 96.577874
v 62.879441 -64.804484 96.727874
v 62.946616 -64.871659 96.727874
v 62.720341 -65.097934 96.727874
v 62.653166 -65.030758 96.727874
v 62.653166 -65.030758 96.577874
v 62.720341 -65.097934 96.577874
v 62.654934 -65.028991 96.732204
v 62.653640 -65.030285 96.730374
v 62.720815 -65.097460 96.730374
v 62.722109 -65.096166 96.732204
v 62.688522 -65.062578 96.732204
v 62.687228 -65.063872 96.730374
v 62.651872 -65.025929 96.727874
v 62.651872 -65.028517 96.727874
v 62.652282 -65.028107 96.730039
v 62.652109 -65.025692 96.729124
v 62.653403 -65.026986 96.731624
v 62.652756 -65.025045 96.730039
v 62.722583 -65.099228 96.727874
v 62.725171 -65.099228 96.727874
v 62.724114 -65.097697 96.731624
v 62.726055 -65.098344 96.730039
v 62.722993 -65.098818 96.730039
v 62.725408 -65.098991 96.729124
v 62.651872 -65.025929 96.577874
v 62.651872 -65.028517 96.577874
v 62.651872 -65.028517 96.677874
v 62.651872 -65.028517 96.627874
v 62.651872 -65.025929 96.677874
v 62.651872 -65.025929 96.627874
v 62.722109 -65.096166 96.573544
v 62.720815 -65.097460 96.575374
v 62.653640 -65.030285 96.575374
v 62.654934 -65.028991 96.573544
v 62.688522 -65.062578 96.573544
v 62.687228 -65.063872 96.575374
v 62.722583 -65.099228 96.577874
v 62.725171 -65.099228 96.577874
v 62.725171 -65.099228 96.677874
v 62.725171 -65.099228 96.627874
v 62.722583 -65.099228 96.677874
v 62.722583 -65.099228 96.627874
v 62.878967 -64.804958 96.730374
v 62.877673 -64.806252 96.732204
v 62.944848 -64.873427 96.732204
v 62.946142 -64.872133 96.730374
v 62.912554 -64.838546 96.730374
v 62.911260 -64.839840 96.732204
v 62.877199 -64.803190 96.727874
v 62.874611 -64.803190 96.727874
v 62.875668 -64.804721 96.731624
v 62.873727 -64.804074 96.730039
v 62.876789 -64.803600 96.730039
v 62.874374 -64.803427 96.729124
v 62.653403 -65.026986 96.574124
v 62.652756 -65.025045 96.575709
v 62.652282 -65.028107 96.575709
v 62.652109 -65.025692 96.576624
v 62.722993 -65.098818 96.575709
v 62.725408 -65.098991 96.576624
v 62.724114 -65.097697 96.574124
v 62.726055 -65.098344 96.575709
v 62.947910 -64.876489 96.727874
v 62.947910 -64.873901 96.727874
v 62.947500 -64.874311 96.730039
v 62.947673 -64.876726 96.729124
v 62.946379 -64.875432 96.731624
v 62.947026 -64.877373 96.730039
v 62.877199 -64.803190 96.577874
v 62.874611 -64.803190 96.577874
v 62.874611 -64.803190 96.677874
v 62.874611 -64.803190 96.627874
v 62.877199 -64.803190 96.677874
v 62.877199 -64.803190 96.627874
v 62.947910 -64.876489 96.577874
v 62.947910 -64.873901 96.577874
v 62.947910 -64.873901 96.677874
v 62.947910 -64.873901 96.627874
v 62.947910 -64.876489 96.677874
v 62.947910 -64.876489 96.627874
v 62.878967 -64.804958 96.575374
v 62.877673 -64.806252 96.573544
v 62.873727 -64.804074 96.575709
v 62.875668 -64.804721 96.574124
v 62.876789 -64.803600 96.575709
v 62.874374 -64.803427 96.576624
v 62.944848 -64.873427 96.573544
v 62.946142 -64.872133 96.575374
v 62.947673 -64.876726 96.576624
v 62.947500 -64.874311 96.575709
v 62.946379 -64.875432 96.574124
v 62.947026 -64.877373 96.575709
v 62.911260 -64.839840 96.573544
v 62.912554 -64.838546 96.575374
vt 0.155000 -0.275000 0.000000
vt 0.005000 -0.275000 0.000000
vt 0.155000 -0.315000 0.000000
vt 0.005000 -0.315000 0.000000
vt 0.005000 -0.045000 0.000000
vt 0.155000 -0.045000 0.000000
vt 0.005000 -0.005000 0.000000
vt 0.155000 -0.005000 0.000000
vt 0.005000 0.007854 0.000000
vt 0.045000 0.007854 0.000000
vt 0.005000 0.010472 0.000000
vt 0.056667 0.010472 0.000000
vt 0.005000 0.013090 0.000000
vt 0.056667 0.013090 0.000000
vt 0.045000 0.015708 0.000000
vt 0.108333 0.013090 0.000000
vt 0.160000 0.013090 0.000000
vt 0.160000 0.010472 0.000000
vt 0.211667 0.010472 0.000000
vt 0.275000 0.007854 0.000000
vt 0.263333 0.010472 0.000000
vt 0.315000 0.010472 0.000000
vt 0.263333 0.013090 0.000000
vt 0.315000 0.013090 0.000000
vt 0.275000 0.015708 0.000000
vt 0.315000 0.015708 0.000000
vt 0.108333 0.010472 0.000000
vt 0.315000 0.007854 0.000000
vt 0.211667 0.013090 0.000000
vt 0.005000 0.015708 0.000000
vt 0.045000 -0.005000 0.000000
vt 0.005000 -0.005000 0.000000
vt 0.045000 -0.100000 0.000000
vt 0.005000 -0.100000 0.000000
vt 0.275000 -0.100000 0.000000
vt 0.315000 -0.100000 0.000000
vt 0.275000 -0.005000 0.000000
vt 0.315000 -0.005000 0.000000
vt 0.315000 -0.000000 0.000000
vt 0.275000 -0.000000 0.000000
vt 0.315000 -0.002618 0.000000
vt 0.263333 -0.002618 0.000000
vt 0.315000 -0.005236 0.000000
vt 0.263333 -0.005236 0.000000
vt 0.275000 -0.007854 0.000000
vt 0.211667 -0.005236 0.000000
vt 0.160000 -0.005236 0.000000
vt 0.160000 -0.002618 0.000000
vt 0.108333 -0.002618 0.000000
vt 0.045000 0.000000 0.000000
vt 0.056667 -0.002618 0.000000
vt 0.005000 -0.002618 0.000000
vt 0.056667 -0.005236 0.000000
vt 0.005000 -0.005236 0.000000
vt 0.045000 -0.007854 0.000000
vt 0.005000 -0.007854 0.000000
vt 0.211667 -0.002618 0.000000
vt 0.005000 0.000000 0.000000
vt 0.108333 -0.005236 0.000000
vt 0.315000 -0.007854 0.000000
vt -0.005000 -0.275000 0.000000
vt -0.155000 -0.275000 0.000000
vt -0.005000 -0.315000 0.000000
vt -0.155000 -0.315000 0.000000
vt -0.155000 -0.045000 0.000000
vt -0.005000 -0.045000 0.000000
vt -0.155000 -0.005000 0.000000
vt -0.005000 -0.005000 0.000000
vt -0.005000 -0.015708 0.000000
vt -0.045000 -0.015708 0.000000
vt -0.005000 -0.018326 0.000000
vt -0.056667 -0.018326 0.000000
vt -0.005000 -0.020944 0.000000
vt -0.056667 -0.020944 0.000000
vt -0.045000 -0.023562 0.000000
vt -0.108333 -0.020944 0.000000
vt -0.160000 -0.020944 0.000000
vt -0.160000 -0.018326 0.000000
vt -0.211667 -0.018326 0.000000
vt -0.275000 -0.015708 0.000000
vt -0.263333 -0.018326 0.000000
vt -0.315000 -0.018326 0.000000
vt -0.263333 -0.020944 0.000000
vt -0.315000 -0.020944 0.000000
vt -0.275000 -0.023562 0.000000
vt -0.315000 -0.023562 0.000000
vt -0.108333 -0.018326 0.000000
vt -0.315000 -0.015708 0.000000
vt -0.211667 -0.020944 0.000000
vt -0.005000 -0.023562 0.000000
vt -0.315000 -0.007854 0.000000
vt -0.275000 -0.007854 0.000000
vt -0.315000 -0.005236 0.000000
vt -0.263333 -0.005236 0.000000
vt -0.315000 -0.002618 0.000000
vt -0.263333 -0.002618 0.000000
vt -0.275000 -0.000000 0.000000
vt -0.211667 -0.002618 0.000000
vt -0.160000 -0.002618 0.000000
vt -0.160000 -0.005236 0.000000
vt -0.108333 -0.005236 0.000000
vt -0.045000 -0.007854 0.000000
vt -0.056667 -0.005236 0.000000
vt -0.005000 -0.005236 0.000000
vt -0.056667 -0.002618 0.000000
vt -0.005000 -0.002618 0.000000
vt -0.045000 0.000000 0.000000
vt -0.005000 0.000000 0.000000
vt -0.211667 -0.005236 0.000000
vt -0.005000 -0.007854 0.000000
vt -0.108333 -0.002618 0.000000
vt -0.315000 -0.000000 0.000000
vt -0.045000 -0.100000 0.000000
vt -0.005000 -0.100000 0.000000
vt -0.045000 -0.005000 0.000000
vt -0.005000 -0.005000 0.000000
vt -0.275000 -0.005000 0.000000
vt -0.315000 -0.005000 0.000000
vt -0.275000 -0.100000 0.000000
vt -0.315000 -0.100000 0.000000
vt 0.155000 -0.005000 0.000000
vt 0.005000 -0.005000 0.000000
vt 0.155000 -0.100000 0.000000
vt 0.005000 -0.100000 0.000000
vt -0.275000 -0.100000 0.000000
vt -0.045000 -0.100000 0.000000
vt -0.275000 -0.005000 0.000000
vt -0.045000 -0.005000 0.000000
vt -0.005000 -0.005000 0.000000
vt -0.155000 -0.005000 0.000000
vt -0.005000 -0.100000 0.000000
vt -0.155000 -0.100000 0.000000
vt 0.275000 -0.005000 0.000000
vt 0.045000 -0.005000 0.000000
vt 0.275000 -0.100000 0.000000
vt 0.045000 -0.100000 0.000000
vt 0.005000 -0.275000 0.000000
vt 0.155000 -0.275000 0.000000
vt 0.005000 -0.045000 0.000000
vt 0.155000 -0.045000 0.000000
vt -0.155000 -0.275000 0.000000
vt -0.005000 -0.275000 0.000000
vt -0.155000 -0.045000 0.000000
vt -0.005000 -0.045000 0.000000
vt -0.100000 -0.015708 0.000000
vt -0.005000 -0.015708 0.000000
vt -0.052500 -0.013090 0.000000
vt -0.005000 -0.013090 0.000000
vt -0.052500 -0.010472 0.000000
vt -0.005000 -0.010472 0.000000
vt -0.005000 -0.007854 0.000000
vt -0.100000 -0.007854 0.000000
vt -0.100000 -0.010472 0.000000
vt -0.100000 -0.013090 0.000000
vt -0.007854 -0.009256 0.000000
vt -0.005236 -0.011107 0.000000
vt -0.005236 -0.009256 0.000000
vt -0.002618 -0.011107 0.000000
vt -0.002618 -0.009256 0.000000
vt -0.000000 -0.011107 0.000000
vt 0.000000 -0.009256 0.000000
vt -0.002618 -0.007405 0.000000
vt -0.000000 -0.007405 0.000000
vt -0.002618 -0.005554 0.000000
vt -0.000000 -0.005554 0.000000
vt -0.005236 -0.005554 0.000000
vt -0.005236 -0.007405 0.000000
vt -0.007854 -0.005554 0.000000
vt -0.007854 -0.007405 0.000000
vt 0.007854 -0.007405 0.000000
vt 0.005236 -0.005554 0.000000
vt 0.005236 -0.007405 0.000000
vt 0.002618 -0.005554 0.000000
vt 0.002618 -0.007405 0.000000
vt -0.000000 -0.005554 0.000000
vt -0.000000 -0.007405 0.000000
vt 0.002618 -0.009256 0.000000
vt 0.000000 -0.009256 0.000000
vt 0.002618 -0.011107 0.000000
vt -0.000000 -0.011107 0.000000
vt 0.005236 -0.011107 0.000000
vt 0.005236 -0.009256 0.000000
vt 0.007854 -0.011107 0.000000
vt 0.007854 -0.009256 0.000000
vt -0.155000 -0.018326 0.000000
vt -0.105000 -0.018326 0.000000
vt -0.155000 -0.015708 0.000000
vt -0.055000 -0.018326 0.000000
vt -0.005000 -0.015708 0.000000
vt -0.005000 -0.018326 0.000000
vt -0.005000 -0.020944 0.000000
vt -0.055000 -0.020944 0.000000
vt -0.005000 -0.023562 0.000000
vt -0.105000 -0.020944 0.000000
vt -0.155000 -0.023562 0.000000
vt -0.155000 -0.020944 0.000000
vt -0.005000 -0.000000 0.000000
vt -0.100000 0.000000 0.000000
vt -0.052500 -0.002618 0.000000
vt -0.100000 -0.002618 0.000000
vt -0.052500 -0.005236 0.000000
vt -0.100000 -0.005236 0.000000
vt -0.100000 -0.007854 0.000000
vt -0.005000 -0.007854 0.000000
vt -0.005000 -0.005236 0.000000
vt -0.005000 -0.002618 0.000000
vt -0.005000 -0.005236 0.000000
vt -0.055000 -0.005236 0.000000
vt -0.005000 -0.007854 0.000000
vt -0.105000 -0.005236 0.000000
vt -0.155000 -0.007854 0.000000
vt -0.155000 -0.005236 0.000000
vt -0.155000 -0.002618 0.000000
vt -0.105000 -0.002618 0.000000
vt -0.155000 -0.000000 0.000000
vt -0.055000 -0.002618 0.000000
vt -0.005000 -0.000000 0.000000
vt -0.005000 -0.002618 0.000000
vt -0.100000 0.007854 0.000000
vt -0.005000 0.007854 0.000000
vt -0.052500 0.010472 0.000000
vt -0.005000 0.010472 0.000000
vt -0.052500 0.013090 0.000000
vt -0.005000 0.013090 0.000000
vt -0.005000 0.015708 0.000000
vt -0.100000 0.015708 0.000000
vt -0.100000 0.013090 0.000000
vt -0.100000 0.010472 0.000000
vt -0.007854 -0.003702 0.000000
vt -0.005236 -0.005554 0.000000
vt -0.005236 -0.003702 0.000000
vt -0.002618 -0.005554 0.000000
vt -0.002618 -0.003702 0.000000
vt -0.000000 -0.005554 0.000000
vt -0.000000 -0.003702 0.000000
vt -0.002618 -0.001851 0.000000
vt -0.000000 -0.001851 0.000000
vt -0.002618 0.000000 0.000000
vt 0.000000 -0.000000 0.000000
vt -0.005236 0.000000 0.000000
vt -0.005236 -0.001851 0.000000
vt -0.007854 0.000000 0.000000
vt -0.007854 -0.001851 0.000000
vt -0.002618 0.005554 0.000000
vt -0.000000 0.005554 0.000000
vt -0.002618 0.007405 0.000000
vt 0.000000 0.007405 0.000000
vt -0.002618 0.009256 0.000000
vt 0.000000 0.009256 0.000000
vt -0.002618 0.011107 0.000000
vt -0.000000 0.011107 0.000000
vt -0.005236 0.011107 0.000000
vt -0.005236 0.009256 0.000000
vt -0.005236 0.007405 0.000000
vt -0.005236 0.005554 0.000000
vt -0.007854 0.007405 0.000000
vt -0.007854 0.011107 0.000000
vt -0.007854 0.009256 0.000000
vt 0.007854 0.009256 0.000000
vt 0.005236 0.011107 0.000000
vt 0.005236 0.009256 0.000000
vt 0.002618 0.011107 0.000000
vt 0.002618 0.009256 0.000000
vt 0.000000 0.011107 0.000000
vt 0.000000 0.009256 0.000000
vt 0.002618 0.007405 0.000000
vt 0.000000 0.007405 0.000000
vt 0.002618 0.005554 0.000000
vt 0.000000 0.005554 0.000000
vt 0.005236 0.005554 0.000000
vt 0.005236 0.007405 0.000000
vt 0.007854 0.005554 0.000000
vt 0.007854 0.007405 0.000000
vt 0.002618 -0.000000 0.000000
vt 0.000000 -0.000000 0.000000
vt 0.002618 -0.001851 0.000000
vt -0.000000 -0.001851 0.000000
vt 0.002618 -0.003702 0.000000
vt -0.000000 -0.003702 0.000000
vt 0.002618 -0.005554 0.000000
vt -0.000000 -0.005554 0.000000
vt 0.005236 -0.005554 0.000000
vt 0.005236 -0.003702 0.000000
vt 0.005236 -0.001851 0.000000
vt 0.005236 -0.000000 0.000000
vt 0.007854 -0.001851 0.000000
vt 0.007854 -0.005554 0.000000
vt 0.007854 -0.003702 0.000000
vt 0.155000 0.010472 0.000000
vt 0.105000 0.010472 0.000000
vt 0.155000 0.007854 0.000000
vt 0.055000 0.010472 0.000000
vt 0.005000 0.007854 0.000000
vt 0.005000 0.010472 0.000000
vt 0.005000 0.013090 0.000000
vt 0.055000 0.013090 0.000000
vt 0.005000 0.015708 0.000000
vt 0.105000 0.013090 0.000000
vt 0.155000 0.015708 0.000000
vt 0.155000 0.013090 0.000000
vt 0.005000 -0.002618 0.000000
vt 0.055000 -0.002618 0.000000
vt 0.005000 -0.000000 0.000000
vt 0.105000 -0.002618 0.000000
vt 0.155000 -0.000000 0.000000
vt 0.155000 -0.002618 0.000000
vt 0.155000 -0.005236 0.000000
vt 0.105000 -0.005236 0.000000
vt 0.155000 -0.007854 0.000000
vt 0.055000 -0.005236 0.000000
vt 0.005000 -0.007854 0.000000
vt 0.005000 -0.005236 0.000000
vt 0.000000 0.005554 0.000000
vt -0.002618 0.005554 0.000000
vt 0.000000 0.003702 0.000000
vt -0.002618 0.003702 0.000000
vt -0.000000 0.001851 0.000000
vt -0.002618 0.001851 0.000000
vt 0.000000 -0.000000 0.000000
vt -0.002618 0.000000 0.000000
vt -0.005236 0.001851 0.000000
vt -0.005236 0.000000 0.000000
vt -0.007854 0.001851 0.000000
vt -0.005236 0.005554 0.000000
vt -0.005236 0.003702 0.000000
vt -0.007854 0.005554 0.000000
vt -0.007854 0.003702 0.000000
vt 0.000000 -0.000000 0.000000
vt 0.002618 -0.000000 0.000000
vt -0.000000 0.001851 0.000000
vt 0.002618 0.001851 0.000000
vt 0.000000 0.003702 0.000000
vt 0.002618 0.003702 0.000000
vt 0.000000 0.005554 0.000000
vt 0.002618 0.005554 0.000000
vt 0.005236 0.003702 0.000000
vt 0.005236 0.005554 0.000000
vt 0.007854 0.003702 0.000000
vt 0.005236 -0.000000 0.000000
vt 0.005236 0.001851 0.000000
vt 0.007854 -0.000000 0.000000
vt 0.007854 0.001851 0.000000
vt -0.100000 -0.000000 0.000000
vt -0.005000 -0.000000 0.000000
vt -0.052500 0.002618 0.000000
vt -0.005000 0.002618 0.000000
vt -0.052500 0.005236 0.000000
vt -0.005000 0.005236 0.000000
vt -0.005000 0.007854 0.000000
vt -0.100000 0.007854 0.000000
vt -0.100000 0.005236 0.000000
vt -0.100000 0.002618 0.000000
vn -0.707107 0.707107 0.000000
vn -0.707107 0.707107 0.000000
vn -0.707107 0.707107 0.000000
vn -0.707107 0.707107 0.000000
vn -0.707107 0.707107 0.000000
vn -0.707107 0.707107 0.000000
vn -0.707107 0.707107 0.000000
vn -0.707107 0.707107 0.000000
vn -0.707107 0.707107 -0.000000
vn -0.707107 0.707107 -0.000000
vn -0.612372 0.612372 0.500000
vn -0.612372 0.612372 0.500000
vn -0.353553 0.353553 0.866025
vn -0.353553 0.353553 0.866025
vn 0.000000 -0.000000 1.000000
vn -0.353553 0.353553 0.866025
vn -0.353553 0.353553 0.866025
vn -0.612372 0.612372 0.500000
vn -0.612372 0.612372 0.500000
vn -0.707107 0.707107 -0.000000
vn -0.612372 0.612372 0.500000
vn -0.612372 0.612372 0.500000
vn -0.353553 0.353553 0.866025
vn -0.353553 0.353553 0.866025
vn 0.000000 -0.000000 1.000000
vn 0.000000 -0.000000 1.000000
vn -0.612372 0.612372 0.500000
vn -0.707107 0.707107 -0.000000
vn -0.353553 0.353553 0.866025
vn 0.000000 -0.000000 1.000000
vn 0.000000 -0.000000 1.000000
vn 0.000000 -0.000000 1.000000
vn 0.000000 -0.000000 1.000000
vn 0.000000 -0.000000 1.000000
vn 0.000000 -0.000000 1.000000
vn 0.000000 -0.000000 1.000000
vn 0.000000 -0.000000 1.000000
vn 0.000000 -0.000000 1.000000
vn 0.000000 -0.000000 1.000000
vn 0.353553 -0.353553 0.866025
vn 0.353553 -0.353553 0.866025
vn 0.612372 -0.612372 0.500000
vn 0.612372 -0.612372 0.500000
vn 0.707107 -0.707107 0.000000
vn 0.612372 -0.612372 0.500000
vn 0.612372 -0.612372 0.500000
vn 0.353553 -0.353553 0.866025
vn 0.353553 -0.353553 0.866025
vn -0.000000 0.000000 1.000000
vn 0.353553 -0.353553 0.866025
vn 0.353553 -0.353553 0.866025
vn 0.612372 -0.612372 0.500000
vn 0.612372 -0.612372 0.500000
vn 0.707107 -0.707107 0.000000
vn 0.707107 -0.707107 0.000000
vn 0.353553 -0.353553 0.866025
vn 0.612372 -0.612372 0.500000
vn 0.707107 -0.707107 0.000000
vn 0.707107 -0.707107 -0.000000
vn 0.707107 -0.707107 -0.000000
vn 0.707107 -0.707107 -0.000000
vn 0.707107 -0.707107 -0.000000
vn 0.707107 -0.707107 -0.000000
vn 0.707107 -0.707107 -0.000000
vn 0.707107 -0.707107 -0.000000
vn 0.707107 -0.707107 -0.000000
vn -0.000000 0.000000 -1.000000
vn -0.000000 0.000000 -1.000000
vn -0.353553 0.353553 -0.866025
vn -0.353553 0.353553 -0.866025
vn -0.612372 0.612372 -0.500000
vn -0.612372 0.612372 -0.500000
vn -0.707107 0.707107 -0.000000
vn -0.612372 0.612372 -0.500000
vn -0.612372 0.612372 -0.500000
vn -0.353553 0.353553 -0.866025
vn -0.353553 0.353553 -0.866025
vn 0.000000 -0.000000 -1.000000
vn -0.353553 0.353553 -0.866025
vn -0.353553 0.353553 -0.866025
vn -0.612372 0.612372 -0.500000
vn -0.612372 0.612372 -0.500000
vn -0.707107 0.707107 -0.000000
vn -0.707107 0.707107 -0.000000
vn -0.353553 0.353553 -0.866025
vn 0.000000 -0.000000 -1.000000
vn -0.612372 0.612372 -0.500000
vn -0.707107 0.707107 -0.000000
vn 0.707107 -0.707107 0.000000
vn 0.707107 -0.707107 0.000000
vn 0.612372 -0.612372 -0.500000
vn 0.612372 -0.612372 -0.500000
vn 0.353553 -0.353553 -0.866025
vn 0.353553 -0.353553 -0.866025
vn 0.000000 -0.000000 -1.000000
vn 0.353553 -0.353553 -0.866025
vn 0.353553 -0.353553 -0.866025
vn 0.612372 -0.612372 -0.500000
vn 0.612372 -0.612372 -0.500000
vn 0.707107 -0.707107 0.000000
vn 0.612372 -0.612372 -0.500000
vn 0.612372 -0.612372 -0.500000
vn 0.353553 -0.353553 -0.866025
vn 0.353553 -0.353553 -0.866025
vn -0.000000 0.000000 -1.000000
vn -0.000000 0.000000 -1.000000
vn 0.612372 -0.612372 -0.500000
vn 0.707107 -0.707107 0.000000
vn 0.353553 -0.353553 -0.866025
vn 0.000000 -0.000000 -1.000000
vn -0.000000 0.000000 -1.000000
vn -0.000000 0.000000 -1.000000
vn -0.000000 0.000000 -1.000000
vn -0.000000 0.000000 -1.000000
vn -0.000000 0.000000 -1.000000
vn -0.000000 0.000000 -1.000000
vn 0.707107 0.707107 -0.000000
vn 0.707107 0.707107 -0.000000
vn 0.707107 0.707107 -0.000000
vn 0.707107 0.707107 -0.000000
vn -0.707107 -0.707107 0.000000
vn -0.707107 -0.707107 0.000000
vn -0.707107 -0.707107 0.000000
vn -0.707107 -0.707107 0.000000
vn -0.353553 -0.353553 0.866025
vn -0.353553 -0.353553 0.866025
vn -0.612372 -0.612372 0.500000
vn -0.612372 -0.612372 0.500000
vn -0.707107 -0.707107 0.000000
vn -0.707107 -0.707107 -0.000000
vn -0.612372 -0.612372 0.500000
vn -0.353553 -0.353553 0.866025
vn -0.707107 0.707107 0.000000
vn -0.965926 0.258819 0.000000
vn -0.918559 0.306186 0.250000
vn -0.965926 -0.258819 0.000000
vn -0.883883 -0.176777 0.433013
vn -0.707107 -0.707107 0.000000
vn -0.612372 -0.612372 0.500000
vn -0.659740 0.047367 0.750000
vn -0.353553 -0.353553 0.866025
vn -0.353553 0.353553 0.866025
vn 0.000000 0.000000 1.000000
vn -0.612372 0.612372 0.500000
vn -0.789149 0.435596 0.433013
vn 0.707107 -0.707107 0.000000
vn 0.612372 -0.612372 0.500000
vn 0.435596 -0.789149 0.433013
vn 0.353553 -0.353553 0.866025
vn 0.047367 -0.659740 0.750000
vn 0.000000 0.000000 1.000000
vn -0.353553 -0.353553 0.866025
vn -0.176777 -0.883883 0.433013
vn -0.612372 -0.612372 0.500000
vn -0.258819 -0.965926 0.000000
vn -0.707107 -0.707107 0.000000
vn 0.258819 -0.965926 0.000000
vn 0.306186 -0.918559 0.250000
vn -0.965926 -0.258819 0.000000
vn -0.965926 -0.258819 0.000000
vn -0.707107 -0.707107 0.000000
vn -0.965926 -0.258819 0.000000
vn -0.707107 -0.707107 0.000000
vn -0.965926 -0.258819 0.000000
vn -0.965926 0.258819 0.000000
vn -0.965926 0.258819 0.000000
vn -0.707107 0.707107 0.000000
vn -0.965926 0.258819 0.000000
vn -0.965926 0.258819 0.000000
vn -0.000000 0.000000 -1.000000
vn 0.000000 0.000000 -1.000000
vn -0.353553 -0.353553 -0.866025
vn -0.353553 -0.353553 -0.866025
vn -0.612372 -0.612372 -0.500000
vn -0.612372 -0.612372 -0.500000
vn -0.707107 -0.707107 -0.000000
vn -0.707107 -0.707107 0.000000
vn -0.612372 -0.612372 -0.500000
vn -0.353553 -0.353553 -0.866025
vn 0.258819 -0.965926 -0.000000
vn 0.258819 -0.965926 -0.000000
vn 0.707107 -0.707107 -0.000000
vn 0.258819 -0.965926 -0.000000
vn 0.258819 -0.965926 -0.000000
vn -0.258819 -0.965926 -0.000000
vn -0.258819 -0.965926 -0.000000
vn -0.258819 -0.965926 -0.000000
vn -0.258819 -0.965926 -0.000000
vn 0.707107 0.707107 -0.000000
vn 0.707107 0.707107 0.000000
vn 0.612372 0.612372 0.500000
vn 0.612372 0.612372 0.500000
vn 0.353553 0.353553 0.866025
vn 0.353553 0.353553 0.866025
vn 0.000000 -0.000000 1.000000
vn -0.000000 -0.000000 1.000000
vn 0.353553 0.353553 0.866025
vn 0.612372 0.612372 0.500000
vn -0.707107 0.707107 0.000000
vn -0.612372 0.612372 0.500000
vn -0.435596 0.789149 0.433013
vn -0.353553 0.353553 0.866025
vn -0.047367 0.659740 0.750000
vn 0.000000 0.000000 1.000000
vn 0.353553 0.353553 0.866025
vn 0.176777 0.883883 0.433013
vn 0.612372 0.612372 0.500000
vn 0.258819 0.965926 0.000000
vn 0.707107 0.707107 0.000000
vn -0.258819 0.965926 0.000000
vn -0.306186 0.918559 0.250000
vn -0.353553 0.353553 -0.866025
vn -0.000000 0.000000 -1.000000
vn -0.659740 0.047367 -0.750000
vn -0.353553 -0.353553 -0.866025
vn -0.883883 -0.176777 -0.433013
vn -0.612372 -0.612372 -0.500000
vn -0.965926 -0.258819 0.000000
vn -0.707107 -0.707107 0.000000
vn -0.965926 0.258819 0.000000
vn -0.918559 0.306186 -0.250000
vn -0.789149 0.435596 -0.433013
vn -0.612372 0.612372 -0.500000
vn -0.707107 0.707107 0.000000
vn 0.707107 -0.707107 0.000000
vn 0.258819 -0.965926 0.000000
vn 0.306186 -0.918559 -0.250000
vn -0.258819 -0.965926 0.000000
vn -0.176777 -0.883883 -0.433013
vn -0.707107 -0.707107 0.000000
vn -0.612372 -0.612372 -0.500000
vn 0.047367 -0.659740 -0.750000
vn -0.353553 -0.353553 -0.866025
vn 0.353553 -0.353553 -0.866025
vn 0.000000 0.000000 -1.000000
vn 0.612372 -0.612372 -0.500000
vn 0.435596 -0.789149 -0.433013
vn 0.965926 0.258819 0.000000
vn 0.707107 0.707107 0.000000
vn 0.883883 0.176777 0.433013
vn 0.612372 0.612372 0.500000
vn 0.659740 -0.047367 0.750000
vn 0.353553 0.353553 0.866025
vn 0.353553 -0.353553 0.866025
vn 0.000000 0.000000 1.000000
vn 0.612372 -0.612372 0.500000
vn 0.789149 -0.435596 0.433013
vn 0.918559 -0.306186 0.250000
vn 0.965926 -0.258819 0.000000
vn 0.707107 -0.707107 0.000000
vn -0.258819 0.965926 0.000000
vn -0.258819 0.965926 0.000000
vn -0.258819 0.965926 0.000000
vn -0.707107 0.707107 0.000000
vn -0.258819 0.965926 0.000000
vn 0.258819 0.965926 0.000000
vn 0.258819 0.965926 0.000000
vn 0.258819 0.965926 0.000000
vn 0.258819 0.965926 0.000000
vn 0.965926 0.258819 -0.000000
vn 0.965926 0.258819 -0.000000
vn 0.707107 0.707107 -0.000000
vn 0.965926 0.258819 -0.000000
vn 0.707107 0.707107 -0.000000
vn 0.965926 0.258819 -0.000000
vn 0.965926 -0.258819 -0.000000
vn 0.965926 -0.258819 -0.000000
vn 0.965926 -0.258819 -0.000000
vn 0.707107 -0.707107 -0.000000
vn 0.965926 -0.258819 -0.000000
vn 0.000000 0.000000 -1.000000
vn -0.353553 0.353553 -0.866025
vn 0.353553 0.353553 -0.866025
vn -0.047367 0.659740 -0.750000
vn 0.612372 0.612372 -0.500000
vn 0.176777 0.883883 -0.433013
vn 0.707107 0.707107 0.000000
vn 0.258819 0.965926 0.000000
vn -0.306186 0.918559 -0.250000
vn -0.258819 0.965926 0.000000
vn -0.707107 0.707107 0.000000
vn -0.612372 0.612372 -0.500000
vn -0.435596 0.789149 -0.433013
vn 0.707107 0.707107 0.000000
vn 0.965926 0.258819 0.000000
vn 0.612372 0.612372 -0.500000
vn 0.883883 0.176777 -0.433013
vn 0.353553 0.353553 -0.866025
vn 0.659740 -0.047367 -0.750000
vn 0.000000 0.000000 -1.000000
vn 0.353553 -0.353553 -0.866025
vn 0.789149 -0.435596 -0.433013
vn 0.612372 -0.612372 -0.500000
vn 0.707107 -0.707107 0.000000
vn 0.965926 -0.258819 0.000000
vn 0.918559 -0.306186 -0.250000
vn -0.000000 -0.000000 -1.000000
vn -0.000000 0.000000 -1.000000
vn 0.353553 0.353553 -0.866025
vn 0.353553 0.353553 -0.866025
vn 0.612372 0.612372 -0.500000
vn 0.612372 0.612372 -0.500000
vn 0.707107 0.707107 0.000000
vn 0.707107 0.707107 -0.000000
vn 0.612372 0.612372 -0.500000
vn 0.353553 0.353553 -0.866025
usemtl Opaque(202,209,238)
f 1/1/1 2/2/2 4/3/3
f 4/3/3 2/2/2 3/4/4
f 5/5/5 6/6/6 8/7/7
f 8/7/7 6/6/6 7/8/8
f 7/9/9 6/10/10 16/11/11
f 16/11/11 6/10/10 21/12/12
f 16/11/11 21/12/12 15/13/13
f 15/13/13 21/12/12 26/14/14
f 15/13/13 26/14/14 13/15/15
f 13/15/15 26/14/14 25/16/16
f 13/15/15 25/16/16 24/17/17
f 24/17/17 25/16/16 19/18/18
f 24/17/17 19/18/18 18/19/19
f 18/19/19 19/18/18 1/20/20
f 18/19/19 1/20/20 17/21/21
f 17/21/21 1/20/20 9/22/22
f 17/21/21 9/22/22 22/23/23
f 22/23/23 9/22/22 10/24/24
f 22/23/23 10/24/24 12/25/25
f 12/25/25 10/24/24 11/26/26
f 1/20/20 19/18/18 6/10/10
f 6/10/10 19/18/18 20/27/27
f 6/10/10 20/27/27 21/12/12
f 21/12/12 20/27/27 26/14/14
f 1/20/20 4/28/28 9/22/22
f 13/15/15 24/17/17 12/25/25
f 12/25/25 24/17/17 23/29/29
f 12/25/25 23/29/29 22/23/23
f 22/23/23 23/29/29 17/21/21
f 13/15/15 14/30/30 15/13/13
f 24/17/17 18/19/19 23/29/29
f 23/29/29 18/19/19 17/21/21
f 26/14/14 20/27/27 25/16/16
f 25/16/16 20/27/27 19/18/18
f 12/31/31 11/32/32 27/33/33
f 27/33/33 11/32/32 28/34/34
f 29/35/35 30/36/36 13/37/37
f 13/37/37 30/36/36 14/38/30
f 30/39/38 29/40/39 38/41/40
f 38/41/40 29/40/39 43/42/41
f 38/41/40 43/42/41 37/43/42
f 37/43/42 43/42/41 48/44/43
f 37/43/42 48/44/43 35/45/44
f 35/45/44 48/44/43 47/46/45
f 35/45/44 47/46/45 46/47/46
f 46/47/46 47/46/45 41/48/47
f 46/47/46 41/48/47 40/49/48
f 40/49/48 41/48/47 27/50/49
f 40/49/48 27/50/49 39/51/50
f 39/51/50 27/50/49 31/52/51
f 39/51/50 31/52/51 44/53/52
f 44/53/52 31/52/51 32/54/53
f 44/53/52 32/54/53 34/55/54
f 34/55/54 32/54/53 33/56/55
f 27/50/49 41/48/47 29/40/39
f 29/40/39 41/48/47 42/57/56
f 29/40/39 42/57/56 43/42/41
f 43/42/41 42/57/56 48/44/43
f 27/50/49 28/58/34 31/52/51
f 35/45/44 46/47/46 34/55/54
f 34/55/54 46/47/46 45/59/57
f 34/55/54 45/59/57 44/53/52
f 44/53/52 45/59/57 39/51/50
f 35/45/44 36/60/58 37/43/42
f 46/47/46 40/49/48 45/59/57
f 45/59/57 40/49/48 39/51/50
f 48/44/43 42/57/56 47/46/45
f 47/46/45 42/57/56 41/48/47
f 50/61/59 34/62/60 49/63/61
f 49/63/61 34/62/60 33/64/62
f 35/65/63 51/66/64 36/67/65
f 36/67/65 51/66/64 52/68/66
f 53/69/67 54/70/68 60/71/69
f 60/71/69 54/70/68 65/72/70
f 60/71/69 65/72/70 59/73/71
f 59/73/71 65/72/70 70/74/72
f 59/73/71 70/74/72 5/75/73
f 5/75/73 70/74/72 69/76/74
f 5/75/73 69/76/74 68/77/75
f 68/77/75 69/76/74 63/78/76
f 68/77/75 63/78/76 62/79/77
f 62/79/77 63/78/76 55/80/78
f 62/79/77 55/80/78 61/81/79
f 61/81/79 55/80/78 57/82/80
f 61/81/79 57/82/80 66/83/81
f 66/83/81 57/82/80 58/84/82
f 66/83/81 58/84/82 2/85/83
f 2/85/83 58/84/82 3/86/84
f 55/80/78 63/78/76 54/70/68
f 54/70/68 63/78/76 64/87/85
f 54/70/68 64/87/85 65/72/70
f 65/72/70 64/87/85 70/74/72
f 55/80/78 56/88/86 57/82/80
f 5/75/73 68/77/75 2/85/83
f 2/85/83 68/77/75 67/89/87
f 2/85/83 67/89/87 66/83/81
f 66/83/81 67/89/87 61/81/79
f 5/75/73 8/90/88 59/73/71
f 68/77/75 62/79/77 67/89/87
f 67/89/87 62/79/77 61/81/79
f 70/74/72 64/87/85 69/76/74
f 69/76/74 64/87/85 63/78/76
f 52/91/89 51/92/90 78/93/91
f 78/93/91 51/92/90 83/94/92
f 78/93/91 83/94/92 77/95/93
f 77/95/93 83/94/92 88/96/94
f 77/95/93 88/96/94 75/97/95
f 75/97/95 88/96/94 87/98/96
f 75/97/95 87/98/96 86/99/97
f 86/99/97 87/98/96 81/100/98
f 86/99/97 81/100/98 80/101/99
f 80/101/99 81/100/98 50/102/100
f 80/101/99 50/102/100 79/103/101
f 79/103/101 50/102/100 71/104/102
f 79/103/101 71/104/102 84/105/103
f 84/105/103 71/104/102 72/106/104
f 84/105/103 72/106/104 74/107/105
f 74/107/105 72/106/104 73/108/106
f 50/102/100 81/100/98 51/92/90
f 51/92/90 81/100/98 82/109/107
f 51/92/90 82/109/107 83/94/92
f 83/94/92 82/109/107 88/96/94
f 50/102/100 49/110/108 71/104/102
f 75/97/95 86/99/97 74/107/105
f 74/107/105 86/99/97 85/111/109
f 74/107/105 85/111/109 84/105/103
f 84/105/103 85/111/109 79/103/101
f 75/97/95 76/112/110 77/95/93
f 86/99/97 80/101/99 85/111/109
f 85/111/109 80/101/99 79/103/101
f 88/96/94 82/109/107 87/98/96
f 87/98/96 82/109/107 81/100/98
f 74/113/111 73/114/112 55/115/113
f 55/115/113 73/114/112 56/116/114
f 54/117/68 53/118/67 75/119/115
f 75/119/115 53/118/67 76/120/116
f 90/121/117 91/122/118 89/123/119
f 89/123/119 91/122/118 92/124/120
f 75/125/115 74/126/111 54/127/68
f 54/127/68 74/126/111 55/128/113
f 94/129/121 95/130/122 93/131/123
f 93/131/123 95/130/122 96/132/124
f 13/133/37 12/134/31 29/135/35
f 29/135/35 12/134/31 27/136/33
f 2/137/2 1/138/1 5/139/5
f 5/139/5 1/138/1 6/140/6
f 34/141/60 50/142/59 35/143/63
f 35/143/63 50/142/59 51/144/64
f 28/145/34 11/146/32 101/147/125
f 101/147/125 11/146/32 97/148/126
f 101/147/125 97/148/126 102/149/127
f 102/149/127 97/148/126 98/150/128
f 102/149/127 98/150/128 94/151/129
f 94/151/129 93/152/130 102/149/127
f 102/149/127 93/152/130 99/153/131
f 102/149/127 99/153/131 101/147/125
f 101/147/125 99/153/131 100/154/132
f 101/147/125 100/154/132 28/145/34
f 4/155/133 103/156/134 106/157/135
f 106/157/135 103/156/134 104/158/136
f 106/157/135 104/158/136 105/159/137
f 105/159/137 104/158/136 94/160/138
f 105/159/137 94/160/138 98/161/139
f 105/159/137 98/161/139 107/162/140
f 107/162/140 98/161/139 97/163/141
f 107/162/140 97/163/141 10/164/142
f 10/164/142 97/163/141 11/165/143
f 10/164/142 9/166/144 107/162/140
f 107/162/140 9/166/144 108/167/145
f 107/162/140 108/167/145 105/159/137
f 105/159/137 108/167/145 106/157/135
f 9/166/144 4/168/133 108/167/145
f 108/167/145 4/169/133 106/157/135
f 33/170/146 32/171/147 112/172/148
f 112/172/148 32/171/147 31/173/149
f 112/172/148 31/173/149 111/174/150
f 111/174/150 31/173/149 28/175/151
f 111/174/150 28/175/151 100/176/152
f 111/174/150 100/176/152 113/177/153
f 113/177/153 100/176/152 99/178/154
f 113/177/153 99/178/154 109/179/155
f 109/179/155 99/178/154 93/180/156
f 109/179/155 110/181/157 113/177/153
f 113/177/153 110/181/157 114/182/158
f 113/177/153 114/182/158 111/174/150
f 111/174/150 114/182/158 112/172/148
f 110/181/157 33/183/146 114/182/158
f 114/182/158 33/184/146 112/172/148
f 104/185/159 117/186/160 94/187/161
f 94/187/161 117/186/160 118/188/162
f 94/187/161 118/188/162 95/189/163
f 95/189/163 118/188/162 116/190/164
f 116/190/164 118/188/162 115/191/165
f 115/191/165 118/188/162 120/192/166
f 115/191/165 120/192/166 3/193/167
f 3/193/167 120/192/166 119/194/168
f 3/193/167 119/194/168 4/195/3
f 4/195/3 119/194/168 103/196/169
f 103/196/169 119/194/168 104/185/159
f 104/185/159 119/194/168 117/186/160
f 120/192/166 118/188/162 117/186/160
f 120/192/166 117/186/160 119/194/168
f 56/197/170 73/198/171 125/199/172
f 125/199/172 73/198/171 121/200/173
f 125/199/172 121/200/173 126/201/174
f 126/201/174 121/200/173 122/202/175
f 126/201/174 122/202/175 96/203/176
f 96/203/176 95/204/177 126/201/174
f 126/201/174 95/204/177 123/205/178
f 126/201/174 123/205/178 125/199/172
f 125/199/172 123/205/178 124/206/179
f 125/199/172 124/206/179 56/197/170
f 110/207/180 129/208/181 33/209/182
f 33/209/182 129/208/181 130/210/183
f 33/209/182 130/210/183 49/211/61
f 49/211/61 130/210/183 128/212/184
f 128/212/184 130/210/183 127/213/185
f 127/213/185 130/210/183 132/214/186
f 127/213/185 132/214/186 96/215/124
f 96/215/124 132/214/186 131/216/187
f 96/215/124 131/216/187 93/217/123
f 93/217/123 131/216/187 109/218/188
f 109/218/188 131/216/187 110/207/180
f 110/207/180 131/216/187 129/208/181
f 132/214/186 130/210/183 129/208/181
f 132/214/186 129/208/181 131/216/187
f 92/219/189 91/220/190 137/221/191
f 137/221/191 91/220/190 133/222/192
f 137/221/191 133/222/192 138/223/193
f 138/223/193 133/222/192 134/224/194
f 138/223/193 134/224/194 14/225/195
f 14/225/195 30/226/196 138/223/193
f 138/223/193 30/226/196 135/227/197
f 138/223/193 135/227/197 137/221/191
f 137/221/191 135/227/197 136/228/198
f 137/221/191 136/228/198 92/219/189
f 7/229/199 16/230/200 142/231/201
f 142/231/201 16/230/200 15/232/202
f 142/231/201 15/232/202 141/233/203
f 141/233/203 15/232/202 14/234/204
f 141/233/203 14/234/204 134/235/205
f 141/233/203 134/235/205 143/236/206
f 143/236/206 134/235/205 133/237/207
f 143/236/206 133/237/207 139/238/208
f 139/238/208 133/237/207 91/239/209
f 139/238/208 140/240/210 143/236/206
f 143/236/206 140/240/210 144/241/211
f 143/236/206 144/241/211 141/233/203
f 141/233/203 144/241/211 142/231/201
f 140/240/210 7/242/199 144/241/211
f 144/241/211 7/243/199 142/231/201
f 57/244/212 56/245/213 145/246/214
f 145/246/214 56/245/213 124/247/215
f 145/246/214 124/247/215 147/248/216
f 147/248/216 124/247/215 123/249/217
f 147/248/216 123/249/217 116/250/218
f 116/250/218 123/249/217 95/251/219
f 116/250/218 115/252/220 147/248/216
f 147/248/216 115/252/220 148/253/221
f 147/248/216 148/253/221 145/246/214
f 145/246/214 148/253/221 146/254/222
f 145/246/214 146/254/222 57/244/212
f 57/244/212 146/254/222 58/255/223
f 58/255/223 146/254/222 3/256/224
f 115/252/220 3/257/224 148/253/221
f 148/253/221 3/258/224 146/254/222
f 49/259/225 128/260/226 150/261/227
f 150/261/227 128/260/226 127/262/228
f 150/261/227 127/262/228 149/263/229
f 149/263/229 127/262/228 96/264/230
f 149/263/229 96/264/230 122/265/231
f 149/263/229 122/265/231 151/266/232
f 151/266/232 122/265/231 121/267/233
f 151/266/232 121/267/233 72/268/234
f 72/268/234 121/267/233 73/269/235
f 72/268/234 71/270/236 151/266/232
f 151/266/232 71/270/236 152/271/237
f 151/266/232 152/271/237 149/263/229
f 149/263/229 152/271/237 150/261/227
f 71/270/236 49/272/225 152/271/237
f 152/271/237 49/273/225 150/261/227
f 154/274/238 92/275/239 155/276/240
f 155/276/240 92/275/239 136/277/241
f 155/276/240 136/277/241 157/278/242
f 157/278/242 136/277/241 135/279/243
f 157/278/242 135/279/243 38/280/244
f 38/280/244 135/279/243 30/281/245
f 38/280/244 37/282/246 157/278/242
f 157/278/242 37/282/246 158/283/247
f 157/278/242 158/283/247 155/276/240
f 155/276/240 158/283/247 156/284/248
f 155/276/240 156/284/248 154/274/238
f 154/274/238 156/284/248 153/285/249
f 153/285/249 156/284/248 36/286/250
f 37/282/246 36/287/250 158/283/247
f 158/283/247 36/288/250 156/284/248
f 140/289/251 161/290/252 7/291/8
f 7/291/8 161/290/252 162/292/253
f 7/291/8 162/292/253 8/293/254
f 8/293/254 162/292/253 160/294/255
f 160/294/255 162/292/253 159/295/256
f 159/295/256 162/292/253 164/296/257
f 159/295/256 164/296/257 90/297/117
f 90/297/117 164/296/257 163/298/258
f 90/297/117 163/298/258 91/299/118
f 91/299/118 163/298/258 139/300/259
f 139/300/259 163/298/258 140/289/251
f 140/289/251 163/298/258 161/290/252
f 164/296/257 162/292/253 161/290/252
f 164/296/257 161/290/252 163/298/258
f 154/301/260 167/302/261 92/303/262
f 92/303/262 167/302/261 168/304/263
f 92/303/262 168/304/263 89/305/264
f 89/305/264 168/304/263 166/306/265
f 166/306/265 168/304/263 165/307/266
f 165/307/266 168/304/263 170/308/267
f 165/307/266 170/308/267 52/309/66
f 52/309/66 170/308/267 169/310/268
f 52/309/66 169/310/268 36/311/269
f 36/311/269 169/310/268 153/312/270
f 153/312/270 169/310/268 154/301/260
f 154/301/260 169/310/268 167/302/261
f 170/308/267 168/304/263 167/302/261
f 170/308/267 167/302/261 169/310/268
f 53/313/271 60/314/272 172/315/273
f 172/315/273 60/314/272 174/316/274
f 172/315/273 174/316/274 171/317/275
f 171/317/275 174/316/274 175/318/276
f 171/317/275 175/318/276 90/319/277
f 90/319/277 175/318/276 159/320/278
f 159/320/278 175/318/276 176/321/279
f 159/320/278 176/321/279 160/322/280
f 160/322/280 176/321/279 8/323/281
f 60/314/272 59/324/282 174/316/274
f 174/316/274 59/324/282 173/325/283
f 174/316/274 173/325/283 175/318/276
f 175/318/276 173/325/283 176/321/279
f 59/324/282 8/326/281 173/325/283
f 173/325/283 8/327/281 176/321/279
f 89/328/284 166/329/285 178/330/286
f 178/330/286 166/329/285 180/331/287
f 178/330/286 180/331/287 177/332/288
f 177/332/288 180/331/287 181/333/289
f 177/332/288 181/333/289 76/334/290
f 76/334/290 181/333/289 77/335/291
f 77/335/291 181/333/289 182/336/292
f 77/335/291 182/336/292 78/337/293
f 78/337/293 182/336/292 52/338/294
f 166/329/285 165/339/295 180/331/287
f 180/331/287 165/339/295 179/340/296
f 180/331/287 179/340/296 181/333/289
f 181/333/289 179/340/296 182/336/292
f 165/339/295 52/341/294 179/340/296
f 179/340/296 52/342/294 182/336/292
f 76/343/297 53/344/298 183/345/299
f 183/345/299 53/344/298 172/346/300
f 183/345/299 172/346/300 184/347/301
f 184/347/301 172/346/300 171/348/302
f 184/347/301 171/348/302 90/349/303
f 90/349/303 89/350/304 184/347/301
f 184/347/301 89/350/304 178/351/305
f 184/347/301 178/351/305 183/345/299
f 183/345/299 178/351/305 177/352/306
f 183/345/299 177/352/306 76/343/297
# 184 vertices
# 352 texture params
# 306 normals
# 364 facets

# 1 groups
