# WaveFront *.obj file (generated by Autodesk ATF)

mtllib body100_visual.mtl

g Body100

v 63.258312 -64.508477 94.071930
v 63.259905 -64.506885 94.071613
v 63.260686 -64.506104 94.071342
v 63.261450 -64.505340 94.070984
v 63.262185 -64.504604 94.070524
v 63.262887 -64.503903 94.069968
v 63.263547 -64.503243 94.069318
v 63.264151 -64.502639 94.068566
v 63.264694 -64.502095 94.067727
v 63.265177 -64.501613 94.066817
v 63.265586 -64.501203 94.065838
v 63.265914 -64.500876 94.064799
v 63.266165 -64.500625 94.063718
v 63.266340 -64.500450 94.062608
v 63.266438 -64.500352 94.061478
v 63.266471 -64.500318 94.060342
v 63.267178 -64.501026 94.060342
v 63.267145 -64.501059 94.061478
v 63.267047 -64.501157 94.062608
v 63.266872 -64.501332 94.063718
v 63.266621 -64.501583 94.064799
v 63.266293 -64.501910 94.065838
v 63.265884 -64.502320 94.066817
v 63.265401 -64.502802 94.067727
v 63.264858 -64.503346 94.068566
v 63.264254 -64.503950 94.069318
v 63.263594 -64.504610 94.069968
v 63.262892 -64.505311 94.070524
v 63.262157 -64.506047 94.070984
v 63.261393 -64.506811 94.071342
v 63.260612 -64.507592 94.071613
v 63.259019 -64.509185 94.071930
v 63.266441 -64.500349 94.059311
v 63.266353 -64.500436 94.058287
v 63.266202 -64.500587 94.057277
v 63.265983 -64.500807 94.056294
v 63.265696 -64.501094 94.055345
v 63.265344 -64.501446 94.054441
v 63.264928 -64.501862 94.053594
v 63.264460 -64.502329 94.052802
v 63.263945 -64.502844 94.052071
v 63.263383 -64.503407 94.051414
v 63.262780 -64.504010 94.050833
v 63.262138 -64.504652 94.050344
v 63.261458 -64.505331 94.049968
v 63.260753 -64.506036 94.049704
v 63.260032 -64.506757 94.049545
v 63.259304 -64.507486 94.049494
v 63.260011 -64.508193 94.049494
v 63.260740 -64.507464 94.049545
v 63.261460 -64.506744 94.049704
v 63.262166 -64.506038 94.049968
v 63.262845 -64.505359 94.050344
v 63.263487 -64.504717 94.050833
v 63.264090 -64.504114 94.051414
v 63.264652 -64.503551 94.052071
v 63.265167 -64.503037 94.052802
v 63.265635 -64.502569 94.053594
v 63.266051 -64.502153 94.054441
v 63.266403 -64.501801 94.055345
v 63.266690 -64.501514 94.056294
v 63.266910 -64.501294 94.057277
v 63.267061 -64.501143 94.058287
v 63.267148 -64.501056 94.059311
v 63.258488 -64.508302 94.049556
v 63.257680 -64.509110 94.049715
v 63.256888 -64.509902 94.050002
v 63.256120 -64.510670 94.050396
v 63.255380 -64.511409 94.050887
v 63.254675 -64.512115 94.051468
v 63.253345 -64.513445 94.052808
v 63.252079 -64.514710 94.054268
v 63.250853 -64.515937 94.055794
v 63.248468 -64.518322 94.058950
v 63.249175 -64.519029 94.058950
v 63.251560 -64.516644 94.055794
v 63.252786 -64.515417 94.054268
v 63.254052 -64.514152 94.052808
v 63.255382 -64.512822 94.051468
v 63.256087 -64.512117 94.050887
v 63.256827 -64.511377 94.050396
v 63.257595 -64.510609 94.050002
v 63.258387 -64.509817 94.049715
v 63.259195 -64.509009 94.049556
v 63.233835 -64.532954 94.078341
v 63.234543 -64.533661 94.078341
v 63.233835 -64.532954 94.044366
v 63.234543 -64.533661 94.044366
v 63.237462 -64.529328 94.044366
v 63.238169 -64.530035 94.044366
v 63.237462 -64.529328 94.067633
v 63.238169 -64.530035 94.067633
v 63.246903 -64.519887 94.055123
v 63.247610 -64.520594 94.055123
v 63.249674 -64.517115 94.051576
v 63.251116 -64.515674 94.049893
v 63.252613 -64.514176 94.048312
v 63.254199 -64.512591 94.046913
v 63.255039 -64.511750 94.046334
v 63.255912 -64.510878 94.045858
v 63.256809 -64.509981 94.045485
v 63.257725 -64.509065 94.045215
v 63.258653 -64.508137 94.045068
v 63.259587 -64.507203 94.045007
v 63.260294 -64.507910 94.045007
v 63.259360 -64.508844 94.045068
v 63.258432 -64.509772 94.045215
v 63.257516 -64.510688 94.045485
v 63.256619 -64.511585 94.045858
v 63.255747 -64.512457 94.046334
v 63.254906 -64.513298 94.046913
v 63.253320 -64.514883 94.048312
v 63.251823 -64.516381 94.049893
v 63.250381 -64.517823 94.051576
v 63.260632 -64.506158 94.045077
v 63.261668 -64.505121 94.045275
v 63.262684 -64.504105 94.045625
v 63.263671 -64.503118 94.046113
v 63.264613 -64.502176 94.046756
v 63.265507 -64.501283 94.047525
v 63.266346 -64.500443 94.048407
v 63.267124 -64.499666 94.049397
v 63.267833 -64.498957 94.050484
v 63.268448 -64.498342 94.051680
v 63.268976 -64.497813 94.052956
v 63.269403 -64.497387 94.054307
v 63.269716 -64.497073 94.055718
v 63.269932 -64.496857 94.057165
v 63.270057 -64.496733 94.058633
v 63.270097 -64.496692 94.060111
v 63.270804 -64.497399 94.060111
v 63.270764 -64.497440 94.058633
v 63.270639 -64.497564 94.057165
v 63.270423 -64.497781 94.055718
v 63.270110 -64.498094 94.054307
v 63.269683 -64.498521 94.052956
v 63.269155 -64.499049 94.051680
v 63.268540 -64.499664 94.050484
v 63.267831 -64.500373 94.049397
v 63.267053 -64.501151 94.048407
v 63.266214 -64.501990 94.047525
v 63.265320 -64.502884 94.046756
v 63.264379 -64.503825 94.046113
v 63.263391 -64.504812 94.045625
v 63.262375 -64.505829 94.045275
v 63.261339 -64.506865 94.045077
v 63.270051 -64.496739 94.061734
v 63.269898 -64.496892 94.063343
v 63.269630 -64.497160 94.064921
v 63.269251 -64.497539 94.066454
v 63.268751 -64.498039 94.067915
v 63.268148 -64.498642 94.069296
v 63.267446 -64.499344 94.070581
v 63.266654 -64.500135 94.071757
v 63.265790 -64.500999 94.072826
v 63.264855 -64.501935 94.073767
v 63.263855 -64.502935 94.074564
v 63.262805 -64.503985 94.075219
v 63.261714 -64.505075 94.075728
v 63.260595 -64.506195 94.076086
v 63.259458 -64.507332 94.076313
v 63.258312 -64.508477 94.076418
v 63.259019 -64.509185 94.076418
v 63.260165 -64.508039 94.076313
v 63.261302 -64.506902 94.076086
v 63.262421 -64.505782 94.075728
v 63.263512 -64.504692 94.075219
v 63.264562 -64.503642 94.074564
v 63.265562 -64.502642 94.073767
v 63.266497 -64.501706 94.072826
v 63.267361 -64.500843 94.071757
v 63.268153 -64.500051 94.070581
v 63.268855 -64.499349 94.069296
v 63.269458 -64.498746 94.067915
v 63.269958 -64.498246 94.066454
v 63.270337 -64.497867 94.064921
v 63.270605 -64.497599 94.063343
v 63.270758 -64.497446 94.061734
vt 0.018213 0.001000 0.000000
vt 0.015936 0.001000 0.000000
vt 0.018213 0.000000 0.000000
vt 0.015936 0.000000 0.000000
vt 0.014798 0.001000 0.000000
vt 0.014798 0.000000 0.000000
vt 0.013659 0.001000 0.000000
vt 0.013659 0.000000 0.000000
vt 0.012521 0.001000 0.000000
vt 0.012521 0.000000 0.000000
vt 0.011383 0.001000 0.000000
vt 0.011383 0.000000 0.000000
vt 0.010245 0.001000 0.000000
vt 0.010245 0.000000 0.000000
vt 0.009106 0.001000 0.000000
vt 0.009106 0.000000 0.000000
vt 0.007968 0.001000 0.000000
vt 0.007968 0.000000 0.000000
vt 0.006830 0.001000 0.000000
vt 0.006830 0.000000 0.000000
vt 0.005691 0.001000 0.000000
vt 0.005691 0.000000 0.000000
vt 0.004553 0.001000 0.000000
vt 0.004553 0.000000 0.000000
vt 0.003415 0.001000 0.000000
vt 0.003415 0.000000 0.000000
vt 0.002277 0.001000 0.000000
vt 0.002277 0.000000 0.000000
vt 0.001138 0.001000 0.000000
vt 0.001138 0.000000 0.000000
vt 0.000000 0.001000 0.000000
vt 0.000000 0.000000 0.000000
vt 0.016512 0.001000 0.000000
vt 0.015480 0.001000 0.000000
vt 0.016512 0.000000 0.000000
vt 0.015480 0.000000 0.000000
vt 0.014448 0.001000 0.000000
vt 0.014448 0.000000 0.000000
vt 0.013416 0.001000 0.000000
vt 0.013416 0.000000 0.000000
vt 0.012384 0.001000 0.000000
vt 0.012384 0.000000 0.000000
vt 0.011352 0.001000 0.000000
vt 0.011352 0.000000 0.000000
vt 0.010320 0.001000 0.000000
vt 0.010320 0.000000 0.000000
vt 0.009288 0.001000 0.000000
vt 0.009288 0.000000 0.000000
vt 0.008256 0.001000 0.000000
vt 0.008256 0.000000 0.000000
vt 0.007224 0.001000 0.000000
vt 0.007224 0.000000 0.000000
vt 0.006192 0.001000 0.000000
vt 0.006192 0.000000 0.000000
vt 0.005160 0.001000 0.000000
vt 0.005160 0.000000 0.000000
vt 0.004128 0.001000 0.000000
vt 0.004128 0.000000 0.000000
vt 0.003096 0.001000 0.000000
vt 0.003096 0.000000 0.000000
vt 0.002064 0.001000 0.000000
vt 0.002064 0.000000 0.000000
vt 0.001032 0.001000 0.000000
vt 0.001032 0.000000 0.000000
vt 0.000000 0.001000 0.000000
vt 0.000000 0.000000 0.000000
vt 0.018480 0.001000 0.000000
vt 0.017325 0.001000 0.000000
vt 0.018480 0.000000 0.000000
vt 0.017325 0.000000 0.000000
vt 0.016170 0.001000 0.000000
vt 0.016170 0.000000 0.000000
vt 0.015015 0.001000 0.000000
vt 0.015015 0.000000 0.000000
vt 0.013860 0.001000 0.000000
vt 0.013860 0.000000 0.000000
vt 0.012705 0.001000 0.000000
vt 0.012705 0.000000 0.000000
vt 0.011550 0.001000 0.000000
vt 0.011550 0.000000 0.000000
vt 0.009240 0.001000 0.000000
vt 0.009240 0.000000 0.000000
vt 0.006930 0.001000 0.000000
vt 0.006930 0.000000 0.000000
vt 0.004620 0.001000 0.000000
vt 0.004620 0.000000 0.000000
vt 0.000000 0.001000 0.000000
vt 0.000000 0.000000 0.000000
vt -0.028359 -0.001000 0.000000
vt 0.000000 -0.001000 0.000000
vt -0.028359 0.000000 0.000000
vt 0.000000 0.000000 0.000000
vt -0.033974 -0.001000 0.000000
vt -0.000000 -0.001000 0.000000
vt -0.033974 -0.000000 0.000000
vt 0.000000 0.000000 0.000000
vt -0.005128 -0.001000 0.000000
vt -0.000000 -0.001000 0.000000
vt -0.005128 0.000000 0.000000
vt 0.000000 0.000000 0.000000
vt -0.023267 -0.001000 0.000000
vt 0.000000 -0.001000 0.000000
vt -0.023267 -0.000000 0.000000
vt 0.000000 0.000000 0.000000
vt -0.018296 -0.001000 0.000000
vt 0.000000 -0.001000 0.000000
vt -0.018296 -0.000000 0.000000
vt 0.000000 0.000000 0.000000
vt 0.021150 0.001000 0.000000
vt 0.015863 0.001000 0.000000
vt 0.021150 0.000000 0.000000
vt 0.015863 0.000000 0.000000
vt 0.013219 0.001000 0.000000
vt 0.013219 0.000000 0.000000
vt 0.010575 0.001000 0.000000
vt 0.010575 0.000000 0.000000
vt 0.007931 0.001000 0.000000
vt 0.007931 0.000000 0.000000
vt 0.006609 0.001000 0.000000
vt 0.006609 0.000000 0.000000
vt 0.005288 0.001000 0.000000
vt 0.005288 0.000000 0.000000
vt 0.003966 0.001000 0.000000
vt 0.003966 0.000000 0.000000
vt 0.002644 0.001000 0.000000
vt 0.002644 0.000000 0.000000
vt 0.001322 0.001000 0.000000
vt 0.001322 0.000000 0.000000
vt 0.000000 0.001000 0.000000
vt 0.000000 0.000000 0.000000
vt 0.023685 0.001000 0.000000
vt 0.022205 0.001000 0.000000
vt 0.023685 0.000000 0.000000
vt 0.022205 0.000000 0.000000
vt 0.020724 0.001000 0.000000
vt 0.020724 0.000000 0.000000
vt 0.019244 0.001000 0.000000
vt 0.019244 0.000000 0.000000
vt 0.017764 0.001000 0.000000
vt 0.017764 0.000000 0.000000
vt 0.016283 0.001000 0.000000
vt 0.016283 0.000000 0.000000
vt 0.014803 0.001000 0.000000
vt 0.014803 0.000000 0.000000
vt 0.013323 0.001000 0.000000
vt 0.013323 0.000000 0.000000
vt 0.011842 0.001000 0.000000
vt 0.011842 0.000000 0.000000
vt 0.010362 0.001000 0.000000
vt 0.010362 0.000000 0.000000
vt 0.008882 0.001000 0.000000
vt 0.008882 0.000000 0.000000
vt 0.007402 0.001000 0.000000
vt 0.007402 0.000000 0.000000
vt 0.005921 0.001000 0.000000
vt 0.005921 0.000000 0.000000
vt 0.004441 0.001000 0.000000
vt 0.004441 0.000000 0.000000
vt 0.002961 0.001000 0.000000
vt 0.002961 0.000000 0.000000
vt 0.001480 0.001000 0.000000
vt 0.001480 0.000000 0.000000
vt 0.000000 0.001000 0.000000
vt 0.000000 0.000000 0.000000
vt 0.025988 0.001000 0.000000
vt 0.024364 0.001000 0.000000
vt 0.025988 0.000000 0.000000
vt 0.024364 0.000000 0.000000
vt 0.022740 0.001000 0.000000
vt 0.022740 0.000000 0.000000
vt 0.021115 0.001000 0.000000
vt 0.021115 0.000000 0.000000
vt 0.019491 0.001000 0.000000
vt 0.019491 0.000000 0.000000
vt 0.017867 0.001000 0.000000
vt 0.017867 0.000000 0.000000
vt 0.016243 0.001000 0.000000
vt 0.016243 0.000000 0.000000
vt 0.014618 0.001000 0.000000
vt 0.014618 0.000000 0.000000
vt 0.012994 0.001000 0.000000
vt 0.012994 0.000000 0.000000
vt 0.011370 0.001000 0.000000
vt 0.011370 0.000000 0.000000
vt 0.009746 0.001000 0.000000
vt 0.009746 0.000000 0.000000
vt 0.008121 0.001000 0.000000
vt 0.008121 0.000000 0.000000
vt 0.006497 0.001000 0.000000
vt 0.006497 0.000000 0.000000
vt 0.004873 0.001000 0.000000
vt 0.004873 0.000000 0.000000
vt 0.003249 0.001000 0.000000
vt 0.003249 0.000000 0.000000
vt 0.001624 0.001000 0.000000
vt 0.001624 0.000000 0.000000
vt 0.000000 0.001000 0.000000
vt 0.000000 0.000000 0.000000
vt -0.004487 -0.001000 0.000000
vt -0.000000 -0.001000 0.000000
vt -0.004487 0.000000 0.000000
vt 0.000000 0.000000 0.000000
vt 0.006005 -0.003048 0.000000
vt 0.005029 -0.007520 0.000000
vt 0.008257 -0.003364 0.000000
vt 0.006637 -0.007748 0.000000
vt 0.008257 -0.007852 0.000000
vt 0.003446 -0.007162 0.000000
vt 0.004900 -0.002776 0.000000
vt 0.001904 -0.006653 0.000000
vt 0.000418 -0.005998 0.000000
vt 0.003820 -0.002418 0.000000
vt -0.000996 -0.005201 0.000000
vt 0.002780 -0.001958 0.000000
vt -0.002319 -0.004260 0.000000
vt 0.001787 -0.001402 0.000000
vt -0.003540 -0.003191 0.000000
vt 0.000854 -0.000752 0.000000
vt -0.004660 -0.002015 0.000000
vt 0.000000 0.000000 0.000000
vt -0.005653 -0.000731 0.000000
vt -0.000769 0.000839 0.000000
vt -0.001451 0.001749 0.000000
vt -0.006505 0.000651 0.000000
vt -0.002030 0.002728 0.000000
vt -0.007212 0.002112 0.000000
vt -0.002494 0.003767 0.000000
vt -0.007748 0.003645 0.000000
vt -0.002848 0.004848 0.000000
vt -0.008128 0.005223 0.000000
vt -0.003096 0.005958 0.000000
vt -0.008344 0.006832 0.000000
vt -0.003234 0.007087 0.000000
vt -0.003282 0.008224 0.000000
vt -0.008410 0.008455 0.000000
vt -0.003238 0.009255 0.000000
vt -0.008352 0.009933 0.000000
vt -0.003115 0.010279 0.000000
vt -0.008176 0.011401 0.000000
vt -0.002901 0.011289 0.000000
vt -0.007871 0.012848 0.000000
vt -0.002591 0.012272 0.000000
vt -0.007427 0.014259 0.000000
vt -0.002185 0.013221 0.000000
vt -0.001687 0.014124 0.000000
vt -0.006824 0.015610 0.000000
vt -0.001099 0.014972 0.000000
vt -0.006077 0.016886 0.000000
vt -0.000438 0.015764 0.000000
vt -0.005207 0.018082 0.000000
vt 0.000291 0.016495 0.000000
vt -0.004204 0.019169 0.000000
vt 0.001086 0.017152 0.000000
vt -0.003105 0.020159 0.000000
vt 0.001939 0.017733 0.000000
vt -0.001918 0.021041 0.000000
vt 0.002847 0.018222 0.000000
vt -0.000654 0.021810 0.000000
vt 0.003807 0.018598 0.000000
vt 0.000678 0.022453 0.000000
vt 0.002074 0.022941 0.000000
vt 0.004805 0.018861 0.000000
vt 0.003511 0.023291 0.000000
vt 0.005824 0.019021 0.000000
vt 0.004977 0.023489 0.000000
vt 0.006454 0.023559 0.000000
vt 0.006855 0.019071 0.000000
vt 0.007775 0.023498 0.000000
vt 0.008009 0.019010 0.000000
vt 0.009088 0.023351 0.000000
vt 0.010383 0.023081 0.000000
vt 0.009152 0.018851 0.000000
vt 0.011652 0.022708 0.000000
vt 0.012885 0.022232 0.000000
vt 0.010272 0.018564 0.000000
vt 0.014074 0.021653 0.000000
vt 0.011358 0.018170 0.000000
vt 0.016316 0.020254 0.000000
vt 0.012403 0.017679 0.000000
vt 0.013401 0.017098 0.000000
vt 0.018434 0.018672 0.000000
vt 0.015282 0.015758 0.000000
vt 0.020473 0.016990 0.000000
vt 0.017072 0.014298 0.000000
vt 0.018806 0.012772 0.000000
vt 0.024393 0.013442 0.000000
vt 0.022179 0.009616 0.000000
vt 0.037744 0.000932 0.000000
vt 0.042872 -0.009775 0.000000
vt 0.042872 0.024200 0.000000
vt 0.037744 0.024200 0.000000
vt 0.003234 0.007087 0.000000
vt 0.008344 0.006832 0.000000
vt 0.003282 0.008224 0.000000
vt 0.008410 0.008455 0.000000
vt 0.003238 0.009255 0.000000
vt 0.008352 0.009933 0.000000
vt 0.003115 0.010279 0.000000
vt 0.008176 0.011401 0.000000
vt 0.002901 0.011289 0.000000
vt 0.007871 0.012848 0.000000
vt 0.002591 0.012272 0.000000
vt 0.007427 0.014259 0.000000
vt 0.002185 0.013221 0.000000
vt 0.001687 0.014124 0.000000
vt 0.006824 0.015610 0.000000
vt 0.001099 0.014972 0.000000
vt 0.006077 0.016886 0.000000
vt 0.000438 0.015764 0.000000
vt 0.005207 0.018082 0.000000
vt -0.000291 0.016495 0.000000
vt 0.004204 0.019169 0.000000
vt -0.001086 0.017152 0.000000
vt 0.003105 0.020159 0.000000
vt -0.001939 0.017733 0.000000
vt 0.001918 0.021041 0.000000
vt -0.002847 0.018222 0.000000
vt 0.000654 0.021810 0.000000
vt -0.003807 0.018598 0.000000
vt -0.000678 0.022453 0.000000
vt -0.002074 0.022941 0.000000
vt 0.003096 0.005958 0.000000
vt 0.008128 0.005223 0.000000
vt 0.002848 0.004848 0.000000
vt 0.007748 0.003645 0.000000
vt 0.002494 0.003767 0.000000
vt 0.007212 0.002112 0.000000
vt 0.002030 0.002728 0.000000
vt 0.006505 0.000651 0.000000
vt 0.001451 0.001749 0.000000
vt 0.005653 -0.000731 0.000000
vt 0.000769 0.000839 0.000000
vt 0.000000 0.000000 0.000000
vt 0.004660 -0.002015 0.000000
vt -0.000854 -0.000752 0.000000
vt 0.003540 -0.003191 0.000000
vt -0.001787 -0.001402 0.000000
vt 0.002319 -0.004260 0.000000
vt -0.002780 -0.001958 0.000000
vt 0.000996 -0.005201 0.000000
vt -0.003820 -0.002418 0.000000
vt -0.000418 -0.005998 0.000000
vt -0.004900 -0.002776 0.000000
vt -0.001904 -0.006653 0.000000
vt -0.003446 -0.007162 0.000000
vt -0.006005 -0.003048 0.000000
vt -0.005029 -0.007520 0.000000
vt -0.008257 -0.003364 0.000000
vt -0.006637 -0.007748 0.000000
vt -0.008257 -0.007852 0.000000
vt -0.004805 0.018861 0.000000
vt -0.003511 0.023291 0.000000
vt -0.005824 0.019021 0.000000
vt -0.004977 0.023489 0.000000
vt -0.006454 0.023559 0.000000
vt -0.006855 0.019071 0.000000
vt -0.007775 0.023498 0.000000
vt -0.008009 0.019010 0.000000
vt -0.009088 0.023351 0.000000
vt -0.010383 0.023081 0.000000
vt -0.009152 0.018851 0.000000
vt -0.011652 0.022708 0.000000
vt -0.012885 0.022232 0.000000
vt -0.010272 0.018564 0.000000
vt -0.014074 0.021653 0.000000
vt -0.011358 0.018170 0.000000
vt -0.016316 0.020254 0.000000
vt -0.012403 0.017679 0.000000
vt -0.013401 0.017098 0.000000
vt -0.018434 0.018672 0.000000
vt -0.015282 0.015758 0.000000
vt -0.020473 0.016990 0.000000
vt -0.017072 0.014298 0.000000
vt -0.018806 0.012772 0.000000
vt -0.024393 0.013442 0.000000
vt -0.022179 0.009616 0.000000
vt -0.037744 0.000932 0.000000
vt -0.042872 -0.009775 0.000000
vt -0.042872 0.024200 0.000000
vt -0.037744 0.024200 0.000000
vn -0.067264 -0.067264 -0.995465
vn -0.146762 -0.146762 -0.978224
vn -0.067264 -0.067264 -0.995465
vn -0.146762 -0.146762 -0.978224
vn -0.192627 -0.192627 -0.962180
vn -0.192627 -0.192627 -0.962180
vn -0.253563 -0.253563 -0.933494
vn -0.253563 -0.253563 -0.933494
vn -0.317002 -0.317002 -0.893879
vn -0.317002 -0.317002 -0.893879
vn -0.373992 -0.373992 -0.848681
vn -0.373992 -0.373992 -0.848681
vn -0.435255 -0.435255 -0.788103
vn -0.435255 -0.435255 -0.788103
vn -0.496674 -0.496674 -0.711780
vn -0.496674 -0.496674 -0.711780
vn -0.544079 -0.544079 -0.638714
vn -0.544079 -0.544079 -0.638714
vn -0.587082 -0.587082 -0.557378
vn -0.587082 -0.587082 -0.557378
vn -0.628424 -0.628424 -0.458439
vn -0.628424 -0.628424 -0.458439
vn -0.660260 -0.660260 -0.357928
vn -0.660260 -0.660260 -0.357928
vn -0.681832 -0.681832 -0.264973
vn -0.681832 -0.681832 -0.264973
vn -0.696813 -0.696813 -0.170009
vn -0.696813 -0.696813 -0.170009
vn -0.705226 -0.705226 -0.072894
vn -0.705226 -0.705226 -0.072894
vn -0.706866 -0.706866 -0.026115
vn -0.706866 -0.706866 -0.026115
vn -0.706858 -0.706858 0.026514
vn -0.705256 -0.705256 0.072306
vn -0.706858 -0.706858 0.026514
vn -0.705256 -0.705256 0.072306
vn -0.697509 -0.697509 0.164205
vn -0.697509 -0.697509 0.164205
vn -0.684184 -0.684184 0.252557
vn -0.684184 -0.684184 0.252557
vn -0.662845 -0.662845 0.348243
vn -0.662845 -0.662845 0.348243
vn -0.635736 -0.635736 0.437813
vn -0.635736 -0.635736 0.437813
vn -0.600835 -0.600835 0.527253
vn -0.600835 -0.600835 0.527253
vn -0.561318 -0.561318 0.608147
vn -0.561318 -0.561318 0.608147
vn -0.522796 -0.522796 0.673326
vn -0.522796 -0.522796 0.673326
vn -0.476977 -0.476977 0.738232
vn -0.476977 -0.476977 0.738232
vn -0.423984 -0.423984 0.800296
vn -0.423984 -0.423984 0.800296
vn -0.369272 -0.369272 0.852805
vn -0.369272 -0.369272 0.852805
vn -0.298055 -0.298055 0.906822
vn -0.298055 -0.298055 0.906822
vn -0.217997 -0.217997 0.951291
vn -0.217997 -0.217997 0.951291
vn -0.145405 -0.145405 0.978629
vn -0.145405 -0.145405 0.978629
vn -0.067035 -0.067035 0.995496
vn -0.067035 -0.067035 0.995496
vn -0.018817 -0.018817 0.999646
vn -0.018817 -0.018817 0.999646
vn 0.027185 0.027185 0.999261
vn 0.058532 0.058532 0.996568
vn 0.027185 0.027185 0.999261
vn 0.058532 0.058532 0.996568
vn 0.138476 0.138476 0.980637
vn 0.138476 0.138476 0.980637
vn 0.209474 0.209474 0.955113
vn 0.209474 0.209474 0.955113
vn 0.271714 0.271714 0.923224
vn 0.271714 0.271714 0.923224
vn 0.328829 0.328829 0.885293
vn 0.328829 0.328829 0.885293
vn 0.380948 0.380948 0.842471
vn 0.380948 0.380948 0.842471
vn 0.438682 0.438682 0.784293
vn 0.438682 0.438682 0.784293
vn 0.457715 0.457715 0.762230
vn 0.457715 0.457715 0.762230
vn 0.473404 0.473404 0.742817
vn 0.473404 0.473404 0.742817
vn 0.489151 0.489151 0.722124
vn 0.489151 0.489151 0.722124
vn 0.483503 0.483503 0.729691
vn 0.483503 0.483503 0.729691
vn 0.483503 0.483503 0.729691
vn 0.483503 0.483503 0.729691
vn -0.707107 -0.707107 -0.000000
vn -0.707107 -0.707107 -0.000000
vn -0.707107 -0.707107 -0.000000
vn -0.707107 -0.707107 -0.000000
vn 0.000000 -0.000000 -1.000000
vn 0.000000 -0.000000 -1.000000
vn 0.000000 -0.000000 -1.000000
vn 0.000000 -0.000000 -1.000000
vn 0.707107 0.707107 0.000000
vn 0.707107 0.707107 0.000000
vn 0.707107 0.707107 0.000000
vn 0.707107 0.707107 0.000000
vn -0.483478 -0.483478 -0.729725
vn -0.483478 -0.483478 -0.729725
vn -0.483478 -0.483478 -0.729725
vn -0.483478 -0.483478 -0.729725
vn -0.482365 -0.482365 -0.731196
vn -0.459145 -0.459145 -0.760508
vn -0.482365 -0.482365 -0.731196
vn -0.459145 -0.459145 -0.760508
vn -0.440518 -0.440518 -0.782232
vn -0.440518 -0.440518 -0.782232
vn -0.402172 -0.402172 -0.822506
vn -0.402172 -0.402172 -0.822506
vn -0.335588 -0.335588 -0.880206
vn -0.335588 -0.335588 -0.880206
vn -0.283003 -0.283003 -0.916416
vn -0.283003 -0.283003 -0.916416
vn -0.226169 -0.226169 -0.947468
vn -0.226169 -0.226169 -0.947468
vn -0.173143 -0.173143 -0.969558
vn -0.173143 -0.173143 -0.969558
vn -0.113015 -0.113015 -0.987145
vn -0.113015 -0.113015 -0.987145
vn -0.048080 -0.048080 -0.997686
vn -0.048080 -0.048080 -0.997686
vn -0.024547 -0.024547 -0.999397
vn -0.024547 -0.024547 -0.999397
vn 0.021227 0.021227 -0.999549
vn 0.057501 0.057501 -0.996688
vn 0.021227 0.021227 -0.999549
vn 0.057501 0.057501 -0.996688
vn 0.132522 0.132522 -0.982281
vn 0.132522 0.132522 -0.982281
vn 0.198887 0.198887 -0.959629
vn 0.198887 0.198887 -0.959629
vn 0.271547 0.271547 -0.923322
vn 0.271547 0.271547 -0.923322
vn 0.339400 0.339400 -0.877277
vn 0.339400 0.339400 -0.877277
vn 0.394014 0.394014 -0.830365
vn 0.394014 0.394014 -0.830365
vn 0.449575 0.449575 -0.771858
vn 0.449575 0.449575 -0.771858
vn 0.494035 0.494035 -0.715443
vn 0.494035 0.494035 -0.715443
vn 0.547667 0.547667 -0.632551
vn 0.547667 0.547667 -0.632551
vn 0.591847 0.591847 -0.547207
vn 0.591847 0.591847 -0.547207
vn 0.627923 0.627923 -0.459811
vn 0.627923 0.627923 -0.459811
vn 0.661840 0.661840 -0.352046
vn 0.661840 0.661840 -0.352046
vn 0.684574 0.684574 -0.250431
vn 0.684574 0.684574 -0.250431
vn 0.697464 0.697464 -0.164582
vn 0.697464 0.697464 -0.164582
vn 0.705367 0.705367 -0.070115
vn 0.705367 0.705367 -0.070115
vn 0.706913 0.706913 -0.023404
vn 0.706913 0.706913 -0.023404
vn 0.706935 0.706935 0.022064
vn 0.704955 0.704955 0.077956
vn 0.706935 0.706935 0.022064
vn 0.704955 0.704955 0.077956
vn 0.694843 0.694843 0.185438
vn 0.694843 0.694843 0.185438
vn 0.678743 0.678743 0.280384
vn 0.678743 0.678743 0.280384
vn 0.652999 0.652999 0.383647
vn 0.652999 0.652999 0.383647
vn 0.619599 0.619599 0.481865
vn 0.619599 0.619599 0.481865
vn 0.581853 0.581853 0.568238
vn 0.581853 0.581853 0.568238
vn 0.535235 0.535235 0.653488
vn 0.535235 0.535235 0.653488
vn 0.489641 0.489641 0.721459
vn 0.489641 0.489641 0.721459
vn 0.439277 0.439277 0.783627
vn 0.439277 0.439277 0.783627
vn 0.378644 0.378644 0.844546
vn 0.378644 0.378644 0.844546
vn 0.315967 0.315967 0.894612
vn 0.315967 0.315967 0.894612
vn 0.254540 0.254540 0.932963
vn 0.254540 0.254540 0.932963
vn 0.186700 0.186700 0.964514
vn 0.186700 0.186700 0.964514
vn 0.128600 0.128600 0.983323
vn 0.128600 0.128600 0.983323
vn 0.066548 0.066548 0.995562
vn 0.066548 0.066548 0.995562
vn 0.034696 0.034696 0.998795
vn 0.034696 0.034696 0.998795
vn -0.707107 -0.707107 -0.000000
vn -0.707107 -0.707107 -0.000000
vn -0.707107 -0.707107 -0.000000
vn -0.707107 -0.707107 -0.000000
vn 0.707107 -0.707107 0.000000
vn 0.707107 -0.707107 0.000000
vn 0.707107 -0.707107 0.000000
vn 0.707107 -0.707107 0.000000
vn 0.707107 -0.707107 0.000000
vn 0.707107 -0.707107 0.000000
vn 0.707107 -0.707107 0.000000
vn 0.707107 -0.707107 0.000000
vn 0.707107 -0.707107 0.000000
vn 0.707107 -0.707107 0.000000
vn 0.707107 -0.707107 0.000000
vn 0.707107 -0.707107 0.000000
vn 0.707107 -0.707107 0.000000
vn 0.707107 -0.707107 0.000000
vn 0.707107 -0.707107 0.000000
vn 0.707107 -0.707107 0.000000
vn 0.707107 -0.707107 0.000000
vn 0.707107 -0.707107 0.000000
vn 0.707107 -0.707107 0.000000
vn 0.707107 -0.707107 0.000000
vn 0.707107 -0.707107 0.000000
vn 0.707107 -0.707107 0.000000
vn 0.707107 -0.707107 0.000000
vn 0.707107 -0.707107 0.000000
vn 0.707107 -0.707107 0.000000
vn 0.707107 -0.707107 0.000000
vn 0.707107 -0.707107 0.000000
vn 0.707107 -0.707107 0.000000
vn 0.707107 -0.707107 0.000000
vn 0.707107 -0.707107 0.000000
vn 0.707107 -0.707107 0.000000
vn 0.707107 -0.707107 0.000000
vn 0.707107 -0.707107 0.000000
vn 0.707107 -0.707107 0.000000
vn 0.707107 -0.707107 0.000000
vn 0.707107 -0.707107 0.000000
vn 0.707107 -0.707107 0.000000
vn 0.707107 -0.707107 0.000000
vn 0.707107 -0.707107 0.000000
vn 0.707107 -0.707107 0.000000
vn 0.707107 -0.707107 0.000000
vn 0.707107 -0.707107 0.000000
vn 0.707107 -0.707107 0.000000
vn 0.707107 -0.707107 0.000000
vn 0.707107 -0.707107 0.000000
vn 0.707107 -0.707107 0.000000
vn 0.707107 -0.707107 0.000000
vn 0.707107 -0.707107 0.000000
vn 0.707107 -0.707107 0.000000
vn 0.707107 -0.707107 0.000000
vn 0.707107 -0.707107 0.000000
vn 0.707107 -0.707107 0.000000
vn 0.707107 -0.707107 0.000000
vn 0.707107 -0.707107 0.000000
vn 0.707107 -0.707107 0.000000
vn 0.707107 -0.707107 0.000000
vn 0.707107 -0.707107 0.000000
vn 0.707107 -0.707107 0.000000
vn 0.707107 -0.707107 0.000000
vn 0.707107 -0.707107 0.000000
vn 0.707107 -0.707107 0.000000
vn 0.707107 -0.707107 0.000000
vn 0.707107 -0.707107 0.000000
vn 0.707107 -0.707107 0.000000
vn 0.707107 -0.707107 0.000000
vn 0.707107 -0.707107 0.000000
vn 0.707107 -0.707107 0.000000
vn 0.707107 -0.707107 0.000000
vn 0.707107 -0.707107 0.000000
vn 0.707107 -0.707107 0.000000
vn 0.707107 -0.707107 0.000000
vn 0.707107 -0.707107 0.000000
vn 0.707107 -0.707107 0.000000
vn 0.707107 -0.707107 0.000000
vn 0.707107 -0.707107 0.000000
vn 0.707107 -0.707107 0.000000
vn 0.707107 -0.707107 0.000000
vn 0.707107 -0.707107 0.000000
vn 0.707107 -0.707107 0.000000
vn 0.707107 -0.707107 0.000000
vn 0.707107 -0.707107 0.000000
vn 0.707107 -0.707107 0.000000
vn 0.707107 -0.707107 0.000000
vn 0.707107 -0.707107 0.000000
vn 0.707107 -0.707107 0.000000
vn 0.707107 -0.707107 0.000000
vn 0.707107 -0.707107 0.000000
vn 0.707107 -0.707107 0.000000
vn 0.707107 -0.707107 0.000000
vn -0.707107 0.707107 -0.000000
vn -0.707107 0.707107 -0.000000
vn -0.707107 0.707107 -0.000000
vn -0.707107 0.707107 -0.000000
vn -0.707107 0.707107 -0.000000
vn -0.707107 0.707107 -0.000000
vn -0.707107 0.707107 -0.000000
vn -0.707107 0.707107 -0.000000
vn -0.707107 0.707107 -0.000000
vn -0.707107 0.707107 -0.000000
vn -0.707107 0.707107 -0.000000
vn -0.707107 0.707107 -0.000000
vn -0.707107 0.707107 -0.000000
vn -0.707107 0.707107 -0.000000
vn -0.707107 0.707107 -0.000000
vn -0.707107 0.707107 -0.000000
vn -0.707107 0.707107 -0.000000
vn -0.707107 0.707107 -0.000000
vn -0.707107 0.707107 -0.000000
vn -0.707107 0.707107 -0.000000
vn -0.707107 0.707107 -0.000000
vn -0.707107 0.707107 -0.000000
vn -0.707107 0.707107 -0.000000
vn -0.707107 0.707107 -0.000000
vn -0.707107 0.707107 -0.000000
vn -0.707107 0.707107 -0.000000
vn -0.707107 0.707107 -0.000000
vn -0.707107 0.707107 -0.000000
vn -0.707107 0.707107 -0.000000
vn -0.707107 0.707107 -0.000000
vn -0.707107 0.707107 -0.000000
vn -0.707107 0.707107 -0.000000
vn -0.707107 0.707107 -0.000000
vn -0.707107 0.707107 -0.000000
vn -0.707107 0.707107 -0.000000
vn -0.707107 0.707107 -0.000000
vn -0.707107 0.707107 -0.000000
vn -0.707107 0.707107 -0.000000
vn -0.707107 0.707107 -0.000000
vn -0.707107 0.707107 -0.000000
vn -0.707107 0.707107 -0.000000
vn -0.707107 0.707107 -0.000000
vn -0.707107 0.707107 -0.000000
vn -0.707107 0.707107 -0.000000
vn -0.707107 0.707107 -0.000000
vn -0.707107 0.707107 -0.000000
vn -0.707107 0.707107 -0.000000
vn -0.707107 0.707107 -0.000000
vn -0.707107 0.707107 -0.000000
vn -0.707107 0.707107 -0.000000
vn -0.707107 0.707107 -0.000000
vn -0.707107 0.707107 -0.000000
vn -0.707107 0.707107 -0.000000
vn -0.707107 0.707107 -0.000000
vn -0.707107 0.707107 -0.000000
vn -0.707107 0.707107 -0.000000
vn -0.707107 0.707107 -0.000000
vn -0.707107 0.707107 -0.000000
vn -0.707107 0.707107 -0.000000
vn -0.707107 0.707107 -0.000000
vn -0.707107 0.707107 -0.000000
vn -0.707107 0.707107 -0.000000
vn -0.707107 0.707107 -0.000000
vn -0.707107 0.707107 -0.000000
vn -0.707107 0.707107 -0.000000
vn -0.707107 0.707107 -0.000000
vn -0.707107 0.707107 -0.000000
vn -0.707107 0.707107 -0.000000
vn -0.707107 0.707107 -0.000000
vn -0.707107 0.707107 -0.000000
vn -0.707107 0.707107 -0.000000
vn -0.707107 0.707107 -0.000000
vn -0.707107 0.707107 -0.000000
vn -0.707107 0.707107 -0.000000
vn -0.707107 0.707107 -0.000000
vn -0.707107 0.707107 -0.000000
vn -0.707107 0.707107 -0.000000
vn -0.707107 0.707107 -0.000000
vn -0.707107 0.707107 -0.000000
vn -0.707107 0.707107 -0.000000
vn -0.707107 0.707107 -0.000000
vn -0.707107 0.707107 -0.000000
vn -0.707107 0.707107 -0.000000
vn -0.707107 0.707107 -0.000000
vn -0.707107 0.707107 -0.000000
vn -0.707107 0.707107 -0.000000
vn -0.707107 0.707107 -0.000000
vn -0.707107 0.707107 -0.000000
vn -0.707107 0.707107 -0.000000
usemtl Opaque(202,209,238)
f 1/1/1 2/2/2 32/3/3
f 32/3/3 2/2/2 31/4/4
f 31/4/4 2/2/2 3/5/5
f 31/4/4 3/5/5 30/6/6
f 30/6/6 3/5/5 4/7/7
f 30/6/6 4/7/7 29/8/8
f 29/8/8 4/7/7 5/9/9
f 29/8/8 5/9/9 28/10/10
f 28/10/10 5/9/9 6/11/11
f 28/10/10 6/11/11 27/12/12
f 27/12/12 6/11/11 7/13/13
f 27/12/12 7/13/13 26/14/14
f 26/14/14 7/13/13 8/15/15
f 26/14/14 8/15/15 25/16/16
f 25/16/16 8/15/15 9/17/17
f 25/16/16 9/17/17 24/18/18
f 24/18/18 9/17/17 10/19/19
f 24/18/18 10/19/19 23/20/20
f 23/20/20 10/19/19 11/21/21
f 23/20/20 11/21/21 22/22/22
f 22/22/22 11/21/21 12/23/23
f 22/22/22 12/23/23 21/24/24
f 21/24/24 12/23/23 13/25/25
f 21/24/24 13/25/25 20/26/26
f 20/26/26 13/25/25 14/27/27
f 20/26/26 14/27/27 19/28/28
f 19/28/28 14/27/27 15/29/29
f 19/28/28 15/29/29 18/30/30
f 18/30/30 15/29/29 16/31/31
f 18/30/30 16/31/31 17/32/32
f 16/33/33 33/34/34 17/35/35
f 17/35/35 33/34/34 64/36/36
f 64/36/36 33/34/34 34/37/37
f 64/36/36 34/37/37 63/38/38
f 63/38/38 34/37/37 35/39/39
f 63/38/38 35/39/39 62/40/40
f 62/40/40 35/39/39 36/41/41
f 62/40/40 36/41/41 61/42/42
f 61/42/42 36/41/41 37/43/43
f 61/42/42 37/43/43 60/44/44
f 60/44/44 37/43/43 38/45/45
f 60/44/44 38/45/45 59/46/46
f 59/46/46 38/45/45 39/47/47
f 59/46/46 39/47/47 58/48/48
f 58/48/48 39/47/47 40/49/49
f 58/48/48 40/49/49 57/50/50
f 57/50/50 40/49/49 41/51/51
f 57/50/50 41/51/51 56/52/52
f 56/52/52 41/51/51 42/53/53
f 56/52/52 42/53/53 55/54/54
f 55/54/54 42/53/53 43/55/55
f 55/54/54 43/55/55 54/56/56
f 54/56/56 43/55/55 44/57/57
f 54/56/56 44/57/57 53/58/58
f 53/58/58 44/57/57 45/59/59
f 53/58/58 45/59/59 52/60/60
f 52/60/60 45/59/59 46/61/61
f 52/60/60 46/61/61 51/62/62
f 51/62/62 46/61/61 47/63/63
f 51/62/62 47/63/63 50/64/64
f 50/64/64 47/63/63 48/65/65
f 50/64/64 48/65/65 49/66/66
f 48/67/67 65/68/68 49/69/69
f 49/69/69 65/68/68 84/70/70
f 84/70/70 65/68/68 66/71/71
f 84/70/70 66/71/71 83/72/72
f 83/72/72 66/71/71 67/73/73
f 83/72/72 67/73/73 82/74/74
f 82/74/74 67/73/73 68/75/75
f 82/74/74 68/75/75 81/76/76
f 81/76/76 68/75/75 69/77/77
f 81/76/76 69/77/77 80/78/78
f 80/78/78 69/77/77 70/79/79
f 80/78/78 70/79/79 79/80/80
f 79/80/80 70/79/79 71/81/81
f 79/80/80 71/81/81 78/82/82
f 78/82/82 71/81/81 72/83/83
f 78/82/82 72/83/83 77/84/84
f 77/84/84 72/83/83 73/85/85
f 77/84/84 73/85/85 76/86/86
f 76/86/86 73/85/85 74/87/87
f 76/86/86 74/87/87 75/88/88
f 74/89/89 85/90/90 75/91/91
f 75/91/91 85/90/90 86/92/92
f 85/93/93 87/94/94 86/95/95
f 86/95/95 87/94/94 88/96/96
f 87/97/97 89/98/98 88/99/99
f 88/99/99 89/98/98 90/100/100
f 89/101/101 91/102/102 90/103/103
f 90/103/103 91/102/102 92/104/104
f 91/105/105 93/106/106 92/107/107
f 92/107/107 93/106/106 94/108/108
f 93/109/109 95/110/110 94/111/111
f 94/111/111 95/110/110 114/112/112
f 114/112/112 95/110/110 96/113/113
f 114/112/112 96/113/113 113/114/114
f 113/114/114 96/113/113 97/115/115
f 113/114/114 97/115/115 112/116/116
f 112/116/116 97/115/115 98/117/117
f 112/116/116 98/117/117 111/118/118
f 111/118/118 98/117/117 99/119/119
f 111/118/118 99/119/119 110/120/120
f 110/120/120 99/119/119 100/121/121
f 110/120/120 100/121/121 109/122/122
f 109/122/122 100/121/121 101/123/123
f 109/122/122 101/123/123 108/124/124
f 108/124/124 101/123/123 102/125/125
f 108/124/124 102/125/125 107/126/126
f 107/126/126 102/125/125 103/127/127
f 107/126/126 103/127/127 106/128/128
f 106/128/128 103/127/127 104/129/129
f 106/128/128 104/129/129 105/130/130
f 104/131/131 115/132/132 105/133/133
f 105/133/133 115/132/132 146/134/134
f 146/134/134 115/132/132 116/135/135
f 146/134/134 116/135/135 145/136/136
f 145/136/136 116/135/135 117/137/137
f 145/136/136 117/137/137 144/138/138
f 144/138/138 117/137/137 118/139/139
f 144/138/138 118/139/139 143/140/140
f 143/140/140 118/139/139 119/141/141
f 143/140/140 119/141/141 142/142/142
f 142/142/142 119/141/141 120/143/143
f 142/142/142 120/143/143 141/144/144
f 141/144/144 120/143/143 121/145/145
f 141/144/144 121/145/145 140/146/146
f 140/146/146 121/145/145 122/147/147
f 140/146/146 122/147/147 139/148/148
f 139/148/148 122/147/147 123/149/149
f 139/148/148 123/149/149 138/150/150
f 138/150/150 123/149/149 124/151/151
f 138/150/150 124/151/151 137/152/152
f 137/152/152 124/151/151 125/153/153
f 137/152/152 125/153/153 136/154/154
f 136/154/154 125/153/153 126/155/155
f 136/154/154 126/155/155 135/156/156
f 135/156/156 126/155/155 127/157/157
f 135/156/156 127/157/157 134/158/158
f 134/158/158 127/157/157 128/159/159
f 134/158/158 128/159/159 133/160/160
f 133/160/160 128/159/159 129/161/161
f 133/160/160 129/161/161 132/162/162
f 132/162/162 129/161/161 130/163/163
f 132/162/162 130/163/163 131/164/164
f 130/165/165 147/166/166 131/167/167
f 131/167/167 147/166/166 178/168/168
f 178/168/168 147/166/166 148/169/169
f 178/168/168 148/169/169 177/170/170
f 177/170/170 148/169/169 149/171/171
f 177/170/170 149/171/171 176/172/172
f 176/172/172 149/171/171 150/173/173
f 176/172/172 150/173/173 175/174/174
f 175/174/174 150/173/173 151/175/175
f 175/174/174 151/175/175 174/176/176
f 174/176/176 151/175/175 152/177/177
f 174/176/176 152/177/177 173/178/178
f 173/178/178 152/177/177 153/179/179
f 173/178/178 153/179/179 172/180/180
f 172/180/180 153/179/179 154/181/181
f 172/180/180 154/181/181 171/182/182
f 171/182/182 154/181/181 155/183/183
f 171/182/182 155/183/183 170/184/184
f 170/184/184 155/183/183 156/185/185
f 170/184/184 156/185/185 169/186/186
f 169/186/186 156/185/185 157/187/187
f 169/186/186 157/187/187 168/188/188
f 168/188/188 157/187/187 158/189/189
f 168/188/188 158/189/189 167/190/190
f 167/190/190 158/189/189 159/191/191
f 167/190/190 159/191/191 166/192/192
f 166/192/192 159/191/191 160/193/193
f 166/192/192 160/193/193 165/194/194
f 165/194/194 160/193/193 161/195/195
f 165/194/194 161/195/195 164/196/196
f 164/196/196 161/195/195 162/197/197
f 164/196/196 162/197/197 163/198/198
f 162/199/199 1/200/200 163/201/201
f 163/201/201 1/200/200 32/202/202
f 31/203/203 165/204/204 32/205/205
f 32/205/205 165/204/204 164/206/206
f 32/205/205 164/206/206 163/207/207
f 165/204/204 31/203/203 166/208/208
f 166/208/208 31/203/203 30/209/209
f 166/208/208 30/209/209 167/210/210
f 167/210/210 30/209/209 168/211/211
f 168/211/211 30/209/209 29/212/212
f 168/211/211 29/212/212 169/213/213
f 169/213/213 29/212/212 28/214/214
f 169/213/213 28/214/214 170/215/215
f 170/215/215 28/214/214 27/216/216
f 170/215/215 27/216/216 171/217/217
f 171/217/217 27/216/216 26/218/218
f 171/217/217 26/218/218 172/219/219
f 172/219/219 26/218/218 25/220/220
f 172/219/219 25/220/220 173/221/221
f 173/221/221 25/220/220 24/222/222
f 173/221/221 24/222/222 23/223/223
f 173/221/221 23/223/223 174/224/224
f 174/224/224 23/223/223 22/225/225
f 174/224/224 22/225/225 175/226/226
f 175/226/226 22/225/225 21/227/227
f 175/226/226 21/227/227 176/228/228
f 176/228/228 21/227/227 20/229/229
f 176/228/228 20/229/229 177/230/230
f 177/230/230 20/229/229 19/231/231
f 177/230/230 19/231/231 178/232/232
f 178/232/232 19/231/231 18/233/233
f 178/232/232 18/233/233 17/234/234
f 178/232/232 17/234/234 131/235/235
f 131/235/235 17/234/234 64/236/236
f 131/235/235 64/236/236 132/237/237
f 132/237/237 64/236/236 63/238/238
f 132/237/237 63/238/238 133/239/239
f 133/239/239 63/238/238 62/240/240
f 133/239/239 62/240/240 134/241/241
f 134/241/241 62/240/240 61/242/242
f 134/241/241 61/242/242 135/243/243
f 135/243/243 61/242/242 60/244/244
f 135/243/243 60/244/244 59/245/245
f 135/243/243 59/245/245 136/246/246
f 136/246/246 59/245/245 58/247/247
f 136/246/246 58/247/247 137/248/248
f 137/248/248 58/247/247 57/249/249
f 137/248/248 57/249/249 138/250/250
f 138/250/250 57/249/249 56/251/251
f 138/250/250 56/251/251 139/252/252
f 139/252/252 56/251/251 55/253/253
f 139/252/252 55/253/253 140/254/254
f 140/254/254 55/253/253 54/255/255
f 140/254/254 54/255/255 141/256/256
f 141/256/256 54/255/255 53/257/257
f 141/256/256 53/257/257 142/258/258
f 142/258/258 53/257/257 52/259/259
f 142/258/258 52/259/259 143/260/260
f 143/260/260 52/259/259 144/261/261
f 144/261/261 52/259/259 51/262/262
f 144/261/261 51/262/262 145/263/263
f 145/263/263 51/262/262 50/264/264
f 145/263/263 50/264/264 146/265/265
f 146/265/265 50/264/264 105/266/266
f 105/266/266 50/264/264 49/267/267
f 105/266/266 49/267/267 106/268/268
f 106/268/268 49/267/267 84/269/269
f 106/268/268 84/269/269 107/270/270
f 107/270/270 84/269/269 108/271/271
f 108/271/271 84/269/269 83/272/272
f 108/271/271 83/272/272 109/273/273
f 109/273/273 83/272/272 110/274/274
f 110/274/274 83/272/272 82/275/275
f 110/274/274 82/275/275 111/276/276
f 111/276/276 82/275/275 81/277/277
f 111/276/276 81/277/277 112/278/278
f 112/278/278 81/277/277 80/279/279
f 112/278/278 80/279/279 79/280/280
f 112/278/278 79/280/280 113/281/281
f 113/281/281 79/280/280 78/282/282
f 113/281/281 78/282/282 114/283/283
f 114/283/283 78/282/282 77/284/284
f 114/283/283 77/284/284 76/285/285
f 114/283/283 76/285/285 94/286/286
f 94/286/286 76/285/285 75/287/287
f 94/286/286 75/287/287 92/288/288
f 92/288/288 75/287/287 86/289/289
f 92/288/288 86/289/289 88/290/290
f 88/290/290 90/291/291 92/288/288
f 15/292/292 147/293/293 16/294/294
f 16/294/294 147/293/293 130/295/295
f 16/294/294 130/295/295 33/296/296
f 33/296/296 130/295/295 129/297/297
f 33/296/296 129/297/297 34/298/298
f 34/298/298 129/297/297 128/299/299
f 34/298/298 128/299/299 35/300/300
f 35/300/300 128/299/299 127/301/301
f 35/300/300 127/301/301 36/302/302
f 36/302/302 127/301/301 126/303/303
f 36/302/302 126/303/303 37/304/304
f 37/304/304 126/303/303 38/305/305
f 38/305/305 126/303/303 125/306/306
f 38/305/305 125/306/306 39/307/307
f 39/307/307 125/306/306 124/308/308
f 39/307/307 124/308/308 40/309/309
f 40/309/309 124/308/308 123/310/310
f 40/309/309 123/310/310 41/311/311
f 41/311/311 123/310/310 122/312/312
f 41/311/311 122/312/312 42/313/313
f 42/313/313 122/312/312 121/314/314
f 42/313/313 121/314/314 43/315/315
f 43/315/315 121/314/314 120/316/316
f 43/315/315 120/316/316 44/317/317
f 44/317/317 120/316/316 119/318/318
f 44/317/317 119/318/318 45/319/319
f 45/319/319 119/318/318 118/320/320
f 45/319/319 118/320/320 117/321/321
f 15/292/292 14/322/322 147/293/293
f 147/293/293 14/322/322 148/323/323
f 148/323/323 14/322/322 13/324/324
f 148/323/323 13/324/324 149/325/325
f 149/325/325 13/324/324 12/326/326
f 149/325/325 12/326/326 150/327/327
f 150/327/327 12/326/326 11/328/328
f 150/327/327 11/328/328 151/329/329
f 151/329/329 11/328/328 10/330/330
f 151/329/329 10/330/330 152/331/331
f 152/331/331 10/330/330 9/332/332
f 152/331/331 9/332/332 8/333/333
f 152/331/331 8/333/333 153/334/334
f 153/334/334 8/333/333 7/335/335
f 153/334/334 7/335/335 154/336/336
f 154/336/336 7/335/335 6/337/337
f 154/336/336 6/337/337 155/338/338
f 155/338/338 6/337/337 5/339/339
f 155/338/338 5/339/339 156/340/340
f 156/340/340 5/339/339 4/341/341
f 156/340/340 4/341/341 157/342/342
f 157/342/342 4/341/341 3/343/343
f 157/342/342 3/343/343 158/344/344
f 158/344/344 3/343/343 159/345/345
f 159/345/345 3/343/343 2/346/346
f 159/345/345 2/346/346 160/347/347
f 160/347/347 2/346/346 1/348/348
f 160/347/347 1/348/348 161/349/349
f 161/349/349 1/348/348 162/350/350
f 45/319/319 117/321/321 46/351/351
f 46/351/351 117/321/321 116/352/352
f 46/351/351 116/352/352 47/353/353
f 47/353/353 116/352/352 115/354/354
f 47/353/353 115/354/354 104/355/355
f 47/353/353 104/355/355 48/356/356
f 48/356/356 104/355/355 103/357/357
f 48/356/356 103/357/357 65/358/358
f 65/358/358 103/357/357 102/359/359
f 65/358/358 102/359/359 101/360/360
f 65/358/358 101/360/360 66/361/361
f 66/361/361 101/360/360 100/362/362
f 66/361/361 100/362/362 99/363/363
f 66/361/361 99/363/363 67/364/364
f 67/364/364 99/363/363 98/365/365
f 67/364/364 98/365/365 68/366/366
f 68/366/366 98/365/365 97/367/367
f 68/366/366 97/367/367 69/368/368
f 69/368/368 97/367/367 70/369/369
f 70/369/369 97/367/367 96/370/370
f 70/369/369 96/370/370 71/371/371
f 71/371/371 96/370/370 95/372/372
f 71/371/371 95/372/372 72/373/373
f 72/373/373 95/372/372 73/374/374
f 73/374/374 95/372/372 93/375/375
f 73/374/374 93/375/375 74/376/376
f 74/376/376 93/375/375 91/377/377
f 74/376/376 91/377/377 85/378/378
f 85/378/378 91/377/377 87/379/379
f 87/379/379 91/377/377 89/380/380
# 178 vertices
# 380 texture params
# 380 normals
# 352 facets

# 1 groups
